<svg width="1920" height="2256" viewBox="0 0 1920 2256" fill="none" xmlns="http://www.w3.org/2000/svg">
<g opacity="0.07" clip-path="url(#clip0_249_107)">
<path d="M397.406 358.341L1746.93 568.902L2239.41 1842.46L1382.37 2905.45L32.8447 2694.89L-459.637 1421.33L397.406 358.341Z" stroke="#28B7BC" stroke-width="1.18061" stroke-miterlimit="10"/>
<path d="M1646.51 615.695C1641.27 608.514 1033.75 509.677 1024.15 508.18C1014.55 506.682 405.801 415.75 401.444 421.432C397.087 427.115 -372.78 1379.93 -374.278 1389.53C-375.775 1399.13 61.5905 2540.3 66.8326 2547.48C72.0747 2554.67 679.679 2652.94 686.455 2653.99C693.231 2655.05 1304.72 2746.99 1309.07 2741.31C1313.43 2735.62 2088.94 1783.69 2090.44 1774.09C2091.94 1764.49 1651.75 622.875 1646.51 615.695Z" stroke="#28B7BC" stroke-width="1.18061" stroke-miterlimit="10"/>
<path d="M1546.56 663.155C1535.51 648.706 995.241 556.313 976.043 553.317C956.845 550.322 413.543 473.65 399.182 484.134C384.821 494.619 -292.133 1337.57 -295.481 1359.03C-298.829 1380.49 89.5076 2387.34 99.6394 2403.96C109.771 2420.58 650.959 2510.8 670.157 2513.8C689.356 2516.79 1232.09 2593.38 1247.02 2582.98C1261.94 2572.58 1938.33 1729.54 1941.68 1708.08C1945.03 1686.63 1559.3 677.868 1546.56 663.155Z" stroke="#28B7BC" stroke-width="1.18061" stroke-miterlimit="10"/>
<path d="M1446.05 710.512C1430.41 688.406 956.437 601.15 928.204 596.745C899.972 592.34 422.205 529.364 400.576 545.655C378.947 561.946 -208.66 1295.64 -213.154 1324.44C-217.647 1353.24 118.697 2229.94 134.424 2251.48C150.15 2273.02 623.739 2359.06 652.537 2363.55C681.334 2368.04 1158.62 2430.37 1180.16 2414.64C1201.71 2398.91 1788.66 1665.69 1793.07 1637.46C1797.47 1609.23 1461.78 732.053 1446.05 710.512Z" stroke="#28B7BC" stroke-width="1.18061" stroke-miterlimit="10"/>
<path d="M1345.63 757.307C1324.66 728.585 917.663 649.467 879.831 643.564C841.999 637.661 429.681 588.946 400.96 609.914C372.239 630.882 -124.628 1253.8 -130.618 1292.2C-136.609 1330.59 146.965 2074.7 167.934 2103.42C188.902 2132.15 595.81 2211.83 634.207 2217.82C672.603 2223.81 1083.88 2271.79 1112.6 2250.82C1141.32 2229.85 1638.75 1607.02 1644.66 1569.19C1650.56 1531.35 1368.85 786.38 1345.63 757.307Z" stroke="#28B7BC" stroke-width="1.18061" stroke-miterlimit="10"/>
<path d="M1245.68 804.766C1218.99 768.212 879.239 695.537 831.808 688.136C784.377 680.736 438.071 646.369 402.081 673.144C366.092 699.919 -41.1632 1211.89 -48.6518 1259.88C-56.1403 1307.88 175.229 1919.49 203.134 1955.65C231.038 1991.82 569.006 2064.79 617.002 2072.28C664.997 2079.77 1010.17 2113.96 1046.73 2087.27C1083.28 2060.59 1489.41 1548.44 1496.81 1501.01C1504.21 1453.58 1271.89 840.669 1245.68 804.766Z" stroke="#28B7BC" stroke-width="1.18061" stroke-miterlimit="10"/>
<path d="M1145.26 851.56C1113.8 808.478 840.735 742.158 783.705 733.259C726.674 724.361 445.817 704.255 402.735 735.707C359.653 767.16 42.3099 1169.96 33.4117 1226.99C24.5136 1284.02 204.067 1764.34 235.431 1807.99C266.796 1851.63 539.953 1917.39 597.548 1926.38C655.142 1935.36 934.871 1955.29 977.953 1923.84C1021.03 1892.39 1338.38 1489.59 1347.36 1432C1356.35 1374.4 1178.31 895.471 1145.26 851.56Z" stroke="#28B7BC" stroke-width="1.18061" stroke-miterlimit="10"/>
<path d="M1045.31 899.005C1008.05 848.655 802.228 788.778 735.598 778.382C668.969 767.986 454.124 762.228 403.862 798.923C353.599 835.618 126.345 1128.11 115.949 1194.74C105.553 1261.37 232.337 1609.11 269.508 1660.02C306.679 1710.94 512.025 1770.16 577.525 1780.38C643.025 1790.6 858.435 1796.45 909.262 1759.84C960.089 1723.23 1186.21 1430.56 1196.7 1363.37C1207.18 1296.17 1082 949.268 1045.31 899.005Z" stroke="#28B7BC" stroke-width="1.18061" stroke-miterlimit="10"/>
<path d="M944.797 946.38C902.948 888.373 763.807 834.851 687.578 822.957C611.35 811.064 462.517 819.654 404.422 862.067C346.327 904.481 209.813 1086.2 197.919 1162.43C186.026 1238.66 261.169 1453.98 303.018 1511.99C344.867 1569.99 486.355 1623.3 560.889 1634.93C635.424 1646.56 785.95 1638.23 843.393 1596.3C900.835 1554.36 1038.09 1371.6 1049.98 1295.37C1061.88 1219.14 987.863 1004 944.797 946.38Z" stroke="#28B7BC" stroke-width="1.18061" stroke-miterlimit="10"/>
<path d="M279.62 1131.79C268.23 1203.75 282.142 1277.44 318.995 1340.29C355.848 1403.14 413.351 1451.27 481.713 1476.47C550.081 1501.68 625.063 1502.39 693.895 1478.5C762.728 1454.61 821.144 1407.58 859.186 1345.45C897.234 1283.31 912.552 1209.9 902.532 1137.73C892.519 1065.56 857.785 999.101 804.256 949.677C750.727 900.247 681.708 870.912 608.972 866.666C536.24 862.426 464.278 883.537 405.366 926.407C371.849 950.601 343.468 981.217 321.881 1016.48C300.295 1051.73 285.931 1090.93 279.62 1131.79Z" stroke="#28B7BC" stroke-width="1.18061" stroke-miterlimit="10"/>
</g>
<defs>
<clipPath id="clip0_249_107">
<rect width="2857.43" height="2857.43" fill="white" transform="matrix(-0.988046 -0.154161 -0.154161 0.988046 2521.78 440.504)"/>
</clipPath>
</defs>
</svg>
