<svg width="1146" height="1146" viewBox="0 0 1146 1146" fill="none" xmlns="http://www.w3.org/2000/svg">
<rect opacity="0.2" width="1146" height="1146" fill="url(#paint0_radial_1314_170)"/>
<g opacity="0.38">
<path d="M589.492 426.82H570.97L565.594 438.068L580.002 452.451L594.41 438.068L589.492 426.82ZM580.407 440.69C580.036 440.685 579.667 440.642 579.305 440.564C579.305 441.835 579.331 443.311 579.401 443.944C579.47 444.577 579.592 444.904 580.226 444.999C580.587 445.045 580.952 445.068 581.317 445.067C581.556 445.067 581.657 445.189 581.657 445.284C581.657 445.379 581.487 445.5 581.269 445.5C579.837 445.5 578.336 445.426 577.777 445.426C577.218 445.426 575.936 445.5 575.084 445.5C574.818 445.5 574.674 445.426 574.674 445.284C574.674 445.141 574.749 445.067 575.015 445.067C575.267 445.074 575.519 445.051 575.765 444.999C576.202 444.899 576.324 444.514 576.393 443.944C576.479 443.185 576.489 441.307 576.489 439.725C575.911 439.576 575.322 439.472 574.727 439.414C572.726 439.208 571.002 440.548 570.868 440.648C571.256 439.816 571.882 439.116 572.669 438.634C573.455 438.152 574.367 437.91 575.292 437.937C576.851 437.974 577.905 438.686 580.689 439.272C582.818 439.715 584.627 438.217 584.627 438.217C584.478 438.296 583.116 440.685 580.407 440.69ZM581.12 438.612C580.911 438.625 580.701 438.625 580.492 438.612C580.46 438.616 580.428 438.613 580.397 438.604C580.366 438.595 580.337 438.58 580.312 438.56C580.288 438.54 580.267 438.515 580.252 438.487C580.237 438.459 580.228 438.428 580.226 438.396C580.226 438.233 580.465 438.132 580.928 438.132C582.115 438.132 583.786 436.909 583.786 434.82C583.819 434.255 583.722 433.689 583.505 433.166C583.288 432.642 582.955 432.173 582.53 431.793C581.94 431.287 581.182 431.013 580.401 431.023C580.091 431.014 579.782 431.046 579.48 431.118C579.358 431.171 579.31 431.287 579.31 431.503V438.459C578.198 438.196 577.293 437.932 576.494 437.679V435.996C576.494 432.901 576.494 432.305 576.494 431.672C576.494 431.039 576.25 430.76 575.574 430.57C575.293 430.515 575.008 430.49 574.722 430.496C574.504 430.496 574.36 430.422 574.36 430.28C574.36 430.137 574.53 430.09 574.844 430.09C575.962 430.09 577.319 430.137 577.926 430.137C578.799 430.137 580.492 430.09 581.466 430.09C584.127 430.09 585.101 430.955 585.442 431.239C586.105 431.889 586.487 432.768 586.506 433.692C586.48 436.545 584.154 438.612 581.12 438.612Z" stroke="#36B8BC" stroke-width="0.75" stroke-miterlimit="10"/>
<g clip-path="url(#clip0_1314_170)">
<path d="M498.485 670.317L485.387 657.22L473.632 661.372L473.65 681.73L494.009 681.748L498.485 670.317ZM482.252 673.7C481.994 673.434 481.763 673.143 481.563 672.832C480.664 673.73 479.639 674.793 479.24 675.29C478.842 675.786 478.697 676.104 479.078 676.619C479.301 676.908 479.542 677.182 479.801 677.439C479.97 677.608 479.956 677.766 479.889 677.833C479.822 677.9 479.616 677.865 479.461 677.711C478.449 676.699 477.44 675.585 477.044 675.19C476.649 674.795 475.69 673.94 475.088 673.338C474.9 673.149 474.85 672.996 474.951 672.895C475.052 672.794 475.157 672.795 475.345 672.983C475.518 673.166 475.713 673.328 475.924 673.465C476.303 673.703 476.662 673.517 477.114 673.163C477.711 672.687 479.046 671.367 480.165 670.248C479.862 669.733 479.519 669.243 479.139 668.782C477.869 667.221 475.703 666.949 475.538 666.926C476.4 666.612 477.338 666.56 478.235 666.775C479.132 666.99 479.948 667.464 480.582 668.137C481.659 669.266 481.901 670.514 483.455 672.897C484.647 674.715 486.986 674.936 486.986 674.936C486.825 674.886 484.172 675.612 482.252 673.7ZM484.226 672.735C484.069 672.597 483.921 672.448 483.782 672.291C483.757 672.271 483.736 672.246 483.721 672.218C483.705 672.19 483.695 672.159 483.692 672.128C483.689 672.096 483.692 672.064 483.701 672.033C483.711 672.003 483.726 671.974 483.747 671.95C483.862 671.835 484.103 671.933 484.43 672.261C485.269 673.1 487.316 673.416 488.793 671.94C489.216 671.563 489.547 671.095 489.764 670.571C489.981 670.046 490.077 669.479 490.045 668.911C489.985 668.135 489.643 667.406 489.084 666.861C488.872 666.636 488.63 666.439 488.366 666.277C488.242 666.228 488.126 666.276 487.973 666.429L483.055 671.348C482.454 670.375 482.001 669.548 481.616 668.805L482.805 667.615C484.994 665.426 485.416 665.005 485.863 664.557C486.311 664.11 486.335 663.739 485.991 663.127C485.832 662.89 485.648 662.67 485.441 662.472C485.287 662.318 485.238 662.164 485.338 662.063C485.439 661.963 485.593 662.05 485.815 662.272C486.605 663.062 487.532 664.055 487.961 664.484C488.578 665.102 489.808 666.265 490.497 666.954C492.379 668.836 492.456 670.136 492.496 670.578C492.505 671.506 492.153 672.398 491.514 673.065C489.478 675.064 486.371 674.881 484.226 672.735Z" stroke="#36B8BC" stroke-width="0.75" stroke-miterlimit="10"/>
</g>
<g clip-path="url(#clip1_1314_170)">
<path d="M675.11 656.896L662.012 669.994L666.165 681.748L686.523 681.73L686.541 661.372L675.11 656.896ZM678.493 673.128C678.227 673.386 677.936 673.618 677.624 673.818C678.523 674.717 679.586 675.742 680.082 676.14C680.579 676.539 680.897 676.684 681.412 676.303C681.7 676.08 681.974 675.838 682.232 675.58C682.401 675.41 682.558 675.425 682.625 675.492C682.693 675.559 682.658 675.765 682.504 675.92C681.491 676.932 680.378 677.941 679.982 678.336C679.587 678.731 678.732 679.691 678.13 680.293C677.942 680.481 677.788 680.53 677.688 680.43C677.587 680.329 677.587 680.224 677.776 680.036C677.958 679.862 678.12 679.668 678.258 679.457C678.495 679.077 678.31 678.719 677.956 678.267C677.479 677.67 676.159 676.335 675.04 675.216C674.526 675.519 674.036 675.862 673.575 676.242C672.014 677.511 671.742 679.678 671.719 679.843C671.405 678.98 671.352 678.043 671.567 677.146C671.783 676.249 672.256 675.433 672.929 674.798C674.058 673.722 675.307 673.48 677.689 671.926C679.508 670.733 679.729 668.395 679.729 668.395C679.679 668.556 680.405 671.209 678.493 673.128ZM677.528 671.155C677.389 671.312 677.241 671.46 677.084 671.599C677.064 671.624 677.039 671.645 677.011 671.66C676.983 671.676 676.952 671.685 676.92 671.689C676.888 671.692 676.856 671.689 676.826 671.679C676.795 671.67 676.767 671.655 676.743 671.634C676.627 671.518 676.726 671.278 677.053 670.951C677.892 670.111 678.209 668.065 676.732 666.588C676.355 666.165 675.887 665.833 675.363 665.617C674.839 665.4 674.272 665.304 673.704 665.335C672.928 665.395 672.199 665.737 671.654 666.296C671.428 666.509 671.232 666.751 671.07 667.015C671.02 667.139 671.068 667.254 671.221 667.407L676.14 672.326C675.167 672.926 674.341 673.38 673.597 673.765L672.408 672.576C670.219 670.387 669.797 669.965 669.35 669.518C668.902 669.07 668.531 669.046 667.919 669.389C667.682 669.549 667.463 669.733 667.265 669.939C667.111 670.094 666.957 670.143 666.856 670.042C666.755 669.942 666.842 669.788 667.064 669.566C667.855 668.775 668.848 667.849 669.277 667.42C669.894 666.803 671.058 665.572 671.746 664.884C673.628 663.002 674.928 662.925 675.371 662.885C676.299 662.876 677.191 663.228 677.857 663.866C679.856 665.903 679.673 669.009 677.528 671.155Z" stroke="#36B8BC" stroke-width="0.75" stroke-miterlimit="10"/>
</g>
<g clip-path="url(#clip2_1314_170)">
<path d="M469.317 516.766L441.236 509.241L428.522 524.092L444.529 551.726L472.209 535.797L469.317 516.766ZM449.915 534.08C449.355 533.921 448.812 533.707 448.296 533.441C447.78 535.365 447.221 537.612 447.069 538.599C446.917 539.585 446.97 540.13 447.892 540.531C448.421 540.749 448.965 540.931 449.518 541.078C449.881 541.176 449.985 541.401 449.947 541.544C449.908 541.688 449.601 541.803 449.27 541.714C447.099 541.132 444.854 540.411 444.007 540.184C443.159 539.957 441.185 539.547 439.894 539.202C439.49 539.093 439.302 538.923 439.36 538.708C439.418 538.492 439.561 538.41 439.964 538.518C440.344 538.631 440.735 538.698 441.13 538.719C441.832 538.745 442.174 538.212 442.51 537.377C442.947 536.262 443.725 533.423 444.367 531.027C443.551 530.566 442.7 530.169 441.822 529.84C438.872 528.716 435.714 530.044 435.471 530.141C436.397 529.039 437.63 528.233 439.018 527.822C440.406 527.412 441.887 527.416 443.277 527.833C445.626 528.522 446.935 530.029 450.918 532.046C453.966 533.582 457.317 532.049 457.317 532.049C457.059 532.108 454.024 535.172 449.915 534.08ZM451.839 531.223C451.517 531.158 451.199 531.072 450.887 530.968C450.837 530.96 450.789 530.943 450.746 530.917C450.703 530.891 450.666 530.856 450.636 530.816C450.607 530.775 450.586 530.729 450.575 530.68C450.563 530.632 450.562 530.581 450.571 530.532C450.637 530.285 451.041 530.23 451.743 530.418C453.543 530.9 456.573 529.726 457.42 526.564C457.698 525.72 457.782 524.825 457.665 523.943C457.548 523.062 457.234 522.216 456.744 521.469C456.054 520.463 455.017 519.74 453.829 519.438C453.363 519.299 452.881 519.221 452.395 519.208C452.188 519.238 452.068 519.394 451.98 519.722L449.157 530.256C447.578 529.405 446.313 528.638 445.206 527.93L445.888 525.382C447.144 520.694 447.386 519.792 447.643 518.833C447.9 517.875 447.642 517.352 446.694 516.79C446.292 516.593 445.869 516.439 445.433 516.332C445.102 516.244 444.914 516.074 444.972 515.858C445.03 515.642 445.307 515.64 445.784 515.767C447.478 516.221 449.517 516.844 450.436 517.091C451.76 517.445 454.345 518.061 455.822 518.457C459.856 519.538 460.982 521.243 461.383 521.813C462.125 523.066 462.346 524.553 462.002 525.959C460.804 530.269 456.438 532.455 451.839 531.223Z" stroke="#36B8BC" stroke-width="0.75" stroke-miterlimit="10"/>
</g>
<path d="M610.875 572.833L959.802 585.5" stroke="url(#paint1_linear_1314_170)" stroke-width="0.75"/>
<path d="M549.125 572.833L200.198 585.896" stroke="url(#paint2_linear_1314_170)" stroke-width="0.75"/>
<path d="M600.383 548.688L873.904 328.208" stroke="url(#paint3_linear_1314_170)" stroke-width="0.75"/>
<path d="M560.602 548.688L287.081 328.208" stroke="url(#paint4_linear_1314_170)" stroke-width="0.75"/>
<path d="M580 603.708V956" stroke="url(#paint5_linear_1314_170)" stroke-width="0.75"/>
<circle cx="580" cy="576" r="379.625" stroke="#36B8BC" stroke-opacity="0.1" stroke-width="0.75"/>
<circle cx="579.799" cy="576.198" r="309.76" stroke="#36B8BC" stroke-opacity="0.2" stroke-width="0.75"/>
<circle cx="579.805" cy="576.198" r="259.094" stroke="#36B8BC" stroke-opacity="0.3" stroke-width="0.75"/>
<circle cx="579.805" cy="576.198" r="211.594" stroke="#36B8BC" stroke-opacity="0.4" stroke-width="0.75"/>
<circle cx="579.799" cy="576.198" r="161.323" stroke="#36B8BC" stroke-opacity="0.6" stroke-width="0.75"/>
<circle cx="579.799" cy="576.198" r="112.635" stroke="#36B8BC" stroke-width="0.75"/>
<path d="M600.336 548.688H560.645L549.125 572.833L580 603.708L610.875 572.833L600.336 548.688ZM580.867 578.462C580.073 578.451 579.282 578.36 578.506 578.191C578.506 580.919 578.563 584.089 578.711 585.447C578.859 586.806 579.122 587.508 580.479 587.712C581.254 587.811 582.035 587.86 582.817 587.859C583.33 587.859 583.547 588.119 583.547 588.323C583.547 588.527 583.182 588.787 582.715 588.787C579.646 588.787 576.43 588.629 575.232 588.629C574.035 588.629 571.286 588.787 569.461 588.787C568.891 588.787 568.583 588.629 568.583 588.323C568.583 588.017 568.743 587.859 569.313 587.859C569.853 587.873 570.393 587.823 570.921 587.712C571.856 587.496 572.119 586.67 572.267 585.447C572.449 583.817 572.472 579.787 572.472 576.39C571.233 576.07 569.971 575.847 568.697 575.723C564.409 575.281 560.713 578.157 560.428 578.372C561.259 576.586 562.601 575.083 564.286 574.048C565.971 573.013 567.925 572.493 569.906 572.553C573.248 572.632 575.506 574.16 581.471 575.417C586.034 576.368 589.911 573.153 589.911 573.153C589.592 573.322 586.672 578.451 580.867 578.462ZM582.395 574.002C581.947 574.03 581.497 574.03 581.049 574.002C580.981 574.009 580.912 574.004 580.846 573.984C580.78 573.965 580.718 573.933 580.665 573.89C580.612 573.846 580.568 573.793 580.536 573.732C580.504 573.672 580.485 573.606 580.479 573.538C580.479 573.187 580.992 572.972 581.985 572.972C584.528 572.972 588.109 570.345 588.109 565.862C588.178 564.648 587.972 563.434 587.506 562.309C587.04 561.185 586.327 560.178 585.418 559.363C584.152 558.277 582.529 557.689 580.855 557.71C580.192 557.691 579.528 557.76 578.882 557.914C578.62 558.028 578.517 558.277 578.517 558.741V573.673C576.134 573.107 574.195 572.541 572.484 571.998V568.386C572.484 561.741 572.484 560.462 572.484 559.103C572.484 557.745 571.959 557.144 570.511 556.737C569.91 556.619 569.298 556.566 568.686 556.578C568.218 556.578 567.91 556.42 567.91 556.114C567.91 555.809 568.275 555.707 568.948 555.707C571.343 555.707 574.252 555.809 575.552 555.809C577.422 555.809 581.049 555.707 583.137 555.707C588.839 555.707 590.927 557.563 591.657 558.175C593.077 559.569 593.895 561.457 593.938 563.439C593.881 569.564 588.896 574.002 582.395 574.002Z" stroke="#36B8BC" stroke-width="0.75" stroke-miterlimit="10"/>
<g clip-path="url(#clip3_1314_170)">
<path d="M718.872 509.055L690.791 516.58L687.205 535.797L714.885 551.726L730.892 524.092L718.872 509.055ZM710.726 533.751C710.162 533.894 709.585 533.979 709.004 534.007C709.52 535.932 710.159 538.157 710.521 539.088C710.883 540.018 711.201 540.463 712.2 540.35C712.767 540.273 713.329 540.16 713.882 540.01C714.245 539.913 714.447 540.056 714.486 540.199C714.525 540.343 714.316 540.596 713.985 540.685C711.814 541.266 709.509 541.764 708.661 541.991C707.814 542.218 705.899 542.851 704.608 543.197C704.205 543.305 703.957 543.252 703.899 543.036C703.841 542.821 703.924 542.678 704.328 542.57C704.713 542.478 705.085 542.341 705.438 542.162C706.059 541.833 706.088 541.2 705.962 540.309C705.783 539.124 705.037 536.277 704.395 533.881C703.458 533.89 702.523 533.972 701.598 534.125C698.48 534.627 696.41 537.356 696.248 537.562C696.499 536.145 697.164 534.83 698.16 533.78C699.157 532.731 700.442 531.994 701.854 531.66C704.233 531.082 706.12 531.732 710.578 531.488C713.985 531.294 716.121 528.291 716.121 528.291C715.927 528.471 714.831 532.643 710.726 533.751ZM710.964 530.315C710.652 530.419 710.334 530.505 710.012 530.57C709.965 530.588 709.915 530.597 709.864 530.596C709.814 530.595 709.764 530.584 709.719 530.564C709.673 530.543 709.632 530.514 709.598 530.477C709.564 530.44 709.537 530.397 709.52 530.35C709.454 530.103 709.777 529.854 710.479 529.666C712.278 529.184 714.315 526.652 713.468 523.489C713.287 522.62 712.912 521.802 712.37 521.097C711.828 520.392 711.132 519.817 710.335 519.415C709.234 518.889 707.975 518.782 706.795 519.114C706.322 519.226 705.865 519.4 705.438 519.632C705.273 519.761 705.248 519.956 705.336 520.284L708.158 530.818C706.365 530.871 704.886 530.839 703.573 530.78L702.89 528.232C701.634 523.544 701.392 522.642 701.135 521.683C700.879 520.725 700.394 520.401 699.292 520.388C698.845 520.419 698.402 520.497 697.971 520.622C697.64 520.711 697.392 520.657 697.335 520.442C697.277 520.226 697.516 520.085 697.992 519.957C699.686 519.503 701.763 519.024 702.683 518.777C704.007 518.423 706.553 517.663 708.03 517.268C712.065 516.187 713.892 517.101 714.524 517.394C715.793 518.108 716.729 519.285 717.133 520.675C718.251 525.007 715.563 529.082 710.964 530.315Z" stroke="#36B8BC" stroke-width="0.75" stroke-miterlimit="10"/>
</g>
</g>
<defs>
<radialGradient id="paint0_radial_1314_170" cx="0" cy="0" r="1" gradientUnits="userSpaceOnUse" gradientTransform="translate(573 573) rotate(90) scale(573)">
<stop stop-color="#36B8BC"/>
<stop offset="1" stop-color="#08080D" stop-opacity="0"/>
</radialGradient>
<linearGradient id="paint1_linear_1314_170" x1="610.875" y1="572.833" x2="960" y2="585.5" gradientUnits="userSpaceOnUse">
<stop stop-color="#36B8BC"/>
<stop offset="1" stop-color="#36B8BC" stop-opacity="0"/>
</linearGradient>
<linearGradient id="paint2_linear_1314_170" x1="549.125" y1="579.167" x2="204.156" y2="589.063" gradientUnits="userSpaceOnUse">
<stop stop-color="#36B8BC"/>
<stop offset="1" stop-color="#36B8BC" stop-opacity="0"/>
</linearGradient>
<linearGradient id="paint3_linear_1314_170" x1="608.497" y1="548.688" x2="812.154" y2="393.521" gradientUnits="userSpaceOnUse">
<stop stop-color="#36B8BC"/>
<stop offset="1" stop-color="#36B8BC" stop-opacity="0"/>
</linearGradient>
<linearGradient id="paint4_linear_1314_170" x1="548.133" y1="554.625" x2="353.977" y2="404.01" gradientUnits="userSpaceOnUse">
<stop stop-color="#36B8BC"/>
<stop offset="1" stop-color="#36B8BC" stop-opacity="0"/>
</linearGradient>
<linearGradient id="paint5_linear_1314_170" x1="580.5" y1="603.708" x2="580.5" y2="956" gradientUnits="userSpaceOnUse">
<stop stop-color="#36B8BC"/>
<stop offset="1" stop-color="#36B8BC" stop-opacity="0"/>
</linearGradient>
<clipPath id="clip0_1314_170">
<rect width="33.25" height="29.6875" fill="white" transform="translate(481.453 650.417) rotate(45)"/>
</clipPath>
<clipPath id="clip1_1314_170">
<rect width="33.25" height="29.6875" fill="white" transform="translate(655.211 673.928) rotate(-45)"/>
</clipPath>
<clipPath id="clip2_1314_170">
<rect width="52.1865" height="46.5447" fill="white" transform="translate(430.547 503.085) rotate(15)"/>
</clipPath>
<clipPath id="clip3_1314_170">
<rect width="52.1865" height="46.5447" fill="white" transform="translate(678.453 516.592) rotate(-15)"/>
</clipPath>
</defs>
</svg>
