<svg width="1146" height="1146" viewBox="0 0 1146 1146" fill="none" xmlns="http://www.w3.org/2000/svg">
<rect opacity="0.2" width="1146" height="1146" fill="url(#paint0_radial_249_130)"/>
<g filter="url(#filter0_d_249_130)">
<path d="M770.521 272.124L673.016 248.435L630.05 302.006L687.272 395.971L781.735 338.446L770.521 272.124ZM704.833 334.067C702.895 333.561 701.014 332.854 699.222 331.958C697.575 338.735 695.826 346.569 695.364 350.059C694.903 353.548 695.146 355.408 698.326 356.721C700.169 357.426 702.055 358.013 703.972 358.479C705.259 358.792 705.61 359.571 705.486 360.081C705.362 360.592 704.31 361.005 703.168 360.727C695.636 358.898 687.834 356.59 684.894 355.876C682.464 355.286 675.08 353.904 670.658 352.829C669.249 352.487 668.566 351.909 668.749 351.156C668.932 350.403 669.421 350.085 670.83 350.427C672.144 350.78 673.495 350.979 674.855 351.019C677.409 351.099 678.415 349.182 679.582 346.07C680.993 342.168 683.457 332.347 685.54 323.771C682.686 322.241 679.717 320.935 676.66 319.865C666.38 316.209 655.758 321.167 654.784 321.471C657.896 317.555 662.09 314.64 666.845 313.087C671.6 311.535 676.707 311.413 681.53 312.738C689.696 314.927 694.291 320.057 708.217 326.708C718.779 331.846 730.269 326.174 730.269 326.174C729.338 326.616 719.193 337.556 704.833 334.067ZM711.279 323.953C710.169 323.709 709.077 323.392 708.01 323.004C707.378 322.851 706.689 322.297 706.878 321.52C707.067 320.743 708.508 320.424 710.913 321.008C717.158 322.525 727.529 318.176 730.226 307.074C731.12 304.114 731.34 300.992 730.872 297.936C730.403 294.88 729.258 291.967 727.519 289.41C725.043 285.978 721.407 283.56 717.285 282.602C715.663 282.147 713.986 281.921 712.302 281.931C711.605 282.045 711.208 282.618 710.931 283.76L701.96 320.686C696.447 317.854 692.039 315.239 688.172 312.936L690.332 304.045C694.328 287.599 695.054 284.61 695.904 281.112C696.754 277.614 695.796 275.941 692.473 274.053C691.074 273.421 689.614 272.936 688.115 272.608C686.948 272.325 686.29 271.753 686.479 270.976C686.667 270.198 687.62 270.198 689.15 270.57C695.006 271.992 702.09 273.971 705.273 274.744C709.865 275.86 718.866 277.789 723.944 279.023C737.988 282.435 741.981 288.241 743.383 290.203C746.043 294.495 746.921 299.657 745.832 304.588C742.096 319.965 727.206 327.874 711.267 324.001L711.279 323.953Z" fill="#36B8BC"/>
</g>
<g filter="url(#filter1_d_249_130)">
<path d="M322.211 347.736L277.863 392.084L292.49 432.437L361.255 432.443L361.261 363.314L322.211 347.736ZM333.92 402.941C333.019 403.812 332.03 404.586 330.969 405.251C334.052 408.334 337.665 411.814 339.377 413.195C341.09 414.577 342.162 415.052 343.897 413.781C344.872 413.026 345.799 412.21 346.671 411.339C347.256 410.753 347.787 410.819 348.019 411.051C348.251 411.283 348.129 411.979 347.61 412.499C344.184 415.924 340.416 419.339 339.079 420.676C337.973 421.781 334.835 425.274 332.824 427.285C332.183 427.926 331.652 428.103 331.31 427.76C330.967 427.418 330.956 427.053 331.597 426.412C332.213 425.825 332.758 425.169 333.222 424.456C334.095 423.119 333.399 421.959 332.117 420.323C330.493 418.301 326.051 413.793 322.151 409.893C320.406 410.919 318.743 412.079 317.178 413.363C311.885 417.662 311.077 424.944 310.923 425.563C309.844 422.628 309.652 419.442 310.369 416.399C311.086 413.356 312.682 410.59 314.957 408.446C318.781 404.799 323.013 404.014 331.091 398.743C337.268 394.775 337.976 386.797 337.976 386.797C337.91 387.438 340.451 396.41 333.92 402.941ZM330.616 396.212C330.125 396.725 329.601 397.205 329.047 397.649C328.76 397.936 328.24 398.124 327.887 397.77C327.533 397.417 327.831 396.544 328.926 395.45C331.766 392.61 332.816 385.659 327.766 380.61C326.477 379.171 324.882 378.038 323.098 377.294C321.315 376.551 319.387 376.215 317.457 376.312C314.82 376.518 312.347 377.672 310.495 379.561C309.725 380.279 309.059 381.101 308.517 382.004C308.351 382.412 308.528 382.81 309.047 383.329L325.842 400.124C322.538 402.147 319.709 403.65 317.223 404.965L313.179 400.921C305.698 393.441 304.339 392.082 302.748 390.49C301.157 388.899 299.953 388.866 297.864 390.027C297.072 390.568 296.339 391.19 295.676 391.883C295.146 392.414 294.626 392.58 294.273 392.226C293.919 391.872 294.229 391.364 294.925 390.668C297.588 388.005 300.948 384.866 302.395 383.418C304.484 381.33 308.44 377.153 310.75 374.843C317.137 368.455 321.535 368.212 323.038 368.101C326.194 368.077 329.235 369.286 331.513 371.471C338.507 378.465 337.888 388.985 330.638 396.234L330.616 396.212Z" fill="#36B8BC"/>
</g>
<g filter="url(#filter2_d_249_130)">
<path d="M492.371 250.549L456.426 260.18L451.97 285.255L487.303 305.659L507.815 270.138L492.371 250.549ZM482.009 282.39C481.288 282.57 480.551 282.674 479.808 282.701C480.477 285.2 481.301 288.06 481.772 289.278C482.242 290.496 482.652 291.058 483.92 290.92C484.645 290.821 485.363 290.677 486.07 290.487C486.545 290.36 486.798 290.552 486.848 290.74C486.899 290.928 486.63 291.249 486.209 291.362C483.432 292.106 480.483 292.743 479.399 293.033C478.503 293.273 475.854 294.137 474.224 294.573C473.705 294.713 473.38 294.646 473.305 294.369C473.231 294.091 473.333 293.9 473.853 293.761C474.343 293.642 474.818 293.467 475.268 293.238C476.113 292.81 476.1 292.007 475.926 290.787C475.692 289.266 474.747 285.632 473.9 282.47C472.698 282.48 471.5 282.583 470.315 282.778C466.319 283.417 463.744 286.919 463.481 287.191C463.798 285.363 464.644 283.669 465.915 282.318C467.187 280.967 468.827 280.019 470.632 279.593C473.679 278.853 476.087 279.705 481.802 279.393C486.153 279.187 488.883 275.297 488.883 275.297C488.659 275.607 487.303 280.971 482.009 282.39ZM482.308 277.952C481.904 278.07 481.492 278.161 481.076 278.225C480.843 278.287 480.52 278.229 480.443 277.943C480.367 277.656 480.779 277.296 481.666 277.059C483.968 276.442 486.569 273.182 485.473 269.089C485.237 267.967 484.753 266.912 484.058 266.001C483.362 265.089 482.471 264.345 481.45 263.822C480.034 263.146 478.421 263.005 476.909 263.427C476.3 263.567 475.714 263.792 475.168 264.095C474.961 264.256 474.934 264.512 475.047 264.933L478.694 278.546C476.397 278.605 474.497 278.538 472.829 278.476L471.951 275.198C470.326 269.135 470.031 268.034 469.686 266.744C469.34 265.455 468.731 265.08 467.314 265.057C466.746 265.1 466.185 265.202 465.638 265.362C465.209 265.477 464.892 265.408 464.816 265.122C464.739 264.835 465.049 264.666 465.613 264.514C467.772 263.936 470.429 263.32 471.602 263.006C473.295 262.552 476.567 261.579 478.439 261.078C483.617 259.69 485.949 260.87 486.754 261.259C488.383 262.183 489.587 263.706 490.109 265.505C491.628 271.174 488.189 276.395 482.313 277.97L482.308 277.952Z" fill="#36B8BC"/>
</g>
<g filter="url(#filter3_bd_249_130)">
<rect x="306" y="423.692" width="447" height="290" rx="21" transform="rotate(-15 306 423.692)" fill="white" fill-opacity="0.02" shape-rendering="crispEdges"/>
<rect x="306.612" y="424.046" width="446" height="289" rx="20.5" transform="rotate(-15 306.612 424.046)" stroke="#04D099" shape-rendering="crispEdges"/>
</g>
<g clip-path="url(#clip0_249_130)">
<g opacity="0.58">
<g clip-path="url(#clip1_249_130)">
<path d="M536.018 381.527L520.763 385.615L518.818 396.065L533.858 404.73L542.551 389.706L536.018 381.527ZM531.596 394.955C531.29 395.033 530.976 395.079 530.661 395.094C530.941 396.141 531.289 397.351 531.486 397.857C531.682 398.363 531.855 398.605 532.398 398.544C532.706 398.502 533.011 398.441 533.312 398.36C533.509 398.307 533.619 398.384 533.64 398.462C533.661 398.541 533.547 398.678 533.368 398.726C532.188 399.042 530.936 399.313 530.476 399.436C530.015 399.559 528.975 399.903 528.274 400.091C528.055 400.15 527.92 400.121 527.889 400.004C527.857 399.886 527.902 399.809 528.121 399.75C528.33 399.7 528.533 399.625 528.724 399.528C529.062 399.349 529.078 399.005 529.009 398.521C528.911 397.877 528.506 396.328 528.157 395.025C527.648 395.03 527.14 395.074 526.637 395.158C524.944 395.43 523.819 396.914 523.731 397.025C523.867 396.255 524.228 395.54 524.77 394.969C525.311 394.399 526.009 393.998 526.776 393.817C528.068 393.503 529.094 393.857 531.515 393.725C533.367 393.62 534.526 391.987 534.526 391.987C534.421 392.085 533.826 394.353 531.596 394.955ZM531.725 393.087C531.556 393.144 531.383 393.19 531.208 393.225C531.182 393.235 531.155 393.24 531.128 393.24C531.1 393.239 531.073 393.233 531.048 393.222C531.024 393.211 531.001 393.195 530.983 393.175C530.964 393.155 530.95 393.131 530.941 393.106C530.905 392.971 531.08 392.836 531.461 392.734C532.439 392.472 533.545 391.095 533.084 389.375C532.986 388.902 532.782 388.458 532.487 388.075C532.193 387.691 531.815 387.378 531.382 387.159C530.784 386.873 530.099 386.815 529.458 386.995C529.201 387.056 528.953 387.151 528.721 387.276C528.632 387.347 528.618 387.453 528.666 387.631L530.201 393.36C529.226 393.388 528.423 393.371 527.71 393.339L527.338 391.953C526.655 389.403 526.524 388.913 526.384 388.391C526.244 387.87 525.981 387.694 525.382 387.687C525.139 387.703 524.899 387.746 524.665 387.814C524.485 387.862 524.35 387.833 524.319 387.716C524.288 387.599 524.417 387.522 524.676 387.453C525.597 387.206 526.725 386.945 527.225 386.812C527.943 386.619 529.327 386.206 530.129 385.991C532.321 385.404 533.314 385.901 533.657 386.061C534.347 386.449 534.855 387.089 535.075 387.846C535.683 390.201 534.224 392.417 531.725 393.087Z" stroke="#36B8BC" stroke-width="0.75" stroke-miterlimit="10"/>
</g>
<g clip-path="url(#clip2_249_130)">
<path d="M514.803 602.15L501.126 594.253L492.361 600.267L496.869 617.029L513.639 612.552L514.803 602.15ZM502.181 608.518C501.91 608.356 501.655 608.167 501.421 607.955C500.88 608.893 500.27 609.995 500.051 610.492C499.832 610.989 499.783 611.282 500.21 611.622C500.458 611.811 500.717 611.983 500.987 612.138C501.164 612.24 501.187 612.373 501.146 612.443C501.106 612.513 500.928 612.53 500.767 612.437C499.71 611.827 498.633 611.132 498.22 610.894C497.808 610.656 496.829 610.163 496.2 609.8C496.004 609.687 495.929 609.571 495.99 609.466C496.051 609.361 496.137 609.338 496.334 609.451C496.517 609.564 496.713 609.654 496.917 609.721C497.282 609.833 497.536 609.601 497.83 609.21C498.217 608.685 499.025 607.303 499.7 606.135C499.337 605.779 498.946 605.451 498.532 605.154C497.141 604.149 495.297 604.403 495.156 604.42C495.797 603.972 496.558 603.721 497.344 603.701C498.13 603.68 498.907 603.89 499.578 604.304C500.713 604.997 501.188 605.972 502.994 607.591C504.377 608.825 506.352 608.491 506.352 608.491C506.208 608.486 504.184 609.669 502.181 608.518ZM503.593 607.288C503.433 607.208 503.279 607.119 503.13 607.02C503.105 607.009 503.082 606.993 503.063 606.973C503.044 606.954 503.029 606.93 503.02 606.905C503.01 606.879 503.005 606.852 503.006 606.825C503.007 606.798 503.014 606.771 503.025 606.747C503.095 606.626 503.315 606.654 503.657 606.852C504.533 607.358 506.289 607.167 507.179 605.625C507.444 605.221 507.614 604.762 507.677 604.283C507.74 603.803 507.694 603.315 507.542 602.854C507.321 602.228 506.879 601.703 506.298 601.378C506.073 601.239 505.831 601.13 505.578 601.055C505.465 601.042 505.38 601.107 505.288 601.267L502.322 606.403C501.613 605.734 501.058 605.154 500.576 604.626L501.293 603.384C502.613 601.098 502.867 600.658 503.137 600.191C503.407 599.724 503.345 599.413 502.927 598.985C502.743 598.824 502.543 598.684 502.33 598.567C502.168 598.474 502.094 598.358 502.154 598.253C502.215 598.148 502.361 598.185 502.593 598.319C503.418 598.796 504.4 599.41 504.848 599.668C505.493 600.04 506.763 600.727 507.482 601.142C509.447 602.277 509.798 603.331 509.928 603.686C510.141 604.448 510.048 605.26 509.669 605.951C508.433 608.046 505.834 608.581 503.593 607.288Z" stroke="#36B8BC" stroke-width="0.75" stroke-miterlimit="10"/>
</g>
<g clip-path="url(#clip3_249_130)">
<path d="M657.306 552.119L649.409 565.796L655.423 574.561L672.185 570.053L667.708 553.282L657.306 552.119ZM663.674 564.741C663.512 565.012 663.323 565.266 663.111 565.5C664.049 566.042 665.151 566.652 665.648 566.871C666.145 567.089 666.438 567.138 666.778 566.711C666.967 566.464 667.139 566.204 667.294 565.935C667.396 565.758 667.529 565.735 667.599 565.775C667.669 565.816 667.686 565.993 667.593 566.154C666.983 567.212 666.288 568.288 666.05 568.701C665.812 569.114 665.319 570.093 664.956 570.721C664.843 570.918 664.727 570.992 664.622 570.932C664.517 570.871 664.494 570.785 664.607 570.588C664.72 570.405 664.81 570.209 664.877 570.005C664.989 569.64 664.757 569.385 664.366 569.091C663.841 568.705 662.459 567.896 661.291 567.222C660.935 567.585 660.607 567.976 660.31 568.39C659.305 569.78 659.559 571.625 659.576 571.766C659.128 571.125 658.877 570.364 658.857 569.578C658.836 568.791 659.046 568.015 659.46 567.344C660.153 566.208 661.128 565.733 662.747 563.928C663.981 562.544 663.647 560.57 663.647 560.57C663.642 560.713 664.825 562.738 663.674 564.741ZM662.444 563.328C662.364 563.488 662.275 563.643 662.176 563.792C662.165 563.817 662.149 563.84 662.129 563.859C662.11 563.878 662.086 563.892 662.061 563.902C662.035 563.912 662.008 563.916 661.981 563.915C661.954 563.914 661.927 563.908 661.903 563.896C661.782 563.827 661.81 563.607 662.008 563.265C662.514 562.389 662.323 560.633 660.781 559.743C660.377 559.478 659.918 559.308 659.439 559.245C658.959 559.182 658.471 559.228 658.01 559.38C657.384 559.6 656.859 560.043 656.534 560.623C656.395 560.848 656.286 561.091 656.211 561.344C656.198 561.457 656.263 561.542 656.423 561.634L661.559 564.599C660.89 565.308 660.31 565.864 659.782 566.346L658.54 565.628C656.254 564.309 655.814 564.055 655.347 563.785C654.88 563.515 654.569 563.577 654.141 563.995C653.98 564.178 653.84 564.379 653.723 564.592C653.63 564.753 653.514 564.828 653.409 564.767C653.304 564.707 653.341 564.561 653.475 564.329C653.952 563.503 654.566 562.521 654.824 562.073C655.196 561.429 655.883 560.159 656.298 559.439C657.433 557.474 658.487 557.124 658.842 556.994C659.604 556.781 660.416 556.874 661.107 557.253C663.202 558.489 663.737 561.088 662.444 563.328Z" stroke="#36B8BC" stroke-width="0.75" stroke-miterlimit="10"/>
</g>
<path d="M456.896 482.125H432.108L424.914 497.161L444.196 516.387L463.477 497.161L456.896 482.125ZM444.737 500.666C444.241 500.659 443.747 500.602 443.263 500.497C443.263 502.196 443.298 504.17 443.391 505.016C443.483 505.862 443.647 506.299 444.495 506.426C444.979 506.488 445.467 506.518 445.955 506.517C446.275 506.517 446.411 506.679 446.411 506.806C446.411 506.933 446.183 507.095 445.891 507.095C443.975 507.095 441.966 506.997 441.218 506.997C440.47 506.997 438.754 507.095 437.614 507.095C437.258 507.095 437.066 506.997 437.066 506.806C437.066 506.616 437.165 506.517 437.521 506.517C437.859 506.526 438.196 506.495 438.526 506.426C439.11 506.292 439.274 505.777 439.366 505.016C439.48 504 439.495 501.491 439.495 499.376C438.721 499.176 437.933 499.037 437.137 498.96C434.459 498.685 432.151 500.475 431.973 500.609C432.492 499.498 433.33 498.561 434.382 497.917C435.434 497.273 436.655 496.949 437.892 496.986C439.979 497.035 441.389 497.987 445.114 498.769C447.964 499.362 450.385 497.359 450.385 497.359C450.186 497.465 448.362 500.659 444.737 500.666ZM445.691 497.888C445.412 497.906 445.131 497.906 444.851 497.888C444.808 497.893 444.765 497.889 444.724 497.877C444.683 497.865 444.644 497.845 444.611 497.818C444.578 497.791 444.55 497.758 444.53 497.72C444.51 497.683 444.498 497.642 444.495 497.599C444.495 497.381 444.815 497.247 445.435 497.247C447.023 497.247 449.26 495.611 449.26 492.819C449.303 492.063 449.174 491.307 448.883 490.607C448.592 489.907 448.147 489.28 447.579 488.773C446.788 488.096 445.775 487.73 444.73 487.743C444.315 487.731 443.901 487.774 443.498 487.87C443.334 487.941 443.27 488.096 443.27 488.385V497.684C441.781 497.331 440.57 496.979 439.502 496.64V494.391C439.502 490.253 439.502 489.456 439.502 488.61C439.502 487.765 439.174 487.391 438.269 487.137C437.894 487.063 437.512 487.03 437.13 487.038C436.838 487.038 436.645 486.94 436.645 486.749C436.645 486.559 436.873 486.496 437.294 486.496C438.789 486.496 440.606 486.559 441.418 486.559C442.586 486.559 444.851 486.496 446.154 486.496C449.716 486.496 451.019 487.652 451.475 488.032C452.362 488.9 452.873 490.076 452.9 491.311C452.864 495.125 449.751 497.888 445.691 497.888Z" stroke="#36B8BC" stroke-width="0.75" stroke-miterlimit="10"/>
<path d="M585.851 497.062L876.016 430.493" stroke="url(#paint1_linear_249_130)" stroke-width="0.75"/>
<path d="M535 510.688L250.514 598.447" stroke="url(#paint2_linear_249_130)" stroke-width="0.75"/>
<path d="M584.827 451.991L748.496 237.549" stroke="url(#paint3_linear_249_130)" stroke-width="0.75"/>
<path d="M513.705 470.531L265.204 367.047" stroke="url(#paint4_linear_249_130)" stroke-width="0.75"/>
<path d="M567.234 529.303L644.977 819.443" stroke="url(#paint5_linear_249_130)" stroke-width="0.75"/>
<circle cx="561.122" cy="506.483" r="323.625" transform="rotate(-15 561.122 506.483)" stroke="#36B8BC" stroke-opacity="0.1" stroke-width="0.75"/>
<circle cx="561.001" cy="506.69" r="264.056" transform="rotate(-15 561.001 506.69)" stroke="#36B8BC" stroke-opacity="0.2" stroke-width="0.75"/>
<circle cx="561.007" cy="506.69" r="220.856" transform="rotate(-15 561.007 506.69)" stroke="#36B8BC" stroke-opacity="0.3" stroke-width="0.75"/>
<circle cx="561.006" cy="506.69" r="180.731" transform="rotate(-15 561.006 506.69)" fill="#28B7BC" fill-opacity="0.1"/>
<circle cx="561.006" cy="506.69" r="180.356" transform="rotate(-15 561.006 506.69)" stroke="#36B8BC" stroke-opacity="0.4" stroke-width="0.75"/>
<circle cx="561.003" cy="506.69" r="137.869" transform="rotate(-15 561.003 506.69)" fill="#28B7BC" fill-opacity="0.1"/>
<circle cx="561.003" cy="506.69" r="137.494" transform="rotate(-15 561.003 506.69)" stroke="#36B8BC" stroke-opacity="0.6" stroke-width="0.75"/>
<circle cx="561.004" cy="506.69" r="95.9812" transform="rotate(-15 561.004 506.69)" fill="#28B7BC" fill-opacity="0.11" stroke="#36B8BC" stroke-width="0.75"/>
<g clip-path="url(#clip4_249_130)">
<path d="M660.712 420.705L639.246 433.099L640.534 449.717L666.845 456.727L673.93 430.436L660.712 420.705ZM659.453 442.841C659.02 443.083 658.564 443.281 658.092 443.432C658.941 444.903 659.959 446.595 660.462 447.281C660.966 447.968 661.326 448.264 662.124 447.951C662.574 447.762 663.012 447.545 663.434 447.3C663.712 447.14 663.91 447.212 663.973 447.322C664.037 447.432 663.92 447.687 663.667 447.833C662.008 448.791 660.219 449.709 659.572 450.083C658.924 450.457 657.487 451.401 656.5 451.971C656.191 452.149 655.975 452.16 655.88 451.995C655.785 451.83 655.822 451.695 656.13 451.517C656.427 451.356 656.703 451.16 656.954 450.935C657.393 450.527 657.278 449.999 656.977 449.294C656.568 448.358 655.326 446.177 654.268 444.345C653.498 444.559 652.746 444.833 652.018 445.164C649.562 446.265 648.458 448.97 648.371 449.175C648.265 447.952 648.522 446.722 649.111 445.638C649.701 444.554 650.596 443.663 651.685 443.077C653.517 442.076 655.215 442.195 658.832 441.01C661.596 440.099 662.692 437.154 662.692 437.154C662.572 437.345 662.59 441.023 659.453 442.841ZM658.891 439.959C658.658 440.114 658.414 440.254 658.163 440.379C658.129 440.404 658.089 440.423 658.048 440.433C658.006 440.443 657.963 440.445 657.921 440.438C657.878 440.432 657.838 440.416 657.802 440.394C657.766 440.371 657.735 440.342 657.71 440.307C657.601 440.117 657.812 439.841 658.348 439.531C659.724 438.737 660.843 436.202 659.447 433.785C659.106 433.108 658.617 432.518 658.015 432.057C657.413 431.596 656.713 431.276 655.968 431.121C654.945 430.93 653.884 431.12 652.986 431.654C652.621 431.851 652.283 432.095 651.982 432.38C651.876 432.523 651.898 432.689 652.042 432.939L656.692 440.992C655.226 441.432 654.001 441.732 652.907 441.973L651.782 440.025C649.713 436.441 649.315 435.751 648.892 435.019C648.469 434.286 647.998 434.126 647.088 434.359C646.726 434.483 646.379 434.645 646.052 434.843C645.799 434.989 645.583 435 645.488 434.835C645.392 434.67 645.558 434.501 645.922 434.291C647.217 433.543 648.822 432.69 649.525 432.284C650.537 431.7 652.467 430.513 653.596 429.861C656.68 428.08 658.387 428.43 658.972 428.531C660.174 428.84 661.205 429.602 661.845 430.658C663.721 433.979 662.407 437.929 658.891 439.959Z" stroke="#36B8BC" stroke-width="0.75" stroke-miterlimit="10"/>
</g>
</g>
<path d="M585.487 450.261L512.796 469.739L503.746 520.304L576.135 562.506L616.759 490.022L585.487 450.261ZM564.673 515.176C563.215 515.54 561.723 515.75 560.22 515.801C561.587 520.902 563.268 526.742 564.226 529.229C565.183 531.716 566.015 532.865 568.582 532.589C570.048 532.391 571.501 532.1 572.93 531.717C573.89 531.46 574.403 531.852 574.506 532.236C574.609 532.62 574.066 533.275 573.214 533.503C567.599 535.007 561.634 536.292 559.442 536.88C557.63 537.365 552.275 539.114 548.978 539.997C547.927 540.278 547.269 540.141 547.117 539.574C546.965 539.008 547.172 538.619 548.223 538.338C549.214 538.098 550.174 537.742 551.084 537.277C552.792 536.408 552.761 534.77 552.404 532.279C551.922 529.175 549.992 521.755 548.263 515.301C545.832 515.315 543.407 515.519 541.01 515.912C532.928 517.196 527.734 524.329 527.203 524.883C527.834 521.156 529.539 517.702 532.105 514.952C534.671 512.202 537.986 510.276 541.637 509.414C547.799 507.92 552.675 509.671 564.238 509.061C573.043 508.662 578.55 500.739 578.55 500.739C578.097 501.369 575.379 512.308 564.673 515.176ZM565.257 506.123C564.439 506.362 563.606 506.545 562.764 506.673C562.293 506.8 561.64 506.681 561.483 506.096C561.326 505.511 562.159 504.778 563.952 504.297C568.607 503.05 573.857 496.411 571.618 488.056C571.135 485.765 570.152 483.61 568.739 481.747C567.326 479.885 565.52 478.362 563.452 477.29C560.584 475.903 557.318 475.609 554.261 476.461C553.03 476.744 551.845 477.2 550.741 477.816C550.324 478.143 550.27 478.667 550.5 479.526L557.947 507.317C553.297 507.427 549.453 507.281 546.078 507.147L544.285 500.455C540.968 488.077 540.365 485.828 539.66 483.195C538.954 480.562 537.72 479.796 534.851 479.741C533.703 479.826 532.568 480.032 531.463 480.355C530.594 480.588 529.954 480.446 529.797 479.861C529.64 479.276 530.266 478.932 531.407 478.626C535.773 477.456 541.147 476.212 543.52 475.577C546.944 474.659 553.561 472.69 557.347 471.676C567.817 468.87 572.542 471.288 574.173 472.086C577.474 473.979 579.917 477.093 580.983 480.765C584.084 492.338 577.149 502.976 565.267 506.16L565.257 506.123Z" fill="#36B8BC"/>
</g>
<defs>
<filter id="filter0_d_249_130" x="608.05" y="196.435" width="195.685" height="199.536" filterUnits="userSpaceOnUse" color-interpolation-filters="sRGB">
<feFlood flood-opacity="0" result="BackgroundImageFix"/>
<feColorMatrix in="SourceAlpha" type="matrix" values="0 0 0 0 0 0 0 0 0 0 0 0 0 0 0 0 0 0 127 0" result="hardAlpha"/>
<feOffset dy="-30"/>
<feGaussianBlur stdDeviation="11"/>
<feComposite in2="hardAlpha" operator="out"/>
<feColorMatrix type="matrix" values="0 0 0 0 0.211765 0 0 0 0 0.721569 0 0 0 0 0.737255 0 0 0 0.16 0"/>
<feBlend mode="normal" in2="BackgroundImageFix" result="effect1_dropShadow_249_130"/>
<feBlend mode="normal" in="SourceGraphic" in2="effect1_dropShadow_249_130" result="shape"/>
</filter>
<filter id="filter1_d_249_130" x="255.863" y="295.736" width="127.397" height="136.707" filterUnits="userSpaceOnUse" color-interpolation-filters="sRGB">
<feFlood flood-opacity="0" result="BackgroundImageFix"/>
<feColorMatrix in="SourceAlpha" type="matrix" values="0 0 0 0 0 0 0 0 0 0 0 0 0 0 0 0 0 0 127 0" result="hardAlpha"/>
<feOffset dy="-30"/>
<feGaussianBlur stdDeviation="11"/>
<feComposite in2="hardAlpha" operator="out"/>
<feColorMatrix type="matrix" values="0 0 0 0 0.211765 0 0 0 0 0.721569 0 0 0 0 0.737255 0 0 0 0.16 0"/>
<feBlend mode="normal" in2="BackgroundImageFix" result="effect1_dropShadow_249_130"/>
<feBlend mode="normal" in="SourceGraphic" in2="effect1_dropShadow_249_130" result="shape"/>
</filter>
<filter id="filter2_d_249_130" x="429.97" y="198.549" width="99.8447" height="107.11" filterUnits="userSpaceOnUse" color-interpolation-filters="sRGB">
<feFlood flood-opacity="0" result="BackgroundImageFix"/>
<feColorMatrix in="SourceAlpha" type="matrix" values="0 0 0 0 0 0 0 0 0 0 0 0 0 0 0 0 0 0 127 0" result="hardAlpha"/>
<feOffset dy="-30"/>
<feGaussianBlur stdDeviation="11"/>
<feComposite in2="hardAlpha" operator="out"/>
<feColorMatrix type="matrix" values="0 0 0 0 0.211765 0 0 0 0 0.721569 0 0 0 0 0.737255 0 0 0 0.16 0"/>
<feBlend mode="normal" in2="BackgroundImageFix" result="effect1_dropShadow_249_130"/>
<feBlend mode="normal" in="SourceGraphic" in2="effect1_dropShadow_249_130" result="shape"/>
</filter>
<filter id="filter3_bd_249_130" x="209.714" y="210.714" width="699.397" height="588.382" filterUnits="userSpaceOnUse" color-interpolation-filters="sRGB">
<feFlood flood-opacity="0" result="BackgroundImageFix"/>
<feGaussianBlur in="BackgroundImageFix" stdDeviation="18"/>
<feComposite in2="SourceAlpha" operator="in" result="effect1_backgroundBlur_249_130"/>
<feColorMatrix in="SourceAlpha" type="matrix" values="0 0 0 0 0 0 0 0 0 0 0 0 0 0 0 0 0 0 127 0" result="hardAlpha"/>
<feOffset dy="-1"/>
<feGaussianBlur stdDeviation="50.5"/>
<feComposite in2="hardAlpha" operator="out"/>
<feColorMatrix type="matrix" values="0 0 0 0 0.156863 0 0 0 0 0.717647 0 0 0 0 0.737255 0 0 0 0.16 0"/>
<feBlend mode="normal" in2="effect1_backgroundBlur_249_130" result="effect2_dropShadow_249_130"/>
<feBlend mode="normal" in="SourceGraphic" in2="effect2_dropShadow_249_130" result="shape"/>
</filter>
<radialGradient id="paint0_radial_249_130" cx="0" cy="0" r="1" gradientUnits="userSpaceOnUse" gradientTransform="translate(573 573) rotate(90) scale(573)">
<stop stop-color="#36B8BC"/>
<stop offset="1" stop-color="#08080D" stop-opacity="0"/>
</radialGradient>
<linearGradient id="paint1_linear_249_130" x1="585.851" y1="497.062" x2="876.179" y2="430.449" gradientUnits="userSpaceOnUse">
<stop stop-color="#36B8BC"/>
<stop offset="1" stop-color="#36B8BC" stop-opacity="0"/>
</linearGradient>
<linearGradient id="paint2_linear_249_130" x1="536.398" y1="515.905" x2="254.472" y2="600.181" gradientUnits="userSpaceOnUse">
<stop stop-color="#36B8BC"/>
<stop offset="1" stop-color="#36B8BC" stop-opacity="0"/>
</linearGradient>
<linearGradient id="paint3_linear_249_130" x1="578.567" y1="477.7" x2="712.052" y2="304.965" gradientUnits="userSpaceOnUse">
<stop stop-color="#36B8BC"/>
<stop offset="1" stop-color="#36B8BC" stop-opacity="0"/>
</linearGradient>
<linearGradient id="paint4_linear_249_130" x1="530.166" y1="495.911" x2="337.025" y2="414.714" gradientUnits="userSpaceOnUse">
<stop stop-color="#36B8BC"/>
<stop offset="1" stop-color="#36B8BC" stop-opacity="0"/>
</linearGradient>
<linearGradient id="paint5_linear_249_130" x1="567.717" y1="529.174" x2="645.46" y2="819.314" gradientUnits="userSpaceOnUse">
<stop stop-color="#36B8BC"/>
<stop offset="1" stop-color="#36B8BC" stop-opacity="0"/>
</linearGradient>
<clipPath id="clip0_249_130">
<rect width="446" height="289" fill="white" transform="translate(307.227 424.399) rotate(-15)"/>
</clipPath>
<clipPath id="clip1_249_130">
<rect width="28.35" height="25.3125" fill="white" transform="translate(514.062 385.62) rotate(-15)"/>
</clipPath>
<clipPath id="clip2_249_130">
<rect width="28.35" height="25.3125" fill="white" transform="translate(496.383 589.519) rotate(30)"/>
</clipPath>
<clipPath id="clip3_249_130">
<rect width="28.35" height="25.3125" fill="white" transform="translate(644.672 570.538) rotate(-60)"/>
</clipPath>
<clipPath id="clip4_249_130">
<rect width="44.4958" height="39.6855" fill="white" transform="translate(629.094 435.831) rotate(-30)"/>
</clipPath>
</defs>
</svg>
