<svg width="20" height="20" viewBox="0 0 20 20" fill="none" xmlns="http://www.w3.org/2000/svg">
<g clip-path="url(#clip0_787_12258)">
<path d="M19.1525 0H5.59322C5.36846 0 5.15291 0.0892855 4.99398 0.248215C4.83505 0.407144 4.74576 0.622698 4.74576 0.847458V8.13559H0.847458C0.622698 8.13559 0.407144 8.22488 0.248215 8.38381C0.0892855 8.54274 0 8.75829 0 8.98305L0 16.4407C0.000897495 17.3844 0.376185 18.2892 1.04349 18.9565C1.7108 19.6238 2.61561 19.9991 3.55932 20H16.4407C17.3844 19.9991 18.2892 19.6238 18.9565 18.9565C19.6238 18.2892 19.9991 17.3844 20 16.4407V0.847458C20 0.622698 19.9107 0.407144 19.7518 0.248215C19.5929 0.0892855 19.3773 0 19.1525 0V0ZM4.74576 17.1186C4.74576 17.4333 4.62076 17.7351 4.39826 17.9576C4.17576 18.1801 3.87399 18.3051 3.55932 18.3051C3.06513 18.3042 2.59143 18.1075 2.24198 17.758C1.89253 17.4086 1.69581 16.9349 1.69492 16.4407V9.83051H4.74576V17.1186ZM15.7627 14.8H8.98305C8.75829 14.8 8.54274 14.7107 8.38381 14.5518C8.22488 14.3929 8.13559 14.1773 8.13559 13.9525C8.13559 13.7278 8.22488 13.5122 8.38381 13.3533C8.54274 13.1944 8.75829 13.1051 8.98305 13.1051H15.7627C15.9875 13.1051 16.203 13.1944 16.362 13.3533C16.5209 13.5122 16.6102 13.7278 16.6102 13.9525C16.6102 14.1773 16.5209 14.3929 16.362 14.5518C16.203 14.7107 15.9875 14.8 15.7627 14.8ZM15.7627 10.8475H8.98305C8.75829 10.8475 8.54274 10.7582 8.38381 10.5992C8.22488 10.4403 8.13559 10.2248 8.13559 10C8.13559 9.77524 8.22488 9.55969 8.38381 9.40076C8.54274 9.24183 8.75829 9.15254 8.98305 9.15254H15.7627C15.9875 9.15254 16.203 9.24183 16.362 9.40076C16.5209 9.55969 16.6102 9.77524 16.6102 10C16.6102 10.2248 16.5209 10.4403 16.362 10.5992C16.203 10.7582 15.9875 10.8475 15.7627 10.8475ZM15.7627 6.89153H8.98305C8.75829 6.89153 8.54274 6.80224 8.38381 6.64331C8.22488 6.48438 8.13559 6.26883 8.13559 6.04407C8.13559 5.81931 8.22488 5.60375 8.38381 5.44482C8.54274 5.2859 8.75829 5.19661 8.98305 5.19661H15.7627C15.9875 5.19661 16.203 5.2859 16.362 5.44482C16.5209 5.60375 16.6102 5.81931 16.6102 6.04407C16.6102 6.26883 16.5209 6.48438 16.362 6.64331C16.203 6.80224 15.9875 6.89153 15.7627 6.89153Z" fill="#858585"/>
</g>
<defs>
<clipPath id="clip0_787_12258">
<rect width="20" height="20" fill="white"/>
</clipPath>
</defs>
</svg>
