<svg width="18" height="18" viewBox="0 0 18 18" fill="none" xmlns="http://www.w3.org/2000/svg">
<g clip-path="url(#clip0_424_885)">
<path d="M14.7687 3.45691C14.5884 2.72324 14.05 2.15033 13.3287 1.92515C12.6038 1.69847 11.8376 1.86384 11.273 2.36464L10.375 3.15833L14.6784 4.72458C14.8302 4.32555 14.8746 3.88803 14.7687 3.45691Z" fill="#868F9D"/>
<path d="M9.81386 1.83254C9.70157 1.08547 9.21824 0.458635 8.52116 0.167506C7.82409 -0.124115 7.04351 -0.0308803 6.43246 0.415323C6.07443 0.677167 5.82746 1.04789 5.6875 1.4512L9.9914 3.01773L9.81386 1.83254Z" fill="#868F9D"/>
<path d="M7.57812 8.87598V18.0002H8.6333V9.26002L7.57812 8.87598Z" fill="#868F9D"/>
<path d="M1.76978 8.53857C1.47816 8.53857 1.24219 8.77454 1.24219 9.06616V16.4172C1.24219 17.2899 1.95217 18 2.82496 18H6.51805V8.53857H1.76978Z" fill="#868F9D"/>
<path d="M9.6875 9.64404V18.0002H13.3806C14.2533 18.0002 14.9634 17.2902 14.9634 16.4174V11.5643L9.6875 9.64404Z" fill="#868F9D"/>
<path d="M9.37304 3.91697L7.92969 7.88281L8.92157 8.2438L10.3649 4.27796L9.37304 3.91697Z" fill="#868F9D"/>
<path d="M15.8194 6.26282L11.3576 4.63892L9.91406 8.60479L15.3675 10.5897C15.4268 10.6113 15.4881 10.6216 15.5479 10.6216C15.7632 10.6216 15.9657 10.4887 16.0435 10.2743L16.7653 8.29123C17.0655 7.46752 16.6397 6.56179 15.8194 6.26282Z" fill="#868F9D"/>
<path d="M3.92301 1.93248C3.10432 1.63306 2.19501 2.05272 1.89403 2.87843L1.17273 4.86153C1.07278 5.13511 1.21397 5.43809 1.48805 5.53751L6.94135 7.52233L8.38493 3.55646L3.92301 1.93248Z" fill="#868F9D"/>
</g>
<defs>
<clipPath id="clip0_424_885">
<rect width="18" height="18" fill="white"/>
</clipPath>
</defs>
</svg>
