<svg width="18" height="18" viewBox="0 0 18 18" fill="none" xmlns="http://www.w3.org/2000/svg">
<path d="M9.71538 1.19635C9.52521 1.00654 9.26733 0.899902 8.99844 0.899902C8.72955 0.899902 8.47166 1.00654 8.2815 1.19635L1.1831 8.28395C0.998377 8.47491 0.896165 8.73067 0.898476 8.99615C0.900786 9.26163 1.00743 9.51558 1.19545 9.70331C1.38346 9.89104 1.6378 9.99752 1.90368 9.99983C2.16957 10.0021 2.42572 9.90008 2.61697 9.71564L2.91409 9.41897V16.0874C2.91409 16.3559 3.02093 16.6135 3.2111 16.8033C3.40128 16.9932 3.6592 17.0999 3.92815 17.0999H5.95626C6.22521 17.0999 6.48314 16.9932 6.67331 16.8033C6.86348 16.6135 6.97032 16.3559 6.97032 16.0874V14.0624C6.97032 13.7938 7.07716 13.5363 7.26733 13.3464C7.45751 13.1565 7.71544 13.0498 7.98438 13.0498H10.0125C10.2814 13.0498 10.5394 13.1565 10.7295 13.3464C10.9197 13.5363 11.0266 13.7938 11.0266 14.0624V16.0874C11.0266 16.3559 11.1334 16.6135 11.3236 16.8033C11.5137 16.9932 11.7717 17.0999 12.0406 17.0999H14.0687C14.3377 17.0999 14.5956 16.9932 14.7858 16.8033C14.9759 16.6135 15.0828 16.3559 15.0828 16.0874V9.41897L15.3799 9.71564C15.5712 9.90008 15.8273 10.0021 16.0932 9.99983C16.3591 9.99752 16.6134 9.89104 16.8014 9.70331C16.9894 9.51558 17.0961 9.26163 17.0984 8.99615C17.1007 8.73067 16.9985 8.47491 16.8138 8.28395L9.71538 1.19635V1.19635Z" fill="#54657E"/>
</svg>
