<svg width="16" height="16" viewBox="0 0 16 16" fill="none" xmlns="http://www.w3.org/2000/svg">
<path d="M9.74991 8.58346C9.42734 8.58346 9.16662 8.84483 9.16662 9.16675V11.5001C9.16662 11.8215 8.90525 12.0834 8.58322 12.0834H6.83324V3.33352C6.83324 2.83535 6.5159 2.39027 6.03878 2.22461L5.86607 2.16683H8.58322C8.90525 2.16683 9.16662 2.42873 9.16662 2.75023V4.50021C9.16662 4.82213 9.42734 5.0835 9.74991 5.0835C10.0725 5.0835 10.3332 4.82213 10.3332 4.50021V2.75023C10.3332 1.78541 9.54804 1.00024 8.58322 1.00024H2.31249C2.29027 1.00024 2.27168 1.01018 2.25011 1.01306C2.22202 1.01071 2.19521 1.00024 2.16669 1.00024C1.52326 1.00024 1 1.5234 1 2.16683V12.6667C1 13.1649 1.31733 13.61 1.79446 13.7756L5.30499 14.9458C5.42398 14.9826 5.54233 15.0001 5.66665 15.0001C6.31008 15.0001 6.83324 14.4768 6.83324 13.8334V13.2501H8.58322C9.54804 13.2501 10.3332 12.465 10.3332 11.5001V9.16675C10.3332 8.84483 10.0725 8.58346 9.74991 8.58346Z" fill="#858585"/>
<path d="M14.8278 6.42097L12.4944 4.0877C12.3277 3.92086 12.0768 3.87066 11.8587 3.96102C11.6411 4.05149 11.4987 4.26436 11.4987 4.50009V6.25008H9.16543C8.8434 6.25008 8.58203 6.51133 8.58203 6.83337C8.58203 7.1554 8.8434 7.41666 9.16543 7.41666H11.4987V9.16664C11.4987 9.40237 11.6411 9.61524 11.8587 9.70571C12.0768 9.79607 12.3277 9.74587 12.4944 9.57914L14.8278 7.24576C15.0558 7.01772 15.0558 6.64901 14.8278 6.42097Z" fill="#858585"/>
</svg>
