<svg width="18" height="18" viewBox="0 0 18 18" fill="none" xmlns="http://www.w3.org/2000/svg">
<path d="M8.99857 4.09089C10.1282 4.09089 11.044 3.17511 11.044 2.04544C11.044 0.915776 10.1282 0 8.99857 0C7.8689 0 6.95312 0.915776 6.95312 2.04544C6.95312 3.17511 7.8689 4.09089 8.99857 4.09089Z" fill="#56C6AD"/>
<path d="M6.189 8.18182H11.7996C12.283 8.18182 12.6761 7.75753 12.6761 7.23578V6.97372C12.6761 6.29017 12.3378 5.66576 11.7924 5.34413C11.1392 4.959 10.1237 4.5 8.99432 4.5C7.86492 4.5 6.84939 4.95904 6.19621 5.34413C5.65088 5.66572 5.3125 6.29017 5.3125 6.97372V7.23578C5.3125 7.75757 5.70561 8.18182 6.189 8.18182Z" fill="#56C6AD"/>
<path d="M3.68607 13.9091C4.81574 13.9091 5.73151 12.9933 5.73151 11.8637C5.73151 10.734 4.81574 9.81824 3.68607 9.81824C2.5564 9.81824 1.64062 10.734 1.64062 11.8637C1.64062 12.9933 2.5564 13.9091 3.68607 13.9091Z" fill="#56C6AD"/>
<path d="M6.47993 15.1624C5.82675 14.7772 4.81122 14.3182 3.68182 14.3182C2.55242 14.3182 1.53689 14.7773 0.883714 15.1624C0.338382 15.484 0 16.1084 0 16.7919V17.054C0 17.5757 0.393111 18 0.876503 18H6.48714C6.97053 18 7.36364 17.5757 7.36364 17.054V16.7919C7.36364 16.1084 7.02526 15.484 6.47993 15.1624Z" fill="#56C6AD"/>
<path d="M14.3189 13.9091C15.4485 13.9091 16.3643 12.9933 16.3643 11.8637C16.3643 10.734 15.4485 9.81824 14.3189 9.81824C13.1892 9.81824 12.2734 10.734 12.2734 11.8637C12.2734 12.9933 13.1892 13.9091 14.3189 13.9091Z" fill="#56C6AD"/>
<path d="M17.1206 15.1624C16.4674 14.7772 15.4518 14.3182 14.3224 14.3182C13.193 14.3182 12.1775 14.7773 11.5243 15.1624C10.979 15.484 10.6406 16.1084 10.6406 16.792V17.054C10.6406 17.5758 11.0337 18.0001 11.5171 18.0001H17.1278C17.6112 18.0001 18.0043 17.5758 18.0043 17.054V16.792C18.0042 16.1084 17.6658 15.484 17.1206 15.1624Z" fill="#56C6AD"/>
<path d="M11.0465 13.9091C11.1668 13.9091 11.2854 13.8564 11.3665 13.7557C11.5076 13.5791 11.4788 13.3218 11.3026 13.1804L9.41057 11.6668V9.4091C9.41057 9.18298 9.22759 9 9.00147 9C8.77534 9 8.59236 9.18294 8.59236 9.40907V11.6671L6.70033 13.1804C6.52414 13.3218 6.49537 13.5791 6.63639 13.7556C6.71751 13.8563 6.83613 13.9091 6.9564 13.9091C7.04588 13.9091 7.1362 13.8799 7.21168 13.8196L9.00147 12.3878L10.7912 13.8196C10.8667 13.8799 10.957 13.9091 11.0465 13.9091Z" fill="#56C6AD"/>
</svg>
