<svg width="18" height="18" viewBox="0 0 18 18" fill="none" xmlns="http://www.w3.org/2000/svg">
<g clip-path="url(#clip0_424_883)">
<path d="M14.9469 1L3.35266 1L3.92729e-08 8.09623L9.00483 17L18 8.08667L14.9469 1ZM9.28502 9.60729C9.05371 9.6058 8.82341 9.5769 8.59904 9.52122C8.59904 10.315 8.59904 11.2331 8.65701 11.6348C8.71498 12.0365 8.77295 12.2277 9.16908 12.2851C9.39412 12.3041 9.62038 12.3041 9.84541 12.2851C10 12.2851 10.058 12.3616 10.058 12.419C10.058 12.4764 9.95169 12.5529 9.81642 12.5529C8.92754 12.5529 7.99034 12.5529 7.64251 12.5529C7.29469 12.5529 6.49275 12.5529 5.97101 12.5529C5.7971 12.5529 5.71014 12.5529 5.71014 12.419C5.71014 12.2851 5.75845 12.2851 5.92271 12.2851C6.07642 12.3082 6.23276 12.3082 6.38647 12.2851C6.66667 12.2277 6.7343 11.9886 6.78261 11.6157C6.83092 11.2427 6.84058 9.98984 6.84058 8.98565C6.47914 8.89306 6.11083 8.8291 5.73913 8.79438C4.87417 8.76106 4.02525 9.03213 3.343 9.55947C3.58084 9.03967 3.96988 8.60187 4.46038 8.30204C4.95088 8.00221 5.52057 7.85397 6.09662 7.87627C7.0628 7.87627 7.71981 8.33532 9.45894 8.69874C9.89118 8.76147 10.3318 8.73614 10.7538 8.62432C11.1758 8.51249 11.5703 8.31652 11.913 8.04841C11.6297 8.49693 11.2447 8.87393 10.7885 9.1495C10.3323 9.42507 9.81756 9.59163 9.28502 9.63598L9.28502 9.60729ZM9.72947 8.3162C9.59759 8.32551 9.46521 8.32551 9.33333 8.3162C9.29384 8.31894 9.25479 8.30659 9.22423 8.28168C9.19367 8.25677 9.17393 8.2212 9.16908 8.18231C9.16908 8.07711 9.32367 8.01972 9.60387 8.01972C10.1111 7.96437 10.578 7.7201 10.91 7.33647C11.2419 6.95284 11.414 6.45858 11.3913 5.95398C11.4141 5.59747 11.3557 5.24044 11.2202 4.90934C11.0847 4.57824 10.8757 4.28155 10.6087 4.04124C10.2382 3.72599 9.7639 3.5559 9.27536 3.56306C9.08369 3.55908 8.89225 3.57835 8.70532 3.62044C8.62802 3.62044 8.59904 3.72564 8.59904 3.85953L8.59904 8.19187C7.90338 8.02929 7.343 7.85714 6.84058 7.70412L6.84058 6.69994C6.84058 4.78721 6.84058 4.40466 6.84058 4.00299C6.84058 3.60131 6.68599 3.43873 6.26087 3.3144C6.08741 3.29675 5.91259 3.29675 5.73913 3.3144C5.60387 3.3144 5.50725 3.3144 5.50725 3.18051C5.50725 3.04662 5.61353 3.05618 5.80676 3.05618C6.50242 3.05618 7.35266 3.05618 7.73913 3.05618L9.94203 3.05618C10.8329 2.96222 11.7252 3.21998 12.4251 3.77346C12.8345 4.18108 13.0698 4.729 13.0821 5.30365C13.0791 5.72812 12.9885 6.1475 12.8159 6.5361C12.6433 6.92469 12.3924 7.27431 12.0785 7.56353C11.7646 7.85274 11.3944 8.07547 10.9904 8.21805C10.5865 8.36063 10.1574 8.42006 9.72947 8.39271L9.72947 8.3162Z" fill="white"/>
</g>
<defs>
<clipPath id="clip0_424_883">
<rect width="18" height="18" fill="white"/>
</clipPath>
</defs>
</svg>
