<svg width="18" height="18" viewBox="0 0 18 18" fill="none" xmlns="http://www.w3.org/2000/svg">
<path d="M1.20312 6.3083V11.6912C1.20392 12.2206 1.34498 12.7404 1.61194 13.1976C1.87891 13.6548 2.26224 14.0331 2.72293 14.294L7.52293 17.0099C7.97593 17.2606 8.48521 17.3922 9.00298 17.3922C9.52074 17.3922 10.03 17.2606 10.483 17.0099L15.283 14.294C15.7437 14.0331 16.1271 13.6548 16.3941 13.1976C16.6611 12.7404 16.8022 12.2206 16.8031 11.6912V6.3083C16.8024 5.77886 16.6613 5.25908 16.3943 4.80187C16.1274 4.34467 15.744 3.96637 15.2833 3.7055L10.4833 0.989297C10.0317 0.733855 9.52168 0.599609 9.00283 0.599609C8.48397 0.599609 7.97394 0.733855 7.52233 0.989297L2.72233 3.7052C2.26173 3.96622 1.8785 4.34461 1.61165 4.80186C1.3448 5.2591 1.20384 5.77888 1.20312 6.3083V6.3083ZM3.16603 4.4885L7.96603 1.7726C8.28263 1.59456 8.63974 1.50104 9.00298 1.50104C9.36621 1.50104 9.72332 1.59456 10.0399 1.7726L14.8399 4.4885C15.1622 4.6708 15.4303 4.93526 15.6171 5.25493C15.8039 5.5746 15.9025 5.93807 15.9031 6.3083V11.6912C15.9025 12.0614 15.8038 12.4248 15.617 12.7444C15.4302 13.064 15.1621 13.3284 14.8399 13.5107L10.0399 16.2266C9.72331 16.4046 9.3662 16.4981 9.00298 16.4981C8.63975 16.4981 8.28264 16.4046 7.96603 16.2266L3.16603 13.5107C2.84395 13.3283 2.57593 13.0639 2.38923 12.7443C2.20253 12.4247 2.10382 12.0613 2.10313 11.6912V6.3083C2.10376 5.93811 2.20246 5.57471 2.38916 5.25506C2.57586 4.9354 2.84391 4.67091 3.16603 4.4885V4.4885Z" fill="#56C6AD"/>
<path d="M3.46183 12.99L8.26183 15.7059C8.48831 15.8329 8.74361 15.8996 9.00328 15.8996C9.26294 15.8996 9.51824 15.8329 9.74473 15.7059L14.5447 12.99C14.7746 12.8599 14.9659 12.6712 15.0991 12.4432C15.2323 12.2151 15.3027 11.9558 15.3031 11.6916V6.30873C15.3028 6.04454 15.2324 5.78516 15.0992 5.55702C14.966 5.32888 14.7747 5.14014 14.5447 5.01003L9.74473 2.29383C9.51833 2.16658 9.26299 2.09973 9.00328 2.09973C8.74356 2.09973 8.48822 2.16658 8.26183 2.29383L3.46183 5.01003C3.23182 5.14008 3.04041 5.32879 2.90712 5.55694C2.77384 5.78509 2.70345 6.0445 2.70312 6.30873V11.6916C2.70353 11.9558 2.77396 12.2151 2.90724 12.4432C3.04052 12.6713 3.23188 12.86 3.46183 12.99V12.99ZM11.4031 6.30003H13.8031C13.8827 6.30003 13.959 6.33164 14.0153 6.3879C14.0715 6.44416 14.1031 6.52047 14.1031 6.60003C14.1031 6.6796 14.0715 6.7559 14.0153 6.81216C13.959 6.86842 13.8827 6.90003 13.8031 6.90003H12.9031V11.4C12.9031 11.4796 12.8715 11.5559 12.8153 11.6122C12.759 11.6684 12.6827 11.7 12.6031 11.7C12.5236 11.7 12.4473 11.6684 12.391 11.6122C12.3347 11.5559 12.3031 11.4796 12.3031 11.4V6.90003H11.4031C11.3236 6.90003 11.2473 6.86842 11.191 6.81216C11.1347 6.7559 11.1031 6.6796 11.1031 6.60003C11.1031 6.52047 11.1347 6.44416 11.191 6.3879C11.2473 6.33164 11.3236 6.30003 11.4031 6.30003ZM7.80313 6.60003C7.80313 6.52047 7.83473 6.44416 7.89099 6.3879C7.94725 6.33164 8.02356 6.30003 8.10313 6.30003H10.5031C10.5827 6.30003 10.659 6.33164 10.7153 6.3879C10.7715 6.44416 10.8031 6.52047 10.8031 6.60003C10.8031 6.6796 10.7715 6.7559 10.7153 6.81216C10.659 6.86842 10.5827 6.90003 10.5031 6.90003H8.40313V8.70003H9.60313C9.68269 8.70003 9.759 8.73164 9.81526 8.7879C9.87152 8.84416 9.90313 8.92047 9.90313 9.00003C9.90313 9.0796 9.87152 9.1559 9.81526 9.21216C9.759 9.26842 9.68269 9.30003 9.60313 9.30003H8.40313V11.4C8.40313 11.4796 8.37152 11.5559 8.31526 11.6122C8.259 11.6684 8.18269 11.7 8.10313 11.7C8.02356 11.7 7.94725 11.6684 7.89099 11.6122C7.83473 11.5559 7.80313 11.4796 7.80313 11.4V6.60003ZM3.90313 6.60003C3.90306 6.53239 3.92586 6.46672 3.96781 6.41367C4.00977 6.36061 4.06842 6.32329 4.13425 6.30776C4.20008 6.29224 4.26923 6.29941 4.33047 6.32812C4.39171 6.35683 4.44145 6.4054 4.47163 6.46593L6.30313 10.1292V6.60003C6.30313 6.52047 6.33473 6.44416 6.39099 6.3879C6.44725 6.33164 6.52356 6.30003 6.60313 6.30003C6.68269 6.30003 6.759 6.33164 6.81526 6.3879C6.87152 6.44416 6.90313 6.52047 6.90313 6.60003V11.4C6.90318 11.4676 6.8804 11.5333 6.83847 11.5863C6.79654 11.6394 6.73792 11.6767 6.67213 11.6922C6.64948 11.6973 6.62634 11.6999 6.60313 11.7C6.54738 11.7001 6.49272 11.6845 6.4453 11.6552C6.39787 11.6259 6.35955 11.584 6.33463 11.5341L4.50313 7.87083V11.4C4.50313 11.4796 4.47152 11.5559 4.41526 11.6122C4.359 11.6684 4.28269 11.7 4.20313 11.7C4.12356 11.7 4.04725 11.6684 3.99099 11.6122C3.93473 11.5559 3.90313 11.4796 3.90313 11.4V6.60003Z" fill="#56C6AD"/>
</svg>
