<svg width="16" height="16" viewBox="0 0 16 16" fill="none" xmlns="http://www.w3.org/2000/svg">
<path fill-rule="evenodd" clip-rule="evenodd" d="M9.34182 1.85307C8.99981 0.449043 7.00175 0.449043 6.65974 1.85307C6.60868 2.06404 6.50853 2.25998 6.36743 2.42494C6.22634 2.5899 6.04829 2.71922 5.84777 2.80237C5.64726 2.88552 5.42995 2.92016 5.21352 2.90346C4.99709 2.88676 4.78766 2.8192 4.60228 2.70628C3.36744 1.95387 1.95439 3.36689 2.70682 4.60171C3.19283 5.39912 2.76172 6.43954 1.85449 6.66004C0.449545 7.00115 0.449545 9.00008 1.85449 9.34028C2.06553 9.39141 2.26151 9.49165 2.42647 9.63285C2.59143 9.77405 2.72071 9.95222 2.80378 10.1528C2.88686 10.3535 2.92138 10.5709 2.90452 10.7873C2.88767 11.0038 2.81993 11.2133 2.70682 11.3986C1.95439 12.6334 3.36744 14.0465 4.60228 13.294C4.78763 13.1809 4.99707 13.1132 5.21356 13.0963C5.43005 13.0795 5.64745 13.114 5.84808 13.1971C6.0487 13.2801 6.22686 13.4094 6.36807 13.5744C6.50927 13.7393 6.60951 13.9353 6.66064 14.1464C7.00175 15.5513 9.00071 15.5513 9.34092 14.1464C9.39222 13.9354 9.49257 13.7396 9.6338 13.5747C9.77503 13.4099 9.95317 13.2807 10.1537 13.1977C10.3543 13.1146 10.5716 13.0801 10.788 13.0968C11.0045 13.1136 11.2139 13.1811 11.3993 13.294C12.6341 14.0465 14.0472 12.6334 13.2947 11.3986C13.1818 11.2132 13.1143 11.0038 13.0975 10.7874C13.0808 10.571 13.1153 10.3536 13.1984 10.1531C13.2814 9.95252 13.4106 9.77438 13.5755 9.63315C13.7403 9.49192 13.9361 9.39158 14.1471 9.34028C15.552 8.99918 15.552 7.00025 14.1471 6.66004C13.936 6.60891 13.7401 6.50867 13.5751 6.36747C13.4101 6.22627 13.2809 6.04811 13.1978 5.84749C13.1147 5.64687 13.0802 5.42947 13.097 5.21298C13.1139 4.9965 13.1816 4.78706 13.2947 4.60171C14.0472 3.36689 12.6341 1.95387 11.3993 2.70628C11.2139 2.81939 11.0045 2.88713 10.788 2.90398C10.5715 2.92083 10.3541 2.88632 10.1535 2.80325C9.95287 2.72017 9.7747 2.59089 9.6335 2.42593C9.4923 2.26097 9.39205 2.065 9.34092 1.85397L9.34182 1.85307ZM8.00078 10.7002C8.71689 10.7002 9.40367 10.4157 9.91003 9.90938C10.4164 9.40302 10.7009 8.71626 10.7009 8.00016C10.7009 7.28407 10.4164 6.5973 9.91003 6.09094C9.40367 5.58459 8.71689 5.30012 8.00078 5.30012C7.28467 5.30012 6.5979 5.58459 6.09153 6.09094C5.58517 6.5973 5.3007 7.28407 5.3007 8.00016C5.3007 8.71626 5.58517 9.40302 6.09153 9.90938C6.5979 10.4157 7.28467 10.7002 8.00078 10.7002Z" fill="#858585"/>
</svg>
