<svg width="18" height="18" viewBox="0 0 18 18" fill="none" xmlns="http://www.w3.org/2000/svg">
<path fill-rule="evenodd" clip-rule="evenodd" d="M10.5071 2.08455C10.1223 0.505021 7.87453 0.505021 7.48977 2.08455C7.43232 2.3219 7.31965 2.54233 7.16092 2.72791C7.00219 2.91349 6.80188 3.05897 6.5763 3.15252C6.35073 3.24606 6.10625 3.28503 5.86277 3.26624C5.61928 3.24746 5.38368 3.17145 5.17512 3.04441C3.78592 2.19795 2.19625 3.7876 3.04273 5.17677C3.58949 6.07386 3.10449 7.24433 2.08386 7.49239C0.503297 7.87614 0.503297 10.1249 2.08386 10.5077C2.32128 10.5652 2.54175 10.678 2.72733 10.8368C2.91292 10.9957 3.05836 11.1961 3.15182 11.4218C3.24527 11.6475 3.28411 11.8921 3.26515 12.1356C3.24619 12.3791 3.16998 12.6148 3.04273 12.8233C2.19625 14.2125 3.78592 15.8021 5.17512 14.9556C5.38364 14.8284 5.61927 14.7522 5.86281 14.7332C6.10636 14.7143 6.35094 14.7531 6.57664 14.8466C6.80234 14.94 7.00278 15.0855 7.16163 15.271C7.32048 15.4566 7.43326 15.6771 7.49078 15.9145C7.87453 17.495 10.1234 17.495 10.5061 15.9145C10.5638 15.6772 10.6767 15.4569 10.8356 15.2714C10.9945 15.086 11.1949 14.9406 11.4205 14.8472C11.6461 14.7538 11.8906 14.7149 12.1341 14.7338C12.3776 14.7526 12.6132 14.8286 12.8218 14.9556C14.211 15.8021 15.8006 14.2125 14.9541 12.8233C14.8271 12.6147 14.7511 12.3791 14.7323 12.1356C14.7134 11.8922 14.7523 11.6477 14.8457 11.4221C14.9391 11.1964 15.0845 10.996 15.2699 10.8371C15.4554 10.6783 15.6757 10.5654 15.913 10.5077C17.4936 10.1239 17.4936 7.87512 15.913 7.49239C15.6756 7.43488 15.4551 7.3221 15.2695 7.16325C15.084 7.0044 14.9385 6.80397 14.8451 6.57827C14.7516 6.35258 14.7128 6.108 14.7317 5.86445C14.7507 5.62091 14.8269 5.38529 14.9541 5.17677C15.8006 3.7876 14.211 2.19795 12.8218 3.04441C12.6132 3.17166 12.3776 3.24787 12.1341 3.26683C11.8905 3.28579 11.6459 3.24696 11.4202 3.1535C11.1945 3.06004 10.9941 2.9146 10.8352 2.72902C10.6764 2.54344 10.5636 2.32297 10.5061 2.08556L10.5071 2.08455ZM8.99844 12.0376C9.80406 12.0376 10.5767 11.7176 11.1463 11.1479C11.716 10.5782 12.036 9.80564 12.036 9.00003C12.036 8.19442 11.716 7.42181 11.1463 6.85216C10.5767 6.28251 9.80406 5.96248 8.99844 5.96248C8.19282 5.96248 7.42019 6.28251 6.85053 6.85216C6.28087 7.42181 5.96084 8.19442 5.96084 9.00003C5.96084 9.80564 6.28087 10.5782 6.85053 11.1479C7.42019 11.7176 8.19282 12.0376 8.99844 12.0376Z" fill="white"/>
</svg>
