<svg width="18" height="20" viewBox="0 0 18 20" fill="none" xmlns="http://www.w3.org/2000/svg">
<path fill-rule="evenodd" clip-rule="evenodd" d="M3.11404 0C1.89472 0 0.90625 0.959568 0.90625 2.14325V19.2785C0.90625 19.915 1.69895 20.2338 2.16256 19.7837L3.32959 18.6508C3.61699 18.3718 4.08295 18.3718 4.37036 18.6508L5.58721 19.5815C6.22055 20.1963 7.268 20.124 7.80545 19.4285L8.40627 18.6508C8.70064 18.2698 9.28939 18.2698 9.58376 18.6508L10.1845 19.4285C10.7219 20.124 11.7694 20.1963 12.4028 19.5815L13.6326 18.6508C13.92 18.3718 14.386 18.3718 14.6734 18.6508L15.8404 19.7837C16.3041 20.2338 17.0967 19.915 17.0967 19.2785V2.14325C17.0967 0.959568 16.1083 0 14.8889 0H3.11404ZM5.32183 4.28649C5.32183 4.68105 4.99236 5.00091 4.5859 5.00091C4.17946 5.00091 3.84997 4.68105 3.84997 4.28649C3.84997 3.89194 4.17946 3.57208 4.5859 3.57208C4.99236 3.57208 5.32183 3.89194 5.32183 4.28649ZM5.32183 9.28741C5.32183 9.68198 4.99236 10.0018 4.5859 10.0018C4.17946 10.0018 3.84997 9.68198 3.84997 9.28741C3.84997 8.89283 4.17946 8.57299 4.5859 8.57299C4.99236 8.57299 5.32183 8.89283 5.32183 9.28741ZM4.5859 15.0027C4.99236 15.0027 5.32183 14.6829 5.32183 14.2883C5.32183 13.8937 4.99236 13.5739 4.5859 13.5739C4.17946 13.5739 3.84997 13.8937 3.84997 14.2883C3.84997 14.6829 4.17946 15.0027 4.5859 15.0027ZM6.7937 4.28649C6.7937 3.89194 7.12317 3.57208 7.52963 3.57208H13.4171C13.8235 3.57208 14.153 3.89194 14.153 4.28649C14.153 4.68105 13.8235 5.00091 13.4171 5.00091H7.52963C7.12317 5.00091 6.7937 4.68105 6.7937 4.28649ZM7.52963 8.57299C7.12317 8.57299 6.7937 8.89283 6.7937 9.28741C6.7937 9.68198 7.12317 10.0018 7.52963 10.0018H13.4171C13.8235 10.0018 14.153 9.68198 14.153 9.28741C14.153 8.89283 13.8235 8.57299 13.4171 8.57299H7.52963ZM6.7937 14.2883C6.7937 13.8937 7.12317 13.5739 7.52963 13.5739H13.4171C13.8235 13.5739 14.153 13.8937 14.153 14.2883C14.153 14.6829 13.8235 15.0027 13.4171 15.0027H7.52963C7.12317 15.0027 6.7937 14.6829 6.7937 14.2883Z" fill="#858585"/>
</svg>
