<svg width="5" height="8" viewBox="0 0 5 8" fill="none" xmlns="http://www.w3.org/2000/svg">
<path d="M0.25 7.26091L0.25 0.739243C0.250483 0.623875 0.285165 0.511242 0.34966 0.415585C0.414155 0.319928 0.505567 0.245543 0.612335 0.201836C0.719104 0.158129 0.836435 0.147064 0.949493 0.170038C1.06255 0.193013 1.16626 0.248996 1.2475 0.330909L4.50249 3.58591C4.55717 3.64014 4.60056 3.70465 4.63018 3.77574C4.65979 3.84682 4.67504 3.92307 4.67504 4.00008C4.67504 4.07708 4.65979 4.15333 4.63018 4.22441C4.60056 4.2955 4.55717 4.36001 4.50249 4.41424L1.2475 7.66924C1.16626 7.75115 1.06255 7.80714 0.949493 7.83011C0.836435 7.85309 0.719105 7.84202 0.612336 7.79832C0.505567 7.75461 0.414155 7.68022 0.349661 7.58457C0.285166 7.48891 0.250484 7.37628 0.25 7.26091Z" fill="#205961"/>
</svg>
