<svg width="5" height="8" viewBox="0 0 5 8" fill="none" xmlns="http://www.w3.org/2000/svg">
<path d="M4.75 0.739091L4.75 7.26076C4.74952 7.37612 4.71483 7.48876 4.65034 7.58442C4.58584 7.68007 4.49443 7.75446 4.38766 7.79816C4.2809 7.84187 4.16356 7.85294 4.05051 7.82996C3.93745 7.80699 3.83374 7.751 3.7525 7.66909L0.497507 4.41409C0.442832 4.35986 0.399435 4.29535 0.36982 4.22426C0.340205 4.15318 0.324959 4.07693 0.324959 3.99992C0.324959 3.92292 0.340206 3.84667 0.36982 3.77559C0.399435 3.7045 0.442832 3.63999 0.497507 3.58576L3.7525 0.330758C3.83374 0.248845 3.93745 0.192862 4.05051 0.169887C4.16356 0.146912 4.2809 0.157978 4.38766 0.201684C4.49443 0.245391 4.58584 0.319776 4.65034 0.415433C4.71483 0.51109 4.74952 0.623723 4.75 0.739091Z" fill="#205961"/>
</svg>
