<svg width="22" height="22" viewBox="0 0 22 22" fill="none" xmlns="http://www.w3.org/2000/svg">
<path d="M10.9993 21.8333C5.01626 21.8333 0.166016 16.983 0.166016 11C0.166016 5.01687 5.01626 0.166626 10.9993 0.166626C16.9824 0.166626 21.8327 5.01687 21.8327 11C21.8261 16.9803 16.9797 21.8267 10.9993 21.8333ZM10.9993 2.33329C6.23853 2.3345 2.37001 6.17573 2.33511 10.9364C2.3002 15.6971 6.11198 19.5946 10.8723 19.6657C15.6326 19.7367 19.5589 15.9546 19.666 11.195V13.1265V11C19.6606 6.21572 15.7836 2.33867 10.9993 2.33329ZM10.9993 16.4166L5.58268 11L10.9993 5.58329L12.5268 7.11079L9.73185 9.91663H16.416V12.0833H9.73185L12.5268 14.8891L10.9993 16.4166Z" fill="#727A89"/>
</svg>
