<svg width="18" height="18" viewBox="0 0 18 18" fill="none" xmlns="http://www.w3.org/2000/svg">
<path fill-rule="evenodd" clip-rule="evenodd" d="M9 17C11.1217 17 13.1566 16.1571 14.6569 14.6569C16.1571 13.1566 17 11.1217 17 9C17 6.87827 16.1571 4.84344 14.6569 3.34315C13.1566 1.84285 11.1217 1 9 1C6.87827 1 4.84344 1.84285 3.34315 3.34315C1.84285 4.84344 1 6.87827 1 9C1 11.1217 1.84285 13.1566 3.34315 14.6569C4.84344 16.1571 6.87827 17 9 17ZM12.707 7.707C12.8892 7.5184 12.99 7.2658 12.9877 7.0036C12.9854 6.7414 12.8802 6.49059 12.6948 6.30518C12.5094 6.11977 12.2586 6.0146 11.9964 6.01233C11.7342 6.01005 11.4816 6.11084 11.293 6.293L8 9.586L6.707 8.293C6.5184 8.11084 6.2658 8.01005 6.0036 8.01233C5.7414 8.0146 5.49059 8.11977 5.30518 8.30518C5.11977 8.49059 5.0146 8.7414 5.01233 9.0036C5.01005 9.2658 5.11084 9.5184 5.293 9.707L7.293 11.707C7.48053 11.8945 7.73484 11.9998 8 11.9998C8.26516 11.9998 8.51947 11.8945 8.707 11.707L12.707 7.707Z" fill="#56C6AD"/>
</svg>
