<svg width="8" height="12" viewBox="0 0 8 12" fill="none" xmlns="http://www.w3.org/2000/svg">
<path fill-rule="evenodd" clip-rule="evenodd" d="M0.749781 11.6484C0.524816 11.4234 0.398438 11.1182 0.398438 10.8C0.398438 10.4818 0.524816 10.1767 0.749781 9.95162L4.70138 6.00002L0.749781 2.04842C0.531192 1.8221 0.410238 1.51898 0.412972 1.20434C0.415706 0.889707 0.541909 0.588732 0.764399 0.366243C0.986889 0.143753 1.28786 0.01755 1.6025 0.0148159C1.91714 0.0120818 2.22026 0.133036 2.44658 0.351625L7.24658 5.15162C7.47155 5.37666 7.59792 5.68183 7.59792 6.00002C7.59792 6.31822 7.47155 6.62339 7.24658 6.84842L2.44658 11.6484C2.22155 11.8734 1.91638 11.9998 1.59818 11.9998C1.27998 11.9998 0.974815 11.8734 0.749781 11.6484Z" fill="#36B8BC"/>
</svg>
