<svg width="20" height="22" viewBox="0 0 20 22" fill="none" xmlns="http://www.w3.org/2000/svg">
<path fill-rule="evenodd" clip-rule="evenodd" d="M1.25 16.3125C1.76777 16.3125 2.1875 16.7322 2.1875 17.25V19.75C2.1875 19.9226 2.32741 20.0625 2.5 20.0625H17.5C17.6726 20.0625 17.8125 19.9226 17.8125 19.75V17.25C17.8125 16.7322 18.2322 16.3125 18.75 16.3125C19.2678 16.3125 19.6875 16.7322 19.6875 17.25V19.75C19.6875 20.9581 18.7081 21.9375 17.5 21.9375H2.5C1.29188 21.9375 0.3125 20.9581 0.3125 19.75V17.25C0.3125 16.7322 0.732233 16.3125 1.25 16.3125Z" fill="#868F9D"/>
<path d="M8.42244 0.6875C7.77945 0.6875 7.24308 1.1789 7.18693 1.81944C6.99488 4.01033 6.96101 6.21199 7.08547 8.4073C6.77674 8.42436 6.46813 8.44413 6.15966 8.46662L4.29778 8.60234C3.57991 8.65467 3.17861 9.45512 3.56616 10.0617C4.89371 12.1393 6.60429 13.9454 8.60672 15.3839L9.35265 15.9197C9.73952 16.1976 10.2606 16.1976 10.6475 15.9197L11.3934 15.3839C13.3958 13.9454 15.1064 12.1393 16.434 10.0617C16.8215 9.45512 16.4202 8.65467 15.7024 8.60234L13.8405 8.46662C13.532 8.44413 13.2234 8.42436 12.9147 8.4073C13.0391 6.21199 13.0052 4.01032 12.8132 1.81943C12.757 1.1789 12.2207 0.6875 11.5777 0.6875H8.42244Z" fill="#868F9D"/>
</svg>
