<svg width="25" height="24" viewBox="0 0 25 24" fill="none" xmlns="http://www.w3.org/2000/svg">
<path d="M11.2551 12.06C11.7484 12.54 12.4229 12.54 12.9162 12.06L19.2786 5.78L20.4565 4.61C20.0135 4.38 19.5202 4.25 18.9867 4.25H5.18465C4.65109 4.25 4.1578 4.38 3.71484 4.61L4.8927 5.78L11.2551 12.06Z" fill="white"/>
<path d="M8.98988 11.9401L3.69458 6.70011L2.5872 5.61011C2.22478 6.12011 2.02344 6.73011 2.02344 7.40011V16.6001C2.02344 17.1601 2.17445 17.6901 2.42612 18.1401C2.43619 18.1301 2.43619 18.1301 2.44626 18.1201L3.59391 17.0301L8.98988 11.9401Z" fill="white"/>
<path d="M14.1844 12.9199L13.983 13.1199C13.4394 13.6499 12.7649 13.9199 12.0803 13.9199C11.4058 13.9199 10.7313 13.6499 10.1877 13.1199L10.0569 12.9899L4.62061 18.1499L3.49309 19.2099C3.48303 19.2199 3.47296 19.2299 3.46289 19.2299C3.95618 19.5599 4.54007 19.7499 5.18437 19.7499H18.9864C19.6206 19.7499 20.2146 19.5599 20.7079 19.2299L19.5803 18.1399L14.1844 12.9199Z" fill="white"/>
<path d="M21.5942 5.61011L20.4868 6.70011L15.252 11.8601L20.5875 17.0301L21.7452 18.1501C22.007 17.7001 22.158 17.1601 22.158 16.6001V7.40011C22.158 6.73011 21.9566 6.12011 21.5942 5.61011Z" fill="white"/>
</svg>
