<svg width="17" height="16" viewBox="0 0 17 16" fill="none" xmlns="http://www.w3.org/2000/svg">
<path d="M8.99999 15C8.99999 14.5858 8.66421 14.25 8.24999 14.25H2.24999C2.11192 14.25 1.99999 14.1381 1.99999 14L2 2C2 1.86193 2.11192 1.75 2.25 1.75L8.25 1.75C8.66421 1.75 8.99999 1.41421 8.99999 1C8.99999 0.585788 8.66421 0.25 8.25 0.25H2.25C1.2835 0.25 0.499994 1.0335 0.499994 2V14C0.499994 14.9665 1.2835 15.75 2.24999 15.75H8.24999C8.66421 15.75 8.99999 15.4142 8.99999 15Z" fill="#1F2328"/>
<path d="M4.63839 9.11522C4.63839 9.6675 5.08611 10.1152 5.63839 10.1152H10.4944C10.5173 10.4706 10.546 10.8258 10.5805 11.1805L10.6102 11.4857C10.6584 11.982 11.1853 12.2791 11.635 12.0637C13.4629 11.1876 15.1177 9.98887 16.5197 8.525L16.5497 8.49372C16.8168 8.21485 16.8168 7.77506 16.5497 7.49619L16.5197 7.46491C15.1177 6.00104 13.4629 4.80226 11.635 3.92625C11.1853 3.71077 10.6584 4.00796 10.6102 4.5042L10.5805 4.8094C10.546 5.16413 10.5173 5.51928 10.4944 5.8747L5.63839 5.87471C5.08611 5.87471 4.63839 6.32242 4.63839 6.8747V9.11522Z" fill="#1F2328"/>
</svg>
