<svg width="19" height="16" viewBox="0 0 19 16" fill="none" xmlns="http://www.w3.org/2000/svg">
<path d="M1.3665 0.517664C1.08821 0.800017 0.859862 1.04979 0.859862 1.06789C0.859862 1.08961 1.36294 1.6145 1.98018 2.24074L3.1005 3.37739L2.77225 3.65612C1.70188 4.57558 0.770665 5.83531 0.192666 7.14571L0 7.57648L0.149852 7.92399C1.02042 9.93666 2.51893 11.5946 4.44559 12.6769C6.53995 13.8498 9.14451 14.1973 11.4743 13.6072C11.7848 13.5276 12.6196 13.2597 12.7053 13.2091C12.7445 13.1873 13.0906 13.5167 14.1503 14.5882L15.5417 16L16.0698 15.4643L16.5943 14.9321L9.23371 7.46426L1.87671 1.74195e-05L1.3665 0.517664ZM6.07612 6.39639L6.70407 7.04073L6.66839 7.27603C6.6006 7.73938 6.6791 8.181 6.90744 8.66969C7.21785 9.32127 7.72449 9.77014 8.40596 9.99458C8.61646 10.0634 8.7342 10.0778 9.18376 10.0815H9.70824L10.3326 10.7149L10.957 11.3448L10.6787 11.4606C9.69753 11.8733 8.60219 11.8842 7.61388 11.4932C6.27949 10.9611 5.29475 9.73032 5.04857 8.28598C4.96294 7.78281 4.99505 7.04797 5.11993 6.57377C5.20912 6.23349 5.39109 5.75567 5.42677 5.75567C5.43747 5.75567 5.73004 6.04526 6.07612 6.39639Z" fill="#36B8BC"/>
<path d="M8.08361 1.32113C7.51275 1.38629 6.85625 1.52384 6.33534 1.68674C6.09986 1.75914 5.89649 1.83154 5.88222 1.8424C5.86795 1.85688 6.25328 2.26955 6.74208 2.76547L7.62692 3.66321L7.92662 3.56547C8.93277 3.2433 9.97459 3.32294 10.9415 3.80077C12.3686 4.50303 13.2749 5.96547 13.2749 7.56909C13.2749 8.01072 13.2035 8.47768 13.0787 8.84691L12.993 9.10393L14.1954 10.3238C14.8555 10.9971 15.4156 11.5474 15.4406 11.5474C15.512 11.5474 16.4824 10.5446 16.775 10.1718C17.3209 9.47678 17.7847 8.6985 18.1379 7.89126L18.2735 7.57995L18.113 7.21434C17.7847 6.46502 17.2959 5.64692 16.7857 4.99533C16.4575 4.57543 15.6154 3.72837 15.2016 3.4062C13.7958 2.2985 12.283 1.63968 10.5562 1.37181C9.93178 1.27407 8.68658 1.24873 8.08361 1.32113Z" fill="#36B8BC"/>
<path d="M10.2923 6.37115C10.9987 7.08789 11.591 7.67432 11.6088 7.67432C11.6409 7.67432 11.6159 7.33767 11.5553 7.02273C11.5053 6.75848 11.277 6.26979 11.095 6.0345C10.6526 5.45893 9.89979 5.06798 9.24329 5.06798H9.00781L10.2923 6.37115Z" fill="#36B8BC"/>
</svg>
