<svg width="14" height="14" viewBox="0 0 14 14" fill="none" xmlns="http://www.w3.org/2000/svg">
<path d="M7 0C3.143 0 0 3.143 0 7C0 10.857 3.143 14 7 14C10.857 14 14 10.857 14 7C14 3.143 10.857 0 7 0ZM7 2.87699C8.281 2.87699 9.324 3.91999 9.324 5.20099C9.324 6.48199 8.281 7.525 7 7.525C5.719 7.525 4.676 6.48199 4.676 5.20099C4.676 3.91999 5.719 2.87699 7 2.87699ZM7 12.95C5.285 12.95 3.738 12.222 2.653 11.06C2.415 10.808 2.198 10.528 2.002 10.227C3.332 9.21199 5.131 8.63099 7 8.63099C8.869 8.63099 10.668 9.21199 11.998 10.227C11.802 10.528 11.585 10.808 11.347 11.06C10.262 12.222 8.715 12.95 7 12.95Z" fill="#858585"/>
</svg>
