<svg width="14" height="16" viewBox="0 0 14 16" fill="none" xmlns="http://www.w3.org/2000/svg">
<path d="M7.66732 2.66667C7.66732 2.84348 7.73756 3.01305 7.86258 3.13807C7.9876 3.2631 8.15717 3.33333 8.33398 3.33333H10.978C10.9289 2.90045 10.7389 2.49569 10.4373 2.18133L8.91465 0.608667C8.58155 0.271032 8.13966 0.0622496 7.66732 0.0193333V2.66667ZM6.33398 2.66667V0H3.66732C2.78359 0.00105857 1.93636 0.352588 1.31146 0.97748C0.686572 1.60237 0.335043 2.4496 0.333984 3.33333V10C0.335043 10.8837 0.686572 11.731 1.31146 12.3559C1.93636 12.9807 2.78359 13.3323 3.66732 13.3333H7.66732C8.55105 13.3323 9.39828 12.9807 10.0232 12.3559C10.6481 11.731 10.9996 10.8837 11.0007 10V4.66667H8.33398C7.80355 4.66667 7.29484 4.45595 6.91977 4.08088C6.5447 3.70581 6.33398 3.1971 6.33398 2.66667V2.66667ZM10.334 16H4.33398C4.15717 16 3.9876 15.9298 3.86258 15.8047C3.73756 15.6797 3.66732 15.5101 3.66732 15.3333C3.66732 15.1565 3.73756 14.987 3.86258 14.8619C3.9876 14.7369 4.15717 14.6667 4.33398 14.6667H10.334C10.8644 14.6667 11.3731 14.456 11.7482 14.0809C12.1233 13.7058 12.334 13.1971 12.334 12.6667V5.33333C12.334 5.15652 12.4042 4.98695 12.5292 4.86193C12.6543 4.7369 12.8238 4.66667 13.0007 4.66667C13.1775 4.66667 13.347 4.7369 13.4721 4.86193C13.5971 4.98695 13.6673 5.15652 13.6673 5.33333V12.6667C13.6663 13.5504 13.3147 14.3976 12.6898 15.0225C12.0649 15.6474 11.2177 15.9989 10.334 16V16Z" fill="white"/>
</svg>
