<svg width="12" height="14" viewBox="0 0 12 14" fill="none" xmlns="http://www.w3.org/2000/svg">
<path d="M6.58268 2.33333C6.58268 2.48804 6.64414 2.63642 6.75354 2.74581C6.86293 2.85521 7.01131 2.91667 7.16602 2.91667H9.47952C9.43657 2.5379 9.27035 2.18373 9.00643 1.90867L7.6741 0.532583C7.38264 0.237153 6.99598 0.0544684 6.58268 0.0169167V2.33333ZM5.41602 2.33333V0H3.08268C2.30942 0.00092625 1.56809 0.308514 1.02131 0.855295C0.47453 1.40208 0.166942 2.1434 0.166016 2.91667V8.75C0.166942 9.52326 0.47453 10.2646 1.02131 10.8114C1.56809 11.3582 2.30942 11.6657 3.08268 11.6667H6.58268C7.35595 11.6657 8.09727 11.3582 8.64405 10.8114C9.19083 10.2646 9.49842 9.52326 9.49935 8.75V4.08333H7.16602C6.70189 4.08333 6.25677 3.89896 5.92858 3.57077C5.60039 3.24258 5.41602 2.79746 5.41602 2.33333ZM8.91602 14H3.66602C3.51131 14 3.36293 13.9385 3.25354 13.8291C3.14414 13.7197 3.08268 13.5714 3.08268 13.4167C3.08268 13.262 3.14414 13.1136 3.25354 13.0042C3.36293 12.8948 3.51131 12.8333 3.66602 12.8333H8.91602C9.38014 12.8333 9.82526 12.649 10.1535 12.3208C10.4816 11.9926 10.666 11.5475 10.666 11.0833V4.66667C10.666 4.51196 10.7275 4.36358 10.8369 4.25419C10.9463 4.14479 11.0946 4.08333 11.2493 4.08333C11.4041 4.08333 11.5524 4.14479 11.6618 4.25419C11.7712 4.36358 11.8327 4.51196 11.8327 4.66667V11.0833C11.8318 11.8566 11.5242 12.5979 10.9774 13.1447C10.4306 13.6915 9.68928 13.9991 8.91602 14Z" fill="#818994"/>
</svg>
