<svg width="20" height="20" viewBox="0 0 20 20" fill="none" xmlns="http://www.w3.org/2000/svg">
<path d="M10 0C4.49 0 0 4.49 0 10C0 15.51 4.49 20 10 20C15.51 20 20 15.51 20 10C20 4.49 15.51 0 10 0ZM11.58 10.48L9.57999 12.89C9.42999 13.07 9.22 13.16 9 13.16C8.83 13.16 8.65999 13.11 8.51999 12.99C8.20999 12.73 8.16001 12.26 8.42001 11.94L10.03 10L8.42001 8.06C8.16001 7.74 8.20999 7.27 8.51999 7.01C8.83999 6.74 9.31999 6.79 9.57999 7.11L11.58 9.52C11.81 9.8 11.81 10.2 11.58 10.48Z" fill="#62F1D1"/>
</svg>
