<svg width="14" height="14" viewBox="0 0 14 14" fill="none" xmlns="http://www.w3.org/2000/svg">
<path fill-rule="evenodd" clip-rule="evenodd" d="M9.06867 2.66876C9.21626 2.51594 9.39281 2.39405 9.58802 2.3102C9.78323 2.22634 9.99318 2.18221 10.2056 2.18036C10.4181 2.17851 10.6288 2.219 10.8254 2.29945C11.022 2.37989 11.2007 2.4987 11.3509 2.64893C11.5011 2.79916 11.6199 2.9778 11.7004 3.17443C11.7808 3.37107 11.8213 3.58176 11.8195 3.7942C11.8176 4.00665 11.7735 4.2166 11.6896 4.41181C11.6058 4.60701 11.4839 4.78357 11.3311 4.93116L8.93107 7.33116C8.63102 7.63111 8.22413 7.79962 7.79987 7.79962C7.37561 7.79962 6.96871 7.63111 6.66867 7.33116C6.51779 7.18543 6.31571 7.1048 6.10595 7.10662C5.89619 7.10844 5.69554 7.19258 5.54721 7.34091C5.39889 7.48923 5.31475 7.68988 5.31293 7.89964C5.31111 8.1094 5.39174 8.31148 5.53747 8.46236C6.13756 9.06227 6.95134 9.39928 7.79987 9.39928C8.64839 9.39928 9.46218 9.06227 10.0623 8.46236L12.4623 6.06236C13.0452 5.45883 13.3677 4.65051 13.3604 3.81148C13.3531 2.97245 13.0166 2.16985 12.4233 1.57654C11.83 0.983235 11.0274 0.646694 10.1884 0.639403C9.34932 0.632112 8.541 0.954654 7.93747 1.53756L6.73747 2.73756C6.66106 2.81136 6.60012 2.89963 6.55819 2.99724C6.51626 3.09484 6.49419 3.19982 6.49327 3.30604C6.49235 3.41226 6.51259 3.51761 6.55281 3.61592C6.59304 3.71424 6.65244 3.80356 6.72755 3.87868C6.80267 3.95379 6.89199 4.01319 6.9903 4.05342C7.08862 4.09364 7.19397 4.11388 7.30019 4.11296C7.40641 4.11204 7.51139 4.08997 7.60899 4.04804C7.70659 4.00611 7.79487 3.94517 7.86867 3.86876L9.06867 2.66876ZM5.06867 6.66876C5.36871 6.36881 5.77561 6.2003 6.19987 6.2003C6.62413 6.2003 7.03102 6.36881 7.33107 6.66876C7.40487 6.74517 7.49314 6.80611 7.59074 6.84804C7.68835 6.88997 7.79332 6.91204 7.89955 6.91296C8.00577 6.91388 8.11111 6.89364 8.20943 6.85342C8.30775 6.81319 8.39707 6.75379 8.47218 6.67868C8.5473 6.60356 8.6067 6.51424 8.64693 6.41592C8.68715 6.31761 8.70739 6.21226 8.70647 6.10604C8.70555 5.99982 8.68348 5.89484 8.64155 5.79724C8.59962 5.69963 8.53868 5.61136 8.46227 5.53756C7.86218 4.93765 7.04839 4.60064 6.19987 4.60064C5.35134 4.60064 4.53756 4.93765 3.93747 5.53756L1.53747 7.93756C1.23184 8.23275 0.988054 8.58585 0.820345 8.97627C0.652636 9.36668 0.56436 9.78658 0.560668 10.2115C0.556975 10.6364 0.637941 11.0577 0.79884 11.451C0.959739 11.8443 1.19735 12.2016 1.49781 12.502C1.79826 12.8025 2.15555 13.0401 2.54882 13.201C2.94208 13.3619 3.36346 13.4429 3.78835 13.4392C4.21325 13.4355 4.63315 13.3472 5.02356 13.1795C5.41398 13.0118 5.76708 12.768 6.06227 12.4624L7.26227 11.2624C7.33868 11.1886 7.39962 11.1003 7.44155 11.0027C7.48348 10.9051 7.50555 10.8001 7.50647 10.6939C7.50739 10.5877 7.48715 10.4823 7.44693 10.384C7.4067 10.2857 7.3473 10.1964 7.27218 10.1212C7.19707 10.0461 7.10775 9.98673 7.00943 9.9465C6.91111 9.90628 6.80577 9.88604 6.69955 9.88696C6.59332 9.88788 6.48835 9.90995 6.39075 9.95188C6.29314 9.99381 6.20487 10.0548 6.13107 10.1312L4.93107 11.3312C4.78347 11.484 4.60692 11.6059 4.41172 11.6897C4.21651 11.7736 4.00656 11.8177 3.79411 11.8196C3.58166 11.8214 3.37098 11.7809 3.17434 11.7005C2.97771 11.62 2.79907 11.5012 2.64884 11.351C2.49861 11.2008 2.3798 11.0221 2.29935 10.8255C2.21891 10.6289 2.17842 10.4182 2.18027 10.2057C2.18211 9.99327 2.22625 9.78332 2.31011 9.58811C2.39396 9.39291 2.51585 9.21636 2.66867 9.06876L5.06867 6.66876Z" fill="#818994"/>
</svg>
