<svg width="20" height="20" viewBox="0 0 20 20" fill="none" xmlns="http://www.w3.org/2000/svg">
<circle cx="10" cy="10" r="10" fill="#56C6AD"/>
<path d="M11.8741 8.7625L9.58109 6.4695C9.4404 6.32887 9.2496 6.24989 9.05067 6.24994C8.85174 6.24999 8.66098 6.32905 8.52034 6.46975C8.37971 6.61045 8.30073 6.80125 8.30078 7.00018C8.30083 7.19911 8.3799 7.38987 8.52059 7.5305L10.8136 9.823C10.8369 9.84623 10.8553 9.87381 10.8679 9.90419C10.8806 9.93456 10.887 9.96712 10.887 10C10.887 10.0329 10.8806 10.0654 10.8679 10.0958C10.8553 10.1262 10.8369 10.1538 10.8136 10.177L8.52059 12.4695C8.3799 12.6101 8.30083 12.8009 8.30078 12.9998C8.30073 13.1988 8.37971 13.3896 8.52034 13.5303C8.66098 13.671 8.85174 13.75 9.05067 13.7501C9.2496 13.7501 9.4404 13.6711 9.58109 13.5305L11.8741 11.2375C12.2017 10.909 12.3857 10.464 12.3857 10C12.3857 9.53605 12.2017 9.09102 11.8741 8.7625Z" fill="#F3F5FA"/>
</svg>
