<svg width="24" height="24" viewBox="0 0 24 24" fill="none" xmlns="http://www.w3.org/2000/svg">
<path d="M11.7981 12.46C13.1623 12.46 14.2681 11.3542 14.2681 9.99002C14.2681 8.62588 13.1623 7.52002 11.7981 7.52002C10.434 7.52002 9.32812 8.62588 9.32812 9.99002C9.32812 11.3542 10.434 12.46 11.7981 12.46Z" stroke="white" stroke-width="1.5" stroke-linecap="round" stroke-linejoin="round"/>
<path d="M6.82031 19.2899V17.8799C6.82031 16.2399 8.1503 14.9199 9.7803 14.9199H14.2103C15.8503 14.9199 17.1703 16.2499 17.1703 17.8799V19.2899" stroke="white" stroke-width="1.5" stroke-linecap="round" stroke-linejoin="round"/>
<path d="M12 21.25C17.1086 21.25 21.25 17.1086 21.25 12C21.25 6.89137 17.1086 2.75 12 2.75C6.89137 2.75 2.75 6.89137 2.75 12C2.75 17.1086 6.89137 21.25 12 21.25Z" stroke="white" stroke-width="1.5" stroke-linecap="round" stroke-linejoin="round"/>
</svg>
