<svg width="24" height="24" viewBox="0 0 24 24" fill="none" xmlns="http://www.w3.org/2000/svg">
<path d="M21.25 12C21.25 14.32 20.39 16.46 18.97 18.07C17.55 19.7 15.57 20.83 13.33 21.14C12.9 21.21 12.46 21.24 12 21.24C11.54 21.24 11.11 21.21 10.67 21.14C8.43 20.83 6.45 19.7 5.03 18.07C3.61 16.46 2.75 14.32 2.75 12C2.75 9.68001 3.61 7.54001 5.03 5.93001C6.45 4.30001 8.43 3.17001 10.67 2.86001C11.1 2.79001 11.54 2.76001 12 2.76001C12.46 2.76001 12.89 2.79001 13.33 2.86001C15.57 3.17001 17.55 4.30001 18.97 5.93001C20.39 7.54001 21.25 9.68001 21.25 12Z" stroke="white" stroke-width="1.5" stroke-linecap="round" stroke-linejoin="round"/>
<path d="M11.67 21.1501C11.03 20.4801 8 17.1701 8 12.0001C8 6.8301 11.03 3.5201 11.67 2.8501" stroke="white" stroke-width="1.5" stroke-linecap="round" stroke-linejoin="round"/>
<path d="M12.3301 21.1501C12.9701 20.4801 16.0001 17.1701 16.0001 12.0001C16.0001 6.8301 12.9701 3.5201 12.3301 2.8501" stroke="white" stroke-width="1.5" stroke-linecap="round" stroke-linejoin="round"/>
<path d="M2.75 12H21.25" stroke="white" stroke-width="1.5" stroke-linecap="round" stroke-linejoin="round"/>
</svg>
