<svg width="20" height="20" viewBox="0 0 20 20" fill="none" xmlns="http://www.w3.org/2000/svg">
<circle cx="10" cy="10" r="10" fill="#959DA9"/>
<path d="M11.8741 8.76256L9.58109 6.46956C9.4404 6.32893 9.2496 6.24995 9.05067 6.25C8.85174 6.25005 8.66098 6.32912 8.52034 6.46981C8.37971 6.61051 8.30073 6.80131 8.30078 7.00024C8.30083 7.19917 8.3799 7.38993 8.52059 7.53056L10.8136 9.82306C10.8369 9.84629 10.8553 9.87387 10.8679 9.90425C10.8806 9.93462 10.887 9.96718 10.887 10.0001C10.887 10.0329 10.8806 10.0655 10.8679 10.0959C10.8553 10.1263 10.8369 10.1538 10.8136 10.1771L8.52059 12.4696C8.3799 12.6102 8.30083 12.801 8.30078 12.9999C8.30073 13.1988 8.37971 13.3896 8.52034 13.5303C8.66098 13.671 8.85174 13.7501 9.05067 13.7501C9.2496 13.7502 9.4404 13.6712 9.58109 13.5306L11.8741 11.2376C12.2017 10.909 12.3857 10.464 12.3857 10.0001C12.3857 9.53611 12.2017 9.09108 11.8741 8.76256Z" fill="#F3F5FA"/>
</svg>
