<svg width="8" height="5" viewBox="0 0 8 5" fill="none" xmlns="http://www.w3.org/2000/svg">
<path d="M0.739091 0.25L7.26076 0.25C7.37612 0.250484 7.48876 0.285166 7.58442 0.349661C7.68007 0.414155 7.75446 0.505567 7.79816 0.612336C7.84187 0.719105 7.85294 0.836435 7.82996 0.949493C7.80699 1.06255 7.751 1.16626 7.66909 1.2475L4.41409 4.50249C4.35986 4.55717 4.29535 4.60056 4.22426 4.63018C4.15318 4.65979 4.07693 4.67504 3.99992 4.67504C3.92292 4.67504 3.84667 4.65979 3.77559 4.63018C3.7045 4.60056 3.63999 4.55717 3.58576 4.50249L0.330758 1.2475C0.248845 1.16626 0.192862 1.06255 0.169887 0.949493C0.146913 0.836435 0.157978 0.719105 0.201684 0.612336C0.245391 0.505567 0.319776 0.414155 0.415433 0.349661C0.51109 0.285166 0.623723 0.250484 0.739091 0.25V0.25Z" fill="white"/>
</svg>
