<svg width="14" height="14" viewBox="0 0 14 14" fill="none" xmlns="http://www.w3.org/2000/svg">
<g clip-path="url(#clip0_424_915)">
<path d="M13.5808 7.19715C13.7059 7.02588 13.7947 6.83085 13.8418 6.62403C13.8888 6.41721 13.8931 6.20296 13.8544 5.99442C13.8191 5.78443 13.7417 5.58375 13.6268 5.40441C13.512 5.22507 13.3622 5.07078 13.1862 4.95078L12.2571 4.32078C12.2185 4.29418 12.1864 4.25917 12.1633 4.21839C12.1402 4.17761 12.1265 4.13212 12.1235 4.08533L12.0408 2.97169C12.0258 2.7594 11.9679 2.55237 11.8706 2.36313C11.7732 2.17389 11.6384 2.00639 11.4744 1.87078C11.3117 1.73344 11.1232 1.63003 10.9199 1.56664C10.7166 1.50326 10.5027 1.48117 10.2908 1.50169L9.18351 1.61624C9.13555 1.62252 9.08678 1.61712 9.04135 1.6005C8.99592 1.58388 8.95518 1.55653 8.9226 1.52078L8.13987 0.718963C7.99116 0.567816 7.81386 0.447776 7.6183 0.365837C7.42273 0.283898 7.21282 0.241699 7.00078 0.241699C6.78874 0.241699 6.57883 0.283898 6.38326 0.365837C6.1877 0.447776 6.0104 0.567816 5.86169 0.718963L5.07896 1.52078C5.04638 1.55653 5.00564 1.58388 4.96021 1.6005C4.91479 1.61712 4.86602 1.62252 4.81805 1.61624L3.71078 1.50169C3.49904 1.48162 3.28541 1.50386 3.08235 1.56714C2.87928 1.63041 2.69084 1.73345 2.52798 1.87026C2.36511 2.00706 2.23109 2.17489 2.13372 2.36399C2.03634 2.55308 1.97756 2.75966 1.96078 2.97169L1.87805 4.08533C1.87443 4.13357 1.85996 4.18038 1.83572 4.22225C1.81148 4.26412 1.77809 4.29998 1.73805 4.32715L0.815326 4.95714C0.640543 5.07684 0.491414 5.23022 0.376681 5.4083C0.261949 5.58638 0.183922 5.78558 0.147175 5.99421C0.110428 6.20283 0.1157 6.4167 0.162683 6.62326C0.209665 6.82983 0.297413 7.02493 0.420781 7.19715L1.07624 8.10714C1.10382 8.14644 1.12216 8.19147 1.12988 8.23886C1.13759 8.28625 1.13448 8.33477 1.12078 8.38078L0.815326 9.45624C0.758747 9.66124 0.743675 9.87547 0.770994 10.0864C0.798313 10.2973 0.867473 10.5006 0.974417 10.6844C1.08028 10.8685 1.2222 11.0293 1.39169 11.1573C1.56118 11.2852 1.75474 11.3776 1.96078 11.429L3.0426 11.7026C3.08891 11.7142 3.13193 11.7364 3.16834 11.7673C3.20475 11.7981 3.23357 11.837 3.2526 11.8808L3.71078 12.899C3.79763 13.0934 3.92263 13.2683 4.07837 13.4135C4.23411 13.5587 4.41742 13.6711 4.61743 13.7441C4.81744 13.8171 5.03007 13.8492 5.24271 13.8385C5.45535 13.8278 5.66368 13.7744 5.85533 13.6817L6.86078 13.1981C6.90418 13.1761 6.95214 13.1646 7.00078 13.1646C7.04942 13.1646 7.09738 13.1761 7.14078 13.1981L8.14624 13.6817C8.36008 13.7868 8.59524 13.8412 8.83351 13.8408C9.02006 13.8406 9.20519 13.8083 9.38078 13.7453C9.58103 13.6717 9.76462 13.5589 9.92085 13.4136C10.0771 13.2683 10.2028 13.0934 10.2908 12.899L10.749 11.8808C10.768 11.837 10.7968 11.7981 10.8332 11.7673C10.8696 11.7364 10.9127 11.7142 10.959 11.7026L12.0408 11.429C12.2468 11.3771 12.4403 11.2844 12.6098 11.1563C12.7793 11.0283 12.9214 10.8675 13.0276 10.6836C13.1339 10.4996 13.2021 10.2962 13.2282 10.0853C13.2544 9.87451 13.2379 9.66059 13.1799 9.45624L12.8808 8.38078C12.8671 8.33477 12.864 8.28625 12.8717 8.23886C12.8794 8.19147 12.8977 8.14644 12.9253 8.10714L13.5808 7.19715ZM9.90896 6.01351L6.95624 8.96624C6.69172 9.22719 6.33508 9.3735 5.96351 9.3735C5.59193 9.3735 5.2353 9.22719 4.97078 8.96624L4.0926 8.08805C4.02757 8.02409 3.97591 7.94783 3.94066 7.8637C3.9054 7.77957 3.88724 7.68927 3.88724 7.59805C3.88724 7.50684 3.9054 7.41653 3.94066 7.33241C3.97591 7.24828 4.02757 7.17202 4.0926 7.10805C4.22334 6.97958 4.3993 6.9076 4.5826 6.9076C4.76589 6.9076 4.94186 6.97958 5.0726 7.10805L5.95078 7.98624L8.93533 5.03351C9.06528 4.9044 9.24121 4.8322 9.42439 4.83279C9.60758 4.83339 9.78303 4.90673 9.91214 5.03669C10.0413 5.16665 10.1135 5.34257 10.1129 5.52576C10.1123 5.70895 10.0389 5.8844 9.90896 6.01351Z" fill="#ADCD69"/>
</g>
<defs>
<clipPath id="clip0_424_915">
<rect width="14" height="14" fill="white"/>
</clipPath>
</defs>
</svg>
