<svg width="8" height="5" viewBox="0 0 8 5" fill="none" xmlns="http://www.w3.org/2000/svg">
<path d="M7.26091 4.75L0.739243 4.75C0.623875 4.74952 0.511242 4.71483 0.415585 4.65034C0.319928 4.58584 0.245543 4.49443 0.201836 4.38766C0.158129 4.28089 0.147064 4.16356 0.170038 4.05051C0.193013 3.93745 0.248996 3.83374 0.330909 3.7525L3.58591 0.497507C3.64014 0.442832 3.70466 0.399435 3.77574 0.36982C3.84682 0.340205 3.92307 0.324958 4.00008 0.324958C4.07708 0.324958 4.15333 0.340205 4.22441 0.36982C4.2955 0.399435 4.36001 0.442832 4.41424 0.497507L7.66924 3.7525C7.75116 3.83374 7.80714 3.93745 7.83011 4.05051C7.85309 4.16356 7.84202 4.2809 7.79832 4.38766C7.75461 4.49443 7.68022 4.58584 7.58457 4.65034C7.48891 4.71483 7.37628 4.74952 7.26091 4.75Z" fill="#205961"/>
</svg>
