<svg width="20" height="16" viewBox="0 0 20 16" fill="none" xmlns="http://www.w3.org/2000/svg">
<path d="M13.3016 3.2C13.3016 4.04869 12.9539 4.86263 12.335 5.46274C11.7161 6.06286 10.8768 6.4 10.0016 6.4C9.12635 6.4 8.28698 6.06286 7.66811 5.46274C7.04924 4.86263 6.70156 4.04869 6.70156 3.2C6.70156 2.35131 7.04924 1.53737 7.66811 0.937258C8.28698 0.337142 9.12635 0 10.0016 0C10.8768 0 11.7161 0.337142 12.335 0.937258C12.9539 1.53737 13.3016 2.35131 13.3016 3.2ZM18.8016 5.33333C18.8016 5.89913 18.5698 6.44175 18.1572 6.84183C17.7446 7.24191 17.185 7.46667 16.6016 7.46667C16.0181 7.46667 15.4585 7.24191 15.0459 6.84183C14.6333 6.44175 14.4016 5.89913 14.4016 5.33333C14.4016 4.76754 14.6333 4.22492 15.0459 3.82484C15.4585 3.42476 16.0181 3.2 16.6016 3.2C17.185 3.2 17.7446 3.42476 18.1572 3.82484C18.5698 4.22492 18.8016 4.76754 18.8016 5.33333ZM14.4016 12.8C14.4016 11.6684 13.938 10.5832 13.1128 9.78301C12.2877 8.98286 11.1685 8.53333 10.0016 8.53333C8.83461 8.53333 7.71545 8.98286 6.89029 9.78301C6.06513 10.5832 5.60156 11.6684 5.60156 12.8V16H14.4016V12.8ZM5.60156 5.33333C5.60156 5.89913 5.36978 6.44175 4.9572 6.84183C4.54462 7.24191 3.98504 7.46667 3.40156 7.46667C2.81809 7.46667 2.25851 7.24191 1.84593 6.84183C1.43335 6.44175 1.20156 5.89913 1.20156 5.33333C1.20156 4.76754 1.43335 4.22492 1.84593 3.82484C2.25851 3.42476 2.81809 3.2 3.40156 3.2C3.98504 3.2 4.54462 3.42476 4.9572 3.82484C5.36978 4.22492 5.60156 4.76754 5.60156 5.33333ZM16.6016 16V12.8C16.6032 11.7155 16.3192 10.6486 15.7766 9.70027C16.2642 9.57925 16.774 9.56783 17.2669 9.6669C17.7598 9.76597 18.2229 9.9729 18.6208 10.2719C19.0187 10.5709 19.3409 10.9541 19.5629 11.3922C19.7849 11.8304 19.9007 12.3119 19.9016 12.8V16H16.6016ZM4.22656 9.70027C3.68399 10.6486 3.40002 11.7155 3.40156 12.8V16H0.101563V12.8C0.101351 12.3115 0.216472 11.8295 0.438104 11.3908C0.659736 10.9521 0.981996 10.5685 1.38018 10.2692C1.77837 9.97003 2.24192 9.76318 2.7353 9.66455C3.22869 9.56593 3.7388 9.57814 4.22656 9.70027Z" fill="#54657E"/>
</svg>
