<svg width="16" height="16" viewBox="0 0 16 16" fill="none" xmlns="http://www.w3.org/2000/svg">
<path d="M14.9375 0.421875H4.66095C4.4906 0.421875 4.32724 0.489544 4.20678 0.609996C4.08633 0.730447 4.01866 0.893814 4.01866 1.06416V6.5878H1.06416C0.893814 6.5878 0.730447 6.65547 0.609996 6.77592C0.489544 6.89637 0.421875 7.05974 0.421875 7.23008L0.421875 12.8822C0.422555 13.5974 0.706983 14.2832 1.21273 14.7889C1.71848 15.2947 2.40423 15.5791 3.11947 15.5798H12.8822C13.5974 15.5791 14.2832 15.2947 14.7889 14.7889C15.2947 14.2832 15.5791 13.5974 15.5798 12.8822V1.06416C15.5798 0.893814 15.5121 0.730447 15.3916 0.609996C15.2712 0.489544 15.1078 0.421875 14.9375 0.421875V0.421875ZM4.01866 13.396C4.01866 13.6345 3.92393 13.8632 3.75529 14.0318C3.58666 14.2005 3.35795 14.2952 3.11947 14.2952C2.74492 14.2945 2.3859 14.1454 2.12106 13.8806C1.85621 13.6157 1.70712 13.2567 1.70644 12.8822V7.87236H4.01866V13.396ZM12.3684 11.6387H7.23008C7.05974 11.6387 6.89637 11.571 6.77592 11.4506C6.65547 11.3301 6.5878 11.1668 6.5878 10.9964C6.5878 10.8261 6.65547 10.6627 6.77592 10.5423C6.89637 10.4218 7.05974 10.3541 7.23008 10.3541H12.3684C12.5387 10.3541 12.7021 10.4218 12.8225 10.5423C12.943 10.6627 13.0106 10.8261 13.0106 10.9964C13.0106 11.1668 12.943 11.3301 12.8225 11.4506C12.7021 11.571 12.5387 11.6387 12.3684 11.6387ZM12.3684 8.64311H7.23008C7.05974 8.64311 6.89637 8.57544 6.77592 8.45498C6.65547 8.33453 6.5878 8.17117 6.5878 8.00082C6.5878 7.83048 6.65547 7.66711 6.77592 7.54666C6.89637 7.42621 7.05974 7.35854 7.23008 7.35854H12.3684C12.5387 7.35854 12.7021 7.42621 12.8225 7.54666C12.943 7.66711 13.0106 7.83048 13.0106 8.00082C13.0106 8.17117 12.943 8.33453 12.8225 8.45498C12.7021 8.57544 12.5387 8.64311 12.3684 8.64311ZM12.3684 5.64493H7.23008C7.05974 5.64493 6.89637 5.57726 6.77592 5.4568C6.65547 5.33635 6.5878 5.17299 6.5878 5.00264C6.5878 4.8323 6.65547 4.66893 6.77592 4.54848C6.89637 4.42803 7.05974 4.36036 7.23008 4.36036H12.3684C12.5387 4.36036 12.7021 4.42803 12.8225 4.54848C12.943 4.66893 13.0106 4.8323 13.0106 5.00264C13.0106 5.17299 12.943 5.33635 12.8225 5.4568C12.7021 5.57726 12.5387 5.64493 12.3684 5.64493Z" fill="#818994"/>
</svg>
