<svg width="40" height="36" viewBox="0 0 40 36" fill="none" xmlns="http://www.w3.org/2000/svg">
<g clip-path="url(#clip0_310_214)">
<path d="M33.1773 -1.8422e-07L7.35701 -4.13214e-08L-0.109375 16.0144L19.9444 36.1079L39.9767 15.9928L33.1773 -1.8422e-07ZM20.5684 19.4245C20.0533 19.4211 19.5404 19.3559 19.0407 19.2302C19.0407 21.0216 19.0407 23.0935 19.1698 24C19.2989 24.9065 19.428 25.3381 20.3102 25.4676C20.8114 25.5105 21.3152 25.5105 21.8164 25.4676C22.1607 25.4676 22.2898 25.6403 22.2898 25.7698C22.2898 25.8993 22.0531 26.0719 21.7518 26.0719C19.7723 26.0719 17.6851 26.0719 16.9105 26.0719C16.1359 26.0719 14.35 26.0719 13.1881 26.0719C12.8008 26.0719 12.6071 26.0719 12.6071 25.7698C12.6071 25.4676 12.7147 25.4676 13.0805 25.4676C13.4228 25.5197 13.771 25.5197 14.1133 25.4676C14.7373 25.3381 14.8879 24.7986 14.9955 23.9568C15.1031 23.1151 15.1246 20.2878 15.1246 18.0216C14.3197 17.8126 13.4995 17.6683 12.6717 17.5899C10.7454 17.5147 8.85486 18.1265 7.33549 19.3165C7.86517 18.1435 8.73156 17.1555 9.82391 16.4788C10.9163 15.8022 12.1849 15.4677 13.4678 15.518C15.6195 15.518 17.0827 16.554 20.9557 17.3741C21.9183 17.5157 22.8996 17.4585 23.8394 17.2061C24.7792 16.9538 25.6577 16.5115 26.421 15.9065C25.79 16.9187 24.9326 17.7694 23.9167 18.3913C22.9008 19.0132 21.7544 19.3891 20.5684 19.4892L20.5684 19.4245ZM21.5582 16.5108C21.2645 16.5318 20.9697 16.5318 20.676 16.5108C20.588 16.517 20.5011 16.4891 20.433 16.4329C20.365 16.3767 20.321 16.2964 20.3102 16.2086C20.3102 15.9712 20.6545 15.8417 21.2785 15.8417C22.4081 15.7168 23.448 15.1656 24.1872 14.2998C24.9264 13.434 25.3097 12.3186 25.2591 11.1799C25.31 10.3753 25.1797 9.56958 24.878 8.82237C24.5763 8.07516 24.1109 7.40561 23.5162 6.86331C22.6911 6.15187 21.6349 5.76801 20.5469 5.78417C20.12 5.77519 19.6937 5.81867 19.2774 5.91366C19.1053 5.91366 19.0407 6.15107 19.0407 6.45323L19.0407 16.2302C17.4915 15.8633 16.2435 15.4748 15.1246 15.1295L15.1246 12.8633C15.1246 8.54676 15.1246 7.68345 15.1246 6.77698C15.1246 5.8705 14.7804 5.50359 13.8336 5.22302C13.4473 5.18318 13.058 5.18318 12.6717 5.22302C12.3705 5.22302 12.1553 5.22302 12.1553 4.92086C12.1553 4.6187 12.392 4.64028 12.8223 4.64028C14.3715 4.64028 16.265 4.64028 17.1257 4.64028L22.0316 4.64028C24.0154 4.42823 26.0026 5.00992 27.5614 6.25899C28.4732 7.17888 28.9971 8.41539 29.0246 9.71223C29.0178 10.6702 28.816 11.6166 28.4317 12.4936C28.0474 13.3705 27.4886 14.1595 26.7895 14.8122C26.0905 15.4649 25.2659 15.9675 24.3664 16.2893C23.4668 16.6111 22.5112 16.7452 21.5582 16.6835L21.5582 16.5108Z" fill="#0F1E23"/>
</g>
<defs>
<clipPath id="clip0_310_214">
<rect width="40" height="36" fill="white"/>
</clipPath>
</defs>
</svg>
