<svg width="151" height="56" viewBox="0 0 151 56" fill="none" xmlns="http://www.w3.org/2000/svg">
<g clip-path="url(#clip0_105_174)">
<path d="M-0.0322266 25.4568V0.0247537H7.35104C9.07538 -0.00621433 10.7937 0.233492 12.4412 0.734857C13.7817 1.15904 14.9555 1.98117 15.8011 3.08812C16.6825 4.39577 17.1124 5.94751 17.0274 7.51395C17.0913 9.06688 16.6724 10.6022 15.8263 11.9151C14.9948 13.0917 13.8249 13.9974 12.4664 14.5161C10.8624 15.1345 9.14906 15.432 7.42664 15.3913H3.16803V25.4815L-0.0322266 25.4568ZM3.24362 12.7243H7.10745C9.34735 12.7243 11.0273 12.3031 12.1472 11.4609C12.7292 10.9786 13.1854 10.3664 13.4777 9.6755C13.7699 8.98457 13.8897 8.235 13.8272 7.48925C13.8272 5.64515 13.2532 4.3708 12.1052 3.66619C10.5342 2.85827 8.76767 2.4898 6.99825 2.60098H3.28562L3.24362 12.7243Z" fill="black"/>
<path d="M30.2061 25.4568V0.0247776H38.2949C39.8898 -0.00176946 41.4785 0.226868 42.9987 0.70182C44.2841 1.10027 45.4095 1.88605 46.2157 2.94784C47.0463 4.19535 47.4522 5.66997 47.3749 7.15897C47.4356 8.65396 47.0313 10.1316 46.2157 11.3949C45.4107 12.5101 44.2929 13.3708 42.9987 13.872C41.5007 14.447 39.9027 14.7275 38.2949 14.6978H33.4819V25.432L30.2061 25.4568ZM33.4819 12.0637H37.8245C39.4725 12.1678 41.1099 11.7386 42.4863 10.8416C43.0378 10.396 43.4722 9.82667 43.7529 9.18143C44.0336 8.53618 44.1523 7.83398 44.099 7.13417C44.1658 6.46168 44.052 5.78372 43.769 5.16796C43.486 4.5522 43.0437 4.02017 42.4863 3.62488C41.0612 2.85945 39.4455 2.50458 37.8245 2.601H33.4819V12.0637ZM44.4014 25.4568L37.6817 13.8142L40.252 12.105L48.1476 25.4568H44.4014Z" fill="black"/>
<path d="M60.5947 25.457V0.0249023H63.8706V25.4817L60.5947 25.457Z" fill="black"/>
<path d="M83.6097 25.457L75.3193 0.0249023H78.8388L82.9798 13.7565C83.4502 15.2841 83.8701 16.7044 84.2229 18.009C84.5757 19.3136 85.0041 20.7091 85.5081 22.1376H85.6425C86.1128 20.6678 86.5244 19.2723 86.8856 18.009C87.2468 16.7457 87.65 15.2841 88.1287 13.7565L92.2698 0.0249023H95.6296L87.4148 25.4817L83.6097 25.457Z" fill="black"/>
<path d="M103.282 25.457L112.035 0.0249023H115.747L124.508 25.4817H120.997L116.495 11.2381C116.024 9.83987 115.579 8.43065 115.159 7.01042C114.731 5.58193 114.319 4.13692 113.891 2.65889H113.731C113.339 4.16169 112.933 5.61773 112.513 7.02695C112.093 8.43617 111.645 9.83987 111.169 11.2381L106.642 25.457H103.282ZM107.86 17.6952V15.0942H119.821V17.6952H107.86Z" fill="black"/>
<path d="M139.873 25.457V2.71674H132.053V0.0249023H151.002V2.74154H143.182V25.4817L139.873 25.457Z" fill="black"/>
<path d="M8.78161 55.9919C7.15252 56.0238 5.55238 55.5656 4.19543 54.6789C2.83729 53.7453 1.76999 52.4588 1.11277 50.9632C0.334373 49.1663 -0.0436882 47.2265 0.00401266 45.2741C-0.0161888 43.7867 0.196282 42.3051 0.633984 40.8812C1.01612 39.6546 1.63813 38.5131 2.46511 37.5206C3.22999 36.6044 4.19834 35.8728 5.29578 35.3819C6.44181 34.8784 7.68607 34.6277 8.94121 34.6471C10.063 34.6224 11.1728 34.8781 12.1667 35.3902C13.0105 35.8331 13.7694 36.4172 14.4094 37.116L13.5694 38.082C13.0016 37.4445 12.3144 36.9203 11.5451 36.538C10.7632 36.1529 9.89976 35.9549 9.02521 35.96C7.61811 35.9268 6.2354 36.3251 5.06898 37.0995C3.91585 37.9105 3.02143 39.0275 2.49031 40.3198C1.85 41.8939 1.54138 43.5793 1.58315 45.2741C1.55164 46.9666 1.85399 48.649 2.4735 50.2284C2.97515 51.5434 3.84963 52.6896 4.99339 53.5312C6.13235 54.3184 7.49904 54.7237 8.89081 54.6872C9.88948 54.7088 10.8784 54.4906 11.7719 54.0514C12.6867 53.5647 13.5082 52.9248 14.1994 52.1605L15.0393 53.0688C14.2652 53.9425 13.3377 54.6725 12.3011 55.2239C11.2111 55.7635 10.0015 56.0274 8.78161 55.9919Z" fill="black"/>
<path d="M25.6299 55.6202V35.0187H27.0914V54.3734H36.7594V55.6202H25.6299Z" fill="black"/>
<path d="M53.1051 55.9919C52.2207 55.994 51.3417 55.8574 50.5012 55.5873C49.6547 55.3194 48.8818 54.8646 48.2417 54.2579C47.5221 53.5497 46.9837 52.6837 46.6709 51.7311C46.2427 50.4336 46.0438 49.0735 46.083 47.7099V35.0187H47.5277V47.5531C47.4593 49.0256 47.7232 50.4946 48.3005 51.855C48.7262 52.7849 49.4486 53.5531 50.3584 54.0432C51.2028 54.4685 52.1394 54.6866 53.0882 54.6789C54.0697 54.6903 55.0399 54.4724 55.9189 54.0432C56.8447 53.5607 57.5828 52.7916 58.0188 51.855C58.6141 50.4993 58.887 49.0281 58.8168 47.5531V35.0187H60.1859V47.7099C60.2227 49.074 60.0209 50.4342 59.5895 51.7311C59.2776 52.6879 58.7326 53.5553 58.002 54.2579C57.3545 54.8635 56.5765 55.3179 55.7257 55.5873C54.8795 55.8577 53.9949 55.9943 53.1051 55.9919Z" fill="black"/>
<path d="M72.6699 55.6201V35.0185H78.3229C79.5704 34.9951 80.8134 35.1736 82.0019 35.547C82.9499 35.8544 83.7851 36.4286 84.4042 37.1984C84.9958 38.0248 85.2913 39.0211 85.2442 40.0306C85.2636 41.0315 84.9704 42.0142 84.4042 42.8463C83.8255 43.6533 82.9791 44.2371 82.0103 44.4977V44.6216C83.2474 44.7725 84.3991 45.3212 85.2862 46.1822C85.7115 46.6419 86.0397 47.1801 86.2517 47.7655C86.4637 48.3509 86.5552 48.9719 86.5209 49.5924C86.5614 50.766 86.2233 51.9221 85.5549 52.8953C84.8756 53.8166 83.9347 54.5203 82.8503 54.9182C81.5327 55.3912 80.1368 55.618 78.7344 55.5871L72.6699 55.6201ZM74.1315 44.0601H77.7685C79.9076 44.0601 81.4503 43.7106 82.3967 43.0115C82.8527 42.6854 83.2204 42.2545 83.4679 41.7565C83.7153 41.2585 83.8349 40.7084 83.8162 40.1544C83.8759 39.5559 83.7681 38.9527 83.5047 38.41C83.2412 37.8672 82.8319 37.4055 82.3211 37.0745C80.9629 36.4002 79.4469 36.0925 77.9281 36.1828H74.1483L74.1315 44.0601ZM74.1315 54.4063H78.3313C80.0592 54.4967 81.7769 54.0953 83.2786 53.2503C83.8758 52.8545 84.3563 52.3112 84.6719 51.6748C84.9874 51.0385 85.1269 50.3316 85.0762 49.6254C85.118 48.9688 84.9756 48.3137 84.6646 47.7312C84.3535 47.1488 83.8857 46.6615 83.3123 46.3225C81.7808 45.5304 80.0591 45.1623 78.3313 45.2574H74.1315V54.4063Z" fill="black"/>
</g>
<defs>
<clipPath id="clip0_105_174">
<rect width="151" height="56" fill="white"/>
</clipPath>
</defs>
</svg>
