<svg width="124" height="124" viewBox="0 0 124 124" fill="none" xmlns="http://www.w3.org/2000/svg">
<g clip-path="url(#clip0_2302_188)">
<path d="M89.6726 30L35.4499 30L19.7705 63.8081L61.8835 106.228L103.951 63.7626L89.6726 30ZM63.1939 71.0072C62.1121 71.0001 61.035 70.8624 59.9857 70.5971C59.9857 74.3789 59.9857 78.753 60.2568 80.6667C60.5279 82.5803 60.799 83.4916 62.6516 83.765C63.7041 83.8555 64.7622 83.8555 65.8146 83.765C66.5376 83.765 66.8087 84.1295 66.8087 84.4029C66.8087 84.6763 66.3117 85.0408 65.6791 85.0408C61.522 85.0408 57.139 85.0408 55.5123 85.0408C53.8856 85.0408 50.1352 85.0408 47.6952 85.0408C46.8819 85.0408 46.4752 85.0408 46.4752 84.4029C46.4752 83.765 46.7011 83.765 47.4693 83.765C48.1881 83.875 48.9193 83.875 49.6382 83.765C50.9486 83.4916 51.2649 82.3525 51.4908 80.5755C51.7167 78.7985 51.7619 72.8297 51.7619 68.0456C50.0716 67.6044 48.3491 67.2997 46.6108 67.1343C42.5656 66.9755 38.5954 68.267 35.4047 70.7794C36.5171 68.3029 38.3365 66.2171 40.6304 64.7887C42.9243 63.3602 45.5886 62.654 48.2826 62.7602C52.8012 62.7602 55.8738 64.9472 64.0072 66.6787C66.0287 66.9775 68.0894 66.8568 70.0629 66.3241C72.0365 65.7913 73.8813 64.8576 75.4843 63.5803C74.1592 65.7172 72.3586 67.5133 70.2252 68.8262C68.0918 70.139 65.6844 70.9326 63.1939 71.1439L63.1939 71.0072ZM65.2724 64.8561C64.6556 64.9005 64.0365 64.9005 63.4198 64.8561C63.2351 64.8692 63.0525 64.8103 62.9095 64.6916C62.7666 64.573 62.6743 64.4035 62.6516 64.2182C62.6516 63.717 63.3746 63.4436 64.685 63.4436C67.0571 63.1799 69.2409 62.0162 70.7933 60.1885C72.3457 58.3607 73.1505 56.006 73.0443 53.6019C73.1511 51.9034 72.8776 50.2025 72.2441 48.625C71.6105 47.0476 70.6331 45.6341 69.3843 44.4892C67.6515 42.9873 65.4334 42.1769 63.1487 42.211C62.2523 42.1921 61.357 42.2839 60.4827 42.4844C60.1212 42.4844 59.9857 42.9856 59.9857 43.6235L59.9857 64.2638C56.7323 63.4892 54.1116 62.6691 51.7619 61.94L51.7619 57.1559C51.7619 48.0432 51.7619 46.2206 51.7619 44.307C51.7619 42.3933 51.0389 41.6187 49.0508 41.0264C48.2396 40.9423 47.422 40.9423 46.6108 41.0264C45.9782 41.0264 45.5263 41.0264 45.5263 40.3885C45.5263 39.7506 46.0233 39.7962 46.9271 39.7962C50.1804 39.7962 54.1567 39.7962 55.9642 39.7962L66.2665 39.7962C70.4326 39.3485 74.6057 40.5765 77.8792 43.2134C79.7938 45.1554 80.894 47.7658 80.9518 50.5036C80.9375 52.5259 80.5138 54.5239 79.7067 56.3753C78.8997 58.2266 77.7262 59.8923 76.2582 61.2702C74.7902 62.6481 73.0586 63.7092 71.1695 64.3885C69.2805 65.0678 67.2738 65.3509 65.2724 65.2206L65.2724 64.8561Z" fill="url(#paint0_linear_2302_188)"/>
</g>
<path d="M123.38 62C123.722 62 124 61.7222 123.997 61.3798C123.876 49.3337 120.249 37.5785 113.551 27.5546C106.738 17.3588 97.0554 9.4121 85.7264 4.71947C74.3974 0.0268357 61.9312 -1.20097 49.9044 1.19131C37.8776 3.5836 26.8302 9.48852 18.1594 18.1594C9.48852 26.8302 3.5836 37.8776 1.19131 49.9044C-1.20097 61.9312 0.0268358 74.3974 4.71947 85.7264C9.4121 97.0554 17.3588 106.738 27.5546 113.551C37.5785 120.249 49.3337 123.876 61.3798 123.997C61.7222 124 62 123.722 62 123.38C62 123.038 61.7222 122.76 61.3798 122.757C49.579 122.636 38.0635 119.082 28.2436 112.52C18.2516 105.844 10.4639 96.3543 5.86508 85.2518C1.2663 74.1494 0.0630462 61.9326 2.40748 50.1463C4.75192 38.36 10.5388 27.5336 19.0362 19.0362C27.5336 10.5388 38.36 4.75192 50.1463 2.40748C61.9326 0.0630462 74.1494 1.2663 85.2518 5.86508C96.3543 10.4639 105.844 18.2516 112.52 28.2436C119.082 38.0635 122.636 49.579 122.757 61.3798C122.76 61.7222 123.038 62 123.38 62Z" fill="url(#paint1_linear_2302_188)"/>
<defs>
<linearGradient id="paint0_linear_2302_188" x1="30" y1="45.5" x2="104" y2="68" gradientUnits="userSpaceOnUse">
<stop offset="0.471775" stop-color="#36B8BC"/>
<stop offset="0.471875" stop-color="white"/>
<stop offset="1" stop-color="#36B8BC"/>
</linearGradient>
<linearGradient id="paint1_linear_2302_188" x1="62" y1="0" x2="62" y2="124" gradientUnits="userSpaceOnUse">
<stop stop-color="#36B8BC"/>
<stop offset="1" stop-color="#36B8BC" stop-opacity="0"/>
</linearGradient>
<clipPath id="clip0_2302_188">
<rect width="84" height="76" fill="white" transform="translate(20 30)"/>
</clipPath>
</defs>
</svg>
