<svg width="76" height="28" viewBox="0 0 76 28" fill="none" xmlns="http://www.w3.org/2000/svg">
<g clip-path="url(#clip0_424_852)">
<path d="M-0.015625 12.7286V0.01256H3.70045C4.56834 -0.00292406 5.4332 0.116929 6.2624 0.367611C6.93707 0.579705 7.52785 0.990766 7.95345 1.54425C8.39707 2.19807 8.61348 2.97394 8.57068 3.75716C8.60286 4.53362 8.39198 5.30126 7.96613 5.95772C7.54767 6.54602 6.95882 6.99889 6.27508 7.25823C5.46778 7.56741 4.60542 7.71616 3.73851 7.69583H1.5951V12.7409L-0.015625 12.7286ZM1.63315 6.36231H3.57786C4.70522 6.36231 5.55075 6.15174 6.11443 5.73063C6.40736 5.48949 6.63696 5.1834 6.78405 4.83793C6.93114 4.49247 6.99146 4.11768 6.95996 3.74481C6.95996 2.82276 6.67107 2.18558 6.09329 1.83328C5.30257 1.42932 4.41346 1.24508 3.52289 1.30067H1.65429L1.63315 6.36231Z" fill="white"/>
<path d="M15.2031 12.7283V0.0122667H19.2743C20.0771 -0.0010068 20.8767 0.113312 21.6418 0.350788C22.2888 0.550012 22.8552 0.942903 23.261 1.4738C23.679 2.09755 23.8833 2.83486 23.8444 3.57936C23.875 4.32686 23.6714 5.06569 23.261 5.69732C22.8558 6.25492 22.2932 6.68529 21.6418 6.9359C20.8879 7.22336 20.0835 7.36363 19.2743 7.34875H16.8519V12.7159L15.2031 12.7283ZM16.8519 6.03171H19.0376C19.867 6.08378 20.6911 5.86917 21.3839 5.42069C21.6615 5.1979 21.8801 4.91321 22.0214 4.59059C22.1627 4.26797 22.2224 3.91687 22.1956 3.56696C22.2292 3.23072 22.1719 2.89174 22.0295 2.58386C21.8871 2.27598 21.6645 2.00996 21.3839 1.81232C20.6667 1.4296 19.8534 1.25217 19.0376 1.30038H16.8519V6.03171ZM22.3478 12.7283L18.9657 6.90697L20.2594 6.05237L24.2333 12.7283H22.3478Z" fill="white"/>
<path d="M30.5 12.7287V0.0126953H32.1488V12.7411L30.5 12.7287Z" fill="white"/>
<path d="M42.0789 12.7287L37.9062 0.0126953H39.6776L41.7618 6.87852C41.9986 7.6423 42.21 8.35243 42.3875 9.00475C42.5651 9.65706 42.7807 10.3548 43.0344 11.069H43.102C43.3387 10.3341 43.5459 9.63642 43.7277 9.00475C43.9095 8.37307 44.1124 7.6423 44.3534 6.87852L46.4376 0.0126953H48.1286L43.994 12.7411L42.0789 12.7287Z" fill="white"/>
<path d="M51.9844 12.7287L56.3896 0.0126953H58.2582L62.6676 12.7411H60.9004L58.6344 5.61928C58.3977 4.92018 58.1736 4.21557 57.9622 3.50545C57.7466 2.79121 57.5395 2.0687 57.3239 1.32969H57.2435C57.0463 2.08109 56.8419 2.80911 56.6305 3.51372C56.4191 4.21833 56.1937 4.92018 55.9541 5.61928L53.6754 12.7287H51.9844ZM54.2884 8.84786V7.54735H60.3086V8.84786H54.2884Z" fill="white"/>
<path d="M70.3969 12.7287V1.35862H66.4609V0.0126953H75.9985V1.37101H72.0625V12.7411L70.3969 12.7287Z" fill="white"/>
<path d="M4.41989 27.9959C3.59994 28.0119 2.79458 27.7828 2.11161 27.3394C1.42804 26.8726 0.890855 26.2294 0.560069 25.4816C0.168294 24.5832 -0.0219888 23.6133 0.00201961 22.637C-0.00814801 21.8934 0.0987911 21.1526 0.319091 20.4406C0.511424 19.8273 0.824487 19.2565 1.24072 18.7603C1.62569 18.3022 2.11307 17.9364 2.66542 17.691C3.24224 17.4392 3.86849 17.3138 4.50021 17.3236C5.06483 17.3112 5.62342 17.439 6.12362 17.6951C6.54831 17.9166 6.93028 18.2086 7.2524 18.558L6.82964 19.041C6.54387 18.7222 6.19796 18.4601 5.81078 18.269C5.41722 18.0764 4.98266 17.9774 4.54249 17.98C3.83428 17.9634 3.13835 18.1626 2.55128 18.5497C1.97089 18.9552 1.52072 19.5137 1.2534 20.1599C0.931125 20.9469 0.775794 21.7897 0.796815 22.637C0.780956 23.4833 0.933135 24.3245 1.24494 25.1142C1.49743 25.7717 1.93756 26.3448 2.51323 26.7656C3.08648 27.1592 3.77435 27.3618 4.47485 27.3436C4.97749 27.3544 5.47524 27.2453 5.92492 27.0257C6.38537 26.7823 6.79884 26.4624 7.14671 26.0803L7.56947 26.5344C7.17983 26.9713 6.71302 27.3362 6.19126 27.6119C5.64266 27.8817 5.03384 28.0137 4.41989 27.9959Z" fill="white"/>
<path d="M12.8984 27.8101V17.5093H13.634V27.1866H18.5V27.8101H12.8984Z" fill="white"/>
<path d="M26.7242 27.9959C26.2791 27.9969 25.8367 27.9286 25.4137 27.7936C24.9876 27.6596 24.5986 27.4323 24.2764 27.1289C23.9143 26.7748 23.6433 26.3418 23.4859 25.8655C23.2703 25.2167 23.1702 24.5367 23.1899 23.8549V17.5093H23.9171V23.7765C23.8827 24.5127 24.0155 25.2473 24.306 25.9275C24.5203 26.3924 24.8839 26.7765 25.3418 27.0215C25.7668 27.2342 26.2382 27.3432 26.7158 27.3394C27.2097 27.3451 27.698 27.2362 28.1405 27.0215C28.6064 26.7803 28.9779 26.3958 29.1974 25.9275C29.497 25.2496 29.6343 24.514 29.599 23.7765V17.5093H30.2881V23.8549C30.3066 24.5369 30.2051 25.217 29.9879 25.8655C29.8309 26.3439 29.5567 26.7776 29.1889 27.1289C28.863 27.4317 28.4714 27.6589 28.0432 27.7936C27.6173 27.9288 27.1721 27.9971 26.7242 27.9959Z" fill="white"/>
<path d="M36.5703 27.8101V17.5093H39.4155C40.0434 17.4976 40.669 17.5869 41.2672 17.7736C41.7443 17.9273 42.1647 18.2144 42.4763 18.5993C42.7741 19.0125 42.9228 19.5106 42.8991 20.0153C42.9088 20.5158 42.7613 21.0072 42.4763 21.4232C42.185 21.8267 41.759 22.1186 41.2714 22.2489V22.3109C41.8941 22.3863 42.4738 22.6606 42.9202 23.0912C43.1343 23.321 43.2995 23.5901 43.4062 23.8828C43.5129 24.1755 43.5589 24.486 43.5417 24.7963C43.5621 25.383 43.3919 25.9611 43.0555 26.4477C42.7136 26.9084 42.24 27.2602 41.6942 27.4592C41.031 27.6956 40.3285 27.8091 39.6227 27.7936L36.5703 27.8101ZM37.3059 22.0301H39.1365C40.2131 22.0301 40.9896 21.8554 41.4659 21.5058C41.6954 21.3428 41.8805 21.1273 42.005 20.8783C42.1296 20.6293 42.1898 20.3543 42.1804 20.0773C42.2104 19.778 42.1562 19.4764 42.0236 19.2051C41.8909 18.9337 41.685 18.7028 41.4279 18.5373C40.7443 18.2001 39.9813 18.0463 39.2168 18.0915H37.3144L37.3059 22.0301ZM37.3059 27.2032H39.4197C40.2894 27.2484 41.154 27.0477 41.9098 26.6252C42.2103 26.4273 42.4522 26.1557 42.611 25.8375C42.7699 25.5193 42.84 25.1658 42.8145 24.8127C42.8356 24.4845 42.7639 24.1569 42.6074 23.8657C42.4508 23.5745 42.2154 23.3308 41.9267 23.1613C41.1559 22.7653 40.2894 22.5812 39.4197 22.6288H37.3059V27.2032Z" fill="white"/>
</g>
<defs>
<clipPath id="clip0_424_852">
<rect width="76" height="28" fill="white"/>
</clipPath>
</defs>
</svg>
