<svg width="217" height="82" viewBox="0 0 217 82" fill="none" xmlns="http://www.w3.org/2000/svg">
<g clip-path="url(#clip0_1_28194)">
<path d="M-0.046875 37.2759V0.0361201H10.5635C13.0415 -0.00922598 15.5109 0.341773 17.8785 1.07591C19.8049 1.69705 21.4917 2.90087 22.7069 4.52177C23.9736 6.43654 24.5915 8.70873 24.4693 11.0024C24.5612 13.2764 23.959 15.5245 22.7431 17.4469C21.5483 19.1698 19.867 20.4961 17.9147 21.2556C15.6097 22.161 13.1474 22.5967 10.6722 22.5371H4.55217V37.3121L-0.046875 37.2759ZM4.6608 18.6318H10.2135C13.4324 18.6318 15.8466 18.0152 17.456 16.7819C18.2924 16.0757 18.948 15.1793 19.368 14.1676C19.788 13.1558 19.9602 12.0583 19.8702 10.9663C19.8702 8.26599 19.0454 6.39997 17.3957 5.36822C15.138 4.1852 12.5993 3.64565 10.0565 3.80845H4.72116L4.6608 18.6318Z" fill="#738E97"/>
<path d="M43.4062 37.276V0.0362379H55.0306C57.3226 -0.0026346 59.6057 0.332156 61.7903 1.02762C63.6376 1.61106 65.255 2.76167 66.4135 4.31644C67.6071 6.14315 68.1904 8.30241 68.0793 10.4827C68.1667 12.6718 67.5855 14.8356 66.4135 16.6853C65.2567 18.3183 63.6503 19.5787 61.7903 20.3126C59.6377 21.1544 57.3411 21.5652 55.0306 21.5217H48.1139V37.2397L43.4062 37.276ZM48.1139 17.6646H54.3546C56.723 17.8171 59.076 17.1886 61.054 15.8752C61.8466 15.2227 62.4709 14.389 62.8742 13.4442C63.2776 12.4994 63.4482 11.4711 63.3716 10.4464C63.4676 9.46171 63.304 8.46897 62.8974 7.56732C62.4907 6.66568 61.8551 5.88663 61.054 5.30782C59.0061 4.18701 56.6841 3.66738 54.3546 3.80857H48.1139V17.6646ZM63.8062 37.276L54.1494 20.2279L57.8432 17.7251L69.1899 37.276H63.8062Z" fill="#738E97"/>
<path d="M87.0781 37.2759V0.0361328H91.7858V37.3121L87.0781 37.2759Z" fill="#738E97"/>
<path d="M120.156 37.2759L108.242 0.0361328H113.3L119.251 20.1432C119.927 22.38 120.53 24.4596 121.037 26.37C121.544 28.2803 122.16 30.3237 122.884 32.4154H123.077C123.753 30.2632 124.345 28.2199 124.864 26.37C125.383 24.5201 125.962 22.38 126.65 20.1432L132.601 0.0361328H137.43L125.624 37.3121L120.156 37.2759Z" fill="#738E97"/>
<path d="M148.422 37.2759L161 0.0361328H166.335L178.925 37.3121H173.88L167.41 16.4554C166.734 14.408 166.094 12.3446 165.49 10.2649C164.875 8.17321 164.283 6.05729 163.668 3.89304H163.438C162.875 6.09357 162.291 8.22563 161.688 10.2891C161.084 12.3526 160.441 14.408 159.757 16.4554L153.25 37.2759H148.422ZM155.001 25.9105V22.1019H172.19V25.9105H155.001Z" fill="#738E97"/>
<path d="M201.004 37.2759V3.97776H189.766V0.0361328H216.998V4.01406H205.76V37.3121L201.004 37.2759Z" fill="#738E97"/>
<path d="M58.9402 81.9881C56.5991 82.0349 54.2996 81.364 52.3495 80.0656C50.3977 78.6984 48.8639 76.8147 47.9195 74.6247C46.8008 71.9936 46.2575 69.1532 46.3261 66.2942C46.297 64.1163 46.6024 61.9468 47.2314 59.8618C47.7806 58.0656 48.6744 56.3941 49.8629 54.9409C50.9621 53.5994 52.3537 52.528 53.9308 51.8093C55.5778 51.072 57.3659 50.7048 59.1696 50.7334C60.7817 50.6972 62.3767 51.0715 63.8049 51.8214C65.0175 52.47 66.1081 53.3252 67.0278 54.3485L65.8207 55.763C65.0048 54.8295 64.0171 54.0618 62.9116 53.5021C61.7879 52.9382 60.5471 52.6483 59.2903 52.6558C57.2682 52.6072 55.2811 53.1904 53.6049 54.3243C51.9477 55.5118 50.6624 57.1474 49.8991 59.0397C48.9789 61.3446 48.5354 63.8126 48.5954 66.2942C48.5501 68.7725 48.9847 71.236 49.8749 73.5487C50.5959 75.4743 51.8526 77.1527 53.4962 78.3851C55.133 79.5377 57.0971 80.1311 59.0972 80.0777C60.5324 80.1093 61.9536 79.7898 63.2375 79.1468C64.5522 78.434 65.7328 77.497 66.726 76.3779L67.9331 77.7079C66.8206 78.9873 65.4877 80.0561 63.998 80.8636C62.4316 81.6537 60.6933 82.0402 58.9402 81.9881Z" fill="#738E97"/>
<path d="M83.1562 81.4439V51.2773H85.2566V79.6182H99.1503V81.4439H83.1562Z" fill="#738E97"/>
<path d="M122.637 81.9881C121.367 81.9912 120.103 81.7912 118.895 81.3956C117.679 81.0033 116.568 80.3375 115.648 79.449C114.614 78.4121 113.841 77.144 113.391 75.7492C112.776 73.8492 112.49 71.8576 112.546 69.8609V51.2773H114.622V69.6313C114.524 71.7874 114.903 73.9386 115.733 75.9306C116.345 77.2922 117.383 78.4171 118.69 79.1347C119.904 79.7575 121.25 80.0768 122.613 80.0655C124.024 80.0822 125.418 79.7632 126.681 79.1347C128.012 78.4282 129.072 77.302 129.699 75.9306C130.554 73.9454 130.946 71.7911 130.846 69.6313V51.2773H132.813V69.8609C132.866 71.8584 132.576 73.85 131.956 75.7492C131.508 77.1501 130.725 78.4203 129.675 79.449C128.744 80.3359 127.626 81.0012 126.404 81.3956C125.187 81.7917 123.916 81.9917 122.637 81.9881Z" fill="#738E97"/>
<path d="M150.75 81.444V51.2774H158.874C160.667 51.2431 162.453 51.5045 164.161 52.0512C165.523 52.5014 166.724 53.3422 167.613 54.4694C168.463 55.6795 168.888 57.1383 168.82 58.6165C168.848 60.0821 168.427 61.5211 167.613 62.7395C166.781 63.9211 165.565 64.7761 164.173 65.1576V65.339C165.951 65.56 167.606 66.3634 168.881 67.6242C169.492 68.2973 169.964 69.0854 170.268 69.9426C170.573 70.7999 170.704 71.7092 170.655 72.6177C170.713 74.3362 170.227 76.029 169.267 77.4541C168.291 78.8032 166.939 79.8336 165.38 80.4163C163.487 81.1088 161.481 81.441 159.465 81.3957L150.75 81.444ZM152.85 64.5168H158.077C161.151 64.5168 163.368 64.0051 164.728 62.9814C165.383 62.504 165.912 61.873 166.268 61.1437C166.623 60.4144 166.795 59.609 166.768 58.7979C166.854 57.9214 166.699 57.0382 166.32 56.2435C165.942 55.4487 165.354 54.7726 164.62 54.288C162.668 53.3005 160.489 52.85 158.306 52.9822H152.875L152.85 64.5168ZM152.85 79.6666H158.886C161.369 79.799 163.838 79.2113 165.996 77.9739C166.854 77.3944 167.544 76.5988 167.998 75.667C168.451 74.7352 168.652 73.7001 168.579 72.666C168.639 71.7047 168.434 70.7453 167.987 69.8924C167.54 69.0396 166.868 68.326 166.044 67.8297C163.843 66.6698 161.369 66.1308 158.886 66.2701H152.85V79.6666Z" fill="#738E97"/>
</g>
<defs>
<clipPath id="clip0_1_28194">
<rect width="217" height="82" fill="white"/>
</clipPath>
</defs>
</svg>
