<svg width="219" height="82" viewBox="0 0 219 82" fill="none" xmlns="http://www.w3.org/2000/svg">
<g clip-path="url(#clip0_310_190)">
<path d="M-0.046875 37.2762V0.0363642H10.6613C13.1622 -0.00898184 15.6543 0.342017 18.0437 1.07616C19.9879 1.69729 21.6903 2.90111 22.9166 4.52201C24.195 6.43678 24.8186 8.70898 24.6952 11.0027C24.788 13.2766 24.1803 15.5247 22.9532 17.4472C21.7473 19.1701 20.0505 20.4963 18.0803 21.2558C15.754 22.1613 13.269 22.5969 10.771 22.5374H4.59455V37.3123L-0.046875 37.2762ZM4.70419 18.6321H10.308C13.5566 18.6321 15.9931 18.0154 17.6174 16.7821C18.4615 16.076 19.1231 15.1795 19.5469 14.1678C19.9708 13.1561 20.1446 12.0585 20.0538 10.9665C20.0538 8.26624 19.2214 6.40021 17.5564 5.36846C15.2779 4.18545 12.7159 3.64589 10.1496 3.8087H4.7651L4.70419 18.6321Z" fill="white"/>
<path d="M43.8086 37.276V0.0362379H55.5401C57.8532 -0.0026346 60.1573 0.332156 62.3621 1.02762C64.2264 1.61106 65.8587 2.76167 67.0279 4.31644C68.2325 6.14315 68.8212 8.30241 68.7091 10.4827C68.7972 12.6718 68.2107 14.8356 67.0279 16.6853C65.8604 18.3183 64.2392 19.5787 62.3621 20.3126C60.1896 21.1544 57.8719 21.5652 55.5401 21.5217H48.5597V37.2397L43.8086 37.276ZM48.5597 17.6646H54.8579C57.248 17.8171 59.6227 17.1886 61.619 15.8752C62.4189 15.2227 63.0489 14.389 63.456 13.4442C63.8631 12.4994 64.0353 11.4711 63.958 10.4464C64.0548 9.46171 63.8898 8.46897 63.4793 7.56732C63.0689 6.66568 62.4275 5.88663 61.619 5.30782C59.5522 4.18701 57.2088 3.66738 54.8579 3.80857H48.5597V17.6646ZM64.3966 37.276L54.6508 20.2279L58.3786 17.7251L69.8298 37.276H64.3966Z" fill="white"/>
<path d="M87.8828 37.2762V0.036377H92.6339V37.3124L87.8828 37.2762Z" fill="white"/>
<path d="M121.262 37.2762L109.238 0.036377H114.343L120.348 20.1434C121.031 22.3802 121.64 24.4599 122.151 26.3702C122.663 28.2806 123.284 30.3239 124.015 32.4157H124.21C124.892 30.2635 125.489 28.2201 126.013 26.3702C126.537 24.5203 127.122 22.3802 127.816 20.1434L133.822 0.036377H138.695L126.781 37.3124L121.262 37.2762Z" fill="white"/>
<path d="M149.793 37.2762L162.487 0.036377H167.871L180.577 37.3124H175.485L168.956 16.4557C168.273 14.4083 167.628 12.3448 167.019 10.2652C166.397 8.17346 165.8 6.05754 165.179 3.89328H164.948C164.379 6.09381 163.79 8.22587 163.181 10.2894C162.572 12.3529 161.922 14.4083 161.232 16.4557L154.666 37.2762H149.793ZM156.432 25.9108V22.1021H173.78V25.9108H156.432Z" fill="white"/>
<path d="M202.861 37.2762V3.978H191.52V0.036377H219.003V4.01431H207.661V37.3124L202.861 37.2762Z" fill="white"/>
<path d="M59.4862 81.9881C57.1235 82.0349 54.8028 81.364 52.8348 80.0656C50.865 78.6984 49.3171 76.8147 48.3639 74.6247C47.235 71.9936 46.6866 69.1532 46.7558 66.2942C46.7265 64.1163 47.0347 61.9468 47.6695 59.8618C48.2237 58.0656 49.1258 56.3941 50.3252 54.9409C51.4346 53.5994 52.839 52.528 54.4306 51.8093C56.0928 51.072 57.8973 50.7048 59.7177 50.7334C61.3447 50.6972 62.9543 51.0715 64.3957 51.8214C65.6195 52.47 66.7201 53.3252 67.6484 54.3485L66.4301 55.763C65.6067 54.8295 64.6099 54.0618 63.4942 53.5021C62.3602 52.9382 61.1079 52.6483 59.8395 52.6558C57.7988 52.6072 55.7934 53.1904 54.1017 54.3243C52.4293 55.5118 51.1321 57.1474 50.3618 59.0397C49.4331 61.3446 48.9855 63.8126 49.0461 66.2942C49.0004 68.7725 49.4389 71.236 50.3374 73.5487C51.065 75.4743 52.3332 77.1527 53.9921 78.3851C55.6439 79.5377 57.6261 80.1311 59.6446 80.0777C61.093 80.1093 62.5273 79.7898 63.8231 79.1468C65.15 78.434 66.3414 77.497 67.3438 76.3779L68.562 77.7079C67.4392 78.9873 66.0941 80.0561 64.5906 80.8636C63.0098 81.6537 61.2554 82.0402 59.4862 81.9881Z" fill="white"/>
<path d="M83.9219 81.4439V51.2773H86.0416V79.6182H100.063V81.4439H83.9219Z" fill="white"/>
<path d="M123.769 81.9881C122.487 81.9912 121.212 81.7912 119.993 81.3956C118.765 81.0033 117.644 80.3375 116.716 79.449C115.672 78.4121 114.892 77.144 114.438 75.7492C113.817 73.8492 113.528 71.8576 113.585 69.8609V51.2773H115.68V69.6313C115.581 71.7874 115.964 73.9386 116.801 75.9306C117.419 77.2922 118.466 78.4171 119.786 79.1347C121.011 79.7575 122.369 80.0768 123.745 80.0655C125.169 80.0822 126.576 79.7632 127.851 79.1347C129.193 78.4282 130.264 77.302 130.896 75.9306C131.759 73.9454 132.155 71.7911 132.053 69.6313V51.2773H134.039V69.8609C134.092 71.8584 133.8 73.85 133.174 75.7492C132.722 77.1501 131.931 78.4203 130.872 79.449C129.933 80.3359 128.804 81.0012 127.57 81.3956C126.343 81.7917 125.06 81.9917 123.769 81.9881Z" fill="white"/>
<path d="M152.145 81.4437V51.2772H160.343C162.153 51.2428 163.955 51.5043 165.679 52.051C167.054 52.5012 168.265 53.342 169.163 54.4692C170.021 55.6793 170.45 57.138 170.381 58.6162C170.409 60.0818 169.984 61.5208 169.163 62.7392C168.324 63.9209 167.096 64.7758 165.691 65.1574V65.3388C167.485 65.5597 169.156 66.3632 170.442 67.624C171.059 68.2971 171.535 69.0851 171.843 69.9424C172.15 70.7996 172.283 71.7089 172.233 72.6175C172.292 74.3359 171.801 76.0288 170.832 77.4538C169.847 78.803 168.482 79.8334 166.909 80.416C164.998 81.1085 162.974 81.4407 160.94 81.3955L152.145 81.4437ZM154.264 64.5166H159.539C162.642 64.5166 164.879 64.0048 166.252 62.9811C166.913 62.5037 167.446 61.8727 167.805 61.1435C168.164 60.4142 168.338 59.6088 168.31 58.7976C168.397 57.9212 168.241 57.038 167.858 56.2432C167.476 55.4485 166.883 54.7723 166.142 54.2878C164.172 53.3003 161.973 52.8497 159.771 52.982H154.289L154.264 64.5166ZM154.264 79.6664H160.355C162.861 79.7988 165.353 79.211 167.531 77.9737C168.397 77.3942 169.094 76.5986 169.551 75.6668C170.009 74.735 170.211 73.6998 170.138 72.6658C170.198 71.7044 169.992 70.745 169.541 69.8922C169.09 69.0393 168.411 68.3258 167.579 67.8294C165.358 66.6695 162.861 66.1305 160.355 66.2698H154.264V79.6664Z" fill="white"/>
</g>
<defs>
<clipPath id="clip0_310_190">
<rect width="219" height="82" fill="white"/>
</clipPath>
</defs>
</svg>
