<svg width="68" height="64" viewBox="0 0 68 64" fill="none" xmlns="http://www.w3.org/2000/svg">
<g clip-path="url(#clip0_314_636)">
<path d="M64.5543 0.0678711L38.0723 20.032L42.9704 8.25307L64.5543 0.0678711Z" fill="#E2761B" stroke="#E2761B" stroke-linecap="round" stroke-linejoin="round"/>
<path d="M3.41992 0.0678711L29.689 20.221L25.0305 8.25307L3.41992 0.0678711Z" fill="#E4761B" stroke="#E4761B" stroke-linecap="round" stroke-linejoin="round"/>
<path d="M55.0253 46.3452L47.9727 57.3141L63.0635 61.5277L67.402 46.5885L55.0253 46.3452Z" fill="#E4761B" stroke="#E4761B" stroke-linecap="round" stroke-linejoin="round"/>
<path d="M0.625 46.5885L4.93668 61.5277L20.0276 57.3141L12.9749 46.3452L0.625 46.5885Z" fill="#E4761B" stroke="#E4761B" stroke-linecap="round" stroke-linejoin="round"/>
<path d="M19.1766 27.8122L14.9707 34.2699L29.9545 34.9454L29.4229 18.6008L19.1766 27.8122Z" fill="#E4761B" stroke="#E4761B" stroke-linecap="round" stroke-linejoin="round"/>
<path d="M48.7979 27.8122L38.4191 18.4119L38.0723 34.9454L53.0306 34.2698L48.7979 27.8122Z" fill="#E4761B" stroke="#E4761B" stroke-linecap="round" stroke-linejoin="round"/>
<path d="M20.0273 57.314L29.023 52.8558L21.2512 46.6958L20.0273 57.314Z" fill="#E4761B" stroke="#E4761B" stroke-linecap="round" stroke-linejoin="round"/>
<path d="M38.9492 52.8558L47.9716 57.314L46.721 46.6958L38.9492 52.8558Z" fill="#E4761B" stroke="#E4761B" stroke-linecap="round" stroke-linejoin="round"/>
<path d="M47.9716 57.3141L38.9492 52.8558L39.6683 58.8269L39.5879 61.3387L47.9716 57.3141Z" fill="#D7C1B3" stroke="#D7C1B3" stroke-linecap="round" stroke-linejoin="round"/>
<path d="M20.0273 57.3141L28.411 61.3387L28.3575 58.8269L29.023 52.8558L20.0273 57.3141Z" fill="#D7C1B3" stroke="#D7C1B3" stroke-linecap="round" stroke-linejoin="round"/>
<path d="M28.5443 42.7528L21.0391 40.5101L26.3349 38.0513L28.5443 42.7528Z" fill="#233447" stroke="#233447" stroke-linecap="round" stroke-linejoin="round"/>
<path d="M39.4297 42.7528L41.6391 38.0513L46.9617 40.5101L39.4297 42.7528Z" fill="#233447" stroke="#233447" stroke-linecap="round" stroke-linejoin="round"/>
<path d="M20.0273 57.3141L21.3047 46.3452L12.9746 46.5885L20.0273 57.3141Z" fill="#CD6116" stroke="#CD6116" stroke-linecap="round" stroke-linejoin="round"/>
<path d="M46.6953 46.3452L47.9727 57.3141L55.0254 46.5885L46.6953 46.3452Z" fill="#CD6116" stroke="#CD6116" stroke-linecap="round" stroke-linejoin="round"/>
<path d="M53.0306 34.2699L38.0723 34.9454L39.4568 42.7528L41.6662 38.0512L46.9889 40.5101L53.0306 34.2699Z" fill="#CD6116" stroke="#CD6116" stroke-linecap="round" stroke-linejoin="round"/>
<path d="M21.0392 40.5101L26.3618 38.0512L28.5445 42.7528L29.9545 34.9454L14.9707 34.2699L21.0392 40.5101Z" fill="#CD6116" stroke="#CD6116" stroke-linecap="round" stroke-linejoin="round"/>
<path d="M14.9707 34.2699L21.2521 46.6958L21.0392 40.5101L14.9707 34.2699Z" fill="#E4751F" stroke="#E4751F" stroke-linecap="round" stroke-linejoin="round"/>
<path d="M46.9872 40.5101L46.7207 46.6958L53.0289 34.2699L46.9872 40.5101Z" fill="#E4751F" stroke="#E4751F" stroke-linecap="round" stroke-linejoin="round"/>
<path d="M29.9549 34.9454L28.5449 42.7528L30.3017 51.9642L30.7008 39.8345L29.9549 34.9454Z" fill="#E4751F" stroke="#E4751F" stroke-linecap="round" stroke-linejoin="round"/>
<path d="M38.0712 34.9454L37.3535 39.8073L37.6722 51.9642L39.4558 42.7528L38.0712 34.9454Z" fill="#E4751F" stroke="#E4751F" stroke-linecap="round" stroke-linejoin="round"/>
<path d="M39.4555 42.7527L37.6719 51.9641L38.9493 52.8558L46.721 46.6958L46.9875 40.51L39.4555 42.7527Z" fill="#F6851B" stroke="#F6851B" stroke-linecap="round" stroke-linejoin="round"/>
<path d="M21.0391 40.51L21.252 46.6958L29.0237 52.8558L30.3011 51.9641L28.5443 42.7527L21.0391 40.51Z" fill="#F6851B" stroke="#F6851B" stroke-linecap="round" stroke-linejoin="round"/>
<path d="M39.5879 61.3386L39.6682 58.8268L39.0027 58.2314H28.9694L28.3575 58.8268L28.411 61.3386L20.0273 57.314L22.9545 59.7442L28.889 63.932H39.0831L45.0445 59.7442L47.9716 57.314L39.5879 61.3386Z" fill="#C0AD9E" stroke="#C0AD9E" stroke-linecap="round" stroke-linejoin="round"/>
<path d="M38.9492 52.8558L37.6717 51.9641H30.3004L29.0229 52.8558L28.3574 58.8268L28.9694 58.2315H39.0027L39.6682 58.8268L38.9492 52.8558Z" fill="#161616" stroke="#161616" stroke-linecap="round" stroke-linejoin="round"/>
<path d="M65.6709 21.3287L67.9325 10.3068L64.5528 0.0678711L38.9492 19.3565L48.7965 27.8122L62.7157 31.9455L65.8035 28.2988L64.4725 27.3269L66.6015 25.3547L64.9519 24.058L67.0809 22.4093L65.6709 21.3287Z" fill="#763D16" stroke="#763D16" stroke-linecap="round" stroke-linejoin="round"/>
<path d="M0.0664062 10.3068L2.32803 21.3287L0.891249 22.4093L3.02031 24.058L1.3974 25.3547L3.52646 27.3269L2.19547 28.2988L5.25649 31.9455L19.1757 27.8122L29.0229 19.3565L3.41934 0.0678711L0.0664062 10.3068Z" fill="#763D16" stroke="#763D16" stroke-linecap="round" stroke-linejoin="round"/>
<path d="M62.7154 31.9456L48.7962 27.8123L53.0289 34.2699L46.7207 46.6958L55.024 46.5885H67.4007L62.7154 31.9456Z" fill="#F6851B" stroke="#F6851B" stroke-linecap="round" stroke-linejoin="round"/>
<path d="M19.1759 27.8123L5.25671 31.9456L0.625 46.5885H12.9749L21.2514 46.6958L14.97 34.2699L19.1759 27.8123Z" fill="#F6851B" stroke="#F6851B" stroke-linecap="round" stroke-linejoin="round"/>
<path d="M38.0721 34.9454L38.9505 19.3566L42.997 8.25317H25.0312L29.0242 19.3566L29.9549 34.9454L30.2749 39.8617L30.3017 51.9642H37.673L37.7266 39.8617L38.0721 34.9454Z" fill="#F6851B" stroke="#F6851B" stroke-linecap="round" stroke-linejoin="round"/>
</g>
<defs>
<clipPath id="clip0_314_636">
<rect width="68" height="64" fill="white"/>
</clipPath>
</defs>
</svg>
