<svg width="151" height="56" viewBox="0 0 151 56" fill="none" xmlns="http://www.w3.org/2000/svg">
<g clip-path="url(#clip0_628_5638)">
<path d="M-0.03125 25.4572V0.0251199H7.35201C9.07636 -0.00584812 10.7947 0.233859 12.4422 0.735223C13.7827 1.15941 14.9564 1.98153 15.802 3.08849C16.6835 4.39614 17.1134 5.94788 17.0284 7.51431C17.0923 9.06724 16.6733 10.6025 15.8272 11.9154C14.9958 13.092 13.8259 13.9978 12.4674 14.5165C10.8634 15.1348 9.15004 15.4323 7.42762 15.3917H3.169V25.4819L-0.03125 25.4572ZM3.2446 12.7246H7.10843C9.34833 12.7246 11.0283 12.3035 12.1482 11.4613C12.7302 10.979 13.1864 10.3668 13.4786 9.67587C13.7709 8.98493 13.8907 8.23536 13.8281 7.48962C13.8281 5.64552 13.2542 4.37116 12.1062 3.66655C10.5352 2.85864 8.76864 2.49016 6.99923 2.60135H3.2866L3.2446 12.7246Z" fill="black"/>
<path d="M30.2051 25.4568V0.0247776H38.2939C39.8888 -0.00176946 41.4775 0.226868 42.9977 0.70182C44.2831 1.10027 45.4086 1.88605 46.2148 2.94784C47.0453 4.19535 47.4512 5.66997 47.3739 7.15897C47.4347 8.65396 47.0303 10.1316 46.2148 11.3949C45.4098 12.5101 44.2919 13.3708 42.9977 13.872C41.4998 14.447 39.9017 14.7275 38.2939 14.6978H33.4809V25.432L30.2051 25.4568ZM33.4809 12.0637H37.8235C39.4715 12.1678 41.1089 11.7386 42.4853 10.8416C43.0368 10.396 43.4712 9.82667 43.7519 9.18143C44.0326 8.53618 44.1513 7.83398 44.098 7.13417C44.1648 6.46168 44.051 5.78372 43.768 5.16796C43.485 4.5522 43.0428 4.02017 42.4853 3.62488C41.0602 2.85945 39.4445 2.50458 37.8235 2.601H33.4809V12.0637ZM44.4004 25.4568L37.6807 13.8142L40.251 12.105L48.1467 25.4568H44.4004Z" fill="black"/>
<path d="M60.5957 25.4565V0.0244141H63.8716V25.4812L60.5957 25.4565Z" fill="black"/>
<path d="M83.6107 25.4565L75.3203 0.0244141H78.8397L82.9807 13.7561C83.4511 15.2836 83.8711 16.7039 84.2239 18.0085C84.5767 19.3131 85.0051 20.7086 85.509 22.1371H85.6434C86.1138 20.6673 86.5254 19.2719 86.8866 18.0085C87.2478 16.7452 87.6509 15.2836 88.1297 13.7561L92.2708 0.0244141H95.6306L87.4157 25.4812L83.6107 25.4565Z" fill="black"/>
<path d="M103.281 25.4565L112.034 0.0244141H115.746L124.507 25.4812H120.996L116.494 11.2376C116.023 9.83938 115.578 8.43016 115.158 7.00993C114.73 5.58144 114.318 4.13643 113.89 2.6584H113.73C113.338 4.1612 112.932 5.61724 112.512 7.02646C112.092 8.43568 111.644 9.83938 111.169 11.2376L106.641 25.4565H103.281ZM107.859 17.6947V15.0937H119.82V17.6947H107.859Z" fill="black"/>
<path d="M139.873 25.4565V2.71625H132.053V0.0244141H151.002V2.74105H143.182V25.4812L139.873 25.4565Z" fill="black"/>
<path d="M41.016 55.9919C39.3869 56.0238 37.7868 55.5656 36.4298 54.6789C35.0717 53.7453 34.0044 52.4588 33.3471 50.9632C32.5687 49.1663 32.1907 47.2265 32.2384 45.2741C32.2182 43.7867 32.4307 42.3051 32.8684 40.8812C33.2505 39.6546 33.8725 38.5131 34.6995 37.5206C35.4644 36.6044 36.4327 35.8728 37.5302 35.3819C38.6762 34.8784 39.9204 34.6277 41.1756 34.6471C42.2974 34.6224 43.4072 34.8781 44.401 35.3902C45.2448 35.8331 46.0037 36.4172 46.6437 37.116L45.8038 38.082C45.236 37.4445 44.5487 36.9203 43.7795 36.538C42.9975 36.1529 42.1341 35.9549 41.2596 35.96C39.8525 35.9268 38.4698 36.3251 37.3034 37.0995C36.1502 37.9105 35.2558 39.0275 34.7247 40.3198C34.0844 41.8939 33.7758 43.5793 33.8175 45.2741C33.786 46.9666 34.0884 48.649 34.7079 50.2284C35.2095 51.5434 36.084 52.6896 37.2278 53.5312C38.3667 54.3184 39.7334 54.7237 41.1252 54.6872C42.1239 54.7088 43.1128 54.4906 44.0063 54.0514C44.9211 53.5647 45.7426 52.9248 46.4338 52.1605L47.2737 53.0688C46.4996 53.9425 45.5721 54.6725 44.5354 55.2239C43.4455 55.7635 42.2358 56.0274 41.016 55.9919V55.9919Z" fill="black"/>
<path d="M57.8633 55.6202V35.0187H59.3248V54.3734H68.9928V55.6202H57.8633Z" fill="black"/>
<path d="M85.3394 55.9919C84.4551 55.994 83.5761 55.8574 82.7355 55.5873C81.8891 55.3194 81.1162 54.8646 80.476 54.2579C79.7565 53.5497 79.2181 52.6837 78.9053 51.7311C78.4771 50.4336 78.2782 49.0735 78.3173 47.7099V35.0187H79.7621V47.5531C79.6937 49.0256 79.9576 50.4946 80.5348 51.855C80.9606 52.7849 81.683 53.5531 82.5927 54.0432C83.4372 54.4685 84.3738 54.6866 85.3226 54.6789C86.3041 54.6903 87.2742 54.4724 88.1533 54.0432C89.079 53.5607 89.8171 52.7916 90.2532 51.855C90.8484 50.4993 91.1214 49.0281 91.0512 47.5531V35.0187H92.4203V47.7099C92.4571 49.074 92.2553 50.4342 91.8239 51.7311C91.512 52.6879 90.967 53.5553 90.2364 54.2579C89.5889 54.8635 88.8109 55.3179 87.9601 55.5873C87.1139 55.8577 86.2293 55.9943 85.3394 55.9919Z" fill="black"/>
<path d="M104.902 55.6201V35.0185H110.555C111.803 34.9951 113.046 35.1736 114.234 35.547C115.182 35.8544 116.018 36.4286 116.637 37.1984C117.228 38.0248 117.524 39.0211 117.477 40.0306C117.496 41.0315 117.203 42.0142 116.637 42.8463C116.058 43.6533 115.212 44.2371 114.243 44.4977V44.6216C115.48 44.7725 116.632 45.3212 117.519 46.1822C117.944 46.6419 118.272 47.1801 118.484 47.7655C118.696 48.3509 118.788 48.9719 118.753 49.5924C118.794 50.766 118.456 51.9221 117.787 52.8953C117.108 53.8166 116.167 54.5203 115.083 54.9182C113.765 55.3912 112.369 55.618 110.967 55.5871L104.902 55.6201ZM106.364 44.0601H110.001C112.14 44.0601 113.683 43.7106 114.629 43.0115C115.085 42.6854 115.453 42.2545 115.7 41.7565C115.948 41.2585 116.067 40.7084 116.049 40.1544C116.108 39.5559 116.001 38.9527 115.737 38.41C115.474 37.8672 115.064 37.4055 114.554 37.0745C113.195 36.4002 111.679 36.0925 110.161 36.1828H106.381L106.364 44.0601ZM106.364 54.4063H110.564C112.292 54.4967 114.009 54.0953 115.511 53.2503C116.108 52.8545 116.589 52.3112 116.904 51.6748C117.22 51.0385 117.359 50.3316 117.309 49.6254C117.35 48.9688 117.208 48.3137 116.897 47.7312C116.586 47.1488 116.118 46.6615 115.545 46.3225C114.013 45.5304 112.292 45.1623 110.564 45.2574H106.364V54.4063Z" fill="black"/>
</g>
<defs>
<clipPath id="clip0_628_5638">
<rect width="151" height="56" fill="white"/>
</clipPath>
</defs>
</svg>
