<svg width="6" height="10" viewBox="0 0 6 10" fill="none" xmlns="http://www.w3.org/2000/svg">
<path fill-rule="evenodd" clip-rule="evenodd" d="M0.292787 9.70685C0.105316 9.51908 0 9.26446 0 8.99896C0 8.73347 0.105316 8.47884 0.292787 8.29108L3.58579 4.99396L0.292787 1.69683C0.110629 1.50799 0.00983372 1.25508 0.0121121 0.992552C0.0143906 0.730027 0.11956 0.4789 0.304968 0.29326C0.490376 0.10762 0.741189 0.00231912 1.00339 3.78498e-05C1.26558 -0.00224342 1.51818 0.0986775 1.70679 0.281064L5.70679 4.28607C5.89426 4.47383 5.99957 4.72846 5.99957 4.99396C5.99957 5.25945 5.89426 5.51408 5.70679 5.70184L1.70679 9.70685C1.51926 9.89455 1.26495 10 0.999786 10C0.734622 10 0.480314 9.89455 0.292787 9.70685Z" fill="#54657E"/>
</svg>
