<svg width="6" height="10" viewBox="0 0 6 10" fill="none" xmlns="http://www.w3.org/2000/svg">
<path fill-rule="evenodd" clip-rule="evenodd" d="M5.70721 0.293154C5.89468 0.480916 6 0.735542 6 1.00104C6 1.26653 5.89468 1.52116 5.70721 1.70892L2.41421 5.00605L5.70721 8.30317C5.88937 8.49201 5.99017 8.74492 5.98789 9.00745C5.98561 9.26997 5.88044 9.5211 5.69503 9.70674C5.50962 9.89238 5.25881 9.99768 4.99661 9.99996C4.73442 10.0022 4.48182 9.90132 4.29321 9.71894L0.293213 5.71393C0.105743 5.52617 0.000426833 5.27154 0.00042681 5.00605C0.000426786 4.74055 0.105742 4.48592 0.293213 4.29816L4.29321 0.293154C4.48074 0.105448 4.73505 1.10585e-07 5.00021 8.74041e-08C5.26538 6.42227e-08 5.51968 0.105448 5.70721 0.293154Z" fill="#54657E"/>
</svg>
