<svg width="16" height="16" viewBox="0 0 16 16" fill="none" xmlns="http://www.w3.org/2000/svg">
<path d="M5.77645 0.0289946C3.72043 0.26056 1.9617 1.38084 0.910222 3.12384C0.478364 3.84044 0.212364 4.57269 0.0558941 5.45515C-0.0254705 5.92767 -0.0160823 7.01978 0.0715411 7.50482C0.44707 9.56075 1.66128 11.2193 3.47321 12.158C4.44332 12.6587 5.32269 12.8715 6.4305 12.8684C7.77927 12.8684 8.88708 12.5336 10.0137 11.7888L10.3861 11.5416L12.5641 13.7102C14.0318 15.1747 14.7798 15.9006 14.8643 15.9413C15.0332 16.0196 15.3869 16.0196 15.5371 15.9413C15.9126 15.7442 16.0847 15.3374 15.9595 14.9493C15.9063 14.7898 15.7906 14.6646 13.7158 12.5868L11.5283 10.3931L11.7693 10.0364C12.9303 8.32156 13.1869 6.17488 12.464 4.18779C12.2293 3.53691 11.7787 2.77962 11.2905 2.21322C10.4768 1.27444 9.3252 0.545324 8.14541 0.229268C7.42565 0.0352535 6.44928 -0.0492363 5.77645 0.0289946ZM6.89365 1.62492C8.08283 1.75322 9.01226 2.19445 9.84468 3.02683C10.6928 3.87487 11.1434 4.83868 11.256 6.04032C11.3562 7.11366 11.0683 8.2089 10.433 9.16333C10.1701 9.56075 9.55052 10.1803 9.15308 10.4432C7.55083 11.5103 5.57617 11.5666 3.94575 10.5903C2.76909 9.88932 1.9398 8.70646 1.66754 7.33897C1.5674 6.83828 1.5674 6.04345 1.66754 5.54277C1.94919 4.13147 2.81603 2.92983 4.0678 2.21948C4.90335 1.74383 5.95796 1.52166 6.89365 1.62492Z" fill="#727A89"/>
</svg>
