<svg width="26" height="25" viewBox="0 0 26 25" fill="none" xmlns="http://www.w3.org/2000/svg">
<path d="M22.0372 14.6172C21.9344 14.708 21.8723 14.8364 21.8657 14.9734C21.805 16.2391 21.7009 17.5033 21.5535 18.7637C21.3609 20.4108 20.029 21.7228 18.3664 21.9086C14.1716 22.3775 9.8321 22.3775 5.63729 21.9086C3.97465 21.7228 2.6428 20.4108 2.45015 18.7637C1.94891 14.4781 1.94891 10.1486 2.45015 5.86292C2.6428 4.21582 3.97466 2.9038 5.63729 2.71798C8.40294 2.40888 11.2349 2.30371 14.0436 2.4022C14.2465 2.40931 14.4191 2.25498 14.4333 2.05252L14.4947 1.17375C14.4985 1.12201 14.5035 1.07083 14.5099 1.02022C14.5404 0.777227 14.3719 0.537629 14.1272 0.528959C11.2202 0.425978 8.29275 0.534519 5.42903 0.854582C2.91396 1.13568 0.883539 3.11694 0.587848 5.6451C0.0696756 10.0755 0.0696757 14.5511 0.587848 18.9815C0.883539 21.5097 2.91396 23.4909 5.42903 23.772C9.76225 24.2563 14.2414 24.2563 18.5746 23.772C21.0897 23.4909 23.1201 21.5097 23.4158 18.9815C23.627 17.1755 23.7522 15.362 23.7912 13.547C23.7961 13.3192 23.5166 13.2057 23.3567 13.368C22.9315 13.7996 22.4914 14.2163 22.0372 14.6172Z" fill="#868F9D"/>
<path d="M6.83584 16.4381C6.5593 16.3619 6.37012 16.1072 6.37702 15.8205L6.45106 12.7407C6.55709 8.3307 10.1625 4.81094 14.5737 4.81094L16.1455 4.81094C16.1783 4.03128 16.2232 3.25199 16.2799 2.47336L16.3647 1.31007C16.4165 0.600133 17.2081 0.203276 17.8079 0.586546C20.3966 2.24066 22.647 4.37203 24.4393 6.86704L25.0094 7.66071C25.166 7.87861 25.166 8.17209 25.0094 8.38999L24.4393 9.18366C22.647 11.6787 20.3966 13.81 17.8079 15.4642C17.3139 15.7798 16.6881 15.5663 16.4543 15.0847C16.4053 14.9824 16.3737 14.8644 16.3647 14.7406L16.2799 13.5773C16.2122 12.6487 16.1615 11.7192 16.1279 10.7892L15.6852 10.7226C12.8649 10.2981 10.0754 11.6591 8.67408 14.1432L7.5462 16.1426C7.49248 16.2378 7.41624 16.3147 7.32769 16.3689C7.184 16.4566 7.00679 16.4851 6.83584 16.4381Z" fill="#868F9D"/>
</svg>
