<svg width="18" height="14" viewBox="0 0 18 14" fill="none" xmlns="http://www.w3.org/2000/svg">
<path d="M8.71523 0.793404C6.74648 0.849949 4.78125 1.54263 3.21328 2.72654C1.87031 3.74082 0.766406 5.14738 0.123047 6.65996L0 6.95328L0.123047 7.24308C1.35352 10.141 3.9832 12.2862 7.09453 12.9294C8.23711 13.1662 9.75586 13.1626 10.916 12.9259C14.0098 12.2897 16.6394 10.141 17.8699 7.24308L17.993 6.95328L17.8699 6.65996C17.2301 5.15091 16.1648 3.78676 14.8289 2.76188C13.0887 1.43307 10.9125 0.72979 8.71523 0.793404ZM9.70312 2.91031C10.568 3.07288 11.2781 3.44749 11.8793 4.05535C12.6598 4.83638 13.0746 5.84359 13.0746 6.95328C13.0746 8.06298 12.6598 9.07019 11.8793 9.85122C11.1023 10.6358 10.1004 11.0528 8.99648 11.0528C7.89258 11.0528 6.89062 10.6358 6.11367 9.85122C5.3332 9.07019 4.91836 8.06298 4.91836 6.95328C4.91836 5.84359 5.3332 4.83638 6.11367 4.05535C6.88711 3.27432 7.86797 2.86083 8.96484 2.8573C9.23554 2.85377 9.52734 2.87497 9.70312 2.91031Z" fill="#36B8BC"/>
<path d="M8.55703 4.52887C8.01914 4.63842 7.64649 4.83987 7.25625 5.23568C6.77813 5.71985 6.55664 6.2641 6.55664 6.95324C6.55664 7.65299 6.77813 8.19016 7.27383 8.68493C7.76602 9.18324 8.30039 9.40588 8.99649 9.40588C9.69258 9.40588 10.227 9.18324 10.7191 8.68493C11.2149 8.19016 11.4363 7.65299 11.4363 6.95324C11.4363 6.25349 11.2149 5.71632 10.7191 5.22155C10.2586 4.75505 9.75938 4.5324 9.10196 4.49706C8.92266 4.48646 8.70469 4.5006 8.55703 4.52887Z" fill="#36B8BC"/>
</svg>
