<svg width="16" height="16" viewBox="0 0 16 16" fill="none" xmlns="http://www.w3.org/2000/svg">
<path d="M8.65259 1.24761C8.36355 0.749496 7.64423 0.749494 7.35519 1.24761L5.31965 4.75559C5.17687 5.00165 4.93008 5.16957 4.64879 5.21206L0.83405 5.78823C0.193338 5.885 -0.0314064 6.69396 0.467573 7.10736L3.30939 9.46177C3.57245 9.67971 3.69614 10.0235 3.63224 10.3591L2.88886 14.2629C2.77135 14.88 3.41919 15.3595 3.97505 15.0668L7.56711 13.1755C7.8405 13.0315 8.16728 13.0315 8.44067 13.1755L12.0327 15.0668C12.5886 15.3595 13.2364 14.88 13.1189 14.2629L12.3755 10.3591C12.3116 10.0235 12.4353 9.67971 12.6984 9.46177L15.5402 7.10736C16.0392 6.69396 15.8144 5.885 15.1737 5.78823L11.359 5.21206C11.0777 5.16957 10.8309 5.00165 10.6881 4.75559L8.65259 1.24761Z" fill="#868F9D"/>
</svg>
