<svg width="68" height="68" viewBox="0 0 68 68" fill="none" xmlns="http://www.w3.org/2000/svg">
<path fill-rule="evenodd" clip-rule="evenodd" d="M34 0C52.7777 0 68 15.2223 68 34C68 52.7777 52.7777 68 34 68C15.2223 68 0 52.7777 0 34C0 15.2223 15.2223 0 34 0Z" fill="url(#paint0_radial_314_624)"/>
<path d="M21.6075 26.2582C28.4517 19.5806 39.5483 19.5806 46.3925 26.2582L47.2163 27.0619C47.5585 27.3957 47.5585 27.9371 47.2163 28.271L44.3985 31.0201C44.2274 31.1871 43.95 31.1871 43.7789 31.0201L42.6454 29.9142C37.8707 25.2557 30.1294 25.2557 25.3547 29.9142L24.1408 31.0985C23.9697 31.2655 23.6923 31.2655 23.5212 31.0985L20.7034 28.3494C20.3612 28.0155 20.3612 27.4742 20.7034 27.1403L21.6075 26.2582ZM52.2199 31.9438L54.7277 34.3905C55.0699 34.7244 55.0699 35.2657 54.7277 35.5996L43.4199 46.6324C43.0777 46.9663 42.5228 46.9663 42.1806 46.6324C42.1806 46.6324 42.1806 46.6324 42.1806 46.6324L34.155 38.8021C34.0694 38.7186 33.9307 38.7186 33.8452 38.8021C33.8452 38.8021 33.8452 38.8021 33.8452 38.8021L25.8197 46.6324C25.4775 46.9663 24.9227 46.9663 24.5805 46.6324C24.5805 46.6324 24.5805 46.6324 24.5805 46.6324L13.2723 35.5995C12.9301 35.2656 12.9301 34.7243 13.2723 34.3904L15.7801 31.9436C16.1223 31.6097 16.6771 31.6097 17.0193 31.9436L25.0451 39.774C25.1306 39.8575 25.2693 39.8575 25.3549 39.774C25.3549 39.774 25.3549 39.774 25.3549 39.774L33.3802 31.9436C33.7224 31.6097 34.2773 31.6097 34.6195 31.9436C34.6195 31.9436 34.6195 31.9436 34.6195 31.9436L42.6452 39.774C42.7308 39.8575 42.8695 39.8575 42.9551 39.774L50.9807 31.9438C51.3229 31.6099 51.8777 31.6099 52.2199 31.9438Z" fill="white"/>
<defs>
<radialGradient id="paint0_radial_314_624" cx="0" cy="0" r="1" gradientUnits="userSpaceOnUse" gradientTransform="translate(0 34) scale(68)">
<stop stop-color="#5D9DF6"/>
<stop offset="1" stop-color="#006FFF"/>
</radialGradient>
</defs>
</svg>
