<svg width="22" height="22" viewBox="0 0 22 22" fill="none" xmlns="http://www.w3.org/2000/svg">
<rect width="22" height="22" rx="11" fill="url(#paint0_radial_2519_7485)"/>
<path d="M11 6.49398C12.4578 6.49398 12.6566 6.49398 13.253 6.49398C13.7831 6.49398 14.0482 6.62651 14.247 6.69277C14.512 6.8253 14.7108 6.89157 14.9096 7.09036C15.1084 7.28916 15.241 7.48795 15.3072 7.75301C15.3735 7.95181 15.4398 8.21687 15.506 8.74699C15.506 9.34337 15.506 9.4759 15.506 11C15.506 12.5241 15.506 12.6566 15.506 13.253C15.506 13.7831 15.3735 14.0482 15.3072 14.247C15.1747 14.512 15.1084 14.7108 14.9096 14.9096C14.7108 15.1084 14.512 15.241 14.247 15.3072C14.0482 15.3735 13.7831 15.4398 13.253 15.506C12.6566 15.506 12.5241 15.506 11 15.506C9.4759 15.506 9.34337 15.506 8.74699 15.506C8.21687 15.506 7.95181 15.3735 7.75301 15.3072C7.48795 15.1747 7.28916 15.1084 7.09036 14.9096C6.89157 14.7108 6.75904 14.512 6.69277 14.247C6.62651 14.0482 6.56024 13.7831 6.49398 13.253C6.49398 12.6566 6.49398 12.5241 6.49398 11C6.49398 9.4759 6.49398 9.34337 6.49398 8.74699C6.49398 8.21687 6.62651 7.95181 6.69277 7.75301C6.8253 7.48795 6.89157 7.28916 7.09036 7.09036C7.28916 6.89157 7.48795 6.75904 7.75301 6.69277C7.95181 6.62651 8.21687 6.56024 8.74699 6.49398C9.34337 6.49398 9.54217 6.49398 11 6.49398ZM11 5.5C9.4759 5.5 9.34337 5.5 8.74699 5.5C8.1506 5.5 7.75301 5.63253 7.42169 5.76506C7.09036 5.89759 6.75904 6.09639 6.42771 6.42771C6.09639 6.75904 5.96386 7.0241 5.76506 7.42169C5.63253 7.75301 5.56627 8.1506 5.5 8.74699C5.5 9.34337 5.5 9.54217 5.5 11C5.5 12.5241 5.5 12.6566 5.5 13.253C5.5 13.8494 5.63253 14.247 5.76506 14.5783C5.89759 14.9096 6.09639 15.241 6.42771 15.5723C6.75904 15.9036 7.0241 16.0361 7.42169 16.2349C7.75301 16.3675 8.1506 16.4337 8.74699 16.5C9.34337 16.5 9.54217 16.5 11 16.5C12.4578 16.5 12.6566 16.5 13.253 16.5C13.8494 16.5 14.247 16.3675 14.5783 16.2349C14.9096 16.1024 15.241 15.9036 15.5723 15.5723C15.9036 15.241 16.0361 14.9759 16.2349 14.5783C16.3675 14.247 16.4337 13.8494 16.5 13.253C16.5 12.6566 16.5 12.4578 16.5 11C16.5 9.54217 16.5 9.34337 16.5 8.74699C16.5 8.1506 16.3675 7.75301 16.2349 7.42169C16.1024 7.09036 15.9036 6.75904 15.5723 6.42771C15.241 6.09639 14.9759 5.96386 14.5783 5.76506C14.247 5.63253 13.8494 5.56627 13.253 5.5C12.6566 5.5 12.5241 5.5 11 5.5Z" fill="white"/>
<path d="M11 8.1506C9.40964 8.1506 8.1506 9.40964 8.1506 11C8.1506 12.5904 9.40964 13.8494 11 13.8494C12.5904 13.8494 13.8494 12.5904 13.8494 11C13.8494 9.40964 12.5904 8.1506 11 8.1506ZM11 12.8554C10.006 12.8554 9.14458 12.0602 9.14458 11C9.14458 10.006 9.93976 9.14458 11 9.14458C11.994 9.14458 12.8554 9.93976 12.8554 11C12.8554 11.994 11.994 12.8554 11 12.8554Z" fill="white"/>
<path d="M13.9157 8.74699C14.2816 8.74699 14.5783 8.45031 14.5783 8.08434C14.5783 7.71837 14.2816 7.42169 13.9157 7.42169C13.5497 7.42169 13.253 7.71837 13.253 8.08434C13.253 8.45031 13.5497 8.74699 13.9157 8.74699Z" fill="white"/>
<defs>
<radialGradient id="paint0_radial_2519_7485" cx="0" cy="0" r="1" gradientUnits="userSpaceOnUse" gradientTransform="translate(22.4426 0.446875) scale(50.8045)">
<stop stop-color="#F9ED32"/>
<stop offset="0.36" stop-color="#EE2A7B"/>
<stop offset="0.44" stop-color="#D22A8A"/>
<stop offset="0.6" stop-color="#8B2AB2"/>
<stop offset="0.83" stop-color="#1B2AF0"/>
<stop offset="0.88" stop-color="#002AFF"/>
</radialGradient>
</defs>
</svg>
