<svg width="22" height="22" viewBox="0 0 22 22" fill="none" xmlns="http://www.w3.org/2000/svg">
<rect width="22" height="22" rx="11" fill="#2878B7"/>
<path d="M15.3984 11.4095V14.4431H13.6227V11.5945C13.6227 10.8916 13.3637 10.4106 12.7348 10.4106C12.2538 10.4106 11.9579 10.7436 11.8469 11.0396C11.8099 11.1505 11.7729 11.2985 11.7729 11.4835V14.4431H9.99709C9.99709 14.4431 10.0341 9.63373 9.99709 9.15279H11.7729V9.8927C11.9949 9.52274 12.4388 9.00481 13.3637 9.00481C14.5105 9.00481 15.3984 9.78171 15.3984 11.4095ZM8.14732 6.6001C7.55539 6.6001 7.14844 7.00705 7.14844 7.52499C7.14844 8.04292 7.51839 8.44987 8.11032 8.44987C8.73924 8.44987 9.1092 8.04292 9.1092 7.52499C9.1462 6.97005 8.77624 6.6001 8.14732 6.6001ZM7.25942 14.4431H9.03521V9.15279H7.25942V14.4431Z" fill="white"/>
</svg>
