<svg width="22" height="22" viewBox="0 0 22 22" fill="none" xmlns="http://www.w3.org/2000/svg">
<g clip-path="url(#clip0_2519_7546)">
<rect width="22" height="22" rx="11" fill="#111111"/>
<path d="M16.4839 8.40182C16.1045 8.40183 15.7287 8.32709 15.3782 8.18189C15.0276 8.03668 14.7091 7.82385 14.4407 7.55554C14.1724 7.28723 13.9596 6.9687 13.8144 6.61814C13.6692 6.26757 13.5944 5.89184 13.5944 5.51239H11.5301V13.596C11.5297 13.9645 11.4133 14.3236 11.1975 14.6223C10.9816 14.921 10.6772 15.1442 10.3274 15.2602C9.97759 15.3763 9.60013 15.3793 9.24853 15.2688C8.89693 15.1584 8.589 14.9401 8.36841 14.6448C8.14781 14.3496 8.02573 13.9924 8.01947 13.6239C8.01321 13.2554 8.12308 12.8943 8.33352 12.5917C8.54396 12.2892 8.84428 12.0605 9.19193 11.9382C9.53958 11.8158 9.91691 11.806 10.2705 11.9101V9.90344C9.51911 9.80212 8.75474 9.93244 8.07941 10.277C7.40408 10.6215 6.84994 11.1639 6.49097 11.8317C6.132 12.4994 5.9853 13.2608 6.07045 14.0142C6.15561 14.7675 6.46856 15.477 6.96753 16.0478C7.46649 16.6186 8.12772 17.0236 8.86292 17.2087C9.59812 17.3938 10.3723 17.3502 11.0821 17.0837C11.7918 16.8173 12.4034 16.3406 12.8352 15.7174C13.2669 15.0942 13.4982 14.3541 13.4983 13.596L13.5582 9.50993C14.4064 10.1326 15.4315 10.4676 16.4837 10.4661L16.4839 8.40182Z" fill="url(#paint0_linear_2519_7546)"/>
<path d="M15.9369 7.83948C15.1706 7.83946 14.4357 7.53502 13.8938 6.99314C13.352 6.45127 13.0476 5.71633 13.0476 4.95001H10.9832V13.0336C10.9828 13.4021 10.8665 13.7612 10.6506 14.0599C10.4348 14.3586 10.1303 14.5818 9.78055 14.6979C9.43074 14.8139 9.05329 14.8169 8.70168 14.7065C8.35007 14.596 8.04215 14.3777 7.82155 14.0825C7.60095 13.7873 7.47886 13.4301 7.4726 13.0616C7.46633 12.6931 7.5762 12.332 7.78664 12.0294C7.99708 11.7268 8.2974 11.4982 8.64506 11.3758C8.99271 11.2535 9.37004 11.2437 9.72359 11.3478V9.34105C8.97224 9.23974 8.20787 9.37006 7.53254 9.7146C6.85721 10.0591 6.30306 10.6015 5.9441 11.2693C5.58513 11.9371 5.43843 12.6985 5.52358 13.4518C5.60873 14.2051 5.92169 14.9146 6.42065 15.4854C6.91962 16.0562 7.58085 16.4612 8.31605 16.6463C9.05125 16.8314 9.82542 16.7878 10.5352 16.5213C11.245 16.2549 11.8566 15.7782 12.2883 15.155C12.72 14.5318 12.9514 13.7917 12.9514 13.0336L13.0116 8.94759C13.8598 9.57024 14.8849 9.90527 15.9371 9.9037L15.9369 7.83948Z" fill="url(#paint1_linear_2519_7546)"/>
<path d="M15.9376 8.35015C15.2234 8.21272 14.5872 7.81097 14.1562 7.22511C13.6114 6.79873 13.2377 6.19099 13.1031 5.51239H11.5296V13.596C11.5296 13.9796 11.404 14.3527 11.1721 14.6583C10.9402 14.9639 10.6146 15.1852 10.2451 15.2885C9.87563 15.3917 9.4825 15.3712 9.12575 15.2301C8.76899 15.089 8.46822 14.835 8.26932 14.5069C7.91563 14.2767 7.65658 13.9269 7.53951 13.5215C7.42244 13.116 7.45516 12.682 7.6317 12.2987C7.80824 11.9153 8.11681 11.6083 8.50103 11.4338C8.88524 11.2592 9.31944 11.2287 9.7243 11.3478V9.87109C9.02987 9.88003 8.35178 10.0829 7.76654 10.4568C7.18131 10.8307 6.71224 11.3608 6.41229 11.9871C6.11233 12.6135 5.99343 13.3112 6.069 14.0016C6.14457 14.6919 6.41161 15.3474 6.83998 15.894C7.3838 16.3478 8.04571 16.6372 8.74812 16.7282C9.45053 16.8192 10.1643 16.708 10.8058 16.4078C11.4473 16.1076 11.99 15.6307 12.3701 15.0331C12.7502 14.4355 12.9521 13.7419 12.9521 13.0336L13.0123 8.94761C13.8605 9.57026 14.8856 9.90528 15.9378 9.90371L15.9376 8.35015Z" fill="url(#paint2_linear_2519_7546)"/>
</g>
<defs>
<linearGradient id="paint0_linear_2519_7546" x1="6.87421" y1="15.9658" x2="15.461" y2="7.37897" gradientUnits="userSpaceOnUse">
<stop stop-color="#B5053C"/>
<stop offset="0.233" stop-color="#C90441"/>
<stop offset="0.737" stop-color="#F0014B"/>
<stop offset="1" stop-color="#FF004F"/>
</linearGradient>
<linearGradient id="paint1_linear_2519_7546" x1="6.1994" y1="15.5313" x2="15.2445" y2="6.48616" gradientUnits="userSpaceOnUse">
<stop stop-color="#00B2C9"/>
<stop offset="0.283" stop-color="#00C8D4"/>
<stop offset="0.741" stop-color="#00E6E4"/>
<stop offset="1" stop-color="#00F1EA"/>
</linearGradient>
<linearGradient id="paint2_linear_2519_7546" x1="1.13259" y1="21.1529" x2="21.154" y2="1.13142" gradientUnits="userSpaceOnUse">
<stop stop-color="#DDE3E4"/>
<stop offset="1" stop-color="#FCF7F7"/>
</linearGradient>
<clipPath id="clip0_2519_7546">
<rect width="22" height="22" fill="white"/>
</clipPath>
</defs>
</svg>
