<svg width="22" height="22" viewBox="0 0 22 22" fill="none" xmlns="http://www.w3.org/2000/svg">
<rect width="22" height="22" rx="11" fill="#55ACE3"/>
<path d="M16.8269 8.1949C16.4419 8.3599 16.0019 8.4699 15.5619 8.5249C16.0019 8.2499 16.3869 7.8099 16.5519 7.3149C16.1119 7.5899 15.6719 7.7549 15.1219 7.8649C14.7369 7.4249 14.1319 7.1499 13.5269 7.1499C12.3169 7.1499 11.3269 8.1399 11.3269 9.3499C11.3269 9.5149 11.3269 9.6799 11.3819 9.8449C9.56687 9.7349 7.91687 8.8549 6.81687 7.5349C6.65187 7.8649 6.54187 8.2499 6.54187 8.6349C6.54187 9.4049 6.92687 10.0649 7.53187 10.4499C7.14687 10.4499 6.81687 10.3399 6.54187 10.1749C6.54187 11.2199 7.31187 12.1549 8.30187 12.3199C8.13687 12.3749 7.91688 12.3749 7.69688 12.3749C7.53188 12.3749 7.42187 12.3749 7.25687 12.3199C7.53187 13.1999 8.35688 13.8599 9.34688 13.8599C8.57687 14.4649 7.64188 14.7949 6.59688 14.7949C6.43187 14.7949 6.26688 14.7949 6.04688 14.7399C7.03688 15.3449 8.19187 15.7299 9.45687 15.7299C13.5269 15.7299 15.7269 12.3749 15.7269 9.4599V9.1849C16.1669 9.0199 16.5519 8.6349 16.8269 8.1949Z" fill="white"/>
</svg>
