<svg width="26" height="26" viewBox="0 0 26 26" fill="none" xmlns="http://www.w3.org/2000/svg">
<mask id="mask0_1_9314" style="mask-type:alpha" maskUnits="userSpaceOnUse" x="0" y="0" width="26" height="26">
<circle cx="13" cy="13" r="13" fill="#634848"/>
</mask>
<g mask="url(#mask0_1_9314)">
<g clip-path="url(#clip0_1_9314)">
<path d="M51 0H0V26H51V0Z" fill="#00993E"/>
<path d="M51 3.71387H0V7.42814H51V3.71387Z" fill="white"/>
<path d="M51 11.1426H0V14.8569H51V11.1426Z" fill="white"/>
<path d="M51 18.5713H0V22.2856H51V18.5713Z" fill="white"/>
<path d="M19.38 0H0V11.1428H19.38V0Z" fill="#C8312A"/>
<path d="M8.18992 6.22453C8.18992 6.22453 8.0229 6.29585 8.13731 7.65531C8.23072 8.77426 8.62172 9.13878 8.62172 9.13878L8.79249 9.83142L10.4122 9.83818C10.4122 9.83818 10.4416 9.40927 10.5043 9.27363C10.6584 8.9404 11.2692 8.5595 11.531 7.98438C11.8125 7.63381 11.6715 6.91838 12.2366 6.22782C12.5172 5.88488 11.9079 6.03005 11.9079 6.03005C11.5738 6.25599 11.4105 6.52119 11.3263 6.70648C11.2696 7.06346 11.0075 7.36194 10.9828 7.10272C10.9828 7.10272 10.8876 6.65448 10.6019 5.78313C10.5736 5.52487 10.4511 4.63168 10.4249 3.94996C10.4063 3.5064 10.0255 3.47971 9.99371 3.92994L9.94772 5.71484L9.85669 3.65339C9.81801 3.06995 9.38511 3.15644 9.36632 3.63995L9.34771 5.78643L9.26883 3.70573C9.15153 3.30828 8.84332 3.54384 8.83762 3.9744L8.78509 5.99893C8.78509 5.99893 8.71871 4.89021 8.70375 4.42203C8.68964 4.14045 8.36621 4.16125 8.3357 4.56382C8.29167 5.14605 8.22239 5.62124 8.18992 6.22453Z" fill="white"/>
<path d="M9.19751 2.42435L9.69 0.878906L10.1825 2.42435L8.89313 1.46928H10.4868L9.19751 2.42435Z" fill="white"/>
<path d="M13.0274 3.04056L11.738 2.0854H13.3317L12.0423 3.04056L12.5348 1.49512L13.0274 3.04056Z" fill="white"/>
<path d="M15.4612 4.87747L14.1718 3.92232H15.7655L14.4761 4.87747L14.9686 3.33203L15.4612 4.87747Z" fill="white"/>
<path d="M16.8711 7.47122L15.5818 6.51607H17.1754L15.8862 7.47122L16.3786 5.92578L16.8711 7.47122Z" fill="white"/>
<path d="M6.35273 3.04056L7.64209 2.0854H6.04834L7.33771 3.04056L6.84522 1.49512L6.35273 3.04056Z" fill="white"/>
<path d="M3.91884 4.87747L5.20821 3.92232H3.61454L4.90391 4.87747L4.41133 3.33203L3.91884 4.87747Z" fill="white"/>
<path d="M2.50886 7.47122L3.79823 6.51607H2.20448L3.49384 7.47122L3.00135 5.92578L2.50886 7.47122Z" fill="white"/>
</g>
</g>
<defs>
<clipPath id="clip0_1_9314">
<rect width="51" height="26" fill="white"/>
</clipPath>
</defs>
</svg>
