<svg width="26" height="26" viewBox="0 0 26 26" fill="none" xmlns="http://www.w3.org/2000/svg">
<mask id="mask0_1_16089" style="mask-type:alpha" maskUnits="userSpaceOnUse" x="0" y="0" width="26" height="26">
<circle cx="13" cy="13" r="13" fill="#634848"/>
</mask>
<g mask="url(#mask0_1_16089)">
<g clip-path="url(#clip0_1_16089)">
<path d="M-4 0H31V26H-4V0Z" fill="#D0103A"/>
<path d="M-4 0H19.8V26H-4V0Z" fill="#FEDF00"/>
<path d="M-4 0H7.2V26H-4V0Z" fill="#0018A8"/>
<path d="M12.4281 7.39941C12.8492 7.39941 13.0242 7.75691 13.4453 7.75691C13.7023 7.75691 13.8555 7.67566 14.0852 7.54566C14.2438 7.459 14.3422 7.41025 14.5227 7.41025C14.7086 7.41025 14.8234 7.46441 14.9219 7.62691C14.9766 7.71358 15.0203 7.89233 14.993 7.98983C14.9605 8.14458 14.9109 8.29534 14.8453 8.43941C14.807 8.52608 14.7742 8.57483 14.7742 8.66691C14.7742 8.889 15.0805 8.96483 15.2883 8.97025C15.332 8.97025 15.7094 8.97025 15.9445 8.74275C15.8188 8.73733 15.6766 8.63441 15.6766 8.50983C15.6766 8.369 15.775 8.27691 15.9117 8.23358C15.9391 8.22816 15.9828 8.24983 16.0047 8.23358C16.043 8.21733 16.0266 8.17941 16.0594 8.15775C16.125 8.10358 16.1687 8.07108 16.2562 8.07108C16.3109 8.07108 16.3437 8.0765 16.393 8.109C16.4148 8.13066 16.4258 8.15233 16.4477 8.15233C16.5133 8.15233 16.5461 8.109 16.6117 8.109C16.6557 8.10966 16.6988 8.12081 16.7375 8.1415C16.7703 8.15775 16.7703 8.22275 16.8141 8.22275C16.8359 8.22275 16.9453 8.174 17.0055 8.174C17.1258 8.174 17.1914 8.21733 17.268 8.30941C17.2898 8.3365 17.3008 8.38525 17.3227 8.38525C17.3763 8.38975 17.4281 8.40684 17.4737 8.43509C17.5194 8.46335 17.5576 8.50197 17.5852 8.54775C17.6016 8.56941 17.6234 8.62358 17.6453 8.629C17.6781 8.64525 17.7 8.63983 17.7383 8.66691C17.7831 8.69481 17.8204 8.73302 17.8471 8.7783C17.8737 8.82357 17.8889 8.87456 17.8914 8.92691C17.8914 8.96483 17.875 9.01358 17.8641 9.04608C17.7656 9.39816 17.5195 9.51191 17.2734 9.82066C17.1641 9.95066 17.082 10.0536 17.082 10.2215C17.082 10.2594 17.1367 10.3352 17.1531 10.3677C17.1422 10.2919 17.1805 10.1944 17.2625 10.189C17.3169 10.1887 17.3695 10.2086 17.4099 10.2446C17.4504 10.2807 17.4758 10.3304 17.4812 10.384C17.4826 10.4173 17.477 10.4504 17.4648 10.4815C17.5311 10.4404 17.6059 10.4145 17.6836 10.4057H17.7875C17.968 10.4057 18.1703 10.5086 18.2961 10.6115C18.4277 10.7235 18.532 10.8635 18.6012 11.0211C18.6703 11.1787 18.7025 11.3498 18.6953 11.5215C18.6516 11.8032 18.6789 12.3232 17.9406 12.529C18.0773 12.5832 18.1703 12.6915 18.1703 12.8107C18.1718 12.8431 18.1667 12.8755 18.1553 12.906C18.1439 12.9365 18.1265 12.9644 18.1041 12.9881C18.0817 13.0119 18.0547 13.0309 18.0248 13.0441C17.9948 13.0574 17.9625 13.0646 17.9297 13.0652C17.8941 13.0674 17.8585 13.0618 17.8254 13.0487C17.7923 13.0355 17.7625 13.0153 17.7383 12.9894C17.5852 13.1411 17.5578 13.2982 17.5578 13.5148C17.5578 13.6448 17.5797 13.7207 17.6344 13.8398C17.6891 13.959 17.7328 14.0294 17.8367 14.1161C17.8914 14.0348 17.9516 13.9752 18.0555 13.9752C18.1484 13.9752 18.2305 14.0077 18.2688 14.0944C18.2797 14.1215 18.2687 14.1432 18.2852 14.1702C18.3016 14.2027 18.3289 14.2082 18.3453 14.2407C18.3727 14.2948 18.3453 14.3382 18.3727 14.3869C18.3891 14.4248 18.4219 14.4302 18.4383 14.4627C18.4602 14.5169 18.4656 14.5494 18.4656 14.609C18.4656 14.7715 18.318 14.8907 18.1539 14.8907C18.0992 14.8907 18.0773 14.869 18.0281 14.8744C18.1211 14.9665 18.1922 15.0098 18.2633 15.1182C18.3749 15.2828 18.4322 15.4778 18.4273 15.6761C18.4317 15.8882 18.3789 16.0976 18.2742 16.2827C18.1926 16.4687 18.06 16.6282 17.8914 16.7432C17.6335 16.9291 17.3327 17.0483 17.0164 17.0898C16.8181 17.1299 16.617 17.1552 16.4148 17.1657L15.6438 17.209C15.25 17.2307 14.9766 17.2902 14.6977 17.5665C14.8289 17.6586 14.9164 17.7561 14.9164 17.9132C14.9164 18.0757 14.818 18.2002 14.6594 18.249C14.6211 18.2598 14.5937 18.249 14.5555 18.2707C14.5172 18.2923 14.5172 18.3411 14.4789 18.3627C14.4174 18.4026 14.3445 18.4217 14.2711 18.4169C14.2063 18.4215 14.1412 18.4117 14.0807 18.3883C14.0201 18.3649 13.9656 18.3284 13.9211 18.2815C13.8008 18.379 13.757 18.4657 13.6203 18.5469C13.5766 18.5686 13.5547 18.6011 13.5055 18.6011C13.4234 18.6011 13.3852 18.5469 13.3195 18.5036C13.2302 18.442 13.1493 18.3691 13.0789 18.2869C12.9531 18.3573 12.882 18.4169 12.7344 18.4169C12.6576 18.421 12.5814 18.4021 12.5156 18.3627C12.4828 18.3357 12.4719 18.2977 12.4336 18.2761C12.3953 18.249 12.3625 18.2598 12.3187 18.2382C12.1547 18.1677 12.0453 18.0486 12.0453 17.8698C12.0453 17.7127 12.1437 17.6152 12.2859 17.5448C12.0125 17.274 11.7391 17.2307 11.3562 17.209L10.5906 17.1657C10.35 17.1494 10.2188 17.1277 9.98906 17.0898C9.80859 17.0627 9.70469 17.0519 9.54063 16.9761C8.98281 16.7161 8.62188 16.364 8.55625 15.7573C8.54531 15.7032 8.54531 15.6761 8.54531 15.6219C8.54531 15.3077 8.67109 15.1127 8.89531 14.8907C8.84063 14.8744 8.80234 14.8907 8.74219 14.8744C8.60547 14.8202 8.50156 14.7282 8.50156 14.5765C8.50156 14.5223 8.50156 14.4844 8.52891 14.4357C8.55078 14.4032 8.58359 14.3977 8.59453 14.3598C8.60547 14.3057 8.59453 14.2732 8.61641 14.2244C8.63281 14.1973 8.66016 14.1919 8.67109 14.1594C8.72578 14.0565 8.78047 13.9752 8.89531 13.9752C8.99375 13.9752 9.05938 14.0294 9.10313 14.1107C9.20156 14.0673 9.22344 13.9969 9.27813 13.9102C9.34437 13.8034 9.38564 13.6833 9.39889 13.5586C9.41213 13.434 9.39703 13.308 9.35469 13.1898C9.33281 13.1086 9.32187 13.0544 9.25625 12.9894C9.20156 13.0436 9.14688 13.0652 9.07031 13.0652C8.91172 13.0652 8.79688 12.9298 8.79688 12.7782C8.7952 12.725 8.81004 12.6726 8.83938 12.628C8.86871 12.5835 8.91114 12.5489 8.96094 12.529C8.87344 12.4532 8.79688 12.4477 8.70391 12.3882C8.56172 12.3015 8.5125 12.204 8.41953 12.0632C8.35391 11.9765 8.3375 11.9115 8.31016 11.8086C8.26238 11.6731 8.24375 11.5291 8.25547 11.3861C8.28828 11.1152 8.3375 10.9527 8.50703 10.7415C8.60547 10.6169 8.67109 10.5411 8.82422 10.4761C8.95 10.4219 9.02656 10.384 9.16328 10.384L9.27266 10.3894C9.32623 10.3929 9.37843 10.4077 9.42578 10.4327C9.44766 10.4436 9.48594 10.4815 9.48594 10.4544C9.48594 10.4273 9.46953 10.4111 9.46953 10.384C9.46953 10.2757 9.55156 10.1673 9.66641 10.1673C9.74844 10.1673 9.78125 10.2432 9.825 10.3136C9.84688 10.2702 9.86328 10.2377 9.86328 10.189C9.86328 10.0048 9.75938 9.90733 9.64453 9.76108C9.3875 9.44691 9.07031 9.30066 9.07031 8.89441C9.07031 8.77525 9.125 8.694 9.23438 8.629C9.26172 8.61275 9.30547 8.629 9.33281 8.61275C9.36016 8.5965 9.35469 8.55858 9.37109 8.53691C9.39844 8.499 9.42578 8.48275 9.45859 8.45025C9.51328 8.39608 9.56797 8.41775 9.62813 8.369C9.66094 8.34733 9.67187 8.31483 9.69375 8.29316C9.76484 8.2065 9.83047 8.16316 9.94531 8.16316C10 8.16316 10.0328 8.16316 10.082 8.18483L10.1367 8.21191C10.1531 8.20108 10.1805 8.16858 10.2188 8.15233C10.2548 8.13016 10.2966 8.11887 10.3391 8.11983C10.3992 8.11983 10.4375 8.15233 10.5031 8.15233C10.5195 8.15233 10.525 8.13066 10.5469 8.11983C10.6016 8.08191 10.6289 8.06566 10.6945 8.06566C10.7602 8.06566 10.793 8.08191 10.8477 8.11983C10.9023 8.14691 10.9023 8.19025 10.957 8.21733C10.9844 8.23358 11.0117 8.22816 11.0391 8.239C11.1813 8.28775 11.2852 8.37983 11.2852 8.52608C11.2852 8.60733 11.2688 8.6615 11.2086 8.71566C11.1594 8.75358 11.1156 8.74816 11.0555 8.76983C11.2294 8.9089 11.4506 8.97673 11.6734 8.95941C11.9031 8.95941 12.182 8.86733 12.182 8.63983C12.182 8.5315 12.1273 8.47733 12.0836 8.37983C12.0093 8.23745 11.9699 8.0797 11.9687 7.91941C11.9687 7.76775 11.9852 7.67566 12.0727 7.5565C12.1602 7.43191 12.2695 7.39941 12.4281 7.39941V7.39941Z" fill="#C7B37F"/>
<path d="M10.8969 8.61272C10.9063 8.64341 10.9232 8.67133 10.9461 8.694C10.969 8.71668 10.9971 8.73341 11.0281 8.74272C11.0719 8.75897 11.1758 8.75355 11.2359 8.66689C11.2906 8.60189 11.2906 8.51522 11.2687 8.45022C11.2506 8.40212 11.2182 8.36058 11.1758 8.33105L10.8969 8.61272Z" stroke="#703D29" stroke-width="0.0875" stroke-linejoin="round"/>
<path d="M17.9297 12.7889C17.8641 12.6318 17.6945 12.7022 17.6891 12.7889C17.6617 12.9893 17.8367 13.0489 17.9625 13.0164C17.9916 13.0086 18.0188 12.995 18.0423 12.9763C18.0658 12.9577 18.0852 12.9344 18.0992 12.908C18.132 12.8539 18.143 12.778 18.1211 12.7076C18.112 12.6763 18.0972 12.6469 18.0773 12.6209C18.0577 12.5953 18.0337 12.5732 18.0063 12.5559C17.957 12.5234 17.9023 12.5234 17.8203 12.5234C17.5195 12.5234 17.2516 12.8755 17.1641 13.2493C17.1313 13.3684 17.093 13.6447 17.1477 13.8993C17.1931 14.1299 17.3052 14.3426 17.4703 14.5114C17.6246 14.6551 17.8097 14.7625 18.0117 14.8255C18.083 14.8459 18.1583 14.8478 18.2305 14.8309C18.4055 14.793 18.4875 14.6251 18.3945 14.4518C18.3234 14.3164 18.1047 14.2351 18.0008 14.4193C17.9953 14.4355 17.9789 14.468 17.9789 14.5005C17.9789 14.5493 18.0008 14.6089 18.0336 14.6305C18.1156 14.6793 18.2414 14.663 18.2359 14.5222" stroke="#703D29" stroke-width="0.0875" stroke-linecap="round"/>
<path d="M16.9891 14.8413C17.0825 14.7354 17.21 14.6646 17.35 14.6409C17.5141 14.6192 17.6562 14.668 17.7984 14.7492C17.9762 14.8298 18.1265 14.9596 18.2314 15.1231C18.3362 15.2865 18.3909 15.4765 18.3891 15.6701C18.3891 15.8651 18.3344 16.0763 18.2797 16.1792C18.2359 16.2713 18.1156 16.6667 17.443 16.9376C17.0547 17.1001 16.4586 17.1326 16.0375 17.1542C15.4687 17.1705 14.9437 17.1921 14.643 17.5659" stroke="#703D29" stroke-width="0.1"/>
<path d="M17.1313 15.4752C17.1148 15.421 17.1313 15.3614 17.175 15.2964C17.2406 15.2097 17.3773 15.1827 17.5031 15.2422C17.5573 15.2712 17.604 15.3119 17.6398 15.3614L17.7 15.4481C17.7383 15.5077 17.7547 15.5564 17.7547 15.5835C17.8914 15.9627 17.6781 16.3689 17.3992 16.5368C17.1805 16.6668 16.9234 16.721 16.6117 16.7535C16.475 16.7752 16.393 16.7697 16.2563 16.7806H15.7313C15.6001 16.7739 15.4687 16.7739 15.3375 16.7806C15.1789 16.7968 15.0641 16.8022 14.9219 16.8239C14.8344 16.8347 14.7359 16.851 14.6266 16.8781C14.5938 16.8781 14.5609 16.8889 14.5281 16.8997L14.4625 16.916C14.2656 16.9756 14.0797 17.046 13.9266 17.1435C13.8828 17.1706 13.8281 17.1977 13.7898 17.2356L13.7188 17.3006C13.6094 17.4089 13.5055 17.5172 13.4781 17.6635V17.7502C13.4781 17.8477 13.5547 17.9831 13.7734 18.021M14.0742 8.81266C14.118 8.88849 14.1453 8.93724 14.118 9.02391C14.0852 9.11599 14.0195 9.17558 13.9211 9.17558C13.7023 9.17558 13.5766 8.91558 13.675 8.75308C13.85 8.46599 14.1836 8.62849 14.4953 8.76933C14.4789 8.69891 14.4516 8.67183 14.457 8.57974C14.4625 8.35224 14.632 8.25474 14.7031 8.03808C14.7414 7.91349 14.7578 7.80516 14.6648 7.71308C14.5828 7.64266 14.4898 7.64266 14.3859 7.68058C14.1781 7.76183 13.9211 8.00016 13.4781 8.00558C13.0297 8.00016 12.7781 7.76183 12.5648 7.68058C12.4555 7.64266 12.368 7.64266 12.2859 7.71849C12.193 7.80516 12.2094 7.91349 12.2477 8.04349C12.3188 8.24933 12.4883 8.35224 12.4938 8.58516C12.4938 8.67183 12.4719 8.69349 12.4555 8.76933C12.7672 8.62849 13.1117 8.44974 13.2758 8.75308C13.3688 8.92641 13.2484 9.17016 13.0297 9.17016C12.9313 9.17016 12.8656 9.11599 12.8328 9.02391C12.8109 8.94266 12.8328 8.87224 12.8766 8.80724" stroke="#703D29" stroke-width="0.0875"/>
<path d="M13.2047 8.66113C13.2497 8.68987 13.2858 8.73038 13.3089 8.77819C13.3321 8.82599 13.3415 8.87922 13.3359 8.93197C13.325 9.06738 13.2922 9.09988 13.1828 9.17572M13.3141 8.96988C13.3086 9.05113 13.2758 9.1053 13.1883 9.1378" stroke="#703D29" stroke-width="0.0875" stroke-linecap="round"/>
<path d="M11.132 8.30371L11.1703 8.33079L11.2141 8.37413L11.2414 8.42829L11.2523 8.47163V8.57454L11.2414 8.61788L11.2141 8.65038L11.1812 8.68288L11.132 8.70996L11.0773 8.72079L11.0227 8.73163L10.968 8.70454L10.9187 8.67204L10.8914 8.62871L10.8695 8.57454V8.55288L11.132 8.30371V8.30371Z" fill="#C7B37F"/>
<path d="M11.05 8.51537C11.0336 8.42329 10.9297 8.40704 10.8859 8.4612C10.8258 8.54245 10.8695 8.67787 10.9953 8.71579C11.0345 8.72364 11.075 8.72072 11.1126 8.70736C11.1502 8.69399 11.1834 8.67068 11.2086 8.63995C11.2633 8.56954 11.2578 8.48829 11.2359 8.42329C11.2184 8.37484 11.1859 8.33313 11.143 8.30412C10.9953 8.19579 10.7547 8.21745 10.6727 8.41245C10.5742 8.65079 10.793 8.83495 11.0008 8.97037C11.2523 9.1437 11.5477 9.1762 11.7664 9.1762C12.2695 9.17079 12.6523 8.93245 12.8984 8.79704C12.9531 8.76454 13.0133 8.76995 13.0461 8.80787C13.0625 8.82981 13.0699 8.85706 13.0668 8.88418C13.0638 8.91129 13.0505 8.93627 13.0297 8.95412" stroke="#703D29" stroke-width="0.0875" stroke-linecap="round"/>
<path d="M9.5625 15.2314L9.45313 15.2694L9.34375 15.356L9.28906 15.4264L9.22891 15.5348L9.20156 15.616L9.17969 15.7135L9.16875 15.7894M10.2078 15.2423L10.2023 15.3398L10.1859 15.4048L10.1313 15.5239L10.0602 15.6214L9.97813 15.6864L9.91797 15.7135L9.83047 15.7352" stroke="#703D29" stroke-width="0.0875"/>
<path d="M13.4836 17.8262C13.4672 17.9183 13.3797 18.0212 13.1937 18.0537L13.1609 18.0645" stroke="#703D29" stroke-width="0.1"/>
<path d="M18.1047 14.9609C18.2037 15.0554 18.282 15.1692 18.3347 15.295C18.3874 15.4208 18.4134 15.556 18.4109 15.6922C18.4109 15.8872 18.3562 16.0984 18.3016 16.2014C18.2578 16.2934 18.1375 16.6889 17.4648 16.9597C17.0121 17.1023 16.5399 17.1754 16.0648 17.1764C15.5016 17.1926 14.982 17.2143 14.6758 17.5718" stroke="#703D29" stroke-width="0.1125"/>
<path d="M17.1914 15.3234C17.2352 15.2692 17.3828 15.1934 17.5086 15.2638C17.559 15.289 17.6022 15.3262 17.6344 15.3721" stroke="#703D29" stroke-width="0.075"/>
<path d="M17.9625 14.8305L18.0391 14.8576C18.1104 14.8787 18.1864 14.8787 18.2578 14.8576C18.4109 14.8143 18.5094 14.6735 18.4328 14.4839C18.4094 14.4389 18.3757 14.3999 18.3344 14.3701" stroke="#703D29" stroke-width="0.1125"/>
<path d="M9.14141 10.8228C9.03203 10.8823 8.96094 10.8986 8.87891 10.9907C8.81558 11.1068 8.76779 11.2306 8.73672 11.359M11.2523 8.55859C11.2523 8.65609 11.1867 8.71026 11.0883 8.73193" stroke="#703D29" stroke-width="0.0875" stroke-linecap="round"/>
<path d="M17.7164 10.4004C17.8548 10.4032 17.9912 10.4333 18.1176 10.489C18.2441 10.5446 18.358 10.6248 18.4528 10.7247C18.5475 10.8246 18.6212 10.9423 18.6694 11.0707C18.7176 11.1992 18.7395 11.3359 18.7336 11.4729C18.7336 12.3396 18.1922 12.475 17.9789 12.5346" stroke="#703D29" stroke-width="0.075"/>
<path d="M17.7875 10.4C18.2305 10.3837 18.6898 10.7087 18.7117 11.5212C18.7281 12.155 18.2742 12.4421 18.0555 12.4962" stroke="#703D29" stroke-width="0.0875"/>
<path d="M17.5359 13.4546L17.5414 13.3679L17.5742 13.2325L17.6125 13.1242L17.6617 13.0375L17.7164 12.9671M18.143 12.7829V12.8642L18.1156 12.9183L18.0773 12.9779L18.0336 13.0104L17.968 13.0375H17.9078L17.8641 13.0321M17.082 10.1721L17.0984 10.08L17.1422 9.99333L17.1969 9.91208L17.2844 9.79292L17.3609 9.71708L17.4703 9.59792L17.5797 9.495L17.6398 9.42458L17.7219 9.32167L17.7984 9.21333L17.8422 9.12125L17.8695 9.00208L17.875 8.85583L17.8641 8.8125M17.1914 15.7567L17.2789 15.735L17.3445 15.7025L17.3828 15.6646L17.4102 15.6212L17.4266 15.5563V15.5075M8.775 14.8521H8.92266L9.01016 14.8196M9.28359 12.8425L9.27266 12.9183L9.25078 12.9508L9.22891 12.9833L9.19063 13.0104L9.15234 13.0267L9.09766 13.0321H9.06484M9.60625 12.1925L9.58984 12.3063L9.5625 12.3604L9.51875 12.4254L9.45313 12.4742L9.3875 12.5067L9.26172 12.5337M10.0984 10.3833L10.0711 10.4538L10.0438 10.5079L10 10.5621L9.94531 10.6163L9.87969 10.6433L9.81953 10.6596L9.78672 10.6542M9.80313 10.3183V10.3725" stroke="#703D29" stroke-width="0.075"/>
<path d="M9.90703 12.1328C9.87378 12.1649 9.83485 12.1906 9.79219 12.2086M18.0227 14.6353L18.05 14.6461C18.1266 14.6895 18.2797 14.6353 18.2359 14.5161" stroke="#703D29" stroke-width="0.075" stroke-linecap="round"/>
<path d="M17.7547 12.9786C17.8094 13.049 17.9133 13.0707 17.9953 13.049C18.0244 13.0413 18.0516 13.0276 18.0751 13.009C18.0986 12.9904 18.118 12.9671 18.132 12.9407C18.1648 12.8865 18.1758 12.8107 18.1539 12.7403C18.1432 12.7086 18.1265 12.6792 18.1047 12.6536C18.0851 12.6232 18.0612 12.5959 18.0336 12.5724L18.0117 12.5615M18.3617 14.4032C18.3647 14.3907 18.3665 14.378 18.3672 14.3653C18.3676 14.3348 18.3614 14.3045 18.3492 14.2765C18.3369 14.2485 18.3188 14.2234 18.2961 14.2028L18.2523 14.1594M18.2742 14.1865C18.2742 14.089 18.1922 14.0132 18.0883 13.9969M17.8586 14.1486L17.7875 14.0944C17.6377 13.9378 17.5537 13.7306 17.5523 13.5149C17.5523 13.2874 17.6398 13.0599 17.7492 12.9732M14.6594 17.5503L14.7578 17.4636L14.8234 17.4094L14.9492 17.3336L15.0695 17.2794L15.157 17.2524L15.3211 17.2199L15.518 17.1874M13.9047 18.2382C13.8017 18.3861 13.6572 18.501 13.4891 18.5686C13.322 18.4992 13.178 18.3847 13.0734 18.2382" stroke="#703D29" stroke-width="0.075"/>
<path d="M13.1938 18.0156C13.1726 18.0999 13.1314 18.1779 13.0734 18.2431" stroke="#703D29" stroke-width="0.075" stroke-linecap="round"/>
<path d="M13.2102 17.9017L13.1883 18.0209M13.0625 18.2538L13.0078 18.308L12.9148 18.3567L12.8055 18.3892M12.4992 8.75837C12.5156 8.71503 12.5266 8.68253 12.5266 8.61753C12.5211 8.39003 12.3516 8.28712 12.2805 8.07587C12.2422 7.95128 12.2258 7.84295 12.3187 7.75087C12.3953 7.67503 12.4937 7.67503 12.5922 7.71837C12.8109 7.79962 13.0625 8.03253 13.5055 8.04337C13.0625 8.03253 12.8055 7.79962 12.5977 7.71837C12.4883 7.67503 12.3898 7.6642 12.3078 7.74545C12.2148 7.83212 12.2422 7.95128 12.2805 8.07587C12.3516 8.28712 12.5102 8.39003 12.5156 8.61753C12.5156 8.68253 12.4992 8.71503 12.4883 8.75837M13.5 8.01628C13.9375 7.99462 14.3148 7.70212 14.4352 7.67503C14.5445 7.65337 14.5992 7.6642 14.6813 7.73462C14.6047 7.6642 14.5172 7.66962 14.4078 7.70753C14.2 7.78878 13.9484 8.0217 13.5 8.03253M17.8531 14.148C17.7478 14.0697 17.6624 13.9683 17.6036 13.8518C17.5447 13.7352 17.5141 13.6066 17.5141 13.4763C17.5141 13.2542 17.607 13.0213 17.7109 12.9346M13.8828 18.2213C13.8117 18.3296 13.6477 18.4921 13.4672 18.5571C13.2995 18.4862 13.1554 18.3698 13.0516 18.2213" stroke="#703D29" stroke-width="0.075"/>
<path d="M12.7727 8.86715L12.8984 8.79673C12.9531 8.76423 13.0242 8.76965 13.057 8.80756C13.0898 8.84548 13.0953 8.9159 13.0461 8.95923" stroke="#703D29" stroke-width="0.075" stroke-linecap="round"/>
<path d="M12.1164 9.17061C12.4172 9.10561 12.6633 8.97561 12.8492 8.8727M14.6102 17.7669C14.6375 17.7831 14.6539 17.821 14.6539 17.821C14.6594 17.8319 14.6703 17.8481 14.6703 17.8644C14.6867 17.9456 14.632 17.9944 14.5609 18.0052C14.468 18.016 14.3969 17.9619 14.3695 17.8969M12.1 9.15436C12.4008 9.09478 12.6469 8.95936 12.8328 8.85645M18.1703 14.6469C18.1156 14.6685 18.0828 14.6631 18.0063 14.636L17.9078 14.5819C17.7083 14.4693 17.5481 14.2992 17.4484 14.0944C17.4066 14.0157 17.3753 13.9319 17.3555 13.8452C17.338 13.7872 17.3288 13.727 17.3281 13.6664C17.3222 13.3701 17.4123 13.0796 17.5852 12.8377C17.6453 12.751 17.7 12.7023 17.8148 12.6969M9.95625 10.5681C10.0032 10.6048 10.041 10.6518 10.0666 10.7054C10.0922 10.7589 10.105 10.8176 10.1039 10.8769C10.1039 11.0448 9.96172 11.321 9.61172 11.4185C9.49562 11.4499 9.37169 11.4343 9.26719 11.3752" stroke="#703D29" stroke-width="0.075"/>
<path d="M10.0164 11.1367C10.0766 11.1801 10.1039 11.2288 10.1039 11.3155C10.1039 11.3696 10.0656 11.4455 10 11.5159C9.93852 11.5821 9.86424 11.6354 9.78157 11.6726C9.6989 11.7098 9.60953 11.7302 9.51875 11.7326C9.40937 11.7326 9.3 11.7109 9.19062 11.6405C9.08644 11.5726 9.01217 11.468 8.98281 11.348" stroke="#703D29" stroke-width="0.075"/>
<path d="M10.0109 11.4999C10.082 11.5649 10.1039 11.6461 10.1039 11.7491C10.1039 11.8953 10.0437 12.0091 9.90156 12.1282C9.86875 12.1607 9.83594 12.1824 9.79219 12.2095M16.8742 11.0124V11.202M16.8578 10.9636V11.2345M16.8742 10.3786V10.7361M16.8578 10.3028V10.7849M16.7539 15.2266C16.6973 15.3411 16.6194 15.444 16.5242 15.5299C16.433 15.6224 16.3255 15.6977 16.207 15.752C16.093 15.8084 15.9715 15.8486 15.8461 15.8711C15.7242 15.9001 15.5996 15.9165 15.4742 15.9199C15.3375 15.9199 15.2609 15.9199 15.1242 15.9091C14.982 15.8982 14.9055 15.8766 14.7578 15.8657C14.6375 15.8549 14.5719 15.8441 14.4516 15.8495C14.2465 15.8422 14.042 15.8753 13.85 15.947C13.7078 16.0011 13.5383 16.1095 13.5055 16.1528C13.4015 16.065 13.2831 15.9954 13.1555 15.947C13.0659 15.9107 12.9723 15.8852 12.8766 15.8711C12.7508 15.8495 12.6852 15.8495 12.5594 15.8495C12.4391 15.8495 12.3734 15.8549 12.2531 15.8657C12.1109 15.882 12.0344 15.8982 11.8867 15.9091C11.75 15.9199 11.6734 15.9253 11.5367 15.9199C11.2836 15.9172 11.034 15.8619 10.8039 15.7574C10.6704 15.6956 10.5512 15.6071 10.4539 15.4974M12.7562 18.3899L12.8547 18.3791M14.5117 18.2491L14.6102 18.2436L14.7031 18.2057L14.7688 18.1624L14.8617 18.0541L14.8781 18.0216L14.8945 17.9295V17.8861M17.4648 10.4816C17.5031 10.3407 17.4539 10.1891 17.3117 10.1945M10.093 12.7132C10.063 12.8185 9.99485 12.9092 9.90156 12.9678M10.0984 10.4382C10.0831 10.4862 10.0577 10.5303 10.0237 10.5677C9.98974 10.6051 9.94809 10.6348 9.90156 10.6549C9.79766 10.6982 9.68281 10.6549 9.61719 10.6116" stroke="#703D29" stroke-width="0.075"/>
<path d="M9.33281 10.963C9.41484 11.0064 9.50234 10.9414 9.48594 10.833C9.47827 10.8017 9.46103 10.7734 9.43657 10.7521C9.41211 10.7308 9.38161 10.7174 9.34922 10.7139" stroke="#703D29" stroke-width="0.075" stroke-linecap="round"/>
<path d="M9.68281 15.5242C9.69922 15.5405 9.70469 15.5621 9.72656 15.5675C9.76484 15.5784 9.79219 15.5892 9.83047 15.5405C9.87422 15.4809 9.84687 15.3888 9.80312 15.3292C9.76283 15.2881 9.71042 15.2607 9.65343 15.251C9.59644 15.2413 9.5378 15.2497 9.48594 15.275C9.44219 15.3021 9.39297 15.3292 9.34375 15.3942L9.28359 15.4809C9.24531 15.5405 9.2289 15.5892 9.22344 15.6109C9.11406 15.9305 9.24531 16.2609 9.44765 16.4613" stroke="#703D29" stroke-width="0.075"/>
<path d="M14.6047 17.7559L14.643 17.7992L14.6539 17.8479C14.6703 17.9292 14.6156 17.9779 14.5445 17.9888C14.457 17.9996 14.3914 17.9454 14.3641 17.8804" stroke="#703D29" stroke-width="0.075" stroke-linecap="round"/>
<path d="M17.2953 8.38477C17.3883 8.39852 17.4735 8.44387 17.5363 8.51306C17.5992 8.58224 17.6358 8.67094 17.6398 8.76393C17.6398 9.00227 17.5578 9.08893 17.432 9.26227C17.2953 9.44643 16.8469 9.78227 16.8469 10.1668C16.8469 10.3998 16.9125 10.546 17.082 10.6218C17.1914 10.676 17.3172 10.6218 17.3773 10.5677C17.5195 10.4377 17.4594 10.2156 17.3117 10.1885C17.1367 10.156 17.0984 10.4377 17.2734 10.4214M18.2523 14.1589C18.2435 14.1135 18.2191 14.0725 18.1832 14.0429C18.1473 14.0133 18.1022 13.9968 18.0555 13.9964C18.0018 13.9964 17.9503 14.0175 17.9124 14.0551C17.8744 14.0927 17.8531 14.1437 17.8531 14.1968C17.8531 14.251 17.875 14.3052 17.9078 14.3377" stroke="#703D29" stroke-width="0.075"/>
<path d="M16.9945 10.5674C16.9476 10.6041 16.9098 10.6511 16.8842 10.7046C16.8586 10.7582 16.8458 10.8169 16.8469 10.8761C16.8469 11.044 16.9891 11.3203 17.3391 11.4178C17.4703 11.4557 17.6016 11.4503 17.6781 11.4015M9.14687 10.8436C9.04098 10.8771 8.94888 10.9436 8.88438 11.0332C8.7541 11.2378 8.71084 11.4851 8.76406 11.7211C8.78586 11.8293 8.82857 11.9323 8.88984 12.0245C8.90589 12.0478 8.9242 12.0696 8.94453 12.0895L9.01016 12.1436M12.5102 17.127C12.7781 17.2407 12.9695 17.3274 13.1336 17.5874C13.178 17.6688 13.2006 17.7602 13.1992 17.8528C13.1992 17.999 13.1445 18.1615 13.0188 18.2645C12.9693 18.3078 12.9109 18.34 12.8476 18.3587C12.7843 18.3774 12.7177 18.3822 12.6523 18.3728C12.5484 18.362 12.45 18.2861 12.4336 18.232M9.89062 12.1382C10.0383 12.2574 10.1039 12.3657 10.1039 12.5445C10.1072 12.6253 10.0887 12.7056 10.0502 12.777C10.0118 12.8484 9.9548 12.9084 9.88516 12.9507" stroke="#703D29" stroke-width="0.075"/>
<path d="M9.75391 12.8047C9.97266 13.0809 10.0984 13.2434 10.1039 13.5684C10.1094 13.8772 10.0109 14.0884 9.83047 14.3105" stroke="#703D29" stroke-width="0.075" stroke-linecap="round"/>
<path d="M14.0359 9.17079C14.0759 9.14122 14.1048 9.09928 14.118 9.05163C14.1453 8.97038 14.1453 8.89996 14.107 8.83496C14.1617 8.91079 14.1617 8.97038 14.1453 9.05163C14.1398 9.10579 14.1016 9.13288 14.0578 9.17621M16.8742 13.84V14.7175L16.8687 14.8529C16.8641 14.8837 16.8586 14.9144 16.8523 14.945" stroke="#703D29" stroke-width="0.075"/>
<path d="M16.8578 13.7579V14.8358L16.8305 14.9766M16.8578 12.6475V13.4383M16.8742 12.7125V13.3516M16.8742 11.9V12.3766M16.8578 11.8404V12.4362M16.8742 11.4071V11.5966M16.8578 11.3691V11.64M16.7594 15.1716L16.7375 15.2096C16.6831 15.3256 16.607 15.4303 16.5133 15.5183C16.42 15.6095 16.3106 15.6829 16.1906 15.735C16.0783 15.791 15.9587 15.8311 15.8352 15.8541C15.6875 15.8866 15.6055 15.8975 15.4578 15.9029C15.3211 15.9029 15.2445 15.9029 15.1133 15.8921C14.9656 15.8812 14.8891 15.865 14.7414 15.8487C14.6211 15.8379 14.5555 15.8325 14.4352 15.8325C14.3148 15.8325 14.2438 15.8325 14.1234 15.8541C14.0259 15.8678 13.9304 15.8933 13.8391 15.93C13.6914 15.9896 13.5273 16.0925 13.4891 16.1358C13.4562 16.0925 13.2867 15.9896 13.1445 15.93C13.0532 15.8933 12.9577 15.8678 12.8602 15.8541C12.7398 15.8325 12.6688 15.8325 12.543 15.8325C12.4227 15.8325 12.357 15.8379 12.2367 15.8487C12.0945 15.865 12.018 15.8812 11.8703 15.8921C11.7336 15.9029 11.657 15.9083 11.5258 15.9029C11.2709 15.901 11.0192 15.8456 10.7875 15.7404C10.6689 15.6862 10.5614 15.6109 10.4703 15.5183C10.4205 15.4717 10.3747 15.421 10.3336 15.3666M10.2242 15.1933C10.2332 15.2677 10.2266 15.343 10.205 15.4148C10.1834 15.4865 10.1471 15.5531 10.0984 15.6104C10.0547 15.6591 9.95625 15.7512 9.825 15.7512C9.62266 15.7512 9.5625 15.6158 9.55156 15.5779" stroke="#703D29" stroke-width="0.075"/>
<path d="M9.97813 15.1074C10.0164 15.1453 10.0492 15.1887 10.082 15.2428C10.1367 15.3403 10.1148 15.5028 10.0766 15.5787C10.0715 15.5862 10.066 15.5934 10.0602 15.6003M8.95 16.5753C9.07578 16.7053 9.26172 16.8462 9.54609 16.9599C9.93438 17.1224 10.5359 17.1549 10.9516 17.1766C11.4984 17.1928 12.007 17.2145 12.3188 17.5558M13.2648 17.3391C13.3652 17.4154 13.4412 17.5189 13.4836 17.637M13.0844 18.2599C13.0724 18.2733 13.0596 18.286 13.0461 18.2978C12.9973 18.3405 12.9398 18.3722 12.8775 18.3909C12.8152 18.4096 12.7496 18.4148 12.6852 18.4062C12.5758 18.3953 12.4773 18.3195 12.45 18.2653M12.1547 18.1083L12.1711 18.1299C12.2438 18.2071 12.3436 18.2536 12.45 18.2599M13.9266 18.2599C13.8198 18.4066 13.674 18.521 13.5055 18.5903C13.3384 18.5209 13.1944 18.4064 13.0898 18.2599L13.0734 18.2328M13.9266 18.2545L13.9648 18.2924C14.0143 18.3358 14.0727 18.368 14.136 18.3867C14.1993 18.4054 14.2659 18.4102 14.3313 18.4008C14.3756 18.3957 14.4182 18.3809 14.456 18.3575C14.4939 18.334 14.526 18.3026 14.55 18.2653L14.5773 18.2274" stroke="#703D29" stroke-width="0.075"/>
<path d="M14.5391 18.2324L14.5008 18.2974L14.4406 18.3516L14.3477 18.3895H14.2602" stroke="#703D29" stroke-width="0.075"/>
<path d="M14.7578 17.62C14.814 17.6608 14.8591 17.7148 14.8891 17.7771C14.9055 17.815 14.9109 17.8584 14.9164 17.9017C14.9186 17.9431 14.9124 17.9845 14.8984 18.0236C14.8843 18.0626 14.8625 18.0985 14.8344 18.1292C14.7966 18.1695 14.751 18.2019 14.7002 18.2242C14.6494 18.2466 14.5946 18.2585 14.5391 18.2592C14.5318 18.2595 14.5245 18.2595 14.5172 18.2592M14.5281 18.2484C14.4749 18.2498 14.4219 18.24 14.3729 18.2194C14.3238 18.1988 14.2798 18.1681 14.2438 18.1292M17.7273 14.4513C17.6207 14.3512 17.532 14.234 17.4648 14.1046C17.4234 14.0276 17.3922 13.9457 17.3719 13.8609C17.3544 13.8028 17.3452 13.7427 17.3445 13.6821C17.3385 13.3866 17.4265 13.0966 17.5961 12.8534C17.6344 12.81 17.6727 12.7559 17.7109 12.7342M17.6398 8.62294C17.7766 8.63378 17.9023 8.78544 17.9023 8.93169C17.9023 9.13753 17.8313 9.22961 17.6617 9.43544C17.5195 9.60878 17.082 9.92294 17.0984 10.2209C17.0984 10.275 17.1258 10.3292 17.1586 10.3725M16.9836 10.5621C17.0153 10.5935 17.0523 10.6192 17.093 10.6379C17.1309 10.6528 17.1717 10.659 17.2124 10.6562C17.2531 10.6534 17.2926 10.6416 17.3281 10.6217M16.1797 8.28711C16.2327 8.32156 16.2745 8.37047 16.3 8.42794C16.3984 8.67169 16.1797 8.85586 15.9719 8.99128C15.835 9.08196 15.6803 9.14289 15.518 9.17003" stroke="#703D29" stroke-width="0.075"/>
<path d="M15.9391 8.75366C15.9066 8.75275 15.8747 8.74504 15.8455 8.73104C15.8163 8.71703 15.7904 8.69705 15.7695 8.67241C15.7536 8.65679 15.7406 8.63844 15.7312 8.61824M14.9109 8.88366C14.8861 8.86944 14.8639 8.85112 14.8453 8.82949C14.7906 8.77533 14.7633 8.70491 14.8016 8.59116C14.8344 8.48824 15.0039 8.20116 15.0094 8.00074C15.0203 7.69741 14.9 7.51324 14.7195 7.44824" stroke="#703D29" stroke-width="0.075"/>
<path d="M14.993 7.93555L14.9875 8.04388L14.9547 8.16305L14.9 8.32555L14.8453 8.42846L14.8016 8.53138L14.7797 8.6018L14.7688 8.65596L14.7742 8.70471M16.8523 15.546L16.8852 15.5893C16.9234 15.6435 17.0602 15.7518 17.1859 15.7518C17.3883 15.7518 17.4375 15.611 17.443 15.5785C17.4703 15.4214 17.4156 15.3835 17.3336 15.3347C17.3336 15.3347 17.2898 15.313 17.2297 15.3239" stroke="#703D29" stroke-width="0.075" stroke-linecap="round"/>
<path d="M8.96094 14.8633C8.89475 14.8815 8.82479 14.8815 8.7586 14.8633C8.6 14.8145 8.47422 14.6683 8.53985 14.4841M9.27266 12.7616C9.28906 12.7779 9.29453 12.7995 9.29453 12.8158C9.31641 13.0216 9.14141 13.0758 9.0211 13.0433C8.95348 13.0219 8.89549 12.9778 8.85703 12.9187C8.83358 12.8812 8.82039 12.8382 8.81875 12.7941M10.0219 11.5158C10.0547 11.5429 10.0766 11.57 10.093 11.6079M10.0328 11.1475C10.0602 11.1691 10.082 11.1962 10.093 11.2179" stroke="#703D29" stroke-width="0.075"/>
<path d="M10.1039 11.4023C10.0824 11.4502 10.0528 11.4942 10.0164 11.5323C9.95492 11.5985 9.88064 11.6517 9.79797 11.689C9.71531 11.7262 9.62593 11.7466 9.53516 11.7489C9.42578 11.7489 9.31641 11.7273 9.20703 11.6568C9.0984 11.5864 9.02036 11.4782 8.98828 11.3535" stroke="#703D29" stroke-width="0.075" stroke-linecap="round"/>
<path d="M9.96719 10.5791C10.027 10.6276 10.0723 10.6912 10.0984 10.7633" stroke="#703D29" stroke-width="0.075"/>
<path d="M10.0984 11.0068C10.0492 11.1693 9.90703 11.3643 9.62813 11.4348C9.49688 11.4673 9.32188 11.4239 9.26719 11.3806" stroke="#703D29" stroke-width="0.075" stroke-linecap="round"/>
<path d="M9.125 10.9743C9.14141 11.1152 9.23437 11.2235 9.42031 11.2235C9.67734 11.2289 9.83594 10.8606 9.60625 10.6006" stroke="#703D29" stroke-width="0.075"/>
<path d="M8.54531 12.2147C8.58359 12.2635 8.62734 12.3068 8.67656 12.3447C8.77239 12.426 8.88408 12.4869 9.00469 12.5235M9.28906 12.5506C9.51875 12.5235 9.65 12.3502 9.61719 12.1552C9.60078 12.0035 9.46406 11.8843 9.36562 11.8789" stroke="#703D29" stroke-width="0.075" stroke-linecap="round"/>
<path d="M9.66094 10.1885C9.76484 10.1885 9.825 10.2751 9.81953 10.351" stroke="#703D29" stroke-width="0.075"/>
<path d="M9.63906 8.8291C9.69023 8.9637 9.78684 9.07662 9.9125 9.14868M17.7984 10.8279C17.8914 10.9524 17.8312 11.207 17.5797 11.207C17.5303 11.2075 17.4817 11.1953 17.4385 11.1716C17.3954 11.1478 17.3592 11.1134 17.3336 11.0716" stroke="#703D29" stroke-width="0.075" stroke-linecap="round"/>
<path d="M16.8742 9.15918V10.0204" stroke="#703D29" stroke-width="0.075"/>
<path d="M9.33281 10.9582C9.40938 11.0124 9.51328 10.9203 9.46953 10.8174C9.44219 10.7524 9.34922 10.6766 9.2125 10.7686C9.05938 10.8716 9.10313 11.1911 9.3875 11.1966C9.64453 11.1966 9.80313 10.8282 9.57344 10.5682C9.35469 10.3191 8.95547 10.3732 8.69844 10.5791C8.50044 10.7417 8.36205 10.9644 8.30469 11.2128C8.27003 11.3772 8.27003 11.5468 8.30469 11.7111C8.33218 11.8558 8.38791 11.9938 8.46875 12.1174L8.53984 12.2095C8.58359 12.2528 8.59453 12.2745 8.64922 12.3178C8.80619 12.4538 9.00956 12.5255 9.21797 12.5182C9.46953 12.5074 9.61719 12.3341 9.58984 12.1228C9.56797 11.917 9.36016 11.8141 9.22344 11.9116C9.13047 11.9766 9.09766 12.177 9.26172 12.2257C9.34922 12.2528 9.43125 12.1336 9.37109 12.0632M16.4531 8.17406C16.6008 8.09823 16.7156 8.10906 16.7977 8.22823C16.8764 8.34221 16.9078 8.48192 16.8852 8.61823C16.864 8.74325 16.7956 8.8556 16.6937 8.9324" stroke="#703D29" stroke-width="0.075" stroke-linecap="round"/>
<path d="M16.8086 8.23356C16.9781 8.12523 17.1641 8.17398 17.2625 8.32023C17.3336 8.42856 17.3555 8.51523 17.35 8.65064C17.3448 8.75303 17.3135 8.85243 17.2589 8.93958C17.2044 9.02672 17.1285 9.09876 17.0383 9.14898" stroke="#703D29" stroke-width="0.075" stroke-linecap="round"/>
<path d="M17.6016 8.62305C17.7438 8.63388 17.8531 8.75846 17.8531 8.8993C17.8531 9.10513 17.7984 9.19721 17.6344 9.40305C17.4867 9.5818 17.0547 9.89055 17.0656 10.1939C17.0656 10.3076 17.1641 10.4105 17.2461 10.4214" stroke="#703D29" stroke-width="0.075"/>
<path d="M17.6234 10.9579C17.5414 11.0121 17.443 10.9254 17.4867 10.8279C17.5141 10.7629 17.607 10.6763 17.7438 10.7683C17.8914 10.8713 17.8531 11.1908 17.5633 11.1963C17.3063 11.1963 17.1258 10.8388 17.3773 10.5679C17.5961 10.3188 18.0172 10.3675 18.2797 10.5733C18.3891 10.66 18.6133 10.8983 18.6625 11.2233C18.7172 11.6025 18.7117 12.0683 18.3125 12.3608C18.1484 12.4746 17.9297 12.5288 17.7328 12.5233C17.4813 12.5125 17.3336 12.3338 17.3609 12.1225C17.3883 11.9167 17.5797 11.83 17.7273 11.9113C17.8805 11.9925 17.8531 12.2038 17.6891 12.2254C17.5961 12.2363 17.5195 12.1333 17.5797 12.0629" stroke="#703D29" stroke-width="0.075" stroke-linecap="round"/>
<path d="M17.4867 10.8279C17.5305 10.6383 17.6891 10.6221 17.8258 10.6221C18.1812 10.6275 18.4328 11.0554 18.4383 11.4617C18.4383 11.9762 18.2195 12.285 17.8367 12.3012C17.7328 12.3012 17.5633 12.2579 17.5633 12.1387" stroke="#703D29" stroke-width="0.075"/>
<path d="M17.7109 10.7412C18.0883 10.8279 18.2195 11.1637 18.2195 11.4887C18.2195 11.7541 18.1922 12.117 17.6727 12.2416" stroke="#703D29" stroke-width="0.075" stroke-linecap="square"/>
<path d="M18.3344 14.3705C18.3405 14.3339 18.3367 14.2963 18.3234 14.2616C18.3102 14.2268 18.2879 14.1961 18.2588 14.1726C18.2298 14.1491 18.195 14.1336 18.158 14.1277C18.121 14.1218 18.083 14.1256 18.048 14.1388C18.0129 14.1521 17.982 14.1742 17.9584 14.203C17.9347 14.2319 17.9192 14.2663 17.9133 14.303C17.9074 14.3397 17.9114 14.3773 17.9248 14.412C17.9382 14.4466 17.9607 14.4772 17.9898 14.5005" stroke="#703D29" stroke-width="0.075"/>
<path d="M17.5687 14.0508C17.6453 14.1591 17.7328 14.2729 17.9133 14.3758M17.8422 14.9445C17.6672 14.8254 17.3227 14.6737 17.0219 14.8254C16.9671 14.846 16.9173 14.8779 16.8758 14.919C16.8343 14.9601 16.8021 15.0094 16.7813 15.0637C16.7524 15.1507 16.7463 15.2436 16.7635 15.3336C16.7807 15.4235 16.8207 15.5077 16.8797 15.5783C16.9289 15.6324 17.0273 15.7191 17.1531 15.7245C17.3609 15.7245 17.4102 15.5837 17.4156 15.5512C17.4375 15.3995 17.35 15.3399 17.3063 15.3291C17.268 15.3129 17.1531 15.3183 17.1312 15.3995C17.1203 15.4266 17.1203 15.4699 17.1422 15.5079" stroke="#703D29" stroke-width="0.075" stroke-linecap="round"/>
<path d="M14.6211 17.7879C14.6758 17.907 14.6102 17.9612 14.5336 17.972C14.4133 17.9883 14.3531 17.8962 14.3477 17.8095C14.3454 17.7773 14.3498 17.745 14.3606 17.7146C14.3713 17.6841 14.3882 17.6561 14.4102 17.6323C14.4322 17.6085 14.4588 17.5894 14.4885 17.5761C14.5182 17.5628 14.5502 17.5556 14.5828 17.5549C14.7086 17.5549 14.807 17.6362 14.8562 17.7445C14.8727 17.7824 14.8836 17.8258 14.8836 17.8745C14.888 17.9556 14.8606 18.0352 14.807 18.0966C14.7697 18.1379 14.7243 18.1713 14.6735 18.1946C14.6227 18.2179 14.5677 18.2306 14.5117 18.232C14.282 18.2374 14.1016 18.0262 14.1016 17.8095C14.1016 17.3924 14.725 17.1595 14.9766 17.1054C15.2972 17.0273 15.6254 16.9837 15.9555 16.9754C16.1469 16.9699 16.2945 16.9754 16.5078 16.9483C16.6992 16.932 16.8031 16.9212 17 16.8779C17.2565 16.8245 17.4942 16.7049 17.6891 16.5312C17.8477 16.3849 17.9352 16.2874 18.0117 16.087C18.0544 15.9637 18.0701 15.8328 18.0578 15.703C18.0455 15.5732 18.0056 15.4475 17.9406 15.3341C17.8805 15.2349 17.7986 15.1504 17.7012 15.0867C17.6037 15.0229 17.493 14.9816 17.3773 14.9658C17.175 14.9387 16.9945 15.0254 16.8852 15.2258C16.8305 15.3233 16.8523 15.4858 16.8906 15.5616C16.9175 15.608 16.9555 15.6471 17.0013 15.6754C17.0471 15.7038 17.0992 15.7205 17.1531 15.7241C17.3609 15.7241 17.4102 15.5833 17.4156 15.5508C17.4375 15.3991 17.35 15.3395 17.3063 15.3233C17.268 15.3124 17.1531 15.3179 17.1312 15.3991C17.1203 15.4262 17.1203 15.4695 17.1422 15.5074" stroke="#703D29" stroke-width="0.075" stroke-linecap="round"/>
<path d="M14.4406 17.127C14.1781 17.2407 13.9812 17.3274 13.8172 17.5874C13.7725 17.6687 13.7499 17.7602 13.7516 17.8528C13.7516 17.999 13.8117 18.1615 13.932 18.2645C13.9815 18.3078 14.0399 18.34 14.1032 18.3587C14.1664 18.3774 14.2331 18.3822 14.2984 18.3728C14.4078 18.362 14.5008 18.2861 14.5172 18.232" stroke="#703D29" stroke-width="0.075" stroke-linecap="round"/>
<path d="M17.0602 12.1387C16.9344 12.182 16.8469 12.3662 16.8469 12.5449C16.8436 12.6258 16.8621 12.7061 16.9005 12.7775C16.939 12.8489 16.996 12.9088 17.0656 12.9512" stroke="#703D29" stroke-width="0.075"/>
<path d="M17.1969 12.8047C16.9781 13.0809 16.8523 13.2434 16.8469 13.5684C16.8469 13.8772 16.9398 14.0884 17.1258 14.3105" stroke="#703D29" stroke-width="0.075" stroke-linecap="round"/>
<path d="M16.0102 8.23315L16.0266 8.20606C16.1195 8.07606 16.2836 8.03815 16.4039 8.12481C16.5461 8.23315 16.5844 8.41731 16.5461 8.61231C16.5187 8.73148 16.4367 8.8344 16.3273 8.91023" stroke="#703D29" stroke-width="0.075"/>
<path d="M10.4977 8.16815C10.3555 8.10315 10.2406 8.11398 10.1531 8.22232C10.1106 8.27701 10.0807 8.34029 10.0656 8.40768C10.0505 8.47507 10.0505 8.54493 10.0656 8.61232C10.0984 8.75857 10.1422 8.81815 10.257 8.92648" stroke="#703D29" stroke-width="0.075" stroke-linecap="round"/>
<path d="M10.1422 8.2334C10.1071 8.20826 10.0672 8.19052 10.0249 8.18125C9.9826 8.17198 9.93884 8.17139 9.89631 8.17951C9.85379 8.18763 9.81339 8.20429 9.77761 8.22846C9.74183 8.25263 9.71143 8.28381 9.68828 8.32006C9.62029 8.41635 9.58926 8.53353 9.60078 8.65048C9.61172 8.87798 9.75391 9.06215 9.91797 9.14881" stroke="#703D29" stroke-width="0.075"/>
<path d="M9.65547 8.38477C9.56646 8.39519 9.48425 8.4371 9.42396 8.50278C9.36367 8.56847 9.32936 8.65351 9.32734 8.74227C9.32734 8.98602 9.38203 9.08352 9.51875 9.26227C9.65547 9.44643 10.1039 9.78227 10.1039 10.1668C10.1039 10.3998 10.0383 10.546 9.86875 10.6218C9.75937 10.676 9.63359 10.6218 9.57344 10.5677C9.43125 10.4377 9.49141 10.2156 9.63906 10.1885C9.81953 10.156 9.85234 10.4377 9.67734 10.4214" stroke="#703D29" stroke-width="0.075"/>
<path d="M9.34375 8.62305C9.20703 8.63388 9.07031 8.74763 9.07031 8.89388C9.07031 9.09971 9.15234 9.19721 9.32188 9.40305C9.46406 9.5818 9.87422 9.89055 9.86328 10.1885C9.86328 10.2968 9.78125 10.4376 9.70469 10.4214" stroke="#703D29" stroke-width="0.075"/>
<path d="M9.01562 12.7889C9.08672 12.6318 9.25625 12.7022 9.26719 12.7889C9.28906 12.9893 9.11406 13.0489 8.98828 13.0164C8.95919 13.0086 8.93203 12.995 8.9085 12.9763C8.88498 12.9577 8.86559 12.9344 8.85156 12.908C8.83463 12.8777 8.82397 12.8444 8.82022 12.81C8.81646 12.7756 8.81968 12.7408 8.82969 12.7076C8.84043 12.6759 8.85713 12.6465 8.87891 12.6209C8.89688 12.5957 8.91908 12.5737 8.94453 12.5559C8.99922 12.5234 9.04844 12.5234 9.13047 12.5234C9.43125 12.5234 9.69922 12.8755 9.78672 13.2493C9.81953 13.3684 9.85781 13.6447 9.80312 13.8993C9.75923 14.1293 9.64908 14.3419 9.48594 14.5114C9.32998 14.6557 9.143 14.7631 8.93906 14.8255C8.86992 14.8473 8.79596 14.8492 8.72578 14.8309C8.57266 14.7822 8.47422 14.6414 8.55078 14.4518C8.61641 14.3109 8.84609 14.2351 8.95 14.4193C8.96094 14.4355 8.97187 14.468 8.97187 14.5005C8.97187 14.5493 8.95 14.6089 8.91719 14.6305C8.84062 14.6793 8.71484 14.663 8.72031 14.5222" stroke="#703D29" stroke-width="0.075" stroke-linecap="round"/>
<path d="M8.78594 14.6463C8.84063 14.668 8.87344 14.6625 8.94453 14.6355L9.04297 14.5813C9.18516 14.5 9.34922 14.3755 9.50234 14.0884C9.54374 14.0114 9.57499 13.9295 9.59531 13.8446C9.61172 13.7905 9.62266 13.7255 9.62813 13.6659C9.63249 13.3689 9.54047 13.0784 9.36563 12.8371C9.30547 12.7505 9.25625 12.7017 9.13594 12.6963M8.61641 14.3755C8.60945 14.3388 8.61242 14.301 8.62501 14.2658C8.6376 14.2307 8.65936 14.1994 8.68808 14.1753C8.71681 14.1512 8.75147 14.135 8.78854 14.1285C8.82562 14.1219 8.86378 14.1252 8.89916 14.138C8.93454 14.1508 8.96586 14.1726 8.98995 14.2013C9.01404 14.23 9.03004 14.2644 9.03632 14.3012C9.04259 14.338 9.03892 14.3758 9.02568 14.4107C9.01244 14.4456 8.99011 14.4764 8.96094 14.5" stroke="#703D29" stroke-width="0.075"/>
<path d="M8.69844 14.1586C8.70744 14.1123 8.73268 14.0706 8.7697 14.0408C8.80671 14.0111 8.85313 13.9953 8.90078 13.9961C8.95349 13.9975 9.00357 14.0193 9.04034 14.0567C9.07711 14.0941 9.09767 14.1443 9.09766 14.1965C9.09808 14.2487 9.07854 14.299 9.04297 14.3374" stroke="#703D29" stroke-width="0.075"/>
<path d="M9.09219 14.1538C9.19746 14.0756 9.28291 13.9742 9.34176 13.8576C9.40061 13.741 9.43125 13.6124 9.43125 13.4821C9.43125 13.26 9.34375 13.0271 9.23437 12.9404" stroke="#703D29" stroke-width="0.075"/>
<path d="M9.38203 14.0508C9.29861 14.1877 9.17963 14.2999 9.0375 14.3758" stroke="#703D29" stroke-width="0.075" stroke-linecap="round"/>
<path d="M9.92344 14.8258C9.86875 14.7066 9.77031 14.6525 9.60625 14.6362C9.44219 14.62 9.30547 14.6633 9.15781 14.7391C8.9805 14.8202 8.83051 14.9502 8.72578 15.1135C8.62104 15.2768 8.56599 15.4665 8.56719 15.66C8.56935 15.8369 8.60651 16.0117 8.67656 16.1745C8.72578 16.2612 8.84063 16.662 9.51328 16.9329C9.96828 17.0733 10.4422 17.1446 10.9188 17.1441C11.4875 17.1658 12.0125 17.1875 12.3188 17.5558" stroke="#703D29" stroke-width="0.075"/>
<path d="M9.10859 14.9446C9.28906 14.8254 9.62812 14.6737 9.93437 14.8254C9.98751 14.8478 10.0356 14.8804 10.076 14.9213C10.1164 14.9622 10.1482 15.0106 10.1695 15.0637C10.1984 15.1507 10.2045 15.2436 10.1873 15.3336C10.1701 15.4236 10.1301 15.5078 10.0711 15.5783C10.0219 15.6325 9.92344 15.7191 9.79766 15.7246C9.58984 15.7246 9.54062 15.5837 9.53516 15.5512C9.51328 15.3996 9.60078 15.34 9.64453 15.3237C9.68281 15.3129 9.79766 15.3183 9.81953 15.3996C9.83047 15.4266 9.83047 15.47 9.80859 15.5079" stroke="#703D29" stroke-width="0.075" stroke-linecap="round"/>
<path d="M9.81953 15.4753C9.83594 15.4211 9.83047 15.3561 9.77578 15.2965C9.73421 15.2538 9.67986 15.2254 9.62076 15.2157C9.56167 15.2059 9.50097 15.2153 9.44765 15.2423C9.40937 15.2694 9.36015 15.2965 9.3164 15.3615C9.29453 15.3832 9.26172 15.4211 9.25078 15.4482C9.2125 15.5078 9.19609 15.5565 9.19609 15.5836C9.05937 15.9628 9.27812 16.3636 9.55156 16.5369C9.79219 16.6886 10.0328 16.7319 10.3391 16.7536C10.4758 16.7698 10.5578 16.7698 10.6945 16.7807H11.2195C11.3507 16.774 11.4821 16.774 11.6133 16.7807C11.7773 16.7969 11.8922 16.8023 12.0289 16.824C12.1164 16.8348 12.2203 16.8511 12.3242 16.8782C12.357 16.8782 12.3898 16.889 12.4227 16.8998L12.4883 16.9161C12.6852 16.9757 12.8711 17.0461 13.0242 17.1436C13.068 17.1707 13.1227 17.1978 13.1609 17.2357L13.232 17.3007C13.3414 17.409 13.4508 17.5173 13.4727 17.6636V17.7503C13.4727 17.8478 13.3961 17.9832 13.1828 18.0211" stroke="#703D29" stroke-width="0.075"/>
<path d="M12.3297 17.7879C12.275 17.907 12.3406 17.9612 12.4172 17.972C12.5375 17.9883 12.5977 17.8962 12.6086 17.8095C12.6108 17.7769 12.6063 17.7441 12.5952 17.7133C12.5841 17.6825 12.5668 17.6543 12.5442 17.6304C12.5216 17.6065 12.4943 17.5875 12.464 17.5745C12.4337 17.5615 12.401 17.5549 12.368 17.5549C12.3086 17.5563 12.2509 17.575 12.2023 17.6087C12.1536 17.6425 12.1161 17.6897 12.0945 17.7445C12.0777 17.7859 12.0684 17.8299 12.0672 17.8745C12.0628 17.9556 12.0902 18.0352 12.1438 18.0966C12.181 18.1379 12.2265 18.1713 12.2773 18.1946C12.3281 18.2179 12.3831 18.2306 12.4391 18.232C12.6687 18.2374 12.8492 18.0262 12.8492 17.8095C12.8492 17.3924 12.2258 17.1595 11.9742 17.1054C11.6536 17.0273 11.3254 16.9837 10.9953 16.9754C10.8039 16.9699 10.6562 16.9754 10.443 16.9483C10.2516 16.932 10.1477 16.9212 9.95078 16.8779C9.69621 16.8236 9.46049 16.704 9.26719 16.5312C9.08512 16.3977 8.95853 16.2029 8.9112 15.9835C8.86387 15.7641 8.89906 15.5351 9.01016 15.3395C9.06971 15.2394 9.15127 15.1537 9.24878 15.089C9.34629 15.0243 9.45725 14.9822 9.57344 14.9658C9.78125 14.9387 9.95625 15.0254 10.0656 15.2258C10.1203 15.3233 10.0984 15.4858 10.0602 15.5616C10.0333 15.608 9.99526 15.6471 9.94947 15.6754C9.90368 15.7038 9.85153 15.7205 9.79766 15.7241C9.58984 15.7241 9.54062 15.5833 9.53516 15.5508C9.51328 15.3991 9.60078 15.3395 9.64453 15.3233C9.68281 15.3124 9.79766 15.3179 9.81953 15.3991C9.83047 15.4262 9.83047 15.4695 9.80859 15.5074" stroke="#703D29" stroke-width="0.075"/>
<path d="M10.9461 8.23315L10.9242 8.20606C10.8313 8.07606 10.6672 8.03815 10.5469 8.12481C10.4047 8.23315 10.3664 8.41731 10.4102 8.61231C10.4409 8.73613 10.5195 8.84308 10.6289 8.91023" stroke="#703D29" stroke-width="0.075" stroke-linecap="round"/>
<path d="M16.0594 8.64491C15.8406 8.88325 15.6164 8.95908 15.2883 8.96991C15.1789 8.96991 14.9875 8.93741 14.8727 8.85616C14.8016 8.802 14.7195 8.71533 14.7687 8.55825C14.8016 8.45533 14.9711 8.16825 14.9766 7.96783C14.993 7.6645 14.8727 7.49658 14.6867 7.43158C14.3477 7.31241 13.9758 7.64825 13.757 7.72408C13.6422 7.762 13.582 7.76741 13.4781 7.76741C13.3687 7.76741 13.3141 7.762 13.1937 7.72408C12.975 7.64825 12.6086 7.31241 12.2641 7.43158C12.0781 7.49658 11.9633 7.6645 11.9742 7.97325C11.9797 8.16825 12.1492 8.46075 12.182 8.55825C12.2367 8.71533 12.1547 8.802 12.0781 8.85616C11.9687 8.93741 11.7664 8.96991 11.668 8.9645C11.3398 8.95908 11.1156 8.88325 10.8969 8.64491" stroke="#703D29" stroke-width="0.075"/>
<path d="M12.2586 17.0303C12.3023 17.0465 12.2695 17.0194 12.5484 17.1386C12.8031 17.2262 13.0208 17.396 13.1664 17.6207C13.2304 17.7423 13.2479 17.8827 13.2156 18.0161" stroke="#703D29" stroke-width="0.075" stroke-linecap="round"/>
<path d="M12.2805 18.2002C12.3347 18.2284 12.3943 18.245 12.4555 18.2489C12.6852 18.2543 12.8656 18.0431 12.8656 17.8264C12.8656 17.6748 12.7836 17.5448 12.6687 17.4473" stroke="#703D29" stroke-width="0.075"/>
<path d="M12.3297 17.7882C12.275 17.9128 12.3516 17.9778 12.4281 17.9886C12.5484 17.9995 12.6141 17.9128 12.625 17.8261C12.6283 17.7809 12.6188 17.7356 12.5975 17.6954C12.5763 17.6552 12.5441 17.6217 12.5047 17.5986" stroke="#703D29" stroke-width="0.075" stroke-linecap="round"/>
<path d="M17.3336 8.38477C17.5086 8.38477 17.6617 8.57977 17.6617 8.77477C17.6617 9.00768 17.5414 9.14852 17.4484 9.25143C17.3773 9.3381 17.3008 9.41393 17.2078 9.50602" stroke="#703D29" stroke-width="0.075"/>
<path d="M17.1258 8.20118C17.1853 8.23358 17.2375 8.27785 17.2789 8.33118C17.35 8.43952 17.3719 8.5316 17.3664 8.66702C17.3555 8.89452 17.1914 9.0516 17.0383 9.15452M16.7812 8.20118L16.8141 8.2391C16.918 8.35827 16.9234 8.5316 16.9016 8.6291C16.8893 8.68946 16.8645 8.74663 16.8287 8.79699C16.7929 8.84734 16.747 8.88978 16.6937 8.9216M16.4203 8.1416C16.5625 8.24993 16.6062 8.4341 16.557 8.6291C16.5242 8.76452 16.4367 8.84577 16.3273 8.91077M16.9344 11.137C16.9508 11.1912 16.9836 11.2074 17.0164 11.2454C17.1103 11.3375 17.2274 11.4029 17.3555 11.4349C17.4867 11.4729 17.607 11.4458 17.7 11.3862M8.78594 14.3112C8.85156 14.3112 8.92266 14.3599 8.96641 14.4358C8.97188 14.4466 8.98828 14.4791 8.98828 14.517C8.98828 14.5658 8.96641 14.6145 8.93359 14.6362C8.85156 14.6904 8.71484 14.6633 8.71484 14.5279" stroke="#703D29" stroke-width="0.075" stroke-linecap="round"/>
<path d="M9.20703 12.5283C9.48047 12.5825 9.7375 12.9021 9.81953 13.2487C9.85234 13.3733 9.89062 13.6442 9.83594 13.8987C9.78997 14.132 9.67587 14.3467 9.50781 14.5162C9.47258 14.5537 9.43416 14.5882 9.39297 14.6192L9.33828 14.6571M8.90078 14.0017C9.01015 14.0017 9.10859 14.1046 9.10859 14.2183C9.10902 14.2704 9.08948 14.3208 9.0539 14.3592" stroke="#703D29" stroke-width="0.075"/>
<path d="M8.82969 14.1211C8.94453 14.1211 9.05391 14.2294 9.05391 14.3486C9.05396 14.3796 9.04713 14.4102 9.0339 14.4383C9.02067 14.4664 9.00136 14.4912 8.97735 14.5111" stroke="#703D29" stroke-width="0.075"/>
<path d="M9.89062 12.9727C9.99285 13.093 10.0641 13.2361 10.0984 13.3897M10.0984 13.8502C10.0802 13.9255 10.0527 13.9982 10.0164 14.0668C9.96559 14.162 9.89904 14.248 9.81953 14.3214" stroke="#703D29" stroke-width="0.075" stroke-linecap="round"/>
<path d="M9.90703 12.1494C10.0055 12.2307 10.0711 12.3119 10.0984 12.4094" stroke="#703D29" stroke-width="0.075"/>
<path d="M10.1039 11.8893C10.0677 11.9886 10.0031 12.0752 9.91797 12.1385M9.41484 11.2068L9.53516 11.1743L9.60625 11.1202L9.65 11.0606L9.68828 10.9631L9.70469 10.8818" stroke="#703D29" stroke-width="0.075" stroke-linecap="round"/>
<path d="M9.17969 10.7949C9.14141 10.8058 9.09219 10.8166 9.04297 10.8383C8.966 10.875 8.90004 10.931 8.85156 11.0008C8.72185 11.2055 8.67863 11.4526 8.73125 11.6887C8.75304 11.7969 8.79576 11.8999 8.85703 11.992L8.91172 12.0678C8.98828 12.1383 9.05391 12.1762 9.16328 12.1599" stroke="#703D29" stroke-width="0.075"/>
<path d="M9.83594 10.2803C9.81953 10.3507 9.78125 10.4374 9.67188 10.4265" stroke="#703D29" stroke-width="0.075" stroke-linecap="round"/>
<path d="M9.43672 10.7521C9.32734 10.6492 9.10859 10.6221 8.88438 10.7629L8.79687 10.8334C8.76791 10.8591 8.7422 10.8882 8.72031 10.92C8.66231 11.0028 8.618 11.0942 8.58906 11.1909C8.55078 11.3534 8.55078 11.4942 8.55625 11.5321C8.55625 11.5863 8.56719 11.635 8.57266 11.6784C8.60547 11.83 8.64922 11.9384 8.69844 12.0142C8.74766 12.0954 8.8625 12.285 9.11953 12.3067C9.21797 12.3121 9.38203 12.2688 9.39297 12.1442" stroke="#703D29" stroke-width="0.075"/>
<path d="M15.8953 8.50454C15.9117 8.41787 16.0211 8.40162 16.0594 8.45037C16.125 8.53704 16.0812 8.67787 15.95 8.71579C15.9117 8.72261 15.8722 8.71917 15.8357 8.70584C15.7992 8.69251 15.7669 8.66977 15.7422 8.63995C15.6875 8.56954 15.693 8.48829 15.7148 8.42329C15.7258 8.37995 15.7641 8.34204 15.8078 8.30412C15.9555 8.19579 16.1961 8.21745 16.2781 8.41245C16.3766 8.65079 16.1578 8.83495 15.95 8.97037C15.6984 9.1437 15.4031 9.1762 15.1844 9.17079C14.6812 9.17079 14.3039 8.93245 14.0523 8.79162C13.9977 8.76454 13.9375 8.76995 13.9047 8.80787C13.8883 8.82981 13.8809 8.85706 13.884 8.88418C13.887 8.91129 13.9003 8.93627 13.9211 8.95412" stroke="#703D29" stroke-width="0.075" stroke-linecap="round"/>
<path d="M15.9938 8.42285C16.0484 8.42285 16.0594 8.44452 16.0758 8.46619C16.1414 8.54744 16.0922 8.68827 15.9664 8.7316M16.9398 11.5212C16.7484 11.727 16.9289 12.0791 17.0711 12.1604C17.1203 12.1983 17.1422 12.1766 17.1805 12.1983" stroke="#703D29" stroke-width="0.075" stroke-linecap="round"/>
<path d="M16.9508 11.1253C16.8906 11.1687 16.8687 11.2174 16.8633 11.3041C16.8603 11.3435 16.8656 11.3831 16.8787 11.4203C16.8919 11.4576 16.9127 11.4918 16.9398 11.5208C17.0786 11.6474 17.2598 11.7187 17.4484 11.7212C17.5578 11.7212 17.6672 11.6995 17.7766 11.6291C17.8807 11.5612 17.955 11.4566 17.9844 11.3366M16.8469 14.6841L16.8359 14.8195C16.8246 14.9517 16.7875 15.0805 16.7266 15.1987C16.67 15.3132 16.592 15.4161 16.4969 15.502C16.4036 15.5932 16.2942 15.6666 16.1742 15.7187C16.0622 15.7765 15.9426 15.8185 15.8187 15.8433C15.5812 15.8902 15.3378 15.9011 15.0969 15.8758C14.9492 15.8649 14.8727 15.8487 14.725 15.8324C14.6047 15.827 14.5391 15.8162 14.4187 15.8162C14.2151 15.8113 14.0126 15.8463 13.8227 15.9191C13.675 15.9733 13.5109 16.0816 13.4727 16.1249C13.4398 16.0762 13.2703 15.9733 13.1281 15.9191C13.0371 15.8805 12.9416 15.8532 12.8437 15.8378C12.7234 15.8162 12.6523 15.8162 12.5266 15.8162C12.4062 15.8162 12.3406 15.827 12.2203 15.8378C12.0781 15.8487 12.0016 15.8703 11.8539 15.8758C11.7172 15.8866 11.6406 15.892 11.5094 15.8866C11.3806 15.8857 11.2522 15.8712 11.1266 15.8433C11.003 15.8202 10.8834 15.7801 10.7711 15.7241C10.6526 15.6698 10.5451 15.5945 10.4539 15.502C10.3582 15.4145 10.2802 15.3097 10.2242 15.1933C10.1641 15.0767 10.127 14.9498 10.1148 14.8195C10.1039 14.7653 10.1039 14.6841 10.1039 14.6841V9.16992H16.8414V14.6841H16.8469Z" stroke="#703D29" stroke-width="0.075"/>
<path d="M9.5625 15.4695C9.5625 15.4336 9.5769 15.3992 9.60254 15.3738C9.62818 15.3484 9.66296 15.3341 9.69922 15.3341C9.73548 15.3341 9.77025 15.3484 9.79589 15.3738C9.82153 15.3992 9.83594 15.4336 9.83594 15.4695C9.83594 15.5054 9.82153 15.5399 9.79589 15.5653C9.77025 15.5907 9.73548 15.6049 9.69922 15.6049C9.66296 15.6049 9.62818 15.5907 9.60254 15.5653C9.5769 15.5399 9.5625 15.5054 9.5625 15.4695ZM8.71484 14.5162C8.71484 14.4458 8.75859 14.3916 8.81328 14.3916C8.86797 14.3916 8.90625 14.4458 8.90625 14.5162C8.90625 14.5812 8.8625 14.6354 8.81328 14.6354C8.75859 14.6354 8.71484 14.5812 8.71484 14.5162Z" fill="#C7B37F" stroke="#C7B37F" stroke-width="0.0375"/>
<path d="M9.19609 12.1114C9.19609 12.0572 9.23984 12.0139 9.28906 12.0139C9.34375 12.0139 9.38203 12.0572 9.38203 12.1114C9.38203 12.1656 9.34375 12.2089 9.28906 12.2089C9.23438 12.2089 9.19609 12.1656 9.19609 12.1114ZM10.875 8.55807C10.875 8.5039 10.9023 8.44973 10.9516 8.44973C11.0008 8.44432 11.0445 8.48223 11.05 8.5364C11.05 8.59057 11.0227 8.64473 10.9734 8.64473C10.9242 8.65015 10.8859 8.61223 10.875 8.55807Z" fill="#C7B37F"/>
<path d="M9.08672 12.6748C9.06484 12.6802 9.05391 12.6856 9.04297 12.7019C9.02656 12.7181 9.02109 12.7236 9.01016 12.7506L8.99922 12.8156M9.25625 14.2619L9.31094 14.2077L9.34375 14.1536L9.37109 14.0994L9.40937 14.029M9.33828 14.7873L9.25625 14.8252L9.19609 14.8577C9.17177 14.8711 9.14805 14.8856 9.125 14.9011L9.05937 14.9552M9.87969 12.9023L9.83594 12.859L9.78125 12.8156L9.73203 12.7723" stroke="#C7B37F" stroke-width="0.075" stroke-linecap="round"/>
<path d="M9.90156 12.1875L9.83594 12.2146C9.80957 12.2241 9.78192 12.2295 9.75391 12.2308" stroke="#C7B37F" stroke-width="0.075"/>
<path d="M8.98281 11.2883C8.99375 11.3208 8.99375 11.3425 9.01015 11.3696C9.02109 11.4075 9.0375 11.4291 9.05937 11.4616C9.09489 11.5205 9.14353 11.5705 9.20156 11.6079L9.28359 11.6512M9.2289 11.3371L9.3 11.3696C9.3518 11.3916 9.40769 11.4027 9.46406 11.4021L9.5625 11.3966M9.95625 9.19206L9.84687 9.12706C9.79765 9.09997 9.77578 9.07831 9.7375 9.04581C9.71531 9.02421 9.69518 9.00064 9.67734 8.97539L9.63359 8.90497M10.0437 8.65581L10.0766 8.74789C10.0962 8.78776 10.122 8.82432 10.1531 8.85622C10.2078 8.91039 10.2461 8.92664 10.3062 8.97539M10.3828 8.65039C10.3992 8.68831 10.3992 8.70456 10.4211 8.73706C10.432 8.76414 10.443 8.78039 10.4648 8.80206L10.5359 8.87247C10.5742 8.90497 10.6016 8.91039 10.6453 8.93206" stroke="#C7B37F" stroke-width="0.075" stroke-linecap="round"/>
<path d="M14.2273 8.21176C14.2273 8.11967 14.1344 8.11426 14.0961 8.11426C13.9977 8.11426 13.9703 8.17384 13.8445 8.23884C13.7361 8.31048 13.6085 8.34822 13.4781 8.34717C13.3478 8.34789 13.2203 8.31018 13.1117 8.23884C12.9859 8.17384 12.9641 8.11426 12.8602 8.11426C12.8436 8.11495 12.8274 8.11887 12.8124 8.12578C12.7974 8.1327 12.784 8.14247 12.7728 8.15454C12.7616 8.16662 12.7529 8.18076 12.7473 8.19615C12.7416 8.21155 12.7391 8.22789 12.7398 8.24426V8.29301L12.7562 8.30384C12.7562 8.26051 12.7617 8.23884 12.7836 8.21176C12.7943 8.19887 12.8076 8.18835 12.8227 8.18088C12.8378 8.17342 12.8543 8.16917 12.8711 8.16842C12.9695 8.16842 13.0078 8.23342 13.1336 8.29842C13.2977 8.38509 13.3633 8.40134 13.5 8.40676C13.6321 8.40856 13.7618 8.3708 13.8719 8.29842C13.9977 8.23342 14.0359 8.16301 14.1344 8.16301C14.1672 8.16301 14.1891 8.18467 14.2055 8.21717V8.26592L14.2164 8.27134C14.2164 8.25509 14.2273 8.24967 14.2273 8.21717V8.21176Z" fill="#703D29" stroke="#703D29" stroke-width="0.025"/>
<path d="M10.4594 15.9253C10.4867 15.8982 10.5086 15.9091 10.5141 15.8928C10.5141 15.882 10.5141 15.882 10.4977 15.8766L10.4484 15.8657L10.4047 15.8441C10.3992 15.8441 10.3828 15.8332 10.3773 15.8441C10.3719 15.8657 10.432 15.8657 10.4102 15.9199C10.4 15.9442 10.3852 15.9663 10.3664 15.9849L10.2242 16.1474L10.2133 16.1528V15.9199L10.2187 15.8224C10.2297 15.8007 10.2625 15.8224 10.268 15.8007C10.268 15.7953 10.268 15.7899 10.2516 15.7845C10.2406 15.7845 10.2242 15.7845 10.1914 15.7682L10.1367 15.7411C10.1258 15.7411 10.1094 15.7303 10.1039 15.7411L10.1094 15.7574C10.1312 15.7682 10.1367 15.7791 10.1367 15.8116V16.2124C10.1367 16.2395 10.1422 16.2449 10.1477 16.2503C10.1531 16.2503 10.1586 16.2503 10.1695 16.2341L10.4594 15.9253V15.9253Z" fill="#703D29"/>
<path d="M10.6289 15.9901C10.6453 15.9305 10.6836 15.9684 10.6836 15.9468C10.6891 15.9359 10.6836 15.9359 10.6727 15.9305L10.6016 15.9088C10.5797 15.9088 10.5578 15.8926 10.5359 15.8872C10.5359 15.8872 10.5195 15.8818 10.5141 15.8872C10.5086 15.9143 10.5742 15.9143 10.5578 15.9684L10.4648 16.2663C10.4484 16.3205 10.4102 16.2988 10.4047 16.3205V16.3259L10.4703 16.3476L10.5578 16.3747H10.5742C10.5852 16.353 10.5086 16.3584 10.5359 16.2826L10.6289 15.9901V15.9901ZM10.8312 16.0443C10.8422 16.0118 10.8586 16.0172 10.8805 16.0226C10.9352 16.0388 10.957 16.093 10.9352 16.158C10.9242 16.1905 10.9133 16.223 10.8258 16.2013C10.8094 16.1959 10.7875 16.1905 10.793 16.1743L10.8312 16.0497V16.0443ZM10.6781 16.3151C10.6508 16.3909 10.6125 16.3584 10.607 16.3801C10.607 16.3909 10.618 16.3909 10.6234 16.3963L10.7109 16.418L10.7547 16.4343H10.7766C10.782 16.4072 10.7219 16.418 10.7383 16.353L10.7711 16.2447C10.7766 16.223 10.7766 16.2176 10.8039 16.2284C10.8367 16.2338 10.8422 16.2447 10.8477 16.2718L10.8641 16.3801C10.875 16.4288 10.8805 16.4722 10.9187 16.4884C10.9461 16.4884 10.9844 16.4884 10.9953 16.4668L10.9844 16.4559H10.968C10.968 16.4559 10.9516 16.4559 10.9516 16.4397L10.9133 16.2447C10.9133 16.2338 10.9352 16.2338 10.957 16.2284C10.9707 16.2212 10.9826 16.2112 10.992 16.199C11.0014 16.1869 11.0081 16.1729 11.0117 16.158C11.0172 16.1309 11.0336 16.0388 10.9133 16.0009L10.7984 15.9738L10.7328 15.9522H10.7164C10.7109 15.9793 10.7766 15.9738 10.7547 16.0443L10.6727 16.3151H10.6781ZM11.1375 16.4505C11.1156 16.5263 11.0609 16.4776 11.0555 16.5047C11.0555 16.5155 11.0609 16.5209 11.0719 16.5209L11.1539 16.5372L11.2305 16.5588C11.2469 16.5588 11.2578 16.5697 11.2633 16.5534C11.2633 16.5372 11.1922 16.5372 11.2086 16.4559L11.2797 16.1743C11.2797 16.1418 11.2906 16.1418 11.3125 16.1472L11.3672 16.158C11.4273 16.1743 11.3945 16.2393 11.4219 16.2447C11.4328 16.2447 11.4328 16.223 11.4328 16.2122L11.4383 16.158V16.1363L11.2578 16.0984L11.0828 16.0551C11.0773 16.0551 11.0719 16.0551 11.0719 16.0659L11.0445 16.1472C11.0391 16.1526 11.0336 16.1688 11.0445 16.1688C11.0719 16.1743 11.0719 16.0876 11.1375 16.1038L11.1867 16.1147C11.2086 16.1201 11.2141 16.1255 11.2086 16.158L11.1375 16.4505V16.4505ZM11.832 16.2718C11.8539 16.2393 11.8758 16.2447 11.8812 16.2338C11.8812 16.223 11.8703 16.223 11.8594 16.2176H11.8102L11.7609 16.2013C11.7555 16.2013 11.7391 16.1959 11.7391 16.2068C11.7336 16.2284 11.7937 16.2176 11.7828 16.2772C11.7828 16.288 11.7773 16.3097 11.75 16.3476L11.6406 16.5263L11.6242 16.5372V16.5263L11.5859 16.3097C11.5786 16.2777 11.5768 16.2447 11.5805 16.2122C11.5805 16.1851 11.6187 16.2013 11.6187 16.1851C11.6187 16.1743 11.6187 16.1743 11.5969 16.1688L11.5367 16.1634C11.5148 16.1634 11.4984 16.1526 11.482 16.1472C11.4711 16.1472 11.4547 16.1418 11.4492 16.1526L11.4547 16.1634C11.482 16.1743 11.4875 16.1851 11.493 16.2122L11.5641 16.6076C11.5695 16.6347 11.575 16.6455 11.5805 16.6455C11.5859 16.6455 11.5914 16.6455 11.6023 16.6293L11.832 16.2718V16.2718ZM11.8648 16.6401C11.8648 16.6563 11.8648 16.6563 11.8758 16.6672C11.9086 16.678 11.9305 16.6997 11.9687 16.7051C12.0453 16.7159 12.1109 16.6672 12.1219 16.5859C12.1383 16.5047 12.1055 16.4722 12.0453 16.4288C11.9742 16.3801 11.9469 16.3693 11.9523 16.3205C11.9578 16.2826 11.9906 16.2663 12.0289 16.2663C12.1273 16.2826 12.1164 16.4072 12.1273 16.4072C12.1437 16.4072 12.1437 16.4018 12.1437 16.3855L12.1547 16.2988V16.2772H12.1219C12.1 16.2772 12.0836 16.2501 12.0344 16.2393C11.9687 16.2284 11.9086 16.2772 11.8977 16.3476C11.8867 16.4126 11.9195 16.4451 11.9633 16.4776C12.0508 16.5372 12.0836 16.5534 12.0727 16.6076C12.0672 16.6618 12.0234 16.6834 11.9797 16.678C11.9141 16.6672 11.8922 16.6022 11.8812 16.5372C11.8812 16.5263 11.8812 16.5209 11.8703 16.5209C11.8594 16.5209 11.8594 16.5372 11.8594 16.548V16.6401H11.8648ZM12.7289 16.3963C12.7453 16.3584 12.7727 16.3638 12.7727 16.3476C12.7727 16.3368 12.7672 16.3422 12.7508 16.3368H12.7016L12.6523 16.3313C12.6469 16.3313 12.6305 16.3313 12.6305 16.3422C12.6305 16.3638 12.6852 16.3422 12.6852 16.4018C12.6852 16.4126 12.6797 16.4343 12.6578 16.4776L12.5594 16.6672L12.5539 16.6834L12.5484 16.6672L12.4883 16.4505C12.4784 16.4226 12.4729 16.3934 12.4719 16.3638C12.4719 16.3368 12.5102 16.3476 12.5102 16.3313C12.5102 16.3205 12.5102 16.3205 12.4883 16.3205H12.4227L12.368 16.3097C12.357 16.3097 12.3406 16.3043 12.3352 16.3151L12.3461 16.3259C12.368 16.3368 12.3789 16.3422 12.3844 16.3693L12.4992 16.7538L12.5211 16.7918C12.5266 16.7918 12.532 16.7918 12.5375 16.7701L12.7289 16.3909V16.3963Z" fill="#703D29"/>
<path d="M12.8219 16.7107C12.8219 16.7757 12.7672 16.7649 12.7672 16.7919C12.7672 16.8028 12.7727 16.7974 12.7836 16.7974H12.9039L12.9258 16.7919C12.9258 16.7594 12.8492 16.8028 12.8492 16.6836V16.4561L12.8547 16.4507L12.8656 16.4561L13.1445 16.7974L13.1609 16.8028L13.1719 16.7865V16.4236C13.1719 16.3532 13.2266 16.3694 13.2266 16.3532C13.2266 16.3532 13.2266 16.3424 13.2102 16.3424H13.0844C13.0734 16.3424 13.0734 16.3478 13.0734 16.3532C13.0734 16.3749 13.1445 16.364 13.1445 16.4236V16.6403L13.1391 16.6619L13.1172 16.6457L12.8875 16.3586C12.8766 16.3424 12.882 16.3424 12.8656 16.3424H12.7672L12.7562 16.3478C12.7562 16.3803 12.8219 16.3369 12.8219 16.4615V16.7107V16.7107ZM13.3906 16.4128C13.3906 16.3532 13.4344 16.3749 13.4344 16.3532C13.4344 16.3478 13.4344 16.3424 13.4125 16.3424H13.2703C13.2703 16.3424 13.2539 16.3424 13.2539 16.3532C13.2539 16.3749 13.3141 16.3532 13.3141 16.4182V16.7269C13.3141 16.7865 13.2703 16.7703 13.2703 16.7919C13.2703 16.7919 13.2703 16.8028 13.2812 16.8028H13.4344C13.4453 16.8028 13.4508 16.8028 13.4508 16.7919C13.4508 16.7703 13.3852 16.8028 13.3852 16.7215L13.3906 16.4128V16.4128ZM13.6367 16.7107C13.6367 16.7919 13.5711 16.7649 13.5711 16.7865C13.5711 16.7974 13.582 16.7974 13.593 16.7974H13.757C13.7734 16.7974 13.7844 16.7974 13.7844 16.7811C13.7844 16.7649 13.7078 16.7811 13.7078 16.7053V16.4128C13.7078 16.3803 13.7078 16.3803 13.7352 16.3803H13.7898C13.8555 16.3749 13.8336 16.4453 13.8609 16.4453C13.8719 16.4453 13.8664 16.4236 13.8664 16.4128L13.8609 16.3586C13.8609 16.3478 13.8609 16.3369 13.85 16.3369L13.6695 16.3424H13.4891L13.4781 16.3586L13.4727 16.4453L13.4781 16.4669C13.5055 16.4669 13.4891 16.3803 13.5547 16.3803H13.6039C13.6258 16.3803 13.6312 16.3803 13.6367 16.4128V16.7161V16.7107ZM13.9812 16.5915H13.9594L13.9648 16.5644L14.0031 16.4453V16.4344L14.0141 16.4399L14.0687 16.5536L14.0797 16.5753C14.0797 16.5861 14.0687 16.5861 14.0578 16.5861H13.9812V16.5915ZM14.0797 16.6186C14.0961 16.6186 14.0961 16.6186 14.1234 16.6728L14.1344 16.7161C14.1344 16.754 14.0961 16.7486 14.0961 16.7703C14.0961 16.7757 14.107 16.7757 14.118 16.7703H14.1836L14.2547 16.7649C14.2711 16.7649 14.2766 16.7649 14.2766 16.754C14.2766 16.7324 14.2437 16.754 14.2219 16.7161L14.0359 16.3369L14.0195 16.3153C14.0086 16.3153 14.0086 16.3261 14.0031 16.3369L13.8828 16.7378C13.8719 16.7757 13.8391 16.7757 13.8445 16.7919H13.9703C13.9812 16.7865 13.9977 16.7919 13.9977 16.7757C13.9977 16.7594 13.932 16.7757 13.9266 16.7269L13.9375 16.6728C13.9484 16.6294 13.9594 16.6294 13.9703 16.6294L14.0852 16.6186H14.0797ZM14.5336 16.3478C14.5281 16.3044 14.5336 16.3044 14.5992 16.2936C14.7086 16.2828 14.6758 16.364 14.7086 16.3586C14.7195 16.3586 14.7086 16.3369 14.7086 16.3261L14.7031 16.2665C14.7031 16.2611 14.6977 16.2557 14.6867 16.2557C14.632 16.2557 14.5937 16.2665 14.5555 16.2719L14.4023 16.2936C14.3914 16.2936 14.3859 16.2936 14.3859 16.3044C14.3914 16.3315 14.457 16.3044 14.4625 16.3586L14.5008 16.6565C14.5117 16.7378 14.4625 16.7107 14.468 16.7378C14.468 16.7378 14.468 16.7432 14.4789 16.7378L14.5555 16.7324L14.6211 16.7269C14.6375 16.7269 14.6484 16.7269 14.6484 16.7107C14.6484 16.6944 14.5828 16.7161 14.5719 16.6457L14.5609 16.5536C14.5555 16.5157 14.5555 16.5049 14.5773 16.4994H14.6211C14.6812 16.4886 14.6758 16.559 14.6922 16.5536C14.7086 16.5536 14.7031 16.5319 14.6977 16.5265L14.6812 16.4128C14.6812 16.3965 14.6703 16.3965 14.6703 16.3965C14.6539 16.3965 14.6648 16.4561 14.6156 16.4615L14.5773 16.4669C14.55 16.4724 14.55 16.4669 14.5445 16.4399L14.5336 16.3478V16.3478ZM14.7523 16.4994C14.7742 16.624 14.8672 16.6999 14.982 16.6782C15.168 16.6403 15.1734 16.4832 15.157 16.3911C15.1297 16.2557 15.0312 16.1907 14.9164 16.2124C14.7797 16.2394 14.725 16.3586 14.7523 16.4994ZM14.8125 16.4453C14.7961 16.3586 14.8125 16.2611 14.9055 16.2449C14.982 16.2286 15.0695 16.2882 15.0914 16.429C15.1078 16.5374 15.0914 16.624 14.993 16.6457C14.8891 16.6674 14.8289 16.5374 14.8125 16.4507V16.4453ZM15.2664 16.2232C15.2609 16.1853 15.2773 16.1799 15.2992 16.1744C15.3539 16.1636 15.3977 16.2015 15.4141 16.2611C15.425 16.299 15.4305 16.3369 15.343 16.3586C15.3266 16.3586 15.3047 16.364 15.2992 16.3478L15.2719 16.2232H15.2664ZM15.2664 16.5319C15.2883 16.6078 15.2391 16.6024 15.2391 16.6186C15.2445 16.6349 15.2555 16.6294 15.2609 16.624C15.2937 16.624 15.3156 16.6078 15.3484 16.6024L15.4031 16.5915C15.4141 16.5915 15.4141 16.5861 15.4141 16.5807C15.4141 16.559 15.3594 16.5969 15.343 16.5265L15.3156 16.4182C15.3156 16.3965 15.3047 16.3965 15.3375 16.3911C15.3648 16.3803 15.3758 16.3857 15.3977 16.4074L15.4687 16.494C15.4961 16.5265 15.5234 16.5644 15.5672 16.5536C15.5945 16.5482 15.6219 16.5265 15.6219 16.5049L15.6109 16.4994L15.5945 16.5049C15.5945 16.5049 15.5781 16.5103 15.5727 16.5049L15.4414 16.3478L15.4687 16.3153C15.4797 16.2936 15.4906 16.2665 15.4797 16.2286C15.4742 16.2015 15.4414 16.1149 15.3156 16.1419L15.2008 16.1744L15.1352 16.1853C15.1242 16.1853 15.1187 16.1907 15.1242 16.1961C15.1242 16.2232 15.1844 16.1853 15.2008 16.2503L15.2664 16.5319V16.5319ZM15.7422 16.4236C15.7586 16.4994 15.6875 16.4886 15.693 16.5103C15.693 16.5265 15.7094 16.5211 15.7203 16.5211L15.7969 16.494L15.8789 16.4778C15.8953 16.4778 15.9062 16.4778 15.9008 16.4561C15.9008 16.4399 15.8297 16.4778 15.8078 16.4019L15.7367 16.1149C15.7258 16.0878 15.7367 16.0824 15.7531 16.0769L15.8078 16.0661C15.868 16.0444 15.868 16.1203 15.8898 16.1149C15.9062 16.1149 15.8898 16.0878 15.8898 16.0769L15.868 16.0228C15.868 16.0228 15.868 16.0065 15.857 16.0119L15.682 16.0607L15.507 16.0986V16.1149L15.5125 16.2015C15.5125 16.2124 15.5125 16.2232 15.5289 16.2232C15.5562 16.2178 15.5125 16.1365 15.5836 16.1203L15.6273 16.1094C15.6492 16.104 15.6602 16.1094 15.6656 16.1365L15.7422 16.4236V16.4236ZM16.043 16.0282C16.0266 15.974 16.0758 15.9794 16.0648 15.9578H16.0484L15.9719 15.9794L15.9062 15.9957C15.9062 15.9957 15.8898 15.9957 15.8898 16.0065C15.8953 16.0282 15.9555 15.9957 15.9719 16.0499L16.0594 16.3532C16.0703 16.4074 16.0266 16.4074 16.032 16.4236C16.032 16.429 16.032 16.4344 16.043 16.429L16.1031 16.4128L16.1906 16.3911C16.207 16.3911 16.207 16.3857 16.207 16.3749C16.2016 16.3586 16.1469 16.4019 16.125 16.3261L16.043 16.0282V16.0282ZM16.1687 16.1744C16.207 16.299 16.3109 16.3586 16.4258 16.3207C16.6008 16.2611 16.5898 16.0986 16.557 16.0119C16.5133 15.8819 16.4039 15.8332 16.2945 15.8657C16.1633 15.9144 16.1195 16.039 16.1687 16.1744V16.1744ZM16.2234 16.1203C16.1906 16.0282 16.1906 15.9307 16.2836 15.9036C16.3547 15.8765 16.4477 15.9253 16.4969 16.0607C16.5297 16.1582 16.5242 16.2557 16.4312 16.2882C16.3328 16.3207 16.2562 16.2069 16.2234 16.1149V16.1203ZM16.6391 15.8224C16.6281 15.7844 16.6391 15.779 16.6609 15.7682C16.7156 15.7519 16.7703 15.7844 16.7922 15.844C16.8031 15.8765 16.8141 15.9144 16.732 15.9469C16.7156 15.9469 16.6937 15.9578 16.6883 15.9469L16.6391 15.8224V15.8224ZM16.6828 16.1257C16.7156 16.2015 16.6609 16.2015 16.6719 16.2178C16.6719 16.234 16.6828 16.2232 16.6937 16.2232L16.7758 16.1853L16.825 16.1744C16.8359 16.169 16.8359 16.1636 16.8359 16.1582C16.825 16.1365 16.7812 16.1799 16.7594 16.1149L16.7156 16.0119C16.7047 15.9903 16.7047 15.9849 16.732 15.974C16.7594 15.9632 16.7703 15.9686 16.7922 15.9903L16.8797 16.0661C16.907 16.0932 16.9398 16.1257 16.9891 16.1094C17.0055 16.0986 17.0383 16.0715 17.0273 16.0553L17.0164 16.0499L17.0055 16.0607H16.9781L16.825 15.9253L16.8469 15.8874C16.8529 15.8737 16.856 15.8589 16.856 15.844C16.856 15.8291 16.8529 15.8144 16.8469 15.8007C16.8414 15.7682 16.7922 15.6924 16.6773 15.7357L16.568 15.7844L16.5023 15.8061L16.4914 15.8169C16.5023 15.8386 16.5516 15.7953 16.5789 15.8603L16.6883 16.1311L16.6828 16.1257Z" fill="#703D29"/>
<path d="M10.4445 9.50879H13.318V12.3515H10.4445V9.50879Z" fill="#D52B1E"/>
<path d="M11.792 11.7446C11.792 11.7446 11.792 11.8486 11.764 11.9284C11.729 12.022 11.729 12.022 11.6975 12.067C11.6635 12.122 11.6182 12.1693 11.5645 12.2057C11.4945 12.2473 11.4245 12.2681 11.3545 12.2612C11.1655 12.2473 11.0745 12.0393 11.0325 11.8729C10.987 11.6961 10.8575 11.5956 10.77 11.6649C10.721 11.6996 10.721 11.762 10.7595 11.8244C10.7972 11.8694 10.8469 11.903 10.903 11.9214L10.8015 12.0497C10.8015 12.0497 10.581 12.022 10.539 11.7932C10.5215 11.7065 10.5635 11.547 10.7105 11.4985C10.896 11.4361 11.0115 11.5678 11.071 11.6788C11.148 11.8313 11.183 12.1086 11.4 12.067C11.519 12.0428 11.575 11.8729 11.575 11.7932L11.659 11.703L11.7885 11.7446H11.792V11.7446Z" fill="white"/>
<path d="M11.9705 11.7446C11.9705 11.7446 11.9705 11.8486 11.9985 11.9284C12.0335 12.022 12.0335 12.022 12.065 12.067C12.099 12.122 12.1443 12.1693 12.198 12.2057C12.268 12.2473 12.338 12.2681 12.408 12.2612C12.597 12.2473 12.688 12.0393 12.73 11.8729C12.7755 11.6961 12.905 11.5956 12.9925 11.6649C13.0415 11.6996 13.0415 11.762 13.003 11.8244C12.9653 11.8694 12.9156 11.903 12.8595 11.9214L12.961 12.0497C12.961 12.0497 13.1815 12.022 13.2235 11.7932C13.241 11.7065 13.199 11.547 13.052 11.4985C12.8665 11.4361 12.751 11.5678 12.6915 11.6788C12.6145 11.8313 12.5795 12.1086 12.3625 12.067C12.2435 12.0428 12.1875 11.8729 12.1875 11.7932L12.1035 11.703L11.974 11.7446H11.9705V11.7446Z" fill="white"/>
<path d="M12.1385 10.5386L12.5165 10.133C12.5165 10.133 12.5725 10.0879 12.5725 10.0151L12.4955 10.029L12.478 9.98738L12.4745 9.94924L12.5795 9.92498V9.87991L12.59 9.83484L12.478 9.84178L12.4885 9.79324L12.506 9.75858L12.5725 9.74471H12.639C12.702 9.62684 12.961 9.52284 13.143 9.71004C13.276 9.84871 13.248 10.0983 13.073 10.1676C13.0339 10.1849 12.9905 10.1904 12.9483 10.1836C12.906 10.1769 12.8666 10.1581 12.835 10.1295L12.905 9.99084C12.9995 10.0498 13.08 9.98044 13.073 9.90764C13.066 9.81404 13.003 9.75858 12.9225 9.75164C12.842 9.74471 12.7825 9.78631 12.7475 9.85564C12.7265 9.90071 12.737 9.93191 12.73 9.98044C12.723 10.0324 12.73 10.0602 12.7125 10.1122C12.6954 10.1601 12.6665 10.2029 12.6285 10.237L12.2435 10.653L10.7385 12.2615L10.6265 12.1575L12.1385 10.5386V10.5386Z" fill="#FEDF00"/>
<path d="M11.0325 10.6772C11.0325 10.6772 11.127 11.1417 11.449 11.8385C11.6135 11.7796 11.708 11.7415 11.883 11.7415C12.0545 11.7415 12.149 11.7761 12.3135 11.8385C12.4927 11.4668 12.6323 11.0776 12.73 10.6772L11.883 9.60254L11.029 10.6772H11.0325Z" fill="white"/>
<path d="M11.9635 9.96289L12.5515 10.7152C12.5515 10.7152 12.4745 11.0792 12.2365 11.6269C12.142 11.6061 12.0615 11.5888 11.9635 11.5818V9.96289ZM11.799 9.96289L11.211 10.7152C11.211 10.7152 11.288 11.0792 11.526 11.6269C11.6205 11.6061 11.701 11.5888 11.799 11.5818V9.96289Z" fill="#FEDF00"/>
<path d="M13.6258 9.50586H16.5023V12.3496H13.6258V9.50586Z" fill="#FEDF00"/>
<path d="M14.0305 9.50586H14.457V12.3496H14.0305V9.50586ZM14.8508 9.50586H15.2773V12.3496H14.8508V9.50586ZM15.6711 9.50586H16.1031V12.3496H15.6711V9.50586Z" fill="#D52B1E"/>
<path d="M10.4539 14.815C10.4594 14.8692 10.4813 14.9558 10.5305 15.0479C10.5852 15.1292 10.5633 15.1238 10.6781 15.2538C10.742 15.3175 10.8158 15.3706 10.8969 15.4108C11.1553 15.5211 11.4364 15.5693 11.7172 15.5517C11.8648 15.5463 11.9797 15.53 12.0781 15.5138C12.2775 15.4875 12.4786 15.4766 12.6797 15.4813C12.7617 15.4813 12.8438 15.4975 12.9367 15.5138C13.1281 15.5517 13.3195 15.6221 13.3195 15.6221V12.6592H10.443V14.6796L10.4539 14.8096V14.815Z" fill="#FEDF00"/>
<path d="M10.7875 15.3346L10.9242 15.4158L11.1102 15.4808V12.6533H10.7875V15.3346ZM12.3844 15.4646V12.6533H12.0672V15.5133L12.3844 15.4754V15.4646ZM13.0242 12.6533H12.707V15.4754C12.8109 15.4862 12.9148 15.5079 13.0242 15.5296V12.6587V12.6533ZM11.7445 12.6533V15.5458C11.7445 15.5458 11.5367 15.5567 11.4273 15.5458V12.6533H11.7445Z" fill="#D52B1E" stroke="#D52B1E" stroke-width="0.0375"/>
<path d="M16.4925 14.8165C16.48 14.8965 16.454 14.9739 16.4155 15.0453C16.363 15.1251 16.3805 15.1251 16.265 15.2533C16.1398 15.3756 15.9819 15.4598 15.81 15.496C15.6206 15.5454 15.4244 15.5642 15.229 15.5515C15.0785 15.5445 14.9665 15.5272 14.8685 15.5168C14.7355 15.496 14.634 15.4856 14.4835 15.4821C14.4112 15.4786 14.3388 15.4786 14.2665 15.4821C14.0481 15.5066 13.8333 15.5554 13.626 15.6277V12.6533H16.503V14.6813L16.4925 14.8131V14.8165Z" fill="#FEDF00"/>
<path d="M14.361 12.8966L14.34 12.9035L14.312 12.9312C14.298 12.9451 14.2875 12.9486 14.27 12.959L14.249 12.9763C14.2385 12.9867 14.249 12.9971 14.2385 13.011C14.235 13.0248 14.228 13.0318 14.2175 13.0456C14.2035 13.0595 14.193 13.063 14.1825 13.0803L14.1405 13.115L14.13 13.1184H14.109C14.095 13.1254 14.0915 13.1392 14.081 13.1462L14.0915 13.167L14.1195 13.2155C14.1265 13.2259 14.1265 13.2398 14.137 13.2432C14.1545 13.2502 14.1685 13.2502 14.1825 13.2467C14.2105 13.2536 14.228 13.2536 14.2525 13.264L14.305 13.2918C14.3225 13.3022 14.333 13.3056 14.3505 13.3091H14.4135V13.3195L14.4835 13.3542C14.4818 13.3586 14.4806 13.3633 14.48 13.368C14.4765 13.3784 14.473 13.3923 14.4765 13.3958C14.4975 13.4616 14.5185 13.4998 14.529 13.5067C14.55 13.5136 14.557 13.5379 14.5675 13.5587L14.557 13.5691C14.536 13.5899 14.515 13.6038 14.4975 13.6315C14.473 13.6731 14.4555 13.6731 14.487 13.7286L14.5395 13.8118C14.5535 13.836 14.5605 13.8534 14.5675 13.8811C14.5745 13.9054 14.578 13.9227 14.578 13.9504L14.613 13.9608L14.6375 13.94L14.6585 13.8984V13.8638C14.6515 13.8603 14.648 13.8499 14.6515 13.8395C14.6515 13.8256 14.669 13.8291 14.676 13.8187C14.6865 13.8014 14.662 13.791 14.6515 13.7806C14.6305 13.7563 14.6025 13.7494 14.5955 13.7147C14.5955 13.7078 14.5955 13.7008 14.6095 13.6904L14.6795 13.628C14.6865 13.6315 14.7005 13.635 14.7145 13.6315L14.76 13.6454C14.781 13.6523 14.7915 13.6454 14.802 13.6454H14.816L14.8195 13.6662C14.823 13.7008 14.816 13.7702 14.8265 13.7875L14.837 13.8083L14.844 13.8291V13.8984L14.837 13.9574C14.837 13.9712 14.83 13.9816 14.8195 13.992C14.8125 14.0059 14.7985 14.0059 14.7845 14.0163V14.051L14.823 14.0683L14.8685 14.0787L14.893 14.0683L14.8965 14.0475L14.914 14.0302C14.928 14.0232 14.942 14.0302 14.9455 14.0267C14.9525 14.0163 14.9455 14.0128 14.9455 13.999C14.9455 13.9782 14.9385 13.9643 14.935 13.9435C14.9299 13.9114 14.9288 13.8788 14.9315 13.8464C14.9315 13.8256 14.9315 13.8118 14.9385 13.7944C14.942 13.7598 14.9525 13.7459 14.9595 13.7182C14.97 13.6835 14.97 13.6627 14.9735 13.6315C15.0915 13.6491 15.2119 13.642 15.327 13.6107C15.355 13.635 15.3865 13.6523 15.4215 13.6662V13.7008C15.4215 13.7112 15.4215 13.7147 15.4285 13.7251L15.439 13.7355C15.4495 13.7355 15.4565 13.7355 15.4635 13.7286C15.4705 13.7216 15.4705 13.7147 15.4705 13.7043V13.68H15.5335V13.7182C15.537 13.7286 15.544 13.732 15.551 13.732C15.5543 13.7336 15.5579 13.7344 15.5615 13.7344C15.5651 13.7344 15.5687 13.7336 15.572 13.732C15.5825 13.7251 15.579 13.7112 15.5825 13.6974V13.6731L15.6175 13.6592C15.6184 13.6696 15.6184 13.6801 15.6175 13.6904L15.607 13.7216C15.6 13.7424 15.5895 13.7494 15.579 13.7702C15.565 13.791 15.5615 13.8048 15.544 13.8222L15.523 13.8464L15.502 13.8776L15.4705 13.9123C15.446 13.9331 15.4285 13.9192 15.4005 13.9435L15.39 13.9782L15.439 13.999L15.4845 14.0059L15.4985 13.999C15.4985 13.9886 15.4985 13.9782 15.509 13.9712C15.516 13.9608 15.523 13.9608 15.5335 13.9574C15.5475 13.9574 15.5615 13.9574 15.5685 13.9504C15.5825 13.94 15.5825 13.9158 15.593 13.8984C15.6188 13.847 15.6544 13.8011 15.698 13.7632L15.7575 13.7147C15.7645 13.7008 15.775 13.6974 15.775 13.68L15.768 13.6592L15.761 13.6246C15.8135 13.6488 15.796 13.6488 15.803 13.6731C15.8135 13.6939 15.803 13.7078 15.8065 13.732C15.81 13.7598 15.824 13.7702 15.824 13.7979C15.8275 13.8291 15.8205 13.8464 15.8135 13.8776C15.81 13.9054 15.81 13.9227 15.796 13.947C15.7877 13.9672 15.7745 13.9851 15.7575 13.999L15.7365 14.0163L15.733 14.051L15.7715 14.0648L15.8275 14.0787L15.8415 14.0683C15.8485 14.044 15.8415 14.0094 15.8555 14.0094C15.8695 14.0059 15.88 14.0094 15.8835 13.999V13.9747L15.908 13.8187L15.922 13.7528L15.936 13.6939C15.9605 13.6246 15.929 13.6142 15.901 13.5691C15.8835 13.5448 15.8765 13.5344 15.8765 13.5171V13.4166C15.8754 13.3842 15.8754 13.3519 15.8765 13.3195L15.8905 13.3126C15.9325 13.2883 15.95 13.2814 15.9745 13.2259C15.9819 13.2096 15.9855 13.1918 15.985 13.1739V13.1392L15.971 13.1046C15.9655 13.0943 15.9584 13.0849 15.95 13.0768C15.9255 13.0422 15.8905 13.0387 15.8555 13.0248C15.803 13.0075 15.768 13.011 15.7155 13.0075C15.6525 13.0006 15.621 13.0006 15.5615 13.0075C15.4915 13.0075 15.453 13.0214 15.383 13.0318L15.2115 13.0456C15.131 13.0456 15.0575 13.0283 15.0085 13.0318C14.9245 13.0387 14.921 13.0595 14.7915 13.0699C14.7472 13.0735 14.7029 13.0758 14.6585 13.0768L14.5815 13.0526C14.613 13.0422 14.62 13.0352 14.634 13.0179C14.6445 13.004 14.641 12.9936 14.655 12.9798L14.6795 12.9451C14.6702 12.9382 14.6594 12.9335 14.648 12.9312H14.613C14.5984 12.9318 14.5841 12.9353 14.571 12.9416L14.543 12.9624L14.466 12.9208C14.4332 12.9043 14.3976 12.8937 14.361 12.8896V12.8966Z" fill="#D52B1E"/>
<path d="M15.908 13.3297L15.88 13.3401C15.8485 13.354 15.824 13.354 15.789 13.3575C15.698 13.3644 15.6385 13.3193 15.544 13.3263C15.495 13.3297 15.474 13.3679 15.4215 13.3817C15.4019 13.3858 15.382 13.3882 15.362 13.3887L15.3795 13.354C15.3795 13.354 15.3375 13.3644 15.3095 13.3644C15.2906 13.3641 15.2719 13.3618 15.2535 13.3575L15.2885 13.3228L15.243 13.3159C15.2301 13.3096 15.2183 13.3014 15.208 13.2916C15.228 13.289 15.2478 13.2855 15.2675 13.2812C15.32 13.2673 15.3375 13.2396 15.404 13.2327C15.4425 13.2327 15.509 13.2327 15.67 13.2604C15.775 13.2777 15.824 13.2673 15.8625 13.25C15.8905 13.2396 15.8975 13.2153 15.901 13.1876C15.9045 13.1599 15.887 13.1391 15.873 13.1252C15.8695 13.1252 15.8555 13.1148 15.8345 13.1113" stroke="#FEDF00" stroke-width="0.08" stroke-linecap="round"/>
<path d="M14.368 13.0215C14.3505 13.0215 14.3365 13.0215 14.3225 13.0319C14.305 13.0423 14.3015 13.0562 14.2875 13.07C14.305 13.0735 14.3155 13.0839 14.3295 13.0804C14.3435 13.0804 14.347 13.0735 14.3575 13.0631C14.368 13.0492 14.3715 13.0388 14.3715 13.0215H14.368V13.0215Z" fill="#FCD900" stroke="#FEDF00" stroke-width="0.04"/>
<path d="M14.76 13.4795C14.7692 13.5071 14.7809 13.5338 14.795 13.5593C14.802 13.587 14.795 13.6009 14.802 13.6286V13.6841M15.04 13.4414L15.0295 13.4865L14.9945 13.6078V13.6321M14.6095 13.4934C14.641 13.5003 14.6305 13.6078 14.676 13.6321" stroke="#FEDF00" stroke-width="0.08" stroke-linecap="round"/>
<path d="M15.6035 13.6871L15.6175 13.6767C15.6529 13.6623 15.685 13.6411 15.712 13.6143" stroke="#FEDF00" stroke-width="0.08"/>
<path d="M15.334 13.6243C15.4565 13.5931 15.5405 13.5342 15.6 13.5238M15.46 13.4718H15.488C15.5405 13.4614 15.5475 13.4926 15.5825 13.5134C15.649 13.5481 15.656 13.5931 15.733 13.6313L15.747 13.6347L15.775 13.6486" stroke="#FEDF00" stroke-width="0.08" stroke-linecap="round"/>
<path d="M14.1195 13.1563H14.144L14.172 13.1494C14.1825 13.1494 14.1895 13.1494 14.1965 13.1563C14.2035 13.1563 14.2035 13.1598 14.207 13.1667C14.207 13.1737 14.214 13.1771 14.2105 13.1841C14.2105 13.191 14.2 13.1979 14.1895 13.1979C14.1825 13.1979 14.1755 13.1979 14.172 13.1875C14.171 13.1854 14.1705 13.183 14.1705 13.1806C14.1705 13.1782 14.171 13.1759 14.172 13.1737C14.1671 13.1761 14.1617 13.1774 14.1562 13.1774C14.1508 13.1774 14.1454 13.1761 14.1405 13.1737C14.136 13.1723 14.1318 13.1701 14.1282 13.1671C14.1246 13.1642 14.1216 13.1605 14.1195 13.1563V13.1563Z" fill="#FCD900" stroke="#FEDF00" stroke-width="0.04"/>
<path d="M14.3785 13.4925L14.3085 13.4613C14.3225 13.4544 14.333 13.4544 14.3435 13.444C14.354 13.4301 14.354 13.4162 14.361 13.3989C14.368 13.3816 14.368 13.3642 14.3855 13.3504C14.396 13.3434 14.4135 13.3434 14.424 13.3469C14.438 13.3469 14.452 13.3608 14.4555 13.3712C14.4555 13.392 14.4485 13.4058 14.445 13.4232C14.445 13.444 14.4345 13.4544 14.438 13.4717C14.438 13.4856 14.445 13.4925 14.452 13.5064L14.382 13.4925H14.3785ZM14.3435 13.5272C14.3429 13.5231 14.3435 13.519 14.3452 13.5153C14.3469 13.5116 14.3498 13.5085 14.3533 13.5063C14.3568 13.5042 14.3609 13.5031 14.365 13.5032C14.3691 13.5034 14.3731 13.5047 14.3765 13.5071C14.3798 13.5095 14.3824 13.5128 14.3839 13.5166C14.3854 13.5204 14.3857 13.5246 14.3848 13.5286C14.3839 13.5326 14.3818 13.5362 14.3788 13.539C14.3758 13.5419 14.3721 13.5438 14.368 13.5445C14.365 13.545 14.3619 13.5449 14.3589 13.544C14.3559 13.5432 14.3532 13.5418 14.3508 13.5398C14.3485 13.5378 14.3466 13.5353 14.3454 13.5326C14.3441 13.5298 14.3435 13.5268 14.3435 13.5237V13.5272ZM14.284 12.9517H14.277C14.263 12.9378 14.263 12.924 14.256 12.9101C14.2503 12.8969 14.2468 12.8828 14.2455 12.8685V12.7992C14.2455 12.7888 14.2455 12.7784 14.2385 12.768C14.2385 12.761 14.2245 12.7576 14.228 12.7541C14.228 12.7506 14.2385 12.7541 14.242 12.7541C14.256 12.7541 14.263 12.7576 14.277 12.768C14.2875 12.7784 14.2945 12.7888 14.298 12.8026L14.312 12.8546L14.3225 12.8824L14.34 12.9032L14.3155 12.9309L14.284 12.9517V12.9517ZM14.41 13.3192L14.487 13.3538C14.5397 13.3224 14.5822 13.2767 14.6095 13.2221C14.641 13.1597 14.6445 13.1285 14.6585 13.0696L14.5955 13.0522H14.5815C14.564 13.1146 14.557 13.1458 14.5255 13.1978C14.4975 13.2429 14.466 13.2776 14.4345 13.3018L14.41 13.3192ZM14.585 13.9501L14.613 13.905L14.662 13.8669H14.676C14.6756 13.9 14.6697 13.9328 14.6585 13.964L14.6445 13.9986L14.627 14.016C14.6095 13.9882 14.5815 13.9709 14.5815 13.9466L14.585 13.9501ZM15.74 14.0125L15.789 14.0333L15.8415 14.0645V14.0818L15.789 14.0888C15.7739 14.0899 15.7586 14.0899 15.7435 14.0888H15.7085L15.6875 14.0749C15.705 14.0506 15.7155 14.0194 15.7365 14.0125H15.74ZM15.397 13.9432L15.446 13.9605L15.4985 13.9952C15.4985 13.9986 15.502 14.0056 15.4985 14.009C15.4677 14.0172 15.4359 14.0207 15.404 14.0194L15.369 14.016L15.3445 14.0056C15.3655 13.9813 15.376 13.9466 15.397 13.9432V13.9432ZM14.788 14.016L14.8405 14.0333L14.893 14.068V14.0853C14.8609 14.0927 14.8278 14.095 14.795 14.0922H14.76L14.739 14.0784C14.7565 14.0541 14.767 14.0229 14.788 14.016ZM14.473 12.9829C14.452 12.9725 14.438 12.9482 14.452 12.9274C14.4555 12.9205 14.466 12.9205 14.473 12.9136C14.48 12.9032 14.4765 12.8962 14.473 12.8858L14.4695 12.8512L14.4625 12.8165C14.4625 12.7957 14.4625 12.7818 14.4765 12.761C14.4835 12.7506 14.501 12.7402 14.5045 12.7402C14.5115 12.7437 14.5045 12.7576 14.5045 12.768C14.5045 12.7853 14.508 12.7922 14.515 12.8096L14.5395 12.8546C14.5465 12.8754 14.5535 12.8824 14.5535 12.9032C14.5535 12.9205 14.5535 12.9274 14.5465 12.9448C14.542 12.9556 14.5348 12.9652 14.5255 12.9725C14.5173 12.9792 14.5078 12.9839 14.4975 12.9864C14.4906 12.9883 14.4834 12.9883 14.4765 12.9864L14.473 12.9829Z" fill="#0065BD"/>
<path d="M14.3591 14.1554L14.3381 14.1623L14.3101 14.19C14.2961 14.2039 14.2856 14.2074 14.2681 14.2178L14.2471 14.2351C14.2366 14.2455 14.2471 14.2559 14.2366 14.2698C14.2331 14.2836 14.2261 14.2906 14.2156 14.3044C14.2016 14.3183 14.1911 14.3218 14.1806 14.3391L14.1386 14.3738L14.1281 14.3772H14.1071C14.0931 14.3842 14.0896 14.398 14.0791 14.405L14.0896 14.4258L14.1176 14.4743C14.1246 14.4847 14.1246 14.4986 14.1351 14.502C14.1526 14.509 14.1666 14.509 14.1806 14.5055C14.2086 14.5124 14.2261 14.5124 14.2506 14.5228L14.3031 14.5506C14.3206 14.561 14.3311 14.5644 14.3486 14.5679H14.4116V14.5783L14.4816 14.613C14.4799 14.6174 14.4787 14.6221 14.4781 14.6268C14.4746 14.6372 14.4711 14.6511 14.4746 14.6546C14.4956 14.7204 14.5166 14.7586 14.5271 14.7655C14.5481 14.7724 14.5551 14.7967 14.5656 14.8175L14.5551 14.8279C14.5341 14.8487 14.5131 14.8626 14.4956 14.8903C14.4711 14.9319 14.4536 14.9319 14.4851 14.9874L14.5376 15.0706C14.5516 15.0948 14.5586 15.1122 14.5656 15.1399C14.5726 15.1642 14.5761 15.1815 14.5761 15.2092L14.6111 15.2196L14.6356 15.1988L14.6566 15.1572V15.1226C14.6496 15.1191 14.6461 15.1087 14.6496 15.0983C14.6496 15.0844 14.6671 15.0879 14.6741 15.0775C14.6846 15.0602 14.6601 15.0498 14.6496 15.0394C14.6286 15.0151 14.6006 15.0082 14.5936 14.9735C14.5936 14.9666 14.5936 14.9596 14.6076 14.9492L14.6776 14.8868C14.6846 14.8903 14.6986 14.8938 14.7126 14.8903L14.7581 14.9042C14.7791 14.9111 14.7896 14.9042 14.8001 14.9042H14.8141L14.8176 14.925C14.8211 14.9596 14.8141 15.029 14.8246 15.0463L14.8351 15.0671L14.8421 15.0879V15.1572L14.8351 15.2162C14.8351 15.23 14.8281 15.2404 14.8176 15.2508C14.8106 15.2647 14.7966 15.2647 14.7826 15.2751V15.3098L14.8211 15.3271L14.8666 15.3375L14.8911 15.3271L14.8946 15.3063L14.9121 15.289C14.9261 15.282 14.9401 15.289 14.9436 15.2855C14.9506 15.2751 14.9436 15.2716 14.9436 15.2578C14.9436 15.237 14.9366 15.2231 14.9331 15.2023C14.9281 15.1702 14.9269 15.1376 14.9296 15.1052C14.9296 15.0844 14.9296 15.0706 14.9366 15.0532C14.9401 15.0186 14.9506 15.0047 14.9576 14.977C14.9681 14.9423 14.9681 14.9215 14.9716 14.8903C15.0896 14.9079 15.2101 14.9008 15.3251 14.8695C15.3531 14.8938 15.3846 14.9111 15.4196 14.925V14.9596C15.4196 14.97 15.4196 14.9735 15.4266 14.9839L15.4371 14.9943C15.4476 14.9943 15.4546 14.9943 15.4616 14.9874C15.4686 14.9804 15.4686 14.9735 15.4686 14.9631V14.9388H15.5316V14.977C15.5351 14.9874 15.5421 14.9908 15.5491 14.9908C15.5524 14.9924 15.556 14.9932 15.5596 14.9932C15.5633 14.9932 15.5668 14.9924 15.5701 14.9908C15.5806 14.9839 15.5771 14.97 15.5806 14.9562V14.9319L15.6156 14.918C15.6166 14.9284 15.6166 14.9389 15.6156 14.9492L15.6051 14.9804C15.5981 15.0012 15.5876 15.0082 15.5771 15.029C15.5631 15.0498 15.5596 15.0636 15.5421 15.081L15.5211 15.1052L15.5001 15.1364L15.4686 15.1711C15.4441 15.1919 15.4266 15.178 15.3986 15.2023L15.3881 15.237L15.4371 15.2578L15.4826 15.2647L15.4966 15.2578C15.4966 15.2474 15.4966 15.237 15.5071 15.23C15.5141 15.2196 15.5211 15.2196 15.5316 15.2162C15.5456 15.2162 15.5596 15.2162 15.5666 15.2092C15.5806 15.1988 15.5806 15.1746 15.5911 15.1572C15.6169 15.1058 15.6526 15.0599 15.6961 15.022L15.7556 14.9735C15.7626 14.9596 15.7731 14.9562 15.7731 14.9388L15.7661 14.918L15.7591 14.8834C15.8116 14.9076 15.7941 14.9076 15.8011 14.9319C15.8116 14.9527 15.8011 14.9666 15.8046 14.9908C15.8081 15.0186 15.8221 15.029 15.8221 15.0567C15.8256 15.0879 15.8186 15.1052 15.8116 15.1364C15.8081 15.1642 15.8081 15.1815 15.7941 15.2058C15.7858 15.226 15.7726 15.2439 15.7556 15.2578L15.7346 15.2751L15.7311 15.3098L15.7696 15.3236L15.8256 15.3375L15.8396 15.3271C15.8466 15.3028 15.8396 15.2682 15.8536 15.2682C15.8676 15.2647 15.8781 15.2682 15.8816 15.2578V15.2335L15.9061 15.0775L15.9201 15.0116L15.9341 14.9527C15.9586 14.8834 15.9271 14.873 15.8991 14.8279C15.8816 14.8036 15.8746 14.7932 15.8746 14.7759V14.6754C15.8736 14.643 15.8736 14.6107 15.8746 14.5783L15.8886 14.5714C15.9306 14.5471 15.9481 14.5402 15.9726 14.4847C15.9801 14.4684 15.9837 14.4506 15.9831 14.4327V14.398L15.9691 14.3634C15.9636 14.3531 15.9565 14.3437 15.9481 14.3356C15.9236 14.301 15.8886 14.2975 15.8536 14.2836C15.8011 14.2663 15.7661 14.2698 15.7136 14.2663C15.6506 14.2594 15.6191 14.2594 15.5596 14.2663C15.4896 14.2663 15.4511 14.2802 15.3811 14.2906L15.2096 14.3044C15.1291 14.3044 15.0556 14.2871 15.0066 14.2906C14.9226 14.2975 14.9191 14.3183 14.7896 14.3287C14.7454 14.3323 14.701 14.3346 14.6566 14.3356L14.5796 14.3114C14.6111 14.301 14.6181 14.294 14.6321 14.2767C14.6426 14.2628 14.6391 14.2524 14.6531 14.2386L14.6776 14.2039C14.6683 14.197 14.6575 14.1922 14.6461 14.19H14.6111C14.5965 14.1906 14.5822 14.1941 14.5691 14.2004L14.5411 14.2212L14.4641 14.1796C14.4313 14.1631 14.3957 14.1525 14.3591 14.1484V14.1554Z" fill="#D52B1E"/>
<path d="M15.9061 14.5885L15.8781 14.5989C15.8466 14.6128 15.8221 14.6128 15.7871 14.6162C15.6961 14.6232 15.6366 14.5781 15.5421 14.585C15.4931 14.5885 15.4721 14.6267 15.4196 14.6405C15.4 14.6446 15.3801 14.647 15.3601 14.6475L15.3776 14.6128C15.3776 14.6128 15.3356 14.6232 15.3076 14.6232C15.2888 14.6229 15.27 14.6205 15.2516 14.6162L15.2866 14.5816L15.2411 14.5747C15.2283 14.5684 15.2165 14.5602 15.2061 14.5504C15.2261 14.5477 15.2459 14.5443 15.2656 14.54C15.3181 14.5261 15.3356 14.4984 15.4021 14.4915C15.4406 14.4915 15.5071 14.4915 15.6681 14.5192C15.7731 14.5365 15.8221 14.5261 15.8606 14.5088C15.8886 14.4984 15.8956 14.4741 15.8991 14.4464C15.9026 14.4186 15.8851 14.3979 15.8711 14.384C15.8676 14.384 15.8536 14.3736 15.8326 14.3701" stroke="#FEDF00" stroke-width="0.08" stroke-linecap="round"/>
<path d="M14.3661 14.2803C14.3486 14.2803 14.3346 14.2803 14.3206 14.2907C14.3031 14.3011 14.2996 14.3149 14.2856 14.3288C14.3031 14.3323 14.3136 14.3427 14.3276 14.3392C14.3416 14.3392 14.3451 14.3323 14.3556 14.3219C14.3661 14.308 14.3696 14.2976 14.3696 14.2803H14.3661V14.2803Z" fill="#FCD900" stroke="#FEDF00" stroke-width="0.04"/>
<path d="M14.7581 14.7383C14.7673 14.7659 14.779 14.7926 14.7931 14.8181C14.8001 14.8458 14.7931 14.8597 14.8001 14.8874V14.9429M15.0381 14.7002L15.0276 14.7453L14.9926 14.8666V14.8909M14.6076 14.7522C14.6391 14.7591 14.6286 14.8666 14.6741 14.8909" stroke="#FEDF00" stroke-width="0.08" stroke-linecap="round"/>
<path d="M15.6016 14.9458L15.6156 14.9354C15.651 14.9211 15.6831 14.8999 15.7101 14.873" stroke="#FEDF00" stroke-width="0.08"/>
<path d="M15.3321 14.8831C15.4546 14.8519 15.5386 14.793 15.5981 14.7826M15.4581 14.7306H15.4861C15.5386 14.7202 15.5456 14.7514 15.5806 14.7722C15.6471 14.8068 15.6541 14.8519 15.7311 14.89L15.7451 14.8935L15.7731 14.9074" stroke="#FEDF00" stroke-width="0.08" stroke-linecap="round"/>
<path d="M14.1176 14.4151H14.1421L14.1701 14.4082C14.1806 14.4082 14.1876 14.4082 14.1946 14.4151C14.2016 14.4151 14.2016 14.4186 14.2051 14.4255C14.2051 14.4325 14.2121 14.4359 14.2086 14.4429C14.2086 14.4498 14.1981 14.4567 14.1876 14.4567C14.1806 14.4567 14.1736 14.4567 14.1701 14.4463C14.1692 14.4441 14.1687 14.4418 14.1687 14.4394C14.1687 14.437 14.1692 14.4347 14.1701 14.4325C14.1652 14.4349 14.1598 14.4362 14.1544 14.4362C14.1489 14.4362 14.1435 14.4349 14.1386 14.4325C14.1341 14.4311 14.13 14.4289 14.1263 14.4259C14.1227 14.4229 14.1198 14.4193 14.1176 14.4151V14.4151Z" fill="#FCD900" stroke="#FEDF00" stroke-width="0.04"/>
<path d="M14.3766 14.7513L14.3066 14.7201C14.3206 14.7132 14.3311 14.7132 14.3416 14.7028C14.3521 14.6889 14.3521 14.675 14.3591 14.6577C14.3661 14.6404 14.3661 14.623 14.3836 14.6092C14.3941 14.6022 14.4116 14.6022 14.4221 14.6057C14.4361 14.6057 14.4501 14.6196 14.4536 14.63C14.4536 14.6508 14.4466 14.6646 14.4431 14.682C14.4431 14.7028 14.4326 14.7132 14.4361 14.7305C14.4361 14.7444 14.4431 14.7513 14.4501 14.7652L14.3801 14.7513H14.3766ZM14.3416 14.786C14.341 14.7819 14.3416 14.7778 14.3433 14.7741C14.3451 14.7704 14.3479 14.7672 14.3514 14.7651C14.3549 14.763 14.359 14.7619 14.3631 14.762C14.3672 14.7622 14.3712 14.7635 14.3746 14.7659C14.378 14.7683 14.3805 14.7716 14.382 14.7754C14.3835 14.7792 14.3838 14.7834 14.3829 14.7874C14.382 14.7914 14.3799 14.795 14.3769 14.7978C14.3739 14.8007 14.3702 14.8026 14.3661 14.8033C14.3631 14.8038 14.36 14.8036 14.357 14.8028C14.354 14.802 14.3513 14.8006 14.349 14.7986C14.3466 14.7966 14.3447 14.7941 14.3435 14.7913C14.3422 14.7886 14.3416 14.7855 14.3416 14.7825V14.786ZM14.2821 14.2105H14.2751C14.2611 14.1966 14.2611 14.1828 14.2541 14.1689C14.2485 14.1556 14.2449 14.1416 14.2436 14.1273V14.058C14.2436 14.0476 14.2436 14.0372 14.2366 14.0268C14.2366 14.0198 14.2226 14.0164 14.2261 14.0129C14.2261 14.0094 14.2366 14.0129 14.2401 14.0129C14.2541 14.0129 14.2611 14.0164 14.2751 14.0268C14.2856 14.0372 14.2926 14.0476 14.2961 14.0614L14.3101 14.1134L14.3206 14.1412L14.3381 14.162L14.3136 14.1897L14.2821 14.2105V14.2105ZM14.4081 14.578L14.4851 14.6126C14.5378 14.5812 14.5803 14.5355 14.6076 14.4809C14.6391 14.4185 14.6426 14.3873 14.6566 14.3284L14.5936 14.311H14.5796C14.5621 14.3734 14.5551 14.4046 14.5236 14.4566C14.4956 14.5017 14.4641 14.5364 14.4326 14.5606L14.4081 14.578ZM14.5831 15.2089L14.6111 15.1638L14.6601 15.1257H14.6741C14.6737 15.1588 14.6678 15.1916 14.6566 15.2228L14.6426 15.2574L14.6251 15.2748C14.6076 15.247 14.5796 15.2297 14.5796 15.2054L14.5831 15.2089ZM15.7381 15.2713L15.7871 15.2921L15.8396 15.3233V15.3406L15.7871 15.3476C15.772 15.3487 15.7568 15.3487 15.7416 15.3476H15.7066L15.6856 15.3337C15.7031 15.3094 15.7136 15.2782 15.7346 15.2713H15.7381ZM15.3951 15.202L15.4441 15.2193L15.4966 15.254C15.4966 15.2574 15.5001 15.2644 15.4966 15.2678C15.4658 15.276 15.434 15.2795 15.4021 15.2782L15.3671 15.2748L15.3426 15.2644C15.3636 15.2401 15.3741 15.2054 15.3951 15.202V15.202ZM14.7861 15.2748L14.8386 15.2921L14.8911 15.3268V15.3441C14.859 15.3515 14.826 15.3538 14.7931 15.351H14.7581L14.7371 15.3372C14.7546 15.3129 14.7651 15.2817 14.7861 15.2748ZM14.4711 14.2417C14.4501 14.2313 14.4361 14.207 14.4501 14.1862C14.4536 14.1793 14.4641 14.1793 14.4711 14.1724C14.4781 14.162 14.4746 14.155 14.4711 14.1446L14.4676 14.11L14.4606 14.0753C14.4606 14.0545 14.4606 14.0406 14.4746 14.0198C14.4816 14.0094 14.4991 13.999 14.5026 13.999C14.5096 14.0025 14.5026 14.0164 14.5026 14.0268C14.5026 14.0441 14.5061 14.051 14.5131 14.0684L14.5376 14.1134C14.5446 14.1342 14.5516 14.1412 14.5516 14.162C14.5516 14.1793 14.5516 14.1862 14.5446 14.2036C14.5401 14.2144 14.5329 14.224 14.5236 14.2313C14.5155 14.2379 14.5059 14.2427 14.4956 14.2452C14.4888 14.2471 14.4815 14.2471 14.4746 14.2452L14.4711 14.2417Z" fill="#0065BD"/>
<path d="M10.443 9.50586H13.3195V12.3496H10.443V9.50586ZM13.6258 9.50586H16.5023V12.3496H13.6258V9.50586ZM10.4539 14.8142C10.4594 14.8684 10.4813 14.955 10.5305 15.0471C10.5852 15.1284 10.5633 15.1229 10.6781 15.2529C10.742 15.3167 10.8158 15.3697 10.8969 15.41C11.1553 15.5202 11.4364 15.5685 11.7172 15.5509C11.8648 15.5454 11.9797 15.5292 12.0781 15.5129C12.2775 15.4867 12.4786 15.4758 12.6797 15.4804C12.7617 15.4804 12.8438 15.4967 12.9367 15.5129C13.1281 15.5509 13.3195 15.6213 13.3195 15.6213V12.6584H10.443V14.6788L10.4539 14.8088V14.8142ZM16.4914 14.8142C16.4798 14.8957 16.4539 14.9745 16.4148 15.0471C16.3602 15.1284 16.382 15.1229 16.2672 15.2529C16.2033 15.3166 16.1294 15.3697 16.0484 15.41C15.9773 15.4479 15.9227 15.4642 15.8078 15.4967C15.6189 15.5461 15.423 15.5644 15.2281 15.5509C15.0805 15.5454 14.9656 15.5238 14.8727 15.5129C14.742 15.4955 14.6106 15.4846 14.4789 15.4804C14.4079 15.477 14.3367 15.477 14.2656 15.4804C14.1836 15.4804 14.1016 15.4967 14.0086 15.5129C13.8172 15.5509 13.6258 15.6213 13.6258 15.6213V12.6529H16.5078V14.6842L16.4969 14.8142H16.4914Z" stroke="#703D29" stroke-width="0.0625"/>
</g>
</g>
<defs>
<clipPath id="clip0_1_16089">
<rect width="35" height="26" fill="white" transform="translate(-4)"/>
</clipPath>
</defs>
</svg>
