<svg width="34" height="26" viewBox="0 0 34 26" fill="none" xmlns="http://www.w3.org/2000/svg">
<g clip-path="url(#clip0_351_22904)">
<path fill-rule="evenodd" clip-rule="evenodd" d="M0 0H34V26H0V0Z" fill="black"/>
<path fill-rule="evenodd" clip-rule="evenodd" d="M22.6719 0H34.0034V26H22.6719V0Z" fill="#009900"/>
<path fill-rule="evenodd" clip-rule="evenodd" d="M11.3281 0H22.665V26H11.3281V0Z" fill="#BF0000"/>
<path fill-rule="evenodd" clip-rule="evenodd" d="M18.1027 14.4863H18.5716C18.5716 14.6707 18.6846 14.8665 18.8258 14.976H17.9219C18.0631 14.8492 18.1027 14.6879 18.1027 14.4863Z" fill="white" stroke="#BD6B00" stroke-width="0.0664662"/>
<path fill-rule="evenodd" clip-rule="evenodd" d="M15.1172 11.7606L15.3771 12.0486L18.5974 12.0601L18.8572 11.7721L18.0324 11.7548L17.6369 11.4668H16.3375L15.9646 11.7606H15.1172Z" fill="white"/>
<path fill-rule="evenodd" clip-rule="evenodd" d="M16.4344 11.4263H17.5474C17.6942 11.3457 17.7451 11.0865 17.7451 10.9425C17.7451 10.5162 17.4457 10.3088 17.1519 10.2973C17.1067 10.2973 17.0558 10.2627 17.0445 10.2224C17.0163 10.1302 17.0219 10.0669 16.988 10.0726C16.9654 10.0726 16.9711 10.1302 16.9485 10.2109C16.9315 10.257 16.8863 10.2973 16.8355 10.303C16.4739 10.3203 16.2366 10.5911 16.2423 10.9425C16.2479 11.1729 16.2762 11.3111 16.4344 11.4263Z" fill="white" stroke="#BD6B00" stroke-width="0.0664662"/>
<path fill-rule="evenodd" clip-rule="evenodd" d="M14.615 15.4647H19.3777L18.9539 15.1133H15.0331L14.6094 15.4647H14.615Z" fill="white"/>
<path fill-rule="evenodd" clip-rule="evenodd" d="M16.7995 14.1337L16.8842 14.3987H17.0819L16.9237 14.1337H16.7995ZM16.6865 14.3987L16.743 14.6637H16.9689L16.8842 14.3987H16.6865ZM17.0819 14.3987L17.2401 14.6637H17.5735L17.3136 14.3987H17.0819ZM15.1328 14.9978C15.308 14.8307 15.4209 14.6925 15.4209 14.4909H15.8503C15.8503 14.6061 15.8899 14.6694 15.952 14.6637H16.387V14.4045H16.0707V12.9816C16.0594 12.4747 16.6695 12.1867 16.9181 12.1867H15.4322V12.1406H18.5565V12.1867H17.0593C17.5057 12.1867 17.935 12.6187 17.9407 12.9816V13.3849H17.8842L17.8785 12.9874C17.8785 12.5899 17.387 12.2213 16.9915 12.2328C16.6526 12.2386 16.1215 12.5727 16.1271 12.9816V13.1084L16.935 13.1141L16.9294 13.2581L17.0537 13.3388L17.3079 13.4194V13.6383L17.4887 13.6902V13.9033L17.7034 14.0012V14.2201L17.8446 14.3065L17.839 14.5312L18.0254 14.6637H17.5848L17.8616 14.9805H17.4492L17.2458 14.6637H16.9802L17.0989 14.9747H16.8164L16.743 14.6637H16.3927V14.9978H15.1385H15.1328ZM16.387 14.1337V14.3987H16.6865L16.63 14.1337H16.3814H16.387Z" fill="white" stroke="#BD6B00" stroke-width="0.0664662"/>
<path fill-rule="evenodd" clip-rule="evenodd" d="M16.4062 13.6738H16.5927V14.1116H16.4062V13.6738Z" stroke="#BD6B00" stroke-width="0.0664662"/>
<path fill-rule="evenodd" clip-rule="evenodd" d="M16.1406 14.14H16.3214V13.8175C16.3214 13.6792 16.4457 13.5352 16.5022 13.5294C16.57 13.5294 16.666 13.6619 16.6717 13.8059V14.14H16.8638V13.3105H16.1406V14.14V14.14ZM17.5869 14.3301H17.8129V14.5145H17.5869V14.3301ZM17.4513 14.0248H17.6773V14.2034H17.4513V14.0248ZM17.231 13.7138H17.457V13.8923H17.231V13.7138ZM17.0446 13.4546H17.2706V13.6331H17.0446V13.4546Z" stroke="#BD6B00" stroke-width="0.0664662"/>
<path fill-rule="evenodd" clip-rule="evenodd" d="M16.8906 14.1401L17.1279 14.1517L17.5403 14.5203V14.3014L17.3991 14.1977V14.0249L17.1957 13.9097V13.7196L16.998 13.6505V13.4028L16.9019 13.3164L16.8963 14.1459L16.8906 14.1401Z" stroke="#BD6B00" stroke-width="0.0664662"/>
<path fill-rule="evenodd" clip-rule="evenodd" d="M17.875 13.5918H17.9315V14.0008H17.875V13.5918Z" fill="white" stroke="#BD6B00" stroke-width="0.0664662"/>
<path fill-rule="evenodd" clip-rule="evenodd" d="M14.5877 12.2205C14.5199 12.1053 14.4352 12.3818 14.1471 12.5834C14.0171 12.6756 13.9211 12.9233 13.9211 13.0846C13.9211 13.1998 13.9324 13.3092 13.9211 13.4187C13.9154 13.482 13.842 13.6376 13.8928 13.6779C14.0171 13.77 14.181 13.9889 14.2544 14.0638C14.3222 14.1214 14.3787 13.7585 14.4239 13.603C14.4804 13.4302 14.4578 13.217 14.6047 13.0615C14.7064 12.9463 14.9663 12.8426 14.9437 12.7965L14.5877 12.2205Z" fill="white" stroke="#BD6B00" stroke-width="0.0664662"/>
<path fill-rule="evenodd" clip-rule="evenodd" d="M14.5729 13.1079C14.5505 13.0535 14.52 13.003 14.4825 12.9581C14.4465 12.9126 14.3999 12.8769 14.3469 12.8544C14.2949 12.8387 14.248 12.8088 14.2113 12.768C14.1897 12.7433 14.1742 12.7137 14.1661 12.6816C14.1597 12.6435 14.1597 12.6045 14.1661 12.5664L14.1492 12.5837C14.0192 12.6759 13.9232 12.9236 13.9232 13.0848C13.9214 13.129 13.9214 13.1732 13.9232 13.2173C13.9345 13.2461 13.9401 13.2749 13.9571 13.2922L14.0192 13.3383L14.1718 13.3786C14.2289 13.4048 14.2792 13.4443 14.3187 13.4938C14.3598 13.5382 14.3941 13.5887 14.4204 13.6436L14.4317 13.5975C14.4769 13.442 14.4712 13.2577 14.5785 13.1079H14.5729Z" fill="#BF0000" stroke="#BD6B00" stroke-width="0.0664662"/>
<path d="M14.1605 12.5605C14.1322 12.7506 14.2396 12.8198 14.3413 12.8543C14.443 12.8947 14.5277 13.0041 14.5673 13.1078M13.9062 13.1942C13.9514 13.367 14.0644 13.344 14.1661 13.3785C14.2678 13.4188 14.3752 13.5513 14.4204 13.655" stroke="#BD6B00" stroke-width="0.0664662"/>
<path fill-rule="evenodd" clip-rule="evenodd" d="M14.4922 12.1049L14.5487 12.0703L15.5487 13.7927L15.4922 13.8272L14.4922 12.0991V12.1049Z" fill="white" stroke="#BD6B00" stroke-width="0.0664662"/>
<path fill-rule="evenodd" clip-rule="evenodd" d="M14.601 12.0372C14.601 12.0677 14.5891 12.097 14.5679 12.1186C14.5467 12.1403 14.518 12.1524 14.488 12.1524C14.458 12.1524 14.4293 12.1403 14.4081 12.1186C14.3869 12.097 14.375 12.0677 14.375 12.0372C14.375 12.0066 14.3869 11.9773 14.4081 11.9557C14.4293 11.9341 14.458 11.922 14.488 11.922C14.518 11.922 14.5467 11.9341 14.5679 11.9557C14.5891 11.9773 14.601 12.0066 14.601 12.0372ZM15.4597 10.6547H15.8665V10.7469H15.4597V10.6547ZM15.4597 10.8333H15.8665V11.6282H15.4597V10.8333ZM15.4371 10.5452H15.8891C15.9004 10.3897 15.7479 10.2227 15.6631 10.2227C15.5727 10.2284 15.4315 10.3955 15.4371 10.5452Z" fill="white" stroke="#BD6B00" stroke-width="0.0664662"/>
<path fill-rule="evenodd" clip-rule="evenodd" d="M16.5799 10.4518C16.4951 10.4864 16.4273 10.5843 16.3878 10.6995C16.3482 10.8147 16.3313 10.9472 16.3539 11.0509C16.3539 11.0912 16.3708 11.1143 16.3821 11.1373C16.3934 11.1546 16.4047 11.1661 16.416 11.1661C16.433 11.1661 16.4499 11.1661 16.4556 11.1488L16.4669 11.1028C16.4612 10.9876 16.4612 10.8839 16.4838 10.7917C16.5089 10.6894 16.569 10.5995 16.6533 10.5382C16.6703 10.5267 16.6759 10.5094 16.6815 10.4979C16.6813 10.4827 16.6752 10.4682 16.6646 10.4576C16.642 10.4403 16.6081 10.4346 16.5799 10.4518ZM16.5912 10.4749C16.6138 10.4634 16.6364 10.4749 16.6477 10.4806L16.6533 10.4922C16.6533 10.4979 16.6533 10.5037 16.6364 10.5152C16.5496 10.5801 16.4876 10.6738 16.4612 10.7802C16.4378 10.886 16.432 10.995 16.4443 11.1028C16.4443 11.1152 16.4403 11.1274 16.433 11.1373C16.433 11.1373 16.433 11.1431 16.4217 11.1373C16.4217 11.1373 16.4104 11.1373 16.3991 11.12C16.3879 11.0984 16.3803 11.0751 16.3765 11.0509C16.3595 10.9472 16.3765 10.8205 16.416 10.7053C16.4556 10.6016 16.5177 10.5094 16.5855 10.4749H16.5912Z" fill="#BD6B00"/>
<path fill-rule="evenodd" clip-rule="evenodd" d="M16.7285 10.5626C16.6438 10.603 16.5873 10.6951 16.559 10.8046C16.529 10.9152 16.5232 11.0313 16.5421 11.1444C16.5534 11.2193 16.5986 11.2596 16.6325 11.2596C16.6494 11.2654 16.6664 11.2596 16.6777 11.2424C16.689 11.2251 16.6946 11.2078 16.689 11.1848C16.6664 11.0926 16.6607 10.9889 16.672 10.891C16.689 10.7931 16.7285 10.7066 16.7963 10.6548C16.8133 10.6375 16.8246 10.626 16.8246 10.6087C16.8251 10.6025 16.8244 10.5962 16.8224 10.5902C16.8205 10.5843 16.8174 10.5788 16.8133 10.5742C16.7907 10.5569 16.7568 10.5511 16.7285 10.5626ZM16.7398 10.5914C16.7624 10.5799 16.785 10.5857 16.7963 10.5914L16.802 10.6087L16.785 10.6318C16.7471 10.6628 16.7156 10.7011 16.6923 10.7446C16.669 10.7881 16.6545 10.8359 16.6494 10.8852C16.6325 10.9889 16.6438 11.0984 16.6607 11.1848C16.6664 11.2078 16.6607 11.2193 16.6607 11.2308L16.6325 11.2366C16.6155 11.2366 16.576 11.2078 16.5647 11.1387C16.5477 11.0407 16.5534 10.914 16.5816 10.8103C16.6099 10.7066 16.6664 10.6202 16.7398 10.5914Z" fill="#BD6B00"/>
<path fill-rule="evenodd" clip-rule="evenodd" d="M15.4367 12.2734H15.8886V12.9071H15.4367V12.2734ZM15.4649 13.2757H15.8999V13.414H15.4649V13.2757ZM15.4536 13.5119H15.9056V14.0131H15.4536V13.5119ZM15.4197 14.1168H15.9112V14.399H15.4197V14.1168ZM15.4819 13.1605H15.8773L15.9564 13.0223H15.4141L15.4819 13.1605ZM16.0129 12.6651L16.0186 12.3195H16.2898C16.1732 12.4121 16.0786 12.5302 16.0129 12.6651Z" fill="white" stroke="#BD6B00" stroke-width="0.0664662"/>
<path fill-rule="evenodd" clip-rule="evenodd" d="M15.5078 12.8078C15.5078 12.8827 15.5926 12.8539 15.5926 12.8135V12.491C15.5926 12.4334 15.7281 12.4449 15.7281 12.4852V12.8308C15.7281 12.8884 15.8242 12.8827 15.8185 12.8308V12.4276C15.8185 12.3009 15.5078 12.3066 15.5078 12.4218V12.8078ZM15.5078 13.5739H15.8298V13.9771H15.5078V13.5739Z" stroke="#BD6B00" stroke-width="0.0664662"/>
<path fill-rule="evenodd" clip-rule="evenodd" d="M15.7076 13.7475H15.8206V13.8051H15.7076V13.7475ZM15.5099 13.7475H15.6229V13.8051H15.5099V13.7475ZM15.6229 13.5747H15.7076V13.7475H15.6229V13.5747ZM15.6229 13.8051H15.7076V13.9837H15.6229V13.8051ZM13.8319 9.48482C13.8545 9.80164 13.7528 9.98021 13.589 9.95141C13.5438 9.7786 13.6455 9.65763 13.8319 9.48482ZM13.4647 10.1933C13.3178 10.1185 13.4252 9.5309 13.4817 9.2832C13.5212 9.60003 13.5947 10.0493 13.4647 10.1933Z" fill="white" stroke="#BD6B00" stroke-width="0.0664662"/>
<path fill-rule="evenodd" clip-rule="evenodd" d="M13.516 10.2216C13.7646 10.308 13.968 10.0373 14.0302 9.72048C13.8268 10.0085 13.4934 10.0085 13.5217 10.2216H13.516ZM13.3296 10.5154C13.1375 10.4636 13.2505 9.84145 13.2901 9.59375C13.3296 9.85297 13.4652 10.429 13.3296 10.5154ZM13.3974 10.4981C13.4087 10.285 13.6177 10.3426 13.7646 10.2274C13.7364 10.3426 13.6516 10.5269 13.3974 10.4981ZM13.1601 10.7862C12.968 10.7286 13.081 10.0603 13.0697 9.78384C13.1262 10.0258 13.307 10.7228 13.1601 10.7862ZM13.2505 10.7574C13.4087 10.8092 13.6177 10.6997 13.6347 10.5097C13.4934 10.6076 13.2788 10.5327 13.2505 10.7574Z" fill="white" stroke="#BD6B00" stroke-width="0.0664662"/>
<path fill-rule="evenodd" clip-rule="evenodd" d="M13.0174 11.081C12.8366 11.0983 12.9157 10.528 12.9157 9.99805C12.9835 10.4934 13.1699 10.9485 13.0174 11.081Z" fill="white" stroke="#BD6B00" stroke-width="0.0664662"/>
<path fill-rule="evenodd" clip-rule="evenodd" d="M13.0859 11.0581C13.2102 11.1157 13.4306 11.0178 13.4927 10.8046C13.2667 10.9026 13.1198 10.8046 13.0859 11.0581ZM14.5322 9.7793C14.4983 10.0616 14.3854 10.2228 14.2215 10.194C14.1763 10.0212 14.3119 9.90603 14.5322 9.7793ZM14.0916 10.4936C14.3684 10.5339 14.4644 10.3208 14.6565 10.0385C14.391 10.2344 14.0803 10.2689 14.0916 10.4993V10.4936Z" fill="white" stroke="#BD6B00" stroke-width="0.0664662"/>
<path fill-rule="evenodd" clip-rule="evenodd" d="M14.0075 10.464C13.8606 10.2797 14.0075 10.0435 14.1205 9.84766C14.0979 10.1414 14.1939 10.3085 14.0075 10.464ZM13.951 10.7693C13.9284 10.585 14.2334 10.5447 14.369 10.4467C14.3182 10.5504 14.256 10.8327 13.9453 10.7693H13.951Z" fill="white" stroke="#BD6B00" stroke-width="0.0664662"/>
<path fill-rule="evenodd" clip-rule="evenodd" d="M13.8825 10.7693C13.6735 10.7463 13.7582 10.3834 13.9107 10.1875C13.8486 10.464 14.0237 10.6541 13.8825 10.7693Z" fill="white" stroke="#BD6B00" stroke-width="0.0664662"/>
<path fill-rule="evenodd" clip-rule="evenodd" d="M13.7207 11.0738C13.4834 10.9586 13.6359 10.659 13.7207 10.4805C13.6868 10.7166 13.8789 10.8952 13.7207 11.068V11.0738Z" fill="white" stroke="#BD6B00" stroke-width="0.0664662"/>
<path fill-rule="evenodd" clip-rule="evenodd" d="M13.764 11.0398C13.8883 11.2126 14.1312 10.9937 14.1821 10.7402C13.973 10.9188 13.8148 10.89 13.764 11.0455V11.0398ZM13.2216 12.2091C13.199 11.9614 13.3798 11.5179 13.2499 11.276C13.2329 11.2414 13.2894 11.155 13.329 11.2068C13.3855 11.2932 13.442 11.5352 13.4702 11.443C13.4928 11.3451 13.4985 11.178 13.5832 11.1435C13.6397 11.1262 13.7131 11.1089 13.6905 11.2011C13.668 11.2817 13.6228 11.3969 13.6736 11.4027C13.7018 11.4027 13.7866 11.2875 13.86 11.2299C13.9165 11.1838 14.0069 11.2644 13.9165 11.3336C13.6454 11.564 13.3798 11.6734 13.2216 12.2091ZM12.7301 15.9246C12.6962 15.9246 12.6567 15.9073 12.6962 15.9592C13.0182 16.3624 13.1086 16.4776 13.5776 16.42C14.0465 16.3566 14.1595 16.2241 14.4928 16.034C14.5893 15.9823 14.6949 15.9505 14.8035 15.9406C14.9121 15.9308 15.0216 15.9429 15.1256 15.9764C15.2159 16.0052 15.2724 16.0052 15.2046 15.9361C15.1369 15.8728 15.0634 15.7806 14.9787 15.7172C14.7679 15.5735 14.511 15.5178 14.2612 15.5617C13.9222 15.6193 13.6341 15.844 13.2894 15.9304C13.1049 15.9684 12.9147 15.9684 12.7301 15.9304V15.9246ZM15.4306 16.6447C15.4871 16.6562 15.5267 16.7714 15.5606 16.6965C15.6058 16.564 15.5719 16.4661 15.5154 16.4718C15.4476 16.4891 15.3402 16.6447 15.4306 16.6447Z" fill="white" stroke="#BD6B00" stroke-width="0.0664662"/>
<path fill-rule="evenodd" clip-rule="evenodd" d="M12.5091 12.0195C12.4413 11.9388 12.4582 11.9158 12.5656 11.91C12.6447 11.91 12.8029 11.9676 12.865 11.9158C12.9215 11.8754 12.8932 11.7026 12.9215 11.6278C12.9328 11.5759 12.961 11.5125 13.0345 11.6162C13.2379 11.9503 13.4865 12.3536 13.5995 12.7453C13.6559 12.9642 13.5995 13.3098 13.4074 13.5402C13.4074 13.3444 13.3396 13.2119 13.2548 13.0448C13.1418 12.8317 12.7407 12.2384 12.5091 12.0137V12.0195Z" fill="white"/>
<path fill-rule="evenodd" clip-rule="evenodd" d="M13.3566 13.7706C13.5826 13.7706 13.6222 13.4653 13.6222 13.3789C13.5092 13.4019 13.3171 13.592 13.3566 13.7706ZM15.3058 16.7603C15.4639 16.7948 15.4583 16.4031 15.2945 16.2361C15.3679 16.4895 15.1815 16.7199 15.3001 16.7545L15.3058 16.7603ZM15.238 16.7545C15.2493 16.9388 14.786 16.7315 14.673 16.5817C14.9442 16.7027 15.2267 16.6047 15.238 16.7545ZM15.0402 16.4895C15.0572 16.6681 14.6448 16.5068 14.5148 16.3686C14.7916 16.4607 15.0233 16.3398 15.0402 16.4838V16.4895ZM15.1137 16.5126C15.2775 16.5529 15.2493 16.1439 15.0911 16.0057C15.1702 16.2764 14.9894 16.4722 15.1137 16.5126ZM14.9442 16.2649C15.108 16.3052 15.012 15.9538 14.8933 15.8156C14.9159 16.069 14.8368 16.2476 14.9498 16.2649H14.9442ZM14.8594 16.2649C14.8764 16.4492 14.5544 16.311 14.4301 16.1324C14.7012 16.2188 14.8425 16.1151 14.8594 16.2649ZM14.7747 16.1209C14.8764 16.046 14.769 15.8444 14.5657 15.8559C14.5883 15.9769 14.6561 16.1957 14.7747 16.1209ZM15.5656 16.9676C15.5713 17.152 15.1137 17.0598 14.9668 16.864C15.2606 16.9216 15.5487 16.8179 15.56 16.9676H15.5656ZM13.7352 16.6335C13.7521 16.8179 13.2493 16.6105 13.125 16.4377C13.3905 16.5299 13.7182 16.4838 13.7352 16.6335ZM14.0402 16.7084C14.1476 16.6335 13.9329 16.4377 13.7578 16.3916C13.7804 16.5126 13.9272 16.7833 14.0402 16.7142V16.7084ZM14.0741 16.8409C14.0854 17.008 13.5374 16.9158 13.3962 16.7603C13.8651 16.8467 14.0572 16.6969 14.0741 16.8409Z" fill="white" stroke="#BD6B00" stroke-width="0.0664662"/>
<path fill-rule="evenodd" clip-rule="evenodd" d="M14.335 16.9504C14.3915 17.1059 13.8661 17.0656 13.6797 16.9792C13.9791 16.9792 14.2898 16.8409 14.335 16.9504Z" fill="white" stroke="#BD6B00" stroke-width="0.0664662"/>
<path fill-rule="evenodd" clip-rule="evenodd" d="M14.5729 17.0654C14.6294 17.2036 14.1435 17.2036 13.9062 17.123C14.2226 17.123 14.5164 16.9271 14.5729 17.0654ZM14.9288 17.1403C15.0192 17.3073 14.4995 17.3188 14.3356 17.2382C14.6294 17.1979 14.8554 17.0078 14.9288 17.1403ZM14.3243 16.858C14.1605 16.9617 14.1718 16.6506 14.0418 16.4375C14.2452 16.6276 14.4373 16.7601 14.3243 16.858Z" fill="white" stroke="#BD6B00" stroke-width="0.0664662"/>
<path fill-rule="evenodd" clip-rule="evenodd" d="M14.6235 16.9726C14.4879 17.0936 14.3749 16.6673 14.2506 16.4254C14.454 16.6558 14.7478 16.869 14.6235 16.9669V16.9726ZM15.0077 17.0879C14.8947 17.2261 14.5557 16.6846 14.4314 16.3966C14.6179 16.6213 15.0981 16.9726 15.0077 17.0879ZM14.68 17.5026C14.6235 17.71 13.7648 17.3068 13.6631 17.0936C14.1603 17.3586 14.6913 17.301 14.68 17.4968V17.5026ZM11.9286 13.2514C11.906 13.2226 11.8496 13.2514 11.8609 13.3148C11.8778 13.4012 12.0021 13.8447 12.2168 13.9945C12.3693 14.1097 13.1772 14.2883 13.5388 14.3689C13.7422 14.4093 13.906 14.513 14.0416 14.6742C13.9952 14.4831 13.9386 14.2946 13.8721 14.1097C13.8043 13.9369 13.6235 13.7526 13.4315 13.7468C13.0868 13.7295 12.6349 13.7007 12.3015 13.5567C12.1505 13.4918 12.0197 13.3863 11.923 13.2514H11.9286Z" fill="white" stroke="#BD6B00" stroke-width="0.0664662"/>
<path fill-rule="evenodd" clip-rule="evenodd" d="M13.9192 15.0091C14.0322 15.0897 14.1508 14.7959 14.0152 14.5137C14.0096 14.7844 13.8006 14.8766 13.9192 15.0091Z" fill="white" stroke="#BD6B00" stroke-width="0.0664662"/>
<path fill-rule="evenodd" clip-rule="evenodd" d="M14.0266 15.2794C14.1791 15.3255 14.2243 15.049 14.1283 14.8301C14.1452 15.0663 13.8853 15.2103 14.0266 15.2794Z" fill="white" stroke="#BD6B00" stroke-width="0.0664662"/>
<path fill-rule="evenodd" clip-rule="evenodd" d="M14.1417 15.4988C14.2886 15.5737 14.3394 15.2915 14.2378 15.0898C14.2491 15.3491 14.0287 15.4297 14.1417 15.4931V15.4988Z" fill="white" stroke="#BD6B00" stroke-width="0.0664662"/>
<path fill-rule="evenodd" clip-rule="evenodd" d="M14.0848 15.5157C14.0283 15.6886 13.6893 15.3602 13.6328 15.1816C13.8418 15.3948 14.1243 15.366 14.0848 15.51V15.5157Z" fill="white" stroke="#BD6B00" stroke-width="0.0664662"/>
<path fill-rule="evenodd" clip-rule="evenodd" d="M13.9313 15.2453C13.8635 15.4181 13.4398 14.9573 13.3438 14.7441C13.5528 14.9573 13.9765 15.1186 13.9313 15.2395V15.2453Z" fill="white" stroke="#BD6B00" stroke-width="0.0664662"/>
<path fill-rule="evenodd" clip-rule="evenodd" d="M13.8485 14.9742C13.7807 15.1758 13.3231 14.6401 13.1875 14.45C13.4135 14.6574 13.8994 14.8302 13.8485 14.9742ZM13.8316 14.7783C14.001 14.7438 13.8259 14.6055 13.6225 14.3809C13.6169 14.617 13.6508 14.7841 13.8316 14.7783Z" fill="white" stroke="#BD6B00" stroke-width="0.0664662"/>
<path fill-rule="evenodd" clip-rule="evenodd" d="M13.5499 14.64C13.6234 14.5652 13.4878 14.5306 13.3183 14.3347C13.2901 14.4672 13.4765 14.7092 13.5556 14.64H13.5499ZM14.3409 15.5156C14.4313 15.5732 14.4878 15.3831 14.3804 15.2161C14.3522 15.4004 14.2618 15.4465 14.3409 15.5156ZM12.4087 14.3463C12.2223 14.4615 11.9228 14.0006 11.8438 13.8105C12.0076 14.0294 12.4426 14.2253 12.4087 14.3463Z" fill="white" stroke="#BD6B00" stroke-width="0.0664662"/>
<path fill-rule="evenodd" clip-rule="evenodd" d="M12.5715 14.611C12.4641 14.7262 12.1364 14.4093 12.0234 14.248C12.1929 14.4036 12.6166 14.4209 12.5715 14.611Z" fill="white" stroke="#BD6B00" stroke-width="0.0664662"/>
<path fill-rule="evenodd" clip-rule="evenodd" d="M12.7465 14.8529C12.7126 15.0142 12.238 14.6513 12.125 14.4785C12.3284 14.6801 12.7804 14.6628 12.7465 14.8529Z" fill="white" stroke="#BD6B00" stroke-width="0.0664662"/>
<path fill-rule="evenodd" clip-rule="evenodd" d="M12.6765 15.0317C12.6031 15.1757 12.2132 14.8128 12.1172 14.6285C12.3601 14.8358 12.7386 14.8877 12.6822 15.0317H12.6765ZM12.4788 14.3232C12.5974 14.1907 12.5466 14.1273 12.4562 13.9199C12.411 14.1331 12.3375 14.2195 12.4788 14.3232ZM12.6426 14.5708C12.8686 14.5824 12.6426 14.3059 12.5861 14.0697C12.6087 14.3347 12.5296 14.5478 12.6426 14.5708Z" fill="white" stroke="#BD6B00" stroke-width="0.0664662"/>
<path fill-rule="evenodd" clip-rule="evenodd" d="M12.7855 14.7897C12.9381 14.7552 12.8985 14.5305 12.7742 14.2598C12.8025 14.5535 12.6443 14.7206 12.7855 14.7897ZM12.729 15.2333C12.6725 15.4061 12.2319 15.0029 12.1641 14.8416C12.39 15.0374 12.7686 15.1008 12.729 15.2333Z" fill="white" stroke="#BD6B00" stroke-width="0.0664662"/>
<path fill-rule="evenodd" clip-rule="evenodd" d="M12.9948 15.511C12.9326 15.6839 12.4694 15.3267 12.3281 15.1309C12.605 15.3613 13.0287 15.3382 12.9948 15.511Z" fill="white" stroke="#BD6B00" stroke-width="0.0664662"/>
<path fill-rule="evenodd" clip-rule="evenodd" d="M13.2631 15.7916C13.1896 16.0393 12.7037 15.6418 12.5625 15.446C12.8676 15.6879 13.297 15.6188 13.2631 15.7916ZM12.8111 15.158C12.941 15.2213 12.9919 14.8469 12.9184 14.5762C12.9184 14.8642 12.6529 15.0831 12.8054 15.1522L12.8111 15.158Z" fill="white" stroke="#BD6B00" stroke-width="0.0664662"/>
<path fill-rule="evenodd" clip-rule="evenodd" d="M13.0331 15.459C13.1913 15.5051 13.1461 15.0961 13.0048 14.8254C12.9879 15.0961 12.8749 15.3438 13.0331 15.459ZM13.3156 15.7413C13.4851 15.7471 13.3721 15.3899 13.2252 15.1883C13.2478 15.4475 13.1687 15.7067 13.3156 15.7413ZM13.0048 15.8911C12.9484 15.9832 12.8241 15.8162 12.6094 15.6895C12.8015 15.7471 13.0274 15.8047 13.0048 15.8911ZM12.9032 12.8553C13.0726 12.7286 12.9427 12.4982 12.9032 12.2793C12.8467 12.4867 12.7111 12.7632 12.9032 12.8553ZM12.9032 13.1606C12.6489 13.1318 12.6885 12.8093 12.6772 12.6019C12.7563 12.8841 12.9597 12.9302 12.9032 13.1664V13.1606ZM12.9371 13.1203C13.1461 13.1088 13.1348 12.8669 13.1461 12.6249C13.0387 12.8496 12.9201 12.8841 12.9371 13.1203Z" fill="white" stroke="#BD6B00" stroke-width="0.0664662"/>
<path fill-rule="evenodd" clip-rule="evenodd" d="M12.9309 13.4186C12.7614 13.4358 12.6823 13.2688 12.6484 13.0153C12.801 13.2515 12.9366 13.1766 12.9309 13.4186ZM12.9874 13.4013C13.1965 13.4301 13.1569 13.1824 13.1569 12.998C13.0891 13.1709 12.9196 13.2285 12.9874 13.4013Z" fill="white" stroke="#BD6B00" stroke-width="0.0664662"/>
<path fill-rule="evenodd" clip-rule="evenodd" d="M12.6562 13.2988C12.6732 13.4601 12.7749 13.7366 12.9387 13.6733C13.0009 13.4774 12.7918 13.4371 12.6562 13.2988Z" fill="white" stroke="#BD6B00" stroke-width="0.0664662"/>
<path fill-rule="evenodd" clip-rule="evenodd" d="M12.9908 13.6895C12.9231 13.5513 13.1603 13.4764 13.2055 13.2921C13.2338 13.557 13.2112 13.7298 12.9908 13.6953V13.6895ZM12.3185 12.0075C12.4485 11.8692 12.3355 11.6388 12.2959 11.4199C12.2394 11.6273 12.1547 11.9038 12.3185 12.0075ZM12.3185 12.2725C12.0926 12.3013 12.0361 11.8289 12.0078 11.6215C12.0869 11.9038 12.3468 12.0248 12.3185 12.2782V12.2725ZM12.3637 12.2725C12.5219 12.1861 12.488 12.0017 12.5332 11.8692C12.4315 12.0363 12.3298 12.0593 12.3637 12.2725Z" fill="white" stroke="#BD6B00" stroke-width="0.0664662"/>
<path fill-rule="evenodd" clip-rule="evenodd" d="M12.3061 12.5834C12.0744 12.6007 11.9332 12.0765 11.9219 11.8691C11.9953 12.1514 12.3399 12.3012 12.3117 12.5834H12.3061ZM12.3569 12.5719C12.5829 12.5201 12.5546 12.3703 12.5207 12.1341C12.4473 12.3761 12.323 12.3242 12.3569 12.5719Z" fill="white" stroke="#BD6B00" stroke-width="0.0664662"/>
<path fill-rule="evenodd" clip-rule="evenodd" d="M12.3113 12.8828C12.0515 12.9288 12.0684 12.5026 11.8594 12.1973C12.0402 12.4277 12.3678 12.7157 12.3113 12.8828ZM12.3678 12.8655C12.5712 12.877 12.5938 12.5717 12.5825 12.445C12.5317 12.5717 12.3 12.6869 12.3735 12.8712L12.3678 12.8655Z" fill="white" stroke="#BD6B00" stroke-width="0.0664662"/>
<path fill-rule="evenodd" clip-rule="evenodd" d="M11.9062 12.5547C12.0023 12.883 12.1435 13.2114 12.313 13.1883C12.3978 12.9982 12.1492 12.9752 11.9062 12.5547Z" fill="white" stroke="#BD6B00" stroke-width="0.0664662"/>
<path fill-rule="evenodd" clip-rule="evenodd" d="M12.3699 13.1377C12.3021 12.9937 12.5394 12.9246 12.5846 12.7402C12.6128 13.0052 12.5902 13.178 12.3699 13.1377ZM11.9688 12.9303C12.11 13.2241 12.1721 13.564 12.3642 13.5121C12.4377 13.2817 12.1495 13.2356 11.9688 12.9303Z" fill="white" stroke="#BD6B00" stroke-width="0.0664662"/>
<path fill-rule="evenodd" clip-rule="evenodd" d="M12.4055 13.459C12.3208 13.2977 12.5581 13.2459 12.6202 13.0327C12.6485 13.3092 12.6202 13.5108 12.4055 13.4532V13.459ZM12.8123 11.4717C12.9479 11.5062 13.0948 11.3507 13.0439 11.1145C12.8857 11.1491 12.8179 11.2988 12.8123 11.4717ZM12.366 11.3507C12.3773 11.4198 12.462 11.4256 12.4338 11.3276C12.4127 11.2641 12.4127 11.1953 12.4338 11.1318C12.461 11.0456 12.461 10.953 12.4338 10.8668C12.4112 10.8092 12.3321 10.8438 12.366 10.8899C12.3999 10.9417 12.4055 11.0511 12.3773 11.103C12.3434 11.1779 12.3547 11.2758 12.366 11.3507ZM13.6597 12.2724C13.6032 12.3472 13.4959 12.2954 13.5806 12.1859C13.6484 12.0995 13.7501 12.0247 13.7501 11.9325C13.7614 11.8173 13.8236 11.6445 13.8857 11.5811C13.9479 11.5177 14.0213 11.6041 13.9535 11.6502C13.8801 11.6963 13.8292 11.9037 13.8349 11.9843C13.8292 12.0995 13.7219 12.1859 13.6597 12.2724ZM13.4903 12.1399C13.4338 12.2205 13.3547 12.1687 13.3999 12.0419C13.4394 11.9555 13.4451 11.8403 13.4903 11.777C13.558 11.679 13.6597 11.5984 13.7219 11.535C13.7897 11.4774 13.8349 11.535 13.7784 11.5926C13.7091 11.6632 13.6467 11.7403 13.5919 11.823C13.5128 11.9498 13.5467 12.0535 13.4903 12.1399ZM12.6033 11.7251C12.5976 11.8403 12.688 11.8634 12.6824 11.7021C12.6824 11.5293 12.5581 11.368 12.6259 11.1087C12.6711 10.982 12.6711 10.7458 12.6485 10.6249C12.6259 10.4981 12.5355 10.5788 12.575 10.6767C12.6089 10.7919 12.5694 10.9993 12.5411 11.1087C12.4564 11.4198 12.6089 11.5696 12.5976 11.7251H12.6033ZM12.8462 11.0915C12.8349 11.2009 12.7445 11.2067 12.7727 11.0627C12.7953 10.9475 12.7953 10.8553 12.7727 10.7574C12.7388 10.6364 12.7501 10.429 12.7727 10.3426C12.801 10.2504 12.8857 10.3023 12.8518 10.3714C12.8124 10.4803 12.8065 10.5989 12.8349 10.7113C12.8688 10.8265 12.8631 10.9878 12.8462 11.0972V11.0915ZM11.9648 13.2286C12.01 13.2804 12.0778 13.2459 12.0213 13.171C11.9648 13.1134 11.9818 13.1019 11.9479 13.0327C11.914 12.9521 11.9197 12.9118 11.8801 12.8599C11.8406 12.8023 11.7897 12.8599 11.8236 12.9002C11.8688 12.9578 11.8575 12.9924 11.8801 13.0442C11.9366 13.1307 11.9197 13.1767 11.9648 13.2286ZM13.1174 14.6456C13.1864 14.6846 13.2452 14.74 13.2885 14.8073C13.3318 14.8745 13.3584 14.9515 13.366 15.0316C13.3719 15.175 13.4106 15.3151 13.479 15.4406C13.366 15.4118 13.3095 15.2274 13.2925 15.0489C13.2756 14.8645 13.1795 14.7897 13.123 14.6456H13.1174ZM13.4055 14.9855C13.5015 15.1641 13.6315 15.2332 13.6428 15.3657C13.6541 15.5212 13.6654 15.527 13.7049 15.6768C13.5919 15.648 13.5637 15.6364 13.5354 15.406C13.5185 15.2447 13.3886 15.1353 13.4055 14.9855Z" fill="white" stroke="#BD6B00" stroke-width="0.0664662"/>
<path fill-rule="evenodd" clip-rule="evenodd" d="M16.3807 16.6443C16.4372 16.748 16.4937 16.9035 16.6067 16.8747C16.6067 16.7998 16.4881 16.7422 16.3807 16.6443ZM16.5502 16.6788C16.7593 16.771 16.9457 16.748 16.9739 16.8862C16.7706 16.9093 16.6915 16.8286 16.5446 16.6788H16.5502ZM15.6406 15.9473C15.781 16.0585 15.8805 16.2148 15.9231 16.3908C15.9686 16.5501 16.0372 16.7015 16.1265 16.8401C15.9796 16.7395 15.8732 16.5881 15.8271 16.4139C15.7875 16.241 15.7367 16.1086 15.6406 15.953V15.9473ZM15.8158 15.9473C15.974 16.074 16.1208 16.2238 16.166 16.4023C16.2112 16.5694 16.2395 16.6961 16.3468 16.8632C16.1773 16.7537 16.1152 16.5924 16.0643 16.4139C16.0248 16.241 15.9231 16.1143 15.8158 15.953V15.9473ZM16.3355 16.3678C16.3333 16.3534 16.336 16.3386 16.3432 16.326C16.3505 16.3135 16.3617 16.3038 16.3751 16.2987C16.4234 16.2813 16.4724 16.2659 16.522 16.2526C16.5785 16.2353 16.6124 16.2756 16.6124 16.3044V16.4196C16.6124 16.4599 16.6011 16.4657 16.5728 16.4715C16.5333 16.4772 16.4768 16.483 16.4372 16.5118C16.4033 16.5348 16.3694 16.5175 16.3525 16.483L16.3355 16.3678ZM16.9344 16.3678C16.9344 16.3332 16.9231 16.3044 16.9005 16.2987C16.8576 16.2806 16.8112 16.2727 16.7649 16.2756C16.7084 16.2756 16.7028 16.2871 16.7028 16.3102V16.4311C16.7028 16.4772 16.7028 16.4772 16.7254 16.4887C16.7649 16.4887 16.827 16.4887 16.8666 16.5233C16.8948 16.5406 16.9231 16.5233 16.9287 16.4887L16.9344 16.3678Z" fill="white"/>
<path fill-rule="evenodd" clip-rule="evenodd" d="M18.612 17.9878C18.612 18.057 18.6233 18.1146 18.6685 18.1664C18.4101 18.0868 18.1317 18.1094 17.8889 18.2298C17.7872 18.2758 17.6629 18.1722 17.7815 18.0742C17.951 17.9417 18.3295 18.0166 18.612 17.9878ZM15.3635 17.9878C15.3684 18.0464 15.3607 18.1054 15.3409 18.1606C15.5895 18.0627 15.855 18.1491 16.1092 18.2528C16.2787 18.3277 16.2957 18.1952 16.2674 18.1549C16.2362 18.1067 16.1944 18.0666 16.1454 18.0376C16.0964 18.0086 16.0415 17.9916 15.9849 17.9878H15.3635ZM15.5782 16.7378C15.5047 16.709 15.4256 16.7378 15.3522 16.8185C15.1092 17.0604 14.8211 17.2966 14.5895 17.4867C14.5047 17.5616 14.42 17.6998 14.7816 17.8323C14.7985 17.8438 15.064 17.9475 15.2335 17.9475C15.307 17.9475 15.307 18.0512 15.29 18.08C15.2618 18.1376 15.2844 18.1606 15.2279 18.2125C15.1657 18.2701 15.2279 18.3335 15.2844 18.2874C15.4878 18.103 15.8267 18.224 16.1488 18.3277C16.2279 18.3507 16.3635 18.345 16.3635 18.2355C16.3635 18.1203 16.4482 18.0397 16.4991 18.0339C16.6346 18.057 17.29 18.0627 17.4877 18.0397C17.6007 18.0224 17.612 18.2067 17.6742 18.2701C17.7194 18.3219 17.8832 18.3335 18.0019 18.2816C18.2278 18.1779 18.5668 18.1779 18.7081 18.2816C18.7646 18.3219 18.8154 18.2816 18.7815 18.2413C18.7363 18.1837 18.742 18.1491 18.7194 18.103C18.6629 17.9878 18.7081 17.9648 18.7646 17.959C19.386 17.8726 19.5894 17.6595 19.3973 17.4809C19.1487 17.262 18.8775 17.0374 18.6403 16.7781C18.5725 16.709 18.5273 16.6802 18.3973 16.7378C17.9474 16.9458 17.4617 17.0613 16.968 17.0777C16.4897 17.0462 16.0199 16.9333 15.5782 16.7436V16.7378Z" fill="white"/>
<path fill-rule="evenodd" clip-rule="evenodd" d="M18.5022 16.7715L18.4118 16.7945C17.9033 16.9789 17.44 17.1056 16.9598 17.1056C16.4909 17.1056 15.9994 16.9673 15.553 16.783C15.5256 16.7734 15.4958 16.7734 15.4683 16.783C15.4401 16.7888 15.4118 16.806 15.3949 16.8233C15.1861 17.0363 14.9633 17.2345 14.7282 17.4167C14.6887 17.4455 14.6943 17.5203 14.7565 17.5434C15.2254 17.7162 15.683 18.033 16.9937 18.0215C18.3214 18.01 18.7903 17.6989 19.2084 17.5549C19.2366 17.5434 19.2649 17.5261 19.2818 17.4973C19.2858 17.4904 19.2884 17.4828 19.2894 17.4749C19.2904 17.4669 19.2897 17.4589 19.2875 17.4512C19.2802 17.4332 19.2685 17.4173 19.2536 17.4051C19.0106 17.2035 18.7564 17.0422 18.5869 16.806C18.57 16.7772 18.5361 16.7715 18.5022 16.7772V16.7715ZM18.5022 16.8003C18.5304 16.8003 18.5587 16.8003 18.5643 16.8176C18.7338 17.0653 18.9993 17.2208 19.2366 17.4224L19.2592 17.4627C19.2608 17.4664 19.2616 17.4703 19.2616 17.4743C19.2616 17.4782 19.2608 17.4821 19.2592 17.4858C19.2536 17.5031 19.2253 17.5203 19.2027 17.5261C18.7733 17.6759 18.3157 17.9869 16.9994 17.9985C15.6886 18.01 15.2367 17.6931 14.7677 17.5203C14.7226 17.4973 14.7282 17.4512 14.7452 17.4397C14.9824 17.2554 15.2084 17.048 15.4118 16.8406C15.4293 16.8239 15.4507 16.812 15.474 16.806H15.5418C15.9883 17.0038 16.4676 17.1133 16.9542 17.1286C17.4457 17.1286 17.9146 17.0019 18.4231 16.8233C18.4503 16.8123 18.4788 16.8046 18.5078 16.8003H18.5022Z" fill="#BD6B00"/>
<path fill-rule="evenodd" clip-rule="evenodd" d="M15.2892 8.07997C15.2892 7.99933 15.4022 7.99357 15.3909 8.10301C15.374 8.2355 15.6452 8.58113 15.6678 8.79426C15.6847 8.93827 15.583 9.05924 15.487 9.13989C15.4316 9.17989 15.3665 9.20371 15.2988 9.20879C15.2311 9.21386 15.1633 9.2 15.1028 9.16869C15.052 9.12261 15.0068 8.9786 15.0463 8.92099C15.0576 8.90371 15.1198 9.13413 15.2553 9.13413C15.4418 9.13413 15.5943 8.99012 15.5943 8.86339C15.6056 8.64449 15.2949 8.29887 15.2892 8.07997ZM15.826 8.62145C15.8599 8.59841 15.9051 8.69634 15.8712 8.71938C15.8429 8.73666 15.7864 8.64449 15.826 8.61569V8.62145ZM15.9107 8.41984C15.8938 8.43136 15.8655 8.41984 15.8712 8.40832C15.9255 8.33141 15.9947 8.2667 16.0745 8.21822C16.0971 8.2067 16.131 8.24126 16.1197 8.25855C16.0621 8.32685 15.9908 8.38184 15.9107 8.41984ZM16.6226 7.8438C16.6395 7.80923 16.7412 7.76891 16.7694 7.74587C16.792 7.71707 16.8033 7.76891 16.792 7.78619C16.7751 7.82651 16.6847 7.88412 16.6452 7.88988C16.6282 7.88988 16.6113 7.86684 16.6226 7.84956V7.8438ZM16.8655 7.86108C16.8952 7.78448 16.9439 7.71701 17.0067 7.66522C17.035 7.64794 17.0802 7.66522 17.0689 7.68827C17.0305 7.76446 16.9742 7.82977 16.905 7.87836C16.8881 7.89564 16.8598 7.87836 16.8655 7.86108ZM16.6565 8.01661C16.6395 8.02813 16.6508 8.05693 16.6621 8.06269C16.696 8.07421 16.7468 8.07421 16.7751 8.06269C16.809 8.03965 16.792 7.89564 16.7468 7.97052C16.713 8.01661 16.6904 8.00509 16.6565 8.01661ZM16.244 8.33919C16.1706 8.28159 16.2666 8.20094 16.3401 8.25855C16.4926 8.37375 16.1141 8.82307 15.9107 9.03044C15.8712 9.07076 15.8373 8.97284 15.8881 8.92099C16.0352 8.79534 16.1628 8.64775 16.2666 8.4832C16.2892 8.4544 16.3062 8.39103 16.244 8.33919ZM17.1084 7.959C17.1141 7.9014 17.018 7.959 17.018 7.88412C17.018 7.8438 17.1254 7.81499 17.1706 7.86108C17.244 7.94172 17.1875 8.07421 17.0576 8.08573C16.9559 8.08573 16.7751 8.24126 16.8033 8.27007C16.8316 8.31039 17.1084 8.33343 17.2723 8.31039C17.374 8.29311 17.3514 8.38527 17.2497 8.3968C17.148 8.40832 17.0689 8.3968 16.9785 8.43136C16.8655 8.46016 16.8203 8.60417 16.7581 8.66177C16.7468 8.67329 16.713 8.61569 16.7243 8.59265C16.7694 8.52352 16.8372 8.41984 16.9163 8.38527C16.9615 8.36799 16.7807 8.36223 16.7243 8.34495C16.6791 8.33343 16.6904 8.27007 16.7073 8.2355C16.7299 8.18942 16.8994 8.01085 16.9728 8.01661C17.035 8.01661 17.1028 7.99933 17.1084 7.959ZM17.3909 7.97052C17.4248 7.94172 17.4474 7.89564 17.4757 7.86684C17.4926 7.84956 17.5265 7.86684 17.5208 7.91292C17.5152 7.95324 17.4644 7.98205 17.4361 8.01085C17.4079 8.02813 17.3796 7.98781 17.3966 7.97052H17.3909ZM17.7581 7.83804C17.809 7.83804 17.8146 7.9302 17.7694 7.94172C17.7355 7.95324 17.7129 7.8438 17.7581 7.83804ZM17.6395 8.12606C17.6395 8.21246 17.679 8.2067 17.7525 8.20094C17.8259 8.20094 17.8881 8.20094 17.8881 8.13182C17.8881 8.05693 17.8485 7.98781 17.8316 8.03965C17.8259 8.08573 17.8146 8.16638 17.7864 8.13182C17.7638 8.10301 17.7751 8.09725 17.7299 8.14334C17.7016 8.17214 17.7016 8.13182 17.6847 8.10877C17.6734 8.09149 17.6395 8.1203 17.6395 8.13182V8.12606ZM17.1197 8.54081C17.1028 8.65025 17.1197 8.80002 17.1706 8.80002C17.2384 8.80002 17.374 8.56961 17.4418 8.44288C17.4813 8.37375 17.5434 8.36223 17.5152 8.43712C17.4757 8.54657 17.4813 8.78274 17.5152 8.85187C17.5378 8.88643 17.6847 8.8173 17.7073 8.76546C17.7525 8.66753 17.7129 8.48896 17.7299 8.37951C17.7355 8.31039 17.8033 8.29311 17.7977 8.36223C17.7888 8.50606 17.7869 8.65025 17.792 8.79426C17.792 8.85187 17.9559 8.93251 17.9785 8.7597C17.9898 8.65601 18.0463 8.54657 17.9785 8.43136C17.9333 8.35647 18.0406 8.36223 18.0971 8.46592C18.1367 8.53505 18.0632 8.65025 18.0689 8.73666C18.0689 8.87491 17.9672 8.95555 17.8937 8.95555C17.8259 8.95555 17.7807 8.86915 17.7242 8.86915C17.6677 8.86915 17.5999 8.96708 17.5547 8.96131C17.3514 8.94979 17.4587 8.65601 17.3966 8.65025C17.3288 8.65025 17.2553 8.93827 17.1706 8.93251C17.0915 8.92099 17.0011 8.69058 17.0406 8.59841C17.0689 8.50624 17.1254 8.4832 17.1197 8.54081ZM18.0745 8.07997C17.9785 8.02237 18.0745 7.86684 18.1254 7.91868C18.2158 8.03389 18.3061 8.29311 18.3739 8.31615C18.4135 8.32767 18.4078 8.1203 18.4361 8.02813C18.4587 7.95324 18.5378 7.97629 18.5265 8.06845C18.5208 8.09725 18.4135 8.43712 18.4248 8.44864C18.5 8.5924 18.5624 8.74278 18.6112 8.89795C18.6282 8.96708 18.5491 8.92099 18.5378 8.90947C18.4869 8.82883 18.4022 8.53505 18.4022 8.55233L18.3061 8.99588C18.2948 9.05348 18.2101 9.04196 18.2327 8.93827C18.2496 8.85763 18.3626 8.46016 18.357 8.44288C18.2923 8.30085 18.1955 8.17648 18.0745 8.07997Z" fill="white"/>
<path fill-rule="evenodd" clip-rule="evenodd" d="M18.2445 9.03716C18.2219 9.03716 18.1767 9.09477 18.3123 9.12357C18.4874 9.15813 18.6852 9.09477 18.7417 8.91619C18.8151 8.70306 18.8546 8.50144 18.8942 8.42656C18.9394 8.34015 18.9959 8.34591 18.9507 8.21918C18.9224 8.12126 18.8659 8.15006 18.8546 8.2019C18.8264 8.33439 18.7078 8.77794 18.6682 8.85283C18.6004 9.0026 18.4592 9.0602 18.2445 9.03716Z" fill="white"/>
<path fill-rule="evenodd" clip-rule="evenodd" d="M18.6052 8.33247C18.5826 8.29215 18.5374 8.33247 18.5487 8.3728C18.5514 8.38907 18.5597 8.40382 18.5721 8.41439C18.5845 8.42495 18.6003 8.43063 18.6165 8.4304C18.656 8.4304 18.7407 8.43616 18.7407 8.3728C18.7407 8.32671 18.7012 8.28639 18.6786 8.33823C18.6504 8.38432 18.6221 8.37856 18.6052 8.33823V8.33247ZM18.6447 8.15966C18.6334 8.17118 18.6447 8.22303 18.6617 8.21727C18.7266 8.21774 18.7906 8.20191 18.8481 8.17118C18.8594 8.15966 18.8537 8.13086 18.8368 8.13086C18.7803 8.13086 18.6899 8.13086 18.6447 8.15966ZM19.1419 8.29215C19.1871 8.22303 19.3001 8.21727 19.2549 8.31519C19.1388 8.55272 19.0202 8.78891 18.8989 9.02372C18.8537 9.10437 18.8198 9.06405 18.8537 9.00068C18.8933 8.92004 19.1306 8.30943 19.1419 8.29215Z" fill="white"/>
<path fill-rule="evenodd" clip-rule="evenodd" d="M18.7074 9.14086C18.6961 9.09477 18.6227 9.02565 18.634 9.15238C18.6453 9.37127 18.9447 9.30215 19.0295 9.22726C19.1142 9.15238 19.0464 9.47496 19.1538 9.50952C19.2103 9.5268 19.3232 9.44616 19.3797 9.37127C19.5323 9.16966 19.634 8.87588 19.7752 8.68002C19.8317 8.59938 19.747 8.54177 19.7187 8.60514C19.5831 8.82403 19.4249 9.27334 19.2498 9.38855C19.1086 9.48072 19.1538 9.27334 19.1481 9.20422C19.1425 9.15814 19.086 9.08901 19.0125 9.15238C18.9534 9.20061 18.8791 9.22519 18.8035 9.2215C18.7639 9.2215 18.7244 9.2215 18.7074 9.14086Z" fill="white"/>
<path fill-rule="evenodd" clip-rule="evenodd" d="M19.2404 8.73635C19.2404 8.71907 19.1783 8.71331 19.1839 8.77667C19.1839 8.82276 19.2404 8.83428 19.2461 8.83428C19.3308 8.76515 19.2291 8.79972 19.2404 8.73059V8.73635ZM19.1105 8.98981C19.0935 8.98981 19.0766 9.04741 19.1218 9.05317L19.3421 9.04165C19.3647 9.04165 19.376 8.98981 19.3195 8.99557C19.2517 8.99557 19.167 8.97829 19.1105 8.99557V8.98981ZM15.6077 8.03358C15.6359 8.03358 15.6981 8.11423 15.6924 8.14303C15.6924 8.15455 15.6246 8.14303 15.6077 8.12575C15.5907 8.10847 15.5964 8.03358 15.6077 8.03358ZM15.3083 8.63266C15.2518 8.66723 15.3196 8.73059 15.3648 8.70179C15.5229 8.59234 15.7602 8.48289 15.8167 8.26976C15.8337 8.20063 15.8958 8.09119 15.958 8.06814C16.0145 8.03934 16.1049 8.17759 16.1614 8.06814C16.1953 8.01054 16.3139 8.10847 16.3421 8.0451C16.376 7.97022 16.3591 7.92989 16.3591 7.84925C16.3591 7.80317 16.3195 7.79164 16.2913 7.86653C16.28 7.90109 16.2913 7.93565 16.2856 7.9587C16.2743 7.97022 16.2517 7.98174 16.2291 7.97022C16.2178 7.9587 16.2291 7.92989 16.1953 7.91261C16.184 7.91261 16.1614 7.90685 16.1501 7.92413C16.1105 7.99902 16.0936 8.06814 16.0314 7.98174C15.9806 7.92413 15.9523 7.80317 15.9184 7.96446C15.9071 8.02206 15.8224 8.10271 15.7715 8.10271C15.7094 8.10271 15.7263 7.92989 15.5907 7.9587C15.5173 7.97598 15.5229 8.11423 15.5342 8.16031C15.5512 8.2352 15.7602 8.18335 15.7433 8.22944C15.7094 8.38497 15.4947 8.5405 15.3083 8.63266ZM14.0258 9.39304C14.0201 9.42184 14.054 9.49096 14.0879 9.49672C14.1218 9.49672 14.1444 9.42184 14.1331 9.39304C14.1218 9.37576 14.0314 9.37576 14.0258 9.39304ZM14.2122 9.6753C14.1896 9.65226 14.1218 9.71562 14.1783 9.7617C14.2066 9.79051 14.3196 9.82507 14.3478 9.77322C14.393 9.7041 14.3083 9.4564 14.3478 9.4276C14.3761 9.3988 14.506 9.58889 14.5738 9.60041C14.7263 9.62345 14.6868 9.33543 14.8563 9.35848C14.9636 9.37 14.9749 9.23175 14.958 9.13958C14.9467 9.05317 14.8111 8.9322 14.7489 8.8746C14.6699 8.80548 14.6303 8.93221 14.6811 8.96677C14.7489 9.02437 14.8676 9.13382 14.8845 9.20294C14.8902 9.23751 14.8054 9.30663 14.7715 9.28935C14.6924 9.24327 14.6247 9.05893 14.5569 9.01861C14.5343 9.00709 14.4778 9.03589 14.5004 9.0935C14.5343 9.15686 14.6698 9.24903 14.6755 9.31815C14.6811 9.37576 14.619 9.50249 14.5738 9.50249C14.523 9.50249 14.4043 9.34695 14.3648 9.27207C14.3422 9.24327 14.28 9.24327 14.2687 9.29511C14.2651 9.40151 14.2745 9.50795 14.297 9.61193C14.3083 9.7041 14.2461 9.70986 14.2122 9.6753ZM13.9862 9.1799C13.9636 9.20294 14.0314 9.24903 14.0427 9.23751C14.0653 9.21447 14.1614 9.10502 14.1444 9.06469C14.1275 9.03013 13.9975 8.94949 13.9749 8.98981C13.9354 9.05317 14.0992 9.08774 14.071 9.10502C14.0394 9.12575 14.0109 9.15096 13.9862 9.1799ZM14.2179 8.69603C14.2179 8.69603 14.2631 8.84004 14.297 8.77667C14.3196 8.73635 14.2179 8.69603 14.2179 8.69603ZM14.2857 8.92645C14.2744 8.92645 14.2292 8.96677 14.2574 8.98405C14.3026 9.00709 14.4213 9.03013 14.393 8.94373C14.3761 8.89188 14.5738 8.94373 14.523 8.80548C14.5025 8.76284 14.4687 8.72838 14.4269 8.70755C14.4043 8.70755 14.3422 8.73635 14.3817 8.75939C14.41 8.77091 14.4947 8.82276 14.4665 8.85732C14.4269 8.89188 14.4043 8.84004 14.3591 8.85156C14.3365 8.85156 14.3535 8.92068 14.3365 8.93797C14.3365 8.94949 14.297 8.91492 14.2857 8.92068V8.92645ZM14.5964 8.37921C14.5616 8.40858 14.5376 8.44924 14.5286 8.49441C14.5286 8.50594 14.5456 8.52898 14.5569 8.52322C14.5917 8.49629 14.6158 8.45741 14.6247 8.41377C14.6247 8.39649 14.6134 8.36769 14.5964 8.37921ZM14.7546 8.36192C14.7094 8.30432 14.8111 8.21215 14.8506 8.33312C14.8789 8.40801 15.1614 8.7882 15.2179 8.91492C15.2631 9.00133 15.2179 9.03589 15.167 8.97253C15.0258 8.7882 14.9071 8.55778 14.7546 8.36192ZM15.0484 8.36769C15.0992 8.31008 15.2009 8.19487 15.1727 8.13727C15.1501 8.07966 15.0879 8.07966 15.0766 8.09695C15.0201 8.17183 15.1218 8.15455 15.1049 8.17759C15.0766 8.2352 15.0484 8.26976 15.0314 8.32736C15.0258 8.34464 15.0371 8.37921 15.0484 8.36769ZM19.4438 8.55202C19.4042 8.52322 19.4777 8.37921 19.5285 8.43681C19.6585 8.59234 19.7206 9.10502 19.7602 9.49097C19.7602 9.49097 19.7037 9.54281 19.7037 9.53129C19.7037 9.32967 19.6189 8.70179 19.4438 8.55202ZM16.4438 8.05662C16.3986 7.95294 16.506 7.91837 16.5229 7.9875C16.5964 8.3216 16.7772 8.57506 16.9184 8.79972C16.958 8.86884 16.9184 8.91492 16.8224 8.8458C16.7546 8.79972 16.6811 8.62114 16.6529 8.61538C16.5851 8.60386 16.4382 8.9034 16.1388 8.817C16.0597 8.79396 16.0653 8.55778 16.0597 8.45409C16.0597 8.40225 16.1162 8.39649 16.1162 8.45409C16.1162 8.55202 16.1162 8.75363 16.2348 8.76515C16.3365 8.76515 16.5512 8.6269 16.5964 8.5117C16.6416 8.39649 16.489 8.17183 16.4438 8.05086V8.05662Z" fill="white"/>
<path fill-rule="evenodd" clip-rule="evenodd" d="M19.5209 9.45055C19.5435 9.38143 19.8655 8.82843 19.9107 8.70746C19.9333 8.64986 20.0237 8.81115 19.9333 8.89755C19.8542 8.96668 19.6226 9.35839 19.5774 9.49664C19.5548 9.55424 19.4983 9.52544 19.5209 9.45055Z" fill="white"/>
<path fill-rule="evenodd" clip-rule="evenodd" d="M20.0714 8.9269C20.1279 8.69648 20.2748 8.96146 20.1449 9.08819C19.9528 9.28404 19.8907 9.65847 19.5799 9.71607C19.5008 9.73335 19.3539 9.67575 19.3087 9.64119C19.2918 9.62967 19.32 9.54902 19.3709 9.58934C19.4443 9.64695 19.6025 9.66423 19.6873 9.5951C19.8719 9.4116 20.0046 9.18078 20.0714 8.9269ZM16.8512 9.65847C16.8342 9.67575 16.7947 9.67575 16.789 9.69879C16.7721 9.77944 16.789 9.82552 16.7721 9.90617C16.7551 9.98681 16.6986 9.98681 16.7043 9.92345C16.7043 9.8428 16.7777 9.72183 16.7269 9.71607C16.693 9.71031 16.6704 9.66423 16.7043 9.64119C16.7664 9.60086 16.8003 9.60663 16.8399 9.61815C16.8568 9.62391 16.8625 9.64695 16.8512 9.65847Z" fill="white"/>
<path fill-rule="evenodd" clip-rule="evenodd" d="M16.8034 9.54402C16.7243 9.62467 16.6452 9.65347 16.5717 9.74564C16.5378 9.7802 16.5435 9.83204 16.5209 9.88389C16.5039 9.93573 16.4418 9.94149 16.4248 9.93573C16.3966 9.91269 16.4022 9.82052 16.3683 9.86661C16.3344 9.91845 16.3175 9.98181 16.2723 9.98181C16.2327 9.98181 16.1593 9.89541 16.1988 9.89541C16.3288 9.87813 16.3231 9.7802 16.3683 9.76868C16.4248 9.76292 16.4248 9.85508 16.4644 9.8378C16.487 9.82628 16.5039 9.71683 16.5322 9.68803C16.6169 9.59587 16.6847 9.54978 16.7751 9.48066C16.8147 9.4461 16.8486 9.50946 16.8034 9.54978V9.54402ZM17.1028 9.83204C17.035 9.84356 17.0463 9.92997 17.0689 9.93573C17.0971 9.95301 17.148 9.95877 17.1649 9.86084C17.1762 9.82052 17.1819 10.0625 17.2666 9.97029C17.3231 9.91269 17.4418 9.98181 17.4926 9.91269C17.5322 9.86084 17.5491 9.82628 17.5152 9.75716C17.5039 9.73988 17.4587 9.74564 17.4587 9.79748C17.4587 9.84356 17.4305 9.89541 17.3853 9.88965C17.3627 9.88389 17.3966 9.7802 17.374 9.7514C17.3687 9.74612 17.3616 9.74316 17.3542 9.74316C17.3468 9.74316 17.3397 9.74612 17.3344 9.7514C17.3175 9.77444 17.3514 9.87813 17.3005 9.88965C17.2327 9.90117 17.2666 9.82052 17.244 9.809C17.148 9.76292 17.1423 9.82052 17.1028 9.82628V9.83204ZM17.6113 9.65923C17.6621 9.64771 17.6452 9.64771 17.7242 9.58435C17.7525 9.5613 17.7581 9.63043 17.7525 9.65923C17.7525 9.69955 17.696 9.67075 17.679 9.71107C17.6565 9.76292 17.6678 9.88389 17.6565 9.92997C17.6565 9.95301 17.6113 9.95301 17.6113 9.92997C17.6 9.87237 17.6169 9.81476 17.6113 9.73988C17.6113 9.71683 17.583 9.67651 17.6113 9.66499V9.65923ZM17.3288 9.51522C17.3175 9.56706 17.3175 9.60739 17.3175 9.64771C17.3175 9.67651 17.374 9.65923 17.374 9.65347C17.374 9.60739 17.3853 9.53826 17.374 9.52098C17.3627 9.51522 17.3344 9.5037 17.3288 9.51522Z" fill="white"/>
<path fill-rule="evenodd" clip-rule="evenodd" d="M16.9768 8.97852L16.8977 9.3011L16.7847 9.0822V9.30686L16.5361 9.00732L16.6209 9.3299L16.3949 9.13405L16.5192 9.35294L16.1237 9.09372L16.3723 9.39326L16.0559 9.23197L16.2819 9.42783L15.7734 9.23197L16.265 9.47967C16.4882 9.37603 16.7315 9.32485 16.9768 9.3299C17.2536 9.3299 17.5022 9.3875 17.683 9.47967L18.1802 9.23197L17.6717 9.42783L17.8977 9.23197L17.587 9.39326L17.8299 9.09372L17.4344 9.35294L17.5587 9.13405L17.3327 9.32414L17.4175 9.00732L17.1745 9.30686V9.0822L17.0616 9.3011L16.9768 8.97852Z" fill="white"/>
<path d="M16.5394 15.9787L16.5234 16.1195H16.5022L16.4969 16.022C16.4906 15.9924 16.4817 15.9634 16.4703 15.9353C16.4637 15.9111 16.4548 15.8875 16.4438 15.8649L16.3906 15.7891L16.4331 15.6699C16.4686 15.7069 16.4958 15.7512 16.5128 15.7999C16.5314 15.8557 16.5404 15.9143 16.5394 15.9733M16.9112 15.7458C16.9112 15.7837 16.9006 15.8108 16.8847 15.827C16.8741 15.8433 16.8528 15.8595 16.8156 15.8649L16.8369 15.9462C16.8422 15.9821 16.8422 16.0186 16.8369 16.0545C16.8358 16.078 16.834 16.1015 16.8316 16.1249H16.8103C16.8104 16.1013 16.8086 16.0778 16.805 16.0545C16.8031 16.0362 16.7996 16.018 16.7944 16.0003L16.7731 15.9462C16.7626 15.92 16.7502 15.8946 16.7359 15.8703L16.6828 15.7783L16.7147 15.6699L16.7678 15.7241C16.7838 15.7349 16.7997 15.7403 16.8209 15.7403C16.8634 15.7403 16.8847 15.7187 16.8847 15.6699H16.9059V15.7458M17.2459 16.0058L17.2194 16.1195C17.1981 16.1195 17.1875 16.1033 17.1769 16.0816L17.1556 16.0112C17.1518 15.9806 17.15 15.9499 17.1503 15.9191C17.1331 15.925 17.1153 15.9286 17.0972 15.9299C17.0724 15.9311 17.048 15.9235 17.0281 15.9083C17.02 15.9018 17.0134 15.8936 17.0088 15.8842C17.0042 15.8749 17.0018 15.8646 17.0016 15.8541C17.0016 15.8053 17.0175 15.762 17.0388 15.7295C17.0653 15.6916 17.0919 15.6753 17.1184 15.6699C17.145 15.6699 17.1609 15.6753 17.1716 15.6916C17.1806 15.7063 17.1861 15.723 17.1875 15.7403V15.8487C17.1875 15.8974 17.1928 15.9299 17.2034 15.9516C17.2034 15.9678 17.2194 15.9841 17.2459 16.0058ZM17.1397 15.8162C17.1397 15.7837 17.1237 15.7728 17.0972 15.7728C17.0863 15.7712 17.0751 15.7731 17.0653 15.7783C17.0547 15.7837 17.0547 15.7891 17.0547 15.7945C17.0547 15.8108 17.0706 15.8216 17.1078 15.8216L17.1397 15.8162ZM17.6019 15.9787L17.5859 16.1195C17.5594 16.0978 17.5328 16.0653 17.5116 16.0112C17.4824 15.9393 17.4593 15.865 17.4425 15.7891C17.416 15.8901 17.3841 15.9896 17.3469 16.087C17.3351 16.1022 17.3207 16.1151 17.3044 16.1249V15.9895C17.3363 15.9516 17.3522 15.9299 17.3575 15.9083C17.3753 15.8795 17.3896 15.8485 17.4 15.8162L17.4266 15.6699H17.4478L17.4956 15.8162C17.5062 15.8487 17.5222 15.8812 17.5434 15.9028L17.5966 15.9787" fill="white"/>
<path d="M18.6373 17.3001C18.6586 17.3217 18.6692 17.3434 18.6745 17.3651L18.6958 17.4517L18.6533 17.4571C18.6387 17.428 18.6209 17.4008 18.6002 17.3759C18.5816 17.3534 18.5621 17.3317 18.5417 17.3109C18.5123 17.2831 18.4822 17.256 18.4514 17.2296C18.4172 17.1976 18.3817 17.1669 18.3452 17.1376C18.3239 17.1267 18.3133 17.1159 18.3133 17.1105C18.3048 17.0974 18.2994 17.0826 18.2973 17.0671C18.2918 17.0385 18.2882 17.0096 18.2867 16.9805L18.4302 17.0996C18.4759 17.1376 18.5202 17.1774 18.563 17.2188L18.6373 17.3001ZM18.1327 16.9859L18.122 17.0942H17.9573L17.9733 16.9859H18.1327ZM18.5789 17.468L18.1752 17.5926L18.1061 17.4842L18.4514 17.3759L18.4142 17.3326C18.4005 17.3187 18.3843 17.3076 18.3664 17.3001C18.3665 17.3101 18.3647 17.32 18.3611 17.3293C18.3574 17.3386 18.352 17.3471 18.3452 17.3542C18.331 17.3702 18.3125 17.3815 18.292 17.3867C18.2607 17.3955 18.2277 17.3955 18.1964 17.3867C18.1695 17.3835 18.1448 17.37 18.1273 17.3488C18.1037 17.3137 18.0908 17.2722 18.0902 17.2296C18.0902 17.1755 18.1061 17.143 18.138 17.1321C18.1752 17.1213 18.2336 17.1321 18.2973 17.1701C18.3599 17.1997 18.4146 17.2443 18.4567 17.3001L18.5789 17.468ZM18.2708 17.2513C18.2573 17.2443 18.243 17.2388 18.2283 17.2351C18.2179 17.232 18.2068 17.232 18.1964 17.2351C18.1911 17.2357 18.186 17.2374 18.1814 17.2402C18.1768 17.243 18.1729 17.2468 18.1698 17.2513C18.1664 17.256 18.1645 17.2617 18.1645 17.2676C18.1645 17.2734 18.1664 17.2791 18.1698 17.2838L18.1964 17.2946H18.2283L18.2495 17.2784L18.2708 17.2513ZM17.8458 17.1646L17.8192 17.273L17.6492 17.2567L17.6758 17.1484L17.8405 17.1646M18.2389 17.5817L18.1486 17.6034C18.1187 17.6083 18.0882 17.6083 18.0583 17.6034C18.0305 17.6022 18.0033 17.5948 17.9786 17.5817C17.9627 17.6088 17.9361 17.6359 17.8989 17.6467C17.8719 17.6609 17.8434 17.6718 17.8139 17.6792L17.7502 17.6955L17.697 17.5871L17.7555 17.5709C17.779 17.5654 17.8021 17.5582 17.8245 17.5492L17.8723 17.5221L17.8192 17.4951H17.782C17.7785 17.4941 17.7749 17.4941 17.7714 17.4951C17.7663 17.4992 17.7626 17.5049 17.7608 17.5113H17.7342C17.7077 17.468 17.7023 17.4301 17.7183 17.403C17.7342 17.3759 17.7661 17.3596 17.8245 17.3488C17.8695 17.3361 17.9164 17.3325 17.9627 17.338C18.0052 17.3434 18.0317 17.3596 18.0423 17.3867C18.053 17.3976 18.053 17.4138 18.053 17.4246L18.0317 17.4896H18.0583C18.0688 17.4913 18.0796 17.4913 18.0902 17.4896L18.1805 17.4734L18.2336 17.5817M17.8086 17.6792L17.7236 17.6955C17.6834 17.7039 17.6415 17.6961 17.6067 17.6738C17.564 17.6367 17.5326 17.5878 17.5164 17.533L17.4739 17.4138C17.4659 17.3915 17.451 17.3725 17.4314 17.3596C17.4165 17.3488 17.4005 17.3397 17.3836 17.3326L17.4155 17.2188C17.4473 17.2351 17.4686 17.2513 17.4898 17.273L17.543 17.3651L17.5695 17.4463L17.628 17.5655C17.6439 17.5817 17.6652 17.5871 17.6811 17.5817L17.7714 17.5709L17.8086 17.6792ZM17.4367 17.273L17.3836 17.3759L17.2242 17.338L17.2773 17.2351L17.4367 17.273ZM17.5323 17.728L17.1339 17.7659L17.1127 17.6576L17.442 17.6196C17.4347 17.603 17.4238 17.5882 17.4102 17.5763C17.3932 17.5642 17.3755 17.5534 17.357 17.5438L17.3836 17.4355C17.4208 17.4571 17.4473 17.4842 17.4686 17.5059C17.4845 17.533 17.5005 17.5709 17.5111 17.6196L17.5323 17.728ZM17.2136 17.7821C17.1744 17.7811 17.1354 17.7775 17.0967 17.7713C17.0659 17.7649 17.0357 17.7558 17.0064 17.7442C16.9843 17.7543 16.9611 17.7616 16.9373 17.7659C16.9073 17.7685 16.8771 17.7685 16.847 17.7659H16.7408C16.7185 17.766 16.6966 17.7604 16.677 17.7496C16.6611 17.7388 16.6505 17.7226 16.6345 17.6955C16.6122 17.7193 16.585 17.7378 16.5548 17.7496L16.4645 17.7551H16.3742L16.3848 17.6413H16.4752C16.5177 17.6413 16.5548 17.6413 16.5867 17.6196C16.6064 17.6122 16.6234 17.5989 16.6357 17.5816C16.648 17.5642 16.655 17.5435 16.6558 17.5221L16.693 17.5276C16.6907 17.551 16.6889 17.5745 16.6877 17.598C16.6877 17.6142 16.6877 17.6251 16.7036 17.6359C16.7195 17.6467 16.7355 17.6521 16.7567 17.6521H16.8364C16.8895 17.6521 16.9214 17.6521 16.9427 17.6413C16.9745 17.6305 16.9905 17.6142 16.9958 17.5817L17.0011 17.5601C17.0011 17.5601 17.017 17.5601 17.0277 17.5492L17.0542 17.5384V17.5601C17.0543 17.5655 17.0543 17.5709 17.0542 17.5763L17.0383 17.6359C17.0729 17.6479 17.1084 17.657 17.1445 17.663C17.1498 17.6521 17.1445 17.6413 17.1392 17.6251L17.1233 17.5926C17.1233 17.5867 17.1251 17.581 17.1286 17.5763L17.1445 17.5655L17.1977 17.5167L17.2242 17.5709V17.6251L17.2136 17.7821ZM16.6133 17.3109L16.507 17.3813L16.438 17.3326L16.3636 17.3867L16.2627 17.3326L16.3583 17.2621L16.438 17.3055L16.5177 17.2513L16.6133 17.3055M16.4539 17.7496L16.0661 17.6846L16.1086 17.5763L16.438 17.6305C16.438 17.6088 16.438 17.5926 16.4273 17.5763C16.4198 17.5611 16.4109 17.5466 16.4008 17.533L16.4858 17.4409C16.507 17.4734 16.5177 17.4951 16.523 17.5276C16.523 17.5546 16.5123 17.5926 16.4964 17.6413L16.4539 17.7496ZM16.1298 17.6955L16.0448 17.6792C15.997 17.6684 15.9705 17.6467 15.9652 17.6142C15.9545 17.5817 15.9705 17.533 16.0077 17.4626L16.0714 17.3542C16.0873 17.3271 16.0927 17.3055 16.0873 17.2892C16.0842 17.2757 16.0788 17.2629 16.0714 17.2513L16.1883 17.1646C16.2042 17.1917 16.2042 17.2188 16.2042 17.2405C16.2042 17.2676 16.1883 17.3001 16.167 17.338L16.1245 17.4138C16.1007 17.4497 16.0844 17.4903 16.0767 17.533C16.0767 17.5546 16.0873 17.5655 16.1033 17.5709L16.1883 17.5926L16.1298 17.7009M15.928 17.2676L15.7952 17.3271L15.6995 17.2351L15.8377 17.1809L15.928 17.273M15.8748 17.6305C15.8506 17.6601 15.8219 17.6857 15.7898 17.7063C15.7624 17.7237 15.7316 17.7348 15.6995 17.7388L15.572 17.7334C15.5214 17.7257 15.4715 17.713 15.4233 17.6955C15.3549 17.676 15.2926 17.6386 15.2427 17.5871C15.2108 17.5438 15.2108 17.5059 15.2427 17.468C15.2725 17.4327 15.3086 17.4033 15.3489 17.3813C15.3914 17.3542 15.4552 17.3271 15.5508 17.2946L15.572 17.3217L15.4233 17.3867C15.3967 17.403 15.3702 17.4192 15.3542 17.4409C15.333 17.4626 15.3383 17.4951 15.3648 17.5276C15.4607 17.6033 15.5782 17.6452 15.6995 17.6467C15.7633 17.6467 15.8058 17.6305 15.8217 17.6088C15.8377 17.5926 15.843 17.5763 15.8483 17.5546L15.8589 17.468L15.9917 17.3867C15.9925 17.4139 15.9907 17.4411 15.9864 17.468C15.9751 17.5004 15.9569 17.53 15.9333 17.5546L15.8695 17.6305" fill="#BF0000"/>
</g>
<defs>
<clipPath id="clip0_351_22904">
<rect width="34" height="26" fill="white"/>
</clipPath>
</defs>
</svg>
