<svg width="26" height="26" viewBox="0 0 26 26" fill="none" xmlns="http://www.w3.org/2000/svg">
<mask id="mask0_1_16262" style="mask-type:alpha" maskUnits="userSpaceOnUse" x="0" y="0" width="26" height="26">
<circle cx="13" cy="13" r="13" fill="#634848"/>
</mask>
<g mask="url(#mask0_1_16262)">
<g clip-path="url(#clip0_1_16262)">
<path d="M-4 0H31V26H-4V0Z" fill="#012169"/>
<path d="M22.4852 9.77148L22.5945 9.87982L22.4852 9.77148Z" fill="#49497D"/>
<path d="M22.5945 9.77148L22.7039 9.87982L22.5945 9.77148Z" fill="#0E0E6E"/>
<path d="M22.2609 9.87988L22.3703 9.98822L22.2609 9.87988Z" fill="#262678"/>
<path d="M22.3758 9.87988L22.4852 9.98822L22.3758 9.87988Z" fill="#808067"/>
<path d="M22.7039 9.87988L22.8133 9.98822L22.7039 9.87988Z" fill="#58587B"/>
<path d="M18.5969 9.99414L18.7063 10.1025L18.5969 9.99414Z" fill="#0E0E6E"/>
<path d="M22.0422 9.99414L22.1516 10.1025L22.0422 9.99414Z" fill="#1B1B74"/>
<path d="M22.1516 9.99414L22.2609 10.1025L22.1516 9.99414Z" fill="#6E6C70"/>
<path d="M18.7937 10.1837C18.7937 13.0329 18.4656 16.2341 20.5984 18.4604C21.0359 18.9154 21.8781 19.9608 22.5945 19.9229C23.3437 19.8795 24.3117 18.78 24.7383 18.2437C26.5977 15.817 26.3078 12.9245 26.368 10.1079C25.5312 10.4816 25.1102 10.6062 24.3773 10.5954C23.8305 10.6495 22.9937 10.2975 22.4906 10.0537C22.1625 10.2704 21.6867 10.5358 20.8281 10.5629C19.8437 10.6062 19.5266 10.4383 18.7937 10.1837V10.1837Z" fill="#CCCC33"/>
<path d="M22.8187 9.99414L22.9281 10.1025L22.8187 9.99414Z" fill="#99994E"/>
<path d="M22.9281 9.99414L23.0375 10.1025L22.9281 9.99414Z" fill="#49497D"/>
<path d="M18.7117 10.1025L18.8211 10.2109L18.7117 10.1025Z" fill="#A4A43D"/>
<path d="M18.8211 10.1025L18.9305 10.2109L18.8211 10.1025Z" fill="#6E6C70"/>
<path d="M18.9305 10.1025L19.0398 10.2109L18.9305 10.1025Z" fill="#3A3A7C"/>
<path d="M21.8125 10.1025L21.9219 10.2109L21.8125 10.1025Z" fill="#1B1B74"/>
<path d="M21.9219 10.1025L22.0312 10.2109L21.9219 10.1025Z" fill="#6E6C70"/>
<path d="M22.0422 10.1025L22.1516 10.2109L22.0422 10.1025Z" fill="#A4A43D"/>
<path d="M22.4852 10.1025L22.5945 10.2109L22.4852 10.1025Z" fill="#D0D045"/>
<path d="M22.9281 10.1025L23.0375 10.2109L22.9281 10.1025Z" fill="#A4A43D"/>
<path d="M23.0375 10.1025L23.1469 10.2109L23.0375 10.1025Z" fill="#8D8D5B"/>
<path d="M23.1523 10.1025L23.2617 10.2109L23.1523 10.1025Z" fill="#3A3A7C"/>
<path d="M19.1547 10.2158L19.2641 10.3242L19.1547 10.2158Z" fill="#737370"/>
<path d="M19.2641 10.2158L19.3734 10.3242L19.2641 10.2158Z" fill="#53527C"/>
<path d="M19.3734 10.2158L19.4828 10.3242L19.3734 10.2158Z" fill="#1B1B74"/>
<path d="M21.5938 10.2158L21.7031 10.3242L21.5938 10.2158Z" fill="#262678"/>
<path d="M21.7031 10.2158L21.8125 10.3242L21.7031 10.2158Z" fill="#6E6C70"/>
<path d="M21.8125 10.2158L21.9219 10.3242L21.8125 10.2158Z" fill="#A4A43D"/>
<path d="M22.3758 10.2158L22.4852 10.3242L22.3758 10.2158Z" fill="#E5E59D"/>
<path d="M19.018 10.4973C18.9633 11.9923 19.007 13.6715 19.2367 15.264C19.5047 16.1035 19.4664 16.564 19.8547 17.0623L25.2688 17.019C25.5969 16.4935 25.843 15.6973 25.8703 15.3777C26.1766 13.769 26.182 11.9869 26.193 10.3944C25.5975 10.7188 24.9173 10.8584 24.2406 10.7952C23.653 10.7602 23.0818 10.5896 22.5727 10.2969C22.0531 10.6002 21.8727 10.741 21.0195 10.779C20.3523 10.8115 19.8164 10.8656 19.018 10.4973Z" fill="white"/>
<path d="M22.5945 10.2158L22.7039 10.3242L22.5945 10.2158Z" fill="#F2F1D7"/>
<path d="M22.7039 10.2158L22.8133 10.3242L22.7039 10.2158Z" fill="#D9D868"/>
<path d="M23.1523 10.2158L23.2617 10.3242L23.1523 10.2158Z" fill="#A4A43D"/>
<path d="M23.2617 10.2158L23.3711 10.3242L23.2617 10.2158Z" fill="#99994E"/>
<path d="M23.3711 10.2158L23.4805 10.3242L23.3711 10.2158Z" fill="#49497D"/>
<path d="M23.4805 10.2158L23.5898 10.3242L23.4805 10.2158Z" fill="#0E0E6E"/>
<path d="M25.7063 10.2158L25.8156 10.3242L25.7063 10.2158Z" fill="#3A3A7C"/>
<path d="M25.8156 10.2158L25.925 10.3242L25.8156 10.2158Z" fill="#666677"/>
<path d="M25.925 10.2158L26.0344 10.3242L25.925 10.2158Z" fill="#99994E"/>
<path d="M26.0344 10.2158L26.1437 10.3242L26.0344 10.2158ZM19.3734 10.3242L19.4828 10.4325L19.3734 10.3242Z" fill="#A4A43D"/>
<path d="M19.4883 10.3242L19.5977 10.4326L19.4883 10.3242Z" fill="#99994E"/>
<path d="M19.5977 10.3242L19.707 10.4326L19.5977 10.3242Z" fill="#6E6C70"/>
<path d="M19.707 10.3242L19.8164 10.4326L19.707 10.3242Z" fill="#49497D"/>
<path d="M19.8164 10.3242L19.9258 10.4326L19.8164 10.3242ZM21.2602 10.3242L21.3695 10.4326L21.2602 10.3242Z" fill="#1B1B74"/>
<path d="M21.3695 10.3242L21.4789 10.4326L21.3695 10.3242Z" fill="#53527C"/>
<path d="M21.4844 10.3242L21.5938 10.4326L21.4844 10.3242Z" fill="#8D8D5B"/>
<path d="M21.5938 10.3242L21.7031 10.4326L21.5938 10.3242Z" fill="#A4A43D"/>
<path d="M22.1516 10.3242L22.2609 10.4326L22.1516 10.3242Z" fill="#E5E59D"/>
<path d="M22.2609 10.3242L22.3703 10.4326L22.2609 10.3242Z" fill="#FBFAF2"/>
<path d="M22.8187 10.3242L22.9281 10.4326L22.8187 10.3242Z" fill="#F2F1D2"/>
<path d="M22.9281 10.3242L23.0375 10.4326L22.9281 10.3242Z" fill="#D9D868"/>
<path d="M23.4805 10.3242L23.5898 10.4326L23.4805 10.3242Z" fill="#A4A43D"/>
<path d="M23.5953 10.3242L23.7047 10.4326L23.5953 10.3242Z" fill="#6E6C70"/>
<path d="M23.7047 10.3242L23.8141 10.4326L23.7047 10.3242Z" fill="#3A3A7C"/>
<path d="M25.1484 10.3242L25.2578 10.4326L25.1484 10.3242Z" fill="#0E0E6E"/>
<path d="M25.2578 10.3242L25.3672 10.4326L25.2578 10.3242Z" fill="#32327B"/>
<path d="M25.3672 10.3242L25.4766 10.4326L25.3672 10.3242Z" fill="#58587B"/>
<path d="M25.4766 10.3242L25.5859 10.4326L25.4766 10.3242Z" fill="#808067"/>
<path d="M25.668 10.3564L25.7391 10.3944L25.668 10.3564Z" fill="#A4A43D"/>
<path d="M18.9305 10.4326L19.0398 10.541L18.9305 10.4326Z" fill="#DDDC7A"/>
<path d="M19.0398 10.4326L19.1492 10.541L19.0398 10.4326Z" fill="#D0D045"/>
<path d="M19.893 10.4648L19.9695 10.5028L19.893 10.4648Z" fill="#A4A43D"/>
<path d="M20.0406 10.4326L20.15 10.541L20.0406 10.4326Z" fill="#808067"/>
<path d="M20.15 10.4326L20.2594 10.541L20.15 10.4326Z" fill="#666677"/>
<path d="M20.2648 10.4326L20.3742 10.541L20.2648 10.4326Z" fill="#58587B"/>
<path d="M20.3742 10.4326L20.4836 10.541L20.3742 10.4326Z" fill="#49497D"/>
<path d="M21.0414 10.4326L21.1508 10.541L21.0414 10.4326Z" fill="#737370"/>
<path d="M21.1508 10.4326L21.2602 10.541L21.1508 10.4326Z" fill="#99994E"/>
<path d="M21.2602 10.4326L21.3695 10.541L21.2602 10.4326Z" fill="#A4A43D"/>
<path d="M21.9219 10.4326L22.0312 10.541L21.9219 10.4326Z" fill="#E5E59D"/>
<path d="M22.0422 10.4326L22.1516 10.541L22.0422 10.4326Z" fill="#FBFAF2"/>
<path d="M23.0375 10.4326L23.1469 10.541L23.0375 10.4326Z" fill="#F2F1D2"/>
<path d="M23.1523 10.4326L23.2617 10.541L23.1523 10.4326Z" fill="#D9D868"/>
<path d="M23.7758 10.4648L23.8523 10.5028L23.7812 10.4648H23.7758Z" fill="#A4A43D"/>
<path d="M23.9289 10.4326L24.0383 10.541L23.9289 10.4326Z" fill="#808067"/>
<path d="M24.0383 10.4326L24.1477 10.541L24.0383 10.4326Z" fill="#666677"/>
<path d="M24.1477 10.4326L24.257 10.541L24.1477 10.4326Z" fill="#58587B"/>
<path d="M24.2625 10.4326L24.3719 10.541L24.2625 10.4326Z" fill="#3A3A7C"/>
<path d="M24.7766 10.4648L24.8531 10.5028L24.7766 10.4648Z" fill="#58587B"/>
<path d="M24.9242 10.4326L25.0336 10.541L24.9242 10.4326Z" fill="#737370"/>
<path d="M25.0336 10.4326L25.143 10.541L25.0336 10.4326Z" fill="#99994E"/>
<path d="M25.1484 10.4326L25.2578 10.541L25.1484 10.4326Z" fill="#A4A43D"/>
<path d="M19.1547 10.541L19.2641 10.6493L19.1547 10.541Z" fill="#F2F1D7"/>
<path d="M19.2641 10.541L19.3734 10.6493L19.2641 10.541Z" fill="#E0DEA1"/>
<path d="M19.3734 10.541L19.4828 10.6493L19.3734 10.541Z" fill="#DDDC7A"/>
<path d="M21.5938 10.541L21.7031 10.6493L21.5938 10.541Z" fill="#D9D868"/>
<path d="M21.7031 10.541L21.8125 10.6493L21.7031 10.541Z" fill="#E5E3AF"/>
<path d="M23.2617 10.541L23.3711 10.6493L23.2617 10.541Z" fill="#F6F6E4"/>
<path d="M23.3711 10.541L23.4805 10.6493L23.3711 10.541Z" fill="#E1E18C"/>
<path d="M25.5859 10.541L25.6953 10.6493L25.5859 10.541Z" fill="#D4D456"/>
<path d="M25.7063 10.541L25.8156 10.6493L25.7063 10.541Z" fill="#E1E18C"/>
<path d="M25.8156 10.541L25.925 10.6493L25.8156 10.541Z" fill="#EEEDC1"/>
<path d="M19.5977 10.6494L19.707 10.7577L19.5977 10.6494Z" fill="#F2F1D2"/>
<path d="M19.707 10.6494L19.8164 10.7577L19.707 10.6494Z" fill="#E0DEA1"/>
<path d="M19.8164 10.6494L19.9258 10.7577L19.8164 10.6494Z" fill="#DDDC7A"/>
<path d="M19.9313 10.6494L20.0406 10.7577L19.9313 10.6494Z" fill="#D0D045"/>
<path d="M21.2602 10.6494L21.3695 10.7577L21.2602 10.6494Z" fill="#DDDC7A"/>
<path d="M21.3695 10.6494L21.4789 10.7577L21.3695 10.6494Z" fill="#E5E3AF"/>
<path d="M21.4844 10.6494L21.5938 10.7577L21.4844 10.6494Z" fill="#F6F6E4"/>
<path d="M23.5953 10.6494L23.7047 10.7577L23.5953 10.6494Z" fill="#EEEDC1"/>
<path d="M23.7047 10.6494L23.8141 10.7577L23.7047 10.6494Z" fill="#E1E18C"/>
<path d="M23.8141 10.6494L23.9234 10.7577L23.8141 10.6494Z" fill="#D4D456"/>
<path d="M25.1484 10.6494L25.2578 10.7577L25.1484 10.6494Z" fill="#D9D868"/>
<path d="M25.2578 10.6494L25.3672 10.7577L25.2578 10.6494Z" fill="#E1E18C"/>
<path d="M25.3672 10.6494L25.4766 10.7577L25.3672 10.6494Z" fill="#EEEDC1"/>
<path d="M25.4766 10.6494L25.5859 10.7577L25.4766 10.6494Z" fill="#F6F6E4"/>
<path d="M20.15 10.7578L20.2594 10.8661L20.15 10.7578Z" fill="#F2F1D7"/>
<path d="M20.2648 10.7578L20.3742 10.8661L20.2648 10.7578Z" fill="#F2F1D2"/>
<path d="M20.3742 10.7578L20.4836 10.8661L20.3742 10.7578Z" fill="#EEEDC1"/>
<path d="M20.8938 10.7959L20.9648 10.8338L20.8938 10.7959Z" fill="#F2F1D2"/>
<path d="M21.0414 10.7578L21.1508 10.8661L21.0414 10.7578Z" fill="#FBFAF2"/>
<path d="M21.5938 10.7578L21.8125 10.9745V10.7578H21.5938Z" fill="#FEF8F1"/>
<path d="M24.0383 10.7578L24.1477 10.8661L24.0383 10.7578Z" fill="#F2F1D7"/>
<path d="M24.1477 10.7578L24.257 10.8661L24.1477 10.7578Z" fill="#F2F1D2"/>
<path d="M24.2625 10.7578L24.3719 10.8661L24.2625 10.7578Z" fill="#E5E3AF"/>
<path d="M24.4484 10.7959L24.5195 10.8338L24.443 10.7959H24.4484Z" fill="#E5E59D"/>
<path d="M24.5961 10.7578L24.7055 10.8661L24.5961 10.7578Z" fill="#E0DEA1"/>
<path d="M24.7766 10.7959L24.8531 10.8338L24.7766 10.7959Z" fill="#F2F1D2"/>
<path d="M24.9242 10.7578L25.0336 10.8661L24.9242 10.7578Z" fill="#FBFAF2"/>
<path d="M21.3695 10.8711L21.4789 10.9794L21.3695 10.8711Z" fill="#FEF8F1"/>
<path d="M21.4844 10.8711L21.5938 10.9794L21.4844 10.8711Z" fill="#FBBE66"/>
<path d="M21.3695 10.9795L21.4789 11.0878L21.3695 10.9795Z" fill="#FBC477"/>
<path d="M21.5938 10.9795L21.7031 11.0878L21.5938 10.9795Z" fill="#FCB144"/>
<path d="M21.3695 11.0938L21.4789 11.2021L21.3695 11.0938Z" fill="#FE9F11"/>
<path d="M21.5938 11.0938L21.7031 11.2021L21.5938 11.0938Z" fill="#FEA522"/>
<path d="M21.2602 11.2021L21.3695 11.3105L21.2602 11.2021ZM21.7086 11.2021L21.818 11.3105L21.7086 11.2021Z" fill="#FAE3C9"/>
<path d="M22.2609 11.2021L22.3703 11.3105L22.2609 11.2021Z" fill="#FBEAD6"/>
<path d="M22.3758 11.2021L22.4852 11.3105L22.3758 11.2021Z" fill="#F9D6AA"/>
<path d="M22.8187 11.2021L22.9281 11.3105L22.8187 11.2021Z" fill="#FAE3C9"/>
<path d="M22.9281 11.2021L23.0375 11.3105L22.9281 11.2021Z" fill="#FEF8F1"/>
<path d="M21.2602 11.3096L21.3695 11.4179L21.2602 11.3096Z" fill="#F9D099"/>
<path d="M21.7031 11.3096L21.8125 11.4179L21.7031 11.3096Z" fill="#FDAB33"/>
<path d="M21.9219 11.3096L22.0312 11.4179L21.9219 11.3096Z" fill="#FCF1E4"/>
<path d="M22.0422 11.3096L22.1516 11.4179L22.0422 11.3096Z" fill="#FBC477"/>
<path d="M22.1516 11.3096L22.2609 11.4179L22.1516 11.3096Z" fill="#FEA522"/>
<path d="M23.0375 11.3096L23.1469 11.4179L23.0375 11.3096Z" fill="#FCB755"/>
<path d="M23.1523 11.3096L23.2617 11.4179L23.1523 11.3096Z" fill="#F9D6AA"/>
<path d="M21.2602 11.4238L21.3695 11.5322L21.2602 11.4238Z" fill="#FACA88"/>
<path d="M21.8125 11.4238L21.9219 11.5322L21.8125 11.4238ZM23.2617 11.4238L23.3711 11.5322L23.2617 11.4238Z" fill="#FEA522"/>
<path d="M23.3711 11.4238L23.4805 11.5322L23.3711 11.4238Z" fill="#F8DCBB"/>
<path d="M18.9305 11.5322L19.0398 11.6406L18.9305 11.5322Z" fill="#F6F6E4"/>
<path d="M21.2602 11.5322L21.3695 11.6406L21.2602 11.5322Z" fill="#FBC477"/>
<path d="M23.4805 11.5322L23.5898 11.6406L23.4805 11.5322Z" fill="#FBBE66"/>
<path d="M23.5953 11.5322L23.7047 11.6406L23.5953 11.5322Z" fill="#F8DCBB"/>
<path d="M21.2602 11.6406L21.3695 11.749L21.2602 11.6406Z" fill="#FACA88"/>
<path d="M23.8141 11.6406L23.9234 11.749L23.8141 11.6406Z" fill="#FCB755"/>
<path d="M23.9289 11.6406L24.0383 11.749L23.9289 11.6406Z" fill="#F8DCBB"/>
<path d="M21.1508 11.7539L21.2602 11.8622L21.1508 11.7539Z" fill="#FEF8F1"/>
<path d="M21.2602 11.7539L21.3695 11.8622L21.2602 11.7539Z" fill="#FE9F11"/>
<path d="M24.3719 11.7539L24.4812 11.8622L24.3719 11.7539Z" fill="#FDAB33"/>
<path d="M24.4867 11.7539L24.5961 11.8622L24.4867 11.7539Z" fill="#FCB144"/>
<path d="M24.5961 11.7539L24.7055 11.8622L24.5961 11.7539Z" fill="#FBC477"/>
<path d="M24.7055 11.7539L24.9242 11.9706L24.7055 11.7539Z" fill="#F9D6AA"/>
<path d="M24.8148 11.7539L24.9242 11.8622L24.8148 11.7539Z" fill="#FEF8F1"/>
<path d="M21.1508 11.8623L21.2602 11.9706L21.1508 11.8623Z" fill="#FCB144"/>
<path d="M22.7039 11.8623L22.8133 11.9706L22.7039 11.8623Z" fill="#FDAB33"/>
<path d="M22.8187 11.8623L22.9281 11.9706L22.8187 11.8623ZM23.2562 11.8623L23.3656 11.9706L23.2562 11.8623Z" fill="#FBC477"/>
<path d="M23.3711 11.8623L23.4805 11.9706L23.3711 11.8623Z" fill="#FEA522"/>
<path d="M21.0414 11.9707L21.1508 12.079L21.0414 11.9707Z" fill="#FAE3C9"/>
<path d="M22.4852 11.9707L22.5945 12.079L22.4852 11.9707Z" fill="#FCB144"/>
<path d="M22.5945 11.9707L22.7039 12.079L22.5945 11.9707Z" fill="#FAE3C9"/>
<path d="M23.4805 11.9707L23.5898 12.079L23.4805 11.9707Z" fill="#F8DCBB"/>
<path d="M23.5953 11.9707L23.7047 12.079L23.5953 11.9707Z" fill="#FDAB33"/>
<path d="M24.2625 11.9707L24.3719 12.079L24.2625 11.9707Z" fill="#FE9F11"/>
<path d="M24.3719 11.9707L24.4812 12.079L24.3719 11.9707Z" fill="#FCB755"/>
<path d="M24.4867 11.9707L24.5961 12.079L24.4867 11.9707Z" fill="#F9D099"/>
<path d="M24.5961 11.9707L24.7055 12.079L24.5961 11.9707Z" fill="#FBEAD6"/>
<path d="M21.0414 12.0791L21.1508 12.1874L21.0414 12.0791Z" fill="#FCB144"/>
<path d="M22.3758 12.0791L22.4852 12.1874L22.3758 12.0791Z" fill="#FBBE66"/>
<path d="M23.7047 12.0791L23.8141 12.1874L23.7047 12.0791Z" fill="#F9D099"/>
<path d="M24.1477 12.0791L24.257 12.1874L24.1477 12.0791Z" fill="#FBEAD6"/>
<path d="M20.932 12.1875L21.0414 12.2958L20.932 12.1875Z" fill="#FCF1E4"/>
<path d="M22.2609 12.1875L22.3703 12.2958L22.2609 12.1875Z" fill="#FBBE66"/>
<path d="M23.8141 12.1875L23.9234 12.2958L23.8141 12.1875Z" fill="#F9D099"/>
<path d="M24.1477 12.1875L24.257 12.2958L24.1477 12.1875Z" fill="#FAE3C9"/>
<path d="M20.932 12.2959L21.0414 12.4042L20.932 12.2959Z" fill="#FBC477"/>
<path d="M22.1516 12.2959L22.2609 12.4042L22.1516 12.2959ZM23.9289 12.2959L24.0383 12.4042L23.9289 12.2959Z" fill="#FCB144"/>
<path d="M24.1477 12.2959L24.257 12.4042L24.1477 12.2959Z" fill="#FBBE66"/>
<path d="M18.9305 12.4043L19.0398 12.5126L18.9305 12.4043Z" fill="#F6F6E4"/>
<path d="M20.932 12.4043L21.0414 12.5126L20.932 12.4043Z" fill="#FEA522"/>
<path d="M22.1516 12.4043L22.2609 12.5126L22.1516 12.4043Z" fill="#FBEAD6"/>
<path d="M23.9289 12.4043L24.0383 12.5126L23.9289 12.4043Z" fill="#FCF1E4"/>
<path d="M24.2625 12.4043L24.3719 12.5126L24.2625 12.4043Z" fill="#FEF8F1"/>
<path d="M20.8227 12.5234L20.932 12.6318L20.8227 12.5234Z" fill="#FCF1E4"/>
<path d="M22.0422 12.5234L22.1516 12.6318L22.0422 12.5234Z" fill="#FBBE66"/>
<path d="M24.0383 12.5234L24.1477 12.6318L24.0383 12.5234Z" fill="#FACA88"/>
<path d="M24.2625 12.5234L24.3719 12.6318L24.2625 12.5234Z" fill="#F9D099"/>
<path d="M20.8227 12.6318L20.932 12.7402L20.8227 12.6318Z" fill="#F9D6AA"/>
<path d="M22.0422 12.6318L22.1516 12.7402L22.0422 12.6318Z" fill="#FCF1E4"/>
<path d="M22.5945 12.6318L22.7039 12.7402L22.5945 12.6318Z" fill="#FAE3C9"/>
<path d="M22.7039 12.6318L22.8133 12.7402L22.7039 12.6318Z" fill="#FEA522"/>
<path d="M22.8187 12.6318L22.9281 12.7402L22.8187 12.6318Z" fill="#FCB144"/>
<path d="M22.9281 12.6318L23.0375 12.7402L22.9281 12.6318Z" fill="#F9D6AA"/>
<path d="M24.0383 12.6318L24.1477 12.7402L24.0383 12.6318Z" fill="#FEF8F1"/>
<path d="M24.1477 12.6318L24.257 12.7402L24.1477 12.6318Z" fill="#FEA522"/>
<path d="M24.2625 12.6318L24.3719 12.7402L24.2625 12.6318Z" fill="#FDAB33"/>
<path d="M20.8227 12.7402L20.7078 13.0652L20.8172 12.7402H20.8227Z" fill="#FACA88"/>
<path d="M21.9219 12.7402L22.0312 12.8486L21.9219 12.7402Z" fill="#FEA522"/>
<path d="M22.0422 12.7402L22.1516 12.8486L22.0422 12.7402Z" fill="#FEF8F1"/>
<path d="M22.5945 12.7402L22.7039 12.8486L22.5945 12.7402Z" fill="#F9D099"/>
<path d="M23.0375 12.7402L23.1469 12.8486L23.0375 12.7402Z" fill="#FDAB33"/>
<path d="M23.1523 12.7402L23.2617 12.8486L23.1523 12.7402Z" fill="#FAE3C9"/>
<path d="M24.1477 12.7402L24.257 12.8486L24.1477 12.7402Z" fill="#F8DCBB"/>
<path d="M24.2625 12.7402L24.3719 12.8486L24.2625 12.7402Z" fill="#FF9900"/>
<path d="M24.4102 12.8154L24.443 12.8858L24.4102 12.8154Z" fill="#FBEAD6"/>
<path d="M22.1516 12.8486L22.2609 12.957L22.1516 12.8486Z" fill="#FEA522"/>
<path d="M22.2609 12.8486L22.3703 12.957L22.2609 12.8486Z" fill="#FBBE66"/>
<path d="M22.3758 12.8486L22.4852 12.957L22.3758 12.8486Z" fill="#FACA88"/>
<path d="M22.4852 12.8486L22.5945 12.957L22.4852 12.8486Z" fill="#FCB144"/>
<path d="M22.5945 12.8486L22.7039 12.957L22.5945 12.8486Z" fill="#FAE3C9"/>
<path d="M22.7039 12.8486L22.8133 12.957L22.7039 12.8486Z" fill="#FE9F11"/>
<path d="M23.2617 12.8486L23.3711 12.957L23.2617 12.8486Z" fill="#FDAB33"/>
<path d="M23.3711 12.8486L23.4805 12.957L23.3711 12.8486Z" fill="#FBC477"/>
<path d="M23.4805 12.8486L23.5898 12.957L23.4805 12.8486Z" fill="#FACA88"/>
<path d="M23.5953 12.8486L23.7047 12.957L23.5953 12.8486Z" fill="#F9D6AA"/>
<path d="M23.7758 12.8867L23.8523 12.9246L23.7812 12.8867H23.7758Z" fill="#FAE3C9"/>
<path d="M23.9289 12.8486L24.0383 12.957L23.9289 12.8486Z" fill="#FEF8F1"/>
<path d="M24.2625 12.8486L24.3719 12.957L24.2625 12.8486Z" fill="#FBC477"/>
<path d="M19.4883 12.9619L19.5977 13.0702L19.4883 12.9619Z" fill="#FEF8F1"/>
<path d="M19.5977 12.9619L19.707 13.0702L19.5977 12.9619Z" fill="#FCF1E4"/>
<path d="M22.4852 12.9619L22.5945 13.0702L22.4852 12.9619Z" fill="#FCB755"/>
<path d="M22.7039 12.9619L22.8133 13.0702L22.7039 12.9619Z" fill="#FBEAD6"/>
<path d="M22.8187 12.9619L22.9281 13.0702L22.8187 12.9619Z" fill="#FEA522"/>
<path d="M23.7047 12.9619L23.8141 13.0702L23.7047 12.9619Z" fill="#FE9F11"/>
<path d="M23.8141 12.9619L23.7047 13.1786L23.8141 12.9619Z" fill="#FCB144"/>
<path d="M24.0383 12.9619L24.1477 13.0702L24.0383 12.9619Z" fill="#FE9F11"/>
<path d="M24.1477 12.9619L24.257 13.0702L24.1477 12.9619Z" fill="#FBBE66"/>
<path d="M24.2625 12.9619L24.3719 13.0702L24.2625 12.9619Z" fill="#FCF1E4"/>
<path d="M19.4883 13.0703L19.5977 13.1786L19.4883 13.0703Z" fill="#FAE3C9"/>
<path d="M19.5977 13.0703L19.8164 13.287L19.5977 13.0703Z" fill="#FE9F11"/>
<path d="M19.707 13.0703L19.8164 13.1786L19.707 13.0703ZM20.7078 13.0703L20.8172 13.1786L20.7078 13.0703Z" fill="#FBEAD6"/>
<path d="M20.8227 13.0703L20.932 13.1786L20.8227 13.0703Z" fill="#FAE3C9"/>
<path d="M21.8125 13.0703L21.9219 13.1786L21.8125 13.0703Z" fill="#FE9F11"/>
<path d="M21.9219 13.0703L22.0312 13.1786L21.9219 13.0703Z" fill="#FBC477"/>
<path d="M22.0422 13.0703L22.1516 13.1786L22.0422 13.0703Z" fill="#FEA522"/>
<path d="M22.3758 13.0703L22.4852 13.1786L22.3758 13.0703Z" fill="#FBC477"/>
<path d="M22.4852 13.0703L22.5945 13.1786L22.4852 13.0703Z" fill="#FEF8F1"/>
<path d="M22.9281 13.0703L23.0375 13.1786L22.9281 13.0703Z" fill="#FBC477"/>
<path d="M23.8141 13.0703L23.9234 13.1786L23.8141 13.0703Z" fill="white"/>
<path d="M23.9289 13.0703L24.0383 13.1786L23.9289 13.0703Z" fill="#FDAB33"/>
<path d="M24.3719 13.0703L24.4812 13.1786L24.3719 13.0703Z" fill="#FBC477"/>
<path d="M19.4883 13.1787L19.5977 13.287L19.4883 13.1787Z" fill="#FEF8F1"/>
<path d="M19.8164 13.1787L19.9258 13.287L19.8164 13.1787Z" fill="#FBEAD6"/>
<path d="M20.3742 13.1787L20.4836 13.287L20.3742 13.1787Z" fill="#F9D6AA"/>
<path d="M20.932 13.1787L21.0414 13.287L20.932 13.1787Z" fill="#FE9F11"/>
<path d="M21.1125 13.2168L21.1891 13.2547L21.1125 13.2168Z" fill="#F9D6AA"/>
<path d="M21.8125 13.1787L21.9219 13.287L21.8125 13.1787Z" fill="#F8DCBB"/>
<path d="M22.1516 13.1787L22.2609 13.287L22.1516 13.1787Z" fill="#FCF1E4"/>
<path d="M23.0375 13.1787L23.1469 13.287L23.0375 13.1787Z" fill="#F9D6AA"/>
<path d="M23.8141 13.1787L23.9234 13.287L23.8141 13.1787Z" fill="#FDAB33"/>
<path d="M24.4867 13.1787L24.5961 13.287L24.4867 13.1787Z" fill="#FCB755"/>
<path d="M24.5961 13.1787L24.7055 13.287L24.5961 13.1787Z" fill="#FEF8F1"/>
<path d="M18.5969 13.293L18.7063 13.4013L18.5969 13.293Z" fill="#53527C"/>
<path d="M19.5977 13.293L19.707 13.4013L19.5977 13.293Z" fill="#FCB755"/>
<path d="M19.8164 13.293L19.9258 13.4013L19.8164 13.293Z" fill="#FEA522"/>
<path d="M20.2648 13.293L20.3742 13.4013L20.2648 13.293Z" fill="#FBEAD6"/>
<path d="M20.4836 13.293L20.593 13.4013L20.4836 13.293Z" fill="#FE9F11"/>
<path d="M20.5984 13.293L20.7078 13.4013L20.5984 13.293Z" fill="#FCF1E4"/>
<path d="M20.932 13.293L21.0414 13.4013L20.932 13.293Z" fill="#FBBE66"/>
<path d="M21.0414 13.293L21.1508 13.4013L21.0414 13.293Z" fill="#FBC477"/>
<path d="M21.1508 13.293L21.2602 13.4013L21.1508 13.293Z" fill="#FBBE66"/>
<path d="M21.7031 13.293L21.8125 13.4013L21.7031 13.293Z" fill="#FEA522"/>
<path d="M23.1523 13.293L23.2617 13.4013L23.1523 13.293Z" fill="#F9D6AA"/>
<path d="M24.5961 13.293L24.7055 13.4013L24.5961 13.293Z" fill="#FCB144"/>
<path d="M18.9305 13.4004L19.0398 13.5087L18.9305 13.4004Z" fill="#E5E3AF"/>
<path d="M19.5977 13.4004L19.707 13.5087L19.5977 13.4004Z" fill="#F8DCBB"/>
<path d="M19.9313 13.4004L20.0406 13.5087L19.9313 13.4004Z" fill="#FDAB33"/>
<path d="M20.2648 13.4004L20.3742 13.5087L20.2648 13.4004Z" fill="#FE9F11"/>
<path d="M20.4836 13.4004L20.593 13.5087L20.4836 13.4004Z" fill="#FACA88"/>
<path d="M20.932 13.4004L21.0414 13.5087L20.932 13.4004Z" fill="#FCF1E4"/>
<path d="M21.7031 13.4004L21.8125 13.5087L21.7031 13.4004ZM23.2617 13.4004L23.3711 13.5087L23.2617 13.4004Z" fill="#F9D099"/>
<path d="M24.7055 13.4004L24.8148 13.5087L24.7055 13.4004Z" fill="#FBBE66"/>
<path d="M19.707 13.5088L19.8164 13.6171L19.707 13.5088Z" fill="#FEA522"/>
<path d="M20.0406 13.5088L20.15 13.6171L20.0406 13.5088Z" fill="#FDAB33"/>
<path d="M20.15 13.5088L20.2594 13.6171L20.15 13.5088Z" fill="#FEA522"/>
<path d="M20.3742 13.5088L20.4836 13.6171L20.3742 13.5088Z" fill="#FE9F11"/>
<path d="M20.4836 13.5088L20.593 13.6171L20.4836 13.5088Z" fill="#FEF8F1"/>
<path d="M21.0414 13.5088L21.1508 13.6171L21.0414 13.5088Z" fill="#FBBE66"/>
<path d="M21.7031 13.5088L21.8125 13.6171L21.7031 13.5088Z" fill="#FEF8F1"/>
<path d="M23.3711 13.5088L23.4805 13.6171L23.3711 13.5088Z" fill="#FBBE66"/>
<path d="M24.8148 13.5088L24.9242 13.6171L24.8148 13.5088Z" fill="#F9D099"/>
<path d="M19.707 13.623L19.8164 13.7314L19.707 13.623Z" fill="#F9D6AA"/>
<path d="M20.3742 13.623L20.4836 13.7314L20.3742 13.623Z" fill="#F9D099"/>
<path d="M21.0414 13.623L21.1508 13.7314L21.0414 13.623Z" fill="#FCF1E4"/>
<path d="M21.5938 13.623L21.7031 13.7314L21.5938 13.623ZM23.4805 13.623L23.5898 13.7314L23.4805 13.623Z" fill="#FDAB33"/>
<path d="M24.9242 13.623L25.0336 13.7314L24.9242 13.623Z" fill="#FBEAD6"/>
<path d="M19.8164 13.7314L19.9258 13.8398L19.8164 13.7314Z" fill="#FEA522"/>
<path d="M20.2648 13.7314L20.3742 13.8398L20.2648 13.7314Z" fill="#FE9F11"/>
<path d="M21.1508 13.7314L21.2602 13.8398L21.1508 13.7314Z" fill="#FCB144"/>
<path d="M21.5938 13.7314L21.7031 13.8398L21.5938 13.7314Z" fill="#FACA88"/>
<path d="M23.4805 13.7314L23.5898 13.8398L23.4805 13.7314Z" fill="#F8DCBB"/>
<path d="M24.9242 13.7314L25.0336 13.8398L24.9242 13.7314Z" fill="#FCB144"/>
<path d="M18.9305 13.8447L19.0398 13.9531L18.9305 13.8447Z" fill="#D3D079"/>
<path d="M19.8164 13.8447L19.9258 13.9531L19.8164 13.8447ZM21.1508 13.8447L21.2602 13.9531L21.1508 13.8447Z" fill="#FACA88"/>
<path d="M21.5938 13.8447L21.7031 13.9531L21.5938 13.8447M23.4805 13.8447L23.5898 13.9531L23.4805 13.8447Z" fill="#FAE3C9"/>
<path d="M25.0336 13.8447L25.143 13.9531L25.0336 13.8447V13.8447Z" fill="#F8DCBB"/>
<path d="M18.9633 14.0234L19.007 14.0993L18.9687 14.0234H18.9633Z" fill="#D9D868"/>
<path d="M19.8164 13.9531L19.9258 14.0615L19.8164 13.9531Z" fill="#F8DCBB"/>
<path d="M23.3711 13.9531L23.4805 14.0615L23.3711 13.9531Z" fill="#F9D6AA"/>
<path d="M23.4805 13.9531L23.5898 14.0615L23.4805 13.9531Z" fill="#FE9F11"/>
<path d="M25.0336 13.9531L25.143 14.0615L25.0336 13.9531Z" fill="#FCB144"/>
<path d="M19.8164 14.0615L19.9258 14.1699L19.8164 14.0615Z" fill="#FCF1E4"/>
<path d="M23.2617 14.0615L23.3711 14.1699L23.2617 14.0615Z" fill="#FEF8F1"/>
<path d="M23.3711 14.0615L23.4805 14.1699L23.3711 14.0615Z" fill="#FE9F11"/>
<path d="M23.7047 14.0615L23.5953 14.2782L23.7047 14.0615Z" fill="#FDAB33"/>
<path d="M23.8141 14.0615L23.9234 14.1699L23.8141 14.0615Z" fill="#FCB755"/>
<path d="M25.1484 14.0615L25.2578 14.1699L25.1484 14.0615Z" fill="#FEA522"/>
<path d="M25.2578 14.0615L25.3672 14.1699L25.2578 14.0615Z" fill="#F9D099"/>
<path d="M18.7445 14.2461L18.7828 14.3165L18.7445 14.2461Z" fill="#808067"/>
<path d="M19.9313 14.1699L20.0406 14.2783L19.9313 14.1699ZM20.2594 14.1699L20.3688 14.2783L20.2594 14.1699Z" fill="#FEA522"/>
<path d="M21.4844 14.1699L21.5938 14.2783L21.4844 14.1699Z" fill="#FE9F11"/>
<path d="M23.2617 14.1699L23.3711 14.2783L23.2617 14.1699Z" fill="#FAE3C9"/>
<path d="M23.7047 14.1699L23.8141 14.2783L23.7047 14.1699Z" fill="#FEF8F1"/>
<path d="M23.9289 14.1699L24.0383 14.2783L23.9289 14.1699Z" fill="#FCB144"/>
<path d="M25.3672 14.1699L25.4766 14.2783L25.3672 14.1699Z" fill="#FCB755"/>
<path d="M25.4766 14.1699L25.6953 14.3866L25.4766 14.1699Z" fill="#FEF8F1"/>
<path d="M19.9695 14.3545L20.0023 14.4303L19.9695 14.3545Z" fill="#FCB755"/>
<path d="M20.3742 14.2783L20.4836 14.3867L20.3742 14.2783Z" fill="#FEF8F1"/>
<path d="M21.4844 14.2783L21.5938 14.3867L21.4844 14.2783Z" fill="#FBBE66"/>
<path d="M23.2617 14.2783L23.3711 14.3867L23.2617 14.2783Z" fill="#FBEAD6"/>
<path d="M23.4805 14.2783L23.5898 14.3867L23.4805 14.2783Z" fill="#FE9F11"/>
<path d="M23.5953 14.2783L23.7047 14.3867L23.5953 14.2783Z" fill="#FCF1E4"/>
<path d="M23.9289 14.2783L24.0383 14.3867L23.9289 14.2783Z" fill="#FBEAD6"/>
<path d="M25.4766 14.2783L25.5859 14.3867L25.4766 14.2783Z" fill="#FDAB33"/>
<path d="M18.7117 14.3867L18.8211 14.4951L18.7117 14.3867Z" fill="#666677"/>
<path d="M19.0398 14.3867L19.1492 14.4951L19.0398 14.3867Z" fill="#F6F6E4"/>
<path d="M20.3742 14.3867L20.4836 14.4951L20.3742 14.3867Z" fill="#F9D6AA"/>
<path d="M21.2602 14.3867L21.3695 14.4951L21.2602 14.3867Z" fill="#FDAB33"/>
<path d="M21.3695 14.3867L21.4789 14.4951L21.3695 14.3867Z" fill="#FE9F11"/>
<path d="M21.4844 14.3867L21.5938 14.4951L21.4844 14.3867Z" fill="#FCF1E4"/>
<path d="M23.3711 14.3867L23.4805 14.4951L23.3711 14.3867Z" fill="#FEA522"/>
<path d="M23.4805 14.3867L23.5898 14.4951L23.4805 14.3867ZM24.0383 14.3867L24.1477 14.4951L24.0383 14.3867Z" fill="#FACA88"/>
<path d="M25.5859 14.3867L25.6953 14.4951L25.5859 14.3867Z" fill="#FCB144"/>
<path d="M18.7117 14.5L18.8211 14.6083L18.7117 14.5Z" fill="#58587B"/>
<path d="M19.0398 14.5L19.1492 14.6083L19.0398 14.5Z" fill="#F2F1D2"/>
<path d="M19.9695 14.5713L20.0023 14.6471L19.9695 14.5713Z" fill="#FCB144"/>
<path d="M20.3742 14.5L20.4836 14.6083L20.3742 14.5Z" fill="#FEA522"/>
<path d="M21.4844 14.5L21.5938 14.6083L21.4844 14.5Z" fill="#FEF8F1"/>
<path d="M21.5938 14.5L21.7031 14.6083L21.5938 14.5Z" fill="#FEA522"/>
<path d="M21.8125 14.5L21.9219 14.6083L21.8125 14.5Z" fill="#FCB144"/>
<path d="M21.9219 14.5L22.0312 14.6083L21.9219 14.5Z" fill="#FBEAD6"/>
<path d="M23.3711 14.5L23.4805 14.6083L23.3711 14.5Z" fill="#F8DCBB"/>
<path d="M23.4805 14.5L23.5898 14.6083L23.4805 14.5Z" fill="#FCF1E4"/>
<path d="M24.0383 14.5L24.1477 14.6083L24.0383 14.5Z" fill="#FEF8F1"/>
<path d="M24.1477 14.5L24.257 14.6083L24.1477 14.5Z" fill="#FE9F11"/>
<path d="M25.7063 14.5L25.8156 14.6083L25.7063 14.5Z" fill="#FBEAD6"/>
<path d="M18.7117 14.6084L18.8211 14.7167L18.7117 14.6084Z" fill="#3A3A7C"/>
<path d="M19.0398 14.6084L19.1492 14.7167L19.0398 14.6084Z" fill="#E5E3AF"/>
<path d="M20.4836 14.6084L20.593 14.7167L20.4836 14.6084Z" fill="#FACA88"/>
<path d="M21.5938 14.6084L21.7031 14.7167L21.5938 14.6084Z" fill="#FBEAD6"/>
<path d="M21.9219 14.6084L22.0312 14.7167L21.9219 14.6084Z" fill="#FE9F11"/>
<path d="M22.0422 14.6084L22.1516 14.7167L22.0422 14.6084Z" fill="#FCF1E4"/>
<path d="M23.2617 14.6084L23.3711 14.7167L23.2617 14.6084Z" fill="#FBEAD6"/>
<path d="M23.3711 14.6084L23.4805 14.7167L23.3711 14.6084Z" fill="#FAE3C9"/>
<path d="M23.4805 14.6084L23.5898 14.7167L23.4805 14.6084Z" fill="#FBEAD6"/>
<path d="M24.1477 14.6084L24.257 14.7167L24.1477 14.6084ZM25.0391 14.6084L25.1484 14.7167L25.0391 14.6084Z" fill="#FBBE66"/>
<path d="M25.1484 14.6084L25.2578 14.7167L25.1484 14.6084Z" fill="#FCF1E4"/>
<path d="M25.2578 14.6084L25.3672 14.7167L25.2578 14.6084Z" fill="#FEF8F1"/>
<path d="M25.3672 14.6084L25.4766 14.7167L25.3672 14.6084Z" fill="#F8DCBB"/>
<path d="M25.4766 14.6084L25.5859 14.7167L25.4766 14.6084Z" fill="#FCB755"/>
<path d="M25.7063 14.6084L25.8156 14.7167L25.7063 14.6084Z" fill="#FAE3C9"/>
<path d="M18.7117 14.7227L18.8211 14.831L18.7117 14.7227Z" fill="#32327B"/>
<path d="M18.8539 14.7871L18.8922 14.8684L18.8594 14.7925L18.8539 14.7871Z" fill="#A4A43D"/>
<path d="M19.0398 14.7227L19.1492 14.831L19.0398 14.7227Z" fill="#E5E59D"/>
<path d="M19.9313 14.7227L20.0406 14.831L19.9313 14.7227Z" fill="#FBC477"/>
<path d="M20.5984 14.7227L20.7078 14.831L20.5984 14.7227Z" fill="#F9D6AA"/>
<path d="M21.7031 14.7227L21.8125 14.831L21.7031 14.7227Z" fill="#FBBE66"/>
<path d="M22.0422 14.7227L22.1516 14.831L22.0422 14.7227Z" fill="#F9D099"/>
<path d="M23.0375 14.7227L23.1469 14.831L23.0375 14.7227Z" fill="#FAE3C9"/>
<path d="M23.1523 14.7227L23.2617 14.831L23.1523 14.7227Z" fill="#FCB144"/>
<path d="M23.5953 14.7227L23.7047 14.831L23.5953 14.7227Z" fill="#FAE3C9"/>
<path d="M24.1477 14.7227L24.257 14.831L24.1477 14.7227Z" fill="#F8DCBB"/>
<path d="M25.0336 14.7227L25.143 14.831L25.0336 14.7227Z" fill="#F9D099"/>
<path d="M25.5859 14.7227L25.6953 14.831L25.5859 14.7227Z" fill="#FBC477"/>
<path d="M25.7063 14.7227L25.8156 14.831L25.7063 14.7227Z" fill="#FBEAD6"/>
<path d="M19.0398 14.8311L19.1492 14.9394L19.0398 14.8311Z" fill="#D9D868"/>
<path d="M19.9313 14.8311L20.0406 14.9394L19.9313 14.8311Z" fill="#F9D099"/>
<path d="M20.7078 14.8311L20.8172 14.9394L20.7078 14.8311ZM21.7086 14.8311L21.818 14.9394L21.7086 14.8311Z" fill="#F9D6AA"/>
<path d="M22.0422 14.8311L22.1516 14.9394L22.0422 14.8311Z" fill="#FBC477"/>
<path d="M22.5945 14.8311L22.7039 14.9394L22.5945 14.8311Z" fill="#FEF8F1"/>
<path d="M22.7039 14.8311L22.8133 14.9394L22.7039 14.8311Z" fill="#F8DCBB"/>
<path d="M22.8187 14.8311L22.9281 14.9394L22.8187 14.8311Z" fill="#FBC477"/>
<path d="M22.9281 14.8311L23.0375 14.9394L22.9281 14.8311Z" fill="#FEA522"/>
<path d="M23.5953 14.8311L23.7047 14.9394L23.5953 14.8311Z" fill="#FBEAD6"/>
<path d="M25.925 14.8311L26.0344 14.9394L25.925 14.8311Z" fill="#F2F1D2"/>
<path d="M18.8211 14.9395L18.9305 15.0478L18.8211 14.9395Z" fill="#99994E"/>
<path d="M19.0398 14.9395L19.1492 15.0478L19.0398 14.9395Z" fill="#D0D045"/>
<path d="M20.8227 14.9395L20.932 15.0478L20.8227 14.9395Z" fill="#FCB144"/>
<path d="M20.932 14.9395L21.0414 15.0478L20.932 14.9395Z" fill="#FAE3C9"/>
<path d="M21.7031 14.9395L21.8125 15.0478L21.7031 14.9395Z" fill="#FEF8F1"/>
<path d="M22.1516 14.9395L22.2609 15.0478L22.1516 14.9395Z" fill="#FCB755"/>
<path d="M22.2609 14.9395L22.3703 15.0478L22.2609 14.9395Z" fill="#FBC477"/>
<path d="M22.3758 14.9395L22.4852 15.0478L22.3758 14.9395Z" fill="#FCB144"/>
<path d="M22.4852 14.9395L22.5945 15.0478L22.4852 14.9395Z" fill="#FEA522"/>
<path d="M23.3711 14.9395L23.4805 15.0478L23.3711 14.9395Z" fill="#FE9F11"/>
<path d="M23.4805 14.9395L23.5898 15.0478L23.4805 14.9395Z" fill="#F9D6AA"/>
<path d="M25.0336 14.9395L25.143 15.0478L25.0336 14.9395Z" fill="#FEF8F1"/>
<path d="M25.925 14.9395L26.0344 15.0478L25.925 14.9395Z" fill="#E0DEA1"/>
<path d="M18.8211 15.0527L18.9305 15.1611L18.8211 15.0527Z" fill="#737370"/>
<path d="M19.1547 15.0527L19.2641 15.1611L19.1547 15.0527Z" fill="#FBFAF2"/>
<path d="M20.0406 15.0527L20.15 15.1611L20.0406 15.0527Z" fill="#FEA522"/>
<path d="M21.0414 15.0527L21.1508 15.1611L21.0414 15.0527Z" fill="#FE9F11"/>
<path d="M21.1508 15.0527L21.2602 15.1611L21.1508 15.0527Z" fill="#FCB144"/>
<path d="M21.2602 15.0527L21.3695 15.1611L21.2602 15.0527Z" fill="#FBC477"/>
<path d="M21.3695 15.0527L21.4789 15.1611L21.3695 15.0527Z" fill="#FACA88"/>
<path d="M21.4844 15.0527L21.5938 15.1611L21.4844 15.0527Z" fill="#FBC477"/>
<path d="M21.5938 15.0527L21.7031 15.1611L21.5938 15.0527Z" fill="#FCB144"/>
<path d="M21.7031 15.0527L21.8125 15.1611L21.7031 15.0527Z" fill="#FDAB33"/>
<path d="M23.2617 15.0527L23.3711 15.1611L23.2617 15.0527Z" fill="#FBC477"/>
<path d="M23.3711 15.0527L23.4805 15.1611L23.3711 15.0527Z" fill="#FEF8F1"/>
<path d="M24.9242 15.0527L25.0336 15.1611L24.9242 15.0527Z" fill="#FDAB33"/>
<path d="M25.925 15.0527L26.0344 15.1611L25.925 15.0527Z" fill="#E1E18C"/>
<path d="M18.8211 15.1611L18.9305 15.2695L18.8211 15.1611Z" fill="#58587B"/>
<path d="M19.1547 15.1611L19.2641 15.2695L19.1547 15.1611Z" fill="#F2F1D2"/>
<path d="M20.0406 15.1611L20.15 15.2695L20.0406 15.1611Z" fill="#FACA88"/>
<path d="M23.0375 15.1611L23.1469 15.2695L23.0375 15.1611Z" fill="#FE9F11"/>
<path d="M23.1523 15.1611L23.2617 15.2695L23.1523 15.1611Z" fill="#FBEAD6"/>
<path d="M24.1477 15.1611L24.257 15.2695L24.1477 15.1611Z" fill="#FBC477"/>
<path d="M24.9242 15.1611L25.0336 15.2695L24.9242 15.1611Z" fill="#FACA88"/>
<path d="M25.925 15.1611L26.0344 15.2695L25.925 15.1611Z" fill="#D4D456"/>
<path d="M18.8211 15.2695L18.9305 15.3779L18.8211 15.2695Z" fill="#32327B"/>
<path d="M19.1547 15.2695L19.2641 15.3779L19.1547 15.2695Z" fill="#E5E59D"/>
<path d="M20.0406 15.2695L20.15 15.3779L20.0406 15.2695Z" fill="#FEF8F1"/>
<path d="M20.15 15.2695L20.2594 15.3779L20.15 15.2695Z" fill="#FE9F11"/>
<path d="M23.0375 15.2695L23.1469 15.3779L23.0375 15.2695Z" fill="#FBEAD6"/>
<path d="M24.1477 15.2695L24.257 15.3779L24.1477 15.2695Z" fill="#FEA522"/>
<path d="M24.9242 15.2695L25.0336 15.3779L24.9242 15.2695Z" fill="#FCF1E4"/>
<path d="M18.8211 15.3779L18.9305 15.4863L18.8211 15.3779Z" fill="#0E0E6E"/>
<path d="M18.9305 15.3779L19.0398 15.4863L18.9305 15.3779Z" fill="#A4A43D"/>
<path d="M19.1547 15.3779L19.2641 15.4863L19.1547 15.3779Z" fill="#D9D868"/>
<path d="M20.15 15.3779L20.2594 15.4863L20.15 15.3779Z" fill="#F8DCBB"/>
<path d="M24.0383 15.3779L24.1477 15.4863L24.0383 15.3779Z" fill="#F9D6AA"/>
<path d="M24.8148 15.3779L24.9242 15.4863L24.8148 15.3779Z" fill="#FACA88"/>
<path d="M25.8156 15.3779L25.925 15.4863L25.8156 15.3779Z" fill="#F2F1D2"/>
<path d="M18.9305 15.4912L19.0398 15.5995L18.9305 15.4912Z" fill="#8D8D5B"/>
<path d="M20.2648 15.4912L20.3742 15.5995L20.2648 15.4912Z" fill="#F9D6AA"/>
<path d="M22.4852 15.4912L22.5945 15.5995L22.4852 15.4912Z" fill="#FDAB33"/>
<path d="M22.5945 15.4912L22.7039 15.5995L22.5945 15.4912Z" fill="white"/>
<path d="M22.7805 15.5244L22.857 15.5623L22.7805 15.5244Z" fill="#FCB144"/>
<path d="M23.9289 15.4912L23.8195 15.7079L23.9289 15.4912Z" fill="#FEF8F1"/>
<path d="M24.0383 15.4912L24.1477 15.5995L24.0383 15.4912Z" fill="#FE9F11"/>
<path d="M24.7055 15.4912L24.5961 15.7079L24.7055 15.4912Z" fill="#FDAB33"/>
<path d="M25.8156 15.4912L25.925 15.5995L25.8156 15.4912Z" fill="#E5E59D"/>
<path d="M18.9305 15.5996L19.0398 15.7079L18.9305 15.5996Z" fill="#666677"/>
<path d="M19.2641 15.5996L19.3734 15.7079L19.2641 15.5996Z" fill="#F2F1D2"/>
<path d="M20.3742 15.5996L20.4836 15.7079L20.3742 15.5996Z" fill="#F9D6AA"/>
<path d="M22.4852 15.5996L22.5945 15.7079L22.4852 15.5996Z" fill="#FE9F11"/>
<path d="M22.5945 15.5996L22.7039 15.7079L22.5945 15.5996Z" fill="#FACA88"/>
<path d="M22.7039 15.5996L22.8133 15.7079L22.7039 15.5996Z" fill="#FEA522"/>
<path d="M22.8187 15.5996L22.9281 15.7079L22.8187 15.5996Z" fill="#FCF1E4"/>
<path d="M23.9289 15.5996L24.0383 15.7079L23.9289 15.5996Z" fill="#FDAB33"/>
<path d="M24.7055 15.5996L24.8148 15.7079L24.7055 15.5996Z" fill="#FEF8F1"/>
<path d="M25.8156 15.5996L25.925 15.7079L25.8156 15.5996Z" fill="#D9D868"/>
<path d="M18.9305 15.708L19.0398 15.8163L18.9305 15.708Z" fill="#3A3A7C"/>
<path d="M19.2641 15.708L19.3734 15.8163L19.2641 15.708Z" fill="#E5E59D"/>
<path d="M20.4836 15.708L20.7023 15.9247L20.4836 15.708Z" fill="#FAE3C9"/>
<path d="M20.5984 15.708L20.7078 15.8163L20.5984 15.708Z" fill="#FE9F11"/>
<path d="M22.7039 15.708L22.8133 15.8163L22.7039 15.708Z" fill="#F8DCBB"/>
<path d="M23.7047 15.708L23.8141 15.8163L23.7047 15.708Z" fill="#FCF1E4"/>
<path d="M23.8141 15.708L23.9234 15.8163L23.8141 15.708Z" fill="#FDAB33"/>
<path d="M24.4867 15.708L24.5961 15.8163L24.4867 15.708Z" fill="#FCB144"/>
<path d="M24.5961 15.708L24.7055 15.8163L24.5961 15.708Z" fill="#FEF8F1"/>
<path d="M25.7063 15.708L25.8156 15.8163L25.7063 15.708Z" fill="#FBFAF2"/>
<path d="M18.9305 15.8164L19.0398 15.9247L18.9305 15.8164Z" fill="#0E0E6E"/>
<path d="M19.0398 15.8164L19.1492 15.9247L19.0398 15.8164Z" fill="#A4A43D"/>
<path d="M19.2641 15.8164L19.3734 15.9247L19.2641 15.8164Z" fill="#D4D456"/>
<path d="M22.5945 15.8164L22.7039 15.9247L22.5945 15.8164Z" fill="#F9D6AA"/>
<path d="M23.5953 15.8164L23.7047 15.9247L23.5953 15.8164Z" fill="#F9D099"/>
<path d="M23.7047 15.8164L23.8141 15.9247L23.7047 15.8164Z" fill="#FE9F11"/>
<path d="M24.3719 15.8164L24.4812 15.9247L24.3719 15.8164Z" fill="#FACA88"/>
<path d="M25.7063 15.8164L25.8156 15.9247L25.7063 15.8164Z" fill="#EEEDC1"/>
<path d="M19.0398 15.9248L19.1492 16.0331L19.0398 15.9248Z" fill="#737370"/>
<path d="M19.3734 15.9248L19.4828 16.0331L19.3734 15.9248Z" fill="#F6F6E4"/>
<path d="M20.5984 15.9248L20.7078 16.0331L20.5984 15.9248Z" fill="#FBBE66"/>
<path d="M22.3758 15.9248L22.4852 16.0331L22.3758 15.9248Z" fill="#FCB144"/>
<path d="M22.518 16.0059L22.5562 16.0763L22.518 16.0059Z" fill="#F8DCBB"/>
<path d="M23.3711 15.9248L23.4805 16.0331L23.3711 15.9248Z" fill="#FBBE66"/>
<path d="M23.4805 15.9248L23.5898 16.0331L23.4805 15.9248Z" fill="#FE9F11"/>
<path d="M24.1477 15.9248L24.257 16.0331L24.1477 15.9248Z" fill="#FBC477"/>
<path d="M24.2625 15.9248L24.3719 16.0331L24.2625 15.9248Z" fill="#FCF1E4"/>
<path d="M25.7063 15.9248L25.8156 16.0331L25.7063 15.9248Z" fill="#D3D079"/>
<path d="M25.925 15.9248L26.0344 16.0331L25.925 15.9248Z" fill="#A4A43D"/>
<path d="M19.0398 16.0332L19.1492 16.1415L19.0398 16.0332Z" fill="#49497D"/>
<path d="M19.3734 16.0332L19.4828 16.1415L19.3734 16.0332Z" fill="#E0DEA1"/>
<path d="M20.4836 16.0332L20.593 16.1415L20.4836 16.0332Z" fill="#FAE3C9"/>
<path d="M22.0422 16.0332L22.1516 16.1415L22.0422 16.0332Z" fill="#FDAB33"/>
<path d="M22.1516 16.0332L22.2609 16.1415L22.1516 16.0332Z" fill="#FBC477"/>
<path d="M22.2609 16.0332L22.3703 16.1415L22.2609 16.0332Z" fill="#FBEAD6"/>
<path d="M22.5945 16.0332L22.7039 16.1415L22.5945 16.0332Z" fill="#FCB144"/>
<path d="M24.0383 16.0332L24.1477 16.1415L24.0383 16.0332Z" fill="#F9D6AA"/>
<path d="M25.925 16.0332L26.0344 16.1415L25.925 16.0332Z" fill="#99994E"/>
<path d="M19.0398 16.1523L19.1492 16.2607L19.0398 16.1523Z" fill="#0E0E6E"/>
<path d="M19.1547 16.1523L19.2641 16.2607L19.1547 16.1523Z" fill="#A4A43D"/>
<path d="M19.3734 16.1523L19.4828 16.2607L19.3734 16.1523Z" fill="#D4D456"/>
<path d="M20.3742 16.1523L20.4836 16.2607L20.3742 16.1523Z" fill="#F9D099"/>
<path d="M20.4836 16.1523L20.593 16.2607L20.4836 16.1523ZM21.0414 16.1523L21.1508 16.2607L21.0414 16.1523Z" fill="#FE9F11"/>
<path d="M21.1508 16.1523L21.2602 16.2607L21.1508 16.1523Z" fill="#F9D6AA"/>
<path d="M21.2602 16.1523L21.3695 16.2607L21.2602 16.1523Z" fill="#F9D099"/>
<path d="M21.7031 16.1523L21.8125 16.2607L21.7031 16.1523Z" fill="#F9D6AA"/>
<path d="M21.8125 16.1523L21.9219 16.2607L21.8125 16.1523Z" fill="#FAE3C9"/>
<path d="M21.9219 16.1523L22.0312 16.2607L21.9219 16.1523Z" fill="#FEF8F1"/>
<path d="M22.8187 16.1523L22.9281 16.2607L22.8187 16.1523Z" fill="#FBEAD6"/>
<path d="M22.9281 16.1523L23.0375 16.2607L22.9281 16.1523Z" fill="#FAE3C9"/>
<path d="M23.0375 16.1523L23.1469 16.2607L23.0375 16.1523Z" fill="#FACA88"/>
<path d="M23.1523 16.1523L23.2617 16.2607L23.1523 16.1523Z" fill="#FBC477"/>
<path d="M23.2617 16.1523L23.3711 16.2607L23.2617 16.1523Z" fill="#FDAB33"/>
<path d="M23.8141 16.1523L23.9234 16.2607L23.8141 16.1523Z" fill="#FE9F11"/>
<path d="M23.9289 16.1523L24.0383 16.2607L23.9289 16.1523Z" fill="#F9D6AA"/>
<path d="M25.5859 16.1523L25.6953 16.2607L25.5859 16.1523Z" fill="#E5E3AF"/>
<path d="M25.925 16.1523L26.0344 16.2607L25.925 16.1523Z" fill="#666677"/>
<path d="M19.1547 16.2607L19.2641 16.3691L19.1547 16.2607Z" fill="#737370"/>
<path d="M19.4883 16.2607L19.5977 16.3691L19.4883 16.2607Z" fill="#F2F1D7"/>
<path d="M20.2648 16.2607L20.3742 16.3691L20.2648 16.2607Z" fill="#FEA522"/>
<path d="M20.8227 16.2607L20.932 16.3691L20.8227 16.2607Z" fill="#FE9F11"/>
<path d="M20.932 16.2607L21.0414 16.3691L20.932 16.2607Z" fill="#FBBE66"/>
<path d="M21.0414 16.2607L21.1508 16.3691L21.0414 16.2607Z" fill="#FCF1E4"/>
<path d="M23.7047 16.2607L23.8141 16.3691L23.7047 16.2607Z" fill="#FEA522"/>
<path d="M23.8141 16.2607L23.9234 16.3691L23.8141 16.2607Z" fill="#FBEAD6"/>
<path d="M25.5859 16.2607L25.6953 16.3691L25.5859 16.2607Z" fill="#DDDC7A"/>
<path d="M25.8156 16.2607L25.925 16.3691L25.8156 16.2607Z" fill="#A4A43D"/>
<path d="M25.925 16.2607L26.0344 16.3691L25.925 16.2607Z" fill="#262678"/>
<path d="M19.1547 16.3691L19.2641 16.4775L19.1547 16.3691Z" fill="#49497D"/>
<path d="M19.2969 16.4453L19.3406 16.5157L19.2969 16.4453Z" fill="#A4A43D"/>
<path d="M19.4883 16.3691L19.5977 16.4775L19.4883 16.3691Z" fill="#D3D079"/>
<path d="M20.3742 16.3691L20.4836 16.4775L20.3742 16.3691Z" fill="#F9D099"/>
<path d="M20.4836 16.3691L20.593 16.4775L20.4836 16.3691Z" fill="#FCB144"/>
<path d="M20.5984 16.3691L20.7078 16.4775L20.5984 16.3691Z" fill="#FACA88"/>
<path d="M20.7078 16.3691L20.8172 16.4775L20.7078 16.3691Z" fill="#F8DCBB"/>
<path d="M20.8227 16.3691L20.932 16.4775L20.8227 16.3691Z" fill="#FEF8F1"/>
<path d="M23.2617 16.3691L23.3711 16.4775L23.2617 16.3691Z" fill="#F8DCBB"/>
<path d="M23.7047 16.3691L23.8141 16.4775L23.7047 16.3691Z" fill="#FCF1E4"/>
<path d="M25.4766 16.3691L25.5859 16.4775L25.4766 16.3691Z" fill="#F6F6E4"/>
<path d="M25.8156 16.3691L25.925 16.4775L25.8156 16.3691Z" fill="#8D8D5B"/>
<path d="M19.5977 16.4775L19.707 16.5859L19.5977 16.4775Z" fill="#FBFAF2"/>
<path d="M23.2617 16.4775L23.3711 16.5859L23.2617 16.4775Z" fill="#FBBE66"/>
<path d="M23.5953 16.4775L23.7047 16.5859L23.5953 16.4775Z" fill="#FACA88"/>
<path d="M25.4766 16.4775L25.5859 16.5859L25.4766 16.4775Z" fill="#E1E18C"/>
<path d="M25.8156 16.4775L25.925 16.5859L25.8156 16.4775Z" fill="#49497D"/>
<path d="M19.2641 16.5908L19.3734 16.6992L19.2641 16.5908Z" fill="#58587B"/>
<path d="M19.5977 16.5908L19.707 16.6992L19.5977 16.5908Z" fill="#E5E59D"/>
<path d="M23.2617 16.5908L23.3711 16.6992L23.2617 16.5908Z" fill="#FE9F11"/>
<path d="M23.4805 16.5908L23.5898 16.6992L23.4805 16.5908Z" fill="#FDAB33"/>
<path d="M25.3672 16.5908L25.4766 16.6992L25.3672 16.5908Z" fill="#FBFAF2"/>
<path d="M25.7063 16.5908L25.8156 16.6992L25.7063 16.5908Z" fill="#A4A43D"/>
<path d="M25.8156 16.5908L25.925 16.6992L25.8156 16.5908Z" fill="#0E0E6E"/>
<path d="M19.2641 16.6992L19.3734 16.8076L19.2641 16.6992Z" fill="#1B1B74"/>
<path d="M19.3734 16.6992L19.4828 16.8076L19.3734 16.6992Z" fill="#A4A43D"/>
<path d="M19.5977 16.6992L19.707 16.8076L19.5977 16.6992Z" fill="#D0D045"/>
<path d="M23.1523 16.6992L23.2617 16.8076L23.1523 16.6992Z" fill="#FBEAD6"/>
<path d="M23.3711 16.6992L23.4805 16.8076L23.3711 16.6992Z" fill="#FE9F11"/>
<path d="M23.4805 16.6992L23.5898 16.8076L23.4805 16.6992Z" fill="#FBEAD6"/>
<path d="M25.3672 16.6992L25.4766 16.8076L25.3672 16.6992Z" fill="#E5E59D"/>
<path d="M25.7063 16.6992L25.8156 16.8076L25.7063 16.6992Z" fill="#666677"/>
<path d="M19.3734 16.8076L19.4828 16.916L19.3734 16.8076Z" fill="#6E6C70"/>
<path d="M19.707 16.8076L19.8164 16.916L19.707 16.8076Z" fill="#E5E3AF"/>
<path d="M23.1797 16.8838L23.2234 16.9596L23.1797 16.8838Z" fill="#FACA88"/>
<path d="M23.3711 16.8076L23.4805 16.916L23.3711 16.8076Z" fill="#FAE3C9"/>
<path d="M25.2578 16.8076L25.3672 16.916L25.2578 16.8076Z" fill="#FBFAF2"/>
<path d="M25.5859 16.8076L25.6953 16.916L25.5859 16.8076Z" fill="#A4A43D"/>
<path d="M25.7062 16.8076L25.8156 16.916L25.7062 16.8076ZM19.3734 16.916L19.4828 17.0243L19.3734 16.916Z" fill="#1B1B74"/>
<path d="M19.4883 16.9219L19.5977 17.0302L19.4883 16.9219Z" fill="#A4A43D"/>
<path d="M19.707 16.9219L19.8164 17.0302L19.707 16.9219Z" fill="#D0D045"/>
<path d="M19.8164 16.9219L19.9258 17.0302L19.8164 16.9219Z" fill="#FBFAF2"/>
<path d="M23.2617 16.9219L23.3711 17.0302L23.2617 16.9219Z" fill="#F9D6AA"/>
<path d="M25.2578 16.9219L25.3672 17.0302L25.2578 16.9219Z" fill="#E5E59D"/>
<path d="M25.5859 16.9219L25.6953 17.0302L25.5859 16.9219ZM19.4883 17.0302L19.5977 17.1385L19.4883 17.0302Z" fill="#6E6C70"/>
<path d="M19.8164 17.0303L19.9258 17.1386L19.8164 17.0303Z" fill="#8CBF84"/>
<path d="M19.8656 17.0303C20.2484 17.8319 21.6156 19.7278 22.6547 19.6953C23.6719 19.6574 24.8148 17.7994 25.2578 17.0303H19.8656Z" fill="#00CCFF"/>
<path d="M25.4766 17.0303L25.5859 17.1386L25.4766 17.0303Z" fill="#A4A43D"/>
<path d="M25.5859 17.0303L25.6953 17.1386L25.5859 17.0303ZM19.4883 17.1386L19.5977 17.2469L19.4883 17.1386Z" fill="#1B1B74"/>
<path d="M19.5977 17.1387L19.707 17.247L19.5977 17.1387Z" fill="#A4A43D"/>
<path d="M19.8164 17.1387L19.9258 17.247L19.8164 17.1387Z" fill="#ADB333"/>
<path d="M19.9313 17.1387L20.0406 17.247L19.9313 17.1387Z" fill="#1AC5B5"/>
<path d="M25.1484 17.1387L25.2578 17.247L25.1484 17.1387Z" fill="#68B070"/>
<path d="M25.4766 17.1387L25.5859 17.247L25.4766 17.1387Z" fill="#666677"/>
<path d="M19.5977 17.252L19.707 17.3603L19.5977 17.252Z" fill="#58587B"/>
<path d="M19.9313 17.252L20.0406 17.3603L19.9313 17.252Z" fill="#7FB15C"/>
<path d="M25.0336 17.252L25.143 17.3603L25.0336 17.252Z" fill="#27C2AA"/>
<path d="M25.3672 17.252L25.2578 17.4686L25.3672 17.252Z" fill="#A4A43D"/>
<path d="M25.4766 17.252L25.5859 17.3603L25.4766 17.252ZM19.5977 17.3603L19.707 17.4686L19.5977 17.3603Z" fill="#0E0E6E"/>
<path d="M19.707 17.3604L19.9258 17.577L19.707 17.3604Z" fill="#A4A43D"/>
<path d="M20.0406 17.3604L20.15 17.4687L20.0406 17.3604Z" fill="#34BE9E"/>
<path d="M25.0336 17.3604L25.143 17.4687L25.0336 17.3604Z" fill="#96B247"/>
<path d="M25.3672 17.3604L25.4766 17.4687L25.3672 17.3604Z" fill="#53527C"/>
<path d="M19.707 17.4746L19.8164 17.5829L19.707 17.4746Z" fill="#3A3A7C"/>
<path d="M20.0406 17.4746L20.15 17.5829L20.0406 17.4746Z" fill="#A2B23D"/>
<path d="M20.15 17.4746L20.2594 17.5829L20.15 17.4746Z" fill="#0DC9C1"/>
<path d="M24.9242 17.4746L25.0336 17.5829L24.9242 17.4746Z" fill="#5BB47C"/>
<path d="M25.2578 17.4746L25.3672 17.5829L25.2578 17.4746Z" fill="#8D8D5B"/>
<path d="M19.8164 17.582L19.9258 17.6904L19.8164 17.582Z" fill="#737370"/>
<path d="M20.15 17.582L20.2594 17.6904L20.15 17.582Z" fill="#74B166"/>
<path d="M24.8148 17.582L24.9242 17.6904L24.8148 17.582Z" fill="#27C2AA"/>
<path d="M25.1484 17.582L25.0391 17.7987L25.1484 17.582Z" fill="#A4A43D"/>
<path d="M25.2578 17.582L25.3672 17.6904L25.2578 17.582Z" fill="#262678"/>
<path d="M19.8164 17.6904L19.9258 17.7988L19.8164 17.6904Z" fill="#0E0E6E"/>
<path d="M19.9313 17.6904L20.15 17.9071L19.9313 17.6904Z" fill="#A4A43D"/>
<path d="M20.2648 17.6904L20.3742 17.7988L20.2648 17.6904Z" fill="#42BB92"/>
<path d="M24.7055 17.6904L24.8148 17.7988L24.7055 17.6904Z" fill="#0DC9C1"/>
<path d="M24.8148 17.6904L24.9242 17.7988L24.8148 17.6904Z" fill="#96B247"/>
<path d="M25.1484 17.6904L25.2578 17.7988L25.1484 17.6904Z" fill="#58587B"/>
<path d="M19.9313 17.7988L20.0406 17.9072L19.9313 17.7988Z" fill="#3A3A7C"/>
<path d="M20.2648 17.7988L20.3742 17.9072L20.2648 17.7988Z" fill="#ADB333"/>
<path d="M20.3742 17.7988L20.4836 17.9072L20.3742 17.7988Z" fill="#27C2AA"/>
<path d="M24.7055 17.7988L24.8148 17.9072L24.7055 17.7988Z" fill="#74B166"/>
<path d="M25.0336 17.7988L25.143 17.9072L25.0336 17.7988Z" fill="#8D8D5B"/>
<path d="M20.0406 17.9072L20.15 18.0156L20.0406 17.9072Z" fill="#6E6C70"/>
<path d="M20.3742 17.9072L20.4836 18.0156L20.3742 17.9072Z" fill="#96B247"/>
<path d="M20.4836 17.9072L20.593 18.0156L20.4836 17.9072Z" fill="#0DC9C1"/>
<path d="M24.5961 17.9072L24.7055 18.0156L24.5961 17.9072Z" fill="#42BB92"/>
<path d="M24.9242 17.9072L24.7055 18.2322L24.9242 17.9072Z" fill="#A4A43D"/>
<path d="M25.0336 17.9072L25.143 18.0156L25.0336 17.9072Z" fill="#1B1B74"/>
<path d="M20.0406 18.0156L20.15 18.124L20.0406 18.0156Z" fill="#0E0E6E"/>
<path d="M20.15 18.0156L20.2594 18.124L20.15 18.0156Z" fill="#8D8D5B"/>
<path d="M20.4836 18.0156L20.593 18.124L20.4836 18.0156Z" fill="#7FB15C"/>
<path d="M24.4867 18.0156L24.5961 18.124L24.4867 18.0156Z" fill="#34BE9E"/>
<path d="M24.9242 18.0156L25.0336 18.124L24.9242 18.0156Z" fill="#3A3A7C"/>
<path d="M20.15 18.1299L20.2594 18.2382L20.15 18.1299Z" fill="#1B1B74"/>
<path d="M20.2648 18.1299L21.4844 19.3378L20.2648 18.1299Z" fill="#A4A43D"/>
<path d="M20.5984 18.1299L20.7078 18.2382L20.5984 18.1299Z" fill="#74B166"/>
<path d="M24.3719 18.1299L24.4812 18.2382L24.3719 18.1299Z" fill="#27C2AA"/>
<path d="M24.4867 18.1299L24.5961 18.2382L24.4867 18.1299Z" fill="#ADB333"/>
<path d="M24.8148 18.1299L24.9242 18.2382L24.8148 18.1299Z" fill="#666677"/>
<path d="M20.2648 18.2383L20.3742 18.3466L20.2648 18.2383Z" fill="#32327B"/>
<path d="M20.7078 18.2383L20.8172 18.3466L20.7078 18.2383Z" fill="#42BB92"/>
<path d="M24.2625 18.2378L23.8141 18.7903L24.268 18.2324L24.2625 18.2378Z" fill="#0DC9C1"/>
<path d="M24.3719 18.2383L24.4812 18.3466L24.3719 18.2383Z" fill="#ADB333"/>
<path d="M24.7055 18.2383L24.8148 18.3466L24.7055 18.2383Z" fill="#737370"/>
<path d="M20.3742 18.3516L20.4836 18.4599L20.3742 18.3516Z" fill="#49497D"/>
<path d="M20.8227 18.3516L20.932 18.4599L20.8227 18.3516Z" fill="#42BB92"/>
<path d="M24.2625 18.3516L24.3719 18.4599L24.2625 18.3516Z" fill="#96B247"/>
<path d="M24.5961 18.3516L24.4867 18.5682L24.5961 18.3516Z" fill="#8D8D5B"/>
<path d="M24.7055 18.3516L24.8148 18.4599L24.7055 18.3516Z" fill="#0E0E6E"/>
<path d="M20.4836 18.46L20.593 18.5683L20.4836 18.46Z" fill="#53527C"/>
<path d="M20.932 18.46L21.0414 18.5683L20.932 18.46Z" fill="#42BB92"/>
<path d="M24.1477 18.46L24.257 18.5683L24.1477 18.46Z" fill="#96B247"/>
<path d="M24.5961 18.46L24.7055 18.5683L24.5961 18.46Z" fill="#0E0E6E"/>
<path d="M20.5984 18.5684L20.7078 18.6767L20.5984 18.5684Z" fill="#6E6C70"/>
<path d="M21.0414 18.5684L21.1508 18.6767L21.0414 18.5684Z" fill="#42BB92"/>
<path d="M24.0383 18.5684L24.1477 18.6767L24.0383 18.5684Z" fill="#96B247"/>
<path d="M24.3719 18.5684L24.1531 18.8934L24.3719 18.5684Z" fill="#A4A43D"/>
<path d="M24.4867 18.5684L24.5961 18.6767L24.4867 18.5684Z" fill="#262678"/>
<path d="M20.7078 18.6816L20.8172 18.79L20.7078 18.6816Z" fill="#6E6C70"/>
<path d="M21.1508 18.6816L21.2602 18.79L21.1508 18.6816Z" fill="#42BB92"/>
<path d="M23.9289 18.6816L24.0383 18.79L23.9289 18.6816Z" fill="#96B247"/>
<path d="M24.3719 18.6816L24.4812 18.79L24.3719 18.6816Z" fill="#262678"/>
<path d="M20.8227 18.79L20.932 18.8984L20.8227 18.79Z" fill="#6E6C70"/>
<path d="M21.2602 18.79L21.3695 18.8984L21.2602 18.79Z" fill="#68B070"/>
<path d="M23.7047 18.79L23.8141 18.8984L23.7047 18.79Z" fill="#27C2AA"/>
<path d="M23.8141 18.79L23.9234 18.8984L23.8141 18.79Z" fill="#ADB333"/>
<path d="M24.2625 18.79L24.3719 18.8984L24.2625 18.79Z" fill="#262678"/>
<path d="M20.932 18.8984L21.0414 19.0068L20.932 18.8984Z" fill="#666677"/>
<path d="M21.3695 18.8984L21.4789 19.0068L21.3695 18.8984Z" fill="#74B166"/>
<path d="M23.5953 18.8984L23.7047 19.0068L23.5953 18.8984Z" fill="#34BE9E"/>
<path d="M23.7047 18.8984L23.8141 19.0068L23.7047 18.8984Z" fill="#ADB333"/>
<path d="M24.0383 18.8984L23.9289 19.1151L24.0383 18.8984Z" fill="#8D8D5B"/>
<path d="M24.1477 18.8984L24.257 19.0068L24.1477 18.8984Z" fill="#262678"/>
<path d="M21.0414 19.0068L21.1508 19.1152L21.0414 19.0068Z" fill="#49497D"/>
<path d="M21.4844 19.0068L21.5938 19.1152L21.4844 19.0068Z" fill="#96B247"/>
<path d="M21.5938 19.0068L21.7031 19.1152L21.5938 19.0068Z" fill="#0DC9C1"/>
<path d="M23.4805 19.0068L23.5898 19.1152L23.4805 19.0068Z" fill="#42BB92"/>
<path d="M24.0383 19.0068L24.1477 19.1152L24.0383 19.0068Z" fill="#0E0E6E"/>
<path d="M21.1508 19.1211L21.2602 19.2294L21.1508 19.1211Z" fill="#49497D"/>
<path d="M21.5938 19.1211L21.7031 19.2294L21.5938 19.1211Z" fill="#A2B23D"/>
<path d="M21.7031 19.1211L21.8125 19.2294L21.7031 19.1211Z" fill="#27C2AA"/>
<path d="M23.3711 19.1211L23.4805 19.2294L23.3711 19.1211Z" fill="#74B166"/>
<path d="M23.7047 19.1211L23.3766 19.5544L23.7047 19.1211Z" fill="#A4A43D"/>
<path d="M23.8141 19.1211L23.9234 19.2294L23.8141 19.1211Z" fill="#808067"/>
<path d="M23.9289 19.1211L24.0383 19.2294L23.9289 19.1211Z" fill="#0E0E6E"/>
<path d="M21.2602 19.2295L21.3695 19.3378L21.2602 19.2295Z" fill="#262678"/>
<path d="M21.7031 19.2295L21.8125 19.3378L21.7031 19.2295Z" fill="#ADB333"/>
<path d="M21.8125 19.2295L21.9219 19.3378L21.8125 19.2295Z" fill="#42BB92"/>
<path d="M23.1523 19.2295L23.2617 19.3378L23.1523 19.2295Z" fill="#0DC9C1"/>
<path d="M23.2617 19.2295L23.3711 19.3378L23.2617 19.2295Z" fill="#96B247"/>
<path d="M23.7047 19.2295L23.8141 19.3378L23.7047 19.2295Z" fill="#6E6C70"/>
<path d="M21.3695 19.3379L21.4789 19.4462L21.3695 19.3379Z" fill="#1B1B74"/>
<path d="M21.4844 19.3379L21.5938 19.4462L21.4844 19.3379Z" fill="#8D8D5B"/>
<path d="M21.9219 19.3379L22.0312 19.4462L21.9219 19.3379Z" fill="#74B166"/>
<path d="M22.0422 19.3379L22.1516 19.4462L22.0422 19.3379Z" fill="#0DC9C1"/>
<path d="M23.0375 19.3379L23.1469 19.4462L23.0375 19.3379Z" fill="#34BE9E"/>
<path d="M23.1523 19.3379L23.2617 19.4462L23.1523 19.3379Z" fill="#ADB333"/>
<path d="M23.5953 19.3379L23.7047 19.4462L23.5953 19.3379Z" fill="#49497D"/>
<path d="M21.4844 19.4463L21.5938 19.5546L21.4844 19.4463Z" fill="#0E0E6E"/>
<path d="M21.5938 19.4463L21.7031 19.5546L21.5938 19.4463Z" fill="#6E6C70"/>
<path d="M21.7031 19.4463L21.9219 19.663L21.7031 19.4463Z" fill="#A4A43D"/>
<path d="M22.0422 19.4463L22.1516 19.5546L22.0422 19.4463Z" fill="#96B247"/>
<path d="M22.1516 19.4463L22.2609 19.5546L22.1516 19.4463Z" fill="#27C2AA"/>
<path d="M22.9281 19.4463L23.0375 19.5546L22.9281 19.4463Z" fill="#68B070"/>
<path d="M23.4805 19.4463L23.5898 19.5546L23.4805 19.4463Z" fill="#32327B"/>
<path d="M21.7031 19.5537L21.8125 19.662L21.7031 19.5537Z" fill="#49497D"/>
<path d="M22.2609 19.5537L22.3703 19.662L22.2609 19.5537Z" fill="#5BB47C"/>
<path d="M22.7039 19.5537L22.8133 19.662L22.7039 19.5537Z" fill="#27C2AA"/>
<path d="M22.8187 19.5537L22.9281 19.662L22.8187 19.5537Z" fill="#96B247"/>
<path d="M23.1523 19.5537L23.043 19.7704L23.1523 19.5537Z" fill="#A4A43D"/>
<path d="M23.2617 19.5537L23.3711 19.662L23.2617 19.5537Z" fill="#808067"/>
<path d="M23.3711 19.5537L23.4805 19.662L23.3711 19.5537Z" fill="#0E0E6E"/>
<path d="M21.8125 19.6621L21.9219 19.7704L21.8125 19.6621Z" fill="#262678"/>
<path d="M21.9219 19.6621L22.0312 19.7704L21.9219 19.6621Z" fill="#8D8D5B"/>
<path d="M22.3758 19.6621L22.4852 19.7704L22.3758 19.6621Z" fill="#8BB252"/>
<path d="M22.4852 19.6621L22.5945 19.7704L22.4852 19.6621Z" fill="#1AC5B5"/>
<path d="M22.5945 19.6621L22.7039 19.7704L22.5945 19.6621Z" fill="#5BB47C"/>
<path d="M23.1523 19.6621L23.2617 19.7704L23.1523 19.6621Z" fill="#58587B"/>
<path d="M21.9219 19.7812L22.0312 19.8896L21.9219 19.7812Z" fill="#0E0E6E"/>
<path d="M22.0422 19.7812L22.1516 19.8896L22.0422 19.7812Z" fill="#666677"/>
<path d="M22.1516 19.7812L22.2609 19.8896L22.1516 19.7812Z" fill="#A4A43D"/>
<path d="M22.9281 19.7812L23.0375 19.8896L22.9281 19.7812Z" fill="#99994E"/>
<path d="M23.0375 19.7812L23.1469 19.8896L23.0375 19.7812ZM22.1516 19.8896L22.2609 19.9979L22.1516 19.8896Z" fill="#32327B"/>
<path d="M22.2609 19.8896L22.3703 19.998L22.2609 19.8896Z" fill="#99994E"/>
<path d="M22.7039 19.8896L22.8133 19.998L22.7039 19.8896Z" fill="#A4A43D"/>
<path d="M22.8187 19.8896L22.9281 19.998L22.8187 19.8896Z" fill="#666677"/>
<path d="M22.9281 19.8896L23.0375 19.998L22.9281 19.8896ZM22.2609 19.998L22.3703 20.1063L22.2609 19.998Z" fill="#0E0E6E"/>
<path d="M22.3758 19.998L22.4852 20.1064L22.3758 19.998Z" fill="#666677"/>
<path d="M22.4852 19.998L22.5945 20.1064L22.4852 19.998Z" fill="#A4A43D"/>
<path d="M22.5945 19.998L22.7039 20.1064L22.5945 19.998Z" fill="#99994E"/>
<path d="M22.7039 19.998L22.8133 20.1064L22.7039 19.998Z" fill="#32327B"/>
<path d="M22.4852 20.1064L22.5945 20.2148L22.4852 20.1064Z" fill="#262678"/>
<path d="M22.5945 20.1064L22.7039 20.2148L22.5945 20.1064Z" fill="#0E0E6E"/>
<path d="M22.7039 12.7402C22.8789 13.1411 23.4258 13.5798 23.5789 13.7965C23.3875 14.0132 23.3492 13.9915 23.3711 14.3923C23.6992 14.0457 23.7102 14.0132 23.9289 14.0619C24.3992 14.5277 24.0109 15.5244 23.6227 15.7411C23.2344 15.974 23.3055 15.7357 22.7203 16.0227C22.9883 16.2502 23.3 15.9902 23.5516 16.0607C23.6883 16.2232 23.4859 16.5157 23.5898 16.7973C23.8086 16.7757 23.7867 16.3261 23.8414 16.1636C24.0055 15.5677 24.9898 15.1561 25.0391 14.609C25.2469 14.5169 25.4492 14.5819 25.6953 14.7173C25.575 14.2082 25.1648 14.2136 25.05 14.0565C24.7875 13.6557 24.5523 13.2007 23.9891 13.0815C23.5516 12.9894 23.5898 13.1086 23.3164 12.919C23.1414 12.789 22.6219 12.5398 22.7039 12.7402V12.7402Z" fill="#FF9900"/>
<path fill-rule="evenodd" clip-rule="evenodd" d="M23.9398 13.1948C23.9398 13.2185 23.9303 13.2413 23.9134 13.258C23.8965 13.2748 23.8735 13.2842 23.8496 13.2842C23.8257 13.2842 23.8027 13.2748 23.7858 13.258C23.7689 13.2413 23.7594 13.2185 23.7594 13.1948C23.7594 13.1711 23.7689 13.1484 23.7858 13.1316C23.8027 13.1149 23.8257 13.1055 23.8496 13.1055C23.8735 13.1055 23.8965 13.1149 23.9134 13.1316C23.9303 13.1484 23.9398 13.1711 23.9398 13.1948V13.1948Z" fill="white"/>
<path d="M21.3313 14.4352C21.6047 14.0993 21.7469 13.406 21.8672 13.1785C22.1516 13.2435 22.1406 13.2868 22.4961 13.081C22.0313 12.951 21.993 12.9618 21.9383 12.7506C22.1352 12.1168 23.207 11.9923 23.5789 12.2306C23.9727 12.4635 23.7266 12.5123 24.257 12.8806C24.3336 12.5448 23.9563 12.3931 23.9016 12.1439C23.9836 11.9435 24.3391 11.9814 24.5359 11.7648C24.4156 11.5752 24.0273 11.8081 23.8578 11.8406C23.2563 11.976 22.4195 11.3098 21.9109 11.5156C21.7305 11.3802 21.6922 11.1689 21.6922 10.8818C21.3039 11.2339 21.5008 11.586 21.4078 11.7648C21.1781 12.1818 20.8773 12.6043 21.0359 13.1514C21.1563 13.5739 21.2438 13.4873 21.2109 13.8177C21.1727 14.0289 21.1891 14.6031 21.3313 14.4352V14.4352Z" fill="#FF9900"/>
<path fill-rule="evenodd" clip-rule="evenodd" d="M21.1563 13.1404C21.2055 13.1187 21.2602 13.135 21.282 13.1783C21.2896 13.1936 21.2925 13.2107 21.2903 13.2275C21.2881 13.2444 21.281 13.2602 21.2698 13.2731C21.2586 13.286 21.2438 13.2953 21.2273 13.2999C21.2108 13.3046 21.1933 13.3043 21.177 13.2991C21.1606 13.294 21.1462 13.2842 21.1354 13.271C21.1246 13.2578 21.118 13.2417 21.1164 13.2248C21.1148 13.2079 21.1182 13.1908 21.1263 13.1758C21.1343 13.1608 21.1466 13.1485 21.1617 13.1404H21.1563Z" fill="white"/>
<path d="M23.5789 14.668C23.1414 14.6138 22.4797 14.8467 22.2117 14.8684C22.1297 14.5921 22.168 14.5705 21.807 14.3809C21.9328 14.8467 21.9602 14.8684 21.807 15.0309C21.1617 15.188 20.4945 14.343 20.5055 13.9042C20.5055 13.4546 20.6805 13.6334 20.7242 12.9834C20.3961 13.0917 20.4617 13.498 20.2703 13.6767C20.0516 13.7092 19.9094 13.3896 19.6141 13.3355C19.5156 13.5359 19.9148 13.7417 20.0297 13.8717C20.4617 14.3159 20.3141 15.3613 20.757 15.6863C20.7352 15.9138 20.5711 16.0546 20.3195 16.1955C20.8281 16.3526 21.0305 15.9951 21.2328 15.9788C21.7141 15.968 22.2336 16.0005 22.6273 15.5834C22.9227 15.2584 22.8078 15.2313 23.1086 15.0959C23.3109 15.0201 23.7977 14.7059 23.5789 14.6626V14.668Z" fill="#FF9900"/>
<path fill-rule="evenodd" clip-rule="evenodd" d="M22.5508 15.4858C22.5407 15.4798 22.532 15.4718 22.525 15.4624C22.5181 15.453 22.5131 15.4424 22.5103 15.4311C22.5075 15.4198 22.507 15.408 22.5087 15.3965C22.5105 15.385 22.5146 15.3739 22.5207 15.364C22.5268 15.354 22.5348 15.3453 22.5443 15.3384C22.5538 15.3316 22.5646 15.3266 22.576 15.3238C22.5874 15.3211 22.5993 15.3205 22.6109 15.3223C22.6225 15.3241 22.6337 15.3281 22.6438 15.3342C22.6641 15.3464 22.6786 15.3661 22.6843 15.3889C22.6899 15.4118 22.6862 15.4359 22.6738 15.456C22.6615 15.4762 22.6416 15.4906 22.6185 15.4962C22.5955 15.5018 22.5711 15.498 22.5508 15.4858V15.4858Z" fill="white"/>
<path d="M-4 0H13.5V13H-4V0Z" fill="#012169"/>
<path d="M-1.94922 0L4.72266 4.90208L11.3672 0H13.5V1.67917L6.9375 6.52708L13.5 11.3479V13H11.3125L4.75 8.15208L-1.78516 13H-4V11.375L2.53516 6.55417L-4 1.73333V0H-1.94922Z" fill="white"/>
<path d="M7.59375 7.61042L13.5 11.9167V13L6.08984 7.61042H7.59375ZM2.5625 8.15208L2.72656 9.1L-2.52344 13H-4L2.5625 8.15208ZM13.5 0V0.08125L6.69141 5.17292L6.74609 3.98125L12.1328 0H13.5ZM-4 0L2.53516 4.76667H0.894531L-4 1.1375V0Z" fill="#C8102E"/>
<path d="M2.58984 0V13H6.96484V0H2.58984ZM-4 4.33333V8.66667H13.5V4.33333H-4Z" fill="white"/>
<path d="M-4 5.22708V7.82708H13.5V5.22708H-4ZM3.46484 0V13H6.08984V0H3.46484Z" fill="#C8102E"/>
</g>
</g>
<defs>
<clipPath id="clip0_1_16262">
<rect width="35" height="26" fill="white" transform="translate(-4)"/>
</clipPath>
</defs>
</svg>
