<svg width="34" height="26" viewBox="0 0 34 26" fill="none" xmlns="http://www.w3.org/2000/svg">
<g clip-path="url(#clip0_351_23032)">
<path d="M0 0H34V26H0V0Z" fill="#E41E20"/>
<path d="M14.4497 5.85938C14.2053 5.85938 13.7962 5.9375 13.8016 6.11979C13.1109 6.01042 13.0419 6.28646 13.0844 6.53646C13.1481 6.4375 13.2278 6.38021 13.2916 6.375C13.3819 6.35937 13.4775 6.39062 13.5784 6.44792C13.6736 6.50647 13.7596 6.57842 13.8334 6.66146C13.5891 6.71875 13.3978 6.68229 13.2066 6.65104C13.0985 6.62846 12.9957 6.58605 12.9037 6.52604C12.8241 6.47396 12.7975 6.42188 12.6753 6.30208C12.5319 6.15625 12.3778 6.19792 12.4256 6.42187C12.5372 6.63021 12.7231 6.72396 12.9569 6.76562C13.0684 6.78125 13.2384 6.81771 13.4297 6.81771C13.6209 6.81771 13.8334 6.79167 13.9503 6.81771C13.8812 6.85937 13.8016 6.9375 13.6422 6.96354C13.4828 6.99479 13.2437 6.86979 13.095 6.83854C13.1109 6.95833 13.2703 7.07292 13.5784 7.13542C14.0884 7.23958 14.5081 7.32292 14.7897 7.47396C15.0124 7.59567 15.209 7.75837 15.3687 7.95312C15.6184 8.23958 15.6344 8.46354 15.645 8.51562C15.6981 8.97396 15.5334 9.23437 15.2253 9.31771C15.0766 9.35417 14.8003 9.28125 14.7047 9.16667C14.5984 9.05208 14.5081 8.85417 14.5347 8.54167C14.5612 8.42708 14.6994 8.10938 14.5825 8.04688C14.0286 7.74844 13.4554 7.48573 12.8666 7.26042C12.7337 7.20833 12.6275 7.38542 12.585 7.45833C12.1927 7.40472 11.8176 7.26613 11.4867 7.05262C11.1559 6.8391 10.8778 6.55603 10.6725 6.22396C10.4494 5.82813 10.0722 6.22396 10.1359 6.60417C10.2369 7.02083 10.5609 7.32292 10.9541 7.54167C11.3525 7.75521 11.8572 7.96875 12.3619 7.95833C12.6381 8.01042 12.6328 8.35417 12.3087 8.42187C11.6659 8.42187 11.1506 8.41146 10.6672 7.95312C10.3006 7.625 10.0987 8.01562 10.1997 8.23437C10.3803 8.91667 11.3737 9.10937 12.3778 8.89062C12.7709 8.82812 12.5372 9.23437 12.4309 9.23958C12.0059 9.53646 11.2569 9.82292 10.5928 9.23958C10.29 9.01042 10.0828 9.19792 10.1997 9.52604C10.4919 10.3854 11.6181 10.2031 12.3884 9.78646C12.585 9.67708 12.7656 9.92708 12.5266 10.1198C11.565 10.776 11.0869 10.7865 10.6512 10.5365C10.1094 10.3229 10.0669 10.9115 10.3856 11.1094C10.7416 11.3177 11.65 11.1615 12.3194 10.7448C12.6062 10.5365 12.6169 10.8646 12.4362 10.9948C11.6447 11.6667 11.3312 11.8438 10.5078 11.7344C10.0987 11.7031 10.1041 12.1979 10.4228 12.3906C10.8637 12.6562 11.7244 12.2187 12.3884 11.6719C12.67 11.526 12.7178 11.7656 12.5797 12.0521C12.2856 12.46 11.8858 12.7837 11.4216 12.9896C11.0497 13.1302 10.6991 13.1094 10.4494 13.026C10.1412 12.9219 10.1041 13.2344 10.2741 13.5156C10.375 13.6875 10.7947 13.7396 11.2516 13.5833C11.7084 13.4271 12.1972 13.0521 12.5319 12.6198C12.8241 12.3646 12.7922 12.7031 12.6541 12.9427C11.9847 13.9844 11.3684 14.3698 10.5556 14.3073C10.1997 14.2448 10.1147 14.5156 10.3431 14.776C10.7469 15.099 11.2463 15.0885 11.6925 14.7656C12.0803 14.401 12.8294 13.599 13.2225 13.1719C13.4987 12.9583 13.5891 13.1719 13.5041 13.6094C13.4297 13.8594 13.2491 14.1302 12.7444 14.3177C12.3991 14.5104 12.6594 14.776 12.9144 14.7865C13.0578 14.7865 13.3447 14.6198 13.5678 14.3802C13.8547 14.0573 13.8759 13.8437 14.0353 13.3437C14.1841 13.1042 14.455 13.2187 14.455 13.4687C14.3222 13.9687 14.2159 14.0573 13.9503 14.2604C13.7006 14.4948 14.1256 14.5729 14.2691 14.474C14.6834 14.2031 14.8322 13.849 14.9703 13.526C15.0766 13.2969 15.3634 13.4062 15.2253 13.7865C14.9066 14.6927 14.3753 15.0469 13.4562 15.2344C13.3659 15.25 13.3075 15.3021 13.3394 15.4062L13.7112 15.7708C13.1428 15.9375 12.6806 16.0312 12.1069 16.1875L11.3206 15.6771C11.2516 15.5104 11.2144 15.25 10.8 15.4323C10.5237 15.3073 10.3909 15.3542 10.2369 15.4844C10.46 15.4844 10.5556 15.5469 10.6459 15.6458C10.7628 15.9427 11.0284 15.974 11.2994 15.8906C11.4747 16.0312 11.565 16.1458 11.7456 16.2917L10.8584 16.2656C10.5397 15.9375 10.2953 15.9531 10.0722 16.2135C9.89688 16.2396 9.82781 16.2396 9.71094 16.4427C9.89156 16.3698 10.0084 16.349 10.0881 16.4271C10.4228 16.6198 10.6406 16.5781 10.8053 16.4271L11.735 16.4844C11.6181 16.5885 11.4587 16.6406 11.3366 16.7344C10.8584 16.599 10.6034 16.7865 10.5184 17.1667C10.4513 17.3191 10.4292 17.4869 10.4547 17.651C10.4972 17.4948 10.5769 17.3646 10.715 17.2865C11.14 17.3906 11.2994 17.2188 11.3259 16.9688C11.5384 16.8021 11.8466 16.7656 12.0537 16.599C12.2981 16.6719 12.415 16.7187 12.6594 16.7969C12.7444 17.0573 12.9409 17.1562 13.2597 17.0885C13.6316 17.099 13.5678 17.2552 13.5997 17.375C13.7059 17.2031 13.7006 17.0312 13.4669 16.875C13.3819 16.651 13.1906 16.5469 12.9462 16.6771C12.7125 16.6146 12.6541 16.5208 12.4203 16.4531C13.0047 16.2708 13.4191 16.2292 14.0034 16.0469L14.4125 16.401C14.4922 16.4479 14.5666 16.4583 14.6144 16.401C14.9809 15.8802 15.1456 15.4271 15.4803 15.0833C15.6131 14.9375 15.7778 14.75 15.9584 14.7031C16.0487 14.6771 16.1603 14.6927 16.2347 14.7708C16.3038 14.8437 16.3622 14.9844 16.3409 15.1979C16.3038 15.4948 16.2294 15.5938 16.1444 15.7708C16.0541 15.9531 15.9531 16.0625 15.8416 16.2031C15.6291 16.4792 15.3422 16.6406 15.1722 16.75C14.8322 16.9635 14.6941 16.8698 14.4284 16.8542C14.0884 16.8906 14.0034 17.0521 14.2797 17.276C14.5347 17.4115 14.7684 17.4271 14.9597 17.3906C15.1191 17.3594 15.3103 17.1562 15.4484 17.0469C15.5972 16.875 15.8522 17.0781 15.6769 17.2812C15.3634 17.6458 15.0553 17.8854 14.6675 17.8802C14.2584 17.9323 14.3381 18.1562 14.6037 18.2656C15.0925 18.4583 15.5281 18.0938 15.7512 17.849C15.9212 17.6667 16.0434 17.6615 16.0169 17.9479C15.8416 18.4635 15.6131 18.6615 15.2306 18.6875C14.9225 18.6562 14.9172 18.8958 15.1456 19.0521C15.6556 19.3958 16.0275 18.8021 16.2028 18.4479C16.325 18.125 16.5162 18.276 16.5375 18.5417C16.5375 18.901 16.3781 19.1875 15.9372 19.5521C16.2719 20.0781 16.665 20.6146 16.9997 21.1406L18.0197 9.99479L16.9997 8.23958C16.8934 8.14583 16.5322 7.72917 16.4419 7.66667C16.4047 7.63542 16.3887 7.61458 16.4366 7.59375C16.4844 7.57292 16.5959 7.55208 16.6756 7.54167C16.4631 7.32812 16.2719 7.26042 15.8628 7.14583C15.9637 7.10417 16.0594 7.125 16.3569 7.11458C16.1743 6.87412 15.9255 6.6898 15.6397 6.58333C15.8628 6.42708 15.9053 6.41667 16.1284 6.23437C15.7765 6.20772 15.4289 6.14131 15.0925 6.03646C14.8916 5.94286 14.6761 5.883 14.455 5.85938H14.4497ZM14.4922 6.29687C14.6941 6.29687 14.8162 6.36458 14.8162 6.44792C14.8162 6.53125 14.6941 6.59896 14.4922 6.59896C14.2903 6.59896 14.1628 6.52083 14.1628 6.44271C14.1628 6.35937 14.2903 6.29687 14.4922 6.29687Z" fill="black"/>
<path d="M19.5503 5.85938C19.7947 5.85938 20.2038 5.9375 20.1984 6.11979C20.8891 6.01042 20.9581 6.28646 20.9156 6.53646C20.8519 6.4375 20.7722 6.38021 20.7084 6.375C20.6181 6.35937 20.5225 6.39062 20.4216 6.44792C20.3264 6.50647 20.2404 6.57842 20.1666 6.66146C20.4109 6.71875 20.6022 6.68229 20.7934 6.65104C20.9015 6.62846 21.0043 6.58605 21.0963 6.52604C21.1759 6.47396 21.2025 6.42188 21.3247 6.30208C21.4681 6.15625 21.6222 6.19792 21.5744 6.42187C21.4628 6.63021 21.2769 6.72396 21.0431 6.76562C20.9316 6.78125 20.7616 6.81771 20.5703 6.81771C20.3791 6.81771 20.1666 6.79167 20.0497 6.81771C20.1188 6.85937 20.1984 6.9375 20.3578 6.96354C20.5172 6.99479 20.7563 6.86979 20.905 6.83854C20.8891 6.95833 20.7297 7.07292 20.4216 7.13542C19.9116 7.23958 19.4919 7.32292 19.2103 7.47396C18.9876 7.59567 18.791 7.75837 18.6313 7.95312C18.3816 8.23958 18.3656 8.46354 18.355 8.51562C18.3019 8.97396 18.4666 9.23437 18.7747 9.31771C18.9234 9.35417 19.1997 9.28125 19.2953 9.16667C19.4016 9.05208 19.4919 8.85417 19.4653 8.54167C19.4388 8.42708 19.3006 8.10938 19.4175 8.04688C19.9714 7.74844 20.5446 7.48573 21.1334 7.26042C21.2663 7.20833 21.3725 7.38542 21.415 7.45833C21.8073 7.40472 22.1824 7.26613 22.5133 7.05262C22.8441 6.8391 23.1222 6.55603 23.3275 6.22396C23.5506 5.82813 23.9278 6.22396 23.8641 6.60417C23.7631 7.02083 23.4391 7.32292 23.0459 7.54167C22.6475 7.75521 22.1428 7.96875 21.6381 7.95833C21.3619 8.01042 21.3672 8.35417 21.6913 8.42187C22.3341 8.42187 22.8494 8.41146 23.3328 7.95312C23.6994 7.625 23.9013 8.01562 23.8003 8.23437C23.6197 8.91667 22.6263 9.10937 21.6222 8.89062C21.2291 8.82812 21.4628 9.23437 21.5691 9.23958C21.9941 9.53646 22.7431 9.82292 23.4072 9.23958C23.71 9.01042 23.9172 9.19792 23.8003 9.52604C23.5081 10.3854 22.3819 10.2031 21.6116 9.78646C21.415 9.67708 21.2344 9.92708 21.4734 10.1198C22.435 10.776 22.9131 10.7865 23.3488 10.5365C23.8906 10.3229 23.9331 10.9115 23.6144 11.1094C23.2584 11.3177 22.35 11.1615 21.6806 10.7448C21.3938 10.5365 21.3831 10.8646 21.5638 10.9948C22.3553 11.6667 22.6688 11.8438 23.4922 11.7344C23.9013 11.7031 23.8959 12.1979 23.5772 12.3906C23.1363 12.6562 22.2756 12.2187 21.6116 11.6719C21.33 11.526 21.2822 11.7656 21.4203 12.0521C21.7144 12.46 22.1142 12.7837 22.5784 12.9896C22.9503 13.1302 23.3009 13.1094 23.5506 13.026C23.8588 12.9219 23.8959 13.2344 23.7259 13.5156C23.625 13.6875 23.2053 13.7396 22.7484 13.5833C22.2916 13.4271 21.8028 13.0521 21.4681 12.6198C21.1759 12.3646 21.2078 12.7031 21.3459 12.9427C22.0153 13.9844 22.6316 14.3698 23.4444 14.3073C23.8003 14.2448 23.8853 14.5156 23.6569 14.776C23.2531 15.099 22.7537 15.0885 22.3075 14.7656C21.9197 14.401 21.1706 13.599 20.7775 13.1719C20.5013 12.9583 20.4109 13.1719 20.4959 13.6094C20.5703 13.8594 20.7509 14.1302 21.2556 14.3177C21.6009 14.5104 21.3406 14.776 21.0856 14.7865C20.9422 14.7865 20.6553 14.6198 20.4322 14.3802C20.1453 14.0573 20.1241 13.8437 19.9647 13.3437C19.8159 13.1042 19.545 13.2187 19.545 13.4687C19.6778 13.9687 19.7841 14.0573 20.0497 14.2604C20.2994 14.4948 19.8744 14.5729 19.7309 14.474C19.3166 14.2031 19.1678 13.849 19.0297 13.526C18.9234 13.2969 18.6366 13.4062 18.7747 13.7865C19.0934 14.6927 19.6247 15.0469 20.5438 15.2344C20.6341 15.25 20.6925 15.3021 20.6606 15.4062L20.2888 15.7708C20.8572 15.9375 21.3194 16.0312 21.8931 16.1875L22.6794 15.6771C22.7484 15.5104 22.7856 15.25 23.2 15.4323C23.4763 15.3073 23.6091 15.3542 23.7631 15.4844C23.54 15.4844 23.4444 15.5469 23.3541 15.6458C23.2372 15.9427 22.9716 15.974 22.7006 15.8906C22.5253 16.0312 22.435 16.1458 22.2544 16.2917L23.1416 16.2656C23.4603 15.9375 23.7047 15.9531 23.9278 16.2135C24.1031 16.2396 24.1722 16.2396 24.2891 16.4427C24.1084 16.3698 23.9916 16.349 23.9119 16.4271C23.5772 16.6198 23.3594 16.5781 23.1947 16.4271L22.265 16.4844C22.3819 16.5885 22.5413 16.6406 22.6634 16.7344C23.1416 16.599 23.3966 16.7865 23.4816 17.1667C23.5487 17.3191 23.5708 17.4869 23.5453 17.651C23.5028 17.4948 23.4231 17.3646 23.285 17.2865C22.86 17.3906 22.7006 17.2188 22.6741 16.9688C22.4616 16.8021 22.1534 16.7656 21.9463 16.599C21.7019 16.6719 21.585 16.7187 21.3406 16.7969C21.2556 17.0573 21.0591 17.1562 20.7403 17.0885C20.3684 17.099 20.4322 17.2552 20.4003 17.375C20.2941 17.2031 20.2994 17.0312 20.5331 16.875C20.6181 16.651 20.8094 16.5469 21.0538 16.6771C21.2875 16.6146 21.3459 16.5208 21.5797 16.4531C20.9953 16.2708 20.5809 16.2292 19.9966 16.0469L19.5875 16.401C19.5078 16.4479 19.4334 16.4583 19.3856 16.401C19.0191 15.8802 18.8544 15.4271 18.5197 15.0833C18.3869 14.9375 18.2222 14.75 18.0416 14.7031C17.9513 14.6771 17.8397 14.6927 17.7653 14.7708C17.6962 14.8437 17.6378 14.9844 17.6591 15.1979C17.6962 15.4948 17.7706 15.5938 17.8556 15.7708C17.9459 15.9531 18.0469 16.0625 18.1584 16.2031C18.3709 16.4792 18.6578 16.6406 18.8278 16.75C19.1678 16.9635 19.3059 16.8698 19.5716 16.8542C19.9116 16.8906 19.9966 17.0521 19.7203 17.276C19.4653 17.4115 19.2316 17.4271 19.0403 17.3906C18.8809 17.3594 18.6897 17.1562 18.5516 17.0469C18.4028 16.875 18.1478 17.0781 18.3231 17.2812C18.6366 17.6458 18.9447 17.8854 19.3325 17.8802C19.7416 17.9323 19.6619 18.1562 19.3963 18.2656C18.9075 18.4583 18.4719 18.0938 18.2488 17.849C18.0788 17.6667 17.9566 17.6615 17.9831 17.9479C18.1584 18.4635 18.3869 18.6615 18.7694 18.6875C19.0775 18.6562 19.0828 18.8958 18.8544 19.0521C18.3444 19.3958 17.9725 18.8021 17.7972 18.4479C17.675 18.125 17.4838 18.276 17.4625 18.5417C17.4625 18.901 17.6219 19.1875 18.0628 19.5521C17.7281 20.0781 17.335 20.6146 17.0003 21.1406L15.9803 9.99479L17.0003 8.23958C17.1066 8.14583 17.4678 7.72917 17.5581 7.66667C17.5953 7.63542 17.6113 7.61458 17.5634 7.59375C17.5156 7.57292 17.4041 7.55208 17.3244 7.54167C17.5369 7.32812 17.7281 7.26042 18.1372 7.14583C18.0363 7.10417 17.9406 7.125 17.6431 7.11458C17.8257 6.87412 18.0745 6.6898 18.3603 6.58333C18.1372 6.42708 18.0947 6.41667 17.8716 6.23437C18.2235 6.20772 18.5711 6.14131 18.9075 6.03646C19.1084 5.94286 19.3239 5.883 19.545 5.85938H19.5503ZM19.5078 6.29687C19.3059 6.29687 19.1838 6.36458 19.1838 6.44792C19.1838 6.53125 19.3059 6.59896 19.5078 6.59896C19.7097 6.59896 19.8372 6.52083 19.8372 6.44271C19.8372 6.35937 19.7097 6.29687 19.5078 6.29687Z" fill="black"/>
</g>
<defs>
<clipPath id="clip0_351_23032">
<rect width="34" height="26" fill="white"/>
</clipPath>
</defs>
</svg>
