<svg width="26" height="26" viewBox="0 0 26 26" fill="none" xmlns="http://www.w3.org/2000/svg">
<mask id="mask0_1_16243" style="mask-type:alpha" maskUnits="userSpaceOnUse" x="0" y="0" width="26" height="26">
<circle cx="13" cy="13" r="13" fill="#634848"/>
</mask>
<g mask="url(#mask0_1_16243)">
<g clip-path="url(#clip0_1_16243)">
<path fill-rule="evenodd" clip-rule="evenodd" d="M-1 0H33V13.195H-1V0Z" fill="#FF0000"/>
<path fill-rule="evenodd" clip-rule="evenodd" d="M-1 12.8047H33V25.9997H-1V12.8047Z" fill="black"/>
<path fill-rule="evenodd" clip-rule="evenodd" d="M11.1497 8.02762C19.9259 10.373 14.2841 21.8726 7.36187 17.0843L6.89437 17.821C10.9691 20.7785 15.0012 18.3951 16.1381 15.3076C17.3175 12.1226 15.7344 7.64303 11.2187 7.18262L11.1497 8.02762V8.02762Z" fill="#FFEC00"/>
<path fill-rule="evenodd" clip-rule="evenodd" d="M8.03125 17.9182L9.18406 18.4653L8.64219 19.6461L7.48938 19.0936L8.03125 17.9182ZM15.9469 12.5286H17.2219V13.8286H15.9469V12.5286ZM15.3253 10.4215L16.51 9.9557L16.9722 11.1636L15.7875 11.6349L15.3253 10.4215ZM13.9441 8.84529L14.8525 7.92987L15.7503 8.8507L14.8472 9.76612L13.9441 8.84529ZM12.5522 6.68945L13.7422 7.14445L13.2906 8.35779L12.1006 7.90279L12.5522 6.68945ZM15.7875 14.6249L16.9722 15.107L16.4941 16.3095L15.3147 15.8274L15.7875 14.6249ZM12.0741 18.4165L13.2428 17.9128L13.7475 19.1045L12.5788 19.6136L12.0741 18.4165ZM9.97563 18.5682H11.2506V19.8682H9.97563V18.5682ZM12.1697 12.2849L11.0913 11.4724L10.0128 12.2632L10.4378 11.0174L9.35938 10.2049H10.6609L11.1125 8.9807L11.5269 10.2103L12.8391 10.194L11.7978 11.0228L12.1697 12.2903V12.2849Z" fill="#FFEC00"/>
<path fill-rule="evenodd" clip-rule="evenodd" d="M16.85 18.7637C16.7862 18.7853 16.5206 19.4353 16.3347 19.7495L16.5312 19.8037C17.2537 20.0637 17.615 20.302 17.9231 20.7516C17.9944 20.8224 18.088 20.865 18.1872 20.872C18.2865 20.8789 18.3849 20.8497 18.465 20.7895C18.465 20.7895 18.6137 20.7353 18.805 20.5187C18.9644 20.2749 18.9219 20.0853 18.7306 19.9174C18.1462 19.4841 17.5141 19.1591 16.85 18.7637V18.7637Z" fill="#FFEE00"/>
<path fill-rule="evenodd" clip-rule="evenodd" d="M18.4066 20.193C18.4066 20.2555 18.3822 20.3154 18.3389 20.3596C18.2955 20.4038 18.2368 20.4286 18.1755 20.4286C18.1142 20.4286 18.0554 20.4038 18.0121 20.3596C17.9687 20.3154 17.9444 20.2555 17.9444 20.193C17.9444 20.1312 17.9684 20.072 18.0113 20.0283C18.0541 19.9846 18.1122 19.9601 18.1728 19.9601C18.2334 19.9601 18.2915 19.9846 18.3343 20.0283C18.3772 20.072 18.4013 20.1312 18.4013 20.193H18.4066ZM17.2697 19.4563C17.2697 19.5188 17.2453 19.5788 17.202 19.6229C17.1587 19.6671 17.0999 19.692 17.0386 19.692C16.9773 19.692 16.9185 19.6671 16.8752 19.6229C16.8318 19.5788 16.8075 19.5188 16.8075 19.4563C16.8075 19.3938 16.8318 19.3339 16.8752 19.2897C16.9185 19.2455 16.9773 19.2207 17.0386 19.2207C17.0999 19.2207 17.1587 19.2455 17.202 19.2897C17.2453 19.3339 17.2697 19.3938 17.2697 19.4563ZM17.8488 19.8355C17.8488 19.898 17.8244 19.9579 17.7811 20.0021C17.7377 20.0463 17.6789 20.0711 17.6177 20.0711C17.5564 20.0711 17.4976 20.0463 17.4543 20.0021C17.4109 19.9579 17.3866 19.898 17.3866 19.8355C17.3866 19.773 17.4109 19.7131 17.4543 19.6689C17.4976 19.6247 17.5564 19.5999 17.6177 19.5999C17.6789 19.5999 17.7377 19.6247 17.7811 19.6689C17.8244 19.7131 17.8488 19.773 17.8488 19.8355V19.8355Z" fill="black"/>
<path fill-rule="evenodd" clip-rule="evenodd" d="M16.2391 19.7006C13.9759 18.3844 11.6013 16.9652 9.33281 15.649C8.33938 15.0152 8.29156 13.8398 8.96094 12.946C9.02469 12.8215 9.10969 12.8485 9.14156 12.919C9.22125 13.3523 9.46031 13.8019 9.74719 14.0835C12.1018 15.5937 14.4342 17.1394 16.7438 18.7202C16.5631 19.0344 16.425 19.3865 16.2391 19.6952V19.7006Z" fill="#FFEE00"/>
<path fill-rule="evenodd" clip-rule="evenodd" d="M14.7888 16.5479L15.7344 17.4145L14.8844 18.3787L13.9388 17.512L14.7888 16.5479Z" fill="#FFEC00"/>
<path d="M16.6109 18.8933L9.97031 14.8037M15.7928 17.9508L13.5563 16.472M14.5231 18.785L12.2441 17.4416" stroke="black" stroke-width="0.375"/>
</g>
</g>
<defs>
<clipPath id="clip0_1_16243">
<rect width="34" height="26" fill="white" transform="translate(-1)"/>
</clipPath>
</defs>
</svg>
