<svg width="26" height="26" viewBox="0 0 26 26" fill="none" xmlns="http://www.w3.org/2000/svg">
<mask id="mask0_1_17042" style="mask-type:alpha" maskUnits="userSpaceOnUse" x="0" y="0" width="26" height="26">
<circle cx="13" cy="13" r="13" fill="#634848"/>
</mask>
<g mask="url(#mask0_1_17042)">
<g clip-path="url(#clip0_1_17042)">
<path d="M0 0H26V26H0V0Z" fill="#3A7DCE"/>
<path d="M5.46914 12.233C5.29141 11.8318 5.29141 11.8318 5.29141 11.4357C5.2 11.4357 5.18476 11.456 5.13398 11.4357C5.0832 11.4205 5.06289 11.8064 4.89531 11.7302C4.86992 11.6947 5.01719 11.4154 4.85469 11.3037C4.80391 11.2631 4.86992 11.0345 4.84453 10.9381C4.84453 10.9381 4.64141 11.0549 4.48906 10.6384C4.41797 10.5318 4.31641 10.74 4.31641 10.74C4.31641 10.74 4.36211 10.867 4.28086 10.8924C4.16406 10.8009 4.08281 10.8517 3.94062 10.7248C3.79336 10.5978 3.97109 10.4506 3.69687 10.3388C3.87461 9.84118 3.87461 9.94274 4.31641 9.73962C4.05234 9.54157 4.05234 9.54157 3.87461 9.24196C3.60547 9.1404 3.51914 9.04391 3.25508 8.84587C2.89961 8.34821 2.72187 7.3529 2.72187 6.65212C2.94531 6.41852 3.25508 7.44938 3.69687 7.74899L4.31641 8.0486C4.67187 8.25173 4.7582 8.4447 5.02734 8.64782L5.81953 8.94743C6.175 9.24196 6.35273 9.64313 6.6168 9.73962C6.90625 9.73962 6.96211 9.5568 7.05351 9.54157C7.57148 9.51618 7.84062 9.44001 7.94219 9.26227C8.04375 9.12009 8.29766 9.34352 9.00859 9.04391L8.91719 8.64782C8.91719 8.64782 9.11015 8.47009 9.36406 8.54626C9.3539 8.36345 9.33867 7.88102 9.5875 7.65759C9.43516 7.47985 9.53672 7.3529 9.53672 7.3529C9.53672 7.3529 9.67891 7.20055 9.69922 7.1193C9.62305 6.67751 9.76015 6.67243 9.7957 6.54548C9.82617 6.41345 9.67383 6.45915 9.71445 6.28141C9.76016 6.10368 10.0191 6.05798 10.0496 5.91071C10.0852 5.76852 9.97344 5.69235 9.98359 5.65681C10.0344 5.5197 9.98867 5.18962 9.98359 5.06266C10.4559 4.9154 10.6133 4.48376 10.7809 4.66149C10.8672 4.06227 10.9586 3.86423 11.4918 3.86423C11.5629 3.68141 11.2937 3.52399 11.4004 3.46813C11.5781 3.44274 11.7102 3.4529 11.9184 3.75759C11.9844 3.85407 11.9945 3.6154 12.0605 3.59001C12.1316 3.56462 12.2891 3.56462 12.3145 3.44782C12.3348 3.32595 12.3703 3.16852 12.4617 2.97048C12.5379 2.80798 12.5937 3.03141 12.6648 3.34626C13.0355 3.36149 13.8785 3.45798 14.234 3.56462C14.498 3.64587 14.6758 3.48845 14.9297 3.45798C15.1176 3.67126 15.2953 3.50876 15.3918 3.96579C15.534 4.20446 15.7625 3.98102 15.8133 4.0572C16.1129 4.97126 17.1336 4.35173 17.2047 4.36696C17.3367 4.36696 17.4941 4.77829 17.5957 4.77321C17.7633 4.73766 17.7176 4.61071 17.8598 4.66149C17.8242 5.00681 18.1492 5.40798 18.1492 5.66188C18.1492 5.66188 18.2254 5.70759 18.3016 5.63141C18.3727 5.55524 18.4387 5.3572 18.5047 5.36227C18.657 5.38766 18.723 5.41305 18.9008 5.44352C19.3781 5.63141 19.627 5.67204 19.8148 5.76345C19.8961 5.94626 19.9824 6.03766 20.1602 6.00212C20.3023 6.11384 20.1957 6.25602 20.282 6.26618C20.4598 6.16462 20.5207 6.05798 20.6934 6.15446C20.8711 6.25602 21.0488 6.45915 21.1402 6.65212C21.1402 6.75368 21.0488 7.14977 21.1402 7.74899C21.1809 7.95212 21.2062 8.10446 21.3941 8.44977C21.3434 8.80016 21.6328 9.38923 21.6328 9.54157C21.6328 9.73962 21.4906 9.84626 21.4043 10.0392C21.7598 10.3439 21.4043 10.8365 21.2266 11.1361C22.557 11.4357 21.9375 12.0349 22.9988 11.7353C22.7297 12.431 22.8262 12.3752 23.0902 13.0709C22.5621 13.472 23.0801 13.5939 22.7246 14.0865C22.7043 14.122 22.9379 14.5232 23.2629 14.5232C23.1766 15.3205 22.9074 15.0209 22.9988 16.2142C22.298 16.199 22.5824 17.108 22.1102 17.0115C22.1406 17.5853 22.3793 17.631 22.2879 18.2099C21.9324 18.3115 21.9324 18.3115 21.7598 18.606L21.4906 18.5045C21.4043 19.0072 21.2266 19.1037 21.4906 19.6013C21.4906 19.6013 21.1504 19.6166 21.0488 19.6013C21.0437 19.774 21.2012 19.8197 21.2266 20.0025C21.2113 20.0736 20.7187 20.3884 20.343 20.3986C20.2414 20.6474 20.607 20.9064 20.5867 21.0334C20.1703 21.1197 19.9875 21.6935 19.9875 21.6935C19.9875 21.6935 20.2008 21.7951 20.1652 21.8966C20.0484 21.8002 19.9875 21.7951 19.8098 21.7951C19.7234 21.8205 19.5051 21.79 19.302 22.181C19.0734 22.2674 18.9668 22.2318 18.7941 22.4908C18.718 22.247 18.6062 22.4908 18.4742 22.5924C18.3371 22.6838 18.1594 22.9174 18.134 22.9072C18.1391 22.8412 18.2152 22.5924 18.2152 22.5924L17.7734 22.6939H17.7227C17.682 22.699 17.6922 22.4045 17.6109 22.4146C17.5246 22.4299 17.2859 22.7853 17.2047 22.8006C17.1234 22.8107 17.098 22.6838 17.027 22.699C16.9559 22.7041 16.8187 23.0748 16.773 23.0849C16.7223 23.0951 16.5191 22.8615 16.3516 22.892C15.4781 23.2373 15.341 22.2115 15.2039 22.7904C15.0211 22.6838 15.0516 22.7447 14.8687 22.8006C14.752 22.8361 14.7418 22.6228 14.6352 22.6279C14.4219 22.633 14.432 22.8564 14.3203 22.7904C14.2289 22.3232 13.6602 22.4095 13.6043 22.2064C13.5586 22.0033 13.848 22.0033 13.9445 21.8611C14.0156 21.658 13.8684 21.5818 14.1629 21.3838C14.5387 21.0943 14.3203 20.9877 14.3863 20.7693C14.5082 20.4545 14.5082 20.3783 14.4066 20.099C14.4066 20.099 14.1121 19.2052 14.0512 19.2052C13.8785 19.1494 13.8785 19.5353 13.6195 19.642C13.0863 19.84 12.1469 19.1341 11.9844 19.1341C11.832 19.1392 11.1465 19.322 11.1719 18.931C11.0703 19.3119 10.6844 19.0224 10.6641 19.0224C10.3086 19.0224 10.4457 19.3271 10.207 19.317C10.1004 19.2763 9.00859 19.2052 9.00859 19.2052V19.4084L8.29766 19.0021L7.67812 18.8041C7.15 18.606 7.41406 18.1084 6.53047 18.408V17.8088H6.08867C6.26133 16.6154 6.08867 17.2146 5.99726 16.1177L5.6418 16.2193C5.28633 15.6759 6.13437 15.7826 5.37773 15.417C5.37773 15.417 5.39297 14.8228 5.2 15.0209C5.16445 15.0463 5.29141 15.3205 5.29141 15.3205C4.58047 15.2189 4.40273 15.0209 4.40273 14.2236C4.40273 14.2236 4.98672 14.3201 4.93594 14.2236C4.85469 14.0713 4.74297 13.1064 4.76328 13.0404C4.75312 12.9084 5.30664 12.5783 5.2 12.2634C5.26602 12.233 5.46914 12.233 5.46914 12.233" fill="white"/>
<path d="M23.4739 15.1332C23.4477 15.1971 23.452 15.261 23.4783 15.3101C23.5263 15.2266 23.487 15.1922 23.4783 15.1332H23.4739ZM2.681 7.79124C2.681 7.79124 2.54995 7.77158 2.57616 7.90427C2.61984 7.80598 2.67663 7.79616 2.681 7.79124ZM2.6679 7.47673C2.59364 7.47673 2.5019 7.4669 2.53685 7.59958C2.58053 7.49638 2.6679 7.48164 2.6679 7.47673ZM3.22266 9.26062C3.22266 9.26062 3.33624 9.25079 3.31003 9.38348C3.26635 9.28519 3.22266 9.26553 3.22266 9.26062Z" stroke="white" stroke-width="0.285123" stroke-linejoin="round"/>
</g>
</g>
<defs>
<clipPath id="clip0_1_17042">
<rect width="26" height="26" fill="white"/>
</clipPath>
</defs>
</svg>
