<svg width="26" height="26" viewBox="0 0 26 26" fill="none" xmlns="http://www.w3.org/2000/svg">
<mask id="mask0_1_16009" style="mask-type:alpha" maskUnits="userSpaceOnUse" x="0" y="0" width="26" height="26">
<circle cx="13" cy="13" r="13" fill="#634848"/>
</mask>
<g mask="url(#mask0_1_16009)">
<g clip-path="url(#clip0_1_16009)">
<path d="M-10 0H26V26H-10V0Z" fill="#000066"/>
<path d="M-10.0337 13L25.9663 0V26L-10.0337 13Z" fill="#BD1021"/>
<path d="M-6.64188 12.9995L25.9831 1.3916V24.6074" fill="white"/>
<path d="M16.666 14.648C16.9503 14.6647 16.9417 14.9385 16.9417 14.9385L17.9584 14.9633C18.0877 14.619 18.2256 14.6605 18.4712 14.8306C18.6222 14.9296 18.7877 15.0065 18.9622 15.0588C19.0613 14.5692 19.7808 14.6688 19.7808 14.6688C20.091 13.9635 20.1169 13.9718 19.9316 13.8805C19.822 13.8275 19.7319 13.7436 19.6731 13.6399C19.5008 13.4366 19.4103 13.1463 19.3888 12.9678C19.3672 12.7895 19.1518 13.055 19.113 13.001C19.0743 12.943 18.7555 12.9761 18.7555 12.9761C18.833 13.0591 18.5659 13.0093 18.5659 13.0093C18.5918 13.0301 18.5659 13.1048 18.5659 13.1048C18.5401 13.0716 18.3333 13.0384 18.3333 13.0384C18.316 13.0798 18.2686 13.1255 18.2686 13.1255C18.1567 13.084 17.9369 13.0881 17.9369 13.0881C17.7209 13.0801 17.5071 13.132 17.3208 13.2375C17.2304 13.2873 16.9029 13.445 16.6316 13.698C16.3644 13.9469 16.2136 13.9179 16.2136 13.9179C16.1361 14.2 15.4942 14.5402 15.4942 14.5402C15.3908 14.6273 15.0676 14.6688 14.904 14.5402C14.7403 14.4074 14.904 14.1668 14.904 14.1668C14.9686 14.0589 15.0246 14.0631 15.0332 13.6814C15.0375 13.4242 15.3132 13.2168 15.5976 12.918C15.9465 12.5488 16.4333 11.9432 16.4333 11.9432C16.4333 12.1298 16.5411 12.1588 16.5411 12.1588C16.6358 11.9722 16.7737 11.8187 16.7737 11.8187C16.7823 11.8353 16.8039 11.8436 16.8039 11.8436C16.9116 11.7025 16.9762 11.6486 16.9762 11.6486C16.9417 11.632 16.6359 11.6486 16.3558 11.885C16.0715 12.1215 15.8819 12.0427 15.8819 12.0427C15.6837 11.9805 15.6665 11.8353 15.6665 11.8353C15.5243 11.242 16.0844 10.8189 16.0844 10.8189C15.3304 10.6446 15.8733 9.71945 16.8125 9.32533C17.7473 8.93533 17.7387 8.75696 17.7387 8.75696C17.7948 8.81926 17.8378 8.92293 17.8378 8.92293C17.8464 8.91876 17.9154 8.8192 18.4582 8.59105C18.9968 8.35868 19.2552 8.15956 19.2552 8.15956C19.3241 8.2882 19.3113 8.37948 19.3113 8.37948C20.7889 7.88163 22.2408 6.7366 22.2408 6.7366C22.2839 6.83204 22.2624 6.97721 22.2624 6.97721C22.5036 6.76152 23.3739 6.26367 23.3739 6.26367C23.3868 6.58309 23.1154 6.7034 23.1154 6.7034C23.1455 6.74906 23.1584 6.83204 23.1584 6.83204C23.4327 6.66545 23.7028 6.49254 23.9684 6.31345C24.2139 6.51674 23.9942 6.84445 23.9942 6.84445C24.0804 6.83199 24.1407 6.76152 24.1407 6.76152C24.2053 7.10585 23.809 7.4087 23.809 7.4087C23.8779 7.4087 23.9942 7.34229 23.9942 7.34229C23.9167 7.71566 23.18 8.13053 23.18 8.13053C23.2877 8.22597 23.1843 8.34627 23.0938 8.40434C23.0077 8.45829 22.8525 8.57859 22.8999 8.62837C22.9474 8.6782 23.2747 8.45412 23.2747 8.45412C23.3308 8.61174 22.9129 8.92293 22.9129 8.92293C23.2058 8.9603 24.0158 8.60351 24.0158 8.60351C23.9511 8.9063 23.6453 9.14279 23.2661 9.27973C22.887 9.41661 22.9086 9.43735 22.9086 9.43735C22.9732 9.48718 23.4945 9.34196 23.4945 9.34196C23.3394 9.67796 22.7966 9.91028 22.7966 9.91028C22.943 10.0348 23.1498 9.88953 23.3523 9.75683C23.5979 9.6075 23.863 9.4903 24.1407 9.40832C24.4423 9.30876 24.662 9.3834 24.662 9.3834C24.9205 9.30459 25.1359 9.4166 25.1359 9.4166C25.6227 9.45398 25.6744 9.62406 25.6744 9.62406C25.7262 9.63652 25.7692 9.65721 25.8941 9.74848C26.0191 9.83564 26.0105 10.1095 26.0061 10.2463C26.0019 10.3791 25.9631 10.3791 25.9372 10.4123C25.9157 10.4538 25.9113 10.4953 25.9113 10.545C25.9113 10.599 25.7865 10.9184 25.0282 10.9184H23.8822C23.8175 10.9184 23.7443 10.9558 23.7443 10.9558C23.4255 11.1093 23.5936 10.852 23.2144 11.1508C22.8353 11.4535 22.6414 11.3996 22.6414 11.3996C22.4299 11.61 22.1992 11.8016 21.9521 11.9722C21.7281 12.1132 21.7668 12.0966 21.965 12.1796C22.1632 12.2627 22.4605 12.1796 22.4605 12.1796C22.2709 12.3041 22.4044 12.3622 22.4044 12.3622C22.6543 12.2128 22.8094 12.2667 22.8094 12.2667C22.887 12.4783 22.5983 12.8144 22.5983 12.8144C22.7103 12.8268 22.9214 12.8144 22.9214 12.8144C22.8697 12.9554 22.663 13.113 22.5078 13.1587C22.3527 13.2085 22.3786 13.2292 22.426 13.3163C22.4691 13.4076 22.4346 13.4988 22.4346 13.4988C22.1632 13.3205 22.1546 13.4781 22.1546 13.4781C22.1244 13.6897 22.1287 13.9967 22.1287 13.9967C21.9391 13.9055 21.9305 14.0258 21.9305 14.0258C21.8788 14.2208 21.6462 14.4406 21.6462 14.4406C21.6376 14.3244 21.5213 14.2912 21.5213 14.2912C21.4007 14.5153 21.1766 14.6522 21.1766 14.6522C21.1507 14.843 21.2068 15.1168 21.2068 15.1168C21.0603 15.0878 21.0086 15.0878 20.9871 15.121C20.9655 15.1542 21.0172 15.1708 21.0172 15.1708L22.8956 15.2164C22.9214 15.2164 23.0334 15.233 23.0334 15.4239C23.0378 15.623 22.8697 15.6313 22.8697 15.6313L20.819 15.5856C20.819 15.5856 20.8276 15.6395 20.72 15.6934C20.6123 15.7473 20.651 15.6313 20.6209 15.876C20.5907 16.1166 20.1814 15.8553 20.1814 15.8553C20.1168 15.9507 19.9574 16.0752 19.9574 16.0752C19.8626 15.8055 19.7678 15.7225 19.6214 15.9548C19.4749 16.1872 19.8885 16.1457 19.8885 16.1457C19.8885 16.1457 22.2967 15.8055 22.4303 15.7931C22.5595 15.7806 22.7017 15.7889 22.762 15.9631C22.818 16.1416 22.4691 16.1706 22.4691 16.1706L19.9962 16.4278C19.9445 16.5688 19.7377 16.5605 19.7377 16.5605C19.7549 16.6933 19.6084 16.7805 19.5352 16.8261C19.4577 16.8758 19.2207 16.8551 19.2207 16.8551C18.9363 17.0418 18.7942 16.8966 18.7942 16.8966C18.6089 16.9713 18.4926 16.9381 18.3375 16.8758C18.1824 16.8095 18.1954 16.6311 18.1954 16.6311L16.6358 16.7887C16.5898 16.8043 16.5474 16.8282 16.5109 16.8593C16.5669 16.9298 16.3989 17.0874 16.3989 17.0874C16.4462 17.1165 16.5367 17.2036 16.5496 17.3903C16.5625 17.5894 16.2955 17.6226 16.429 17.7636C16.5583 17.9006 16.8038 17.7844 17.0752 17.66C17.3423 17.5355 17.6095 17.5521 17.7215 17.5521C17.8378 17.5521 18.1609 17.635 18.3591 17.7014C18.5616 17.7678 18.6305 17.7263 18.6434 17.6268C18.6563 17.5313 18.7468 17.5023 18.7468 17.5023C18.7209 17.5977 18.7769 17.6433 18.7769 17.6433C18.8546 17.6433 18.988 17.5728 18.988 17.5728C18.9751 17.6475 18.876 17.6931 18.876 17.6931C18.6822 17.8176 18.9493 17.7719 18.9493 17.7719C19.4878 17.6641 19.6817 17.6765 19.8195 17.689C20.0925 17.7683 20.3602 17.8639 20.6209 17.9752C20.6424 17.9089 20.6295 17.7512 20.6295 17.7512C20.7975 17.7968 20.8665 17.8923 20.8665 17.8923C20.931 17.8259 20.888 17.7097 20.888 17.7097C21.4308 18.0043 20.7759 18.137 20.5993 18.1951C20.427 18.249 20.427 18.3195 20.427 18.3195C20.5734 18.2781 20.6726 18.2574 20.7932 18.249C20.9138 18.2407 20.8708 18.249 21.1593 18.1951C21.448 18.137 21.5945 18.2574 21.5945 18.2574C21.3532 18.2698 21.2843 18.3403 21.2843 18.3403C21.4351 18.4357 21.2886 18.5228 21.2886 18.5228C21.0732 18.2574 20.8837 18.5311 20.8837 18.5311C21.007 18.5311 21.129 18.5566 21.2412 18.6059C21.2886 18.6349 21.4049 18.6887 21.5428 18.751C21.7453 18.8381 21.7065 18.7842 21.8616 18.8381C22.0167 18.8962 21.9564 19.0373 21.9564 19.0373C21.8918 18.9211 21.7496 18.8796 21.7496 18.8796C21.7367 19.0373 21.573 19.0663 21.573 19.0663C21.7755 18.8506 21.3404 18.7552 21.1335 18.7593C20.931 18.7593 20.7803 18.8879 20.7803 18.8879C21.1896 19.2613 21.4738 19.1369 21.4738 19.1369C21.4222 19.2737 21.0862 19.2198 21.0862 19.2198C21.2412 19.336 21.224 19.4148 21.224 19.4148C21.1379 19.336 21.0043 19.3733 20.707 19.1949C20.4141 19.0082 20.1513 19.0705 20.1513 19.0705C20.4399 19.3608 20.0479 19.5393 20.0479 19.5393C19.9014 19.6223 20.1082 19.7259 20.1082 19.7259C19.9272 19.7591 19.9014 19.5849 19.9014 19.5849C19.8066 19.5641 19.6688 19.6762 19.6688 19.6762C19.6774 19.4978 19.9229 19.5891 19.9272 19.3982C19.9359 19.2115 19.7032 19.0663 19.0096 19.1576C18.3117 19.253 18.1092 19.0373 18.1092 19.0373C18.0489 19.0373 18.0403 19.0954 18.0403 19.0954C18.1522 19.2032 18.204 19.2447 18.1868 19.3194C18.1652 19.3941 18.2212 19.419 18.2212 19.419C18.092 19.4107 18.0834 19.2655 18.0834 19.2655C18.0834 19.3277 18.0575 19.3318 18.0144 19.3941C17.9713 19.4563 18.0144 19.5392 18.0144 19.5392C17.9584 19.4936 17.8593 19.4397 17.9541 19.307C18.023 19.2074 17.8034 19.0787 17.8034 19.0787C17.7171 18.9958 17.4888 19.0746 17.4888 19.0746C17.0149 19.1617 16.7392 18.8755 16.7392 18.8755C16.6832 18.8755 16.5798 18.8464 16.5798 18.8464C16.08 19.0622 15.6406 18.5975 15.6406 18.5975C15.2615 18.6639 15.0891 18.4897 14.9771 18.3154C14.9128 18.1961 14.81 18.1 14.6842 18.0416C14.5334 17.9586 14.3912 17.7056 14.5334 17.5728C14.654 17.4567 14.6196 17.4318 14.6196 17.4318C14.4214 17.1123 14.9642 17.0127 14.9771 16.934C14.9901 16.8261 15.1064 16.7555 15.227 16.7473C15.3519 16.739 15.3519 16.7473 15.4338 16.6726C15.5113 16.5896 15.6664 16.6891 15.6664 16.6891C15.7009 16.6684 15.968 16.4652 16.2092 16.5689C16.4505 16.6726 16.6487 16.602 16.6487 16.602C16.8211 16.5647 18.2255 16.3821 18.2255 16.3821C18.3117 16.2494 18.3806 16.0918 18.7683 16.0088C19.1561 15.9258 19.4447 15.6852 19.4447 15.6852C19.3758 15.6147 19.2595 15.6188 19.2034 15.6105C19.1432 15.6063 19.0225 15.5027 19.0225 15.5027C18.9493 15.5358 18.9148 15.5192 18.4065 15.8179C17.9498 16.0834 17.9368 15.5566 17.9368 15.5566H16.946C16.9287 15.7598 16.7736 15.8387 16.7736 15.8387L16.4075 15.8553C16.2093 15.7557 16.205 15.4114 16.205 15.4114C15.115 15.428 14.5118 15.8014 14.5118 15.8014C13.2754 15.1956 12.3104 15.0546 12.3104 15.0546C13.8096 14.9011 14.6023 14.4987 14.6023 14.4987C15.0883 14.7828 15.6378 14.9507 16.205 14.9882C16.2351 14.6978 16.4376 14.6273 16.4376 14.6273L16.666 14.648Z" fill="black"/>
<path d="M14.8781 17.0419C14.5679 17.2161 14.6239 17.3157 14.6541 17.3696C14.68 17.4235 14.6842 17.4775 14.5981 17.5604C14.5119 17.6434 14.5206 17.6724 14.5206 17.6724C14.5335 17.9629 14.7489 18.0251 14.8393 18.0998C14.9169 18.1578 15.0418 18.3487 15.0418 18.3487C15.2055 18.5686 15.3735 18.5727 15.4985 18.5727C15.6277 18.5727 15.6148 18.5602 15.5502 18.5063L15.3649 18.357C15.4888 18.4094 15.6002 18.4856 15.6924 18.581C16.0112 18.917 16.3041 18.8714 16.4333 18.859C16.5626 18.8424 16.5411 18.7677 16.5411 18.7677C16.5324 18.7552 16.4118 18.7469 16.4118 18.7469C15.9293 18.7055 15.7871 18.4026 15.7871 18.4026C16.0306 18.6079 16.3423 18.7227 16.666 18.7262C16.8039 18.7179 16.7952 18.7594 16.7651 18.7677C16.7349 18.7719 16.6961 18.7677 16.6316 18.7594C16.5669 18.7594 16.5669 18.7719 16.5798 18.8009C16.5971 18.8216 16.6574 18.8258 16.7306 18.8216C16.8082 18.8216 16.7479 18.8299 16.9461 18.9751C17.1442 19.1245 17.6353 19.0042 17.6353 19.0042C17.3165 18.9295 17.2735 18.7884 17.2735 18.7884C16.8426 18.8383 16.666 18.5893 16.666 18.5893C16.5885 18.5146 16.3558 18.3985 16.3558 18.3985C16.1145 18.2989 16.0758 18.0873 16.0758 18.0873C16.1447 18.1827 16.2783 18.2906 16.4463 18.3363C16.6186 18.3777 16.6617 18.4026 16.6617 18.4026C16.6183 18.4114 16.5732 18.407 16.5324 18.3901C16.3644 18.3404 16.4592 18.4068 16.4592 18.4068C16.6488 18.5519 16.7005 18.5395 16.7005 18.5395C17.1873 18.5893 16.9461 18.3985 16.9461 18.3985C17.2907 18.4814 17.3511 18.357 17.3511 18.357C17.4242 18.5022 17.687 18.4483 17.687 18.4483C17.3381 18.6142 17.6009 18.5644 17.6009 18.5644C17.9584 18.5022 18.0317 18.5893 18.0317 18.5893C18.1222 18.6722 18.2213 18.664 18.2213 18.664C18.2213 18.664 18.2859 18.664 18.4194 18.6889C18.553 18.7138 18.7641 18.8258 18.9579 18.805C19.1518 18.7801 19.1863 18.8382 19.1863 18.8382C19.1475 18.8258 19.0613 18.8133 18.9106 18.8797C18.7598 18.9461 18.497 18.9627 18.1135 18.8797C17.7301 18.7967 17.7 18.805 17.7 18.805C17.7904 18.8673 17.8723 18.9626 17.8895 19.0249C17.9067 19.0871 17.9757 19.0913 17.9757 19.0913C18.0016 19.0083 18.1135 18.9751 18.1135 18.9751C18.1911 19.0415 18.3936 19.1286 18.3936 19.1286C18.4151 19.0871 18.3936 19.054 18.3936 19.054C18.5401 19.1908 18.7124 19.1493 18.7124 19.1493C18.7555 19.1203 18.7426 19.0415 18.7426 19.0415C18.8029 19.0415 18.8115 19.0747 18.8546 19.1037C18.8976 19.1287 19.0269 19.112 19.0269 19.112C18.9795 19.0913 18.9407 19.0208 18.9407 19.0208C19.1389 18.8922 19.5568 18.9461 19.5568 18.9461C19.8584 19 19.8239 19.1909 19.8239 19.1909C19.8842 19.2158 19.9661 19.307 19.9661 19.307C19.9919 19.2406 19.9661 19.1701 19.9661 19.1701C20.1083 19.2324 20.1384 19.39 20.1384 19.39C20.2978 19.2116 19.9833 19.0166 19.9833 19.0166C20.1341 18.9959 20.3021 19.0083 20.4055 19.0208C20.5089 19.0373 20.6511 19.0871 20.7717 19.1867C20.8923 19.278 21.1034 19.3236 21.1034 19.3236C21.0991 19.2821 20.9828 19.2158 20.957 19.2033C20.9311 19.1908 20.9225 19.1535 20.9225 19.1535C21.0259 19.1743 21.0948 19.1618 21.0948 19.1618C20.7329 18.9461 20.6381 18.8466 20.6381 18.8466C20.776 18.8631 20.8536 18.7801 20.8536 18.7801C20.5649 18.7843 20.552 18.7137 20.552 18.7137C20.5908 18.7221 20.7243 18.7552 20.8967 18.7221C21.069 18.6889 21.3059 18.7221 21.3059 18.7221C21.181 18.5271 20.6984 18.5603 20.5434 18.5686C20.3883 18.5769 20.3279 18.5561 20.3279 18.5561C20.3538 18.5478 20.3797 18.5229 20.5003 18.5187C20.6209 18.5187 20.7416 18.5312 20.8794 18.4358C21.013 18.3487 21.2025 18.3777 21.2025 18.3777C21.1595 18.2906 20.9397 18.2574 20.7502 18.3777C20.5563 18.4939 20.384 18.4607 20.384 18.4607C20.6855 18.4192 20.7717 18.3155 20.7717 18.3155C20.6856 18.2906 20.6339 18.3196 20.4486 18.357C20.2677 18.3901 20.2203 18.328 20.2203 18.328C20.4184 18.2159 20.5606 18.1703 20.5606 18.1703C20.3883 18.133 20.2332 18.0624 20.2332 18.0624C20.0566 18.2242 19.9187 18.3113 19.5783 18.1454C19.238 17.9712 19.0614 17.9919 19.0614 17.9919C19.3629 17.8259 19.6645 17.8965 19.8885 18.0251C20.1125 18.1495 20.1772 18.05 20.1772 18.05C20.1039 18.0085 20.1169 17.967 20.1169 17.967C20.6554 18.2325 20.8923 18.0707 21.0087 17.9919C21.1293 17.9131 20.9526 17.8094 20.9526 17.8094C20.944 17.9753 20.7243 18.0583 20.5476 18.0002C20.3753 17.9421 20.216 17.8716 19.9661 17.7678C19.7162 17.6683 19.406 17.7222 19.113 17.7803C18.8201 17.8384 18.7857 17.8094 18.7554 17.7886C18.7296 17.7679 18.7167 17.6974 18.5659 17.7554C18.4194 17.8177 18.0705 17.66 17.8551 17.6103C17.6396 17.5604 17.2864 17.5853 16.9805 17.7471C16.679 17.9131 16.5238 17.8716 16.4333 17.8301C16.3429 17.7886 16.2826 17.6807 16.3816 17.5812C16.4807 17.4816 16.4894 17.4567 16.4808 17.3115C16.4721 17.1705 16.3257 17.0834 16.3257 17.0834C16.4592 16.9506 16.4937 16.9174 16.4463 16.8635C16.4032 16.8054 16.4721 16.8054 16.5497 16.7722C16.6272 16.739 16.5927 16.7349 16.5755 16.6892C16.5583 16.6478 16.5109 16.6561 16.5109 16.6561C16.3343 16.6643 16.2352 16.6146 16.2352 16.6146C15.9422 16.486 15.6665 16.739 15.6665 16.739C15.4985 16.6146 15.4597 16.6975 15.4296 16.7266C15.4037 16.7556 15.3434 16.7764 15.2659 16.7846C15.1926 16.7929 15.0849 16.8179 15.0504 16.8842C15.0504 16.8842 15.0159 16.934 15.0548 16.9921C15.0548 16.9921 15.0978 17.0585 15.0203 17.1373C14.9341 17.2203 14.904 17.2368 14.9341 17.3157C14.9556 17.3903 14.9514 17.4484 14.9169 17.4982C14.9169 17.4982 14.8781 17.4567 14.891 17.4028C14.8996 17.353 14.8996 17.3198 14.8867 17.295C14.8867 17.295 14.8048 17.3696 14.792 17.4277C14.792 17.4277 14.7575 17.3406 14.8781 17.2244C14.9944 17.1124 15.0504 17.0543 15.0159 17.0087C14.9901 16.9755 14.904 17.0294 14.8824 17.0419H14.8781Z" fill="#FFC221"/>
<path d="M15.2228 18.3067C15.2228 18.3067 15.072 18.1988 15.0892 18.0453C15.1065 17.896 15.1065 17.8794 15.0892 17.842C15.0892 17.842 15.059 17.8587 15.0633 17.9168C15.0633 17.9748 15.0548 18.0329 15.0504 18.0412C15.0504 18.0412 14.9729 17.9167 14.9384 17.8919C14.9384 17.8919 14.9686 17.7591 14.9255 17.7052C14.8824 17.6471 14.8393 17.6429 14.792 17.6637C14.723 17.6844 14.6713 17.7466 14.8996 17.925C14.8996 17.925 14.9858 17.9914 15.0418 18.1325C15.1021 18.2776 15.2012 18.2984 15.2185 18.3067H15.2228ZM15.9552 17.8877C15.9552 17.8877 15.9466 17.8047 16.0284 17.6512C16.0554 17.6053 16.0706 17.554 16.0729 17.5013C16.0751 17.4487 16.0643 17.3962 16.0413 17.3484C16.0241 17.3069 16.0112 17.3235 16.093 17.2571C16.1921 17.1742 16.0542 17.0745 16.2223 16.9335C16.2223 16.9335 16.3257 16.8464 16.3515 16.8091C16.3515 16.8091 16.1792 16.8962 16.0629 16.9418C15.9508 16.9874 15.5201 17.1907 15.6148 17.3276C15.7096 17.4645 15.701 17.4728 15.6838 17.5309C15.6838 17.5309 15.4252 17.3982 15.5201 17.1866C15.5201 17.1866 15.5588 17.1036 15.6665 17.004C15.7656 16.9169 15.7096 17.0248 15.9078 16.9127C15.9078 16.9127 16.0629 16.8215 16.1491 16.7012C16.1491 16.7012 16.0413 16.7635 16.0069 16.7759C16.0069 16.7759 15.7742 16.8174 15.6795 16.9086C15.5889 17.004 15.3908 17.1659 15.4554 17.3484C15.4554 17.3484 15.2271 17.3235 15.1754 17.0911C15.1754 17.0911 14.7445 17.5973 15.645 17.8379C15.645 17.8379 15.8087 17.8794 15.9594 17.8877H15.9552Z" fill="black"/>
<path d="M19.9014 16.1912C20.2375 16.1456 22.1762 15.8593 22.3571 15.8427C22.5467 15.8261 22.6199 15.8012 22.6845 15.9506C22.7578 16.1165 22.4174 16.1206 22.4174 16.1206L20.1039 16.3738C19.9919 16.3862 19.9661 16.3447 19.9661 16.3447L19.8799 16.2327C19.8799 16.2327 19.8497 16.1995 19.9014 16.1912V16.1912Z" fill="#FFC221"/>
<path d="M15.1624 17.2074C15.1624 17.2074 14.9126 17.7135 15.8948 17.838C15.8948 17.838 15.8991 17.7841 15.9379 17.7011C15.981 17.6223 16.0672 17.4605 15.981 17.3567C15.9034 17.2531 16.0499 17.307 16.0672 17.1701C16.093 17.0373 16.0542 17.0539 16.1232 16.9668C16.1232 16.9668 15.8173 17.0746 15.6967 17.2074C15.5804 17.3361 15.856 17.4356 15.6967 17.5808C15.6967 17.5808 15.5545 17.531 15.4726 17.3858C15.4726 17.3858 15.2831 17.3899 15.1624 17.2074V17.2074Z" fill="#5A3719"/>
<path d="M16.1275 17.8301C16.1275 17.8301 16.3688 18.0334 16.6574 18.0251C16.9461 18.0126 17.071 17.9421 17.1442 17.8301C17.1442 17.8301 17.2002 17.9131 17.2002 17.9711C17.2002 17.9711 17.4501 17.772 17.8809 17.9462C18.3116 18.1205 18.1825 18.0707 18.2773 18.0831C18.2773 18.0831 18.092 18.0541 17.6741 18.2367C17.2433 18.4275 16.1146 18.3611 16.1232 17.8301H16.1275Z" fill="black"/>
<path d="M15.7226 16.9338C15.7226 16.9338 15.8302 16.9504 15.9379 16.8301C15.9379 16.8301 15.7915 16.8591 15.7225 16.9338H15.7226ZM14.8954 17.8755C14.8954 17.8755 14.6928 17.722 14.8221 17.693C14.8221 17.693 14.9169 17.6764 14.8954 17.8755Z" fill="#5A3719"/>
<path d="M19.3155 18.838C19.3155 18.838 19.4276 18.6514 19.7377 18.6514C20.0479 18.6514 20.0824 18.7924 20.4787 18.8173C20.4787 18.8173 20.0049 18.9418 19.6774 18.8297C19.5051 18.7675 19.35 18.8173 19.3155 18.838Z" fill="black"/>
<path d="M16.2309 17.967C16.2309 17.967 16.7005 18.2367 17.114 17.9421C17.114 17.9421 17.1485 17.9753 17.1787 18.0458C17.1787 18.0458 17.4931 17.7555 18.0532 18.0707C18.0532 18.0707 17.9843 18.0624 17.7215 18.1703C17.3769 18.3154 16.5152 18.4109 16.2309 17.9628V17.967Z" fill="#5A3719"/>
<path d="M18.0317 18.2402C18.0317 18.2402 18.4798 18.2901 18.8546 18.2693C19.0872 18.2568 19.3414 18.2154 19.2165 18.29C19.0872 18.3647 19.1518 18.373 19.686 18.3274C20.2203 18.2776 19.6817 18.4228 20.048 18.4684C20.048 18.4684 19.1561 18.9082 18.0317 18.2402V18.2402Z" fill="black"/>
<path d="M19.2035 17.9667C19.2035 17.9667 19.4663 17.8754 19.7119 17.9833C19.9532 18.0953 19.9144 18.1036 20.0781 18.1202C20.0781 18.1202 19.9661 18.2737 19.6989 18.1493C19.4319 18.0248 19.3586 17.9999 19.2035 17.9667ZM19.4965 18.7425C19.4965 18.7425 19.755 18.6181 20.0393 18.7467C20.0738 18.7632 20.1513 18.7965 20.2246 18.8089C20.2246 18.8089 20.0091 18.8753 19.7852 18.8089C19.6904 18.7799 19.6171 18.7591 19.4965 18.7425ZM18.2213 18.2986C18.2213 18.2986 18.7985 18.3484 19.1088 18.2903C19.1088 18.2903 18.7468 18.4563 19.6559 18.3816C19.6559 18.3816 19.8541 18.3608 19.8282 18.3899C19.8066 18.419 19.7894 18.4438 19.8885 18.4729C19.8885 18.4729 19.2165 18.7632 18.2213 18.2986V18.2986Z" fill="#5A3719"/>
<path d="M15.352 17.8301C15.352 17.8301 15.3606 17.8716 15.4856 17.9255C15.6148 17.9836 15.6837 18.079 15.7096 18.1329C15.7292 18.1712 15.757 18.205 15.7912 18.2321C15.8254 18.2593 15.8651 18.2792 15.9078 18.2905C15.9078 18.2905 15.4554 18.3818 15.2572 18.1537C15.2572 18.1537 15.1021 17.9919 15.3477 17.8301" fill="black"/>
<path d="M18.8977 18.8295C18.8977 18.8295 18.721 18.8171 18.4754 18.7383C18.2342 18.6553 18.1696 18.7258 18.0317 18.6262C17.8939 18.5267 17.6181 18.5889 17.5664 18.5972C17.5147 18.6013 17.3683 18.5972 17.5492 18.481C17.5492 18.481 17.4027 18.481 17.3467 18.4064C17.3467 18.4064 17.2821 18.4686 17.0322 18.4479C17.0322 18.4479 17.1442 18.6138 16.7005 18.564C16.7751 18.6479 16.8739 18.7085 16.9844 18.738C17.0949 18.7676 17.212 18.7648 17.3209 18.73C17.3209 18.7341 17.2907 18.8627 17.4932 18.9125C17.7043 18.9623 17.7431 18.9996 17.8508 19.0411C17.8508 19.0411 17.8637 18.9581 17.5923 18.7673C17.5923 18.7673 17.7387 18.759 17.9498 18.8088C18.1609 18.8586 18.6392 18.9748 18.8977 18.8295V18.8295ZM19.0096 19.0287C19.0096 19.0287 19.0527 19.1282 19.1906 19.1033C19.3241 19.0826 19.5482 19.0453 19.7636 19.149C19.7636 19.149 19.8024 18.9748 19.3672 18.9623C19.3672 18.9623 19.0958 18.9748 19.0096 19.0287ZM15.3391 17.892C15.3391 17.892 15.1711 18.0247 15.3218 18.1616C15.4597 18.2861 15.6751 18.2777 15.7785 18.2736C15.7785 18.2736 15.7139 18.2404 15.6622 18.1616C15.6062 18.0828 15.6062 18.0289 15.4899 17.9791C15.3735 17.9292 15.3606 17.9168 15.3391 17.892ZM15.1668 17.2074C15.1668 17.2074 14.9126 17.7135 15.8991 17.838C15.8991 17.838 15.8991 17.7841 15.9422 17.7011C15.9767 17.6223 16.0629 17.4605 15.9853 17.3567C15.8991 17.2531 16.0499 17.307 16.0715 17.1701C16.093 17.0373 16.0543 17.0539 16.1232 16.9668C16.1232 16.9668 15.8173 17.0746 15.6967 17.2074C15.5804 17.3361 15.856 17.4356 15.6967 17.5808C15.6967 17.5808 15.5545 17.531 15.4726 17.3899C15.4726 17.3899 15.2831 17.3899 15.1624 17.2074H15.1668Z" fill="#5A3719"/>
<path d="M17.7473 18.3772C17.7473 18.3772 17.9542 18.344 18.4797 18.5348C19.0054 18.7216 19.225 18.6759 19.3026 18.6717C19.3026 18.6717 19.0054 18.8211 18.5487 18.6261C18.1437 18.4519 18.1179 18.5183 17.7473 18.3772V18.3772Z" fill="black"/>
<path d="M21.0388 18.2658C21.0388 18.2658 21.1551 18.2616 21.2284 18.2907C21.2284 18.2907 21.2715 18.2533 21.3835 18.2409C21.3835 18.2409 21.3102 18.1745 21.0388 18.2658V18.2658ZM20.677 17.9837C20.677 17.9837 20.7976 17.9795 20.8363 17.9214C20.8363 17.9214 20.7717 17.8509 20.6812 17.8136C20.6812 17.8136 20.6985 17.8965 20.6812 17.9837H20.677ZM16.6444 16.6934C16.6444 16.6934 16.6186 16.6354 16.7479 16.6187L18.5056 16.374C18.5056 16.374 18.5918 16.374 18.6047 16.4279C18.6176 16.4902 18.5961 16.5316 18.1997 16.5773C17.8076 16.6187 16.7608 16.7474 16.7608 16.7474C16.7608 16.7474 16.6531 16.764 16.6444 16.6934Z" fill="#FFC221"/>
<path d="M18.2385 16.6226C18.2385 16.6226 18.2385 16.8466 18.4754 16.8798C18.7038 16.913 18.7813 16.8674 18.8416 16.7512C18.8589 16.718 18.9278 16.4857 18.8287 16.4691C18.7857 16.4608 18.7167 16.4691 18.665 16.4857C18.5874 16.5188 18.5142 16.5562 18.5357 16.5935C18.5961 16.6765 18.6047 16.6973 18.5875 16.7014C18.5271 16.718 18.4884 16.6682 18.4754 16.635C18.4625 16.5935 18.5056 16.5686 18.3548 16.5935C18.2901 16.5977 18.2385 16.5977 18.2385 16.6226Z" fill="#FFC221"/>
<path d="M19.2208 16.4522C19.3371 16.4647 19.3285 16.7094 19.1863 16.8214C19.0312 16.9417 18.8847 16.8961 18.8847 16.8961C18.8029 16.8671 18.8158 16.8754 18.8761 16.7883C18.9321 16.7053 18.9623 16.5933 18.9279 16.5145C18.9192 16.4895 18.945 16.4688 18.9838 16.4605C18.9838 16.4605 19.0958 16.4398 19.2208 16.4522Z" fill="#FFC221"/>
<path d="M19.3241 16.473C19.3241 16.473 19.4103 16.5767 19.3026 16.7676C19.3026 16.7676 19.2552 16.8256 19.3629 16.8173C19.4663 16.809 19.7076 16.7011 19.6817 16.5601C19.6817 16.5601 19.6731 16.5269 19.6085 16.5269C19.5482 16.5311 19.5999 16.4979 19.6257 16.4855C19.6516 16.4855 19.7334 16.4522 19.5224 16.3195C19.5224 16.3195 19.4879 16.2905 19.4447 16.3029C19.4146 16.3154 19.3026 16.3568 19.3026 16.4232C19.3026 16.4481 19.3241 16.473 19.3241 16.473Z" fill="#FFC221"/>
<path d="M19.5525 16.2992C19.5525 16.2992 19.7248 16.4154 19.7205 16.4486C19.7205 16.4818 19.7033 16.5315 19.7507 16.5233C19.7938 16.5233 19.9747 16.4818 19.923 16.3697C19.8756 16.2536 19.8239 16.2121 19.7421 16.1831C19.6559 16.154 19.6344 16.1914 19.5611 16.2453C19.5611 16.2453 19.5094 16.2785 19.5525 16.2992V16.2992ZM18.6478 16.461C18.6478 16.461 18.6737 16.378 18.5229 16.3449C18.5229 16.3449 18.5874 16.2909 18.7167 16.32C18.8416 16.3449 18.8287 16.4278 18.8287 16.4361C18.8287 16.4361 18.7296 16.4361 18.6478 16.461V16.461ZM18.9752 16.4403C18.9752 16.4403 19.1475 16.4112 19.2251 16.4195C19.2251 16.4195 19.1389 16.237 18.9063 16.295C18.9063 16.295 18.9924 16.3905 18.9752 16.4403H18.9752ZM19.2724 16.3988C19.2724 16.3988 19.2724 16.3365 19.4189 16.2826C19.4189 16.2826 19.35 16.2162 19.2466 16.2245C19.1346 16.2287 19.1088 16.266 19.1088 16.266C19.1088 16.266 19.238 16.3117 19.2724 16.3947V16.3988ZM19.3285 16.1997C19.3285 16.1997 19.4233 16.2246 19.4792 16.2702C19.4792 16.2702 19.5654 16.1789 19.6386 16.1623C19.6386 16.1623 19.4965 16.0876 19.3285 16.2038V16.1997Z" fill="#FFC221"/>
<path d="M14.5119 15.7559C14.5119 15.7559 14.9169 15.4241 15.1453 15.4655C15.3693 15.507 15.2572 15.4779 15.5028 15.4406C15.7527 15.4033 16.0069 15.3784 16.1103 15.3908C16.1103 15.3908 15.8087 15.1834 15.2744 15.1876C15.2744 15.1876 14.8996 15.312 14.6368 15.4779C14.6368 15.4779 14.1371 15.2124 13.6201 15.3701C13.6201 15.3701 14.1802 15.5692 14.5119 15.7559Z" fill="#5A3719"/>
<path d="M18.8115 16.3277L18.8804 16.3152C18.8804 16.3152 18.9924 16.4521 18.9106 16.4521C18.8459 16.4521 18.8675 16.4355 18.8588 16.394C18.8511 16.3675 18.8345 16.3441 18.8115 16.3276V16.3277ZM18.3031 16.3359C18.3031 16.3359 18.2601 16.3858 18.3376 16.3774C18.4323 16.3608 18.4151 16.3774 18.5142 16.3111C18.5142 16.3111 18.5789 16.2488 18.6951 16.2861C18.6951 16.2861 18.7943 16.3193 18.8718 16.282C18.9537 16.2405 18.9709 16.2446 19.014 16.2488C19.0571 16.253 19.0571 16.2613 19.1088 16.2198C19.1691 16.1783 19.2682 16.2115 19.3285 16.1617C19.3931 16.1119 19.4706 16.1534 19.3285 16.058C19.3285 16.058 19.2983 16.029 19.3026 16.004C19.3026 16.004 19.3586 16.0206 19.4017 16.058C19.4448 16.0954 19.5137 16.0829 19.5266 16.0746C19.5266 16.0746 19.5352 15.9543 19.6559 15.8422C19.7852 15.7302 19.7852 15.7219 19.7119 15.7219C19.6386 15.7219 19.5137 15.6929 19.4706 15.7219C19.4275 15.751 19.0657 15.9833 18.8502 16.0206C18.6349 16.0621 18.441 16.1202 18.3031 16.3359V16.3359ZM12.6077 15.0706C12.6077 15.0706 13.2625 15.2324 13.409 15.2988C13.409 15.2988 13.4435 15.1951 13.1462 15.1121C13.1462 15.1121 13.87 15.0913 14.6325 15.4274C14.6325 15.4274 15.0031 15.1204 16.1921 15.2158C16.1921 15.2158 16.1921 15.1162 16.2007 15.0374C16.2007 15.0374 15.3693 15.0125 14.6024 14.5645C14.6024 14.5645 13.9131 14.8922 12.6077 15.0706V15.0706ZM16.2481 15.3734C16.205 14.7304 16.4592 14.6682 16.4592 14.6682C16.4592 14.6682 16.5799 14.6724 16.7091 14.6931C16.7091 14.6931 16.5066 14.9254 16.5626 15.3859C16.5626 15.3859 16.5841 15.4606 16.4119 15.4606C16.2396 15.4606 16.2482 15.3776 16.2482 15.3776L16.2481 15.3734Z" fill="#FFC221"/>
<path d="M16.4247 15.8006C16.4247 15.8006 16.2955 15.6762 16.2869 15.5351C16.2869 15.5351 16.2826 15.502 16.4075 15.502C16.5368 15.5061 16.5497 15.4937 16.5799 15.5642C16.61 15.6305 16.6918 15.7758 16.7091 15.7923L16.4247 15.8006Z" fill="#5A3719"/>
<path d="M16.6919 15.4772C16.6808 15.3961 16.6765 15.3142 16.6789 15.2324C16.6875 14.8757 16.7479 14.9047 16.7737 14.9503H16.903C16.903 14.9503 16.8082 14.5479 16.6961 14.7844C16.6122 14.9622 16.5823 15.1593 16.61 15.3528C16.6186 15.4606 16.6316 15.527 16.6444 15.5644L16.6919 15.4772Z" fill="#FFC221"/>
<path d="M18.1351 15.477C18.1351 15.477 18.3807 15.5185 18.0059 15.6015C18.0059 15.6015 18.0231 16.0412 18.4668 15.7342C18.4668 15.7342 18.734 15.5725 18.9149 15.5061C18.9149 15.5061 19.0054 15.477 18.9968 15.4107C18.9968 15.4107 19.0054 15.3277 18.9106 15.3484C18.9106 15.3484 18.833 15.3484 18.7813 15.3319C18.7813 15.3319 18.7296 15.2696 18.6951 15.2904C18.6607 15.3153 18.5745 15.3028 18.6435 15.3817C18.7081 15.4563 18.7296 15.4356 18.7598 15.4148C18.7899 15.3941 18.9321 15.3402 18.8029 15.4522C18.6736 15.5642 18.5702 15.3899 18.5271 15.3567L18.1351 15.477ZM16.8986 15.531H16.7909C16.7909 15.531 16.7306 15.614 16.6919 15.477L16.6488 15.5642C16.6488 15.5642 16.778 16.0371 16.8986 15.531V15.531Z" fill="#5A3719"/>
<path d="M16.7436 14.9833C16.7436 14.9833 16.6875 15.2945 16.7608 15.4811L17.9456 15.506C17.9456 15.506 17.9326 15.2862 17.9456 14.9833H17.7819C17.7819 14.9833 17.756 15.2322 17.7819 15.3858H17.7517C17.7517 15.3858 17.7301 15.1742 17.7517 14.9833H17.6139C17.6139 14.9833 17.5923 15.2157 17.6095 15.3899H17.5837C17.5837 15.3899 17.5621 15.1866 17.5837 14.9833H17.4501C17.4501 14.9833 17.4242 15.1908 17.4501 15.3858H17.4156C17.4156 15.3858 17.3898 15.1783 17.4156 14.9833H17.2649C17.2649 14.9833 17.2304 15.1783 17.2649 15.3899H17.2347C17.2347 15.3899 17.2002 15.1907 17.2347 14.9833H17.0839C17.0839 14.9833 17.0494 15.2074 17.0839 15.3899H17.0494C17.0494 15.3899 17.0279 15.1742 17.0581 14.9833H16.9159C16.9159 14.9833 16.8771 15.17 16.9116 15.3899H16.8771C16.8771 15.3899 16.8555 15.2239 16.8857 14.9833H16.7436V14.9833ZM17.9973 15.5475C17.9973 15.5475 17.9671 14.9916 18.0748 14.8423C18.1868 14.7012 18.2126 14.7303 18.4022 14.8423C18.5918 14.9626 18.8331 15.0871 18.8761 15.0995C18.9149 15.1161 18.9709 15.1286 18.9709 15.2322C18.9709 15.3318 18.9881 15.3609 18.8244 15.2322C18.8029 15.2157 18.7253 15.1493 18.6693 15.1327C18.5229 15.0871 18.7038 15.1617 18.7555 15.2364C18.7985 15.2945 18.8374 15.2903 18.721 15.3194C18.4774 15.3882 18.236 15.4643 17.9973 15.5475V15.5475Z" fill="#FFC221"/>
<path d="M18.4108 15.1452C18.4108 15.1452 18.3247 15.0457 18.4367 15.0208C18.5444 14.9959 18.553 15.1867 18.5745 15.2988C18.5918 15.4149 18.4367 15.1826 18.4151 15.1494L18.4108 15.1452ZM18.2557 15.6348C18.2557 15.6348 18.1265 15.6804 18.2126 15.7177C18.2945 15.7592 18.5271 15.5726 18.4496 15.585C18.3634 15.5975 18.2557 15.6348 18.2557 15.6348ZM18.4281 15.4647C18.4281 15.4647 18.5401 15.4523 18.5142 15.4979C18.497 15.5477 18.4539 15.5186 18.4367 15.5062C18.4194 15.4979 18.3419 15.4688 18.4281 15.4647V15.4647Z" fill="black"/>
<path d="M19.0269 15.3159C19.0269 15.3159 19.0571 15.5316 19.2466 15.5856C19.2466 15.5856 19.3586 15.6105 19.3328 15.5192C19.3328 15.5192 19.3155 15.4362 19.3026 15.4072C19.2854 15.374 19.2078 15.3533 19.1992 15.3491C19.1906 15.3491 19.182 15.3242 19.2337 15.3408C19.2854 15.3574 19.294 15.3616 19.2897 15.3242C19.2897 15.2869 19.2552 15.3034 19.2078 15.2827C19.1906 15.2702 19.2078 15.2578 19.2294 15.262C19.2509 15.2661 19.2983 15.2827 19.2983 15.208C19.2983 15.208 19.3069 15.1665 19.2509 15.1665C19.1863 15.1624 19.1906 15.1333 19.2078 15.1292C19.2294 15.1292 19.294 15.1707 19.3155 15.096C19.3328 15.0255 19.2251 15.067 19.238 15.0296C19.2552 14.9882 19.3328 15.0504 19.3371 15.0047C19.3457 14.9633 19.406 14.9425 19.2983 14.9259C19.2509 14.9218 19.2983 14.8969 19.3543 14.9052C19.4146 14.9135 19.4491 14.8429 19.4836 14.818C19.5224 14.7931 19.7205 14.6812 19.4534 14.7185C19.1906 14.7559 19.1088 14.8803 19.0958 14.9052C19.0296 15.0335 19.0056 15.1782 19.0269 15.3201V15.3159Z" fill="#FFC221"/>
<path d="M19.6473 15.482C19.6817 15.4778 19.7119 15.482 19.7248 15.5069C19.7679 15.594 19.6688 15.5649 19.6128 15.6271C19.5568 15.6893 19.5525 15.677 19.4749 15.6562C19.3974 15.6313 19.3672 15.5193 19.3672 15.5193C19.3586 15.4819 19.3931 15.4778 19.4319 15.4861C19.4319 15.4861 19.5611 15.4985 19.6473 15.4861V15.482ZM19.3586 15.4405C19.3586 15.4405 19.363 15.4612 19.4104 15.4654C19.4534 15.4695 19.5827 15.482 19.6645 15.457C19.6645 15.457 19.6904 15.4529 19.6774 15.4031C19.6774 15.4031 19.6774 15.3699 19.6085 15.3824C19.5352 15.3949 19.4362 15.3824 19.4017 15.3782C19.3672 15.3699 19.3414 15.3782 19.3586 15.4363V15.4405ZM19.35 15.2828C19.35 15.2828 19.3457 15.3492 19.4146 15.3575C19.4879 15.3658 19.5741 15.3658 19.6085 15.3575C19.6386 15.3575 19.6904 15.345 19.6947 15.3035C19.6947 15.2621 19.7076 15.2372 19.6214 15.2579C19.5352 15.2787 19.4319 15.2621 19.4189 15.2579C19.4103 15.2579 19.35 15.2414 19.35 15.2828ZM19.3802 15.1459C19.3802 15.1459 19.363 15.1791 19.3672 15.2081C19.3672 15.2372 19.419 15.2496 19.5094 15.2496C19.5999 15.2496 19.6817 15.2372 19.6904 15.2081C19.6947 15.1749 19.7163 15.1417 19.6473 15.1542C19.5741 15.1625 19.4836 15.1667 19.4448 15.1542C19.4103 15.1376 19.3845 15.1335 19.3802 15.1459Z" fill="#FFC221"/>
<path d="M22.7448 15.4902C22.7448 15.4902 22.7448 15.5482 22.7922 15.6105L20.2504 15.54C20.2504 15.54 20.2849 15.5192 20.2935 15.4238L22.7448 15.4902Z" fill="#5A3719"/>
<path d="M19.4017 15.0461C19.4017 15.0461 19.3802 15.1083 19.4232 15.1207C19.4663 15.1332 19.5482 15.1456 19.6516 15.1291C19.6516 15.1291 19.7033 15.1291 19.7205 15.0792C19.7421 15.0253 19.7377 15.0544 19.5913 15.0294C19.5913 15.0294 19.5482 15.0129 19.6774 15.0129C19.6774 15.0129 19.755 15.0129 19.7636 15.0046C19.7766 14.9921 19.8755 14.9133 19.7463 14.9216C19.6171 14.9216 19.6817 14.8967 19.7463 14.8967C19.8153 14.8967 19.8325 14.9133 19.8541 14.8926C19.8756 14.8718 19.8541 14.8843 19.8196 14.8511C19.7851 14.8179 19.811 14.8262 19.8369 14.847C19.8627 14.8635 19.8799 14.8719 19.9058 14.847C19.9359 14.822 19.8842 14.7847 19.9058 14.7888C19.9273 14.793 19.9402 14.8345 20.0221 14.7971C20.1083 14.7557 20.2203 14.7764 20.2505 14.7971C20.2806 14.822 20.3667 14.8511 20.4228 14.7971C20.4744 14.7473 20.3581 14.7017 20.4055 14.6976C20.4572 14.6893 20.4917 14.7059 20.5089 14.6685C20.5305 14.627 20.4314 14.5939 20.5261 14.569C20.6166 14.5441 20.5391 14.2952 20.5089 14.2744C20.5089 14.2744 20.4055 14.3325 20.2935 14.5068C20.1772 14.6852 20.1125 14.7888 19.9575 14.7349C19.742 14.652 19.6257 14.7681 19.5913 14.7888C19.5395 14.8179 19.7033 14.8303 19.6042 14.8345C19.5094 14.8345 19.5094 14.847 19.5008 14.8594C19.4922 14.8719 19.5008 14.8843 19.518 14.8884C19.5352 14.8884 19.5697 14.9216 19.5137 14.9216C19.4534 14.9216 19.4103 14.9091 19.4276 14.9714C19.4276 14.9714 19.4276 14.9838 19.462 14.988C19.4965 14.988 19.5094 15.0294 19.4448 15.0294C19.4017 15.0294 19.4017 15.0419 19.4017 15.0461ZM19.6344 15.6601C19.6344 15.6601 19.5913 15.6891 19.6516 15.6933C19.7163 15.6933 19.7463 15.7098 19.7679 15.6767C19.7894 15.6435 19.8713 15.6559 19.8153 15.6103C19.7593 15.5688 19.7205 15.5937 19.6344 15.6601V15.6601Z" fill="#FFC221"/>
<path d="M19.8972 14.9212C19.8972 14.9212 20.1126 14.7304 20.2849 14.859C20.4658 14.9917 20.4788 15.0084 20.4831 15.0125C20.4831 15.0125 20.5046 15.0291 20.4572 15.0706C20.4098 15.112 20.4572 15.112 20.5089 15.083C20.5606 15.0581 20.5649 15.083 20.5908 15.112C20.6167 15.137 20.6511 15.1535 20.5692 15.1535H20.3107C20.3107 15.1535 20.1944 15.166 20.2547 15.1162C20.3107 15.0706 20.3021 15.0167 20.272 15.0125C20.2418 15.0084 20.272 15.0415 20.2547 15.0623C20.2332 15.083 20.1944 15.1038 20.1514 15.1038C20.1083 15.1038 20.0738 15.1328 20.1384 15.1536C20.203 15.1785 20.1298 15.195 20.0953 15.195C20.0608 15.195 19.8972 15.2033 20.0652 15.2241C20.2332 15.2448 20.048 15.2407 20.1729 15.307C20.3107 15.3817 20.2117 15.5394 20.16 15.5559C20.16 15.5559 20.1039 15.585 20.1729 15.5767C20.2461 15.5684 20.2848 15.5601 20.2332 15.5974C20.1858 15.6348 20.0824 15.7551 19.9445 15.6638C19.9445 15.6638 19.8799 15.6348 19.9919 15.6265C20.1083 15.6224 19.9014 15.5974 19.8627 15.5767C19.8325 15.5559 19.699 15.4274 19.7808 15.4398C19.867 15.4564 19.8369 15.4108 19.7852 15.3941C19.7377 15.3776 19.7291 15.307 19.7852 15.3195C19.8369 15.3361 19.9014 15.3651 19.9489 15.361C19.9919 15.361 19.979 15.3444 19.8842 15.3195C19.7894 15.2863 19.7507 15.2821 19.7722 15.2075C19.7938 15.1287 19.9014 15.2365 19.8756 15.1785C19.8497 15.1203 19.7593 15.1494 19.8067 15.0747C19.854 15 19.867 15.0332 19.8886 15.0415C19.9101 15.0498 19.9445 15.0415 19.8842 15C19.8411 14.971 19.8842 14.9295 19.8972 14.9212V14.9212Z" fill="#FFC221"/>
<path d="M20.048 14.975C20.048 14.975 20.048 14.9502 20.091 14.9543C20.1255 14.9543 20.1169 14.9419 20.1255 14.9336C20.1384 14.9336 20.2332 14.9626 20.1427 14.9917C20.1125 15.0041 20.0566 14.9958 20.0522 14.9751L20.048 14.975Z" fill="black"/>
<path d="M20.2547 15.1914C20.2547 15.1914 20.1815 15.2288 20.2461 15.2993C20.3021 15.3615 20.3021 15.3823 20.2978 15.4238C20.2935 15.4652 22.7449 15.4901 22.7449 15.4901C22.7449 15.4901 22.7405 15.3366 22.8439 15.2495L20.2547 15.1914V15.1914Z" fill="#FFC221"/>
<path d="M22.7836 15.4486C22.7836 15.4486 22.7966 15.32 22.8698 15.2785C22.9129 15.2536 22.9646 15.2661 22.9861 15.3698C23.0206 15.515 22.8914 15.6436 22.8311 15.5856C22.775 15.5316 22.788 15.4486 22.788 15.4486H22.7836Z" fill="#5A3719"/>
<path d="M19.9747 15.9998C19.9747 15.9998 20.1384 15.8629 20.1642 15.8048C20.1642 15.8048 20.6037 16.1076 20.5778 15.8297C20.5778 15.8297 20.5778 15.755 20.5908 15.6845C20.5908 15.6845 20.7502 15.7011 20.776 15.5766L20.3625 15.5642C20.3625 15.5642 20.3194 15.5559 20.2547 15.6223C20.1944 15.6886 20.0608 15.7592 19.9402 15.6969C19.9402 15.6969 19.8885 15.6555 19.8369 15.6928C19.7808 15.726 19.7808 15.7343 19.8239 15.7758C19.867 15.8173 19.9575 15.9334 19.9747 15.9998V15.9998ZM20.9225 15.1659L20.6812 15.1576C20.6812 15.1576 20.5951 15.0373 20.4228 14.9087C20.4228 14.9087 20.371 14.8838 20.4658 14.8091C20.5649 14.7345 20.5951 14.6556 20.5951 14.6183C20.5994 14.5851 20.5951 14.527 20.6295 14.5685C20.664 14.61 20.9139 14.8299 20.9526 14.7676C20.9871 14.7013 20.9957 14.6723 20.9957 14.6515C21.0043 14.6308 21.013 14.5727 21.0475 14.6349C21.0862 14.6972 21.1078 14.6805 21.112 14.8423C21.112 14.8423 21.1164 15.0083 21.1422 15.0622C21.1422 15.0622 20.8278 14.9668 20.9268 15.1659H20.9225ZM19.8756 14.6681C19.8756 14.6681 20.0608 14.7718 20.1514 14.6349C20.2375 14.5022 20.3021 14.4814 20.2332 14.3487C20.1642 14.2242 20.2332 14.1619 20.2849 14.108C20.3409 14.0541 20.384 14.0666 20.3883 13.8591C20.3969 13.6516 20.5434 13.5853 20.6123 13.5189C20.677 13.4566 20.845 13.3613 20.5908 13.3198C20.3409 13.2783 19.8369 13.1538 19.7076 12.9671C19.5783 12.7763 19.518 12.8883 19.518 12.8966C19.518 12.9049 19.4749 13.0418 19.6042 13.2907C19.7335 13.5397 19.8411 13.7015 19.9704 13.7803C20.0953 13.8633 20.2073 13.9048 20.1427 14.0707C20.0781 14.2366 19.9704 14.5353 19.8756 14.6723V14.6681Z" fill="#7B3C20"/>
<path d="M20.5563 14.1418C20.5563 14.1418 20.5864 14.5691 20.9095 14.7227C20.9095 14.7227 20.9828 14.5567 20.9526 14.3908C20.9526 14.3908 21.0604 14.3991 21.0905 14.4447C21.0905 14.4447 21.0905 14.3203 20.944 14.2746C20.7889 14.2331 20.8622 13.951 20.9182 13.922C20.9699 13.8888 20.9526 13.8307 20.9182 13.7809C20.8794 13.7311 20.8751 13.6564 21.0001 13.6896C21.1293 13.7187 21.1078 13.6564 21.0302 13.5942C20.9526 13.5361 20.957 13.4615 21.0647 13.4615C21.1724 13.4615 21.3533 13.3578 21.2456 13.3287C21.1379 13.2955 21.1034 13.2623 21.2456 13.2208C21.3964 13.1793 21.4696 13.1296 21.3576 13.1171C21.2456 13.1046 21.1723 13.0673 21.2801 13.0507C21.3878 13.03 21.2629 12.9263 21.1379 12.9222C21.0087 12.9139 20.7415 12.9636 20.9526 12.7977C21.1681 12.6359 20.6511 12.7562 20.8622 12.6483C21.0776 12.5404 20.7889 12.5861 20.7502 12.5861C20.7114 12.5861 20.7114 12.5861 20.7286 12.5322C20.7416 12.4783 20.6985 12.4492 20.6339 12.4865C20.5735 12.5198 20.5735 12.5198 20.5778 12.4451C20.5778 12.3662 20.5046 12.4243 20.4572 12.4451C20.4098 12.4616 20.2936 12.5488 20.2418 12.5031C20.1987 12.4533 20.1729 12.4077 20.0264 12.4907C19.8799 12.5736 19.9144 12.5031 19.9187 12.4657C19.9187 12.4243 19.9747 12.2791 19.7765 12.4368C19.5783 12.5944 19.7377 12.2708 19.5827 12.3786C19.4276 12.4907 19.4103 12.5114 19.3845 12.4616C19.3586 12.4119 19.3285 12.3704 19.1561 12.4783C18.9838 12.5819 19.113 12.4119 19.1346 12.3745C19.1605 12.3372 19.2337 12.0965 19.0829 12.2874C19.0829 12.2874 19.0096 12.416 18.846 12.1837C18.846 12.1837 18.6736 12.416 18.6262 12.3123C18.5832 12.2086 18.5401 12.2003 18.4798 12.2667C18.4237 12.333 18.4668 12.2625 18.441 12.2044C18.4151 12.1505 18.4022 12.0468 18.1136 12.2459C17.8249 12.4534 18.2126 12.304 17.9929 12.3953C17.7732 12.4865 17.239 12.7769 17.7258 12.7105C18.217 12.6442 17.4889 12.8931 17.6569 12.9387C17.8292 12.9844 17.7732 13.1296 18.4108 12.9595C19.0441 12.7935 18.9407 12.9346 19.2682 12.7977C19.5913 12.665 19.1906 12.8433 19.6258 12.8392C20.0608 12.8267 19.699 12.8392 19.7852 12.9222C19.8713 13.0093 20.2375 13.2125 20.5778 13.2499C20.9225 13.2831 21.0087 13.1586 20.9096 13.3038C20.8105 13.4449 20.776 13.4988 20.7157 13.5527C20.6597 13.5984 20.496 13.7145 20.4917 13.9095C20.4917 14.1087 20.2246 14.1419 20.3194 14.3617L20.5563 14.1418V14.1418Z" fill="#5A3719"/>
<path d="M21.1206 14.619C21.1206 14.619 21.0431 14.565 21.0431 14.4696C21.0431 14.4696 21.0991 14.4779 21.1206 14.5111C21.1206 14.5111 21.3189 14.2996 21.0776 14.2207C20.845 14.1419 20.9613 13.9345 21.0431 13.9345C21.125 13.9345 21.1379 13.9137 21.069 13.8266C21 13.7437 21.0087 13.7353 21.1422 13.7146C21.2715 13.6938 21.2585 13.6648 21.1982 13.6316C21.1579 13.6097 21.1215 13.5817 21.0905 13.5487C21.0905 13.5487 21.4696 13.391 21.349 13.3163C21.2241 13.2458 21.349 13.2624 21.4567 13.1877C21.5687 13.113 21.5859 13.0965 21.5989 13.0674C21.5989 13.0674 21.4912 13.0798 21.4093 13.0674C21.4093 13.0674 21.5041 13.0176 21.4093 12.943C21.3145 12.8683 21.2801 12.8019 21.125 12.8351C20.9742 12.8724 21.0259 12.8226 21.0819 12.7645C21.1422 12.7023 21.1164 12.6691 21.0087 12.6525C21.0087 12.6525 21.0216 12.5903 21.1034 12.5156C21.1034 12.5156 20.8967 12.5281 20.8277 12.4949C20.8277 12.4949 20.9139 12.4409 20.9139 12.3746C20.9139 12.3746 20.8019 12.412 20.6597 12.3995C20.6597 12.3995 20.7459 12.3289 20.7459 12.2667C20.7459 12.2667 20.496 12.3206 20.384 12.4036C20.384 12.4036 20.3581 12.3995 20.3409 12.3746C20.3194 12.3497 20.3064 12.3206 20.0307 12.4036C20.0307 12.4036 20.0608 12.2874 20.1298 12.2377C20.1944 12.1962 20.1858 12.1008 19.7593 12.358C19.7593 12.358 19.7033 12.3248 19.6559 12.2004C19.6559 12.2004 19.5611 12.3248 19.4922 12.3663C19.4922 12.3663 19.4319 12.3912 19.4405 12.3124C19.4491 12.2294 19.3974 12.2874 19.3543 12.3124C19.3113 12.3331 19.281 12.3912 19.3026 12.2294C19.3241 12.0676 19.2423 12.0344 19.2423 12.0344C19.2423 12.0344 19.113 12.2169 19.0355 12.2377C19.0355 12.2377 18.8976 12.1049 18.846 12.0178C18.7985 11.9348 18.7985 11.9017 18.7468 12.051C18.6995 12.2003 18.6392 12.2128 18.6392 12.2128C18.6392 12.2128 18.553 12.1423 18.5444 12.1049C18.5444 12.1049 18.5315 12.1464 18.5013 12.163C18.5013 12.163 18.4281 12.08 18.4323 11.9597C18.4323 11.9597 17.9757 12.2045 17.9154 12.3497C17.9154 12.3497 17.4845 12.3248 17.3079 12.358C17.3079 12.358 17.351 12.2253 17.463 12.1547C17.463 12.1547 17.3511 12.1423 17.3467 12.0303C17.3467 12.0303 17.4372 12.0427 17.4932 12.0303C17.5492 12.0178 17.4156 11.8602 17.5578 11.856C17.7 11.8519 17.7904 11.9224 17.7301 11.7399C17.6655 11.5573 17.6913 11.5573 17.6913 11.5573C17.6913 11.5573 17.9412 11.6984 17.98 11.661C18.0231 11.6278 17.9498 11.5532 18.1695 11.5864C18.3893 11.6237 18.329 11.5034 18.4151 11.4951C18.5013 11.4909 18.5444 11.549 18.4927 11.1632C18.441 10.7774 18.7598 11.354 18.5401 10.7732C18.5401 10.7732 18.4883 10.5948 18.3548 10.5201C18.3548 10.5201 18.3246 10.6446 18.1782 10.5368C18.0274 10.4248 17.7387 10.3833 17.8594 10.2961C17.9843 10.2048 18.0403 10.0886 18.0059 10.014C18.0059 10.014 17.8594 10.1592 17.6095 10.0555C17.4113 9.97251 17.3682 10.1219 17.1657 10.0804C17.1657 10.0804 17.1657 10.0306 17.3381 9.89787C17.5104 9.76923 17.239 9.93936 17.1356 9.96423C17.0279 9.98914 16.9977 9.9684 17.2217 9.79826C17.4458 9.63235 17.8938 9.33779 17.8335 9.09301C17.8335 9.09301 17.9369 9.2216 18.217 9.12621C18.4927 9.03494 18.6995 9.00174 18.7813 8.86069C18.8675 8.72381 19.0829 8.58688 19.1389 8.55367C19.1992 8.52464 19.2724 8.50389 19.1863 8.63665C19.1001 8.7653 18.9623 8.98928 18.5788 9.14279C18.1954 9.2963 18.0489 9.40414 17.98 9.48713C17.9111 9.56594 17.5621 9.74436 17.7904 9.71533C18.0145 9.68213 18.4065 9.71533 18.2213 9.6655C18.0403 9.61577 17.8335 9.6987 18.0015 9.54936C18.1695 9.4042 18.1997 9.35436 18.4453 9.2548C18.6909 9.15525 18.9622 8.9271 18.9364 9.17182C18.9063 9.40831 18.4496 9.66555 18.3376 9.74436C18.2256 9.82318 18.2687 9.81072 18.2687 9.83975C18.2687 9.87295 18.2514 9.93936 18.204 9.96423C18.1609 9.99743 18.1739 10.0306 18.1868 10.097C18.1998 10.1675 18.1739 10.1924 18.2084 10.2048C18.2428 10.2131 18.2773 10.2173 18.2859 10.2671C18.2988 10.3169 18.3247 10.321 18.3893 10.3169C18.4539 10.3086 18.497 10.3169 18.5013 10.3542C18.5056 10.3915 18.5702 10.4413 18.5745 10.3293C18.5832 10.2131 18.6262 10.1924 18.5056 10.2463C18.385 10.2962 18.3591 10.2795 18.3634 10.2256C18.3634 10.1717 18.3505 10.1841 18.3031 10.18C18.2514 10.1758 18.2342 10.1053 18.3246 10.0597C18.4108 10.0182 18.4108 10.0597 18.5229 9.97251C18.6348 9.88124 18.6348 9.8605 18.6521 9.81489C18.6693 9.7734 18.4927 9.93936 18.4065 9.97668C18.3204 10.0141 18.3462 9.94765 18.3634 9.85638C18.3764 9.76511 18.5874 9.64063 18.6822 9.64063C18.7813 9.64063 18.9968 9.69458 18.9063 9.82318C18.8115 9.94765 18.5444 10.1012 18.6564 10.1136C18.7727 10.1219 18.7899 10.0804 18.8589 10.1343C18.9235 10.1924 18.8589 10.3086 18.833 10.3708C18.8028 10.4285 18.7602 10.4794 18.7081 10.5201C18.7081 10.5201 18.5874 10.3127 18.5918 10.4786C18.5918 10.6446 18.5659 10.7027 18.5918 10.7069C18.6176 10.7151 18.7512 10.8022 18.7943 10.8022C18.8373 10.8022 18.5616 10.9267 18.6779 10.935C18.7943 10.9433 18.9795 10.8852 19.0398 10.7691C19.0398 10.7691 18.8029 10.7151 18.7124 10.6322C18.7124 10.6322 18.9838 10.5699 18.9063 10.3169C18.9063 10.3169 19.182 10.3874 19.0613 10.5077C18.945 10.6239 18.8718 10.6073 18.9752 10.6404C19.0786 10.6736 19.126 10.7027 19.126 10.7027C19.126 10.7027 19.1992 10.7359 19.1561 10.7898C19.113 10.8479 19.113 10.9309 19.1518 10.9267C19.182 10.9267 19.2983 10.8728 19.2035 10.8189C19.1044 10.7607 19.3113 10.7732 19.2251 10.7234C19.1389 10.6736 19.113 10.6654 19.0915 10.6404C19.0657 10.6197 20.1987 9.97668 19.6257 10.2173C19.6257 10.2173 19.7463 9.9684 19.9144 9.9684C20.0781 9.9684 20.091 10.0928 20.0005 10.1924C19.9014 10.2878 19.8411 10.4413 19.6214 10.4745C19.6214 10.4745 19.9359 10.6239 19.5611 10.8686C19.5611 10.8686 19.4793 10.906 19.5094 10.9309C19.5396 10.9599 19.7636 10.8396 19.7938 10.7691C19.8239 10.7027 19.8713 10.6446 19.9575 10.6073C20.0436 10.5658 20.4615 10.292 20.5864 10.0846C20.7157 9.87713 20.7459 9.87296 20.9914 9.68213C21.237 9.4913 21.1939 9.52862 21.2284 9.48301C21.2585 9.43735 21.2715 9.35853 21.3834 9.30047C21.4955 9.23818 21.9349 9.00591 22.0728 8.91047C22.2106 8.81508 22.4907 8.63666 22.6113 8.48732C22.7319 8.34215 23.0594 8.15127 23.1412 8.18447C23.223 8.22185 23.1326 8.33381 22.943 8.47486C22.7491 8.61179 22.2753 8.98099 22.1977 9.03911C22.0072 9.18684 21.7953 9.30702 21.5687 9.39586C21.418 9.4166 21.4351 9.46638 21.3447 9.56182C21.2542 9.65726 21.0431 9.85221 20.9742 9.90616C20.9053 9.96423 20.7372 10.0721 20.7286 10.1509C20.72 10.2298 20.7588 10.238 20.6253 10.3584C20.4917 10.4828 20.0997 10.7566 19.9532 10.7981C19.9532 10.7981 20.2073 10.8811 20.0566 11.047C19.9058 11.2088 19.9144 11.184 19.9058 11.1964C19.9058 11.1964 20.2849 11.1383 20.0178 11.4287C20.0178 11.4287 19.9618 11.5117 20.0824 11.4246C20.2116 11.3291 20.16 11.2046 20.1427 11.1881C20.1427 11.1881 20.3452 11.0636 20.5822 11.0636C20.8148 11.0595 20.8062 11.0428 20.5951 10.9848C20.5951 10.9848 20.7459 10.8105 20.8708 10.8977C21 10.9807 20.957 11.0346 20.8277 11.1051C20.6899 11.1715 20.496 11.1964 20.3495 11.2752C20.3495 11.2752 20.6253 11.3291 20.776 11.2171C20.9225 11.1093 20.9311 11.1632 20.9484 11.184C20.9699 11.2046 20.9872 11.2378 20.9225 11.3291C20.8536 11.4204 20.8492 11.4246 20.8536 11.4453C20.8536 11.4661 20.845 11.5283 20.7114 11.549C20.5822 11.5697 20.5175 11.6237 20.5649 11.6859C20.608 11.7482 20.608 11.8975 20.496 11.885C20.384 11.8685 20.4098 11.7814 20.3667 11.7482C20.3236 11.7149 20.2633 11.6652 20.0652 11.7606C19.8627 11.8602 19.8497 11.744 19.8584 11.6776C19.8584 11.6776 19.7291 11.7896 19.6214 11.6901C19.5137 11.5864 19.6085 11.549 19.6732 11.4992C19.7334 11.4494 19.9876 11.3416 19.8369 11.3623C19.6817 11.3789 19.4577 11.3872 19.406 11.2793C19.35 11.1632 19.518 11.1756 19.5438 11.1881C19.5697 11.1964 19.6731 11.2793 19.6817 11.1715C19.6817 11.0595 19.8541 11.047 19.7938 11.0263C19.7377 11.0055 19.6559 11.0761 19.6344 11.101C19.6344 11.101 19.518 10.9433 19.3285 10.9931C19.1389 11.047 19.3888 11.0263 19.4362 11.0346C19.4879 11.0428 19.4577 11.1341 19.2897 11.2835C19.1174 11.4287 19.1949 11.3831 19.3199 11.3831C19.4491 11.3831 19.7593 11.3831 19.5783 11.5241C19.3974 11.6693 19.3241 11.7399 19.2337 11.7149C19.1389 11.69 19.2423 11.632 19.2854 11.6029C19.3285 11.578 19.35 11.5366 19.2596 11.5697C19.1734 11.5988 19.1432 11.6071 19.07 11.4868C19.001 11.3623 19.0269 11.4038 19.0613 11.3208C19.0915 11.242 19.1604 11.159 19.0786 11.1881C18.9924 11.2171 19.001 11.2213 19.0096 11.13C19.014 11.0387 18.9149 11.018 18.9149 11.018C18.9149 11.018 18.9579 11.1093 18.9192 11.1673C18.8847 11.2254 18.8804 11.2461 18.9407 11.2586C19.001 11.2752 19.0571 11.325 18.9752 11.3789C18.8933 11.4287 18.9063 11.4204 18.9537 11.4536C19.0054 11.4868 19.0829 11.5241 19.001 11.5988C18.9235 11.6735 18.9881 11.6486 19.0269 11.6486C19.07 11.6486 19.1561 11.6817 19.1561 11.7564C19.1561 11.827 19.1518 11.8435 19.281 11.7772C19.4103 11.7067 19.6602 11.7149 19.6602 11.8104C19.6559 11.9058 19.6257 11.9348 19.7636 11.8519C19.8972 11.7689 19.9575 11.9265 20.0522 11.8519C20.1427 11.773 20.203 11.6984 20.3107 11.8311C20.4184 11.9597 20.384 11.997 20.2547 12.0925C20.1255 12.1838 20.3194 12.1132 20.4184 12.0635C20.5175 12.0137 20.7975 11.9805 20.957 12.051C21.1164 12.1174 21.1637 12.1049 21.2801 12.0551C21.4007 12.0095 21.461 11.997 21.6376 12.1132C21.8186 12.2294 21.9565 12.2501 22.0512 12.2459C22.0512 12.2459 21.8531 12.3207 21.629 12.3331C21.405 12.3497 21.293 12.387 21.2499 12.4202C21.2499 12.4202 21.3834 12.5032 21.4093 12.5945C21.4093 12.5945 21.5558 12.5779 21.6248 12.6027C21.6248 12.6027 21.5903 12.7065 21.6807 12.7604C21.7712 12.8143 21.8315 12.8351 21.7669 12.9098C21.6979 12.9845 21.8703 12.9512 21.7712 13.0549C21.6765 13.1628 21.6506 13.2126 21.6462 13.2998C21.6462 13.3827 21.6678 13.3951 21.5817 13.4034C21.4955 13.4117 21.5946 13.5072 21.5558 13.6192C21.517 13.727 21.2758 13.7146 21.2844 14.0133C21.2844 14.0133 21.3533 13.8681 21.4998 13.7395C21.642 13.615 21.6462 13.6026 21.642 13.5237C21.642 13.4491 21.6334 13.4657 21.7109 13.4076C21.7841 13.3495 21.6765 13.2956 21.754 13.2126C21.8272 13.1296 21.7626 13.1462 21.8531 13.0633C21.9393 12.9803 21.7712 12.972 21.866 12.8848C21.9521 12.8019 21.642 12.6982 21.7368 12.6442C21.8229 12.5903 21.978 12.5115 21.4567 12.5198C21.4567 12.5198 21.5817 12.3206 22.0211 12.3622C22.0211 12.3622 21.909 12.4451 21.8962 12.5198C21.8962 12.5198 21.9479 12.5447 21.9823 12.553C21.9823 12.553 21.9607 12.6111 21.8789 12.6774C21.8789 12.6774 22.1115 12.8019 22.1503 12.8807C22.1503 12.8807 22.0082 12.9222 21.9694 12.9803C21.9694 12.9803 22.034 13.0508 22.0555 13.1379C22.0555 13.1379 21.8962 13.1213 21.8746 13.2333C21.8531 13.3495 21.8057 13.2707 21.8057 13.3371C21.8057 13.4034 21.81 13.4325 21.754 13.4449C21.6979 13.4532 21.7454 13.5113 21.754 13.5487C21.7626 13.586 21.7841 13.6731 21.7755 13.698C21.7755 13.698 21.6937 13.698 21.6549 13.7104C21.6549 13.7104 21.6808 13.8764 21.5859 13.8971C21.4912 13.922 21.6377 13.9552 21.5343 13.9718C21.4351 13.9884 21.4481 13.9967 21.3231 14.2124C21.3231 14.2124 21.4309 14.1543 21.5386 14.0838C21.6506 14.0133 21.5299 14.034 21.7109 13.8639C21.8918 13.6897 21.8616 13.6772 21.8445 13.5901C21.8315 13.503 21.8272 13.4325 21.8918 13.3495C21.9607 13.2666 21.978 13.1711 22.2149 13.1836C22.2149 13.1836 22.146 13.0342 22.0599 12.9969C22.0599 12.9969 22.1718 12.9222 22.2882 12.9139C22.2882 12.9139 22.1848 12.7895 21.9737 12.6774C21.9737 12.6774 22.146 12.5323 22.1891 12.4659C22.1891 12.4659 22.1073 12.4783 22.0426 12.4659C22.0426 12.4659 22.0728 12.3953 22.2322 12.2958C22.2322 12.2958 22.3183 12.3746 22.3097 12.4534C22.3097 12.4534 22.5811 12.3082 22.7319 12.3248C22.7319 12.3248 22.8095 12.5074 22.4346 12.86C22.4346 12.86 22.6673 12.8807 22.7664 12.8683C22.7664 12.8683 22.7104 13.0383 22.4304 13.1379C22.1503 13.2416 22.4907 13.3619 22.202 13.3412C21.9177 13.3204 22.0038 13.4117 22.0124 13.5528C22.0211 13.6939 22.0297 13.839 22.0254 13.8764C22.0254 13.8764 21.7971 13.8058 21.8014 14.0175C21.8057 14.2332 21.6807 14.2788 21.6592 14.2954C21.6592 14.2954 21.5903 14.2414 21.4912 14.2041C21.4912 14.2041 21.349 14.4655 21.1206 14.619V14.619Z" fill="#5A3719"/>
<path d="M20.7933 11.9425C20.7933 11.9425 20.8708 11.93 21.0043 12.0088C21.1336 12.0918 21.2628 11.9258 21.1206 11.8844C20.9699 11.8429 21.1206 11.789 21.2499 11.8926C21.3878 11.9964 21.4395 11.9425 21.4869 11.9093C21.5343 11.8719 21.5946 11.8512 21.5041 11.7931C21.4137 11.7308 21.5644 11.7599 21.6334 11.8055C21.7023 11.847 21.6765 11.8885 21.6678 11.901C21.6549 11.9134 21.6506 12.0544 21.7841 11.9259C21.9177 11.7931 21.9866 11.6645 21.9823 11.6023C21.9823 11.6023 22.0555 11.6437 22.0685 11.7267C22.0771 11.8097 22.1805 11.6852 22.2149 11.6396C22.2494 11.5981 22.3054 11.482 22.3011 11.399C22.3011 11.399 22.3873 11.5359 22.5252 11.399C22.6587 11.2663 22.6027 11.3492 22.7621 11.3077C22.9258 11.2662 23.1283 11.1542 23.236 11.0256C23.348 10.8929 23.3566 10.9841 23.4988 10.951C23.6409 10.9178 23.9297 10.7269 23.9555 10.619C23.9814 10.5195 23.977 10.4531 23.9382 10.4904C23.8951 10.5236 23.9123 10.4946 23.852 10.4614C23.7875 10.4199 23.697 10.507 23.697 10.507C23.697 10.507 23.7875 10.5734 23.7185 10.6024C23.6496 10.6315 23.5892 10.7269 23.4557 10.6854C23.3264 10.6522 23.1886 10.8057 23.1886 10.8057C23.1886 10.8057 23.3049 10.8929 23.1498 10.951C22.9991 11.009 23.0206 11.0256 22.9301 10.9634C22.9301 10.9634 22.7664 11.1625 22.6716 11.204C22.6716 11.204 22.6285 11.204 22.6027 11.1625C22.6027 11.1625 22.495 11.2787 22.4433 11.2994C22.4433 11.2994 22.3743 11.2413 22.314 11.2164C22.314 11.2164 22.1848 11.3741 22.0771 11.4197C22.0771 11.4197 22.0469 11.3616 21.978 11.3243C21.978 11.3243 21.9435 11.5234 21.7195 11.6396C21.7195 11.6396 21.7324 11.5898 21.6204 11.5152C21.6204 11.5152 21.3404 11.7475 21.2327 11.7723C21.1206 11.7931 21.2198 11.7226 21.2327 11.6894C21.2499 11.6603 21.3189 11.5649 21.1853 11.5234C21.0517 11.482 21.0733 11.5525 21.0431 11.5649C21.013 11.5774 21.013 11.54 20.9182 11.5525C20.832 11.5649 20.845 11.6023 20.8062 11.6189C20.7631 11.6313 20.608 11.594 20.6166 11.6935C20.6253 11.7931 20.6985 11.8636 20.5606 11.9217C20.4228 11.9798 20.6123 11.9673 20.7933 11.9425V11.9425Z" fill="#7B3C20"/>
<path d="M21.3576 11.6611C21.3576 11.6611 21.3921 11.5283 21.2758 11.4702C21.2758 11.4702 22.0168 11.3582 21.4567 11.0844C21.4567 11.0844 22.1245 10.9558 21.9651 10.7525C21.81 10.5451 21.6549 10.5866 21.6334 10.5949C21.6118 10.5949 21.7755 10.4746 21.8186 10.4912C21.8617 10.5077 22.3959 10.7027 22.258 10.5327C22.1245 10.3667 22.1332 10.375 22.1116 10.3252C22.1116 10.3252 22.2882 10.3252 22.5553 10.5741C22.5553 10.5741 22.6113 10.5202 22.607 10.4165C22.607 10.4165 22.7966 10.4704 22.8569 10.5243C22.8569 10.5243 22.887 10.4621 22.8741 10.4248C22.8741 10.4248 23.0422 10.5077 23.0981 10.599C23.0981 10.599 23.1714 10.5368 23.1843 10.4621C23.1843 10.4621 23.348 10.5285 23.3911 10.5783C23.3911 10.5783 23.4471 10.5077 23.4256 10.4123C23.4256 10.4123 23.697 10.487 23.7358 10.3294C23.7358 10.3294 24.0072 10.3833 23.8306 10.487C23.6022 10.6198 23.809 10.4538 23.572 10.6115C23.3911 10.7359 23.2877 10.877 23.2015 10.848C23.1369 10.823 23.0594 11.0056 22.9732 10.9185C22.887 10.8272 22.887 10.8686 22.8224 10.96C22.7621 11.0512 22.663 11.1466 22.663 11.1466C22.663 11.1466 22.6199 11.1217 22.5769 11.0844C22.5769 11.0844 22.5294 11.1674 22.4605 11.2338C22.4605 11.2338 22.4045 11.1633 22.3183 11.1218C22.3183 11.1218 22.1848 11.2711 22.1029 11.3251C22.1029 11.3251 22.0211 11.2504 21.9392 11.2254C21.9392 11.2254 21.9263 11.4287 21.7626 11.5325C21.7626 11.5325 21.7282 11.4661 21.6204 11.4246C21.6204 11.4246 21.5386 11.549 21.3619 11.6569L21.3576 11.6611Z" fill="#5A3719"/>
<path d="M20.9699 11.3453C20.9699 11.3453 20.8794 11.4116 20.9354 11.4822C20.9957 11.5568 21 11.4697 21.0732 11.4656C21.1465 11.4572 22.0555 11.308 21.2327 11.0715C21.2327 11.0715 21.2671 11.0383 21.405 11.03C21.5515 11.0133 22.0685 10.8806 21.8272 10.7023C21.5859 10.528 21.3834 10.7644 21.5859 10.5529C21.7496 10.3828 21.6204 10.2998 21.6204 10.2998C21.6204 10.2998 21.1422 10.6068 21.0345 10.6649C20.9311 10.7188 20.776 10.8308 20.957 10.8848C21.1379 10.9387 21.2585 10.6981 21.2758 10.752C21.293 10.8059 20.9139 11.0092 20.9699 11.1005C21.0216 11.1959 21.013 11.2748 21.1034 11.254C21.1982 11.2374 21.4481 11.2996 21.2456 11.2954C21.0388 11.2872 20.9699 11.3453 20.9699 11.3453V11.3453Z" fill="#5A3719"/>
<path d="M21.2973 10.9055C21.2973 10.9055 21.2112 10.9636 21.3232 10.9346C21.4353 10.9055 21.6549 10.8599 21.6161 10.806C21.573 10.7479 21.4265 10.8143 21.2973 10.9055Z" fill="black"/>
<path d="M22.7577 9.99302C22.7577 9.99302 23.18 9.98056 23.3523 10.0967C23.5247 10.2088 23.6108 10.2835 23.6625 10.3C23.6625 10.3 23.6539 10.4535 23.3825 10.3415C23.3825 10.3415 23.3997 10.4162 23.3695 10.4909C23.3695 10.4909 23.2705 10.4245 23.1541 10.3996C23.1541 10.3996 23.1326 10.4577 23.0981 10.4909C23.0981 10.4909 22.9775 10.3747 22.8396 10.3374C22.8396 10.3374 22.8138 10.3954 22.7922 10.4203C22.7922 10.4203 22.6458 10.3374 22.5338 10.3374C22.5338 10.3374 22.5553 10.4245 22.5338 10.4618C22.5338 10.4618 22.2322 10.2253 21.9565 10.2544C21.9565 10.2544 22.0857 10.4411 22.1719 10.5324C22.1719 10.5324 21.6204 10.4909 21.7152 10.2046C21.8014 9.91838 21.7066 9.9889 22.0685 9.99302H22.7578H22.7577Z" fill="#7B3C20"/>
<path d="M20.1686 10.7852C20.1686 10.7852 20.1039 10.835 20.1686 10.8765C20.2289 10.918 20.4486 10.7686 20.4787 10.7479C20.5089 10.723 20.5864 10.7271 20.4787 10.8059C20.371 10.8848 20.2633 10.9719 20.1901 11.0548C20.1901 11.0548 20.5563 10.9595 20.7933 10.7603C21.0345 10.5612 20.7846 10.6898 21.1896 10.5031C21.5946 10.3123 21.81 10.0094 21.5903 10.0426C21.3748 10.0758 21.1767 10.3164 21.0043 10.4077C20.8363 10.4989 20.7415 10.5114 20.7674 10.4575C20.7933 10.4035 20.9182 10.4243 21.1551 10.2459C21.3878 10.0633 21.3361 10.0799 21.3361 10.0135C21.3361 9.9513 21.2499 9.79362 21.5989 9.61531C21.9521 9.43688 23.0422 8.82702 23.1369 8.61133C23.1369 8.61133 22.8181 8.64448 22.3959 8.94321C22.1645 9.12965 21.9115 9.28974 21.642 9.42031C21.5256 9.4618 21.5386 9.43277 21.4653 9.51987C21.3878 9.60697 20.9742 9.9928 20.8967 10.0509C20.8234 10.1048 20.7975 10.1421 20.7933 10.2583C20.7933 10.3123 20.3194 10.6566 20.1728 10.7852H20.1686Z" fill="#5A3719"/>
<path d="M21.6118 9.98489C21.6118 9.98489 21.5256 10.0181 21.4481 9.98489C21.3705 9.9434 21.3964 9.78577 21.586 9.68621C21.8081 9.56878 22.0458 9.48085 22.2925 9.4248C22.2925 9.4248 22.2666 9.63226 21.7238 9.81063C21.7238 9.81063 21.7583 9.91853 21.6118 9.98489Z" fill="#5A3719"/>
<path d="M21.8014 9.8477C21.8014 9.8477 21.8186 9.89748 21.8014 9.94309C21.8014 9.94309 22.8095 10.0385 23.3308 9.4453C23.3308 9.4453 22.6156 9.51165 22.3313 9.67757C22.3313 9.67757 22.5122 9.46188 23.0464 9.28345C23.5806 9.10508 23.8003 8.88105 23.8478 8.76074C23.8478 8.76074 23.1671 8.98889 22.8483 8.98889C22.8483 8.98889 22.7836 8.98889 22.719 9.01798C22.6587 9.0553 22.2279 9.35398 22.1159 9.40793C22.1159 9.40793 22.3571 9.38718 22.4433 9.31248C22.4433 9.31248 22.271 9.74809 21.8014 9.84765V9.8477Z" fill="#AA5323"/>
<path d="M19.8713 10.3994C19.8713 10.3994 19.7421 10.4906 19.7938 10.5321C19.8497 10.5777 19.9402 10.5861 20.1384 10.4284C20.3366 10.2666 20.8148 9.87249 20.5132 9.85586C20.5132 9.85586 20.1255 9.83517 20.1384 10.0633C20.1514 10.2915 19.8885 10.3869 19.8713 10.3994V10.3994ZM18.9752 10.2667C18.9752 10.2667 19.2337 10.4118 19.1346 10.528C19.1346 10.528 19.9187 9.88906 19.6947 9.74801C19.4792 9.61113 19.3069 9.87249 19.3586 9.8974C19.4104 9.92644 19.5266 9.87666 19.4879 9.92644C19.4448 9.97622 19.0269 10.2459 18.9752 10.2666V10.2667ZM18.7727 10.0592C18.7727 10.0592 18.945 10.109 18.9537 10.1836C18.958 10.25 19.4706 9.83517 19.3371 9.65674C19.2724 9.57793 18.9924 9.54472 18.9752 9.7024C18.9623 9.86003 19.2337 9.68583 19.1389 9.79779C19.0183 9.94718 18.8115 10.0343 18.7727 10.0592V10.0592ZM20.608 9.71069C20.608 9.71069 20.5003 9.78539 20.5994 9.83517C20.6985 9.87666 20.7588 9.80613 20.8105 9.76464C20.8579 9.72315 21.1034 9.5489 21.1551 9.44105C21.2154 9.32903 21.2973 9.29588 21.3878 9.24188C21.474 9.18381 22.0986 8.88514 22.4821 8.5532C22.8655 8.22132 22.7061 8.30848 23.1024 8.0969C23.4988 7.88533 23.7616 7.69033 23.8434 7.45801C23.8434 7.45801 23.6582 7.51607 23.4988 7.6198C23.3351 7.71936 22.9689 7.93922 22.8956 7.97243C22.8224 8.00146 22.7233 8.00563 22.6673 8.05953C22.6113 8.11765 22.6156 8.184 22.426 8.33334C22.2322 8.48685 21.2456 9.15895 21.125 9.25434C21.0043 9.34978 20.608 9.71069 20.608 9.71069H20.608Z" fill="#5A3719"/>
<path d="M19.8153 9.93474C19.8153 9.93474 19.923 9.87667 20.1255 9.89324C20.328 9.90153 21.1293 9.15479 21.3619 9.00545C21.5946 8.85194 22.3227 8.34998 22.4174 8.25871C22.5165 8.16327 22.5338 8.06371 22.6199 8.00976C22.7061 7.95587 22.7836 7.96415 22.9775 7.85625C23.1757 7.74841 24.1192 7.20495 24.0631 6.88965C24.0631 6.88965 22.6587 7.69863 22.3356 7.96415C21.8868 8.30149 21.424 8.62119 20.9484 8.92247C20.7889 9.02203 20.664 9.18799 20.3926 9.39957C20.1255 9.60703 19.8584 9.7854 19.8153 9.93474V9.93474Z" fill="#AA5323"/>
<path d="M19.518 9.64496C19.518 9.64496 19.7765 9.62005 19.8153 9.74452C19.8153 9.74452 20.3711 9.37527 20.4959 9.22593C20.6253 9.07242 20.4529 9.15957 20.7717 8.9604C21.2886 8.62837 21.7957 8.28253 22.2925 7.92328C22.4433 7.7988 22.7319 7.62872 22.9603 7.47938C23.1886 7.32999 24.0804 6.90684 23.9813 6.5625L23.18 7.07692C23.0292 7.17236 22.9645 7.11841 22.8181 7.23043C22.6674 7.34662 22.3356 7.5706 22.2796 7.64535C22.2193 7.7117 21.7152 8.08507 21.4696 8.2427C21.2241 8.40032 20.677 8.70734 20.4099 8.93137C20.1427 9.15129 19.6344 9.56198 19.518 9.64496V9.64496Z" fill="#AA5323"/>
<path d="M18.7124 9.57348C18.7124 9.57348 18.8416 9.57348 18.8847 9.62332C18.8847 9.62332 19.126 9.41586 19.3845 9.62332C19.3845 9.62332 20.3323 9.00099 20.427 8.84749C20.5218 8.69403 20.6769 8.68986 21.0431 8.43262C21.4137 8.17127 21.6462 8.05925 21.8918 7.88088C22.1374 7.69417 22.3442 7.48677 22.5208 7.37892C22.6932 7.2669 23.1413 6.98475 23.068 6.74414C23.068 6.74414 22.7061 6.93914 22.4734 7.18804C22.2365 7.43699 22.258 7.22541 22.0168 7.43287C21.7388 7.67954 21.4306 7.89266 21.0991 8.06754C20.7933 8.21276 20.9785 8.19619 20.7545 8.33307C20.5347 8.47 20.552 8.44925 20.4701 8.47C20.384 8.48657 20.2633 8.54464 20.1815 8.63591C20.0953 8.72718 19.8799 8.85166 19.643 8.98442C19.313 9.15231 19 9.34954 18.7081 9.57354L18.7124 9.57348Z" fill="#AA5323"/>
<path d="M18.9968 9.10134C18.9968 9.10134 18.945 8.99761 19.0355 8.92292C19.126 8.85239 19.294 8.66156 19.3199 8.54126C19.3457 8.41679 19.3241 8.4417 19.5869 8.3338C20.3485 8.02594 21.07 7.6333 21.7368 7.16391C21.8401 7.0851 22.0986 6.91496 22.202 6.83203C22.202 6.83203 22.2494 6.96474 22.1374 7.06018C21.7507 7.35113 21.3464 7.61989 20.9268 7.86504C20.8019 7.92723 20.4959 8.07662 20.3883 8.16372C20.2806 8.25082 20.2978 8.27574 19.8153 8.50389C19.3328 8.72792 19.3113 8.75284 19.3241 8.76941C19.3414 8.79016 19.5568 8.69889 19.6602 8.64082C19.7636 8.58275 20.1556 8.40844 20.2763 8.31723C20.3926 8.22596 20.5907 8.08485 20.6769 8.03924C20.7631 7.99775 21.474 7.58289 21.6807 7.43772C21.8832 7.29256 21.9393 7.24689 21.9823 7.27176C22.0254 7.29667 22.0986 7.29667 22.0082 7.37966C21.9177 7.46264 21.629 7.71154 21.517 7.77789C21.405 7.84841 21.0604 8.04759 20.9656 8.09319C20.8708 8.14303 20.832 8.23007 20.776 8.26745C20.7243 8.30894 20.5649 8.41261 20.3753 8.45411C20.1858 8.4956 20.1513 8.63665 20.0264 8.71551C19.8972 8.79016 19.0096 9.2548 18.9838 9.2756C18.9838 9.2756 19.0355 9.22159 18.9968 9.10129V9.10134Z" fill="#AA5323"/>
<path d="M22.0771 7.17231C22.0771 7.17231 22.0297 7.21381 22.0555 7.23867C22.09 7.27187 22.2149 7.35486 22.3701 7.20552C22.591 7.00746 22.8272 6.82577 23.0766 6.66201C23.2058 6.5832 23.2747 6.51267 23.2705 6.40894C23.2705 6.40894 22.6285 6.73671 22.0771 7.17231H22.0771ZM22.956 7.11836C22.956 7.11836 23.055 6.96074 23.2963 6.8114C23.5376 6.66201 23.8995 6.44632 23.9425 6.39648C23.9425 6.39648 24.0287 6.48781 23.8434 6.60394C23.6397 6.72716 23.4386 6.85441 23.2403 6.9856C23.1972 7.0188 23.124 7.06858 22.956 7.11836V7.11836Z" fill="#AA5323"/>
<path d="M18.0662 8.83109C18.0662 8.83109 17.7991 8.96797 17.8939 9.05513C17.9886 9.13811 18.1308 9.11319 18.1954 9.08833C18.2514 9.06758 18.3634 9.0385 18.3807 9.03438C18.3979 9.03021 18.6305 8.96385 18.6909 8.86013C18.7468 8.7564 18.9063 8.63609 19.0312 8.54899C19.1561 8.46601 19.2035 8.37474 19.1819 8.3125C19.1819 8.3125 18.1308 8.79377 18.0662 8.83109V8.83109ZM16.4722 10.0217C16.4722 10.0217 16.6617 9.91388 16.9202 9.98024C16.9202 9.98024 16.9072 9.92217 16.8685 9.88897C16.8685 9.88897 17.183 9.81015 17.2519 9.67739C17.3209 9.54051 17.3381 9.56955 17.3941 9.53223C17.4587 9.49073 17.8809 9.16297 17.8335 9.09245C17.7818 9.02192 17.7732 8.92653 17.7387 8.89333C17.7387 8.89333 17.6526 9.00946 17.2347 9.20035C16.8254 9.39535 16.3644 9.54051 16.0284 9.97195C15.6967 10.4076 15.7311 10.6565 16.1404 10.7685C16.1404 10.7685 16.4247 10.5943 17.127 10.6523C17.8249 10.7146 18.0619 10.9676 18.1093 11.0132C18.1523 11.0589 18.2945 11.2248 18.1566 11.507C18.1566 11.507 18.2988 11.565 18.3074 11.4365C18.3204 11.3078 18.329 11.3368 18.3592 11.3535C18.3936 11.3742 18.4324 11.3784 18.4151 11.2788C18.4022 11.1792 18.3548 10.9594 18.2859 10.8847C18.2256 10.8058 18.2988 10.8432 18.3376 10.8556C18.3807 10.8722 18.5272 10.9883 18.441 10.7726C18.3548 10.5652 18.329 10.6689 18.3246 10.6773C18.3246 10.6897 18.3074 10.7436 18.1136 10.6026C17.9653 10.4935 17.7973 10.4119 17.6181 10.3619C17.4889 10.3287 17.5793 10.3287 17.6569 10.3038C17.7345 10.2748 17.8336 10.2624 17.8723 10.1794C17.8723 10.1794 17.7947 10.196 17.6569 10.1462C17.5475 10.1158 17.4323 10.1101 17.3202 10.1295C17.2081 10.149 17.1022 10.193 17.0107 10.2582C17.0107 10.2582 17.0796 10.0093 16.8728 10.0217C16.666 10.0342 16.5238 10.0301 16.3041 10.196C16.3041 10.196 16.2912 9.94292 16.498 9.81015C16.7048 9.68156 16.6789 9.76038 16.7909 9.72717C16.9072 9.69402 16.9202 9.582 16.8685 9.54463C16.8685 9.54463 17.1399 9.59029 17.5923 9.22938C17.5923 9.22938 17.3467 9.53634 17.0537 9.59858C17.0537 9.59858 17.0064 9.76455 16.735 9.7977C16.4678 9.83507 16.4764 9.98441 16.4764 10.0217H16.4722Z" fill="#7B3C20"/>
<path d="M15.701 11.5198C15.701 11.5198 15.8302 10.7564 16.5755 10.7025C17.2217 10.6527 17.4286 10.7315 17.5578 10.773C17.687 10.8145 18.0059 10.9016 17.8809 11.0012C17.7603 11.0966 17.687 11.08 17.687 11.08C17.687 11.08 17.8292 10.9265 17.7 10.9016C17.5707 10.8767 17.5622 10.9514 17.5449 11.0136C17.5233 11.08 17.519 11.1547 17.4544 11.2044C17.4544 11.2044 17.3898 11.1339 17.295 11.1962C17.2002 11.2584 17.282 11.2626 17.3208 11.2501C17.3553 11.2418 17.407 11.2211 17.3941 11.2791C17.3855 11.3331 17.3338 11.4285 17.1786 11.5073C17.0279 11.582 17.0322 11.5779 16.8513 11.6069C16.666 11.6359 16.498 11.7065 16.2653 11.8973C16.0284 12.0923 15.7743 12.0259 15.7225 11.8143C15.6794 11.6277 15.701 11.5239 15.701 11.5239V11.5198Z" fill="#5A3719"/>
<path d="M16.5497 11.4953C16.5497 11.4953 16.6186 11.346 16.4937 11.2754C16.4937 11.2754 16.106 11.3418 15.9853 11.2298C15.9853 11.2298 16.4118 11.2048 16.6746 11.1053C16.9331 11.0099 16.8599 10.9394 16.7694 10.9227C16.6789 10.9062 16.5109 10.9477 16.4937 11.0265C16.4937 11.0265 16.4419 10.9435 16.5066 10.8854C16.5755 10.8274 16.6789 10.8191 16.7694 10.8439C16.8642 10.8689 16.9461 10.9103 17.2519 10.7568C17.2519 10.7568 17.4286 10.7983 17.4372 10.9103C17.4372 11.0265 17.4242 11.0721 17.407 11.0887C17.3941 11.1095 17.3725 11.1427 17.3338 11.1385C17.2993 11.1343 17.2476 11.1261 17.2045 11.2049C17.1614 11.2878 17.1313 11.3542 17.0538 11.4081C17.0538 11.4081 17.1399 11.1592 16.9159 11.1012C16.9159 11.1012 16.7306 11.2049 16.5885 11.2132C16.5885 11.2132 16.7694 11.375 16.5454 11.4953H16.5497Z" fill="black"/>
<path d="M16.9589 11.0386C16.9589 11.0386 16.8728 10.9515 16.9848 10.9391C17.0968 10.9308 17.2433 11.0096 17.2175 11.0801C17.1873 11.1465 17.0538 11.1424 16.9589 11.0386V11.0386Z" fill="#5A3719"/>
<path d="M23.3351 9.83527C23.3351 9.83527 23.1283 9.88916 23.3222 10.0136C23.5117 10.1381 23.6065 10.2418 23.7444 10.275C23.8865 10.3124 24.0287 10.358 24.0287 10.4949C24.0287 10.6276 23.9986 10.6816 23.921 10.7728C23.8434 10.8683 23.9641 10.9056 24.0631 10.8558C24.1666 10.8019 24.2484 10.7728 24.3174 10.7355C24.382 10.6981 24.4897 10.7023 24.3949 10.7521C24.2915 10.8019 24.1881 10.8351 24.3173 10.8351C24.4466 10.8392 25.2307 10.8558 25.3944 10.8019C25.5581 10.7521 25.7735 10.7355 25.7908 10.5322C25.7908 10.5322 25.7994 10.441 25.8597 10.3995C25.92 10.3621 25.9631 10.275 25.8726 10.3331C25.7864 10.3953 25.7175 10.4244 25.7003 10.4078C25.683 10.387 25.6744 10.3746 25.7433 10.3455C25.808 10.3165 25.8424 10.3455 25.9027 10.2626C25.9631 10.1754 25.9588 10.1879 25.9243 10.1547C25.8941 10.1215 25.8252 10.1008 25.8597 10.0593C25.8941 10.0178 25.9243 9.89333 25.7821 9.96386C25.6399 10.0386 25.3556 10.2252 25.2221 10.2542C25.0928 10.2833 24.9937 10.3207 24.8171 10.3539C24.6448 10.3912 24.5328 10.4285 24.3432 10.5281C24.1537 10.6276 24.1709 10.47 24.201 10.4492C24.201 10.4492 24.2743 10.5737 24.4638 10.4119C24.6534 10.2542 24.5931 10.4036 25.0627 10.2542C25.528 10.1091 25.4159 10.0842 25.5969 9.99289C25.7821 9.90162 25.9544 9.89751 25.8252 9.77303C25.696 9.64856 25.683 9.64032 25.5193 9.77303C25.2564 9.96164 24.9481 10.083 24.6233 10.1257C24.6233 10.1257 25.6788 9.69005 25.571 9.62786C25.4792 9.56891 25.3791 9.52281 25.2738 9.49093C25.2005 9.4743 25.179 9.45773 25.011 9.53242C24.8387 9.60295 24.8128 9.61952 24.7654 9.62369C24.7137 9.62781 24.5715 9.65684 24.369 9.7564C24.1709 9.85601 24.0631 9.8975 23.9253 9.97632C23.9253 9.97632 24.0201 9.79378 24.438 9.67347C24.8515 9.55317 25.0627 9.44527 25.0196 9.42452C24.9766 9.40378 24.8688 9.38303 24.7912 9.39961C24.7137 9.41206 24.7352 9.39137 24.4811 9.49093C24.2268 9.58632 24.3346 9.56557 24.1321 9.60706C23.9253 9.64856 23.8434 9.69005 23.7444 9.73154C23.7444 9.73154 23.7875 9.68176 23.921 9.63198C23.9942 9.60706 23.8434 9.58215 24.0416 9.57391H24.0976C24.2678 9.53868 24.4317 9.47999 24.5845 9.39966C24.5414 9.39137 24.2958 9.36645 24.0459 9.48264C23.7961 9.59049 23.9081 9.55317 23.8219 9.56557C23.7358 9.58632 23.5462 9.69833 23.4859 9.74811C23.4212 9.79795 23.3351 9.8311 23.3351 9.8311V9.83527Z" fill="white"/>
<path d="M17.1528 10.9308C17.1528 10.9308 17.2519 10.9598 17.2778 11.0262C17.3036 11.0926 17.3639 10.9971 17.3639 10.9681C17.3596 10.9391 17.2993 10.8021 17.1916 10.8686C17.0839 10.9266 17.1399 10.9266 17.1528 10.9308V10.9308Z" fill="#5A3719"/>
<path d="M16.8814 12.2412C16.8814 12.2412 17.0882 12.1457 17.2692 12.1582C17.2692 12.1582 17.1959 11.9217 17.3209 11.9591C17.4415 12.0005 17.407 11.984 17.4328 11.984C17.4328 11.984 17.4415 11.8263 17.407 11.7641C17.407 11.7641 17.5363 11.7931 17.6612 11.7931C17.6612 11.7931 17.5406 11.5691 17.6742 11.4114C17.6742 11.4114 17.7473 11.5608 17.9111 11.5981V11.4695C17.9111 11.4695 18.0059 11.457 18.0834 11.4944C18.161 11.5359 18.2212 11.0837 17.9973 10.9883C17.9973 10.9883 17.9412 11.0713 17.7301 11.1128C17.519 11.1542 17.5233 11.1957 17.4372 11.3492C17.351 11.5027 17.2735 11.5027 17.0925 11.6147C16.9202 11.7226 16.8125 11.9466 16.8039 11.9673C16.8039 11.9673 16.8944 12.0752 16.8814 12.2412V12.2412Z" fill="#7B3C20"/>
<path d="M23.9253 9.63218C23.9986 9.61972 23.8434 9.58234 24.0416 9.57411H24.0976C24.2678 9.53887 24.4317 9.48018 24.5845 9.39986C24.5414 9.39157 24.2958 9.36665 24.0459 9.47867C23.7961 9.59068 23.9081 9.55336 23.8219 9.56994C23.7358 9.58651 23.5462 9.69853 23.4859 9.74831C23.4212 9.79814 23.3351 9.83129 23.3351 9.83129C23.3351 9.83129 23.1283 9.88936 23.3222 10.0138C23.5117 10.1383 23.6065 10.242 23.7444 10.2752C23.8865 10.3126 24.0287 10.3582 24.0287 10.4951C24.0244 10.6278 23.9986 10.6818 23.921 10.773C23.8434 10.8685 23.9641 10.9058 24.0631 10.856C24.1666 10.8021 24.2484 10.773 24.3174 10.7357C24.382 10.6983 24.4897 10.7025 24.3906 10.7523C24.2915 10.8021 24.1881 10.8353 24.3173 10.8353C24.4466 10.8394 25.2307 10.856 25.3944 10.8021C25.5581 10.7523 25.7735 10.7357 25.7908 10.5324C25.7908 10.5324 25.7994 10.4412 25.8597 10.3997C25.92 10.3623 25.9631 10.2752 25.8726 10.3333C25.7864 10.3955 25.7132 10.4246 25.7003 10.408C25.683 10.3872 25.6744 10.3748 25.7433 10.3457C25.808 10.3167 25.8424 10.3457 25.9027 10.2628C25.9631 10.1756 25.9588 10.1881 25.9243 10.1549C25.9071 10.1383 25.8812 10.1259 25.8683 10.1093C25.8683 10.1093 25.8209 10.0678 25.7649 10.101C25.7089 10.1383 25.4677 10.2337 25.3728 10.2462C25.2781 10.2544 25.1747 10.296 25.0024 10.3789C24.83 10.4618 24.5414 10.6278 24.494 10.4702C24.494 10.4702 24.3691 10.5117 24.3432 10.5283C24.1493 10.6237 24.1666 10.4868 24.201 10.4494C24.201 10.4494 24.0976 10.5615 24.102 10.4619C24.1062 10.3623 24.1709 10.3789 24.2872 10.3457C24.3992 10.3126 24.5759 10.242 24.5026 10.1839C24.4294 10.1259 24.3518 10.242 24.27 10.2794C24.1881 10.3167 24.0244 10.3457 23.9986 10.2337C23.9727 10.1176 23.9727 10.0387 23.753 10.0262C23.5333 10.0138 23.5375 9.88107 23.5979 9.82301C23.6625 9.76494 23.7142 9.6695 23.921 9.63218H23.9253Z" fill="#999999"/>
<path d="M24.6275 10.6652C24.6275 10.6652 24.9722 10.5159 25.2867 10.4412C25.6055 10.3707 25.3556 10.4536 25.3039 10.4661C25.2479 10.4827 24.7568 10.6403 24.6404 10.6942C24.5242 10.744 24.5457 10.7025 24.6275 10.6693V10.6652ZM24.7051 10.7357C24.7051 10.7357 25.0928 10.6113 25.166 10.661C25.2393 10.715 25.179 10.6901 25.0928 10.7025C25.0067 10.7108 24.774 10.7482 24.7137 10.7482C24.6491 10.7482 24.7051 10.7357 24.7051 10.7357H24.7051ZM25.3298 10.603C25.3298 10.603 25.403 10.5905 25.4116 10.6195C25.416 10.6445 25.3771 10.6486 25.3341 10.6445C25.2953 10.6362 25.2608 10.6154 25.3298 10.603V10.603Z" fill="black"/>
<path d="M15.0849 13.8598C15.0849 13.8598 15.072 13.5279 15.2443 13.362C15.4167 13.1961 16.2481 12.3621 16.3774 12.1298C16.3774 12.1298 16.4851 12.2003 16.4894 12.3331C16.4894 12.3331 16.6316 12.1007 16.7392 12.0137C16.7392 12.0137 16.8383 12.1091 16.8254 12.304C16.8254 12.304 17.0236 12.2003 17.3338 12.2003C17.3338 12.2003 17.2175 12.3289 17.2131 12.4078C17.2131 12.4078 17.644 12.358 17.8723 12.3953C17.8723 12.3953 17.2778 12.7148 17.4415 12.7438C17.6138 12.7729 17.7862 12.7438 17.7862 12.7438C17.7862 12.7438 17.5966 12.9263 17.295 12.9637C17.295 12.9637 17.6784 12.9595 17.756 13.0425C17.756 13.0425 17.3812 13.0965 17.0839 13.3163C17.0839 13.3163 17.0537 13.3039 17.0537 13.2209C17.0537 13.2209 17.0408 13.2956 16.9547 13.3661C16.8685 13.4325 16.666 13.5819 16.5885 13.6565C16.5109 13.727 16.373 13.8764 16.218 13.8681C16.218 13.8681 16.2524 13.7561 16.1404 13.7187C16.082 13.6998 16.0193 13.6976 15.9596 13.7124C15.9 13.7271 15.8461 13.7581 15.8044 13.8017C15.8044 13.8017 15.4037 13.81 15.2745 13.8266C15.2745 13.8266 15.3649 13.6855 15.4468 13.6897C15.5329 13.6897 15.869 13.7395 15.8991 13.5154C15.9293 13.2955 15.6837 13.3536 15.7743 13.2251C15.869 13.0923 15.8474 13.1006 15.8518 13.084C15.8518 13.084 15.7742 13.1255 15.7311 13.2416C15.688 13.3578 15.6536 13.4491 15.4942 13.5652C15.3832 13.6336 15.2903 13.726 15.2228 13.8349C15.2228 13.8349 15.1495 13.8432 15.0849 13.8598V13.8598Z" fill="white"/>
<path d="M15.4726 13.6607C15.4726 13.6607 15.4856 13.6193 15.6019 13.5985C15.7225 13.5778 15.7311 13.5238 15.7139 13.4989C15.6967 13.4782 15.6277 13.4782 15.7398 13.3496C15.7398 13.3496 15.7828 13.3621 15.8087 13.391C15.8388 13.4243 15.9681 13.6898 15.4726 13.6607Z" fill="white"/>
<path d="M15.1926 13.4283C15.1969 13.6482 15.4941 13.5652 15.4941 13.5652C15.4146 13.6202 15.3422 13.6843 15.2788 13.7561C15.3003 13.6482 15.1107 13.6233 15.1107 13.6233C15.128 13.5569 15.1538 13.4864 15.1926 13.4283ZM16.2826 12.2626C16.3257 12.2086 16.3601 12.163 16.3774 12.1299C16.3774 12.1299 16.4851 12.2003 16.4894 12.3331C16.4894 12.3331 16.6316 12.1007 16.7392 12.0137C16.7392 12.0137 16.8383 12.1091 16.8254 12.304C16.8254 12.304 17.0236 12.2003 17.3338 12.2003C17.3338 12.2003 17.2175 12.3289 17.2131 12.4078C17.2131 12.4078 17.644 12.358 17.8723 12.3953C17.8723 12.3953 17.2778 12.7148 17.4415 12.7438C17.6138 12.7729 17.7862 12.7438 17.7862 12.7438C17.7862 12.7438 17.5966 12.9263 17.295 12.9637C17.295 12.9637 17.6784 12.9595 17.756 13.0425C17.756 13.0425 17.644 13.0591 17.4975 13.1089C17.4975 13.1089 17.3898 13.0093 17.0667 13.0259C17.0667 13.0259 17.3165 12.889 17.5147 12.8434C17.5147 12.8434 17.4286 12.7355 17.2907 12.8351C17.2907 12.8351 17.0193 12.6567 17.2476 12.5032C17.2476 12.5032 17.0882 12.4741 16.9848 12.5447C16.9848 12.5447 16.9848 12.4202 17.1011 12.3663C17.1011 12.3663 16.7996 12.3165 16.7263 12.5322C16.7263 12.5322 16.666 12.4451 16.6961 12.3456C16.6961 12.3456 16.5109 12.4451 16.4291 12.5612C16.4291 12.5612 16.3989 12.3414 16.2826 12.2626M15.6967 13.6482C15.6449 13.6607 15.5674 13.6648 15.4726 13.6607C15.4726 13.6607 15.4813 13.6316 15.5459 13.6108C15.5459 13.6108 15.5631 13.6482 15.6966 13.6482" fill="#999999"/>
<path d="M16.2481 12.8224C16.2481 12.8224 16.386 12.9261 16.4333 12.9883C16.4333 12.9883 16.5626 12.9053 16.6057 12.8348C16.6057 12.8348 16.7048 12.8971 16.735 12.9883C16.735 12.9883 16.8082 12.9468 16.8211 12.8805C16.8211 12.8805 16.9934 12.9137 17.0537 12.9676C17.0537 12.9676 17.0796 12.8099 17.0537 12.7062C17.0537 12.7062 17.1744 12.7187 17.2476 12.7477C17.2476 12.7477 17.1787 12.6399 17.5276 12.5029C17.5276 12.5029 17.2648 12.561 17.1614 12.6689C17.1614 12.6689 17.0494 12.6772 17.002 12.644V12.8846C17.002 12.8846 16.9331 12.8556 16.8039 12.8265C16.8039 12.8265 16.7694 12.8805 16.7479 12.8929C16.7479 12.8929 16.6617 12.8265 16.6272 12.7477C16.6272 12.7477 16.498 12.8597 16.4549 12.9053C16.4549 12.9053 16.33 12.8224 16.2481 12.8224V12.8224Z" fill="black"/>
<path d="M15.4554 14.4779C15.4554 14.4779 15.5114 14.5028 15.6407 14.4032C15.7699 14.3036 16.1275 14.0838 16.1576 13.9054C16.1964 13.727 16.0457 13.7187 15.9293 13.7685C15.8087 13.8224 15.8604 13.9178 15.8647 13.951C15.869 13.9842 15.8733 14.1086 15.6794 14.2787L15.4554 14.4779H15.4554Z" fill="#FFC221"/>
<path d="M15.4166 14.5313C15.4166 14.5313 15.128 14.4151 15.3865 14.2906C15.6449 14.1661 15.7613 14.133 15.7915 14.0251C15.8216 13.9214 15.8044 13.9422 15.7053 13.9837C15.6105 14.0251 15.2443 14.1911 15.1883 14.0375C15.1883 14.0375 15.3391 14.0957 15.5286 14.0085C15.7182 13.9172 15.8733 13.8924 15.7527 13.8551C15.6321 13.8177 15.1969 13.8633 15.128 13.8841C15.0548 13.9048 15.072 13.9007 15.059 13.967C15.0461 14.0375 14.9686 14.1828 14.9384 14.2243C14.9083 14.2658 14.835 14.4442 14.9686 14.5229C15.0978 14.6018 15.3132 14.5935 15.4166 14.5313Z" fill="#FFC221"/>
<path d="M15.3046 13.9257C15.3046 13.9257 15.2357 13.934 15.2486 13.9589C15.2615 13.9838 15.2787 13.9796 15.3046 13.9796C15.3262 13.9796 15.3649 13.9672 15.3693 13.9547C15.3735 13.9381 15.3262 13.9174 15.3046 13.9257H15.3046Z" fill="black"/>
<path d="M15.3951 14.4698C15.3951 14.4698 15.2615 14.4076 15.4166 14.3288C15.5717 14.2458 15.7354 14.167 15.7613 14.1338C15.7613 14.1338 15.6838 14.2333 15.3994 14.4698H15.3951Z" fill="white"/>
</g>
</g>
<defs>
<clipPath id="clip0_1_16009">
<rect width="36" height="26" fill="white" transform="translate(-10)"/>
</clipPath>
</defs>
</svg>
