<svg width="26" height="26" viewBox="0 0 26 26" fill="none" xmlns="http://www.w3.org/2000/svg">
<mask id="mask0_1_17054" style="mask-type:alpha" maskUnits="userSpaceOnUse" x="0" y="0" width="26" height="26">
<circle cx="13" cy="13" r="13" fill="#634848"/>
</mask>
<g mask="url(#mask0_1_17054)">
<g clip-path="url(#clip0_1_17054)">
<path d="M0 0V25.9997H39.3746V0H0Z" fill="#3399CC"/>
<path d="M0 17.333V18.7774H39.3746V17.333H0ZM0 20.2219V21.6663H39.3746V20.2219H0Z" fill="#FFFF00"/>
<path d="M7.80391 1.5166L7.9625 1.6791L7.79844 1.5166H7.80391ZM7.63984 1.8416L7.80391 2.0041L7.63984 1.8416ZM7.9625 1.8416L8.12656 2.0041L7.9625 1.8416Z" fill="#99CCCC"/>
<path d="M7.63984 2.00444L7.80391 2.16152L7.63984 1.99902M7.9625 1.99902L8.12656 2.16152L7.9625 1.99902Z" fill="#CCCCFF"/>
<path d="M7.47578 2.31836L7.63984 2.48086L7.47578 2.31836Z" fill="#66CCCC"/>
<path d="M7.80391 2.31836L7.9625 2.48086L7.79844 2.31836H7.80391Z" fill="#CC6666"/>
<path d="M8.12656 2.31836L8.28516 2.48086L8.12109 2.31836H8.12656Z" fill="#66CCCC"/>
<path d="M7.47578 2.48047L7.63984 2.64297L7.47578 2.48047ZM8.12656 2.48047L8.28516 2.64297L8.12109 2.48047H8.12656Z" fill="#CCCCFF"/>
<path d="M7.63984 2.6377L7.80391 2.8002L7.63984 2.6377ZM7.9625 2.6377L8.12656 2.8002L7.9625 2.6377Z" fill="#FFCCCC"/>
<path d="M7.31719 2.80078L7.48125 2.96328L7.31719 2.80078Z" fill="#66CCCC"/>
<path d="M7.77656 1.8418L6.64453 6.09388L2.34063 7.25846L6.62813 8.36888L7.77656 12.6155L8.91953 8.36888L13.207 7.23138L8.91953 6.0993L7.77109 1.85263L7.77656 1.8418Z" fill="#CC0000" stroke="white" stroke-width="0.4625"/>
<path d="M8.28516 2.80078L8.44922 2.96328L8.28516 2.80078Z" fill="#66CCCC"/>
<path d="M7.31719 2.95703L7.48125 3.11953L7.31719 2.95703ZM8.28516 2.95703L8.44922 3.11953L8.28516 2.95703Z" fill="#99CCFF"/>
<path d="M7.47578 3.12012L7.63984 3.28262L7.47578 3.12012ZM8.12656 3.12012L8.28516 3.28262L8.12109 3.12012H8.12656Z" fill="#FFCCCC"/>
<path d="M7.15313 3.27734L7.31719 3.43984L7.15313 3.27734Z" fill="#6699CC"/>
<path d="M7.53047 3.38574L7.58516 3.49408L7.53047 3.38574ZM8.17578 3.38574L8.23047 3.49408L8.17578 3.38574Z" fill="#CC3333"/>
<path d="M8.44922 3.27734L8.61328 3.43984L8.44922 3.27734Z" fill="#6699CC"/>
<path d="M7.15313 3.43945L7.31719 3.60195L7.15313 3.43945ZM8.44922 3.43945L8.61328 3.60195L8.44922 3.43945Z" fill="#99CCFF"/>
<path d="M7.31719 3.59668L7.48125 3.75918L7.31719 3.59668ZM8.28516 3.59668L8.44922 3.75918L8.28516 3.59668Z" fill="#FFCCCC"/>
<path d="M6.99453 3.75879L7.15859 3.92129L6.99453 3.75879ZM8.60781 3.75879L8.77187 3.92129L8.60781 3.75879Z" fill="#6699CC"/>
<path d="M6.99453 3.91602L7.15859 4.07852L6.99453 3.91602ZM8.60781 3.91602L8.77187 4.07852L8.60781 3.91602Z" fill="#99CCCC"/>
<path d="M6.99453 4.0791L7.15859 4.2416L6.99453 4.0791ZM8.60781 4.0791L8.77187 4.2416L8.60781 4.0791Z" fill="#CCFFFF"/>
<path d="M6.83594 4.24077L6.99453 4.39785L6.83047 4.23535L6.83594 4.24077Z" fill="#6699CC"/>
<path d="M7.15313 4.24077L7.31719 4.39785L7.15313 4.23535M8.44922 4.23535L8.61328 4.39785L8.44922 4.23535Z" fill="#FFCCCC"/>
<path d="M8.77187 4.24077L8.93594 4.39785L8.77187 4.23535V4.24077Z" fill="#6699CC"/>
<path d="M6.83594 4.39844L6.99453 4.56094L6.83047 4.39844H6.83594Z" fill="#99CCCC"/>
<path d="M7.20781 4.50684L7.2625 4.61517L7.20781 4.50684ZM8.49844 4.50684L8.55313 4.61517L8.49844 4.50684Z" fill="#CC3333"/>
<path d="M8.77187 4.39844L8.93594 4.56094L8.77187 4.39844Z" fill="#99CCCC"/>
<path d="M6.83594 4.56055L6.99453 4.72305L6.83047 4.56055M8.77187 4.56055L8.93594 4.72305L8.77187 4.56055Z" fill="#CCFFFF"/>
<path d="M6.99453 4.71777L7.15859 4.88027L6.99453 4.71777ZM8.60781 4.71777L8.77187 4.88027L8.60781 4.71777Z" fill="#FFCCCC"/>
<path d="M6.67188 4.875L6.83594 5.0375L6.67188 4.875Z" fill="#99CCCC"/>
<path d="M7.04922 4.9834L7.1039 5.09173L7.04922 4.9834ZM8.6625 4.9834L8.71719 5.09173L8.6625 4.9834Z" fill="#CC3333"/>
<path d="M8.93047 4.875L9.09453 5.0375L8.93047 4.875Z" fill="#99CCCC"/>
<path d="M6.67188 5.03711L6.83594 5.19961L6.67188 5.03711ZM8.93047 5.03711L9.09453 5.19961L8.93047 5.03711Z" fill="#CCCCFF"/>
<path d="M6.83594 5.2002L6.99453 5.3627L6.83047 5.2002M8.77187 5.2002L8.93594 5.3627L8.77187 5.2002Z" fill="#FFCCCC"/>
<path d="M6.50781 5.36284L6.67188 5.51992L6.50781 5.35742V5.36284Z" fill="#99CCCC"/>
<path d="M6.89062 5.46582L6.93984 5.57415L6.88515 5.46582M8.82109 5.46582L8.87578 5.57415L8.82109 5.46582Z" fill="#CC3333"/>
<path d="M9.09453 5.36284L9.25859 5.51992L9.09453 5.35742V5.36284Z" fill="#99CCCC"/>
<path d="M6.50781 5.51953L6.67188 5.68203L6.50781 5.51953ZM9.09453 5.51953L9.25859 5.68203L9.09453 5.51953Z" fill="#CCCCFF"/>
<path d="M6.67188 5.67676L6.83594 5.83926L6.67188 5.67676ZM8.93047 5.67676L9.09453 5.83926L8.93047 5.67676Z" fill="#FFCCCC"/>
<path d="M6.34375 5.83887L6.50781 6.00137L6.34375 5.83887Z" fill="#99CCCC"/>
<path d="M6.67188 5.83887L6.83594 6.00137L6.67188 5.83887ZM8.93047 5.83887L9.09453 6.00137L8.93047 5.83887Z" fill="#CC3333"/>
<path d="M9.25312 5.83887L9.41719 6.00137L9.25312 5.83887ZM5.8625 6.00137L6.02656 6.15845L5.8625 5.99595V6.00137Z" fill="#99CCCC"/>
<path d="M6.02656 5.99609L6.19062 6.15859L6.02656 5.99609ZM9.58125 5.99609L9.73984 6.15859L9.57578 5.99609H9.58125Z" fill="#CCCCFF"/>
<path d="M9.73437 5.99609L9.89844 6.15859L9.73437 5.99609ZM5.38125 6.15859L5.54531 6.32109L5.38125 6.15859Z" fill="#99CCCC"/>
<path d="M5.53984 6.15918L5.70391 6.32168L5.53984 6.15918Z" fill="#CCCCFF"/>
<path d="M6.18516 6.15918L6.34922 6.32168L6.18516 6.15918Z" fill="#FFCCCC"/>
<path d="M6.34375 6.15918L6.50781 6.32168L6.34375 6.15918ZM9.25312 6.15918L9.41719 6.32168L9.25312 6.15918Z" fill="#CC3333"/>
<path d="M9.41719 6.15918L9.58125 6.32168L9.41719 6.15918Z" fill="#FFCCCC"/>
<path d="M10.0625 6.15918L10.2266 6.32168L10.0625 6.15918Z" fill="#CCCCFF"/>
<path d="M10.2266 6.15918L10.3852 6.32168L10.2211 6.15918H10.2266Z" fill="#99CCCC"/>
<path d="M4.73594 6.31543L4.9 6.47793L4.73594 6.31543Z" fill="#6699CC"/>
<path d="M4.89453 6.31543L5.05859 6.47793L4.89453 6.31543Z" fill="#99CCCC"/>
<path d="M5.05859 6.31543L5.22266 6.47793L5.05859 6.31543Z" fill="#CCFFFF"/>
<path d="M5.70391 6.31543L5.86797 6.47793L5.70391 6.31543Z" fill="#FFCCCC"/>
<path d="M5.97187 6.37012L6.08125 6.42428L5.97187 6.37012ZM9.68516 6.37012L9.79453 6.42428L9.68516 6.37012Z" fill="#CC3333"/>
<path d="M9.89844 6.31543L10.0625 6.47793L9.89844 6.31543Z" fill="#FFCCCC"/>
<path d="M10.5438 6.31543L10.7078 6.47793L10.5438 6.31543Z" fill="#CCFFFF"/>
<path d="M10.7078 6.31543L10.8719 6.47793L10.7078 6.31543Z" fill="#99CCCC"/>
<path d="M10.8664 6.31543L11.0305 6.47793L10.8664 6.31543ZM4.24922 6.47793L4.41328 6.64043L4.24922 6.47793Z" fill="#6699CC"/>
<path d="M4.41328 6.47852L4.57734 6.64102L4.41328 6.47852Z" fill="#99CCCC"/>
<path d="M4.57188 6.47852L4.73594 6.64102L4.57188 6.47852Z" fill="#CCFFFF"/>
<path d="M5.21719 6.47852L5.38125 6.64102L5.21719 6.47852Z" fill="#FFCCCC"/>
<path d="M5.48516 6.53223L5.59453 6.58639L5.48516 6.53223ZM10.1664 6.53223L10.2758 6.58639L10.1664 6.53223Z" fill="#CC3333"/>
<path d="M10.3852 6.47852L10.5492 6.64102L10.3852 6.47852Z" fill="#FFCCCC"/>
<path d="M11.0305 6.47852L11.1945 6.64102L11.0305 6.47852Z" fill="#CCFFFF"/>
<path d="M11.1891 6.47852L11.3531 6.64102L11.1891 6.47852Z" fill="#99CCCC"/>
<path d="M11.3531 6.47852L11.5172 6.64102L11.3531 6.47852ZM3.7625 6.64102L3.92656 6.7981L3.7625 6.6356V6.64102Z" fill="#6699CC"/>
<path d="M3.92656 6.63574L4.09063 6.79824L3.92656 6.63574Z" fill="#99CCFF"/>
<path d="M4.73594 6.63574L4.9 6.79824L4.73594 6.63574Z" fill="#FFCCCC"/>
<path d="M5.00391 6.68945L5.11328 6.74362L5.00391 6.68945ZM10.6531 6.68945L10.7625 6.74362L10.6531 6.68945Z" fill="#CC3333"/>
<path d="M10.8664 6.63574L11.0305 6.79824L10.8664 6.63574Z" fill="#FFCCCC"/>
<path d="M11.6758 6.63574L11.8398 6.79824L11.6758 6.63574Z" fill="#99CCFF"/>
<path d="M11.8344 6.63574L11.9984 6.79824L11.8344 6.63574Z" fill="#6699CC"/>
<path d="M3.28125 6.79785L3.44531 6.96035L3.28125 6.79785Z" fill="#66CCCC"/>
<path d="M3.44531 6.79785L3.6039 6.96035L3.43984 6.79785H3.44531Z" fill="#99CCFF"/>
<path d="M4.09062 6.79785L4.24922 6.96035L4.08516 6.79785H4.09062ZM11.5172 6.79785L11.6758 6.96035L11.5117 6.79785H11.5172Z" fill="#FFCCCC"/>
<path d="M12.157 6.79785L12.3211 6.96035L12.157 6.79785Z" fill="#99CCFF"/>
<path d="M12.3211 6.79785L12.4852 6.96035L12.3211 6.79785ZM2.79453 6.96035L2.9586 7.11743L2.79453 6.95493V6.96035Z" fill="#66CCCC"/>
<path d="M2.95312 6.95508L3.11719 7.11758L2.95312 6.95508Z" fill="#CCCCFF"/>
<path d="M3.6039 6.95508L3.76797 7.11758L3.6039 6.95508Z" fill="#FFCCCC"/>
<path d="M3.87188 7.00879L3.98125 7.06296L3.87188 7.00879ZM11.7852 7.00879L11.8945 7.06296L11.7852 7.00879Z" fill="#CC3333"/>
<path d="M11.9984 6.95508L12.1625 7.11758L11.9984 6.95508Z" fill="#FFCCCC"/>
<path d="M12.6437 6.95508L12.8078 7.11758L12.6437 6.95508Z" fill="#CCCCFF"/>
<path d="M12.8078 6.95508L12.9719 7.11758L12.8078 6.95508Z" fill="#66CCCC"/>
<path d="M2.31328 7.11719L2.47734 7.27969L2.31328 7.11719Z" fill="#99CCCC"/>
<path d="M2.47187 7.11719L2.63594 7.27969L2.47187 7.11719Z" fill="#CCCCFF"/>
<path d="M3.11719 7.11719L3.28125 7.27969L3.11719 7.11719ZM12.4852 7.11719L12.6492 7.27969L12.4852 7.11719Z" fill="#FFCCCC"/>
<path d="M13.125 7.11719L13.2891 7.27969L13.125 7.11719Z" fill="#CCCCFF"/>
<path d="M13.2891 7.11719L13.4531 7.27969L13.2891 7.11719ZM1.99062 7.27969L2.15469 7.43677L1.99062 7.27427V7.27969Z" fill="#99CCCC"/>
<path d="M2.79453 7.27441L2.9586 7.43691L2.79453 7.27441ZM12.8023 7.27441L12.9664 7.43691L12.8023 7.27441Z" fill="#CC6666"/>
<path d="M13.6172 7.27441L13.7758 7.43691L13.6117 7.27441M2.31328 7.43691L2.47734 7.59941L2.31328 7.43691Z" fill="#99CCCC"/>
<path d="M2.47187 7.4375L2.63594 7.6L2.47187 7.4375Z" fill="#CCCCFF"/>
<path d="M3.11719 7.4375L3.28125 7.6L3.11719 7.4375ZM12.4852 7.4375L12.6492 7.6L12.4852 7.4375Z" fill="#FFCCCC"/>
<path d="M13.125 7.4375L13.2891 7.6L13.125 7.4375Z" fill="#CCCCFF"/>
<path d="M13.2891 7.4375L13.4531 7.6L13.2891 7.4375Z" fill="#99CCCC"/>
<path d="M2.79453 7.59917L2.9586 7.75625L2.79453 7.59375V7.59917Z" fill="#66CCCC"/>
<path d="M2.95312 7.59917L3.11719 7.75625L2.95312 7.59375V7.59917Z" fill="#CCCCFF"/>
<path d="M3.6039 7.59917L3.76797 7.75625L3.6039 7.59375V7.59917Z" fill="#FFCCCC"/>
<path d="M3.87188 7.64844L3.98125 7.7026L3.87188 7.64844ZM11.7852 7.64844L11.8945 7.7026L11.7852 7.64844Z" fill="#CC3333"/>
<path d="M11.9984 7.59917L12.1625 7.75625L11.9984 7.59375V7.59917Z" fill="#FFCCCC"/>
<path d="M12.6437 7.59917L12.8078 7.75625L12.6437 7.59375V7.59917Z" fill="#CCCCFF"/>
<path d="M12.8078 7.59917L12.9719 7.75625L12.8078 7.59375M3.28125 7.75625L3.44531 7.91875L3.28125 7.75625Z" fill="#66CCCC"/>
<path d="M3.44531 7.75684L3.6039 7.91934L3.43984 7.75684H3.44531Z" fill="#99CCFF"/>
<path d="M4.09062 7.75684L4.24922 7.91934L4.08516 7.75684H4.09062ZM11.5172 7.75684L11.6758 7.91934L11.5117 7.75684H11.5172Z" fill="#FFCCCC"/>
<path d="M12.157 7.75684L12.3211 7.91934L12.157 7.75684Z" fill="#99CCFF"/>
<path d="M12.3211 7.75684L12.4852 7.91934L12.3211 7.75684Z" fill="#66CCCC"/>
<path d="M3.7625 7.91948L3.92656 8.07656L3.7625 7.91406V7.91948Z" fill="#6699CC"/>
<path d="M3.92656 7.91948L4.09063 8.07656L3.92656 7.91406V7.91948Z" fill="#99CCFF"/>
<path d="M4.73594 7.91948L4.9 8.07656L4.73594 7.91406V7.91948Z" fill="#FFCCCC"/>
<path d="M5.00391 7.96777L5.11328 8.02194L5.00391 7.96777ZM10.6531 7.96777L10.7625 8.02194L10.6531 7.96777Z" fill="#CC3333"/>
<path d="M10.8664 7.91948L11.0305 8.07656L10.8664 7.91406V7.91948Z" fill="#FFCCCC"/>
<path d="M11.6758 7.91948L11.8398 8.07656L11.6758 7.91406V7.91948Z" fill="#99CCFF"/>
<path d="M11.8344 7.91948L11.9984 8.07656L11.8344 7.91406M4.24922 8.07656L4.41328 8.23906L4.24922 8.07656Z" fill="#6699CC"/>
<path d="M4.41328 8.07617L4.57734 8.23867L4.41328 8.07617Z" fill="#99CCCC"/>
<path d="M4.57188 8.07617L4.73594 8.23867L4.57188 8.07617Z" fill="#CCFFFF"/>
<path d="M5.21719 8.07617L5.38125 8.23867L5.21719 8.07617Z" fill="#FFCCCC"/>
<path d="M5.48516 8.125L5.59453 8.17917L5.48516 8.125ZM10.1664 8.125L10.2758 8.17917L10.1664 8.125Z" fill="#CC3333"/>
<path d="M10.3852 8.07617L10.5492 8.23867L10.3852 8.07617Z" fill="#FFCCCC"/>
<path d="M11.0305 8.07617L11.1945 8.23867L11.0305 8.07617Z" fill="#CCFFFF"/>
<path d="M11.1891 8.07617L11.3531 8.23867L11.1891 8.07617Z" fill="#99CCCC"/>
<path d="M11.3531 8.07617L11.5172 8.23867L11.3531 8.07617ZM4.73594 8.23867L4.89453 8.39575L4.73047 8.23325L4.73594 8.23867Z" fill="#6699CC"/>
<path d="M4.89453 8.2334L5.05859 8.3959L4.89453 8.2334Z" fill="#99CCCC"/>
<path d="M5.05859 8.2334L5.22266 8.3959L5.05859 8.2334Z" fill="#CCFFFF"/>
<path d="M5.70391 8.2334L5.86797 8.3959L5.70391 8.2334Z" fill="#FFCCCC"/>
<path d="M5.97187 8.28711L6.08125 8.34128L5.97187 8.28711ZM9.68516 8.28711L9.79453 8.34128L9.68516 8.28711Z" fill="#CC3333"/>
<path d="M9.89844 8.2334L10.0625 8.3959L9.89844 8.2334Z" fill="#FFCCCC"/>
<path d="M10.5438 8.2334L10.7078 8.3959L10.5438 8.2334Z" fill="#CCFFFF"/>
<path d="M10.7078 8.2334L10.8719 8.3959L10.7078 8.2334Z" fill="#99CCCC"/>
<path d="M10.8664 8.2334L11.0305 8.3959L10.8664 8.2334Z" fill="#6699CC"/>
<path d="M5.38125 8.39551L5.54531 8.55801L5.38125 8.39551Z" fill="#99CCCC"/>
<path d="M5.53984 8.39551L5.70391 8.55801L5.53984 8.39551Z" fill="#CCCCFF"/>
<path d="M6.18516 8.39551L6.34922 8.55801L6.18516 8.39551Z" fill="#FFCCCC"/>
<path d="M6.34375 8.39551L6.50781 8.55801L6.34375 8.39551ZM9.25312 8.39551L9.41719 8.55801L9.25312 8.39551Z" fill="#CC3333"/>
<path d="M9.41719 8.39551L9.58125 8.55801L9.41719 8.39551Z" fill="#FFCCCC"/>
<path d="M10.0625 8.39551L10.2266 8.55801L10.0625 8.39551Z" fill="#CCCCFF"/>
<path d="M10.2266 8.39551L10.3852 8.55801L10.2211 8.39551M5.8625 8.55801L6.02656 8.72051L5.8625 8.55801Z" fill="#99CCCC"/>
<path d="M6.02656 8.55859L6.19062 8.72109L6.02656 8.55859ZM9.58125 8.55859L9.73984 8.72109L9.57578 8.55859H9.58125Z" fill="#CCCCFF"/>
<path d="M9.73438 8.55859L9.89844 8.72109L9.73438 8.55859ZM6.34375 8.72109L6.50781 8.87818L6.34375 8.71568V8.72109Z" fill="#99CCCC"/>
<path d="M6.67188 8.72124L6.83594 8.87832L6.67188 8.71582M8.93047 8.71582L9.09453 8.87832L8.93047 8.71582Z" fill="#CC3333"/>
<path d="M9.25312 8.72124L9.41719 8.87832L9.25312 8.71582V8.72124Z" fill="#99CCCC"/>
<path d="M6.67188 8.87793L6.83594 9.04043L6.67188 8.87793ZM8.93047 8.87793L9.09453 9.04043L8.93047 8.87793Z" fill="#FFCCCC"/>
<path d="M6.50781 9.03516L6.67188 9.19766L6.50781 9.03516Z" fill="#CCCCFF"/>
<path d="M6.89062 9.14355L6.93984 9.25189L6.88515 9.14355M8.82109 9.14355L8.87578 9.25189L8.82109 9.14355Z" fill="#CC3333"/>
<path d="M9.09453 9.03516L9.25859 9.19766L9.09453 9.03516Z" fill="#CCCCFF"/>
<path d="M6.50781 9.19727L6.67188 9.35977L6.50781 9.19727ZM9.09453 9.19727L9.25859 9.35977L9.09453 9.19727Z" fill="#99CCCC"/>
<path d="M6.83594 9.35449L6.99453 9.51699L6.83047 9.35449M8.77187 9.35449L8.93594 9.51699L8.77187 9.35449Z" fill="#FFCCCC"/>
<path d="M6.67188 9.5166L6.83594 9.6791L6.67188 9.5166Z" fill="#CCCCFF"/>
<path d="M7.04922 9.62012L7.1039 9.72845L7.04922 9.62012ZM8.6625 9.62012L8.71719 9.72845L8.6625 9.62012Z" fill="#CC3333"/>
<path d="M8.93047 9.5166L9.09453 9.6791L8.93047 9.5166Z" fill="#CCCCFF"/>
<path d="M6.67188 9.67383L6.83594 9.83633L6.67188 9.67383ZM8.93047 9.67383L9.09453 9.83633L8.93047 9.67383Z" fill="#99CCCC"/>
<path d="M6.99453 9.83691L7.15859 9.99941L6.99453 9.83691ZM8.60781 9.83691L8.77187 9.99941L8.60781 9.83691Z" fill="#FFCCCC"/>
<path d="M6.83594 9.99414L6.99453 10.1566L6.83047 9.99414H6.83594Z" fill="#CCFFFF"/>
<path d="M7.20781 10.1025L7.2625 10.2109L7.20781 10.1025ZM8.49844 10.1025L8.55313 10.2109L8.49844 10.1025Z" fill="#CC3333"/>
<path d="M8.77187 9.99414L8.93594 10.1566L8.77187 9.99414Z" fill="#CCFFFF"/>
<path d="M6.83594 10.1562L6.99453 10.3187L6.83047 10.1562M8.77187 10.1562L8.93594 10.3187L8.77187 10.1562Z" fill="#99CCCC"/>
<path d="M6.83594 10.3135L6.99453 10.476L6.83047 10.3135H6.83594Z" fill="#6699CC"/>
<path d="M7.15313 10.3135L7.31719 10.476L7.15313 10.3135ZM8.44922 10.3135L8.61328 10.476L8.44922 10.3135Z" fill="#FFCCCC"/>
<path d="M8.77187 10.3135L8.93594 10.476L8.77187 10.3135Z" fill="#6699CC"/>
<path d="M6.99453 10.4756L7.15859 10.6381L6.99453 10.4756ZM8.60781 10.4756L8.77187 10.6381L8.60781 10.4756Z" fill="#CCFFFF"/>
<path d="M6.99453 10.6328L7.15859 10.7953L6.99453 10.6328ZM8.60781 10.6328L8.77187 10.7953L8.60781 10.6328Z" fill="#99CCCC"/>
<path d="M6.99453 10.7959L7.15859 10.9584L6.99453 10.7959ZM8.60781 10.7959L8.77187 10.9584L8.60781 10.7959Z" fill="#6699CC"/>
<path d="M7.31719 10.9521L7.48125 11.1146L7.31719 10.9521ZM8.28516 10.9521L8.44922 11.1146L8.28516 10.9521Z" fill="#FFCCCC"/>
<path d="M7.15313 11.1152L7.31719 11.2777L7.15313 11.1152Z" fill="#99CCFF"/>
<path d="M7.53047 11.2236L7.58516 11.332L7.53047 11.2236ZM8.17578 11.2236L8.23047 11.332L8.17578 11.2236Z" fill="#CC3333"/>
<path d="M8.44922 11.1152L8.61328 11.2777L8.44922 11.1152Z" fill="#99CCFF"/>
<path d="M7.15313 11.2779L7.31719 11.435L7.15313 11.2725M8.44922 11.2725L8.61328 11.435L8.44922 11.2725Z" fill="#6699CC"/>
<path d="M7.47578 11.4346L7.63984 11.5971L7.47578 11.4346ZM8.12656 11.4346L8.28516 11.5971L8.12109 11.4346H8.12656Z" fill="#FFCCCC"/>
<path d="M7.31719 11.5918L7.48125 11.7543L7.31719 11.5918ZM8.28516 11.5918L8.44922 11.7543L8.28516 11.5918Z" fill="#99CCFF"/>
<path d="M7.31719 11.7539L7.48125 11.9164L7.31719 11.7539ZM8.28516 11.7539L8.44922 11.9164L8.28516 11.7539Z" fill="#66CCCC"/>
<path d="M7.63984 11.917L7.80391 12.0795L7.63984 11.917ZM7.9625 11.917L8.12656 12.0795L7.9625 11.917Z" fill="#FFCCCC"/>
<path d="M7.47578 12.0742L7.63984 12.2367L7.47578 12.0742ZM8.12656 12.0742L8.28516 12.2367L8.12109 12.0742H8.12656Z" fill="#CCCCFF"/>
<path d="M7.47578 12.2363L7.63984 12.3988L7.47578 12.2363Z" fill="#66CCCC"/>
<path d="M7.80391 12.2363L7.9625 12.3988L7.79844 12.2363H7.80391Z" fill="#CC6666"/>
<path d="M8.12656 12.2363L8.28516 12.3988L8.12109 12.2363H8.12656Z" fill="#66CCCC"/>
<path d="M7.63984 12.5557L7.80391 12.7182L7.63984 12.5557ZM7.9625 12.5557L8.12656 12.7182L7.9625 12.5557Z" fill="#CCCCFF"/>
<path d="M7.63984 12.7129L7.80391 12.8754L7.63984 12.7129ZM7.9625 12.7129L8.12656 12.8754L7.9625 12.7129ZM7.79844 13.0379L7.9625 13.195L7.79844 13.0325V13.0379Z" fill="#99CCCC"/>
</g>
</g>
<defs>
<clipPath id="clip0_1_17054">
<rect width="35" height="26" fill="white"/>
</clipPath>
</defs>
</svg>
