<svg width="26" height="26" viewBox="0 0 26 26" fill="none" xmlns="http://www.w3.org/2000/svg">
<mask id="mask0_1_17304" style="mask-type:alpha" maskUnits="userSpaceOnUse" x="0" y="0" width="26" height="26">
<circle cx="13" cy="13" r="13" fill="#634848"/>
</mask>
<g mask="url(#mask0_1_17304)">
<g clip-path="url(#clip0_1_17304)">
<path d="M-5 0H31V26H-5V0Z" fill="#00267F"/>
<path d="M6.99812 0H19.0019V26H6.99812V0Z" fill="#FFC726"/>
<path d="M12.9888 7.33984C12.595 8.36901 12.2013 9.43068 11.3463 10.2486C11.6106 10.1619 12.0775 10.0861 12.37 10.0969V14.4032L11.11 14.5819C11.065 14.5819 11.0538 14.5115 11.0538 14.4194C10.93 13.0815 10.6038 11.9548 10.2213 10.7903C10.1931 10.6332 9.715 10.0319 10.0863 10.1403C10.1313 10.1403 10.6206 10.3353 10.5475 10.2432C9.84078 9.55676 8.92764 9.10194 7.9375 8.94318C7.85313 8.92693 7.8025 8.97026 7.88125 9.06234C9.14125 10.9365 10.2044 13.1519 10.1931 15.779C10.6881 15.779 11.8806 15.4973 12.37 15.4973V18.5361H13L13.1406 10.0482L12.9888 7.33984Z" fill="black"/>
<path d="M12.9831 7.33984C13.3769 8.36901 13.7706 9.43068 14.6256 10.2486C14.3612 10.1619 13.8944 10.0861 13.6019 10.0969V14.4032L14.8619 14.5819C14.9069 14.5819 14.9181 14.5115 14.9181 14.4194C15.0419 13.0815 15.3681 11.9548 15.7506 10.7903C15.7787 10.6332 16.2569 10.0319 15.8856 10.1403C15.8406 10.1403 15.3513 10.3353 15.4244 10.2432C16.1311 9.55676 17.0442 9.10194 18.0344 8.94318C18.1188 8.92693 18.1694 8.97026 18.0906 9.06234C16.8306 10.9365 15.7675 13.1519 15.7787 15.779C15.2837 15.779 14.0913 15.4973 13.6019 15.4973V18.5361H12.9719L12.8313 10.0482L12.9831 7.33984Z" fill="black"/>
</g>
</g>
<defs>
<clipPath id="clip0_1_17304">
<rect width="36" height="26" fill="white" transform="translate(-5)"/>
</clipPath>
</defs>
</svg>
