<svg width="26" height="26" viewBox="0 0 26 26" fill="none" xmlns="http://www.w3.org/2000/svg">
<mask id="mask0_1_12573" style="mask-type:alpha" maskUnits="userSpaceOnUse" x="0" y="0" width="26" height="26">
<circle cx="13" cy="13" r="13" fill="#634848"/>
</mask>
<g mask="url(#mask0_1_12573)">
<path fill-rule="evenodd" clip-rule="evenodd" d="M-9.63106 -0.240234L12.6845 13.0825L-9.63106 26.4052V-0.240234ZM35 -0.240234L12.6845 13.0825L35 26.4052V-0.240234Z" fill="#18B637"/>
<path fill-rule="evenodd" clip-rule="evenodd" d="M-9.63106 -0.240234L12.6845 13.0825L35 -0.240234H-9.63106ZM-9.63106 26.4052L12.6845 13.0825L35 26.4052H-9.63106Z" fill="#CF0921"/>
<path fill-rule="evenodd" clip-rule="evenodd" d="M35 -0.240234H30.8419L-9.63106 23.9228V26.4052H-5.47292L35 2.24216V-0.240234Z" fill="white"/>
<path fill-rule="evenodd" clip-rule="evenodd" d="M20.3864 13.083C20.3864 15.1265 19.5746 17.0862 18.1297 18.5312C16.6848 19.9761 14.725 20.7878 12.6816 20.7878C10.6381 20.7878 8.67839 19.9761 7.23346 18.5312C5.78854 17.0862 4.97678 15.1265 4.97678 13.083C4.97678 11.0403 5.78826 9.08122 7.2327 7.63678C8.67714 6.19234 10.6362 5.38086 12.679 5.38086C14.7217 5.38086 16.6808 6.19234 18.1252 7.63678C19.5697 9.08122 20.3812 11.0403 20.3812 13.083H20.3864Z" fill="white"/>
<path fill-rule="evenodd" clip-rule="evenodd" d="M-9.63106 -0.240234V2.24216L30.8419 26.4052H35V23.9228L-5.47292 -0.240234H-9.63106Z" fill="white"/>
<path fill-rule="evenodd" clip-rule="evenodd" d="M14.2089 10.1782L13.2045 10.1938L12.6841 11.0473L12.1688 10.1938L11.1696 10.173L11.6536 9.29353L11.1748 8.41922L12.174 8.39841L12.6945 7.54492L13.2097 8.40361L14.2089 8.42443L13.7249 9.29873L14.2089 10.1782ZM10.847 15.9861L9.84778 16.0017L9.32736 16.8552L8.81215 16.0017L7.81294 15.9809L8.29693 15.1014L7.81815 14.2271L8.81735 14.2063L9.33777 13.3528L9.85298 14.2115L10.8522 14.2323L10.3682 15.1066L10.847 15.9861ZM17.6436 15.9861L16.6444 16.0017L16.124 16.8552L15.6036 16.0017L14.6096 15.9809L15.0936 15.1014L14.6096 14.2271L15.6088 14.2063L16.1292 13.3528L16.6496 14.2115L17.6488 14.2323L17.1597 15.1066L17.6436 15.9861Z" fill="#CF0921" stroke="#18B637" stroke-width="0.457031"/>
</g>
</svg>
