<svg width="26" height="26" viewBox="0 0 26 26" fill="none" xmlns="http://www.w3.org/2000/svg">
<mask id="mask0_1_17634" style="mask-type:alpha" maskUnits="userSpaceOnUse" x="0" y="0" width="26" height="26">
<circle cx="13" cy="13" r="13" fill="#634848"/>
</mask>
<g mask="url(#mask0_1_17634)">
<g clip-path="url(#clip0_1_17634)">
<path d="M-8 -18H72V42H-8V-18Z" fill="#CF142B"/>
<path d="M-8 -18H32V12H-8V-18Z" fill="#000066"/>
<path d="M-3.3125 -18L11.9375 -6.6875L27.125 -18H32V-14.125L17 -2.9375L32 8.1875V12H27L12 0.8125L-2.9375 12H-8V8.25L6.9375 -2.875L-8 -14V-18H-3.3125Z" fill="white"/>
<path d="M18.5 -0.4375L32 9.5V12L15.0625 -0.4375H18.5ZM7 0.8125L7.375 3L-4.625 12H-8L7 0.8125ZM32 -18V-17.8125L16.4375 -6.0625L16.5625 -8.8125L28.875 -18H32ZM-8 -18L6.9375 -7H3.1875L-8 -15.375V-18Z" fill="#C8102E"/>
<path d="M7.0625 -18V12H17.0625V-18H7.0625ZM-8 -8V2H32V-8H-8Z" fill="white"/>
<path d="M-8 -5.9375V0.0625H32V-5.9375H-8ZM9.0625 -18V12H15.0625V-18H9.0625Z" fill="#C8102E"/>
</g>
</g>
<defs>
<clipPath id="clip0_1_17634">
<rect width="80" height="60" fill="white" transform="translate(-8 -18)"/>
</clipPath>
</defs>
</svg>
