<svg width="26" height="26" viewBox="0 0 26 26" fill="none" xmlns="http://www.w3.org/2000/svg">
<mask id="mask0_1_17578" style="mask-type:alpha" maskUnits="userSpaceOnUse" x="0" y="0" width="26" height="26">
<circle cx="13" cy="13" r="13" fill="#634848"/>
</mask>
<g mask="url(#mask0_1_17578)">
<g clip-path="url(#clip0_1_17578)">
<path d="M-5 0H31V26H-5V0Z" fill="#F7E017"/>
<path d="M-5 1.80371V13.3629L31 18.7795V12.637L-5 1.80371Z" fill="white"/>
<path d="M-5 7.94629V13.363L31 24.1963V18.7796L-5 7.94629Z" fill="black"/>
<path d="M12.0889 20.5723C11.4307 20.5023 10.7974 20.2899 10.2364 19.9512C10.1464 19.8934 10.0639 19.8428 10.0489 19.8428C10.0339 19.8428 10.0264 19.9114 10.0264 19.9909C10.0264 20.222 9.92887 20.3375 9.68887 20.3989C9.45637 20.4567 9.10386 20.3412 8.81886 20.11C8.54861 19.8874 8.23316 19.7213 7.89261 19.6225C7.53785 19.5412 7.16446 19.5874 6.8426 19.7525C6.81079 19.7741 6.77523 19.79 6.7376 19.7995C6.69635 19.7995 6.7001 19.5503 6.7451 19.4745C6.80135 19.3661 6.93635 19.265 7.0976 19.2109C7.1801 19.182 7.2476 19.1459 7.2476 19.1278C7.2476 19.1134 7.2176 19.0556 7.18385 18.9978C7.0751 18.8136 7.1201 18.6367 7.31135 18.4959C7.50635 18.3514 7.83636 18.3298 8.12511 18.4345C8.17389 18.4545 8.224 18.4714 8.27511 18.485C8.31261 18.485 8.29011 18.4309 8.18511 18.2828C8.06511 18.1131 8.03886 18.03 8.05386 17.8242C8.06416 17.6982 8.12081 17.5799 8.21361 17.4905C8.30641 17.4012 8.42928 17.3466 8.56011 17.3367C8.77761 17.3223 8.91261 17.3945 9.23511 17.687C10.1013 18.5265 11.2389 19.0564 12.4601 19.1892C12.7714 19.2253 13.3901 19.2073 13.7539 19.1531C14.9062 18.968 15.9746 18.4548 16.8214 17.6798C17.0614 17.4631 17.1739 17.4053 17.3727 17.4053C17.5414 17.4053 17.6614 17.4559 17.7852 17.5859C17.8977 17.705 17.9352 17.817 17.9202 18.0011C17.9127 18.1167 17.8939 18.1709 17.8227 18.2864C17.7177 18.4489 17.7364 18.467 17.9427 18.3875C18.2277 18.2792 18.5764 18.3298 18.7639 18.5031C18.9289 18.6548 18.9439 18.8064 18.8164 19.0086C18.7677 19.0845 18.7302 19.1531 18.7302 19.1675C18.7302 19.1892 18.7677 19.1964 18.9364 19.2253C19.1614 19.2614 19.2927 19.4203 19.2927 19.6659C19.2927 19.7381 19.2814 19.7995 19.2702 19.7995C19.2589 19.7995 19.1727 19.767 19.0827 19.7309C18.8202 19.6262 18.6702 19.6009 18.3627 19.6045C18.1302 19.6045 18.0514 19.6153 17.8902 19.6659C17.6202 19.7563 17.3717 19.8974 17.1589 20.0812C16.9189 20.287 16.7689 20.352 16.5364 20.3484C16.3189 20.3484 16.1726 20.287 16.0939 20.1678C16.0526 20.1028 16.0451 20.0667 16.0564 19.9223C16.0639 19.8284 16.0601 19.7525 16.0564 19.7525C16.0451 19.7525 15.9626 19.8031 15.8689 19.8645C15.6548 20.0123 15.4216 20.1325 15.1751 20.222C14.1882 20.5662 13.1319 20.6861 12.0889 20.5723Z" fill="#CF1126"/>
<path d="M12.4864 18.9651C11.761 18.9009 11.0582 18.6882 10.4251 18.3413C9.79193 17.9944 9.24303 17.5213 8.81511 16.9537C7.90011 15.7548 7.61511 14.1695 7.89261 12.7214C8.04261 12.0606 8.34261 11.3998 8.84886 10.9303C8.43151 11.7643 8.31663 12.7091 8.52261 13.6134C8.86011 15.4117 10.4351 16.932 12.3214 17.1956C13.0714 17.4014 13.8401 17.1812 14.5526 16.9609C16.1277 16.4264 17.3277 14.9892 17.4702 13.3823C17.5939 12.5156 17.4589 11.6092 17.0502 10.8184C17.2827 10.9375 17.5752 11.4034 17.7477 11.7139C18.3477 12.8334 18.3739 14.1731 18.0214 15.3684C17.5414 16.8887 16.3339 18.2212 14.7401 18.7051C14.013 18.9238 13.2503 19.0119 12.4901 18.9651H12.4864Z" fill="#CF1126"/>
<path d="M5.20009 16.9683C5.10634 16.9539 5.00134 17.0442 5.03884 17.138C5.10634 17.2319 5.22634 17.2825 5.33134 17.3258C5.608 17.4299 5.90497 17.4742 6.20135 17.4558C6.41879 17.4559 6.63456 17.4192 6.83885 17.3475C6.95135 17.3114 7.09385 17.2753 7.13885 17.1525C7.1876 17.0767 7.10135 16.9972 7.0226 17.0117C6.9101 17.0369 6.7976 17.0839 6.6851 17.1164C6.43782 17.1838 6.18004 17.2083 5.92385 17.1886C5.7374 17.1625 5.55564 17.1114 5.38385 17.0369C5.32384 17.0117 5.26759 16.9755 5.20009 16.9683V16.9683Z" fill="#CF1126"/>
<path d="M5.30509 16.5931C5.21134 16.5787 5.12884 16.687 5.16634 16.7737C5.24135 16.8748 5.3651 16.9289 5.48135 16.9759C5.68415 17.0525 5.90114 17.0881 6.11885 17.0806H6.1751C6.36025 17.0814 6.54374 17.047 6.7151 16.9795C6.81635 16.9398 6.94385 16.9 6.98885 16.7917C7.0226 16.7303 6.99635 16.6437 6.91385 16.6364C6.84635 16.6364 6.7826 16.6798 6.7151 16.6978C6.47081 16.795 6.20598 16.8346 5.9426 16.8134C5.7776 16.7953 5.62385 16.7375 5.47385 16.6689C5.4176 16.6437 5.36885 16.6039 5.30509 16.5967V16.5931Z" fill="#CF1126"/>
<path d="M5.43634 16.2353C5.35384 16.2244 5.29759 16.3147 5.31259 16.3833C5.32384 16.4483 5.38009 16.4917 5.42884 16.5278C5.63303 16.664 5.87828 16.7313 6.12635 16.7192H6.18635C6.34228 16.718 6.49601 16.6835 6.63635 16.618C6.7301 16.5819 6.83885 16.535 6.8726 16.4303C6.8876 16.3833 6.8951 16.3147 6.83885 16.2858C6.77885 16.2569 6.7226 16.3039 6.6701 16.3219C6.49072 16.4127 6.29147 16.461 6.08885 16.4628C5.91493 16.4561 5.74573 16.4063 5.59759 16.3183C5.54134 16.293 5.49634 16.2461 5.43634 16.2353V16.2353Z" fill="#CF1126"/>
<path d="M4.05634 10.9307C3.93634 11.0498 4.03009 11.2665 4.01884 11.4182C4.08634 11.8948 4.16509 12.3751 4.34884 12.8265C4.57384 13.2598 5.05384 13.4946 5.34259 13.881C5.44759 14.0651 5.41009 14.289 5.4326 14.4948C5.4476 15.0474 5.44385 15.6035 5.4326 16.156C5.6951 16.286 5.97635 16.4087 6.27635 16.3618C6.4526 16.3221 6.7826 16.2968 6.8201 16.1271L6.7826 13.2562C6.68135 12.9637 6.3701 12.8121 6.14135 12.6243C5.95015 12.4425 5.77223 12.2483 5.60885 12.0429C5.51135 11.8804 5.12509 11.8262 5.26384 12.1007C5.34634 12.3426 5.55259 12.5196 5.6051 12.7723C5.61635 12.9132 5.7926 13.1696 5.6426 13.249C5.55021 13.0921 5.4102 12.9661 5.24134 12.8879C5.07634 12.7687 4.80259 12.7182 4.74259 12.5087C4.68856 12.2108 4.54517 11.9346 4.33009 11.7143C4.38634 11.4471 4.33009 11.1112 4.09009 10.9379L4.05634 10.9307V10.9307Z" fill="#CF1126"/>
<path d="M4.42759 10.9844C4.31509 11.0024 4.32259 11.136 4.37134 11.2083C4.42692 11.3637 4.44111 11.5301 4.41259 11.6922C4.61823 11.9127 4.75589 12.184 4.81009 12.4758C4.81009 12.5841 4.93009 12.6202 5.00884 12.6744C5.19259 12.7863 5.39509 12.8694 5.56009 13.0102C5.59384 13.0463 5.6201 13.0824 5.59759 13.0102C5.57134 12.9163 5.56009 12.8152 5.48509 12.7466C5.38009 12.6383 5.25259 12.5444 5.10259 12.5155C5.09134 12.3638 5.01634 12.2266 4.94884 12.0966C4.87384 11.9702 4.79509 11.8366 4.66759 11.7572C4.66759 11.5369 4.66759 11.3058 4.57009 11.0999C4.54009 11.0494 4.49509 10.988 4.42759 10.9844Z" fill="#CF1126"/>
<path d="M4.73884 11.0713C4.66384 11.093 4.67884 11.1868 4.70134 11.241C4.7341 11.3978 4.74669 11.5579 4.73884 11.7177C4.88509 11.826 4.97134 11.9849 5.05384 12.1366C5.10634 12.2377 5.15134 12.346 5.17009 12.458C5.28634 12.4941 5.3876 12.5663 5.4776 12.6385C5.4401 12.5374 5.3651 12.458 5.30885 12.3605C5.2526 12.263 5.19634 12.1582 5.17009 12.0463C5.05759 11.9343 4.99759 11.7718 5.02009 11.613C5.02759 11.4432 4.97134 11.2663 4.85134 11.1363C4.82134 11.1074 4.78384 11.0749 4.73884 11.0713Z" fill="#CF1126"/>
<path d="M5.0951 11.1221C5.05009 11.1293 5.02759 11.1654 5.00509 11.1979C4.99384 11.2304 5.03509 11.2629 5.04259 11.299C5.09159 11.4182 5.10961 11.5471 5.0951 11.6746C5.09134 11.7648 5.1251 11.8551 5.1701 11.9273C5.17852 11.8995 5.19564 11.8749 5.21913 11.8568C5.24262 11.8387 5.27133 11.828 5.30135 11.8262C5.3201 11.8262 5.35385 11.8334 5.33885 11.8009C5.32385 11.6276 5.2976 11.4543 5.23385 11.2954C5.21537 11.2328 5.17899 11.1765 5.12884 11.1329C5.12134 11.1257 5.10634 11.1184 5.09134 11.1221H5.0951Z" fill="#CF1126"/>
<path d="M20.8002 16.9683C20.8939 16.9539 20.9989 17.0442 20.9614 17.138C20.8939 17.2319 20.7739 17.2825 20.6689 17.3258C20.3923 17.4299 20.0953 17.4742 19.7989 17.4558C19.5815 17.4559 19.3657 17.4192 19.1614 17.3475C19.0489 17.3114 18.9064 17.2753 18.8614 17.1525C18.8127 17.0767 18.8989 16.9972 18.9777 17.0117C19.0902 17.0369 19.2027 17.0839 19.3152 17.1164C19.5625 17.1838 19.8202 17.2083 20.0764 17.1886C20.2629 17.1625 20.4446 17.1114 20.6164 17.0369C20.6764 17.0117 20.7327 16.9755 20.8002 16.9683V16.9683Z" fill="#CF1126"/>
<path d="M20.6952 16.5931C20.7889 16.5787 20.8714 16.687 20.8339 16.7737C20.7589 16.8748 20.6352 16.9289 20.5189 16.9759C20.3161 17.0525 20.0991 17.0881 19.8814 17.0806H19.8252C19.64 17.0814 19.4565 17.047 19.2852 16.9795C19.1839 16.9398 19.0564 16.9 19.0114 16.7917C18.9777 16.7303 19.0039 16.6437 19.0864 16.6364C19.1539 16.6364 19.2177 16.6798 19.2852 16.6978C19.5295 16.795 19.7943 16.8346 20.0577 16.8134C20.2227 16.7953 20.3764 16.7375 20.5264 16.6689C20.5827 16.6437 20.6314 16.6039 20.6952 16.5967V16.5931Z" fill="#CF1126"/>
<path d="M20.5639 16.2353C20.6464 16.2244 20.7027 16.3147 20.6877 16.3833C20.6764 16.4483 20.6202 16.4917 20.5714 16.5278C20.3672 16.664 20.122 16.7313 19.8739 16.7192H19.8139C19.658 16.718 19.5043 16.6835 19.3639 16.618C19.2702 16.5819 19.1614 16.535 19.1277 16.4303C19.1127 16.3833 19.1052 16.3147 19.1614 16.2858C19.2214 16.2569 19.2777 16.3039 19.3302 16.3219C19.5095 16.4127 19.7088 16.461 19.9114 16.4628C20.0853 16.4561 20.2545 16.4063 20.4027 16.3183C20.4589 16.293 20.5039 16.2461 20.5639 16.2353V16.2353Z" fill="#CF1126"/>
<path d="M21.9439 10.9307C22.0639 11.0498 21.9702 11.2665 21.9814 11.4182C21.9139 11.8948 21.8352 12.3751 21.6514 12.8265C21.4264 13.2598 20.9464 13.4946 20.6577 13.881C20.5527 14.0651 20.5902 14.289 20.5677 14.4948C20.5527 15.0474 20.5564 15.6035 20.5677 16.156C20.3052 16.286 20.0239 16.4087 19.7239 16.3618C19.5477 16.3221 19.2177 16.2968 19.1802 16.1271L19.2177 13.2562C19.3189 12.9637 19.6302 12.8121 19.8589 12.6243C20.0501 12.4425 20.228 12.2483 20.3914 12.0429C20.4889 11.8804 20.8752 11.8262 20.7364 12.1007C20.6539 12.3426 20.4477 12.5196 20.3952 12.7723C20.3839 12.9132 20.2077 13.1696 20.3577 13.249C20.4501 13.0921 20.5901 12.9661 20.7589 12.8879C20.9239 12.7687 21.1977 12.7182 21.2577 12.5087C21.3117 12.2108 21.4551 11.9346 21.6702 11.7143C21.6139 11.4471 21.6702 11.1112 21.9102 10.9379L21.9439 10.9307V10.9307Z" fill="#CF1126"/>
<path d="M21.5727 10.9844C21.6852 11.0024 21.6777 11.136 21.6289 11.2083C21.5733 11.3637 21.5592 11.5301 21.5877 11.6922C21.382 11.9127 21.2444 12.184 21.1902 12.4758C21.1902 12.5841 21.0702 12.6202 20.9914 12.6744C20.8077 12.7863 20.6052 12.8694 20.4402 13.0102C20.4064 13.0463 20.3802 13.0824 20.4027 13.0102C20.4289 12.9163 20.4402 12.8152 20.5152 12.7466C20.6202 12.6383 20.7477 12.5444 20.8977 12.5155C20.9089 12.3638 20.9839 12.2266 21.0514 12.0966C21.1264 11.9702 21.2052 11.8366 21.3327 11.7572C21.3327 11.5369 21.3327 11.3058 21.4302 11.0999C21.4602 11.0494 21.5052 10.988 21.5727 10.9844Z" fill="#CF1126"/>
<path d="M21.2614 11.0713C21.3364 11.093 21.3214 11.1868 21.2989 11.241C21.2662 11.3978 21.2536 11.5579 21.2614 11.7177C21.1152 11.826 21.0289 11.9849 20.9464 12.1366C20.8939 12.2377 20.8489 12.346 20.8302 12.458C20.7139 12.4941 20.6127 12.5663 20.5227 12.6385C20.5602 12.5374 20.6352 12.458 20.6914 12.3605C20.7477 12.263 20.8039 12.1582 20.8302 12.0463C20.9427 11.9343 21.0027 11.7718 20.9802 11.613C20.9727 11.4432 21.0289 11.2663 21.1489 11.1363C21.1789 11.1074 21.2164 11.0749 21.2614 11.0713Z" fill="#CF1126"/>
<path d="M20.9052 11.1221C20.9502 11.1293 20.9727 11.1654 20.9952 11.1979C21.0064 11.2304 20.9652 11.2629 20.9577 11.299C20.9087 11.4182 20.8907 11.5471 20.9052 11.6746C20.9089 11.7648 20.8752 11.8551 20.8302 11.9273C20.8218 11.8995 20.8046 11.8749 20.7811 11.8568C20.7577 11.8387 20.7289 11.828 20.6989 11.8262C20.6802 11.8262 20.6464 11.8334 20.6614 11.8009C20.6764 11.6276 20.7027 11.4543 20.7664 11.2954C20.7849 11.2328 20.8213 11.1765 20.8714 11.1329C20.8789 11.1257 20.8939 11.1184 20.9089 11.1221H20.9052Z" fill="#CF1126"/>
<path d="M12.8389 17.1881C12.5856 17.1617 12.3454 17.0661 12.1467 16.9126C11.9481 16.759 11.7992 16.5539 11.7176 16.3214C11.7289 16.242 11.8301 16.3648 11.8789 16.3756C11.9703 16.4281 12.0728 16.4602 12.1789 16.4695C12.3101 16.5237 12.3926 16.6501 12.5201 16.7187C12.5801 16.762 12.7901 16.8487 12.7489 16.7078C12.7001 16.6356 12.6664 16.5417 12.7114 16.4551C12.7789 16.307 12.8876 16.177 13.0001 16.0506C13.0789 16.0253 13.1351 16.1806 13.1914 16.2312C13.2701 16.3503 13.3676 16.4948 13.3189 16.6392C13.2739 16.6934 13.2439 16.8559 13.3676 16.8053C13.5176 16.7403 13.6414 16.632 13.7651 16.5309C13.8776 16.4587 14.0164 16.4551 14.1289 16.3864C14.1851 16.3756 14.2939 16.2745 14.3164 16.3287C14.2492 16.4901 14.1555 16.6401 14.0389 16.7728C13.8586 16.979 13.6093 17.1182 13.3339 17.1665C13.1689 17.1953 13.0039 17.2026 12.8389 17.1881V17.1881Z" fill="#CF1126"/>
<path d="M13.4314 16.6182C13.4426 16.5207 13.4201 16.4232 13.3676 16.3293C13.2889 16.1776 13.1801 16.0404 13.0676 15.8996C12.9626 15.8418 12.9064 16.0332 12.8389 16.0874C12.7301 16.2426 12.5951 16.4015 12.5876 16.5929C12.5276 16.6832 12.4151 16.5207 12.3664 16.4665C12.2664 16.3428 12.2135 16.1899 12.2164 16.0332C12.2073 15.7789 12.2533 15.5256 12.3514 15.2893C12.4264 15.0871 12.5426 14.8921 12.5314 14.6754C12.5389 14.5057 12.5051 14.3251 12.3664 14.2132C12.2314 14.1121 12.4526 14.0904 12.5201 14.141C12.6401 14.1518 12.7039 14.3396 12.8126 14.2926C12.8539 14.1951 12.8651 14.076 12.9551 14.0001C13.0414 13.8846 13.1314 14.0471 13.1614 14.1265C13.2251 14.1915 13.1614 14.3613 13.2589 14.3649C13.3789 14.2818 13.4651 14.1482 13.6189 14.1157C13.6826 14.0796 13.7876 14.1157 13.7051 14.1807C13.5926 14.2854 13.4951 14.4118 13.4726 14.5671C13.4389 14.7585 13.4876 14.9535 13.5739 15.1232C13.7426 15.4626 13.8739 15.8454 13.7876 16.2246C13.7501 16.3907 13.6301 16.5352 13.4876 16.6327C13.4689 16.6435 13.4389 16.6435 13.4314 16.6182V16.6182Z" fill="#CF1126"/>
<path d="M13.2514 14.0685C13.2009 13.9708 13.1293 13.8846 13.0414 13.8157C12.9514 13.8157 12.8951 13.924 12.8351 13.9818C12.7939 14.0576 12.7414 14.184 12.6364 14.0865C12.4676 13.9926 12.4414 13.7868 12.4414 13.6171C12.4301 13.3426 12.5464 13.0862 12.6476 12.8371C12.7114 12.6818 12.6964 12.5048 12.6551 12.346C12.6064 12.1654 12.4526 12.0354 12.3364 11.891C12.3439 11.8368 12.4939 11.8657 12.5501 11.8765C12.6776 11.909 12.7526 12.0137 12.8464 12.0932C12.9139 12.0715 12.8839 11.9415 12.9176 11.8801C12.9176 11.7935 13.0376 11.6815 13.0864 11.8043C13.1614 11.8837 13.0864 12.039 13.1801 12.086C13.2701 12.0535 13.3151 11.9596 13.3976 11.9162C13.4407 11.8894 13.4902 11.8736 13.5414 11.8705C13.5927 11.8673 13.6438 11.8768 13.6901 11.8982C13.7239 11.9776 13.5926 12.0426 13.5551 12.1148C13.4802 12.2049 13.4282 12.3106 13.4035 12.4235C13.3787 12.5364 13.3819 12.6533 13.4126 12.7648C13.4651 12.9454 13.5551 13.1079 13.5889 13.2885C13.6294 13.4944 13.623 13.7063 13.5701 13.9096C13.5364 14.0324 13.4276 14.1118 13.3151 14.1624C13.2851 14.1371 13.2701 14.101 13.2514 14.0685V14.0685Z" fill="#CF1126"/>
<path d="M12.6851 11.8047C12.5576 11.7144 12.5164 11.6313 12.5164 11.4616C12.5164 11.3786 12.5351 11.3316 12.5914 11.2522C12.6814 11.1366 12.6664 11.1005 12.5426 11.133C12.3439 11.1872 12.2501 11.1402 12.2426 10.9777C12.2426 10.8983 12.2576 10.8658 12.3664 10.7358C12.4564 10.6347 12.4901 10.5805 12.4714 10.5625C12.4526 10.548 12.3476 10.6347 12.1339 10.8441C11.9998 10.9802 11.8571 11.1081 11.7064 11.2269C11.3389 11.4652 10.9864 11.5013 10.8251 11.3172C10.7426 11.2233 10.7464 11.1727 10.8401 11.115C10.8998 11.0761 10.9551 11.0313 11.0051 10.9813C11.1889 10.8197 11.3915 10.6792 11.6089 10.5625C11.7439 10.4975 11.7739 10.4541 11.6876 10.4541C11.5751 10.4541 11.2189 10.678 10.9451 10.9163C10.8664 10.9886 10.7501 11.068 10.6901 11.0969C10.5233 11.1555 10.3427 11.168 10.1689 11.133C10.0864 11.1077 9.93262 10.9705 9.93262 10.92C9.93262 10.9091 9.97012 10.8802 10.0076 10.855C10.0687 10.8217 10.1265 10.783 10.1801 10.7394C10.3976 10.5588 10.8101 10.3675 11.1364 10.2988C11.2414 10.2808 11.2001 10.2266 11.0839 10.2338C10.7397 10.2971 10.4174 10.4424 10.1464 10.6563C9.83512 10.9055 9.36636 10.8802 9.21636 10.6094C9.19011 10.5625 9.17136 10.5191 9.17886 10.5119C9.44449 10.4473 9.70127 10.3528 9.94387 10.2302C10.1528 10.1116 10.3831 10.032 10.6226 9.9955C10.7276 9.97745 10.7351 9.92689 10.6339 9.91606C10.4989 9.90162 10.2964 9.96662 9.94012 10.1327C9.47887 10.353 9.34762 10.3927 9.10761 10.3783C8.88261 10.3638 8.75886 10.3097 8.58261 10.1472C8.46261 10.0388 8.29761 9.768 8.32761 9.7355C8.5223 9.77492 8.72135 9.7907 8.92011 9.78245C9.23137 9.78245 9.31762 9.77523 9.48262 9.72828C9.80495 9.62992 10.1088 9.4824 10.3826 9.29133C10.7686 8.9769 11.2571 8.80307 11.7626 8.80022C12.2276 8.80022 12.5201 8.90133 12.7826 9.15772C12.8726 9.24439 12.9476 9.29856 12.9589 9.28772C12.9701 9.27689 12.9814 9.12522 12.9851 8.95189C12.9851 8.95189 13.1239 8.93744 13.1539 8.97717C13.1539 9.25522 13.1539 9.2805 13.1989 9.2805C13.2251 9.2805 13.2551 9.25161 13.2739 9.20828C13.3114 9.118 13.4614 8.99161 13.6189 8.91217C13.9564 8.74967 14.5451 8.74244 15.0176 8.90133C15.2435 8.98387 15.4548 9.09959 15.6439 9.24439C15.9198 9.43124 16.2231 9.5773 16.5439 9.67773C16.7989 9.74995 17.2564 9.768 17.4852 9.71384C17.5521 9.69892 17.6196 9.68687 17.6877 9.67773C17.7739 9.67773 17.6277 9.95217 17.4552 10.1147C17.1402 10.4108 16.7314 10.4072 16.1576 10.1111C15.7976 9.92328 15.3701 9.82217 15.3701 9.92328C15.3701 9.94495 15.3926 9.95939 15.4264 9.95939C15.5501 9.95939 15.7901 10.0388 16.1276 10.1941C16.3397 10.3119 16.5722 10.3914 16.8139 10.4288C16.9002 10.4288 16.9039 10.483 16.8214 10.5986C16.7352 10.7213 16.5889 10.7791 16.3827 10.7791C16.1839 10.7791 16.0714 10.7394 15.8951 10.5986C15.5951 10.3602 14.8601 10.093 14.8864 10.2375C14.8939 10.2627 14.9276 10.2808 15.0064 10.2916C15.3231 10.3579 15.6196 10.4938 15.8726 10.6888L16.0939 10.8441C16.1351 10.8658 16.1351 10.873 16.1014 10.9344C16.0489 11.0355 15.9064 11.1113 15.7564 11.1258C15.5614 11.1475 15.3889 11.0897 15.2126 10.9452C14.8376 10.6455 14.4889 10.4288 14.3764 10.4288C14.2826 10.4288 14.3239 10.4794 14.4889 10.5625C14.7023 10.6713 14.9013 10.8047 15.0814 10.9597C15.1564 11.0283 15.2426 11.0933 15.2689 11.1077C15.3401 11.1438 15.3364 11.1944 15.2614 11.2883C15.1864 11.3822 15.0589 11.4255 14.8976 11.4075C14.5751 11.375 14.3201 11.2269 13.9226 10.8297C13.8281 10.728 13.7253 10.6338 13.6151 10.548C13.5626 10.548 13.5964 10.6166 13.6976 10.7286C13.8251 10.8622 13.8476 10.938 13.7989 11.0536C13.7576 11.1475 13.6864 11.1727 13.5439 11.133C13.3939 11.0969 13.3714 11.133 13.4689 11.245C13.6114 11.4219 13.5926 11.6313 13.4126 11.7794C13.3754 11.8139 13.3323 11.842 13.2851 11.8625C13.2701 11.8625 13.2326 11.8263 13.1989 11.7758C13.0864 11.6097 12.9851 11.6097 12.8726 11.7758C12.8489 11.8127 12.8239 11.8488 12.7976 11.8841C12.7597 11.8582 12.7222 11.8318 12.6851 11.8047V11.8047Z" fill="#CF1126"/>
<path d="M13.2514 8.41309L13.0564 8.55753L12.8839 8.43475V9.43865H13.2514V8.41309Z" fill="#CF1126"/>
<path d="M12.0589 7.37743C12.0248 7.78342 11.9102 8.17935 11.7214 8.54383L12.1376 8.17188L12.4264 8.5041L12.7414 8.16466L13.0601 8.45355L13.3676 8.15382L13.6864 8.51494L13.9639 8.21882L14.4364 8.54383C14.2639 8.18271 14.0351 7.87216 14.0614 7.35938C13.6076 7.68438 12.5239 7.74215 12.0589 7.37382V7.37743Z" fill="#CF1126"/>
<path d="M12.8876 7.13545C12.7189 7.13545 12.5426 7.13906 12.3851 7.17156C12.2808 7.18754 12.1812 7.22445 12.0926 7.27989C12.1039 7.59045 13.6301 7.71684 14.0389 7.28711C13.9469 7.2258 13.8418 7.18509 13.7314 7.16795C13.5814 7.13906 13.4089 7.13906 13.2476 7.13184V7.38823H12.8876V7.13545V7.13545Z" fill="#CF1126"/>
<path d="M13.1839 5.56055H12.9476V7.34444H13.1876L13.1839 5.56055Z" fill="#CF1126"/>
<path d="M13.1839 5.60407L13.0939 6.45991L14.0051 6.88963L13.5439 6.29379L14.1739 6.09518L13.1839 5.60407ZM13.0826 5.38379C12.9439 5.38379 12.8426 5.43434 12.8426 5.49212C12.8426 5.5499 12.9439 5.60046 13.0826 5.60046C13.2214 5.60046 13.3226 5.5499 13.3226 5.49212C13.3226 5.43434 13.2214 5.38379 13.0826 5.38379Z" fill="#CF1126"/>
<path d="M12.6625 20.3609C12.8144 20.3121 12.8987 20.2254 12.9606 20.0575C12.9887 19.9709 13.0113 19.8842 13.0056 19.8625C12.9944 19.8084 12.9269 19.8084 12.8594 19.8679C12.8088 19.9059 12.8031 19.9275 12.8144 20.0088C12.8538 20.2092 12.775 20.2634 12.3813 20.3013C12.3419 20.3013 12.2238 20.3013 12.1281 20.285C11.9369 20.2634 11.8694 20.285 11.9369 20.3392C11.9732 20.3616 12.0131 20.378 12.055 20.3879C12.1619 20.415 12.55 20.3988 12.6625 20.3609V20.3609ZM13.4894 20.3284C13.5119 20.3067 13.585 20.2742 13.6581 20.2471C13.7538 20.22 13.8044 20.1929 13.8438 20.1279C13.9619 19.9654 13.9394 19.8192 13.7706 19.6242C13.675 19.5159 13.6356 19.5213 13.5625 19.6404C13.495 19.7379 13.5006 19.7488 13.5906 19.7704C13.6413 19.7813 13.6863 19.8138 13.7088 19.8571C13.81 20.025 13.7819 20.1279 13.63 20.1279C13.495 20.1279 13.4613 20.1496 13.4219 20.2363L13.3881 20.3392C13.3881 20.3717 13.4444 20.3663 13.4894 20.3284V20.3284ZM13.2194 20.1388C13.2419 20.0684 13.2531 19.9492 13.2475 19.7054C13.2536 19.5896 13.2479 19.4735 13.2306 19.3588C13.2081 19.3371 13.1013 19.4021 13.0844 19.4509C13.0788 19.4908 13.0888 19.5314 13.1125 19.5646C13.1463 19.6296 13.1519 19.6946 13.1406 19.9438C13.1238 20.2688 13.1463 20.3229 13.2194 20.1388V20.1388Z" fill="#F7E017"/>
<path d="M12.5838 19.9869L12.6231 19.7161C12.6288 19.624 12.6513 19.5102 12.6625 19.4615C12.7019 19.3369 12.6625 19.3044 12.5613 19.3748L12.4881 19.429L12.4994 19.6077C12.5163 19.7702 12.4881 20.0681 12.4488 20.1873C12.4375 20.2198 12.4544 20.209 12.4994 20.1602C12.5331 20.1223 12.5725 20.0411 12.5838 19.9815V19.9869ZM12.0213 20.0736C12.1563 19.9652 12.1394 19.7702 12.1731 19.6186C12.1731 19.5156 12.2406 19.3965 12.1956 19.3044C12.0663 19.3261 11.9875 19.4452 12.055 19.559C12.055 19.6944 12.055 19.8406 11.9819 19.9598C11.9256 20.0411 11.7344 20.0194 11.7456 19.9056C11.7906 19.7431 11.5825 19.8244 11.5038 19.8677C11.4419 19.9111 11.3069 19.9165 11.3575 19.8136C11.3238 19.6673 11.1381 19.7594 11.0369 19.7594C10.9413 19.7594 11.0313 19.5698 10.8906 19.5969C10.6375 19.5806 10.3563 19.6023 10.1313 19.4561C10.0019 19.3965 10.0187 19.2448 10.0919 19.1473C10.1706 19.0173 10.1931 18.8494 10.3169 18.7465C10.4462 18.6327 10.2044 18.6815 10.1481 18.7194C10.0244 18.7844 10.1369 18.9523 10.0356 19.0444C9.97937 19.1419 9.90063 19.2719 9.76563 19.2556C9.56875 19.2177 9.45625 19.039 9.31563 18.9306C9.19188 18.9036 9.25938 19.1148 9.32688 19.1581C9.45158 19.2479 9.59283 19.3141 9.74313 19.3531C9.88938 19.3261 9.895 19.5156 10.0244 19.5427C10.2494 19.6511 10.5081 19.6781 10.7613 19.6944C10.8625 19.6998 10.8062 19.8731 10.9356 19.8352C11.0087 19.8569 11.1775 19.8081 11.1831 19.8894C11.0706 20.0194 11.29 20.014 11.3688 19.9977C11.4756 19.9761 11.605 19.9436 11.6331 20.0736C11.7175 20.1656 11.875 20.1494 11.9819 20.1006L12.0213 20.0736V20.0736Z" fill="#F7E017"/>
<path d="M9.7825 18.9803C9.83537 18.909 9.88061 18.8328 9.9175 18.7528C9.94612 18.6834 9.98393 18.6178 10.03 18.5578C10.0975 18.4928 10.0581 18.4494 9.95125 18.4711C9.895 18.4819 9.8725 18.5036 9.86687 18.5523C9.84166 18.6852 9.79416 18.8133 9.72625 18.9315C9.63062 19.0669 9.63062 19.0723 9.67 19.0723C9.68687 19.0723 9.7375 19.029 9.7825 18.9803ZM8.37625 18.1298C8.26937 18.1298 8.26375 18.1948 8.365 18.2273C8.42125 18.2436 8.46062 18.2815 8.49437 18.3519C8.59 18.5415 8.65187 18.5794 8.91625 18.6011L9.085 18.6119L9.09625 18.7148C9.09625 18.769 9.11313 18.8123 9.12438 18.8123L9.27062 18.7582C9.39437 18.6932 9.5125 18.5523 9.5125 18.4603C9.5125 18.4061 9.41125 18.3411 9.32125 18.3411C9.28188 18.3411 9.20875 18.3736 9.14687 18.4169C8.95562 18.5469 8.75312 18.5253 8.64062 18.3519C8.55625 18.2111 8.46062 18.1353 8.37625 18.1353V18.1298ZM9.29313 18.4819C9.34375 18.4819 9.34937 18.5198 9.32687 18.5903C9.32342 18.5998 9.31696 18.6081 9.30839 18.614C9.29982 18.6198 9.28957 18.623 9.27906 18.623C9.26855 18.623 9.2583 18.6198 9.24973 18.614C9.24116 18.6081 9.2347 18.5998 9.23125 18.5903C9.20875 18.5361 9.23687 18.4819 9.2875 18.4819H9.29313ZM16.4087 18.2653C16.3356 18.2653 16.3187 18.2761 16.2737 18.3411C16.2006 18.444 16.195 18.6661 16.2625 18.7419C16.3019 18.7907 16.3075 18.7907 16.3919 18.7528C16.5156 18.704 16.5381 18.7094 16.5325 18.769C16.5325 18.9315 16.2962 19.2403 16.0487 19.4028C15.998 19.4316 15.9524 19.4682 15.9137 19.5111C15.8969 19.5544 15.9869 19.549 16.0994 19.4894C16.2856 19.3866 16.4393 19.2367 16.5437 19.0561C16.6056 18.9315 16.6169 18.8936 16.6281 18.6769C16.6281 18.4711 16.6281 18.4061 16.5944 18.3411C16.5494 18.2653 16.5381 18.2598 16.4369 18.2598H16.4087V18.2653ZM16.4144 18.4007C16.4706 18.4007 16.4706 18.4115 16.4819 18.4873C16.4819 18.5415 16.4762 18.5794 16.4425 18.6119C16.3975 18.6498 16.3862 18.6498 16.3525 18.5903C16.2962 18.5036 16.33 18.4007 16.4144 18.4007V18.4007ZM15.2781 19.9444C15.4975 19.8361 15.6269 19.7223 15.7056 19.5544C15.7348 19.5005 15.7593 19.4444 15.7787 19.3865C15.7787 19.354 15.6719 19.3053 15.61 19.3053C15.5481 19.3053 15.5312 19.2619 15.5537 19.1428C15.5819 19.029 15.5537 18.8828 15.4975 18.8828C15.4806 18.8828 15.4412 18.9098 15.4244 18.9423C15.3906 18.9965 15.385 19.0182 15.4131 19.0886C15.4525 19.1969 15.4187 19.2836 15.3175 19.354C15.2669 19.3865 15.2444 19.4244 15.2444 19.4623L15.25 19.5165L15.3681 19.4623L15.4806 19.3973L15.5425 19.4515C15.5819 19.4732 15.61 19.5165 15.61 19.5436C15.61 19.6736 15.2275 19.8903 14.9687 19.9119C14.8281 19.9228 14.8 19.9119 14.755 19.8686C14.7156 19.8307 14.7044 19.7982 14.7156 19.7603L14.7437 19.6194C14.7662 19.5057 14.7212 19.5219 14.6312 19.6519C14.5637 19.7603 14.5412 19.874 14.5806 19.9336C14.6144 19.9878 14.8281 20.0311 14.9856 20.0203C15.0812 20.0203 15.1769 19.9932 15.2781 19.9444V19.9444ZM16.7406 19.159C16.8756 19.0236 16.9375 18.8611 16.9375 18.6173V18.4278L17.05 18.3736C17.2019 18.3086 17.3425 18.1732 17.3425 18.0973C17.3425 18.0215 17.3031 18.0215 17.2412 18.1082C17.1906 18.1678 17.1287 18.2057 16.9037 18.3086C16.8475 18.3303 16.8419 18.3465 16.825 18.5794C16.8137 18.8503 16.7687 18.9478 16.6169 19.1319C16.5212 19.2403 16.5156 19.2619 16.5831 19.2619C16.6112 19.2619 16.6844 19.2132 16.7406 19.1536V19.159ZM15.2387 19.0073C15.25 18.9694 15.1712 18.9423 15.1431 18.9748C15.1262 18.9857 15.1206 19.0073 15.1319 19.0236C15.1544 19.0561 15.2219 19.0453 15.2387 19.0073V19.0073ZM17.3087 18.4928C17.3256 18.4494 17.2469 18.4223 17.2131 18.4548C17.2019 18.4711 17.1962 18.4928 17.2075 18.509C17.23 18.5415 17.2975 18.5307 17.3087 18.4928ZM14.8169 17.0898C14.7606 17.1169 14.7325 17.1711 14.6987 17.2144C14.6706 17.2307 14.6931 17.2469 14.7044 17.2686C14.8 17.3607 14.8394 17.4961 14.8844 17.6207C14.9294 17.7669 14.9856 17.924 14.9406 18.0757C14.9237 18.1298 14.8731 18.1894 14.8056 18.1732C14.6931 18.1678 14.5806 18.1353 14.4681 18.1353C14.3612 18.1407 14.2825 18.2328 14.1812 18.2219C14.1137 18.2219 14.1137 18.0919 14.0575 18.1298C14.0237 18.2003 14.0406 18.2761 14.035 18.3465C14.0462 18.3628 14.08 18.3519 14.0969 18.3573H14.305C14.3162 18.4223 14.3162 18.5036 14.3612 18.5578C14.4344 18.5794 14.5187 18.5578 14.5862 18.5307C14.6537 18.4982 14.665 18.4169 14.6875 18.3519C14.71 18.2815 14.8 18.2978 14.8562 18.2707C14.9239 18.2504 14.9827 18.2091 15.0234 18.1532C15.0641 18.0974 15.0845 18.0301 15.0812 17.9619C15.07 17.7507 14.9912 17.5611 14.9237 17.3661C14.8956 17.2794 14.8731 17.1873 14.8394 17.1007L14.8169 17.0898V17.0898ZM14.4794 18.2707C14.5525 18.2707 14.5862 18.3573 14.5694 18.4169C14.5412 18.4982 14.4344 18.4494 14.4175 18.3898C14.3781 18.3357 14.4006 18.2653 14.4737 18.2707H14.4794Z" fill="#F7E017"/>
<path d="M11.65 17.5928C11.6162 17.5928 11.5769 17.6036 11.5375 17.6307C11.3406 17.7661 11.2844 17.9232 11.425 17.9882C11.5206 18.0315 11.4981 18.0857 11.3406 18.1615C11.1156 18.2699 10.9187 18.2536 10.5419 18.1074C10.4519 18.0694 10.4294 18.0857 10.4462 18.1615C10.4687 18.2428 10.5475 18.2861 10.7331 18.324C10.9356 18.3782 11.1831 18.3619 11.3406 18.2969C11.4331 18.2515 11.5153 18.1889 11.5825 18.1128L11.7062 17.9882L11.8469 18.0044C12.0212 18.0261 12.0269 18.0261 12.0269 18.1074C12.0269 18.1724 12.0269 18.1724 12.19 18.1886L12.4544 18.1994C12.5275 18.1994 12.5669 18.2157 12.5894 18.2482C12.6231 18.2861 12.64 18.2915 12.9044 18.2699C13.1519 18.2482 13.1969 18.2482 13.3094 18.2861C13.3881 18.3078 13.4781 18.3186 13.54 18.3132C13.7312 18.2915 13.99 18.1453 14.0294 18.0369C14.0294 18.0207 14.1025 17.999 14.1812 17.9828C14.3725 17.9449 14.3781 17.9069 14.2037 17.8853C14.1156 17.8741 14.0289 17.8541 13.945 17.8257C13.8823 17.8001 13.8159 17.7837 13.7481 17.7769C13.6525 17.7769 13.5625 17.8311 13.5625 17.8961C13.5625 17.934 13.5737 17.9394 13.6919 17.9286C13.7931 17.9178 13.8269 17.9232 13.8831 17.9665C13.9225 17.9936 13.945 18.0261 13.9394 18.0369C13.9112 18.0803 13.6862 18.1778 13.5906 18.194C13.5328 18.2033 13.4735 18.1937 13.4219 18.1669C13.3319 18.1236 13.2081 18.1182 13.18 18.1561C13.1687 18.1724 13.1462 18.1615 13.1069 18.129L13.0506 18.0749L12.9156 18.129C12.7806 18.1832 12.73 18.1832 12.73 18.1182C12.73 18.0911 12.6906 18.0857 12.4937 18.1019C12.2744 18.1128 12.2519 18.1074 12.2125 18.064C12.1731 18.0261 12.1731 18.0099 12.2012 17.9719C12.2237 17.9286 12.2237 17.9178 12.2012 17.8907C12.1787 17.869 12.145 17.869 12.0606 17.8907C11.8412 17.9449 11.7794 17.9178 11.7794 17.7553C11.7794 17.6524 11.7231 17.5928 11.65 17.5928V17.5928ZM11.5937 17.7444C11.605 17.7444 11.6162 17.7499 11.6331 17.7661C11.65 17.7824 11.6612 17.8203 11.65 17.8365C11.6331 17.8853 11.5375 17.8853 11.5206 17.8365C11.5094 17.8094 11.5206 17.7824 11.5487 17.7661L11.5937 17.7444Z" fill="#F7E017"/>
<path d="M11.2 17.8966C11.335 17.8154 11.335 17.8208 11.3519 17.5987C11.3631 17.4362 11.3631 17.4254 11.3181 17.4254C11.2506 17.4254 11.2169 17.4958 11.2169 17.6258C11.2169 17.7125 11.2056 17.7504 11.1606 17.7883C11.0481 17.8966 10.7781 17.8479 10.7388 17.7179C10.7275 17.6745 10.7444 17.6312 10.8006 17.5554C10.9188 17.3929 10.8963 17.3495 10.7444 17.4741C10.6488 17.5608 10.6319 17.5608 10.6488 17.4904C10.6656 17.42 10.6319 17.3929 10.5475 17.4145C10.5081 17.4254 10.48 17.447 10.4744 17.5012C10.4631 17.5445 10.4406 17.5716 10.4013 17.5825C10.3338 17.5987 10.2213 17.5391 10.2213 17.485C10.2213 17.447 10.39 17.2466 10.6094 17.03C10.6881 16.9487 10.7556 16.8675 10.7556 16.862C10.7556 16.8512 10.7106 16.8404 10.66 16.8404C10.5813 16.8404 10.5588 16.8512 10.5588 16.8837C10.5588 16.9054 10.4519 17.0462 10.3169 17.1925C10.0356 17.4958 10.0131 17.5554 10.1481 17.6366C10.2043 17.67 10.2695 17.6867 10.3354 17.6848C10.4014 17.6829 10.4654 17.6624 10.5194 17.6258L10.6094 17.5662V17.6745C10.6094 17.81 10.6375 17.8641 10.75 17.9183C10.8204 17.9531 10.899 17.9694 10.978 17.9656C11.057 17.9618 11.1336 17.938 11.2 17.8966V17.8966ZM17.0725 16.0225C16.9713 16.082 17.05 16.2066 17.0725 16.2933C17.0275 16.4016 16.8756 16.4341 16.7631 16.4558C16.6056 16.4829 16.4931 16.6075 16.4369 16.7429C16.4031 16.8295 16.3244 16.9595 16.24 16.8295C16.1669 16.7591 16.0319 16.6995 15.9475 16.7862C15.88 16.8458 15.8631 16.9325 15.835 17.0137C15.7956 16.9541 15.7788 16.862 15.7 16.8404C15.565 16.8566 15.6156 17.0191 15.6775 17.0841C15.7338 17.1654 15.79 17.2629 15.7338 17.355C15.6775 17.4633 15.5088 17.5391 15.4131 17.447C15.3231 17.3983 15.385 17.2304 15.2894 17.2195C15.2444 17.252 15.2444 17.4308 15.1713 17.3333C15.115 17.252 15.1488 17.1383 15.0813 17.0679C15.0081 17.0787 14.9463 17.2033 14.9688 17.2683C15.07 17.3983 15.115 17.5608 15.1544 17.7179C15.1769 17.7829 15.1488 17.9075 15.2106 17.9345C15.25 17.8316 15.2106 17.7179 15.2444 17.615C15.3456 17.6041 15.4525 17.6475 15.5538 17.6258C15.7056 17.6095 15.8181 17.485 15.8688 17.3604C15.8856 17.2629 15.8688 17.1654 15.8631 17.0679C15.9756 17.0895 16.0994 17.0895 16.2119 17.122C16.2681 17.2033 16.195 17.3225 16.1781 17.4091C16.1219 17.5933 15.97 17.7233 15.8294 17.8425C15.7675 17.8804 15.7619 17.9725 15.8463 17.9237C16.0386 17.8357 16.1893 17.6809 16.2681 17.4904C16.33 17.3495 16.2794 17.1925 16.3244 17.0516C16.3806 16.9433 16.5213 16.965 16.6281 16.965C16.735 16.965 16.825 16.8404 16.7913 16.7375C16.7575 16.6183 16.8869 16.5641 16.9713 16.5208C17.0894 16.4666 17.1794 16.3529 17.1681 16.2229C17.1681 16.1525 17.1681 16.0279 17.0725 16.0225V16.0225ZM16.6619 16.6995C16.7856 16.732 16.6394 16.9595 16.5719 16.8133C16.5494 16.7591 16.6 16.6995 16.6619 16.6995ZM16.0825 16.862C16.2456 16.8566 16.1838 17.0787 16.0488 16.9812C15.9756 16.9433 15.9981 16.862 16.0825 16.862ZM10.1875 17.745C10.1875 17.7233 10.1763 17.707 10.1538 17.707C10.1144 17.707 10.0863 17.745 10.1031 17.7775C10.1256 17.8154 10.1763 17.7937 10.1875 17.745ZM12.1 17.55C12.1 17.512 12.0831 17.5012 12.055 17.5066C11.9931 17.5175 11.9819 17.5987 12.0494 17.5987C12.0831 17.5987 12.1 17.5825 12.1 17.5445V17.55ZM9.7375 16.445C9.66438 16.4287 9.61375 16.4937 9.58563 16.5533C9.52938 16.6454 9.46188 16.7375 9.36063 16.7862C9.2875 16.8079 9.20875 16.7808 9.14125 16.7429C9.06813 16.705 9.085 16.6183 9.05125 16.5587C8.995 16.5154 8.89938 16.575 8.905 16.64C8.89938 16.7266 8.97813 16.7754 9.05125 16.8079C9.1075 16.8458 9.1975 16.862 9.22 16.9325C9.22 16.992 9.2425 17.0625 9.31563 17.0408C9.4 17.0408 9.42813 17.1383 9.38875 17.1979C9.35115 17.2639 9.33731 17.3401 9.34938 17.4145C9.38875 17.4525 9.42813 17.3604 9.46188 17.3387L9.51813 17.2629C9.67 17.2683 9.81625 17.29 9.96813 17.2845C10.0806 17.2845 10.165 17.2195 10.2325 17.1437C10.3338 17.0462 10.4125 16.9325 10.5194 16.8512C10.5981 16.8295 10.5588 16.6887 10.4744 16.732C10.4013 16.7591 10.3788 16.8404 10.3281 16.8891C10.2461 16.9932 10.1517 17.0878 10.0469 17.1708C9.9625 17.2033 9.8725 17.187 9.78813 17.1708C9.75438 17.1437 9.85563 17.1166 9.8725 17.0841C9.9175 17.0408 9.97375 16.9975 10.0019 16.9379C9.97375 16.8837 9.895 16.8837 9.83875 16.8837C9.70375 16.8945 9.59688 17.0083 9.45625 17.0191C9.34938 17.0191 9.40563 16.9108 9.45625 16.8729C9.54625 16.7645 9.6475 16.667 9.74313 16.5641C9.77125 16.5316 9.8725 16.4991 9.81063 16.4558C9.78813 16.445 9.76 16.445 9.7375 16.445V16.445ZM9.805 16.9866C9.87813 17.0245 9.76 17.0841 9.715 17.0787C9.65313 17.095 9.6475 17.0354 9.70375 17.0245C9.7375 17.0029 9.77125 16.9866 9.805 16.9866ZM9.59125 17.1275C9.63063 17.1275 9.715 17.1654 9.63625 17.187C9.58 17.2304 9.52375 17.1437 9.59125 17.1275Z" fill="#F7E017"/>
<path d="M11.2788 17.214C11.2788 17.1598 11.1888 17.1707 11.1775 17.2248C11.1663 17.2573 11.1775 17.2627 11.2225 17.2573C11.2563 17.2573 11.2788 17.2357 11.2788 17.214ZM15.4806 16.8565C15.4919 16.8077 15.4244 16.7752 15.385 16.8132C15.3456 16.8457 15.385 16.9161 15.43 16.9052C15.4525 16.9052 15.475 16.8782 15.4863 16.8565H15.4806ZM8.95 16.3636C9.01188 16.3094 9.0175 16.304 8.98938 16.1848C8.94438 16.0169 8.95 15.9952 9.0175 15.979C9.10188 15.9627 9.31563 16.0711 9.355 16.1577C9.4 16.2282 9.39438 16.2336 9.3325 16.2877C9.265 16.3473 9.265 16.4177 9.3325 16.4177C9.38875 16.4177 9.54063 16.2769 9.54063 16.2282C9.54063 16.1577 9.37188 15.9898 9.23688 15.9302C9.15587 15.8939 9.06748 15.8754 8.97813 15.8761C8.80375 15.8761 8.78125 15.914 8.82625 16.1036C8.8825 16.3311 8.80938 16.3636 8.61813 16.1902C8.55008 16.1326 8.49687 16.0605 8.46271 15.9797C8.42854 15.8988 8.41435 15.8114 8.42125 15.7244C8.42125 15.5077 8.51125 15.394 8.70813 15.3669C8.84313 15.3507 8.8375 15.3182 8.70813 15.3019C8.50563 15.2694 8.33688 15.3994 8.275 15.6269C8.20188 15.8815 8.365 16.1902 8.65188 16.3473C8.80375 16.4286 8.86 16.434 8.95 16.3636V16.3636ZM16.78 16.0819C16.7969 16.0711 16.8081 16.0332 16.8081 16.0061C16.8081 15.979 16.8363 15.9194 16.87 15.8761C16.9038 15.8327 16.9263 15.7894 16.9263 15.7786C16.9263 15.7352 16.8531 15.7352 16.7969 15.7786C16.735 15.8273 16.6844 15.8327 16.6844 15.7786L16.7519 15.7298C16.8419 15.6919 16.8475 15.6486 16.7744 15.6161C16.6788 15.5727 16.5775 15.6486 16.5719 15.7786C16.5663 15.8652 16.5719 15.8761 16.6394 15.914C16.7013 15.9519 16.7125 15.9682 16.7013 16.0223C16.6844 16.109 16.7238 16.1415 16.78 16.0819V16.0819ZM17.5113 16.0061C17.5675 15.9519 17.6125 15.9032 17.6125 15.8869C17.6125 15.8707 17.6631 15.8219 17.7194 15.7786C17.8769 15.6702 17.9163 15.5619 17.8431 15.3832C17.815 15.3127 17.7306 15.2207 17.5338 15.0582C17.4441 14.966 17.3419 14.8858 17.23 14.8198C17.1794 14.8198 17.1906 15.004 17.2413 15.0202C17.3369 15.0527 17.3988 15.0907 17.545 15.2207C17.725 15.3723 17.8038 15.5186 17.7588 15.5998C17.7194 15.6757 17.6631 15.654 17.5056 15.4915C17.4546 15.4304 17.3938 15.3774 17.3256 15.3344C17.3088 15.3344 17.2975 15.3669 17.2975 15.4102C17.2975 15.4644 17.3256 15.5186 17.41 15.5998C17.5394 15.7407 17.5506 15.8219 17.4494 15.8977C17.4266 15.92 17.3999 15.9384 17.3706 15.9519C17.242 15.74 17.0697 15.5556 16.8644 15.4102C16.8475 15.4102 16.8363 15.4319 16.8363 15.4861C16.8363 15.5565 16.8475 15.5782 16.9038 15.6052C17.0516 15.7146 17.184 15.842 17.2975 15.9844L17.3988 16.0927C17.4407 16.0675 17.4786 16.0365 17.5113 16.0007V16.0061ZM17.8488 15.0961C17.8206 15.0311 17.3763 14.5869 17.3256 14.5869C17.3031 14.5869 17.2975 14.614 17.3031 14.6844C17.3031 14.7711 17.32 14.7819 17.3819 14.7982C17.4779 14.8523 17.5651 14.9198 17.6406 14.9986C17.7017 15.0619 17.7718 15.1166 17.8488 15.1611V15.0961V15.0961ZM15.16 20.1119C15.163 20.12 15.1636 20.1285 15.1618 20.1368C15.1599 20.1451 15.1557 20.153 15.1494 20.1598C15.1432 20.1665 15.135 20.172 15.1256 20.1758C15.1162 20.1796 15.1058 20.1816 15.0953 20.1816C15.0848 20.1816 15.0744 20.1796 15.065 20.1758C15.0556 20.172 15.0475 20.1665 15.0412 20.1598C15.0349 20.153 15.0307 20.1451 15.0288 20.1368C15.027 20.1285 15.0276 20.12 15.0306 20.1119C15.0276 20.1038 15.027 20.0953 15.0288 20.087C15.0307 20.0787 15.0349 20.0708 15.0412 20.0641C15.0475 20.0573 15.0556 20.0518 15.065 20.048C15.0744 20.0442 15.0848 20.0423 15.0953 20.0423C15.1058 20.0423 15.1162 20.0442 15.1256 20.048C15.135 20.0518 15.1432 20.0573 15.1494 20.0641C15.1557 20.0708 15.1599 20.0787 15.1618 20.087C15.1636 20.0953 15.163 20.1038 15.16 20.1119V20.1119ZM15.3963 20.0361C15.3963 20.0432 15.3945 20.0502 15.3911 20.0568C15.3877 20.0634 15.3827 20.0694 15.3765 20.0744C15.3702 20.0794 15.3628 20.0834 15.3546 20.0861C15.3464 20.0888 15.3376 20.0902 15.3288 20.0902C15.3199 20.0902 15.3111 20.0888 15.3029 20.0861C15.2947 20.0834 15.2873 20.0794 15.281 20.0744C15.2748 20.0694 15.2698 20.0634 15.2664 20.0568C15.263 20.0502 15.2613 20.0432 15.2613 20.0361C15.2613 20.029 15.263 20.0219 15.2664 20.0154C15.2698 20.0088 15.2748 20.0028 15.281 19.9978C15.2873 19.9928 15.2947 19.9888 15.3029 19.986C15.3111 19.9833 15.3199 19.9819 15.3288 19.9819C15.3376 19.9819 15.3464 19.9833 15.3546 19.986C15.3628 19.9888 15.3702 19.9928 15.3765 19.9978C15.3827 20.0028 15.3877 20.0088 15.3911 20.0154C15.3945 20.0219 15.3963 20.029 15.3963 20.0361V20.0361Z" fill="#F7E017"/>
</g>
</g>
<defs>
<clipPath id="clip0_1_17578">
<rect width="36" height="26" fill="white" transform="translate(-5)"/>
</clipPath>
</defs>
</svg>
