<svg width="26" height="26" viewBox="0 0 26 26" fill="none" xmlns="http://www.w3.org/2000/svg">
<mask id="mask0_1_15753" style="mask-type:alpha" maskUnits="userSpaceOnUse" x="0" y="0" width="26" height="26">
<circle cx="13" cy="13" r="13" fill="#634848"/>
</mask>
<g mask="url(#mask0_1_15753)">
<circle cx="13" cy="13" r="12.5" stroke="#DCE0E4"/>
<mask id="mask1_1_15753" style="mask-type:alpha" maskUnits="userSpaceOnUse" x="-5" y="0" width="36" height="26">
<rect x="-4.33333" width="34.6667" height="26" fill="white"/>
</mask>
<g mask="url(#mask1_1_15753)">
<path fill-rule="evenodd" clip-rule="evenodd" d="M-4.33073 0V26H30.3359V0H-4.33073Z" fill="#FECA00"/>
<mask id="mask2_1_15753" style="mask-type:alpha" maskUnits="userSpaceOnUse" x="-5" y="0" width="36" height="26">
<path fill-rule="evenodd" clip-rule="evenodd" d="M-4.33073 0V26H30.3359V0H-4.33073Z" fill="white"/>
</mask>
<g mask="url(#mask2_1_15753)">
<path fill-rule="evenodd" clip-rule="evenodd" d="M-4.33073 0V8.66667H30.3359V0H-4.33073Z" fill="#DB501C"/>
<path fill-rule="evenodd" clip-rule="evenodd" d="M-4.33073 17.333V25.9997H30.3359V17.333H-4.33073Z" fill="#5EAA22"/>
<path d="M9.1517 10.7882L9.19106 10.75L17.0123 18.2735L16.973 18.3117L9.1517 10.7882Z" fill="#864C26"/>
<path d="M17.5736 17.7842L17.5398 17.8272L8.44076 11.1435L8.47453 11.1006L17.5736 17.7842Z" fill="#864C26"/>
<path d="M17.7687 17.1168L17.7413 17.1637L7.61979 11.6544L7.64718 11.6074L17.7687 17.1168Z" fill="#A05A2C"/>
<path fill-rule="evenodd" clip-rule="evenodd" d="M8.23763 9.87012L9.00413 10.3772L8.961 10.4066C8.9784 10.4166 8.99635 10.4274 9.01485 10.4388C9.03732 10.4527 9.05279 10.4696 9.06152 10.4891C9.07771 10.443 9.07752 10.3868 9.06075 10.3196L9.02045 10.1581L9.11135 10.2996C9.25578 10.5245 9.27729 10.6854 9.16494 10.7765C9.0552 10.8654 8.88253 10.8422 8.64922 10.714L8.55442 10.6619L8.66257 10.6636C8.7514 10.6649 8.82758 10.6544 8.89129 10.6323L8.84539 10.62C8.80798 10.61 8.78027 10.5838 8.76143 10.5428L8.68671 10.5938L8.23763 9.87012ZM7.31511 10.4435L8.15801 10.8098L8.12073 10.8462C8.14131 10.8536 8.1627 10.8617 8.18489 10.8706C8.20931 10.8803 8.22743 10.8942 8.23941 10.9117C8.24729 10.8635 8.23733 10.8082 8.20918 10.7451L8.14146 10.5931L8.25555 10.7166C8.43684 10.913 8.48596 11.0678 8.39113 11.1769C8.2985 11.2836 8.12442 11.2907 7.8724 11.205L7.76999 11.1701L7.87679 11.153C7.96445 11.1389 8.03761 11.1153 8.0965 11.0826L8.04948 11.0784C8.00938 11.0749 7.97655 11.0524 7.95038 11.0125L7.88303 11.0783L7.31511 10.4435ZM7.37423 11.3232L6.50261 11.0317L7.1237 11.6146L7.18304 11.5456C7.21225 11.5818 7.24641 11.6007 7.28597 11.6007H7.32941C7.2734 11.6389 7.20211 11.669 7.11531 11.6909L7.01042 11.7173L7.11548 11.7431C7.37401 11.8065 7.5468 11.7842 7.62978 11.6699C7.71474 11.5529 7.65232 11.403 7.4546 11.2232L7.33017 11.11L7.41089 11.2555C7.443 11.3134 7.45787 11.3656 7.45589 11.4126C7.44278 11.3989 7.4251 11.3885 7.40275 11.3818C7.38081 11.3752 7.35966 11.3692 7.33931 11.3638L7.37423 11.3232ZM7.28038 11.3494L7.28105 11.3486L6.72266 11.1619L7.12055 11.5353L7.15252 11.4982C7.14635 11.4864 7.14046 11.4737 7.13483 11.46L7.13852 11.4586L7.11198 11.43L7.21876 11.3375L7.2322 11.3398C7.24763 11.3426 7.26369 11.3457 7.28038 11.3494Z" fill="#E7E7E7"/>
<path fill-rule="evenodd" clip-rule="evenodd" d="M10.2721 17.564L11.1764 15.9512L12.4449 16.2927L11.532 17.7647H11.1764V17.9253L10.2721 17.564Z" fill="#925229"/>
<path fill-rule="evenodd" clip-rule="evenodd" d="M9.87816 11.3633L9.27963 11.9853L9.06185 16.0957L11.2186 16.4101C11.2186 16.4101 10.2788 15.5849 10.1402 15.0757C10.0017 14.5665 9.95749 12.6654 10.2196 12.3764L10.4243 12.4959L10.589 12.0068" fill="#FFE000"/>
<path fill-rule="evenodd" clip-rule="evenodd" d="M7.79558 11.6422C7.79558 11.6422 7.5638 14.8517 7.5638 15.4154C7.5638 15.9791 8.04237 17.3213 9.13328 17.3213C10.2242 17.3213 11.7211 16.7208 11.7211 16.4759C11.7211 16.2309 11.2742 16.0555 11.2742 16.0555C11.2742 16.0555 9.26797 16.1927 9.26797 15.4154C9.26797 14.6382 9.40426 12.3375 9.52336 12.0662C9.64245 11.7949 10.0553 11.3859 10.0553 11.3859L9.26797 10.8008L9.13328 11.3859L8.62845 11.2141L8.47445 12.0662L7.79558 11.6422Z" fill="#D52C1E"/>
<path fill-rule="evenodd" clip-rule="evenodd" d="M10.5991 11.999L10.4541 12.453L10.1611 12.3293C10.1611 12.3293 9.72303 14.3835 10.1611 15.2441C10.5991 16.1046 11.7024 16.167 11.7024 16.167L11.2363 12.453L10.5991 11.999Z" fill="#027934"/>
<path fill-rule="evenodd" clip-rule="evenodd" d="M10.5367 14.7744L9.48531 15.6059C9.48531 15.6059 9.19698 16.0191 9.48531 16.332C9.77365 16.6449 10.5731 16.9639 10.7617 16.5862C10.9503 16.2085 11.5107 15.7661 11.5107 15.7661L10.5367 14.7744Z" fill="#E8A30C"/>
<path fill-rule="evenodd" clip-rule="evenodd" d="M11.3598 11.6379C11.6156 11.4155 11.7438 11.1442 11.6462 11.0319C11.5485 10.9196 11.262 11.0088 11.0062 11.2311C10.7504 11.4535 10.6221 11.7248 10.7198 11.8372C10.8174 11.9495 11.1039 11.8603 11.3598 11.6379Z" fill="#E1E5E8"/>
<path fill-rule="evenodd" clip-rule="evenodd" d="M10.7174 10.0784C10.7174 10.0784 10.6144 10.0574 10.5678 10.0503C10.2353 9.99989 10.069 10.0677 10.069 10.2537C10.069 10.5719 10.281 10.9154 10.281 11.1557C10.281 11.396 10.2913 11.77 10.3932 11.583C10.4951 11.396 11.0136 10.8339 11.0136 10.8339L10.7174 10.3463C10.7174 10.3463 11.4528 10.429 11.1299 10.2537" fill="#D52C1E"/>
<path fill-rule="evenodd" clip-rule="evenodd" d="M12.9657 16.6598L12.4142 16.6543C12.0047 17.0592 11.9669 17.6039 12.2893 18.2619C12.2893 18.2619 12.3951 18.4148 12.4322 18.4005C12.484 18.3805 12.5561 18.159 12.5561 18.159C12.5315 17.5165 12.9411 17.091 12.9657 16.6598Z" fill="#D52C1E"/>
<path fill-rule="evenodd" clip-rule="evenodd" d="M12.2655 16.6762L12.4638 16.584C12.6593 16.99 12.5613 17.4105 12.1843 17.8281L12.0202 17.685C12.1843 17.206 12.1843 17.0076 12.2655 16.6762Z" fill="#FFE000"/>
<path d="M12.0124 16.6641L12.2194 16.6035C12.3189 16.9436 12.2692 17.2944 12.0738 17.6504L11.8848 17.5467C12.0537 17.2389 12.0951 16.9466 12.0124 16.6641Z" fill="#027934"/>
<path d="M16.8535 10.7882L16.8142 10.75L8.99288 18.2735L9.03225 18.3117L16.8535 10.7882Z" fill="#864C26"/>
<path d="M8.43164 17.7842L8.46541 17.8272L17.5645 11.1435L17.5307 11.1006L8.43164 17.7842Z" fill="#864C26"/>
<path d="M8.2365 17.1168L8.26389 17.1637L18.3854 11.6544L18.358 11.6074L8.2365 17.1168Z" fill="#A05A2C"/>
<path fill-rule="evenodd" clip-rule="evenodd" d="M17.7676 9.87012L17.0011 10.3772L17.0442 10.4066C17.0268 10.4166 17.0089 10.4274 16.9904 10.4388C16.9679 10.4527 16.9524 10.4696 16.9437 10.4891C16.9275 10.443 16.9277 10.3868 16.9445 10.3196L16.9848 10.1581L16.8939 10.2996C16.7494 10.5245 16.7279 10.6854 16.8403 10.7765C16.95 10.8654 17.1227 10.8422 17.356 10.714L17.4508 10.6619L17.3426 10.6636C17.2538 10.6649 17.1776 10.6544 17.1139 10.6323L17.1598 10.62C17.1972 10.61 17.2249 10.5838 17.2438 10.5428L17.3185 10.5938L17.7676 9.87012ZM18.6901 10.4435L17.8472 10.8098L17.8845 10.8462C17.8639 10.8536 17.8425 10.8617 17.8203 10.8706C17.7959 10.8803 17.7778 10.8942 17.7658 10.9117C17.7579 10.8635 17.7679 10.8082 17.796 10.7451L17.8638 10.5931L17.7497 10.7166C17.5684 10.913 17.5192 11.0678 17.6141 11.1769C17.7067 11.2836 17.8808 11.2907 18.1328 11.205L18.2352 11.1701L18.1284 11.153C18.0408 11.1389 17.9676 11.1153 17.9087 11.0826L17.9557 11.0784C17.9958 11.0749 18.0287 11.0524 18.0548 11.0125L18.1222 11.0783L18.6901 10.4435ZM18.631 11.3232L19.5026 11.0317L18.8815 11.6146L18.8222 11.5456C18.793 11.5818 18.7588 11.6007 18.7192 11.6007H18.6758C18.7318 11.6389 18.8031 11.669 18.8899 11.6909L18.9948 11.7173L18.8897 11.7431C18.6312 11.8065 18.4584 11.7842 18.3754 11.6699C18.2905 11.5529 18.3529 11.403 18.5506 11.2232L18.675 11.11L18.5943 11.2555C18.5622 11.3134 18.5473 11.3656 18.5493 11.4126C18.5624 11.3989 18.5801 11.3885 18.6025 11.3818C18.6244 11.3752 18.6456 11.3692 18.6659 11.3638L18.631 11.3232ZM18.7248 11.3494L18.7242 11.3486L19.2826 11.1619L18.8847 11.5353L18.8527 11.4982C18.8589 11.4864 18.8648 11.4737 18.8704 11.46L18.8667 11.4586L18.8932 11.43L18.7865 11.3375L18.773 11.3398C18.7576 11.3426 18.7415 11.3457 18.7248 11.3494Z" fill="#E7E7E7"/>
<path fill-rule="evenodd" clip-rule="evenodd" d="M15.7331 17.564L14.8288 15.9512L13.5603 16.2927L14.4732 17.7647H14.8288V17.9253L15.7331 17.564Z" fill="#925229"/>
<path fill-rule="evenodd" clip-rule="evenodd" d="M16.1271 11.3613L16.7256 11.9833L16.9434 16.0937L14.7866 16.4081C14.7866 16.4081 15.7265 15.583 15.865 15.0737C16.0035 14.5645 16.0477 12.6634 15.7857 12.3744L15.581 12.4939L15.4163 12.0048" fill="#FFE000"/>
<path fill-rule="evenodd" clip-rule="evenodd" d="M18.2096 11.6422C18.2096 11.6422 18.4414 14.8517 18.4414 15.4154C18.4414 15.9791 17.9628 17.3213 16.8719 17.3213C15.781 17.3213 14.2841 16.7208 14.2841 16.4759C14.2841 16.2309 14.731 16.0555 14.731 16.0555C14.731 16.0555 16.7372 16.1927 16.7372 15.4154C16.7372 14.6382 16.601 12.3375 16.4819 12.0662C16.3628 11.7949 15.95 11.3859 15.95 11.3859L16.7372 10.8008L16.8719 11.3859L17.3768 11.2141L17.5308 12.0662L18.2096 11.6422Z" fill="#D52C1E"/>
<path fill-rule="evenodd" clip-rule="evenodd" d="M15.4061 11.998L15.5511 12.452L15.8441 12.3284C15.8441 12.3284 16.2822 14.3826 15.8441 15.2431C15.4061 16.1036 14.3028 16.1661 14.3028 16.1661L14.7689 12.452L15.4061 11.998Z" fill="#027934"/>
<path fill-rule="evenodd" clip-rule="evenodd" d="M15.4685 14.7744L16.5199 15.6059C16.5199 15.6059 16.8082 16.0191 16.5199 16.332C16.2316 16.6449 15.4321 16.9639 15.2435 16.5862C15.0549 16.2085 14.4946 15.7661 14.4946 15.7661L15.4685 14.7744Z" fill="#E8A30C"/>
<path fill-rule="evenodd" clip-rule="evenodd" d="M14.6455 11.6369C14.3896 11.4146 14.2614 11.1432 14.3591 11.0309C14.4567 10.9186 14.7432 11.0078 14.9991 11.2302C15.2549 11.4525 15.3831 11.7239 15.2855 11.8362C15.1878 11.9485 14.9013 11.8593 14.6455 11.6369Z" fill="#E1E5E8"/>
<path fill-rule="evenodd" clip-rule="evenodd" d="M13.0396 16.6598L13.5911 16.6543C14.0006 17.0592 14.0383 17.6039 13.7159 18.2619C13.7159 18.2619 13.6101 18.4148 13.5731 18.4005C13.5212 18.3805 13.4491 18.159 13.4491 18.159C13.4737 17.5165 13.0641 17.091 13.0396 16.6598Z" fill="#D52C1E"/>
<path fill-rule="evenodd" clip-rule="evenodd" d="M13.7397 16.6762L13.5414 16.584C13.3459 16.99 13.4439 17.4105 13.8209 17.8281L13.985 17.685C13.8209 17.206 13.8209 17.0076 13.7397 16.6762Z" fill="#FFE000"/>
<path d="M13.9928 16.6641L13.7859 16.6035C13.6864 16.9436 13.7361 17.2944 13.9315 17.6504L14.1205 17.5467C13.9515 17.2389 13.9101 16.9466 13.9928 16.6641Z" fill="#027934"/>
<path fill-rule="evenodd" clip-rule="evenodd" d="M10.3522 13.8888C10.3522 15.4479 11.5035 16.7453 12.9745 16.7453C14.4456 16.7453 15.5968 15.4479 15.5968 13.8888C15.5968 12.3297 14.4456 11.0322 12.9745 11.0322C11.5035 11.0322 10.3522 12.3297 10.3522 13.8888ZM14.9872 13.8884C14.9872 15.1386 14.0879 16.152 12.9786 16.152C11.8693 16.152 10.9701 15.1386 10.9701 13.8884C10.9701 12.6382 11.8693 11.6247 12.9786 11.6247C14.0879 11.6247 14.9872 12.6382 14.9872 13.8884Z" fill="#00A6DE"/>
<path fill-rule="evenodd" clip-rule="evenodd" d="M12.9793 16.1514C14.0886 16.1514 14.9879 15.1379 14.9879 13.8877C14.9879 12.6375 14.0886 11.624 12.9793 11.624C11.87 11.624 10.9707 12.6375 10.9707 13.8877C10.9707 15.1379 11.87 16.1514 12.9793 16.1514Z" fill="#FFC036"/>
<mask id="mask3_1_15753" style="mask-type:alpha" maskUnits="userSpaceOnUse" x="10" y="11" width="5" height="6">
<path fill-rule="evenodd" clip-rule="evenodd" d="M12.9793 16.1514C14.0886 16.1514 14.9879 15.1379 14.9879 13.8877C14.9879 12.6375 14.0886 11.624 12.9793 11.624C11.87 11.624 10.9707 12.6375 10.9707 13.8877C10.9707 15.1379 11.87 16.1514 12.9793 16.1514Z" fill="white"/>
</mask>
<g mask="url(#mask3_1_15753)">
<path fill-rule="evenodd" clip-rule="evenodd" d="M12.9803 13.4839L12.7195 14.0214L12.7261 13.4279L12.2497 13.8029L12.5222 13.2708L11.9246 13.4091L12.4091 13.0439L11.8086 12.918L12.4091 12.792L11.9246 12.4269L12.5222 12.5651L12.2497 12.0331L12.7261 12.4081L12.7195 11.8145L12.9803 12.3521L13.241 11.8145L13.2345 12.4081L13.7108 12.0331L13.4383 12.5651L14.0359 12.4269L13.5514 12.792L14.1519 12.918L13.5514 13.0439L14.0359 13.4091L13.4383 13.2708L13.7108 13.8029L13.2345 13.4279L13.241 14.0214L12.9803 13.4839Z" fill="#D52C1E"/>
<path fill-rule="evenodd" clip-rule="evenodd" d="M10.8893 14.0172C10.8893 14.0172 12.4601 12.9111 12.846 12.9111C13.2318 12.9111 14.878 14.0232 15.2147 14.1745C15.5515 14.3258 15.2147 17.2922 15.2147 17.2922H10.7591L10.8893 14.0172Z" fill="#027934"/>
</g>
<path fill-rule="evenodd" clip-rule="evenodd" d="M10.8698 12.7028L10.9666 12.7564C11.4959 11.8632 12.1693 11.4202 12.9907 11.4202C13.9103 11.4714 14.5991 11.9733 15.0589 12.9331L15.1601 12.8879C14.6839 11.8937 13.9601 11.3662 12.9939 11.3125C12.1258 11.3124 11.4176 11.7783 10.8698 12.7028ZM10.48 14.4259L10.6604 14.3047L10.8408 14.4259L10.7771 14.2227L10.9522 14.0945L10.7325 14.0902L10.6604 13.8896L10.5882 14.0902L10.3685 14.0945L10.5436 14.2227L10.48 14.4259ZM10.8889 15.1129L10.7085 15.2342L10.7722 15.031L10.5971 14.9027L10.8168 14.8984L10.8889 14.6979L10.9611 14.8984L11.1807 14.9027L11.0056 15.031L11.0693 15.2342L10.8889 15.1129ZM11.1486 15.8806L11.329 15.7593L11.5094 15.8806L11.4457 15.6774L11.6209 15.5492L11.4012 15.5448L11.329 15.3443L11.2569 15.5448L11.0372 15.5492L11.2123 15.6774L11.1486 15.8806ZM11.9976 16.2989L11.8173 16.4201L11.8809 16.2169L11.7058 16.0887L11.9255 16.0844L11.9976 15.8839L12.0698 16.0844L12.2895 16.0887L12.1144 16.2169L12.178 16.4201L11.9976 16.2989ZM12.7736 16.6888L12.954 16.5676L13.1344 16.6888L13.0707 16.4857L13.2459 16.3574L13.0262 16.3531L12.954 16.1526L12.8819 16.3531L12.6622 16.3574L12.8373 16.4857L12.7736 16.6888ZM15.294 14.3047L15.4744 14.4259L15.4108 14.2227L15.5859 14.0945L15.3662 14.0902L15.294 13.8896L15.2219 14.0902L15.0022 14.0945L15.1773 14.2227L15.1137 14.4259L15.294 14.3047ZM15.2544 15.2342L15.074 15.1129L14.8936 15.2342L14.9573 15.031L14.7821 14.9027L15.0018 14.8984L15.074 14.6979L15.1461 14.8984L15.3658 14.9027L15.1907 15.031L15.2544 15.2342ZM14.6254 15.7593L14.8058 15.8806L14.7422 15.6774L14.9173 15.5492L14.6976 15.5448L14.6254 15.3443L14.5533 15.5448L14.3336 15.5492L14.5087 15.6774L14.4451 15.8806L14.6254 15.7593ZM14.1372 16.4201L13.9568 16.2989L13.7764 16.4201L13.8401 16.2169L13.665 16.0887L13.8847 16.0844L13.9568 15.8839L14.029 16.0844L14.2487 16.0887L14.0735 16.2169L14.1372 16.4201Z" fill="#FFC036"/>
<path d="M11.5732 7.59082L11.7886 7.74749C11.2367 8.24267 11.1329 8.79487 11.2386 9.26926C11.3487 9.76348 11.8381 10.2907 12.7278 10.832L12.4007 11.3337C11.3847 10.7155 10.7996 10.1435 10.6479 9.46226C10.4917 8.7612 10.8751 8.21721 11.5732 7.59082Z" fill="#036A2D"/>
<path d="M14.5029 7.59082L14.2876 7.74749C14.8395 8.24267 14.9432 8.79487 14.8376 9.26926C14.7275 9.76348 14.2381 10.2907 13.3484 10.832L13.6755 11.3337C14.6914 10.7155 15.2765 10.1435 15.4283 9.46226C15.5844 8.7612 15.2011 8.21721 14.5029 7.59082Z" fill="#036A2D"/>
<path fill-rule="evenodd" clip-rule="evenodd" d="M9.50686 9.59955C9.50686 9.59955 10.4488 8.94833 10.8957 8.94833C11.3426 8.94833 11.9391 8.79916 12.0326 9.14178C12.1261 9.4844 12.3029 9.38518 12.649 9.38518C12.9952 9.38518 13.6754 9.38518 13.6754 9.38518C13.6754 9.38518 13.4723 8.94833 13.8487 8.94833C14.2252 8.94833 15.7976 9.1708 16.2722 9.38518C16.7468 9.59955 16.7707 9.72628 16.7707 9.72628C16.7707 9.72628 16.3315 9.47282 15.8455 9.59955C15.3596 9.72628 14.4783 10.2843 14.0769 10.2843C13.6754 10.2843 13.3541 10.7156 13.3541 10.7156C13.3541 10.7156 13.3806 10.4945 13.0148 10.605C12.649 10.7156 12.6576 11.2363 12.3451 11.1407C12.0326 11.0451 12.4351 10.2843 12.3451 10.2843C12.255 10.2843 11.617 10.0342 11.617 10.0342C11.617 10.0342 10.9979 9.47282 10.0785 9.59955C9.1592 9.72628 9.50686 9.59955 9.50686 9.59955Z" fill="#452C24"/>
<path fill-rule="evenodd" clip-rule="evenodd" d="M12.8608 10.0626C13.0457 10.0626 13.1956 9.92988 13.1956 9.76616C13.1956 9.60244 13.0457 9.46973 12.8608 9.46973C12.6759 9.46973 12.526 9.60244 12.526 9.76616C12.526 9.92988 12.6759 10.0626 12.8608 10.0626Z" fill="#E7E7E7"/>
<path fill-rule="evenodd" clip-rule="evenodd" d="M12.1367 9.75841C12.1367 9.75841 12.245 9.55371 12.4595 9.55371C12.6741 9.55371 13.0764 9.55371 13.0764 9.65606C13.0764 9.75841 13.1087 9.89212 12.7841 9.89212C12.4595 9.89212 12.6675 9.75841 12.4595 9.75841C12.2516 9.75841 12.1367 9.75841 12.1367 9.75841Z" fill="#E8A30C"/>
<path fill-rule="evenodd" clip-rule="evenodd" d="M15.9679 11.1406C16.0926 11.01 16.1623 10.6932 16.1623 10.6932C16.1623 10.6932 15.6053 10.7824 15.4756 10.6932C15.3459 10.6041 15.2787 10.3428 15.2787 10.3428C15.2787 10.3428 14.7768 10.5721 14.9682 10.5721C15.1596 10.5721 15.2787 10.7417 15.2787 10.7417L15.6681 10.8852C15.6681 10.8852 15.4095 11.1406 15.5388 11.1406C15.6681 11.1406 15.8432 11.2712 15.9679 11.1406Z" fill="#E1E5E8"/>
<path d="M14.9855 11.249L14.9154 11.1652L15.4047 10.7822L15.4748 10.866L14.9855 11.249Z" fill="#925229"/>
</g>
</g>
</g>
</svg>
