<svg width="26" height="26" viewBox="0 0 26 26" fill="none" xmlns="http://www.w3.org/2000/svg">
<mask id="mask0_1_15720" style="mask-type:alpha" maskUnits="userSpaceOnUse" x="0" y="0" width="26" height="26">
<circle cx="13" cy="13" r="13" fill="#634848"/>
</mask>
<g mask="url(#mask0_1_15720)">
<rect x="1" y="5" width="24" height="16" fill="white"/>
<rect x="-1" y="-1" width="28" height="28" fill="#05AB41"/>
<path fill-rule="evenodd" clip-rule="evenodd" d="M4.23066 13.5711C3.8013 13.3118 3.8013 12.6891 4.23066 12.4298L12.6554 7.34193C12.8673 7.21393 13.1327 7.21393 13.3446 7.34193L21.7693 12.4298C22.1987 12.6891 22.1987 13.3118 21.7693 13.5711L13.3446 18.659C13.1327 18.787 12.8673 18.787 12.6554 18.659L4.23066 13.5711Z" fill="#FDD216"/>
<path fill-rule="evenodd" clip-rule="evenodd" d="M13 16.7333C15.2091 16.7333 17 15.0618 17 12.9999C17 10.9381 15.2091 9.2666 13 9.2666C10.7909 9.2666 9 10.9381 9 12.9999C9 15.0618 10.7909 16.7333 13 16.7333Z" fill="#053087"/>
<mask id="mask1_1_15720" style="mask-type:alpha" maskUnits="userSpaceOnUse" x="9" y="9" width="8" height="8">
<path fill-rule="evenodd" clip-rule="evenodd" d="M13 16.7333C15.2091 16.7333 17 15.0618 17 12.9999C17 10.9381 15.2091 9.2666 13 9.2666C10.7909 9.2666 9 10.9381 9 12.9999C9 15.0618 10.7909 16.7333 13 16.7333Z" fill="white"/>
</mask>
<g mask="url(#mask1_1_15720)">
<path d="M8.52567 12.0245C9.1537 11.5498 11.1803 11.9995 13.0721 12.4704C14.9638 12.9414 16.9369 13.9287 17.4392 14.5077" stroke="white" stroke-width="1.33333" stroke-linecap="square"/>
</g>
</g>
</svg>
