<svg width="26" height="26" viewBox="0 0 26 26" fill="none" xmlns="http://www.w3.org/2000/svg">
<mask id="mask0_1_17735" style="mask-type:alpha" maskUnits="userSpaceOnUse" x="0" y="0" width="26" height="26">
<circle cx="13" cy="13" r="13" fill="#634848"/>
</mask>
<g mask="url(#mask0_1_17735)">
<g clip-path="url(#clip0_1_17735)">
<path d="M-3.99469 0H30.0106V26H-3.99469V0Z" fill="#FFD520"/>
<path d="M-3.99469 26H30.0106V0L-3.99469 26Z" fill="#FF4E12"/>
<path d="M14.3494 8.12436C14.1369 8.05395 13.9988 8.16228 14.0094 8.44395C14.0094 8.7202 14.1581 8.87728 14.3706 8.77436L14.3494 8.12436V8.12436Z" fill="white" stroke="black" stroke-width="0.05"/>
<path d="M14.5353 7.60426C14.36 7.46343 14.1953 7.52301 14.1103 7.78843C14.0306 8.05926 14.1156 8.25426 14.3494 8.22176L14.5353 7.60426Z" fill="white" stroke="black" stroke-width="0.05"/>
<path d="M14.8275 7.09516C14.6788 6.93266 14.5088 6.96516 14.3813 7.21433C14.2591 7.4635 14.3122 7.67475 14.5513 7.68558L14.8275 7.10058V7.09516ZM14.6363 9.55975C14.3759 9.65725 14.3494 10.0202 14.5141 10.2422C14.6734 10.4643 14.9763 10.5077 15.1409 10.2422L14.6363 9.55975Z" fill="white" stroke="black" stroke-width="0.05"/>
<path d="M14.3334 8.79064C14.0891 8.70939 13.8659 9.04523 13.8288 9.34856C13.7809 9.72773 13.2444 9.85773 13.5419 10.4373C13.6056 10.069 13.8447 9.86314 14.0359 9.85231C14.2272 9.83606 14.5141 9.79814 14.6363 9.55981L14.3334 8.79064V8.79064ZM15.1144 10.2856C14.8275 10.3561 14.785 10.7461 14.9922 11.0223C15.1675 11.2606 15.72 11.2065 15.7041 10.9681L15.1197 10.2856H15.1144ZM15.9272 12.6365C15.9431 12.3819 15.5447 12.2844 15.3534 12.3331C15.1622 12.3873 14.7956 12.3277 14.7159 12.1165C14.6416 12.2844 14.7425 12.4686 15.0188 12.5606C15.2313 12.6256 15.2259 12.7773 15.1622 12.8531C15.3216 12.8802 15.7838 12.8802 15.9272 12.6365V12.6365Z" fill="white" stroke="black" stroke-width="0.05"/>
<path d="M15.7041 11.0334C15.4225 10.9034 15.2578 11.0984 15.1516 11.2826C14.9922 11.5534 14.5088 11.2068 14.3441 11.5697C14.5672 11.4722 14.7903 11.678 14.8966 11.7484C15.1994 11.9488 15.7784 11.8893 15.8634 11.4126L15.7041 11.0334V11.0334Z" fill="white" stroke="black" stroke-width="0.05"/>
<path d="M15.8687 11.3633C15.5872 11.5799 15.4756 11.8399 15.4862 12.0133C15.4916 12.1866 15.7306 12.5712 15.9909 12.5929C16.1397 12.2787 16.2194 11.6179 15.8687 11.3633ZM14.7 12.712C14.7 12.6037 14.8487 12.5658 14.955 12.6037C15.0559 12.6362 15.2153 12.7391 15.1569 12.8529L14.7 12.712ZM13.1594 12.1324C13.1328 12.0079 13.3294 11.7912 13.595 11.9104C13.8606 12.0295 13.8978 12.257 13.7862 12.3491L13.1594 12.1324Z" fill="white" stroke="black" stroke-width="0.05"/>
<path d="M13.8075 12.3713C13.7863 12.3008 13.9828 12.16 14.3069 12.2413C14.6363 12.3279 14.7159 12.5446 14.7053 12.7125L13.8075 12.3713V12.3713ZM13.1222 12.1383C13.2975 12.0083 13.2284 11.7592 13.0744 11.6779C12.7981 11.5371 12.8991 11.1796 12.7184 11.1092C12.5431 11.0388 12.3731 10.9142 12.3625 10.7842C12.2775 10.9629 12.3306 11.12 12.4528 11.2338C12.575 11.3421 12.3572 11.7971 12.5166 11.9163L13.1222 12.1383ZM9.45656 12.0408C9.31313 11.8133 8.97313 11.8513 8.82969 12.0138C8.68625 12.1763 8.7075 12.4092 8.84031 12.5175L9.45656 12.0408V12.0408ZM10.28 11.6996C10.2269 11.3908 9.86031 11.3583 9.66375 11.4342C9.46188 11.51 9.32906 11.8188 9.45656 12.0408L10.28 11.6996V11.6996Z" fill="white" stroke="black" stroke-width="0.05"/>
<path d="M10.8219 11.6562C10.9547 11.4016 10.6997 11.017 10.4128 10.9629C10.1737 10.9087 9.89219 10.9141 9.79656 10.6758C9.74344 10.8816 9.89218 11.017 10.0728 11.1362C10.2481 11.2554 10.0409 11.5587 10.3278 11.732L10.8272 11.6562H10.8219Z" fill="white" stroke="black" stroke-width="0.05"/>
<path d="M10.8006 11.6669C10.7369 11.4827 10.8591 11.2336 11.1034 11.2552C11.3531 11.2715 11.4913 11.4502 11.385 11.6831L10.8006 11.6669Z" fill="white" stroke="black" stroke-width="0.05"/>
<path d="M11.3478 11.6831C11.3106 11.4881 11.4647 11.2606 11.7091 11.3148C11.9481 11.3689 12.0597 11.5693 11.9216 11.7752L11.3478 11.6777V11.6831Z" fill="white" stroke="black" stroke-width="0.05"/>
<path d="M11.8844 11.7696C11.8631 11.5746 12.0278 11.3579 12.2669 11.4229C12.5059 11.4879 12.6069 11.6937 12.4581 11.8941L11.8897 11.7696H11.8844ZM7.76187 14.9654C7.29969 14.9654 7.18812 15.0737 7.12437 15.5612C7.03937 16.1571 7.84156 16.2275 7.76187 14.9654Z" fill="white" stroke="black" stroke-width="0.05"/>
<path d="M7.96375 14.3369C7.2625 14.066 6.88 15.2035 6.17875 14.9977C6.42844 15.4039 7.03406 14.9977 7.2625 15.041C7.645 15.1114 8.47375 14.9652 7.96375 14.3369ZM7.50688 15.8914C7.15625 15.7289 6.78438 16.2706 6.84813 16.5144C6.93844 16.8123 7.73531 16.5685 7.50688 15.8914ZM5.88125 18.2369C6.0725 18.291 6.30625 18.3994 6.26375 18.7785C6.22125 19.1577 5.52 19.9214 4.89312 19.9702C4.26625 20.0081 4.04313 20.7827 3.49594 20.566C4.00594 20.4685 4.00594 19.8835 4.39906 19.6994C4.11219 19.591 3.96344 20.2573 3.59156 20.2573C3.21969 20.2573 3.04438 20.8585 2.59281 20.8152C2.14125 20.7773 2.09875 21.5464 1.19031 21.5573C0.499688 21.5627 -0.350312 22.386 -0.66375 22.0285C0.0109378 21.931 0.281875 21.5519 0.680313 21.1348C1.31781 20.4685 2.04563 20.7664 2.29531 20.176C2.00855 20.3733 1.66901 20.4755 1.32313 20.4685C0.898125 20.4577 0.44125 21.151 -0.0315623 20.8477C0.239375 20.8098 0.42 20.6906 0.706875 20.3819C0.999063 20.0677 1.43469 20.2735 1.77469 19.9485C2.30594 19.4502 2.76813 19.8673 3.27813 19.2444C3.13469 19.1685 2.82656 19.2173 2.53969 19.3744C2.25281 19.526 1.88625 19.266 1.55688 19.4502C1.59406 19.0385 2.36438 19.2714 2.8425 18.9898C3.38438 18.6648 3.83062 18.7623 4.25562 18.8002C3.66062 18.8002 3.43219 18.2206 2.60875 18.3885C2.25281 18.4644 1.96594 17.8848 1.61 18.1773C1.62063 17.9606 1.9925 17.7873 2.375 17.9985C2.7575 18.2098 2.91156 17.8144 3.67656 18.3073C3.99531 18.5077 4.53188 18.1773 4.87188 18.3939C4.82938 18.2639 4.63281 18.1773 4.40438 18.1989C4.54781 17.8956 5.4775 17.9335 5.88125 18.2369V18.2369Z" fill="white" stroke="black" stroke-width="0.05"/>
<path d="M6.48688 17.7823C6.18938 17.544 5.76969 17.8311 5.4775 17.7173C5.4775 17.9123 5.57844 18.2048 5.89188 18.3186C5.9875 18.2482 6.42313 17.8636 6.48688 17.7823V17.7823Z" fill="white" stroke="black" stroke-width="0.05"/>
<path d="M6.95969 17.1052C6.48688 16.8615 6.40719 17.4681 6.03531 17.3436C6.05125 17.5169 6.18938 17.7336 6.48688 17.7823L6.965 17.1052H6.95969Z" fill="white" stroke="black" stroke-width="0.05"/>
<path d="M7.24125 16.5523C6.54531 16.2761 6.455 16.9586 6.04594 16.8231C6.14156 17.0615 6.72594 17.1915 7.02875 17.1048L7.24125 16.5523ZM8.1975 13.5623C8.01156 13.2915 7.62375 13.5081 7.56 13.8277C7.50156 14.1419 7.65031 14.5806 7.91062 14.4777L8.1975 13.5569V13.5623Z" fill="white" stroke="black" stroke-width="0.05"/>
<path d="M8.67031 12.7282C8.35156 12.647 7.97969 12.6849 8.02219 12.999C7.89469 13.0586 7.86281 13.4703 8.1975 13.5624L8.67031 12.7228V12.7282Z" fill="white" stroke="black" stroke-width="0.05"/>
<path d="M8.88281 12.5118C8.56406 12.1326 8.21875 12.1381 8.02219 12.2951C7.65563 12.5931 7.305 12.4251 7.29438 12.7176C7.51219 12.5443 7.70875 12.7501 7.87875 12.6906C8.05938 12.6256 8.19219 12.9776 8.68625 12.8314L8.88281 12.5064V12.5118ZM8.12313 18.1397C8.17094 18.2318 8.46313 18.2697 8.60656 18.1181C8.79781 17.9122 8.59063 17.3489 8.28781 17.3056C7.985 17.2676 7.95844 17.9447 8.12313 18.1397Z" fill="white" stroke="black" stroke-width="0.05"/>
<path d="M7.78313 18.1501C8.20813 18.3126 8.39406 17.9497 8.16563 17.7168C8.04781 17.8698 7.92002 18.0146 7.78313 18.1501Z" fill="white" stroke="black" stroke-width="0.05"/>
<path d="M6.16812 18.7514C6.08312 19.006 5.65812 19.0439 5.18 19.8239C4.70187 20.6093 4.245 20.2789 4.12812 20.8151C4.70187 20.3439 5.15344 20.6526 5.49875 20.1868C6.01406 19.4772 6.44437 19.5801 6.64625 19.1035C6.93312 18.4155 8.18687 18.4318 8.26125 17.3539C7.83625 17.2726 6.49219 18.4318 6.16812 18.7514ZM16.9631 8.20513C17.5103 8.3893 17.5209 9.10971 18.1531 9.34805C18.78 9.58638 18.8438 10.1605 19.3591 10.0197C18.8809 9.8843 18.9128 9.32096 18.4134 9.18013C17.8291 9.01763 17.6059 8.10763 17.1384 7.9668M19.4759 11.9914C19.5716 12.2189 19.5556 12.6143 19.2103 12.7172C19.3962 12.8364 19.6725 12.728 19.8212 12.468C19.5981 12.9772 19.7469 13.4376 20.1028 13.5297C19.9328 13.1722 20.3153 13.0043 20.1931 12.7714C20.4162 12.8743 20.6181 13.1885 20.6075 13.3835C20.905 13.0476 20.395 12.598 20.4853 12.2839L19.4759 11.9914ZM15.9219 15.5772C15.5872 15.2793 15.4437 15.6585 15.2844 15.523C15.125 15.4039 14.9231 15.3876 14.8434 15.5068C15.1303 15.5176 14.9922 15.7451 15.55 15.7993C14.9922 15.8372 15.0931 16.4764 14.7212 16.4439C15.1144 16.823 15.3216 16.1026 15.6456 16.2218C15.55 16.2489 15.7944 16.4764 15.6244 16.7851C15.9006 16.7797 16.0122 16.3897 16.0494 16.1893L15.9219 15.5772V15.5772ZM8.5375 18.838C8.42062 18.7297 8.05937 18.681 7.92656 18.7676C7.78844 18.8489 7.83625 18.876 8.00094 18.8868C8.16562 18.8976 8.37281 19.1685 8.02219 19.1847C7.8575 19.1901 7.91594 19.5964 7.57062 19.6235C7.70875 19.7968 8.1125 19.683 8.25594 19.4935C8.22937 19.6505 8.43125 19.7914 8.35156 19.981C8.60125 20.008 8.45781 19.4555 8.85625 19.4826C8.69687 19.5043 8.76062 19.8835 9.0475 19.786C8.8775 19.8672 8.96781 20.073 9.15375 20.0243C9.03687 20.0622 8.99437 20.2247 9.16437 20.3168C9.32906 20.0839 9.14312 19.2605 8.54281 18.838H8.5375ZM23.4444 11.141C23.5749 11.1509 23.706 11.1333 23.8295 11.0893C23.953 11.0452 24.0663 10.9756 24.1622 10.8848C24.2581 10.7941 24.3347 10.6841 24.387 10.5618C24.4393 10.4395 24.4663 10.3075 24.4663 10.1741C24.4663 10.0407 24.4393 9.90867 24.387 9.78637C24.3347 9.66407 24.2581 9.5541 24.1622 9.46335C24.0663 9.37259 23.953 9.303 23.8295 9.25892C23.706 9.21485 23.5749 9.19725 23.4444 9.20721C23.2051 9.22548 22.9815 9.33528 22.8183 9.51459C22.6551 9.6939 22.5645 9.92948 22.5645 10.1741C22.5645 10.4187 22.6551 10.6543 22.8183 10.8336C22.9815 11.0129 23.2051 11.1227 23.4444 11.141V11.141Z" fill="white"/>
<path d="M16.9631 8.20513C17.5103 8.3893 17.5209 9.10971 18.1531 9.34805C18.78 9.58638 18.8438 10.1605 19.3591 10.0197C18.8809 9.8843 18.9128 9.32096 18.4134 9.18013C17.8291 9.01763 17.6059 8.10763 17.1384 7.9668M6.16812 18.7514C6.08312 19.006 5.65812 19.0439 5.18 19.8239C4.70187 20.6093 4.245 20.2789 4.12812 20.8151C4.70187 20.3439 5.15344 20.6526 5.49875 20.1868C6.01406 19.4772 6.44437 19.5801 6.64625 19.1035C6.93312 18.4155 8.18687 18.4318 8.26125 17.3539C7.83625 17.2726 6.49219 18.4318 6.16812 18.7514ZM19.4759 11.9914C19.5716 12.2189 19.5556 12.6143 19.2103 12.7172C19.3962 12.8364 19.6725 12.728 19.8212 12.468C19.5981 12.9772 19.7469 13.4376 20.1028 13.5297C19.9328 13.1722 20.3153 13.0043 20.1931 12.7714C20.4162 12.8743 20.6181 13.1885 20.6075 13.3835C20.905 13.0476 20.395 12.598 20.4853 12.2839L19.4759 11.9914ZM15.9219 15.5772C15.5872 15.2793 15.4437 15.6585 15.2844 15.523C15.125 15.4039 14.9231 15.3876 14.8434 15.5068C15.1303 15.5176 14.9922 15.7451 15.55 15.7993C14.9922 15.8372 15.0931 16.4764 14.7212 16.4439C15.1144 16.823 15.3216 16.1026 15.6456 16.2218C15.55 16.2489 15.7944 16.4764 15.6244 16.7851C15.9006 16.7797 16.0122 16.3897 16.0494 16.1893L15.9219 15.5772V15.5772ZM8.5375 18.838C8.42062 18.7297 8.05937 18.681 7.92656 18.7676C7.78844 18.8489 7.83625 18.876 8.00094 18.8868C8.16562 18.8976 8.37281 19.1685 8.02219 19.1847C7.8575 19.1901 7.91594 19.5964 7.57062 19.6235C7.70875 19.7968 8.1125 19.683 8.25594 19.4935C8.22937 19.6505 8.43125 19.7914 8.35156 19.981C8.60125 20.008 8.45781 19.4555 8.85625 19.4826C8.69687 19.5043 8.76062 19.8835 9.0475 19.786C8.8775 19.8672 8.96781 20.073 9.15375 20.0243C9.03687 20.0622 8.99437 20.2247 9.16437 20.3168C9.32906 20.0839 9.14312 19.2605 8.54281 18.838H8.5375ZM23.4444 11.141C23.5749 11.1509 23.706 11.1333 23.8295 11.0893C23.953 11.0452 24.0663 10.9756 24.1622 10.8848C24.2581 10.7941 24.3347 10.6841 24.387 10.5618C24.4393 10.4395 24.4663 10.3075 24.4663 10.1741C24.4663 10.0407 24.4393 9.90867 24.387 9.78637C24.3347 9.66407 24.2581 9.5541 24.1622 9.46335C24.0663 9.37259 23.953 9.303 23.8295 9.25892C23.706 9.21485 23.5749 9.19725 23.4444 9.20721C23.2051 9.22548 22.9815 9.33528 22.8183 9.51459C22.6551 9.6939 22.5645 9.92948 22.5645 10.1741C22.5645 10.4187 22.6551 10.6543 22.8183 10.8336C22.9815 11.0129 23.2051 11.1227 23.4444 11.141V11.141Z" stroke="black" stroke-width="0.05"/>
<path d="M18.4931 12.3057C18.7853 12.0294 19.2209 11.8886 19.5237 12.0998C19.8212 12.3057 20.82 12.5548 21.3141 12.2082C21.8081 11.8615 22.0419 11.6773 22.2597 11.7207C22.4191 11.9698 22.6209 12.089 22.8653 12.1107C22.9397 12.1973 23.2106 12.2623 23.3594 12.2461C23.5772 12.3002 23.8428 12.2298 24.0553 11.9915C24.3847 12.0457 24.6928 11.7911 24.8097 11.4119C25.1603 11.374 25.1816 10.9786 24.9584 10.7077C24.7566 10.6698 24.9106 9.96025 24.1669 10.1011C24.4856 10.2961 24.2412 10.6861 24.5016 10.8702C24.3262 10.8702 24.0925 10.9461 24.0394 11.2169C24.1084 11.0327 24.0287 10.9027 23.9862 10.8648C23.9862 10.7023 23.6409 10.3069 23.3116 10.4532C23.5453 10.5073 23.4178 10.8865 23.5878 11.0382C23.5233 11.0408 23.4602 11.0583 23.4031 11.0892C23.3461 11.1202 23.2967 11.1638 23.2584 11.2169C23.1681 11.0544 22.8547 10.8919 22.6634 10.8757C22.6634 10.8215 22.6528 10.7132 22.6262 10.6536C22.5412 10.4857 22.4669 10.2852 22.5041 10.0307C22.3487 10.2171 22.2199 10.425 22.1216 10.6482C21.8612 10.464 21.2184 10.7294 20.9156 10.7998C20.6181 10.8702 19.6034 10.7023 19.375 10.4532C19.0499 10.1882 18.6674 10.0062 18.2594 9.92233C17.675 9.749 17.675 9.099 17.0322 8.64941C17.0162 9.46191 18.2222 12.0294 18.4931 12.3057V12.3057ZM11.7887 18.4752C12.0325 18.4752 12.2663 18.3765 12.4386 18.2008C12.611 18.025 12.7078 17.7867 12.7078 17.5382C12.7078 17.2896 12.611 17.0513 12.4386 16.8755C12.2663 16.6998 12.0325 16.6011 11.7887 16.6011C11.545 16.6011 11.3112 16.6998 11.1389 16.8755C10.9665 17.0513 10.8697 17.2896 10.8697 17.5382C10.8697 17.7867 10.9665 18.025 11.1389 18.2008C11.3112 18.3765 11.545 18.4752 11.7887 18.4752Z" fill="white" stroke="black" stroke-width="0.05"/>
<path d="M9.6 17.7548C9.78594 17.9985 10.0994 17.9823 10.2322 17.966C10.3384 18.2585 10.6891 18.2477 10.8378 18.4102C10.9919 18.5727 11.5019 18.5564 11.6506 18.4643C11.5178 18.4535 11.3372 18.3668 11.1725 18.2206C10.96 18.0473 11.0556 17.6898 10.8963 17.5706C10.9464 17.5055 10.9827 17.4304 11.0028 17.3502C11.0229 17.27 11.0265 17.1864 11.0131 17.1048C11.1406 17.0289 11.2363 16.9043 11.2469 16.8393C11.4375 16.83 11.6184 16.7511 11.7569 16.6173C11.8738 16.7256 12.1659 16.5848 12.3253 16.7689C12.3572 16.3085 11.9269 16.0648 11.6347 16.2218C11.5231 16.1568 11.215 16.2002 11.1566 16.2814C11.0662 16.2381 10.7953 16.3789 10.6784 16.471C10.8112 16.3952 10.8325 16.1623 10.7794 16.081C10.8963 16.0268 11.0238 15.8698 11.0397 15.756C11.1991 15.7831 11.4487 15.6693 11.555 15.6964C11.3797 15.4581 11.0875 15.3714 10.7847 15.3985C10.4712 15.4148 10.3384 15.6368 10.2959 15.8752C10.1153 15.9889 10.0516 16.3627 10.1206 16.4981C10.0144 16.4981 9.91344 16.601 9.87625 16.6606C9.71759 16.594 9.54839 16.5573 9.37688 16.5523M9.44594 16.1731C9.38219 15.9889 9.46188 15.8264 9.50438 15.6856C9.61063 15.3173 9.54688 15.2198 9.22281 15.2685C9.24192 15.5815 9.31756 15.8881 9.44594 16.1731V16.1731Z" fill="white"/>
<path d="M9.6 17.7548C9.78594 17.9985 10.0994 17.9823 10.2322 17.966C10.3384 18.2585 10.6891 18.2477 10.8378 18.4102C10.9919 18.5727 11.5019 18.5564 11.6506 18.4643C11.5178 18.4535 11.3372 18.3668 11.1725 18.2206C10.96 18.0473 11.0556 17.6898 10.8963 17.5706C10.9464 17.5055 10.9827 17.4304 11.0028 17.3502C11.0229 17.27 11.0265 17.1864 11.0131 17.1048C11.1406 17.0289 11.2363 16.9043 11.2469 16.8393C11.4375 16.83 11.6184 16.7511 11.7569 16.6173C11.8738 16.7256 12.1659 16.5848 12.3253 16.7689C12.3572 16.3085 11.9269 16.0648 11.6347 16.2218C11.5231 16.1568 11.215 16.2002 11.1566 16.2814C11.0662 16.2381 10.7953 16.3789 10.6784 16.471C10.8112 16.3952 10.8325 16.1623 10.7794 16.081C10.8963 16.0268 11.0238 15.8698 11.0397 15.756C11.1991 15.7831 11.4487 15.6693 11.555 15.6964C11.3797 15.4581 11.0875 15.3714 10.7847 15.3985C10.4712 15.4148 10.3384 15.6368 10.2959 15.8752C10.1153 15.9889 10.0516 16.3627 10.1206 16.4981C10.0144 16.4981 9.91344 16.601 9.87625 16.6606C9.71759 16.594 9.54839 16.5573 9.37688 16.5523M9.44594 16.1731C9.38219 15.9889 9.46188 15.8264 9.50438 15.6856C9.61063 15.3173 9.54688 15.2198 9.22281 15.2685C9.24192 15.5815 9.31756 15.8881 9.44594 16.1731V16.1731Z" stroke="black" stroke-width="0.05"/>
<path d="M9.20687 15.2905C9.29187 15.3772 9.57875 15.4151 9.61063 15.1497C9.64781 14.8464 9.52562 14.7272 9.26531 14.8464C9.24406 14.9168 9.22281 15.1984 9.21219 15.2905H9.20687Z" fill="white" stroke="black" stroke-width="0.05"/>
<path d="M9.27063 14.8352C9.37688 14.8786 9.61594 14.9706 9.74875 14.7106C9.855 14.494 9.71156 14.3315 9.48313 14.3423C9.43 14.4073 9.32375 14.6294 9.27063 14.8352Z" fill="white" stroke="black" stroke-width="0.05"/>
<path d="M9.4725 14.3207C9.49906 14.4073 9.78063 14.6836 9.9825 14.4832C10.1897 14.2828 10.1897 13.9794 9.88156 13.8711C9.80187 13.8819 9.55219 14.1744 9.4725 14.3207V14.3207Z" fill="white" stroke="black" stroke-width="0.05"/>
<path d="M9.88156 13.8662C9.94 14.0449 10.1366 14.3429 10.4925 14.2074C10.8484 14.0666 10.6944 13.6116 10.5297 13.5195C10.2917 13.5889 10.0708 13.7089 9.88156 13.8716V13.8662Z" fill="white" stroke="black" stroke-width="0.05"/>
<path d="M10.5297 13.5189C10.5031 13.676 10.5297 14.0931 11.0184 14.0877C11.5019 14.0768 11.3691 13.4973 11.2416 13.416C11.045 13.416 10.7103 13.4214 10.5297 13.5243V13.5189Z" fill="white" stroke="black" stroke-width="0.05"/>
<path d="M11.2628 13.4326C11.2097 13.5572 11.0875 14.3372 12.0384 14.1205C12.1606 14.0935 12.4794 13.373 11.2628 13.438V13.4326Z" fill="white" stroke="black" stroke-width="0.05"/>
<path d="M11.7834 13.5086C11.6878 13.6061 11.9322 14.3915 12.5803 14.2615C13.2178 14.1261 12.6813 13.3786 11.7834 13.5032V13.5086Z" fill="white" stroke="black" stroke-width="0.05"/>
<path d="M12.3306 13.6279C12.2244 13.8446 12.3837 14.4838 13.1753 14.4838C13.8925 14.4838 13.1381 13.6388 12.3306 13.6279V13.6279Z" fill="white" stroke="black" stroke-width="0.05"/>
<path d="M12.9522 13.8118C12.8991 13.9364 12.8406 14.6135 13.7756 14.6731C14.4503 14.7164 14.2856 13.736 12.9522 13.8118V13.8118Z" fill="white" stroke="black" stroke-width="0.05"/>
<path d="M13.9562 14.0986C13.8447 14.3099 13.7225 14.8299 14.7478 14.8732C15.4012 14.9003 14.9975 14.1149 13.9616 14.0986H13.9562Z" fill="white" stroke="black" stroke-width="0.05"/>
<path d="M14.8116 14.2615C14.6628 14.4673 14.7744 14.879 15.1569 14.9548C15.635 15.0523 15.7041 14.5919 15.3747 14.3698C15.0453 14.1531 14.8116 14.2615 14.8116 14.2615Z" fill="white" stroke="black" stroke-width="0.05"/>
<path d="M15.2844 14.3535C15.1728 14.5539 15.2366 15.0252 15.9644 15.0252C16.1131 15.0252 16.6869 14.4293 15.2791 14.3589L15.2844 14.3535ZM9.65844 23.4535C9.94023 23.4535 10.2105 23.3394 10.4097 23.1362C10.609 22.9331 10.7209 22.6575 10.7209 22.3702C10.7209 22.0829 10.609 21.8073 10.4097 21.6041C10.2105 21.401 9.94023 21.2868 9.65844 21.2868C9.37665 21.2868 9.1064 21.401 8.90714 21.6041C8.70788 21.8073 8.59594 22.0829 8.59594 22.3702C8.59594 22.6575 8.70788 22.9331 8.90714 23.1362C9.1064 23.3394 9.37665 23.4535 9.65844 23.4535V23.4535Z" fill="white" stroke="black" stroke-width="0.05"/>
<path d="M17.4678 7.67522C17.3531 7.80555 17.2566 7.95137 17.1809 8.10856C16.825 9.19189 17.7759 10.0044 18.3284 11.1798C18.5558 11.7087 18.6477 12.2878 18.5957 12.8629C18.5436 13.4379 18.3493 13.9901 18.0309 14.4677C17.7972 14.7819 17.8662 14.874 17.5634 15.1936C17.4466 15.3181 17.3191 15.4752 17.3616 15.9194C17.5528 15.849 17.8237 16.0277 17.8769 16.1902C18.015 16.1144 18.2062 16.1415 18.2753 16.2281C18.5091 16.1198 18.7003 16.174 18.9075 16.3906C19.0828 16.369 19.2794 16.3906 19.4547 16.5911C19.5503 16.3961 19.7416 16.3202 19.8797 16.369C19.8637 16.1144 20.1081 15.9356 20.3259 16.0331C20.3089 15.9616 20.311 15.8868 20.3319 15.8164C20.3529 15.7459 20.392 15.6825 20.4452 15.6328C20.4983 15.583 20.5636 15.5487 20.6342 15.5333C20.7048 15.518 20.7781 15.5223 20.8466 15.5456C21.0962 15.3506 21.5903 15.3344 21.8347 15.6269C21.3937 15.5023 21.4097 15.979 21.0378 15.9356C21.1334 16.2119 20.8891 16.3744 20.6447 16.4665C20.8041 16.3906 20.9741 16.2986 21.0272 16.3961C21.1653 16.2715 21.4362 16.3202 21.5053 16.3798C21.6859 16.3256 21.8612 16.369 21.9409 16.5911C22.1906 16.7427 22.3553 17.1327 22.1747 17.4252C22.1216 17.1219 21.9144 17.1327 21.8347 17.0081C21.6434 17.0786 21.4522 17.0786 21.3937 16.954C21.2875 17.0623 20.9156 17.1652 20.7562 16.9973C20.6925 17.2465 20.48 17.4577 20.2303 17.4577C20.2994 17.6527 20.1081 17.9831 19.9594 18.1511C20.1931 18.2756 20.1187 18.5573 20.0656 18.7252C20.4269 18.7794 20.1187 19.1044 20.7403 19.3102C20.4375 19.4077 19.8478 19.3102 19.7681 18.9311C19.4653 18.9202 19.2634 18.6115 19.2741 18.2919C19.0403 18.0698 19.0084 17.7502 19.3272 17.5227C19.0562 17.6094 18.9022 17.1598 18.5091 17.344C18.3125 17.4361 17.7919 17.279 17.7972 17.0948C17.7175 17.2302 17.2128 17.1761 17.1491 16.9377C16.9844 17.0298 16.6019 16.8781 16.6072 16.6452C16.3947 16.7427 16.1078 16.5694 16.1237 16.3473C15.9219 16.3202 15.9006 16.1361 15.9112 15.9844C15.7359 15.8977 15.7837 15.7244 15.8581 15.5186C15.7306 15.3777 15.7838 15.1827 15.8794 14.9986C15.7466 14.8577 15.7731 14.6952 15.8103 14.4948C15.1569 14.4406 14.3334 14.2781 12.4475 13.6877C9.6 12.794 8.835 14.8902 9.46187 16.2011C10.1897 17.7177 9.38219 18.0427 9.62656 19.1694C9.89219 19.2236 10.025 19.4511 10.0091 19.6894C10.1684 19.6948 10.2747 19.8411 10.2216 20.1227C10.2937 20.1106 10.3676 20.1156 10.4376 20.1372C10.5076 20.1588 10.5718 20.1964 10.6253 20.2473C10.7209 20.0631 11.0397 20.0198 11.1991 20.2311C11.555 20.204 11.7356 20.5019 11.7197 20.8594C11.8055 21.0233 11.8435 21.2087 11.8294 21.394C11.8153 21.5792 11.7496 21.7564 11.64 21.9048C11.6612 21.7586 11.64 21.5527 11.6347 21.4227C11.6187 21.1952 11.3053 21.1465 11.3372 20.9569C11.1778 20.9731 11.0184 20.8811 10.9653 20.7565C10.9179 20.7982 10.8606 20.8266 10.7991 20.839C10.7377 20.8513 10.6741 20.8472 10.6147 20.8269C10.7953 20.9081 10.9441 21.244 10.8856 21.4661C10.9813 21.634 10.96 21.9427 10.8484 22.0727C10.7953 22.3436 10.5828 22.4411 10.3172 22.3219C10.4713 22.2244 10.5244 22.0511 10.5191 21.9048C10.4294 21.8134 10.3748 21.6924 10.365 21.5636C10.0994 21.6069 9.7275 21.374 9.66375 21.2819C9.52377 21.2819 9.38517 21.3101 9.25592 21.3649C9.12666 21.4196 9.0093 21.4999 8.91056 21.6011C8.81183 21.7023 8.73368 21.8223 8.6806 21.9544C8.62752 22.0865 8.60055 22.2279 8.60125 22.3706C8.56937 22.1486 8.29313 21.9265 8.33031 21.7369C8.16563 21.2223 8.39937 20.7402 9.06875 20.6427C8.98375 20.4477 9.27062 20.2473 9.16437 20.0252C8.95102 19.6296 8.68855 19.2637 8.38344 18.9365C8.61719 18.5302 8.54281 17.9886 8.41 17.6527C8.21344 17.1706 8.0275 17.2898 7.33156 18.0698C6.19469 19.3427 4.67531 18.9906 3.33656 19.8302C2.98063 20.0469 2.62469 20.1336 3.00719 19.7436C3.38969 19.3536 4.39906 18.9636 5.05781 18.6277C6.29031 17.9994 7.33156 16.954 7.74062 14.9173C8.70219 10.129 12.2563 11.7106 14.4981 12.599C16.6072 13.4386 16.2247 11.5427 15.1569 10.3944C13.8713 9.02397 14.1316 7.94064 14.7319 7.07397C15.8103 6.92231 17.8875 7.30689 17.4678 7.67522V7.67522Z" fill="white" stroke="black" stroke-width="0.05"/>
<path d="M21.2822 19.4346C21.436 19.4346 21.5883 19.4038 21.7305 19.3437C21.8726 19.2837 22.0017 19.1957 22.1105 19.0848C22.2193 18.9739 22.3056 18.8422 22.3644 18.6973C22.4233 18.5524 22.4536 18.3971 22.4536 18.2403C22.4536 18.0834 22.4233 17.9281 22.3644 17.7832C22.3056 17.6383 22.2193 17.5066 22.1105 17.3957C22.0017 17.2848 21.8726 17.1968 21.7305 17.1368C21.5883 17.0768 21.436 17.0459 21.2822 17.0459C20.9722 17.0459 20.6749 17.1714 20.4558 17.3949C20.2366 17.6184 20.1134 17.9215 20.1134 18.2376C20.1134 18.5536 20.2366 18.8567 20.4558 19.0802C20.6749 19.3037 20.9722 19.4292 21.2822 19.4292V19.4346Z" fill="white" stroke="black" stroke-width="0.05"/>
<path d="M16.8144 7.72949C16.5487 8.90491 16.7719 9.43574 17.1544 9.95033C17.9459 11.0174 18.5781 13.4495 17.675 15.042" stroke="black" stroke-width="0.05"/>
<path d="M18.1797 13.6663C18.2859 13.6283 18.4984 13.4929 18.5409 13.2654M18.2647 13.1571C18.2966 12.9567 18.6047 12.87 18.61 12.6533M18.27 12.3717C18.2488 12.1604 18.5781 11.9708 18.5303 11.765M18.0894 11.6188C18.0628 11.4996 18.3656 11.2775 18.2806 11.0879M17.8663 10.8821C17.8025 10.7521 18.0097 10.6004 17.9194 10.4596M17.5369 10.2971C17.5156 10.2104 17.6431 10.01 17.5741 9.89083M17.2075 9.60917C17.2341 9.57125 17.3456 9.49 17.3031 9.38708M16.9844 9.1C17.0269 9.07833 17.1597 9.035 17.1438 8.9375" stroke="black" stroke-width="0.05" stroke-linecap="round"/>
<path d="M10.1312 22.2574C9.86562 22.1599 9.52031 22.2953 9.45125 22.5336M9.65844 22.7503C9.69031 22.512 10.0462 22.409 10.1525 22.5174C9.92937 22.3928 9.81781 22.8424 10.0197 22.8532M11.8578 17.2307C11.6984 17.3174 11.6453 17.6207 11.8578 17.8536M12.1022 17.3011C11.9906 17.3986 11.9959 17.6911 12.1659 17.7615C12.0225 17.6532 12.1659 17.4745 12.2722 17.469C12.3731 17.4636 12.4422 17.5882 12.3147 17.7128M21.7178 17.9945C21.3353 17.8861 21.0272 18.3411 21.3778 18.7474C21.3672 18.3574 21.6434 18.0974 21.9781 18.1678M21.8187 18.4386C21.7807 18.4386 21.7442 18.454 21.7173 18.4815C21.6904 18.5089 21.6753 18.5461 21.6753 18.5849C21.6753 18.6607 21.7391 18.7365 21.8453 18.7365C21.9144 18.7365 21.9728 18.6553 21.9728 18.5903M23.1734 9.86945C23.2372 10.1078 23.5559 10.2107 23.8109 10.1511M23.8109 9.99945C23.6144 10.0049 23.4497 9.81529 23.4603 9.6582C23.4603 9.77737 23.7259 9.83154 23.8109 9.7557" stroke="black" stroke-width="0.05" stroke-linecap="round" stroke-linejoin="round"/>
<path d="M10.2322 17.9668C10.1791 17.826 10.3916 17.6851 10.4022 17.5551C10.4075 17.4197 10.6466 17.3168 10.8962 17.566M10.7794 16.0818L10.6466 16.1468M11.2522 16.8401C11.1937 16.8401 11.0716 16.8401 11.0078 16.7914M11.0078 17.1055C10.9653 17.1326 10.8591 17.1705 10.7953 17.1868M8.665 21.3197C8.65437 21.4443 8.78187 21.6285 8.84562 21.6826M9.19625 21.0218C9.15859 21.0823 9.13309 21.1499 9.12124 21.2206C9.10938 21.2912 9.11141 21.3636 9.12719 21.4335M10.2162 21.4335C10.0941 21.3522 10.1737 21.141 10.1631 21.0001C10.1472 20.8593 10.3066 20.6372 10.6147 20.8268M9.06875 20.6372C9.19094 20.6155 9.31844 20.621 9.40344 20.6589M10.6253 20.2418C10.5825 20.3062 10.5569 20.3809 10.5509 20.4585M11.2044 20.2255C11.1087 20.2255 11.0237 20.296 10.9812 20.3664M9.87625 16.656C9.9825 16.6939 10.2694 16.8726 10.28 17.0568M11.0397 15.746C10.705 15.7405 10.5722 15.3939 10.8272 15.3939M11.64 16.2172C11.5125 16.2714 11.5709 16.4989 11.7569 16.6126M10.8378 18.4055C10.7741 18.3189 10.8591 18.0805 11.0716 18.151M11.3372 20.9514C11.3531 20.7347 11.6134 20.6155 11.7197 20.8539M10.365 21.558C10.3491 21.3251 10.4712 21.2493 10.5669 21.233C10.6731 21.2222 10.8166 21.3089 10.8856 21.4605M8.33031 21.7314C8.34094 21.5905 8.45781 21.4443 8.58 21.466M20.8519 15.5401C20.7616 15.6051 20.7031 15.903 21.0378 15.9301M20.3312 16.033C20.3312 16.0655 20.3737 16.1143 20.4003 16.1414M21.9409 16.591C21.8559 16.5205 21.6222 16.8076 21.8347 17.008M19.7628 18.9364C19.715 18.736 19.8956 18.6818 20.0709 18.7251M19.3272 17.5226C19.4334 17.4576 19.5397 17.3764 19.6672 17.3439M19.2741 18.2918C19.2741 18.1293 19.3591 17.983 19.4334 17.9451M19.8797 16.3689C19.8717 16.5443 19.9161 16.7181 20.0072 16.8672M21.5053 16.3797C21.4044 16.4122 21.3194 16.4501 21.2822 16.5368M21.3937 16.9539C21.4469 16.9105 21.5 16.8618 21.5212 16.8293M23.9809 10.8601C23.9809 11.0551 23.7419 11.1635 23.5825 11.0389M24.5016 10.871C24.6078 10.9522 24.9744 10.871 24.8894 10.6543M24.05 11.9922C23.9506 11.9625 23.8608 11.9064 23.7897 11.8297M24.8044 11.4126C24.6822 11.4397 24.5972 11.4126 24.5387 11.3855M22.86 12.1114C22.9796 12.1061 23.097 12.0767 23.2053 12.0247M22.6687 10.8764C22.5784 10.8655 22.5094 10.8818 22.4616 10.9197M24.0447 11.2176C24.0182 11.3248 23.963 11.4223 23.8853 11.4993" stroke="black" stroke-width="0.05" stroke-linecap="round"/>
<path d="M22.4297 11.5265C22.5997 11.4507 22.8122 12.0411 23.2266 11.8353M23.2584 11.2178C23.2009 11.3085 23.1679 11.4132 23.1628 11.5211" stroke="black" stroke-width="0.05" stroke-linecap="round" stroke-linejoin="round"/>
<path d="M15.0719 10.3129C15.125 10.302 15.2259 10.2858 15.2472 10.2154M8.03281 16.8074C8.24 16.9266 8.38344 17.127 8.29844 17.4249M17.4412 9.66827C17.505 9.7116 17.7334 9.7116 17.8662 9.66827M18.0256 9.8091C18.0256 9.9066 18.0522 10.2749 17.8662 10.3508M17.9353 10.3074C18.1053 10.3616 18.4453 10.3399 18.5569 10.0204M18.3178 10.2912C18.4081 10.432 18.4347 10.7029 18.1691 10.8491M18.3816 10.5241C18.5834 10.5891 19.0403 10.5999 18.9925 10.1991M18.8331 10.5241C18.9766 10.7137 19.5769 10.9466 19.4812 10.5404M18.2859 11.082C18.5144 11.1416 18.8437 10.9791 18.7109 10.562M19.3644 10.7733C19.3962 10.9358 20.1612 11.0983 20.0603 10.7354M19.9169 10.9466C20.0603 11.2824 20.82 11.2554 20.5809 10.8058M20.4587 11.1579C20.6075 11.342 21.2822 11.2337 21.0112 10.7787M21.0059 11.147C21.4256 11.472 21.9091 11.0116 21.3778 10.6758M21.6222 11.0441C21.9941 11.342 22.4456 10.8004 22.1216 10.6487M18.7003 10.9195C18.8172 10.952 19.0616 10.9412 19.12 10.7245M19.0244 10.8708C19.0137 11.1849 19.5344 11.3041 19.6672 10.9412M19.4919 11.1416C19.5875 11.3529 20.0497 11.4341 20.1241 11.1362M20.0497 11.277C20.1241 11.4829 20.5225 11.4612 20.6341 11.2445M20.4853 11.3854C20.6075 11.6562 21.1175 11.6562 21.2291 11.2608M21.1441 11.4341C21.3406 11.5587 21.7656 11.5099 21.7284 11.1199M21.6487 11.4016C21.9462 11.6454 22.3606 11.407 22.1534 10.9954M22.1375 11.7212C22.2969 11.6941 22.3766 11.3745 22.2119 11.2879M18.4931 11.7754C18.8119 11.5966 18.8809 11.2879 18.6525 10.9899M18.7694 11.472C18.9766 11.5966 19.3644 11.4612 19.4334 11.1579M19.0509 11.5045C19.1678 11.6562 19.1891 11.8458 19.035 12.0191M19.1412 11.6995C19.5078 11.472 19.9594 11.8945 19.6194 12.1545M19.5662 11.6779C19.6459 11.6562 19.7894 11.5045 19.8 11.3312M19.7256 11.8404C19.8797 11.6779 20.905 12.0029 20.2569 12.3441M20.2037 11.4016C20.4056 11.4774 20.5066 11.7645 20.2037 11.862M20.4694 12.1004C20.6819 11.8674 21.3725 12.0137 21.1228 12.3062M20.9581 12.0083C21.0803 11.5804 21.8134 11.8458 21.5744 12.0191M20.8094 11.5858C20.8306 11.667 20.8359 11.8729 20.7031 11.9866M21.4256 11.4991C21.4404 11.5471 21.4443 11.5979 21.437 11.6477C21.4296 11.6974 21.4112 11.7448 21.3831 11.7862M21.8878 11.5045C21.9303 11.5804 21.9941 11.7266 21.8453 11.8458M16.0334 8.29785C16.0387 8.69327 16.1769 8.95869 16.7028 8.70952M16.1981 8.7691C15.9325 9.1266 16.23 9.51118 16.7453 9.1266M15.3906 8.93702C15.7466 9.32702 16.3841 9.04535 15.975 8.44952M16.4 9.27285C16.3362 9.65743 16.6444 9.73327 16.8941 9.55993M15.0772 9.00202C15.1409 9.3866 15.5287 9.68994 15.9059 9.45702M15.5394 9.53285C15.5394 10.0854 16.2831 10.1449 16.4584 9.57619M16.1928 9.92285C16.4319 10.4266 16.9525 10.2208 17.1225 9.91744M15.6669 9.12118C15.7625 9.36493 15.9537 9.63577 16.3947 9.43535M14.2962 9.00202C14.36 9.20243 14.7159 9.44618 15.125 9.16452M14.5512 9.26202C14.3281 9.58702 14.7637 9.89577 15.295 9.40827M14.8116 9.66285C14.8966 10.1233 15.0772 10.497 15.7147 9.90119M15.3959 10.1395C15.6297 10.432 15.9856 10.6108 16.3203 10.1179" stroke="black" stroke-width="0.05"/>
<path d="M16.5753 10.2266C16.5541 10.5786 16.6178 10.752 16.8888 10.7357C17.1013 10.7249 17.2978 10.557 17.4147 10.3728M16.8409 10.7357C16.8303 11.1366 17.1384 11.4507 17.7175 11.0445M17.08 11.207C16.9737 11.5049 17.2978 11.9924 17.9406 11.7432M15.7147 10.4107C15.6775 10.7899 16.0228 11.0499 16.5859 10.557M15.9909 10.8332C16.0122 11.1474 16.3628 11.5266 16.8728 10.9795M16.2353 11.2341C16.1981 11.7703 16.6816 11.922 17.0906 11.5103M15.5075 10.8332C15.6138 10.8441 15.7041 10.7466 15.7572 10.6707M15.7359 11.2232C15.8316 11.2449 16.0016 11.1582 16.0547 11.0445M15.9803 11.857C16.0866 11.9816 16.4584 11.8949 16.5062 11.7324M16.3894 11.8516C16.5912 12.3391 17.1384 12.3228 17.3669 11.7703M17.2606 11.9653C17.3669 12.2524 17.6272 12.4311 18.0522 12.3336M17.4678 12.2578C17.2288 12.6532 17.5422 13.1245 18.0788 12.6641M17.6006 12.8536C17.5741 13.1028 17.7972 13.3899 18.1053 13.4224M16.5859 12.1224C16.5062 12.6857 16.9047 12.9566 17.3987 12.6532M16.0069 12.3932C16.1344 12.4961 16.3681 12.507 16.5913 12.4257M16.8569 12.7507C16.7294 13.2274 17.2075 13.5686 17.6166 13.0378M16.1875 12.4691C16.1981 12.7128 16.4266 12.9782 16.8303 12.9024M17.9619 13.3899C17.6856 13.5741 17.6325 13.9099 18.015 14.1266M17.2925 13.2924C17.3031 13.5741 17.4359 13.7366 17.7441 13.7636M16.8888 13.1461C16.4744 13.5253 16.8781 13.9749 17.3669 13.5957M17.1756 13.7149C17.0375 14.1536 17.5475 14.4191 17.8237 13.9749M16.3256 12.7832C16.1769 13.2166 16.3681 13.4982 16.7187 13.4711M15.7837 12.6966C15.805 12.9566 16.0228 13.0486 16.2725 12.9891M15.9431 12.9674C15.7572 13.3303 16.0388 13.5253 16.4106 13.3899M17.5263 14.2024C17.4731 14.4299 17.505 14.5924 17.8397 14.6736M17.5528 14.5274C17.1491 14.7116 17.1119 15.1124 17.4253 15.367M17.2234 14.0832C17.1751 14.1263 17.1376 14.1805 17.1139 14.2414C17.0903 14.3022 17.0812 14.3679 17.0874 14.4331C17.0937 14.4982 17.115 14.5609 17.1498 14.6159C17.1845 14.6709 17.2316 14.7167 17.2872 14.7495M15.4278 12.8103C15.1994 13.0432 15.4172 13.6878 15.9325 13.3357M16.7666 13.6228C16.4478 13.8936 16.5912 14.3703 17.1119 14.2403M16.2459 13.4278C16.0813 13.8991 16.2353 14.067 16.6072 14.0724" stroke="black" stroke-width="0.05"/>
<path d="M15.0878 12.7882C15.0369 12.8238 14.994 12.8701 14.9619 12.9239C14.9298 12.9777 14.9094 13.0378 14.9018 13.1003C14.8943 13.1628 14.8999 13.2262 14.9182 13.2863C14.9365 13.3465 14.9672 13.4019 15.0081 13.449C15.1303 13.5899 15.3641 13.5249 15.4331 13.3461M14.4981 12.5986C14.1847 13.0103 14.4981 13.4978 14.9444 13.357M16.1822 13.8228C15.8634 13.9365 15.6138 14.2345 15.8103 14.4999C15.9325 14.6515 16.4372 14.6732 16.5806 14.0774M15.6031 13.4382C15.4172 13.709 15.4756 13.969 15.8156 14.099M15.5819 13.9474C15.38 14.0557 15.2525 14.1911 15.3003 14.4349M15.1356 13.5195C15.0613 13.8445 15.1516 14.0503 15.3481 14.1478M15.1303 13.9095C14.8222 13.8878 14.6628 14.0178 14.7691 14.332M14.7956 13.9853C14.4928 13.877 14.445 13.6061 14.5778 13.3353M14.5353 13.747C14.2059 13.7578 14.0572 13.9257 14.0572 14.1532" stroke="black" stroke-width="0.05"/>
<path d="M14.0891 12.4423C13.85 12.5452 13.7703 12.8756 13.8606 13.0544C13.9509 13.2331 14.2325 13.2494 14.4025 13.1302M13.425 12.1823C13.2072 12.4314 13.4569 12.9244 13.85 12.8052M12.8619 11.9873C12.66 12.2798 12.8831 12.7673 13.4091 12.6264M13.4356 13.986C13.3825 13.6394 13.7384 13.4119 14.1794 13.8614M13.9669 13.1573C13.9043 13.2146 13.8558 13.2862 13.8254 13.3662C13.7949 13.4461 13.7833 13.5323 13.7916 13.6177M12.3041 11.8194C12.0756 12.2094 12.3519 12.5669 12.8353 12.426M13.5684 12.7889C13.2497 13.1139 13.3559 13.4444 13.595 13.6339M13.3612 13.1735C12.8778 13.1789 12.8512 13.7531 13.2444 13.9319M12.9947 12.5994C12.7928 12.7402 12.7291 13.1248 13.0744 13.2764M12.9787 13.4606C12.7716 13.3631 12.5272 13.4823 12.5484 13.726M12.6706 13.466C12.4847 13.0219 11.9481 13.0977 11.9959 13.5581M12.8194 12.9135C12.7078 12.9352 12.4741 13.0056 12.3837 13.1844M12.4156 12.4098C12.3729 12.4547 12.3417 12.5098 12.3249 12.57C12.3082 12.6302 12.3063 12.6937 12.3194 12.7549C12.3326 12.816 12.3604 12.8729 12.4003 12.9205C12.4403 12.968 12.4912 13.0047 12.5484 13.0273M11.7622 11.7002C11.7197 12.0035 11.8366 12.1498 12.2084 12.1227M11.8897 12.0848C11.7516 12.4477 11.9428 12.6102 12.3147 12.5885M11.9747 12.5344C11.7569 12.7998 11.9056 13.0814 12.1181 13.2006M11.8737 12.8702C11.4806 12.816 11.4222 13.2819 11.555 13.4931" stroke="black" stroke-width="0.05"/>
<path d="M11.5603 11.6729C11.3212 11.7812 11.1831 12.0845 11.3106 12.2687C11.4434 12.4583 11.7037 12.3987 11.8419 12.3012M11.3956 12.3554C11.1937 12.6641 11.3744 12.897 11.5869 12.9837" stroke="black" stroke-width="0.05"/>
<path d="M10.6253 11.6348C10.4659 11.8027 10.5669 12.1439 10.9441 12.1548C11.2575 12.1548 11.4116 11.8623 11.3159 11.651M10.8909 12.1548C10.7687 12.431 10.8484 12.7343 11.3159 12.6856M11.5072 13.1189C11.2256 12.9889 10.8378 13.1189 11.0025 13.471M10.9653 12.626C10.8484 12.7939 10.8856 13.0323 11.0184 13.1785M10.9441 13.0702C10.7528 13.1081 10.5669 13.211 10.6784 13.5198M10.6519 13.2706C10.4075 13.1948 10.0941 13.3789 10.28 13.6335M10.2428 13.3898C10.0303 13.3518 9.78062 13.5848 9.9825 13.8123M9.90281 13.6227C9.71156 13.6768 9.48312 13.8935 9.685 14.0723M10.8697 12.5285C10.5934 12.6531 10.5669 12.9673 10.6944 13.2002M10.5775 11.9543C10.1684 12.1168 10.1737 12.6693 10.6306 12.8427M10.4341 12.7181C10.1897 12.8643 10.1419 13.146 10.3066 13.3248M10.0037 11.7431C9.84437 11.7973 9.855 12.3118 10.2906 12.301M9.55219 11.9164C9.22281 12.1385 9.62125 12.7018 10.1525 12.2956M9.86031 12.4418C9.8125 12.6693 9.87625 12.9185 10.2375 12.951M9.88156 12.7452C9.62125 12.8427 9.57344 13.3898 10.0409 13.4331M9.05281 12.2523C8.71812 12.5664 9.32906 12.8373 9.55219 12.3823M8.59062 12.7723C8.42594 12.9781 8.99969 13.5089 9.25469 12.6206M9.31312 12.6043C9.32906 12.821 9.45125 12.9402 9.70094 12.9564M9.70094 13.1568C9.29187 13.2218 9.16437 13.7364 9.61594 13.8502M8.95187 13.0918C8.93594 13.2814 9.13781 13.4439 9.36094 13.4114M9.56812 13.8339C9.19625 13.9206 9.14844 14.4081 9.47781 14.3756M9.30781 14.8306C8.99969 14.7385 8.98906 14.3648 9.26531 14.2239" stroke="black" stroke-width="0.05"/>
<path d="M9.05281 14.5054C8.7925 14.6679 8.89344 15.047 9.03156 15.1012C9.16969 15.1554 9.28125 15.0904 9.29719 14.9712M9.27062 15.5129C9.3025 15.6916 8.63844 15.6212 8.97844 15.0579M8.97844 15.5399C8.75531 15.8974 9.11656 16.1899 9.345 15.8812M9.005 15.9679C8.91469 16.2549 9.25469 16.4608 9.4725 16.2387M8.27187 13.292C8.14969 13.5466 8.76594 13.6441 8.80312 13.1133M8.10187 13.6712C7.97969 14.1749 8.90937 14.072 8.67031 13.422M8.69156 13.7579C8.75335 13.7874 8.82108 13.8017 8.88928 13.7996C8.95749 13.7975 9.02426 13.7791 9.08422 13.7459C9.14418 13.7127 9.19565 13.6656 9.23449 13.6084C9.27333 13.5512 9.29844 13.4855 9.30781 13.4166M9.02625 13.7741C9.0431 13.8452 9.07392 13.9121 9.11683 13.9708C9.15974 14.0295 9.21387 14.0786 9.27594 14.1154M8.58 13.9041C8.5375 14.1749 8.80844 14.4024 9.11125 14.3808M8.62781 14.1695C8.47906 14.3808 8.43125 14.7816 8.90406 14.8087M7.9 14.2454C7.82562 14.462 8.27187 14.6841 8.52687 14.3266M7.76187 14.7979C7.72469 14.9604 8.12312 15.177 8.34625 14.4837M8.17094 14.8358C8.26656 15.0091 8.59062 15.1499 8.78719 14.8087M8.46844 15.0199C8.38344 15.2637 8.61187 15.4912 8.88281 15.4262M7.95312 14.9658C7.9 15.3124 8.29844 15.5129 8.5375 15.3341M7.69281 15.1174C7.57594 15.5616 8.13906 15.7295 8.35156 15.3937M8.20812 15.5291C8.22937 15.7783 8.61187 15.9949 8.90937 15.7891M7.52281 15.7349C7.49625 15.8487 7.95312 15.9624 8.02219 15.5724M7.78844 15.8379C7.89469 16.1195 8.26656 16.1899 8.47906 15.8379M8.35687 15.9787C8.41 16.2495 8.73937 16.3958 9.03687 16.2116M9.15906 16.3199C9.08469 16.672 9.44594 16.9591 9.66906 16.7641M8.57469 16.2549C8.46844 16.6449 8.94656 16.867 9.21219 16.6504M8.00094 16.0545C7.97437 16.4229 8.25594 16.6395 8.57469 16.477M7.39 16.0979C7.29437 16.3308 7.80437 16.5258 8.04344 16.3254M7.07656 16.7424C7.20937 16.8941 7.66094 16.7424 7.69812 16.4012M7.57594 16.6504C7.74062 16.8454 8.13375 16.9537 8.28781 16.5312M8.14969 16.7479C8.14969 17.0512 8.67031 17.2679 8.84031 16.7154M9.46187 16.8237C9.40875 16.9699 9.52562 17.2029 9.76469 17.2299M9.02625 16.7316C8.99437 16.8941 9.23344 17.1324 9.48844 17.0404M9.53625 17.1108C9.46719 17.2895 9.52562 17.5495 9.76469 17.5441M9.5575 17.4466C9.37687 17.5983 9.45125 17.8745 9.71156 17.8799M9.46719 17.7066C9.21219 17.8799 9.3025 18.2645 9.63719 18.2429M8.69687 16.9537C8.69687 17.3329 9.15906 17.387 9.24406 17.0404M9.06875 17.257C8.99969 17.4845 9.175 17.7012 9.45656 17.6362M9.12187 19.9545C9.18562 20.0466 9.44062 19.8895 9.37156 19.7379C9.3025 19.5862 9.03156 19.6674 9.06344 19.8299M9.30781 19.6729C9.33969 19.3695 8.98906 19.3208 8.89875 19.5862M9.02625 19.4291C9.11656 19.2774 8.81375 19.0662 8.69156 19.2937M8.79781 19.2016C8.88281 18.9795 8.54281 18.8766 8.51625 19.0824M8.43656 18.7899C8.47906 18.6816 8.86156 18.7466 8.70219 18.9795M8.99437 19.2558C9.14312 19.1149 8.88812 18.8333 8.72875 18.9308M10.0037 19.6837C9.88687 19.6945 9.76469 19.7758 9.84969 20.0358C9.91344 20.2145 10.1737 20.2199 10.2162 20.117" stroke="black" stroke-width="0.05"/>
<path d="M9.83906 19.8199C9.72219 19.7387 9.46719 19.8741 9.58406 20.1232C9.66906 20.3128 9.89219 20.2316 9.92406 20.1341M9.18031 20.1774C9.24406 20.2857 9.53094 20.2316 9.58406 20.1232M9.38219 19.8307C9.44594 19.7874 9.5575 19.8416 9.57875 19.8957M9.36625 18.1082C9.16437 18.2437 9.28656 18.6499 9.59469 18.5416M9.29719 18.4387C9.13781 18.5632 9.28656 18.9587 9.57875 18.807M9.35031 18.807C9.23875 18.9207 9.345 19.2295 9.62656 19.1699M9.30781 18.9641C9.24406 18.937 9.08469 18.9532 9.01562 19.0616M9.12719 17.5449C8.97844 17.6966 9.05281 17.9945 9.32906 18.0216M9.07406 17.8591C8.86156 17.9674 8.86156 18.4007 9.28656 18.417M9.05812 18.3466C8.93594 18.4441 8.99437 18.8232 9.3025 18.7745M9.15375 18.7582C9.11125 18.807 9.10062 18.9207 9.14312 18.9695M9.02094 18.6174C8.91469 18.6174 8.76594 18.6987 8.72875 18.8178M8.53219 18.4116C8.56937 18.3032 8.90937 18.3032 8.93594 18.6337M8.96781 18.2437C8.92 18.2545 8.82969 18.2978 8.80844 18.3953M8.81906 17.2199C8.67562 17.3607 8.60656 17.7887 9.0475 17.8699M8.52156 18.1082C8.52156 17.9945 8.82969 17.8916 8.93594 18.0649M8.325 17.4853C8.3675 17.572 8.58 17.6912 8.7075 17.5937M7.22 16.8028C7.21793 16.853 7.22672 16.9029 7.24575 16.9492C7.26478 16.9955 7.29359 17.0369 7.33011 17.0705C7.36664 17.1041 7.40999 17.1291 7.45707 17.1437C7.50415 17.1583 7.5538 17.1621 7.6025 17.1549C7.83094 17.1278 7.87875 16.9274 7.80969 16.792M7.63969 17.1657C7.48562 17.3499 7.67156 17.6153 7.84156 17.5395M7.80969 17.0303C7.9 16.9978 8.19219 16.9545 8.2825 17.0953M6.85875 17.0845C6.78969 17.1928 7.21469 17.2957 7.35812 17.0953M7.21469 17.1982C7.19875 17.3391 7.26781 17.5774 7.61844 17.4745" stroke="black" stroke-width="0.05"/>
<path d="M7.67688 17.6904C7.73 17.5713 7.475 17.3763 7.27313 17.5929C7.07656 17.8096 7.305 18.0534 7.42719 17.9721M6.76844 17.2246C6.66219 17.4088 7.06063 17.7392 7.28906 17.4304" stroke="black" stroke-width="0.05"/>
<path d="M6.50281 17.5393C6.35938 17.691 6.54 17.9673 6.7525 17.8806C6.97031 17.7993 6.94906 17.5664 6.89594 17.5068" stroke="black" stroke-width="0.05"/>
<path d="M6.22656 17.8207C6.10969 17.9291 6.22656 18.1782 6.38594 18.1782C6.54531 18.1782 6.64625 18.0537 6.61437 17.8857M6.88 17.7991C6.85875 17.9616 7.0925 18.0699 7.24656 17.9182M7.24656 17.6257C7.27312 17.5932 7.25719 17.5337 7.22 17.5012M5.97687 18.032C5.84406 18.1403 6.13625 18.4437 6.31156 18.1674M7.0075 17.9778C6.9225 18.0591 7.06062 18.2757 7.19875 18.2107M6.54 18.1295C6.56125 18.2757 6.84812 18.3895 7.02875 18.162M6.69406 18.2757C6.65156 18.3732 6.74187 18.5195 6.85344 18.5032M9.41937 19.1424C9.31312 19.3537 9.65312 19.6028 9.8975 19.3428M9.66375 19.4566C9.61062 19.5703 9.67437 19.7328 9.77 19.7924M9.345 19.7003C9.36625 19.592 9.515 19.4945 9.64781 19.5432M9.16969 19.4241C9.18562 19.3266 9.30781 19.2345 9.40344 19.2616M17.2234 15.0691C16.7347 15.0745 16.9419 15.8707 17.3616 15.7137M17.0641 15.6595C16.9684 15.8166 17.1544 16.0712 17.3616 15.9195M17.3084 15.952C17.1597 16.1957 17.675 16.5695 17.8822 16.1849M17.7175 16.3312C17.7175 16.5641 18.3816 16.7103 18.2859 16.2499M18.2222 16.4991C18.3816 16.7699 18.9659 16.797 18.9075 16.3907M18.7747 16.6724C18.8969 16.8566 19.4759 16.9649 19.4547 16.5912M16.4425 14.3812C16.5222 14.5978 16.8037 14.6737 17.1119 14.5437M16.2619 14.5328C16.4584 14.6574 16.1769 15.2316 15.8847 14.9987M16.2672 14.8903C16.4797 14.9932 16.74 14.9174 16.8144 14.6087M16.6816 14.847C16.7028 15.0095 16.9312 15.1341 17.2234 15.0691M16.1556 15.0149C16.4319 15.2532 16.0334 15.7407 15.8528 15.5187M16.2566 15.1937C16.3894 15.2912 16.7241 15.237 16.7559 14.977M16.6072 15.1937C16.6337 15.3616 16.7666 15.4266 16.9472 15.432M16.1822 15.4266C16.3203 15.6216 16.6603 15.6757 16.8144 15.4212M16.6603 15.5674C16.6497 15.7516 16.8516 15.9087 17.0641 15.8653M15.9219 15.9791C16.0972 16.0712 16.2937 15.7245 16.1397 15.4916M16.1291 16.342C16.3416 16.3528 16.3681 16.0278 16.1662 15.8437M16.6125 16.6399C16.7931 16.5966 16.7347 16.2012 16.3044 16.1687M17.1544 16.9324C17.3244 16.8837 17.1862 16.4449 16.7134 16.472M17.8025 17.0895C17.9194 16.9053 17.5369 16.602 17.2181 16.7645M18.1212 17.3387C18.3337 17.4037 18.4825 16.8295 17.8078 16.9216M18.5144 17.3387C18.7003 17.2845 18.8331 16.9487 18.2912 17.057M18.9287 17.3657C19.0881 17.4524 19.1625 16.9595 18.6631 17.0949M16.1662 15.8491C16.3734 15.9628 16.6975 15.8274 16.6656 15.562M16.5859 15.7895C16.655 15.9141 16.6284 16.1578 16.4956 16.2228M16.6019 16.082C16.74 16.1362 16.9259 16.0874 17.0375 15.8653M16.8462 16.082C16.8834 16.1795 16.8994 16.3745 16.8091 16.472M16.8781 16.2499C17.0322 16.3366 17.2075 16.2228 17.2819 16.0603M17.1862 16.2012C17.2925 16.2716 17.3934 16.5966 17.2075 16.732M17.3137 16.5803C17.4412 16.5803 17.6325 16.5803 17.7547 16.4178M17.6644 16.5099C17.7812 16.5424 17.9194 16.7374 17.8716 16.9107M17.8769 16.8512C18.0097 16.8349 18.2328 16.7428 18.2966 16.5803M18.2328 16.6887C18.2917 16.724 18.3392 16.7762 18.3694 16.8388C18.3996 16.9013 18.4112 16.9715 18.4028 17.0407M18.4028 16.927C18.5356 16.9216 18.6525 16.8512 18.6844 16.7049M18.6525 16.8024C18.7481 16.8349 18.865 16.9487 18.8703 17.0787M18.8544 16.9974C18.95 16.9812 19.0191 16.9216 19.0828 16.8241M19.3431 16.8078C19.4653 16.9324 19.3006 17.3495 19.0456 17.2737M16.7134 8.35241C16.4637 8.50949 15.7412 8.46074 16.0972 7.85408M16.7878 7.94074C16.2831 8.14658 15.6722 7.75116 16.3097 7.32866M16.1397 7.18783C15.7253 7.18783 15.4437 7.87033 16.0016 8.10866M14.5194 7.47491C14.4131 7.69158 14.8009 7.92991 15.0666 7.71324C15.2737 7.54533 15.2578 7.09033 15.1356 6.91699M14.3069 7.98949C14.1687 8.44991 15.1781 8.47699 15.0187 7.74574M14.2537 8.67741C14.2856 9.02408 15.2153 8.91033 14.9178 8.20616M15.0241 8.01116C15.0984 8.11949 15.3056 8.29824 15.6562 8.26033M15.1781 7.52908C15.21 7.65366 15.4172 7.74574 15.6828 7.65366M5.84937 18.1349C5.61031 18.3028 5.97687 18.5737 6.10969 18.2757M5.66344 18.2649C5.42969 18.4382 5.79094 18.7091 5.92375 18.4112M5.46687 18.3949C5.23312 18.5682 5.59437 18.8337 5.7325 18.5412M5.265 18.5141C5.03656 18.6387 5.30219 18.9366 5.53062 18.6766M5.04187 18.6278C4.81344 18.7524 5.07906 19.0503 5.3075 18.7903M6.18937 18.2703C6.18406 18.4491 6.51344 18.5195 6.63562 18.2541M6.39656 18.4328C6.29031 18.5682 6.48156 18.7307 6.5825 18.6712M5.95562 18.4112C5.945 18.5628 6.23187 18.6495 6.37 18.4816M6.10969 18.5682C6.01937 18.6874 6.2 18.8553 6.32219 18.8066M5.76437 18.5466C5.775 18.6657 5.93969 18.8012 6.115 18.7253M5.87062 18.7091C5.80156 18.7687 5.83344 18.9149 5.92906 18.9637M5.51469 18.6928C5.48812 18.8012 5.66875 18.9962 5.85469 18.8716M5.55187 18.8174C5.44562 18.9095 5.45625 19.0395 5.59437 19.0612M5.28625 18.8066C5.27562 18.8824 5.36594 19.0016 5.48281 18.9853M4.70187 18.8012C4.59562 18.8607 4.87187 19.1641 5.04719 18.8824M4.43094 18.9257C4.29281 18.9907 4.63281 19.3266 4.78687 18.9853M5.31812 18.9149C5.21187 18.9366 5.14281 19.0937 5.23312 19.1587M4.9675 18.9691C4.95687 19.0341 5.08969 19.1316 5.19594 19.0991M4.8825 18.9962C4.77625 19.0612 4.83469 19.2453 4.95687 19.2182M4.51594 19.1207C4.42031 19.1912 4.48937 19.3374 4.62219 19.3049M4.69125 19.1099C4.69125 19.1478 4.78156 19.2074 4.85062 19.1803M4.18656 19.0449C4.06437 19.0991 4.075 19.4024 4.47875 19.2399M3.91562 19.1695C3.74562 19.2507 3.80406 19.4837 4.17062 19.2616M4.19719 19.2778C4.15469 19.3157 4.10687 19.4674 4.27687 19.4078M3.89437 19.3537C3.82531 19.4132 3.86781 19.5432 4.01656 19.4945M3.53844 19.3753C3.41625 19.4457 3.68719 19.5432 3.86781 19.3482M3.62344 19.462C3.57031 19.5162 3.57031 19.6841 3.70844 19.6245M3.27281 19.5324C3.19312 19.592 3.32594 19.6787 3.59156 19.5595M3.37906 19.6191C3.27812 19.7003 3.28875 19.8032 3.43219 19.7707M3.09219 19.6624C2.98594 19.7653 3.14 19.8303 3.32594 19.7491M3.09219 19.7762C2.91156 19.8574 2.99125 20.0145 3.10281 19.9549M9.14844 20.307C9.10594 20.3991 9.24406 20.4749 9.37687 20.4532C9.49906 20.437 9.62125 20.3287 9.52562 20.1824M9.53094 20.3666C9.65844 20.4641 9.87625 20.3503 9.87625 20.2041" stroke="black" stroke-width="0.05"/>
<path d="M17.08 5.57883C16.5328 5.308 15.3959 4.788 15.0719 5.20508C15.3694 5.0805 16.23 5.2105 16.9419 5.88217L17.08 5.58425V5.57883Z" fill="white" stroke="black" stroke-width="0.05"/>
<path d="M17.4094 5.55189C16.7772 4.79897 16.4 4.96689 15.9484 4.71231C15.5234 4.46856 14.8434 4.41981 14.7106 4.80439C15.3322 4.49564 15.9059 4.96689 16.2619 5.03189C16.74 5.10772 17.0162 5.49231 17.1597 5.66564L17.4094 5.55731V5.55189ZM19.7947 5.45439C19.4653 4.69064 18.7641 4.89106 18.4559 4.56606C18.0044 4.08939 16.8622 3.64522 16.3841 3.97564C17.4253 3.92147 17.8716 4.70689 18.4241 4.98314C18.8225 5.17814 19.2475 5.59522 19.7947 5.45439Z" fill="white" stroke="black" stroke-width="0.05"/>
<path d="M18.5622 5.37312C18.0044 4.66354 17.1384 4.03521 16.7453 4.26812C17.2659 4.30062 17.4306 4.66896 17.7972 4.90729C18.1691 5.14021 18.0044 5.48687 18.5622 5.37312ZM15.8953 6.62979C15.3109 6.40771 14.1581 6.29396 13.6216 6.97646C14.5141 7.13354 15.8528 7.04687 15.8953 6.62979Z" fill="white" stroke="black" stroke-width="0.05"/>
<path d="M15.7838 6.89527C15.1994 6.6136 14.7372 7.0036 14.1847 6.94943C13.1328 6.8411 12.3784 6.9061 12.2828 7.4261C12.8831 6.8736 13.8978 7.3286 14.3069 7.21485C14.7159 7.10652 16.2353 7.1986 16.7134 7.40985C16.4691 7.1011 16.0866 7.01985 15.7838 6.89527V6.89527ZM17.6325 5.29735C17.4944 4.83693 17.505 4.34943 18.1797 4.38193C18.0097 4.16527 17.3828 4.05693 17.2766 4.86402C16.5328 4.3061 15.7147 4.2086 15.5659 4.69068C15.9484 4.35485 16.5434 4.5986 17.2553 5.42193C17.3738 5.36044 17.5011 5.3184 17.6325 5.29735V5.29735Z" fill="white" stroke="black" stroke-width="0.05"/>
<path d="M16.6072 5.93068C16.1822 5.64901 15.6084 5.19943 16.6125 5.01526C16.1875 4.78234 15.55 4.88526 15.6191 5.69234C14.4716 5.22109 13.6481 5.37818 13.4728 5.84943C13.2816 6.36401 13.9934 6.65109 14.1156 6.32068C13.9881 6.37484 13.5419 6.22318 13.7756 5.93068C14.0094 5.63818 15.1994 5.86026 16.3309 6.46151C16.6497 6.62401 17.7281 6.60234 16.6072 5.93068V5.93068Z" fill="white" stroke="black" stroke-width="0.05"/>
<path d="M16.3044 6.70016C15.9803 6.01766 14.9178 6.63516 14.7053 5.97432C14.4078 6.94391 16.2141 6.40766 16.3044 6.70016ZM23.0566 7.43682C23.2797 7.55057 23.4709 7.37182 23.1309 7.23641C23.3541 7.34474 23.5506 7.17682 23.2106 7.03599C23.4338 7.14432 23.625 6.97641 23.285 6.83557C23.1947 6.92766 23.0672 7.26891 23.0566 7.43682V7.43682ZM23.1734 6.12599C23.6675 5.59516 23.1363 5.41641 23.7366 4.86932C24.2306 4.42516 23.8322 4.12724 24.2944 3.78599C24.4484 3.67224 24.7725 3.45016 24.8044 3.22266C25.0009 3.72641 24.1881 3.79682 24.2413 4.60391C24.2784 5.11849 23.9331 5.07516 23.8056 5.94724C23.7791 6.12599 23.6516 6.53224 23.1734 6.12599V6.12599Z" fill="white" stroke="black" stroke-width="0.05"/>
<path d="M23.3913 6.36415C23.6675 5.76832 23.9809 5.77374 24.135 5.54082C24.4219 5.09124 25.0275 5.61665 25.5428 5.21582C25.4525 5.78457 24.7619 5.58415 24.4591 5.94707C24.1616 6.30999 23.9119 6.47249 23.3966 6.36415H23.3913Z" fill="white" stroke="black" stroke-width="0.05"/>
<path d="M23.4656 6.55903C23.9438 6.16903 24.2944 6.42903 24.6238 6.22319C25.4578 5.70861 25.7925 6.33153 26.5363 6.08236C26.345 6.56986 25.24 6.15278 24.7619 6.51569C24.2838 6.87861 22.5997 7.23069 23.4603 6.55903H23.4656ZM22.0684 9.34319C22.0578 9.12111 21.8559 8.83403 21.5691 8.80153C21.2822 8.76361 21.1547 8.45486 20.9369 8.44403C20.7191 8.42778 20.5756 7.98361 20.2728 7.98903C19.9753 7.99444 19.8478 8.39528 20.5544 8.75819C21.2609 9.12111 22.0419 9.53819 22.0684 9.34319V9.34319ZM21.1759 9.53278C20.8784 9.54361 20.8359 9.99319 20.5491 10.004C20.9422 10.2207 21.2344 9.90653 21.4363 9.62486L21.1813 9.53278H21.1759Z" fill="white" stroke="black" stroke-width="0.05"/>
<path d="M21.4256 9.58691C21.16 9.809 21.0856 10.2748 21.4628 10.4102C21.2397 10.0907 21.8613 9.94983 21.67 9.65191L21.4256 9.58691V9.58691Z" fill="white" stroke="black" stroke-width="0.05"/>
<path d="M21.6806 9.60388C21.4788 10.0047 22.0047 10.0535 21.8666 10.3622C22.1694 10.2918 22.2172 9.71221 21.9409 9.56055L21.6806 9.59846V9.60388Z" fill="white" stroke="black" stroke-width="0.05"/>
<path d="M19.6725 8.73685C20.1666 8.70977 20.6128 8.9806 20.9156 9.41935C21.1069 9.6956 21.7497 9.80935 21.9728 9.58185C22.1853 9.36519 22.0684 8.88852 21.5212 9.04019C21.3831 8.80727 20.99 8.88852 20.7934 8.69352C20.6022 8.49852 19.8638 7.9406 19.6725 8.73685V8.73685Z" fill="white" stroke="black" stroke-width="0.05"/>
<path d="M21.5213 9.04587C21.3884 9.07296 21.3459 9.30046 21.4309 9.41962ZM21.8028 9.18129C21.84 9.25171 21.8134 9.34921 21.7922 9.39796ZM20.4534 8.75879C20.7031 8.76962 20.7509 8.95921 21.0272 9.02962Z" fill="white"/>
<path d="M21.5213 9.04587C21.3884 9.07296 21.3459 9.30046 21.4309 9.41962M21.8028 9.18129C21.84 9.25171 21.8134 9.34921 21.7922 9.39796M20.4534 8.75879C20.7031 8.76962 20.7509 8.95921 21.0272 9.02962" stroke="black" stroke-width="0.05" stroke-linecap="round"/>
<path d="M20.2834 8.12454C20.9736 8.26205 21.6445 8.48582 22.2809 8.79079C22.7113 9.03995 23.3806 9.11579 23.9597 8.94245C24.5441 8.77995 25.6703 8.62287 25.6119 9.36495C25.92 8.9912 25.5322 8.59579 24.7513 8.52537C24.7672 8.16245 24.3847 7.83745 24.1138 8.05412C24.3634 8.0162 24.5813 8.49829 24.0819 8.69329C24.1043 8.60934 24.1027 8.5206 24.0771 8.43757C24.0516 8.35455 24.0033 8.28073 23.9379 8.22486C23.8725 8.16899 23.7927 8.13342 23.7081 8.12236C23.6234 8.1113 23.5374 8.12521 23.4603 8.16245C23.6941 8.23287 23.9384 8.63912 23.4072 8.79079C23.0725 8.88829 22.5891 8.7637 22.2278 8.54162C21.8666 8.31954 19.8372 7.51245 20.2834 8.11912V8.12454Z" fill="white" stroke="black" stroke-width="0.05"/>
<path d="M22.4881 7.76166C22.2172 7.88624 22.3925 8.17874 21.9728 8.34666C21.5478 8.50916 21.2503 8.89374 21.3459 9.22416C21.6328 8.57957 22.1428 8.61207 22.3181 8.35749C22.4988 8.10832 22.7591 7.73999 22.4881 7.76166Z" fill="white" stroke="black" stroke-width="0.05"/>
<path d="M22.5625 7.79968C22.5519 8.30885 22.1587 8.12468 22.3128 8.83968C22.3606 9.06176 22.4509 9.42468 22.2969 9.7876C22.7378 9.4626 22.4563 8.77468 22.6528 8.51468C22.7484 8.38468 22.8759 8.18968 22.9184 8.02718C22.8175 8.31426 22.8281 8.86135 23.1044 9.00218C22.8813 8.46051 23.7153 8.01093 23.1416 7.37718C23.0566 7.53968 22.7962 7.81051 22.5678 7.79968H22.5625ZM21.1706 7.29051C21.2397 7.39885 21.3088 7.65885 21.245 7.81051C21.3831 7.72385 21.5797 7.50718 21.6434 7.36093C21.925 7.40426 22.0312 7.75635 21.7656 7.91343C21.925 7.91343 22.2119 7.91343 22.3659 7.72385C22.1747 7.50718 21.5797 7.17135 21.1706 7.29051V7.29051Z" fill="white" stroke="black" stroke-width="0.05"/>
<path d="M16.9153 6.28879C16.8412 6.23039 16.7532 6.19301 16.6603 6.18046C16.2459 6.09379 16.4638 5.71463 16.8144 5.72004C17.5688 4.88046 17.9884 5.52504 18.9075 5.26504C19.2263 5.16754 19.4494 5.19463 19.6194 5.27588C20.0338 4.99421 20.5119 5.07004 20.8625 5.40046C20.8978 5.33833 20.9547 5.29194 21.0219 5.27046C21.3459 5.17838 21.6063 5.45463 21.6966 5.81754C21.9463 5.77421 22.2331 5.89879 22.4244 6.07213C22.6847 5.93671 22.86 5.93129 22.9291 6.07213C23.1628 5.96379 23.4603 5.88796 23.6144 6.26713C23.7684 6.64629 23.2584 6.53254 23.1734 7.32879C23.1203 7.81629 22.5891 8.01129 22.1641 7.71879C21.4841 7.24754 20.82 7.17713 20.4906 7.88129C20.1666 8.59629 19.9063 9.00796 19.1094 8.77504C18.9439 8.73675 18.771 8.74981 18.6129 8.81256C18.4548 8.87531 18.3187 8.98486 18.2222 9.12713C17.9884 9.45213 17.6378 9.14879 17.2128 9.18129C17.7441 9.10004 17.5369 8.96462 18.0044 8.93212C18.4294 8.90504 18.3178 8.49879 18.5888 8.44462C17.5263 8.72087 17.5634 8.31463 16.6869 8.59629C17.0694 8.09254 17.675 8.37421 17.9725 8.08171C17.1809 8.06546 16.825 7.54004 16.4691 7.75671C15.9113 8.10879 16.1503 9.10004 14.6894 9.01337C13.9775 8.97546 13.5259 9.06754 13.1063 9.50087C13.8447 7.94087 14.8488 8.79671 15.3375 8.30379C15.5911 8.07116 15.8111 7.80308 15.9909 7.50754C16.0119 7.46467 16.0418 7.42696 16.0785 7.39703C16.1152 7.3671 16.1578 7.34566 16.2034 7.33421C14.9869 6.94421 15.7253 6.33213 16.9153 6.28879V6.28879Z" fill="white" stroke="black" stroke-width="0.05"/>
<path d="M22.9291 6.06641C22.945 6.10974 22.9556 6.16391 22.9556 6.22891C22.9556 6.53224 22.5041 6.54307 22.4775 6.99807C22.4616 7.23641 22.435 7.36641 22.2809 7.33932C22.1216 7.31224 21.9834 7.06307 22.1322 6.77057" fill="white"/>
<path d="M22.9291 6.06641C22.945 6.10974 22.9556 6.16391 22.9556 6.22891C22.9556 6.53224 22.5041 6.54307 22.4775 6.99807C22.4616 7.23641 22.435 7.36641 22.2809 7.33932C22.1216 7.31224 21.9834 7.06307 22.1322 6.77057" stroke="black" stroke-width="0.05" stroke-linecap="round"/>
<path d="M17.1438 5.83384C17.048 5.76241 16.933 5.7227 16.8144 5.72009ZM19.6194 5.27051C19.9806 5.43301 20.1559 5.81217 20.6819 5.83384C21.1919 5.85009 21.5053 6.60301 22.3553 6.11009C22.3764 6.09888 22.3976 6.08804 22.4191 6.07759M20.8625 5.40051C20.7895 5.53585 20.7633 5.6923 20.7881 5.84467ZM19.205 6.98217C18.5675 6.98217 18.3975 7.31259 18.3975 7.63217C18.3975 7.95717 18.7003 8.37426 19.2316 8.37426C19.7628 8.37426 20.055 8.03842 20.055 7.67551C20.055 7.31259 19.7256 6.97676 19.205 6.97676V6.98217Z" fill="white"/>
<path d="M17.1438 5.83384C17.048 5.76241 16.933 5.7227 16.8144 5.72009M19.6194 5.27051C19.9806 5.43301 20.1559 5.81217 20.6819 5.83384C21.1919 5.85009 21.5053 6.60301 22.3553 6.11009C22.3764 6.09888 22.3976 6.08804 22.4191 6.07759M20.8625 5.40051C20.7895 5.53585 20.7633 5.6923 20.7881 5.84467M19.205 6.98217C18.5675 6.98217 18.3975 7.31259 18.3975 7.63217C18.3975 7.95717 18.7003 8.37426 19.2316 8.37426C19.7628 8.37426 20.055 8.03842 20.055 7.67551C20.055 7.31259 19.7256 6.97676 19.205 6.97676V6.98217Z" stroke="black" stroke-width="0.05"/>
<path d="M19.3219 8.35758C19.3112 8.17883 18.9872 8.20592 19.0031 8.06508C19.0137 7.92425 19.1784 7.87008 19.1784 7.67508C19.1784 7.48008 19.4653 7.46383 19.5609 7.62092C19.6566 7.77258 19.9434 8.0705 20.0072 7.91883M19.5609 7.62092C19.4732 7.71622 19.4226 7.84094 19.4187 7.97161C19.4148 8.10228 19.4578 8.22991 19.5397 8.3305M19.7681 7.85383C19.715 7.96217 19.7044 8.12467 19.7628 8.22217Z" fill="white"/>
<path d="M19.3219 8.35758C19.3112 8.17883 18.9872 8.20592 19.0031 8.06508C19.0137 7.92425 19.1784 7.87008 19.1784 7.67508C19.1784 7.48008 19.4653 7.46383 19.5609 7.62092C19.6566 7.77258 19.9434 8.0705 20.0072 7.91883M19.5609 7.62092C19.4732 7.71622 19.4226 7.84094 19.4187 7.97161C19.4148 8.10228 19.4578 8.22991 19.5397 8.3305M19.7681 7.85383C19.715 7.96217 19.7044 8.12467 19.7628 8.22217" stroke="black" stroke-width="0.05"/>
<path d="M22.3234 7.34432C22.8281 7.38765 22.9078 6.8189 22.5359 6.7864M21.7019 5.82223C21.5319 5.59473 21.1281 5.5189 21.1175 5.99557" stroke="black" stroke-width="0.05"/>
<path d="M21.075 6.54289C20.905 6.10956 20.4641 6.04997 20.2356 6.26664C20.0391 6.44539 20.0338 6.91664 20.4481 7.01414C20.5969 6.83539 20.8731 6.60789 21.075 6.54289ZM20.8891 6.27206C20.6394 6.04997 20.2781 6.47247 20.6075 6.85706ZM16.1981 7.32831C16.3681 7.29039 16.6072 7.37164 16.9791 7.54497C17.2075 7.65872 17.9088 7.89706 18.3444 7.65872C17.8928 7.82664 17.5475 7.13331 17.2075 7.21456C16.8675 7.30122 16.2406 7.43122 15.9803 7.17122C16.6178 7.21456 16.9631 6.69456 17.7016 7.14414C17.9103 7.27613 18.1519 7.34384 18.3975 7.33914C17.7972 6.60247 17.0056 7.07372 16.9206 6.47247C17.2819 6.87331 18.1691 6.38581 18.6206 7.12789M17.0534 6.58622C16.9684 6.47789 17.0003 6.36956 16.9153 6.28831Z" fill="white"/>
<path d="M20.8891 6.27206C20.6394 6.04997 20.2781 6.47247 20.6075 6.85706M16.1981 7.32831C16.3681 7.29039 16.6072 7.37164 16.9791 7.54497C17.2075 7.65872 17.9088 7.89706 18.3444 7.65872C17.8928 7.82664 17.5475 7.13331 17.2075 7.21456C16.8675 7.30122 16.2406 7.43122 15.9803 7.17122C16.6178 7.21456 16.9631 6.69456 17.7016 7.14414C17.9103 7.27613 18.1519 7.34384 18.3975 7.33914C17.7972 6.60247 17.0056 7.07372 16.9206 6.47247C17.2819 6.87331 18.1691 6.38581 18.6206 7.12789M17.0534 6.58622C16.9684 6.47789 17.0003 6.36956 16.9153 6.28831M21.075 6.54289C20.905 6.10956 20.4641 6.04997 20.2356 6.26664C20.0391 6.44539 20.0338 6.91664 20.4481 7.01414C20.5969 6.83539 20.8731 6.60789 21.075 6.54289Z" stroke="black" stroke-width="0.05"/>
<path d="M21.7019 5.8229C21.5531 5.6604 21.2238 5.78498 21.3194 6.1154C21.3542 6.03748 21.4073 5.96951 21.474 5.91754C21.5407 5.86557 21.619 5.8312 21.7019 5.81748V5.8229ZM20.7722 6.71665C20.8637 6.64319 20.9658 6.58471 21.075 6.54332C21.0332 6.43294 20.9636 6.33577 20.8731 6.26165C20.7934 6.20748 20.5703 6.51623 20.7722 6.71123V6.71665Z" fill="black"/>
<path d="M20.3684 6.14791C20.1241 5.97999 19.8956 5.99624 19.8213 6.13166C19.6459 6.13166 19.4972 6.26166 19.4919 6.52166M19.8691 6.63541C19.5769 6.42958 19.1731 6.50541 19.1997 6.96583M19.0191 7.23124C19.1625 7.11208 19.3697 7.02541 19.5291 7.23124M21.2184 6.77624C21.1653 6.85208 21.1228 6.97124 21.2131 7.15541C21.1069 7.00374 20.8306 7.00374 20.5331 7.39374M21.8666 6.75458C21.5106 6.79791 21.5213 7.03624 21.8081 7.13374M19.3378 5.86624C19.035 5.80666 18.8172 5.98541 19.2316 6.13708M19.9116 5.66041C19.4866 5.55208 19.3166 5.66583 19.5078 5.76874M18.6844 7.39374C18.6738 7.55083 18.7534 7.75124 19.0031 7.52374M18.7694 7.85416C18.7694 7.89749 18.7641 7.94624 18.7322 7.98416M17.7813 5.81749C17.5209 5.73624 17.4731 5.49249 17.7813 5.51416M17.6963 6.38083C17.4094 6.27791 17.4094 5.99624 17.6431 6.02333M18.2275 6.22916C17.8928 6.14791 17.8822 5.90958 18.1319 5.94749M18.27 5.50333C18.0894 5.49249 17.8184 5.69291 18.2753 5.81208M18.7694 5.90958C18.3497 5.84999 18.3603 6.01791 18.6047 6.13166M19.0828 5.50333C18.7641 5.44374 18.6525 5.63874 18.8703 5.71999M18.0734 6.71124C17.9938 6.64624 17.93 6.33208 18.3019 6.42416M18.8491 6.61374C18.5994 6.54333 18.3603 6.79791 18.5888 6.93874M19.1838 6.31583C18.9181 6.26166 18.695 6.34291 18.8384 6.44041" stroke="black" stroke-width="0.05" stroke-linecap="round"/>
<path d="M21.6912 5.82227C21.6108 5.83707 21.535 5.87137 21.4703 5.92227C21.4056 5.97318 21.3538 6.03919 21.3194 6.11477" fill="white"/>
<path d="M21.6912 5.82227C21.6108 5.83707 21.535 5.87137 21.4703 5.92227C21.4056 5.97318 21.3538 6.03919 21.3194 6.11477" stroke="black" stroke-width="0.05"/>
</g>
</g>
<defs>
<clipPath id="clip0_1_17735">
<rect width="34" height="26" fill="white" transform="translate(-4)"/>
</clipPath>
</defs>
</svg>
