<svg width="26" height="26" viewBox="0 0 26 26" fill="none" xmlns="http://www.w3.org/2000/svg">
<mask id="mask0_1_17826" style="mask-type:alpha" maskUnits="userSpaceOnUse" x="0" y="0" width="26" height="26">
<circle cx="13" cy="13" r="13" fill="#634848"/>
</mask>
<g mask="url(#mask0_1_17826)">
<mask id="mask1_1_17826" style="mask-type:alpha" maskUnits="userSpaceOnUse" x="-1" y="0" width="36" height="26">
<rect x="-0.333332" width="34.6667" height="26" fill="white"/>
</mask>
<g mask="url(#mask1_1_17826)">
<path fill-rule="evenodd" clip-rule="evenodd" d="M-0.330727 0H34.3359V26H-0.330727V0Z" fill="#73BE4A"/>
<path fill-rule="evenodd" clip-rule="evenodd" d="M-0.330727 0V17.3333H34.3359V0H-0.330727Z" fill="#AF0100"/>
<rect x="-0.330727" width="6.5" height="26" fill="#F7FCFF"/>
<path fill-rule="evenodd" clip-rule="evenodd" d="M0.14909 2.42138L1.72277 0.0605469L3.25593 2.42131L1.72272 4.67396L0.14909 2.42138ZM1.71459 3.71016L2.59661 2.41427L1.71455 1.05607L0.809246 2.4142L1.71459 3.71016ZM1.83268 2.23584H1.56185V2.79498H1.83268V2.23584Z" fill="#B20000"/>
<path fill-rule="evenodd" clip-rule="evenodd" d="M0.89902 4.53418L0.148438 5.60743L0.898999 6.63146L1.63028 5.6074L0.89902 4.53418ZM1.25207 5.62609L0.913875 6.08519L0.571615 5.5987L0.912967 5.09489L1.25207 5.62609Z" fill="#B20000"/>
<path fill-rule="evenodd" clip-rule="evenodd" d="M2.52402 4.53418L1.77344 5.60743L2.524 6.63146L3.25528 5.6074L2.52402 4.53418ZM2.87707 5.62609L2.53887 6.08519L2.19661 5.5987L2.53797 5.09489L2.87707 5.62609Z" fill="#B20000"/>
<path fill-rule="evenodd" clip-rule="evenodd" d="M3.60475 4.53418L2.85417 5.60743L3.60473 6.63146L4.33601 5.6074L3.60475 4.53418ZM3.9578 5.62609L3.6196 6.08519L3.27735 5.5987L3.6187 5.09489L3.9578 5.62609Z" fill="#B20000"/>
<path fill-rule="evenodd" clip-rule="evenodd" d="M5.22975 4.53418L4.47917 5.60743L5.22973 6.63146L5.96101 5.6074L5.22975 4.53418ZM5.5828 5.62609L5.2446 6.08519L4.90235 5.5987L5.2437 5.09489L5.5828 5.62609Z" fill="#B20000"/>
<path fill-rule="evenodd" clip-rule="evenodd" d="M2.85221 2.42138L4.42589 0.0605469L5.95906 2.42131L4.42585 4.67396L2.85221 2.42138ZM4.41771 3.71016L5.29973 2.41427L4.41767 1.05607L3.51237 2.4142L4.41771 3.71016ZM4.53841 2.23584H4.26758V2.79498H4.53841V2.23584Z" fill="#B20000"/>
<path d="M1.46177 13.4397L-0.292316 10.4941L0.16914 10.2013L1.44074 12.3367L2.99231 9.48535L4.58243 12.3435L5.70595 10.4787L6.16591 10.774L4.56392 13.4329L2.99753 10.6175L1.46177 13.4397Z" fill="#B20000"/>
<path fill-rule="evenodd" clip-rule="evenodd" d="M0.477867 0.55957H0.769086V1.11871H0.477867V0.55957Z" fill="#B20000"/>
<path fill-rule="evenodd" clip-rule="evenodd" d="M2.91537 0H3.20659V0.55914H2.91537V0Z" fill="#B20000"/>
<path fill-rule="evenodd" clip-rule="evenodd" d="M5.35287 0.55957H5.64409V1.11871H5.35287V0.55957Z" fill="#B20000"/>
<path fill-rule="evenodd" clip-rule="evenodd" d="M0.480469 3.91504H0.751302V4.47418H0.480469V3.91504ZM2.91797 3.91504H3.1888V4.47418H2.91797V3.91504ZM5.6263 3.91504H5.35547V4.47418H5.6263V3.91504Z" fill="#B20000"/>
<path fill-rule="evenodd" clip-rule="evenodd" d="M0.480469 6.70996H0.751302V7.2691H0.480469V6.70996ZM2.91797 6.70996H3.1888V7.2691H2.91797V6.70996ZM5.6263 6.70996H5.35547V7.2691H5.6263V6.70996Z" fill="#B20000"/>
<path fill-rule="evenodd" clip-rule="evenodd" d="M2.05894 9.69986L1.3394 10.7488L0.20443 8.70463L1.69917 6.36914L2.9847 8.40507L4.27024 6.36914L5.76498 8.70463L4.63001 10.7488L3.91046 9.69986L4.47856 8.51873L4.27024 8.03883L3.05647 10.0076V10.2404L2.9847 10.124L2.91294 10.2404V10.0076L1.69917 8.03883L1.49085 8.51873L2.05894 9.69986Z" fill="#B20000"/>
<path fill-rule="evenodd" clip-rule="evenodd" d="M2.91276 11.4629H3.1836V12.022H2.91276V11.4629ZM2.91276 14.259H3.1836V14.8182H2.91276V14.259ZM2.91276 12.3018H2.64193V12.861H2.91276V13.1408H2.64193V13.6999H2.91276L2.91276 13.4196H3.1836V13.6999H3.45443V13.1408H3.1836V12.861H3.45443V12.3018H3.1836V12.8604H2.91276L2.91276 12.3018ZM2.10026 12.8604H2.3711V13.4196H2.10026V12.8604ZM3.9961 12.8604H3.72526V13.4196H3.9961V12.8604ZM0.20443 12.8604H0.475263V13.4196H0.20443V12.8604ZM5.89193 12.8604H5.6211V13.4196H5.89193V12.8604Z" fill="#B20000"/>
<path fill-rule="evenodd" clip-rule="evenodd" d="M0.14909 23.5786L1.72277 25.9395L3.25593 23.5787L1.72272 21.326L0.14909 23.5786ZM1.71459 22.2898L2.59661 23.5857L1.71455 24.9439L0.809246 23.5858L1.71459 22.2898ZM1.83268 23.7642H1.56185V23.205H1.83268V23.7642Z" fill="#B20000"/>
<path fill-rule="evenodd" clip-rule="evenodd" d="M0.89902 21.4658L0.148438 20.3926L0.898999 19.3685L1.63028 20.3926L0.89902 21.4658ZM1.25207 20.3739L0.913875 19.9148L0.571615 20.4013L0.912967 20.9051L1.25207 20.3739Z" fill="#B20000"/>
<path fill-rule="evenodd" clip-rule="evenodd" d="M2.52402 21.4658L1.77344 20.3926L2.524 19.3685L3.25528 20.3926L2.52402 21.4658ZM2.87707 20.3739L2.53887 19.9148L2.19661 20.4013L2.53797 20.9051L2.87707 20.3739Z" fill="#B20000"/>
<path fill-rule="evenodd" clip-rule="evenodd" d="M3.60475 21.4658L2.85417 20.3926L3.60473 19.3685L4.33601 20.3926L3.60475 21.4658ZM3.9578 20.3739L3.6196 19.9148L3.27735 20.4013L3.6187 20.9051L3.9578 20.3739Z" fill="#B20000"/>
<path fill-rule="evenodd" clip-rule="evenodd" d="M5.22975 21.4658L4.47917 20.3926L5.22973 19.3685L5.96101 20.3926L5.22975 21.4658ZM5.5828 20.3739L5.2446 19.9148L4.90235 20.4013L5.2437 20.9051L5.5828 20.3739Z" fill="#B20000"/>
<path fill-rule="evenodd" clip-rule="evenodd" d="M2.85221 23.5786L4.42589 25.9395L5.95906 23.5787L4.42585 21.326L2.85221 23.5786ZM4.41771 22.2898L5.29973 23.5857L4.41767 24.9439L3.51237 23.5858L4.41771 22.2898ZM4.53841 23.7642H4.26758V23.205H4.53841V23.7642Z" fill="#B20000"/>
<path d="M1.46177 12.5603L-0.292316 15.5059L0.16914 15.7987L1.44074 13.6633L2.99231 16.5146L4.58243 13.6565L5.70595 15.5213L6.16591 15.226L4.56392 12.5671L2.99753 15.3825L1.46177 12.5603Z" fill="#B20000"/>
<path fill-rule="evenodd" clip-rule="evenodd" d="M0.477867 25.4404H0.769086V24.8813H0.477867V25.4404Z" fill="#B20000"/>
<path fill-rule="evenodd" clip-rule="evenodd" d="M2.91537 26H3.20659V25.4409H2.91537V26Z" fill="#B20000"/>
<path fill-rule="evenodd" clip-rule="evenodd" d="M5.35287 25.4404H5.64409V24.8813H5.35287V25.4404Z" fill="#B20000"/>
<path fill-rule="evenodd" clip-rule="evenodd" d="M0.480469 22.085H0.751302V21.5258H0.480469V22.085ZM2.91797 22.085H3.1888V21.5258H2.91797V22.085ZM5.6263 22.085H5.35547V21.5258H5.6263V22.085Z" fill="#B20000"/>
<path fill-rule="evenodd" clip-rule="evenodd" d="M0.480469 19.29H0.751302V18.7309H0.480469V19.29ZM2.91797 19.29H3.1888V18.7309H2.91797V19.29ZM5.6263 19.29H5.35547V18.7309H5.6263V19.29Z" fill="#B20000"/>
<path fill-rule="evenodd" clip-rule="evenodd" d="M2.05894 16.4593L1.3394 15.4104L0.20443 17.4546L1.69917 19.79L2.9847 17.7541L4.27024 19.79L5.76498 17.4546L4.63001 15.4104L3.91046 16.4593L4.47856 17.6404L4.27024 18.1203L3.05647 16.1516V15.9187L2.9847 16.0351L2.91294 15.9187V16.1516L1.69917 18.1203L1.49085 17.6404L2.05894 16.4593Z" fill="#B20000"/>
</g>
</g>
</svg>
