<svg width="26" height="26" viewBox="0 0 26 26" fill="none" xmlns="http://www.w3.org/2000/svg">
<mask id="mask0_1_17941" style="mask-type:alpha" maskUnits="userSpaceOnUse" x="0" y="0" width="26" height="26">
<circle cx="13" cy="13" r="13" fill="#634848"/>
</mask>
<g mask="url(#mask0_1_17941)">
<mask id="mask1_1_17941" style="mask-type:alpha" maskUnits="userSpaceOnUse" x="-5" y="0" width="36" height="26">
<rect x="-4.33333" width="34.6667" height="26" fill="white"/>
</mask>
<g mask="url(#mask1_1_17941)">
<path fill-rule="evenodd" clip-rule="evenodd" d="M-4.33073 0V26H30.3359V0H-4.33073Z" fill="#0168B4"/>
<mask id="mask2_1_17941" style="mask-type:alpha" maskUnits="userSpaceOnUse" x="-5" y="0" width="36" height="26">
<path fill-rule="evenodd" clip-rule="evenodd" d="M-4.33073 0V26H30.3359V0H-4.33073Z" fill="white"/>
</mask>
<g mask="url(#mask2_1_17941)">
<path fill-rule="evenodd" clip-rule="evenodd" d="M-4.33073 0V3.25H30.3359V0H-4.33073Z" fill="#E93C43"/>
<path fill-rule="evenodd" clip-rule="evenodd" d="M-4.33073 22.75V26H30.3359V22.75H-4.33073Z" fill="#E93C43"/>
<path d="M13 19.501C9.41015 19.501 6.5 16.5908 6.5 13.001C6.5 9.41113 9.41015 6.50098 13 6.50098C16.5899 6.50098 19.5 9.41113 19.5 13.001C19.5 16.5908 16.5899 19.501 13 19.501Z" fill="#F7FCFF"/>
<path d="M13 21.6673C8.21353 21.6673 4.33334 17.7871 4.33334 13.0007C4.33334 8.21418 8.21353 4.33398 13 4.33398C17.7865 4.33398 21.6667 8.21418 21.6667 13.0007C21.6667 17.7871 17.7865 21.6673 13 21.6673Z" fill="white"/>
<path fill-rule="evenodd" clip-rule="evenodd" d="M13 20.5837C17.1882 20.5837 20.5833 17.1885 20.5833 13.0003C20.5833 8.81217 17.1882 5.41699 13 5.41699C8.81184 5.41699 5.41667 8.81217 5.41667 13.0003C5.41667 17.1885 8.81184 20.5837 13 20.5837Z" stroke="#9C4C17" stroke-width="0.5"/>
<path fill-rule="evenodd" clip-rule="evenodd" d="M12.538 4.42383L12.3698 4.78663C12.6473 4.9373 12.7525 5.27832 12.7525 5.4849C12.7525 5.68935 12.644 5.8453 12.3698 5.98852L12.538 6.36354C12.6529 6.30352 12.7665 6.25304 12.874 6.2053C13.2593 6.03415 13.565 5.89832 13.565 5.4849C13.565 4.97974 13.1018 4.72905 12.6018 4.45841L12.538 4.42383ZM14.9605 4.65109L14.6988 4.95348C14.924 5.1748 14.9312 5.53162 14.8743 5.7302C14.8179 5.92673 14.6706 6.04673 14.3675 6.10882L14.4258 6.51567C14.5528 6.48965 14.676 6.47245 14.7924 6.45618L14.7924 6.45618L14.7924 6.45618L14.7924 6.45618L14.7924 6.45617C15.21 6.39785 15.5413 6.35156 15.6553 5.95415C15.7945 5.46856 15.4184 5.09992 15.0123 4.70192L14.9605 4.65109ZM16.9033 5.767L17.242 5.55432L17.2766 5.61808C17.5486 6.11741 17.8005 6.57992 17.5254 7.00358C17.3002 7.35031 16.9698 7.2977 16.5535 7.2314L16.5535 7.2314C16.4374 7.21291 16.3146 7.19335 16.1855 7.1811L16.2487 6.77499C16.5567 6.80423 16.7326 6.73253 16.844 6.56106C16.9565 6.38781 17.054 6.04448 16.9033 5.767ZM19.1663 7.05913L18.7822 7.17023C18.8505 7.47848 18.6622 7.78165 18.5063 7.91718C18.352 8.05131 18.1631 8.07174 17.8751 7.95874L17.7024 8.3317C17.8231 8.37905 17.9357 8.4317 18.0423 8.48148C18.4242 8.65997 18.7273 8.80161 19.0393 8.53038C19.4206 8.19896 19.3059 7.68494 19.1821 7.12998L19.1663 7.05913ZM20.1829 9.04273L20.5828 9.04182L20.5784 9.11427C20.5445 9.68185 20.513 10.2076 20.0552 10.4211C19.6805 10.5958 19.4282 10.3761 19.1102 10.0992L19.1102 10.0992C19.0215 10.022 18.9278 9.94036 18.8248 9.86158L19.0936 9.55067C19.3393 9.73867 19.5265 9.7711 19.7118 9.68469C19.899 9.59739 20.1636 9.35788 20.1829 9.04273ZM21.3899 11.358L21.0073 11.242C20.8967 11.5377 20.5736 11.6894 20.3691 11.7182C20.1666 11.7466 19.9971 11.6609 19.8171 11.4093L19.4691 11.628C19.5445 11.7334 19.6103 11.8389 19.6726 11.9387C19.8957 12.2964 20.0727 12.5803 20.4821 12.5227C20.9824 12.4524 21.1662 11.9589 21.3646 11.426L21.3899 11.358ZM21.1765 13.5764L21.5124 13.7934L21.4693 13.8518C21.1317 14.3093 20.819 14.7331 20.3187 14.6628C19.9093 14.6052 19.8174 14.2836 19.7015 13.8782C19.6692 13.7652 19.635 13.6456 19.5916 13.5234L19.9863 13.4091C20.09 13.7006 20.2293 13.8297 20.4318 13.8582C20.6364 13.8869 20.9887 13.8302 21.1765 13.5764ZM20.94 16.1819L20.6823 15.8761C20.4284 16.0639 20.0749 16.0152 19.8877 15.9279C19.7024 15.8415 19.6069 15.6772 19.593 15.3682L19.182 15.3621C19.1878 15.4916 19.1856 15.6159 19.1834 15.7334V15.7334V15.7334V15.7334V15.7334V15.7335V15.7335V15.7335V15.7335V15.7335V15.7335V15.7335V15.7335V15.7335C19.1757 16.155 19.1696 16.4895 19.5443 16.6643C20.0021 16.8778 20.4251 16.5639 20.8817 16.2251L20.94 16.1819ZM19.5608 17.9295L19.7243 18.2945L19.6563 18.32C19.124 18.5198 18.631 18.7049 18.2497 18.3735C17.9377 18.1022 18.0358 17.7824 18.1594 17.3793C18.1938 17.2669 18.2303 17.148 18.2604 17.0219L18.6537 17.141C18.5819 17.4419 18.6285 17.6261 18.7828 17.7603C18.9387 17.8958 19.2651 18.0401 19.5608 17.9295ZM17.967 19.9794L17.9105 19.5835C17.5957 19.6083 17.3217 19.3796 17.2092 19.2063C17.0978 19.0349 17.1039 18.845 17.2559 18.5755L16.9106 18.3526C16.8469 18.4655 16.7791 18.5697 16.715 18.6683C16.4851 19.0217 16.3026 19.3021 16.5278 19.6489C16.8029 20.0725 17.3279 20.0305 17.8947 19.9851L17.967 19.9794ZM15.8499 20.7186L15.7882 21.1137L15.7173 21.0981C15.1621 20.9758 14.6477 20.8625 14.5085 20.3769C14.3945 19.9795 14.651 19.7646 14.9742 19.4939C15.0643 19.4184 15.1596 19.3385 15.2536 19.2492L15.5186 19.5633C15.2945 19.7766 15.2332 19.9564 15.2895 20.1529C15.3465 20.3515 15.5416 20.6503 15.8499 20.7186ZM13.395 21.5773L13.5632 21.2145C13.2857 21.0638 13.1804 20.7228 13.1804 20.5162C13.1804 20.3118 13.2889 20.1558 13.5632 20.0126L13.395 19.6376C13.2801 19.6976 13.1664 19.7481 13.059 19.7958C12.6737 19.967 12.3679 20.1028 12.3679 20.5162C12.3679 21.0214 12.8311 21.2721 13.3312 21.5427L13.395 21.5773ZM11.2257 21.0477L10.964 21.35L10.9122 21.2992C10.5061 20.9012 10.13 20.5326 10.2692 20.047C10.3832 19.6496 10.7145 19.6033 11.132 19.545H11.132C11.2485 19.5287 11.3716 19.5115 11.4987 19.4855L11.5569 19.8923C11.2539 19.9544 11.1066 20.0744 11.0502 20.2709C10.9933 20.4695 11.0005 20.8263 11.2257 21.0477ZM8.68253 20.4479L9.02116 20.2352C8.87053 19.9577 8.96798 19.6144 9.0805 19.4411C9.19185 19.2697 9.36778 19.198 9.67576 19.2272L9.73898 18.8211C9.60992 18.8088 9.48712 18.7893 9.37101 18.7708L9.37098 18.7708C8.95464 18.7045 8.62424 18.6519 8.39908 18.9986C8.12395 19.4223 8.37586 19.8848 8.64784 20.3841L8.68253 20.4479ZM7.15076 18.832L6.76663 18.9431L6.75085 18.8722C6.62705 18.3173 6.51237 17.8032 6.89362 17.4718C7.20564 17.2006 7.50873 17.3422 7.89068 17.5207L7.8907 17.5207L7.89073 17.5207L7.89079 17.5208C7.99728 17.5705 8.1099 17.6232 8.23055 17.6705L8.05785 18.0435C7.76985 17.9305 7.58097 17.9509 7.42667 18.085C7.27076 18.2205 7.08245 18.5237 7.15076 18.832ZM5.35016 16.9604L5.75003 16.9595C5.76933 16.6443 6.03391 16.4048 6.22114 16.3175C6.40643 16.2311 6.59363 16.2635 6.83932 16.4515L7.10814 16.1406C7.00517 16.0618 6.91139 15.9802 6.82272 15.903L6.82271 15.903C6.50476 15.6261 6.25245 15.4064 5.87776 15.5811C5.41993 15.7946 5.38848 16.3203 5.35452 16.8879L5.35016 16.9604ZM4.91721 14.7592L4.53454 14.6431L4.5599 14.5751C4.75832 14.0423 4.9421 13.5487 5.44235 13.4784C5.85175 13.4209 6.0288 13.7047 6.25191 14.0624C6.31414 14.1622 6.37995 14.2677 6.45538 14.3732L6.10741 14.5919C5.92742 14.3403 5.75789 14.2545 5.55543 14.283C5.35085 14.3117 5.02781 14.4634 4.91721 14.7592ZM4.41208 12.2088L4.74794 12.4258C4.93577 12.172 5.28811 12.1153 5.49268 12.144C5.69514 12.1725 5.83448 12.3016 5.93814 12.5931L6.33292 12.4788C6.28948 12.3566 6.2553 12.237 6.22298 12.124C6.10711 11.7186 6.01516 11.3969 5.60576 11.3394C5.10552 11.2691 4.79281 11.6929 4.45521 12.1504L4.41208 12.2088ZM5.24222 10.1261L4.98449 9.82033L5.0428 9.7771C5.49942 9.43827 5.92236 9.12444 6.38019 9.33793C6.75488 9.51265 6.74877 9.84715 6.74106 10.2687C6.73891 10.3862 6.73664 10.5106 6.74247 10.6401L6.33151 10.634C6.3176 10.325 6.22211 10.1607 6.03682 10.0743C5.84959 9.987 5.49604 9.93827 5.24222 10.1261ZM6.20017 7.70666L6.36365 8.07159C6.6594 7.96104 6.98582 8.10533 7.14173 8.24086C7.29603 8.37499 7.34255 8.55919 7.27074 8.86011L7.6641 8.97923C7.69419 8.85312 7.73065 8.73423 7.76512 8.62181C7.88872 8.21875 7.9868 7.89889 7.67478 7.62766C7.29353 7.29624 6.80047 7.48134 6.26814 7.68118L6.20017 7.70666ZM8.02247 6.41763L7.96591 6.02177L8.03827 6.01601C8.60505 5.97065 9.13004 5.92863 9.40517 6.35229C9.63034 6.69902 9.44789 6.97945 9.21798 7.33283L9.21797 7.33284C9.15386 7.4314 9.08605 7.53563 9.02236 7.64855L8.67707 7.42563C8.82904 7.15616 8.8351 6.96627 8.72375 6.79481C8.61124 6.62155 8.33723 6.39288 8.02247 6.41763ZM10.1447 4.8874L10.0831 5.2825C10.3913 5.35086 10.5865 5.64965 10.6434 5.84823C10.6998 6.04476 10.6385 6.22458 10.4144 6.43784L10.6794 6.75198C10.7733 6.66261 10.8686 6.58275 10.9588 6.50725C11.282 6.23652 11.5384 6.02169 11.4245 5.62428C11.2852 5.13868 10.7709 5.02538 10.2156 4.90305C10.192 4.89786 10.1684 4.89266 10.1447 4.8874Z" fill="#5B8C39"/>
<path fill-rule="evenodd" clip-rule="evenodd" d="M8.9688 15.1539C8.9688 15.1539 7.77735 15.1278 7.77735 15.6753C7.77735 16.2227 7.77735 16.8291 8.37307 16.5259C8.9688 16.2227 9.69713 16.1029 10.0824 16.3144C10.4676 16.5259 11.3653 16.9556 12.6307 16.9556C13.8961 16.9556 13.8117 16.5259 14.9771 16.5259C16.1424 16.5259 18.2231 16.4331 17.7413 16.0542C17.2594 15.6753 16.6922 15.4355 16.2593 15.4355C15.8263 15.4355 15.4943 15.4355 14.5839 14.9893C13.6736 14.5431 12.6572 14.5027 11.6331 14.6465C10.609 14.7904 10.4738 15.1539 9.86819 15.1539C9.26256 15.1539 8.9688 15.1539 8.9688 15.1539Z" fill="#247805"/>
<path d="M13.1073 16.9553C13.1778 17.1951 13.1779 17.1951 13.178 17.1951L13.1783 17.195L13.179 17.1948L13.181 17.1942L13.1874 17.1922L13.2091 17.1853C13.2275 17.1793 13.2536 17.1706 13.2862 17.1589C13.3514 17.1354 13.443 17.1 13.5523 17.0511C13.7703 16.9537 14.0621 16.801 14.3553 16.58C14.9424 16.1377 15.5525 15.4058 15.5525 14.2922V14.2836V14.275V14.2664V14.2577V14.2491V14.2405V14.2319V14.2234V14.2148V14.2062V14.1976V14.1891V14.1805V14.172V14.1634V14.1549V14.1463V14.1378V14.1293V14.1208V14.1123V14.1038V14.0953V14.0868V14.0783V14.0699V14.0614V14.0529V14.0445V14.036V14.0276V14.0192V14.0107V14.0023V13.9939V13.9855V13.9771V13.9687V13.9603V13.952V13.9436V13.9352V13.9269V13.9186V13.9102V13.9019V13.8936V13.8853V13.8769V13.8687V13.8604V13.8521V13.8438V13.8355V13.8273V13.819V13.8108V13.8026V13.7943V13.7861V13.7779V13.7697V13.7615V13.7533V13.7452V13.737V13.7288V13.7207V13.7125V13.7044V13.6963V13.6882V13.6801V13.672V13.6639V13.6558V13.6477V13.6397V13.6316V13.6236V13.6155V13.6075V13.5995V13.5915V13.5835V13.5755V13.5675V13.5595V13.5516V13.5436V13.5357V13.5278V13.5198V13.5119V13.504V13.4961V13.4883V13.4804V13.4725V13.4647V13.4568V13.449V13.4412V13.4334V13.4256V13.4178V13.41V13.4022V13.3944V13.3867V13.379V13.3712V13.3635V13.3558V13.3481V13.3404V13.3327V13.3251V13.3174V13.3098V13.3021V13.2945V13.2869V13.2793V13.2717V13.2641V13.2566V13.249V13.2415V13.2339V13.2264V13.2189V13.2114V13.2039V13.1965V13.189V13.1815V13.1741V13.1667V13.1593V13.1518V13.1445V13.1371V13.1297V13.1223V13.115V13.1077V13.1003V13.093V13.0857V13.0784V13.0712V13.0639V13.0567V13.0494V13.0422V13.035V13.0278V13.0206V13.0134V13.0063V12.9991V12.992V12.9849V12.9778V12.9707V12.9636V12.9565V12.9494V12.9424V12.9354V12.9284V12.9213V12.9144V12.9074V12.9004V12.8935V12.8865V12.8796V12.8727V12.8658V12.8589V12.852V12.8452V12.8383V12.8315V12.8247V12.8179V12.8111V12.8043V12.7975V12.7908V12.7841V12.7773V12.7706V12.764V12.7573V12.7506V12.744V12.7373V12.7307V12.7241V12.7175V12.7109V12.7044V12.6978V12.6913V12.6848V12.6783V12.6718V12.6653V12.6589V12.6524V12.646V12.6396V12.6332V12.6268V12.6204V12.6141V12.6077V12.6014V12.5951V12.5888V12.5826V12.5763V12.57V12.5638V12.5576V12.5514V12.5452V12.5391V12.5329V12.5268V12.5207V12.5146V12.5085V12.5024V12.4963V12.4903V12.4843V12.4783V12.4723V12.4663V12.4603V12.4544V12.4485V12.4426V12.4367V12.4308V12.4249V12.4191V12.4133V12.4075V12.4017V12.3959V12.3901V12.3844V12.3787V12.373V12.3673V12.3616V12.3559V12.3503V12.3447V12.3391V12.3335V12.3279V12.3224V12.3168V12.3113V12.3058V12.3003V12.2948V12.2894V12.284V12.2785V12.2732V12.2678V12.2624V12.2571V12.2517V12.2464V12.2411V12.2359V12.2306V12.2254V12.2202V12.215V12.2098V12.2046V12.1995V12.1944V12.1893V12.1842V12.1791V12.1741V12.169V12.164V12.159V12.154V12.1491V12.1441V12.1392V12.1343V12.1294V12.1246V12.1197V12.1149V12.1101V12.1053V12.1005V12.0958V12.0911V12.0864V12.0817V12.077V12.0724V12.0677V12.0631V12.0585V12.0539V12.0494V12.0449V12.0403V12.0359V12.0314V12.0269V12.0225V12.0181V12.0137V12.0093V12.005V12.0006V11.9963V11.992V11.9877V11.9543V11.9502V11.9461V11.9421V11.9381V11.9341V11.9301V11.9261V11.9222V11.9183V11.9144V11.9105V11.9066V11.9028V11.899V11.8952V11.8914V11.8877V11.8839V11.8802V11.8765V11.8729V11.8692V11.8656V11.862V11.8584V11.8549V11.8514V11.8478V11.8444V11.8409V11.8374V11.834V11.8306V11.8272V11.8239V11.8205V11.8172V11.8139V11.8107V11.8074V11.8042V11.801V11.7978V11.7947V11.7915V11.7884V11.7853V11.7823V11.7792V11.7762V11.7732V11.7702V11.7673V11.7644V11.7615V11.7586V11.7557V11.7529V11.7501V11.7473V11.7445V11.7418V11.7391V11.7364V11.7337V11.7311V11.7284V11.7258V11.7233V11.7207V11.7182V11.7157V11.7132V11.7107V11.7083V11.7059V11.7035V11.7011V11.6988V11.6965V11.6942V11.6919V11.6897V11.6875V11.6853V11.6831V11.681V11.6789V11.6768V11.6747V11.6727V11.6706V11.6686V11.6667V11.6647V11.6628V11.6609V11.659V11.6572V11.6554V11.6536V11.6518V11.6501V11.6484V11.6467V11.645V11.6433V11.6417V11.6401V11.6386V11.637V11.6355V11.634V11.6326V11.6311V11.6297V11.6283V11.627V11.6256V11.6243V11.623V11.6218V11.6205V11.6193V11.6181V11.617V11.6159V11.6148V11.6137V11.6126V11.6116V11.6106V11.6097V11.6087V11.6078V11.6069V11.606V11.6052V11.6044V11.6036V11.6029V11.6021V11.6014V11.6008V11.6001V11.5995V11.5989V11.5983V11.5978V11.5973V11.5968V11.5963V11.5959V11.5955V11.5951V11.5948V11.5945V11.5942V11.5939V11.5937V11.5935V11.5933V11.5931V11.593V11.5929V11.5928V11.5928L15.3025 11.5928H15.5525V11.3428H15.3025H10.9121H10.6621V11.5928H10.9121L10.6621 11.5928V11.5928V11.5929V11.593V11.5932V11.5934V11.5936V11.5938V11.5941V11.5944V11.5948V11.5952V11.5956V11.596V11.5965V11.597V11.5975V11.5981V11.5987V11.5994V11.6V11.6007V11.6015V11.6022V11.603V11.6038V11.6047V11.6056V11.6065V11.6075V11.6084V11.6095V11.6105V11.6116V11.6127V11.6138V11.615V11.6162V11.6174V11.6187V11.62V11.6213V11.6227V11.624V11.6255V11.6269V11.6284V11.6299V11.6314V11.633V11.6346V11.6362V11.6378V11.6395V11.6412V11.6429V11.6447V11.6465V11.6483V11.6502V11.6521V11.654V11.6559V11.6579V11.6599V11.6619V11.664V11.6661V11.6682V11.6703V11.6725V11.6747V11.6769V11.6792V11.6814V11.6837V11.6861V11.6884V11.6908V11.6933V11.6957V11.6982V11.7007V11.7032V11.7058V11.7083V11.7109V11.7136V11.7162V11.7189V11.7216V11.7244V11.7272V11.7299V11.7328V11.7356V11.7385V11.7414V11.7443V11.7473V11.7502V11.7533V11.7563V11.7593V11.7624V11.7655V11.7687V11.7718V11.775V11.7782V11.7814V11.7847V11.788V11.7913V11.7946V11.798V11.8014V11.8048V11.8082V11.8116V11.8151V11.8186V11.8222V11.8257V11.8293V11.8329V11.8365V11.8402V11.8438V11.8475V11.8513V11.855V11.8588V11.8626V11.8664V11.8702V11.8741V11.8779V11.8819V11.8858V11.8897V11.8937V11.8977V11.9017V11.9058V11.9098V11.9139V11.918V11.9222V11.9263V11.9305V11.9347V11.9389V11.9432V11.9474V11.9517V11.956V11.9603V11.9647V11.9691V11.9735V11.9779V11.9823V11.9868V11.9913V11.9958V12.0003V12.0048V12.0094V12.014V12.0186V12.0232V12.0278V12.0325V12.0372V12.0419V12.0466V12.0514V12.0561V12.0609V12.0657V12.0706V12.0754V12.0803V12.0852V12.0901V12.095V12.0999V12.1049V12.1099V12.1149V12.1199V12.1249V12.13V12.1351V12.1402V12.1453V12.1504V12.1556V12.1607V12.1659V12.1711V12.1764V12.1816V12.1869V12.1921V12.1974V12.2028V12.2081V12.2134V12.2188V12.2242V12.2296V12.235V12.2405V12.2459V12.2514V12.2569V12.2624V12.2679V12.2734V12.279V12.2846V12.2902V12.2958V12.3014V12.307V12.3127V12.3184V12.3241V12.3298V12.3355V12.3412V12.347V12.3527V12.3585V12.3643V12.3701V12.376V12.3818V12.3877V12.3936V12.3995V12.4054V12.4113V12.4172V12.4232V12.4292V12.4351V12.4411V12.4471V12.4532V12.4592V12.4653V12.4713V12.4774V12.4835V12.4896V12.4958V12.5019V12.5081V12.5142V12.5204V12.5266V12.5328V12.539V12.5453V12.5515V12.5578V12.5641V12.5704V12.5767V12.583V12.5893V12.5957V12.602V12.6084V12.6148V12.6211V12.6275V12.634V12.6404V12.6468V12.6533V12.6598V12.6662V12.6727V12.6792V12.6857V12.6923V12.6988V12.7054V12.7119V12.7185V12.7251V12.7317V12.7383V12.7449V12.7515V12.7581V12.7648V12.7715V12.7781V12.7848V12.7915V12.7982V12.8049V12.8116V12.8184V12.8251V12.8319V12.8386V12.8454V12.8522V12.859V12.8658V12.8726V12.8794V12.8863V12.8931V12.8999V12.9068V12.9137V12.9206V12.9274V12.9343V12.9413V12.9482V12.9551V12.962V12.969V12.9759V12.9829V12.9898V12.9968V13.0038V13.0108V13.0178V13.0248V13.0318V13.0388V13.0459V13.0529V13.0599V13.067V13.0741V13.0811V13.0882V13.0953V13.1024V13.1095V13.1166V13.1237V13.1308V13.1379V13.1451V13.1522V13.1594V13.1665V13.1737V13.1808V13.188V13.1952V13.2024V13.2096V13.2168V13.224V13.2312V13.2384V13.2456V13.2528V13.2601V13.2673V13.2745V13.2818V13.289V13.2963V13.3036V13.3108V13.3181V13.3254V13.3327V13.3399V13.3472V13.3545V13.3618V13.3691V13.3764V13.3838V13.3911V13.3984V13.4057V13.4131V13.4204V13.4277V13.4351V13.4424V13.4498V13.4571V13.4645V13.4718V13.4792V13.4866V13.4939V13.5013V13.5087V13.5161V13.5234V13.5308V13.5382V13.5456V13.553V13.5604V13.5678V13.5752V13.5826V13.59V13.5974V13.6048V13.6122V13.6196V13.627V13.6344V13.6419V13.6493V13.6567V13.6641V13.6715V13.679V13.6864V13.6938V13.7012V13.7087V13.7161V13.7235V13.731V13.7384V13.7458V13.7533V13.7607V13.7681V13.7756V13.783V13.7904V13.7979V13.8053V13.8127V13.8202V13.8796V13.9093V13.9168V13.9242V13.939V13.9983V14.028V14.0575V14.1165V14.1754V14.2339V14.2922C10.6621 15.3774 11.274 16.1086 11.8575 16.5563C12.1498 16.7805 12.4407 16.9386 12.658 17.0407C12.7669 17.092 12.8582 17.1295 12.9231 17.1545C12.9556 17.167 12.9815 17.1763 12.9998 17.1828L13.0214 17.1902L13.0277 17.1923L13.0297 17.1929L13.0303 17.1931L13.0306 17.1932C13.0307 17.1933 13.0308 17.1933 13.1073 16.9553ZM13.1073 16.9553L13.1778 17.1951L13.104 17.2168L13.0308 17.1933L13.1073 16.9553Z" fill="white" stroke="#565656" stroke-width="0.5"/>
<mask id="mask3_1_17941" style="mask-type:alpha" maskUnits="userSpaceOnUse" x="10" y="11" width="6" height="7">
<path d="M13.1073 16.9553C13.1778 17.1951 13.1779 17.1951 13.178 17.1951L13.1783 17.195L13.179 17.1948L13.181 17.1942L13.1874 17.1922L13.2091 17.1853C13.2275 17.1793 13.2536 17.1706 13.2862 17.1589C13.3514 17.1354 13.443 17.1 13.5523 17.0511C13.7703 16.9537 14.0621 16.801 14.3553 16.58C14.9424 16.1377 15.5525 15.4058 15.5525 14.2922V14.2836V14.275V14.2664V14.2577V14.2491V14.2405V14.2319V14.2234V14.2148V14.2062V14.1976V14.1891V14.1805V14.172V14.1634V14.1549V14.1463V14.1378V14.1293V14.1208V14.1123V14.1038V14.0953V14.0868V14.0783V14.0699V14.0614V14.0529V14.0445V14.036V14.0276V14.0192V14.0107V14.0023V13.9939V13.9855V13.9771V13.9687V13.9603V13.952V13.9436V13.9352V13.9269V13.9186V13.9102V13.9019V13.8936V13.8853V13.8769V13.8687V13.8604V13.8521V13.8438V13.8355V13.8273V13.819V13.8108V13.8026V13.7943V13.7861V13.7779V13.7697V13.7615V13.7533V13.7452V13.737V13.7288V13.7207V13.7125V13.7044V13.6963V13.6882V13.6801V13.672V13.6639V13.6558V13.6477V13.6397V13.6316V13.6236V13.6155V13.6075V13.5995V13.5915V13.5835V13.5755V13.5675V13.5595V13.5516V13.5436V13.5357V13.5278V13.5198V13.5119V13.504V13.4961V13.4883V13.4804V13.4725V13.4647V13.4568V13.449V13.4412V13.4334V13.4256V13.4178V13.41V13.4022V13.3944V13.3867V13.379V13.3712V13.3635V13.3558V13.3481V13.3404V13.3327V13.3251V13.3174V13.3098V13.3021V13.2945V13.2869V13.2793V13.2717V13.2641V13.2566V13.249V13.2415V13.2339V13.2264V13.2189V13.2114V13.2039V13.1965V13.189V13.1815V13.1741V13.1667V13.1593V13.1518V13.1445V13.1371V13.1297V13.1223V13.115V13.1077V13.1003V13.093V13.0857V13.0784V13.0712V13.0639V13.0567V13.0494V13.0422V13.035V13.0278V13.0206V13.0134V13.0063V12.9991V12.992V12.9849V12.9778V12.9707V12.9636V12.9565V12.9494V12.9424V12.9354V12.9284V12.9213V12.9144V12.9074V12.9004V12.8935V12.8865V12.8796V12.8727V12.8658V12.8589V12.852V12.8452V12.8383V12.8315V12.8247V12.8179V12.8111V12.8043V12.7975V12.7908V12.7841V12.7773V12.7706V12.764V12.7573V12.7506V12.744V12.7373V12.7307V12.7241V12.7175V12.7109V12.7044V12.6978V12.6913V12.6848V12.6783V12.6718V12.6653V12.6589V12.6524V12.646V12.6396V12.6332V12.6268V12.6204V12.6141V12.6077V12.6014V12.5951V12.5888V12.5826V12.5763V12.57V12.5638V12.5576V12.5514V12.5452V12.5391V12.5329V12.5268V12.5207V12.5146V12.5085V12.5024V12.4963V12.4903V12.4843V12.4783V12.4723V12.4663V12.4603V12.4544V12.4485V12.4426V12.4367V12.4308V12.4249V12.4191V12.4133V12.4075V12.4017V12.3959V12.3901V12.3844V12.3787V12.373V12.3673V12.3616V12.3559V12.3503V12.3447V12.3391V12.3335V12.3279V12.3224V12.3168V12.3113V12.3058V12.3003V12.2948V12.2894V12.284V12.2785V12.2732V12.2678V12.2624V12.2571V12.2517V12.2464V12.2411V12.2359V12.2306V12.2254V12.2202V12.215V12.2098V12.2046V12.1995V12.1944V12.1893V12.1842V12.1791V12.1741V12.169V12.164V12.159V12.154V12.1491V12.1441V12.1392V12.1343V12.1294V12.1246V12.1197V12.1149V12.1101V12.1053V12.1005V12.0958V12.0911V12.0864V12.0817V12.077V12.0724V12.0677V12.0631V12.0585V12.0539V12.0494V12.0449V12.0403V12.0359V12.0314V12.0269V12.0225V12.0181V12.0137V12.0093V12.005V12.0006V11.9963V11.992V11.9877V11.9543V11.9502V11.9461V11.9421V11.9381V11.9341V11.9301V11.9261V11.9222V11.9183V11.9144V11.9105V11.9066V11.9028V11.899V11.8952V11.8914V11.8877V11.8839V11.8802V11.8765V11.8729V11.8692V11.8656V11.862V11.8584V11.8549V11.8514V11.8478V11.8444V11.8409V11.8374V11.834V11.8306V11.8272V11.8239V11.8205V11.8172V11.8139V11.8107V11.8074V11.8042V11.801V11.7978V11.7947V11.7915V11.7884V11.7853V11.7823V11.7792V11.7762V11.7732V11.7702V11.7673V11.7644V11.7615V11.7586V11.7557V11.7529V11.7501V11.7473V11.7445V11.7418V11.7391V11.7364V11.7337V11.7311V11.7284V11.7258V11.7233V11.7207V11.7182V11.7157V11.7132V11.7107V11.7083V11.7059V11.7035V11.7011V11.6988V11.6965V11.6942V11.6919V11.6897V11.6875V11.6853V11.6831V11.681V11.6789V11.6768V11.6747V11.6727V11.6706V11.6686V11.6667V11.6647V11.6628V11.6609V11.659V11.6572V11.6554V11.6536V11.6518V11.6501V11.6484V11.6467V11.645V11.6433V11.6417V11.6401V11.6386V11.637V11.6355V11.634V11.6326V11.6311V11.6297V11.6283V11.627V11.6256V11.6243V11.623V11.6218V11.6205V11.6193V11.6181V11.617V11.6159V11.6148V11.6137V11.6126V11.6116V11.6106V11.6097V11.6087V11.6078V11.6069V11.606V11.6052V11.6044V11.6036V11.6029V11.6021V11.6014V11.6008V11.6001V11.5995V11.5989V11.5983V11.5978V11.5973V11.5968V11.5963V11.5959V11.5955V11.5951V11.5948V11.5945V11.5942V11.5939V11.5937V11.5935V11.5933V11.5931V11.593V11.5929V11.5928V11.5928L15.3025 11.5928H15.5525V11.3428H15.3025H10.9121H10.6621V11.5928H10.9121L10.6621 11.5928V11.5928V11.5929V11.593V11.5932V11.5934V11.5936V11.5938V11.5941V11.5944V11.5948V11.5952V11.5956V11.596V11.5965V11.597V11.5975V11.5981V11.5987V11.5994V11.6V11.6007V11.6015V11.6022V11.603V11.6038V11.6047V11.6056V11.6065V11.6075V11.6084V11.6095V11.6105V11.6116V11.6127V11.6138V11.615V11.6162V11.6174V11.6187V11.62V11.6213V11.6227V11.624V11.6255V11.6269V11.6284V11.6299V11.6314V11.633V11.6346V11.6362V11.6378V11.6395V11.6412V11.6429V11.6447V11.6465V11.6483V11.6502V11.6521V11.654V11.6559V11.6579V11.6599V11.6619V11.664V11.6661V11.6682V11.6703V11.6725V11.6747V11.6769V11.6792V11.6814V11.6837V11.6861V11.6884V11.6908V11.6933V11.6957V11.6982V11.7007V11.7032V11.7058V11.7083V11.7109V11.7136V11.7162V11.7189V11.7216V11.7244V11.7272V11.7299V11.7328V11.7356V11.7385V11.7414V11.7443V11.7473V11.7502V11.7533V11.7563V11.7593V11.7624V11.7655V11.7687V11.7718V11.775V11.7782V11.7814V11.7847V11.788V11.7913V11.7946V11.798V11.8014V11.8048V11.8082V11.8116V11.8151V11.8186V11.8222V11.8257V11.8293V11.8329V11.8365V11.8402V11.8438V11.8475V11.8513V11.855V11.8588V11.8626V11.8664V11.8702V11.8741V11.8779V11.8819V11.8858V11.8897V11.8937V11.8977V11.9017V11.9058V11.9098V11.9139V11.918V11.9222V11.9263V11.9305V11.9347V11.9389V11.9432V11.9474V11.9517V11.956V11.9603V11.9647V11.9691V11.9735V11.9779V11.9823V11.9868V11.9913V11.9958V12.0003V12.0048V12.0094V12.014V12.0186V12.0232V12.0278V12.0325V12.0372V12.0419V12.0466V12.0514V12.0561V12.0609V12.0657V12.0706V12.0754V12.0803V12.0852V12.0901V12.095V12.0999V12.1049V12.1099V12.1149V12.1199V12.1249V12.13V12.1351V12.1402V12.1453V12.1504V12.1556V12.1607V12.1659V12.1711V12.1764V12.1816V12.1869V12.1921V12.1974V12.2028V12.2081V12.2134V12.2188V12.2242V12.2296V12.235V12.2405V12.2459V12.2514V12.2569V12.2624V12.2679V12.2734V12.279V12.2846V12.2902V12.2958V12.3014V12.307V12.3127V12.3184V12.3241V12.3298V12.3355V12.3412V12.347V12.3527V12.3585V12.3643V12.3701V12.376V12.3818V12.3877V12.3936V12.3995V12.4054V12.4113V12.4172V12.4232V12.4292V12.4351V12.4411V12.4471V12.4532V12.4592V12.4653V12.4713V12.4774V12.4835V12.4896V12.4958V12.5019V12.5081V12.5142V12.5204V12.5266V12.5328V12.539V12.5453V12.5515V12.5578V12.5641V12.5704V12.5767V12.583V12.5893V12.5957V12.602V12.6084V12.6148V12.6211V12.6275V12.634V12.6404V12.6468V12.6533V12.6598V12.6662V12.6727V12.6792V12.6857V12.6923V12.6988V12.7054V12.7119V12.7185V12.7251V12.7317V12.7383V12.7449V12.7515V12.7581V12.7648V12.7715V12.7781V12.7848V12.7915V12.7982V12.8049V12.8116V12.8184V12.8251V12.8319V12.8386V12.8454V12.8522V12.859V12.8658V12.8726V12.8794V12.8863V12.8931V12.8999V12.9068V12.9137V12.9206V12.9274V12.9343V12.9413V12.9482V12.9551V12.962V12.969V12.9759V12.9829V12.9898V12.9968V13.0038V13.0108V13.0178V13.0248V13.0318V13.0388V13.0459V13.0529V13.0599V13.067V13.0741V13.0811V13.0882V13.0953V13.1024V13.1095V13.1166V13.1237V13.1308V13.1379V13.1451V13.1522V13.1594V13.1665V13.1737V13.1808V13.188V13.1952V13.2024V13.2096V13.2168V13.224V13.2312V13.2384V13.2456V13.2528V13.2601V13.2673V13.2745V13.2818V13.289V13.2963V13.3036V13.3108V13.3181V13.3254V13.3327V13.3399V13.3472V13.3545V13.3618V13.3691V13.3764V13.3838V13.3911V13.3984V13.4057V13.4131V13.4204V13.4277V13.4351V13.4424V13.4498V13.4571V13.4645V13.4718V13.4792V13.4866V13.4939V13.5013V13.5087V13.5161V13.5234V13.5308V13.5382V13.5456V13.553V13.5604V13.5678V13.5752V13.5826V13.59V13.5974V13.6048V13.6122V13.6196V13.627V13.6344V13.6419V13.6493V13.6567V13.6641V13.6715V13.679V13.6864V13.6938V13.7012V13.7087V13.7161V13.7235V13.731V13.7384V13.7458V13.7533V13.7607V13.7681V13.7756V13.783V13.7904V13.7979V13.8053V13.8127V13.8202V13.8796V13.9093V13.9168V13.9242V13.939V13.9983V14.028V14.0575V14.1165V14.1754V14.2339V14.2922C10.6621 15.3774 11.274 16.1086 11.8575 16.5563C12.1498 16.7805 12.4407 16.9386 12.658 17.0407C12.7669 17.092 12.8582 17.1295 12.9231 17.1545C12.9556 17.167 12.9815 17.1763 12.9998 17.1828L13.0214 17.1902L13.0277 17.1923L13.0297 17.1929L13.0303 17.1931L13.0306 17.1932C13.0307 17.1933 13.0308 17.1933 13.1073 16.9553ZM13.1073 16.9553L13.1778 17.1951L13.104 17.2168L13.0308 17.1933L13.1073 16.9553Z" fill="white" stroke="white" stroke-width="0.5"/>
</mask>
<g mask="url(#mask3_1_17941)">
<path opacity="0.4" fill-rule="evenodd" clip-rule="evenodd" d="M11.0475 15.0692L13.142 13.5264L15.3443 15.2441V17.689H11.0475V15.0692Z" fill="#84CEFF"/>
<path fill-rule="evenodd" clip-rule="evenodd" d="M11.1152 15.6152H15.0067V16.1569H11.1152V15.6152Z" fill="#006AC9"/>
<path fill-rule="evenodd" clip-rule="evenodd" d="M11.3099 16.1504H14.902V16.4376H11.3099V16.1504Z" fill="#59C800"/>
<path fill-rule="evenodd" clip-rule="evenodd" d="M11.3099 16.5078H14.902V17.0495H11.3099V16.5078Z" fill="#FFD800"/>
<path fill-rule="evenodd" clip-rule="evenodd" d="M15.9526 15.7212L13.1465 13.5783L13.1465 10.6855H15.9526V15.7212Z" fill="#F7D85D"/>
<path fill-rule="evenodd" clip-rule="evenodd" d="M12.5117 14.5421C12.5117 14.5421 12.6004 15.0024 12.6683 15.0024C12.7361 15.0024 12.8588 14.5421 12.8588 14.5421C12.8588 14.5421 12.8733 15.0024 12.9416 15.0024C13.0098 15.0024 13.0014 14.6166 13.1104 14.5421C13.1499 14.5151 13.1997 15 13.2604 15.0024C13.3113 15.0043 13.4358 14.5421 13.4358 14.5421C13.4358 14.5421 13.4735 15.0024 13.5324 15.0024C13.5913 15.0024 13.7091 14.5421 13.7091 14.5421V15.704H12.5117V14.5421Z" fill="#F5F6F6"/>
<path fill-rule="evenodd" clip-rule="evenodd" d="M13.11 16.0784C13.7161 16.0784 14.2076 15.9747 14.2076 15.8468C14.2076 15.7189 13.7161 15.6152 13.11 15.6152C12.5038 15.6152 12.0124 15.7189 12.0124 15.8468C12.0124 15.9747 12.5038 16.0784 13.11 16.0784Z" fill="#892E2E"/>
<path d="M11.1491 12.0307L11.3747 11.8545L12.8923 13.4139L12.6666 13.5901L11.1491 12.0307Z" fill="#A46031"/>
<path d="M11.3888 13.8329L11.1491 13.6723L12.6249 11.9053L12.8646 12.0659L11.3888 13.8329Z" fill="#892E2E"/>
<path d="M13.4427 12.2629L13.6684 12.123L15.1859 13.3613L14.9603 13.5012L13.4427 12.2629Z" fill="#A46031"/>
<path d="M13.7573 13.5275L13.4766 13.3367L14.92 12.1729L15.2277 12.4263L13.7573 13.5275Z" fill="#F5F6F6"/>
</g>
<path fill-rule="evenodd" clip-rule="evenodd" d="M11.4362 17.9131L12.1408 18.1338V18.7421H11.4362V17.9131Z" fill="#6699FF"/>
<path fill-rule="evenodd" clip-rule="evenodd" d="M10.9369 16.6699L11.3333 16.8907V17.4989H10.9369V16.6699Z" fill="#6699FF"/>
<path fill-rule="evenodd" clip-rule="evenodd" d="M14.6745 17.9131L13.9699 18.1338V18.7421H14.6745V17.9131Z" fill="#6699FF"/>
<path fill-rule="evenodd" clip-rule="evenodd" d="M15.1738 16.6699L14.7774 16.8907V17.4989H15.1738V16.6699Z" fill="#6699FF"/>
<path d="M10.5539 17.9572C10.4249 17.9572 10.3175 17.9602 10.1948 17.966C9.89725 17.9803 9.87857 17.98 9.79645 17.9462C9.74709 17.9259 9.69785 17.8932 9.62699 17.835C9.45899 17.6971 9.27791 17.3802 9.08138 16.8831L9.08197 16.8622C9.32454 16.3377 9.82337 16.2727 10.5653 16.6615C10.7607 16.7639 11.3305 17.0736 11.3258 17.0711C11.585 17.2098 11.7667 17.2986 11.9454 17.3706C12.3157 17.5196 12.6648 17.5873 13.1126 17.5873C13.3815 17.5873 13.6931 17.5109 14.0565 17.3666C14.2664 17.2832 14.4849 17.1814 14.7514 17.0461C14.7864 17.0283 15.344 16.7383 15.4819 16.6719C15.7232 16.5558 15.8824 16.4995 15.9921 16.4995C16.022 16.4995 16.0451 16.4994 16.103 16.4991C16.2033 16.4985 16.2509 16.4984 16.3087 16.4991C16.8436 16.5056 17.1075 16.5947 17.1075 16.8733C17.1075 17.1365 16.9363 17.4936 16.5951 17.9471L16.5785 17.9569C15.9034 18.048 15.5119 18.048 15.3914 17.9517C15.3586 17.9255 15.2686 17.9374 15.1031 17.9905C15.0282 18.0145 14.6268 18.158 14.5028 18.1991C13.9865 18.3703 13.5441 18.4622 13.0935 18.4622C12.4073 18.4622 11.6563 18.196 10.8403 17.6643C10.9882 17.8523 10.8946 17.9572 10.5539 17.9572Z" fill="white"/>
<path fill-rule="evenodd" clip-rule="evenodd" d="M10.1909 17.966C10.3136 17.9602 10.421 17.9572 10.55 17.9572C10.8907 17.9572 10.9843 17.8523 10.8364 17.6643C11.6524 18.196 12.4034 18.4622 13.0896 18.4622C13.5402 18.4622 13.9826 18.3703 14.4989 18.1991C14.5619 18.1782 14.6967 18.1308 14.8238 18.0862C14.9466 18.043 15.0624 18.0023 15.0992 17.9905C15.2646 17.9374 15.3547 17.9255 15.3875 17.9517C15.508 18.048 15.8995 18.048 16.5746 17.9569L16.5912 17.9471C16.9324 17.4936 17.1036 17.1365 17.1036 16.8733C17.1036 16.5947 16.8397 16.5056 16.3048 16.4991C16.247 16.4984 16.1994 16.4985 16.0991 16.4991C16.0412 16.4994 16.018 16.4995 15.9882 16.4995C15.8785 16.4995 15.7193 16.5558 15.478 16.6719C15.369 16.7244 14.9976 16.9167 14.8295 17.0037C14.785 17.0267 14.7548 17.0424 14.7474 17.0461C14.481 17.1814 14.2625 17.2832 14.0525 17.3666C13.6891 17.5109 13.3776 17.5873 13.1087 17.5873C12.6609 17.5873 12.3118 17.5196 11.9415 17.3706C11.7628 17.2986 11.5811 17.2098 11.3219 17.0711C11.3266 17.0736 10.7568 16.7639 10.5614 16.6615C9.81946 16.2727 9.32064 16.3377 9.07806 16.8622L9.07748 16.8831C9.274 17.3802 9.45508 17.6971 9.62309 17.835C9.69394 17.8932 9.74318 17.9259 9.79255 17.9462C9.87466 17.98 9.89334 17.9803 10.1909 17.966ZM9.81115 17.8984C9.76728 17.8804 9.72175 17.8501 9.65441 17.7948C9.49625 17.665 9.32009 17.3578 9.12826 16.8745C9.35802 16.3909 9.82381 16.3335 10.5385 16.708C10.7335 16.8102 11.3031 17.1197 11.2987 17.1173C11.5593 17.2569 11.7424 17.3464 11.9231 17.4191C12.2992 17.5705 12.6546 17.6394 13.1087 17.6394C13.3848 17.6394 13.7019 17.5616 14.0706 17.4152C14.2822 17.3312 14.5019 17.2287 14.7697 17.0929C14.7772 17.089 14.808 17.0731 14.8532 17.0497C15.0219 16.9623 15.3912 16.7712 15.4993 16.7192C15.7339 16.6063 15.8884 16.5516 15.9881 16.5516C16.0181 16.5516 16.0413 16.5515 16.0993 16.5512C16.1993 16.5506 16.2467 16.5505 16.3042 16.5512C16.8108 16.5574 17.0532 16.6393 17.0532 16.8736C17.0532 17.1207 16.8884 17.4661 16.5577 17.9072C15.9061 17.9946 15.5223 17.9941 15.4183 17.9111C15.3661 17.8693 15.2682 17.8823 15.0842 17.9413C15.0467 17.9533 14.9297 17.9945 14.806 18.0379C14.6794 18.0824 14.5457 18.1294 14.4834 18.1501C13.9717 18.3197 13.534 18.4107 13.0896 18.4107C12.3314 18.4107 11.4896 18.0795 10.5643 17.4161L10.5351 17.4583C10.9575 17.7756 10.9575 17.9056 10.5499 17.9056C10.4201 17.9056 10.312 17.9087 10.1885 17.9146C9.90147 17.9283 9.88321 17.928 9.81115 17.8984Z" fill="#666666"/>
<path d="M9.77198 17.1263L9.69922 17.0547C9.86336 16.8779 10.0808 16.8334 10.3427 16.92C10.4446 16.9536 11.1082 17.3372 11.2854 17.4272C11.9331 17.756 12.5497 17.9397 13.2046 17.9397C14.1461 17.9397 15.0555 17.6424 15.9303 17.0498C16.261 16.7817 16.4678 16.7817 16.4678 17.0905H16.3672C16.3672 16.9063 16.27 16.9063 15.9892 17.1337C15.0948 17.7398 14.1663 18.0433 13.2046 18.0433C12.5321 18.0433 11.9013 17.8554 11.2409 17.5201C11.0552 17.4259 10.4024 17.0485 10.3119 17.0186C10.085 16.9436 9.90796 16.9799 9.77198 17.1263Z" fill="#565757"/>
<path fill-rule="evenodd" clip-rule="evenodd" d="M13.5245 7.52344L13.3285 7.52441C13.3333 8.32882 13.1531 8.83696 12.8023 9.05519C12.7755 9.0719 12.7421 9.09171 12.7054 9.113C12.6723 9.02395 12.6295 8.91651 12.5747 8.78224L12.5572 8.73939C12.349 8.22702 12.3026 7.99069 12.4095 7.92755L12.3035 7.77629C12.0677 7.91552 12.1186 8.17475 12.3736 8.80225L12.3911 8.8453C12.4541 8.99975 12.5006 9.11728 12.5341 9.21064L12.5097 9.22445L12.5097 9.22445C12.4997 9.23006 12.4899 9.23557 12.4804 9.24098C12.3791 9.18993 12.2619 9.16425 12.1285 9.16425C11.5049 9.16425 11.0728 9.00088 10.8217 8.67765L10.6621 8.78207C10.9541 9.15795 11.4465 9.34412 12.1285 9.34412C12.183 9.34412 12.2342 9.35053 12.282 9.3634C12.182 9.44828 12.1686 9.53662 12.1686 9.84248C12.1686 10.0325 12.2094 10.2842 12.291 10.5987C12.2288 10.5203 12.1707 10.4832 12.1117 10.4832V10.6631C12.103 10.6631 12.0973 10.6618 12.095 10.6613L12.0941 10.6605L12.0931 10.6599L12.0949 10.6613L12.0941 10.6611C12.1 10.6655 12.1084 10.6736 12.1183 10.6851C12.1457 10.717 12.1791 10.7685 12.2173 10.8386C12.297 10.9848 12.3948 11.207 12.5102 11.5041L12.5686 11.485L12.5733 11.4984L12.6097 11.4875V11.4937H12.6683L12.6693 11.5438L12.8652 11.5397C12.8648 11.5207 12.8644 11.5019 12.8642 11.4833L12.9042 11.4879C12.9446 11.1899 12.9679 10.9198 12.9738 10.6782C13.0424 10.4929 13.1427 10.3585 13.2733 10.2743C13.6078 10.0585 13.8041 9.85109 13.8578 9.64522L13.6672 9.60335C13.6271 9.75739 13.4597 9.93422 13.1606 10.1271C13.088 10.1739 13.0237 10.2315 12.9674 10.2996C12.9483 10.0059 12.8947 9.76824 12.8057 9.58771V9.53415C12.8057 9.46075 12.7948 9.38908 12.7659 9.29076C12.8203 9.25951 12.872 9.22917 12.9123 9.20408C13.3302 8.94409 13.5296 8.38175 13.5245 7.52344ZM12.4679 9.45945C12.5221 9.50436 12.5694 9.56247 12.6097 9.63392V10.9976C12.4462 10.4819 12.3646 10.0959 12.3646 9.84248C12.3646 9.56084 12.3726 9.52522 12.438 9.47772C12.4422 9.47463 12.4527 9.46829 12.4679 9.45945ZM12.0949 10.6613L12.095 10.6613L12.0952 10.6616L12.0949 10.6613Z" fill="#984800"/>
<path fill-rule="evenodd" clip-rule="evenodd" d="M14.0637 7.67726C13.9539 7.70912 13.8214 7.72309 13.6782 7.71515C13.7176 7.7184 13.7575 7.72319 13.7978 7.72957C13.8703 7.74105 13.94 7.75708 14.0062 7.77699C14.019 7.74038 14.0384 7.70709 14.0637 7.67726ZM14.3139 7.53035C14.3402 7.4976 14.3574 7.46122 14.3636 7.42174C14.3986 7.20097 14.0803 6.9671 13.6526 6.89936C13.2249 6.83163 12.8499 6.95569 12.8149 7.17645C12.809 7.21431 12.8133 7.25256 12.8269 7.29028C12.6684 7.17578 12.4105 7.09873 12.1182 7.09362C11.6312 7.08512 11.2328 7.27953 11.2285 7.52785C11.2241 7.77617 11.6155 7.98436 12.1025 7.99286C12.5895 8.00136 12.9879 7.80695 12.9922 7.55863C12.9926 7.53297 12.9889 7.50774 12.9812 7.48311C13.1102 7.5832 13.3032 7.66355 13.526 7.69883C13.5636 7.70479 13.6008 7.70926 13.6374 7.71231C13.1985 7.68758 12.8355 7.85401 12.7938 8.11691C12.7472 8.41126 13.1211 8.71509 13.629 8.79553C14.0575 8.8634 14.4444 8.75052 14.5829 8.53676C14.6381 8.56263 14.6963 8.58624 14.7569 8.6071C15.2686 8.78331 15.7621 8.69772 15.8592 8.41593C15.9562 8.13414 15.62 7.76287 15.1082 7.58666C14.8132 7.48508 14.5243 7.4705 14.3139 7.53035ZM11.1281 7.56599C11.2365 7.76149 11.0174 8.09014 10.6387 8.30005C10.26 8.50997 9.86513 8.52166 9.75676 8.32617C9.6484 8.13067 9.86755 7.80202 10.2462 7.59211C10.6249 7.38219 11.0198 7.3705 11.1281 7.56599ZM12.3169 8.79533C12.3122 9.06848 11.8257 9.28149 11.2305 9.2711C10.6352 9.26071 10.1565 9.03085 10.1613 8.75771C10.1661 8.48456 10.6525 8.27155 11.2477 8.28194C11.843 8.29233 12.3217 8.52219 12.3169 8.79533ZM11.6246 10.7058C12.1618 10.6398 12.5728 10.3865 12.5425 10.14C12.5122 9.89353 12.0522 9.74717 11.515 9.81313C10.9778 9.87909 10.5669 10.1324 10.5971 10.3789C10.6274 10.6254 11.0874 10.7718 11.6246 10.7058ZM13.6082 11.0346C14.0828 11.1442 14.5174 11.0172 14.5789 10.751C14.6403 10.4849 14.3054 10.1802 13.8307 10.0707C13.3561 9.96109 12.9215 10.088 12.8601 10.3542C12.7986 10.6204 13.1336 10.925 13.6082 11.0346ZM14.0305 10.0241C14.7477 10.1635 15.3714 10.0592 15.4235 9.791C15.4757 9.52283 14.9365 9.19242 14.2193 9.053C13.502 8.91358 12.8783 9.01796 12.8262 9.28613C12.7741 9.5543 13.3132 9.88471 14.0305 10.0241Z" fill="#247805"/>
<path fill-rule="evenodd" clip-rule="evenodd" d="M8.92815 11.8525C8.92815 11.8525 8.5892 15.0702 8.5892 15.5063C8.5892 15.9424 9.21298 15.5063 9.21298 15.5063C9.21298 15.5063 9.30459 13.9697 9.51703 13.3988C9.72947 12.828 9.82973 13.4552 9.82973 13.7884C9.82973 14.1217 9.82973 15.6808 9.82973 15.6808C9.82973 15.6808 10.606 15.7865 10.606 15.5063C10.606 15.2261 10.283 11.8525 10.283 11.8525H9.10886H8.92815Z" fill="white"/>
<path fill-rule="evenodd" clip-rule="evenodd" d="M8.89166 11.8066L8.88737 11.8474C8.66111 13.9953 8.54818 15.2126 8.54818 15.5056C8.54818 15.8506 8.80663 15.8506 9.248 15.5421L9.26607 15.5294L9.26733 15.5082C9.32816 14.4878 9.42904 13.7886 9.56873 13.4133C9.6529 13.1871 9.67734 13.177 9.71522 13.2702C9.75949 13.3792 9.78872 13.6015 9.78872 13.7878V15.7194L9.82965 15.7249C10.3742 15.7991 10.6604 15.7347 10.6604 15.5056C10.6604 15.3855 10.6044 14.7227 10.5093 13.6841L10.4988 13.5698C10.4634 13.1854 10.4256 12.7802 10.3877 12.3794L10.3511 11.9933L10.3409 11.8858L10.3373 11.8478L10.3333 11.8066H8.89166ZM9.17098 15.4822C8.79383 15.7425 8.64128 15.7389 8.64128 15.5061C8.64128 15.2196 8.75288 14.0147 8.97571 11.8976H10.2438L10.2537 12.0019L10.2903 12.3879C10.3282 12.7887 10.366 13.1938 10.4013 13.5781L10.4118 13.6924C10.5063 14.7234 10.5627 15.3902 10.5627 15.5061C10.5627 15.6465 10.3443 15.6996 9.88181 15.6412V13.7883C9.88181 13.5918 9.85129 13.3597 9.80194 13.2382C9.72041 13.0375 9.58422 13.0939 9.47639 13.3836C9.33382 13.7667 9.23242 14.4653 9.17098 15.4822Z" fill="#979797"/>
<path fill-rule="evenodd" clip-rule="evenodd" d="M7.80209 10.7456C7.80209 10.7456 8.0683 11.7039 8.18613 11.7039C8.30397 11.7039 9.01928 11.1159 9.01928 11.1159V11.914H10.352V11.5605L10.523 11.914L10.7561 11.805L11.1592 11.3298H10.7561C10.7561 11.3298 10.6389 10.5667 10.6389 10.446C10.6389 10.3253 10.6437 10.0866 10.352 10.0002C10.0604 9.91377 9.91732 9.76077 9.91732 9.76077C9.91732 9.76077 10.5453 8.86133 10.0671 8.86133C9.5889 8.86133 9.37243 8.97663 9.37243 8.97663C9.37243 8.97663 9.37243 9.51068 9.37243 9.63573C9.37243 9.76077 8.68639 9.61271 8.68639 10.0002C8.68639 10.3876 8.36647 10.7456 8.36647 10.7456L8.28505 10.4861L7.80209 10.7456Z" fill="#FF863B"/>
<path fill-rule="evenodd" clip-rule="evenodd" d="M9.81967 9.08325C10.0832 9.08325 10.2969 8.97826 10.2969 8.84875C10.2969 8.71924 10.0832 8.61426 9.81967 8.61426C9.55611 8.61426 9.34245 8.71924 9.34245 8.84875C9.34245 8.97826 9.55611 9.08325 9.81967 9.08325Z" fill="black"/>
<path d="M7.41656 11.1166L7.20118 10.9377C7.61615 10.4885 8.07788 10.1616 8.58591 9.9587C9.06697 9.76657 9.69566 9.45992 10.4708 9.03906L10.613 9.27469C9.82873 9.70055 9.19046 10.0119 8.69704 10.2089C8.23058 10.3952 7.80391 10.6973 7.41656 11.1166Z" fill="#740000"/>
<path fill-rule="evenodd" clip-rule="evenodd" d="M10.4596 9.13751L10.6405 9.98704L11.4436 9.56227L10.8111 8.85938L10.4596 9.13751Z" fill="#F9FCFF" stroke="#6C6C6C" stroke-width="0.5"/>
<path fill-rule="evenodd" clip-rule="evenodd" d="M17.1736 12.25C17.1736 12.25 17.5098 15.6083 17.5098 16.0634C17.5098 16.5186 16.891 16.0634 16.891 16.0634C16.891 16.0634 16.8002 14.4597 16.5894 13.8639C16.3787 13.2681 16.2793 13.9227 16.2793 14.2705C16.2793 14.6183 16.2793 16.2455 16.2793 16.2455C16.2793 16.2455 15.5093 16.3559 15.5093 16.0634C15.5093 15.771 15.8296 12.25 15.8296 12.25H16.9943H17.1736Z" fill="white"/>
<path fill-rule="evenodd" clip-rule="evenodd" d="M17.2192 12.2021L17.2234 12.2447C17.4479 14.4864 17.5599 15.7569 17.5599 16.0628C17.5599 16.4229 17.3035 16.4229 16.8657 16.1008L16.8478 16.0876L16.8466 16.0655C16.7862 15.0005 16.6862 14.2708 16.5476 13.879C16.4641 13.6429 16.4399 13.6324 16.4023 13.7297C16.3584 13.8434 16.3294 14.0754 16.3294 14.2699V16.2859L16.2888 16.2917C15.7487 16.369 15.4647 16.3019 15.4647 16.0628C15.4647 15.9374 15.5203 15.2456 15.6147 14.1616L15.6251 14.0423C15.6601 13.6412 15.6977 13.2182 15.7352 12.7999L15.7715 12.397L15.7817 12.2847L15.7853 12.2451L15.7892 12.2021H17.2192ZM16.9414 16.0376C17.3155 16.3092 17.4668 16.3054 17.4668 16.0625C17.4668 15.7634 17.3561 14.5059 17.1351 12.2963H15.8772L15.8674 12.4052L15.8311 12.808C15.7935 13.2263 15.756 13.6492 15.721 14.0502L15.7106 14.1695C15.6169 15.2455 15.561 15.9415 15.561 16.0625C15.561 16.2091 15.7776 16.2644 16.2363 16.2035V14.2696C16.2363 14.0645 16.2666 13.8222 16.3155 13.6954C16.3964 13.4859 16.5315 13.5448 16.6384 13.8472C16.7799 14.2471 16.8804 14.9762 16.9414 16.0376Z" fill="#979797"/>
<path fill-rule="evenodd" clip-rule="evenodd" d="M18.3138 11.0262C18.3138 11.0262 18.0497 12.0263 17.9329 12.0263C17.816 12.0263 17.1065 11.4126 17.1065 11.4126V12.2456H15.7845V11.8767L15.6149 12.2456L15.3837 12.1319L14.9838 11.6359H15.3837C15.3837 11.6359 15.4999 10.8394 15.4999 10.7135C15.4999 10.5875 15.4952 10.3384 15.7845 10.2482C16.0738 10.158 16.2157 9.99832 16.2157 9.99832C16.2157 9.99832 15.5927 9.05957 16.0671 9.05957C16.5414 9.05957 16.7562 9.17991 16.7562 9.17991C16.7562 9.17991 16.7562 9.7373 16.7562 9.86781C16.7562 9.99832 17.4367 9.84379 17.4367 10.2482C17.4367 10.6526 17.754 11.0262 17.754 11.0262L17.8347 10.7554L18.3138 11.0262Z" fill="#824028"/>
<path fill-rule="evenodd" clip-rule="evenodd" d="M16.317 9.29124C16.0556 9.29124 15.8437 9.18167 15.8437 9.0465C15.8437 8.91133 16.0556 8.80176 16.317 8.80176C16.5784 8.80176 16.7904 8.91133 16.7904 9.0465C16.7904 9.18167 16.5784 9.29124 16.317 9.29124Z" fill="black"/>
<path d="M18.9788 11.2079L16.0834 9.69882C16.0834 9.69882 16.0298 9.19185 15.4706 9.03922C14.9114 8.88658 14.4654 8.65039 14.4654 8.65039L14.2108 9.03922C14.2108 9.03922 13.7573 8.91954 15.4706 9.69882C17.1839 10.4781 15.4061 9.27643 15.8931 9.69882L18.9788 11.2079Z" fill="#BA611F"/>
</g>
</g>
</g>
</svg>
