<svg width="26" height="26" viewBox="0 0 26 26" fill="none" xmlns="http://www.w3.org/2000/svg">
<mask id="mask0_1_12367" style="mask-type:alpha" maskUnits="userSpaceOnUse" x="0" y="0" width="26" height="26">
<circle cx="13" cy="13" r="13" fill="#634848"/>
</mask>
<g mask="url(#mask0_1_12367)">
<rect x="-8" y="-4.85742" width="42" height="34.7143" fill="white"/>
<rect x="22.1875" y="-1" width="11.8125" height="29.5714" fill="#FF3131"/>
<path fill-rule="evenodd" clip-rule="evenodd" d="M-8 28.5714H3.8125V-1H-8V28.5714Z" fill="#FF3131"/>
<path fill-rule="evenodd" clip-rule="evenodd" d="M15.7744 11.8032C15.5332 12.0203 15.1556 11.7999 15.226 11.4832L16 8.00019L14 8.90019L13 6.2002L12 8.90019L9.99999 8.00019L10.774 11.4832C10.8444 11.7999 10.4668 12.0203 10.2256 11.8032L9.22298 10.9009C9.09621 10.7868 8.90377 10.7868 8.777 10.9009L7.99999 11.6002L5.99999 10.7002L6.99999 12.5002L6.27528 13.1524C6.12816 13.2848 6.12816 13.5155 6.27528 13.648L8.99999 16.1002H12L12.5 18.8002H13.5L14 16.1002H17L19.7247 13.648C19.8718 13.5155 19.8718 13.2848 19.7247 13.1524L19 12.5002L20 10.7002L18 11.6002L17.223 10.9009C17.0962 10.7868 16.9038 10.7868 16.777 10.9009L15.7744 11.8032Z" fill="#FF3131"/>
</g>
</svg>
