<svg width="26" height="26" viewBox="0 0 26 26" fill="none" xmlns="http://www.w3.org/2000/svg">
<mask id="mask0_1_12768" style="mask-type:alpha" maskUnits="userSpaceOnUse" x="0" y="0" width="26" height="26">
<circle cx="13" cy="13" r="13" fill="#634848"/>
</mask>
<g mask="url(#mask0_1_12768)">
<g clip-path="url(#clip0_1_12768)">
<path d="M-2 0H32V26H-2V0Z" fill="#008000"/>
<path d="M15 16.613C16.957 16.613 18.5434 14.9955 18.5434 13.0001C18.5434 11.0048 16.957 9.38721 15 9.38721C13.043 9.38721 11.4566 11.0048 11.4566 13.0001C11.4566 14.9955 13.043 16.613 15 16.613Z" fill="#FFE000"/>
<path d="M16.105 15.9739C17.7158 15.9739 19.0216 14.6425 19.0216 13.0001C19.0216 11.3578 17.7158 10.0264 16.105 10.0264C14.4942 10.0264 13.1884 11.3578 13.1884 13.0001C13.1884 14.6425 14.4942 15.9739 16.105 15.9739Z" fill="#008000"/>
<path d="M3.83313 13.1681C5.88107 13.1681 7.54125 11.4754 7.54125 9.38728C7.54125 7.29918 5.88107 5.60645 3.83313 5.60645C1.78518 5.60645 0.125 7.29918 0.125 9.38728C0.125 11.4754 1.78518 13.1681 3.83313 13.1681Z" fill="#FFE000"/>
<path d="M3.57812 12.2415H4.50781C4.50781 12.2415 4.545 12.1548 4.49719 12.1115C4.44406 12.0681 4.2475 12.0573 4.30062 11.9056C4.40687 11.5915 4.42813 11.689 4.49719 10.9415C4.54772 10.3015 4.58315 9.6603 4.60344 9.01855H4.46531C4.46531 9.01855 4.49187 9.38147 4.41219 9.85814C4.33781 10.3348 4.31125 10.3727 4.22625 10.7411C4.18621 10.9483 4.12752 11.1514 4.05094 11.3477C3.97656 11.5644 3.96594 11.5698 3.84906 11.7702C3.72687 11.9652 3.76938 11.8894 3.70563 12.0086C3.66844 12.0681 3.63125 12.0519 3.60469 12.0952C3.58344 12.1386 3.57812 12.2415 3.57812 12.2415V12.2415Z" fill="#802000" stroke="#7B3100" stroke-width="0.1875"/>
<path d="M4.28469 6.63525C4.29686 6.80406 4.27517 6.97362 4.22094 7.13359C4.14732 7.30095 4.10584 7.48114 4.09875 7.66442C4.00312 7.69692 3.90219 7.45317 3.80656 7.59942C3.87562 7.79984 4.04031 7.95692 4.14656 8.13567C4.16781 8.18984 4.32719 8.33609 4.23156 8.36859C4.00312 8.28734 3.94469 7.98942 3.80656 7.81067C3.72572 7.65651 3.6077 7.52589 3.46364 7.43112C3.31957 7.33635 3.1542 7.28055 2.98312 7.269C2.85031 7.27442 2.43062 7.24192 2.53687 7.46942C2.69625 7.57775 2.89812 7.65359 3.0575 7.77817C3.17969 7.789 3.39219 7.99484 3.38156 8.07067C3.16906 7.984 3.07344 7.88109 2.85031 7.789C2.54219 7.66984 2.1225 7.74025 1.94719 8.049C1.92062 8.13025 1.87281 8.36317 1.97375 8.39025C2.09062 8.20609 2.25531 7.99484 2.49969 8.05442C2.69094 8.07067 2.28719 8.41734 2.44125 8.34692C2.49437 8.32525 2.60062 8.24942 2.68562 8.23859C2.76531 8.23859 2.80781 8.29275 2.86625 8.30359C2.98844 8.31984 3.02562 8.36859 3.00969 8.40109C2.99906 8.43359 2.95656 8.40109 2.83437 8.44442C2.77594 8.46609 2.74406 8.52025 2.675 8.54734C2.60062 8.569 2.45187 8.57442 2.39875 8.54734C2.20219 8.46609 1.88344 8.47692 1.825 8.72609C1.825 8.83442 1.72937 8.71525 1.68687 8.764C1.64969 8.88317 1.64437 9.00234 1.47437 8.9915C1.36812 9.09984 1.26187 9.219 1.12375 9.30025C1.20344 9.48442 1.51156 9.11609 1.49562 9.27317C1.36281 9.46275 1.57 9.50067 1.655 9.35442C1.80906 9.19192 2.00031 8.9915 2.22344 9.15942C2.32969 9.26234 2.39344 9.10525 2.47312 9.10525C2.52625 9.24067 2.58469 9.11609 2.64312 9.07817C2.73344 9.06734 2.70687 9.19734 2.81312 9.11609C3.03094 8.96984 3.29656 9.09442 3.50906 8.95359C3.7375 8.84525 3.54094 9.03484 3.4825 9.11067C3.38156 9.30567 3.46656 9.56567 3.25406 9.68484C3.16375 9.91775 3.355 10.2265 3.16375 10.3998C3.13719 10.5082 3.40812 10.4973 3.4825 10.5407C3.62062 10.5407 3.4825 10.2265 3.61531 10.1832C3.79594 10.2915 3.78531 9.97734 3.74812 9.87984C3.76937 9.66317 3.78 9.414 3.88625 9.21359C4.00312 8.96984 4.10937 9.3165 3.98187 9.414C3.9075 9.63609 3.80125 9.92317 3.96594 10.1344C4.01906 10.1453 4.05625 10.2644 4.11469 10.2969C4.17844 10.3348 4.26344 10.2915 4.27406 10.1832C4.35906 9.85817 4.31656 9.5115 4.43344 9.19192C4.51312 9.09442 4.62469 9.17567 4.6725 9.26775C4.83187 9.45734 4.94344 9.69025 5.13469 9.84734C5.31572 9.92283 5.46321 10.0636 5.54906 10.2428C5.54906 10.3836 5.94219 10.4053 5.82531 10.2428C5.71375 10.0965 5.78812 9.93942 5.89969 9.8365C5.96344 9.85275 5.9475 9.739 5.89969 9.78234C5.82 9.76609 5.81469 9.61984 5.92094 9.69025C6.10687 9.74984 5.91031 9.55484 5.84125 9.54942C5.68719 9.45192 5.51187 9.34359 5.4375 9.17025C5.63937 9.17025 5.84656 9.284 6.04844 9.219C6.21312 9.13234 6.37781 9.219 6.43625 9.37067C6.56375 9.349 6.51062 9.219 6.43625 9.17567C6.52656 9.13775 6.59562 9.0565 6.47875 8.98609C6.42562 8.91025 6.55844 8.76942 6.38844 8.78025C6.39375 8.64484 6.34594 8.52567 6.2025 8.47692C6.05906 8.35775 5.63937 8.66109 5.65531 8.38484C5.61281 8.23317 5.82531 8.36317 5.88375 8.28734C5.94219 8.12484 5.59156 8.1465 5.70844 8.0165C5.78281 7.97317 6.13875 7.90275 5.8625 7.84859C5.80004 7.86725 5.73431 7.87159 5.67001 7.86129C5.60572 7.85099 5.54445 7.8263 5.49062 7.789C5.38969 7.95692 5.10812 7.6915 5.15594 7.99484C5.11875 8.10859 4.86375 8.4065 4.79469 8.179C4.84781 8.00025 5.15594 7.94609 5.06031 7.70234C5.04437 7.55609 4.92219 7.72942 4.86906 7.71859C4.83719 7.6265 4.95406 7.51275 5.03906 7.49109C5.19844 7.62109 5.19844 7.32859 5.35781 7.35567C5.46937 7.32859 5.32062 7.27984 5.28875 7.25817C5.32062 7.17692 5.49594 7.13359 5.32594 7.05775C5.17187 6.94942 5.06031 7.1715 4.93812 7.18234C4.82125 7.04692 5.04437 6.98192 5.10812 6.9115C5.11344 6.85734 4.98062 6.89525 5.01781 6.8465C5.055 6.78692 5.29406 6.7815 5.17719 6.684C4.99856 6.62842 4.80631 6.63996 4.63531 6.7165C4.52906 6.749 4.5025 6.98734 4.41219 6.9765C4.375 6.86817 4.42812 6.66234 4.28469 6.63525V6.63525ZM5.08156 8.9265C5.20906 8.90484 5.08156 9.12692 5.02844 9.1215C5.02844 9.04567 4.83719 9.05109 4.95937 8.98067C4.99673 8.95556 5.03807 8.93724 5.08156 8.9265V8.9265Z" fill="#008000"/>
</g>
</g>
<defs>
<clipPath id="clip0_1_12768">
<rect width="34" height="26" fill="white" transform="translate(-2)"/>
</clipPath>
</defs>
</svg>
