<svg width="26" height="26" viewBox="0 0 26 26" fill="none" xmlns="http://www.w3.org/2000/svg">
<mask id="mask0_1_12827" style="mask-type:alpha" maskUnits="userSpaceOnUse" x="0" y="0" width="26" height="26">
<circle cx="13" cy="13" r="13" fill="#634848"/>
</mask>
<g mask="url(#mask0_1_12827)">
<g clip-path="url(#clip0_1_12827)">
<path d="M-5 0H31V26H-5V0Z" fill="#000066"/>
<path fill-rule="evenodd" clip-rule="evenodd" d="M21.5275 11.5376L21.82 10.633L21.0325 10.0589L22.0225 10.048L22.36 9.1543L22.675 10.048L23.6706 10.0751L22.8775 10.6439L23.1588 11.5485L22.3431 11.0068M23.8675 11.711L24.4525 10.958L23.9069 10.1564L24.8463 10.4705L25.465 9.7393V10.6926L26.3875 11.0393L25.4425 11.3101L25.3975 12.258L24.8238 11.478M19.2888 12.2905L19.2494 11.3426L18.3044 11.061L19.2438 10.7251V9.78263L19.8569 10.5139L20.8019 10.2105L20.2506 11.0068L20.83 11.7651L19.8738 11.5214M17.6463 13.7368L17.23 12.881L16.2513 12.9785L16.9713 12.3122L16.6 11.4293L17.455 11.8735L18.2031 11.2343L18.0119 12.1768L18.85 12.6589L17.8769 12.7943M16.8813 15.806L16.1331 15.2047L15.2894 15.703L15.6494 14.7985L14.9238 14.1701L15.8969 14.208L16.2906 13.3197L16.5325 14.2514L17.5 14.3326L16.6788 14.8635M16.8588 18.1351L15.9306 17.8751L15.3625 18.6605L15.3231 17.691L14.4006 17.393L15.3063 17.0572V16.0822L15.9081 16.846L16.8306 16.5426L16.2906 17.3551M17.95 20.1068L16.9938 20.2368L16.7969 21.1793L16.3581 20.3126L15.3963 20.3993L16.0825 19.733L15.6831 18.8447L16.5438 19.3051L17.2638 18.666L17.1063 19.6085M19.6375 21.6668L18.7881 22.111L18.9344 23.0643L18.22 22.3926L17.3425 22.8043L17.7531 21.943L17.0613 21.2443L18.0344 21.3851L18.4844 20.5455L18.6756 21.488M21.7019 21.9755L21.235 22.8043L21.8931 23.5193L20.9144 23.3405L20.4138 24.153L20.2788 23.216L19.3113 22.9993L20.2 22.5985L20.1044 21.6505L20.7906 22.3439M24.0194 21.6343L23.9913 22.5768L24.9081 22.9235L23.9519 23.1943L23.8844 24.1422L23.3219 23.3676L22.3656 23.606L22.9731 22.853L22.4444 22.0568L23.3781 22.3655M26.4438 11.3643L27.1188 12.0468L28.0131 11.646L27.5463 12.5018L28.1931 13.2114L27.2369 13.0597L26.7306 13.8993L26.6125 12.946L25.6563 12.7564L26.5394 12.323M28.4631 13.4605L28.7725 14.3597L29.7569 14.376L28.9581 14.9555L29.2225 15.8655L28.4294 15.3239L27.6081 15.871L27.9119 14.961L27.1356 14.3868L28.1256 14.3651M29.2225 16.1635L29.11 17.106L29.9931 17.523L29.02 17.718L28.8681 18.6551L28.3788 17.8372L27.4 17.9943L28.075 17.2901L27.6194 16.4505L28.5194 16.8405M28.6881 18.9964L28.2494 19.8414L28.9188 20.5293L27.94 20.383L27.4675 21.2118L27.2988 20.2747L26.32 20.096L27.1975 19.6626L27.0681 18.7201L27.7769 19.3864M27.2256 21.5043L26.3988 22.0026L26.6125 22.9397L25.8531 22.3168L25.0094 22.7826L25.3638 21.8997L24.6269 21.2443L25.6056 21.3255L25.9994 20.4589L26.2469 21.3905" fill="white"/>
<path d="M-5 0H13V13H-5V0Z" fill="#000066"/>
<path d="M-2.89063 0L3.97187 4.90208L10.8062 0H13V1.67917L6.25 6.52708L13 11.3479V13H10.75L4 8.15208L-2.72188 13H-5V11.375L1.72187 6.55417L-5 1.73333V0H-2.89063Z" fill="white"/>
<path d="M6.925 7.61042L13 11.9167V13L5.37812 7.61042H6.925ZM1.75 8.15208L1.91875 9.1L-3.48125 13H-5L1.75 8.15208ZM13 0V0.08125L5.99687 5.17292L6.05312 3.98125L11.5937 0H13ZM-5 0L1.72187 4.76667H0.0343749L-5 1.1375V0Z" fill="#C8102E"/>
<path d="M1.77812 0V13H6.27812V0H1.77812ZM-5 4.33333V8.66667H13V4.33333H-5Z" fill="white"/>
<path d="M-5 5.22708V7.82708H13V5.22708H-5ZM2.67812 0V13H5.37812V0H2.67812Z" fill="#C8102E"/>
</g>
</g>
<defs>
<clipPath id="clip0_1_12827">
<rect width="36" height="26" fill="white" transform="translate(-5)"/>
</clipPath>
</defs>
</svg>
