<svg width="26" height="26" viewBox="0 0 26 26" fill="none" xmlns="http://www.w3.org/2000/svg">
<mask id="mask0_1_12322" style="mask-type:alpha" maskUnits="userSpaceOnUse" x="0" y="0" width="26" height="26">
<circle cx="13" cy="13" r="13" fill="#634848"/>
</mask>
<g mask="url(#mask0_1_12322)">
<rect x="-2" y="3" width="33" height="22" fill="white"/>
<rect x="-2" width="33" height="28" fill="#F1361D"/>
<path fill-rule="evenodd" clip-rule="evenodd" d="M9.87131 6.41065L11.0127 6.59227L11.8687 7.31991L12.0633 6.25463L12.8429 5.45565L11.7016 5.27404L10.8455 4.54639L10.6509 5.61168L9.87131 6.41065ZM12.9286 10.1367L13.9176 9.57484L15.0752 9.59983L14.4732 8.67669L14.5 7.59632L13.5109 8.15815L12.3534 8.13316L12.9553 9.0563L12.9286 10.1367ZM11.5869 16.1678L10.6194 16.7615L10.6058 15.6809L9.96965 14.7779L11.1274 14.7652L12.0949 14.1715L12.1085 15.2521L12.7446 16.155L11.5869 16.1678ZM12.427 13.3744L13.5778 13.2553L14.6156 13.7346L14.4881 12.6605L15.0015 11.6919L13.8507 11.811L12.8129 11.3317L12.9405 12.4058L12.427 13.3744Z" fill="#FFDC42"/>
<path fill-rule="evenodd" clip-rule="evenodd" d="M5.85715 12.0491L3.08616 13.8928L4.10856 10.8634L1.3736 8.97343L4.77646 8.94483L5.85715 5.93311L6.93784 8.94483L10.3407 8.97343L7.60574 10.8634L8.62814 13.8928L5.85715 12.0491Z" fill="#FFDC42"/>
</g>
</svg>
