<svg width="26" height="26" viewBox="0 0 26 26" fill="none" xmlns="http://www.w3.org/2000/svg">
<mask id="mask0_1_12587" style="mask-type:alpha" maskUnits="userSpaceOnUse" x="0" y="0" width="27" height="26">
<circle cx="13.0002" cy="13" r="13" fill="#634848"/>
</mask>
<g mask="url(#mask0_1_12587)">
<path fill-rule="evenodd" clip-rule="evenodd" d="M-2.99469 11.833H39.9866V22.2939H-2.99977L-2.99469 11.833Z" fill="white"/>
<path fill-rule="evenodd" clip-rule="evenodd" d="M-2.96193 0H39.999V13.0305H-2.96193V0ZM-2.94669 19.5965H40.324V26H-2.94669V19.5965Z" fill="#081873"/>
<path fill-rule="evenodd" clip-rule="evenodd" d="M-2.94679 15.3672H40.0141V17.3781H-2.94679V15.3672Z" fill="#DE3929"/>
<path fill-rule="evenodd" clip-rule="evenodd" d="M9.92514 20.2721L10.2603 21.308H11.347L10.4634 21.9529L10.7986 22.9939L9.92514 22.3439L9.04154 22.9889L9.38178 21.9479L8.49818 21.3029H9.58998M19.3704 12.7158L19.7107 13.7568H20.7923L19.9087 14.3967L20.2439 15.4377L19.3603 14.7928L18.4767 15.4377L18.8119 14.3967L17.9283 13.7568H19.0251M7.7517 17.0271L8.08686 18.0682H9.17865L8.30014 18.7182L8.64037 19.7541L7.75678 19.1143L6.87318 19.7541L7.20834 18.7182L6.32475 18.0732H7.41654M19.3704 16.7326L19.7107 17.7686H20.7923L19.9087 18.4135L20.2439 19.4494L19.3603 18.8096L18.4767 19.4545L18.8119 18.4135L17.9283 17.7686H19.0251M16.9685 9.55723L17.3087 10.5932H18.4056L17.522 11.2381L17.8572 12.2791L16.9736 11.6342L16.09 12.2791L16.4302 11.2381L15.5415 10.5932H16.6384M13.363 8.29785L13.7033 9.33887H14.7951L13.9115 9.97871L14.2466 11.0197L13.363 10.3799L12.4794 11.0197L12.8197 9.97871L11.9361 9.33887H13.0228M9.7474 9.48613L10.0876 10.5271H11.1794L10.2958 11.167L10.6361 12.208L9.7474 11.5631L8.86381 12.208L9.20404 11.167L8.32045 10.5271H9.41732M7.65014 12.7209L7.98529 13.7619H9.08217L8.1935 14.4018L8.53373 15.4428L7.65014 14.7979L6.76654 15.4428L7.1017 14.4018L6.21811 13.7619H7.3099M13.363 21.3486L13.7033 22.3896H14.7951L13.9115 23.0295L14.2517 24.0705L13.363 23.4256L12.4794 24.0705L12.8197 23.0295L11.9361 22.3896H13.0228M17.197 20.2721L17.5322 21.308H18.624L17.7454 21.9529L18.0857 22.9939L17.2021 22.349L16.3134 22.9939L16.6537 21.9529L15.7701 21.308H16.8619" fill="#FFCE08"/>
</g>
</svg>
