<svg width="26" height="26" viewBox="0 0 26 26" fill="none" xmlns="http://www.w3.org/2000/svg">
<mask id="mask0_1_12748" style="mask-type:alpha" maskUnits="userSpaceOnUse" x="0" y="0" width="26" height="26">
<circle cx="13" cy="13" r="13" fill="#634848"/>
</mask>
<g mask="url(#mask0_1_12748)">
<g clip-path="url(#clip0_1_12748)">
<path d="M-4 0H30V26H-4V0Z" fill="#0021AD"/>
<path d="M-4 0H30V26L-4 0Z" fill="#1C8A42"/>
<path d="M13 16.1308C14.6959 16.1308 16.0706 14.7291 16.0706 13C16.0706 11.2709 14.6959 9.86914 13 9.86914C11.3041 9.86914 9.92937 11.2709 9.92937 13C9.92937 14.7291 11.3041 16.1308 13 16.1308Z" fill="#FFC639"/>
<path d="M11.1247 11.5916C11.3372 11.8896 11.6559 12.3825 11.9109 12.2525C12.1075 12.2525 12.2137 12.2687 12.2403 12.4041C12.573 12.4377 12.9086 12.3842 13.2154 12.2486C13.5222 12.1131 13.7899 11.9 13.9934 11.6296C13.9934 11.6296 14.0359 11.6296 14.02 11.3858C14.02 11.2775 14.1687 11.2991 14.1687 11.3316C14.19 11.3858 14.19 11.4237 14.2166 11.4291C14.2697 11.4075 14.36 11.2666 14.4291 11.18C14.445 11.1421 14.4344 11.0987 14.4397 11.05C14.4769 10.9579 14.5672 10.9796 14.5884 11.0283L14.6203 11.115C14.7159 11.18 14.8859 11.115 14.8966 11.115C14.9125 11.0391 14.9603 11.05 14.9603 11.05C15.0241 11.0337 14.9975 11.0391 15.04 11.0608C15.0028 11.4779 15.1197 11.4941 15.1091 11.7108C15.1144 11.9491 15.04 12.0141 15.04 12.1062C15.0612 12.2146 15.4119 12.22 15.2844 12.3175C15.1781 12.3716 15.2844 12.48 15.125 12.5233C14.6575 12.7671 14.5725 12.9729 14.5725 12.9729C14.5725 12.9729 14.4556 13.2004 14.4397 13.2004C14.36 13.3521 14.2644 13.2654 14.2059 13.3412C14.1794 13.4333 14.1528 13.6391 14.2059 13.7421C14.2325 13.8883 14.2059 13.9696 14.1687 14.1158C14.1369 14.4191 14.02 14.4679 14.0041 14.5708C13.9509 14.69 14.0147 15.2208 13.9616 15.2208C13.6162 15.2316 13.3506 15.1558 13.2125 15.1287C13.3453 14.5383 13.2922 14.0237 13.2922 13.9696C13.2603 13.5471 12.6759 13.65 12.5856 13.5904C12.5112 13.5796 12.4634 13.52 12.4422 13.4929C12.3572 13.4821 12.3253 13.4604 12.2456 13.455C12.2031 13.4766 12.2297 13.4983 12.1394 13.5254C11.9003 13.5525 11.7994 13.3196 11.7994 13.3196C11.81 13.2383 11.2734 13.3358 10.9866 13.2654C10.8644 13.3358 10.8112 13.5362 10.7156 13.5579C10.7156 13.6175 10.5562 13.5037 10.5244 13.4496C10.5137 13.2654 10.6731 13.1896 10.6731 13.1896C10.8006 13.0975 10.875 13.0812 10.9387 13.0216C10.9653 12.8646 10.9494 12.7508 11.0184 12.6371C11.0716 12.545 11.1512 12.5829 11.2044 12.5504C11.2628 12.5071 11.2894 12.2471 11.2362 12.1712L10.9866 11.9437C10.9122 11.7216 11.0769 11.5754 11.1247 11.5916V11.5916Z" fill="#1C8A42"/>
<path d="M25.8509 7.7132C25.7128 7.15529 24.4697 5.94195 23.5294 5.17279C23.3063 5.02112 23.1575 5.1132 23.1894 5.33529C23.3063 5.53029 23.3913 5.74695 23.5081 5.94737C23.54 6.08279 23.6038 6.17487 23.6356 6.30487C23.6356 6.30487 23.6463 6.53237 23.6675 6.55404C23.9544 6.87904 23.9969 7.15529 23.9969 7.15529C24.1433 7.47562 24.351 7.7629 24.6078 8.00029C24.9372 8.21154 24.6928 8.86695 24.7034 9.21904C24.7034 9.4357 24.5494 9.41404 24.4113 9.38154C23.3434 8.37945 22.2809 8.37945 21.3406 8.08695C20.9794 8.04904 20.9688 8.22779 21.0909 8.32529C21.6764 8.99024 22.3816 9.53452 23.1681 9.92862L23.5772 10.1886L24.0447 10.584C24.4059 10.8224 24.4325 11.039 24.4325 11.0607C24.4431 11.5049 24.2094 11.8515 24.1403 11.9924C24.0181 12.4636 23.7684 12.5449 23.7684 12.5449C21.7709 13.9207 20.7191 14.2782 17.4784 13.8503C17.4253 13.8286 17.1172 13.8774 17.4784 14.0128C18.3019 14.2945 20.3313 14.744 22.2916 13.7961C22.7697 13.4603 23.0778 13.5686 23.4231 13.3628C23.9086 13.0563 24.4105 12.7778 24.9266 12.5286C25.3675 12.2849 26.5894 12.0195 26.8709 11.7811C27.195 11.754 27.5297 11.7107 27.5509 11.429C27.6572 11.3586 27.8166 11.4128 27.9334 11.1799C28.1884 11.1311 28.1459 11.039 28.1459 11.039C28.0822 10.8549 27.8378 10.779 27.6678 10.6436C27.4128 10.557 27.2428 10.5353 27.0569 10.622L26.8816 10.7032C26.8816 10.7032 26.6106 10.6653 26.6106 10.6436C26.005 10.6111 26.0634 8.56904 25.8509 7.71862V7.7132Z" fill="#FFC639"/>
<path d="M2.3988 10.9547L1.9636 10.5387L1.525 10.9477L1.5726 10.3445L0.984402 10.2475L1.4774 9.90773L1.185 9.3808L1.7528 9.56453L1.9738 9.00293L2.188 9.568L2.7558 9.39466L2.4566 9.91466L2.9462 10.2613L2.358 10.348L2.3988 10.9512V10.9547Z" fill="white"/>
<path d="M3.9356 15.964L3.4664 15.6485L3.0108 15.9813L3.174 15.444L2.7116 15.1147L3.276 15.1008L3.446 14.5635L3.6364 15.0939L4.2042 15.0904L3.752 15.4267L3.9322 15.9605L3.9356 15.964Z" fill="white"/>
<path d="M2.3988 10.9547L1.9636 10.5387L1.525 10.9477L1.5726 10.3445L0.984402 10.2475L1.4774 9.90773L1.185 9.3808L1.7528 9.56453L1.9738 9.00293L2.188 9.568L2.7558 9.39466L2.4566 9.91466L2.9462 10.2613L2.358 10.348L2.3988 10.9512V10.9547Z" fill="white"/>
<path d="M2.3988 10.9547L1.9636 10.5387L1.525 10.9477L1.5726 10.3445L0.984402 10.2475L1.4774 9.90773L1.185 9.3808L1.7528 9.56453L1.9738 9.00293L2.188 9.568L2.7558 9.39466L2.4566 9.91466L2.9462 10.2613L2.358 10.348L2.3988 10.9512V10.9547Z" fill="white"/>
<path d="M2.3988 10.9547L1.9636 10.5387L1.525 10.9477L1.5726 10.3445L0.984402 10.2475L1.4774 9.90773L1.185 9.3808L1.7528 9.56453L1.9738 9.00293L2.188 9.568L2.7558 9.39466L2.4566 9.91466L2.9462 10.2613L2.358 10.348L2.3988 10.9512V10.9547Z" fill="white"/>
</g>
</g>
<defs>
<clipPath id="clip0_1_12748">
<rect width="34" height="26" fill="white" transform="translate(-4)"/>
</clipPath>
</defs>
</svg>
