<svg width="26" height="26" viewBox="0 0 26 26" fill="none" xmlns="http://www.w3.org/2000/svg">
<mask id="mask0_1_12160" style="mask-type:alpha" maskUnits="userSpaceOnUse" x="0" y="0" width="26" height="26">
<circle cx="13" cy="13" r="13" fill="#634848"/>
</mask>
<g mask="url(#mask0_1_12160)">
<mask id="mask1_1_12160" style="mask-type:alpha" maskUnits="userSpaceOnUse" x="-5" y="0" width="36" height="26">
<rect x="-4.33333" width="34.6667" height="26" fill="white"/>
</mask>
<g mask="url(#mask1_1_12160)">
<path fill-rule="evenodd" clip-rule="evenodd" d="M-4.33073 0V26H30.3359V0H-4.33073Z" fill="#F7FCFF"/>
<mask id="mask2_1_12160" style="mask-type:alpha" maskUnits="userSpaceOnUse" x="-5" y="0" width="36" height="26">
<path fill-rule="evenodd" clip-rule="evenodd" d="M-4.33073 0V26H30.3359V0H-4.33073Z" fill="white"/>
</mask>
<g mask="url(#mask2_1_12160)">
<path fill-rule="evenodd" clip-rule="evenodd" d="M3.90779 15.5145C3.44401 15.1921 3.65261 14.4849 3.65261 14.4849C3.65261 14.4849 4.3411 14.8761 4.58246 15.0577C4.82381 15.2393 4.99791 15.9885 4.99791 15.9885C4.99791 15.9885 4.37157 15.8368 3.90779 15.5145ZM5.14952 16.5298C5.1248 16.3236 5.18288 16.1384 5.18288 16.1384C5.18288 16.1384 5.76405 16.4489 5.96778 16.5931C6.17151 16.7372 6.31847 17.3319 6.31847 17.3319C6.31847 17.3319 5.78977 17.2116 5.39829 16.9557C5.25562 16.8624 5.18833 16.7286 5.16043 16.5962C5.04649 16.6314 4.74502 16.7113 4.43389 16.6814C4.03895 16.6434 3.754 16.0892 3.754 16.0892C3.754 16.0892 4.29288 16.087 4.50591 16.1161C4.67379 16.1389 5.01317 16.4141 5.14952 16.5298ZM6.97758 17.5825C6.97758 17.5825 7.0194 18.1647 7.44082 18.2836C7.86225 18.4025 8.35435 18.3515 8.35435 18.3515C8.35435 18.3515 8.02561 17.8383 7.80254 17.7661C7.57947 17.6939 6.97758 17.5825 6.97758 17.5825ZM9.4731 19.141C9.03743 19.0971 8.89515 18.531 8.89515 18.531C8.89515 18.531 9.50724 18.5362 9.73946 18.5686C9.97167 18.6009 10.3845 19.0493 10.3845 19.0493C10.3845 19.0493 9.90877 19.185 9.4731 19.141ZM10.2517 18.0935C10.2517 18.0935 10.1927 18.7727 10.6303 19.0004C11.068 19.2281 11.6132 19.2753 11.6132 19.2753C11.6132 19.2753 11.3473 18.6137 11.1173 18.4826C10.8873 18.3514 10.2517 18.0935 10.2517 18.0935ZM10.557 19.8274C10.0736 19.9259 9.69209 19.361 9.69209 19.361C9.69209 19.361 10.3483 19.1614 10.6096 19.1185C10.8709 19.0757 11.4939 19.4226 11.4939 19.4226C11.4939 19.4226 11.0404 19.7289 10.557 19.8274ZM7.06262 18.6082C7.06262 18.6082 7.2917 19.1451 7.72888 19.1203C8.16606 19.0955 8.61475 18.8871 8.61475 18.8871C8.61475 18.8871 8.13682 18.5088 7.9024 18.5132C7.66798 18.5176 7.06262 18.6082 7.06262 18.6082ZM8.33347 17.9938C7.94248 17.7966 8.01252 17.2172 8.01252 17.2172C8.01252 17.2172 8.5821 17.4414 8.78729 17.5548C8.99248 17.6682 9.21726 18.2348 9.21726 18.2348C9.21726 18.2348 8.72445 18.1909 8.33347 17.9938ZM6.12713 15.8738C6.12713 15.8738 6.12809 16.5897 6.42236 16.8695C6.71664 17.1493 7.06967 17.2469 7.06967 17.2469C7.06967 17.2469 6.86093 16.5214 6.70562 16.3622C6.55032 16.2029 6.12713 15.8738 6.12713 15.8738ZM5.04745 17.4558C5.04745 17.4558 5.48702 18.0281 5.93972 17.9987C6.39242 17.9693 6.78967 17.7435 6.78967 17.7435C6.78967 17.7435 6.14561 17.3424 5.89958 17.3486C5.65356 17.3549 5.04745 17.4558 5.04745 17.4558ZM5.15335 17.3258C4.91259 17.3478 4.68721 17.0479 4.68721 17.0479C4.68721 17.0479 5.01041 16.9854 5.14111 16.9786C5.27182 16.9719 5.60816 17.1774 5.60816 17.1774C5.60816 17.1774 5.3941 17.3037 5.15335 17.3258ZM5.35226 15.0095C5.35226 15.0095 5.09599 15.2835 5.15951 15.5168C5.22302 15.75 5.38461 15.9389 5.38461 15.9389C5.38461 15.9389 5.52862 15.572 5.49926 15.4444C5.4699 15.3169 5.35226 15.0095 5.35226 15.0095ZM7.47928 17.4241C7.33026 17.3681 7.36478 17.1881 7.36478 17.1881C7.36478 17.1881 7.58269 17.2501 7.66077 17.2826C7.73885 17.315 7.81875 17.4873 7.81875 17.4873C7.81875 17.4873 7.62831 17.48 7.47928 17.4241ZM6.70463 18.118C6.70463 18.118 6.6701 18.298 6.81913 18.354C6.96815 18.41 7.1586 18.4172 7.1586 18.4172C7.1586 18.4172 7.0787 18.2449 7.00061 18.2125C6.92253 18.18 6.70463 18.118 6.70463 18.118ZM9.56131 18.354C9.41229 18.298 9.44682 18.118 9.44682 18.118C9.44682 18.118 9.66472 18.18 9.7428 18.2125C9.82088 18.2449 9.90078 18.4172 9.90078 18.4172C9.90078 18.4172 9.71034 18.41 9.56131 18.354ZM8.90515 19.2553C8.90515 19.2553 8.87062 19.4353 9.01965 19.4913C9.16867 19.5472 9.35912 19.5545 9.35912 19.5545C9.35912 19.5545 9.27922 19.3822 9.20113 19.3498C9.12305 19.3173 8.90515 19.2553 8.90515 19.2553ZM11.8487 20.488L11.3659 20.0859C11.6667 19.912 11.9766 19.7735 12.2417 19.6696C12.1688 19.6195 12.1029 19.5818 12.0496 19.5635V19.4318C12.0496 19.4318 12.2299 19.4785 12.5 19.5736C12.7701 19.4785 12.9504 19.4318 12.9504 19.4318V19.5635C12.8971 19.5818 12.8312 19.6195 12.7583 19.6696C13.0234 19.7735 13.3333 19.912 13.6341 20.0859L13.1513 20.488C13.1513 20.488 12.8198 20.1423 12.5 19.8709C12.1802 20.1423 11.8487 20.488 11.8487 20.488ZM21.3474 14.4849C21.3474 14.4849 21.556 15.1921 21.0922 15.5145C20.6284 15.8368 20.0021 15.9885 20.0021 15.9885C20.0021 15.9885 20.1762 15.2393 20.4175 15.0577C20.6589 14.8761 21.3474 14.4849 21.3474 14.4849ZM19.8505 16.5298C19.8752 16.3236 19.8171 16.1384 19.8171 16.1384C19.8171 16.1384 19.236 16.4489 19.0322 16.5931C18.8285 16.7372 18.6815 17.3319 18.6815 17.3319C18.6815 17.3319 19.2102 17.2116 19.6017 16.9557C19.7444 16.8624 19.8117 16.7286 19.8396 16.5962C19.9535 16.6314 20.255 16.7113 20.5661 16.6814C20.9611 16.6434 21.246 16.0892 21.246 16.0892C21.246 16.0892 20.7071 16.087 20.4941 16.1161C20.3262 16.1389 19.9868 16.4141 19.8505 16.5298ZM18.0224 17.5825C18.0224 17.5825 17.9806 18.1647 17.5592 18.2836C17.1378 18.4025 16.6456 18.3515 16.6456 18.3515C16.6456 18.3515 16.9744 17.8383 17.1975 17.7661C17.4205 17.6939 18.0224 17.5825 18.0224 17.5825ZM15.5269 19.141C15.9626 19.0971 16.1048 18.531 16.1048 18.531C16.1048 18.531 15.4928 18.5362 15.2605 18.5686C15.0283 18.6009 14.6155 19.0493 14.6155 19.0493C14.6155 19.0493 15.0912 19.185 15.5269 19.141ZM14.7483 18.0935C14.7483 18.0935 14.8073 18.7727 14.3697 19.0004C13.932 19.2281 13.3868 19.2753 13.3868 19.2753C13.3868 19.2753 13.6527 18.6137 13.8827 18.4826C14.1127 18.3514 14.7483 18.0935 14.7483 18.0935ZM14.443 19.8274C14.9264 19.9259 15.3079 19.361 15.3079 19.361C15.3079 19.361 14.6517 19.1614 14.3904 19.1185C14.1291 19.0757 13.5061 19.4226 13.5061 19.4226C13.5061 19.4226 13.9596 19.7289 14.443 19.8274ZM17.9374 18.6082C17.9374 18.6082 17.7083 19.1451 17.2711 19.1203C16.8339 19.0955 16.3853 18.8871 16.3853 18.8871C16.3853 18.8871 16.8632 18.5088 17.0976 18.5132C17.332 18.5176 17.9374 18.6082 17.9374 18.6082ZM16.6665 17.9938C17.0575 17.7966 16.9875 17.2172 16.9875 17.2172C16.9875 17.2172 16.4179 17.4414 16.2127 17.5548C16.0075 17.6682 15.7827 18.2348 15.7827 18.2348C15.7827 18.2348 16.2755 18.1909 16.6665 17.9938ZM18.8729 15.8738C18.8729 15.8738 18.8719 16.5897 18.5776 16.8695C18.2834 17.1493 17.9303 17.2469 17.9303 17.2469C17.9303 17.2469 18.1391 16.5214 18.2944 16.3622C18.4497 16.2029 18.8729 15.8738 18.8729 15.8738ZM19.9526 17.4558C19.9526 17.4558 19.513 18.0281 19.0603 17.9987C18.6076 17.9693 18.2103 17.7435 18.2103 17.7435C18.2103 17.7435 18.8544 17.3424 19.1004 17.3486C19.3464 17.3549 19.9526 17.4558 19.9526 17.4558ZM19.8467 17.3258C20.0874 17.3478 20.3128 17.0479 20.3128 17.0479C20.3128 17.0479 19.9896 16.9854 19.8589 16.9786C19.7282 16.9719 19.3918 17.1774 19.3918 17.1774C19.3918 17.1774 19.6059 17.3037 19.8467 17.3258ZM19.6477 15.0095C19.6477 15.0095 19.904 15.2835 19.8405 15.5168C19.777 15.75 19.6154 15.9389 19.6154 15.9389C19.6154 15.9389 19.4714 15.572 19.5007 15.4444C19.5301 15.3169 19.6477 15.0095 19.6477 15.0095ZM17.5207 17.4241C17.6697 17.3681 17.6352 17.1881 17.6352 17.1881C17.6352 17.1881 17.4173 17.2501 17.3392 17.2826C17.2612 17.315 17.1813 17.4873 17.1813 17.4873C17.1813 17.4873 17.3717 17.48 17.5207 17.4241ZM18.2954 18.118C18.2954 18.118 18.3299 18.298 18.1809 18.354C18.0318 18.41 17.8414 18.4172 17.8414 18.4172C17.8414 18.4172 17.9213 18.2449 17.9994 18.2125C18.0775 18.18 18.2954 18.118 18.2954 18.118ZM15.4387 18.354C15.5877 18.298 15.5532 18.118 15.5532 18.118C15.5532 18.118 15.3353 18.18 15.2572 18.2125C15.1791 18.2449 15.0992 18.4172 15.0992 18.4172C15.0992 18.4172 15.2897 18.41 15.4387 18.354ZM16.0949 19.2553C16.0949 19.2553 16.1294 19.4353 15.9804 19.4913C15.8313 19.5472 15.6409 19.5545 15.6409 19.5545C15.6409 19.5545 15.7208 19.3822 15.7989 19.3498C15.877 19.3173 16.0949 19.2553 16.0949 19.2553Z" fill="#006B49"/>
<path fill-rule="evenodd" clip-rule="evenodd" d="M25.7944 3.26855C25.7944 3.26855 26.1694 3.75048 25.7944 3.75048C25.4194 3.75048 24.4658 4.27194 24.4658 4.27194C24.4658 4.27194 24.0122 4.94893 23.4628 5.10209C22.9134 5.25526 22.7281 5.82404 21.9239 6.0611C21.1198 6.29816 21.0376 6.36289 21.0376 6.60281C21.0376 6.84274 21.1747 7.24907 20.6255 7.24907C20.0763 7.24907 19.6882 6.48018 19.391 7.24907C19.0938 8.01796 18.7928 8.24336 19.2045 8.71373C19.6161 9.18409 20.1614 9.6345 20.3935 9.90614C20.6255 10.1778 22.1731 10.9728 21.0376 10.9728C19.9021 10.9728 20.4729 10.2532 19.5988 10.516C18.7246 10.7789 19.2265 11.1666 18.5584 10.9728C17.8903 10.7789 17.4449 10.602 17.2376 10.6904C17.0303 10.7789 16.6973 10.199 16.6973 10.9728C16.6973 11.7465 17.3208 11.4329 15.984 12.2875C14.6472 13.1422 14.9126 12.906 14.2991 12.906C13.6855 12.906 13.4699 13.2929 13.0608 13.2929C12.6516 13.2929 12.7016 13.2929 12.2408 13.2929C11.78 13.2929 12.2737 12.8034 11.4879 13.2929C10.7021 13.7823 10.4206 13.8797 10.4206 14.0678C10.4206 14.2558 10.4206 14.7545 10.4206 14.7545C10.4206 14.7545 9.70067 15.1663 9.70067 14.7545C9.70067 14.3426 9.47878 14.2372 9.18027 14.0678C8.88176 13.8984 8.28529 14.0204 7.64827 14.0678C7.01126 14.1152 6.29109 13.4253 5.7381 13.4253C5.18511 13.4253 5.08223 12.906 4.93096 12.906C4.77969 12.906 5.08877 12.4622 4.44489 12.064C3.801 11.6658 3.57562 11.6163 3.57562 10.9728C3.57562 10.3293 3.27995 10.1533 3.27995 9.76227C3.27995 9.37125 3.59502 9.90614 4.26299 9.90614C4.93096 9.90614 4.97477 9.49234 5.7381 9.10304C6.50143 8.71373 6.76048 8.50068 7.39695 8.71373C8.03342 8.92677 8.65987 9.72066 9.18027 8.95869C9.70067 8.19672 9.70067 7.32536 9.70067 6.88543C9.70067 6.4455 9.3929 6.3202 10.2237 6.60281C11.0545 6.88543 11.5378 6.88543 12.9184 6.88543C14.2991 6.88543 15.9498 7.33692 16.4586 6.88543C16.9673 6.43394 17.5112 6.0611 18.8311 6.0611C20.151 6.0611 20.5822 5.41237 21.4698 5.10209C22.3574 4.79181 21.0485 5.44775 23.0394 4.59912C25.0303 3.75048 25.7944 3.26855 25.7944 3.26855Z" fill="#F57A01"/>
</g>
</g>
</g>
</svg>
