<svg width="26" height="26" viewBox="0 0 26 26" fill="none" xmlns="http://www.w3.org/2000/svg">
<mask id="mask0_1_15561" style="mask-type:alpha" maskUnits="userSpaceOnUse" x="0" y="0" width="26" height="26">
<circle cx="13" cy="13" r="13" fill="#634848"/>
</mask>
<g mask="url(#mask0_1_15561)">
<g clip-path="url(#clip0_1_15561)">
<path fill-rule="evenodd" clip-rule="evenodd" d="M-12.6648 0H38.646V26.0693H-12.6648V0Z" fill="#108C00"/>
<path fill-rule="evenodd" clip-rule="evenodd" d="M-12.7497 9.07324H38.8158V11.6242H-12.7497V9.07324Z" fill="#FFD600"/>
<path fill-rule="evenodd" clip-rule="evenodd" d="M9.27275 0H11.6947V26.0693H9.27774L9.27275 0Z" fill="#FFD600"/>
<path fill-rule="evenodd" clip-rule="evenodd" d="M11.6098 0H14.0268V26.0693H11.6098V0Z" fill="black"/>
<path fill-rule="evenodd" clip-rule="evenodd" d="M-12.7497 11.5376H38.8158V14.0936H-12.7497V11.5376Z" fill="black"/>
<path fill-rule="evenodd" clip-rule="evenodd" d="M-12.7497 14.0938H38.8158V16.6447H-12.7497V14.0938Z" fill="white"/>
<path fill-rule="evenodd" clip-rule="evenodd" d="M14.0268 0H16.4488V26.0693H14.0268V0Z" fill="white"/>
<path d="M6.26651 13.0551C6.26651 16.9217 9.32729 20.0562 13.103 20.0562C16.8786 20.0562 19.9394 16.9217 19.9394 13.0551C19.9394 9.18854 16.8786 6.05407 13.103 6.05407C9.32729 6.05407 6.26651 9.18854 6.26651 13.0551Z" fill="#E72910"/>
<path fill-rule="evenodd" clip-rule="evenodd" d="M12.7434 6.9758L13.0231 6.16113L13.2777 6.96052C13.2777 6.96052 14.1317 6.98598 14.1317 6.97071C14.1317 6.95543 13.4575 7.49515 13.4575 7.49515L13.7621 8.39128C13.7521 8.36582 13.0231 7.83629 13.0231 7.83629C13.0231 7.83629 12.284 8.36582 12.299 8.36582C12.3139 8.36582 12.5786 7.50024 12.5786 7.50024L11.9144 6.98598L12.7434 6.97071V6.9758Z" fill="black"/>
<path fill-rule="evenodd" clip-rule="evenodd" d="M12.7834 7.01152L13.0181 6.31396L13.2378 7.00643C13.2378 7.00643 13.9819 7.0268 13.9819 7.01662C13.9819 7.00643 13.3976 7.47487 13.3976 7.47487L13.6573 8.2488C13.6473 8.22334 13.0181 7.77018 13.0181 7.77018C13.0181 7.77018 12.3789 8.22843 12.3889 8.22843C12.3988 8.22843 12.6385 7.47487 12.6385 7.47487L12.0593 7.0268L12.7784 7.01662L12.7834 7.01152Z" fill="#FFE700"/>
<path fill-rule="evenodd" clip-rule="evenodd" d="M12.8832 7.12852L13.0231 6.72119L13.1529 7.12343C13.1529 7.12343 13.5774 7.13362 13.5774 7.12343C13.5774 7.11325 13.2428 7.3882 13.2428 7.3882L13.3926 7.83627C13.3876 7.82099 13.0231 7.56132 13.0231 7.56132L12.6635 7.82608C12.6735 7.82608 12.8033 7.39329 12.8033 7.39329L12.4737 7.13871L12.8832 7.12852V7.12852Z" fill="#108C00"/>
<path fill-rule="evenodd" clip-rule="evenodd" d="M18.0568 10.7844L18.3364 9.96973L18.5861 10.7691C18.5861 10.7691 19.445 10.7997 19.445 10.7844C19.445 10.7691 18.7709 11.3088 18.7709 11.3088L19.0705 12.205C19.0605 12.1795 18.3364 11.65 18.3364 11.65C18.3364 11.65 17.5973 12.1795 17.6123 12.1795C17.6273 12.1795 17.892 11.3139 17.892 11.3139L17.2278 10.7946L18.0568 10.7793V10.7844Z" fill="black"/>
<path fill-rule="evenodd" clip-rule="evenodd" d="M18.0917 10.8249L18.3364 10.1172L18.5561 10.8147C18.5561 10.8147 19.2952 10.8351 19.2952 10.8249C19.2952 10.8147 18.7109 11.2832 18.7109 11.2832L18.9756 12.052C18.9656 12.0317 18.3364 11.5734 18.3364 11.5734C18.3364 11.5734 17.6972 12.0317 17.7072 12.0317C17.7172 12.0317 17.9519 11.2781 17.9519 11.2781L17.3776 10.8351L18.0917 10.8249V10.8249Z" fill="#FFE700"/>
<path fill-rule="evenodd" clip-rule="evenodd" d="M18.1966 10.942L18.3364 10.5347L18.4613 10.9318L18.8907 10.942L18.5511 11.2017C18.5511 11.2017 18.7109 11.6599 18.701 11.6497C18.701 11.6345 18.3364 11.3748 18.3364 11.3748L17.9719 11.6345L18.1117 11.2017L17.7821 10.9471L18.1966 10.942Z" fill="#108C00"/>
<path fill-rule="evenodd" clip-rule="evenodd" d="M16.5087 16.8332L16.7883 16.0186L17.038 16.823C17.038 16.823 17.897 16.8485 17.897 16.8383C17.897 16.8281 17.2228 17.3628 17.2228 17.3628L17.5224 18.2538C17.5124 18.2283 16.7883 17.7039 16.7883 17.7039C16.7883 17.7039 16.0493 18.2283 16.0593 18.2283C16.0692 18.2283 16.3439 17.3628 16.3439 17.3628L15.6797 16.8536L16.5087 16.8383V16.8332Z" fill="black"/>
<path fill-rule="evenodd" clip-rule="evenodd" d="M16.5437 16.874L16.7883 16.1714L17.0081 16.8639C17.0081 16.8639 17.7471 16.8893 17.7471 16.874C17.7471 16.8588 17.1629 17.3323 17.1629 17.3323L17.4275 18.1062C17.4176 18.0808 16.7883 17.6276 16.7883 17.6276C16.7883 17.6276 16.1491 18.0859 16.1591 18.0859C16.1691 18.0859 16.4038 17.3323 16.4038 17.3323L15.8295 16.8893L16.5437 16.874V16.874Z" fill="#FFE700"/>
<path fill-rule="evenodd" clip-rule="evenodd" d="M16.6485 16.9908L16.7883 16.5835L16.9132 16.9857C16.9132 16.9857 17.3427 17.001 17.3427 16.9908C17.3427 16.9806 17.0031 17.2556 17.0031 17.2556L17.1529 17.6986C17.1529 17.6884 16.7883 17.4236 16.7883 17.4236L16.4238 17.6884L16.5636 17.2556L16.234 17.001L16.6485 16.9908Z" fill="#108C00"/>
<path fill-rule="evenodd" clip-rule="evenodd" d="M9.08299 16.8332L9.36264 16.0186L9.61232 16.823C9.61232 16.823 10.4663 16.8485 10.4663 16.8383C10.4663 16.8281 9.7921 17.3628 9.7921 17.3628L10.1017 18.2538C10.0867 18.2283 9.36264 17.7039 9.36264 17.7039C9.36264 17.7039 8.62356 18.2283 8.63355 18.2283C8.64354 18.2283 8.91819 17.3628 8.91819 17.3628L8.25402 16.8536L9.08299 16.8383V16.8332Z" fill="black"/>
<path fill-rule="evenodd" clip-rule="evenodd" d="M9.12294 16.874L9.36264 16.1714L9.58236 16.8639C9.58236 16.8639 10.3214 16.8893 10.3214 16.874C10.3214 16.8588 9.73717 17.3323 9.73717 17.3323L10.0018 18.1062C9.99185 18.0808 9.36264 17.6276 9.36264 17.6276C9.36264 17.6276 8.72344 18.0859 8.73343 18.0859C8.74341 18.0859 8.97812 17.3323 8.97812 17.3323L8.40384 16.8893L9.11794 16.874H9.12294Z" fill="#FFE700"/>
<path fill-rule="evenodd" clip-rule="evenodd" d="M9.22281 16.9908L9.36264 16.5835L9.48748 16.9857C9.48748 16.9857 9.91694 17.001 9.91694 16.9908C9.91694 16.9806 9.57737 17.2556 9.57737 17.2556L9.72718 17.6986C9.72718 17.6884 9.36264 17.4236 9.36264 17.4236L8.99809 17.6884L9.13792 17.2556L8.80833 17.001L9.22281 16.9908Z" fill="#108C00"/>
<path fill-rule="evenodd" clip-rule="evenodd" d="M7.72469 10.6262L8.00434 9.81152L8.25902 10.616C8.25902 10.616 9.11295 10.6415 9.11295 10.6262C9.11295 10.6109 8.43879 11.1557 8.43879 11.1557L8.74341 12.0468C8.72843 12.0213 8.00434 11.4969 8.00434 11.4969C8.00434 11.4969 7.26526 12.0162 7.28024 12.0162C7.29523 12.0162 7.55989 11.1506 7.55989 11.1506L6.89573 10.6415L7.72469 10.6262V10.6262Z" fill="black"/>
<path fill-rule="evenodd" clip-rule="evenodd" d="M7.76464 10.667L8.00434 9.96436L8.22906 10.6568C8.22906 10.6568 8.96314 10.6823 8.96314 10.667C8.96314 10.6517 8.37887 11.1253 8.37887 11.1253L8.64354 11.8992C8.63355 11.8737 8.00434 11.4206 8.00434 11.4206C8.00434 11.4206 7.36514 11.8788 7.38012 11.8788C7.3951 11.8788 7.61982 11.1253 7.61982 11.1253L7.04554 10.6823L7.76464 10.667V10.667Z" fill="#FFE700"/>
<path fill-rule="evenodd" clip-rule="evenodd" d="M7.86451 10.7838L8.00434 10.3765L8.13417 10.7787L8.55864 10.7838L8.22406 11.0486L8.37387 11.4915C8.36888 11.4814 8.00434 11.2166 8.00434 11.2166L7.64479 11.4814C7.65477 11.4814 7.78461 11.0486 7.78461 11.0486L7.45502 10.794L7.86451 10.7838V10.7838Z" fill="#108C00"/>
<path fill-rule="evenodd" clip-rule="evenodd" d="M16.4438 8.8647L16.1641 9.67937L15.9144 8.87998C15.9144 8.87998 15.0555 8.85452 15.0555 8.8647C15.0555 8.87489 15.7297 8.34026 15.7297 8.34026L15.43 7.44922C15.44 7.47468 16.1641 7.99912 16.1641 7.99912C16.1641 7.99912 16.9032 7.47468 16.8882 7.47468C16.8732 7.47468 16.6086 8.34026 16.6086 8.34026L17.2727 8.84943L16.4438 8.8647V8.8647Z" fill="black"/>
<path fill-rule="evenodd" clip-rule="evenodd" d="M16.4088 8.82377C16.4088 8.83905 16.1591 9.53151 16.1591 9.53151L15.9444 8.83905C15.9444 8.83905 15.2053 8.81359 15.2053 8.82377C15.2053 8.83395 15.7896 8.37061 15.7896 8.37061L15.5249 7.59668C15.5349 7.62214 16.1641 8.0753 16.1641 8.0753C16.1641 8.0753 16.8033 7.61705 16.7933 7.61705C16.7833 7.61705 16.5486 8.37061 16.5486 8.37061L17.1229 8.81359L16.4038 8.82377H16.4088Z" fill="#FFE700"/>
<path fill-rule="evenodd" clip-rule="evenodd" d="M16.3039 8.70704L16.1641 9.11438L16.0393 8.71723C16.0393 8.71723 15.6098 8.70195 15.6098 8.71214C15.6098 8.72232 15.9494 8.44737 15.9494 8.44737L15.7996 8.00439C15.7996 8.01458 16.1641 8.27934 16.1641 8.27934L16.5287 8.01458C16.5187 8.01458 16.3838 8.44737 16.3838 8.44737L16.7184 8.70195L16.3039 8.71214V8.70704Z" fill="#108C00"/>
<path fill-rule="evenodd" clip-rule="evenodd" d="M18.5761 14.7809L18.2965 15.5956L18.0468 14.7911C18.0468 14.7911 17.1879 14.7657 17.1879 14.7809C17.1879 14.7962 17.862 14.2565 17.862 14.2565L17.5624 13.3604C17.5724 13.3858 18.2965 13.9103 18.2965 13.9103C18.2965 13.9103 19.0355 13.3858 19.0206 13.3858C19.0056 13.3858 18.7409 14.2514 18.7409 14.2514L19.4101 14.7657L18.5811 14.7809H18.5761Z" fill="black"/>
<path fill-rule="evenodd" clip-rule="evenodd" d="M18.5412 14.74L18.2965 15.4426L18.0767 14.7502C18.0767 14.7502 17.3377 14.7298 17.3377 14.74C17.3377 14.7502 17.9219 14.2817 17.9219 14.2817L17.6573 13.5078C17.6672 13.5333 18.2965 13.9864 18.2965 13.9864C18.2965 13.9864 18.9357 13.5282 18.9257 13.5282C18.9157 13.5282 18.681 14.2817 18.681 14.2817L19.2553 14.7298L18.5362 14.74H18.5412Z" fill="#FFE700"/>
<path fill-rule="evenodd" clip-rule="evenodd" d="M18.4363 14.6233L18.2965 15.0306L18.1716 14.6284C18.1716 14.6284 17.7422 14.6182 17.7422 14.6284C17.7422 14.6385 18.0817 14.3636 18.0817 14.3636L17.9319 13.9155C17.9319 13.9308 18.2965 14.1905 18.2965 14.1905L18.661 13.9257C18.651 13.9257 18.5162 14.3636 18.5162 14.3636L18.8508 14.6182L18.4363 14.6233V14.6233Z" fill="#108C00"/>
<path fill-rule="evenodd" clip-rule="evenodd" d="M13.2877 19.1091L13.0081 19.9237L12.7584 19.1192C12.7584 19.1192 11.8995 19.0938 11.8995 19.104C11.8995 19.1141 12.5736 18.5795 12.5736 18.5795L12.274 17.6885C12.284 17.7139 13.0081 18.2384 13.0081 18.2384C13.0081 18.2384 13.7471 17.7139 13.7322 17.7139C13.7172 17.7139 13.4525 18.5795 13.4525 18.5795L14.1167 19.0938L13.2877 19.1091Z" fill="black"/>
<path fill-rule="evenodd" clip-rule="evenodd" d="M13.2528 19.063L13.0081 19.7759L12.7883 19.0783C12.7883 19.0783 12.0493 19.0528 12.0493 19.0681C12.0493 19.0834 12.6335 18.6099 12.6335 18.6099L12.3689 17.8359C12.3789 17.8614 13.0081 18.3146 13.0081 18.3146C13.0081 18.3146 13.6473 17.8563 13.6373 17.8563C13.6273 17.8563 13.3926 18.6099 13.3926 18.6099L13.9669 19.0528L13.2528 19.0681V19.063Z" fill="#FFE700"/>
<path fill-rule="evenodd" clip-rule="evenodd" d="M13.1479 18.9514L13.0081 19.3587L12.8832 18.9565C12.8832 18.9565 12.4538 18.9412 12.4538 18.9514C12.4538 18.9616 12.7933 18.6866 12.7933 18.6866L12.6435 18.2437C12.6435 18.2538 13.0081 18.5186 13.0081 18.5186L13.3726 18.2538L13.2328 18.6866L13.5624 18.9412L13.1479 18.9514Z" fill="#108C00"/>
<path fill-rule="evenodd" clip-rule="evenodd" d="M8.32394 14.7809L8.0393 15.5956L7.78961 14.7911C7.78961 14.7911 6.93068 14.7657 6.93068 14.7809C6.93068 14.7962 7.60484 14.2565 7.60484 14.2565L7.30521 13.3604C7.3152 13.3858 8.0393 13.9103 8.0393 13.9103L8.77338 13.3909L8.48873 14.2565L9.1529 14.7707L8.32394 14.786V14.7809Z" fill="black"/>
<path fill-rule="evenodd" clip-rule="evenodd" d="M8.28399 14.74L8.03929 15.4426L7.81957 14.7502C7.81957 14.7502 7.08049 14.7298 7.08049 14.74C7.08049 14.7502 7.66476 14.2817 7.66476 14.2817L7.40009 13.5078C7.41008 13.5333 8.03929 13.9864 8.03929 13.9864C8.03929 13.9864 8.67849 13.5282 8.66851 13.5282C8.65852 13.5282 8.42381 14.2817 8.42381 14.2817L8.99809 14.7298L8.28399 14.74V14.74Z" fill="#FFE700"/>
<path fill-rule="evenodd" clip-rule="evenodd" d="M8.17912 14.6233L8.0393 15.0306L7.91445 14.6284C7.91445 14.6284 7.48499 14.6182 7.48499 14.6284C7.48499 14.6385 7.82456 14.3636 7.82456 14.3636L7.67475 13.9155C7.67475 13.9308 8.0393 14.1905 8.0393 14.1905L8.40384 13.9257L8.26401 14.3636L8.5936 14.6182L8.17912 14.6233V14.6233Z" fill="#108C00"/>
<path fill-rule="evenodd" clip-rule="evenodd" d="M10.1566 8.95113L9.87699 9.76579L9.61732 8.9664C9.61732 8.9664 8.76838 8.94094 8.76838 8.95113C8.76838 8.96131 9.44254 8.42669 9.44254 8.42669L9.13792 7.53564C9.1479 7.5611 9.872 8.08554 9.872 8.08554C9.872 8.08554 10.6111 7.5611 10.6011 7.5611C10.5911 7.5611 10.3214 8.42669 10.3214 8.42669L10.9806 8.93585L10.1566 8.95622V8.95113Z" fill="black"/>
<path fill-rule="evenodd" clip-rule="evenodd" d="M10.1167 8.9102L9.872 9.62303L9.65227 8.92547C9.65227 8.92547 8.9132 8.90001 8.9132 8.91529C8.9132 8.93056 9.49747 8.45704 9.49747 8.45704L9.2328 7.68311C9.24278 7.70856 9.872 8.16172 9.872 8.16172C9.872 8.16172 10.5112 7.70347 10.5012 7.70347C10.4912 7.70347 10.2615 8.45704 10.2615 8.45704L10.8308 8.90001L10.1167 8.91529V8.9102Z" fill="#FFE700"/>
<path fill-rule="evenodd" clip-rule="evenodd" d="M10.0118 8.79856L9.872 9.2059L9.74715 8.80365C9.74715 8.80365 9.32269 8.78838 9.32269 8.79856C9.32269 8.80875 9.65727 8.5338 9.65727 8.5338L9.50745 8.09082C9.50745 8.101 9.872 8.36577 9.872 8.36577L10.2365 8.101L10.0967 8.5338L10.4263 8.78838L10.0118 8.79856V8.79856Z" fill="#108C00"/>
<path d="M13.5146 16.3483C13.7125 16.3226 13.8729 15.4922 13.8729 14.4935C13.8729 13.4948 13.7125 12.7061 13.5146 12.7318C13.3167 12.7575 13.1563 13.5879 13.1563 14.5866C13.1563 15.5852 13.3167 16.374 13.5146 16.3483Z" fill="#009200" stroke="black" stroke-width="0.0615821"/>
<path d="M13.9727 16.3214C14.1847 16.2939 14.3566 15.462 14.3566 14.4634C14.3566 13.4647 14.1847 12.6775 13.9727 12.705C13.7606 12.7326 13.5888 13.5644 13.5888 14.5631C13.5888 15.5617 13.7606 16.3489 13.9727 16.3214Z" fill="#009200" stroke="black" stroke-width="0.0637436"/>
<path d="M13.791 16.5803C13.9606 16.5582 14.0981 15.6497 14.0981 14.5511C14.0981 13.4525 13.9606 12.5797 13.791 12.6017C13.6214 12.6237 13.4839 13.5322 13.4839 14.6309C13.4839 15.7295 13.6214 16.6023 13.791 16.5803Z" fill="#009200" stroke="black" stroke-width="0.0597968"/>
<path fill-rule="evenodd" clip-rule="evenodd" d="M11.6825 14.9743C11.9941 14.9584 11.8591 14.7995 12.0149 14.7095C12.1707 14.6248 12.394 14.6777 12.4616 14.7836C12.5291 14.8895 12.4771 14.9954 12.5654 14.9954C12.6537 14.9954 15.0064 14.8631 15.0895 14.9478C15.1726 15.0378 15.1933 15.2125 15.105 15.2814C15.022 15.3555 12.0461 15.4402 11.9422 15.3661C11.8383 15.292 11.6825 14.9954 11.6825 14.9743V14.9743Z" fill="#A95600" stroke="black" stroke-width="0.0611"/>
<path fill-rule="evenodd" clip-rule="evenodd" d="M13.3102 15.6019C13.3102 15.8138 13.6654 15.7492 13.6748 15.926C13.6693 16.1135 13.0772 15.9446 13.0624 15.6019C13.0772 15.2588 13.6467 15.083 13.66 15.2789C13.6693 15.441 13.3094 15.3901 13.3094 15.6019H13.3102Z" fill="#FFFF00" stroke="black" stroke-width="0.0583689"/>
<path fill-rule="evenodd" clip-rule="evenodd" d="M13.5179 15.6068C13.5179 15.8186 13.8732 15.754 13.8825 15.9309C13.877 16.1184 13.285 15.9494 13.2702 15.6068C13.285 15.2637 13.8545 15.0879 13.8677 15.2838C13.877 15.4459 13.5171 15.395 13.5171 15.6068H13.5179Z" fill="#FFFF00" stroke="black" stroke-width="0.0583689"/>
<path fill-rule="evenodd" clip-rule="evenodd" d="M13.7412 15.5966C13.7412 15.8084 14.0965 15.7438 14.1058 15.9207C14.1004 16.1081 13.5083 15.9392 13.4935 15.5966C13.5083 15.2534 14.0778 15.0776 14.091 15.2736C14.1004 15.4356 13.7405 15.3848 13.7405 15.5966H13.7412Z" fill="#FFFF00" stroke="black" stroke-width="0.0583689"/>
<path fill-rule="evenodd" clip-rule="evenodd" d="M13.949 15.5966C13.949 15.8084 14.3042 15.7438 14.3136 15.9207C14.3081 16.1081 13.716 15.9392 13.7012 15.5966C13.716 15.2534 14.2855 15.0776 14.2988 15.2736C14.3081 15.4356 13.9482 15.3848 13.9482 15.5966H13.949Z" fill="#FFFF00" stroke="black" stroke-width="0.0583689"/>
<path d="M14.9489 16.2406C15.0594 16.2426 15.1505 16.1516 15.1524 16.0372C15.1544 15.9229 15.0664 15.8285 14.956 15.8265C14.8456 15.8244 14.7545 15.9155 14.7525 16.0298C14.7506 16.1442 14.8385 16.2385 14.9489 16.2406Z" fill="#A95600" stroke="black" stroke-width="0.0549851"/>
<path d="M13.7048 16.0592C13.806 16.0486 13.8703 15.8582 13.8483 15.634C13.8262 15.4098 13.7263 15.2367 13.6251 15.2473C13.5238 15.258 13.4596 15.4483 13.4816 15.6725C13.5036 15.8967 13.6035 16.0699 13.7048 16.0592Z" fill="#009200" stroke="black" stroke-width="0.0712542"/>
<path d="M13.3993 16.0324C13.5006 16.0217 13.5648 15.8313 13.5428 15.6071C13.5208 15.383 13.4209 15.2098 13.3196 15.2205C13.2184 15.2311 13.1541 15.4215 13.1761 15.6457C13.1981 15.8699 13.2981 16.043 13.3993 16.0324Z" fill="#009200" stroke="black" stroke-width="0.0712542"/>
<path d="M13.1822 15.6339C13.2834 15.6233 13.3477 15.4329 13.3257 15.2087C13.3037 14.9845 13.2037 14.8114 13.1025 14.822C13.0012 14.8327 12.937 15.0231 12.959 15.2472C12.981 15.4714 13.0809 15.6446 13.1822 15.6339Z" fill="#009200" stroke="black" stroke-width="0.0712542"/>
<path d="M13.4061 15.5614C13.5015 15.5513 13.5592 15.3444 13.5351 15.0992C13.5111 14.8539 13.4143 14.6633 13.3189 14.6733C13.2236 14.6833 13.1658 14.8902 13.1899 15.1355C13.214 15.3807 13.3108 15.5714 13.4061 15.5614Z" fill="#009200" stroke="black" stroke-width="0.0722945"/>
<path d="M13.8342 15.6141C13.9295 15.6041 13.9884 15.4085 13.9657 15.1773C13.943 14.9461 13.8473 14.7668 13.752 14.7768C13.6567 14.7868 13.5978 14.9824 13.6205 15.2136C13.6432 15.4448 13.7389 15.6241 13.8342 15.6141Z" fill="#009200" stroke="black" stroke-width="0.0701986"/>
<path d="M13.6004 15.4681C13.6957 15.4581 13.7546 15.2625 13.7319 15.0313C13.7092 14.8001 13.6135 14.6208 13.5182 14.6308C13.4229 14.6408 13.364 14.8364 13.3867 15.0676C13.4094 15.2988 13.5051 15.4781 13.6004 15.4681Z" fill="#009200" stroke="black" stroke-width="0.0701986"/>
<path d="M13.3081 15.2586C13.4034 15.2486 13.4623 15.053 13.4396 14.8218C13.4169 14.5906 13.3212 14.4113 13.2259 14.4213C13.1306 14.4313 13.0717 14.6269 13.0944 14.8581C13.1171 15.0893 13.2128 15.2686 13.3081 15.2586Z" fill="#009200" stroke="black" stroke-width="0.0701986"/>
<path d="M13.0351 15.138C13.1304 15.128 13.1893 14.9324 13.1666 14.7012C13.1439 14.47 13.0482 14.2907 12.9529 14.3007C12.8575 14.3107 12.7987 14.5063 12.8214 14.7375C12.8441 14.9687 12.9398 15.148 13.0351 15.138Z" fill="#009200" stroke="black" stroke-width="0.0701986"/>
<path fill-rule="evenodd" clip-rule="evenodd" d="M12.7836 10.8329C12.7836 10.8329 12.1759 11.3625 12.259 12.7869C12.3525 14.2167 13.6353 14.8786 13.6353 14.8786C13.6353 14.8786 13.9573 14.4708 13.9054 13.3164C13.8015 11.6325 13.1886 10.8965 13.1886 10.8965L12.7836 10.8276V10.8329Z" fill="#804BFF" stroke="black" stroke-width="0.0611"/>
<path d="M14.0539 16.1167C14.1553 16.125 14.2513 15.9496 14.2684 15.7249C14.2855 15.5002 14.2171 15.3113 14.1157 15.3031C14.0144 15.2948 13.9183 15.4702 13.9012 15.6949C13.8842 15.9196 13.9525 16.1085 14.0539 16.1167Z" fill="#009200" stroke="black" stroke-width="0.0712542"/>
<path d="M13.7581 16.0347C13.8595 16.043 13.9555 15.8675 13.9726 15.6428C13.9897 15.4181 13.9213 15.2293 13.8199 15.221C13.7185 15.2128 13.6225 15.3882 13.6054 15.6129C13.5884 15.8376 13.6567 16.0264 13.7581 16.0347Z" fill="#009200" stroke="black" stroke-width="0.0712542"/>
<path d="M13.6143 15.6036C13.7157 15.6118 13.8117 15.4364 13.8288 15.2117C13.8458 14.987 13.7775 14.7981 13.6761 14.7899C13.5747 14.7816 13.4787 14.9571 13.4616 15.1817C13.4445 15.4064 13.5129 15.5953 13.6143 15.6036Z" fill="#009200" stroke="black" stroke-width="0.0712542"/>
<path d="M13.8474 15.5731C13.9429 15.5809 14.0354 15.3879 14.0541 15.1421C14.0727 14.8964 14.0105 14.6908 13.915 14.683C13.8196 14.6753 13.727 14.8682 13.7084 15.114C13.6897 15.3598 13.7519 15.5653 13.8474 15.5731Z" fill="#009200" stroke="black" stroke-width="0.0722945"/>
<path d="M14.2593 15.7029C14.3548 15.7106 14.4464 15.5291 14.464 15.2974C14.4817 15.0656 14.4186 14.8715 14.3231 14.8637C14.2277 14.8559 14.136 15.0375 14.1184 15.2692C14.1008 15.5009 14.1639 15.6951 14.2593 15.7029Z" fill="#009200" stroke="black" stroke-width="0.0701986"/>
<path d="M14.0549 15.5163C14.1504 15.5241 14.242 15.3426 14.2596 15.1108C14.2772 14.8791 14.2141 14.685 14.1187 14.6772C14.0232 14.6694 13.9316 14.8509 13.914 15.0827C13.8964 15.3144 13.9595 15.5086 14.0549 15.5163Z" fill="#009200" stroke="black" stroke-width="0.0701986"/>
<path d="M13.804 15.2571C13.8995 15.2648 13.9911 15.0833 14.0087 14.8516C14.0263 14.6198 13.9632 14.4257 13.8678 14.4179C13.7723 14.4101 13.6807 14.5917 13.6631 14.8234C13.6455 15.0551 13.7086 15.2493 13.804 15.2571Z" fill="#009200" stroke="black" stroke-width="0.0701986"/>
<path d="M13.5566 15.0886C13.652 15.0964 13.7437 14.9148 13.7613 14.6831C13.7789 14.4514 13.7158 14.2572 13.6203 14.2494C13.5249 14.2417 13.4332 14.4232 13.4156 14.6549C13.398 14.8867 13.4611 15.0808 13.5566 15.0886Z" fill="#009200" stroke="black" stroke-width="0.0701986"/>
<path d="M14.5732 14.9333C14.8408 14.831 14.7975 14.0848 14.4765 13.2667C14.1556 12.4485 13.6785 11.8682 13.4109 11.9705C13.1434 12.0728 13.1867 12.819 13.5076 13.6371C13.8286 14.4553 14.3057 15.0356 14.5732 14.9333Z" fill="#C90000" stroke="black" stroke-width="0.0270717"/>
<path d="M13.6932 12.2199C13.8172 12.2221 13.9192 12.1322 13.9211 12.0191C13.923 11.906 13.8241 11.8125 13.7001 11.8102C13.5762 11.808 13.4742 11.8979 13.4723 12.011C13.4704 12.1241 13.5693 12.2176 13.6932 12.2199Z" fill="#009200" stroke="black" stroke-width="0.063497"/>
<path d="M13.7655 11.9298C13.8739 11.9318 13.9634 11.8417 13.9653 11.7286C13.9672 11.6154 13.8808 11.5221 13.7724 11.5202C13.6639 11.5182 13.5745 11.6083 13.5726 11.7214C13.5707 11.8346 13.657 11.9279 13.7655 11.9298Z" fill="#009200" stroke="black" stroke-width="0.0633557"/>
<path d="M13.4955 11.9249C13.6039 11.9269 13.6933 11.8368 13.6952 11.7237C13.6971 11.6105 13.6108 11.5172 13.5023 11.5153C13.3939 11.5133 13.3044 11.6034 13.3025 11.7165C13.3006 11.8297 13.387 11.923 13.4955 11.9249Z" fill="#009200" stroke="black" stroke-width="0.0633557"/>
<path d="M13.5999 11.472C13.7146 11.4741 13.8089 11.3933 13.8106 11.2915C13.8123 11.1897 13.7208 11.1055 13.6061 11.1034C13.4915 11.1013 13.3972 11.1821 13.3955 11.2839C13.3938 11.3858 13.4853 11.47 13.5999 11.472Z" fill="#009200" stroke="black" stroke-width="0.0617979"/>
<path d="M13.578 11.2333C13.6927 11.2354 13.787 11.1545 13.7887 11.0527C13.7904 10.9509 13.6989 10.8667 13.5842 10.8646C13.4696 10.8625 13.3753 10.9434 13.3736 11.0452C13.3719 11.147 13.4634 11.2312 13.578 11.2333Z" fill="#009200" stroke="black" stroke-width="0.0617979"/>
<path d="M13.2384 11.7721C13.3468 11.7741 13.4362 11.684 13.4381 11.5708C13.44 11.4577 13.3537 11.3644 13.2452 11.3624C13.1368 11.3605 13.0473 11.4506 13.0454 11.5637C13.0435 11.6768 13.1299 11.7701 13.2384 11.7721Z" fill="#009200" stroke="black" stroke-width="0.0633557"/>
<path d="M13.2928 11.6246C13.4013 11.6266 13.4907 11.5365 13.4926 11.4234C13.4945 11.3103 13.4081 11.217 13.2997 11.215C13.1913 11.213 13.1018 11.3031 13.0999 11.4163C13.098 11.5294 13.1844 11.6227 13.2928 11.6246Z" fill="#009200" stroke="black" stroke-width="0.0633557"/>
<path d="M13.0715 11.5202C13.1954 11.5224 13.2974 11.4325 13.2993 11.3194C13.3012 11.2063 13.2023 11.1128 13.0784 11.1105C12.9545 11.1083 12.8525 11.1981 12.8506 11.3113C12.8487 11.4244 12.9476 11.5179 13.0715 11.5202Z" fill="#009200" stroke="black" stroke-width="0.063497"/>
<path d="M13.4272 10.9393C13.5419 10.9414 13.6362 10.8606 13.6379 10.7588C13.6396 10.657 13.5481 10.5727 13.4334 10.5707C13.3188 10.5686 13.2245 10.6494 13.2228 10.7512C13.2211 10.853 13.3126 10.9373 13.4272 10.9393Z" fill="#009200" stroke="black" stroke-width="0.0617979"/>
<path d="M13.1004 11.3356C13.2088 11.3376 13.2983 11.2474 13.3002 11.1343C13.3021 11.0212 13.2157 10.9279 13.1073 10.9259C12.9988 10.924 12.9094 11.0141 12.9075 11.1272C12.9056 11.2403 12.9919 11.3336 13.1004 11.3356Z" fill="#009200" stroke="black" stroke-width="0.0633557"/>
<path d="M12.6763 11.5289C12.7848 11.5309 12.8742 11.4408 12.8761 11.3277C12.878 11.2145 12.7917 11.1212 12.6832 11.1193C12.5748 11.1173 12.4853 11.2074 12.4834 11.3206C12.4815 11.4337 12.5679 11.527 12.6763 11.5289Z" fill="#009200" stroke="black" stroke-width="0.0633557"/>
<path d="M12.7445 11.4933C12.8529 11.4953 12.9424 11.4052 12.9443 11.292C12.9462 11.1789 12.8598 11.0856 12.7514 11.0836C12.6429 11.0817 12.5535 11.1718 12.5516 11.2849C12.5497 11.398 12.636 11.4913 12.7445 11.4933Z" fill="#009200" stroke="black" stroke-width="0.0633557"/>
<path d="M12.8304 11.3307C12.9388 11.3327 13.0283 11.2426 13.0302 11.1294C13.0321 11.0163 12.9457 10.923 12.8373 10.921C12.7288 10.9191 12.6394 11.0092 12.6375 11.1223C12.6356 11.2354 12.7219 11.3287 12.8304 11.3307Z" fill="#009200" stroke="black" stroke-width="0.0633557"/>
<path d="M14.7218 15.6708C15.0629 15.5525 15.0295 14.6085 14.6474 13.5623C14.2652 12.516 13.679 11.7638 13.338 11.882C12.997 12.0003 13.0303 12.9443 13.4124 13.9906C13.7946 15.0368 14.3808 15.7891 14.7218 15.6708Z" fill="#009200" stroke="black" stroke-width="0.0568228"/>
<path d="M14.7016 14.4999C14.7646 14.469 14.7479 14.2664 14.6642 14.0474C14.5806 13.8284 14.4617 13.6759 14.3987 13.7068C14.3356 13.7376 14.3524 13.9402 14.436 14.1593C14.5197 14.3783 14.6386 14.5308 14.7016 14.4999Z" fill="#009200" stroke="black" stroke-width="0.0580502"/>
<path fill-rule="evenodd" clip-rule="evenodd" d="M14.469 14.0803C14.9814 14.8013 14.9041 15.2491 14.8404 15.6272C14.6836 15.1845 14.6018 14.9066 14.0893 14.1855C13.5769 13.4644 13.8503 12.9758 13.8918 12.7145C13.9663 12.9436 13.9565 13.3592 14.469 14.0803V14.0803Z" fill="#009200" stroke="black" stroke-width="0.0585995"/>
<path fill-rule="evenodd" clip-rule="evenodd" d="M14.5054 14.652C15.0178 15.3731 14.9405 15.8209 14.8769 16.199C14.7201 15.7563 14.6382 15.4783 14.1258 14.7573C13.6134 14.0362 13.8867 13.5476 13.9282 13.2862C14.0027 13.5154 13.993 13.931 14.5054 14.652V14.652Z" fill="#009200" stroke="black" stroke-width="0.0585995"/>
<path fill-rule="evenodd" clip-rule="evenodd" d="M14.5458 15.1109C15.0744 15.8197 15.0069 16.2694 14.9515 16.6492C14.7848 16.2102 14.6968 15.9341 14.1682 15.2253C13.6396 14.5164 13.9025 14.0211 13.9383 13.7588C14.0178 13.9862 14.0172 14.402 14.5458 15.1109V15.1109Z" fill="#009200" stroke="black" stroke-width="0.0586384"/>
<path d="M14.4164 14.1695C14.54 14.1384 14.5207 13.7959 14.3732 13.4046C14.2258 13.0132 14.006 12.7211 13.8824 12.7523C13.7588 12.7834 13.7782 13.1259 13.9256 13.5172C14.0731 13.9086 14.2928 14.2007 14.4164 14.1695Z" fill="#009200" stroke="black" stroke-width="0.058584"/>
<path d="M14.195 14.3804C14.3069 14.3625 14.3055 14.0868 14.1917 13.7646C14.078 13.4425 13.895 13.1958 13.7831 13.2137C13.6712 13.2316 13.6726 13.5073 13.7864 13.8294C13.9001 14.1516 14.0831 14.3983 14.195 14.3804Z" fill="#009200" stroke="black" stroke-width="0.0570783"/>
<path d="M13.8344 14.6208C13.9463 14.6052 13.9517 14.3295 13.8463 14.0049C13.741 13.6804 13.5649 13.4299 13.453 13.4455C13.341 13.461 13.3357 13.7367 13.441 14.0613C13.5463 14.3858 13.7225 14.6363 13.8344 14.6208Z" fill="#009200" stroke="black" stroke-width="0.0569489"/>
<path d="M14.0636 13.4786C14.1529 13.463 14.145 13.257 14.046 13.0183C13.947 12.7797 13.7944 12.5988 13.7051 12.6144C13.6158 12.63 13.6237 12.836 13.7227 13.0747C13.8217 13.3133 13.9744 13.4942 14.0636 13.4786Z" fill="#009200" stroke="black" stroke-width="0.0582656"/>
<path d="M13.8849 13.7136C13.9762 13.7035 13.9819 13.496 13.8977 13.2502C13.8134 13.0044 13.6711 12.8134 13.5797 12.8235C13.4884 12.8336 13.4827 13.0411 13.5669 13.2869C13.6512 13.5327 13.7935 13.7237 13.8849 13.7136Z" fill="#009200" stroke="black" stroke-width="0.0588265"/>
<path fill-rule="evenodd" clip-rule="evenodd" d="M13.5559 13.0116C13.7021 13.4364 13.7563 13.8168 13.6764 13.8608C13.5964 13.9047 13.4132 13.5953 13.267 13.1704" fill="#009200"/>
<path d="M13.5559 13.0116C13.7021 13.4364 13.7563 13.8168 13.6764 13.8608C13.5964 13.9047 13.4132 13.5953 13.267 13.1704" stroke="black" stroke-width="0.0589021"/>
<path d="M13.8699 13.22C13.9612 13.2098 13.967 13.0024 13.8827 12.7566C13.7985 12.5108 13.6561 12.3197 13.5648 12.3298C13.4735 12.3399 13.4677 12.5474 13.552 12.7932C13.6362 13.039 13.7786 13.2301 13.8699 13.22Z" fill="#009200" stroke="black" stroke-width="0.0588265"/>
<path d="M13.6059 13.4003C13.6973 13.3925 13.7064 13.185 13.6264 12.9368C13.5463 12.6886 13.4074 12.4938 13.3161 12.5015C13.2247 12.5093 13.2156 12.7168 13.2956 12.965C13.3757 13.2132 13.5146 13.4081 13.6059 13.4003Z" fill="#009200" stroke="black" stroke-width="0.0588556"/>
<path fill-rule="evenodd" clip-rule="evenodd" d="M13.3152 12.4371C13.4614 12.7252 13.5381 12.9924 13.4861 13.0337C13.4341 13.075 13.2735 12.8745 13.1273 12.5864" fill="#009200"/>
<path d="M13.3152 12.4371C13.4614 12.7252 13.5381 12.9924 13.4861 13.0337C13.4341 13.075 13.2735 12.8745 13.1273 12.5864" stroke="black" stroke-width="0.0588173"/>
<path fill-rule="evenodd" clip-rule="evenodd" d="M13.4236 12.2516C13.5698 12.5396 13.6465 12.8068 13.5945 12.8481C13.5426 12.8894 13.3819 12.6889 13.2357 12.4009" fill="#009200"/>
<path d="M13.4236 12.2516C13.5698 12.5396 13.6465 12.8068 13.5945 12.8481C13.5426 12.8894 13.3819 12.6889 13.2357 12.4009" stroke="black" stroke-width="0.0588173"/>
<path fill-rule="evenodd" clip-rule="evenodd" d="M13.8962 12.3533C14.0996 12.7494 14.2058 13.1163 14.1329 13.1726C14.06 13.2289 13.8359 12.9527 13.6325 12.5566" fill="#009200"/>
<path d="M13.8962 12.3533C14.0996 12.7494 14.2058 13.1163 14.1329 13.1726C14.06 13.2289 13.8359 12.9527 13.6325 12.5566" stroke="black" stroke-width="0.0589039"/>
<path fill-rule="evenodd" clip-rule="evenodd" d="M13.5872 12.0789C13.7334 12.3958 13.8101 12.6899 13.7581 12.7356C13.7062 12.7813 13.5455 12.561 13.3993 12.2441" fill="#009200"/>
<path d="M13.5872 12.0789C13.7334 12.3958 13.8101 12.6899 13.7581 12.7356C13.7062 12.7813 13.5455 12.561 13.3993 12.2441" stroke="black" stroke-width="0.0580682"/>
<path fill-rule="evenodd" clip-rule="evenodd" d="M13.8019 10.9754C13.6997 11.0826 13.8052 11.269 13.9016 11.3331C14.0096 11.4228 14.6212 12.0111 15.0342 11.4729C14.6952 11.4822 14.0479 10.7366 13.8019 10.9754Z" fill="#804BFF" stroke="black" stroke-width="0.0573169"/>
<path fill-rule="evenodd" clip-rule="evenodd" d="M13.7292 10.6629C13.627 10.7701 13.7325 10.9565 13.8289 11.0206C13.9369 11.1103 14.5485 11.6986 14.9615 11.1604C14.6225 11.1697 13.9752 10.4241 13.7292 10.6629Z" fill="#804BFF" stroke="black" stroke-width="0.0573169"/>
<path fill-rule="evenodd" clip-rule="evenodd" d="M13.6357 10.3665C13.5335 10.4737 13.639 10.6601 13.7354 10.7242C13.8434 10.8139 14.455 11.4022 14.868 10.864C14.529 10.8733 13.8817 10.1277 13.6357 10.3665Z" fill="#804BFF" stroke="black" stroke-width="0.0573169"/>
<path fill-rule="evenodd" clip-rule="evenodd" d="M13.4332 10.0277C13.331 10.1348 13.4365 10.3212 13.5329 10.3853C13.6409 10.475 14.2525 11.0633 14.6655 10.5251C14.3264 10.5344 13.6791 9.78885 13.4332 10.0277Z" fill="#804BFF" stroke="black" stroke-width="0.0573169"/>
<path fill-rule="evenodd" clip-rule="evenodd" d="M12.5051 9.87714C12.702 9.72029 13.071 9.67401 13.3628 9.83062C13.6064 9.95605 14.0181 10.4637 14.3214 10.584C14.2423 10.6028 14.1593 10.6068 14.0774 10.5958C13.9955 10.5848 13.9164 10.559 13.8447 10.5199C13.5823 10.724 13.4884 10.7534 13.2161 10.7938C12.8396 10.8495 12.5227 10.7447 12.4086 10.5361C12.2898 10.3394 12.3307 10.0238 12.5051 9.87714V9.87714Z" fill="#804BFF" stroke="black" stroke-width="0.0596336"/>
<path d="M13.0808 10.22C13.1826 10.2218 13.2659 10.1771 13.2669 10.1201C13.2679 10.0631 13.1861 10.0154 13.0843 10.0136C12.9824 10.0118 12.8991 10.0564 12.8981 10.1134C12.8972 10.1704 12.979 10.2181 13.0808 10.22Z" fill="#FF0000" stroke="black" stroke-width="0.0550748"/>
<path d="M12.6322 10.6784C12.7667 10.6264 12.851 10.5196 12.8204 10.4399C12.7898 10.3603 12.6559 10.338 12.5214 10.3901C12.3868 10.4421 12.3026 10.5489 12.3332 10.6286C12.3637 10.7082 12.4976 10.7305 12.6322 10.6784Z" fill="#FFFF00" stroke="black" stroke-width="0.0607953"/>
<path d="M12.7892 10.5062C12.8224 10.5068 12.8499 10.4798 12.8504 10.4459C12.851 10.412 12.8245 10.384 12.7912 10.3834C12.7579 10.3828 12.7305 10.4098 12.7299 10.4437C12.7294 10.4776 12.7559 10.5056 12.7892 10.5062Z" fill="black"/>
<path fill-rule="evenodd" clip-rule="evenodd" d="M12.8715 10.2473C12.8931 10.324 12.8337 10.4288 12.6958 10.4669C12.5557 10.5203 12.4534 10.6396 12.4002 10.8343C12.1624 10.3929 12.2913 10.2042 12.5186 10.1575C12.7139 10.1 12.8334 10.1064 12.8715 10.2473Z" fill="#FFFF00" stroke="black" stroke-width="0.0721373"/>
<path d="M12.2879 10.7186C12.3149 10.719 12.3371 10.6972 12.3376 10.6697C12.338 10.6422 12.3165 10.6195 12.2896 10.619C12.2626 10.6186 12.2404 10.6404 12.2399 10.6679C12.2394 10.6954 12.2609 10.7181 12.2879 10.7186Z" fill="black"/>
</g>
</g>
<defs>
<clipPath id="clip0_1_15561">
<rect width="34" height="26" fill="white" transform="translate(-4)"/>
</clipPath>
</defs>
</svg>
