<svg width="26" height="26" viewBox="0 0 26 26" fill="none" xmlns="http://www.w3.org/2000/svg">
<mask id="mask0_1_12036" style="mask-type:alpha" maskUnits="userSpaceOnUse" x="0" y="0" width="26" height="26">
<circle cx="13" cy="13" r="13" fill="#634848"/>
</mask>
<g mask="url(#mask0_1_12036)">
<mask id="mask1_1_12036" style="mask-type:alpha" maskUnits="userSpaceOnUse" x="-5" y="0" width="36" height="26">
<rect x="-4.33333" width="34.6667" height="26" fill="white"/>
</mask>
<g mask="url(#mask1_1_12036)">
<path fill-rule="evenodd" clip-rule="evenodd" d="M-4.33073 0V26H30.3359V0H-4.33073Z" fill="#C51918"/>
<mask id="mask2_1_12036" style="mask-type:alpha" maskUnits="userSpaceOnUse" x="-5" y="0" width="36" height="26">
<path fill-rule="evenodd" clip-rule="evenodd" d="M-4.33073 0V26H30.3359V0H-4.33073Z" fill="white"/>
</mask>
<g mask="url(#mask2_1_12036)">
<rect x="-4.33073" width="15.1667" height="10.8333" fill="#4257BF"/>
<rect x="15.1693" y="15.1665" width="15.1667" height="10.8333" fill="#4257BF"/>
<path fill-rule="evenodd" clip-rule="evenodd" d="M9.75521 0H16.2552V9.75H30.3385V16.25H16.2552V26H9.75521V16.25H-4.32812V9.75H9.75521V0Z" fill="#F7FCFF"/>
<path fill-rule="evenodd" clip-rule="evenodd" d="M10.698 11.4043C10.657 11.2143 10.6106 10.9785 10.6106 10.9785C10.5077 11.229 10.4755 11.4568 10.5173 11.6604C10.4852 11.7075 10.4554 11.7524 10.4278 11.7951C10.4278 11.7951 10.4278 11.7952 10.4277 11.7952L10.4277 11.7953C10.4186 11.8094 10.4098 11.8232 10.4012 11.8368C10.291 11.6809 10.1543 11.3922 10.1543 11.3922C10.1591 11.4768 10.1569 11.5632 10.1548 11.6471V11.6471V11.6471V11.6471V11.6471V11.6471V11.6471V11.6471V11.6471V11.6471V11.6471V11.6471V11.6471V11.6471V11.6471V11.6471V11.6471V11.6471C10.1498 11.8432 10.1452 12.0257 10.2307 12.1405L10.2292 12.1438C10.2111 12.1835 10.1941 12.223 10.178 12.2625C10.0588 12.1362 9.85628 11.9021 9.85628 11.9021C9.87196 12.1799 9.94462 12.3983 10.0768 12.5532C10.054 12.6323 10.0351 12.711 10.02 12.7893C9.91955 12.6784 9.82243 12.5686 9.82243 12.5686C9.83663 12.8202 9.87617 12.9862 9.979 13.1257C9.97701 13.1646 9.97598 13.2033 9.97592 13.2418C9.87028 13.1255 9.76318 13.0045 9.76318 13.0045C9.77809 13.2686 9.87441 13.4426 10.0014 13.5874C10.0141 13.6716 10.0314 13.7548 10.0533 13.837L10.0655 13.8825C9.91831 13.8054 9.75662 13.7176 9.75662 13.7176C9.85477 13.9463 9.99335 14.0754 10.15 14.167C10.1845 14.2741 10.2209 14.3775 10.2591 14.4769C10.0858 14.4239 9.82103 14.3353 9.82103 14.3353C9.97866 14.5759 10.1664 14.6761 10.3669 14.7364C10.4075 14.8268 10.4497 14.9131 10.4934 14.995C10.3287 14.9431 10.1342 14.878 10.1342 14.878C10.2858 15.1095 10.4653 15.211 10.6572 15.2721C10.7839 15.464 10.9195 15.6215 11.061 15.7391C10.8969 15.8076 10.6833 15.8917 10.6833 15.8917C10.9177 15.9623 11.1034 15.941 11.272 15.8822L11.2845 15.8886C11.3532 15.9237 11.43 15.9569 11.5166 15.9892C11.3811 16.0444 11.2504 16.0958 11.2504 16.0958C11.4791 16.1648 11.6615 16.1462 11.827 16.0905L11.8345 16.0927C11.9119 16.1152 11.9907 16.1367 12.0945 16.1641C12.0258 16.146 12.2792 16.2127 12.3307 16.2266C12.4955 16.2714 12.5893 16.3028 12.6343 16.3298C12.6385 16.3324 12.6416 16.3344 12.6436 16.3358C12.6455 16.3371 12.6463 16.3376 12.6459 16.337L12.772 16.2393C12.7574 16.2179 12.737 16.2008 12.7108 16.1851C12.649 16.1479 12.5487 16.1143 12.3691 16.0656C12.3181 16.0517 12.0726 15.9871 12.1282 16.0018C12.0273 15.9752 11.9506 15.9542 11.8754 15.9323L11.8174 15.9152C11.8311 15.7417 11.8048 15.5607 11.683 15.3561C11.683 15.3561 11.6412 15.6737 11.6123 15.8484C11.5123 15.8128 11.4262 15.7768 11.3518 15.7388C11.3304 15.7278 11.309 15.7158 11.2877 15.7027C11.2727 15.5251 11.2165 15.3473 11.0571 15.1624C11.0571 15.1624 11.0657 15.3596 11.0703 15.5301C10.965 15.4272 10.8628 15.2987 10.7657 15.1474L10.8522 15.1953C10.8527 14.9775 10.8123 14.7615 10.617 14.535C10.617 14.535 10.626 14.7428 10.6306 14.9162C10.5745 14.8111 10.5206 14.698 10.4695 14.5776C10.5181 14.4033 10.5277 14.2147 10.4398 13.9828C10.4398 13.9828 10.3955 14.1231 10.3487 14.2655C10.3345 14.2251 10.3206 14.1841 10.3069 14.1424C10.4074 13.9613 10.4708 13.7601 10.4177 13.4806C10.4177 13.4806 10.306 13.6952 10.2197 13.8527L10.2031 13.7917C10.1846 13.7221 10.1697 13.6518 10.1583 13.5808C10.3049 13.4483 10.4239 13.2836 10.4675 13.0156C10.4675 13.0156 10.2695 13.1971 10.1329 13.3162C10.1309 13.2554 10.1314 13.1941 10.1347 13.1324C10.2924 13.0289 10.429 12.8888 10.5143 12.6443C10.5143 12.6443 10.3177 12.7695 10.1654 12.8623C10.1759 12.8018 10.1889 12.741 10.2045 12.6799C10.3897 12.5721 10.5528 12.4291 10.6497 12.1513C10.6497 12.1513 10.4576 12.2737 10.306 12.3661C10.3254 12.3164 10.3465 12.2665 10.3693 12.2164C10.3967 12.1564 10.4356 12.0846 10.486 12.0013C10.6521 11.9407 10.8079 11.8404 10.9441 11.6401C10.9441 11.6401 10.807 11.6834 10.6651 11.7263C10.7454 11.6097 10.8396 11.4791 10.9477 11.3348L10.8259 11.231C10.781 11.2911 10.7383 11.3488 10.698 11.4043Z" fill="#5AB92D"/>
<path fill-rule="evenodd" clip-rule="evenodd" d="M15.0802 11.4063C15.1213 11.216 15.168 10.9785 15.168 10.9785C15.2713 11.2299 15.3034 11.4584 15.2609 11.6626C15.2922 11.7087 15.3214 11.7527 15.3485 11.7945C15.3493 11.7947 15.3501 11.7949 15.3509 11.7952L15.3522 11.8003C15.3605 11.8131 15.3686 11.8258 15.3765 11.8383C15.4868 11.6828 15.6244 11.3922 15.6244 11.3922C15.6196 11.4768 15.6218 11.5632 15.6239 11.6471V11.6471V11.6471V11.6471V11.6471V11.6471V11.6471V11.6471V11.6471V11.6471V11.6471V11.6471V11.6471V11.6471V11.6471V11.6471V11.6471V11.6471C15.6288 11.8441 15.6335 12.0274 15.5468 12.1422L15.5475 12.1438C15.5658 12.184 15.583 12.224 15.5993 12.264C15.7183 12.138 15.9224 11.9021 15.9224 11.9021C15.9066 12.181 15.8335 12.3999 15.7004 12.5549C15.7232 12.6341 15.742 12.7128 15.757 12.791C15.8581 12.6796 15.9562 12.5686 15.9562 12.5686C15.9419 12.8217 15.902 12.9882 15.7978 13.1282C15.7998 13.1669 15.8007 13.2055 15.8008 13.2439C15.9071 13.127 16.0155 13.0045 16.0155 13.0045C16.0005 13.2702 15.903 13.4447 15.7749 13.5901C15.7623 13.6733 15.7451 13.7557 15.7234 13.837L15.7108 13.8837C15.8587 13.8063 16.022 13.7176 16.022 13.7176C15.9234 13.9474 15.7839 14.0767 15.6262 14.1684C15.5918 14.2752 15.5555 14.3784 15.5174 14.4775C15.6906 14.4247 15.9576 14.3353 15.9576 14.3353C15.7994 14.5768 15.6108 14.6769 15.4095 14.7371C15.3688 14.8275 15.3266 14.9138 15.283 14.9958C15.4481 14.9437 15.6445 14.878 15.6445 14.878C15.4922 15.1104 15.3118 15.2119 15.119 15.2728C14.9927 15.4641 14.8574 15.6212 14.7163 15.7385C14.8806 15.8071 15.0953 15.8917 15.0953 15.8917C14.8604 15.9624 14.6744 15.9409 14.5054 15.8818L14.4922 15.8886C14.4238 15.9236 14.3473 15.9566 14.2611 15.9888C14.3969 16.0441 14.5282 16.0958 14.5282 16.0958C14.2991 16.1649 14.1164 16.1461 13.9508 16.0902L13.9422 16.0927C13.8648 16.1152 13.786 16.1367 13.6822 16.1641C13.7509 16.146 13.4974 16.2127 13.446 16.2266C13.2812 16.2714 13.1874 16.3028 13.1424 16.3298C13.1382 16.3324 13.1351 16.3344 13.1331 16.3358C13.1312 16.3371 13.1304 16.3376 13.1308 16.337L13.0047 16.2393C13.0193 16.2179 13.0397 16.2008 13.0659 16.1851C13.1277 16.1479 13.228 16.1143 13.4076 16.0656C13.4586 16.0517 13.7041 15.9871 13.6485 16.0018C13.7494 15.9752 13.8261 15.9542 13.9013 15.9323C13.9217 15.9264 13.9416 15.9205 13.9612 15.9146C13.9476 15.7413 13.974 15.5605 14.0957 15.3561C14.0957 15.3561 14.1374 15.6729 14.1662 15.8477C14.2655 15.8124 14.351 15.7765 14.4249 15.7388C14.447 15.7275 14.4691 15.715 14.491 15.7014C14.5062 15.5243 14.5625 15.3468 14.7216 15.1624C14.7216 15.1624 14.713 15.3581 14.7084 15.5281C14.8126 15.426 14.9137 15.2987 15.01 15.1491L14.9265 15.1953C14.9259 14.9775 14.9664 14.7615 15.1617 14.535C15.1617 14.535 15.1527 14.7398 15.1482 14.9123C15.204 14.8075 15.2575 14.6947 15.3084 14.5748C15.2605 14.4013 15.2514 14.2134 15.3389 13.9828C15.3389 13.9828 15.3825 14.1212 15.429 14.2627C15.4431 14.2225 15.457 14.1816 15.4705 14.1402C15.3708 13.9597 15.308 13.759 15.361 13.4806C15.361 13.4806 15.4716 13.693 15.5577 13.8503L15.5735 13.7917C15.5922 13.7216 15.6072 13.6508 15.6187 13.5793C15.4728 13.447 15.3546 13.2826 15.3112 13.0156C15.3112 13.0156 15.5074 13.1954 15.6439 13.3145C15.6458 13.2538 15.6452 13.1927 15.642 13.1311C15.4851 13.0277 15.3493 12.8878 15.2644 12.6443C15.2644 12.6443 15.459 12.7683 15.6111 12.8609C15.6005 12.8005 15.5874 12.7397 15.5718 12.6786C15.3876 12.5709 15.2255 12.428 15.129 12.1513C15.129 12.1513 15.3189 12.2723 15.4701 12.3646C15.4509 12.3154 15.4299 12.266 15.4074 12.2164C15.3799 12.1562 15.3409 12.0841 15.2902 12.0004C15.125 11.9397 14.97 11.8393 14.8345 11.6401C14.8345 11.6401 14.9701 11.6829 15.1111 11.7255C15.0309 11.6091 14.9369 11.4788 14.829 11.3348L14.9508 11.231C14.9963 11.2918 15.0394 11.3503 15.0802 11.4063Z" fill="#5AB92D"/>
<path d="M10.0321 10.0932C10.4651 9.78872 11.2589 9.5259 11.6672 9.5259C11.6693 9.5259 11.6736 9.52492 11.6851 9.52017C11.719 9.50614 11.9427 9.36759 11.9567 9.35958C12.2454 9.19436 12.5473 9.10742 12.9587 9.10742V9.82964C12.6634 9.82964 12.4704 9.88521 12.2769 9.99597C12.3105 9.97669 12.0219 10.1555 11.9299 10.1935C11.8443 10.2289 11.7583 10.2481 11.6672 10.2481C11.3937 10.2481 10.7289 10.4682 10.4047 10.6962C10.2882 10.7781 10.299 10.7531 10.3026 10.8019C10.3156 10.9795 10.3022 11.0881 10.193 11.2267C10.1787 11.2448 10.1562 11.3441 10.1543 11.5183L9.47721 11.5098C9.48036 11.2254 9.52351 11.001 9.62593 10.8324C9.61105 10.5408 9.71354 10.3171 10.0321 10.0932Z" fill="#003994"/>
<path d="M10.3983 10.363L10.3236 10.2426C10.6711 9.99727 10.9952 9.87351 11.2959 9.87351C11.3956 9.87351 11.5092 9.84701 11.6413 9.79599C11.7298 9.76179 11.8205 9.71954 11.9422 9.65765C12.3833 9.43344 12.3959 9.42773 12.5124 9.42773H12.9116V9.57218H12.5124C12.4281 9.57218 12.4008 9.58455 12.0005 9.78804C11.8751 9.85178 11.7809 9.89569 11.6874 9.9318C11.5418 9.98806 11.4136 10.018 11.2959 10.018C11.0245 10.018 10.7253 10.1322 10.3983 10.363Z" fill="#EBCA5E"/>
<path d="M15.7179 10.0932C15.2849 9.78872 14.4912 9.5259 14.0828 9.5259C14.0808 9.5259 14.0764 9.52492 14.0649 9.52017C14.031 9.50614 13.8073 9.36759 13.7933 9.35958C13.5046 9.19436 13.2027 9.10742 12.7913 9.10742V9.82964C13.0866 9.82964 13.2796 9.88521 13.4731 9.99597C13.4395 9.97669 13.7281 10.1555 13.8201 10.1935C13.9057 10.2289 13.9917 10.2481 14.0828 10.2481C14.3564 10.2481 15.0211 10.4682 15.3453 10.6962C15.4618 10.7781 15.451 10.7531 15.4474 10.8019C15.4344 10.9795 15.4478 11.0881 15.557 11.2267C15.5713 11.2448 15.5938 11.3441 15.5958 11.5183L16.2728 11.5098C16.2696 11.2254 16.2265 11.001 16.1241 10.8324C16.139 10.5408 16.0365 10.3171 15.7179 10.0932Z" fill="#003994"/>
<path d="M15.3009 10.363L15.3757 10.2426C15.0281 9.99727 14.704 9.87351 14.4033 9.87351C14.3036 9.87351 14.19 9.84701 14.0579 9.79599C13.9694 9.76179 13.8788 9.71954 13.757 9.65765C13.316 9.43344 13.3034 9.42773 13.1868 9.42773H12.7876V9.57218H13.1868C13.2712 9.57218 13.2985 9.58455 13.6987 9.78804C13.8241 9.85178 13.9183 9.89569 14.0118 9.9318C14.1575 9.98806 14.2857 10.018 14.4033 10.018C14.6747 10.018 14.9739 10.1322 15.3009 10.363Z" fill="#EBCA5E"/>
<path d="M10.6477 10.855L11.0011 11.2391V12.8346H11.3577V12.9362L11.8798 13.1872C11.8798 13.1872 11.9587 12.1317 11.7132 11.8536C11.4676 11.5755 11.8798 11.5071 11.8798 11.5071L12.5065 12.1346V10.855H10.6477Z" fill="#003994"/>
<path d="M14.89 10.855L14.5367 11.2391V12.8346H14.18V12.9362L13.658 13.1872C13.658 13.1872 13.5791 12.1317 13.8246 11.8536C14.0701 11.5755 13.658 11.5071 13.658 11.5071L13.0312 12.1346V10.855H14.89Z" fill="#D62818"/>
<path d="M11.7935 11.4805L11.7403 11.546L12.7822 12.5091L12.8382 12.5062L13.6999 11.5431L13.6411 11.4833L12.8062 12.4165L11.7935 11.4805Z" fill="#FFC300"/>
<path d="M11.6474 11.8857L11.5795 11.9512L12.9094 12.9143L12.9809 12.9115L14.0807 11.9484L14.0057 11.8886L12.94 12.8218L11.6474 11.8857Z" fill="#FFC300"/>
<path d="M11.0326 13.4575H11.4899L11.802 13.5528C11.802 13.5528 11.9023 14.2689 12.4037 14.2689L12.4859 15.1857L12.0973 14.9759C12.0973 14.9759 11.8447 15.0874 11.802 15.0874C11.7592 15.0874 11.3991 15.2894 11.3991 15.0874C11.3991 14.8854 11.0326 14.5586 11.0326 14.5586V13.4575Z" fill="#D62818"/>
<path d="M14.655 13.4575H14.1976L13.8855 13.5528C13.8855 13.5528 13.7852 14.2689 13.2838 14.2689L13.2016 15.1857L13.5902 14.9759C13.5902 14.9759 13.8428 15.0874 13.8855 15.0874C13.9283 15.0874 14.2884 15.2894 14.2884 15.0874C14.2884 14.8854 14.655 14.5586 14.655 14.5586V13.4575Z" fill="#003994"/>
<path d="M13.6752 13.5439L14.2169 13.5442C14.2168 13.9493 14.0738 14.2777 13.7921 14.4999L13.4701 14.0353C13.6081 13.9264 13.6752 13.7724 13.6752 13.5439Z" fill="#D62818"/>
<path d="M12.2513 12.4302V13.1899H12.8811C12.8811 13.1899 12.8219 13.7596 12.8219 14.119C12.8219 14.4784 12.8811 14.9447 12.8811 14.9447C12.8811 14.9447 13.0352 14.8678 13.0352 14.3818C13.0352 13.8957 13.0352 13.1372 13.0352 13.1372L13.5328 13.1899L13.4802 12.5048H13.2704C13.2704 12.5048 13.593 12.9317 13.2704 12.9317C12.9477 12.9317 12.5769 13.0151 12.5066 13.0151C12.4362 13.0151 12.2513 12.4302 12.2513 12.4302Z" fill="#D62818"/>
<path d="M12.7998 13.3486C12.7998 13.3486 12.446 13.557 12.446 13.896C12.446 14.235 12.6229 14.6216 12.6229 14.6216C12.6229 14.6216 12.5389 13.8581 12.6694 13.655C12.7998 13.452 12.7998 13.3486 12.7998 13.3486Z" fill="#003994"/>
<path d="M12.2283 13.5991C12.2283 13.5991 12.2084 13.8444 12.3537 13.8444C12.4991 13.8444 12.2283 13.5991 12.2283 13.5991Z" fill="#003994"/>
<path d="M13.4728 12.9403L13.5285 13.1336L12.6027 13.4368L12.3952 12.5747L12.5788 12.5244L12.7369 13.1813L13.4728 12.9403Z" fill="#373737"/>
<path fill-rule="evenodd" clip-rule="evenodd" d="M10.8823 16.6936L10.7995 16.7639C10.7716 16.7264 10.7477 16.6887 10.728 16.6511C10.6496 16.6232 10.5756 16.5868 10.5144 16.5437C10.4264 16.4819 10.3357 16.4819 10.2209 16.5495L10.0898 16.2967C10.2895 16.179 10.4878 16.179 10.6634 16.3025C10.6637 16.3027 10.6639 16.3028 10.6641 16.303C10.6896 16.162 10.7828 16.0366 10.9422 15.9459C11.2184 15.7886 12.4264 15.623 12.7935 15.623V16.0853C12.4956 16.0853 11.3392 16.2438 11.1463 16.3536C11.1406 16.3569 11.1354 16.3598 11.1306 16.3625C11.1051 16.3767 11.0914 16.3843 11.0889 16.3947C11.0868 16.4034 11.0926 16.4142 11.106 16.4326C11.12 16.432 11.1294 16.43 11.1328 16.4264L11.3249 16.63C11.2446 16.7163 11.0653 16.7301 10.8823 16.6936ZM9.5905 16.7034C9.5905 16.7034 9.99093 17.0553 10.28 16.97C10.5691 16.8847 10.6587 16.7887 10.6587 16.7887C10.6587 16.7887 10.3701 16.7502 10.0637 16.7034C9.7573 16.6567 9.5905 16.7034 9.5905 16.7034Z" fill="#D62818"/>
<path fill-rule="evenodd" clip-rule="evenodd" d="M10.9187 16.4458L10.9675 16.3764C10.8245 16.2621 10.8617 16.1981 11.1356 16.1366C11.6722 16.0162 12.3462 15.9304 12.8855 15.9304V15.8438C12.8846 15.8438 12.8837 15.8437 12.8828 15.8438C12.3634 15.8438 11.7249 15.9217 11.1895 16.0358L11.1896 16.0363C11.1658 16.0414 11.1422 16.0466 11.1189 16.0518C10.7886 16.1259 10.703 16.2732 10.9187 16.4458ZM11.1896 16.0363L11.2054 16.1208C11.7359 16.0077 12.3692 15.9304 12.8828 15.9304V15.8438C12.3613 15.844 11.7179 15.9232 11.1896 16.0363Z" fill="#EBCA5E"/>
<path fill-rule="evenodd" clip-rule="evenodd" d="M14.6054 16.6936L14.6881 16.7639C14.7161 16.7264 14.7399 16.6887 14.7596 16.6511C14.8381 16.6232 14.912 16.5868 14.9733 16.5437C15.0612 16.4819 15.152 16.4819 15.2668 16.5495L15.3978 16.2967C15.1981 16.179 14.9998 16.179 14.8242 16.3025C14.824 16.3027 14.8238 16.3028 14.8235 16.303C14.798 16.162 14.7048 16.0366 14.5454 15.9459C14.2693 15.7886 13.0612 15.623 12.6941 15.623V16.0853C12.992 16.0853 14.1484 16.2438 14.3413 16.3536C14.347 16.3569 14.3523 16.3598 14.3571 16.3625C14.3826 16.3767 14.3962 16.3843 14.3987 16.3947C14.4009 16.4034 14.395 16.4142 14.3817 16.4326C14.3676 16.432 14.3582 16.43 14.3548 16.4264L14.1627 16.63C14.2431 16.7163 14.4223 16.7301 14.6054 16.6936ZM15.8971 16.7034C15.8971 16.7034 15.4967 17.0553 15.2076 16.97C14.9186 16.8847 14.829 16.7887 14.829 16.7887C14.829 16.7887 15.1176 16.7502 15.424 16.7034C15.7303 16.6567 15.8971 16.7034 15.8971 16.7034Z" fill="#D62818"/>
<path fill-rule="evenodd" clip-rule="evenodd" d="M14.5689 16.4458L14.5202 16.3764C14.6632 16.2621 14.626 16.1981 14.352 16.1366C13.8154 16.0162 13.1414 15.9304 12.6021 15.9304V15.8438C12.603 15.8438 12.6039 15.8437 12.6048 15.8438C13.1242 15.8438 13.7627 15.9217 14.2982 16.0358L14.2981 16.0363C14.3219 16.0414 14.3454 16.0466 14.3687 16.0518C14.6991 16.1259 14.7847 16.2732 14.5689 16.4458ZM14.2981 16.0363L14.2823 16.1208C13.7517 16.0077 13.1184 15.9304 12.6048 15.9304V15.8438C13.1263 15.844 13.7697 15.9232 14.2981 16.0363Z" fill="#EBCA5E"/>
<path d="M12.318 16.8042L12.1074 16.4336C12.2992 16.3096 12.5453 16.2505 12.8442 16.2505C13.1445 16.2505 13.3879 16.3101 13.5729 16.4364L13.3539 16.8014C13.2425 16.7253 13.0731 16.6838 12.8442 16.6838C12.614 16.6838 12.4392 16.7258 12.318 16.8042Z" fill="#D62818"/>
</g>
</g>
</g>
</svg>
