<svg width="26" height="26" viewBox="0 0 26 26" fill="none" xmlns="http://www.w3.org/2000/svg">
<mask id="mask0_1_9435" style="mask-type:alpha" maskUnits="userSpaceOnUse" x="0" y="0" width="26" height="26">
<circle cx="13" cy="13" r="13" fill="#634848"/>
</mask>
<g mask="url(#mask0_1_9435)">
<path fill-rule="evenodd" clip-rule="evenodd" d="M13 -0.5H31V26.5H13V-0.5Z" fill="#F7FCFF"/>
<path fill-rule="evenodd" clip-rule="evenodd" d="M-5 -0.5H13V26.5H-5V-0.5Z" fill="#36A400"/>
<path fill-rule="evenodd" clip-rule="evenodd" d="M15.0233 7.14417C16.7342 7.14417 18.2976 7.77528 19.4935 8.81739C17.9783 6.90583 15.636 5.67969 13.0073 5.67969C8.43885 5.67969 4.73535 9.38318 4.73535 13.9517C4.73535 18.5202 8.43885 22.2237 13.0073 22.2237C15.6361 22.2237 17.9784 20.9975 19.4936 19.0859C18.2977 20.128 16.7342 20.7591 15.0233 20.7591C11.2636 20.7591 8.21582 17.7113 8.21582 13.9517C8.21582 10.192 11.2636 7.14417 15.0233 7.14417ZM18.1875 10.2367L16.2723 12.4073L13.5215 11.6493L15.0465 14.0347L13.5215 16.574L16.407 15.5352L17.9845 17.9975V15.1397L20.5622 14.0347L17.9845 13.1113L18.1875 10.2367Z" fill="#FF0000"/>
</g>
</svg>
