<svg width="26" height="26" viewBox="0 0 26 26" fill="none" xmlns="http://www.w3.org/2000/svg">
<mask id="mask0_1_11974" style="mask-type:alpha" maskUnits="userSpaceOnUse" x="0" y="0" width="26" height="26">
<circle cx="13" cy="13" r="13" fill="#634848"/>
</mask>
<g mask="url(#mask0_1_11974)">
<mask id="mask1_1_11974" style="mask-type:alpha" maskUnits="userSpaceOnUse" x="-5" y="0" width="36" height="26">
<rect x="-4.33333" width="34.6667" height="26" fill="white"/>
</mask>
<g mask="url(#mask1_1_11974)">
<path fill-rule="evenodd" clip-rule="evenodd" d="M-4.33073 0V26H30.3359V0H-4.33073Z" fill="#2E42A5"/>
<mask id="mask2_1_11974" style="mask-type:alpha" maskUnits="userSpaceOnUse" x="-5" y="0" width="36" height="26">
<path fill-rule="evenodd" clip-rule="evenodd" d="M-4.33073 0V26H30.3359V0H-4.33073Z" fill="white"/>
</mask>
<g mask="url(#mask2_1_11974)">
<path fill-rule="evenodd" clip-rule="evenodd" d="M-4.33073 0V13H30.3359V0H-4.33073Z" fill="#FECA00"/>
<path fill-rule="evenodd" clip-rule="evenodd" d="M-4.33073 19.5V26H30.3359V19.5H-4.33073Z" fill="#E31D1C"/>
<path fill-rule="evenodd" clip-rule="evenodd" d="M6.1862 6.19035C6.1862 6.19035 10.6888 4.15626 11.0981 4.38734C11.5073 4.61842 11.606 5.27706 11.9594 5.27706C12.3127 5.27706 13.0239 5.06894 13.3209 5.06894C13.6179 5.06894 13.9114 5.27706 13.9114 5.27706H15.1797V4.57182L20.9302 6.19035C20.9302 6.19035 17.5762 6.62853 17.3234 6.62853C17.0706 6.62853 17.3234 6.98995 17.3234 6.98995C17.3234 6.98995 16.8451 6.62853 16.1168 6.62853C15.3884 6.62853 13.9114 7.38098 13.9114 7.38098L14.4483 8.53598L13.9114 8.87561L13.3209 8.53598C13.3209 8.53598 13.3592 7.58616 13.1048 7.58616C12.8505 7.58616 12.6651 8.19635 12.6651 8.53598C12.6651 8.87561 11.9594 8.87561 11.9594 8.87561L12.2746 8.23979C12.2746 8.23979 12.5879 7.18567 11.9594 7.18567C11.3308 7.18567 8.46581 6.62853 8.46581 6.62853L7.73319 6.98995L7.99511 6.19035H6.1862Z" fill="#7B2900"/>
<path fill-rule="evenodd" clip-rule="evenodd" d="M8.11831 17.0896C7.41555 15.5102 8.11831 12.0112 8.11831 12.0112L9.48405 12.7274C9.32202 13.544 9.29665 15.0871 9.8077 16.3491C10.3187 17.6112 12.2506 18.6051 12.2506 18.6051C12.2506 18.6051 13.2253 18.8224 11.7445 18.979C10.2637 19.1356 8.82108 18.6689 8.11831 17.0896ZM11.6263 23.3108C11.1863 23.3108 12.5062 20.3761 12.5062 20.3761L12.9135 19.5607C12.9135 19.5607 12.9634 23.0153 12.6845 23.3108C12.5057 23.5002 12.302 23.4468 12.0629 23.384C11.9291 23.3488 11.7842 23.3108 11.6263 23.3108Z" fill="#E31D1C"/>
<path fill-rule="evenodd" clip-rule="evenodd" d="M6.84262 16.5736C6.25385 14.2152 7.17236 11.0127 7.17236 11.0127L8.09677 11.6732C7.96102 12.8926 7.96102 16.046 8.74293 17.4124C9.52485 18.7787 12.9541 19.3527 12.9541 19.3527C12.9541 19.3527 12.2775 19.8529 11.0369 20.0867C9.7963 20.3205 7.43139 18.932 6.84262 16.5736ZM10.7767 22.9855L11.3206 21.0437L12.0872 20.1057H12.6384C12.6384 20.1057 11.8624 23.4431 11.3206 23.4431C10.9686 23.4431 11.0739 23.25 11.191 23.0354C11.2541 22.9197 11.3206 22.7978 11.3206 22.6965C11.3206 22.4076 10.7767 22.9855 10.7767 22.9855Z" fill="#2E42A5"/>
<path fill-rule="evenodd" clip-rule="evenodd" d="M5.95091 16.978C5.65874 14.948 6.24307 10.0977 6.24307 10.0977L7.16748 10.7581C6.74967 11.933 6.87904 15.3042 7.16748 16.978C7.45592 18.6518 10.1852 19.6608 10.1852 19.6608C10.1852 19.6608 9.50866 20.1609 8.26807 20.3948C7.02747 20.6286 6.24307 19.008 5.95091 16.978ZM10.4876 21.035C9.96122 21.035 10.717 20.2804 10.717 20.2804H11.9771C11.9771 20.2804 11.546 21.3463 11.0139 21.3463C10.7471 21.3463 10.7478 21.268 10.7486 21.19C10.7493 21.1124 10.75 21.035 10.4876 21.035Z" fill="#FECA00"/>
<path fill-rule="evenodd" clip-rule="evenodd" d="M17.7202 17.0896C18.423 15.5103 17.7202 12.0113 17.7202 12.0113L16.3545 12.7274C16.5165 13.5441 16.5419 15.0872 16.0309 16.3492C15.5198 17.6113 13.5879 18.6052 13.5879 18.6052C13.5879 18.6052 12.6133 18.8225 14.0941 18.9791C15.5749 19.1357 17.0175 18.669 17.7202 17.0896ZM14.2123 23.3109C14.6523 23.3109 13.3323 20.3762 13.3323 20.3762L12.925 19.5608C12.925 19.5608 12.8752 23.0154 13.1541 23.3109C13.3329 23.5003 13.5365 23.4468 13.7756 23.3841C13.9095 23.3489 14.0544 23.3109 14.2123 23.3109Z" fill="#E31D1C"/>
<path fill-rule="evenodd" clip-rule="evenodd" d="M18.9959 16.5736C19.5847 14.2152 18.6662 11.0127 18.6662 11.0127L17.7418 11.6732C17.8775 12.8926 17.8775 16.046 17.0956 17.4124C16.3137 18.7787 12.8845 19.3527 12.8845 19.3527C12.8845 19.3527 13.5611 19.8529 14.8017 20.0867C16.0423 20.3205 18.4072 18.932 18.9959 16.5736ZM15.0619 22.9855L14.518 21.0437L13.7514 20.1057H13.2002C13.2002 20.1057 13.9762 23.4431 14.518 23.4431C14.87 23.4431 14.7646 23.25 14.6476 23.0354C14.5845 22.9197 14.518 22.7978 14.518 22.6965C14.518 22.4076 15.0619 22.9855 15.0619 22.9855Z" fill="#2E42A5"/>
<path fill-rule="evenodd" clip-rule="evenodd" d="M19.8876 16.978C20.1798 14.948 19.5955 10.0977 19.5955 10.0977L18.6711 10.7581C19.0889 11.933 18.9595 15.3042 18.6711 16.978C18.3826 18.6518 15.6533 19.6608 15.6533 19.6608C15.6533 19.6608 16.3299 20.1609 17.5705 20.3948C18.8111 20.6286 19.5955 19.008 19.8876 16.978ZM15.351 21.035C15.8773 21.035 15.1215 20.2804 15.1215 20.2804H13.8615C13.8615 20.2804 14.2925 21.3463 14.8247 21.3463C15.0915 21.3463 15.0907 21.268 15.09 21.19C15.0893 21.1124 15.0885 21.035 15.351 21.035Z" fill="#FECA00"/>
<path d="M6.72071 11.3155L6.8199 10.7171L8.55423 10.8294L7.23871 9.46666L7.68195 9.04505L9.46114 10.8881L7.94005 8.02812L8.46589 7.71538L9.85076 9.75245L9.19019 7.63508L9.75818 7.40918L11.8876 11.6559L11.0707 11.603L11.1508 11.8595L11.8462 12.0439L11.6878 12.6327L11.3653 12.5472L11.6665 13.5127L11.1433 12.743L12.0544 14.4552L9.8158 12.1363L6.72071 11.3155Z" fill="#6FAE21"/>
<path d="M19.4245 11.3155L19.3253 10.7171L17.591 10.8294L18.9065 9.46666L18.4632 9.04505L16.684 10.8881L18.2051 8.02812L17.6793 7.71538L16.2944 9.75245L16.955 7.63508L16.387 7.40918L14.2576 11.6559L15.0745 11.603L14.9944 11.8595L14.299 12.0439L14.4574 12.6327L14.7799 12.5472L14.4787 13.5127L15.0019 12.743L14.0908 14.4552L16.3294 12.1363L19.4245 11.3155Z" fill="#6FAE21"/>
<path d="M7.65045 23.0875L7.20378 22.6695L20.41 8.76514L20.8567 9.18316L7.65045 23.0875Z" fill="#171401"/>
<path fill-rule="evenodd" clip-rule="evenodd" d="M20.0768 8.87215L20.7539 9.51071L21.1356 8.45508L20.0768 8.87215Z" fill="#CECECC"/>
<path fill-rule="evenodd" clip-rule="evenodd" d="M7.98938 23.0847L7.21167 22.5734L6.95971 23.6215L7.98938 23.0847Z" fill="#CECECC"/>
<path d="M6.66347 21.0143L6.2168 20.5962L19.423 6.69189L19.8697 7.10992L6.66347 21.0143Z" fill="#171401"/>
<path fill-rule="evenodd" clip-rule="evenodd" d="M19.0898 6.79891L19.767 7.43746L20.1486 6.38184L19.0898 6.79891Z" fill="#CECECC"/>
<path fill-rule="evenodd" clip-rule="evenodd" d="M7.0024 21.0114L6.22469 20.5001L5.97273 21.5482L7.0024 21.0114Z" fill="#CECECC"/>
<path d="M18.6894 23.0875L19.1361 22.6695L5.92984 8.76514L5.48317 9.18316L18.6894 23.0875Z" fill="#171401"/>
<path fill-rule="evenodd" clip-rule="evenodd" d="M6.26303 8.87215L5.58591 9.51071L5.20428 8.45508L6.26303 8.87215Z" fill="#CECECC"/>
<path fill-rule="evenodd" clip-rule="evenodd" d="M18.3505 23.0847L19.1282 22.5734L19.3801 23.6215L18.3505 23.0847Z" fill="#CECECC"/>
<path d="M19.9173 21.5025L20.3639 21.0845L7.1577 7.18018L6.71103 7.5982L19.9173 21.5025Z" fill="#171401"/>
<path fill-rule="evenodd" clip-rule="evenodd" d="M7.49089 7.28719L6.81378 7.92574L6.43214 6.87012L7.49089 7.28719Z" fill="#CECECC"/>
<path fill-rule="evenodd" clip-rule="evenodd" d="M19.5783 21.4997L20.356 20.9884L20.608 22.0365L19.5783 21.4997Z" fill="#CECECC"/>
<rect x="10.4688" y="17.7393" width="4.91111" height="2.4375" fill="#B74E01"/>
<path d="M12.9386 18.7065C13.9026 18.7065 14.7384 18.0865 15.3206 17.1619C15.9048 16.2339 16.258 14.9674 16.258 13.5815C16.258 12.1956 15.9048 10.9291 15.3206 10.0012C14.7384 9.07654 13.9026 8.45654 12.9386 8.45654C11.9746 8.45654 11.1388 9.07654 10.5566 10.0012C9.97234 10.9291 9.61914 12.1956 9.61914 13.5815C9.61914 14.9674 9.97234 16.2339 10.5566 17.1619C11.1388 18.0865 11.9746 18.7065 12.9386 18.7065Z" fill="#7DB8FF" stroke="#FECA00" stroke-width="0.5"/>
<mask id="mask3_1_11974" style="mask-type:alpha" maskUnits="userSpaceOnUse" x="9" y="8" width="8" height="11">
<path d="M12.9386 18.7065C13.9026 18.7065 14.7384 18.0865 15.3206 17.1619C15.9048 16.2339 16.258 14.9674 16.258 13.5815C16.258 12.1956 15.9048 10.9291 15.3206 10.0012C14.7384 9.07654 13.9026 8.45654 12.9386 8.45654C11.9746 8.45654 11.1388 9.07654 10.5566 10.0012C9.97234 10.9291 9.61914 12.1956 9.61914 13.5815C9.61914 14.9674 9.97234 16.2339 10.5566 17.1619C11.1388 18.0865 11.9746 18.7065 12.9386 18.7065Z" fill="white" stroke="white" stroke-width="0.5"/>
</mask>
<g mask="url(#mask3_1_11974)">
<path fill-rule="evenodd" clip-rule="evenodd" d="M9.6112 13.6607H11.3578C11.3578 13.6607 12.5585 13.9267 11.9582 14.136C11.3578 14.3453 11.3578 14.4145 11.3578 14.713C11.3578 15.0115 11.3578 16.1039 11.3578 16.3372C11.3578 16.5704 11.7849 17.0699 10.8847 17.0699C9.98455 17.0699 9.20899 13.3691 9.20899 13.3691L9.6112 13.6607Z" fill="#6FAE21"/>
<path fill-rule="evenodd" clip-rule="evenodd" d="M16.4368 13.8618C16.4368 13.8618 14.8143 14.1823 13.7028 14.0755C12.5913 13.9687 12.1035 13.8618 12.1035 13.8618C12.1035 13.8618 12.8783 14.2648 13.1536 14.6025C13.4289 14.9402 13.9926 15.5241 14.5673 15.5241C15.142 15.5241 16.0229 16.0691 16.0229 16.0691L16.4368 13.8618Z" fill="#6FAE21"/>
<path fill-rule="evenodd" clip-rule="evenodd" d="M10.0933 10.98C10.0933 10.98 11.4308 11.2385 11.7529 11.6255C12.075 12.0126 11.3274 12.3996 13.2763 12.0126C15.2252 11.6255 16.7722 10.9504 16.7722 12.0126C16.7722 13.0748 16.6019 14.0533 15.7633 14.0533C14.9246 14.0533 14.5901 14.0533 12.0324 14.0533C9.4747 14.0533 8.08043 14.8356 8.25951 13.5768C8.43859 12.3181 10.0933 10.98 10.0933 10.98Z" fill="#F7FCFF"/>
</g>
</g>
</g>
</g>
</svg>
