<svg width="26" height="26" viewBox="0 0 26 26" fill="none" xmlns="http://www.w3.org/2000/svg">
<mask id="mask0_1_11941" style="mask-type:alpha" maskUnits="userSpaceOnUse" x="0" y="0" width="26" height="26">
<circle cx="13" cy="13" r="13" fill="#634848"/>
</mask>
<g mask="url(#mask0_1_11941)">
<mask id="mask1_1_11941" style="mask-type:alpha" maskUnits="userSpaceOnUse" x="-5" y="-1" width="36" height="28">
<rect x="-5" y="-0.5" width="36" height="27" fill="white"/>
</mask>
<g mask="url(#mask1_1_11941)">
<path fill-rule="evenodd" clip-rule="evenodd" d="M-5 -0.5V26.5H31V-0.5H-5Z" fill="#F7FCFF"/>
<mask id="mask2_1_11941" style="mask-type:alpha" maskUnits="userSpaceOnUse" x="-5" y="-1" width="36" height="28">
<path fill-rule="evenodd" clip-rule="evenodd" d="M-5 -0.5V26.5H31V-0.5H-5Z" fill="white"/>
</mask>
<g mask="url(#mask2_1_11941)">
<path fill-rule="evenodd" clip-rule="evenodd" d="M-5 -0.5V8.5H31V-0.5H-5Z" fill="#BF2714"/>
<path fill-rule="evenodd" clip-rule="evenodd" d="M-5 17.5V26.5H31V17.5H-5Z" fill="#272727"/>
<path d="M8.79284 10.9985L9.91666 11.0501L9.63456 17.2036L8.51074 17.1521L8.79284 10.9985Z" fill="#C09302"/>
<path d="M9.97057 11.3809L11.0938 11.4444L10.8117 16.4341L9.68848 16.3706L9.97057 11.3809Z" fill="#C09302"/>
<path d="M11.1395 11.7544L12.2608 11.8464L11.9787 15.2844L10.8574 15.1924L11.1395 11.7544Z" fill="#C09302"/>
<path d="M17.2091 10.9985L16.0853 11.0501L16.3674 17.2036L17.4912 17.1521L17.2091 10.9985Z" fill="#C09302"/>
<path d="M16.0314 11.3809L14.9082 11.4444L15.1903 16.4341L16.3135 16.3706L16.0314 11.3809Z" fill="#C09302"/>
<path d="M14.8624 11.7544L13.7412 11.8464L14.0233 15.2844L15.1445 15.1924L14.8624 11.7544Z" fill="#C09302"/>
<path d="M12.9726 16.7424L11.876 16.4911L12.3401 14.4653L13.4367 14.7166L12.9726 16.7424Z" fill="#C09302"/>
<path d="M13.8116 16.7424L14.9082 16.4911L14.4441 14.4653L13.3475 14.7166L13.8116 16.7424Z" fill="#C09302"/>
<path d="M13.5371 16.7233H12.4121V14.7344H13.5371V16.7233Z" fill="#C09302"/>
<path d="M11.469 11.7783L12.5937 11.8059L12.528 14.4844L11.4033 14.4568L11.469 11.7783Z" fill="#C09302"/>
<path d="M13.429 11.7783L14.5536 11.8059L14.4879 14.4844L13.3633 14.4568L13.429 11.7783Z" fill="#C09302"/>
<path d="M10.0068 17.4135L10.299 16.3271C11.4927 16.6482 12.4092 16.8069 13.0342 16.8069C13.6592 16.8069 14.5758 16.6482 15.7694 16.3271L16.0616 17.4135C14.7809 17.758 13.7766 17.9319 13.0342 17.9319C12.2918 17.9319 11.2875 17.758 10.0068 17.4135Z" fill="#C09302"/>
<path d="M8.81695 11.0009C8.74195 10.2577 9.17693 9.75466 9.91409 9.81882C10.1565 9.83992 10.4287 9.91163 10.7913 10.0346C10.8973 10.071 10.8973 10.071 11.0002 10.1074C11.4987 10.2847 11.6341 10.3303 11.6622 10.3363C11.5517 10.3113 11.877 9.72318 11.9516 9.62406C11.9605 9.687 11.923 9.67805 11.8331 9.66005L10.8183 9.45695L11.5407 8.71586C11.7932 8.45681 12.1294 8.32836 12.5132 8.32836C12.5529 8.32836 12.5901 8.32651 12.712 8.31901C12.8021 8.31353 12.8021 8.31353 12.9035 8.30933C13.6054 8.28659 14.1088 8.48508 14.1088 9.20694C14.1088 9.4652 14.1415 9.88049 14.1953 10.1955C14.2134 10.3015 14.2484 10.4007 14.1452 10.4443C14.1495 10.4067 14.3953 10.3097 14.7777 10.1498L14.8236 10.1306C15.9344 9.66694 16.0642 9.62393 16.4223 9.84155C16.6609 9.98657 16.8881 10.2474 17.1427 10.6364L16.2015 11.2525C16.0373 11.0017 15.9065 10.8494 15.8442 10.8069C15.9857 10.9053 15.5091 11.0635 15.2569 11.1688L15.2117 11.1877C14.3468 11.5494 14.2328 11.5925 13.9855 11.5925C13.3125 11.5925 13.0709 10.9032 13.0047 9.91593C12.7971 10.5995 12.1776 11.462 11.6671 11.462C11.4436 11.462 11.5511 11.4974 10.6232 11.1674C10.526 11.133 10.526 11.133 10.4299 11.1C10.1488 11.0046 9.94601 10.9511 9.81807 10.9397C9.82336 10.9337 9.84219 10.9134 9.86333 10.8953L8.81695 11.0009Z" fill="#C09302"/>
</g>
</g>
</g>
</svg>
