<svg width="26" height="26" viewBox="0 0 26 26" fill="none" xmlns="http://www.w3.org/2000/svg">
<mask id="mask0_1_15461" style="mask-type:alpha" maskUnits="userSpaceOnUse" x="0" y="0" width="26" height="26">
<circle cx="13" cy="13" r="13" fill="#634848"/>
</mask>
<g mask="url(#mask0_1_15461)">
<g clip-path="url(#clip0_1_15461)">
<path d="M0 0H26V13H0V0Z" fill="black"/>
<path d="M0 13H26V26H0V13Z" fill="#007A3D"/>
<path d="M0 7.58167H26V18.4133H0V7.58167Z" fill="white"/>
<path d="M0 0L13 13L0 26V0Z" fill="#C4111B"/>
<path d="M19.8047 16.5564C21.7688 16.5564 23.3611 14.9642 23.3611 13C23.3611 11.0359 21.7688 9.4436 19.8047 9.4436C17.8405 9.4436 16.2483 11.0359 16.2483 13C16.2483 14.9642 17.8405 16.5564 19.8047 16.5564Z" fill="#C4111B"/>
<path d="M21.1377 16.5564C23.1018 16.5564 24.6941 14.9642 24.6941 13C24.6941 11.0359 23.1018 9.4436 21.1377 9.4436C19.1735 9.4436 17.5813 11.0359 17.5813 13C17.5813 14.9642 19.1735 16.5564 21.1377 16.5564Z" fill="white"/>
<path d="M18.8518 15.1505L20.3618 14.0674L21.8719 15.1713L21.3095 13.3905L22.8196 12.297L20.9554 12.2866L20.3827 10.5162L19.7943 12.2814L17.9353 12.2762L19.4298 13.3801L18.8518 15.1505V15.1505Z" fill="#C4111B"/>
</g>
</g>
<defs>
<clipPath id="clip0_1_15461">
<rect width="26" height="26" fill="white"/>
</clipPath>
</defs>
</svg>
