<svg width="26" height="26" viewBox="0 0 26 26" fill="none" xmlns="http://www.w3.org/2000/svg">
<mask id="mask0_1_15548" style="mask-type:alpha" maskUnits="userSpaceOnUse" x="0" y="0" width="26" height="26">
<circle cx="13" cy="13" r="13" fill="#634848"/>
</mask>
<g mask="url(#mask0_1_15548)">
<g clip-path="url(#clip0_1_15548)">
<path fill-rule="evenodd" clip-rule="evenodd" d="M-2.4375 0H27.5996V26H-2.4375V0Z" fill="#BE0027"/>
<path fill-rule="evenodd" clip-rule="evenodd" d="M-2.4375 26L27.5996 25.9848V13L-2.4375 26Z" fill="#B4D7F4"/>
<path fill-rule="evenodd" clip-rule="evenodd" d="M-2.4375 0L27.5996 0.0152344V13L-2.4375 0Z" fill="#239E46"/>
<path fill-rule="evenodd" clip-rule="evenodd" d="M7.55625 17.8446C7.11445 17.9665 6.86055 18.3118 6.86562 18.6368L9.03906 18.6267C9.05937 18.2763 8.775 17.9563 8.33828 17.8294C10.4711 17.7888 12.3195 16.9864 12.6547 16.4786C12.3246 16.3313 11.9387 16.5649 11.6645 16.5091C12.3145 16.2095 14.2645 14.945 13.9496 13.5942C13.6929 14.2366 13.2326 14.777 12.6395 15.1329C13.3656 14.0259 14.366 12.8731 13.5027 11.9845C13.5434 12.5024 13.1676 13.0712 13.0051 13.1118C13.4266 11.9438 13.8328 10.4712 12.9137 9.50635C13.0355 9.85674 12.9898 10.8419 12.8223 10.8876C12.7715 10.0903 12.6344 8.41963 11.7965 8.44502C12.0656 8.67861 12.1773 9.32861 12.1875 9.97861C11.9945 9.53174 11.7812 9.19658 11.3141 8.86143C10.9004 8.14519 10.3116 7.54583 9.60273 7.11963C9.61531 7.41893 9.70103 7.71058 9.85241 7.96908C10.0038 8.22758 10.2162 8.44504 10.4711 8.60244C10.0902 8.57705 9.70937 7.85596 9.30312 7.83564C8.97812 7.82041 8.72422 8.13018 8.19101 7.95244C8.25195 8.1251 8.4957 8.20635 8.54648 8.3333C8.43984 8.40947 8.16562 8.32314 7.94219 8.20635C8.25195 8.62275 8.7293 8.8665 9.13555 8.78525C9.61797 8.69385 10.1359 8.74463 10.6285 9.02393C10.3211 9.08832 10.0046 9.09692 9.69414 9.04932C9.98359 9.33877 10.1715 9.53174 10.6691 9.52666C11.116 9.52666 11.3496 9.29307 11.4613 9.43525C11.7406 9.76533 11.9285 10.0954 12.1621 10.4813C11.6441 10.5423 11.8016 9.90244 11.2277 9.57236C10.9078 10.2427 11.5984 11.0298 12.0707 11.3599C12.0707 11.8626 12.1469 12.2739 12.3602 12.6599C12.5023 12.929 12.6902 13.2032 12.6191 13.8126C12.3398 13.6095 12.0605 12.9138 12.1621 12.3653C11.8066 12.4618 11.6746 13.0763 11.8371 13.3911C11.9641 13.6298 12.0453 14.0868 11.9031 14.2899C11.7609 14.4778 11.7508 14.4575 11.7508 14.8638C11.7508 15.1075 11.6187 15.397 11.3953 15.595C11.4461 15.4274 11.4969 15.1278 11.4461 14.945C11.2684 15.2446 10.8316 15.5493 10.6945 15.8692C10.5574 16.1892 10.5219 16.7427 9.8668 16.8696C9.01875 17.0372 8.72422 17.1845 8.18086 17.4079C8.11992 16.9966 8.30273 16.1333 8.64805 16.1841C8.98828 16.245 10.009 15.8286 9.64336 14.9653C9.57226 15.2396 9.32852 15.5036 9.06953 15.5188C9.34883 15.1532 9.85156 14.7724 9.60781 14.163C9.46056 14.4725 9.22573 14.7321 8.93242 14.9095C9.28281 14.2442 8.97305 14.0462 8.56172 14.5895C8.40937 14.8028 8.30781 15.2294 8.21133 15.7677C8.04883 15.331 8.05898 14.752 7.86601 14.2849C7.66289 13.777 8.13516 13.6399 8.35351 13.6806C8.8918 13.8278 9.7957 13.8278 9.72461 12.9341C9.49609 13.2388 9.08476 13.3302 8.64297 13.2235C9.14062 12.8579 9.53164 12.1825 8.97812 11.8271C8.95286 12.0367 8.87611 12.2368 8.75473 12.4096C8.63334 12.5824 8.47108 12.7224 8.28242 12.8173C8.19272 12.4836 8.18749 12.1328 8.26719 11.7966C8.04883 12.0251 7.8914 12.4974 7.76445 13.0407C7.76052 12.6318 7.81698 12.2245 7.93203 11.8321C8.04375 11.4106 8.32812 11.6849 8.75976 11.7153C9.17617 11.7407 9.75 11.5122 9.64336 10.9435C9.50117 11.1669 9.20664 11.2532 8.90703 11.2329C9.26758 11.0146 9.89219 10.6235 9.55195 10.0345C9.40469 10.2579 9.35898 10.4509 8.94258 10.522C9.04922 10.2681 9.06953 9.9126 9.39453 9.77549C8.81562 9.65869 8.48555 10.0396 8.31797 10.6286C8.24687 10.2224 8.16562 10.07 8.15039 9.76533C8.46523 9.42002 8.4957 8.73955 7.82031 8.59229C7.77969 8.9376 7.79492 9.02393 7.87109 9.30322C7.55117 9.12041 7.10937 9.01377 6.80469 9.28291C7.00781 9.50127 7.32266 9.68916 7.80508 9.45557C7.68828 9.82627 7.39375 9.76025 6.9875 9.61807C7.23633 10.0853 7.54609 10.1716 7.89648 10.1157C8.07422 10.5931 8.08437 10.9536 7.55625 11.6493C7.57656 11.2177 7.54609 10.8978 7.20078 10.5474C6.91133 10.2579 6.67265 10.5626 7.12969 11.2024C6.79523 10.9369 6.55636 10.5697 6.44922 10.1563C6.35781 10.6692 6.43906 11.2735 6.72344 11.6188C6.58633 11.761 6.43398 11.6036 6.21055 11.2532C6.2918 12.3806 6.77422 12.5938 7.42422 12.345C7.43945 12.9646 7.43945 13.5384 7.475 14.2849C7.19546 13.8486 6.81146 13.4891 6.35781 13.2388C6.27148 13.5435 6.58633 13.9345 6.76406 14.1528C6.49492 14.1021 5.91601 13.6603 5.91601 13.6603C5.85508 14.163 6.50508 14.6251 6.92656 14.8333C6.43398 14.813 6.21562 14.6302 5.8957 14.3255C5.90078 15.7169 7.4039 15.4731 7.68828 15.2599L7.81523 17.4231C7.38867 17.3521 7.42422 17.22 7.05859 17.1896C6.04805 17.1489 5.2457 15.9759 4.98164 15.1126C4.90547 15.2548 4.9664 15.402 4.89531 15.5798C4.73281 15.1532 4.52461 14.6099 4.24023 14.356C4.31133 14.5997 4.32148 14.8536 4.29609 15.3106C4.19961 15.011 4.1082 14.9196 4.10312 14.5692C4.1082 14.3001 4.36211 14.1021 4.35195 13.7212C4.3418 13.447 4.08789 12.8478 4.04726 12.3806C3.92539 12.863 3.84922 13.3657 3.66133 13.6603C3.75781 13.1524 3.72734 12.797 3.88476 12.4567C4.06758 12.0911 4.21992 11.7712 4.09805 11.4056C3.98125 11.5478 4.02187 11.6747 3.73242 12.0149C3.6664 11.6442 4.1082 11.0501 4.53476 10.8063C4.83945 10.654 5.21523 10.0802 4.97148 9.68916C4.68711 9.89229 4.56015 10.1716 4.15898 10.6388C4.44336 9.52158 5.18476 9.23213 6.07344 9.22705C6.27656 9.22705 6.66758 9.15596 6.78437 8.89697C6.53047 8.99346 6.23086 9.00361 5.97187 8.94775C6.15976 8.67354 6.56601 8.70908 6.9418 8.704C7.23633 8.704 7.69844 8.66338 7.88633 8.24697C7.47767 8.40299 7.03092 8.42958 6.60664 8.32314C7.17031 8.02861 8.05391 7.99814 8.50586 7.61221C7.98789 7.23135 6.69805 7.70869 5.88555 8.26729C6.11406 8.05908 6.47461 7.68838 6.67265 7.38877C6.22578 7.17549 5.09844 8.42471 4.7125 9.16611C4.34687 9.36924 4.19961 9.69932 4.05234 9.92783C4.25547 9.2626 4.2707 8.78018 4.4332 8.23682C3.17383 8.66846 3.69687 11.0044 3.42265 11.563C3.45312 10.9435 3.42773 10.1513 3.17383 9.74502C2.78789 10.0396 2.75234 11.7864 3.12305 13.2438C2.98594 12.8528 2.73711 12.4872 2.66094 12.0149C2.08203 13.0661 2.99609 14.3001 3.75781 15.2802C3.15047 14.9032 2.63377 14.3969 2.24453 13.7974C2.34609 15.6763 4.31133 16.0673 4.61601 16.5294C4.19961 16.3364 3.4125 15.9556 3.07226 16.3567C3.54356 16.4444 3.99569 16.6146 4.40781 16.8595C4.91562 17.4942 5.88047 17.7735 7.55625 17.8446Z" fill="#F3E295"/>
</g>
</g>
<defs>
<clipPath id="clip0_1_15548">
<rect width="26" height="26" fill="white"/>
</clipPath>
</defs>
</svg>
