<svg width="26" height="26" viewBox="0 0 26 26" fill="none" xmlns="http://www.w3.org/2000/svg">
<mask id="mask0_1_9979" style="mask-type:alpha" maskUnits="userSpaceOnUse" x="0" y="0" width="26" height="26">
<circle cx="13" cy="13" r="13" fill="#634848"/>
</mask>
<g mask="url(#mask0_1_9979)">
<mask id="mask1_1_9979" style="mask-type:alpha" maskUnits="userSpaceOnUse" x="-3" y="0" width="36" height="26">
<rect x="-2.33333" width="34.6667" height="26" fill="white"/>
</mask>
<g mask="url(#mask1_1_9979)">
<path fill-rule="evenodd" clip-rule="evenodd" d="M-2.33073 0V26H32.3359V0H-2.33073Z" fill="#FFB400"/>
<mask id="mask2_1_9979" style="mask-type:alpha" maskUnits="userSpaceOnUse" x="-3" y="0" width="36" height="26">
<path fill-rule="evenodd" clip-rule="evenodd" d="M-2.33073 0V26H32.3359V0H-2.33073Z" fill="white"/>
</mask>
<g mask="url(#mask2_1_9979)">
<path fill-rule="evenodd" clip-rule="evenodd" d="M-2.33073 0V6.5H32.3359V0H-2.33073Z" fill="#C51918"/>
<path fill-rule="evenodd" clip-rule="evenodd" d="M-2.33073 19.5V26H32.3359V19.5H-2.33073Z" fill="#C51918"/>
<rect x="3.09701" y="11.1284" width="1.21333" height="6.30933" fill="#F1F9FF"/>
<path fill-rule="evenodd" clip-rule="evenodd" d="M4.79859 10.035H2.61459V10.6417H2.97852V11.1262H4.43452V10.6417H4.79859V10.035Z" fill="#C88A02"/>
<path fill-rule="evenodd" clip-rule="evenodd" d="M4.43459 17.8006H4.79859V18.4073H2.61459V17.8006H2.97859V17.3153H4.43459V17.8006Z" fill="#C88A02"/>
<path fill-rule="evenodd" clip-rule="evenodd" d="M3.70936 10.1568C3.9734 10.1568 4.00024 10.0573 4.15602 9.90885C4.27698 9.79354 4.55869 9.65053 4.55869 9.48944C4.55869 9.12088 4.17843 8.82211 3.70936 8.82211C3.24029 8.82211 2.86003 9.12088 2.86003 9.48944C2.86003 9.66891 3.05403 9.78892 3.20072 9.90885C3.35526 10.0352 3.46871 10.1568 3.70936 10.1568Z" fill="#AD1619"/>
<path fill-rule="evenodd" clip-rule="evenodd" d="M2.61459 18.4071H4.79859V19.3777C4.79859 19.3777 4.52559 19.2564 4.25259 19.2564C3.97959 19.2564 3.70659 19.3777 3.70659 19.3777C3.70659 19.3777 3.43359 19.2564 3.16059 19.2564C2.88759 19.2564 2.61459 19.3777 2.61459 19.3777V18.4071Z" fill="#005BBF"/>
<mask id="mask3_1_9979" style="mask-type:alpha" maskUnits="userSpaceOnUse" x="2" y="18" width="3" height="2">
<path fill-rule="evenodd" clip-rule="evenodd" d="M2.61459 18.4071H4.79859V19.3777C4.79859 19.3777 4.52559 19.2564 4.25259 19.2564C3.97959 19.2564 3.70659 19.3777 3.70659 19.3777C3.70659 19.3777 3.43359 19.2564 3.16059 19.2564C2.88759 19.2564 2.61459 19.3777 2.61459 19.3777V18.4071Z" fill="white"/>
</mask>
<g mask="url(#mask3_1_9979)">
<path d="M2.59455 19.188L2.54688 19.0717C2.74359 18.9842 2.941 18.9403 3.13871 18.9403C3.26644 18.9403 3.33315 18.9581 3.44654 19.0085C3.54614 19.0529 3.59777 19.0667 3.7067 19.0667C3.81563 19.0667 3.86726 19.0529 3.96687 19.0085C4.08026 18.9581 4.14696 18.9403 4.2747 18.9403C4.47241 18.9403 4.66982 18.9842 4.86653 19.0717L4.81886 19.188C4.6369 19.107 4.45565 19.0667 4.2747 19.0667C4.16577 19.0667 4.11414 19.0804 4.01453 19.1248C3.90114 19.1752 3.83444 19.193 3.7067 19.193C3.57897 19.193 3.51227 19.1752 3.39887 19.1248C3.29927 19.0804 3.24764 19.0667 3.13871 19.0667C2.95775 19.0667 2.7765 19.107 2.59455 19.188Z" fill="white"/>
<path d="M2.59455 18.824L2.54688 18.7078C2.74359 18.6203 2.941 18.5763 3.13871 18.5763C3.26644 18.5763 3.33315 18.5941 3.44654 18.6446C3.54614 18.6889 3.59777 18.7027 3.7067 18.7027C3.81563 18.7027 3.86726 18.6889 3.96687 18.6446C4.08026 18.5941 4.14696 18.5763 4.2747 18.5763C4.47241 18.5763 4.66982 18.6203 4.86653 18.7078L4.81886 18.824C4.6369 18.7431 4.45565 18.7027 4.2747 18.7027C4.16577 18.7027 4.11414 18.7165 4.01453 18.7608C3.90114 18.8113 3.83444 18.8291 3.7067 18.8291C3.57897 18.8291 3.51227 18.8113 3.39887 18.7608C3.29927 18.7165 3.24764 18.7027 3.13871 18.7027C2.95775 18.7027 2.7765 18.7431 2.59455 18.824Z" fill="white"/>
</g>
<rect x="14.9883" y="11.1284" width="1.21333" height="6.30933" fill="#F1F9FF"/>
<path fill-rule="evenodd" clip-rule="evenodd" d="M16.6905 10.035H14.5065V10.6417H14.8704V11.1262H16.3264V10.6417H16.6905V10.035Z" fill="#C88A02"/>
<path fill-rule="evenodd" clip-rule="evenodd" d="M16.3259 17.8006H16.6899V18.4073H14.5059V17.8006H14.8699V17.3153H16.3259V17.8006Z" fill="#C88A02"/>
<path fill-rule="evenodd" clip-rule="evenodd" d="M15.6006 10.1568C15.8647 10.1568 15.8915 10.0573 16.0473 9.90885C16.1683 9.79354 16.45 9.65053 16.45 9.48944C16.45 9.12088 16.0697 8.82211 15.6006 8.82211C15.1316 8.82211 14.7513 9.12088 14.7513 9.48944C14.7513 9.66891 14.9453 9.78892 15.092 9.90885C15.2465 10.0352 15.36 10.1568 15.6006 10.1568Z" fill="#AD1619"/>
<path fill-rule="evenodd" clip-rule="evenodd" d="M14.5065 18.4071H16.6905V19.3777C16.6905 19.3777 16.4175 19.2564 16.1445 19.2564C15.8715 19.2564 15.5985 19.3777 15.5985 19.3777C15.5985 19.3777 15.3255 19.2564 15.0525 19.2564C14.7795 19.2564 14.5065 19.3777 14.5065 19.3777V18.4071Z" fill="#005BBF"/>
<mask id="mask4_1_9979" style="mask-type:alpha" maskUnits="userSpaceOnUse" x="14" y="18" width="3" height="2">
<path fill-rule="evenodd" clip-rule="evenodd" d="M14.5065 18.4071H16.6905V19.3777C16.6905 19.3777 16.4175 19.2564 16.1445 19.2564C15.8715 19.2564 15.5985 19.3777 15.5985 19.3777C15.5985 19.3777 15.3255 19.2564 15.0525 19.2564C14.7795 19.2564 14.5065 19.3777 14.5065 19.3777V18.4071Z" fill="white"/>
</mask>
<g mask="url(#mask4_1_9979)">
<path d="M14.4865 19.188L14.4388 19.0717C14.6355 18.9842 14.8329 18.9403 15.0306 18.9403C15.1584 18.9403 15.2251 18.9581 15.3385 19.0085C15.4381 19.0529 15.4897 19.0667 15.5986 19.0667C15.7076 19.0667 15.7592 19.0529 15.8588 19.0085C15.9722 18.9581 16.0389 18.9403 16.1666 18.9403C16.3643 18.9403 16.5617 18.9842 16.7585 19.0717L16.7108 19.188C16.5288 19.107 16.3476 19.0667 16.1666 19.0667C16.0577 19.0667 16.0061 19.0804 15.9065 19.1248C15.7931 19.1752 15.7264 19.193 15.5986 19.193C15.4709 19.193 15.4042 19.1752 15.2908 19.1248C15.1912 19.0804 15.1396 19.0667 15.0306 19.0667C14.8497 19.0667 14.6684 19.107 14.4865 19.188Z" fill="white"/>
<path d="M14.4865 18.824L14.4388 18.7078C14.6355 18.6203 14.8329 18.5763 15.0306 18.5763C15.1584 18.5763 15.2251 18.5941 15.3385 18.6446C15.4381 18.6889 15.4897 18.7027 15.5986 18.7027C15.7076 18.7027 15.7592 18.6889 15.8588 18.6446C15.9722 18.5941 16.0389 18.5763 16.1666 18.5763C16.3643 18.5763 16.5617 18.6203 16.7585 18.7078L16.7108 18.824C16.5288 18.7431 16.3476 18.7027 16.1666 18.7027C16.0577 18.7027 16.0061 18.7165 15.9065 18.7608C15.7931 18.8113 15.7264 18.8291 15.5986 18.8291C15.4709 18.8291 15.4042 18.8113 15.2908 18.7608C15.1912 18.7165 15.1396 18.7027 15.0306 18.7027C14.8497 18.7027 14.6684 18.7431 14.4865 18.824Z" fill="white"/>
</g>
<path fill-rule="evenodd" clip-rule="evenodd" d="M3.08106 16.9838C3.29981 16.7186 3.42214 16.4773 3.42214 16.221C3.42214 16.0595 3.37406 15.9199 3.28982 15.8059L3.30405 15.7995C3.30274 15.8001 3.54403 15.6949 3.62804 15.6546C3.7842 15.5798 3.92178 15.5005 4.05592 15.4029C4.14156 15.3406 4.25631 15.2728 4.43123 15.1789C4.46133 15.1627 4.5427 15.1195 4.59498 15.0918L4.59529 15.0916L4.59553 15.0915L4.63998 15.0679C4.72499 15.0225 4.7883 14.9877 4.84711 14.9536C5.03038 14.8473 5.15149 14.7595 5.24412 14.642C5.46351 14.3638 5.41796 13.9867 5.11052 13.7773C4.95989 13.6748 4.75663 13.6159 4.45868 13.5696L4.39699 13.5601C4.29519 13.5443 4.0997 13.5141 4.03255 13.5036C3.88997 13.4812 3.76275 13.4603 3.64931 13.4405C4.39526 13.3163 5.46043 13.362 5.92897 13.6039L6.37429 12.7414C5.41949 12.2484 3.24402 12.2988 2.43138 12.8584C1.83533 13.2689 1.91531 13.8894 2.53547 14.1566C2.79461 14.2682 3.13242 14.3423 3.75756 14.4427C3.6528 14.5035 3.56594 14.559 3.48502 14.6179C3.40295 14.6776 3.31502 14.7282 3.20837 14.7794C3.15735 14.8038 3.00627 14.8702 2.93706 14.9006L2.90227 14.9159C2.39713 15.1456 2.15197 15.4633 2.22523 16.0369L2.26488 16.3474L2.33602 16.3693L3.08106 16.9838ZM2.45792 16.1816L2.45638 16.1861L2.45756 16.1829L2.45792 16.1816ZM15.7758 16.2219C15.7758 16.4781 15.8981 16.7194 16.1169 16.9846L16.8619 16.3701L16.933 16.3482L16.9727 16.0377C17.046 15.4641 16.8008 15.1464 16.2957 14.9167L16.2608 14.9014C16.1916 14.871 16.0406 14.8047 15.9896 14.7802C15.8829 14.7291 15.795 14.6784 15.7129 14.6187C15.632 14.5598 15.5451 14.5043 15.4404 14.4436C16.0655 14.3431 16.4033 14.269 16.6625 14.1574C17.2826 13.8902 17.3626 13.2697 16.7665 12.8592C15.9539 12.2996 13.7784 12.2492 12.8236 12.7422L13.2689 13.6047C13.7375 13.3628 14.8027 13.3172 15.5486 13.4413C15.4352 13.4611 15.308 13.482 15.1654 13.5044C15.0983 13.5149 14.903 13.5451 14.8011 13.5609L14.8009 13.5609L14.7392 13.5704C14.4413 13.6168 14.238 13.6756 14.0874 13.7782C13.78 13.9875 13.7344 14.3646 13.9538 14.6428C14.0464 14.7603 14.1675 14.8481 14.3508 14.9544C14.4096 14.9886 14.4729 15.0233 14.5579 15.0687L14.6023 15.0923L14.6026 15.0924C14.6549 15.1202 14.7365 15.1635 14.7667 15.1797C14.9416 15.2736 15.0564 15.3414 15.142 15.4037C15.2761 15.5013 15.4137 15.5806 15.5699 15.6555C15.6539 15.6957 15.8952 15.8009 15.8939 15.8003L15.9081 15.8067C15.8239 15.9207 15.7758 16.0603 15.7758 16.2219Z" fill="#AD1619"/>
<path d="M4.08864 13.4326L4.44678 13.5067V14.0405C4.06534 14.3449 3.09701 14.8578 3.09701 14.8578V13.4326H4.08864Z" fill="#F1F9FF"/>
<path d="M15.3508 13.4326L14.9927 13.5067V14.0405C15.3741 14.3449 16.3425 14.8578 16.3425 14.8578V13.4326H15.3508Z" fill="#F1F9FF"/>
<path fill-rule="evenodd" clip-rule="evenodd" d="M7.7074 6.95567C6.68288 6.95567 5.74675 7.62751 5.74675 7.62751V7.80516L6.97051 9.03424C6.97051 9.03424 7.31472 10.2163 9.72461 9.93951V9.94297C9.72461 9.94297 11.3218 9.89938 11.4341 9.86205C11.4786 9.84724 11.5248 9.83375 11.572 9.81998C11.8848 9.72864 12.2419 9.62438 12.4545 9.03501L13.6783 7.80594V7.62829C13.0542 7.18039 12.4007 6.95644 11.7177 6.95644C11.0638 6.66707 10.4019 6.5545 9.73205 6.61874C9.73226 6.61634 9.73237 6.61511 9.73237 6.61511C8.72381 6.51642 7.7074 6.95567 7.7074 6.95567ZM9.72461 6.70542C9.68346 7.19658 9.50079 9.53837 9.72461 9.92621V6.70542Z" fill="#AD1619"/>
<path fill-rule="evenodd" clip-rule="evenodd" d="M6.68425 8.82913L6.68434 8.82872L5.82097 8.01643L5.90411 7.92806L6.71441 8.69041L6.73581 8.59201C6.86797 8.62074 6.96458 8.63131 7.02088 8.62533V8.46045L7.19996 8.55736C7.28805 8.60503 7.4142 8.61785 7.58034 8.59081C7.70237 8.57095 7.78471 8.42923 7.81164 8.12724L7.86599 7.51758L8.04831 8.10187C8.13082 8.36627 8.25668 8.48282 8.43586 8.48282C8.61087 8.48282 8.68122 8.41866 8.68898 8.25694L8.71101 7.79828L8.91843 8.20795C8.99315 8.35554 9.0962 8.4225 9.24273 8.4225C9.4523 8.4225 9.59229 8.24779 9.59229 7.97365H9.59344H9.83496H9.83611C9.83611 8.24779 9.9761 8.4225 10.1857 8.4225C10.3322 8.4225 10.4352 8.35554 10.51 8.20795L10.7174 7.79828L10.7394 8.25694C10.7472 8.41866 10.8175 8.48282 10.9925 8.48282C11.1717 8.48282 11.2976 8.36627 11.3801 8.10187L11.5624 7.51758L11.6168 8.12724C11.6437 8.42923 11.726 8.57095 11.8481 8.59081C12.0142 8.61785 12.1403 8.60503 12.2284 8.55736L12.4075 8.46045V8.62533C12.4638 8.63131 12.5604 8.62074 12.6926 8.59201L12.7312 8.76974L13.6258 7.92806L13.709 8.01643L12.5961 9.06349C12.4337 9.36252 12.3519 9.55989 12.3519 9.64188C12.3519 9.76696 12.0265 9.8412 11.3914 9.91746C10.8935 9.97723 10.3059 10.0173 9.82541 10.0233V10.0241L9.76498 10.0239L9.70454 10.0241V10.0233C9.22405 10.0173 8.63643 9.97723 8.13855 9.91746C7.50344 9.8412 7.17802 9.76696 7.17802 9.64188C7.17802 9.6262 7.17503 9.60629 7.16905 9.58227C7.10518 9.5009 7.06023 9.36794 7.03028 9.24784C7.00214 9.19152 6.97001 9.13002 6.93388 9.06349L6.68494 8.82928L6.68425 8.82913ZM12.6477 8.84831C12.4479 8.88387 12.3037 8.8805 12.2273 8.8183C12.1083 8.85295 11.9686 8.85628 11.8091 8.83033C11.6387 8.80261 11.5201 8.68931 11.4487 8.50135C11.355 8.62071 11.2364 8.69415 11.0943 8.71743C11.8704 8.82754 12.4141 8.98225 12.4141 8.98225C12.4141 8.98225 12.3996 9.10634 12.3642 9.24827C12.4002 9.17363 12.4435 9.08997 12.4941 8.99695L12.5059 8.98178L12.6477 8.84831ZM10.7318 8.67172C10.6635 8.63815 10.6091 8.58922 10.5698 8.52602C10.5115 8.57746 10.4452 8.61499 10.3716 8.63802C10.4947 8.64746 10.6151 8.65887 10.7318 8.67172ZM9.94551 8.61443C9.85133 8.57113 9.77293 8.50178 9.7142 8.41289C9.65598 8.50101 9.57843 8.56991 9.48535 8.61328C9.53909 8.6117 9.59314 8.61058 9.64743 8.60995V8.60938L9.69727 8.60952L9.74712 8.60938V8.60995C9.81365 8.61072 9.87982 8.61223 9.94551 8.61443ZM7.01464 8.97288L6.90054 8.86553C7.03875 8.87977 7.14092 8.86727 7.20105 8.8183C7.32015 8.85295 7.45983 8.85628 7.61931 8.83033C7.78965 8.80261 7.90827 8.68931 7.97965 8.50135C8.07003 8.61649 8.18359 8.6889 8.31911 8.71477C7.64742 8.80898 7.14634 8.93745 7.01464 8.97288ZM9.05036 8.63596C8.93281 8.64466 8.81771 8.65518 8.70577 8.66707C8.76977 8.63369 8.82111 8.58636 8.85863 8.52602C8.91517 8.57595 8.97928 8.61278 9.05036 8.63596ZM12.0295 9.64352C12.1174 9.68465 12.1872 9.64085 12.2419 9.5596C12.2361 9.58408 12.2325 9.60595 12.2312 9.62527C12.2241 9.62993 12.2132 9.63554 12.1989 9.64156C12.1589 9.65836 12.0979 9.67626 12.0185 9.69438C11.8624 9.72998 11.6402 9.76538 11.3769 9.79699C10.8626 9.85874 10.2511 9.89937 9.76498 9.90253C9.27889 9.89937 8.66731 9.85874 8.15302 9.79699C7.88973 9.76538 7.66758 9.72998 7.51151 9.69438C7.44435 9.67906 7.39033 9.66389 7.35109 9.64941C7.35569 9.64769 7.36035 9.64573 7.36506 9.64352C7.62978 9.51966 9.37844 9.4034 9.69727 9.3831C10.0161 9.4034 11.7648 9.51966 12.0295 9.64352ZM12.3633 9.62077C12.3629 9.6211 12.3623 9.62169 12.3617 9.62257L12.3625 9.62135L12.3633 9.62077Z" fill="#C88A02"/>
<path fill-rule="evenodd" clip-rule="evenodd" d="M9.71752 5.79099C9.91855 5.79099 10.0815 5.62802 10.0815 5.42699C10.0815 5.22596 9.91855 5.06299 9.71752 5.06299C9.51649 5.06299 9.35352 5.22596 9.35352 5.42699C9.35352 5.62802 9.51649 5.79099 9.71752 5.79099Z" fill="#005BBF"/>
<path fill-rule="evenodd" clip-rule="evenodd" d="M9.47987 7.58059C9.48749 7.61983 9.49933 7.65641 9.51427 7.68911C9.46793 7.67189 9.41329 7.66195 9.35477 7.66195C9.18724 7.66195 9.05144 7.74343 9.05144 7.84395C9.05144 7.94446 9.18724 8.02595 9.35477 8.02595C9.50806 8.02595 9.63479 7.95772 9.65522 7.86912C9.67565 7.95772 9.80239 8.02595 9.95568 8.02595C10.1232 8.02595 10.259 7.94446 10.259 7.84395C10.259 7.74343 10.1232 7.66195 9.95568 7.66195C9.91491 7.66195 9.87602 7.66677 9.8405 7.67552C9.84903 7.62612 9.84855 7.56962 9.83718 7.51114C9.80521 7.34669 9.69931 7.22893 9.60064 7.24811C9.50197 7.26729 9.4479 7.41615 9.47987 7.58059ZM7.69461 7.80972C7.67967 7.77702 7.66783 7.74044 7.6602 7.7012C7.62824 7.53675 7.68231 7.38789 7.78098 7.36871C7.87965 7.34953 7.98555 7.4673 8.01752 7.63174C8.02888 7.69022 8.02937 7.74673 8.02084 7.79613C8.05636 7.78738 8.09525 7.78255 8.13602 7.78255C8.30355 7.78255 8.43935 7.86404 8.43935 7.96455C8.43935 8.06507 8.30355 8.14655 8.13602 8.14655C7.98273 8.14655 7.85599 8.07833 7.83556 7.98972C7.81513 8.07833 7.6884 8.14655 7.53511 8.14655C7.36758 8.14655 7.23177 8.06507 7.23177 7.96455C7.23177 7.86404 7.36758 7.78255 7.53511 7.78255C7.59362 7.78255 7.64827 7.79249 7.69461 7.80972ZM11.4973 7.92238C11.4833 8.02191 11.3375 8.0837 11.1716 8.06039C11.0057 8.03707 10.8826 7.93748 10.8965 7.83794C10.9105 7.73841 11.0564 7.67662 11.2223 7.69993C11.2778 7.70774 11.3286 7.7241 11.371 7.74614C11.3612 7.7125 11.3549 7.67567 11.3529 7.63691C11.3441 7.46961 11.4184 7.32973 11.5188 7.32447C11.6192 7.31921 11.7076 7.45056 11.7164 7.61786C11.7196 7.67825 11.7119 7.73506 11.6961 7.78327C11.7356 7.77818 11.7787 7.77831 11.8232 7.78457C11.9891 7.80788 12.1122 7.90747 12.0982 8.00701C12.0842 8.10655 11.9384 8.16834 11.7725 8.14502C11.6066 8.12171 11.4835 8.02212 11.4975 7.92258L11.4978 7.92041L11.4976 7.92032L11.4973 7.92238ZM12.6523 8.40293C12.8002 8.48158 12.9584 8.47339 13.0056 8.38464L13.0075 8.38079C13.022 8.39607 13.0392 8.4072 13.0587 8.41318C13.1549 8.44257 13.2725 8.33652 13.3215 8.17631C13.3705 8.0161 13.3322 7.86241 13.2361 7.83302C13.14 7.80363 13.0224 7.90968 12.9734 8.06989C12.9617 8.10822 12.9549 8.14618 12.9528 8.18215C12.9198 8.14453 12.8757 8.10944 12.8232 8.08153C12.6753 8.00289 12.5171 8.01107 12.4699 8.09982C12.4227 8.18857 12.5044 8.32428 12.6523 8.40293ZM6.69473 8.44101C6.54681 8.51966 6.38865 8.51147 6.34146 8.42272C6.34054 8.42099 6.33966 8.41923 6.33884 8.41746C6.32446 8.43238 6.30753 8.44326 6.28827 8.44915C6.19215 8.47854 6.07452 8.37249 6.02554 8.21228C5.97656 8.05207 6.01478 7.89838 6.1109 7.86899C6.20702 7.8396 6.32465 7.94565 6.37363 8.10586C6.38557 8.14489 6.39233 8.18355 6.39433 8.22011C6.42732 8.18253 6.47142 8.14749 6.52384 8.11962C6.67176 8.04097 6.82992 8.04916 6.87711 8.13791C6.9243 8.22666 6.84265 8.36236 6.69473 8.44101Z" fill="#C88A02"/>
<path fill-rule="evenodd" clip-rule="evenodd" d="M9.58138 4.41537H9.83416V4.57406H9.99778V4.82683H9.83416V5.33366H9.99778V5.58644H9.41211V5.33366H9.58138V4.82683H9.41211V4.57406H9.58138V4.41537Z" fill="#C88A02"/>
<rect x="9.53125" y="5.78874" width="0.485333" height="1.57733" fill="#C88A02"/>
<path d="M7.58107 6.05347L7.57895 6.17478C6.50309 6.156 5.88597 6.313 5.72931 6.62592C5.56736 6.94944 5.59747 7.34271 5.82441 7.80987L5.71527 7.86289C5.47314 7.36445 5.44007 6.93264 5.62082 6.57161C5.80686 6.19998 6.4597 6.03389 7.58107 6.05347Z" fill="white"/>
<path d="M7.79006 7.12879L7.72786 7.23297C7.49357 7.09307 7.3763 6.85433 7.3763 6.52532C7.3763 6.05247 7.61989 5.77519 8.15868 5.58543C8.50256 5.46432 8.9723 5.51398 9.56924 5.73041L9.52788 5.84447C8.95483 5.63671 8.51143 5.58984 8.19899 5.69987C7.70479 5.87392 7.49764 6.10974 7.49764 6.52532C7.49764 6.81405 7.59504 7.01234 7.79006 7.12879Z" fill="white"/>
<path d="M5.9731 7.62426L5.74415 7.70468C5.50659 7.0283 5.57443 6.56895 5.98035 6.3708C6.33803 6.19621 6.85932 6.12515 7.54679 6.15301L7.53697 6.39548C6.88606 6.3691 6.40181 6.43511 6.0868 6.58888C5.82003 6.7191 5.77124 7.0495 5.9731 7.62426Z" fill="#C88A02"/>
<path d="M8.64798 5.89045C8.09316 5.89045 7.86532 6.02558 7.73515 6.42456C7.6522 6.67882 7.73265 6.89583 7.99351 7.09839L7.84467 7.29006C7.50695 7.0278 7.38788 6.70661 7.50445 6.34929C7.67034 5.84083 7.99583 5.64779 8.64798 5.64779C9.07541 5.64779 9.40838 5.76008 9.64022 5.98862L9.67637 6.02426V7.19423H9.43371V6.12798C9.25264 5.97071 8.99255 5.89045 8.64798 5.89045Z" fill="#C88A02"/>
<path d="M11.818 6.17407L11.8201 6.29539C12.896 6.2766 13.5131 6.43361 13.6698 6.74653C13.8317 7.07004 13.8016 7.46331 13.5747 7.93048L13.6838 7.98349C13.926 7.48505 13.959 7.05325 13.7783 6.69221C13.5922 6.32059 12.9394 6.1545 11.818 6.17407Z" fill="white"/>
<path d="M11.4313 7.15418L11.4935 7.25836C11.7278 7.11846 11.8451 6.87972 11.8451 6.55071C11.8451 6.07786 11.6015 5.80058 11.0627 5.61082C10.7188 5.48972 10.2491 5.53937 9.65212 5.7558L9.69348 5.86986C10.2665 5.6621 10.7099 5.61523 11.0224 5.72526C11.5166 5.89931 11.7237 6.13513 11.7237 6.55071C11.7237 6.83944 11.6263 7.03773 11.4313 7.15418Z" fill="white"/>
<path d="M13.4937 7.74487L13.7227 7.82528C13.9602 7.14891 13.8924 6.68956 13.4864 6.49141C13.1288 6.31681 12.6075 6.24575 11.92 6.27361L11.9298 6.51608C12.5807 6.4897 13.065 6.55571 13.38 6.70948C13.6468 6.8397 13.6956 7.17011 13.4937 7.74487Z" fill="#C88A02"/>
<path d="M10.8019 5.9095C11.3567 5.9095 11.5846 6.04463 11.7147 6.4436C11.7977 6.69786 11.7172 6.91487 11.4564 7.11744L11.6052 7.3091C11.9429 7.04685 12.062 6.72566 11.9454 6.36834C11.7795 5.85988 11.454 5.66683 10.8019 5.66683C10.3745 5.66683 10.0415 5.77913 9.80966 6.00767L9.77351 6.04331V7.21327H10.0162V6.14703C10.1972 5.98975 10.4573 5.9095 10.8019 5.9095Z" fill="#C88A02"/>
<path opacity="0.3" fill-rule="evenodd" clip-rule="evenodd" d="M5.77084 10.036H13.6575V17.1219C13.6575 17.1219 13.0717 19.5 9.71417 19.5C6.35668 19.5 5.77084 17.0592 5.77084 17.0592V10.036Z" fill="#E1E5E8"/>
<mask id="mask5_1_9979" style="mask-type:alpha" maskUnits="userSpaceOnUse" x="5" y="10" width="9" height="10">
<path fill-rule="evenodd" clip-rule="evenodd" d="M5.77084 10.036H13.6575V17.1219C13.6575 17.1219 13.0717 19.5 9.71417 19.5C6.35668 19.5 5.77084 17.0592 5.77084 17.0592V10.036Z" fill="white"/>
</mask>
<g mask="url(#mask5_1_9979)">
<rect x="5.77084" y="14.4032" width="4.004" height="4.732" fill="#FFC034"/>
<rect x="6.25326" y="14.6465" width="0.485333" height="4.48933" fill="#AD1619"/>
<rect x="7.95443" y="14.6465" width="0.485333" height="4.48933" fill="#AD1619"/>
<rect x="7.10807" y="14.6465" width="0.485333" height="4.48933" fill="#AD1619"/>
<rect x="8.80079" y="14.6465" width="0.485333" height="4.48933" fill="#AD1619"/>
<rect x="5.77084" y="9.91537" width="4.004" height="4.61067" fill="#AD1619"/>
<rect x="9.6556" y="14.2826" width="4.004" height="4.61067" fill="#AD1619"/>
<rect x="9.6556" y="10.036" width="4.24667" height="4.48933" fill="#F1F9FF"/>
<path fill-rule="evenodd" clip-rule="evenodd" d="M7.4668 10.3991H7.8308V11.4063H8.07617V10.9027H8.44017V11.4063H8.80445V12.0354H8.44038V13.1667H8.80445V13.7958H6.62045V13.1667H6.98438V12.0354H6.62045V11.4063H6.86589V10.9027H7.22989V11.4063H7.4668V10.3991Z" fill="#C88A02"/>
<path d="M11.7376 10.6109L11.9861 10.3449L12.5078 10.8322L12.2593 11.0982L11.7376 10.6109Z" fill="#C88A02"/>
<path fill-rule="evenodd" clip-rule="evenodd" d="M13.228 17.4849V14.8285H10.1947V17.4626L10.1995 17.4831C10.353 18.1374 10.876 18.4685 11.7113 18.4685C12.5459 18.4685 13.0688 18.146 13.2229 17.5059L13.228 17.4849ZM11.7113 18.1044C11.041 18.1044 10.675 17.8786 10.5586 17.4196V15.1924H12.8639V17.4407C12.7479 17.8847 12.3818 18.1044 11.7113 18.1044Z" fill="#FFC034"/>
<path fill-rule="evenodd" clip-rule="evenodd" d="M11.8452 15.0501H11.5925V16.256L10.5947 15.1707L10.416 15.335L11.3175 16.3154H10.5007V16.6794H11.1279H11.3385L10.4178 17.6808L10.5964 17.8451L11.5925 16.7618V18.1689H11.8452V16.8894L12.7239 17.8451L12.9025 17.6808L11.9818 16.6794H13.0095V16.3154H12.0028L12.9043 15.335L12.7257 15.1707L11.8452 16.1283V15.0501Z" fill="#FFC034"/>
<path fill-rule="evenodd" clip-rule="evenodd" d="M12.2843 18.897C12.2843 18.897 9.71443 19.099 9.71443 17.4416C9.71443 17.4416 9.68993 18.897 7.00651 18.897V20.2055H12.2843V18.897Z" fill="#F1F9FF"/>
<path fill-rule="evenodd" clip-rule="evenodd" d="M9.71079 15.3754C10.2134 15.3754 10.6208 14.9408 10.6208 14.4048C10.6208 13.8687 10.2134 13.4341 9.71079 13.4341C9.20821 13.4341 8.80079 13.8687 8.80079 14.4048C8.80079 14.9408 9.20821 15.3754 9.71079 15.3754Z" fill="#005BBF" stroke="#AD1619" stroke-width="1.16667"/>
</g>
</g>
</g>
</g>
</svg>
