<svg width="26" height="26" viewBox="0 0 26 26" fill="none" xmlns="http://www.w3.org/2000/svg">
<mask id="mask0_1_12995" style="mask-type:alpha" maskUnits="userSpaceOnUse" x="0" y="0" width="26" height="26">
<circle cx="13" cy="13" r="13" fill="#634848"/>
</mask>
<g mask="url(#mask0_1_12995)">
<g clip-path="url(#clip0_1_12995)">
<path d="M0 0V26H26V0.0101563H16.3516V0H0Z" fill="#68BFE5"/>
<path d="M15.7523 12.8984V19.825C15.7523 22.0898 19.8453 23.4355 19.8453 23.4355C19.8453 23.4355 23.9383 22.0898 23.9383 19.8301V12.8984H15.7523Z" fill="white"/>
<path d="M19.2766 15.3359V18.4539H15.7523V19.5863H19.2816V23.2172L19.8453 23.4355L20.4141 23.2172V19.5863H23.9383V18.4539H20.4141V15.3359H19.2766Z" fill="#D21034"/>
<path d="M15.7523 12.8984H23.9383V15.5746H15.7523V12.8984Z" fill="#D21034"/>
<path d="M16.407 14.9039C16.6606 14.9039 16.8661 14.7376 16.8661 14.5325C16.8661 14.3274 16.6606 14.1611 16.407 14.1611C16.1534 14.1611 15.9478 14.3274 15.9478 14.5325C15.9478 14.7376 16.1534 14.9039 16.407 14.9039Z" fill="white" stroke="black" stroke-width="0.066486" stroke-miterlimit="3"/>
<path d="M16.407 14.5462C16.6326 14.5462 16.8155 14.454 16.8155 14.3402C16.8155 14.2265 16.6326 14.1343 16.407 14.1343C16.1814 14.1343 15.9985 14.2265 15.9985 14.3402C15.9985 14.454 16.1814 14.5462 16.407 14.5462Z" fill="white" stroke="black" stroke-width="0.066486" stroke-miterlimit="3"/>
<path d="M16.407 14.9612C16.6326 14.9612 16.8155 14.869 16.8155 14.7553C16.8155 14.6415 16.6326 14.5493 16.407 14.5493C16.1814 14.5493 15.9985 14.6415 15.9985 14.7553C15.9985 14.869 16.1814 14.9612 16.407 14.9612Z" fill="white" stroke="black" stroke-width="0.066486" stroke-miterlimit="3"/>
<path d="M16.407 14.7386C16.6326 14.7386 16.8155 14.6464 16.8155 14.5326C16.8155 14.4189 16.6326 14.3267 16.407 14.3267C16.1814 14.3267 15.9985 14.4189 15.9985 14.5326C15.9985 14.6464 16.1814 14.7386 16.407 14.7386Z" fill="white" stroke="black" stroke-width="0.066486" stroke-miterlimit="3"/>
<path d="M23.7352 15.0464L23.6691 14.8585C23.6691 14.8585 23.4863 14.7874 23.4711 14.6858C23.4406 14.4319 23.3441 14.3304 23.207 14.2948C23.1687 14.2826 23.1283 14.2781 23.0882 14.2816C23.0481 14.2851 23.0091 14.2965 22.9734 14.3151C22.9328 14.3761 22.7246 14.3761 22.6078 14.3812C22.491 14.3862 22.491 14.3304 22.491 14.3304C22.466 14.3311 22.4412 14.3254 22.419 14.3138C22.3968 14.3023 22.3779 14.2852 22.3641 14.2644C22.3031 14.1476 22.2625 14.1019 22.232 14.0917C22.3844 14.0917 22.4961 14.0206 22.6637 13.8429C22.8516 13.6499 22.9836 13.7261 22.9836 13.7261C22.8922 13.9038 23.0141 13.8886 23.0141 13.8886C23.2578 13.7667 23.0445 13.4468 22.9684 13.462C22.8973 13.4772 22.877 13.4265 22.877 13.4265C22.877 13.4823 22.7906 13.5077 22.7906 13.5077C22.8566 13.1472 22.6383 13.0507 22.6383 13.0507C22.6078 13.0812 22.5875 13.1522 22.5875 13.1522C22.5316 13.3655 22.3336 13.3351 22.1102 13.2284C21.8867 13.1218 21.2926 13.3401 21.1047 13.4112C20.9219 13.4874 20.5816 13.6042 20.2769 13.4315C19.9723 13.2589 19.8961 13.2894 19.7742 13.3249C19.6523 13.3554 19.4391 13.4062 19.3629 13.3655C19.3092 13.3384 19.2503 13.3229 19.1902 13.3198C19.2156 13.3097 19.1801 13.2589 19.1801 13.2589C19.0887 13.1319 19.1902 13.0558 19.1902 13.0558C19.1902 13.0558 19.0227 13.1065 19.0887 13.4011L19.1191 13.4468C19.1191 13.4468 19.1445 13.5382 19.1953 13.5636V13.5839C19.1953 13.5839 19.2359 13.5636 19.2461 13.6245C19.2664 13.6854 19.3273 13.6296 19.3578 13.5788C19.3578 13.5788 19.307 13.8479 19.6422 13.914C19.6422 13.914 19.6066 13.8733 19.6219 13.8429C19.6371 13.8175 19.5812 13.7921 19.5863 13.7515C19.5863 13.7108 19.5 13.6905 19.5711 13.6601C19.6422 13.6245 19.6727 13.5585 19.825 13.6499C19.9672 13.7362 20.084 13.7159 20.084 13.7159C20.084 13.7159 19.9926 13.5331 20.0434 13.5331C20.0941 13.5331 20.3176 13.8124 20.4293 13.7972C20.541 13.7819 20.7543 13.6601 20.8609 13.7058C20.8609 13.7058 20.8711 13.6499 21.2773 13.5788C21.6836 13.5077 22.1914 13.3046 22.3793 13.4823C22.3793 13.4823 22.3996 13.6245 22.4809 13.6601C22.4809 13.6601 22.4656 13.9546 21.9578 13.7921L21.775 13.7413C21.775 13.7413 21.7496 13.655 20.7848 13.9038C20.7848 13.9038 20.734 13.9241 20.6934 13.9546C20.6578 13.98 20.607 13.9343 20.4141 14.0054C20.2211 14.0765 19.5152 14.3101 19.0785 14.2237C18.982 14.1983 18.8906 14.2085 18.8906 14.1983C18.8855 14.178 18.9414 14.1983 18.9414 14.1983C18.9059 14.1628 18.8906 14.1577 18.8906 14.1577C18.525 14.1222 18.591 13.9546 18.591 13.9546L18.6113 14.0054C18.6723 13.9292 18.5859 13.7413 18.5859 13.7413C18.5845 13.7362 18.5828 13.7311 18.5809 13.7261L18.6113 13.7058C18.7891 13.5534 18.9922 13.528 18.9922 13.528C18.8703 13.3757 18.6164 13.4569 18.6164 13.4569C18.6164 13.2792 18.5453 13.071 18.5453 13.071C18.2914 13.0964 18.1492 13.3046 18.1492 13.3046C18.1441 13.1218 17.9055 13.0151 17.9055 13.0151C17.9918 13.1167 17.9359 13.3706 17.9359 13.3706L17.9461 13.3808H17.9258L17.9207 13.4315H17.9105C17.9105 13.4315 17.8242 13.462 17.7176 13.6956C17.7176 13.6956 17.7074 13.7464 17.6668 13.7972V13.7819C17.6668 13.7819 17.5551 13.9343 17.291 13.7819C17.291 13.7819 16.9355 13.5687 16.8086 13.5788C16.6816 13.5839 16.6004 13.6448 16.6055 13.6804C16.6055 13.6804 16.3211 13.655 16.2246 13.8175C16.2246 13.8175 16.0062 13.8987 16.1941 14.0714C16.1941 14.0714 16.2145 14.1526 16.2703 14.1933C16.2703 14.1933 16.2602 14.0308 16.3008 14.0815C16.3008 14.0815 16.3109 14.0968 16.3312 14.1069C16.3312 14.1272 16.3516 14.1933 16.3922 14.2237L16.4176 14.2136C16.4213 14.1754 16.4298 14.1379 16.443 14.1019H16.4531L16.448 14.1069L16.4988 14.1831L16.5547 14.1526C16.5852 14.1526 16.6207 14.178 16.6207 14.178L16.6867 14.1272V14.1222C16.7527 14.1323 16.768 14.0054 16.768 14.0054C16.7957 14.012 16.8245 14.0127 16.8525 14.0074C16.8805 14.0022 16.907 13.9911 16.9305 13.9749C16.9609 14.0765 17.1945 14.1933 17.1945 14.1933H17.2047L17.1742 14.2136C17.2758 14.2897 17.4789 14.2694 17.4789 14.2694C17.3977 14.305 17.4078 14.4573 17.4078 14.4573C17.357 14.4776 17.357 14.5233 17.357 14.5233C17.5144 14.5894 17.6262 14.5386 17.6262 14.5386C17.6363 14.5894 17.6262 14.5944 17.6262 14.5944C17.5602 14.7315 17.5297 14.8687 17.5297 14.8687V14.8788C17.5297 14.8788 17.2453 14.9804 17.1234 15.1175C17.1234 15.1175 17.1082 15.0769 17.0727 15.0769C17.0371 15.0769 16.9254 14.9854 16.8746 14.9753C16.8238 14.955 16.7477 14.9855 16.7273 14.9651C16.7121 14.9397 16.7223 14.7823 16.6867 14.7569L16.6512 14.6554C16.6258 14.7062 16.5293 14.696 16.5293 14.696C16.5155 14.7058 16.502 14.716 16.4887 14.7265L16.448 14.7214C16.4379 14.7214 16.4277 14.7519 16.4176 14.7772C16.4141 14.7806 16.4108 14.784 16.4074 14.7874V14.7569C16.3871 14.7722 16.3465 14.7519 16.3312 14.7519L16.3059 14.7976L16.2144 14.8077C16.1992 14.8128 16.2144 14.9347 16.2144 14.9347C16.0977 15.0007 16.1535 15.0921 16.1535 15.0921C16.2145 15.3968 16.7375 15.2647 16.7781 15.3003C16.8137 15.3409 16.9051 15.3511 16.9559 15.3511C17.0016 15.3511 17.0574 15.4628 17.1285 15.473C17.1945 15.4882 17.1285 15.3866 17.4332 15.3104C17.748 15.2343 17.8496 15.1073 17.8496 15.1073C17.9512 15.0921 17.9766 14.9702 17.9816 14.9245L17.9867 15.0007C18.002 15.1022 17.9309 15.1429 17.9309 15.1429L18.1949 15.0616C18.3016 15.0362 18.2914 14.9448 18.2914 14.9448C18.393 15.2343 18.5758 15.2495 18.5758 15.2495C18.6164 15.1429 18.6113 15.1073 18.6113 15.1073H18.6926C18.6926 15.0413 18.6418 14.9956 18.6113 14.9753L18.7383 15.0565L18.7891 15.0464C18.7891 15.0921 18.8602 15.1327 18.8602 15.1327L18.8703 15.0718C18.9312 15.153 19.043 15.1226 19.043 15.1226C19.0403 15.1088 19.037 15.0953 19.0328 15.0819C19.2715 15.2292 19.6473 15.0413 19.6473 15.0413C19.7488 15.0616 19.7641 15.0007 19.7641 15.0007C19.8809 15.0159 19.9062 14.9397 19.9062 14.9397C20.1805 14.9144 20.3734 14.7214 20.3734 14.7214C20.5055 14.7112 20.5105 14.6198 20.5105 14.6198C20.5105 14.6198 20.6477 14.6401 20.7746 14.4776C21.0793 14.046 21.5262 14.2745 21.5262 14.2745L21.2723 14.2897C20.5867 14.2847 20.866 14.7468 20.866 14.7468H20.9117C20.9777 14.7569 21.1961 14.9347 21.1148 15.0667V15.0718C20.9727 15.2597 20.7137 15.0819 20.6426 14.9194C20.5664 14.7569 20.4191 14.7925 20.4191 14.7925C20.4191 14.7925 20.0332 14.8585 20.1906 15.1632H20.1957C20.2008 15.2394 20.2465 15.3257 20.3836 15.412C20.4598 15.5187 20.7137 15.5288 20.9016 15.4882C20.9879 15.4729 21.4449 15.2749 21.4449 15.2749C21.4805 15.1733 21.5973 15.1987 21.6988 15.0565C21.8004 14.9093 21.5465 14.8585 21.4957 14.7823C21.4398 14.7011 21.5109 14.7163 21.5109 14.7163C21.7293 14.8382 21.7496 14.4522 21.7496 14.4522C21.7553 14.5155 21.7789 14.5757 21.8176 14.6261C21.8562 14.6764 21.9084 14.7148 21.968 14.7366C22.0898 14.6147 21.9984 14.3659 21.9984 14.3659C22.2879 14.8839 22.4656 14.8026 22.4656 14.8026C22.3082 14.7011 22.3844 14.5741 22.3844 14.5741C22.5266 15.1226 23.0953 14.6452 23.0953 14.6452C23.0699 14.7265 23.0953 14.7722 23.1461 14.8229C23.1969 14.8737 23.2578 14.894 23.2324 14.9905C23.202 15.0819 22.9379 15.0616 22.9379 15.0616C22.9379 15.0616 22.6789 15.0515 22.7043 15.2647C22.7145 15.3155 22.8871 15.3358 22.9531 15.3257C22.9531 15.3257 22.9277 15.3257 23.0191 15.3409L23.1309 15.346C23.2426 15.346 23.3594 15.3257 23.3594 15.3257C23.5117 15.2901 23.4863 15.2394 23.4863 15.2394C23.7148 15.1987 23.7402 15.0464 23.7402 15.0464H23.7352Z" fill="#FFD100" stroke="black" stroke-width="0.1" stroke-miterlimit="3"/>
<path d="M16.1992 14.0967C16.1992 14.0967 16.2094 14.0662 16.2348 14.0611C16.25 14.0611 16.2754 14.0713 16.2957 14.1018L16.3059 14.0916C16.3059 14.0916 16.2449 14.0002 16.2703 13.9393C16.2805 13.9139 16.3109 13.8885 16.3516 13.8885V13.8682C16.3008 13.8783 16.2703 13.8986 16.2551 13.9342C16.2506 13.9472 16.2489 13.9611 16.25 13.9748C16.25 14.0053 16.2602 14.0357 16.2703 14.0561C16.2586 14.0475 16.244 14.0439 16.2297 14.0459C16.2094 14.051 16.1941 14.0662 16.1891 14.0764L16.1992 14.0967ZM23.3594 15.3104C23.207 15.3357 22.9734 15.3459 22.9531 15.3002C22.9531 15.2951 22.9531 15.2596 23.0801 15.1783L23.0648 15.1529C22.9633 15.224 22.9125 15.2748 22.9328 15.3104C22.9633 15.3967 23.2984 15.3459 23.3644 15.3357L23.3594 15.3104ZM20.3937 15.4018C20.3582 15.3459 20.3734 15.2697 20.4445 15.1783L20.4191 15.1631C20.343 15.2646 20.3277 15.351 20.3684 15.417L20.3937 15.4018Z" fill="black"/>
<path d="M20.1855 15.1685C20.1855 15.2599 20.2516 15.3462 20.3785 15.4224L20.3938 15.402C20.277 15.331 20.216 15.2497 20.2109 15.1634C20.2109 15.0364 20.343 14.9399 20.343 14.9349L20.3277 14.9146C20.3227 14.9146 20.1754 15.0212 20.1855 15.1685V15.1685ZM22.8262 15.1989C22.7855 15.2649 22.8008 15.3411 22.8008 15.3411H22.8262C22.8262 15.3411 22.816 15.27 22.8516 15.2142C22.8636 15.1977 22.8787 15.1839 22.8962 15.1734C22.9136 15.163 22.933 15.1561 22.9531 15.1532V15.1278C22.8973 15.138 22.8516 15.1634 22.8262 15.1989ZM16.773 14.0157H16.7629V14.0208C16.7629 14.0208 16.7477 14.1021 16.7121 14.1224C16.707 14.1259 16.7011 14.1282 16.6949 14.129C16.6888 14.1299 16.6825 14.1294 16.6766 14.1274L16.6156 14.0919C16.6004 14.0767 16.5902 14.0716 16.575 14.0767C16.5599 14.0582 16.5526 14.0345 16.5547 14.0106C16.5598 13.97 16.5852 13.9345 16.6309 13.904L16.6258 13.8888C16.575 13.9243 16.5445 13.9649 16.5395 14.0056C16.5344 14.0563 16.5598 14.0868 16.5648 14.0919H16.5699C16.5852 14.0868 16.5902 14.0919 16.6055 14.1021L16.6715 14.1427H16.7223C16.7578 14.1173 16.773 14.0462 16.773 14.031C16.9406 14.0665 17.0777 13.8634 17.0777 13.8583L17.0676 13.8481C17.0676 13.8481 16.9305 14.0513 16.773 14.0157V14.0157Z" fill="black"/>
<path d="M16.377 13.9853C16.3668 14.0157 16.377 14.0513 16.3922 14.0817C16.4125 14.1122 16.4277 14.1274 16.448 14.1325C16.4734 14.1325 16.4887 14.1173 16.5039 14.1021C16.5141 14.0868 16.5293 14.0767 16.5344 14.0817L16.5496 14.0919L16.5648 14.0817L16.5395 14.0665C16.5242 14.0665 16.509 14.0767 16.4937 14.0868C16.4785 14.102 16.4633 14.1173 16.448 14.1122C16.4379 14.1122 16.4227 14.097 16.4074 14.0716C16.3992 14.059 16.3936 14.0448 16.391 14.03C16.3884 14.0151 16.3888 13.9999 16.3922 13.9853C16.4074 13.9142 16.4937 13.8583 16.4937 13.8583V13.8481C16.4887 13.8481 16.3922 13.8989 16.377 13.9853V13.9853ZM16.1484 15.0313C16.1586 15.0009 16.1789 14.9806 16.2145 14.9603C16.2094 14.9603 16.25 14.9958 16.2855 14.9907L16.3059 14.9806C16.316 14.9856 16.377 15.0415 16.377 15.1126C16.377 15.1278 16.377 15.1431 16.3668 15.1583L16.382 15.1634C16.4328 15.0618 16.316 14.9603 16.316 14.9603H16.3059L16.2805 14.9755C16.2551 14.9755 16.2195 14.945 16.2145 14.945C16.1687 14.9653 16.1434 14.9958 16.1332 15.0263L16.1484 15.0313ZM16.6766 14.7622C16.641 14.7622 16.5445 14.7825 16.5141 14.8282C16.5039 14.8485 16.5039 14.8688 16.5141 14.8892L16.5242 14.9247C16.5547 15.0009 16.5852 15.0821 16.6156 15.1024L16.6258 15.0872C16.5953 15.072 16.5648 14.9856 16.5395 14.9146L16.5242 14.8841C16.5206 14.877 16.5188 14.8692 16.5188 14.8612C16.5188 14.8533 16.5206 14.8455 16.5242 14.8384C16.5547 14.7978 16.6359 14.7774 16.6766 14.7774C16.6969 14.7774 16.702 14.8536 16.707 14.9044H16.7223C16.7223 14.8282 16.7121 14.7571 16.6715 14.7622H16.6766Z" fill="black"/>
<path d="M16.4176 14.838C16.4115 14.8438 16.4069 14.851 16.4042 14.8589C16.4015 14.8669 16.4009 14.8754 16.4023 14.8837C16.4023 14.8888 16.4074 15.0868 16.5039 15.1275L16.509 15.1122C16.4227 15.0767 16.4176 14.8837 16.4176 14.8837C16.4176 14.8837 16.4125 14.8634 16.4277 14.8482C16.4379 14.838 16.4684 14.838 16.509 14.8482V14.8329C16.4684 14.8177 16.4328 14.8228 16.4176 14.838Z" fill="black"/>
<path d="M16.3414 14.8533C16.3008 14.8838 16.3008 14.965 16.3008 14.9701H16.316C16.316 14.9701 16.316 14.8889 16.3516 14.8686C16.3617 14.8584 16.382 14.8584 16.4023 14.8686V14.8533C16.382 14.8432 16.3566 14.8432 16.3414 14.8533Z" fill="black"/>
<path d="M18.5711 13.766C18.5711 13.766 18.615 13.8673 18.615 13.9449C18.615 13.9584 18.6083 13.9686 18.6049 13.9787L18.588 13.9348L18.5779 13.9686C18.5779 13.9686 18.5576 14.0158 18.588 14.0665C18.6285 14.134 18.7298 14.1745 18.8919 14.1914V14.1948C18.8872 14.1947 18.8825 14.1959 18.8784 14.1981L18.8716 14.2049V14.2184C18.8784 14.2353 18.8953 14.2353 18.9324 14.2353L18.956 14.2387L18.9763 14.2454L18.9729 14.242C19.0067 14.242 19.0506 14.2522 19.0945 14.269L19.0607 14.2758L19.0978 14.2927C19.1012 14.2927 19.3916 14.4109 19.5097 14.5054C19.476 14.5358 19.3308 14.6404 19.081 14.5797L19.0404 14.5695L19.0675 14.6033C19.0675 14.6033 19.2329 14.7924 19.2667 14.9072C19.2093 14.9072 18.9898 14.9072 18.9121 14.8396L18.8953 14.8565C18.8953 14.8565 18.9966 15.0118 19.0236 15.13C18.9898 15.1367 18.9223 15.1401 18.8784 15.0827L18.8581 15.0591L18.848 15.1266C18.8277 15.1097 18.8007 15.0895 18.8007 15.0625V15.049L18.74 15.0591L18.6117 14.9814C18.6051 14.9766 18.5984 14.9721 18.5914 14.9679L18.5779 14.9916L18.5982 15.0017C18.6252 15.022 18.6724 15.0591 18.6758 15.1131H18.5948V15.13C18.5948 15.1401 18.5948 15.1773 18.5644 15.2549C18.5273 15.2482 18.3855 15.1975 18.301 14.9578L18.274 14.9646V14.9713C18.274 14.9949 18.2673 15.049 18.193 15.0692L17.9735 15.1367C17.9928 15.1091 18.0023 15.0758 18.0006 15.0422V15.0152C17.9964 14.9861 17.9942 14.9568 17.9938 14.9274C17.9938 14.8768 18.0039 14.8464 18.0411 14.8261L18.0276 14.7991C18.0242 14.7991 17.7035 14.9308 17.5448 14.8768C17.5515 14.843 17.5785 14.735 17.6325 14.6202L17.6258 14.6269C17.6359 14.6202 17.6461 14.6067 17.6359 14.5527V14.5358L17.619 14.5425C17.619 14.5425 17.5178 14.5898 17.3692 14.5358C17.3692 14.5223 17.3793 14.502 17.4097 14.4885L17.4198 14.4851V14.4581C17.4198 14.4176 17.4232 14.3231 17.4806 14.3028L17.4739 14.2758C17.4739 14.2758 17.3017 14.2893 17.197 14.2319C17.2422 14.1994 17.2941 14.1775 17.3489 14.1678H17.3591V14.1543C17.3586 14.1275 17.3529 14.1011 17.3422 14.0766C17.3827 14.0901 17.43 14.1002 17.4469 14.0867L17.4536 14.0834L17.4469 13.9787H17.4198L17.4232 14.0665L17.3219 14.0428L17.2814 14.0293L17.3084 14.0631C17.3248 14.0869 17.333 14.1153 17.3321 14.1441C17.2708 14.1574 17.2132 14.1839 17.1633 14.2218L17.1464 14.2353L17.1633 14.2454C17.2443 14.2994 17.3692 14.3062 17.4334 14.3028C17.4046 14.3483 17.3894 14.401 17.3895 14.4547V14.4682C17.376 14.4761 17.3645 14.4868 17.3558 14.4997C17.347 14.5125 17.3412 14.5272 17.3388 14.5425V14.5527L17.3456 14.556C17.4293 14.5946 17.5244 14.6006 17.6123 14.5729V14.6033C17.5448 14.7451 17.511 14.8835 17.511 14.8835V14.897H17.5211C17.6528 14.951 17.8824 14.8801 17.9871 14.843C17.9736 14.8666 17.9634 14.8937 17.9634 14.9274C17.9638 14.9659 17.9672 15.0043 17.9735 15.0422C17.9735 15.1199 17.9229 15.1502 17.9195 15.1502L17.9297 15.1773L18.1998 15.0962C18.2605 15.0793 18.2842 15.0422 18.2943 15.0118C18.399 15.2617 18.5644 15.2819 18.5745 15.2853H18.5847L18.588 15.2752C18.6059 15.2321 18.6173 15.1866 18.6218 15.1401C18.6488 15.1391 18.6758 15.1379 18.7028 15.1367V15.1199C18.7028 15.0962 18.6994 15.076 18.6893 15.0591L18.7366 15.0861L18.7805 15.0793C18.7906 15.1232 18.8446 15.1604 18.8514 15.1638L18.8683 15.1739L18.8784 15.1165C18.9459 15.1739 19.0371 15.157 19.0438 15.157L19.0539 15.1536V15.1401C19.0404 15.049 18.9797 14.9409 18.9425 14.8835C19.0607 14.9375 19.2768 14.9342 19.2869 14.9342H19.3004V14.9173C19.2559 14.8056 19.1919 14.7027 19.1113 14.6134C19.3882 14.6641 19.5367 14.5189 19.5435 14.5121L19.5536 14.502L19.5401 14.4953C19.4188 14.4085 19.2873 14.3371 19.1485 14.2826L19.1789 14.2758L19.1451 14.2589C19.0845 14.228 19.0174 14.2118 18.9493 14.2117C18.9155 14.1711 18.8986 14.1678 18.8953 14.1644C18.7062 14.1441 18.6387 14.0935 18.6117 14.053V14.0428L18.6184 14.0327C18.6353 14.0091 18.642 13.9787 18.642 13.9449C18.642 13.8571 18.5982 13.7592 18.5982 13.7559L18.5711 13.766V13.766Z" fill="black"/>
<path d="M17.7102 13.712C17.7102 13.712 17.6899 13.8133 17.6022 13.8639C17.5346 13.8977 17.4502 13.8977 17.3456 13.8538L17.3321 13.8504V13.8639C17.3396 13.9074 17.3638 13.9462 17.3996 13.972C17.4435 14.0057 17.511 14.0192 17.5988 14.0125C17.5684 14.0462 17.4772 14.161 17.4772 14.2758V14.2927C17.4907 14.2995 17.6325 14.34 17.7001 14.2556C17.7001 14.2893 17.7136 14.4075 17.7575 14.4514C17.7845 14.4784 17.7912 14.5122 17.7912 14.5425C17.7912 14.5696 17.7845 14.5898 17.7845 14.5898L17.7777 14.6101L17.7946 14.5966C17.8014 14.5932 17.933 14.4953 17.9735 14.3704C17.9735 14.3704 17.9972 14.3366 18.0377 14.3265V14.3434C18.0377 14.394 18.058 14.4818 18.1998 14.5358L18.2099 14.5392V14.529C18.2095 14.5212 18.2095 14.5133 18.2099 14.5054C18.2099 14.4683 18.2099 14.4041 18.247 14.3704C18.262 14.3565 18.272 14.3381 18.2757 14.318C18.2793 14.2979 18.2764 14.2772 18.2673 14.2589C18.2977 14.2657 18.3652 14.2893 18.3922 14.34C18.4327 14.4143 18.5711 14.3535 18.5779 14.3535L18.5745 14.3366C18.5745 14.3366 18.5137 14.3501 18.4766 14.3265C18.4688 14.3204 18.4624 14.3127 18.4577 14.304C18.4531 14.2953 18.4503 14.2857 18.4496 14.2758L18.4428 14.1948C18.4428 14.161 18.4361 14.1374 18.4192 14.1205C18.4361 14.1205 18.4732 14.1205 18.4867 14.1543C18.5137 14.2083 18.5982 14.2117 18.6015 14.2117L18.6319 14.2151L18.6083 14.1982C18.6083 14.1982 18.534 14.1509 18.5475 14.0868L18.5576 14.0395C18.5779 13.9551 18.6117 13.8167 18.5813 13.7289L18.5678 13.7356C18.5745 13.7559 18.5779 13.7829 18.5779 13.8099C18.5779 13.8842 18.5543 13.9787 18.5441 14.0361L18.5306 14.0834C18.5301 14.089 18.5301 14.0946 18.5306 14.1003C18.5306 14.1442 18.5543 14.1745 18.5745 14.1914C18.5509 14.188 18.5171 14.1745 18.507 14.1475C18.4834 14.1003 18.4293 14.1003 18.4057 14.1036L18.3854 14.107L18.399 14.1205C18.4226 14.134 18.426 14.1543 18.426 14.1982L18.4327 14.2758C18.4361 14.3028 18.4496 14.3231 18.4665 14.3366C18.4867 14.3501 18.507 14.3501 18.5239 14.3535C18.4834 14.3636 18.426 14.3704 18.4057 14.3332C18.3686 14.2589 18.2605 14.2421 18.2572 14.2387H18.2403L18.247 14.2522C18.247 14.2522 18.2605 14.2725 18.2605 14.2995C18.2605 14.3163 18.2538 14.34 18.2369 14.3569C18.1998 14.394 18.193 14.4649 18.193 14.502V14.5155C18.0715 14.4649 18.0512 14.3906 18.0512 14.3467V14.313L18.058 14.3028H18.0445C18.0267 14.3059 18.0098 14.3129 17.9952 14.3234C17.9806 14.334 17.9685 14.3477 17.96 14.3636C17.9265 14.4461 17.8717 14.5183 17.8014 14.5729C17.8033 14.5618 17.8044 14.5505 17.8047 14.5392C17.8047 14.5088 17.798 14.4716 17.771 14.4413C17.7203 14.394 17.7136 14.2387 17.7136 14.2387V14.2117L17.7001 14.2353C17.6461 14.3298 17.4907 14.2826 17.4874 14.2826C17.4806 14.1644 17.6224 14.0091 17.6224 14.0057L17.6359 13.9922H17.6157C17.5245 14.0057 17.4536 13.9922 17.4063 13.9585C17.3795 13.9371 17.3605 13.9074 17.3523 13.8741C17.4536 13.9112 17.5414 13.9146 17.6089 13.8774C17.6381 13.8597 17.6634 13.8362 17.6831 13.8083C17.7028 13.7804 17.7167 13.7488 17.7237 13.7154C17.825 13.4925 17.9094 13.4554 17.9094 13.4554L17.906 13.4419C17.8993 13.4419 17.8115 13.4757 17.7102 13.712V13.712Z" fill="black"/>
<path d="M17.9364 13.3779H17.9297L17.8486 13.4894H17.8723C18.1242 13.5092 18.3604 13.6195 18.5374 13.8L18.5475 13.8101L18.6252 13.7257L18.6184 13.7156C18.399 13.3712 17.9398 13.3779 17.933 13.3779H17.9364ZM17.9432 13.4083C17.9972 13.4083 18.3888 13.4185 18.5914 13.7223L18.5475 13.7696C18.3694 13.6003 18.1403 13.4947 17.8959 13.4691C17.9116 13.4488 17.9274 13.4286 17.9432 13.4083V13.4083Z" fill="black"/>
<path d="M17.8723 13.6075C17.8359 13.655 17.8116 13.7106 17.8014 13.7696L17.8047 13.7831C17.7813 13.8077 17.7632 13.8369 17.7516 13.8689C17.7399 13.9008 17.7351 13.9348 17.7372 13.9688C17.7372 14.0127 17.744 14.0566 17.7575 14.0971L17.7676 14.1207C17.8081 14.2355 17.8453 14.3368 18.031 14.276C18.2065 14.222 18.2133 14.2085 18.2572 14.1342L18.2707 14.1173C18.2943 14.0768 18.3213 14.0701 18.3483 14.0599C18.3821 14.0498 18.4158 14.0397 18.4496 13.9789L18.4766 13.935C18.5104 13.8911 18.5509 13.8337 18.5543 13.7662H18.5408C18.5307 13.8248 18.5051 13.8796 18.4665 13.9249L18.4327 13.9721C18.4254 13.9908 18.4135 14.0074 18.3982 14.0203C18.3829 14.0333 18.3646 14.0422 18.3449 14.0464C18.3269 14.0499 18.3097 14.057 18.2946 14.0675C18.2795 14.078 18.2667 14.0915 18.2572 14.1072L18.2437 14.1275C18.2031 14.1984 18.1964 14.2085 18.0242 14.2625C17.8554 14.3165 17.8216 14.2321 17.7811 14.1139L17.771 14.0903C17.7237 13.962 17.7609 13.8337 17.825 13.7865L17.8453 13.7696L17.8149 13.7729V13.7696C17.8149 13.7459 17.8385 13.6818 17.8824 13.6176C17.9229 13.5636 18.0174 13.513 18.0174 13.5096L18.0107 13.4961C18.0039 13.4995 17.9128 13.5535 17.8723 13.6075V13.6075Z" fill="black"/>
<path d="M17.7912 14.0769C17.8216 14.0971 17.8621 14.0937 17.9162 14.0769C17.9162 14.0937 17.9162 14.1343 17.9499 14.1613C17.9904 14.195 18.0512 14.2018 18.1356 14.1815V14.1646C18.0546 14.1849 17.9938 14.1781 17.96 14.1478C17.9493 14.1373 17.941 14.1247 17.9358 14.1107C17.9305 14.0966 17.9284 14.0816 17.9297 14.0667V14.0532L17.9195 14.06C17.8689 14.0802 17.8284 14.0836 17.798 14.06C17.7473 14.0262 17.7507 13.9351 17.7507 13.9351H17.7372C17.7372 13.9351 17.7305 14.0363 17.7912 14.0769V14.0769Z" fill="black"/>
<path d="M17.8858 13.9517C17.8655 13.9585 17.8588 13.9753 17.8588 13.9888V13.999C17.8655 14.0395 17.9094 14.0665 17.9465 14.0766C17.9871 14.0867 18.0343 14.0901 18.0512 14.0665C18.058 14.0564 18.0647 14.0395 18.0512 14.0091C18.0367 13.9806 18.0118 13.9588 17.9816 13.9481C17.9515 13.9374 17.9184 13.9387 17.8891 13.9517H17.8858ZM17.9533 14.0631C17.9195 14.053 17.879 14.0294 17.8756 13.9956C17.8756 13.9956 17.8723 13.972 17.8925 13.9652C17.9186 13.9546 17.9477 13.9543 17.974 13.9643C18.0003 13.9744 18.0219 13.994 18.0343 14.0192C18.0445 14.0327 18.0445 14.0462 18.0377 14.053C18.0276 14.0699 17.9904 14.0732 17.9533 14.0631V14.0631ZM17.9398 14.1543C17.9297 14.2387 17.9398 14.2421 17.9432 14.2421H17.9499L17.9567 14.2387L18.0039 14.1712L17.9432 14.1441V14.1543H17.9398ZM17.9567 14.1678L17.9803 14.1779L17.9533 14.215V14.1678H17.9567ZM17.8149 14.0867L17.8115 14.1644L17.879 14.0834L17.8115 14.0766V14.0867H17.8149ZM17.8284 14.0935H17.8486L17.8284 14.1205V14.0935Z" fill="black"/>
<path d="M17.7676 14.0598C17.7676 14.0598 17.8182 14.1577 17.8284 14.1948C17.8318 14.2151 17.8621 14.2421 17.8959 14.2522C17.9297 14.2657 17.9634 14.2657 17.9871 14.2488L18.0309 14.2117C18.0445 14.1948 18.0512 14.1914 18.0647 14.1948V14.1779C18.0445 14.1779 18.0343 14.1847 18.0208 14.1982L17.9769 14.232C17.9499 14.2522 17.9195 14.2455 17.9027 14.2387C17.8689 14.2286 17.8453 14.2049 17.8419 14.1881C17.8318 14.1543 17.7845 14.0564 17.7811 14.053L17.7676 14.0598V14.0598ZM17.8351 13.7694C17.7971 13.7894 17.7681 13.8233 17.7541 13.8639L17.7676 13.8673C17.7676 13.8673 17.7912 13.8065 17.8385 13.7829C17.8512 13.7771 17.865 13.7741 17.879 13.7741C17.893 13.7741 17.9068 13.7771 17.9195 13.7829L17.9229 13.7694C17.8891 13.7559 17.8621 13.7559 17.8318 13.7694H17.8351ZM18.1998 13.945C18.2065 13.945 18.3078 14.026 18.2504 14.1205L18.2605 14.1307C18.3281 14.0192 18.2099 13.9315 18.2099 13.9281L18.1998 13.945ZM17.8891 13.9585C17.8891 13.9585 17.8723 14.0159 17.9567 14.0361C17.9567 14.0361 17.879 14.0361 17.8723 14.0159C17.8689 13.9956 17.8723 13.9517 17.8891 13.9585V13.9585ZM18.1424 14.026C18.1424 14.0328 18.1356 14.0361 18.1322 14.0361C18.13 14.0363 18.1279 14.0357 18.126 14.0344C18.1242 14.0332 18.1228 14.0314 18.1221 14.0294C18.1221 14.0226 18.1255 14.0192 18.1322 14.0192C18.1356 14.0192 18.1424 14.0226 18.1424 14.0294V14.026ZM18.1491 14.0665C18.1491 14.0699 18.1491 14.0733 18.1424 14.0733C18.1402 14.0734 18.138 14.0728 18.1362 14.0716C18.1343 14.0704 18.133 14.0686 18.1322 14.0665C18.1322 14.0638 18.1333 14.0613 18.1352 14.0594C18.1371 14.0575 18.1397 14.0564 18.1424 14.0564C18.1457 14.0564 18.1491 14.0598 18.1491 14.0665Z" fill="black"/>
<path d="M18.0883 14.0564C18.0939 14.0564 18.0985 14.0519 18.0985 14.0463C18.0985 14.0407 18.0939 14.0361 18.0883 14.0361C18.0828 14.0361 18.0782 14.0407 18.0782 14.0463C18.0782 14.0519 18.0828 14.0564 18.0883 14.0564Z" fill="black"/>
<path d="M18.1154 14.1006C18.1154 14.1033 18.1143 14.1059 18.1124 14.1078C18.1105 14.1097 18.1079 14.1107 18.1052 14.1107C18.1025 14.1107 18.1 14.1097 18.0981 14.1078C18.0962 14.1059 18.0951 14.1033 18.0951 14.1006C18.0951 14.0972 18.0985 14.0939 18.1052 14.0939L18.1154 14.1006V14.1006ZM17.8756 13.8541C17.8756 13.8568 17.8746 13.8594 17.8727 13.8613C17.8708 13.8632 17.8682 13.8643 17.8655 13.8643C17.8628 13.8643 17.8603 13.8632 17.8584 13.8613C17.8565 13.8594 17.8554 13.8568 17.8554 13.8541C17.8563 13.8527 17.8576 13.8516 17.859 13.8508C17.8605 13.85 17.8622 13.8496 17.8638 13.8496C17.8655 13.8496 17.8671 13.85 17.8686 13.8508C17.8701 13.8516 17.8713 13.8527 17.8723 13.8541H17.8756Z" fill="black"/>
<path d="M17.8723 13.9011C17.8779 13.9011 17.8824 13.8966 17.8824 13.891C17.8824 13.8854 17.8779 13.8809 17.8723 13.8809C17.8667 13.8809 17.8621 13.8854 17.8621 13.891C17.8621 13.8966 17.8667 13.9011 17.8723 13.9011Z" fill="black"/>
<path d="M17.8216 13.8845C17.8272 13.8845 17.8318 13.88 17.8318 13.8744C17.8318 13.8688 17.8272 13.8643 17.8216 13.8643C17.816 13.8643 17.8115 13.8688 17.8115 13.8744C17.8115 13.88 17.816 13.8845 17.8216 13.8845Z" fill="black"/>
<path d="M17.8453 13.9281C17.8454 13.9303 17.8448 13.9325 17.8436 13.9343C17.8424 13.9362 17.8406 13.9375 17.8385 13.9383C17.8358 13.9383 17.8332 13.9372 17.8313 13.9353C17.8294 13.9334 17.8284 13.9308 17.8284 13.9281C17.8284 13.9255 17.8294 13.9229 17.8313 13.921C17.8332 13.9191 17.8358 13.918 17.8385 13.918C17.8406 13.9187 17.8424 13.9201 17.8436 13.922C17.8448 13.9238 17.8454 13.926 17.8453 13.9281V13.9281ZM18.0073 13.604C18.0073 13.604 18.1255 13.6783 18.0107 13.8167C18.0107 13.8167 18.0681 13.7728 18.0715 13.7019C18.0782 13.631 18.031 13.5736 18.0039 13.604H18.0073ZM18.4631 13.8032C18.4226 13.8235 18.3686 13.7863 18.3416 13.7526C18.3146 13.7188 18.2572 13.7087 18.22 13.7728C18.1863 13.8336 18.1356 13.8572 18.1356 13.8572C18.1356 13.8572 18.1863 13.8302 18.2369 13.7728C18.2875 13.7188 18.3179 13.7627 18.3686 13.7897C18.4158 13.8167 18.426 13.8235 18.4597 13.8066V13.8032H18.4631Z" fill="black"/>
<path d="M18.453 13.8133C18.4422 13.8216 18.4288 13.8258 18.4152 13.8252C18.4016 13.8246 18.3887 13.8192 18.3787 13.8099C18.3449 13.7829 18.3213 13.7491 18.2842 13.7694C18.2437 13.7896 18.1728 13.8436 18.1728 13.8436C18.1728 13.8436 18.2909 13.7626 18.3146 13.7829C18.3348 13.7997 18.3888 13.8436 18.4192 13.8301L18.453 13.8133V13.8133Z" fill="black"/>
<path d="M18.3618 13.8609C18.3247 13.8339 18.2875 13.8947 18.2572 13.8879C18.2234 13.8812 18.1998 13.8271 18.1998 13.8271C18.1998 13.8271 18.2268 13.8812 18.2673 13.871C18.3112 13.8575 18.3382 13.8305 18.3652 13.8508C18.3888 13.871 18.3618 13.8609 18.3618 13.8609V13.8609Z" fill="black"/>
<path d="M18.3044 13.8708C18.2948 13.8728 18.2848 13.8726 18.2752 13.8703C18.2657 13.868 18.2567 13.8637 18.249 13.8576C18.2413 13.8515 18.235 13.8437 18.2305 13.8349C18.2261 13.8261 18.2237 13.8165 18.2234 13.8066C18.2234 13.8066 18.247 13.8674 18.3112 13.8573L18.3044 13.8708Z" fill="black"/>
<path d="M18.301 13.8237C18.3044 13.8405 18.3044 13.8507 18.2842 13.8507C18.2639 13.8507 18.2504 13.8439 18.2504 13.8237C18.2504 13.8068 18.2977 13.8101 18.301 13.8237ZM18.0377 13.7224C18.0369 13.728 18.034 13.7332 18.0297 13.7369C18.0253 13.7407 18.0198 13.7427 18.0141 13.7426C18.0006 13.7426 17.9972 13.7359 17.9972 13.7224C17.9972 13.7089 17.9972 13.6987 18.0141 13.6987C18.0309 13.6987 18.0377 13.7089 18.0377 13.7224Z" fill="black"/>
<path d="M17.9533 13.638C17.9533 13.638 18.0816 13.638 18.0208 13.7967C18.0208 13.7967 18.0681 13.719 18.0377 13.6616C18.0039 13.6076 17.96 13.6211 17.96 13.6211C17.96 13.6211 17.9465 13.6313 17.9533 13.638Z" fill="black"/>
<path d="M17.9533 13.702C17.9533 13.7357 17.9736 13.7661 18.0141 13.7999L18.0242 13.7864C17.9871 13.756 17.9668 13.729 17.9668 13.702C17.9668 13.675 17.9871 13.6581 17.9871 13.6581L17.9769 13.6479C17.9769 13.6479 17.9533 13.6682 17.9499 13.702H17.9533Z" fill="black"/>
<path d="M17.9803 13.7291C17.9837 13.7459 18.0006 13.7628 18.0208 13.7696L18.0276 13.7561C18.0107 13.7493 17.9972 13.7358 17.9938 13.7223C17.9871 13.6953 18.0073 13.6649 18.0073 13.6649L17.9938 13.6548C17.9938 13.6548 17.9702 13.6953 17.9803 13.7291V13.7291ZM18.1525 13.8168C18.1525 13.8168 18.1761 13.8675 18.1424 13.9215L18.1086 13.9755C18.1086 13.9755 18.1491 13.8979 18.1322 13.8675C18.1187 13.8337 18.1525 13.8168 18.1525 13.8168V13.8168ZM18.6454 14.3503C18.7737 14.3739 19.0675 14.6035 19.0675 14.6035L19.0843 14.5833C19.0742 14.5731 18.7839 14.3469 18.6488 14.3233L18.6421 14.3503H18.6454ZM18.7602 14.671C18.767 14.7892 18.8953 14.8601 18.8953 14.8635L18.9122 14.8398C18.9122 14.8398 18.794 14.7723 18.7872 14.671H18.7602ZM18.4462 14.698C18.4462 14.8263 18.5678 14.9816 18.5745 14.9884L18.5948 14.9715C18.5948 14.9715 18.4732 14.8162 18.4732 14.698H18.4462ZM18.0377 14.7115C18.058 14.7554 18.058 14.7757 18.0512 14.7858C18.0445 14.7993 18.031 14.7993 18.031 14.7993L18.0343 14.8263C18.0445 14.8263 18.0647 14.8196 18.0748 14.7993C18.0883 14.7757 18.085 14.7419 18.0613 14.698L18.0377 14.7115Z" fill="black"/>
<path d="M16.1992 14.0716C16.1992 14.0716 16.1992 14.1579 16.2703 14.2087C16.2703 14.2087 16.2602 14.1173 16.2805 14.0766C16.2805 14.0766 16.2449 14.036 16.1941 14.0766L16.1992 14.0716ZM16.3312 14.1274C16.3312 14.1274 16.3465 14.2036 16.3922 14.2391L16.4176 14.2341C16.4176 14.2341 16.4328 14.1325 16.448 14.1224C16.4633 14.1122 16.382 14.1579 16.3312 14.1274Z" fill="white" stroke="black" stroke-width="0.025" stroke-miterlimit="3"/>
<path d="M16.448 14.1225L16.4988 14.2038L16.5598 14.1733L16.5445 14.0768C16.5445 14.0768 16.509 14.0667 16.443 14.1276L16.448 14.1225Z" fill="white" stroke="black" stroke-width="0.025" stroke-miterlimit="3"/>
<path d="M16.6867 14.1376L16.6207 14.1935C16.6207 14.1935 16.5852 14.1681 16.5547 14.1732L16.5699 14.0868C16.5699 14.0868 16.6207 14.0513 16.6867 14.1376V14.1376ZM16.2094 14.9501C16.2094 14.9501 16.1992 14.8333 16.2144 14.8232C16.2144 14.8232 16.2652 14.8384 16.2805 14.8232C16.2805 14.8232 16.3109 14.9197 16.3008 14.9552C16.2957 14.9958 16.25 14.9806 16.2094 14.9552V14.9501ZM16.5141 14.8282C16.5141 14.8282 16.5141 14.7267 16.5293 14.7115C16.5293 14.7115 16.6309 14.7267 16.6512 14.6759L16.6867 14.7724C16.6867 14.7724 16.575 14.7622 16.5141 14.8232V14.8282Z" fill="white" stroke="black" stroke-width="0.025" stroke-miterlimit="3"/>
<path d="M16.4074 14.8485C16.4074 14.8485 16.4277 14.7419 16.448 14.7368C16.448 14.7368 16.4988 14.7521 16.5141 14.7368V14.8638C16.5141 14.8638 16.5141 14.8079 16.4125 14.8485H16.4074ZM16.2957 14.8638C16.2957 14.8638 16.316 14.7673 16.3312 14.7673C16.3465 14.7673 16.3871 14.7927 16.4074 14.7774V14.8485C16.4074 14.8485 16.3211 14.8282 16.3059 14.9501L16.2957 14.8638Z" fill="white" stroke="black" stroke-width="0.025" stroke-miterlimit="3"/>
<path d="M17.8242 16.8189C17.8242 16.8189 18.0934 17.0728 18.0273 17.286C18.0273 17.286 18.1949 16.9153 18.0121 16.8087C17.8242 16.697 17.8191 16.7833 17.8242 16.8189Z" fill="#00A651" stroke="black" stroke-width="0.0625" stroke-miterlimit="4.8"/>
<path d="M17.4891 17.0626C17.4891 17.0626 17.418 17.159 17.4941 17.2251C17.4941 17.2251 17.4129 17.3469 17.4738 17.4485C17.4738 17.4485 17.423 17.5551 17.4383 17.6719C17.4383 17.6719 17.3926 17.8497 17.4891 17.9309C17.4891 17.9309 17.5906 17.9817 17.6363 17.9411C17.6363 17.9411 17.7227 17.804 17.6668 17.6669C17.6668 17.6669 17.7328 17.5501 17.6617 17.4079C17.6617 17.4079 17.682 17.3215 17.6211 17.2251C17.6211 17.2251 17.6617 17.1641 17.6262 17.1133C17.6262 17.1133 17.4992 16.9813 17.4891 17.0626V17.0626Z" fill="#964B36" stroke="black" stroke-width="0.0625" stroke-miterlimit="4.8"/>
<path d="M17.5652 16.7477C17.5652 16.7477 17.2453 16.1383 17.0219 16.1129C16.8035 16.0875 16.7883 15.8691 16.7883 15.8691C16.7883 15.8691 16.8137 15.9707 16.9914 15.9707C17.1691 15.9707 17.5145 16.2246 17.55 16.4125C17.5906 16.6055 17.6262 16.5801 17.6262 16.5801L17.5652 16.7477Z" fill="#00A651" stroke="black" stroke-width="0.0625" stroke-miterlimit="4.8"/>
<path d="M17.5652 16.7071C17.5652 16.7071 17.682 15.9353 18.1848 15.92C18.6875 15.9048 18.5199 15.9606 18.6418 15.8794C18.6418 15.8794 18.3016 16.0571 18.0934 16.0825C17.8852 16.1079 17.7125 16.5142 17.7176 16.5903C17.7227 16.6665 17.6059 16.8138 17.5449 16.763C17.4891 16.7122 17.5652 16.7071 17.5652 16.7071V16.7071Z" fill="#00A651" stroke="black" stroke-width="0.0625" stroke-miterlimit="4.8"/>
<path d="M17.677 16.9915C17.677 16.9915 17.7938 16.6868 17.9918 16.7884C17.9918 16.7884 17.8395 16.4938 17.5652 16.7477C17.5652 16.7477 17.6871 16.9153 17.682 16.9915H17.677ZM17.2961 16.6868C17.2961 16.6868 17.4688 17.3673 17.2148 17.5704C17.2148 17.5704 17.2199 17.22 17.0676 17.0118C16.9152 16.8036 17.2199 16.5751 17.3012 16.6817L17.2961 16.6868Z" fill="#00A651" stroke="black" stroke-width="0.0625" stroke-miterlimit="4.8"/>
<path d="M17.3164 16.8087C17.3164 16.8087 17.6211 17.0931 17.6363 17.1896C17.6566 17.286 17.7227 16.9052 17.5855 16.7935C17.4985 16.7289 17.3977 16.6855 17.291 16.6665L17.3164 16.8087Z" fill="#00A651" stroke="black" stroke-width="0.0625" stroke-miterlimit="4.8"/>
<path d="M16.7629 17.5601C16.7629 17.5601 16.7934 17.6769 16.8645 17.7022C16.8645 17.7022 16.8695 17.7886 16.9355 17.819C16.9355 17.819 16.9 17.8901 16.9609 17.9358C16.9609 17.9358 16.9457 18.0882 17.0016 18.1187C17.0016 18.1187 17.1336 18.1085 17.1793 18.0679C17.1793 18.0679 17.2098 17.9714 17.1336 17.8749C17.1336 17.8749 17.1438 17.7835 17.0727 17.7327C17.0727 17.7327 17.093 17.6058 17.0016 17.5601C17.0016 17.5601 16.9863 17.4585 16.9305 17.4077C16.9305 17.4077 16.8137 17.5702 16.7629 17.5601V17.5601Z" fill="#964B36" stroke="black" stroke-width="0.0625" stroke-miterlimit="4.8"/>
<path d="M16.9102 17.4129C16.9102 17.4129 16.5191 17.2656 16.3008 17.4738C16.3008 17.4738 16.6359 17.5195 16.6816 17.5855C16.7223 17.6515 16.9305 17.4789 16.9152 17.4129H16.9102Z" fill="#00A651" stroke="black" stroke-width="0.0625" stroke-miterlimit="4.8"/>
<path d="M16.7934 17.6565L16.7223 17.6006C16.6816 17.5752 16.3516 17.4838 16.3059 17.8037C16.3059 17.8037 16.1891 17.4889 16.3617 17.4483C16.5344 17.3975 16.6766 17.499 16.7934 17.6514M16.5344 17.0065C16.5344 17.0065 16.6563 17.2604 16.702 17.2807C16.7426 17.2908 16.7781 17.2451 16.7781 17.2451C16.7781 17.2451 16.6156 17.0115 16.5344 17.0065ZM16.443 16.6002C16.443 16.6002 16.3414 16.2651 16.2246 16.3565C16.1027 16.4428 16.1332 16.6865 16.1332 16.6865C16.1332 16.6865 15.8895 16.4377 16.0316 16.2397C16.1738 16.0416 16.448 16.26 16.448 16.6053L16.443 16.6002Z" fill="#00A651"/>
<path d="M16.7934 17.6565L16.7223 17.6006C16.6816 17.5752 16.3516 17.4838 16.3059 17.8037C16.3059 17.8037 16.1891 17.4889 16.3617 17.4483C16.5344 17.3975 16.6766 17.499 16.7934 17.6514M16.5344 17.0065C16.5344 17.0065 16.6563 17.2604 16.702 17.2807C16.7426 17.2908 16.7781 17.2451 16.7781 17.2451C16.7781 17.2451 16.6156 17.0115 16.5344 17.0065ZM16.443 16.6002C16.443 16.6002 16.3414 16.2651 16.2246 16.3565C16.1027 16.4428 16.1332 16.6865 16.1332 16.6865C16.1332 16.6865 15.8895 16.4377 16.0316 16.2397C16.1738 16.0416 16.448 16.26 16.448 16.6053L16.443 16.6002Z" stroke="black" stroke-width="0.0625" stroke-miterlimit="4.8"/>
<path d="M16.7172 17.2963C16.7172 17.2963 16.7172 17.3623 16.768 17.3776C16.8086 17.3979 16.8898 17.4283 16.8898 17.3928C16.8898 17.3573 16.8289 17.21 16.8035 17.2252C16.7781 17.2455 16.7324 17.2455 16.7172 17.2963Z" fill="#964B36" stroke="black" stroke-width="0.0625" stroke-miterlimit="4.8"/>
<path d="M16.641 16.9053C16.641 16.9053 16.6309 16.6107 16.8188 16.499C16.8188 16.499 16.8594 16.5092 16.8797 16.4482C16.8797 16.4482 16.7273 16.8189 16.768 17.0068V17.0322" fill="#00A651"/>
<path d="M16.641 16.9053C16.641 16.9053 16.6309 16.6107 16.8188 16.499C16.8188 16.499 16.8594 16.5092 16.8797 16.4482C16.8797 16.4482 16.7273 16.8189 16.768 17.0068V17.0322" stroke="black" stroke-width="0.0625" stroke-miterlimit="4.8"/>
<path d="M16.6816 16.5447C16.6816 16.5447 17.027 15.8338 17.4434 16.0826C17.4434 16.0826 17.0066 16.1689 16.8492 16.4838L16.6867 16.7174L16.6816 16.5447Z" fill="#00A651" stroke="black" stroke-width="0.0625" stroke-miterlimit="4.8"/>
<path d="M16.4988 16.8086C16.4988 16.8086 16.3973 16.3313 16.3312 16.2653C16.2652 16.2043 16.1586 16.1332 16.0316 16.2399C16.0316 16.2399 16.2551 16.0418 16.4887 16.2094C16.7273 16.377 16.6766 16.636 16.6766 16.636L16.6512 16.9661L16.4887 16.8188" fill="#00A651"/>
<path d="M16.4988 16.8086C16.4988 16.8086 16.3973 16.3313 16.3312 16.2653C16.2652 16.2043 16.1586 16.1332 16.0316 16.2399C16.0316 16.2399 16.2551 16.0418 16.4887 16.2094C16.7273 16.377 16.6766 16.636 16.6766 16.636L16.6512 16.9661L16.4887 16.8188" stroke="black" stroke-width="0.0625" stroke-miterlimit="4.8"/>
<path d="M16.8645 17.3721C16.8645 17.3721 16.443 16.5799 16.1738 17.1436C16.1738 17.1436 16.123 17.2909 16.1738 17.3467C16.1738 17.3467 16.0215 17.235 16.0926 16.9506C16.1637 16.6764 16.6309 16.7983 16.7629 17.0319C16.8949 17.2604 16.9355 17.3721 16.9152 17.3873C16.8949 17.3975 16.8645 17.3721 16.8645 17.3721V17.3721ZM18.0477 17.6006C18.0477 17.6006 18.3523 16.9709 18.5352 17.2604C18.5352 17.2604 18.5859 17.3975 18.5047 17.4584C18.5047 17.4584 18.3879 17.3061 18.2762 17.4889C18.1746 17.6666 18.2152 17.6514 18.2152 17.6514C18.2152 17.6514 18.0984 17.6869 18.0477 17.6006Z" fill="#00A651" stroke="black" stroke-width="0.0625" stroke-miterlimit="4.8"/>
<path d="M18.5047 17.4588C18.5047 17.4588 18.6723 17.5451 18.6164 17.7229C18.6164 17.7229 18.8398 17.2963 18.5301 17.2607C18.5301 17.2607 18.591 17.3928 18.5098 17.4588H18.5047ZM18.525 17.0221C18.525 17.0221 18.9312 17.1389 18.9414 17.3115C18.9414 17.3115 19.0074 16.9814 18.7789 16.8799C18.7789 16.8799 18.5047 16.9205 18.525 17.0221Z" fill="#00A651" stroke="black" stroke-width="0.0625" stroke-miterlimit="4.8"/>
<path d="M18.7027 16.4935C18.8754 16.1584 19.0937 16.6052 19.0937 16.6052C19.0937 16.6052 19.1699 16.2498 18.9516 16.1888C18.7332 16.1279 18.5961 16.9353 18.5961 16.9353L18.3422 16.9912C18.3422 16.9912 18.4133 16.2853 18.7941 16.2193L18.8398 16.2295" fill="#00A651"/>
<path d="M18.7027 16.4935C18.8754 16.1584 19.0937 16.6052 19.0937 16.6052C19.0937 16.6052 19.1699 16.2498 18.9516 16.1888C18.7332 16.1279 18.5961 16.9353 18.5961 16.9353L18.3422 16.9912C18.3422 16.9912 18.4133 16.2853 18.7941 16.2193L18.8398 16.2295" stroke="black" stroke-width="0.0625" stroke-miterlimit="4.8"/>
<path d="M18.398 16.6968C18.398 16.6968 18.1543 16.2042 17.9918 16.1534C17.8242 16.1027 18.0832 16.0265 18.1848 16.1179C18.2863 16.2195 18.4742 16.3363 18.4539 16.5902L18.4031 16.6968H18.398ZM18.1492 17.3773C18.1492 17.3773 18.2203 17.0421 18.4133 16.9406C18.6012 16.839 18.7789 16.8745 18.7789 16.8745C18.7789 16.8745 18.5504 16.9253 18.5148 17.0421C18.4742 17.1589 18.4133 17.164 18.4133 17.164L18.1492 17.3773V17.3773Z" fill="#00A651" stroke="black" stroke-width="0.0625" stroke-miterlimit="4.8"/>
<path d="M18.0477 17.6006C18.0477 17.6006 17.941 17.8037 17.9664 17.8393C17.9664 17.8393 17.8496 18.0018 17.8953 18.0881C17.8953 18.0881 18.0121 18.1744 18.0629 18.1389C18.0629 18.1389 18.1949 17.951 18.1594 17.8494C18.1594 17.8494 18.2457 17.7275 18.2102 17.6514C18.2102 17.6514 18.0832 17.6615 18.0477 17.6006Z" fill="#964B36" stroke="black" stroke-width="0.0625" stroke-miterlimit="4.8"/>
<path d="M17.4891 17.2402C17.4941 17.2402 17.5602 17.2758 17.6059 17.2605L17.6363 17.2352L17.6109 17.2199C17.5957 17.2504 17.5246 17.225 17.4992 17.2148L17.4891 17.2402V17.2402ZM17.4789 17.4383L17.4738 17.4637C17.4789 17.4637 17.6059 17.4891 17.6719 17.4332L17.6516 17.4129C17.6008 17.4637 17.4789 17.4383 17.4789 17.4383ZM17.4434 17.6617L17.4281 17.682C17.4281 17.682 17.5805 17.7938 17.682 17.677L17.6566 17.6566C17.5754 17.7582 17.4535 17.6668 17.4484 17.6566L17.4434 17.6617ZM16.8645 17.6922V17.7074C16.8746 17.7074 17.0016 17.6566 17.0117 17.5602H16.9965C16.9863 17.6465 16.8645 17.6922 16.8645 17.6922V17.6922ZM16.9355 17.809V17.8242C16.9406 17.8242 17.0574 17.8141 17.0777 17.7328H17.0625C17.0473 17.8039 16.9355 17.809 16.9355 17.809ZM16.9609 17.9309V17.9461C16.9609 17.9461 17.098 17.9512 17.1387 17.8801L17.1285 17.8699C17.0879 17.9359 16.9609 17.9309 16.9609 17.9309ZM17.9563 17.8496C17.9563 17.8496 18.0172 17.9055 18.0832 17.9004C18.0996 17.9001 18.1158 17.8963 18.1307 17.8893C18.1456 17.8823 18.1588 17.8722 18.1695 17.8598L18.1492 17.8445C18.1317 17.8625 18.1082 17.8733 18.0832 17.875C18.0629 17.8741 18.0431 17.8691 18.0248 17.8604C18.0065 17.8516 17.9901 17.8394 17.9766 17.8242L17.9563 17.8496Z" fill="black"/>
<path d="M21.907 18.3116C21.8992 18.3151 21.8922 18.3203 21.8867 18.3269L21.907 18.3116ZM22.3742 18.1948C22.3742 18.1847 22.3691 18.1897 22.3641 18.1847L22.3438 18.144H22.3285L22.293 18.0729C22.2938 18.0696 22.2938 18.0661 22.293 18.0628C22.2931 18.056 22.2931 18.0493 22.293 18.0425C22.2879 18.0374 22.2828 18.0425 22.2777 18.0323V17.9968L22.2727 17.9765V17.946C22.2733 17.9392 22.2733 17.9324 22.2727 17.9257C22.2625 17.9054 22.2523 17.8901 22.2523 17.8647L22.2574 17.814L22.2473 17.7632L22.2574 17.7175V17.4483C22.2473 17.428 22.2523 17.4128 22.2473 17.3976V17.296L22.2422 17.423C22.2422 17.3112 22.232 17.2046 22.232 17.2046L22.0645 17.1284C22.0645 17.1284 22.0492 17.4382 22.0543 17.4839C22.0543 17.5245 22.0695 17.8241 22.0645 17.8597C22.0543 17.8952 22.0391 18.0729 22.0391 18.0729C22.0391 18.0729 21.9578 18.1339 21.9223 18.1999C21.8918 18.2608 21.8969 18.2862 21.8867 18.2862L21.968 18.271L21.907 18.3116C21.9129 18.3092 21.9192 18.3084 21.9255 18.3093C21.9317 18.3102 21.9376 18.3128 21.9426 18.3167L21.9578 18.3269L21.968 18.3167L22.0035 18.337L22.0238 18.3218L22.034 18.3015H22.0898C22.1051 18.3015 22.1152 18.2812 22.1305 18.2659C22.1457 18.2558 22.1559 18.2507 22.1711 18.2507C22.1863 18.2507 22.2016 18.2659 22.2168 18.271C22.227 18.271 22.2371 18.271 22.2473 18.2558L22.2625 18.2253H22.359L22.3742 18.2355L22.3793 18.2151V18.1948H22.3742Z" fill="#964B36" stroke="black" stroke-width="0.0375" stroke-miterlimit="4.8"/>
<path d="M22.034 18.3068L22.0594 18.3118L22.0645 18.322C22.066 18.3229 22.0677 18.3234 22.0695 18.3234C22.0713 18.3234 22.0731 18.3229 22.0746 18.322L22.0898 18.3271H22.1051L22.1254 18.3322C22.1355 18.3372 22.1457 18.3322 22.1559 18.3271C22.166 18.3169 22.1711 18.3271 22.1812 18.3372C22.1914 18.3474 22.1914 18.3423 22.1965 18.3372C22.1964 18.3355 22.1964 18.3338 22.1965 18.3322L22.2117 18.3271L22.232 18.322L22.2473 18.3118L22.2676 18.322C22.2712 18.3232 22.2746 18.3249 22.2777 18.3271C22.2879 18.3118 22.3082 18.3068 22.3184 18.2966H22.3844C22.3895 18.2915 22.3895 18.2865 22.3996 18.2865L22.4352 18.3068C22.4402 18.3068 22.4707 18.3169 22.4656 18.2915C22.4656 18.2712 22.4453 18.2865 22.4402 18.2712V18.2407C22.4384 18.2361 22.4357 18.2319 22.4322 18.2284C22.4287 18.225 22.4245 18.2222 22.4199 18.2204H22.4047L22.3945 18.195C22.3895 18.195 22.3844 18.2001 22.3742 18.195L22.3641 18.1849C22.3488 18.1697 22.3387 18.195 22.3285 18.19C22.3184 18.19 22.3082 18.1646 22.298 18.1544C22.298 18.1493 22.2828 18.129 22.2777 18.1341C22.2676 18.1392 22.2777 18.1595 22.2727 18.1697C22.2676 18.1747 22.2523 18.1697 22.2523 18.1697C22.2422 18.1697 22.2422 18.1697 22.2371 18.1849C22.2219 18.2001 22.2168 18.2154 22.2016 18.2154L22.1762 18.2052C22.1711 18.2103 22.166 18.2204 22.1559 18.2204C22.1492 18.2218 22.1422 18.2218 22.1355 18.2204C22.1254 18.2204 22.1203 18.2052 22.1152 18.2001C22.1152 18.1988 22.1147 18.1975 22.1137 18.1965C22.1128 18.1956 22.1115 18.195 22.1102 18.195C22.1088 18.195 22.1075 18.1956 22.1066 18.1965C22.1056 18.1975 22.1051 18.1988 22.1051 18.2001L22.0949 18.195C22.0848 18.19 22.0848 18.195 22.0797 18.2052V18.2306L22.0594 18.2509L22.0391 18.256C22.034 18.256 22.0238 18.2712 22.0188 18.256C22.0137 18.2357 22.034 18.2001 22.0086 18.2052C22.0086 18.2052 21.9984 18.2052 21.9934 18.2204V18.2509C21.9934 18.2661 21.9629 18.2915 21.968 18.3017C21.968 18.3169 21.9832 18.3017 21.9883 18.3017C21.9934 18.3068 21.9883 18.3169 21.9984 18.322C22.0035 18.3372 22.034 18.3017 22.034 18.322M21.9273 18.1849V18.1798L21.902 18.1697L21.8816 18.19C21.8664 18.2154 21.8715 18.2407 21.8461 18.2407H21.8258C21.8156 18.2458 21.8258 18.2661 21.8258 18.2763V18.2915C21.8207 18.2915 21.8156 18.2915 21.8105 18.3017C21.8105 18.322 21.8258 18.3169 21.8309 18.3169H21.8816L21.9121 18.3068L21.9375 18.3017C21.9419 18.2937 21.9453 18.2851 21.9477 18.2763V18.256C21.9477 18.2458 21.9578 18.2509 21.9629 18.2357C21.9629 18.2001 21.9273 18.2255 21.9324 18.19" fill="#964B36"/>
<path d="M22.034 18.3068L22.0594 18.3118L22.0645 18.322C22.066 18.3229 22.0677 18.3234 22.0695 18.3234C22.0713 18.3234 22.0731 18.3229 22.0746 18.322L22.0898 18.3271H22.1051L22.1254 18.3322C22.1355 18.3372 22.1457 18.3322 22.1559 18.3271C22.166 18.3169 22.1711 18.3271 22.1812 18.3372C22.1914 18.3474 22.1914 18.3423 22.1965 18.3372C22.1964 18.3355 22.1964 18.3338 22.1965 18.3322L22.2117 18.3271L22.232 18.322L22.2473 18.3118L22.2676 18.322C22.2712 18.3232 22.2746 18.3249 22.2777 18.3271C22.2879 18.3118 22.3082 18.3068 22.3184 18.2966H22.3844C22.3895 18.2915 22.3895 18.2865 22.3996 18.2865L22.4352 18.3068C22.4402 18.3068 22.4707 18.3169 22.4656 18.2915C22.4656 18.2712 22.4453 18.2865 22.4402 18.2712V18.2407C22.4384 18.2361 22.4357 18.2319 22.4322 18.2284C22.4287 18.225 22.4245 18.2222 22.4199 18.2204H22.4047L22.3945 18.195C22.3895 18.195 22.3844 18.2001 22.3742 18.195L22.3641 18.1849C22.3488 18.1697 22.3387 18.195 22.3285 18.19C22.3184 18.19 22.3082 18.1646 22.298 18.1544C22.298 18.1493 22.2828 18.129 22.2777 18.1341C22.2676 18.1392 22.2777 18.1595 22.2727 18.1697C22.2676 18.1747 22.2523 18.1697 22.2523 18.1697C22.2422 18.1697 22.2422 18.1697 22.2371 18.1849C22.2219 18.2001 22.2168 18.2154 22.2016 18.2154L22.1762 18.2052C22.1711 18.2103 22.166 18.2204 22.1559 18.2204C22.1492 18.2218 22.1422 18.2218 22.1355 18.2204C22.1254 18.2204 22.1203 18.2052 22.1152 18.2001C22.1152 18.1988 22.1147 18.1975 22.1137 18.1965C22.1128 18.1956 22.1115 18.195 22.1102 18.195C22.1088 18.195 22.1075 18.1956 22.1066 18.1965C22.1056 18.1975 22.1051 18.1988 22.1051 18.2001L22.0949 18.195C22.0848 18.19 22.0848 18.195 22.0797 18.2052V18.2306L22.0594 18.2509L22.0391 18.256C22.034 18.256 22.0238 18.2712 22.0188 18.256C22.0137 18.2357 22.034 18.2001 22.0086 18.2052C22.0086 18.2052 21.9984 18.2052 21.9934 18.2204V18.2509C21.9934 18.2661 21.9629 18.2915 21.968 18.3017C21.968 18.3169 21.9832 18.3017 21.9883 18.3017C21.9934 18.3068 21.9883 18.3169 21.9984 18.322C22.0035 18.3372 22.034 18.3017 22.034 18.322M21.9273 18.1849V18.1798L21.902 18.1697L21.8816 18.19C21.8664 18.2154 21.8715 18.2407 21.8461 18.2407H21.8258C21.8156 18.2458 21.8258 18.2661 21.8258 18.2763V18.2915C21.8207 18.2915 21.8156 18.2915 21.8105 18.3017C21.8105 18.322 21.8258 18.3169 21.8309 18.3169H21.8816L21.9121 18.3068L21.9375 18.3017C21.9419 18.2937 21.9453 18.2851 21.9477 18.2763V18.256C21.9477 18.2458 21.9578 18.2509 21.9629 18.2357C21.9629 18.2001 21.9273 18.2255 21.9324 18.19" stroke="black" stroke-width="0.0375" stroke-miterlimit="4.8"/>
<path d="M22.3539 17.1994C22.3539 17.2502 22.3234 17.2857 22.2828 17.2857C22.2422 17.2857 22.2117 17.2451 22.2117 17.1994C22.2117 17.1537 22.2422 17.1182 22.2828 17.1182C22.3234 17.1182 22.3539 17.1537 22.3539 17.1994ZM22.1254 17.0979C22.1254 17.1486 22.0898 17.1791 22.0543 17.1791C22.0137 17.1791 21.9832 17.1436 21.9832 17.0979C21.9832 17.0521 22.0137 17.0166 22.0543 17.0166C22.0898 17.0166 22.1254 17.0521 22.1254 17.0979Z" fill="black" stroke="black" stroke-width="0.0625" stroke-miterlimit="4.8"/>
<path d="M22.2422 17.1281C22.2422 17.1789 22.2117 17.2145 22.1762 17.2145C22.1355 17.2145 22.1051 17.1738 22.1051 17.1281C22.1051 17.0824 22.1355 17.0469 22.1762 17.0469C22.2117 17.0469 22.2422 17.0824 22.2422 17.1281Z" fill="black" stroke="black" stroke-width="0.0625" stroke-miterlimit="4.8"/>
<path d="M22.1254 17.2043C22.1254 17.2551 22.0949 17.2906 22.0594 17.2906C22.0187 17.2906 21.9883 17.25 21.9883 17.2043C21.9883 17.1586 22.0187 17.123 22.0594 17.123C22.0949 17.123 22.1254 17.1586 22.1254 17.2043Z" fill="black" stroke="black" stroke-width="0.0625" stroke-miterlimit="4.8"/>
<path d="M22.2371 17.2653C22.2371 17.3161 22.2066 17.3517 22.166 17.3517C22.1254 17.3517 22.0949 17.3161 22.0949 17.2704C22.0949 17.2196 22.1254 17.1841 22.166 17.1841C22.2066 17.1841 22.2371 17.2247 22.2371 17.2704V17.2653Z" fill="black" stroke="black" stroke-width="0.0625" stroke-miterlimit="4.8"/>
<path d="M22.2676 16.3669C22.2676 16.3669 22.9785 15.3817 23.7352 16.4075C23.7352 16.4075 23.7352 16.5091 23.6691 16.6106L23.6488 16.5345L23.6082 16.5446L23.593 16.4938L23.5117 16.4888L23.5371 16.3821L23.4457 16.4481L23.4609 16.372L23.3594 16.4735L23.3695 16.2603L23.2629 16.4431L23.273 16.3161L23.2375 16.372L23.2121 16.3009L23.1816 16.372L23.1309 16.3364V16.3872L23.0395 16.311L23.009 16.4126L22.9582 16.306L22.948 16.3771L22.9074 16.2907L22.8973 16.3872L22.7551 16.3212L22.7855 16.4126L22.7144 16.3618L22.7297 16.4126L22.6281 16.3923L22.6383 16.4481L22.5367 16.4329L22.557 16.4837L22.4148 16.4634L22.4656 16.5192L22.4504 16.5446C22.4504 16.5446 23.2172 16.2907 23.268 17.2454L23.1309 17.3165L23.1664 17.2403L23.1309 17.2149L23.0141 17.1235L23.0445 17.0017L23.009 17.0169L22.9988 16.9458L22.9836 16.961L22.9328 16.8899L22.9227 16.9153L22.8922 16.829L22.8617 16.8899L22.8414 16.7478L22.7906 16.8392L22.7855 16.7884L22.7652 16.8188L22.7043 16.7427L22.684 16.7935L22.6586 16.7528L22.6383 16.8036L22.5672 16.7376V16.7884L22.5266 16.7478L22.5062 16.7731L22.3945 16.7173V16.7681L22.3336 16.7173L22.3133 16.7681C22.3133 16.7681 23.009 17.1642 22.7906 17.804L22.7551 17.8903L22.7398 17.672L22.6789 17.7888L22.7195 17.5349L22.6789 17.5856L22.6687 17.4841L22.6129 17.5856L22.5926 17.4739L22.5672 17.5044L22.5316 17.3419L22.4961 17.413L22.4453 17.2251L22.4098 17.3013L22.3844 17.1438L22.359 17.2403L22.2828 17.0981L22.2676 17.154L22.227 17.0423L22.2016 17.0778C22.2016 17.0778 22.0746 17.0778 22.034 17.0423C21.9934 17.0118 21.8867 17.2353 21.8867 17.2353L21.9019 17.0981L21.8512 17.1896V17.0981L21.775 17.3673L21.7547 17.1743L21.709 17.3419L21.6887 17.2911L21.6785 17.3622L21.6531 17.3368L21.6277 17.4079L21.5871 17.3774V17.479L21.5516 17.4282L21.516 17.5806L21.5008 17.5196V17.5907L21.4652 17.5501L21.4348 17.7024L21.3891 17.6415V17.7481L21.4043 17.8294L21.3535 17.804L21.3738 17.9411C21.3738 17.9411 21.1707 17.5704 21.4094 17.2149C21.648 16.8595 21.968 16.7579 21.968 16.7579L21.9324 16.7325L21.9273 16.697L21.7344 16.7985L21.7395 16.7376L21.6887 16.7782L21.6785 16.7173L21.648 16.7731L21.6379 16.7478L21.5973 16.8188L21.5719 16.7173L21.5363 16.8392L21.5059 16.7528L21.4398 16.9356V16.7985L21.3891 16.9407L21.3738 16.7884L21.3332 16.9661V16.8036L21.2773 16.9661L21.2367 16.8138L21.2113 16.961L21.1758 16.8442L21.1352 17.0169L21.0793 16.8646L21.0488 17.0931L21.0082 17.0017L21.0031 17.1692L20.9574 17.0677L21.0031 17.281L20.9473 17.1997L20.9625 17.3317L20.8812 17.1896L20.8863 17.3622L20.8457 17.3013L20.8254 17.3673C20.8254 17.3673 20.8051 16.7071 21.257 16.5751C21.709 16.4481 22.0035 16.6157 22.0035 16.6157L21.8309 16.4735L21.8512 16.4329H21.7852L21.8105 16.3821H21.6836L21.7191 16.3313L21.6176 16.3466V16.3161L21.5566 16.3669L21.582 16.311L21.4906 16.3669V16.2806L21.4398 16.3567L21.4145 16.2806L21.2113 16.4837L21.2672 16.2704L21.2316 16.3212L21.2266 16.2704L21.1656 16.3618L21.1555 16.2958L21.1301 16.372L21.1098 16.2856L21.0641 16.372L21.0234 16.2907L21.0031 16.3974L20.9676 16.3466L20.932 16.4228L20.8812 16.372L20.8762 16.4228L20.7746 16.3821L20.8 16.4583L20.7238 16.3923L20.7035 16.4938L20.6578 16.4431L20.6273 16.57L20.5969 16.4481L20.5613 16.5497C20.5613 16.5497 20.9625 15.5239 21.968 16.1942C21.968 16.1942 22.0797 16.2958 22.1051 16.372C22.1305 16.4481 22.1051 16.3872 22.1051 16.3872L22.0898 15.6763L22.1305 15.981L22.1559 15.8794L22.1457 16.0317L22.2473 15.8134C22.2473 15.8134 22.1305 16.1841 22.1711 16.3212C22.1711 16.3212 22.2219 15.8895 22.3742 15.8388L22.232 16.1435L22.2727 16.1384L22.2422 16.1993H22.2828L22.232 16.3009L22.2117 16.3517L22.2371 16.4024L22.2727 16.3669H22.2676Z" fill="#00A651" stroke="black" stroke-width="0.0625" stroke-miterlimit="4.8"/>
<path d="M22.166 16.7831L22.1863 16.7983C22.1863 16.7983 22.2523 16.7323 22.3539 16.8187L22.3742 16.7983C22.2473 16.6917 22.166 16.7831 22.166 16.7831V16.7831ZM22.1355 16.4378L22.1305 16.4581L22.1812 16.4378L22.1457 16.4987L22.2168 16.4733L22.1254 16.5901L22.1508 16.6105L22.293 16.4175L22.2016 16.4479L22.2422 16.3819L22.166 16.4175L22.1812 16.3159H22.1559L22.1355 16.4378V16.4378Z" fill="black"/>
<path d="M21.9984 16.443L22.0289 16.5141L21.9781 16.4937L22.1305 16.7477L22.1457 16.7273L22.1152 16.8035L22.1406 16.8137L22.2066 16.6512L22.1812 16.6359L22.1305 16.702L22.0441 16.5496L22.0848 16.5648L22.0441 16.4734L22.0949 16.509V16.4074H22.0695V16.4582L21.9883 16.4023L22.0035 16.443H21.9984ZM21.907 16.768L21.9172 16.7934C21.9578 16.7781 21.9883 16.773 22.0187 16.7883C22.0441 16.7984 22.0543 16.8289 22.0543 16.8289L22.0797 16.8238C22.0797 16.8238 22.0695 16.7832 22.0289 16.7629C21.9934 16.7477 21.9527 16.7477 21.907 16.768ZM22.0187 17.0422L21.9984 16.9H22.0238L22.0492 17.0422H22.0187ZM22.2168 17.0219L22.1812 16.9102L22.2066 16.9051L22.2422 17.0117L22.2168 17.0219ZM22.2879 17.1031L22.2625 16.9914L22.2879 16.9863L22.3133 17.093L22.2879 17.1031Z" fill="black"/>
<path d="M16.8594 20.3632C16.8594 20.3632 16.7375 20.3124 16.6816 20.353C16.6309 20.3937 16.6309 20.4495 16.5852 20.4444C16.5852 20.4444 16.768 20.4851 16.8086 20.4394L16.8594 20.3784M16.8797 20.419C16.8797 20.419 16.7984 20.5206 16.8289 20.5815C16.8543 20.6425 16.9102 20.6476 16.9 20.6933C16.9 20.6933 16.9762 20.5257 16.9406 20.48L16.8898 20.419M16.7477 20.1245C16.7477 20.1245 16.6207 20.1651 16.6055 20.2261C16.5902 20.2972 16.6359 20.3327 16.6004 20.3632C16.6004 20.3632 16.7578 20.2718 16.7578 20.2108C16.7583 20.1854 16.7566 20.1599 16.7527 20.1347M16.8187 20.1702C16.8187 20.1702 16.8797 20.0534 16.8391 19.9976C16.8035 19.9417 16.7426 19.9468 16.7527 19.896C16.7527 19.896 16.7019 20.0788 16.7527 20.1194L16.8035 20.1702M16.6969 20.1245C16.6969 20.1245 16.6969 19.9976 16.641 19.962C16.5852 19.9265 16.5344 19.9569 16.5191 19.9112C16.5191 19.9112 16.5496 20.094 16.6105 20.1144L16.6867 20.1296M16.9102 20.3429C16.9102 20.3429 17.0473 20.2972 17.0625 20.4444C17.0676 20.5968 17.0523 20.546 17.0523 20.546C17.0523 20.546 16.9812 20.3835 16.9 20.3581L16.9102 20.3429Z" fill="#00A651"/>
<path d="M16.8594 20.3632C16.8594 20.3632 16.7375 20.3124 16.6816 20.353C16.6309 20.3937 16.6309 20.4495 16.5852 20.4444C16.5852 20.4444 16.768 20.4851 16.8086 20.4394L16.8594 20.3784M16.8797 20.419C16.8797 20.419 16.7984 20.5206 16.8289 20.5815C16.8543 20.6425 16.9102 20.6476 16.9 20.6933C16.9 20.6933 16.9762 20.5257 16.9406 20.48L16.8898 20.419M16.7477 20.1245C16.7477 20.1245 16.6207 20.1651 16.6055 20.2261C16.5902 20.2972 16.6359 20.3327 16.6004 20.3632C16.6004 20.3632 16.7578 20.2718 16.7578 20.2108C16.7583 20.1854 16.7566 20.1599 16.7527 20.1347M16.8187 20.1702C16.8187 20.1702 16.8797 20.0534 16.8391 19.9976C16.8035 19.9417 16.7426 19.9468 16.7527 19.896C16.7527 19.896 16.7019 20.0788 16.7527 20.1194L16.8035 20.1702M16.6969 20.1245C16.6969 20.1245 16.6969 19.9976 16.641 19.962C16.5852 19.9265 16.5344 19.9569 16.5191 19.9112C16.5191 19.9112 16.5496 20.094 16.6105 20.1144L16.6867 20.1296M16.9102 20.3429C16.9102 20.3429 17.0473 20.2972 17.0625 20.4444C17.0676 20.5968 17.0523 20.546 17.0523 20.546C17.0523 20.546 16.9812 20.3835 16.9 20.3581L16.9102 20.3429Z" stroke="black" stroke-width="0.0625" stroke-miterlimit="4.8"/>
<path d="M16.8746 20.4192L16.8898 20.536H16.9102L16.8949 20.4192L16.9457 20.1704H16.9203L16.8746 20.4192Z" fill="black"/>
<path d="M16.7527 20.3836L16.7426 20.3988C16.8086 20.4242 16.9 20.348 16.9051 20.348L16.8949 20.3328C16.8949 20.3328 16.8035 20.4039 16.7527 20.3836ZM16.9203 20.2363L16.6156 20.084L16.6258 20.0586L16.9305 20.2109L16.9203 20.2363Z" fill="black"/>
<path d="M16.702 20.2009L16.6816 20.1856L16.7426 20.1196L16.7629 20.1399L16.702 20.2009ZM16.8035 20.1704L16.7426 20.0333L16.768 20.0181L16.834 20.1603L16.8035 20.1704ZM16.9 20.3431V20.3735C16.9812 20.3685 17.0016 20.4243 17.0016 20.4243L17.032 20.4142C17.032 20.3989 16.9965 20.338 16.9 20.3431V20.3431Z" fill="black"/>
<path d="M18.3066 20.4089C18.4082 20.353 18.4285 20.1499 18.4285 20.1499C18.4082 20.221 18.2203 20.2972 18.2203 20.2972C18.3574 20.2108 18.525 19.8198 18.525 19.8198C18.4793 19.962 18.1188 20.0737 17.8801 20.2058C17.6465 20.3378 17.7684 20.7136 17.7684 20.7136C17.6571 20.5973 17.5829 20.4506 17.5551 20.2921C17.5297 20.1144 17.4586 20.0483 17.3012 20.028C17.1387 20.0077 17.0473 20.1854 17.0473 20.1854L16.8086 20.3124L17.0473 20.3226C17.0473 20.3226 17.2199 20.3784 17.2199 20.5155C17.2199 20.6526 17.0676 21.1909 17.3215 21.4956C17.4941 21.7038 18.134 21.8257 18.134 21.8257" fill="white"/>
<path d="M18.3066 20.4089C18.4082 20.353 18.4285 20.1499 18.4285 20.1499C18.4082 20.221 18.2203 20.2972 18.2203 20.2972C18.3574 20.2108 18.525 19.8198 18.525 19.8198C18.4793 19.962 18.1188 20.0737 17.8801 20.2058C17.6465 20.3378 17.7684 20.7136 17.7684 20.7136C17.6571 20.5973 17.5829 20.4506 17.5551 20.2921C17.5297 20.1144 17.4586 20.0483 17.3012 20.028C17.1387 20.0077 17.0473 20.1854 17.0473 20.1854L16.8086 20.3124L17.0473 20.3226C17.0473 20.3226 17.2199 20.3784 17.2199 20.5155C17.2199 20.6526 17.0676 21.1909 17.3215 21.4956C17.4941 21.7038 18.134 21.8257 18.134 21.8257" stroke="black" stroke-width="0.0875" stroke-miterlimit="4.8"/>
<path d="M17.8394 20.8252C17.8394 20.8252 17.8902 20.5814 18.0426 20.5916C18.2051 20.6018 18.2508 20.4139 18.3473 20.3834C18.4387 20.3529 18.9262 20.226 18.982 19.9873C18.982 19.9873 18.9312 20.3732 18.4894 20.5662C18.4894 20.5662 18.8449 20.4494 18.8906 20.3682C18.8906 20.3682 18.7281 20.7135 18.3422 20.7693C18.3422 20.7693 18.7078 20.7389 18.7586 20.6424C18.7586 20.6424 18.5961 20.8607 18.3269 20.8861C18.3269 20.8861 18.5758 20.9877 18.6418 20.9014C18.6418 20.9014 18.5047 21.0639 18.3371 21.074L18.3828 21.0893C18.3828 21.0893 18.2203 21.2771 18.0477 21.1502C17.8699 21.0232 17.8648 21.1807 17.8648 21.1807" fill="white"/>
<path d="M17.8394 20.8252C17.8394 20.8252 17.8902 20.5814 18.0426 20.5916C18.2051 20.6018 18.2508 20.4139 18.3473 20.3834C18.4387 20.3529 18.9262 20.226 18.982 19.9873C18.982 19.9873 18.9312 20.3732 18.4894 20.5662C18.4894 20.5662 18.8449 20.4494 18.8906 20.3682C18.8906 20.3682 18.7281 20.7135 18.3422 20.7693C18.3422 20.7693 18.7078 20.7389 18.7586 20.6424C18.7586 20.6424 18.5961 20.8607 18.3269 20.8861C18.3269 20.8861 18.5758 20.9877 18.6418 20.9014C18.6418 20.9014 18.5047 21.0639 18.3371 21.074L18.3828 21.0893C18.3828 21.0893 18.2203 21.2771 18.0477 21.1502C17.8699 21.0232 17.8648 21.1807 17.8648 21.1807" stroke="black" stroke-width="0.0875" stroke-miterlimit="4.8"/>
<path d="M18.2 21.1909C18.2 21.1909 18.4031 21.5362 18.4285 21.719C18.4285 21.719 18.8195 22.1558 18.9668 22.1761C18.9668 22.1761 18.9008 22.2065 18.7738 22.0999C18.7738 22.0999 18.8754 22.2116 18.9008 22.2167C18.9211 22.2167 18.8144 22.2065 18.7992 22.1761C18.7992 22.1761 18.8398 22.2421 18.8703 22.2522L18.8398 22.2421C18.8398 22.2421 18.7891 22.237 18.7637 22.2167C18.7383 22.1964 18.7535 22.2675 18.7535 22.2675C18.7535 22.2675 18.6926 22.2522 18.6723 22.2319C18.6519 22.2116 18.6824 22.2776 18.6824 22.2776L18.6316 22.2624L18.591 22.2878C18.591 22.2878 18.591 22.3132 18.5605 22.2929C18.5402 22.2726 18.4945 22.2929 18.4945 22.2929C18.4945 22.2929 18.459 22.3233 18.4437 22.303C18.4285 22.2827 18.3676 22.3792 18.3676 22.3792L18.1086 21.7546" fill="white"/>
<path d="M18.2 21.1909C18.2 21.1909 18.4031 21.5362 18.4285 21.719C18.4285 21.719 18.8195 22.1558 18.9668 22.1761C18.9668 22.1761 18.9008 22.2065 18.7738 22.0999C18.7738 22.0999 18.8754 22.2116 18.9008 22.2167C18.9211 22.2167 18.8144 22.2065 18.7992 22.1761C18.7992 22.1761 18.8398 22.2421 18.8703 22.2522L18.8398 22.2421C18.8398 22.2421 18.7891 22.237 18.7637 22.2167C18.7383 22.1964 18.7535 22.2675 18.7535 22.2675C18.7535 22.2675 18.6926 22.2522 18.6723 22.2319C18.6519 22.2116 18.6824 22.2776 18.6824 22.2776L18.6316 22.2624L18.591 22.2878C18.591 22.2878 18.591 22.3132 18.5605 22.2929C18.5402 22.2726 18.4945 22.2929 18.4945 22.2929C18.4945 22.2929 18.459 22.3233 18.4437 22.303C18.4285 22.2827 18.3676 22.3792 18.3676 22.3792L18.1086 21.7546" stroke="black" stroke-width="0.0875" stroke-miterlimit="4.8"/>
<path d="M18.4437 22.3236L18.1187 21.699L18.1543 21.6838L18.4793 22.3033L18.4437 22.3236ZM18.7281 22.2779L18.1695 21.6533L18.2 21.6279L18.7586 22.2525L18.7281 22.2779ZM18.8602 22.2271L18.2203 21.633L18.2457 21.6025L18.8906 22.1916L18.8602 22.2271Z" fill="black"/>
<path d="M17.2578 20.225C17.2578 20.225 17.2173 20.1507 17.1801 20.1811C17.1464 20.2081 17.1261 20.2149 17.1194 20.2115C17.1194 20.2115 17.1531 20.2115 17.1768 20.1946C17.197 20.1744 17.2308 20.1845 17.2578 20.2284V20.225ZM17.035 20.1913L17.0586 20.2385L17.0316 20.3162L17.0518 20.3229L17.0755 20.2385L17.0518 20.1845L17.035 20.1913V20.1913Z" fill="black"/>
<path d="M17.251 20.2148C17.251 20.2148 17.2173 20.2486 17.1768 20.2419L17.1329 20.2317H17.1936C17.2173 20.2317 17.2477 20.2216 17.251 20.2148Z" fill="black"/>
<path d="M17.2409 20.2214C17.2409 20.2214 17.2004 20.1809 17.1734 20.1944C17.1734 20.1944 17.2206 20.1775 17.2477 20.218L17.2409 20.2214Z" fill="black"/>
<path d="M17.2342 20.2148C17.2342 20.2148 17.1903 20.2451 17.143 20.2148L17.1396 20.208H17.1464C17.1464 20.208 17.2038 20.2316 17.2342 20.2148Z" fill="black"/>
<path d="M17.197 20.2218C17.2045 20.2218 17.2105 20.2158 17.2105 20.2083C17.2105 20.2009 17.2045 20.1948 17.197 20.1948C17.1896 20.1948 17.1835 20.2009 17.1835 20.2083C17.1835 20.2158 17.1896 20.2218 17.197 20.2218Z" fill="black"/>
<path d="M17.2352 21.3486C17.2352 21.3486 17.1996 21.4146 17.2199 21.4502C17.2352 21.4857 17.3164 21.5061 17.3215 21.5568C17.3367 21.6076 17.3621 21.6076 17.3977 21.5975L17.4484 21.5924C17.4484 21.5924 17.291 21.5061 17.2453 21.374L17.2352 21.3486Z" fill="black"/>
<path d="M22.2828 20.089C22.2828 20.089 22.5621 19.7132 22.816 19.8148C23.0699 19.9163 23.2324 19.962 23.2324 19.962C23.2324 19.962 23.2375 20.216 23.1055 20.216C22.9684 20.216 22.8414 19.962 22.7195 20.0331C22.5977 20.1093 22.4961 20.2109 22.491 20.2464C22.4809 20.282 22.166 20.2921 22.2828 20.0941V20.089Z" fill="#964B36" stroke="black" stroke-width="0.0375" stroke-miterlimit="4.8"/>
<path d="M21.2012 21.8968C21.2012 21.8968 21.125 21.9781 21.1606 21.9984C21.1961 22.0187 21.2621 21.9984 21.2621 21.9679C21.2621 21.9375 21.2164 21.8867 21.2012 21.8968Z" fill="#964B36" stroke="black" stroke-width="0.0625" stroke-miterlimit="4.8"/>
<path d="M21.1402 21.9782C21.1402 21.9782 20.993 21.8919 20.8813 22.0899C20.7645 22.288 20.668 22.6079 20.602 22.6485C20.5359 22.6891 21.252 22.3337 21.2621 22.1864C21.2621 22.1864 21.3129 21.9934 21.2316 21.9934C21.1605 21.9985 21.1555 22.0087 21.1402 21.9731V21.9782Z" fill="#964B36" stroke="black" stroke-width="0.0625" stroke-miterlimit="4.8"/>
<path d="M21.1606 21.9984C21.1606 21.9984 21.0082 22.034 20.9777 22.2473C20.9473 22.4605 20.7391 22.5672 20.7238 22.5773M23.2324 19.957C23.2324 19.957 23.0039 20.0383 23.0445 20.1957Z" fill="#964B36"/>
<path d="M21.1606 21.9984C21.1606 21.9984 21.0082 22.034 20.9777 22.2473C20.9473 22.4605 20.7391 22.5672 20.7238 22.5773M23.2324 19.957C23.2324 19.957 23.0039 20.0383 23.0445 20.1957" stroke="black" stroke-width="0.0375" stroke-miterlimit="4.8"/>
<path d="M21.4855 20.419C21.4855 20.419 21.4906 19.8808 21.9324 19.9061C22.0187 19.9112 21.9781 20.0077 21.9781 20.0077C21.9781 20.0077 22.0746 19.9417 22.1152 20.0483C22.1152 20.0483 22.2574 19.9874 22.2676 20.1245C22.2676 20.1245 22.4199 20.1042 22.4047 20.2261C22.4047 20.2261 22.5062 20.2058 22.5062 20.2921C22.5062 20.2921 22.623 20.2413 22.6078 20.3632C22.6078 20.3632 22.7398 20.2768 22.7195 20.4343C22.7195 20.4343 22.8566 20.3429 22.9023 20.5003C22.9531 20.6526 22.7652 20.9929 22.5875 21.0792" fill="#FFF200"/>
<path d="M21.4855 20.419C21.4855 20.419 21.4906 19.8808 21.9324 19.9061C22.0187 19.9112 21.9781 20.0077 21.9781 20.0077C21.9781 20.0077 22.0746 19.9417 22.1152 20.0483C22.1152 20.0483 22.2574 19.9874 22.2676 20.1245C22.2676 20.1245 22.4199 20.1042 22.4047 20.2261C22.4047 20.2261 22.5062 20.2058 22.5062 20.2921C22.5062 20.2921 22.623 20.2413 22.6078 20.3632C22.6078 20.3632 22.7398 20.2768 22.7195 20.4343C22.7195 20.4343 22.8566 20.3429 22.9023 20.5003C22.9531 20.6526 22.7652 20.9929 22.5875 21.0792" stroke="black" stroke-width="0.0375" stroke-miterlimit="4.8"/>
<path d="M22.7094 20.4549C22.7094 20.4549 22.7703 20.8764 22.5316 21.0287L22.5418 21.0389C22.7855 20.8865 22.7246 20.4549 22.7246 20.4498H22.7094V20.4549ZM22.425 20.9119L22.4352 20.9221C22.5875 20.7748 22.618 20.3838 22.618 20.3635H22.6027C22.6027 20.3686 22.5723 20.7697 22.425 20.9119ZM22.2828 20.8154H22.298C22.3184 20.5768 22.5113 20.2975 22.5113 20.2975L22.4961 20.2873C22.4961 20.2873 22.3031 20.5717 22.2828 20.8154ZM22.1762 20.7443H22.1914C22.2168 20.4549 22.4098 20.2365 22.4098 20.2365L22.3996 20.2213C22.3996 20.2213 22.2016 20.4498 22.1762 20.7443V20.7443ZM22.0238 20.6479H22.034C22.0492 20.3025 22.2777 20.135 22.2828 20.1299L22.2727 20.1197C22.2727 20.1197 22.034 20.2924 22.0187 20.6479H22.0238ZM21.8766 20.5615H21.8969C21.8816 20.2467 22.1254 20.0537 22.1254 20.0537L22.1203 20.0436C22.1203 20.0436 21.8664 20.2416 21.8766 20.5615V20.5615ZM21.6227 20.4498H21.6379C21.6492 20.352 21.6882 20.2594 21.7503 20.183C21.8123 20.1065 21.8949 20.0494 21.9883 20.0182L21.9832 20.0029C21.8877 20.0361 21.8035 20.0957 21.7406 20.1748C21.6777 20.2539 21.6385 20.3493 21.6277 20.4498H21.6227Z" fill="black"/>
<path d="M21.2266 21.0742C21.2266 21.0742 21.1504 20.5766 21.45 20.4141C21.45 20.4141 21.5008 20.4039 21.5363 20.475C21.5363 20.475 21.6937 20.409 21.6988 20.541C21.6988 20.541 21.775 20.4801 21.8004 20.5664C21.8004 20.5664 21.968 20.5309 21.9324 20.6578C21.9324 20.6578 22.0746 20.6172 22.0644 20.7391C22.0644 20.7391 22.2066 20.6883 22.1812 20.7899C22.1812 20.7899 22.3336 20.7594 22.298 20.8813C22.298 20.8813 22.4809 20.861 22.425 20.993C22.425 20.993 22.5621 20.9574 22.5316 21.0641C22.5316 21.0641 22.7144 21.0945 22.6332 21.2063C22.5015 21.3688 22.3301 21.4948 22.1355 21.5719" fill="#00A651"/>
<path d="M21.2266 21.0742C21.2266 21.0742 21.1504 20.5766 21.45 20.4141C21.45 20.4141 21.5008 20.4039 21.5363 20.475C21.5363 20.475 21.6937 20.409 21.6988 20.541C21.6988 20.541 21.775 20.4801 21.8004 20.5664C21.8004 20.5664 21.968 20.5309 21.9324 20.6578C21.9324 20.6578 22.0746 20.6172 22.0644 20.7391C22.0644 20.7391 22.2066 20.6883 22.1812 20.7899C22.1812 20.7899 22.3336 20.7594 22.298 20.8813C22.298 20.8813 22.4809 20.861 22.425 20.993C22.425 20.993 22.5621 20.9574 22.5316 21.0641C22.5316 21.0641 22.7144 21.0945 22.6332 21.2063C22.5015 21.3688 22.3301 21.4948 22.1355 21.5719" stroke="black" stroke-width="0.0375" stroke-miterlimit="4.8"/>
<path d="M21.0641 21.582C21.0641 21.582 20.9422 21.1605 21.1758 21.0539C21.1758 21.0539 21.2164 21.0437 21.2266 21.0843C21.2266 21.0843 21.2773 21.0183 21.318 21.0793C21.318 21.0793 21.4348 21.0234 21.4602 21.1097C21.4602 21.1097 21.5414 21.0437 21.582 21.1402C21.582 21.1402 21.6531 21.1097 21.6531 21.191C21.6531 21.191 21.7547 21.1402 21.7547 21.2418C21.7547 21.2418 21.8562 21.2011 21.8359 21.3078C21.8359 21.3078 21.9883 21.3281 21.9375 21.3992C21.9375 21.3992 22.0746 21.4347 22.0238 21.4906C22.0238 21.4906 22.1711 21.4753 22.0898 21.5718C22.0898 21.5718 22.2016 21.5363 22.1406 21.6582C22.0746 21.78 21.8816 21.9121 21.7395 21.9324" fill="#00A651"/>
<path d="M21.0641 21.582C21.0641 21.582 20.9422 21.1605 21.1758 21.0539C21.1758 21.0539 21.2164 21.0437 21.2266 21.0843C21.2266 21.0843 21.2773 21.0183 21.318 21.0793C21.318 21.0793 21.4348 21.0234 21.4602 21.1097C21.4602 21.1097 21.5414 21.0437 21.582 21.1402C21.582 21.1402 21.6531 21.1097 21.6531 21.191C21.6531 21.191 21.7547 21.1402 21.7547 21.2418C21.7547 21.2418 21.8562 21.2011 21.8359 21.3078C21.8359 21.3078 21.9883 21.3281 21.9375 21.3992C21.9375 21.3992 22.0746 21.4347 22.0238 21.4906C22.0238 21.4906 22.1711 21.4753 22.0898 21.5718C22.0898 21.5718 22.2016 21.5363 22.1406 21.6582C22.0746 21.78 21.8816 21.9121 21.7395 21.9324" stroke="black" stroke-width="0.0375" stroke-miterlimit="4.8"/>
<path d="M21.2113 21.907C21.2113 21.907 20.9523 21.6531 21.0742 21.582C21.0742 21.582 21.125 21.5973 21.1453 21.6531C21.1453 21.6531 21.2113 21.5617 21.2469 21.6531C21.2469 21.6531 21.3383 21.6227 21.3383 21.6887L21.4144 21.7395C21.4144 21.7395 21.5008 21.7395 21.4855 21.7902C21.4855 21.7902 21.582 21.7801 21.5769 21.8309C21.5769 21.8309 21.6582 21.8309 21.6531 21.8867C21.6531 21.8867 21.7902 21.9121 21.7293 21.9832C21.7293 21.9832 21.4805 22.034 21.3078 21.9629C21.3078 21.9629 21.2164 21.9324 21.2062 21.9121L21.2113 21.907Z" fill="#00A651" stroke="black" stroke-width="0.0375" stroke-miterlimit="4.8"/>
<path d="M22.1 21.4904L22.1051 21.5057C22.2574 21.4447 22.5266 21.0842 22.5367 21.0639L22.5266 21.0588C22.5266 21.0588 22.2523 21.4346 22.1 21.4904V21.4904ZM22.0137 21.4244L22.0187 21.4396C22.174 21.3104 22.3122 21.1619 22.4301 20.9979L22.4199 20.9877C22.4199 20.9877 22.1457 21.3533 22.0137 21.4244V21.4244ZM21.9375 21.3939L21.9477 21.4041C22.0898 21.2873 22.293 20.8963 22.3031 20.8861L22.2879 20.876C22.2879 20.8811 22.0746 21.2822 21.9324 21.3939H21.9375ZM21.8664 21.3025H21.8816C21.9121 21.1096 22.1863 20.8049 22.1863 20.7947L22.1762 20.7896C22.166 20.7998 21.8969 21.1045 21.8715 21.3025H21.8664ZM21.318 21.0689H21.3332C21.3078 20.7896 21.5363 20.485 21.5414 20.4799L21.5312 20.4697C21.5312 20.4697 21.2926 20.7846 21.318 21.0689V21.0689ZM21.4602 21.0893H21.4754C21.4398 20.8658 21.6988 20.551 21.7039 20.5459L21.6937 20.5357C21.6785 20.551 21.4246 20.8607 21.4602 21.0943V21.0893ZM21.6836 21.1705H21.6988C21.6988 20.9166 21.9375 20.6627 21.9375 20.6627L21.9273 20.6525C21.9273 20.6525 21.6785 20.9115 21.6836 21.1705ZM21.1504 21.6275H21.1656C21.0793 21.3939 21.2316 21.0943 21.2316 21.0893L21.2164 21.0842C21.2164 21.0842 21.0641 21.3889 21.1504 21.6326V21.6275ZM21.2519 21.6479L21.2672 21.6428C21.191 21.4041 21.318 21.0842 21.323 21.0842L21.3078 21.074C21.3078 21.074 21.1758 21.4041 21.257 21.6479H21.2519ZM21.6734 21.8865L21.6785 21.9018C21.9324 21.8104 22.0949 21.5818 22.1 21.5768L22.0848 21.5717C22.0848 21.5717 21.9223 21.7951 21.6785 21.8865H21.6734ZM21.6227 21.8307L21.6277 21.8459C21.8309 21.7545 22.0187 21.5006 22.0187 21.5006L22.0086 21.4904C22.0086 21.4904 21.8207 21.7443 21.6227 21.8307ZM21.5719 21.8104L21.582 21.8256C21.7394 21.7088 21.9375 21.4193 21.9426 21.4193L21.9324 21.4092C21.9324 21.4092 21.7293 21.6986 21.5769 21.8154L21.5719 21.8104ZM21.323 21.6631H21.3383C21.3323 21.4717 21.3779 21.2823 21.4703 21.1146L21.4551 21.1045C21.4551 21.1045 21.2875 21.4092 21.323 21.6631ZM21.4348 21.7342L21.4449 21.7443C21.6074 21.5971 21.6582 21.2061 21.6633 21.1857H21.648C21.648 21.1908 21.5922 21.592 21.4348 21.7342Z" fill="black"/>
<path d="M21.5465 21.7803L21.5516 21.7955C21.7801 21.6279 21.841 21.308 21.8461 21.308H21.8309C21.8309 21.308 21.7699 21.6178 21.5465 21.7803ZM21.5719 21.0998V21.1404L21.3992 21.699L21.4145 21.7041L21.5871 21.1455C21.5617 20.8713 21.8004 20.5717 21.8004 20.5717L21.7902 20.5615C21.7902 20.5615 21.5719 20.8357 21.5719 21.0998V21.0998Z" fill="black"/>
<path d="M21.7496 21.2315C21.7496 21.2417 21.6988 21.6276 21.4906 21.7698L21.4957 21.78C21.709 21.6327 21.7648 21.2569 21.7648 21.2417C21.8562 21.13 22.0695 20.744 22.0695 20.744L22.0594 20.7339C22.0594 20.739 21.8461 21.1198 21.7547 21.2315H21.7496ZM21.1402 21.653C21.1402 21.6632 21.1758 21.8562 21.2164 21.9222L21.2266 21.912C21.191 21.846 21.1555 21.6581 21.1555 21.653H21.1402ZM21.2418 21.653C21.2418 21.7546 21.2418 21.9069 21.2316 21.9222H21.2469C21.257 21.9069 21.2519 21.6987 21.2519 21.6581H21.2367L21.2418 21.653Z" fill="black"/>
<path d="M21.2469 21.9271L21.2621 21.9373C21.3281 21.79 21.3484 21.6885 21.3484 21.6885H21.3332C21.3332 21.6885 21.3129 21.79 21.2469 21.9271Z" fill="black"/>
<path d="M21.2621 21.9376L21.2672 21.9478C21.3426 21.9026 21.3974 21.8297 21.4195 21.7446H21.4043C21.4043 21.7446 21.3789 21.8665 21.2621 21.9325V21.9376ZM21.2824 21.9427V21.9579C21.4043 21.9478 21.4855 21.8005 21.4906 21.7954L21.4805 21.7853C21.4805 21.7853 21.3941 21.9376 21.2824 21.9427V21.9427Z" fill="black"/>
<path d="M21.2977 21.9526V21.9679C21.3517 21.967 21.4049 21.9548 21.4539 21.932C21.5028 21.9093 21.5465 21.8765 21.582 21.8358L21.5719 21.8257C21.5719 21.8257 21.4805 21.9425 21.2977 21.9526V21.9526Z" fill="black"/>
<path d="M21.3078 21.9578V21.973C21.318 21.973 21.5617 22.0238 21.648 21.8969L21.6379 21.8867C21.5566 22.0086 21.3129 21.9578 21.3078 21.9578Z" fill="black"/>
<path d="M15.7523 12.8984V19.825C15.7523 22.0898 19.8453 23.4355 19.8453 23.4355C19.8453 23.4355 23.9383 22.0898 23.9383 19.8301V12.8984H15.7523Z" stroke="black" stroke-width="0.35" stroke-miterlimit="4.8"/>
<path d="M0 0H13V13H0V0Z" fill="#012169"/>
<path d="M13 0V1.625L8.17578 6.5L13 11.248V13H11.2988L6.44922 8.22656L1.72656 13H0V11.2734L4.72266 6.52539L0 1.87891V0H1.57422L6.44922 4.77344L11.1719 0H13Z" fill="white"/>
<path d="M4.67188 8.22656L4.95117 9.08984L1.06641 13H0V12.9238L4.67188 8.22656ZM7.82031 7.92188L9.19141 8.125L13 11.8574V13L7.82031 7.92188ZM13 0L8.125 4.97656L8.02344 3.85938L11.832 0H13ZM0 0.0253906L4.90039 4.82422L3.40234 4.62109L0 1.24414V0.0253906Z" fill="#C8102E"/>
<path d="M4.46875 0V13H8.53125V0H4.46875ZM0 4.46875V8.53125H13V4.46875H0Z" fill="white"/>
<path d="M0 5.28125V7.71875H13V5.28125H0ZM5.28125 0V13H7.71875V0H5.28125Z" fill="#C8102E"/>
</g>
</g>
<defs>
<clipPath id="clip0_1_12995">
<rect width="26" height="26" fill="white"/>
</clipPath>
</defs>
</svg>
