<svg width="26" height="26" viewBox="0 0 26 26" fill="none" xmlns="http://www.w3.org/2000/svg">
<mask id="mask0_1_12907" style="mask-type:alpha" maskUnits="userSpaceOnUse" x="0" y="0" width="26" height="26">
<circle cx="13" cy="13" r="13" fill="#634848"/>
</mask>
<g mask="url(#mask0_1_12907)">
<g clip-path="url(#clip0_1_12907)">
<path d="M0 0H26V26H0V0Z" fill="#012169"/>
<path fill-rule="evenodd" clip-rule="evenodd" d="M16.0059 16.4141C15.9736 16.4132 15.9413 16.4148 15.9093 16.4189C15.7449 16.4479 15.4838 16.9845 15.3436 17.2988C15.1164 17.5695 15.0004 17.7822 14.9085 17.9369C14.8699 17.9997 14.8119 18.0674 14.8312 18.1496C14.4928 18.2318 14.4734 18.5219 14.4734 18.633C14.4734 18.7587 14.5121 18.8168 14.5121 18.8168L14.7152 19.1938V19.1987C14.9327 19.6483 15.2469 20.2477 15.4307 20.2961C15.682 20.3686 16.3395 20.1269 16.8326 19.7063C17.7827 20.1019 18.8008 20.3088 19.8299 20.3154C20.9805 20.3154 22.0151 20.0399 22.8224 19.7063C23.3155 20.1269 23.9682 20.3686 24.2244 20.2961C24.4033 20.2477 24.7223 19.6434 24.9399 19.1987L25.1381 18.8168C25.1381 18.8168 25.1768 18.7587 25.1768 18.6379C25.1768 18.5267 25.1574 18.2318 24.819 18.1544C24.8384 18.0723 24.7852 17.9997 24.7465 17.9369C24.6498 17.7774 24.5338 17.5647 24.3114 17.2891C24.1664 16.9749 23.9053 16.4479 23.7458 16.4189C23.5137 16.3802 23.0206 16.4963 23.0206 16.5398V16.5639L22.0199 17.497C22.0199 17.5211 22.0683 18.198 22.2616 18.8022C21.4782 19.081 20.6518 19.2201 19.8203 19.2132C18.8631 19.2132 18.0461 19.044 17.3837 18.7974C17.5081 18.3716 17.5891 17.9343 17.6255 17.4921L16.6344 16.5639V16.5398C16.6344 16.5059 16.2525 16.4141 16.0059 16.4141V16.4141ZM16.2573 17.5743C16.383 17.5743 16.5136 17.6807 16.6247 17.7919L16.6151 17.8595C16.5756 18.0338 16.5239 18.205 16.4604 18.372C16.2135 18.2302 15.9818 18.0633 15.7691 17.874C15.8754 17.758 16.0495 17.6033 16.2332 17.5792H16.2573V17.5743ZM23.3929 17.5743H23.417C23.6008 17.6033 23.7748 17.758 23.886 17.874C23.6718 18.0636 23.4385 18.2305 23.1898 18.372C23.1262 18.205 23.0745 18.0338 23.0351 17.8595C23.031 17.8371 23.0277 17.8146 23.0255 17.7919C23.1318 17.6758 23.2672 17.5743 23.3929 17.5743ZM15.3678 18.8989C15.4983 19.0005 15.6724 19.1165 15.8803 19.2373C15.8241 19.275 15.762 19.3028 15.6965 19.3195C15.6095 19.3389 15.5225 19.334 15.4307 19.3147C15.3961 19.2267 15.3765 19.1336 15.3726 19.0391C15.3701 18.9924 15.3685 18.9457 15.3678 18.8989V18.8989ZM24.2872 18.8989L24.2776 19.0391C24.2737 19.1336 24.2541 19.2267 24.2196 19.3147C24.1433 19.3329 24.0641 19.3354 23.9868 19.3221C23.9096 19.3088 23.8358 19.28 23.77 19.2373C23.9827 19.1165 24.1567 19.0005 24.2872 18.8989V18.8989Z" fill="url(#paint0_linear_1_12907)" stroke="white" stroke-width="1.19"/>
<path fill-rule="evenodd" clip-rule="evenodd" d="M16.8635 18.1354C16.8635 18.1354 16.515 17.5723 16.2338 17.6171C15.9464 17.6555 15.6774 18.0138 15.659 18.033C15.4999 17.892 15.3582 17.7308 15.2372 17.5531C15.2555 17.5339 15.6774 16.4974 15.9097 16.4526C16.1556 16.4287 16.4033 16.4682 16.6312 16.5678L16.8635 18.1354Z" fill="url(#paint1_linear_1_12907)" stroke="black" stroke-width="0.184752"/>
<path fill-rule="evenodd" clip-rule="evenodd" d="M17.6278 17.5338C17.6278 17.5722 17.5055 19.0567 17.0164 19.5749C16.5273 20.0932 15.7141 20.4131 15.4267 20.3363C15.1455 20.2532 14.4913 18.7559 14.4913 18.7559C14.4913 18.7559 15.1822 19.4726 15.6957 19.351C16.2093 19.2358 16.515 18.3336 16.6128 17.8921C16.7107 17.457 16.6312 16.5933 16.6312 16.5933L17.6339 17.5338H17.6278Z" fill="url(#paint2_linear_1_12907)" stroke="black" stroke-width="0.184752"/>
<path fill-rule="evenodd" clip-rule="evenodd" d="M22.7889 18.1354C22.7889 18.1354 23.1374 17.5723 23.4186 17.6171C23.706 17.6555 23.975 18.0138 23.9933 18.033C24.1525 17.892 24.2942 17.7308 24.4152 17.5531C24.3969 17.5339 23.975 16.4974 23.7427 16.4526C23.4968 16.4287 23.2491 16.4682 23.0212 16.5678L22.7889 18.1354Z" fill="url(#paint3_linear_1_12907)" stroke="black" stroke-width="0.184752"/>
<path fill-rule="evenodd" clip-rule="evenodd" d="M22.0246 17.5338C22.0246 17.5722 22.1469 19.0567 22.636 19.5749C23.1251 20.0932 23.9383 20.4131 24.2257 20.3363C24.5069 20.2532 25.1611 18.7559 25.1611 18.7559C25.1611 18.7559 24.4702 19.4726 23.9567 19.351C23.4431 19.2358 23.1374 18.3336 23.0395 17.8921C22.9417 17.457 23.0212 16.5933 23.0212 16.5933L22.0185 17.5338H22.0246Z" fill="url(#paint4_linear_1_12907)" stroke="black" stroke-width="0.184752"/>
<path fill-rule="evenodd" clip-rule="evenodd" d="M15.3498 17.2856C15.1226 17.5612 15.0017 17.7788 14.905 17.9383C14.8083 18.0978 14.8664 18.325 15.0839 18.6393C15.3256 18.9777 17.2787 20.3168 19.8264 20.3168C22.3741 20.3168 24.3272 18.9825 24.5641 18.6393C24.7865 18.3202 24.8445 18.0978 24.7478 17.9383C24.6511 17.7788 24.5303 17.5612 24.3031 17.2856C24.3031 17.7014 22.6835 19.2194 19.8264 19.2194C16.9693 19.2194 15.3498 17.7014 15.3498 17.2856V17.2856Z" fill="url(#paint5_linear_1_12907)" stroke="black" stroke-width="0.1785"/>
<path fill-rule="evenodd" clip-rule="evenodd" d="M24.1876 20.1128L24.6278 19.3514L24.4077 19.1914C24.3465 19.3834 24.0959 19.4473 24.0531 19.6905C24.0103 19.9336 24.2243 20.1704 24.1876 20.1128V20.1128Z" fill="url(#paint6_linear_1_12907)" stroke="black" stroke-width="0.184752"/>
<path fill-rule="evenodd" clip-rule="evenodd" d="M24.5864 19.8949C24.5864 19.8949 24.6659 19.5558 24.4152 19.511C24.1706 19.4726 24.0361 19.7029 24.0728 19.6134C24.1095 19.511 24.2562 19.415 24.2807 19.0759C24.299 18.7368 24.2624 18.5512 24.2624 18.5512C24.2624 18.5512 24.3602 18.1161 24.7576 18.1737C25.1611 18.2377 25.1795 18.5576 25.1795 18.6728C25.1795 18.788 25.1428 18.8519 25.1428 18.8519L24.5864 19.8949Z" fill="url(#paint7_linear_1_12907)" stroke="black" stroke-width="0.184752"/>
<path d="M23.195 18.5927L23.2778 18.7376L23.3316 18.7044L23.2944 18.6093L23.3027 18.5886L23.3979 18.5306L23.6462 18.9693V18.99L23.5924 19.0273L23.6172 19.0686L23.8531 18.9155L23.8325 18.8741L23.7786 18.9072L23.758 18.9031L23.5096 18.4644L23.6006 18.4023H23.6214L23.6834 18.4851L23.7372 18.4478L23.6545 18.3071L23.1951 18.5968L23.195 18.5927ZM22.6032 18.932L22.6239 18.9734L22.6736 18.9528L22.6943 18.9569L22.9095 19.4039L22.9054 19.4246L22.8557 19.4535L22.8764 19.4949L23.1123 19.3707L23.0916 19.3294L23.0419 19.3501L23.0213 19.3459L22.9178 19.1349L23.1578 19.0107L23.2613 19.2176L23.2572 19.2383L23.2075 19.2714L23.2282 19.3128L23.4641 19.1886L23.4434 19.1473L23.3938 19.168L23.373 19.1597L23.1578 18.7169L23.162 18.6962L23.2117 18.6672L23.1909 18.6258L22.955 18.75L22.9757 18.7913L23.0254 18.7665L23.0461 18.7748L23.1372 18.9569L22.8971 19.0811L22.8061 18.899L22.8143 18.8783L22.8598 18.8493L22.8392 18.8079L22.6032 18.932ZM22.4666 19.3128L22.4791 19.3542L22.5453 19.3376L22.566 19.3459L22.6198 19.5322L22.5701 19.5487C22.4335 19.5901 22.3218 19.5239 22.2763 19.3625C22.2308 19.2052 22.2846 19.0852 22.417 19.0438C22.4424 19.0358 22.4691 19.033 22.4956 19.0355L22.5122 19.0479L22.5577 19.1349L22.624 19.1141L22.5826 18.9652C22.5081 18.9652 22.4419 18.9734 22.3839 18.99C22.1853 19.0562 22.0942 19.2176 22.1439 19.4039C22.1977 19.5901 22.3632 19.677 22.5495 19.6191C22.6181 19.597 22.6825 19.5634 22.7398 19.5197L22.6777 19.3128L22.6902 19.2962L22.7398 19.2756L22.7274 19.23L22.4666 19.3128ZM21.9162 19.8302L22.1811 19.7474L22.1687 19.7018L22.1066 19.7143L22.09 19.706L21.9452 19.2259L21.9534 19.2094L22.0114 19.1845L21.999 19.1431L21.7341 19.2259L21.7465 19.2673L21.8086 19.2549L21.8252 19.2631L21.97 19.7432L21.9576 19.7598L21.9038 19.7847L21.9162 19.826V19.8302ZM20.476 20.066L20.9437 20.0247L20.9271 19.855L20.8692 19.8591L20.8609 19.9584L20.8526 19.975L20.6498 19.9957L20.6291 19.7474L20.745 19.7391L20.7574 19.7516L20.7698 19.8178H20.8236L20.8029 19.5984H20.7532V19.6687L20.7408 19.6853L20.625 19.6936L20.6084 19.4701L20.7822 19.4577L20.7946 19.466L20.8112 19.5487L20.8733 19.5446L20.8609 19.3956L20.4221 19.437V19.4783H20.4801L20.4925 19.4949L20.5339 19.9915L20.5256 20.0081L20.4718 20.0164V20.066H20.476ZM19.7766 19.4452V19.4908L19.8303 19.4949L19.8428 19.5115L19.851 20.0081L19.8386 20.0247L19.7889 20.0329V20.0743H20.0373V20.0288L19.9834 20.0247L19.9669 20.0081V19.7722L20.2153 19.7681L20.2235 20.004L20.2111 20.0205L20.1573 20.0247V20.0702H20.4056V20.0205H20.3518L20.3394 20.004L20.3311 19.5032L20.3435 19.4866L20.3932 19.4825V19.437H20.1449V19.4866L20.1987 19.4908L20.2152 19.5032V19.7101L19.9669 19.7143L19.9586 19.5073L19.9752 19.4949L20.0248 19.4908V19.4452H19.7766ZM19.2468 19.4287V19.5942H19.3047L19.3213 19.4949L19.3337 19.4825H19.4372V19.9957L19.4206 20.0123H19.3627V20.0619H19.6234V20.0205L19.5655 20.0123L19.5531 19.9957L19.5572 19.4866H19.6607L19.6772 19.4991L19.6896 19.6025H19.7476V19.437L19.2468 19.4287ZM18.4397 19.9626L18.895 19.9833L18.9033 19.8177L18.8453 19.8136L18.8288 19.9129L18.8164 19.9253L18.6177 19.917L18.6301 19.6687L18.7418 19.677L18.7501 19.6894L18.7584 19.7598H18.8081L18.8163 19.5446H18.7667L18.7543 19.6067L18.7419 19.6191H18.6301L18.6425 19.3915L18.8081 19.3997L18.8205 19.4121L18.8329 19.4949L18.8909 19.4991L18.895 19.3501L18.4687 19.3294V19.3749L18.5184 19.3832L18.5308 19.3997L18.5101 19.8964L18.4936 19.9129H18.4397V19.9584V19.9626ZM17.3926 19.6894L17.6327 19.7722L17.6451 19.7308L17.5954 19.706L17.5872 19.6853L17.732 19.2094L17.7486 19.2011L17.8065 19.2135L17.8189 19.1721L17.5748 19.0893L17.5623 19.1307L17.612 19.1556L17.6244 19.1721L17.4755 19.6481L17.4589 19.6605L17.4051 19.6439L17.3926 19.6894ZM16.9581 19.5239C17.0023 19.5603 17.0528 19.5884 17.1071 19.6067C17.2395 19.6481 17.3471 19.5984 17.3802 19.495C17.3885 19.4674 17.3898 19.4382 17.384 19.4101C17.3782 19.3819 17.3656 19.3556 17.3471 19.3335C17.3057 19.2839 17.2685 19.2549 17.252 19.23C17.2147 19.1886 17.2023 19.1514 17.2106 19.11C17.2271 19.0645 17.2768 19.0396 17.3347 19.0604C17.3637 19.0686 17.3761 19.0769 17.3926 19.0935L17.3968 19.11L17.3844 19.2052L17.4423 19.2259L17.4837 19.081C17.4422 19.0452 17.3945 19.0171 17.343 18.9983C17.2271 18.9569 17.1278 19.0107 17.0947 19.11C17.0883 19.1336 17.0868 19.1583 17.0904 19.1825C17.0939 19.2068 17.1024 19.23 17.1154 19.2507C17.1443 19.2962 17.1775 19.3252 17.2023 19.3542C17.252 19.4039 17.2685 19.4494 17.2561 19.4949C17.2395 19.5446 17.1899 19.5694 17.1236 19.5446C17.0996 19.536 17.0773 19.5234 17.0574 19.5073L17.0491 19.4908L17.0699 19.3791L17.0078 19.3584L16.9581 19.5239ZM16.4076 19.2921L16.8215 19.4991L16.8919 19.3459L16.8422 19.3211L16.7884 19.4039L16.7718 19.4121L16.5897 19.3211L16.6932 19.1018L16.7925 19.1514L16.7967 19.168L16.776 19.2342L16.8215 19.259L16.9125 19.0604L16.867 19.0396L16.8298 19.0935L16.8132 19.1018L16.7139 19.0521L16.8049 18.8493L16.9581 18.9279L16.9664 18.9445L16.9415 19.0231L16.9954 19.048L17.0574 18.9155L16.6684 18.721L16.6518 18.7624L16.6932 18.7913L16.7015 18.812L16.4946 19.2631L16.478 19.2673L16.4283 19.2507L16.4118 19.2921H16.4076ZM16.3415 18.5389L16.1345 18.394L16.1096 18.4354L16.1511 18.4685V18.4892L15.8903 18.9031L15.8696 18.9072L15.8283 18.8824L15.7993 18.9238L16.0062 19.0645C16.0807 19.1141 16.1428 19.139 16.209 19.1307C16.2959 19.1224 16.3746 19.0728 16.4325 18.9776C16.5359 18.812 16.507 18.6506 16.3415 18.5389ZM16.2545 18.5389L16.2959 18.572C16.4076 18.6465 16.4201 18.7582 16.3248 18.9031C16.2296 19.048 16.1304 19.0852 16.0186 19.0065L15.9773 18.9817L16.2545 18.543V18.5389ZM17.91 19.1928L17.9017 19.2342L17.9514 19.2507L17.9596 19.2673L17.8603 19.7557L17.8438 19.7681L17.7941 19.7639L17.7858 19.8053L18.0218 19.8592L18.03 19.8178L17.9804 19.7971L17.9679 19.7805L18.0093 19.5736L18.0259 19.5777C18.1086 19.5984 18.1252 19.6398 18.1335 19.735C18.1335 19.7805 18.1335 19.8219 18.1707 19.8715C18.1873 19.8922 18.2121 19.9129 18.2535 19.917C18.2808 19.9232 18.3084 19.9274 18.3363 19.9295L18.3446 19.8881L18.3363 19.8839C18.2784 19.8715 18.2535 19.8508 18.2494 19.7971C18.2452 19.7474 18.2494 19.6977 18.2287 19.6481C18.2141 19.6148 18.1875 19.5882 18.1542 19.5736C18.2535 19.5736 18.3115 19.5322 18.328 19.4494C18.3487 19.346 18.2949 19.2756 18.1625 19.2466L17.9142 19.1928H17.91ZM18.0755 19.2797L18.1086 19.288C18.1914 19.3087 18.2245 19.3584 18.208 19.4328C18.1914 19.5198 18.1418 19.5487 18.0507 19.528C18.0424 19.528 18.0341 19.528 18.0218 19.5197L18.0714 19.2797H18.0755ZM21.1382 19.3335L21.1464 19.379H21.2003L21.2168 19.3873L21.2954 19.8839L21.283 19.8964L21.2292 19.9129L21.2375 19.9543L21.4941 19.9129L21.49 19.8674L21.432 19.8715L21.4155 19.8592L21.3824 19.6522H21.3989C21.49 19.6315 21.5231 19.6687 21.5645 19.7515C21.5851 19.7929 21.5976 19.8343 21.6513 19.8633C21.6762 19.8757 21.7135 19.8839 21.7548 19.8757C21.7857 19.8695 21.8161 19.8612 21.8459 19.8508L21.8376 19.8094H21.8252C21.7631 19.8219 21.7341 19.8094 21.7052 19.7639C21.6803 19.7226 21.6638 19.6729 21.6307 19.6357C21.6058 19.6108 21.5727 19.5943 21.5272 19.5943C21.6265 19.557 21.6721 19.495 21.6596 19.408C21.6431 19.3046 21.5603 19.2631 21.4196 19.2839L21.1382 19.3335ZM21.3368 19.3542L21.3782 19.3501C21.4651 19.3335 21.5189 19.3666 21.5314 19.4452C21.5437 19.528 21.5065 19.5777 21.4072 19.5942H21.3741L21.3327 19.3542H21.3368Z" fill="black"/>
<path fill-rule="evenodd" clip-rule="evenodd" d="M15.4689 20.1128L15.0287 19.3514L15.2488 19.1914C15.31 19.3834 15.5606 19.4473 15.6034 19.6905C15.6462 19.9336 15.4322 20.1704 15.4689 20.1128V20.1128Z" fill="url(#paint8_linear_1_12907)" stroke="black" stroke-width="0.184752"/>
<path fill-rule="evenodd" clip-rule="evenodd" d="M15.066 19.8949C15.066 19.8949 14.9865 19.5558 15.2372 19.511C15.4817 19.4726 15.6163 19.7029 15.5796 19.6134C15.5429 19.511 15.3961 19.415 15.3717 19.0759C15.3533 18.7368 15.39 18.5512 15.39 18.5512C15.39 18.5512 15.2922 18.1161 14.8948 18.1737C14.4913 18.2377 14.4729 18.5576 14.4729 18.6728C14.4729 18.788 14.5096 18.8519 14.5096 18.8519L15.066 19.8949Z" fill="url(#paint9_linear_1_12907)" stroke="black" stroke-width="0.184752"/>
<path fill-rule="evenodd" clip-rule="evenodd" d="M19.832 18.9685C19.832 18.9685 15.2159 17.5993 15.2464 12.4293L15.277 5.58301H24.3809L24.4114 12.3909C24.442 17.5609 19.8259 18.9621 19.8259 18.9621L19.832 18.9685Z" fill="#0072C4" stroke="white" stroke-width="0.600445"/>
<path fill-rule="evenodd" clip-rule="evenodd" d="M15.911 7.1161C15.9193 7.1161 15.9731 7.06227 16.0269 7.01677C16.0972 6.97538 16.1635 6.92983 16.2338 6.89261C16.2917 6.86366 16.3993 6.83878 16.4449 6.814C16.512 6.78152 16.5713 6.73493 16.6187 6.6774C16.627 6.58635 16.6394 6.52013 16.6394 6.41669L16.8463 6.3132C16.9415 6.28836 16.9622 6.25114 17.0574 6.23459C17.1195 6.21387 17.2188 6.21387 17.3057 6.21387C17.4009 6.21387 17.4588 6.28425 17.5458 6.29664C17.6492 6.33803 17.6948 6.36697 17.7775 6.43736C17.8189 6.4953 17.8479 6.54496 17.9265 6.58635C17.9886 6.61946 18.0465 6.66912 18.1169 6.68568C18.1997 6.73118 18.2659 6.76017 18.328 6.82639C18.3859 6.86778 18.4107 6.92572 18.4604 6.96711C18.5214 7.01915 18.5864 7.06621 18.6549 7.10782C18.7377 7.16165 18.8205 7.20298 18.9488 7.19059C19.0192 7.19059 19.0936 7.17815 19.1764 7.19059C19.2716 7.19059 19.3626 7.19059 19.4454 7.21543C19.5447 7.21543 19.6234 7.22782 19.7144 7.23609C19.7972 7.25265 19.8841 7.25265 19.9793 7.25265C20.0621 7.27753 20.1531 7.27337 20.2483 7.27337H20.7864C20.8816 7.27337 20.9809 7.27748 21.0513 7.29404C21.1399 7.29272 21.2284 7.28581 21.3161 7.27337C21.4237 7.27337 21.5024 7.25681 21.6058 7.25265H21.9287C22.0114 7.27753 22.119 7.29404 22.177 7.33542C22.2556 7.35614 22.2929 7.39336 22.3674 7.4182C22.4416 7.44866 22.508 7.49533 22.5619 7.5548C22.6223 7.6209 22.6738 7.69466 22.715 7.77417C22.7646 7.85278 22.7853 7.93972 22.8267 8.03488C22.8474 8.12593 22.8681 8.21282 22.8681 8.31215C22.8847 8.39909 22.8847 8.49425 22.8847 8.59358C22.864 8.68463 22.8598 8.78401 22.8267 8.87089C22.8267 8.97022 22.806 9.05711 22.7895 9.13161C22.7729 9.21438 22.7522 9.26821 22.7481 9.37165V9.65308C22.7481 9.74413 22.7232 9.81035 22.715 9.90968C22.6638 10.0077 22.6182 10.1086 22.5784 10.2118C22.5183 10.2545 22.4664 10.3078 22.4253 10.3691C22.3839 10.398 22.3632 10.4353 22.3674 10.4519C22.446 10.4767 22.4253 10.5305 22.4253 10.6298C22.4377 10.7085 22.4418 10.8036 22.4666 10.8906C22.4708 10.9857 22.4915 11.0437 22.5205 11.1099C22.5536 11.1513 22.5619 11.1306 22.4832 11.1306C22.4294 11.172 22.3715 11.1513 22.3508 11.0685C22.3076 11.0027 22.2806 10.9275 22.2721 10.8492C22.2639 10.7581 22.2473 10.6671 22.2183 10.6091C22.2059 10.4974 22.177 10.4974 22.0652 10.4891C22.0114 10.4436 21.9411 10.4312 21.8334 10.4312C21.73 10.4312 21.7217 10.4188 21.7176 10.5305V10.8119C21.701 10.8947 21.6637 10.9568 21.6431 11.0313C21.5851 11.0727 21.5603 11.143 21.49 11.1886C21.4569 11.2796 21.4113 11.2962 21.3203 11.3127L21.2044 11.172C21.2582 11.0809 21.3037 11.0686 21.3368 10.9692C21.3782 10.8906 21.403 10.8409 21.432 10.7705C21.3906 10.7085 21.3575 10.6795 21.3203 10.5926C21.2791 10.5234 21.2458 10.4498 21.2209 10.3732C21.1589 10.3484 21.0595 10.3443 21.014 10.3112C20.9188 10.2904 20.894 10.3939 20.7822 10.3939H20.5174C20.3974 10.3939 20.3684 10.456 20.269 10.4519C20.2359 10.4601 20.1656 10.4477 20.058 10.4519C19.9752 10.4808 19.88 10.4725 19.7889 10.4725C19.6938 10.4725 19.6151 10.4477 19.5406 10.4311C19.4537 10.4063 19.3668 10.3815 19.2758 10.3733C19.1599 10.3733 19.1185 10.3815 19.044 10.4311C18.986 10.4684 18.8992 10.547 18.8371 10.5926C18.8081 10.6588 18.7957 10.7705 18.7543 10.8492C18.7377 10.932 18.7046 10.9775 18.6798 11.0519C18.6489 11.1285 18.6308 11.2096 18.626 11.292C18.6177 11.4244 18.5887 11.4079 18.5101 11.3707C18.477 11.3127 18.4273 11.2548 18.3942 11.1886C18.4108 11.0892 18.4356 11.0396 18.4356 10.932C18.4149 10.8492 18.3735 10.8575 18.3197 10.9112C18.3197 11.0147 18.3197 11.0975 18.2784 11.1513C18.2712 11.1836 18.2576 11.2142 18.2384 11.2412C18.2192 11.2682 18.1948 11.2911 18.1666 11.3085C18.1376 11.383 18.0755 11.4203 18.0135 11.4493C18.0052 11.4493 18.0135 11.4244 18.0135 11.3665C17.9679 11.2796 18.0135 11.2009 18.0135 11.0892C18.0135 10.9899 18.0052 10.9237 18.0341 10.8326C18.0341 10.7333 17.9928 10.6422 17.9762 10.5719C17.939 10.4974 17.9183 10.4601 17.8231 10.4312C17.7527 10.4022 17.6576 10.3691 17.612 10.307C17.5681 10.2459 17.5079 10.1986 17.4382 10.1704C17.3554 10.1415 17.3099 10.1083 17.2478 10.0711C17.1899 10.0049 17.1402 9.98006 17.1154 9.89317C17.074 9.83107 17.0699 9.71518 17.0409 9.63241C17.0327 9.55011 17.0132 9.46933 16.9829 9.39237C16.9735 9.31028 16.9541 9.22965 16.925 9.15232C16.9126 9.06955 16.8919 8.98678 16.867 8.89156C16.867 8.7964 16.867 8.70118 16.8464 8.6143V8.33287C16.8339 8.25009 16.8298 8.13421 16.8091 8.07211C16.8091 7.9645 16.7967 7.90656 16.7677 7.83206C16.7263 7.76173 16.7263 7.73273 16.656 7.71207C16.6063 7.77412 16.5277 7.80312 16.4283 7.81551C16.358 7.79895 16.2587 7.78656 16.18 7.75345C16.1014 7.7369 16.0517 7.70379 15.9896 7.67068C15.9539 7.61618 15.9152 7.56368 15.8738 7.51341C15.8614 7.40992 15.8407 7.35614 15.8324 7.25265C15.8324 7.17815 15.8365 7.21954 15.9151 7.1161H15.911Z" fill="#BCBCBC"/>
<path fill-rule="evenodd" clip-rule="evenodd" d="M17.0409 7.83623L17.0574 7.81967C17.0243 7.85278 17.0368 7.83623 17.1112 7.80728C17.1526 7.7824 17.2312 7.7369 17.2602 7.70795C17.2934 7.6914 17.3513 7.66657 17.3844 7.63757C17.4175 7.59618 17.4547 7.56307 17.5044 7.52585C17.5541 7.4803 17.6037 7.46375 17.6658 7.42652C17.7403 7.41825 17.7693 7.38514 17.8397 7.40997C17.9059 7.42652 17.9348 7.42652 17.9886 7.36858C18.0424 7.33547 18.1045 7.2982 18.1252 7.24442V7.15748C18.1252 7.24854 18.1045 7.28164 18.0424 7.31059C18.001 7.36442 17.9431 7.41825 17.9183 7.46786C17.8769 7.52996 17.8686 7.56307 17.8272 7.59202C17.79 7.63757 17.7321 7.6624 17.7196 7.7369C17.7362 7.77001 17.7196 7.78656 17.761 7.79073C17.7983 7.82379 17.8397 7.81139 17.8934 7.79073C17.9384 7.74201 17.9748 7.68604 18.001 7.62518C18.0466 7.55891 18.0714 7.52997 18.0963 7.4803C18.1459 7.44719 18.1749 7.42236 18.1914 7.36858C18.2452 7.33542 18.2907 7.30231 18.328 7.2692C18.3694 7.24437 18.3901 7.2237 18.448 7.21131C18.4523 7.26689 18.4377 7.32229 18.4066 7.36858C18.3942 7.44719 18.3984 7.48447 18.4232 7.53413C18.4605 7.56307 18.4521 7.58379 18.477 7.63757C18.4977 7.58791 18.5101 7.49686 18.5184 7.43891V7.42652C18.5184 7.48441 18.5184 7.56719 18.5018 7.60863C18.5018 7.6914 18.5225 7.72862 18.5432 7.79073C18.5639 7.82384 18.5846 7.8445 18.6094 7.86106C18.6094 7.77828 18.6343 7.72862 18.6384 7.65412C18.6549 7.70795 18.6508 7.78656 18.6632 7.84862C18.6674 7.91489 18.6922 7.96455 18.7171 8.01833C18.7502 8.03488 18.7584 8.09282 18.7708 8.04727C18.8039 7.948 18.8039 7.84039 18.8247 7.7369C18.8288 7.68307 18.8329 7.60446 18.8536 7.56724L18.8247 7.73279C18.8288 7.68312 18.8329 7.60863 18.8536 7.56724V7.55068C18.8686 7.62577 18.8783 7.70183 18.8826 7.77829C18.8826 7.84039 18.8784 7.90245 18.895 7.96039C18.9364 7.93972 18.9654 7.89005 18.9902 7.83623C19.0193 7.77946 19.0554 7.72661 19.0978 7.67896L18.9902 7.83211C19.0195 7.77678 19.0557 7.72533 19.0978 7.67896V7.66657C19.0899 7.7311 19.0857 7.79604 19.0854 7.86106C19.0854 7.92728 19.0854 8.00177 19.0978 8.04732C19.1144 8.12182 19.135 8.13421 19.1392 8.21287C19.1392 8.25426 19.1309 8.29564 19.1516 8.31631C19.2095 8.32875 19.2095 8.29564 19.2178 8.21698C19.2178 8.12593 19.2426 8.06388 19.2468 7.97694C19.2468 7.86934 19.2592 7.98938 19.2716 8.03077C19.2964 8.08988 19.3104 8.15294 19.313 8.21698C19.313 8.25837 19.3089 8.29564 19.3254 8.31631C19.3792 8.29148 19.3999 8.23354 19.433 8.20043C19.462 8.13421 19.491 8.10527 19.5158 8.05971C19.5862 8.04732 19.582 8.01833 19.582 7.93556C19.582 7.86522 19.5778 7.79484 19.5986 7.7369C19.62 7.6759 19.638 7.61373 19.6524 7.55068C19.6772 7.53824 19.7021 7.57552 19.7186 7.60857C19.7476 7.65412 19.7434 7.72034 19.7434 7.79073C19.76 7.85278 19.7848 7.90245 19.8138 7.96039C19.8389 8.01143 19.8709 8.05878 19.9089 8.1011C19.9214 8.14665 19.9214 8.22526 19.9214 8.28737C19.9752 8.22526 19.9834 8.13838 19.9876 8.04732C19.9793 7.98522 19.9793 7.90661 19.9628 7.84867C19.9628 7.78656 19.9462 7.72451 19.9338 7.67896C19.8924 7.65829 19.88 7.63757 19.9214 7.57963C19.9628 7.54241 20.0124 7.55896 20.0828 7.56724C20.12 7.60446 20.1324 7.62513 20.1366 7.7079C20.1366 7.78245 20.1366 7.84039 20.1655 7.89006C20.1904 7.93144 20.2152 7.96039 20.2318 8.03072C20.2525 8.05144 20.269 8.08043 20.298 8.04732C20.3145 8.00594 20.327 7.92316 20.3394 7.87761C20.3518 7.82379 20.3766 7.79484 20.4056 7.77829C20.4056 7.85695 20.4056 7.90245 20.4346 7.96039C20.4594 8.02249 20.476 8.04732 20.5008 8.11766C20.5297 8.13838 20.5339 8.17976 20.5711 8.20043C20.5794 8.13421 20.5836 8.05972 20.5836 7.97694V7.77829C20.5877 7.71207 20.6043 7.67479 20.625 7.62102C20.6663 7.67896 20.6663 7.69963 20.6663 7.77829C20.7077 7.76173 20.716 7.72862 20.7326 7.67896C20.7615 7.65001 20.7739 7.63757 20.7864 7.7079C20.7947 7.78245 20.8112 7.84867 20.8278 7.919C20.8526 7.95211 20.8857 8.03072 20.9188 8.05971C20.9423 8.10114 20.97 8.13998 21.0016 8.1756C21.0223 8.21698 21.0264 8.24593 21.0844 8.25837C21.0844 8.16321 21.0844 8.06799 21.0678 7.97694C21.0678 7.89417 21.0513 7.86522 21.0429 7.79073C21.0182 7.74518 21.0057 7.67068 21.014 7.65001C21.068 7.6961 21.1106 7.75421 21.1382 7.81967C21.1671 7.89 21.1961 7.93555 21.2209 8.00589C21.2603 8.04901 21.295 8.09618 21.3244 8.1466C21.3741 8.18799 21.3989 8.23354 21.4486 8.27076C21.4734 8.29564 21.5314 8.31215 21.5437 8.29976C21.5396 8.21698 21.5272 8.14665 21.5024 8.07627C21.5022 8.01722 21.488 7.95905 21.461 7.90656C21.4071 7.86106 21.3658 7.82795 21.3368 7.76589C21.3203 7.74518 21.3161 7.73273 21.312 7.69551C21.3833 7.75212 21.4473 7.81746 21.5024 7.89C21.5291 7.93178 21.5662 7.96598 21.61 7.98933C21.6348 8.02244 21.7135 8.05971 21.7714 8.07211C21.805 8.11656 21.8535 8.14742 21.9079 8.15904L21.7713 8.07627C21.8056 8.11917 21.854 8.14851 21.9079 8.15904V8.1756C21.898 8.09441 21.8697 8.01655 21.8252 7.94795C21.7993 7.88495 21.7563 7.83046 21.701 7.79068C21.6674 7.73932 21.622 7.69675 21.5686 7.66652C21.5314 7.62513 21.4775 7.55063 21.4444 7.52585C21.5065 7.48441 21.5727 7.55063 21.6348 7.57963C21.6886 7.63757 21.7383 7.71207 21.7714 7.74929C21.8032 7.81728 21.845 7.88007 21.8956 7.93556C21.9534 7.96866 21.9907 8.00177 22.0404 8.04727C22.1232 8.06799 22.09 8.039 22.0693 7.97694C22.0404 7.89417 22.0693 7.89417 22.1232 7.948C22.1604 7.97694 22.2059 8.01833 22.2598 8.04727C22.2804 8.07627 22.3176 8.09694 22.3508 8.07627C22.3674 8.05555 22.3674 8.05555 22.3674 8.03488C22.3384 7.94383 22.3094 7.87761 22.2432 7.84862C22.2142 7.80723 22.1604 7.76584 22.119 7.72446C22.0942 7.68307 22.0652 7.65824 22.0404 7.60857L22.1232 7.72034C22.0942 7.67896 22.0652 7.65824 22.0404 7.60863H22.028C22.1108 7.60863 22.1397 7.63341 22.2018 7.66652C22.2519 7.687 22.295 7.72149 22.326 7.76584C22.3508 7.79895 22.3963 7.83623 22.4211 7.87761L22.5536 7.97694C22.5991 8.03488 22.6074 8.07211 22.6074 8.15904C22.6364 8.20043 22.6405 8.2832 22.6488 8.3287C22.6405 8.40736 22.6115 8.34526 22.6074 8.29976C22.5991 8.23765 22.5743 8.24182 22.5246 8.25837C22.5246 8.34114 22.537 8.36598 22.566 8.42803C22.5604 8.4781 22.5434 8.52623 22.5164 8.56875C22.4832 8.58946 22.475 8.52736 22.446 8.49841C22.446 8.41564 22.4211 8.4032 22.3632 8.3577V8.41564C22.3963 8.47358 22.4294 8.52736 22.4336 8.61013C22.455 8.6698 22.4649 8.73303 22.4625 8.7964C22.4625 8.86673 22.4625 8.933 22.446 8.99505C22.446 9.06955 22.4336 9.10266 22.4336 9.17716V9.57447C22.4237 9.63464 22.4195 9.69561 22.4211 9.75657L22.4336 9.57447C22.4253 9.62413 22.4211 9.68619 22.4211 9.75657V9.76896C22.3963 9.69863 22.3673 9.63652 22.3508 9.56203C22.311 9.5204 22.28 9.47113 22.2598 9.4172C22.2473 9.35509 22.2432 9.28476 22.2308 9.2351C22.2101 9.18543 22.1894 9.13161 22.148 9.16472C22.1314 9.26821 22.1563 9.33026 22.1894 9.42959C22.2101 9.49581 22.2101 9.55375 22.2308 9.61586C22.2639 9.69035 22.2887 9.69863 22.2308 9.7814C22.2018 9.83107 22.1894 9.84346 22.1769 9.89729C22.1273 9.92212 22.1149 9.93867 22.1108 9.99661C22.0942 9.94279 22.0528 9.87657 22.028 9.81451C22.0031 9.74413 21.9742 9.6738 21.9618 9.61586C21.9287 9.56619 21.8914 9.4917 21.8541 9.45859C21.8169 9.4172 21.7713 9.33443 21.7466 9.29304C21.6927 9.23093 21.6803 9.19371 21.6348 9.16472C21.6265 9.13577 21.61 9.0985 21.581 9.12333C21.581 9.18955 21.581 9.25993 21.5976 9.31787C21.61 9.40064 21.6348 9.44614 21.639 9.52892V9.68619C21.6058 9.60341 21.5686 9.5372 21.5437 9.45859C21.5106 9.4172 21.4858 9.33443 21.4486 9.30543C21.4237 9.24754 21.4072 9.20199 21.3782 9.16477C21.3741 9.12333 21.3534 9.12333 21.3368 9.09438C21.3368 9.17299 21.3658 9.20199 21.3782 9.25993C21.4034 9.31419 21.4134 9.37426 21.4071 9.43375C21.3741 9.33443 21.341 9.22682 21.2996 9.13577C21.2582 9.07783 21.2168 9.00333 21.1919 8.9495C21.1506 8.904 21.1092 8.89984 21.0678 8.86673C21.0323 8.85087 21.0011 8.82676 20.9768 8.7964C20.985 8.87089 21.014 8.92056 21.0305 8.9785C21.0388 9.04883 21.0719 9.10677 21.0844 9.16472C21.0678 9.25993 21.043 9.13577 21.0305 9.09438C21.014 9.01161 20.9892 8.97022 20.9602 8.92467C20.9229 8.89573 20.894 8.85018 20.8526 8.82534C20.8112 8.80879 20.8278 8.82534 20.8278 8.87917C20.8278 8.96606 20.8278 9.024 20.8526 9.07783C20.8816 9.11922 20.8816 9.17299 20.8816 9.24749C20.8774 9.31787 20.865 9.37165 20.865 9.44614V9.55791C20.8361 9.49997 20.8071 9.4627 20.7822 9.3882C20.7408 9.32198 20.7243 9.27648 20.6912 9.2061C20.6622 9.19371 20.6084 9.18127 20.5836 9.2061C20.5877 9.27648 20.6208 9.30543 20.625 9.3882C20.5711 9.44203 20.5795 9.45859 20.5422 9.37581C20.5132 9.30959 20.476 9.31371 20.4346 9.27648C20.3684 9.26821 20.3891 9.22266 20.3684 9.1606C20.3684 9.10677 20.3684 9.053 20.3518 9.00745C20.2773 9.00745 20.2359 9.00745 20.1904 9.04883C20.1697 9.09022 20.178 9.17299 20.1904 9.2351V9.42959C20.1739 9.47925 20.149 9.48342 20.1366 9.54547C20.1118 9.60341 20.1035 9.66963 20.0828 9.71102C20.0332 9.75657 20.0538 9.76068 20.029 9.68619V9.23093C20.029 9.15644 20.0414 9.11922 20.0414 9.04883C20.0165 8.99094 20.0083 8.9785 19.9173 8.9785C19.9007 9.01572 19.909 9.08194 19.9173 9.11921C19.9173 9.18955 19.9255 9.25582 19.9338 9.30543C19.9338 9.37993 19.9421 9.42548 19.9462 9.48753C19.9462 9.56203 19.9297 9.61997 19.8924 9.65308C19.8469 9.66963 19.8883 9.70274 19.8386 9.71518C19.7844 9.68945 19.7342 9.65599 19.6896 9.61586C19.64 9.5993 19.5903 9.58691 19.5158 9.58691C19.4247 9.58691 19.4247 9.57447 19.3916 9.50414C19.3683 9.42989 19.3517 9.3537 19.342 9.27648C19.3089 9.21027 19.3006 9.16477 19.2881 9.09022C19.2695 9.05059 19.241 9.01639 19.2054 8.99089C19.1847 9.06539 19.164 9.12333 19.164 9.2061C19.1475 9.23921 19.1433 9.32198 19.1391 9.35926C19.1102 9.31787 19.0978 9.2351 19.0813 9.17716C19.0564 9.09438 19.0357 9.03644 18.9488 9.06544C18.8578 9.06544 18.8536 9.06544 18.8536 9.16472L18.9612 9.33026V9.52892C18.9612 9.61169 18.9654 9.63657 18.9074 9.65308C18.8867 9.5703 18.837 9.48753 18.7833 9.4172C18.7791 9.35926 18.7626 9.37581 18.7046 9.37581C18.6674 9.37581 18.6301 9.36754 18.6094 9.3882V9.51236C18.5763 9.52064 18.5681 9.51236 18.5432 9.48753C18.5183 9.52892 18.5391 9.58686 18.5432 9.64069C18.5267 9.70691 18.5018 9.76485 18.477 9.79796C18.4687 9.77724 18.4563 9.78552 18.477 9.78552C18.3818 9.74829 18.3115 9.72763 18.2287 9.70274C18.1873 9.70274 18.15 9.74829 18.1252 9.78552C18.0549 9.80623 18.0259 9.8269 17.9473 9.8269C17.8769 9.8269 17.8396 9.83934 17.7734 9.83934C17.7238 9.85173 17.6617 9.8559 17.5954 9.8559C17.5623 9.84346 17.4961 9.84346 17.4755 9.82695C17.5044 9.78552 17.5333 9.76485 17.5582 9.70274C17.5971 9.67157 17.6332 9.63695 17.6658 9.5993C17.6989 9.57447 17.7403 9.52064 17.7734 9.48758C17.7941 9.4172 17.8231 9.40481 17.8686 9.37581C17.9514 9.37581 17.9638 9.40476 18.0424 9.4172C18.1211 9.44614 18.1666 9.45859 18.208 9.40064C18.2701 9.37581 18.3239 9.33026 18.3942 9.31787L18.5308 9.2351C18.5887 9.19782 18.6136 9.1606 18.6632 9.11921C18.6798 9.06127 18.7212 9.01572 18.7046 8.95367C18.6301 8.93295 18.5846 8.93711 18.5391 8.9785C18.4852 9.02816 18.4728 9.04883 18.4066 9.09022C18.3528 9.10677 18.3239 9.13161 18.2576 9.14816C18.2038 9.16888 18.1335 9.1606 18.0714 9.1606C18.0094 9.1606 17.9307 9.15644 17.8934 9.17716C17.9555 9.13577 18.0259 9.09438 18.0838 9.07783C18.1376 9.04056 18.1583 9.024 18.2328 9.01989C18.2659 8.9785 18.3032 8.9785 18.3156 8.90817C18.3363 8.82539 18.2618 8.85018 18.2039 8.87917C18.15 8.89156 18.088 8.92884 18.0424 8.9495C17.9863 8.96779 17.9277 8.97756 17.8686 8.9785C17.852 8.95367 17.881 8.93295 17.8934 8.89573C17.9555 8.87089 17.9679 8.86262 17.9762 8.7964C17.9059 8.80468 17.8769 8.82951 17.8107 8.83779C17.7444 8.85434 17.6741 8.86262 17.5954 8.86673H17.4092C17.343 8.86673 17.3057 8.85018 17.2312 8.85018C17.1774 8.82123 17.1774 8.80879 17.1774 8.72602C17.2189 8.67635 17.2602 8.68463 17.343 8.68463L17.4878 8.61013C17.5375 8.60186 17.5706 8.58119 17.5582 8.55636H17.3678C17.2934 8.52325 17.3678 8.5108 17.4092 8.48597C17.4755 8.48597 17.5417 8.48597 17.5831 8.51086C17.6658 8.51086 17.6948 8.48186 17.761 8.42808C17.8107 8.38664 17.8355 8.3577 17.8934 8.3287C17.9348 8.2832 17.9762 8.25837 18.001 8.21698C18.059 8.16316 18.0963 8.13421 18.1252 8.08866C18.1583 8.06799 18.1831 8.04727 18.1666 8.01833C18.0797 8.02661 18.0424 8.05971 17.9886 8.1011C17.9576 8.13443 17.9212 8.1624 17.881 8.18388C17.8299 8.22021 17.7698 8.24169 17.7072 8.24593C17.6368 8.24593 17.5831 8.23354 17.5168 8.22938C17.4423 8.2211 17.5086 8.20454 17.5292 8.17148C17.5582 8.15488 17.5789 8.10938 17.5582 8.07627C17.5003 8.05555 17.4341 8.05971 17.3678 8.05971H17.1774C17.1071 8.05971 17.0781 8.04316 17.0285 8.01833C17.016 7.97694 17.0285 7.98938 17.0823 7.98938C17.1425 7.98696 17.2023 7.97722 17.2602 7.96039C17.3223 7.94383 17.3306 7.919 17.343 7.84867C17.2768 7.84867 17.2064 7.84867 17.165 7.83623H17.0409ZM15.8738 7.51341C15.8614 7.40997 15.8365 7.35614 15.8324 7.2527C15.8324 7.1782 15.8365 7.21959 15.911 7.1161C15.9193 7.1161 15.9731 7.06227 16.0269 7.01677C16.0972 6.97538 16.1635 6.92983 16.2338 6.89261C16.2876 6.86366 16.3993 6.83878 16.4449 6.814C16.512 6.78152 16.5713 6.73493 16.6187 6.6774C16.6228 6.58635 16.6353 6.52013 16.6353 6.41669L16.8463 6.3132C16.9415 6.28836 16.9622 6.25114 17.0574 6.23459C17.1195 6.21387 17.2188 6.21387 17.3057 6.21387C17.4009 6.21387 17.4588 6.28425 17.5458 6.29664C17.6492 6.33803 17.6948 6.36697 17.7734 6.43736C17.8189 6.4953 17.8479 6.54496 17.9265 6.58635C17.9886 6.61946 18.0465 6.66912 18.1169 6.68568C18.1169 6.76017 18.1335 6.74773 18.0838 6.74773C18.0755 6.82223 18.059 6.81811 17.9886 6.81811C17.9383 6.7921 17.8956 6.75363 17.8644 6.70639C17.8934 6.63185 17.8769 6.76429 17.8644 6.78917C17.8313 6.81811 17.8107 6.84706 17.7734 6.81811C17.7486 6.74778 17.732 6.70223 17.732 6.61946C17.7196 6.53252 17.6948 6.59463 17.6782 6.63185C17.6575 6.70634 17.6658 6.73118 17.6906 6.78912C17.6203 6.78912 17.5665 6.78084 17.5168 6.77673C17.4671 6.76434 17.4092 6.77673 17.3512 6.80156C17.2809 6.84706 17.3057 6.84706 17.3389 6.90089C17.4009 6.92156 17.4465 6.95471 17.5044 6.98366C17.5623 6.97538 17.6286 6.95883 17.6906 6.94227C17.7568 6.92161 17.8148 6.93811 17.881 6.94227C17.9141 6.96294 17.9555 6.96711 17.9762 6.98366C17.9762 7.02916 17.9762 7.07471 17.9597 7.09954C17.9348 7.12021 17.9058 7.16987 17.8645 7.18232C17.8065 7.21641 17.7437 7.24152 17.6782 7.25681C17.5954 7.25681 17.5623 7.27748 17.5002 7.31064C17.492 7.38514 17.4713 7.40169 17.4051 7.42652C17.3469 7.45422 17.2832 7.46837 17.2188 7.46791C17.1774 7.46791 17.1402 7.47202 17.1236 7.45136C17.1696 7.4034 17.2061 7.34725 17.2312 7.28581C17.2436 7.25681 17.2685 7.23614 17.2436 7.21131C17.165 7.21543 17.1443 7.21543 17.136 7.29409C17.1278 7.3727 17.0988 7.38514 17.0409 7.40997C17.0574 7.34375 17.0615 7.28581 17.0823 7.22787C17.0248 7.23688 16.9666 7.24102 16.9084 7.24026C16.867 7.2692 16.8505 7.27748 16.867 7.32303C16.8132 7.3437 16.7429 7.33131 16.6767 7.32303C16.6187 7.32303 16.6518 7.2982 16.6104 7.2692C16.5815 7.21543 16.5525 7.20304 16.4863 7.19887C16.4573 7.24026 16.4035 7.2527 16.3662 7.28164C16.3083 7.30231 16.2711 7.28581 16.2172 7.25681C16.151 7.25681 16.1594 7.27748 16.1759 7.32714C16.2049 7.34375 16.1759 7.36442 16.2172 7.36858C16.2586 7.40169 16.2917 7.40997 16.3662 7.40997C16.4242 7.39753 16.4904 7.39753 16.5567 7.39753C16.6228 7.39753 16.6104 7.41408 16.6104 7.4803C16.5691 7.51341 16.5028 7.50925 16.4325 7.50925C16.3772 7.50206 16.323 7.48818 16.2711 7.46791C16.209 7.46375 16.1594 7.45136 16.1096 7.46791C16.089 7.49274 16.0269 7.50102 16.0972 7.5093C16.1262 7.53824 16.2835 7.52169 16.2917 7.57135C16.3331 7.61274 16.3207 7.66657 16.2586 7.66657C16.2443 7.65779 16.2278 7.65314 16.2111 7.65314C16.1943 7.65314 16.1778 7.65779 16.1635 7.66657C16.1221 7.67484 16.0641 7.66657 15.9855 7.67484C16.089 7.68312 15.911 7.56307 15.8738 7.51341V7.51341Z" fill="#FEFEFE"/>
<path fill-rule="evenodd" clip-rule="evenodd" d="M16.3001 7.04593L16.2173 7.09971C16.1594 7.13282 16.0931 7.18248 16.0559 7.21143C16.0269 7.23631 16.0269 7.25287 15.9896 7.25287C16.0518 7.24459 16.0807 7.22798 16.1386 7.19904C16.209 7.19076 16.2752 7.17421 16.3125 7.1411C16.3497 7.12871 16.3125 7.07488 16.3001 7.04177V7.04593ZM16.9209 6.37958C16.9292 6.37958 16.9457 6.42097 16.9747 6.44996C16.9954 6.50374 17.016 6.54102 17.016 6.60723C17.0326 6.53685 17.0574 6.48307 17.0699 6.40858C17.0491 6.36714 17.0491 6.35475 16.9871 6.35059C16.9871 6.39197 16.9954 6.36303 16.9209 6.37958V6.37958Z" fill="#BCBCBC"/>
<path fill-rule="evenodd" clip-rule="evenodd" d="M16.5057 6.98218C16.4751 6.98218 16.5546 6.95018 16.5852 6.94379C16.6097 6.8926 16.6219 6.86061 16.6647 6.82861C16.7319 6.82861 16.7686 6.85421 16.7992 6.899C16.8603 6.91819 16.8787 6.94379 16.9459 6.95658C16.9765 6.98218 17.0071 6.98218 16.9459 7.00137C16.9092 7.02057 16.8542 7.02697 16.787 7.02697C16.7318 7.0313 16.6778 7.0465 16.628 7.07176C16.5363 7.07176 16.5485 7.07176 16.5057 6.98218V6.98218Z" fill="#C4C4C2" stroke="black" stroke-width="0.138564"/>
<path fill-rule="evenodd" clip-rule="evenodd" d="M17.165 6.39168V6.40819C17.165 6.36685 17.165 6.38752 17.1774 6.46202C17.1981 6.51168 17.2064 6.56134 17.2064 6.63584C17.2455 6.60166 17.2742 6.5572 17.2892 6.50752C17.2892 6.3958 17.2685 6.39991 17.165 6.39163V6.39168ZM17.6617 8.01816H17.6782C17.6368 8.01816 17.6617 8.01816 17.7321 7.97677C17.7776 7.94366 17.8148 7.894 17.881 7.87744C17.9323 7.83375 17.9912 7.80006 18.0549 7.77811C18.088 7.76156 18.1169 7.73673 18.15 7.76156C18.1418 7.83194 18.1294 7.86089 18.0673 7.88988C18.0383 7.93127 17.9928 7.9561 17.9473 7.97266C17.9059 7.99332 17.8562 7.99749 17.8396 8.04715C17.7652 8.08026 17.7568 8.07198 17.6658 8.01816H17.6617ZM17.9224 8.42791C17.9431 8.40719 18.03 8.32025 18.0714 8.28715C18.1079 8.23363 18.1526 8.18617 18.2038 8.14648C18.2452 8.08438 18.2949 8.04299 18.328 7.98921L18.4356 7.8485C18.4356 7.91055 18.4273 7.99333 18.448 8.0306C18.452 8.09006 18.4376 8.14931 18.4066 8.20026C18.3777 8.24992 18.3528 8.28303 18.2825 8.31614C18.2245 8.34925 18.1873 8.35753 18.1376 8.39891C18.0978 8.4251 18.0563 8.44861 18.0134 8.4693C17.9762 8.48585 17.9928 8.48169 17.9224 8.42791V8.42791ZM17.5002 8.75068H17.5168C17.4754 8.75068 17.4961 8.75484 17.5706 8.70929C17.6286 8.6514 17.6741 8.62652 17.7444 8.59757C17.8019 8.59507 17.8582 8.581 17.91 8.55618C17.9389 8.54791 17.9638 8.52724 17.9886 8.55618C18.03 8.61413 18.0424 8.63068 17.9762 8.6679C17.9358 8.70021 17.8894 8.72414 17.8396 8.73829C17.8065 8.76723 17.7403 8.76723 17.6741 8.77967C17.6244 8.77967 17.5913 8.78795 17.5706 8.75073L17.6782 8.77967C17.6244 8.77967 17.5955 8.78795 17.5003 8.75073L17.5002 8.75068ZM18.0797 8.75068V8.73829C18.0797 8.77967 18.0797 8.75895 18.1086 8.68034C18.1625 8.60174 18.179 8.55618 18.2452 8.53963C18.2742 8.49824 18.328 8.48997 18.3942 8.4693C18.4191 8.51068 18.3984 8.56035 18.3942 8.60996C18.3777 8.66379 18.328 8.70101 18.299 8.73829C18.2576 8.76723 18.2411 8.79623 18.1749 8.80862C18.1252 8.80862 18.1542 8.80862 18.0838 8.75073L18.0797 8.75068Z" fill="#BCBCBC"/>
<path fill-rule="evenodd" clip-rule="evenodd" d="M16.7594 6.91755C16.7594 6.95477 16.7305 6.98788 16.6932 6.98788C16.684 6.98796 16.6748 6.98619 16.6662 6.98268C16.6577 6.97917 16.6499 6.97399 16.6433 6.96745C16.6368 6.9609 16.6316 6.95312 16.6281 6.94455C16.6246 6.93599 16.6228 6.92681 16.6229 6.91755C16.6229 6.87616 16.656 6.84717 16.6932 6.84717C16.7305 6.84717 16.7594 6.87616 16.7594 6.91755Z" fill="black"/>
<path fill-rule="evenodd" clip-rule="evenodd" d="M16.9214 10.8854H16.9765C16.8053 10.8854 16.9092 10.8726 17.1905 11.1093C17.3127 11.0069 17.3127 10.9941 17.4045 11.1733C17.4656 11.2693 17.4778 11.1605 17.5695 11.0581C17.6123 11.2629 17.6368 11.474 17.7835 11.2821C17.9547 11.2821 18.1259 11.2693 18.2176 11.3397C18.3277 11.5508 18.291 11.3013 18.3766 11.3973C18.6212 11.4228 18.615 11.1797 18.8718 11.1157C19.0308 11.3269 19.1042 11.1669 19.2998 11.0645C19.4527 11.1029 19.5933 11.3397 19.6239 11.1093C19.7461 10.9046 19.7523 10.9174 19.8378 11.1093C19.9601 11.2245 20.009 11.0581 20.1069 11.0005C20.2903 11.1093 20.4921 11.1285 20.755 11.0581C20.8039 11.2437 20.9139 11.1605 21.0301 11.1093C21.2685 11.2181 21.348 11.2501 21.6232 11.1093C21.7577 10.943 21.6843 11.1157 21.7821 11.2245C21.9839 11.1605 21.9289 11.1477 22.1612 11.1669C22.3996 11.1669 22.418 11.1669 22.4852 11.0005C22.6075 11.1221 22.6442 11.2117 22.8093 11.0581C23.0661 11.0581 22.9866 11.0901 23.1333 10.9941C23.2495 11.2501 23.274 11.0709 23.4085 11.1669C23.3328 11.3559 23.1995 11.5134 23.0294 11.6148C22.9255 11.8068 22.8582 11.9987 22.6503 12.0755C22.4975 12.2354 22.3324 12.3314 22.1612 12.4722C21.9289 12.5362 21.6721 12.5234 21.4092 12.5234H19.1347C18.9758 12.613 18.7067 12.6513 18.4866 12.6961C18.2421 12.6961 17.9547 12.6961 17.7835 12.6385C17.6674 12.517 17.4656 12.3826 17.3555 12.2418C17.2333 12.1459 17.2333 11.9603 17.1354 11.8451C17.0498 11.6852 17.0132 11.4292 16.9214 11.2821V10.8854Z" fill="#005120" stroke="#002B0D" stroke-width="0.20528"/>
<path fill-rule="evenodd" clip-rule="evenodd" d="M22.1612 11.3974V11.4486C22.1612 11.295 22.1673 11.3782 22.0511 11.6789C22.0328 11.7493 21.9778 11.7685 21.8922 11.7941M21.6782 11.6213H21.7332C21.5314 11.8133 21.3969 11.9093 21.3541 12.1332L21.7332 11.6213C21.5314 11.8133 21.3969 11.9093 21.3541 12.1332M20.92 11.3398C20.92 11.3398 20.9139 11.5382 20.865 11.6213ZM20.706 11.7365V11.7877V11.7365ZM20.2719 11.3974H20.327H20.2658C20.2903 11.3974 20.3086 11.3974 20.2658 11.3974H20.2719ZM17.2455 11.3974C17.2699 11.3974 17.38 11.5766 17.5145 11.6789C17.4839 11.8453 17.4289 12.0372 17.5145 12.1908M17.6796 11.7365C17.704 11.7365 17.808 11.9157 17.9486 12.018L17.6796 11.7365C17.704 11.7365 17.808 11.9157 17.9486 12.018V12.0756C17.9486 11.8965 17.9364 11.7173 18.0036 11.6213C18.0648 11.7301 18.1381 11.8965 18.1626 11.7365C18.4683 11.7237 18.615 11.6341 18.8107 11.5638C18.8107 11.6469 18.7985 11.6085 18.8718 11.6789M22.5403 11.4486H22.5953C22.4913 11.5382 22.4119 11.7237 22.3263 11.8453M20.327 11.2822H20.755Z" fill="#005120"/>
<path d="M22.1612 11.3974V11.4486C22.1612 11.295 22.1673 11.3782 22.0511 11.6789C22.0328 11.7493 21.9778 11.7685 21.8922 11.7941M21.6782 11.6213H21.7332C21.5314 11.8133 21.3969 11.9093 21.3541 12.1332L21.7332 11.6213C21.5314 11.8133 21.3969 11.9093 21.3541 12.1332M20.92 11.3398C20.92 11.3398 20.9139 11.5382 20.865 11.6213M17.2455 11.3974C17.2699 11.3974 17.38 11.5766 17.5145 11.6789C17.4839 11.8453 17.4289 12.0372 17.5145 12.1908M17.6796 11.7365C17.704 11.7365 17.808 11.9157 17.9486 12.018L17.6796 11.7365ZM17.6796 11.7365C17.704 11.7365 17.808 11.9157 17.9486 12.018V12.0756C17.9486 11.8965 17.9364 11.7173 18.0036 11.6213C18.0648 11.7301 18.1381 11.8965 18.1626 11.7365C18.4683 11.7237 18.615 11.6341 18.8107 11.5638C18.8107 11.6469 18.7985 11.6085 18.8718 11.6789M22.5403 11.4486H22.5953C22.4913 11.5382 22.4119 11.7237 22.3263 11.8453M20.327 11.2822H20.755M20.706 11.7365V11.7877V11.7365ZM20.2719 11.3974H20.327H20.2658C20.2903 11.3974 20.3086 11.3974 20.2658 11.3974H20.2719Z" stroke="#002B0D" stroke-width="0.20528"/>
<path fill-rule="evenodd" clip-rule="evenodd" d="M16.7925 11.6812C16.1427 11.6812 15.9275 12.3599 15.2778 12.3599H15.2405V12.4013C15.2405 12.873 15.2736 13.3118 15.344 13.7215C15.9441 13.6801 16.1635 13.0427 16.7925 13.0427C17.4423 13.0427 17.6617 13.7215 18.3114 13.7215C18.9612 13.7215 19.1764 13.0427 19.8262 13.0427C20.476 13.0427 20.6953 13.7215 21.3451 13.7215C21.9948 13.7215 22.21 13.0427 22.8598 13.0427C23.4848 13.0427 23.7082 13.6718 24.3084 13.7173C24.3818 13.2701 24.4164 12.8173 24.4118 12.364H24.3746C23.7248 12.364 23.5096 11.6853 22.8598 11.6853C22.2101 11.6853 21.9907 12.364 21.3451 12.364C20.6995 12.364 20.476 11.6853 19.8262 11.6853C19.1764 11.6853 18.9571 12.364 18.3114 12.364C17.6658 12.364 17.4423 11.6853 16.7925 11.6853V11.6812ZM16.7925 14.334C16.2876 14.334 16.0476 14.7479 15.6544 14.9259C15.7844 15.2819 15.9465 15.6255 16.1386 15.9523C16.3248 15.8157 16.5194 15.6957 16.7925 15.6957C17.4423 15.6957 17.6617 16.3744 18.3073 16.3744C18.9612 16.3744 19.1764 15.6956 19.8262 15.6956C20.476 15.6956 20.6953 16.3744 21.341 16.3744C21.9866 16.3744 22.2101 15.6956 22.8598 15.6956C23.0957 15.7028 23.3221 15.7904 23.5013 15.9439C23.6929 15.6183 23.855 15.2762 23.9856 14.9217C23.6048 14.7355 23.3606 14.334 22.8598 14.334C22.2101 14.334 21.9907 15.0128 21.341 15.0128C20.6912 15.0128 20.476 14.334 19.8262 14.334C19.1764 14.334 18.957 15.0128 18.3073 15.0128C17.6576 15.0128 17.4423 14.334 16.7925 14.334V14.334ZM19.8262 16.9828C19.1764 16.9828 18.9571 17.6657 18.3114 17.6657C17.6948 17.6657 17.4671 17.0573 16.896 16.991C17.6617 17.8436 18.5266 18.3568 19.1185 18.6465C19.3212 18.4892 19.5282 18.8328 19.8221 18.8328C20.1242 18.8328 20.327 18.4851 20.5256 18.6382C21.3585 18.2354 22.1071 17.6779 22.7316 16.9952C22.177 17.078 21.9452 17.6657 21.341 17.6657C20.6912 17.6657 20.476 16.9869 19.8262 16.9869L19.8262 16.9828Z" fill="white"/>
<path d="M15.8191 14.6894C16.0301 14.6144 16.2445 14.5504 16.4615 14.4976L17.4588 15.5017L16.639 15.6744L15.8191 14.6894Z" stroke="#512007" stroke-width="0.076991"/>
<path d="M17.7579 15.9965C17.7734 15.7656 18.2139 14.4399 18.2139 14.4399M17.9082 16.0116L18.2554 14.45M18.0273 16.0166L18.3175 14.45M17.7734 15.8057C17.8512 15.7656 18.074 15.7053 18.074 15.7053M17.8822 15.5747C17.9548 15.5747 18.1051 15.5145 18.1051 15.5145M17.9237 15.399C17.9976 15.3719 18.0739 15.3518 18.1517 15.3387M17.9548 15.1781L18.1984 15.1379M18.0636 14.9873C18.0636 15.0023 18.2294 15.0023 18.2294 15.0023M18.1051 14.8165L18.2709 14.8416" stroke="#512007" stroke-width="0.0753386"/>
<path d="M20.433 17.0095C20.4147 16.6144 19.8947 14.3467 19.8947 14.3467M20.2556 16.9322L19.8457 14.3553M20.0721 16.7346C20.0598 16.5886 19.7723 14.3639 19.7723 14.3639M20.4147 16.6831C20.3229 16.6144 20.0598 16.5113 20.0598 16.5113M20.2862 16.288C20.2006 16.288 20.0231 16.1849 20.0231 16.1849M20.2373 15.9873C20.1501 15.941 20.0599 15.9065 19.9681 15.8842M20.2006 15.6094L19.913 15.5407M20.0721 15.283C20.0721 15.3087 19.8763 15.3087 19.8763 15.3087M20.0231 14.9909L19.8274 15.0339" stroke="#512007" stroke-width="0.0713783"/>
<path d="M21.9394 16.4266C21.9211 16.1324 21.401 14.4438 21.401 14.4438M21.762 16.369L21.3521 14.4502M21.5784 16.2219C21.5662 16.1132 21.2787 14.4566 21.2787 14.4566M21.9211 16.1836C21.8293 16.1324 21.5662 16.0556 21.5662 16.0556M21.7926 15.8893C21.7069 15.8893 21.5295 15.8126 21.5295 15.8126M21.7436 15.6655C21.6564 15.631 21.5663 15.6053 21.4744 15.5887M21.7069 15.3841L21.4194 15.3329M21.5784 15.141C21.5784 15.1602 21.3827 15.1602 21.3827 15.1602M21.5295 14.9235L21.3337 14.9555" stroke="#512007" stroke-width="0.076991"/>
<path fill-rule="evenodd" clip-rule="evenodd" d="M19.6613 16.6595L19.7164 11.9905C19.7164 11.9905 19.8754 11.9713 19.8754 11.9905C19.8754 12.0096 19.8571 16.6404 19.8387 16.6595C19.8204 16.6787 19.643 16.6915 19.6613 16.6595ZM21.405 12.1951L21.3683 16.1159L21.2459 16.2694L21.2826 12.1951H21.405Z" fill="#DD8B59" stroke="#512007" stroke-width="0.076991"/>
<path fill-rule="evenodd" clip-rule="evenodd" d="M17.6852 15.892C17.6852 15.892 17.8687 17.8108 19.9121 17.7533C21.9556 17.6957 22.5246 15.8217 22.5246 15.8217L21.6375 15.7833C21.6191 15.7833 20.9278 16.6787 20.0345 16.6595C19.1413 16.6404 18.8598 16.4165 18.6641 16.231C18.4683 16.0391 18.297 15.7641 18.297 15.7641L17.2569 15.3356L17.3181 15.7449L17.6852 15.892ZM23.2098 15.7001L23.1486 15.4443V15.2268L23.2465 14.9966C23.2465 14.9966 21.6986 15.2332 21.6986 15.2524L21.6925 15.6873L23.2098 15.6937V15.7001Z" fill="#DD8B59" stroke="#512007" stroke-width="0.076991"/>
<path d="M17.6179 15.873C17.6729 15.873 18.0828 15.969 18.0828 15.969L18.5111 16.5638M22.9161 15.2271L22.8794 15.6108H23.1303L23.1119 15.2271H22.9161ZM22.6531 15.2462L22.6347 15.6556L22.7938 15.6364L22.8121 15.2462H22.6531ZM22.3839 15.6556V15.3358L22.5429 15.2782L22.5613 15.598L22.3839 15.6556ZM22.078 15.6364L22.1147 15.355L22.2982 15.3742L22.3105 15.6748L22.078 15.6364ZM21.7415 15.6364L21.7598 15.3933L21.9434 15.3742V15.6556L21.7415 15.6364Z" stroke="#512007" stroke-width="0.076991"/>
<path d="M17.9176 15.9494C17.936 15.9685 18.2908 17.2158 19.9978 17.2158C21.7048 17.2158 22.1147 15.8022 22.1147 15.8022" stroke="#512007" stroke-width="0.076991"/>
<path d="M22.3839 15.8408C22.3839 15.8408 21.564 17.6957 19.9978 17.5677C18.4377 17.4398 18.1868 16.8258 18.0645 16.506C17.9421 16.1862 17.8687 15.9304 17.8687 15.9304" stroke="#512007" stroke-width="0.076991"/>
<path fill-rule="evenodd" clip-rule="evenodd" d="M18.3092 15.7642C18.3276 15.6555 18.3276 12.2848 18.3276 12.2848L18.2235 12.272L18.2052 15.7066L18.3092 15.7706V15.7642ZM15.7702 14.6705L17.1162 15.3548L17.0856 15.4508C17.0856 15.4508 15.7885 14.8112 15.7885 14.792C15.7885 14.7728 15.8008 14.6961 15.7702 14.6641V14.6705Z" fill="#DD8B59" stroke="#512007" stroke-width="0.076991"/>
<path fill-rule="evenodd" clip-rule="evenodd" d="M16.3881 14.4657C16.3881 14.5168 16.5839 15.6553 16.5839 15.6553C16.5839 15.6553 16.7063 15.6745 16.7063 15.6553L16.4982 14.4848L16.3881 14.4657ZM17.6362 14.4976C17.7035 14.4976 18.921 14.293 18.921 14.293L18.8965 14.4976L17.7035 14.6256L17.6362 14.4976Z" fill="#DD8B59" stroke="#512007" stroke-width="0.076991"/>
<path fill-rule="evenodd" clip-rule="evenodd" d="M17.8075 12.956C17.8503 12.956 18.2358 13.1607 18.401 13.1095C18.5662 13.0584 18.456 12.9176 18.4866 12.9176C18.5233 12.9176 18.6457 13.0136 18.7191 12.9368C18.7925 12.8665 18.8415 12.6426 18.8109 12.6618C18.7742 12.681 17.832 13.0328 17.8136 12.956H17.8075Z" fill="#FECF3E" stroke="#512007" stroke-width="0.076991"/>
<path fill-rule="evenodd" clip-rule="evenodd" d="M17.6546 13.4234C17.7219 13.4425 19.1107 13.0332 19.1107 13.0332C19.1107 13.0332 19.1107 13.1611 19.0923 13.1611L17.6546 13.5513V13.4234Z" fill="#DD8B59" stroke="#512007" stroke-width="0.076991"/>
<path fill-rule="evenodd" clip-rule="evenodd" d="M20.8666 12.8476C20.8666 12.8476 20.9583 13.0715 21.0501 13.0331C21.1419 12.9947 21.2275 12.918 21.2275 12.918C21.2275 12.918 21.301 13.1099 21.4233 13.0715C21.5457 13.0331 21.6191 12.8284 21.6191 12.8284C21.6191 12.8284 21.7415 12.8668 21.7965 12.8476C21.8516 12.8284 21.9189 12.5278 21.9189 12.5278L20.8727 12.8476H20.8666ZM20.7626 14.6513C20.7442 14.6897 20.8543 14.7792 20.9461 14.7792C21.0379 14.7792 21.0685 14.6513 21.0868 14.6897C21.1052 14.7217 21.1052 14.8944 21.3316 14.8368C21.5579 14.7792 21.564 14.6129 21.564 14.6129C21.564 14.6129 21.4967 14.6705 21.6558 14.6897C21.8149 14.7089 21.974 14.4466 21.9617 14.4466C21.9372 14.4466 20.7993 14.6705 20.7626 14.6513V14.6513Z" fill="#FECF3E" stroke="#512007" stroke-width="0.076991"/>
<path fill-rule="evenodd" clip-rule="evenodd" d="M17.7096 12.8794C17.6984 12.937 17.7027 12.9968 17.7219 13.0521L18.8843 12.6427C18.8843 12.6427 18.9332 12.5468 18.8843 12.5468C18.8354 12.5468 17.6913 12.9178 17.7035 12.8858L17.7096 12.8794ZM19.2392 12.6236C19.2697 12.6236 20.4261 12.2334 20.4261 12.2334C20.4261 12.2334 20.4444 12.3997 20.4261 12.3997L19.3432 12.7323L19.233 12.6236H19.2392Z" fill="#DD8B59" stroke="#512007" stroke-width="0.076991"/>
<path fill-rule="evenodd" clip-rule="evenodd" d="M20.7626 13.4424C20.7626 13.4424 20.5851 13.6471 20.6402 13.9221C20.6953 14.2035 20.7626 14.4466 20.7809 14.4466C20.7993 14.4466 20.9951 14.0756 21.2092 14.0564C21.4233 14.0372 21.8149 14.2611 21.8149 14.2611C21.8149 14.2611 21.7598 13.8134 21.7782 13.6087C21.7965 13.404 22.0963 13.0522 22.0963 13.0522L20.7626 13.436V13.4424Z" fill="#FECF3E" stroke="#512007" stroke-width="0.076991"/>
<path fill-rule="evenodd" clip-rule="evenodd" d="M19.1474 13.1033C19.1474 13.1033 19.1107 13.276 19.129 13.276L20.6402 12.8666V12.7451L19.1474 13.0969V13.1033Z" fill="#DD8B59" stroke="#512007" stroke-width="0.076991"/>
<path fill-rule="evenodd" clip-rule="evenodd" d="M17.2263 15.3549C17.2263 15.3549 16.8714 15.3037 16.8898 15.3933C16.9081 15.4892 17.0672 15.5787 17.0856 15.6363C17.1039 15.6939 17.0305 15.8921 17.1406 15.8794C17.2446 15.8602 17.3487 15.7834 17.3487 15.7259L17.3303 15.4061L17.2263 15.3549Z" fill="#B6B6B4" stroke="#512007" stroke-width="0.076991"/>
<path fill-rule="evenodd" clip-rule="evenodd" d="M19.2024 14.4274V14.5553L20.4811 14.3699L20.4444 14.2739L19.2024 14.4274Z" fill="#DD8B59" stroke="#512007" stroke-width="0.076991"/>
<path fill-rule="evenodd" clip-rule="evenodd" d="M17.6852 14.6511C17.7096 14.6511 17.6852 14.8174 17.832 14.779C17.9727 14.7407 18.0094 14.6511 18.0094 14.6511C18.0094 14.6511 18.0461 14.8558 18.2419 14.8366C18.4377 14.8174 18.5478 14.5935 18.5478 14.5935C18.5478 14.5935 18.56 14.7598 18.6824 14.7023C18.8048 14.6447 18.8415 14.5168 18.8415 14.5168L17.7219 14.6831L17.6913 14.6511H17.6852ZM17.6852 13.551C17.6852 13.551 17.5261 13.6086 17.5811 13.9412C17.6362 14.2737 17.7647 14.4656 17.7769 14.4656C17.7953 14.4656 17.936 14.1458 18.1501 14.0947C18.3643 14.0307 18.7375 14.261 18.7375 14.261C18.7375 14.261 18.7008 13.9603 18.7558 13.6853C18.7951 13.5062 18.8748 13.3395 18.9883 13.1992C18.9883 13.1992 17.7402 13.551 17.6913 13.551H17.6852Z" fill="#FECF3E" stroke="#512007" stroke-width="0.076991"/>
<path fill-rule="evenodd" clip-rule="evenodd" d="M20.6769 14.517L20.6953 14.6321C20.6953 14.6321 21.9801 14.4658 21.9801 14.4402C21.9801 14.4274 21.9801 14.3123 21.9556 14.3123C21.9372 14.3123 20.6953 14.5362 20.6708 14.517H20.6769ZM20.6586 13.3273L20.6769 13.4552L22.1881 13.0331C22.1881 13.0331 22.2248 12.918 22.2064 12.918C22.1881 12.918 20.6953 13.3849 20.6586 13.3273Z" fill="#DD8B59" stroke="#512007" stroke-width="0.076991"/>
<path d="M23.1853 14.888L22.0841 13.0715M21.9373 14.3315C21.9556 14.2803 22.0107 13.161 22.0107 13.161M20.8176 12.7325C20.8176 12.7325 20.7993 12.8476 20.8176 12.8476C20.836 12.8476 21.9373 12.5662 21.9373 12.547C21.9373 12.5278 22.0474 12.4191 21.9556 12.4383C21.87 12.4575 20.8543 12.7901 20.8176 12.7325V12.7325Z" stroke="#512007" stroke-width="0.076991"/>
<path fill-rule="evenodd" clip-rule="evenodd" d="M19.2759 12.6811C19.337 12.6939 19.4655 12.8858 19.5389 12.8474C19.6124 12.809 19.7164 12.6939 19.7164 12.6939C19.7164 12.6939 19.698 12.9178 19.8387 12.8858C19.9856 12.8474 20.0039 12.6939 20.0039 12.6939C20.0039 12.6939 20.1079 12.7579 20.1997 12.6939C20.2854 12.6428 20.371 12.3613 20.3404 12.3613C20.3098 12.3613 19.3065 12.6939 19.2697 12.6811H19.2759ZM19.2392 13.2184C19.2392 13.2568 19.0556 13.551 19.1168 13.8324C19.178 14.1138 19.2697 14.3697 19.2881 14.3697C19.3065 14.3697 19.5757 14.0755 19.8081 14.0179C20.0345 13.9603 20.3771 14.2034 20.3588 14.2034C20.3404 14.2034 20.267 13.922 20.267 13.7173C20.267 13.5126 20.5362 12.8858 20.5362 12.8858L19.2392 13.2184ZM19.2392 14.5616C19.2392 14.5743 19.2881 14.7023 19.4166 14.7023C19.5389 14.7023 19.5573 14.5743 19.5573 14.5743C19.5573 14.5743 19.5389 14.7982 19.7347 14.779C19.9305 14.7598 19.9978 14.5552 19.9978 14.5552C19.9978 14.5552 20.0162 14.6703 20.1813 14.6127C20.3404 14.5552 20.5484 14.3697 20.5362 14.3697C20.5178 14.3697 19.2514 14.6127 19.233 14.5616H19.2392Z" fill="#FECF3E" stroke="#512007" stroke-width="0.076991"/>
<path fill-rule="evenodd" clip-rule="evenodd" d="M19.3838 13.5705C19.4089 13.5716 19.4326 13.5831 19.4497 13.6024C19.4668 13.6218 19.4759 13.6475 19.4749 13.6738C19.4739 13.7001 19.463 13.725 19.4445 13.7429C19.426 13.7607 19.4015 13.7702 19.3763 13.7691C19.3512 13.7681 19.3275 13.7566 19.3104 13.7372C19.2933 13.7179 19.2842 13.6922 19.2852 13.6658C19.2862 13.6395 19.2971 13.6147 19.3156 13.5968C19.3341 13.5789 19.3586 13.5695 19.3838 13.5705V13.5705Z" fill="#BE0F17" stroke="#512007" stroke-width="0.0754957"/>
<path fill-rule="evenodd" clip-rule="evenodd" d="M20.0272 13.4001C20.0524 13.4012 20.0761 13.4127 20.0932 13.432C20.1103 13.4514 20.1194 13.4771 20.1184 13.5034C20.1174 13.5297 20.1065 13.5546 20.088 13.5724C20.0695 13.5903 20.045 13.5998 20.0198 13.5987C19.9947 13.5977 19.9709 13.5862 19.9539 13.5668C19.9368 13.5474 19.9277 13.5218 19.9287 13.4954C19.9297 13.4691 19.9406 13.4443 19.9591 13.4264C19.9776 13.4085 20.0021 13.3991 20.0272 13.4001V13.4001Z" fill="#BE0F17" stroke="#512007" stroke-width="0.0754957"/>
<path fill-rule="evenodd" clip-rule="evenodd" d="M19.7055 13.7507C19.7307 13.7518 19.7544 13.7632 19.7715 13.7826C19.7886 13.802 19.7976 13.8277 19.7966 13.854C19.7957 13.8803 19.7847 13.9052 19.7662 13.923C19.7478 13.9409 19.7232 13.9504 19.6981 13.9493C19.6729 13.9482 19.6492 13.9368 19.6321 13.9174C19.615 13.898 19.606 13.8724 19.6069 13.846C19.6079 13.8197 19.6189 13.7948 19.6373 13.777C19.6558 13.7591 19.6803 13.7497 19.7055 13.7507V13.7507Z" fill="#BE0F17" stroke="#512007" stroke-width="0.0754957"/>
<path fill-rule="evenodd" clip-rule="evenodd" d="M19.7055 13.2146C19.7307 13.2156 19.7544 13.2271 19.7715 13.2465C19.7886 13.2658 19.7976 13.2915 19.7966 13.3179C19.7957 13.3442 19.7847 13.369 19.7662 13.3869C19.7478 13.4048 19.7232 13.4142 19.6981 13.4132C19.6729 13.4121 19.6492 13.4006 19.6321 13.3813C19.615 13.3619 19.606 13.3362 19.6069 13.3099C19.6079 13.2836 19.6189 13.2587 19.6373 13.2408C19.6558 13.223 19.6803 13.2135 19.7055 13.2146V13.2146Z" fill="#BE0F17" stroke="#512007" stroke-width="0.0754957"/>
<path d="M19.8387 12.0415C19.8387 12.0287 20.3894 12.2845 20.3894 12.3037C20.3894 12.3229 22.3472 15.0412 22.3655 15.0412M21.3866 12.3037L21.8883 12.5276L22.0474 12.9369M18.2908 12.2717C18.2725 12.2717 18.8415 12.7195 18.8415 12.7195L18.9149 13.084M16.3575 14.9836C16.6022 14.8749 18.3276 13.2951 18.3276 13.2951M15.8925 14.683L17.832 12.9753M19.129 13.2311L20.9645 16.4163M20.7442 14.5487C20.7442 14.5487 20.9583 15.297 21.1725 15.4122C21.3322 15.5018 21.4874 15.6 21.6375 15.7064" stroke="#512007" stroke-width="0.076991"/>
<path d="M20.7197 14.5679C20.7197 14.5679 20.8727 15.4505 21.0868 15.6168C21.301 15.7831 21.5151 15.9686 21.5151 15.9686" stroke="#512007" stroke-width="0.076991"/>
<path d="M19.2471 14.502C19.2471 14.502 19.4551 15.73 19.8834 16.0114C20.1457 16.1819 20.4068 16.3546 20.6665 16.5295" stroke="#512007" stroke-width="0.076991"/>
<path d="M19.2287 14.4829C19.2287 14.4829 19.6876 15.4551 20.0853 15.7493C20.4707 16.0499 21.003 16.325 21.003 16.325M17.7359 14.5661C17.8583 14.7899 17.8399 15.2184 17.9806 15.3656C18.11 15.5184 18.2286 15.6809 18.3355 15.8517M17.7665 14.5789C17.8399 14.6876 18.0357 15.244 18.1581 15.4103C18.2498 15.5638 19.1553 16.5104 19.1553 16.5104" stroke="#512007" stroke-width="0.076991"/>
<path fill-rule="evenodd" clip-rule="evenodd" d="M18.8555 16.5551C18.8555 16.5736 18.8521 16.5919 18.8453 16.6089C18.8385 16.626 18.8286 16.6415 18.8161 16.6546C18.8036 16.6677 18.7888 16.678 18.7724 16.6851C18.7561 16.6922 18.7386 16.6958 18.7209 16.6958C18.7033 16.6958 18.6858 16.6922 18.6694 16.6851C18.6531 16.678 18.6383 16.6677 18.6258 16.6546C18.6133 16.6415 18.6034 16.626 18.5966 16.6089C18.5898 16.5919 18.5863 16.5736 18.5863 16.5551C18.5863 16.5178 18.6005 16.482 18.6258 16.4556C18.651 16.4292 18.6852 16.4144 18.7209 16.4144C18.7566 16.4144 18.7909 16.4292 18.8161 16.4556C18.8414 16.482 18.8555 16.5178 18.8555 16.5551ZM19.5102 16.8557C19.5102 16.8879 19.4979 16.9188 19.4761 16.9416C19.4543 16.9644 19.4248 16.9772 19.3939 16.9772C19.3631 16.9772 19.3335 16.9644 19.3117 16.9416C19.2899 16.9188 19.2777 16.8879 19.2777 16.8557C19.2777 16.8235 19.2899 16.7926 19.3117 16.7698C19.3335 16.747 19.3631 16.7342 19.3939 16.7342C19.4248 16.7342 19.4543 16.747 19.4761 16.7698C19.4979 16.7926 19.5102 16.8235 19.5102 16.8557V16.8557ZM20.3484 16.9325C20.3484 16.9647 20.3361 16.9956 20.3143 17.0184C20.2925 17.0412 20.2629 17.054 20.2321 17.054C20.2013 17.054 20.1717 17.0412 20.1499 17.0184C20.1281 16.9956 20.1159 16.9647 20.1159 16.9325C20.1159 16.9002 20.1281 16.8693 20.1499 16.8465C20.1717 16.8237 20.2013 16.8109 20.2321 16.8109C20.2629 16.8109 20.2925 16.8237 20.3143 16.8465C20.3361 16.8693 20.3484 16.9002 20.3484 16.9325V16.9325ZM21.0764 16.6446C21.0764 16.7086 21.0336 16.7534 20.9785 16.7534C20.9235 16.7534 20.8806 16.7022 20.8806 16.6446C20.8806 16.5871 20.9235 16.5295 20.9785 16.5295C21.0336 16.5295 21.0764 16.5807 21.0764 16.6446ZM21.6638 16.2801C21.6638 16.3376 21.6087 16.3824 21.5475 16.3824C21.4863 16.3824 21.4313 16.3376 21.4313 16.2801C21.4313 16.2225 21.4863 16.1777 21.5475 16.1777C21.6087 16.1777 21.6638 16.2225 21.6638 16.2801Z" fill="black" stroke="#512007" stroke-width="0.076991"/>
<path fill-rule="evenodd" clip-rule="evenodd" d="M18.2131 12.2887C18.1581 12.3271 17.271 12.5509 17.3933 12.5317C17.5157 12.5126 18.2315 12.7236 18.2131 12.6597C18.1948 12.5957 18.2131 12.3271 18.2131 12.2887ZM19.7243 12.0137C19.6876 12.0137 19.1737 12.2183 19.192 12.2183C19.2104 12.2183 19.7794 12.3846 19.761 12.3463C19.7427 12.3079 19.7427 12.0648 19.7243 12.0137ZM21.2722 12.1992C21.2355 12.2183 20.6298 12.3655 20.7399 12.3846C20.8501 12.4038 21.2539 12.5509 21.2539 12.5126C21.2539 12.4806 21.2539 12.2183 21.2722 12.1928V12.1992Z" fill="#FF0000" stroke="#512007" stroke-width="0.076991"/>
<path d="M20.6298 16.5487C20.6482 16.2545 21.1682 14.5659 21.1682 14.5659M20.8072 16.4911L21.2171 14.5723M20.9908 16.344C21.003 16.2353 21.2906 14.5787 21.2906 14.5787M20.6482 16.3056C20.7399 16.2545 21.003 16.1777 21.003 16.1777M20.7766 16.0114C20.8623 16.0114 21.0397 15.9347 21.0397 15.9347M20.8256 15.7876C20.9128 15.7531 21.0029 15.7274 21.0948 15.7108M20.8623 15.5061L21.1498 15.455M20.9908 15.2631C20.9908 15.2823 21.1865 15.2823 21.1865 15.2823M21.0397 15.0456L21.2355 15.0776" stroke="#512007" stroke-width="0.076991"/>
<path d="M19.1185 16.5545C19.1369 16.2488 19.6569 14.4946 19.6569 14.4946M19.296 16.5744L19.7059 14.5079M19.4367 16.581L19.7793 14.5079M19.1369 16.302C19.2287 16.2488 19.4918 16.1691 19.4918 16.1691M19.2654 15.9963C19.351 15.9963 19.5285 15.9166 19.5285 15.9166M19.3143 15.7638C19.4015 15.728 19.4917 15.7013 19.5835 15.684M19.351 15.4714L19.6386 15.4182M19.4795 15.2189C19.4795 15.2388 19.6753 15.2388 19.6753 15.2388M19.5285 14.993L19.7242 15.0262" stroke="#512007" stroke-width="0.0784731"/>
<path d="M18.912 16.3523C18.8937 16.0563 18.3736 14.3574 18.3736 14.3574M18.7346 16.2944L18.3247 14.3639M18.5511 16.1464C18.5388 16.037 18.2513 14.3703 18.2513 14.3703M18.8937 16.1077C18.8019 16.0563 18.5388 15.979 18.5388 15.979M18.7652 15.8117C18.6796 15.8117 18.5021 15.7345 18.5021 15.7345M18.7163 15.5865C18.6291 15.5518 18.5389 15.526 18.4471 15.5093M18.6796 15.3034L18.392 15.2519M18.5511 15.0588C18.5511 15.0781 18.3553 15.0781 18.3553 15.0781M18.5021 14.84L18.3063 14.8722" stroke="#512007" stroke-width="0.0772254"/>
<path fill-rule="evenodd" clip-rule="evenodd" d="M21.564 15.7831L23.2526 15.8215L23.271 15.6935L21.5273 15.6744L21.564 15.7831ZM21.6375 15.3162C21.8332 15.3162 23.3077 15.022 23.3077 15.022C23.3077 15.022 23.3628 14.8301 23.3077 14.8301C23.2526 14.8301 21.6375 15.1883 21.6375 15.1883V15.3162Z" fill="#DD8B59" stroke="#512007" stroke-width="0.076991"/>
<path fill-rule="evenodd" clip-rule="evenodd" d="M19.7055 13.4826C19.7307 13.4837 19.7544 13.4952 19.7715 13.5145C19.7886 13.5339 19.7976 13.5596 19.7966 13.5859C19.7957 13.6123 19.7847 13.6371 19.7662 13.655C19.7478 13.6728 19.7232 13.6823 19.6981 13.6812C19.6729 13.6802 19.6492 13.6687 19.6321 13.6493C19.615 13.63 19.606 13.6043 19.6069 13.578C19.6079 13.5516 19.6189 13.5268 19.6373 13.5089C19.6558 13.491 19.6803 13.4816 19.7055 13.4826V13.4826Z" fill="#BE0F17" stroke="#512007" stroke-width="0.0754957"/>
<path d="M0 0H13V13H0V0Z" fill="#012169"/>
<path d="M13 0V1.625L8.17578 6.5L13 11.248V13H11.2988L6.44922 8.22656L1.72656 13H0V11.2734L4.72266 6.52539L0 1.87891V0H1.57422L6.44922 4.77344L11.1719 0H13Z" fill="white"/>
<path d="M4.67188 8.22656L4.95117 9.08984L1.06641 13H0V12.9238L4.67188 8.22656ZM7.82031 7.92188L9.19141 8.125L13 11.8574V13L7.82031 7.92188ZM13 0L8.125 4.97656L8.02344 3.85938L11.832 0H13ZM0 0.0253906L4.90039 4.82422L3.40234 4.62109L0 1.24414V0.0253906Z" fill="#C8102E"/>
<path d="M4.46875 0V13H8.53125V0H4.46875ZM0 4.46875V8.53125H13V4.46875H0Z" fill="white"/>
<path d="M0 5.28125V7.71875H13V5.28125H0ZM5.28125 0V13H7.71875V0H5.28125Z" fill="#C8102E"/>
</g>
</g>
<defs>
<linearGradient id="paint0_linear_1_12907" x1="5.1157" y1="29.41" x2="6.39686" y2="28.6756" gradientUnits="userSpaceOnUse">
<stop stop-color="#A43907"/>
<stop offset="1" stop-color="white"/>
</linearGradient>
<linearGradient id="paint1_linear_1_12907" x1="16.8554" y1="17.8105" x2="15.1995" y2="16.9035" gradientUnits="userSpaceOnUse">
<stop stop-color="#A43907"/>
<stop offset="1" stop-color="white"/>
</linearGradient>
<linearGradient id="paint2_linear_1_12907" x1="17.8861" y1="18.4712" x2="14.2954" y2="18.003" gradientUnits="userSpaceOnUse">
<stop stop-color="#A43907"/>
<stop offset="1" stop-color="white"/>
</linearGradient>
<linearGradient id="paint3_linear_1_12907" x1="24.5141" y1="16.9494" x2="22.8518" y2="17.0378" gradientUnits="userSpaceOnUse">
<stop stop-color="#A43907"/>
<stop offset="1" stop-color="white"/>
</linearGradient>
<linearGradient id="paint4_linear_1_12907" x1="25.1885" y1="17.8699" x2="21.6579" y2="18.081" gradientUnits="userSpaceOnUse">
<stop stop-color="#A43907"/>
<stop offset="1" stop-color="white"/>
</linearGradient>
<linearGradient id="paint5_linear_1_12907" x1="24.7962" y1="18.7988" x2="14.8567" y2="18.7988" gradientUnits="userSpaceOnUse">
<stop stop-color="#A43907"/>
<stop offset="1" stop-color="white"/>
</linearGradient>
<linearGradient id="paint6_linear_1_12907" x1="15.1348" y1="19.5208" x2="29.6722" y2="19.5729" gradientUnits="userSpaceOnUse">
<stop stop-color="#A43907"/>
<stop offset="1" stop-color="white"/>
</linearGradient>
<linearGradient id="paint7_linear_1_12907" x1="25.1448" y1="18.7349" x2="23.9694" y2="18.7689" gradientUnits="userSpaceOnUse">
<stop stop-color="#A43907"/>
<stop offset="1" stop-color="white"/>
</linearGradient>
<linearGradient id="paint8_linear_1_12907" x1="14.8152" y1="19.894" x2="15.9542" y2="19.9693" gradientUnits="userSpaceOnUse">
<stop stop-color="#A43907"/>
<stop offset="1" stop-color="white"/>
</linearGradient>
<linearGradient id="paint9_linear_1_12907" x1="15.9268" y1="19.7314" x2="13.8582" y2="19.2211" gradientUnits="userSpaceOnUse">
<stop stop-color="#A43907"/>
<stop offset="1" stop-color="white"/>
</linearGradient>
<clipPath id="clip0_1_12907">
<rect width="26" height="26" fill="white"/>
</clipPath>
</defs>
</svg>
