<svg width="26" height="26" viewBox="0 0 26 26" fill="none" xmlns="http://www.w3.org/2000/svg">
<mask id="mask0_1_13713" style="mask-type:alpha" maskUnits="userSpaceOnUse" x="0" y="0" width="26" height="26">
<circle cx="13" cy="13" r="13" fill="#634848"/>
</mask>
<g mask="url(#mask0_1_13713)">
<g clip-path="url(#clip0_1_13713)">
<path fill-rule="evenodd" clip-rule="evenodd" d="M-12.7969 0H39.1954V25.9935H-12.7969V0Z" fill="#6797D6"/>
<path fill-rule="evenodd" clip-rule="evenodd" d="M13.8203 4.42823H15.8536L14.2028 5.54972L14.8317 7.37346L13.1914 6.24673L11.5406 7.37346L12.1695 5.54972L10.5239 4.42299H12.5678L13.1966 2.60449M13.8255 21.628H15.8589L14.2081 20.5012L14.8369 18.6775L13.1966 19.8042L11.5458 18.6775L12.1747 20.5012L10.5291 21.628H12.5678L13.1966 23.4465M5.33569 12.0586L7.2852 11.4611L6.03269 13.0229L7.16991 14.5793L5.26756 13.9819L4.02029 15.5436L4.09366 13.615L2.18607 13.0176L4.13559 12.4254L4.20371 10.4969M21.0261 12.0586L19.0818 11.4611L20.3291 13.0176L19.1919 14.5793L21.0995 13.9819L22.3415 15.5436L22.2734 13.615L24.181 13.0176L22.2315 12.4254L22.1633 10.4969" fill="white"/>
</g>
</g>
<defs>
<clipPath id="clip0_1_13713">
<rect width="26" height="26" fill="white"/>
</clipPath>
</defs>
</svg>
