<svg width="26" height="26" viewBox="0 0 26 26" fill="none" xmlns="http://www.w3.org/2000/svg">
<mask id="mask0_1_13204" style="mask-type:alpha" maskUnits="userSpaceOnUse" x="0" y="0" width="26" height="26">
<circle cx="13" cy="13" r="13" fill="#634848"/>
</mask>
<g mask="url(#mask0_1_13204)">
<g clip-path="url(#clip0_1_13204)">
<path d="M0 0H26V26H0V0Z" fill="#CE1126"/>
<path d="M3.64101 3.64111H22.359V22.3591H3.64101V3.64111Z" fill="#007A5E"/>
<path d="M3.64101 3.64111H22.359L3.64101 22.3642H22.359L3.64101 3.64111Z" fill="#FCD116"/>
<path d="M12.9949 16.1231C14.7169 16.1231 16.1129 14.7272 16.1129 13.0052C16.1129 11.2832 14.7169 9.88721 12.9949 9.88721C11.2729 9.88721 9.87695 11.2832 9.87695 13.0052C9.87695 14.7272 11.2729 16.1231 12.9949 16.1231Z" fill="#CE1126"/>
<path d="M13 10.1401L12.1162 12.8602L13.4762 13.3021" fill="#FCD116"/>
<path d="M13 10.1401L13.8838 12.8602L12.5238 13.3021" fill="#FCD116"/>
<path d="M15.72 12.1162H12.86V13.5462" fill="#FCD116"/>
<path d="M15.72 12.1162L13.4062 13.7973L12.5657 12.6404" fill="#FCD116"/>
<path d="M14.6811 15.314L13.7973 12.5939L12.4373 13.0358" fill="#FCD116"/>
<path d="M14.6811 15.314L12.3673 13.6329L13.2078 12.476" fill="#FCD116"/>
<path d="M11.3189 15.314L13.6327 13.6329L12.7922 12.476" fill="#FCD116"/>
<path d="M11.3189 15.314L12.2027 12.5939L13.5627 13.0358" fill="#FCD116"/>
<path d="M10.28 12.1162L12.5938 13.7973L13.4343 12.6404" fill="#FCD116"/>
<path d="M10.28 12.1162H13.14V13.5462" fill="#FCD116"/>
<path d="M13 0.132812L12.4778 1.7401L13.2814 2.00122" fill="#FCD116"/>
<path d="M13 0.132812L13.5222 1.7401L12.7186 2.00122" fill="#FCD116"/>
<path d="M14.6073 1.30029H12.9173V2.14529" fill="#FCD116"/>
<path d="M14.6073 1.30029L13.24 2.29365L12.7434 1.61003" fill="#FCD116"/>
<path d="M13.9934 3.18994L13.4711 1.58266L12.6675 1.84378" fill="#FCD116"/>
<path d="M13.9934 3.18994L12.6261 2.19658L13.1228 1.51296" fill="#FCD116"/>
<path d="M12.0066 3.19043L13.3739 2.19707L12.8772 1.51345" fill="#FCD116"/>
<path d="M12.0066 3.19043L12.5289 1.58314L13.3325 1.84426" fill="#FCD116"/>
<path d="M11.3927 1.30078L12.76 2.29414L13.2566 1.61052" fill="#FCD116"/>
<path d="M11.3927 1.30078H13.0827V2.14578" fill="#FCD116"/>
<path d="M5.06797 13.0404C5.45899 13.7666 6.21563 14.5537 6.88086 14.833C6.89102 14.0967 6.62695 13.1471 6.27149 12.3955L5.06797 13.0404Z" fill="#CE1126"/>
<path d="M4.40781 10.542C4.97149 11.7252 2.93516 14.5385 6.32734 15.1986C5.872 14.5341 5.66525 13.7305 5.74336 12.9287C6.49356 13.2796 7.10999 13.8639 7.50039 14.5943C8.38906 11.3748 5.22539 11.5729 4.40274 10.542H4.40781Z" fill="#FCD116"/>
<path d="M13 22.5835L12.4778 24.1908L13.2814 24.4519" fill="#FCD116"/>
<path d="M13 22.5835L13.5222 24.1908L12.7186 24.4519" fill="#FCD116"/>
<path d="M14.6073 23.751H12.9173V24.596" fill="#FCD116"/>
<path d="M14.6073 23.751L13.24 24.7443L12.7434 24.0607" fill="#FCD116"/>
<path d="M13.9934 25.6406L13.4711 24.0333L12.6675 24.2945" fill="#FCD116"/>
<path d="M13.9934 25.6406L12.6261 24.6473L13.1228 23.9636" fill="#FCD116"/>
<path d="M12.0066 25.6411L13.3739 24.6478L12.8772 23.9641" fill="#FCD116"/>
<path d="M12.0066 25.6411L12.5289 24.0338L13.3325 24.2949" fill="#FCD116"/>
<path d="M11.3927 23.7515L12.76 24.7448L13.2566 24.0612" fill="#FCD116"/>
<path d="M11.3927 23.7515H13.0827V24.5965" fill="#FCD116"/>
</g>
</g>
<defs>
<clipPath id="clip0_1_13204">
<rect width="26" height="26" fill="white"/>
</clipPath>
</defs>
</svg>
