<svg width="26" height="26" viewBox="0 0 26 26" fill="none" xmlns="http://www.w3.org/2000/svg">
<mask id="mask0_1_11814" style="mask-type:alpha" maskUnits="userSpaceOnUse" x="0" y="0" width="26" height="26">
<circle cx="13" cy="13" r="13" fill="#634848"/>
</mask>
<g mask="url(#mask0_1_11814)">
</g>
<g clip-path="url(#clip0_1_11814)">
<path d="M0 13C0 14.5902 0.286051 16.1134 0.80859 17.5218L13 18.087L25.1914 17.5218C25.714 16.1134 26 14.5902 26 13C26 11.4099 25.714 9.88665 25.1914 8.47833L13 7.91309L0.80859 8.47828C0.286051 9.88665 0 11.4099 0 13H0Z" fill="#FFDA44"/>
<path d="M13 0C7.41045 0 2.64539 3.52788 0.808582 8.47829H25.1914C23.3546 3.52788 18.5895 0 13 0V0Z" fill="#D80027"/>
<path d="M25.1914 17.5215H0.808582C2.64539 22.4718 7.41045 25.9998 13 25.9998C18.5895 25.9998 23.3546 22.4718 25.1914 17.5215Z" fill="#496E2D"/>
<path d="M12.9999 8.47803L14.1222 11.9322H17.7544L14.8161 14.0672L15.9384 17.5215L12.9999 15.3866L10.0614 17.5215L11.1839 14.0672L8.24556 11.9322H11.8776L12.9999 8.47803Z" fill="black"/>
</g>
<defs>
<clipPath id="clip0_1_11814">
<rect width="26" height="26" fill="white"/>
</clipPath>
</defs>
</svg>
