<svg width="26" height="26" viewBox="0 0 26 26" fill="none" xmlns="http://www.w3.org/2000/svg">
<mask id="mask0_1_13156" style="mask-type:alpha" maskUnits="userSpaceOnUse" x="0" y="0" width="26" height="26">
<circle cx="13" cy="13" r="13" fill="#634848"/>
</mask>
<g mask="url(#mask0_1_13156)">
<g clip-path="url(#clip0_1_13156)">
<path d="M0 -1H27V27H0V-1Z" fill="#DA000C"/>
<path d="M0 -1H27V17.7578H0V-1Z" fill="white"/>
<path d="M7.23516 11.7197H13.9852V16.5322H7.23516V11.7197Z" fill="black"/>
<path d="M10.7367 15.8322H6.62344L5.70586 16.4557V17.1119H10.7367M9.01758 13.065C9.6082 13.065 10.0934 13.5791 10.0934 14.2135V15.8213H10.8633V9.69629H6.61289V15.8213H7.9418V14.2135C7.9418 13.601 8.41641 13.065 9.01758 13.065V13.065Z" fill="#DA000C"/>
<path d="M10.7367 15.8322H6.62344L5.70586 16.4557V17.1119H10.7367M9.01758 13.065C9.6082 13.065 10.0934 13.5791 10.0934 14.2135V15.8213H10.8633V9.69629H6.61289V15.8213H7.9418V14.2135C7.9418 13.601 8.41641 13.065 9.01758 13.065V13.065Z" stroke="black" stroke-width="0.25" stroke-linecap="square"/>
<path d="M8.06836 5.56201H10.0301V9.28076H8.06836V5.56201Z" fill="black"/>
<path d="M10.0195 8.70117H8.31094V8.0668H7.05586V8.70117H6.21211V8.0668H5.69531V9.2043H10.0195M6.20156 9.2043H9.89297V9.69649H6.20156V9.2043ZM7.67813 4.20586V8.07773H8.31094V7.0168C8.31094 6.62305 8.57461 6.29492 8.9543 6.27305H8.99648C9.09067 6.27305 9.18393 6.29228 9.27094 6.32966C9.35795 6.36704 9.43702 6.42182 9.50361 6.49089C9.57021 6.55995 9.62304 6.64194 9.65908 6.73218C9.69512 6.82241 9.71367 6.91913 9.71367 7.0168V8.07773H10.3148V4.20586H7.67813ZM7.43555 3.68086V4.20586H10.5258V3.68086H7.43555ZM7.04531 2.68555V3.68086H10.7367V2.68555H10.1777V3.19961H9.48164V2.68555H8.42695V3.19961H7.74141V2.68555H7.04531ZM5.69531 16.4559H10.7578ZM14.0273 16.1496H10.6102L9.57656 16.6637V17.4293H14.0273" fill="#DA000C"/>
<path d="M10.0195 8.70117H8.31094V8.0668H7.05586V8.70117H6.21211V8.0668H5.69531V9.2043H10.0195M5.69531 16.4559H10.7578M14.0273 16.1496H10.6102L9.57656 16.6637V17.4293H14.0273M6.20156 9.2043H9.89297V9.69649H6.20156V9.2043ZM7.67813 4.20586V8.07773H8.31094V7.0168C8.31094 6.62305 8.57461 6.29492 8.9543 6.27305H8.99648C9.09067 6.27305 9.18393 6.29228 9.27094 6.32966C9.35795 6.36704 9.43702 6.42182 9.50361 6.49089C9.57021 6.55995 9.62304 6.64194 9.65908 6.73218C9.69512 6.82241 9.71367 6.91913 9.71367 7.0168V8.07773H10.3148V4.20586H7.67813ZM7.43555 3.68086V4.20586H10.5258V3.68086H7.43555ZM7.04531 2.68555V3.68086H10.7367V2.68555H10.1777V3.19961H9.48164V2.68555H8.42695V3.19961H7.74141V2.68555H7.04531Z" stroke="black" stroke-width="0.25" stroke-linecap="square"/>
<path d="M9.57656 16.6636H14.1328Z" fill="#DA000C"/>
<path d="M9.57656 16.6636H14.1328" stroke="black" stroke-width="0.25"/>
<path d="M19.7648 11.7197H13.0148V16.5322H19.7648V11.7197Z" fill="black"/>
<path d="M16.2633 15.8322H20.3766L21.2941 16.4557V17.1119H16.2633M17.9824 13.065C17.3918 13.065 16.9066 13.5791 16.9066 14.2135V15.8213H16.1367V9.69629H20.3871V15.8213H19.0582V14.2135C19.0582 13.601 18.5836 13.065 17.9824 13.065V13.065Z" fill="#DA000C"/>
<path d="M16.2633 15.8322H20.3766L21.2941 16.4557V17.1119H16.2633M17.9824 13.065C17.3918 13.065 16.9066 13.5791 16.9066 14.2135V15.8213H16.1367V9.69629H20.3871V15.8213H19.0582V14.2135C19.0582 13.601 18.5836 13.065 17.9824 13.065V13.065Z" stroke="black" stroke-width="0.25" stroke-linecap="square"/>
<path d="M18.9316 5.56201H16.9699V9.28076H18.9316V5.56201Z" fill="black"/>
<path d="M16.9805 8.70117H18.6891V8.0668H19.9441V8.70117H20.7879V8.0668H21.3047V9.2043H16.9805M20.7984 9.2043H17.107V9.69649H20.7984V9.2043ZM19.3219 4.20586V8.07773H18.6891V7.0168C18.6891 6.62305 18.4254 6.29492 18.0457 6.27305H18.0035C17.9093 6.27305 17.8161 6.29228 17.7291 6.32966C17.642 6.36704 17.563 6.42182 17.4964 6.49089C17.4298 6.55995 17.377 6.64194 17.3409 6.73218C17.3049 6.82241 17.2863 6.91913 17.2863 7.0168V8.07773H16.6852V4.20586H19.3219ZM19.5645 3.68086V4.20586H16.4742V3.68086H19.5645ZM19.9547 2.68555V3.68086H16.2633V2.68555H16.8223V3.19961H17.5184V2.68555H18.573V3.19961H19.2586V2.68555H19.9547ZM21.3047 16.4559H16.2422ZM12.9727 16.1496H16.3898L17.4234 16.6637V17.4293H12.9727" fill="#DA000C"/>
<path d="M16.9805 8.70117H18.6891V8.0668H19.9441V8.70117H20.7879V8.0668H21.3047V9.2043H16.9805M21.3047 16.4559H16.2422M12.9727 16.1496H16.3898L17.4234 16.6637V17.4293H12.9727M20.7984 9.2043H17.107V9.69649H20.7984V9.2043ZM19.3219 4.20586V8.07773H18.6891V7.0168C18.6891 6.62305 18.4254 6.29492 18.0457 6.27305H18.0035C17.9093 6.27305 17.8161 6.29228 17.7291 6.32966C17.642 6.36704 17.563 6.42182 17.4964 6.49089C17.4298 6.55995 17.377 6.64194 17.3409 6.73218C17.3049 6.82241 17.2863 6.91913 17.2863 7.0168V8.07773H16.6852V4.20586H19.3219ZM19.5645 3.68086V4.20586H16.4742V3.68086H19.5645ZM19.9547 2.68555V3.68086H16.2633V2.68555H16.8223V3.19961H17.5184V2.68555H18.573V3.19961H19.2586V2.68555H19.9547Z" stroke="black" stroke-width="0.25" stroke-linecap="square"/>
<path d="M17.4234 16.6636H12.8672Z" fill="#DA000C"/>
<path d="M17.4234 16.6636H12.8672" stroke="black" stroke-width="0.25"/>
<path d="M15.3246 15.4062C15.0398 15.5156 14.7973 15.6688 14.5336 15.8219C14.2055 16.0162 13.8917 16.2356 13.5949 16.4781C13.4894 16.5547 13.384 16.6312 13.3102 16.7406C13.2047 16.8281 13.0992 16.9594 13.1203 17.1234C13.1203 17.1891 13.2047 17.0359 13.268 17.025C13.3681 16.9694 13.4844 16.9538 13.5949 16.9812C13.732 16.8281 13.9113 16.7297 14.059 16.6094C14.4889 16.2867 14.9481 16.0083 15.4301 15.7781L15.3246 15.4062Z" fill="#F8D80E" stroke="black" stroke-width="0.2" stroke-linecap="round"/>
<path d="M13.9641 16.2157V16.6423ZM14.2172 16.0298V16.4563ZM14.4703 15.8657V16.2813ZM14.734 15.7017V16.1392Z" fill="#F8D80E"/>
<path d="M13.9641 16.2157V16.6423M14.2172 16.0298V16.4563M14.4703 15.8657V16.2813M14.734 15.7017V16.1392" stroke="black" stroke-width="0.25" stroke-linecap="round"/>
<path d="M11.6965 15.4282L11.5699 15.7892C12.1528 16.021 12.7112 16.3142 13.2363 16.6642C13.4156 16.7954 13.6055 16.9157 13.7426 17.0907C13.7742 17.1782 13.6898 17.2548 13.6055 17.222C13.5316 17.2001 13.4473 17.1673 13.3734 17.222C13.2574 17.2767 13.152 17.4626 13.3207 17.5173C13.5738 17.6923 13.9641 17.6157 14.0801 17.3204C14.1434 17.1673 14.1539 16.9704 14.0273 16.8392C13.8164 16.5876 13.5211 16.4017 13.2469 16.2157C12.7544 15.9045 12.2355 15.6409 11.6965 15.4282V15.4282Z" fill="#F8D80E" stroke="black" stroke-width="0.2" stroke-linecap="round"/>
<path d="M13.2891 16.2814L13.2574 16.6533ZM13.5844 16.4674L13.5 16.8283ZM13.9008 16.7189L13.7109 17.0033ZM13.9957 17.3971L13.7215 17.2439ZM14.0801 17.0908L13.7637 17.1236ZM13.6793 17.5611L13.6582 17.2768ZM13.5527 17.2439L13.2996 17.4408ZM12.3082 15.7236V16.0627ZM12.9727 16.0955V16.4783ZM12.6352 15.9096V16.2705Z" fill="#F8D80E"/>
<path d="M13.2891 16.2814L13.2574 16.6533M13.5844 16.4674L13.5 16.8283M13.9008 16.7189L13.7109 17.0033M13.9957 17.3971L13.7215 17.2439M14.0801 17.0908L13.7637 17.1236M13.6793 17.5611L13.6582 17.2768M13.5527 17.2439L13.2996 17.4408M12.3082 15.7236V16.0627M12.9727 16.0955V16.4783M12.6352 15.9096V16.2705" stroke="black" stroke-width="0.25" stroke-linecap="round"/>
<path d="M11.3695 23.8936V24.7686H11.8969V24.3311H12.6246V24.7686H13.1941V23.8936H11.3695ZM11.3695 25.0967V25.9717H13.1836V25.0967H12.6141V25.5342H11.8863V25.0967H11.3695Z" fill="#F8D80E" stroke="black" stroke-width="0.25"/>
<path d="M13.1836 20.186H13.7109V26.5298H13.1836V20.186Z" fill="#F8D80E" stroke="black" stroke-width="0.25"/>
<path d="M13.1836 20.7326H13.7109V26.2014H13.1836V20.7326ZM13.4578 18.6217L14.5758 19.2998L13.4578 19.9779L12.3293 19.2998L13.4578 18.6217ZM11.9496 19.0592H11.6648V19.5404H11.9496L13.4578 20.4482L14.9555 19.5404H15.2508V19.0592H14.9555L13.4578 18.1514L11.9496 19.0592Z" fill="#F8D80E" stroke="black" stroke-width="0.25"/>
<path d="M13.4262 16.9702C13.3034 16.9961 13.1936 17.0664 13.1163 17.1686C13.039 17.2708 12.9993 17.3982 13.0043 17.528V18.753C13.014 18.8831 13.0682 19.0053 13.1572 19.0976C13.2462 19.1899 13.364 19.2461 13.4895 19.2562C13.5938 19.2643 13.6981 19.2393 13.7885 19.1846C13.8789 19.13 13.9511 19.0481 13.9957 18.9499L13.8164 18.8405C13.7915 18.9046 13.7472 18.9585 13.6901 18.994C13.6329 19.0296 13.5662 19.0448 13.5 19.0374C13.3313 19.0374 13.1941 18.8624 13.2152 18.6983V17.4733C13.2232 17.3931 13.2604 17.319 13.3192 17.2662C13.3779 17.2134 13.4539 17.1858 13.5316 17.189C13.5949 17.1671 13.6898 17.2655 13.732 17.189C13.7953 17.0905 13.6898 17.0249 13.6266 16.9702H13.4262V16.9702ZM14.0379 17.3968C13.9864 17.4717 13.9174 17.5319 13.8375 17.5718V18.3921L14.0484 18.5124V17.3968H14.0379Z" fill="#F8D80E" stroke="black" stroke-width="0.25"/>
<path d="M11.8969 3.19971H14.9871V9.01846H11.8969V3.19971Z" fill="black"/>
<path d="M11.6859 3.1998V8.06699H12.6668V6.62324C12.6668 6.29512 12.8777 5.82481 13.5 5.82481C14.1223 5.82481 14.3437 6.29512 14.3437 6.62324V8.07793H15.3141V3.1998H11.6859ZM13.3523 3.74668H13.6477V5.40918H13.3523V3.74668ZM12.477 4.0748H12.7934V5.28887H12.477V4.0748ZM14.2172 4.0748H14.523V5.28887H14.2066L14.2172 4.0748ZM11.3484 2.4998V3.18887H15.6516V2.4998H11.3484ZM10.9477 1.69043V2.4998H16.0629V1.69043H15.4195V2.12793H14.6812V1.69043H13.8586V2.12793H13.1414V1.69043H12.3082V2.12793H11.6016V1.69043H10.9477ZM9.99844 9.69668V10.1998H17.0121V9.69668H9.99844Z" fill="#DA000C" stroke="black" stroke-width="0.25"/>
<path d="M9.70312 8.06689V9.70752H17.2969V8.06689H16.5797V8.70127H15.6094V8.06689H14.3227V8.70127H12.6562V8.06689H11.3695V8.70127H10.4203V8.06689H9.70312Z" fill="#DA000C" stroke="black" stroke-width="0.25"/>
<path d="M10.6207 10.1997V16.1497H11.9707V13.9185C11.9707 12.8794 12.6457 12.3872 13.5 12.3872C14.3227 12.3872 15.0293 12.8794 15.0293 13.9185V16.1497H16.3793V10.1997H10.6207Z" fill="#DA000C" stroke="black" stroke-width="0.25" stroke-linejoin="round"/>
</g>
</g>
<defs>
<clipPath id="clip0_1_13156">
<rect width="27" height="28" fill="white" transform="translate(0 -1)"/>
</clipPath>
</defs>
</svg>
