<svg width="26" height="26" viewBox="0 0 26 26" fill="none" xmlns="http://www.w3.org/2000/svg">
<mask id="mask0_1_12880" style="mask-type:alpha" maskUnits="userSpaceOnUse" x="0" y="0" width="26" height="26">
<circle cx="13" cy="13" r="13" fill="#634848"/>
</mask>
<g mask="url(#mask0_1_12880)">
<g clip-path="url(#clip0_1_12880)">
<path d="M0 0H26V26H0V0Z" fill="#E32118"/>
<path d="M0 0H26V17.3316H0V0Z" fill="white"/>
<path d="M0 0H26V8.66836H0V0Z" fill="#3E9A00"/>
<path d="M0 0V26L8.125 13L0 0Z" fill="#0073CE"/>
<path d="M10.918 10.3848H15.0668V14.7316C15.0668 16.1941 13.1625 15.0668 13 15.8488C12.7156 15.0465 10.9281 16.2043 10.9281 14.6453L10.918 10.3848V10.3848Z" fill="white" stroke="black" stroke-width="0.125"/>
<path d="M13.2895 15.1532C13.2895 15.1532 13.2387 15.2091 13.1371 15.1685C13.0406 15.1228 13.0305 12.3806 13.0305 12.3806C13.2488 12.1419 13.4215 12.0708 13.4215 12.0708L13.5484 12.1724C13.0609 12.4263 13.1066 12.7817 13.1473 13.4013C13.1625 13.6298 13.1625 13.9192 13.2133 14.2036C13.2895 14.5591 13.4418 14.8638 13.452 15.0923C13.4621 15.2345 13.2895 15.1583 13.2895 15.1583V15.1532Z" fill="#73452B" stroke="black" stroke-width="0.025"/>
<path d="M12.9543 12.0049H13.1523C12.9848 13.5791 13.127 14.5084 13.127 14.9604C13.127 15.1127 13.2133 15.1635 13.2031 15.1635C13.0102 15.3818 12.9086 15.1533 12.9086 15.1533L12.9543 12.0049Z" fill="#73452B" stroke="black" stroke-width="0.025"/>
<path d="M12.6496 15.1533C12.4668 15.2447 12.4465 15.0721 12.4566 15.0518C12.8578 14.2393 13.0305 12.4467 12.6598 12.2537L12.6852 12.0811C12.8223 12.1217 12.9543 12.3045 12.9543 12.3045C13.0051 14.3104 12.9543 15.133 12.9238 15.1686C12.7258 15.3717 12.6496 15.133 12.6395 15.1127" fill="#A36629"/>
<path d="M12.6496 15.1533C12.4668 15.2447 12.4465 15.0721 12.4566 15.0518C12.8578 14.2393 13.0305 12.4467 12.6598 12.2537L12.6852 12.0811C12.8223 12.1217 12.9543 12.3045 12.9543 12.3045C13.0051 14.3104 12.9543 15.133 12.9238 15.1686C12.7258 15.3717 12.6496 15.133 12.6395 15.1127" stroke="black" stroke-width="0.025"/>
<path d="M12.6445 15.1227C12.609 14.95 12.9238 14.5031 12.8984 14.041M13.1727 14.4219C13.2691 14.691 13.3148 14.9297 13.2895 15.1582" stroke="black" stroke-width="0.025"/>
<path d="M13.5941 11.2683C13.6602 11.1921 13.6602 11.1921 13.777 11.1921C13.7973 11.0296 14.0715 11.0296 14.0918 11.2327C14.3102 11.1921 14.3508 11.3191 14.2645 11.4511C14.4676 11.4003 14.6555 11.4511 14.5996 11.6898C14.9703 11.7913 14.8281 12.0452 14.6656 12.096C14.6453 12.2636 14.493 12.3194 14.2848 12.2484C14.0309 12.4362 13.8785 12.3702 13.7566 12.1874C13.4621 12.228 13.4418 12.1671 13.3148 12.0046C13.0863 12.1011 13.0406 12.1011 12.8477 11.9792C12.8375 12.1316 12.7816 12.0909 12.6852 12.0808C12.6953 12.2737 12.6191 12.3601 12.4465 12.2941C12.5734 12.5683 12.2434 12.6851 12.0758 12.4566C11.9234 12.4667 11.9133 12.4261 11.8371 12.3702C11.7762 12.5886 11.5324 12.5581 11.4918 12.4362C11.1871 12.3905 11.2227 12.2331 11.4715 12.2179C11.4918 12.0452 11.6441 12.0808 11.7406 12.1011C11.7508 11.9944 11.8168 12.0148 11.8727 12.0351C11.8371 11.9589 11.8625 11.9183 11.959 11.8929C11.8168 11.7101 11.9082 11.6441 12.0453 11.578C11.9691 11.4054 12.0961 11.4155 12.1977 11.4054C12.1875 11.2226 12.2383 11.1921 12.4363 11.1667C12.4109 11.1058 12.4465 11.0499 12.5531 11.0499C12.4871 10.8671 12.5734 10.8214 12.7715 10.8569C12.802 10.5878 13.3809 10.7148 13.3301 11.0804C13.4977 11.1058 13.5484 11.1362 13.5941 11.2683V11.2683Z" fill="#009A3B" stroke="black" stroke-width="0.025"/>
<path d="M12.4363 11.172C12.477 11.1923 12.5328 11.172 12.543 11.2888C12.6293 11.1364 12.7359 11.2228 12.7359 11.3954M13.3352 11.0806C13.2895 11.1466 13.132 11.1466 13.1473 11.3192C13.0965 11.2431 12.9898 11.2228 12.9441 11.2989M13.5941 11.2685C13.5941 11.3091 13.584 11.4411 13.5434 11.5071M14.2645 11.4513C14.2746 11.4614 14.1121 11.4513 14.0359 11.5021M14.6656 12.1013C14.625 12.081 14.5336 12.0251 14.4727 12.1114C14.4727 12.0657 14.4727 11.9489 14.3508 11.9489M14.2898 12.2536C14.2898 12.1419 14.2645 12.1114 14.2391 12.081M13.9344 12.1013C13.843 12.0353 13.7566 12.1317 13.7566 12.1876M13.2996 12.0048C13.2996 11.9591 13.2691 11.8728 13.3453 11.8423M12.0656 12.4567C12.0859 12.3501 12.1672 12.3501 12.152 12.2942C12.1418 12.2079 12.0453 12.1317 11.9234 12.2536M12.152 12.2942C12.218 12.2739 12.284 12.2841 12.3043 12.3196M11.9691 11.8931C12.0148 11.8524 12.1215 11.8626 12.1875 11.8931M12.1875 11.6392C12.2383 11.6392 12.3398 11.6138 12.3703 11.7103C12.4871 11.5274 12.5734 11.5478 12.5988 11.5935M12.8121 11.5681C12.8984 11.5376 13.0508 11.6239 13.1371 11.7712C13.1828 11.6595 13.2488 11.6798 13.3148 11.6696M13.7211 11.7712C13.8633 11.7103 13.9496 11.8423 13.9953 11.8931C14.0613 11.8067 14.1121 11.8067 14.1781 11.8067M12.4109 12.0353C12.4465 11.9845 12.5227 11.9692 12.5734 12.0048C12.5633 11.9032 12.6293 11.8626 12.675 11.8829" stroke="black" stroke-width="0.025"/>
<path d="M12.8578 9.78047L12.6191 9.79063L12.5023 10.0039L12.3703 9.80078L12.1316 9.81094L12.2383 9.59258L12.1113 9.38945L12.3602 9.3793L12.4668 9.16602L12.5988 9.36914L12.8375 9.35898L12.7258 9.57227L12.8578 9.78047ZM11.8422 9.85664L11.5984 9.91758L11.5375 10.1461L11.3648 9.97344L11.1363 10.0293L11.1973 9.80078L11.0398 9.62305L11.2633 9.56719L11.3293 9.33359L11.502 9.50625L11.7406 9.45547L11.6645 9.68398L11.8422 9.85664ZM10.852 10.0598L10.6387 10.1664L10.6234 10.4102L10.4203 10.2781L10.202 10.3797L10.2223 10.141L10.0191 10.009L10.2375 9.89727L10.2578 9.65859L10.4508 9.79063L10.6691 9.68906L10.659 9.92773L10.852 10.0598ZM13.1727 9.78047L13.4113 9.79063L13.518 10.0039L13.65 9.80078L13.8887 9.81094L13.777 9.59258L13.909 9.38945L13.6703 9.3793L13.5484 9.16602L13.4215 9.36914L13.1828 9.35898L13.2895 9.57227L13.1727 9.78047ZM14.1883 9.85664L14.4168 9.91758L14.4828 10.1461L14.6555 9.97344L14.884 10.0293L14.818 9.80078L14.9906 9.62305L14.752 9.56719L14.6859 9.33359L14.5133 9.50625L14.2898 9.45547L14.3508 9.68398L14.1883 9.85664ZM15.1633 10.0598L15.3816 10.1664L15.3918 10.4102L15.5949 10.2781L15.8133 10.3797L15.8031 10.141L15.9961 10.009L15.7828 9.89727L15.7727 9.65859L15.5695 9.79063L15.3461 9.68906L15.3715 9.92773L15.1633 10.0598Z" fill="#FFD700" stroke="black" stroke-width="0.1"/>
<path d="M15.4578 14.6456L15.727 15.0366L15.9809 14.6659L15.8031 14.3562L15.4578 14.6456ZM13.7312 15.7831L13.7566 16.1741C13.7566 16.1741 13.8633 16.1741 13.9598 16.1437C14.0512 16.1081 14.1273 16.0421 14.1273 16.0421L14.1121 15.839L13.7312 15.7831ZM12.284 15.7831L12.2586 16.164C12.2586 16.164 12.1621 16.164 12.0656 16.1437C12.0077 16.1272 11.9528 16.1015 11.9031 16.0675L11.7965 15.8034L12.284 15.7831ZM10.5371 14.6456L10.2578 15.0366L9.95312 14.539L10.1816 14.3003L10.5371 14.6456Z" fill="white" stroke="black" stroke-width="0.1"/>
<path d="M11.893 16.5648C11.893 16.9305 14.1273 16.9305 14.1273 16.5648V16.0469C14.1273 16.316 11.893 16.2602 11.893 16.0469V16.5648Z" fill="white" stroke="black" stroke-width="0.1"/>
<path d="M9.90234 15.3616C10.0953 16.3569 11.893 16.3772 11.893 16.3772V16.0472C11.8523 15.9151 11.9234 15.8694 12.218 15.8288C12.3398 15.8187 12.284 15.646 12.284 15.646C12.284 15.646 11.502 15.7831 10.9484 15.5698C10.202 15.2651 10.0953 14.6812 10.0953 14.6812C10.0953 14.6812 10.0445 15.1382 9.89727 15.3616H9.90234ZM16.1078 15.3616C15.925 16.3569 14.1273 16.3772 14.1273 16.3772V16.0472C14.1578 15.9151 14.0766 15.8694 13.7871 15.8288C13.6703 15.8187 13.7363 15.646 13.7363 15.646C13.7363 15.646 14.5133 15.7831 15.0668 15.5698C15.8031 15.2651 15.8895 14.6812 15.8895 14.6812C15.8895 14.6812 15.9656 15.1382 16.1078 15.3616V15.3616Z" fill="white" stroke="black" stroke-width="0.1"/>
<path d="M10.0395 14.9807C9.5418 14.7115 9.93281 14.4322 9.97344 13.6299C10.0496 14.1174 10.6031 14.3205 10.5371 14.6354C10.3086 14.6455 10.202 14.3002 10.0953 14.6811L10.0445 14.9857L10.0395 14.9807ZM15.9656 14.9807C16.4633 14.7014 16.052 14.4322 16.0113 13.6299C15.9352 14.1174 15.3918 14.3205 15.4527 14.6354C15.6762 14.6455 15.7828 14.3002 15.8895 14.6811L15.9656 14.9705V14.9807Z" fill="white" stroke="black" stroke-width="0.1"/>
<path d="M10.3441 15.3514L10.3949 15.392L10.2781 15.524C10.2273 15.5748 10.2172 15.6104 10.2527 15.6408C10.2934 15.6814 10.3238 15.6662 10.3645 15.6205L10.4965 15.4834L10.5371 15.524L10.4102 15.6764C10.3391 15.7576 10.273 15.7373 10.2172 15.6865C10.1664 15.6459 10.141 15.5799 10.2172 15.4986L10.3441 15.3514V15.3514ZM10.5625 15.5342L10.6133 15.5697L10.6031 15.8236L10.725 15.6408L10.7758 15.6764L10.6031 15.9557L10.5371 15.9252L10.5473 15.6662L10.4305 15.849L10.3797 15.8186L10.5625 15.5342ZM10.659 15.9912L10.8113 15.6865L10.8621 15.717L10.725 16.0115L10.659 15.9912ZM10.8977 15.7322L10.7758 16.042L10.8977 16.0877C11.0094 16.1283 11.0602 16.0775 11.0957 15.9861C11.1313 15.8846 11.116 15.8186 11.0043 15.7729L10.8977 15.7322ZM10.9383 15.8084C11.05 15.8439 11.0602 15.8896 11.0297 15.9607C10.9992 16.0369 10.9687 16.0623 10.8621 16.0115L10.9383 15.8084ZM11.2531 15.849L11.0602 16.1436L11.1363 16.1639L11.177 16.0877L11.309 16.1182L11.3191 16.1943L11.3953 16.2045L11.3191 15.8592L11.2531 15.849V15.849ZM11.2734 15.9252L11.2988 16.0572L11.2125 16.0471L11.2734 15.9252V15.9252ZM11.441 15.8744L11.4258 16.2146H11.5527C11.6746 16.2146 11.7051 16.1537 11.7102 16.0521C11.7102 15.9506 11.6746 15.8896 11.5578 15.8846L11.441 15.8795V15.8744ZM11.502 15.9354C11.6238 15.9354 11.6441 15.976 11.6391 16.0572C11.6391 16.1385 11.6187 16.174 11.4969 16.1588L11.502 15.9354V15.9354ZM12.5734 16.3467V16.692H12.6496V16.565C12.6496 16.565 12.7156 16.565 12.7715 16.5549C12.8121 16.5447 12.8426 16.5143 12.8426 16.4482C12.8426 16.3822 12.807 16.3467 12.741 16.3467H12.5734ZM12.6496 16.3975L12.7258 16.4025C12.7918 16.4025 12.7766 16.499 12.7258 16.499H12.6496V16.3975ZM12.9645 16.3467L12.8223 16.692H12.8984L12.934 16.6057H13.0762L13.1066 16.692H13.1828L13.0406 16.3467H12.9645V16.3467ZM13 16.4229L13.0508 16.5549H12.9543L13 16.4229V16.4229ZM13.1828 16.626L13.3656 16.4025H13.2031V16.3518H13.4621V16.4025L13.2691 16.6311H13.4621V16.6971H13.1828V16.626ZM14.2746 15.9557L14.3406 15.9455L14.3711 16.1436C14.3863 16.2096 14.3508 16.2604 14.3051 16.2756C14.2492 16.2959 14.1781 16.2756 14.168 16.1842L14.2188 16.174C14.234 16.2299 14.2594 16.235 14.2848 16.2248C14.3051 16.2197 14.3152 16.1842 14.3102 16.1537L14.2746 15.9557ZM14.3863 15.9404L14.4473 15.9252L14.4777 16.0877C14.493 16.1588 14.5133 16.1893 14.559 16.1791C14.6098 16.1689 14.6199 16.1385 14.6098 16.0775L14.5691 15.9049L14.6352 15.8947L14.6758 16.0725C14.7012 16.174 14.6504 16.2248 14.5742 16.235C14.5082 16.2451 14.4422 16.2299 14.4219 16.1283L14.3863 15.9404ZM14.7215 16.0877L14.7723 16.0674C14.8027 16.1182 14.8434 16.1131 14.8738 16.0979C14.9195 16.0775 14.9246 16.0369 14.9043 16.0268C14.8688 16.0064 14.7977 16.0318 14.752 16.0166C14.7063 16.0014 14.6859 15.9709 14.6859 15.9303C14.691 15.8795 14.7367 15.8541 14.7875 15.8389C14.8383 15.8236 14.8891 15.8287 14.9246 15.8896L14.8637 15.915C14.8383 15.8795 14.8129 15.8795 14.7875 15.8896C14.7672 15.8998 14.7367 15.9201 14.752 15.9506C14.7672 15.9709 14.8484 15.9557 14.8891 15.9557C14.9348 15.9557 14.9703 15.9912 14.9754 16.0318C14.9805 16.0877 14.9602 16.1182 14.8941 16.1486C14.8078 16.1791 14.7367 16.1436 14.7215 16.0877V16.0877ZM15.0109 15.8186L14.9246 15.8592L14.9043 15.8084L15.143 15.7068L15.1633 15.7525L15.077 15.7932L15.1785 16.0318L15.1227 16.0674L15.0109 15.8186ZM15.1531 15.6967L15.2039 15.6662L15.3562 15.9455L15.3055 15.9811L15.1531 15.6967ZM15.5238 15.717L15.5848 15.6967C15.5922 15.7169 15.5946 15.7386 15.5918 15.76C15.5889 15.7813 15.5809 15.8016 15.5683 15.8192C15.5558 15.8367 15.5392 15.8509 15.5199 15.8605C15.5007 15.8701 15.4793 15.8749 15.4578 15.8744C15.2953 15.8744 15.275 15.6916 15.3055 15.6307C15.3461 15.5291 15.468 15.5342 15.5238 15.59L15.468 15.6307C15.4324 15.59 15.3562 15.6154 15.3512 15.6561C15.3466 15.6875 15.352 15.7196 15.3666 15.7478C15.3811 15.776 15.4042 15.799 15.4324 15.8135C15.4832 15.8389 15.5594 15.7779 15.5238 15.717V15.717ZM15.4883 15.4936L15.5391 15.4479L15.7422 15.7068L15.6863 15.7525L15.4883 15.4936ZM15.6914 15.3311L15.6406 15.3717L15.7625 15.6967L15.8133 15.6459L15.7828 15.5799L15.8793 15.4936L15.9453 15.524L15.9961 15.4834L15.6914 15.3311V15.3311ZM15.7168 15.4072L15.8234 15.458L15.7625 15.524L15.7168 15.4072V15.4072Z" fill="black"/>
</g>
</g>
<defs>
<clipPath id="clip0_1_12880">
<rect width="26" height="26" fill="white"/>
</clipPath>
</defs>
</svg>
