<svg width="26" height="26" viewBox="0 0 26 26" fill="none" xmlns="http://www.w3.org/2000/svg">
<mask id="mask0_1_14416" style="mask-type:alpha" maskUnits="userSpaceOnUse" x="0" y="0" width="26" height="26">
<circle cx="13" cy="13" r="13" fill="#634848"/>
</mask>
<g mask="url(#mask0_1_14416)">
<g clip-path="url(#clip0_1_14416)">
<path d="M0 0H26V26H0V0Z" fill="#000066"/>
<path d="M18.9617 17.7023C18.9617 17.7023 18.8449 18.007 18.7789 18.007C18.7129 18.007 18.4742 17.8801 18.4742 17.8801C18.4742 17.8801 18.2965 18.1594 18.2051 18.1746C18.1137 18.1949 17.8699 18.134 17.8699 18.134C17.8699 18.134 17.6414 18.134 17.6313 18.1035C17.6211 18.068 17.6414 18.002 17.6414 18.002C17.6414 18.002 17.3063 18.266 17.2352 18.2508C17.159 18.2355 16.9102 17.9207 16.9102 17.9207L16.8695 18.0832L16.3973 18.068L15.9809 17.8039C15.9809 17.8039 15.7473 18.1848 15.7371 18.1746C15.732 18.1695 15.3309 18.266 15.3309 18.266L15.3055 18.1949L15.0414 18.0375C15.0414 18.0375 15.2445 17.743 15.2445 17.7328L15.148 17.6973L14.9957 17.8191L14.691 18.0223L14.3863 17.8801L14.5184 17.6262L14.5336 17.4434L14.7773 17.0828L17.7227 14.2188L19.175 16.9L18.9617 17.7023Z" fill="#6A4C2D" stroke="black" stroke-width="0.1125"/>
<path d="M21.0539 17.875L21.8156 17.8496L21.4957 17.6871L24.4156 17.5754L24.0043 17.423L23.6387 16.9254L22.1254 16.8086C22.1254 16.8086 22.0086 16.7223 21.8207 16.768C21.8207 16.6512 21.6734 16.4937 21.6734 16.4937L20.7441 16.4277L20.1602 16.8238L20.5512 17.8293L21.0539 17.875Z" fill="white" stroke="black" stroke-width="0.1125"/>
<path d="M18.068 9.28789L18.1441 9.02383C18.1441 9.02383 18.2813 8.79532 18.2813 8.69375C18.2813 8.59219 18.3828 8.47539 18.3828 8.47539C18.3828 8.47539 18.6875 8.38906 18.7586 8.57696C19.0887 8.07422 19.4797 8.55156 19.4797 8.55156L19.5863 8.42461L19.8047 8.15547C19.8047 8.15547 20.1195 8.45 20.1246 8.50078C20.1246 8.55156 20.1754 8.51602 20.1754 8.51602L20.5156 8.48555C20.5044 8.55347 20.5107 8.62311 20.5338 8.68795C20.5569 8.7528 20.596 8.81071 20.6477 8.85625C20.7645 8.92735 20.8711 9.34375 20.8711 9.34375L18.068 9.28789Z" fill="url(#paint0_linear_1_14416)" stroke="black" stroke-width="0.1125"/>
<path d="M21.0539 12.4109C21.1148 12.3754 21.2977 12.3195 21.2723 12.0453C21.252 11.7762 21.0184 11.7457 20.8863 11.7559C20.793 11.7704 20.7062 11.8129 20.6375 11.8777L20.2059 11.6035C20.2059 11.6035 20.4242 10.2324 20.6527 10.1512C20.8711 9.99375 20.9066 9.92773 20.9066 9.89219C20.9066 9.85156 20.8305 9.76523 20.8305 9.76523L19.4188 9.59766L18.0832 9.75C18.0832 9.75 17.9816 9.9125 17.9969 9.97344C18.007 10.0395 18.0121 10.1055 18.2508 10.2883C18.5148 10.4914 18.6977 11.6594 18.6977 11.6594C18.6977 11.6594 18.3219 11.8422 18.3016 11.8219C18.2762 11.8016 18.1645 11.7762 18.1086 11.7863C18.0477 11.7965 17.8547 11.893 17.8547 12.152C17.8547 12.4059 18.0477 12.5582 18.0477 12.5582C18.0477 12.5582 19.3223 12.4059 19.5152 12.7613C19.698 12.3348 20.9117 12.482 21.0539 12.4109Z" fill="#656263" stroke="black" stroke-width="0.1125"/>
<path d="M22.425 10.9941C22.425 10.9941 22.4402 10.8418 22.5469 10.7758C22.6484 10.7047 23.3594 10.6691 23.527 10.7758C23.6996 10.8773 23.7605 11.4004 23.7605 11.4004C23.7605 11.4004 23.8621 11.5883 23.8723 11.7203L23.8926 11.9438C23.8926 11.9438 24.4613 12.6801 24.4664 13.3453C24.5273 13.7922 24.5172 15.0008 24.3395 15.4578C24.3389 15.7888 24.2532 16.1141 24.0906 16.4023C24.0906 16.4023 24.1465 16.5039 24.1414 16.6055C24.1363 16.7172 24.0805 16.8137 24.0805 16.8137L24.9031 17.2199L24.5984 17.1082L24.9031 17.3621L24.5578 17.1996L24.7609 17.4027L24.2633 17.1793L24.4816 17.3926L24.1059 17.2148L24.3242 17.4434C24.3191 17.4281 23.9992 17.3012 23.9992 17.3012L24.0145 17.4231C24.0145 17.4231 23.7605 17.4078 23.7605 17.2199C23.6336 17.1438 23.5473 17.0473 23.5473 17.0473L22.9633 16.9457L22.3031 14.9652L22.4555 11.6137L22.4961 11.4461L22.425 10.9941Z" fill="black" stroke="black" stroke-width="0.1125" stroke-linejoin="round"/>
<path d="M21.9883 21.7039C21.9883 21.7039 21.643 20.993 21.4754 20.9777C21.323 20.6883 22.0086 18.3066 23.3289 18.1695C24.0551 18.2305 23.3898 19.0074 22.9125 18.7688C22.9684 18.977 23.207 19.2766 23.207 19.2766C23.207 19.2766 22.2625 19.6828 21.9883 21.7039ZM17.4281 21.8055C17.4281 21.8055 17.7125 20.993 17.8852 20.9828C18.0527 20.9727 17.4281 18.2711 16.0723 18.2508C15.341 18.3117 16.0113 19.0938 16.4937 18.8551C16.4379 19.0684 16.1941 19.3629 16.1941 19.3629C16.1941 19.3629 17.1488 19.7793 17.4281 21.8055V21.8055Z" fill="#FFBB00" stroke="black" stroke-width="0.1125"/>
<path d="M18.6723 16.7273C18.6723 16.7223 18.3371 16.8289 18.5504 17.1945C18.5707 17.0523 18.718 16.966 18.718 16.966C18.718 16.966 18.4894 17.2402 18.7332 17.4688C18.7637 17.2504 18.9008 17.1844 18.9008 17.1844C18.9008 17.1844 18.7281 17.682 18.9008 17.7836C18.9211 17.5855 19.0531 17.4992 19.0531 17.4992C19.0531 17.4992 18.8957 17.9461 19.0328 18.0477C19.048 17.875 19.1648 17.8039 19.1648 17.8039C19.1648 17.8039 19.0937 18.2609 19.2715 18.2965C19.2766 18.134 19.4086 17.9766 19.4086 17.9766C19.4086 17.9766 19.3477 18.3523 19.632 18.3727C19.632 18.2254 19.6828 18.0629 19.6828 18.0629C19.6828 18.0629 19.8148 18.4691 19.9977 18.398V18.0578C19.9977 18.0578 20.1144 18.4438 20.3379 18.3727C20.3074 18.2609 20.3531 18.134 20.3531 18.134C20.3531 18.134 20.4699 18.3727 20.6832 18.2965C20.7187 18.2254 20.673 18.0832 20.673 18.0832C20.673 18.0832 20.9777 18.4031 21.0793 18.2102C21.1707 18.0172 20.8254 17.9563 20.8254 17.9563H21.059C21.059 17.9563 20.9879 17.7531 20.673 17.7125C20.7797 17.6617 20.8914 17.7023 20.8914 17.7023C20.8914 17.7023 20.8254 17.4535 20.5055 17.4281C20.6273 17.3875 20.7644 17.418 20.7644 17.418C20.7644 17.418 20.7238 17.1844 20.3734 17.1184C20.4242 17.0574 20.5766 17.0777 20.5766 17.0777C20.5766 17.0777 20.4344 16.8594 20.2719 16.8746C20.1195 16.8848 18.6672 16.7223 18.6723 16.7223V16.7273Z" fill="#00713D" stroke="black" stroke-width="0.1125"/>
<path d="M20.0992 17.9055C20.0992 17.9055 20.2262 17.9664 20.2262 18.0223M20.1754 17.8039C20.1754 17.8039 20.3379 17.9207 20.3379 18.007M20.3176 17.748C20.3176 17.748 20.4496 17.8293 20.4547 17.9512M20.5359 17.7988C20.5359 17.7988 20.602 17.941 20.5816 17.9664M20.668 17.875C20.6781 17.9867 20.6578 17.9918 20.6578 17.9918M19.0582 17.1691C19.0582 17.1691 19.2105 17.2707 19.2004 17.4078M19.048 17.291C19.048 17.291 19.1191 17.357 19.1039 17.4027M19.2359 17.1742C19.2359 17.1742 19.3375 17.3164 19.307 17.4129M19.4086 17.2656C19.4086 17.2656 19.4594 17.352 19.4137 17.4027M19.4949 17.3062C19.4949 17.3062 19.5457 17.3977 19.4949 17.4281M19.4289 17.6008C19.4289 17.6008 19.5762 17.6312 19.5965 17.7379M19.5152 17.4992C19.5152 17.4992 19.6676 17.5094 19.6828 17.6719M19.7133 17.4434C19.7184 17.4434 19.8148 17.6211 19.7996 17.6719M19.9063 17.4637C19.9063 17.4637 19.9469 17.6262 19.9164 17.682M20.0332 17.5246V17.7176M19.8402 17.2656C19.8402 17.2656 19.9367 17.3012 19.9316 17.3926M19.9316 17.1793C19.9316 17.1793 20.0535 17.2504 20.0383 17.3824M20.0688 17.1234C20.0688 17.1234 20.1754 17.2504 20.1348 17.3875M20.2516 17.1539C20.2516 17.1539 20.216 17.3062 20.2313 17.3723M20.3633 17.2605C20.3633 17.2605 20.2973 17.3113 20.3328 17.3773M19.7691 17.8547C19.7691 17.8547 19.7945 17.9766 19.7691 17.9918M19.6219 17.7887C19.6219 17.7887 19.693 17.9207 19.6727 17.9867M19.4594 17.7836C19.4594 17.7836 19.5457 17.8801 19.5406 17.9562M19.3273 17.8039C19.3273 17.8039 19.4086 17.875 19.4035 17.9207M19.2613 17.9156C19.2613 17.9156 19.3375 17.9918 19.3324 18.0121" stroke="#3EC26D" stroke-width="0.10688" stroke-linecap="round"/>
<path d="M17.6363 12.5531L18.718 12.5328C18.718 12.5328 19.4289 12.5328 19.5051 12.7664C19.6422 12.4566 20.2617 12.477 20.2617 12.477L21.3789 12.4363L21.3992 15.1379C21.2978 15.6123 21.0786 16.0536 20.7618 16.421C20.445 16.7885 20.0407 17.0702 19.5863 17.2402C19.1194 17.0818 18.7032 16.8015 18.3809 16.4283C18.0586 16.0551 17.8419 15.6026 17.7531 15.1176L17.6363 12.5531V12.5531Z" fill="white" stroke="black" stroke-width="0.1125"/>
<path d="M18.0223 12.543L19.5965 16.7375L21.0184 12.4516C20.5766 12.482 19.627 12.3805 19.5102 12.7867C19.3273 12.4262 18.332 12.5684 18.0223 12.543Z" fill="#006B00" stroke="black" stroke-width="0.1125"/>
<path d="M19.0938 14.8129C19.1547 14.8434 19.1496 13.6754 19.2309 13.6398L19.2918 13.3961C19.2258 13.2742 18.916 13.2844 18.8043 13.3859C18.827 13.4596 18.8524 13.5325 18.8805 13.6043C19.0328 13.8531 19.0023 14.8383 19.0938 14.8129V14.8129Z" fill="#FFC900" stroke="#006B00" stroke-width="0.0625" stroke-linecap="round"/>
<path d="M18.6723 5.77383C18.6723 5.77383 18.784 5.64688 18.7891 5.61641C18.7891 5.58594 19.2969 5.56563 19.5914 5.00703C19.759 4.71758 19.5914 4.88516 19.5914 4.88516L19.5813 4.74805C19.5813 4.74805 19.7844 4.54492 19.7133 4.44336C19.6371 4.33672 19.6625 4.58047 19.5406 4.57539C19.4188 4.57031 19.4848 4.31133 19.4848 4.31133C19.4848 4.31133 19.4746 4.28086 19.4391 4.26563C19.3883 4.2707 19.4035 4.36211 19.3578 4.36719C19.3121 4.38242 19.2715 4.16406 19.2715 4.16406C19.2715 4.16406 19.1953 4.0625 19.1293 4.37735C19.1648 4.71758 19.3832 4.65156 19.3832 4.86992C19.3832 5.09336 19.1902 5.26602 19.1344 5.27617C19.0836 5.27617 19.0988 5.0832 19.0988 5.0832C19.0988 5.0832 19.0684 4.9918 19.048 4.9918C19.0277 4.9918 19.1598 4.97149 19.1395 4.72266C19.0938 4.41797 19.0582 4.79375 18.977 4.77344C18.8957 4.76328 18.9566 4.49922 18.9871 4.46875C19.0176 4.43828 18.9516 4.31133 18.7789 4.63633C18.7637 4.78867 18.7434 4.5957 18.7078 4.60586C18.6469 4.73281 18.657 4.81914 18.7434 4.93594C18.8703 5.05274 18.9465 5.16953 18.9465 5.23047C18.9363 5.29141 18.8703 5.42852 18.784 5.42852C18.6926 5.42852 18.784 5.26094 18.784 5.20508C18.7789 5.1543 18.6266 4.95117 18.6266 4.95117C18.6266 4.95117 18.5199 4.77852 18.525 4.77344C18.5402 4.76836 18.5199 4.74297 18.4691 4.91563C18.4184 5.09336 18.3574 4.80391 18.3574 4.80391C18.3574 4.80391 18.2863 5.01719 18.4387 5.14922C18.3219 5.13399 18.3117 5.17969 18.3117 5.17969C18.3117 5.24063 18.4641 5.26602 18.4895 5.37266C18.5098 5.47422 18.327 5.54024 18.327 5.54024C18.327 5.54024 18.4031 5.6418 18.6164 5.43867C18.618 5.52066 18.5891 5.60031 18.5352 5.66211C18.6063 5.69258 18.6621 5.6875 18.6723 5.77383V5.77383Z" fill="#CDAD56" stroke="black" stroke-width="0.1125" stroke-linejoin="round"/>
<path d="M17.9766 5.77383L17.875 5.60625C17.875 5.57578 17.418 5.63672 17.1945 5.07813C17.0523 4.80898 17.1945 4.96641 17.1945 4.96641L17.2047 4.83945C17.2047 4.83945 17.0523 4.65156 17.1184 4.55508C17.1844 4.45859 17.1539 4.68203 17.2402 4.68203C17.3418 4.68203 17.2859 4.44336 17.2859 4.44336C17.2859 4.44336 17.2961 4.41289 17.3266 4.40273C17.3672 4.40273 17.3875 4.54492 17.4281 4.55508C17.4637 4.56523 17.5398 4.39258 17.5652 4.35195C17.6008 4.35195 17.6008 4.21484 17.6566 4.5043C17.6262 4.80898 17.3723 4.75313 17.3723 4.95117C17.3723 5.1543 17.5348 5.31172 17.5805 5.3168C17.6312 5.3168 17.6109 5.14414 17.6109 5.14414C17.6109 5.14414 17.6363 5.06289 17.6566 5.06289C17.6719 5.06289 17.5043 5.09336 17.5246 4.86484C17.5602 4.65156 17.6465 4.88008 17.7176 4.86484C17.7836 4.84961 17.7074 4.63633 17.7277 4.60586C17.7277 4.57539 17.8293 4.4332 17.8699 4.74297C17.8852 4.88516 17.9613 4.62109 17.9918 4.62617C18.0426 4.74297 17.9715 4.89531 17.8953 5.00195C17.7937 5.10859 17.743 5.22539 17.743 5.28125C17.748 5.33203 17.7734 5.40313 17.8547 5.40313C17.9309 5.40313 17.8801 5.30664 17.8852 5.25586C17.8852 5.20508 18.0172 5.04258 18.0172 5.04258C18.0426 5.00195 18.0172 4.92578 18.0477 4.89023C18.0883 4.89023 18.1035 4.83438 18.1492 4.9918C18.1898 5.1543 18.2457 4.89023 18.2457 4.89023C18.2457 4.89023 18.3016 5.08828 18.1746 5.20508C18.2762 5.18984 18.2812 5.23555 18.2812 5.23555C18.2812 5.28633 18.2305 5.31172 18.2152 5.4082C18.2 5.50977 18.266 5.56055 18.266 5.56055C18.266 5.56055 18.2051 5.65703 18.0223 5.46914C18.0244 5.54257 18.0492 5.61353 18.0934 5.67227C18.0324 5.69766 17.9867 5.69766 17.9766 5.77383V5.77383Z" fill="#CDAD56" stroke="black" stroke-width="0.1" stroke-linejoin="round"/>
<path d="M20.7543 13.1676C20.6578 13.0812 20.6527 13.1574 20.602 13.1371C20.5816 13.132 20.5613 13.1066 20.541 13.0863C20.5258 13.0711 20.5055 13.066 20.4801 13.0559L20.4547 13.132C20.4496 13.1574 20.4801 13.198 20.4801 13.2336C20.475 13.2895 20.4496 13.3352 20.3785 13.3555C20.3988 13.3199 20.409 13.3148 20.4039 13.2691C20.4039 13.2437 20.3328 13.198 20.343 13.1777C20.3531 13.1371 20.3734 13.0965 20.3582 13.0609C20.3328 13.0813 20.2922 13.0711 20.2617 13.0813C20.2414 13.0914 20.2363 13.1371 20.2059 13.1574C20.1703 13.1727 20.0941 13.1625 20.0281 13.127C20.0687 13.0965 20.0992 13.1168 20.1398 13.0863C20.1602 13.0711 20.1551 13.0102 20.1754 12.9949L20.2617 12.9492C20.2465 12.9289 20.2465 12.8984 20.2312 12.8781C20.2109 12.8578 20.1297 12.8629 20.1145 12.8426C20.0789 12.802 20.0891 12.7512 20.0535 12.7105C20.1449 12.741 20.1297 12.7867 20.1551 12.7816C20.1957 12.7613 20.2363 12.7562 20.2566 12.7664C20.282 12.7766 20.3277 12.8324 20.348 12.8426L20.3785 12.7613C20.3887 12.7359 20.343 12.6902 20.348 12.6648C20.3684 12.6141 20.409 12.5684 20.4242 12.5176L20.4445 12.6598C20.4496 12.6801 20.4953 12.6953 20.5004 12.7207C20.5004 12.7461 20.475 12.802 20.4801 12.8223H20.5715C20.5969 12.8121 20.6121 12.7512 20.6375 12.7461C20.6883 12.7359 20.7289 12.741 20.7848 12.7461C20.7441 12.7867 20.7137 12.7816 20.6883 12.8172C20.668 12.8324 20.6984 12.8832 20.6375 12.9187C20.6172 12.9289 20.5613 12.9137 20.541 12.9289L20.5918 12.9898C20.6121 13.0102 20.6934 13.0152 20.7086 13.0406C20.7441 13.0762 20.7594 13.127 20.7543 13.1676V13.1676ZM18.332 13.2082C18.4285 13.127 18.4387 13.198 18.4844 13.1777C18.5098 13.1727 18.525 13.1473 18.5453 13.127C18.5605 13.1117 18.5809 13.1066 18.6062 13.0965L18.6316 13.1727C18.6418 13.198 18.6062 13.2387 18.6062 13.2742C18.6164 13.3352 18.6367 13.3758 18.7078 13.4012C18.6875 13.3605 18.6773 13.3555 18.6824 13.3098C18.6824 13.2844 18.7535 13.2387 18.7484 13.2184C18.7332 13.1828 18.7129 13.1371 18.7281 13.1016C18.7586 13.1219 18.7941 13.1117 18.8246 13.1219C18.85 13.132 18.85 13.1777 18.8855 13.198C18.9211 13.2133 18.9973 13.2031 19.0582 13.1676C19.0227 13.1371 18.9871 13.1574 18.9516 13.132C18.9313 13.1168 18.9312 13.0508 18.9109 13.0355L18.8246 12.9898C18.8449 12.9695 18.8398 12.9391 18.8602 12.9187C18.8754 12.8984 18.9566 12.9035 18.9719 12.8832C19.0074 12.8426 19.0023 12.7918 19.0379 12.7512C18.9465 12.7816 18.9566 12.8273 18.9363 12.8223C18.8906 12.802 18.85 12.7969 18.8246 12.807C18.8043 12.8172 18.7586 12.873 18.7383 12.8832L18.7078 12.802C18.6977 12.7766 18.7484 12.7309 18.7383 12.7055C18.723 12.6547 18.6773 12.6141 18.6621 12.5633L18.6418 12.7004C18.6418 12.7258 18.591 12.7359 18.591 12.7613C18.5859 12.7867 18.6113 12.8426 18.6113 12.8629H18.5199C18.4945 12.8527 18.4742 12.7918 18.4488 12.7867C18.398 12.7766 18.3574 12.7816 18.3066 12.7867C18.3422 12.8273 18.3727 12.8273 18.398 12.8578C18.4184 12.873 18.393 12.9238 18.4488 12.9594C18.4691 12.9695 18.525 12.9543 18.5453 12.9695L18.4945 13.0305C18.4742 13.0508 18.393 13.0609 18.3777 13.0813C18.3422 13.1168 18.327 13.1676 18.332 13.2082V13.2082Z" fill="#FFC900"/>
<path d="M20.668 13.4367C20.5816 13.5078 20.0332 13.6449 20.0281 14.1223C20.023 14.5996 20.1246 14.7113 20.023 14.7215C19.8199 14.7215 19.7945 14.1883 19.7996 13.9547C19.8047 13.716 19.8098 13.7516 19.8098 13.7516C19.8098 13.7516 19.9469 13.7922 19.9367 13.9039C19.9266 14.0207 20.0738 13.6195 20.023 13.5129C20.1145 13.6043 20.2313 13.5637 20.2313 13.5637C20.2313 13.5535 20.1652 13.4824 20.1348 13.4266C20.1094 13.3758 20.2363 13.457 20.2363 13.457C20.2363 13.457 20.2414 13.3656 20.1297 13.3707C19.9773 13.3707 20.1551 13.3199 20.1551 13.3199C20.1551 13.3199 20.2363 13.4012 20.2973 13.3199C20.2313 13.2488 20.1449 13.2184 20.1449 13.2184C20.1449 13.2184 20.0637 13.066 19.952 13.0355C19.8301 13.0051 19.8504 13.0863 19.7031 13.0762C19.6777 13.127 19.6777 13.1371 19.7336 13.1523C19.632 13.2184 19.6828 13.3555 19.6828 13.3555C19.6828 13.3555 19.8402 13.2895 19.8352 13.3961C19.8301 13.5078 19.7438 13.4875 19.6828 13.4215C19.632 13.391 19.6168 13.452 19.6168 13.452L19.698 13.5332C19.698 13.5332 19.5457 13.5332 19.5051 13.6348C19.5497 13.628 19.5952 13.6333 19.6371 13.65C19.6371 13.65 19.4594 13.7313 19.4441 13.7719C19.4238 13.8125 19.4188 13.7211 19.4137 13.7211L19.2461 13.6652L19.1852 13.9242C19.1852 13.9242 19.302 14.0359 19.3629 14.0004C19.4238 13.9648 19.5406 13.8582 19.6066 13.8887C19.4086 14.041 19.2105 14.2543 19.0988 14.2848C19.0734 14.2645 18.977 14.1629 18.9363 14.2137C18.8957 14.2645 18.9262 14.3203 18.977 14.3152C19.0277 14.3152 18.8145 14.366 18.8602 14.4574C18.9008 14.5488 18.8957 14.5387 18.9363 14.5184C18.977 14.493 18.9008 14.4879 19.0531 14.4422C19.2004 14.4016 19.1953 14.3609 19.1953 14.3609C19.1953 14.3609 19.1648 14.427 19.0836 14.4422C19.0074 14.4625 18.9414 14.4625 18.9617 14.4879C18.977 14.5082 19.0125 14.5539 18.9973 14.5793C18.9871 14.5996 19.1648 14.4523 19.2105 14.5691C19.3273 14.5691 19.4086 14.4168 19.3527 14.3355C19.3527 14.427 19.4137 14.4574 19.3781 14.498C19.3477 14.5387 19.6473 14.3609 19.5 14.2492C19.5406 14.3406 19.5457 14.4117 19.5457 14.4117C19.5457 14.4117 19.6117 14.4117 19.632 14.3813C19.6473 14.3609 19.5965 14.4523 19.6168 14.4676C19.6422 14.4879 19.7488 14.5895 19.7031 14.6605C19.6777 14.6199 19.6676 14.5539 19.6371 14.559C19.6016 14.5641 19.4594 14.6656 19.373 14.6758C19.2918 14.6758 19.4746 14.9906 19.4746 14.9906C19.4746 14.9906 19.3477 14.9703 19.3273 14.9805C19.3121 14.9957 19.2258 14.8738 19.2105 14.9449C19.1801 15.0363 19.2359 15.0008 19.2359 15.0008C19.2359 15.0008 19.1648 14.9652 19.1242 15.0059C19.0836 15.0516 19.043 15.0922 19.0734 15.1074C19.1039 15.1277 19.2258 15.1277 19.2461 15.1227C19.2613 15.1176 19.1039 15.1328 19.0938 15.1531C19.0785 15.1684 19.0582 15.2395 19.0938 15.2598C19.1242 15.2852 19.2105 15.2496 19.2156 15.2293C19.2207 15.2141 19.2258 15.2953 19.2258 15.2953C19.2258 15.2953 19.3781 15.3105 19.3781 15.1582C19.3781 15.0059 19.3883 15.2648 19.3883 15.2648C19.3883 15.2648 19.5355 15.2902 19.5406 15.1379C19.5406 14.9855 19.5559 15.2395 19.5559 15.2395C19.5559 15.2395 19.6574 15.2141 19.6574 15.1887C19.6574 15.1633 19.6473 15.4934 19.5813 15.5848C19.4695 15.5086 19.4035 15.6305 19.4035 15.6305C19.4035 15.6305 19.4086 15.8082 19.3984 15.8488C19.3883 15.8895 19.4695 15.8234 19.4746 15.8082C19.4848 15.7879 19.5863 15.7371 19.5914 15.727L19.6219 15.6559C19.6219 15.6559 19.6016 15.7371 19.5609 15.7523C19.5203 15.7625 19.4848 15.8031 19.5 15.8438C19.5152 15.8793 19.5813 15.9047 19.6016 15.9402C19.6219 15.9758 19.7031 15.727 19.7031 15.727L19.7082 15.7777C19.7082 15.7777 19.8098 15.7574 19.825 15.7117C19.8352 15.6609 19.7133 15.6203 19.8098 15.5391C19.9113 15.4629 19.8098 15.6102 19.8098 15.6102C19.8098 15.6102 19.8453 15.727 19.8707 15.727C19.891 15.727 19.9469 15.5086 19.891 15.4527L19.9773 15.5238C19.9773 15.5238 20.0586 15.2953 19.9723 15.2699L19.8453 15.2242C19.8453 15.2242 19.8961 15.1633 19.8707 15.1582C19.8453 15.1531 19.9875 15.2902 20.0129 15.2598C20.0332 15.2191 20.0637 15.1074 19.9012 15.0516C19.7387 14.9906 19.9012 14.818 19.9012 14.818C19.9012 14.818 20.0027 14.9398 20.0738 14.8738C20.1449 14.8078 20.0688 14.8078 20.0688 14.8078C20.0688 14.8078 20.277 14.6758 20.282 14.6047L20.1754 14.6148C20.1754 14.6148 20.2922 14.5336 20.2668 14.4117C20.216 14.4727 20.1602 14.4727 20.1602 14.4727C20.1602 14.4727 20.2617 14.3711 20.2414 14.2746C20.1805 14.3254 20.1906 14.3609 20.1449 14.3457C20.1094 14.3355 20.0434 13.9547 20.1957 13.9293C20.3582 13.9039 20.2719 14.1172 20.277 14.1172C20.282 14.1172 20.5156 14.0156 20.277 13.8633C20.3328 13.843 20.4547 13.9547 20.4547 13.9547C20.4547 13.9547 20.4039 13.6855 20.15 13.8531C20.2109 13.782 20.2516 13.7414 20.3023 13.7516C20.3531 13.7668 20.5309 13.7516 20.5309 13.6957C20.4902 13.6551 20.3938 13.7109 20.3379 13.6957C20.2871 13.6754 20.7035 13.6449 20.668 13.4418V13.4367Z" fill="#FFC900" stroke="#006B00" stroke-width="0.0625" stroke-linecap="round" stroke-linejoin="round"/>
<path d="M18.8703 13.5941C18.8703 13.5941 19.0988 13.4672 19.2105 13.6246M19.2969 13.8684C19.2969 13.8684 19.2207 13.9496 19.2055 13.9496M19.4543 14.1223C19.4543 14.1223 19.6625 14.1426 19.7996 13.9191" stroke="#006B00" stroke-width="0.0625" stroke-linecap="round"/>
<path d="M19.6828 14.0563C19.6828 14.0563 19.698 14.1781 19.7336 14.1781C19.7641 14.1781 19.6777 14.2086 19.6422 14.1832C19.6828 14.234 19.7031 14.3355 19.6422 14.3711" stroke="#006B00" stroke-width="0.0625" stroke-linecap="round"/>
<path d="M19.5711 15.5797C19.5711 15.5797 19.5 15.666 19.4086 15.6711Z" fill="#E80000"/>
<path d="M19.5711 15.5797C19.5711 15.5797 19.5 15.666 19.4086 15.6711" stroke="#006B00" stroke-width="0.0625" stroke-linecap="round"/>
<path d="M19.6574 15.1938C19.6574 15.1938 19.6117 14.95 19.6422 14.8891C19.6574 14.8129 19.7336 14.7875 19.7895 14.6809" stroke="#006B00" stroke-width="0.0625" stroke-linecap="round"/>
<path d="M19.6371 15.0211C19.6371 15.0211 19.5812 15.1633 19.3324 15.1176M19.7031 14.6555C19.7031 14.6555 19.7184 14.8484 19.4949 14.7773M19.4238 13.782C19.4238 13.782 19.3324 13.8684 19.373 13.9852" stroke="#006B00" stroke-width="0.0625" stroke-linecap="round"/>
<path d="M19.7641 13.5738C19.7641 13.5738 19.8859 13.523 19.9062 13.4977C19.938 13.4671 19.9639 13.431 19.9824 13.391C19.9926 13.3555 19.9012 13.2996 19.9469 13.2184C19.9773 13.1828 20.018 13.1777 20.084 13.2184C20.15 13.2641 20.023 13.0863 19.952 13.0813C19.8859 13.0762 19.8402 13.132 19.825 13.1168C19.8047 13.1066 19.825 13.1676 19.7996 13.1676C19.7742 13.1676 19.8555 13.2184 19.8504 13.2438C19.8504 13.2742 19.9418 13.3758 19.9367 13.4012C19.9316 13.4266 19.7945 13.5637 19.7641 13.5738Z" fill="#006B00"/>
<path d="M19.8555 13.1727C19.9062 13.1574 19.9113 13.1727 19.9062 13.2234C19.8809 13.2082 19.8707 13.198 19.8555 13.1727Z" fill="#FFC900" stroke="#FFC900" stroke-width="0.0625" stroke-linecap="round" stroke-linejoin="round"/>
<path d="M19.4898 15.8691C19.4898 15.8691 19.4695 15.9961 19.5152 16.0063C19.5152 15.9555 19.5254 15.925 19.5355 15.9098L19.4848 15.8691H19.4898ZM19.3832 15.7117C19.3426 15.7117 19.2664 15.7473 19.2867 15.793C19.3223 15.7574 19.3578 15.793 19.3781 15.7625C19.3883 15.7523 19.3883 15.727 19.3832 15.7117V15.7117ZM19.3832 15.6254C19.3832 15.6254 19.3172 15.6102 19.307 15.6609C19.3527 15.6559 19.368 15.6508 19.3832 15.6609V15.6254ZM19.0937 14.9094C19.0937 14.9094 19.1344 14.9246 19.1445 14.9703C19.1801 14.95 19.1953 14.8535 19.0937 14.9094ZM18.9922 15.016C18.9973 15.016 19.0785 14.9652 19.0937 15.016C19.0734 15.0313 19.0633 15.0465 19.048 15.0465C19.0379 15.0465 19.0176 15.016 18.9973 15.016H18.9922ZM18.9871 15.1938C18.9871 15.1938 19.0379 15.143 19.0633 15.1734C19.0785 15.209 19.043 15.2039 19.043 15.2039L18.9871 15.1938V15.1938ZM18.916 14.2188C18.916 14.2188 18.8449 14.1883 18.8145 14.2391C18.8652 14.2441 18.8805 14.2594 18.9008 14.2797C18.8906 14.2594 18.8855 14.2289 18.916 14.2188ZM18.7891 14.5844C18.7891 14.5844 18.7891 14.5031 18.8246 14.4676C18.8449 14.4828 18.85 14.498 18.8652 14.5234C18.8398 14.5336 18.7992 14.5336 18.784 14.5844H18.7891ZM18.9617 14.5234C18.9617 14.5234 18.8906 14.559 18.9109 14.5996C18.9363 14.5742 18.9617 14.5844 18.9617 14.5793V14.5285V14.5234Z" fill="#E80000" stroke="#006B00" stroke-width="0.0625" stroke-linejoin="round"/>
<path d="M18.8551 13.7363C18.8297 13.7668 18.8906 13.8379 18.9516 13.8227C18.9668 13.7516 18.8703 13.7109 18.8551 13.7363Z" fill="#FFC900" stroke="#006B00" stroke-width="0.0625" stroke-linejoin="round"/>
<path d="M18.9262 13.6805C18.9262 13.6805 18.9363 13.7363 18.9871 13.7211C18.982 13.6754 18.9414 13.6449 18.9414 13.6449C18.9414 13.6551 18.9516 13.6754 18.9262 13.6805ZM18.9617 13.848C18.9617 13.848 18.9871 13.8836 19.048 13.8125C19.0227 13.8227 18.9719 13.7973 18.9719 13.7973C18.9719 13.7973 18.9719 13.848 18.9617 13.848Z" fill="#E80000" stroke="#006B00" stroke-width="0.0625" stroke-linejoin="round"/>
<path d="M18.8551 13.6043C18.8297 13.6348 18.8652 13.6754 18.9262 13.6652C18.9414 13.5941 18.8703 13.5789 18.8551 13.6043Z" fill="#FFC900" stroke="#006B00" stroke-width="0.0625" stroke-linejoin="round"/>
<path d="M18.8805 13.3098C18.8805 13.3098 19.1242 13.2438 19.2512 13.3453C19.3832 13.4469 19.3832 13.3555 19.3832 13.3555C19.3832 13.3555 19.5711 13.4266 19.627 13.4113C19.6777 13.3961 19.5863 13.4164 19.6625 13.3707C19.7387 13.325 19.5102 13.3809 19.4898 13.2844C19.4594 13.2285 19.4949 13.1523 19.4188 13.1777C19.3629 13.1066 19.4543 13.0559 19.434 12.9848C19.3781 13.0203 19.3477 12.9695 19.302 13.066C19.2004 13.0457 19.2867 12.9035 19.175 12.8883C19.175 12.9898 19.0887 13 19.0836 13.0559C19.0328 13.0914 18.8145 13.2234 18.8805 13.3098V13.3098Z" fill="url(#paint1_linear_1_14416)"/>
<path d="M16.0672 21.2672C16.2195 21.2266 17.0828 21.4551 17.4129 21.8105C17.3418 21.1758 17.1691 20.6934 17.1691 20.6934C17.1691 20.6934 16.6563 20.5461 16.5852 20.6172C16.4836 20.7238 16.1738 21.0488 16.0672 21.2672ZM15.8031 18.3422C15.7422 18.3523 15.6813 18.393 15.6203 18.4945C15.5492 18.6621 15.5035 19.0938 15.402 19.1953C15.3004 19.2969 15.209 19.307 15.209 19.3984C15.209 19.4898 15.2191 19.7031 15.4934 19.7793C15.7625 19.7895 16.1941 19.3477 16.1941 19.3477C16.1941 19.3477 16.4176 19.1039 16.5039 18.8449C15.9859 19.0277 15.6102 18.5402 15.8031 18.3422V18.3422ZM23.3594 21.1656C22.8604 21.1974 22.3842 21.3858 21.9984 21.7039C22.0412 21.3275 22.1229 20.9565 22.2422 20.5969C22.3031 20.5766 22.75 20.4496 22.816 20.5207C22.9176 20.6273 23.2477 20.9523 23.3543 21.1656H23.3594ZM23.598 18.2609C23.659 18.2711 23.6793 18.3473 23.7301 18.4488C23.7961 18.6164 23.8672 18.8652 23.9688 18.9668C24.0703 19.0684 24.1566 19.2105 24.1566 19.302C24.1566 19.3934 24.1363 19.5152 23.8672 19.5914C23.598 19.6016 23.207 19.2563 23.207 19.2563C23.207 19.2563 22.9887 19.0176 22.9023 18.7586C23.4203 18.9363 23.7555 18.4742 23.598 18.2609V18.2609Z" fill="#C01500" stroke="black" stroke-width="0.1125"/>
<path d="M15.5035 20.7137C15.5035 20.7137 16.0418 21.0844 16.052 21.257C17.5094 19.0938 21.2266 18.4234 23.3441 21.1047C23.4921 20.8959 23.6892 20.7267 23.918 20.6121C21.6836 17.7023 17.2504 18.0629 15.5035 20.7137V20.7137Z" fill="#FFBB00" stroke="black" stroke-width="0.1125"/>
<path d="M21.0234 12.4516H21.2367L20.8609 12.9289L21.318 13.457L20.4191 14.5844L21.2621 15.6C21.1707 15.8285 21.059 16.0367 20.9168 16.2246L20.4344 15.6863L21.3129 14.5895L20.5918 13.7719L21.0234 12.4516ZM17.9918 12.548L17.7684 12.5531L18.1898 13.0102L17.743 13.5738L18.6773 14.5895L17.9004 15.6254C17.9956 15.8618 18.1202 16.0853 18.2711 16.2906L18.7281 15.7117L17.7887 14.6605L18.4793 13.782L17.9918 12.548Z" fill="#1E5AA6" stroke="black" stroke-width="0.114005"/>
<path d="M19.043 15.275L18.7129 15.7219L19.9012 17.1031C20.1145 16.9965 20.277 16.8746 20.4598 16.7273L19.8402 16.0113L20.0941 15.2648L20.4547 15.6863L19.3172 17.1387C19.1047 17.0449 18.9064 16.9219 18.7281 16.773L19.3273 16.0113L19.043 15.275ZM18.6773 14.5844L18.8906 14.8586L18.7535 14.4879L18.6773 14.5844Z" fill="#1E5AA6" stroke="black" stroke-width="0.114005"/>
<path d="M20.2312 14.8281L20.409 14.5945L20.343 14.5031L20.2312 14.8281Z" fill="#1E5AA6" stroke="black" stroke-width="0.1125"/>
<path d="M22.7449 11.0297C22.7449 11.0297 22.9531 10.852 23.1004 10.8469" stroke="#FFF700" stroke-width="0.114005" stroke-linecap="round"/>
<path d="M22.7754 11.0043C22.7754 11.0043 24.0297 10.8266 24.0652 10.7859M22.7805 11.0195C22.7805 11.0094 24.177 10.8977 24.177 10.8977" stroke="#FFF700" stroke-width="0.114005" stroke-linecap="round"/>
<path d="M22.7754 11.0195C22.7754 11.0195 24.2582 10.9484 24.3496 11.0246M22.7703 11.0195C22.7703 11.0195 24.2227 11.0246 24.243 11.0602M22.7754 11.0195L24.1719 11.1313M22.7602 11.0246C22.7652 11.0246 24.182 11.1516 24.3191 11.3293" stroke="#FFF700" stroke-width="0.114005" stroke-linecap="round"/>
<path d="M24.3953 11.5832C24.3953 11.5832 23.9129 11.0094 22.7551 11.0246" stroke="#FFF700" stroke-width="0.114005" stroke-linecap="round"/>
<path d="M22.7602 11.0297C22.7602 11.0297 23.5625 11.0855 23.8164 11.3648" stroke="#FFF700" stroke-width="0.114005" stroke-linecap="round"/>
<path d="M22.7754 11.0195C22.7754 11.0195 23.2934 10.918 23.8418 11.5781" stroke="#FFF700" stroke-width="0.114005" stroke-linecap="round"/>
<path d="M22.4453 11.6137C22.4453 11.6137 23.1664 11.6441 23.1664 11.7152C23.1664 11.7812 22.6332 11.9184 22.623 12.2129C22.618 12.5125 23.0293 12.5328 23.0598 12.9035C23.0902 13.2793 22.7398 13.3352 22.6688 13.4367C22.5977 13.4875 22.425 14.0105 22.4504 14.3254C22.4707 14.6301 22.5621 15.6863 22.7246 15.8996C22.8516 15.9961 23.0395 16.3109 23.2477 16.2145C23.4508 16.1129 23.3086 15.7574 23.2883 15.6559C23.268 15.5543 23.3746 15.3969 23.3746 15.2496C23.3746 15.0973 23.2934 14.9805 23.3035 14.9449C23.3086 14.9094 23.8723 15.077 23.8367 15.6355C23.8012 16.1941 23.5777 16.0215 23.5777 16.0215C23.5777 16.0215 23.6488 16.707 23.4711 16.7984C23.1563 16.9711 22.9227 16.7629 22.9227 16.7629L22.9531 16.9051L22.7094 16.7781C22.7094 16.7781 22.3996 16.3363 22.3285 16.1383C22.2379 15.7213 22.1953 15.2954 22.2016 14.8687C22.232 14.6758 22.2523 13.5637 22.2371 13.5027C22.2219 13.452 22.166 12.5176 22.2016 12.3754C22.2371 12.2332 22.4555 11.6137 22.4504 11.6137H22.4453Z" fill="url(#paint2_linear_1_14416)" stroke="black" stroke-width="0.1125"/>
<path d="M21.6734 11.4258C21.6734 11.4258 22.1711 10.9434 22.4605 10.9992C22.6129 10.9992 22.4707 11.1059 22.4707 11.1059C22.4707 11.1059 22.7246 11.1262 22.7602 11.2379C22.7652 11.2887 22.6383 11.3039 22.6383 11.3039C22.6383 11.3039 22.7398 11.3242 22.75 11.4156C22.7602 11.507 21.6836 11.4359 21.6734 11.4309V11.4258Z" fill="#FF7000" stroke="black" stroke-width="0.1125"/>
<path d="M21.6988 11.4105C21.6988 11.4105 22.2371 11.3395 22.4605 11.1109" stroke="black" stroke-width="0.1125"/>
<path d="M22.2422 11.2633C22.2422 11.2633 22.6383 11.248 22.6383 11.3039" stroke="black" stroke-width="0.1125"/>
<path d="M23.6488 17.032C23.6488 17.032 23.984 16.9559 24.0805 16.834C24.1312 16.7934 24.4309 17.2809 23.6488 17.0371V17.032Z" fill="white" stroke="black" stroke-width="0.1125" stroke-linejoin="round"/>
<path d="M23.5574 14.234C23.5574 14.234 23.598 14.493 23.4762 14.6707C23.4152 14.7418 23.2223 14.8586 23.2223 14.9449C23.2223 15.0313 23.2934 15.143 23.2832 15.2395C23.268 15.341 23.1613 15.4426 23.1664 15.5238C23.1664 15.6051 23.2883 16.057 23.273 16.0672M22.9379 13.3859C22.9379 13.3859 22.6688 13.4773 22.6129 13.7414" stroke="white" stroke-width="0.1125" stroke-linecap="round"/>
<path d="M22.8211 11.2633C22.8211 11.2633 22.9125 11.5172 23.2121 11.2734C23.0191 11.0145 22.8211 11.2684 22.8211 11.2633Z" fill="#C75B00" stroke="black" stroke-width="0.1125"/>
<path d="M23.0395 11.2531C23.0395 11.2633 23.0293 11.2734 23.009 11.2734C22.9938 11.2734 22.9785 11.2633 22.9785 11.2531C22.9785 11.2379 22.9938 11.2277 23.009 11.2277C23.0293 11.2277 23.0395 11.2379 23.0395 11.2531Z" fill="black"/>
<path d="M20.3988 10.6742C20.3988 10.6742 20.9574 11.2836 21.323 11.2734C21.3891 11.4512 21.1605 11.6187 21.0691 11.6949C20.8812 11.6391 20.7137 11.7102 20.2871 11.177C20.3125 10.8418 20.4039 10.6844 20.3988 10.6691V10.6742ZM21.1605 9.25742C21.2316 9.03398 21.3789 8.85117 21.5008 8.83593C21.4703 8.66328 21.7699 7.90156 22.6332 7.61211C22.684 8.00312 22.2625 8.38398 22.2625 8.38398C22.2625 8.38398 23.5371 8.16562 23.7961 7.84062C23.7707 7.98789 23.5117 8.89179 22.1508 8.88672C22.6688 9.37422 21.9883 9.76523 21.6938 9.64843C22.232 9.24218 21.5414 8.98828 21.1605 9.25742Z" fill="white" stroke="black" stroke-width="0.1125"/>
<path d="M21.5973 8.9375C21.8512 8.775 21.9477 8.775 22.1559 8.80547C22.0035 8.82578 22.0035 8.83594 22.0035 8.83594C22.0035 8.83594 21.9934 8.85625 22.0848 8.9375C21.9832 8.91211 21.8867 8.85625 21.5973 8.9375Z" fill="#CCCCCD" stroke="#CCCCCC" stroke-width="0.1125"/>
<path d="M21.4957 8.83594C21.4957 8.83594 22.0035 8.56172 22.2879 8.37891" stroke="black" stroke-width="0.1125"/>
<path d="M21.059 11.6949C21.059 11.6949 21.7598 11.8879 21.841 10.8824C21.6887 10.4457 21.4754 9.51133 21.8004 9.23711C21.5008 9.03399 21.1809 9.24219 21.1809 9.24219C21.1606 9.29297 20.8965 9.66875 21.252 10.3289C20.4039 10.1055 20.7492 10.9027 20.7492 10.9027C20.7848 10.7758 21.2316 10.659 21.3434 11.2988C21.3941 11.4563 21.0387 11.7051 21.059 11.6949V11.6949Z" fill="#0000FF" stroke="black" stroke-width="0.1125"/>
<path d="M21.8461 10.8926C21.8461 10.8926 22.5875 10.4914 22.5672 9.56211C21.9375 9.57227 21.7141 10.3898 21.7141 10.3898L21.8461 10.8926Z" fill="#0000FF" stroke="black" stroke-width="0.1125"/>
<path d="M18.5301 10.8418C18.5301 10.8418 17.9816 11.3191 17.6668 11.1668C17.4383 11.309 17.1691 11.0652 17.1691 11.0652C17.1691 11.0652 17.484 12.2332 18.6215 11.3852C18.6097 11.2014 18.5791 11.0193 18.5301 10.8418V10.8418Z" fill="white" stroke="black" stroke-width="0.1125"/>
<path d="M17.6617 11.1465C17.7125 10.9027 17.9004 10.7859 18.0527 11.0145C18.2559 11.0551 18.459 10.2172 17.7328 10.3543C17.9359 9.25742 17.3266 8.84609 17.3266 8.84609C17.3266 8.84609 17.1082 10.0648 17.2047 10.2883C17.3063 10.5117 17.0625 9.87187 16.2754 9.69414C16.2602 10.6082 17.1539 11.0398 17.1539 11.0398C17.1539 11.0398 17.4078 11.2734 17.6617 11.1465V11.1465Z" fill="#0000FF" stroke="black" stroke-width="0.1125"/>
<path d="M17.7328 10.3492C17.7328 10.3492 17.3926 10.6387 17.4687 11.0348M17.2148 10.3086C17.2148 10.3086 17.1336 10.593 17.3062 10.9941" stroke="black" stroke-width="0.1125"/>
<path d="M17.1641 11.0906C17.1641 11.0906 17.3164 10.8316 17.6617 11.1617" stroke="black" stroke-width="0.1125"/>
<path d="M17.225 9.30313C17.225 9.29805 16.702 9.30313 17.0168 9.83125C16.7832 9.90742 16.2652 9.56719 16.6258 9.12031C15.4578 9.08985 14.9805 8.53125 14.9805 8.01328C15.3207 8.36875 16.1434 8.22656 16.4328 8.44492C16.0773 8.11485 16.1484 7.65781 16.1484 7.65781C16.1484 7.65781 17.1488 7.95742 17.3266 8.84102C17.2656 9.01367 17.2402 9.31836 17.225 9.30313Z" fill="white" stroke="black" stroke-width="0.1125"/>
<path d="M16.4227 8.41953C16.6156 8.61758 17.1082 8.67344 17.3621 8.8918" stroke="black" stroke-width="0.1125"/>
<path d="M16.6512 8.99844C16.6512 8.99844 17.0574 8.94766 17.1793 9.08985C17.0168 9.08985 16.966 9.0543 16.7324 9.14063C16.7984 9.10508 16.7832 9.04414 16.8187 9.04414C16.8543 9.04414 16.6664 8.99844 16.6512 8.99844V8.99844Z" fill="#CCCCCD" stroke="#CCCCCC" stroke-width="0.075"/>
<path d="M18.6926 5.78906C18.6926 5.78906 18.916 5.5961 19.1648 5.77383C19.0531 6.10391 18.657 5.97695 18.657 5.97695C18.657 5.97695 18.6672 6.14453 18.6266 6.22071C18.7078 6.28164 18.7738 6.47969 18.7738 6.47969C18.7738 6.47969 19.1801 6.37813 19.2715 6.56094C19.4238 6.54063 19.5406 6.56094 19.5406 6.56094C19.5406 6.56094 19.8555 6.47969 19.9672 6.47969C20.084 6.47969 20.4395 6.5711 20.475 6.63711C20.5055 6.70313 20.6273 7.14492 20.7035 7.14492C20.7848 7.13477 20.5105 7.24649 20.4395 7.13477C20.3684 7.02305 20.3887 7.28203 20.3887 7.28203C20.3887 7.28203 20.6121 7.52071 20.6375 7.57149C20.6629 7.62227 20.5004 8.05391 20.6223 8.35352C20.5156 8.36367 20.5055 8.47539 20.5055 8.47539C20.5004 8.60742 20.3328 8.64297 20.3328 8.64297L20.2922 8.46524L20.1805 8.53125L20.2313 8.38906C20.2313 8.38906 20.3836 8.02344 20.3938 7.90156C20.4039 7.78477 20.2516 7.57149 20.1348 7.57149C20.018 7.57149 19.9316 7.94727 19.9316 7.94727C19.9316 7.94727 19.8707 8.23164 19.891 8.25703L19.8098 8.16563C19.8098 8.16563 19.759 8.33828 19.7184 8.38906C19.6777 8.43985 19.5914 8.46524 19.5914 8.46524C19.5914 8.46524 19.5355 8.29258 19.5508 8.22656C19.5711 8.16055 19.8758 7.90156 19.8555 7.71875C19.825 7.53086 19.8555 7.57656 19.8453 7.57149C19.8352 7.56641 19.6879 7.43438 19.6777 7.3582C19.6727 7.28711 19.4797 7.45469 19.2309 7.39883C19.1547 7.53594 19.1445 7.8711 19.1445 7.8711C19.1445 7.8711 19.1191 8.27227 19.1699 8.31797C19.2207 8.36875 19.0379 8.46524 19.0379 8.46524L18.9059 8.64297L18.8551 8.54141L18.7688 8.60235L18.8195 8.47031C18.8195 8.36875 18.9465 8.09453 18.9465 7.86094C18.9465 7.63242 18.9668 7.38867 18.9668 7.38867C18.9668 7.38867 18.718 7.37344 18.7281 7.62227C18.7332 7.87617 18.6672 7.89141 18.6773 7.9625C18.6926 8.0336 18.7586 8.23672 18.7383 8.29766C18.718 8.3586 18.6367 8.37891 18.6367 8.37891L18.6215 8.40938C18.6215 8.40938 18.3777 8.5211 18.3828 8.57188L18.3777 8.43985L18.3625 8.24688C18.3625 8.24688 18.5098 8.15547 18.5098 7.92188C18.5098 7.68828 18.4742 7.65781 18.4844 7.60703C18.4844 7.55625 18.5199 7.35821 18.5148 7.33789C18.5098 7.32266 18.3777 7.38867 18.3371 7.38867C18.2965 7.38867 18.4082 7.25664 18.4234 7.15508C18.4336 7.05352 18.2914 7.24649 18.1695 7.13477C18.2254 7.01289 18.3117 6.97735 18.3219 6.88086C18.3371 6.78946 18.2305 6.96211 18.1391 6.8961C18.1441 6.80977 18.2406 6.7336 18.2406 6.7336C18.2406 6.7336 18.1645 6.72344 18.134 6.7336C18.073 6.71328 18.2 6.62188 18.2051 6.48477C18.2102 6.35274 18.134 6.30196 18.134 6.29688C18.134 6.28672 18.002 6.175 17.9816 6.1293C17.9613 6.0836 17.9613 6.02774 17.9613 6.02774C17.9613 6.02774 17.743 6.19024 17.484 5.85508C17.7176 5.65196 17.9715 5.8043 17.9715 5.8043C17.9715 5.8043 18.0375 5.61641 18.3422 5.62656C18.6469 5.6418 18.7078 5.81446 18.6977 5.79414L18.6926 5.78906Z" fill="#923F00" stroke="black" stroke-width="0.1125"/>
<path d="M20.3582 9.21172C20.3582 9.21172 20.9168 9.22695 20.9219 9.52656C20.927 9.82617 20.7543 9.74492 20.7492 9.74492L20.343 9.69414L20.3582 9.21172Z" fill="#0000FF" stroke="black" stroke-width="0.1125"/>
<path d="M19.8148 9.13047C19.8148 9.13047 20.5105 9.12539 20.475 9.425C20.4344 9.72969 20.2566 9.66875 20.2566 9.66875L19.9215 9.64336L19.8148 9.13047Z" fill="#FFFEFF" stroke="black" stroke-width="0.1125"/>
<path d="M19.4238 9.09492L19.8301 9.13047C19.8301 9.13047 20.0687 9.16094 20.0586 9.39453C20.0484 9.62813 19.8098 9.63321 19.8098 9.63321L19.4187 9.60782L19.4238 9.09492Z" fill="#0000FF" stroke="black" stroke-width="0.1125"/>
<path d="M18.4844 9.21172C18.4793 9.21172 17.9258 9.22695 17.9156 9.52656C17.9156 9.82617 18.0883 9.74492 18.0934 9.74492L18.4996 9.69414L18.4844 9.21172Z" fill="white" stroke="black" stroke-width="0.1125"/>
<path d="M19.0227 9.13047C19.0227 9.13047 18.332 9.12539 18.3676 9.425C18.4082 9.72969 18.5859 9.66875 18.5859 9.66875L18.9211 9.64336L19.0227 9.13047Z" fill="#0000FF" stroke="black" stroke-width="0.1125"/>
<path d="M19.4137 9.09492L19.0125 9.13047C19.0125 9.13047 18.7687 9.16094 18.784 9.39453C18.7941 9.62813 19.0277 9.63321 19.0277 9.63321L19.4187 9.60782L19.4137 9.09492Z" fill="white" stroke="black" stroke-width="0.1125"/>
<path d="M20.4902 12.4414C20.4902 12.4414 20.7797 12.0148 20.9016 12.0605C21.0082 12.0961 20.927 12.4262 20.8762 12.4566L20.4902 12.4414ZM18.5098 12.5176C18.4184 12.3906 18.2863 12.0402 18.1645 12.1367C18.0629 12.1723 18.1391 12.5023 18.1898 12.5328L18.5098 12.5176Z" fill="#5E0043" stroke="black" stroke-width="0.1125"/>
<path d="M18.7027 11.6746C18.7027 11.6746 19.2613 12.0199 19.4492 12.0301C19.6371 12.0402 20.2211 11.5781 20.2211 11.5781" stroke="black" stroke-width="0.1125"/>
<path d="M18.7586 10.3086L18.8602 10.1766L19.4035 10.4508L19.957 10.207L20.0586 10.3238L19.4492 10.7555L18.7586 10.3086Z" fill="#5E0043" stroke="black" stroke-width="0.1125"/>
<path d="M18.327 10.3086C18.3727 10.3594 18.718 10.7859 18.784 11.1363C18.8449 11.4918 18.7484 10.6539 18.7484 10.6539C18.7484 10.6539 19.1801 10.8672 19.1953 11.0043C19.2055 11.1363 19.3984 10.9941 19.4086 10.9688L18.1594 10.1562L18.327 10.3086ZM20.4648 10.2832C20.4648 10.2832 20.0078 10.8824 20.0586 11.5324C19.9672 11.2227 20.0434 10.7047 20.0434 10.7047L19.9418 10.7707C19.9418 10.7707 19.8402 11.2074 19.7133 11.2785C19.6879 11.2277 19.693 11.2074 19.693 11.2074C19.693 11.2074 19.5559 11.3852 19.5254 11.4055C19.5 11.4207 19.5356 12.0148 19.5356 12.0148C19.5356 12.0148 19.5863 12.4414 19.6371 12.4363C19.5903 12.4597 19.5446 12.4852 19.5 12.5125L19.4441 11.3699L19.5711 11.243C19.5711 11.243 19.7438 11.0348 19.7539 10.8316C19.7095 10.8693 19.6576 10.897 19.6016 10.9129C19.6016 10.9129 19.5762 11.2023 19.5102 11.243C19.4391 11.2836 19.4391 11.3547 19.4391 11.3547L19.4238 10.9789L20.4648 10.2832Z" fill="#474747" stroke="#474747" stroke-width="0.1125" stroke-linejoin="round"/>
<path d="M19.4238 10.9738L19.5102 12.7766" stroke="black" stroke-width="0.1125" stroke-linecap="round"/>
<path d="M18.3168 11.832C18.3168 11.832 18.5199 11.959 18.5961 12.3246C19.2766 12.2738 19.4848 12.5176 19.4848 12.5176C19.4848 12.5176 20.0434 12.2484 20.2973 12.2992C20.3916 12.1399 20.5079 11.9946 20.6426 11.8676" stroke="black" stroke-width="0.1125"/>
<path d="M18.0273 10.0699L19.4238 10.984L20.673 10.1359C20.673 10.1359 20.9371 9.99375 20.9117 9.89219C20.8914 9.79063 20.8 9.82617 20.7594 9.84141C20.7086 9.86172 19.4441 10.7555 19.4441 10.7555L18.0984 9.90742C18.0984 9.90742 17.9969 9.87695 17.9816 9.93789C17.9613 10.0039 18.0172 10.0395 18.0324 10.0699H18.0273Z" fill="#B4B6B9" stroke="black" stroke-width="0.1125"/>
<path d="M20.5156 9.83125C20.5156 9.83125 20.1602 9.67891 20.1602 9.81094C20.1602 9.94297 20.1754 9.95821 20.2312 10.0395C20.2871 10.1258 20.1855 10.1766 20.1855 10.1766L20.1551 10.0852C20.1348 10.0293 19.9418 9.9836 19.9266 9.92266C19.9062 9.85156 19.9672 9.74492 19.8504 9.73477C19.7387 9.71953 19.627 9.78047 19.6016 9.9125C19.5812 10.0395 19.434 10.3492 19.434 10.3492L19.4492 9.65352C19.7031 9.66875 20.1703 9.72461 20.5258 9.76524C20.4191 9.75 20.5664 9.77539 20.5613 9.81094C20.5512 9.84141 20.5156 9.84141 20.5207 9.83125H20.5156ZM19.2613 9.6586C19.1953 9.6586 18.8754 9.69414 18.7992 9.74492C18.718 9.79063 18.9262 9.86172 18.9008 9.92774C18.8754 9.98867 18.8703 10.1207 18.7687 10.0902C18.6672 10.0648 18.332 9.89727 18.3219 9.83633C18.3117 9.78555 18.2406 9.78047 18.2406 9.78047C18.2406 9.78047 19.2156 9.64844 19.2562 9.6586H19.2613Z" fill="#474747" stroke="#474747" stroke-width="0.1125" stroke-linejoin="round"/>
<path d="M19.4137 9.57735V10.4305M18.7586 8.57188L18.3574 9.22695" stroke="black" stroke-width="0.1125"/>
<path d="M19.4746 8.55664C19.4746 8.55664 19.6473 8.79023 19.627 8.85625C19.6909 8.93703 19.7406 9.02802 19.7742 9.12539" fill="url(#paint3_linear_1_14416)"/>
<path d="M19.4746 8.55664C19.4746 8.55664 19.6473 8.79023 19.627 8.85625C19.6909 8.93703 19.7406 9.02802 19.7742 9.12539" stroke="black" stroke-width="0.1125"/>
<path d="M20.1297 8.5211C20.1297 8.5211 19.7641 9.03399 19.7742 9.07461" stroke="black" stroke-width="0.1125"/>
<path d="M18.2508 6.05821C18.2457 6.08868 18.2 6.09883 18.1492 6.0836C18.0984 6.06836 18.0629 6.03282 18.073 6.00235C18.0832 5.97188 18.1238 5.96172 18.1746 5.97696C18.2254 5.99219 18.2609 6.02774 18.2508 6.05821ZM18.398 6.04297C18.4082 6.07852 18.4539 6.08867 18.5047 6.07344C18.5555 6.05821 18.5859 6.02266 18.5809 5.99219C18.5707 5.96172 18.525 5.95157 18.4793 5.9668C18.4285 5.98203 18.393 6.01758 18.398 6.04805V6.04297Z" fill="black"/>
<path d="M22.6992 16.768C22.6992 16.768 22.557 16.7934 22.5621 16.8086C22.5672 16.8187 22.166 16.834 22.1559 16.8187C22.1508 16.8086 22.1 16.8898 22.1 16.8898L22.1609 16.8492C22.1609 16.8492 22.2625 16.9508 22.293 16.9406C22.3184 16.9355 22.2777 16.9812 22.2879 16.9914C22.293 16.9965 22.3234 16.9711 22.3234 16.9711L22.9836 16.9609L22.6992 16.768ZM22.943 16.9762L22.3996 16.9914C22.3996 16.9914 22.2676 17.1133 22.2574 17.1437C22.2473 17.1742 22.3437 17.1793 22.3437 17.1793L22.3742 17.2809L22.4453 17.2555C22.4453 17.2555 22.9023 17.3266 23.3238 17.2301C23.5371 17.159 23.5777 17.0676 23.4254 17.0117C23.273 16.9609 22.943 16.9762 22.943 16.9762Z" fill="#FF7000" stroke="black" stroke-width="0.1125" stroke-linejoin="round"/>
<path d="M21.0945 18.0781L22.0594 18.0375L21.8816 17.8852L24.5121 17.7785L24.4207 17.5703L21.4754 17.6871L21.8309 17.8547L21.0387 17.875L21.059 17.9613L20.8559 17.9512C20.8559 17.9512 21.0844 18.0426 21.0945 18.0832V18.0781Z" fill="url(#paint4_linear_1_14416)" stroke="black" stroke-width="0.1125"/>
<path d="M22.1812 12.7156C22.1051 12.675 21.7648 12.6293 21.3891 12.8781L21.4043 13.7465C21.4043 13.7465 21.9578 13.4469 22.227 13.518C22.2117 13.2488 22.2117 12.8984 22.1812 12.7156V12.7156Z" fill="url(#paint5_linear_1_14416)" stroke="black" stroke-width="0.1125"/>
<path d="M16.8086 15.3613L14.5234 17.6363M17.8293 15.3766L15.9707 17.8293M17.748 14.7418L15.2648 17.743M15.1887 17.7023L15.4324 17.423M18.2203 16.25L17.2555 17.5805M17.2148 17.7531L17.2402 18.2609M18.6621 16.7172L17.6414 17.9918M18.4793 17.8953L18.8906 17.2148M18.6367 17.0828L18.1391 17.6414M18.4844 16.5496L18.1441 16.966M18.0477 15.9453C18.0477 15.9453 17.0066 17.4637 17.027 17.5855M17.941 15.7422C17.9156 15.7625 17.0422 16.9102 17.0422 16.9102M16.9914 17.2809L16.8391 17.4688M16.6359 17.7633L16.3973 18.0781" stroke="black" stroke-width="0.114005"/>
<path d="M16.6969 11.8676C16.6969 11.8676 16.6258 12.0859 16.6969 12.1977C16.768 12.3094 17.2047 13.2031 17.2047 13.2031C17.2047 13.2031 17.5094 12.8324 17.6211 12.8223C17.7328 12.8121 17.682 13.7871 17.682 13.7871C17.682 13.7871 17.4992 13.9547 17.3875 13.9445C17.2809 13.9344 17.6617 14.3254 17.6516 14.6555C17.6414 14.9906 17.1437 16.6359 16.966 16.6664C16.7883 16.6969 17.0473 16.3617 17.0371 16.2754C17.027 16.184 16.9762 16.2449 16.9355 16.1434C16.8949 16.0418 16.9965 15.8895 16.9762 15.7879C16.9559 15.6914 16.8695 15.7117 16.8594 15.6406C16.8492 15.5695 16.9152 15.5492 16.9102 15.473C16.8949 15.3918 16.7883 15.4121 16.7984 15.341C16.8086 15.2699 16.8187 15.3004 16.8086 15.1684C16.7984 15.0414 16.7781 15.2598 16.6664 15.2699C16.5547 15.2801 16.4633 15.534 16.4633 15.534C16.4633 15.534 16.2449 15.8387 16.0215 15.7016C16.1535 15.9859 16.052 16.1078 16.0012 16.1129C15.9504 16.123 16.0418 16.3363 15.925 16.3465C15.8031 16.3566 16.0113 16.8187 15.8742 16.8543C16.0266 16.9254 15.9047 17.0168 15.9047 17.0168C15.9047 17.0168 15.5543 17.0473 15.6305 17.4992C14.6098 17.1387 14.107 16.5141 14.1172 15.8844C14.1273 15.2496 14.3254 14.6758 14.818 14.4625C14.9602 13.9445 15.1988 13.3809 15.1988 13.3809C15.1988 13.3809 15.1582 13.1523 15.1887 13C15.2191 12.8477 15.3613 12.6953 15.3613 12.6953C15.3613 12.6953 15.341 12.3398 15.3512 12.157C15.3613 11.9742 15.4324 11.898 15.4426 11.7965C15.4527 11.6949 15.4121 11.1871 15.5137 11.0906C15.6152 11.0043 15.8031 11.0145 15.9047 10.9535C16.0062 10.8926 16.1332 10.7809 16.2602 10.791C16.3973 10.8012 16.5039 10.8926 16.5039 10.8926C16.5039 10.8926 16.9965 10.8926 17.027 11.0805C17.0574 11.2734 16.9254 11.3445 16.9254 11.3445C16.9254 11.3445 16.9965 11.6137 16.6969 11.8676V11.8676Z" fill="#8A9396" stroke="#2B2B2B" stroke-width="0.1125"/>
<path d="M16.2602 11.1719C16.2754 11.1973 16.2398 11.248 16.1789 11.2836C16.118 11.3141 16.057 11.3191 16.0418 11.2836C16.0266 11.2582 16.0621 11.2074 16.123 11.177C16.184 11.1465 16.2449 11.1414 16.2602 11.1719Z" fill="#CECFCF" stroke="#2B2B2B" stroke-width="0.1125"/>
<path d="M16.1738 11.2227C16.1738 11.2379 16.1586 11.2531 16.1383 11.2531C16.118 11.2531 16.1027 11.2379 16.1027 11.2227C16.1027 11.2023 16.118 11.1871 16.1383 11.1871C16.1586 11.1871 16.1738 11.2023 16.1738 11.2227Z" fill="black"/>
<path d="M16.9102 11.5527C16.9102 11.5527 17.032 12.0961 16.8848 12.4719M16.9457 11.3141C16.9457 11.3141 17.1844 11.6289 17.1539 12.025M16.9711 11.248C16.9762 11.248 17.1742 11.4156 17.1641 11.5324M17.0168 11.177C17.0168 11.177 17.1488 11.2684 17.1793 11.3598" stroke="#2B2B2B" stroke-width="0.05"/>
<path d="M16.9559 11.1211C16.9559 11.1211 16.4887 11.8828 16.5496 12.3602" stroke="black" stroke-width="0.1125"/>
<path d="M16.9863 11.1008C16.9863 11.1008 16.3668 11.4664 16.25 12.675" stroke="#2B2B2B" stroke-width="0.05"/>
<path d="M16.9152 11.3242L16.6715 11.507" stroke="black" stroke-width="0.1125"/>
<path d="M16.0215 12.7461C16.0215 12.7461 16.3668 11.309 16.9762 11.1008" stroke="#2B2B2B" stroke-width="0.05"/>
<path d="M17.2148 13.2285C17.2148 13.2285 17.5449 12.8121 17.6211 12.8273C17.7023 12.8426 17.677 13.7871 17.677 13.7871C17.677 13.7871 17.4332 13.9699 17.3773 13.9648C17.3266 13.9547 17.6516 14.4066 17.6465 14.5742L17.6313 14.7469C17.6313 14.7469 17.6313 14.6453 17.5551 14.4828C17.4789 14.3254 17.5246 14.1375 17.027 13.7312C16.9 13.4773 17.2707 13.8836 17.3469 13.8227C17.423 13.7617 17.2098 13.2336 17.2148 13.2285V13.2285Z" fill="#2B2B2B" stroke="#2B2B2B" stroke-width="0.1125"/>
<path d="M16.6309 10.8926C16.6309 10.8926 16.4887 10.9281 16.4734 10.9891C16.4531 11.0398 16.3719 11.1008 16.3262 11.0805C16.2805 11.0602 16.1992 10.9941 16.1992 10.9941" stroke="#2B2B2B" stroke-width="0.1125"/>
<path d="M15.8437 11.375C15.8437 11.375 15.6355 11.5883 15.732 11.6137C15.8336 11.634 15.9402 11.4461 15.9402 11.4461C15.9402 11.4461 15.9402 11.7711 16.0316 11.7203C16.118 11.6695 16.3769 11.4867 16.3769 11.4867C16.3769 11.4867 16.4684 11.4766 16.4836 11.4867C16.5039 11.4867 16.7223 11.6797 16.8695 11.6137C16.7883 11.827 16.6918 11.8523 16.6918 11.8523C16.6918 11.8523 16.5394 12.0453 16.3465 12.0047C16.1484 11.9539 16.0977 11.8777 16.0977 11.8777C16.0977 11.8777 15.9352 11.8879 15.8844 11.8117C15.8336 11.7355 15.8184 11.6949 15.8184 11.6949C15.8184 11.6949 15.7219 11.7863 15.6965 11.7457C15.6711 11.6949 15.6965 11.441 15.8437 11.3801V11.375Z" fill="#2B2B2B" stroke="#2B2B2B" stroke-width="0.1125" stroke-linejoin="round"/>
<path d="M17.0219 11.0855C17.0219 11.0855 16.6359 10.9738 16.5039 11.1617C16.3719 11.3547 16.4023 11.4613 16.4734 11.4766" stroke="#2B2B2B" stroke-width="0.1125"/>
<path d="M17.0777 11.0754C17.0777 11.1262 17.0473 11.1566 17.0066 11.1566C16.966 11.1566 16.9355 11.1211 16.9355 11.0754C16.9355 11.0297 16.966 10.9941 17.0066 10.9941C17.0473 10.9941 17.0777 11.0297 17.0777 11.0754Z" fill="black"/>
<path d="M15.9605 12.0605C15.9605 12.0605 16.1129 12.2992 16.3059 12.3652C16.4937 12.4313 16.1738 12.4922 15.9859 12.3652C15.8539 12.1773 15.8844 12.0453 15.8844 12.0453C15.8844 12.0453 15.925 12.0098 15.9605 12.0605ZM17.3012 13.4824C17.3012 13.4824 16.8644 12.873 16.7375 12.8375C16.6105 12.802 16.834 12.7766 16.966 12.9086C17.1031 13.0355 16.9305 12.6953 16.9305 12.6953L17.3012 13.4824Z" fill="#2B2B2B" stroke="#2B2B2B" stroke-width="0.1125"/>
<path d="M15.9199 17.0219C16.0875 16.9762 16.8238 17.4434 16.9863 17.5602C17.1539 17.677 17.5043 17.6059 17.5043 17.6059C17.5043 17.6059 17.3418 17.7023 17.2402 17.7227C17.1387 17.748 17.5398 17.748 17.5398 17.748C17.5398 17.748 16.5953 18.007 15.6406 17.5043C15.5543 17.1133 15.8438 17.027 15.9199 17.0219Z" fill="#2B2B2B" stroke="#2B2B2B" stroke-width="0.1125" stroke-linejoin="round"/>
<path d="M16.9965 13.6348C16.9965 13.6348 16.8695 13.6094 16.8086 13.5332C16.7426 13.4672 16.6563 13.2844 16.5598 13.2133C16.4684 13.1371 16.0012 12.8781 15.8285 12.8984C15.6609 12.9137 15.6102 12.8781 15.5898 12.8578C15.5695 12.8375 15.4984 12.868 15.5086 12.9594C15.5238 13.0406 15.3816 13.2336 15.4324 13.325C15.4832 13.4164 15.727 13.782 15.7727 13.7973C15.8234 13.8074 15.793 14.0105 15.793 14.0105C15.793 14.0105 16.0062 14.2289 16.0621 14.2391C16.1129 14.2543 16.1687 14.2898 16.1637 14.3406C16.1586 14.3914 15.925 14.6758 15.925 14.6758C15.925 14.6758 15.6813 14.8027 15.6762 14.8789C15.6762 14.95 15.7371 15.0973 15.9301 15.148C16.182 15.1892 16.4398 15.177 16.6867 15.1125C16.7245 15.0014 16.7417 14.8844 16.7375 14.7672C16.7172 14.7418 16.5852 14.6605 16.5191 14.6707C16.4531 14.6859 16.3973 14.7367 16.4023 14.752C16.4023 14.7621 16.3059 14.8129 16.3059 14.7672C16.3059 14.7164 16.5039 14.498 16.5191 14.5133C16.5395 14.5336 16.8188 14.5641 16.8695 14.7012C16.9203 14.8383 16.9203 14.9398 17.0625 14.9246C17.2098 14.9094 17.4129 14.7723 17.4281 14.498C17.4484 14.2238 17.2656 14.0359 17.225 14.0055C17.1742 13.9801 17.0219 13.8887 17.0117 13.848C17.0016 13.8074 16.9711 13.6652 16.9965 13.6348V13.6348Z" fill="#2B2B2B" stroke="#2B2B2B" stroke-width="0.1125"/>
<path d="M14.3863 14.8586C14.3863 14.8586 14.8535 14.7367 14.9754 14.7418C15.0922 14.7418 15.5492 14.9551 15.6863 15.0871C15.8133 15.2141 16.0875 15.5238 16.2652 15.4934C16.443 15.468 16.4937 15.4324 16.4937 15.4324L16.4227 15.5644C16.4227 15.5644 16.2805 15.6051 16.2094 15.5848C16.1332 15.5695 15.9961 15.5238 15.8539 15.3816C15.7117 15.2445 15.275 14.8738 14.8992 14.8992C14.5285 14.9246 14.3152 15.2902 14.3152 15.2902C14.3152 15.2902 14.3152 15.1125 14.3355 15.0719C14.3508 15.0312 14.2543 15.1582 14.2543 15.1582L14.3863 14.8586Z" fill="#2B2B2B" stroke="#2B2B2B" stroke-width="0.1125"/>
<path d="M16.1078 15.2191C16.1078 15.2191 16.2246 15.2547 16.4176 15.2547C16.6105 15.2547 16.7172 15.1684 16.7172 15.1684L16.702 15.0922L16.7324 14.9906C16.7324 14.9906 16.8848 15.143 16.8797 15.1684C16.8746 15.1988 16.8188 15.2141 16.8188 15.2141L16.7984 15.1379L16.7477 15.2039C16.7477 15.2039 16.4633 15.4273 16.3109 15.3918C16.1586 15.3613 16.0164 15.2598 16.057 15.2395C16.0926 15.2141 16.1129 15.2191 16.1078 15.2191ZM15.4273 15.6152C15.4273 15.6152 15.2598 15.6152 15.1836 15.6508C15.1074 15.6863 15.082 15.732 15.0313 15.7219C14.9805 15.7219 14.9398 15.6508 14.9551 15.6203C14.9754 15.5848 15.0719 15.5289 15.2598 15.5441C15.4527 15.5594 15.4273 15.6152 15.4273 15.6152V15.6152ZM16.0164 16.0723C16.0164 16.0672 16.0063 15.8285 15.9148 15.732C15.8819 15.6963 15.8403 15.6695 15.7941 15.6544C15.7478 15.6393 15.6985 15.6363 15.6508 15.6457C15.6 15.6559 15.8438 15.7625 15.8691 15.8336C15.8895 15.9047 15.9707 16.0977 15.9504 16.1434C15.925 16.1941 15.8895 16.0062 15.7422 15.9555C15.5898 15.9047 15.3867 15.9352 15.4273 16.0012C15.473 16.0672 15.6355 16.0012 15.7219 16.1484C15.8082 16.2906 15.8742 16.4379 15.8742 16.4379L15.8996 16.3363L15.9707 16.316L15.9809 16.118L16.0164 16.0723Z" fill="#2B2B2B" stroke="#2B2B2B" stroke-width="0.1125"/>
<path d="M15.8945 16.8441L15.7422 16.5395C15.7422 16.5395 15.6914 16.3414 15.5645 16.2855C15.4375 16.2348 15.2598 16.2449 15.2598 16.3109C15.2598 16.377 15.5391 16.4633 15.5543 16.4988C15.5746 16.5344 15.5645 16.5953 15.5391 16.6004C15.5188 16.6004 15.3918 16.5496 15.3309 16.5648C15.2648 16.5801 15.2293 16.6664 15.1379 16.641C15.0414 16.6156 14.9652 16.316 15.0008 16.2855C15.0363 16.2551 14.9297 16.3363 14.9094 16.2602C14.8891 16.184 14.9398 15.9402 14.9094 15.9047C14.8688 15.8793 14.691 15.7727 14.691 15.7523C14.691 15.732 14.7012 14.5488 15.6863 15.5289C15.2648 15.0262 15.0973 15.082 15.0211 15.077C14.9602 15.077 14.5793 15.1125 14.4828 15.6C14.3813 16.0875 14.2695 15.7828 14.2695 15.7828C14.2695 15.7828 14.2492 15.9961 14.3508 16.057C14.4523 16.118 14.3 16.2906 14.3 16.2906C14.3 16.2906 14.1223 15.8437 14.1477 15.6457C14.1054 15.9826 14.1769 16.324 14.3508 16.6156C14.6793 16.9907 15.0916 17.283 15.5543 17.4687C15.9148 16.9203 15.8996 16.8543 15.8996 16.8441H15.8945Z" fill="#2B2B2B" stroke="#2B2B2B" stroke-width="0.1125" stroke-linejoin="round"/>
<path d="M15.2496 16.8492C15.2496 16.8492 15.4527 16.8746 15.5035 16.9762C15.5594 17.0777 15.5848 17.2352 15.5848 17.2352C15.6152 17.1691 15.6355 17.1133 15.6965 17.0625C15.7625 17.0117 15.8133 17.0117 15.8082 16.9711C15.8082 16.9356 15.6 16.7172 15.4934 16.707C15.3918 16.6918 15.2039 16.8188 15.2039 16.8188C15.2039 16.8188 15.1684 16.8695 15.2547 16.8492H15.2496Z" fill="#8A9396" stroke="#2B2B2B" stroke-width="0.1125" stroke-linejoin="round"/>
<path d="M15.7066 17.3672C15.7066 17.3672 16.2246 17.6059 17.0727 17.6211" stroke="#8A9396" stroke-width="0.10688" stroke-linecap="round"/>
<path d="M17.4281 14.9754C17.4281 14.9754 17.3824 15.407 17.0523 16.2602" stroke="#2B2B2B" stroke-width="0.10688" stroke-linecap="round"/>
<path d="M17.3672 15.2395C17.3672 15.2395 17.2656 15.5492 16.9863 15.7828" stroke="#2B2B2B" stroke-width="0.1125"/>
<path d="M15.8539 20.6172L15.9453 20.5156L15.9707 20.541L15.9656 20.5512L15.9555 20.5613V20.5664L15.9656 20.5766L16.0824 20.6781L16.0926 20.6883H16.0977L16.1078 20.6832L16.1281 20.6477C16.1315 20.6341 16.1315 20.6206 16.1281 20.607C16.1281 20.5969 16.123 20.5833 16.1129 20.5664L16.1484 20.5461L16.1992 20.6426L16.0621 20.7949L16.0316 20.7746L16.0418 20.7645L16.0469 20.7543V20.7441L16.0367 20.734L15.9199 20.6324L15.9098 20.6223H15.8996L15.8945 20.6324L15.8844 20.6426L15.8539 20.6172V20.6172ZM16.0469 20.3988L16.2145 20.2363L16.2957 20.277L16.2805 20.3074L16.2398 20.3023H16.2094L16.184 20.3277L16.1535 20.3582L16.2043 20.409L16.2094 20.3988L16.2246 20.3785V20.3684L16.2145 20.3531L16.2043 20.348L16.2297 20.3227L16.3109 20.4039L16.2906 20.4293L16.2805 20.4191L16.2652 20.409H16.2551L16.2398 20.4242L16.2297 20.4344L16.2754 20.4801L16.2805 20.4852H16.2855L16.2957 20.4801L16.316 20.4598L16.3414 20.4242V20.3887C16.3414 20.3717 16.338 20.3565 16.3312 20.343L16.3668 20.3277L16.4176 20.4293L16.2449 20.5918L16.2195 20.5664V20.5613L16.2348 20.5461V20.5359L16.2246 20.5258L16.118 20.4191L16.1027 20.409H16.0977L16.0875 20.4141L16.0773 20.4242L16.052 20.3988H16.0469ZM16.3973 20.0688C16.4311 20.0383 16.465 20.0247 16.4988 20.0281C16.5395 20.0281 16.5733 20.0451 16.6004 20.0789C16.6173 20.0992 16.6292 20.1229 16.6359 20.15C16.6393 20.1737 16.6359 20.1974 16.6258 20.2211C16.619 20.2448 16.6021 20.2668 16.575 20.2871C16.5479 20.3108 16.5174 20.3227 16.4836 20.3227C16.4396 20.3227 16.404 20.3057 16.377 20.2719C16.3499 20.238 16.338 20.2042 16.3414 20.1703C16.3414 20.1297 16.3583 20.0958 16.3922 20.0688H16.3973ZM16.4227 20.0992C16.4091 20.1128 16.4023 20.1297 16.4023 20.15C16.4023 20.1737 16.4125 20.1974 16.4328 20.2211C16.4531 20.2448 16.4751 20.26 16.4988 20.2668C16.5191 20.2668 16.5361 20.2617 16.5496 20.2516C16.5665 20.238 16.575 20.2211 16.575 20.2008C16.575 20.1771 16.5648 20.1534 16.5445 20.1297L16.4988 20.0941L16.4582 20.084C16.4447 20.084 16.4328 20.0891 16.4227 20.0992V20.0992ZM16.6969 19.825L16.7172 19.8098H16.7223L16.8543 19.7234L16.8492 19.7133L16.8695 19.698L16.9559 19.759L16.9305 19.7895L16.9 19.7742H16.8441V19.7945L16.9355 19.9215L16.9457 19.9367H16.9609L16.9812 19.9266L17.0016 19.957L16.8898 20.0332L16.8695 20.0027H16.8746L16.8898 19.9875V19.9773L16.8797 19.9621L16.7883 19.8301L16.7832 19.825H16.7781C16.7714 19.8284 16.7663 19.8352 16.7629 19.8453L16.7578 19.8758V19.9113L16.7223 19.9215L16.6969 19.8199V19.825ZM16.9457 19.6625L17.1437 19.5406L17.2148 19.6016L17.1895 19.632C17.1793 19.6219 17.1674 19.6151 17.1539 19.6117H17.1234C17.1133 19.6117 17.1031 19.6168 17.093 19.627L17.0574 19.6473L17.093 19.7082L17.1031 19.698L17.1184 19.6879C17.1217 19.6845 17.1217 19.6811 17.1184 19.6777V19.6574L17.1082 19.6473L17.1387 19.632L17.1996 19.7336L17.1691 19.7488L17.1641 19.7387L17.1539 19.7234H17.1437L17.1234 19.7336L17.1133 19.7387L17.1437 19.7895L17.1488 19.8047H17.1539L17.1691 19.7996L17.1895 19.7844C17.203 19.7776 17.2131 19.7691 17.2199 19.759L17.2352 19.7234V19.6727H17.2707L17.291 19.7742L17.0879 19.8961L17.0676 19.8656H17.0777L17.0879 19.8504C17.0913 19.8504 17.0913 19.847 17.0879 19.8402V19.825L17.0066 19.698L16.9965 19.6828H16.9914L16.9762 19.6879L16.966 19.693L16.9457 19.6625V19.6625ZM17.225 19.4949L17.3773 19.4188L17.4078 19.4035L17.4484 19.3984L17.4789 19.4086L17.5043 19.434C17.5145 19.4543 17.5145 19.4729 17.5043 19.4898C17.4975 19.5102 17.4874 19.5271 17.4738 19.5406L17.5551 19.5711L17.5703 19.5762H17.5906L17.6008 19.566L17.6211 19.6016L17.5398 19.6422L17.4078 19.5762L17.3875 19.5863L17.4129 19.6371L17.423 19.6523H17.4434L17.4535 19.6422L17.4738 19.6777L17.352 19.7387L17.3367 19.7082L17.3469 19.698L17.357 19.693V19.6727L17.2809 19.5305L17.2758 19.5203H17.2555L17.2453 19.5305L17.225 19.4949V19.4949ZM17.3367 19.4898L17.3672 19.5508L17.4078 19.5305L17.4332 19.5102C17.44 19.5068 17.4434 19.5017 17.4434 19.4949V19.4695L17.4281 19.4594C17.4214 19.456 17.4146 19.456 17.4078 19.4594L17.3773 19.4695L17.3367 19.4898ZM17.5348 19.3375L17.6922 19.2664L17.7277 19.2563H17.7633C17.7768 19.2563 17.7887 19.2596 17.7988 19.2664L17.8191 19.2969C17.8259 19.3138 17.8259 19.3307 17.8191 19.3477C17.809 19.368 17.7954 19.3849 17.7785 19.3984L17.8598 19.434L17.875 19.4391H17.9004L17.9105 19.434L17.9258 19.4645L17.8445 19.5L17.7125 19.4289L17.6922 19.4391L17.7176 19.4898L17.7227 19.5051H17.743L17.7582 19.5L17.7734 19.5355L17.6465 19.5863L17.6312 19.5508H17.6414L17.6566 19.5406V19.5203L17.5906 19.3781L17.5855 19.3629H17.5652L17.5551 19.373L17.5348 19.3375V19.3375ZM17.6465 19.3375L17.677 19.4035L17.7125 19.3832L17.748 19.368L17.7582 19.3477V19.3273L17.743 19.3121C17.7362 19.3087 17.7294 19.3087 17.7227 19.3121L17.6922 19.3172L17.6465 19.3375V19.3375ZM17.9512 19.1648L18.0121 19.1395L18.1645 19.3121L18.1797 19.3273H18.2L18.2102 19.3629L18.0883 19.4086L18.0781 19.368H18.0832C18.09 19.368 18.095 19.3646 18.0984 19.3578V19.3527L18.0883 19.3375L18.073 19.3172L17.9969 19.3477V19.3934H18.0273L18.0375 19.4238L17.9359 19.4594L17.9258 19.4238L17.941 19.4188V19.4086L17.9461 19.3984L17.9512 19.1648V19.1648ZM17.9969 19.307L18.0477 19.2867L17.9969 19.2258V19.307V19.307ZM18.1695 19.0836L18.2863 19.048L18.3777 19.2004V19.0227L18.5047 18.9871L18.5148 19.0227L18.4996 19.0277C18.4928 19.0277 18.4895 19.0311 18.4895 19.0379V19.0531L18.5301 19.2055L18.5352 19.2207H18.5707L18.5809 19.2512L18.4539 19.2918L18.4437 19.2512H18.4539L18.4641 19.2461L18.4691 19.2359V19.2258L18.4184 19.0633V19.302L18.3828 19.3121L18.2609 19.1141L18.3066 19.2766V19.2867H18.3422L18.3523 19.3172L18.2457 19.3527L18.2355 19.3121H18.2457L18.2559 19.307L18.2609 19.2969V19.2816L18.2152 19.1293V19.1191H18.1797L18.1695 19.0836V19.0836ZM18.718 18.9414L18.8602 18.916L18.9109 18.9109L18.9414 18.9211L18.9668 18.9465L18.982 18.977C18.9854 19.0007 18.9803 19.021 18.9668 19.0379C18.9499 19.0582 18.9262 19.0717 18.8957 19.0785L18.8449 19.0836L18.8602 19.1344V19.1496H18.8957L18.9008 19.1852L18.7687 19.2105L18.7637 19.175H18.7738L18.7891 19.1699V19.1445L18.7637 18.9922L18.7586 18.982L18.7535 18.977H18.7281L18.718 18.9414ZM18.8246 18.9668L18.8398 19.043H18.8652L18.8957 19.0277C18.9025 19.0244 18.9059 19.0193 18.9059 19.0125V18.9871C18.9059 18.977 18.9008 18.9685 18.8906 18.9617H18.8246V18.9668ZM19.0125 18.8906L19.1801 18.8652H19.2156L19.2512 18.8703C19.2647 18.8771 19.2749 18.8855 19.2816 18.8957L19.2918 18.9262C19.2952 18.9499 19.2901 18.9685 19.2766 18.982C19.263 18.9956 19.2461 19.0057 19.2258 19.0125L19.2918 19.0734L19.307 19.0836H19.3426V19.1242L19.2562 19.1344L19.1547 19.0277H19.1344V19.0836L19.1445 19.1039C19.1513 19.1073 19.1581 19.1073 19.1648 19.1039H19.175L19.1801 19.1445L19.048 19.1598L19.043 19.1242H19.0531L19.0684 19.1191V19.0938L19.0531 18.9414V18.9313L19.043 18.9262H19.0176L19.0125 18.8855V18.8906ZM19.1141 18.9211L19.1293 18.9922L19.1699 18.9871L19.2055 18.977L19.2207 18.9617V18.9414L19.2156 18.9211L19.1953 18.9109H19.1648L19.1141 18.9211ZM19.5102 18.8297C19.5542 18.8297 19.5897 18.8415 19.6168 18.8652C19.6439 18.8923 19.6608 18.9262 19.6676 18.9668C19.6676 18.9939 19.6608 19.0193 19.6473 19.043C19.6371 19.0633 19.6202 19.0802 19.5965 19.0938C19.5796 19.1073 19.5542 19.1158 19.5203 19.1191C19.4797 19.1191 19.4458 19.109 19.4187 19.0887C19.3849 19.065 19.368 19.0311 19.368 18.9871C19.368 18.9431 19.3798 18.9076 19.4035 18.8805C19.4306 18.85 19.4645 18.8331 19.5051 18.8297H19.5102ZM19.5102 18.8805C19.4898 18.8805 19.4729 18.8872 19.4594 18.9008C19.4458 18.9211 19.4408 18.9482 19.4441 18.982C19.4441 19.0125 19.4526 19.0362 19.4695 19.0531C19.4831 19.0667 19.5 19.0734 19.5203 19.0734C19.5406 19.0734 19.5575 19.065 19.5711 19.048C19.5846 19.0277 19.5897 19.0023 19.5863 18.9719C19.5863 18.9482 19.5829 18.9313 19.5762 18.9211C19.5694 18.9042 19.5592 18.8923 19.5457 18.8855C19.5355 18.8788 19.5237 18.8754 19.5102 18.8754V18.8805ZM19.7184 18.8297H19.9113L19.9418 18.85L19.9621 18.8805L19.9672 18.9109C19.9672 18.9346 19.9587 18.955 19.9418 18.9719C19.9249 18.9888 19.8995 18.9973 19.8656 18.9973H19.8148V19.048L19.8199 19.0582L19.825 19.0633H19.8504V19.1039H19.7184V19.0633H19.7437L19.7488 19.0582V18.8652H19.7184V18.8297V18.8297ZM19.8199 18.8754V18.9516H19.8758L19.891 18.9363L19.8961 18.9109C19.8961 18.8974 19.891 18.8872 19.8809 18.8805L19.8504 18.8754H19.8199V18.8754ZM20.018 18.8297L20.1855 18.8398C20.1991 18.8398 20.2109 18.8432 20.2211 18.85C20.2346 18.85 20.2465 18.8551 20.2566 18.8652L20.282 18.8906V18.9262C20.282 18.9465 20.2753 18.9634 20.2617 18.977C20.2448 18.9871 20.2262 18.9939 20.2059 18.9973L20.2566 19.0684L20.2668 19.0785L20.277 19.0836H20.2922L20.3023 19.0887V19.1242H20.2109L20.1297 18.9973H20.1094L20.1043 19.048V19.0684L20.1094 19.0734H20.1348V19.1141L19.9977 19.1039V19.0684H20.0281L20.0332 19.0633V19.048L20.0484 18.8957V18.8805L20.0434 18.8754H20.023L20.0129 18.8703V18.8297H20.018ZM20.1195 18.8805L20.1094 18.9566H20.1906L20.2059 18.9414C20.2126 18.938 20.216 18.9329 20.216 18.9262L20.2109 18.9059L20.1957 18.8906H20.1602L20.1145 18.8805H20.1195ZM20.3633 18.8551L20.4902 18.8754V18.9109H20.4598L20.4496 18.9313L20.4344 19.0836V19.1039H20.4496L20.4648 19.109L20.4598 19.1496L20.3277 19.1293V19.0938H20.3582L20.3633 19.0785L20.3836 18.9262V18.9008H20.3684L20.3531 18.8957L20.3582 18.8551H20.3633ZM20.6477 18.8957L20.7086 18.9059L20.7543 19.1344L20.7594 19.1547L20.7797 19.1598L20.7746 19.2004L20.6426 19.175L20.6477 19.1395H20.673L20.6781 19.1344V19.0938L20.5918 19.0785L20.5766 19.1039L20.5715 19.1141V19.1191L20.5766 19.1242L20.5969 19.1293L20.5918 19.1699L20.4852 19.1496L20.4902 19.1141H20.5055L20.5156 19.109L20.5258 19.0988L20.6477 18.8957V18.8957ZM20.6121 19.043L20.6629 19.0531L20.6527 18.9719L20.6121 19.043V19.043ZM20.8711 18.9414L20.993 18.9668L20.998 19.1445L21.0895 18.9922L21.2113 19.0227L21.2012 19.0582H21.1758L21.1656 19.0734L21.1301 19.2258C21.1267 19.2326 21.1267 19.2359 21.1301 19.2359V19.2461H21.1402L21.1555 19.2512L21.1453 19.2918L21.0184 19.2563L21.0285 19.2207H21.059V19.2105L21.1047 19.043L20.9828 19.2461L20.9473 19.241L20.9371 19.0074L20.8965 19.1699V19.1902H20.9117L20.927 19.1953L20.9168 19.2309L20.8051 19.2055L20.8152 19.1699H20.8457L20.8559 19.1547L20.8914 19.0023V18.982H20.8812L20.866 18.977L20.8762 18.9363L20.8711 18.9414ZM21.4297 19.0938L21.5668 19.1445C21.5837 19.1479 21.5973 19.1547 21.6074 19.1648C21.6176 19.1716 21.6243 19.1801 21.6277 19.1902L21.6379 19.2207V19.2563C21.6277 19.28 21.6108 19.2969 21.5871 19.307C21.5668 19.3138 21.5414 19.3104 21.5109 19.2969L21.4652 19.2816L21.45 19.3324L21.4449 19.3426V19.3527H21.4602L21.4703 19.3629L21.4602 19.3984L21.3332 19.3477L21.3484 19.3172H21.3535L21.3687 19.3223H21.3789L21.384 19.307L21.4348 19.1598L21.4398 19.1445V19.1395L21.4246 19.1344L21.4145 19.1293L21.4297 19.0938V19.0938ZM21.5059 19.1699L21.4805 19.241L21.5008 19.2512L21.5312 19.2563L21.5516 19.2512L21.5668 19.2309V19.2004C21.56 19.1902 21.5499 19.1835 21.5363 19.1801L21.5059 19.1699V19.1699ZM21.709 19.1953L21.8613 19.2664L21.8969 19.2816L21.9223 19.307L21.9375 19.3426L21.9273 19.3781C21.9206 19.3951 21.907 19.4069 21.8867 19.4137C21.8698 19.4204 21.8512 19.4204 21.8309 19.4137L21.8562 19.5V19.5152L21.8664 19.5254L21.8766 19.5305L21.8867 19.5355L21.8715 19.5711L21.7953 19.5355L21.7598 19.3883L21.7395 19.3832L21.7191 19.434L21.709 19.4492V19.4543L21.7242 19.4645H21.7344L21.7191 19.5051L21.5973 19.4492L21.6125 19.4137L21.6227 19.4188H21.648V19.4035L21.7141 19.2613L21.7191 19.2512V19.2461L21.709 19.2359H21.6937L21.709 19.1953V19.1953ZM21.7852 19.2766L21.7547 19.3426L21.7902 19.3629L21.8258 19.373L21.8512 19.368L21.8613 19.3527C21.8647 19.346 21.8647 19.3392 21.8613 19.3324L21.8562 19.3121L21.8258 19.2969L21.7852 19.2766V19.2766ZM22.166 19.4086C22.2033 19.4289 22.2286 19.456 22.2422 19.4898C22.2523 19.5271 22.2473 19.5643 22.227 19.6016C22.2134 19.6253 22.1965 19.6439 22.1762 19.6574C22.1559 19.671 22.1322 19.6777 22.1051 19.6777C22.0814 19.6777 22.056 19.671 22.0289 19.6574C21.995 19.6371 21.9714 19.6117 21.9578 19.5813C21.9409 19.544 21.9443 19.5051 21.968 19.4645C21.9883 19.4272 22.0154 19.4035 22.0492 19.3934C22.0865 19.3798 22.1254 19.3849 22.166 19.4086V19.4086ZM22.1457 19.4441C22.1254 19.434 22.1085 19.434 22.0949 19.4441C22.0678 19.4543 22.0475 19.4729 22.034 19.5C22.0204 19.5271 22.0154 19.5525 22.0187 19.5762C22.0221 19.5965 22.0323 19.6117 22.0492 19.6219C22.0695 19.6286 22.0881 19.6286 22.1051 19.6219C22.1288 19.6117 22.1457 19.5948 22.1559 19.5711C22.1694 19.5474 22.1762 19.5288 22.1762 19.5152L22.1711 19.4746C22.1643 19.4611 22.1559 19.4509 22.1457 19.4441V19.4441ZM22.3691 19.5152L22.3945 19.5305V19.5406L22.5215 19.6219L22.5316 19.6168L22.552 19.627L22.5316 19.7285L22.491 19.7184V19.6828L22.4859 19.6523L22.4707 19.6371H22.4656L22.4555 19.6422L22.3742 19.7793L22.3641 19.7945V19.7996L22.3691 19.8047L22.3895 19.8199L22.3691 19.8504L22.2523 19.7793L22.2727 19.7488H22.2828L22.298 19.759H22.3031L22.3133 19.7438L22.3996 19.6066C22.403 19.5999 22.403 19.5965 22.3996 19.5965V19.5914L22.3742 19.5863L22.3437 19.5914L22.3133 19.6117L22.293 19.5813L22.3691 19.5152V19.5152ZM22.618 19.6828L22.8059 19.8148L22.7805 19.9063L22.7449 19.8961V19.8555L22.7348 19.825L22.7094 19.8047L22.6738 19.7793L22.6332 19.8301L22.6434 19.8402L22.6637 19.8504H22.6738L22.6891 19.8352V19.8301L22.7246 19.8504L22.6535 19.9418L22.6281 19.9215V19.9113C22.6349 19.9079 22.6383 19.9029 22.6383 19.8961V19.8859L22.623 19.8707L22.6129 19.8656L22.5773 19.9164L22.5672 19.9266V19.9316L22.5773 19.9418L22.5977 19.952L22.6383 19.9723C22.6518 19.9757 22.6654 19.9757 22.6789 19.9723L22.7195 19.952L22.7398 19.9824L22.6535 20.0484L22.4555 19.9063L22.4809 19.8758L22.5012 19.891H22.5113L22.5215 19.8758L22.6078 19.7539L22.618 19.7387V19.7336L22.6078 19.7234L22.5977 19.7133L22.618 19.6828V19.6828ZM22.9277 20.0789L23.0293 20.1602L23.0039 20.1906H22.9988L22.9836 20.1805H22.9785L22.9684 20.1906L22.9176 20.2566L22.882 20.2313V20.2109C22.8685 20.2109 22.8566 20.2076 22.8465 20.2008L22.8109 20.1754C22.7906 20.1619 22.7754 20.1432 22.7652 20.1195C22.7585 20.0958 22.7585 20.0721 22.7652 20.0484C22.7652 20.0247 22.7754 20.001 22.7957 19.9773C22.8126 19.957 22.8329 19.9435 22.8566 19.9367C22.877 19.9266 22.899 19.9232 22.9227 19.9266C22.9497 19.9299 22.9717 19.9401 22.9887 19.957L23.0141 19.9824L23.0344 20.0129H23.0445L23.0648 20.0281L23.0293 20.1145L22.9937 20.0992V20.0484L22.9887 20.018L22.9684 19.9977L22.9379 19.9824L22.8973 19.9926L22.8566 20.023C22.8431 20.04 22.8346 20.0569 22.8312 20.0738C22.8245 20.0908 22.8245 20.1077 22.8312 20.1246C22.8312 20.1348 22.8363 20.1432 22.8465 20.15L22.8719 20.1652H22.8973L22.9125 20.1551V20.1449L22.9227 20.1348V20.1297L22.9125 20.1145L22.9023 20.1094L22.9277 20.0789V20.0789ZM23.2223 20.1652L23.273 20.2109L23.1816 20.4191V20.4445L23.1918 20.4598L23.1664 20.4902L23.0648 20.3988L23.0953 20.3734H23.1004L23.1156 20.3836H23.1207L23.1309 20.3684L23.141 20.343L23.0801 20.2922L23.0496 20.3023L23.0395 20.3074V20.3227L23.0547 20.3328L23.0293 20.3633L22.9531 20.2871L22.9785 20.2617L22.9887 20.2719H22.9988L23.0141 20.2668L23.2223 20.1652V20.1652ZM23.1207 20.2668L23.1562 20.3074L23.1867 20.2313L23.1156 20.2668H23.1207ZM23.4051 20.3277L23.4254 20.348L23.4203 20.3531L23.5219 20.4699L23.5371 20.4648L23.5523 20.4801L23.5066 20.5715L23.4711 20.5563L23.4812 20.5207V20.4902C23.4812 20.4801 23.4779 20.4733 23.4711 20.4699H23.4559L23.3441 20.5816L23.3289 20.5969V20.607L23.3441 20.6223L23.3187 20.6527L23.2273 20.5512L23.2527 20.5258L23.2578 20.5309L23.273 20.5461H23.2781L23.2934 20.5309L23.4102 20.4191L23.4152 20.4141V20.409L23.3949 20.3988H23.3594L23.3289 20.4039L23.3137 20.3684L23.4051 20.3277V20.3277Z" fill="black"/>
<path d="M0 0H13V13H0V0Z" fill="#012169"/>
<path d="M13 0V1.625L8.17578 6.5L13 11.248V13H11.2988L6.44922 8.22656L1.72656 13H0V11.2734L4.72266 6.52539L0 1.87891V0H1.57422L6.44922 4.77344L11.1719 0H13Z" fill="white"/>
<path d="M4.67188 8.22656L4.95117 9.08984L1.06641 13H0V12.9238L4.67188 8.22656ZM7.82031 7.92188L9.19141 8.125L13 11.8574V13L7.82031 7.92188ZM13 0L8.125 4.97656L8.02344 3.85938L11.832 0H13ZM0 0.0253906L4.90039 4.82422L3.40234 4.62109L0 1.24414V0.0253906Z" fill="#C8102E"/>
<path d="M4.46875 0V13H8.53125V0H4.46875ZM0 4.46875V8.53125H13V4.46875H0Z" fill="white"/>
<path d="M0 5.28125V7.71875H13V5.28125H0ZM5.28125 0V13H7.71875V0H5.28125Z" fill="#C8102E"/>
</g>
</g>
<defs>
<linearGradient id="paint0_linear_1_14416" x1="20.9931" y1="8.9997" x2="21.0088" y2="7.97748" gradientUnits="userSpaceOnUse">
<stop stop-color="#474747"/>
<stop offset="1" stop-color="#FF5500"/>
</linearGradient>
<linearGradient id="paint1_linear_1_14416" x1="20.6454" y1="12.8368" x2="20.6472" y2="13.4143" gradientUnits="userSpaceOnUse">
<stop stop-color="#B50000"/>
<stop offset="1" stop-color="#FFC500"/>
</linearGradient>
<linearGradient id="paint2_linear_1_14416" x1="23.1807" y1="13.1896" x2="24.1239" y2="13.1772" gradientUnits="userSpaceOnUse">
<stop stop-color="#D5DFFF"/>
<stop offset="1" stop-color="white"/>
</linearGradient>
<linearGradient id="paint3_linear_1_14416" x1="20.8134" y1="8.80579" x2="21.1531" y2="8.80579" gradientUnits="userSpaceOnUse">
<stop stop-color="#474747"/>
<stop offset="1" stop-color="#FF5500"/>
</linearGradient>
<linearGradient id="paint4_linear_1_14416" x1="25.7283" y1="17.9331" x2="25.563" y2="16.9057" gradientUnits="userSpaceOnUse">
<stop stop-color="#D5DFFF"/>
<stop offset="1" stop-color="white"/>
</linearGradient>
<linearGradient id="paint5_linear_1_14416" x1="23.4093" y1="13.5417" x2="22.9877" y2="12.8618" gradientUnits="userSpaceOnUse">
<stop stop-color="#D5DFFF"/>
<stop offset="1" stop-color="white"/>
</linearGradient>
<clipPath id="clip0_1_14416">
<rect width="26" height="26" fill="white"/>
</clipPath>
</defs>
</svg>
