<svg width="26" height="26" viewBox="0 0 26 26" fill="none" xmlns="http://www.w3.org/2000/svg">
<mask id="mask0_1_11726" style="mask-type:alpha" maskUnits="userSpaceOnUse" x="0" y="0" width="26" height="26">
<circle cx="13" cy="13" r="13" fill="#634848"/>
</mask>
<g mask="url(#mask0_1_11726)">
<mask id="mask1_1_11726" style="mask-type:alpha" maskUnits="userSpaceOnUse" x="-5" y="0" width="36" height="26">
<rect x="-4.33333" width="34.6667" height="26" fill="white"/>
</mask>
<g mask="url(#mask1_1_11726)">
<path fill-rule="evenodd" clip-rule="evenodd" d="M19.5026 0H30.3359V26H19.5026V0Z" fill="#58A5FF"/>
<path fill-rule="evenodd" clip-rule="evenodd" d="M-4.33073 0H8.66927V26H-4.33073V0Z" fill="#58A5FF"/>
<path fill-rule="evenodd" clip-rule="evenodd" d="M6.50261 0H19.5026V26H6.50261V0Z" fill="white"/>
<path fill-rule="evenodd" clip-rule="evenodd" d="M8.41732 17.028L8.98252 17.768L11.5494 14.2884V13.6724L8.41732 17.028Z" fill="#6C301F"/>
<path d="M10.1947 13.1472L10.3823 12.8887C12.8131 14.7164 14.5352 16.1194 15.4982 17.2886L14.8969 17.7838C13.9816 16.6726 12.5802 14.9409 10.1947 13.1472Z" fill="#979797"/>
<path d="M14.1052 11.6197L13.8255 11.3485L15.3582 9.76775L15.694 10.094L17.2852 8.6123L17.5506 8.89735L15.6883 10.6315L15.3664 10.3188L14.1052 11.6197Z" fill="#979797"/>
<path fill-rule="evenodd" clip-rule="evenodd" d="M9.22131 9.1453C9.13972 8.79028 9.04807 8.354 9.04807 8.354C8.84354 8.82058 8.77866 9.24521 8.8598 9.62509C8.77201 9.74577 8.69257 9.85879 8.62144 9.96421C8.401 9.67219 8.12691 9.12948 8.12691 9.12948C8.13647 9.28823 8.13212 9.4502 8.1279 9.60747C8.118 9.97574 8.1088 10.3183 8.28047 10.5336L8.27736 10.54C8.24332 10.6101 8.21104 10.6801 8.18051 10.7499C7.941 10.5108 7.54785 10.0848 7.54785 10.0848C7.57875 10.598 7.72026 11.003 7.97728 11.2926C7.92952 11.4459 7.89021 11.5983 7.85918 11.7498C7.65792 11.5416 7.46322 11.3353 7.46322 11.3353C7.49165 11.8076 7.57087 12.119 7.77703 12.3808C7.77303 12.4537 7.77098 12.5263 7.77084 12.5987C7.55935 12.3805 7.34473 12.1531 7.34473 12.1531C7.37456 12.6487 7.56751 12.9751 7.82182 13.2468C7.84714 13.4045 7.88179 13.5606 7.92556 13.7148L7.94857 13.7948C7.66119 13.6559 7.34853 13.499 7.34853 13.499C7.53596 13.9311 7.80929 14.17 8.12027 14.3371C8.18739 14.5325 8.25825 14.7214 8.33252 14.9032C7.99423 14.8113 7.48581 14.6592 7.48581 14.6592C7.78623 15.114 8.15498 15.294 8.55113 15.3975C8.63158 15.5656 8.71516 15.7262 8.80155 15.8787C8.48078 15.7887 8.10365 15.6759 8.10365 15.6759C8.3949 16.1168 8.75037 16.2994 9.13277 16.4045C9.38484 16.7628 9.6548 17.0571 9.93637 17.2775C9.62627 17.4183 9.23583 17.5868 9.23583 17.5868C9.67687 17.7179 10.0293 17.6677 10.351 17.5434C10.3633 17.5496 10.3756 17.5556 10.388 17.5615C10.5269 17.6281 10.6825 17.6908 10.8581 17.752C10.6037 17.8652 10.3615 17.9698 10.3615 17.9698C10.7923 18.0978 11.1386 18.0529 11.4542 17.9349L11.488 17.9441C11.6428 17.9863 11.8004 18.0267 12.008 18.0781C11.8707 18.0441 12.3775 18.1691 12.4804 18.1953C12.81 18.2791 12.9976 18.338 13.0877 18.3888C13.0961 18.3935 13.1022 18.3974 13.1061 18.3999C13.1101 18.4024 13.1117 18.4034 13.1108 18.4022L13.3629 18.2191C13.3337 18.1789 13.2931 18.1469 13.2406 18.1173C13.117 18.0477 12.9164 17.9847 12.5573 17.8933C12.4551 17.8673 11.9642 17.7462 12.0754 17.7738C11.8736 17.7238 11.7201 17.6844 11.5699 17.6435C11.5261 17.6315 11.4832 17.6196 11.4414 17.6078C11.4774 17.2762 11.4358 16.9326 11.2097 16.5496C11.2097 16.5496 11.1112 17.1484 11.0445 17.4863C10.8441 17.4195 10.6715 17.3519 10.5226 17.2805C10.4718 17.2562 10.4211 17.229 10.3707 17.199C10.3505 16.8615 10.251 16.5259 9.95789 16.1833C9.95789 16.1833 9.96225 16.5614 9.96062 16.8901C9.75689 16.7037 9.55893 16.4723 9.37029 16.2007L9.50117 16.27C9.51578 15.8485 9.45082 15.433 9.08614 15.0069C9.08614 15.0069 9.09087 15.4161 9.08865 15.7531C8.97085 15.5473 8.85792 15.325 8.75091 15.0877C8.85111 14.7596 8.8755 14.406 8.71481 13.9775C8.71481 13.9775 8.61912 14.2502 8.51891 14.5247C8.48949 14.4466 8.46069 14.3671 8.43252 14.2864C8.63686 13.9435 8.76803 13.5637 8.67061 13.0408C8.67061 13.0408 8.43829 13.4541 8.26121 13.7537C8.24908 13.7126 8.23711 13.6713 8.2253 13.6297C8.18809 13.4986 8.158 13.366 8.1352 13.2321C8.42615 12.9855 8.66135 12.6782 8.74483 12.1764C8.74483 12.1764 8.35582 12.5105 8.08452 12.7323C8.0808 12.6215 8.08197 12.5098 8.08814 12.3974C8.40332 12.2069 8.67485 11.9468 8.83845 11.4834C8.83845 11.4834 8.45082 11.7133 8.1505 11.8831C8.17205 11.7678 8.19879 11.6518 8.23081 11.5351L8.23134 11.5498C8.6037 11.3517 8.93102 11.0877 9.11775 10.5588C9.11775 10.5588 8.73061 10.7883 8.43037 10.9581C8.4694 10.8645 8.51181 10.7705 8.55764 10.6761C8.61161 10.565 8.68812 10.4325 8.78707 10.2788C9.1218 10.1738 9.43341 9.99135 9.69818 9.60531C9.69818 9.60531 9.42848 9.68092 9.15065 9.75523C9.31081 9.53706 9.49875 9.29288 9.71433 9.023L9.47087 8.82853C9.38326 8.93822 9.30008 9.0438 9.22131 9.1453Z" fill="#5AB92D"/>
<path fill-rule="evenodd" clip-rule="evenodd" d="M16.9357 9.14206C17.0171 8.78763 17.1082 8.354 17.1082 8.354C17.3121 8.81916 17.3772 9.24263 17.2972 9.62163C17.3853 9.74274 17.4651 9.85615 17.5365 9.96193C17.7567 9.66938 18.0293 9.12948 18.0293 9.12948C18.0198 9.28822 18.0241 9.45018 18.0284 9.60745V9.60745V9.60745V9.60745V9.60745V9.60745V9.60745V9.60746V9.60746V9.60746V9.60746V9.60746V9.60746V9.60746V9.60747V9.60747V9.60747V9.60747C18.0382 9.9743 18.0474 10.3156 17.8778 10.5311L17.8821 10.54C17.9158 10.6093 17.9478 10.6785 17.978 10.7476C18.2177 10.5081 18.6084 10.0848 18.6084 10.0848C18.5776 10.5964 18.4369 11.0004 18.1814 11.2899C18.2292 11.4432 18.2686 11.5956 18.2998 11.747C18.5001 11.5398 18.693 11.3353 18.693 11.3353C18.6647 11.8052 18.5862 12.1159 18.3823 12.3769C18.3863 12.45 18.3885 12.5228 18.3887 12.5954C18.5991 12.3782 18.8115 12.1531 18.8115 12.1531C18.7818 12.6461 18.5907 12.9717 18.3384 13.2426C18.313 13.4018 18.2781 13.5592 18.234 13.7148L18.2115 13.793C18.4978 13.6546 18.8077 13.499 18.8077 13.499C18.6211 13.9293 18.3493 14.168 18.04 14.335C17.9728 14.5308 17.9018 14.72 17.8274 14.9022C18.1657 14.8102 18.6705 14.6592 18.6705 14.6592C18.371 15.1126 18.0036 15.2928 17.6089 15.3965C17.5284 15.5646 17.4449 15.7251 17.3586 15.8776C17.6785 15.7878 18.0526 15.6759 18.0526 15.6759C17.7624 16.1153 17.4084 16.2981 17.0275 16.4034C16.7749 16.7627 16.5042 17.0577 16.2219 17.2784C16.5317 17.4191 16.9204 17.5868 16.9204 17.5868C16.4802 17.7176 16.1283 17.6678 15.8071 17.5441C15.7953 17.55 15.7834 17.5558 15.7715 17.5615C15.6321 17.6283 15.4759 17.6913 15.2996 17.7527C15.5535 17.8656 15.7948 17.9698 15.7948 17.9698C15.3646 18.0976 15.0187 18.053 14.7034 17.9354L14.6715 17.9441C14.5167 17.9863 14.3591 18.0267 14.1515 18.0781C14.2888 18.0441 13.782 18.1691 13.6791 18.1953C13.3495 18.2791 13.1619 18.338 13.0718 18.3888C13.0634 18.3935 13.0573 18.3974 13.0534 18.3999L13.0534 18.3999C13.0494 18.4024 13.0478 18.4034 13.0487 18.4022L12.7966 18.2191C12.8258 18.1789 12.8664 18.1469 12.9189 18.1173C13.0425 18.0477 13.2431 17.9847 13.6022 17.8933C13.7044 17.8673 14.1953 17.7462 14.0841 17.7738C14.2859 17.7238 14.4394 17.6844 14.5896 17.6435C14.6324 17.6318 14.6741 17.6202 14.715 17.6087C14.6787 17.2768 14.7203 16.9329 14.9466 16.5496C14.9466 16.5496 15.0452 17.1496 15.112 17.4874C15.3137 17.4202 15.4872 17.3522 15.6369 17.2805C15.6866 17.2567 15.7361 17.2302 15.7855 17.201C15.8054 16.8628 15.9046 16.5265 16.1984 16.1833C16.1984 16.1833 16.194 16.5637 16.1956 16.8931C16.4012 16.7056 16.6009 16.4722 16.7911 16.198L16.6551 16.27C16.6405 15.8485 16.7054 15.433 17.0701 15.0069C17.0701 15.0069 17.0653 15.4206 17.0676 15.7588C17.1859 15.5526 17.2993 15.3298 17.4067 15.092C17.3054 14.7627 17.2801 14.4079 17.4414 13.9775C17.4414 13.9775 17.5382 14.2531 17.639 14.5291C17.6685 14.4506 17.6975 14.3709 17.7258 14.2899C17.5203 13.946 17.3879 13.5655 17.4857 13.0408C17.4857 13.0408 17.7199 13.4575 17.8972 13.7573C17.9097 13.7151 17.9221 13.6725 17.9342 13.6297C17.9712 13.4994 18.0012 13.3676 18.0239 13.2345C17.7316 12.9875 17.4952 12.6798 17.4114 12.1764C17.4114 12.1764 17.8035 12.5131 18.0749 12.7349C18.0787 12.6239 18.0776 12.5121 18.0715 12.3995C17.7549 12.2087 17.482 11.9485 17.3178 11.4834C17.3178 11.4834 17.7086 11.7151 18.0094 11.8852C17.9871 11.7658 17.9593 11.6456 17.9258 11.5247L17.9249 11.5498C17.5526 11.3517 17.2252 11.0877 17.0385 10.5588C17.0385 10.5588 17.4293 10.7905 17.7301 10.9605C17.6908 10.8661 17.6481 10.7713 17.6019 10.6761C17.548 10.5653 17.4718 10.4332 17.3733 10.2801C17.037 10.1753 16.7239 9.99292 16.4581 9.60531C16.4581 9.60531 16.7304 9.68166 17.0097 9.75631C16.8493 9.53787 16.6611 9.29333 16.4452 9.023L16.6886 8.82853C16.7753 8.93705 16.8577 9.04156 16.9357 9.14206Z" fill="#5AB92D"/>
<path fill-rule="evenodd" clip-rule="evenodd" d="M10.2064 10.0997L11.5141 13.5655H10.5528C10.5528 13.5655 10.2064 14.6592 10.8603 14.6592C11.5141 14.6592 14.8838 14.6592 14.8838 14.6592C14.8838 14.6592 15.3218 14.385 15.1028 13.5655C14.8838 12.746 13.777 10.4837 13.777 10.4837C13.777 10.4837 14.25 10.1083 14.25 9.82995C14.25 9.55165 13.777 9.521 13.777 9.521H10.7919C10.4109 9.58275 10.2064 10.0997 10.2064 10.0997Z" fill="#EFE298"/>
<path d="M11.3151 11.3752L13.3463 11.249Z" fill="#C5A042"/>
<path d="M11.3151 11.3752L13.3463 11.249" stroke="#B47D00" stroke-width="0.5"/>
<path d="M11.8145 12.4806L13.8456 12.3545Z" fill="#C5A042"/>
<path d="M11.8145 12.4806L13.8456 12.3545" stroke="#B47D00" stroke-width="0.5"/>
<path d="M12.1953 13.5866L14.2265 13.4604Z" fill="#C5A042"/>
<path d="M12.1953 13.5866L14.2265 13.4604" stroke="#B47D00" stroke-width="0.5"/>
<path fill-rule="evenodd" clip-rule="evenodd" d="M12.8772 8.21973C12.8772 8.21973 12.5644 8.28327 12.5644 8.48088C12.5644 8.67849 12.4798 8.84699 12.4798 8.84699C12.4798 8.84699 12.5753 9.74828 13.2885 9.95743C14.0017 10.1666 14.4198 10.2168 14.72 10.6363C15.0203 11.0559 15.9413 12.2403 15.5719 13.2618C15.2026 14.2833 14.9125 14.8046 14.9125 14.8046C14.9125 14.8046 16.2598 13.5356 16.2598 12.9339C16.2598 12.3322 16.0607 11.7493 15.4639 10.9853C14.867 10.2214 14.5893 9.77477 14.1447 9.43056C13.7 9.08635 13.0629 8.76873 13.0629 8.76873C13.0629 8.76873 13.2896 8.52625 13.1763 8.41224C13.0629 8.29823 12.8772 8.21973 12.8772 8.21973Z" fill="#5AB92D"/>
</g>
</g>
</svg>
