<svg width="26" height="26" viewBox="0 0 26 26" fill="none" xmlns="http://www.w3.org/2000/svg">
<mask id="mask0_1_13278" style="mask-type:alpha" maskUnits="userSpaceOnUse" x="0" y="0" width="26" height="26">
<circle cx="13" cy="13" r="13" fill="#634848"/>
</mask>
<g mask="url(#mask0_1_13278)">
<g clip-path="url(#clip0_1_13278)">
<path fill-rule="evenodd" clip-rule="evenodd" d="M0 0H26V26H0V0Z" fill="#BE0027"/>
<path fill-rule="evenodd" clip-rule="evenodd" d="M1.04102 1.04102H24.9082V24.959H1.04102V1.04102Z" fill="#3B5AA3"/>
<path fill-rule="evenodd" clip-rule="evenodd" d="M12.7918 20.1143C12.8832 20.1651 13.0305 20.1651 13.1117 20.1194C18.3574 17.3264 18.3625 9.66858 13.1168 6.91624C13.0642 6.89147 13.0067 6.87905 12.9486 6.87993C12.8905 6.88081 12.8334 6.89497 12.7816 6.92132C7.66797 9.71937 7.65273 17.2909 12.7918 20.1143Z" fill="#CBE0E5"/>
<path fill-rule="evenodd" clip-rule="evenodd" d="M12.7918 20.2568C12.873 20.3229 13.0355 20.3127 13.1117 20.2568C16.9762 17.3623 17.0016 15.5596 16.8289 15.5596H9.17617C9.05937 15.5596 9.24219 17.3928 12.7918 20.2518V20.2568Z" fill="#ADD2D9"/>
<path fill-rule="evenodd" clip-rule="evenodd" d="M9.78047 16.9914C10.1303 16.8819 10.5082 16.9054 10.8418 17.0574C11.1312 17.2098 11.2988 17.2098 11.6086 17.2098C11.9387 17.2148 12.1926 17.4586 12.548 17.4637C13.198 17.484 13.4773 17.8039 12.9695 17.809C12.7309 17.809 12.218 17.6465 11.9691 17.682C11.4512 17.7328 11.1211 17.8496 10.6336 18.393L11.1973 18.7789C11.6848 18.5758 11.766 18.3574 12.0352 18.3473C12.3398 18.3371 12.4414 18.1441 12.7969 18.1441C13.198 18.2203 13.7363 18.0934 14.0562 18.0273C14.6199 17.8953 14.3508 17.5043 14.0105 17.357C13.7363 17.2402 13.2184 17.357 12.8934 17.2402C12.6547 17.1437 12.8527 16.9914 12.9848 16.9609C13.1168 16.9355 13.259 16.9812 13.4215 17.0066C13.716 17.032 14.0816 17.0066 14.3355 16.9609C14.8687 16.8797 14.8434 16.7223 15.1023 16.7223C15.2671 16.7174 15.4265 16.6625 15.5594 16.5648C15.7117 16.4633 15.8641 16.2602 16.0469 16.2652L16.5344 16.2855L15.8438 17.8242L13.9141 19.7945L12.9086 20.1754L10.7148 18.7383L9.59766 17.0371L9.77539 16.9914H9.78047Z" fill="#FDF9A1"/>
<path fill-rule="evenodd" clip-rule="evenodd" d="M12.3094 15.4934L16.7273 15.473L16.8086 15.082L16.5242 15.0516C16.3617 15.0414 16.0926 15.2191 15.9098 15.2191C15.7777 15.2191 15.6305 14.9855 15.5035 14.9906C15.2801 14.9906 15.2598 15.1938 15.0465 15.1938C14.8738 15.1938 14.8027 15.0617 14.5793 15.0719C14.3457 15.0871 14.366 15.2141 14.0715 15.209C13.6805 15.1988 13.5281 14.8586 13.2184 14.8535C12.6953 14.8535 12.6801 15.3512 12.3094 15.4934V15.4934Z" fill="#179A3B"/>
<path fill-rule="evenodd" clip-rule="evenodd" d="M12.3094 15.5896L16.8594 15.5643V15.4424L12.2078 15.4678L12.3094 15.5896Z" fill="#FDF9A1"/>
<path fill-rule="evenodd" clip-rule="evenodd" d="M14.1781 16.961C14.2492 17.225 14.3254 17.3164 14.6047 17.3875C14.884 17.4535 15.3105 17.1844 15.0465 16.9203C14.7926 16.6766 14.5285 16.6156 14.3051 16.3922C13.8277 15.925 13.1117 14.7723 13.1117 13.9649C13.1117 13.2641 13.0457 11.8371 13.0457 10.4864C13.0457 10.3949 12.7816 10.7301 12.7816 10.8164C12.7918 12.0149 12.7918 12.9137 12.8375 14.1172C12.9137 15.0008 13.3352 15.5899 13.7008 16.1281C13.8684 16.3821 14.107 16.6614 14.1781 16.9559V16.961Z" fill="#A79270"/>
<path d="M12.4759 14.0396C12.4509 13.9631 12.4179 13.8946 12.377 13.834C12.3368 13.7726 12.2887 13.7203 12.2327 13.6771C12.1774 13.634 12.1145 13.601 12.044 13.5783C11.9736 13.5556 11.8963 13.5442 11.8122 13.5442C11.6743 13.5442 11.549 13.5798 11.4361 13.651C11.3232 13.7222 11.2334 13.8271 11.1668 13.9658C11.1001 14.1044 11.0668 14.2745 11.0668 14.476C11.0668 14.6775 11.1005 14.8476 11.1679 14.9862C11.2353 15.1249 11.3266 15.2298 11.4418 15.301C11.5569 15.3722 11.6865 15.4078 11.8304 15.4078C11.9637 15.4078 12.0812 15.3794 12.1827 15.3226C12.2849 15.265 12.3645 15.184 12.4213 15.0794C12.4789 14.9741 12.5077 14.8503 12.5077 14.7078L12.594 14.726H11.894V14.476H12.7804V14.726C12.7804 14.9177 12.7395 15.0843 12.6577 15.226C12.5766 15.3677 12.4645 15.4775 12.3213 15.5556C12.1789 15.6328 12.0152 15.6715 11.8304 15.6715C11.6243 15.6715 11.4433 15.623 11.2872 15.526C11.1319 15.429 11.0107 15.2912 10.9236 15.1124C10.8372 14.9336 10.794 14.7215 10.794 14.476C10.794 14.2919 10.8187 14.1264 10.8679 13.9794C10.9179 13.8317 10.9884 13.7059 11.0793 13.6021C11.1702 13.4984 11.2777 13.4188 11.402 13.3635C11.5262 13.3082 11.663 13.2806 11.8122 13.2806C11.9349 13.2806 12.0493 13.2991 12.1554 13.3362C12.2622 13.3726 12.3573 13.4245 12.4406 13.4919C12.5247 13.5586 12.5948 13.6385 12.6509 13.7317C12.7069 13.8241 12.7456 13.9268 12.7668 14.0396H12.4759Z" fill="#BD0728"/>
<path d="M12.4759 14.0396L12.3808 14.0707L12.4033 14.1396H12.4759V14.0396ZM12.377 13.834L12.2933 13.8887L12.2941 13.8899L12.377 13.834ZM12.2327 13.6771L12.1711 13.756L12.1716 13.7564L12.2327 13.6771ZM12.044 13.5783L12.0747 13.4831L12.0747 13.4831L12.044 13.5783ZM11.1668 13.9658L11.2569 14.0091L11.2569 14.0091L11.1668 13.9658ZM11.1679 14.9862L11.078 15.03L11.078 15.03L11.1679 14.9862ZM11.4418 15.301L11.3892 15.3861L11.4418 15.301ZM12.1827 15.3226L12.2315 15.4099L12.2317 15.4097L12.1827 15.3226ZM12.4213 15.0794L12.3336 15.0314L12.3334 15.0317L12.4213 15.0794ZM12.5077 14.7078L12.5283 14.61L12.4077 14.5846V14.7078H12.5077ZM12.594 14.726V14.826L12.6146 14.6282L12.594 14.726ZM11.894 14.726H11.794V14.826H11.894V14.726ZM11.894 14.476V14.376H11.794V14.476H11.894ZM12.7804 14.476H12.8804V14.376H12.7804V14.476ZM12.6577 15.226L12.5711 15.176L12.5709 15.1763L12.6577 15.226ZM12.3213 15.5556L12.369 15.6435L12.3692 15.6434L12.3213 15.5556ZM11.2872 15.526L11.2343 15.6108L11.2344 15.611L11.2872 15.526ZM10.9236 15.1124L10.8335 15.1559L10.8337 15.1562L10.9236 15.1124ZM10.8679 13.9794L10.7732 13.9474L10.7731 13.9477L10.8679 13.9794ZM11.0793 13.6021L11.1545 13.668L11.1545 13.668L11.0793 13.6021ZM11.402 13.3635L11.3613 13.2722L11.402 13.3635ZM12.1554 13.3362L12.1224 13.4306L12.1232 13.4309L12.1554 13.3362ZM12.4406 13.4919L12.3777 13.5697L12.3785 13.5703L12.4406 13.4919ZM12.6509 13.7317L12.5652 13.7832L12.5654 13.7836L12.6509 13.7317ZM12.7668 14.0396V14.1396H12.8873L12.865 14.0212L12.7668 14.0396ZM12.5709 14.0086C12.5433 13.9241 12.5065 13.847 12.4599 13.778L12.2941 13.8899C12.3293 13.9421 12.3584 14.0021 12.3808 14.0707L12.5709 14.0086ZM12.4607 13.7792C12.4146 13.7088 12.3589 13.6482 12.2937 13.5979L12.1716 13.7564C12.2185 13.7925 12.2591 13.8364 12.2933 13.8887L12.4607 13.7792ZM12.2942 13.5983C12.2292 13.5475 12.1557 13.5092 12.0747 13.4831L12.0133 13.6735C12.0733 13.6928 12.1256 13.7204 12.1711 13.756L12.2942 13.5983ZM12.0747 13.4831C11.9931 13.4568 11.9053 13.4442 11.8122 13.4442V13.6442C11.8873 13.6442 11.954 13.6543 12.0133 13.6735L12.0747 13.4831ZM11.8122 13.4442C11.6561 13.4442 11.5121 13.4848 11.3827 13.5664L11.4894 13.7356C11.5858 13.6748 11.6926 13.6442 11.8122 13.6442V13.4442ZM11.3827 13.5664C11.2517 13.6491 11.1502 13.7695 11.0766 13.9224L11.2569 14.0091C11.3167 13.8848 11.3947 13.7953 11.4894 13.7356L11.3827 13.5664ZM11.0766 13.9224C11.0018 14.0781 10.9668 14.264 10.9668 14.476H11.1668C11.1668 14.285 11.1984 14.1307 11.2569 14.0091L11.0766 13.9224ZM10.9668 14.476C10.9668 14.6882 11.0022 14.8742 11.078 15.03L11.2578 14.9425C11.1987 14.821 11.1668 14.6668 11.1668 14.476H10.9668ZM11.078 15.03C11.1525 15.1832 11.2558 15.3036 11.3892 15.3861L11.4944 15.216C11.3975 15.156 11.3181 15.0665 11.2578 14.9425L11.078 15.03ZM11.3892 15.3861C11.5211 15.4677 11.6691 15.5078 11.8304 15.5078V15.3078C11.7038 15.3078 11.5927 15.2768 11.4944 15.216L11.3892 15.3861ZM11.8304 15.5078C11.9783 15.5078 12.113 15.4762 12.2315 15.4099L12.1338 15.2353C12.0493 15.2827 11.9492 15.3078 11.8304 15.3078V15.5078ZM12.2317 15.4097C12.3506 15.3428 12.4435 15.248 12.5092 15.1272L12.3334 15.0317C12.2855 15.1199 12.2193 15.1872 12.1336 15.2355L12.2317 15.4097ZM12.509 15.1274C12.576 15.0049 12.6077 14.8639 12.6077 14.7078H12.4077C12.4077 14.8366 12.3817 14.9434 12.3336 15.0314L12.509 15.1274ZM12.4871 14.8057L12.5734 14.8239L12.6146 14.6282L12.5283 14.61L12.4871 14.8057ZM12.594 14.626H11.894V14.826H12.594V14.626ZM11.994 14.726V14.476H11.794V14.726H11.994ZM11.894 14.576H12.7804V14.376H11.894V14.576ZM12.6804 14.476V14.726H12.8804V14.476H12.6804ZM12.6804 14.726C12.6804 14.9032 12.6427 15.052 12.5711 15.176L12.7443 15.276C12.8363 15.1167 12.8804 14.9322 12.8804 14.726H12.6804ZM12.5709 15.1763C12.499 15.302 12.4004 15.3986 12.2735 15.4678L12.3692 15.6434C12.5286 15.5565 12.6542 15.4334 12.7445 15.2757L12.5709 15.1763ZM12.2736 15.4677C12.1478 15.5359 12.001 15.5715 11.8304 15.5715V15.7715C12.0295 15.7715 12.21 15.7297 12.369 15.6435L12.2736 15.4677ZM11.8304 15.5715C11.6407 15.5715 11.4783 15.527 11.34 15.4411L11.2344 15.611C11.4082 15.7189 11.608 15.7715 11.8304 15.7715V15.5715ZM11.3402 15.4412C11.2022 15.355 11.0931 15.232 11.0135 15.0686L10.8337 15.1562C10.9283 15.3503 11.0617 15.5031 11.2343 15.6108L11.3402 15.4412ZM11.0136 15.0689C10.9352 14.9065 10.894 14.7099 10.894 14.476H10.694C10.694 14.733 10.7393 14.9607 10.8335 15.1559L11.0136 15.0689ZM10.894 14.476C10.894 14.3008 10.9175 14.1462 10.9627 14.0112L10.7731 13.9477C10.7198 14.1066 10.694 14.2831 10.694 14.476H10.894ZM10.9626 14.0115C11.009 13.8746 11.0733 13.7607 11.1545 13.668L11.004 13.5363C10.9034 13.6511 10.8268 13.7888 10.7732 13.9474L10.9626 14.0115ZM11.1545 13.668C11.236 13.575 11.3318 13.5042 11.4427 13.4549L11.3613 13.2722C11.2237 13.3334 11.1043 13.4217 11.004 13.5363L11.1545 13.668ZM11.4427 13.4549C11.5529 13.4058 11.6756 13.3806 11.8122 13.3806V13.1806C11.6503 13.1806 11.4996 13.2106 11.3613 13.2722L11.4427 13.4549ZM11.8122 13.3806C11.9247 13.3806 12.0279 13.3975 12.1224 13.4306L12.1884 13.2419C12.0708 13.2007 11.9452 13.1806 11.8122 13.1806V13.3806ZM12.1232 13.4309C12.2194 13.4637 12.304 13.51 12.3777 13.5697L12.5035 13.4142C12.4106 13.339 12.305 13.2815 12.1876 13.2416L12.1232 13.4309ZM12.3785 13.5703C12.4531 13.6294 12.5152 13.7002 12.5652 13.7832L12.7365 13.6801C12.6744 13.5768 12.5964 13.4878 12.5028 13.4136L12.3785 13.5703ZM12.5654 13.7836C12.6148 13.8651 12.6494 13.9563 12.6685 14.0581L12.865 14.0212C12.8418 13.8972 12.799 13.7832 12.7364 13.6798L12.5654 13.7836ZM12.7668 13.9396H12.4759V14.1396H12.7668V13.9396Z" fill="white"/>
<path d="M13.5802 13.3173H13.862V14.8582C13.862 15.0173 13.8245 15.1593 13.7495 15.2843C13.6753 15.4085 13.5703 15.5067 13.4347 15.5786C13.2991 15.6498 13.14 15.6854 12.9575 15.6854C12.7749 15.6854 12.6158 15.6498 12.4802 15.5786C12.3446 15.5067 12.2393 15.4085 12.1643 15.2843C12.09 15.1593 12.0529 15.0173 12.0529 14.8582V13.3173H12.3347V14.8354C12.3347 14.9491 12.3597 15.0502 12.4097 15.1388C12.4597 15.2267 12.5309 15.296 12.6234 15.3468C12.7165 15.3968 12.8279 15.4218 12.9575 15.4218C13.087 15.4218 13.1984 15.3968 13.2915 15.3468C13.3847 15.296 13.4559 15.2267 13.5052 15.1388C13.5552 15.0502 13.5802 14.9491 13.5802 14.8354V13.3173Z" fill="#BD0728"/>
<path d="M13.5802 13.3173V13.2173H13.4802V13.3173H13.5802ZM13.862 13.3173H13.962V13.2173H13.862V13.3173ZM13.7495 15.2843L13.6638 15.2329L13.6637 15.233L13.7495 15.2843ZM13.4347 15.5786L13.4812 15.6672L13.4816 15.667L13.4347 15.5786ZM12.4802 15.5786L12.4333 15.667L12.4337 15.6672L12.4802 15.5786ZM12.1643 15.2843L12.0783 15.3354L12.0787 15.336L12.1643 15.2843ZM12.0529 13.3173V13.2173H11.9529V13.3173H12.0529ZM12.3347 13.3173H12.4347V13.2173H12.3347V13.3173ZM12.4097 15.1388L12.3226 15.188L12.3228 15.1883L12.4097 15.1388ZM12.6234 15.3468L12.5752 15.4345L12.5761 15.4349L12.6234 15.3468ZM13.2915 15.3468L13.3388 15.4349L13.3394 15.4346L13.2915 15.3468ZM13.5052 15.1388L13.4181 15.0897L13.4179 15.09L13.5052 15.1388ZM13.5802 13.4173H13.862V13.2173H13.5802V13.4173ZM13.762 13.3173V14.8582H13.962V13.3173H13.762ZM13.762 14.8582C13.762 15.0008 13.7286 15.1248 13.6638 15.2329L13.8353 15.3358C13.9204 15.1938 13.962 15.0337 13.962 14.8582H13.762ZM13.6637 15.233C13.5994 15.3406 13.5084 15.4263 13.3879 15.4903L13.4816 15.667C13.6323 15.587 13.7512 15.4765 13.8353 15.3356L13.6637 15.233ZM13.3882 15.4901C13.2695 15.5525 13.1269 15.5854 12.9575 15.5854V15.7854C13.1531 15.7854 13.3288 15.7472 13.4812 15.6672L13.3882 15.4901ZM12.9575 15.5854C12.788 15.5854 12.6454 15.5525 12.5267 15.4901L12.4337 15.6672C12.5862 15.7472 12.7618 15.7854 12.9575 15.7854V15.5854ZM12.5271 15.4903C12.4065 15.4263 12.315 15.3405 12.2499 15.2326L12.0787 15.336C12.1636 15.4766 12.2827 15.587 12.4333 15.667L12.5271 15.4903ZM12.2503 15.2332C12.186 15.1251 12.1529 15.001 12.1529 14.8582H11.9529C11.9529 15.0335 11.994 15.1935 12.0783 15.3354L12.2503 15.2332ZM12.1529 14.8582V13.3173H11.9529V14.8582H12.1529ZM12.0529 13.4173H12.3347V13.2173H12.0529V13.4173ZM12.2347 13.3173V14.8354H12.4347V13.3173H12.2347ZM12.2347 14.8354C12.2347 14.9642 12.2632 15.0827 12.3226 15.188L12.4968 15.0897C12.4562 15.0178 12.4347 14.9339 12.4347 14.8354H12.2347ZM12.3228 15.1883C12.3824 15.293 12.4673 15.3752 12.5752 15.4345L12.6715 15.2592C12.5946 15.2169 12.5371 15.1605 12.4966 15.0894L12.3228 15.1883ZM12.5761 15.4349C12.6867 15.4943 12.8151 15.5218 12.9575 15.5218V15.3218C12.8407 15.3218 12.7464 15.2993 12.6706 15.2587L12.5761 15.4349ZM12.9575 15.5218C13.0998 15.5218 13.2282 15.4943 13.3388 15.4349L13.2443 15.2587C13.1685 15.2993 13.0742 15.3218 12.9575 15.3218V15.5218ZM13.3394 15.4346C13.4482 15.3754 13.5335 15.2929 13.5924 15.1877L13.4179 15.09C13.3784 15.1605 13.3213 15.2167 13.2437 15.259L13.3394 15.4346ZM13.5923 15.188C13.6517 15.0827 13.6802 14.9642 13.6802 14.8354H13.4802C13.4802 14.9339 13.4587 15.0178 13.4181 15.0897L13.5923 15.188ZM13.6802 14.8354V13.3173H13.4802V14.8354H13.6802Z" fill="white"/>
<path d="M13.5652 15.6445H13.2697L14.1243 13.3173H14.4152L15.2697 15.6445H14.9743L14.2788 13.6854H14.2606L13.5652 15.6445ZM13.6743 14.7354H14.8652V14.9854H13.6743V14.7354Z" fill="#BD0728"/>
<path d="M13.5652 15.6445V15.7445H13.6358L13.6594 15.678L13.5652 15.6445ZM13.2697 15.6445L13.1758 15.6101L13.1265 15.7445H13.2697V15.6445ZM14.1243 13.3173V13.2173H14.0544L14.0304 13.2828L14.1243 13.3173ZM14.4152 13.3173L14.509 13.2828L14.485 13.2173H14.4152V13.3173ZM15.2697 15.6445V15.7445H15.413L15.3636 15.6101L15.2697 15.6445ZM14.9743 15.6445L14.88 15.678L14.9036 15.7445H14.9743V15.6445ZM14.2788 13.6854L14.373 13.652L14.3494 13.5854H14.2788V13.6854ZM14.2606 13.6854V13.5854H14.19L14.1664 13.652L14.2606 13.6854ZM13.6743 14.7354V14.6354H13.5743V14.7354H13.6743ZM14.8652 14.7354H14.9652V14.6354H14.8652V14.7354ZM14.8652 14.9854V15.0854H14.9652V14.9854H14.8652ZM13.6743 14.9854H13.5743V15.0854H13.6743V14.9854ZM13.5652 15.5445H13.2697V15.7445H13.5652V15.5445ZM13.3636 15.679L14.2181 13.3517L14.0304 13.2828L13.1758 15.6101L13.3636 15.679ZM14.1243 13.4173H14.4152V13.2173H14.1243V13.4173ZM14.3213 13.3517L15.1758 15.679L15.3636 15.6101L14.509 13.2828L14.3213 13.3517ZM15.2697 15.5445H14.9743V15.7445H15.2697V15.5445ZM15.0685 15.6111L14.373 13.652L14.1846 13.7189L14.88 15.678L15.0685 15.6111ZM14.2788 13.5854H14.2606V13.7854H14.2788V13.5854ZM14.1664 13.652L13.4709 15.6111L13.6594 15.678L14.3549 13.7189L14.1664 13.652ZM13.6743 14.8354H14.8652V14.6354H13.6743V14.8354ZM14.7652 14.7354V14.9854H14.9652V14.7354H14.7652ZM14.8652 14.8854H13.6743V15.0854H14.8652V14.8854ZM13.7743 14.9854V14.7354H13.5743V14.9854H13.7743Z" fill="white"/>
<path d="M14.6631 13.3124H14.9994L15.7903 15.2442H15.8176L16.6085 13.3124H16.9449V15.6396H16.6812V13.8715H16.6585L15.9312 15.6396H15.6767L14.9494 13.8715H14.9267V15.6396H14.6631V13.3124Z" fill="#BD0728"/>
<path d="M14.6631 13.3124V13.2124H14.5631V13.3124H14.6631ZM14.9994 13.3124L15.092 13.2745L15.0665 13.2124H14.9994V13.3124ZM15.7903 15.2442L15.6978 15.2821L15.7232 15.3442H15.7903V15.2442ZM15.8176 15.2442V15.3442H15.8847L15.9102 15.2821L15.8176 15.2442ZM16.6085 13.3124V13.2124H16.5414L16.516 13.2745L16.6085 13.3124ZM16.9449 13.3124H17.0449V13.2124H16.9449V13.3124ZM16.9449 15.6396V15.7396H17.0449V15.6396H16.9449ZM16.6812 15.6396H16.5812V15.7396H16.6812V15.6396ZM16.6812 13.8715H16.7812V13.7715H16.6812V13.8715ZM16.6585 13.8715V13.7715H16.5915L16.566 13.8334L16.6585 13.8715ZM15.9312 15.6396V15.7396H15.9982L16.0237 15.6777L15.9312 15.6396ZM15.6767 15.6396L15.5842 15.6777L15.6097 15.7396H15.6767V15.6396ZM14.9494 13.8715L15.0419 13.8334L15.0164 13.7715H14.9494V13.8715ZM14.9267 13.8715V13.7715H14.8267V13.8715H14.9267ZM14.9267 15.6396V15.7396H15.0267V15.6396H14.9267ZM14.6631 15.6396H14.5631V15.7396H14.6631V15.6396ZM14.6631 13.4124H14.9994V13.2124H14.6631V13.4124ZM14.9069 13.3503L15.6978 15.2821L15.8829 15.2063L15.092 13.2745L14.9069 13.3503ZM15.7903 15.3442H15.8176V15.1442H15.7903V15.3442ZM15.9102 15.2821L16.7011 13.3503L16.516 13.2745L15.7251 15.2063L15.9102 15.2821ZM16.6085 13.4124H16.9449V13.2124H16.6085V13.4124ZM16.8449 13.3124V15.6396H17.0449V13.3124H16.8449ZM16.9449 15.5396H16.6812V15.7396H16.9449V15.5396ZM16.7812 15.6396V13.8715H16.5812V15.6396H16.7812ZM16.6812 13.7715H16.6585V13.9715H16.6812V13.7715ZM16.566 13.8334L15.8388 15.6016L16.0237 15.6777L16.751 13.9095L16.566 13.8334ZM15.9312 15.5396H15.6767V15.7396H15.9312V15.5396ZM15.7692 15.6016L15.0419 13.8334L14.8569 13.9095L15.5842 15.6777L15.7692 15.6016ZM14.9494 13.7715H14.9267V13.9715H14.9494V13.7715ZM14.8267 13.8715V15.6396H15.0267V13.8715H14.8267ZM14.9267 15.5396H14.6631V15.7396H14.9267V15.5396ZM14.7631 15.6396V13.3124H14.5631V15.6396H14.7631Z" fill="white"/>
<path fill-rule="evenodd" clip-rule="evenodd" d="M10.7605 10.5271C10.6996 10.6388 10.8977 10.4966 10.9434 10.4763C11.1973 10.39 11.2988 10.0701 11.7355 10.258C12.0809 10.4103 12.548 10.324 12.3043 10.4712C11.9996 10.6541 11.4055 10.8521 11.3902 11.7408C11.441 11.8271 11.4512 11.8119 11.4918 11.7205C11.5781 11.5173 12.0148 10.9486 12.2281 10.9994C12.3145 11.0197 12.5633 10.7455 12.5734 10.8216C12.5938 11.0451 12.2281 11.492 12.2332 12.0912C12.2332 12.2334 12.4059 12.2791 12.4871 12.1826C12.5684 12.0962 12.6141 12.0048 12.7613 11.8931C13.0152 11.6849 12.9441 10.8013 12.9746 10.842C13.1523 11.0755 13.1777 11.7306 13.452 11.9998C13.6703 12.2232 13.8531 12.1166 13.8074 11.8068C13.7059 11.1822 13.4113 11.3599 13.2742 10.715C13.2438 10.588 13.2387 10.4763 13.4012 10.5271C13.6043 10.588 13.7262 10.6795 13.8785 10.913C14.0309 11.1314 14.3102 11.3396 14.4777 11.4716C14.7621 11.69 14.8637 11.497 14.7266 11.2177C14.5522 10.8952 14.2673 10.6464 13.9242 10.517C13.6906 10.4357 13.6043 10.4306 13.3961 10.39C13.3453 10.3798 13.2793 10.258 13.3809 10.197C13.6026 10.0372 13.8611 9.9359 14.1324 9.9025C14.3863 9.89742 14.5895 10.1005 14.7672 10.1564C15.1277 10.2478 15.1227 10.0193 14.9703 9.85172C14.8383 9.70953 14.5641 9.47086 14.3102 9.49625C13.7922 9.56227 13.8227 9.54703 13.5078 9.76031C13.391 9.82633 13.2641 9.9025 13.3098 9.82125C13.4266 9.61305 13.3148 9.64859 13.4977 9.43531C13.6348 9.28297 13.7363 9.16617 13.8785 9.13062C14.0105 9.09508 14.1832 8.95797 14.234 8.88687C14.366 8.70914 14.2543 8.60758 14.0563 8.66852C13.8836 8.7193 13.7871 8.83102 13.6703 8.86148C13.391 8.94781 13.1625 9.58766 13.132 9.67398C13.0863 9.7857 13.0406 9.72984 13.0457 9.63844C13.0863 9.19156 13.127 8.43492 12.9695 8.12516C12.7309 7.66812 12.7512 7.88141 12.6598 8.09977C12.5468 8.4254 12.5468 8.7796 12.6598 9.10523C12.6953 9.27281 12.8324 9.4607 12.8629 9.59781C12.8781 9.69937 12.7969 9.56227 12.7563 9.50133C12.6039 9.27281 12.4922 9.11539 12.2484 8.99352C12.004 8.89379 11.7358 8.86733 11.4766 8.91734C11.4105 8.93766 11.5527 9.03922 11.6137 9.08492C11.7762 9.21695 12.0859 9.25758 12.2941 9.38961C12.477 9.49117 12.6141 9.56734 12.6699 9.71969C12.6953 9.83141 12.7309 9.99898 12.6598 9.99391C12.4617 9.98375 12.157 9.81617 11.5324 9.88219C11.2125 9.92789 10.9383 10.2021 10.7605 10.5271V10.5271Z" fill="#239E46"/>
<path fill-rule="evenodd" clip-rule="evenodd" d="M12.1215 16.2397H12.3043V16.5444H12.1215V16.2397Z" fill="black"/>
<path fill-rule="evenodd" clip-rule="evenodd" d="M11.2227 14.2287C11.9387 15.224 13.0914 15.8029 13.1168 16.26L10.8672 16.2498C11.3801 15.6303 11.6949 15.2088 11.2176 14.2236L11.2227 14.2287Z" fill="#FDF9FF"/>
<path fill-rule="evenodd" clip-rule="evenodd" d="M10.5676 16.2805C11.5477 16.4988 12.7105 16.6156 13.457 16.25C13.457 16.4684 13.2133 16.7781 13.0102 16.7781H11.1363C11.3547 16.7477 11.4766 16.6816 11.832 16.6613L10.8367 16.6766C10.7301 16.6766 10.532 16.3871 10.5676 16.2805V16.2805Z" fill="#A68861"/>
<path fill-rule="evenodd" clip-rule="evenodd" d="M12.7816 20.6171C12.8357 20.6425 12.8946 20.6556 12.9543 20.6556C13.014 20.6556 13.0729 20.6425 13.127 20.6171C18.7687 17.6159 18.7738 9.3792 13.1371 6.41865C13.0811 6.3909 13.0194 6.37646 12.9568 6.37646C12.8943 6.37646 12.8326 6.3909 12.7766 6.41865C7.27695 9.42998 7.26172 17.5753 12.7816 20.612V20.6171ZM12.8121 19.9366C12.859 19.9584 12.9102 19.9697 12.9619 19.9697C13.0137 19.9697 13.0648 19.9584 13.1117 19.9366C17.8344 17.1589 17.8902 9.81592 13.1168 7.18545C13.0254 7.11943 12.8934 7.13975 12.802 7.18545C8.28242 9.86162 8.02851 16.905 12.8121 19.9315V19.9366Z" fill="#BE0027"/>
<path d="M12.4759 14.0396C12.4509 13.9631 12.4179 13.8946 12.377 13.834C12.3368 13.7726 12.2887 13.7203 12.2327 13.6771C12.1774 13.634 12.1145 13.601 12.044 13.5783C11.9736 13.5556 11.8963 13.5442 11.8122 13.5442C11.6743 13.5442 11.549 13.5798 11.4361 13.651C11.3232 13.7222 11.2334 13.8271 11.1668 13.9658C11.1001 14.1044 11.0668 14.2745 11.0668 14.476C11.0668 14.6775 11.1005 14.8476 11.1679 14.9862C11.2353 15.1249 11.3266 15.2298 11.4418 15.301C11.5569 15.3722 11.6865 15.4078 11.8304 15.4078C11.9637 15.4078 12.0812 15.3794 12.1827 15.3226C12.2849 15.265 12.3645 15.184 12.4213 15.0794C12.4789 14.9741 12.5077 14.8503 12.5077 14.7078L12.594 14.726H11.894V14.476H12.7804V14.726C12.7804 14.9177 12.7395 15.0843 12.6577 15.226C12.5766 15.3677 12.4645 15.4775 12.3213 15.5556C12.1789 15.6328 12.0152 15.6715 11.8304 15.6715C11.6243 15.6715 11.4433 15.623 11.2872 15.526C11.1319 15.429 11.0107 15.2912 10.9236 15.1124C10.8372 14.9336 10.794 14.7215 10.794 14.476C10.794 14.2919 10.8187 14.1264 10.8679 13.9794C10.9179 13.8317 10.9884 13.7059 11.0793 13.6021C11.1702 13.4984 11.2777 13.4188 11.402 13.3635C11.5262 13.3082 11.663 13.2806 11.8122 13.2806C11.9349 13.2806 12.0493 13.2991 12.1554 13.3362C12.2622 13.3726 12.3573 13.4245 12.4406 13.4919C12.5247 13.5586 12.5948 13.6385 12.6509 13.7317C12.7069 13.8241 12.7456 13.9268 12.7668 14.0396H12.4759Z" fill="#BD0728"/>
<path d="M13.5802 13.3173H13.862V14.8582C13.862 15.0173 13.8245 15.1593 13.7495 15.2843C13.6753 15.4085 13.5703 15.5067 13.4347 15.5786C13.2991 15.6498 13.14 15.6854 12.9575 15.6854C12.7749 15.6854 12.6158 15.6498 12.4802 15.5786C12.3446 15.5067 12.2393 15.4085 12.1643 15.2843C12.09 15.1593 12.0529 15.0173 12.0529 14.8582V13.3173H12.3347V14.8354C12.3347 14.9491 12.3597 15.0502 12.4097 15.1388C12.4597 15.2267 12.5309 15.296 12.6234 15.3468C12.7165 15.3968 12.8279 15.4218 12.9575 15.4218C13.087 15.4218 13.1984 15.3968 13.2915 15.3468C13.3847 15.296 13.4559 15.2267 13.5052 15.1388C13.5552 15.0502 13.5802 14.9491 13.5802 14.8354V13.3173Z" fill="#BD0728"/>
<path d="M13.5652 15.6445H13.2697L14.1243 13.3173H14.4152L15.2697 15.6445H14.9743L14.2788 13.6854H14.2606L13.5652 15.6445ZM13.6743 14.7354H14.8652V14.9854H13.6743V14.7354Z" fill="#BD0728"/>
<path d="M14.6631 13.3124H14.9994L15.7903 15.2442H15.8176L16.6085 13.3124H16.9449V15.6396H16.6812V13.8715H16.6585L15.9312 15.6396H15.6767L14.9494 13.8715H14.9267V15.6396H14.6631V13.3124Z" fill="#BD0728"/>
</g>
</g>
<defs>
<clipPath id="clip0_1_13278">
<rect width="26" height="26" fill="white"/>
</clipPath>
</defs>
</svg>
