<svg width="26" height="26" viewBox="0 0 26 26" fill="none" xmlns="http://www.w3.org/2000/svg">
<mask id="mask0_1_13348" style="mask-type:alpha" maskUnits="userSpaceOnUse" x="0" y="0" width="26" height="26">
<circle cx="13" cy="13" r="13" fill="#634848"/>
</mask>
<g mask="url(#mask0_1_13348)">
<g clip-path="url(#clip0_1_13348)">
<path fill-rule="evenodd" clip-rule="evenodd" d="M0.101562 0H26V26H0.101562V0Z" fill="#399408"/>
<path fill-rule="evenodd" clip-rule="evenodd" d="M0.00507813 0C-0.0253906 0 25.1773 13.0813 25.1773 13.0813L0 25.9848L0.00507813 0Z" fill="white"/>
<path fill-rule="evenodd" clip-rule="evenodd" d="M0.0101547 1.09199C0.152342 1.09199 22.7246 12.8986 22.5977 13.0104L0.0761703 25.0963L0.0101547 1.08691V1.09199Z" fill="#FFDE08"/>
<path fill-rule="evenodd" clip-rule="evenodd" d="M0.0761719 0.0405273C0.152344 0.0405273 11.898 13.0913 11.898 13.0913L0.0761719 25.8374V0.0405273Z" fill="black"/>
<path fill-rule="evenodd" clip-rule="evenodd" d="M0.0101547 1.83847C0.0812485 1.02597 10.6133 13.1271 10.6133 13.1271L0.0101547 24.4666V1.83847Z" fill="#DE2110"/>
</g>
</g>
<defs>
<clipPath id="clip0_1_13348">
<rect width="26" height="26" fill="white"/>
</clipPath>
</defs>
</svg>
