<svg width="26" height="26" viewBox="0 0 26 26" fill="none" xmlns="http://www.w3.org/2000/svg">
<mask id="mask0_1_11640" style="mask-type:alpha" maskUnits="userSpaceOnUse" x="0" y="0" width="26" height="26">
<circle cx="13" cy="13" r="13" fill="#634848"/>
</mask>
<g mask="url(#mask0_1_11640)">
<mask id="mask1_1_11640" style="mask-type:alpha" maskUnits="userSpaceOnUse" x="-5" y="0" width="36" height="26">
<rect x="-4.33333" width="34.6667" height="26" fill="white"/>
</mask>
<g mask="url(#mask1_1_11640)">
<path fill-rule="evenodd" clip-rule="evenodd" d="M-4.33073 0V26H30.3359V0H-4.33073Z" fill="#EA1A1A"/>
<mask id="mask2_1_11640" style="mask-type:alpha" maskUnits="userSpaceOnUse" x="-5" y="0" width="36" height="26">
<path fill-rule="evenodd" clip-rule="evenodd" d="M-4.33073 0V26H30.3359V0H-4.33073Z" fill="white"/>
</mask>
<g mask="url(#mask2_1_11640)">
<path fill-rule="evenodd" clip-rule="evenodd" d="M12.8638 12.5396C12.8638 12.5396 6.59169 6.94609 14.0763 3.68701C14.0763 3.68701 16.2529 6.08835 14.62 8.78418C14.0843 9.66836 13.6325 10.2997 13.2929 10.7742C12.5972 11.7463 12.3729 12.0599 12.8638 12.5396ZM3.60702 8.52343C3.17625 16.6753 10.9838 13.5659 10.9838 13.5659C10.3354 13.7904 10.1553 13.4496 9.59689 12.3931C9.32423 11.8772 8.9614 11.1907 8.40984 10.3161C6.72858 7.65009 3.60702 8.52343 3.60702 8.52343ZM15.4299 12.8129C15.4299 12.8129 23.4811 15.2233 18.0817 21.3459C18.0817 21.3459 15.0925 20.0923 15.4299 16.9588C15.5406 15.9313 15.6823 15.1682 15.7889 14.5946C16.0073 13.419 16.0777 13.0397 15.4299 12.8129ZM13.3137 14.6921C13.3137 14.6921 14.757 22.9713 6.86669 20.879C6.86669 20.879 6.65188 17.6449 9.60555 16.5459C10.5745 16.1853 11.3206 15.9708 11.8813 15.8096C13.0301 15.4795 13.4006 15.373 13.3137 14.6921ZM23.2738 11.1319C18.3387 4.62951 14.3852 12.0453 14.3852 12.0453C14.7354 11.4551 15.093 11.599 16.2013 12.045C16.7427 12.2629 17.4632 12.5528 18.4494 12.8645C21.4545 13.8143 23.2738 11.1319 23.2738 11.1319Z" fill="white"/>
<path d="M6.45182 11.2041L6.90901 10.9136C7.91254 12.4929 9.21499 13.2701 10.8403 13.2701V13.8117C9.02194 13.8117 7.55112 12.9342 6.45182 11.2041Z" fill="#EA1A1A"/>
<path fill-rule="evenodd" clip-rule="evenodd" d="M19.2318 11.646C19.6805 11.646 20.0443 11.2822 20.0443 10.8335C20.0443 10.3848 19.6805 10.021 19.2318 10.021C18.783 10.021 18.4193 10.3848 18.4193 10.8335C18.4193 11.2822 18.783 11.646 19.2318 11.646Z" fill="#EA1A1A"/>
<path fill-rule="evenodd" clip-rule="evenodd" d="M17.2936 17.0391C17.7424 17.0391 18.1061 16.6753 18.1061 16.2266C18.1061 15.7778 17.7424 15.4141 17.2936 15.4141C16.8449 15.4141 16.4811 15.7778 16.4811 16.2266C16.4811 16.6753 16.8449 17.0391 17.2936 17.0391Z" fill="#EA1A1A"/>
<path fill-rule="evenodd" clip-rule="evenodd" d="M10.7936 19.2061C11.2424 19.2061 11.6061 18.8423 11.6061 18.3936C11.6061 17.9448 11.2424 17.5811 10.7936 17.5811C10.3449 17.5811 9.98112 17.9448 9.98112 18.3936C9.98112 18.8423 10.3449 19.2061 10.7936 19.2061Z" fill="#EA1A1A"/>
<path fill-rule="evenodd" clip-rule="evenodd" d="M6.46029 11.6226C6.90902 11.6226 7.27279 11.2588 7.27279 10.8101C7.27279 10.3613 6.90902 9.99756 6.46029 9.99756C6.01156 9.99756 5.64779 10.3613 5.64779 10.8101C5.64779 11.2588 6.01156 11.6226 6.46029 11.6226Z" fill="#EA1A1A"/>
<path fill-rule="evenodd" clip-rule="evenodd" d="M12.9603 8.37256C13.409 8.37256 13.7728 8.00879 13.7728 7.56006C13.7728 7.11133 13.409 6.74756 12.9603 6.74756C12.5116 6.74756 12.1478 7.11133 12.1478 7.56006C12.1478 8.00879 12.5116 8.37256 12.9603 8.37256Z" fill="#EA1A1A"/>
<path d="M12.6029 7.6405L13.0791 7.89863C12.1772 9.56262 12.1135 11.0974 12.8774 12.534L12.3991 12.7883C11.5462 11.1842 11.6178 9.45797 12.6029 7.6405Z" fill="#EA1A1A"/>
<path d="M19.5181 10.493L19.4369 11.0285C17.3181 10.7073 15.7322 11.1543 14.6462 12.3604L14.2437 11.9979C15.462 10.6449 17.2311 10.1463 19.5181 10.493Z" fill="#EA1A1A"/>
<path d="M17.7184 16.6456L17.1874 16.7524C16.7646 14.6516 15.8021 13.3141 14.2973 12.7062L14.5002 12.2039C16.1884 12.886 17.262 14.3779 17.7184 16.6456Z" fill="#EA1A1A"/>
<path d="M10.736 18.5792L10.4539 18.1168C12.2835 17.0009 13.2111 15.6391 13.2677 14.0171L13.8091 14.036C13.7455 15.8557 12.7108 17.3748 10.736 18.5792Z" fill="#EA1A1A"/>
</g>
</g>
</g>
</svg>
