<svg width="26" height="26" viewBox="0 0 26 26" fill="none" xmlns="http://www.w3.org/2000/svg">
<mask id="mask0_1_13362" style="mask-type:alpha" maskUnits="userSpaceOnUse" x="0" y="0" width="26" height="26">
<circle cx="13" cy="13" r="13" fill="#634848"/>
</mask>
<g mask="url(#mask0_1_13362)">
<g clip-path="url(#clip0_1_13362)">
<path d="M0 0H26V26H0V0Z" fill="#18C3DF"/>
<path d="M0 8.66846H26V17.3317H0V8.66846Z" fill="white"/>
<path d="M13 11.5557L12.5667 13.0001L13.2889 13.1446L13 11.5557Z" fill="#18C3DF"/>
<path d="M13 11.5557L13.4333 13.0001L12.7111 13.1446L13 11.5557Z" fill="#18C3DF"/>
<path d="M14.3738 12.5537L12.8661 12.588L12.9519 13.3195L14.3738 12.5537Z" fill="#18C3DF"/>
<path d="M14.3738 12.5537L13.1339 13.4122L12.7734 12.7699L14.3738 12.5537Z" fill="#18C3DF"/>
<path d="M11.6263 12.5537L12.8661 13.4122L13.2266 12.7699L11.6263 12.5537Z" fill="#18C3DF"/>
<path d="M11.6263 12.5537L13.1339 12.588L13.0481 13.3195L11.6263 12.5537Z" fill="#18C3DF"/>
<path d="M13.849 14.1688L13.3506 12.7455L12.6814 13.0531L13.849 14.1688Z" fill="#18C3DF"/>
<path d="M13.849 14.1686L12.6494 13.2548L13.1488 12.7134L13.849 14.1686Z" fill="#18C3DF"/>
<path d="M12.151 14.1686L13.3506 13.2548L12.8512 12.7134L12.151 14.1686Z" fill="#18C3DF"/>
<path d="M12.151 14.1688L12.6494 12.7455L13.3186 13.0531L12.151 14.1688Z" fill="#18C3DF"/>
<path d="M20.2211 9.24512L19.7878 10.6896L20.51 10.834L20.2211 9.24512Z" fill="#18C3DF"/>
<path d="M20.2211 9.24512L20.6544 10.6896L19.9322 10.834L20.2211 9.24512Z" fill="#18C3DF"/>
<path d="M21.5948 10.2432L20.0872 10.2774L20.173 11.0089L21.5948 10.2432Z" fill="#18C3DF"/>
<path d="M21.5948 10.2431L20.355 11.1016L19.9944 10.4594L21.5948 10.2431Z" fill="#18C3DF"/>
<path d="M18.8473 10.2431L20.0872 11.1016L20.4477 10.4594L18.8473 10.2431Z" fill="#18C3DF"/>
<path d="M18.8473 10.2432L20.355 10.2774L20.2692 11.0089L18.8473 10.2432Z" fill="#18C3DF"/>
<path d="M21.0701 11.8582L20.5717 10.4349L19.9025 10.7426L21.0701 11.8582Z" fill="#18C3DF"/>
<path d="M21.0701 11.8581L19.8705 10.9442L20.3699 10.4028L21.0701 11.8581Z" fill="#18C3DF"/>
<path d="M19.3721 11.8581L20.5717 10.9442L20.0723 10.4028L19.3721 11.8581Z" fill="#18C3DF"/>
<path d="M19.3721 11.8582L19.8705 10.4349L20.5397 10.7426L19.3721 11.8582Z" fill="#18C3DF"/>
<path d="M20.2211 13.5767L19.7878 15.0211L20.51 15.1655L20.2211 13.5767Z" fill="#18C3DF"/>
<path d="M20.2211 13.5767L20.6544 15.0211L19.9322 15.1655L20.2211 13.5767Z" fill="#18C3DF"/>
<path d="M21.5948 14.5747L20.0872 14.609L20.173 15.3405L21.5948 14.5747Z" fill="#18C3DF"/>
<path d="M21.5948 14.5747L20.355 15.4332L19.9944 14.7909L21.5948 14.5747Z" fill="#18C3DF"/>
<path d="M18.8473 14.5747L20.0872 15.4332L20.4477 14.7909L18.8473 14.5747Z" fill="#18C3DF"/>
<path d="M18.8473 14.5747L20.355 14.609L20.2692 15.3405L18.8473 14.5747Z" fill="#18C3DF"/>
<path d="M21.0701 16.1898L20.5717 14.7665L19.9025 15.0741L21.0701 16.1898Z" fill="#18C3DF"/>
<path d="M21.0701 16.1896L19.8705 15.2758L20.3699 14.7344L21.0701 16.1896Z" fill="#18C3DF"/>
<path d="M19.3721 16.1896L20.5717 15.2758L20.0723 14.7344L19.3721 16.1896Z" fill="#18C3DF"/>
<path d="M19.3721 16.1898L19.8705 14.7665L20.5397 15.0741L19.3721 16.1898Z" fill="#18C3DF"/>
<path d="M5.7789 9.24512L5.34557 10.6896L6.06779 10.834L5.7789 9.24512Z" fill="#18C3DF"/>
<path d="M5.7789 9.24512L6.21224 10.6896L5.49002 10.834L5.7789 9.24512Z" fill="#18C3DF"/>
<path d="M7.15265 10.2432L5.645 10.2774L5.7308 11.0089L7.15265 10.2432Z" fill="#18C3DF"/>
<path d="M7.15265 10.2431L5.91281 11.1016L5.55226 10.4594L7.15265 10.2431Z" fill="#18C3DF"/>
<path d="M4.40516 10.2431L5.645 11.1016L6.00555 10.4594L4.40516 10.2431Z" fill="#18C3DF"/>
<path d="M4.40516 10.2432L5.91281 10.2774L5.82701 11.0089L4.40516 10.2432Z" fill="#18C3DF"/>
<path d="M6.62793 11.8582L6.12948 10.4349L5.46028 10.7426L6.62793 11.8582Z" fill="#18C3DF"/>
<path d="M6.62793 11.8581L5.42833 10.9442L5.92772 10.4028L6.62793 11.8581Z" fill="#18C3DF"/>
<path d="M4.92988 11.8581L6.12948 10.9442L5.63009 10.4028L4.92988 11.8581Z" fill="#18C3DF"/>
<path d="M4.92988 11.8582L5.42833 10.4349L6.09752 10.7426L4.92988 11.8582Z" fill="#18C3DF"/>
<path d="M5.7789 13.5767L5.34557 15.0211L6.06779 15.1655L5.7789 13.5767Z" fill="#18C3DF"/>
<path d="M5.7789 13.5767L6.21224 15.0211L5.49002 15.1655L5.7789 13.5767Z" fill="#18C3DF"/>
<path d="M7.15265 14.5747L5.645 14.609L5.7308 15.3405L7.15265 14.5747Z" fill="#18C3DF"/>
<path d="M7.15265 14.5747L5.91281 15.4332L5.55226 14.7909L7.15265 14.5747Z" fill="#18C3DF"/>
<path d="M4.40516 14.5747L5.645 15.4332L6.00555 14.7909L4.40516 14.5747Z" fill="#18C3DF"/>
<path d="M4.40516 14.5747L5.91281 14.609L5.82701 15.3405L4.40516 14.5747Z" fill="#18C3DF"/>
<path d="M6.62793 16.1898L6.12948 14.7665L5.46028 15.0741L6.62793 16.1898Z" fill="#18C3DF"/>
<path d="M6.62793 16.1896L5.42833 15.2758L5.92772 14.7344L6.62793 16.1896Z" fill="#18C3DF"/>
<path d="M4.92988 16.1896L6.12948 15.2758L5.63009 14.7344L4.92988 16.1896Z" fill="#18C3DF"/>
<path d="M4.92988 16.1898L5.42833 14.7665L6.09752 15.0741L4.92988 16.1898Z" fill="#18C3DF"/>
</g>
</g>
<defs>
<clipPath id="clip0_1_13362">
<rect width="26" height="26" fill="white"/>
</clipPath>
</defs>
</svg>
