<svg width="26" height="26" viewBox="0 0 26 26" fill="none" xmlns="http://www.w3.org/2000/svg">
<mask id="mask0_1_12229" style="mask-type:alpha" maskUnits="userSpaceOnUse" x="0" y="0" width="26" height="26">
<circle cx="13" cy="13" r="13" fill="#634848"/>
</mask>
<g mask="url(#mask0_1_12229)">
<mask id="mask1_1_12229" style="mask-type:alpha" maskUnits="userSpaceOnUse" x="-5" y="-1" width="36" height="28">
<rect x="-5" y="-0.5" width="36" height="27" fill="white"/>
</mask>
<g mask="url(#mask1_1_12229)">
<path fill-rule="evenodd" clip-rule="evenodd" d="M-5 -0.5V26.5H31V-0.5H-5Z" fill="#F7FCFF"/>
<mask id="mask2_1_12229" style="mask-type:alpha" maskUnits="userSpaceOnUse" x="-5" y="-1" width="36" height="28">
<path fill-rule="evenodd" clip-rule="evenodd" d="M-5 -0.5V26.5H31V-0.5H-5Z" fill="white"/>
</mask>
<g mask="url(#mask2_1_12229)">
<path fill-rule="evenodd" clip-rule="evenodd" d="M-5 -0.5V8.5H31V-0.5H-5Z" fill="#E31D1C"/>
<path fill-rule="evenodd" clip-rule="evenodd" d="M-5 17.5V26.5H31V17.5H-5Z" fill="#3D58DB"/>
<rect x="6.33594" y="6.69678" width="12.825" height="4.5" fill="#E31D1C"/>
<path d="M6.9129 9.50928H18.447C18.4676 10.3641 18.4737 11.9165 18.4736 13.4065C18.4735 14.3448 18.471 15.2481 18.4686 15.9169C18.4673 16.2512 18.4661 16.5269 18.4652 16.719L18.4641 16.9413L18.4639 16.979C18.4634 16.9819 18.4629 16.9849 18.4624 16.9882C18.4572 17.019 18.4486 17.0671 18.4355 17.1299C18.4092 17.2557 18.365 17.4398 18.2948 17.6626C18.154 18.1098 17.9118 18.7032 17.5076 19.2933C16.7147 20.451 15.2754 21.6373 12.606 21.6373C9.9397 21.6373 8.56832 20.4521 7.83798 19.3038C7.4642 18.7162 7.25105 18.1244 7.13182 17.6773C7.07246 17.4548 7.03711 17.2708 7.01685 17.1451C7.00672 17.0823 7.0004 17.0342 6.99674 17.0034C6.99566 16.9943 6.99481 16.9868 6.99416 16.9807L6.99351 16.9271L6.99083 16.7062L6.98128 15.9091C6.97337 15.2443 6.96283 14.3459 6.95229 13.4109C6.93575 11.9442 6.91927 10.3918 6.9129 9.50928Z" fill="#F7FCFF" stroke="#E31D1C" stroke-width="1.125"/>
<mask id="mask3_1_12229" style="mask-type:alpha" maskUnits="userSpaceOnUse" x="6" y="8" width="14" height="15">
<path d="M6.9129 9.50928H18.447C18.4676 10.3641 18.4737 11.9165 18.4736 13.4065C18.4735 14.3448 18.471 15.2481 18.4686 15.9169C18.4673 16.2512 18.4661 16.5269 18.4652 16.719L18.4641 16.9413L18.4639 16.979C18.4634 16.9819 18.4629 16.9849 18.4624 16.9882C18.4572 17.019 18.4486 17.0671 18.4355 17.1299C18.4092 17.2557 18.365 17.4398 18.2948 17.6626C18.154 18.1098 17.9118 18.7032 17.5076 19.2933C16.7147 20.451 15.2754 21.6373 12.606 21.6373C9.9397 21.6373 8.56832 20.4521 7.83798 19.3038C7.4642 18.7162 7.25105 18.1244 7.13182 17.6773C7.07246 17.4548 7.03711 17.2708 7.01685 17.1451C7.00672 17.0823 7.0004 17.0342 6.99674 17.0034C6.99566 16.9943 6.99481 16.9868 6.99416 16.9807L6.99351 16.9271L6.99083 16.7062L6.98128 15.9091C6.97337 15.2443 6.96283 14.3459 6.95229 13.4109C6.93575 11.9442 6.91927 10.3918 6.9129 9.50928Z" fill="white" stroke="white" stroke-width="1.125"/>
</mask>
<g mask="url(#mask3_1_12229)">
<path fill-rule="evenodd" clip-rule="evenodd" d="M6.81348 9.66992H9.18652V12.0793H11.5596V9.67004H13.9326V12.0793H16.3057V9.67004H18.6787V12.0797H16.3057V14.489H13.9326V12.0797H11.5596V14.489H9.18652V12.0796H6.81348V9.66992ZM11.5596 16.899H9.18652V14.4897H6.81348V16.8994H9.18652V19.3083H6.81348V21.718H9.18652V19.3087H11.5596V21.718H13.9326V19.3087H16.3057V21.718H18.6787V19.3083H16.3057V16.8994H18.6787V14.4897H16.3057V16.899H13.9326V14.4897H11.5596V16.899ZM11.5596 16.8994V19.3083H13.9326V16.8994H11.5596Z" fill="#F50100"/>
</g>
<path fill-rule="evenodd" clip-rule="evenodd" d="M6.75558 8.68268C6.75558 8.68268 7.48957 8.29063 8.11561 8.08858C8.74166 7.88653 9.23647 7.77614 9.23647 7.77614L8.30504 4.34253L6.43943 3.64551L5.38281 5.38712L6.75558 8.68268Z" fill="#56C6F5" stroke="white" stroke-width="0.5"/>
<path d="M6.44629 6.80118L6.66067 6.69784C6.88204 7.17138 7.17385 7.31764 7.57383 7.16837C7.9824 7.01589 8.14898 6.72756 8.0902 6.27046L8.3255 6.23926C8.39847 6.80667 8.16965 7.20273 7.6557 7.39454C7.13316 7.58955 6.71744 7.38118 6.44629 6.80118Z" fill="white"/>
<path fill-rule="evenodd" clip-rule="evenodd" d="M6.95492 5.73377L6.73683 5.86588C6.69651 5.8903 6.64639 5.85521 6.65555 5.80898L6.70511 5.55884L6.48164 5.43602C6.44034 5.41332 6.44567 5.35237 6.49029 5.33719L6.73169 5.25504L6.72632 5.0001C6.72533 4.95298 6.78078 4.92712 6.81624 4.95817L7.00808 5.12615L7.22618 4.99403C7.26649 4.96961 7.31661 5.00471 7.30745 5.05094L7.2579 5.30107L7.48136 5.42389C7.52267 5.44659 7.51733 5.50755 7.47272 5.52273L7.23132 5.60488L7.23669 5.85982C7.23768 5.90694 7.18222 5.9328 7.14677 5.90175L6.95492 5.73377Z" fill="#FECA00"/>
<path fill-rule="evenodd" clip-rule="evenodd" d="M11.3535 7.45926C11.3535 7.45926 11.9795 7.4034 12.6372 7.41618C13.2949 7.42895 13.8513 7.43363 13.8513 7.43363L14.1726 4.04796L12.7637 2.77515L11.1976 4.07788L11.3535 7.45926Z" fill="#56C6F5" stroke="white" stroke-width="0.5"/>
<path fill-rule="evenodd" clip-rule="evenodd" d="M12.7112 6.90673C13.2539 6.90673 13.3059 6.32065 13.3059 5.9214C13.1671 5.69997 13.1951 5.5415 12.7503 5.5415C12.3055 5.5415 12.2548 5.6759 12.125 5.9214C12.125 6.32065 12.1686 6.90673 12.7112 6.90673Z" fill="#FECA00"/>
<path fill-rule="evenodd" clip-rule="evenodd" d="M13.3265 5.25097C13.8691 5.25097 13.9211 4.66488 13.9211 4.26564C13.7823 4.04421 13.8103 3.88574 13.3655 3.88574C12.9208 3.88574 12.87 4.02014 12.7402 4.26564C12.7402 4.66488 12.7838 5.25097 13.3265 5.25097Z" fill="#FECA00"/>
<path fill-rule="evenodd" clip-rule="evenodd" d="M12.14 5.25097C12.6826 5.25097 12.7346 4.66488 12.7346 4.26564C12.5958 4.04421 12.6238 3.88574 12.179 3.88574C11.7342 3.88574 11.6835 4.02014 11.5537 4.26564C11.5537 4.66488 11.5973 5.25097 12.14 5.25097Z" fill="#FECA00"/>
<path d="M8.9499 7.77007L9.02193 8.01476L9.26512 7.93783L9.26513 7.93783L9.26517 7.93781L9.26547 7.93772L9.26685 7.93728L9.27263 7.93547L9.2956 7.92833C9.31573 7.92211 9.34516 7.91309 9.38191 7.90206C9.45547 7.87998 9.55803 7.84992 9.67389 7.81802C9.90911 7.75327 10.1865 7.68452 10.3877 7.65656C10.5973 7.62744 10.858 7.6062 11.0697 7.59219C11.1748 7.58523 11.2665 7.58015 11.3318 7.5768L11.4083 7.57309L11.4286 7.57218L11.4337 7.57196L11.4349 7.57191L11.4352 7.5719L11.4353 7.5719H11.4353L11.6966 7.56116L11.6741 7.30062L11.3903 4.01066L11.3803 3.89534L11.286 3.82832L9.75289 2.73953L9.57753 2.61499L9.4282 2.7698L8.03491 4.2142L7.93395 4.31886L7.97502 4.45836L8.9499 7.77007Z" fill="#2E42A5" stroke="white" stroke-width="0.5"/>
<mask id="mask4_1_12229" style="mask-type:alpha" maskUnits="userSpaceOnUse" x="7" y="2" width="5" height="7">
<path d="M8.9499 7.77007L9.02193 8.01476L9.26512 7.93783L9.26513 7.93783L9.26517 7.93781L9.26547 7.93772L9.26685 7.93728L9.27263 7.93547L9.2956 7.92833C9.31573 7.92211 9.34516 7.91309 9.38191 7.90206C9.45547 7.87998 9.55803 7.84992 9.67389 7.81802C9.90911 7.75327 10.1865 7.68452 10.3877 7.65656C10.5973 7.62744 10.858 7.6062 11.0697 7.59219C11.1748 7.58523 11.2665 7.58015 11.3318 7.5768L11.4083 7.57309L11.4286 7.57218L11.4337 7.57196L11.4349 7.57191L11.4352 7.5719L11.4353 7.5719H11.4353L11.6966 7.56116L11.6741 7.30062L11.3903 4.01066L11.3803 3.89534L11.286 3.82832L9.75289 2.73953L9.57753 2.61499L9.4282 2.7698L8.03491 4.2142L7.93395 4.31886L7.97502 4.45836L8.9499 7.77007Z" fill="white" stroke="white" stroke-width="0.5"/>
</mask>
<g mask="url(#mask4_1_12229)">
<path d="M8.98885 6.96642L8.70703 6.30258C9.31229 6.03765 10.3347 5.87508 11.4106 5.81152L11.452 6.53319C10.4518 6.59228 9.50566 6.7402 8.98885 6.96642Z" fill="#C51918"/>
<path d="M8.51424 5.36062L8.23242 4.69678C8.83768 4.43185 10.1386 4.21737 11.2146 4.15381L11.2559 4.87548C10.2557 4.93457 9.03106 5.1344 8.51424 5.36062Z" fill="#C51918"/>
</g>
<path d="M16.3852 7.76461L16.3172 8.01653L16.0684 7.93783L16.0684 7.93783L16.0684 7.93781L16.0681 7.93772L16.0667 7.93728L16.0609 7.93547L16.0379 7.92833C16.0178 7.92211 15.9884 7.91309 15.9516 7.90206C15.8781 7.87998 15.7755 7.84992 15.6597 7.81802C15.4244 7.75327 15.147 7.68452 14.9458 7.65656C14.7363 7.62744 14.4756 7.6062 14.2639 7.59219C14.1587 7.58523 14.067 7.58015 14.0017 7.5768L13.9252 7.57309L13.905 7.57218L13.8998 7.57196L13.8986 7.57191L13.8983 7.5719L13.8983 7.5719H13.8983L13.637 7.56116L13.6595 7.30062L13.9433 4.01066L13.9532 3.89534L14.0476 3.82832L15.5806 2.73953L15.7609 2.61149L15.91 2.7748L17.2237 4.21375L17.3162 4.31504L17.2804 4.44745L16.3852 7.76461Z" fill="#2E42A5" stroke="white" stroke-width="0.5"/>
<mask id="mask5_1_12229" style="mask-type:alpha" maskUnits="userSpaceOnUse" x="13" y="2" width="5" height="7">
<path d="M16.3852 7.76461L16.3172 8.01653L16.0684 7.93783L16.0684 7.93783L16.0684 7.93781L16.0681 7.93772L16.0667 7.93728L16.0609 7.93547L16.0379 7.92833C16.0178 7.92211 15.9884 7.91309 15.9516 7.90206C15.8781 7.87998 15.7755 7.84992 15.6597 7.81802C15.4244 7.75327 15.147 7.68452 14.9458 7.65656C14.7363 7.62744 14.4756 7.6062 14.2639 7.59219C14.1587 7.58523 14.067 7.58015 14.0017 7.5768L13.9252 7.57309L13.905 7.57218L13.8998 7.57196L13.8986 7.57191L13.8983 7.5719L13.8983 7.5719H13.8983L13.637 7.56116L13.6595 7.30062L13.9433 4.01066L13.9532 3.89534L14.0476 3.82832L15.5806 2.73953L15.7609 2.61149L15.91 2.7748L17.2237 4.21375L17.3162 4.31504L17.2804 4.44745L16.3852 7.76461Z" fill="white" stroke="white" stroke-width="0.5"/>
</mask>
<g mask="url(#mask5_1_12229)">
<path fill-rule="evenodd" clip-rule="evenodd" d="M15.6974 6.77364C15.6974 6.77364 16.0281 6.58957 16.0758 6.2792C16.1234 5.96883 16.635 5.58656 16.3792 5.63206C16.1234 5.67755 16.2697 5.71309 15.8993 5.63206C15.5289 5.55102 15.0496 5.49742 15.0496 5.26974C15.0496 5.04205 15.2878 4.86134 15.0931 4.86134C14.8983 4.86134 14.4827 4.64584 14.5662 4.81055C14.6496 4.97527 14.3742 4.78902 14.5119 5.13098C14.6496 5.47294 14.4827 5.81744 14.5662 5.90809C14.6496 5.99874 14.5119 6.44333 14.5119 6.44333C14.5119 6.44333 14.5625 6.60845 14.651 6.36112C14.7395 6.1138 14.9331 5.94043 14.8363 6.15078C14.7395 6.36112 14.616 6.86144 14.7261 6.77364C14.8363 6.68585 14.9458 6.44305 14.9458 6.36112C14.9458 6.2792 15.2238 5.9576 15.2238 6.20046C15.2238 6.44333 14.9623 6.63458 15.0931 6.63458C15.2238 6.63458 15.2971 6.68619 15.3793 6.44333C15.4616 6.20046 15.6612 6.0398 15.7431 6.20046C15.825 6.36112 15.8069 6.35254 15.6974 6.56309C15.5879 6.77364 15.6974 6.77364 15.6974 6.77364Z" fill="#FECA00"/>
<path fill-rule="evenodd" clip-rule="evenodd" d="M14.921 4.97336L14.7979 4.76736C15.0188 4.63122 15.2216 4.59494 15.3998 4.67084C15.4808 4.70536 15.5418 4.74467 15.7009 4.85656L15.7217 4.87116C15.8873 4.98732 15.975 5.03463 16.029 5.03463V5.2756C15.9054 5.2756 15.7986 5.21793 15.5868 5.06943L15.5658 5.05463C15.4226 4.95393 15.3673 4.91832 15.308 4.89304C15.2094 4.85106 15.0826 4.87373 14.921 4.97336ZM14.5289 6.54517C14.5988 6.54517 14.6555 6.4892 14.6555 6.42017C14.6555 6.35113 14.5988 6.29517 14.5289 6.29517C14.459 6.29517 14.4023 6.35113 14.4023 6.42017C14.4023 6.4892 14.459 6.54517 14.5289 6.54517ZM14.8928 6.66077C14.8928 6.7298 14.8361 6.78577 14.7662 6.78577C14.6963 6.78577 14.6396 6.7298 14.6396 6.66077C14.6396 6.59173 14.6963 6.53577 14.7662 6.53577C14.8361 6.53577 14.8928 6.59173 14.8928 6.66077ZM15.1969 6.77698C15.2668 6.77698 15.3234 6.72101 15.3234 6.65198C15.3234 6.58294 15.2668 6.52698 15.1969 6.52698C15.127 6.52698 15.0703 6.58294 15.0703 6.65198C15.0703 6.72101 15.127 6.77698 15.1969 6.77698ZM15.7189 6.85193C15.7189 6.92096 15.6623 6.97693 15.5924 6.97693C15.5225 6.97693 15.4658 6.92096 15.4658 6.85193C15.4658 6.78289 15.5225 6.72693 15.5924 6.72693C15.6623 6.72693 15.7189 6.78289 15.7189 6.85193Z" fill="#C51918"/>
</g>
<path d="M18.9935 8.69648L18.8855 8.94521L18.6464 8.81748L18.6464 8.81748L18.6464 8.81746L18.6463 8.81746L18.6461 8.81731L18.6447 8.8166L18.639 8.81355L18.6157 8.80133C18.5952 8.79061 18.5649 8.77494 18.5265 8.75544C18.4496 8.71642 18.3406 8.66222 18.2124 8.60184C17.9542 8.48026 17.6254 8.33695 17.3273 8.24076C17.0198 8.1415 16.7442 8.06468 16.5456 8.01271C16.4464 7.98675 16.3666 7.96704 16.3119 7.95388C16.2846 7.94731 16.2635 7.94237 16.2494 7.93911L16.2336 7.93549L16.2298 7.93463L16.229 7.93444L16.2288 7.93441L16.2288 7.9344L16.2288 7.9344L15.9704 7.87675L16.0428 7.62204L16.9945 4.27417L17.0291 4.15258L17.1475 4.10834L19.0131 3.41132L19.207 3.33888L19.3143 3.51583L20.371 5.25745L20.438 5.36802L20.3866 5.48665L18.9935 8.69648Z" fill="#56C6F5" stroke="white" stroke-width="0.5"/>
<mask id="mask6_1_12229" style="mask-type:alpha" maskUnits="userSpaceOnUse" x="15" y="3" width="6" height="7">
<path d="M18.9935 8.69648L18.8855 8.94521L18.6464 8.81748L18.6464 8.81748L18.6464 8.81746L18.6463 8.81746L18.6461 8.81731L18.6447 8.8166L18.639 8.81355L18.6157 8.80133C18.5952 8.79061 18.5649 8.77494 18.5265 8.75544C18.4496 8.71642 18.3406 8.66222 18.2124 8.60184C17.9542 8.48026 17.6254 8.33695 17.3273 8.24076C17.0198 8.1415 16.7442 8.06468 16.5456 8.01271C16.4464 7.98675 16.3666 7.96704 16.3119 7.95388C16.2846 7.94731 16.2635 7.94237 16.2494 7.93911L16.2336 7.93549L16.2298 7.93463L16.229 7.93444L16.2288 7.93441L16.2288 7.9344L16.2288 7.9344L15.9704 7.87675L16.0428 7.62204L16.9945 4.27417L17.0291 4.15258L17.1475 4.10834L19.0131 3.41132L19.207 3.33888L19.3143 3.51583L20.371 5.25745L20.438 5.36802L20.3866 5.48665L18.9935 8.69648Z" fill="white" stroke="white" stroke-width="0.5"/>
</mask>
<g mask="url(#mask6_1_12229)">
<path fill-rule="evenodd" clip-rule="evenodd" d="M18.7677 5.22446L18.5977 5.41457C18.5663 5.4497 18.5081 5.4308 18.5034 5.38391L18.4776 5.13022L18.228 5.0781C18.1819 5.06846 18.1692 5.00861 18.2074 4.98105L18.4142 4.83191L18.3346 4.58968C18.3198 4.54491 18.3653 4.50397 18.4083 4.52329L18.6409 4.62785L18.8108 4.43774C18.8422 4.4026 18.9004 4.42151 18.9052 4.4684L18.9309 4.72209L19.1805 4.77421C19.2267 4.78384 19.2394 4.84369 19.2012 4.87125L18.9943 5.02039L19.074 5.26262C19.0887 5.30739 19.0432 5.34833 19.0003 5.32901L18.7677 5.22446Z" fill="#FECA00"/>
<path d="M16.3691 6.79853L16.6081 5.86572C17.6665 6.14528 18.7697 6.50358 19.5791 6.85005L19.2104 7.73821C18.4458 7.41091 17.3854 7.06698 16.3691 6.79853Z" fill="#E31D1C"/>
<path d="M16.6943 5.9372L16.7507 5.70312C17.7653 5.95492 18.8438 6.35668 19.6274 6.73089L19.5265 6.94894C18.7578 6.58193 17.6943 6.18534 16.6943 5.9372Z" fill="white"/>
<path d="M16.3955 6.89863L16.4518 6.66455C17.4665 6.91635 18.4043 7.258 19.188 7.6322L19.087 7.85026C18.3184 7.48325 17.3954 7.14677 16.3955 6.89863Z" fill="white"/>
<path d="M16.8525 6.44625L17.0698 6.34814C17.1613 6.56225 17.2742 6.60941 17.4631 6.51765C17.9092 6.30091 19.0158 6.6038 19.0158 7.01221C19.0158 7.17154 18.9234 7.26814 18.7824 7.26254C18.7028 7.25938 18.6179 7.22794 18.4933 7.16634C18.4782 7.15887 18.4682 7.15386 18.4437 7.1414C18.3059 7.07113 18.2955 7.066 18.2588 7.05278L18.3374 6.82255C18.3881 6.84086 18.3961 6.84478 18.5492 6.92284C18.5728 6.93484 18.582 6.93948 18.5961 6.94646C18.6916 6.99368 18.7555 7.01732 18.7916 7.01875C18.7949 7.01888 18.7785 7.0361 18.7785 7.01221C18.7785 6.83251 17.8779 6.58599 17.5645 6.73823C17.252 6.89006 16.9966 6.7834 16.8525 6.44625Z" fill="#272727"/>
</g>
</g>
</g>
</g>
</svg>
