<svg width="26" height="26" viewBox="0 0 26 26" fill="none" xmlns="http://www.w3.org/2000/svg">
<mask id="mask0_1_11668" style="mask-type:alpha" maskUnits="userSpaceOnUse" x="0" y="0" width="26" height="26">
<circle cx="13" cy="13" r="13" fill="#634848"/>
</mask>
<g mask="url(#mask0_1_11668)">
<mask id="mask1_1_11668" style="mask-type:alpha" maskUnits="userSpaceOnUse" x="-5" y="0" width="36" height="26">
<rect x="-4.33333" width="34.6667" height="26" fill="white"/>
</mask>
<g mask="url(#mask1_1_11668)">
<path fill-rule="evenodd" clip-rule="evenodd" d="M-4.33073 0V26H30.3359V0H-4.33073Z" fill="#2E42A5"/>
<mask id="mask2_1_11668" style="mask-type:alpha" maskUnits="userSpaceOnUse" x="-5" y="0" width="36" height="26">
<path fill-rule="evenodd" clip-rule="evenodd" d="M-4.33073 0V26H30.3359V0H-4.33073Z" fill="white"/>
</mask>
<g mask="url(#mask2_1_11668)">
<path fill-rule="evenodd" clip-rule="evenodd" d="M-4.33073 13V26H30.3359V13H-4.33073Z" fill="#E31D1C"/>
<rect x="6.50261" y="8.6665" width="13" height="8.66667" fill="white"/>
<mask id="mask3_1_11668" style="mask-type:alpha" maskUnits="userSpaceOnUse" x="6" y="8" width="14" height="10">
<rect x="6.50261" y="8.6665" width="13" height="8.66667" fill="white"/>
</mask>
<g mask="url(#mask3_1_11668)">
<path fill-rule="evenodd" clip-rule="evenodd" d="M6.50261 15.7933C6.50261 15.7933 9.62297 14.9728 13.0026 15.0229C16.3822 15.073 19.5026 15.9859 19.5026 15.9859V17.334H6.50261V15.7933Z" fill="#279E19"/>
<path d="M13.0866 9.64232C13.0866 9.64232 12.078 9.18799 11.3739 9.18799C10.6698 9.18799 10.2786 9.88144 10.2786 9.88144" stroke="#026A16" stroke-width="0.5"/>
<path d="M13.3139 10.0976C13.3139 10.0976 12.3858 9.76562 11.7379 9.76562C11.09 9.76562 10.73 10.2723 10.73 10.2723" stroke="#026A16" stroke-width="0.5"/>
<path d="M13.311 10.4828C13.311 10.4828 12.6244 10.1509 12.1451 10.1509C11.6659 10.1509 11.3996 10.6576 11.3996 10.6576" stroke="#026A16" stroke-width="0.5"/>
<path d="M13.0244 10.8676C13.0244 10.8676 12.6002 10.5356 12.3041 10.5356C12.008 10.5356 11.8435 11.0423 11.8435 11.0423" stroke="#026A16" stroke-width="0.5"/>
<path d="M12.9927 11.1305C12.9927 11.1305 12.8231 10.9209 12.7047 10.9209C12.5863 10.9209 12.5205 11.2408 12.5205 11.2408" stroke="#026A16" stroke-width="0.5"/>
<path d="M12.9255 9.64232C12.9255 9.64232 13.9342 9.18799 14.6383 9.18799C15.3424 9.18799 15.7335 9.88144 15.7335 9.88144" stroke="#026A16" stroke-width="0.5"/>
<path d="M12.6983 10.0976C12.6983 10.0976 13.6264 9.76562 14.2743 9.76562C14.9222 9.76562 15.2821 10.2723 15.2821 10.2723" stroke="#026A16" stroke-width="0.5"/>
<path d="M12.7011 10.4828C12.7011 10.4828 13.3877 10.1509 13.867 10.1509C14.3463 10.1509 14.6126 10.6576 14.6126 10.6576" stroke="#026A16" stroke-width="0.5"/>
<path d="M12.9878 10.8676C12.9878 10.8676 13.412 10.5356 13.7081 10.5356C14.0042 10.5356 14.1687 11.0423 14.1687 11.0423" stroke="#026A16" stroke-width="0.5"/>
<path d="M13.0194 11.1305C13.0194 11.1305 13.189 10.9209 13.3074 10.9209C13.4258 10.9209 13.4916 11.2408 13.4916 11.2408" stroke="#026A16" stroke-width="0.5"/>
<path fill-rule="evenodd" clip-rule="evenodd" d="M12.8816 11.2642C12.8816 11.2642 12.7578 12.713 12.7578 13.3027C12.7578 13.8923 12.8816 15.1646 12.8816 15.1646H13.1999C13.1999 15.1646 13.1999 13.7949 13.1999 13.3027C13.1999 12.8104 13.0131 11.2642 13.0131 11.2642H12.8816Z" fill="#FECA00"/>
<path fill-rule="evenodd" clip-rule="evenodd" d="M11.6303 12.9116C11.6303 12.9116 10.8458 13.3315 10.8458 14.5747L11.6303 16.0757H13.0461V13.6038L11.6303 12.9116Z" fill="#C51918"/>
<path fill-rule="evenodd" clip-rule="evenodd" d="M10.4657 11.7275C10.4657 11.7275 8.63397 12.2702 8.63397 14.272L11.0071 14.4744C11.0071 14.4744 10.8775 13.3114 11.6078 12.7734L10.4657 11.7275Z" fill="#0A328C"/>
<path d="M9.70978 10.9639L12.852 13.8434" stroke="#FFD018" stroke-width="0.5"/>
<path d="M8.61893 11.6157L13.0015 14.4616" stroke="#FFD018" stroke-width="0.5"/>
<path d="M7.86661 12.7168L12.8062 14.9758" stroke="#FFD018" stroke-width="0.5"/>
<path fill-rule="evenodd" clip-rule="evenodd" d="M8.64149 14.2563L11.9193 14.6228L11.7348 15.0803H11.2151L11.569 15.3387L12.3671 15.5255V15.0803H13.0661V16.0262H11.569L10.9948 15.3387C10.9948 15.3387 10.5126 15.8141 10.0419 15.8141C9.57129 15.8141 9.10728 15.6597 9.10728 15.1413C9.10728 14.6228 9.10728 14.7806 9.10728 14.7806L8.64149 14.6228V14.2563Z" fill="#FECA00"/>
<path fill-rule="evenodd" clip-rule="evenodd" d="M13.9325 12.9116C13.9325 12.9116 14.717 13.3315 14.717 14.5747L13.9325 16.0757H12.5167V13.6038L13.9325 12.9116Z" fill="#C51918"/>
<path fill-rule="evenodd" clip-rule="evenodd" d="M15.0971 11.7275C15.0971 11.7275 16.9288 12.2702 16.9288 14.272L14.5557 14.4744C14.5557 14.4744 14.6853 13.3114 13.955 12.7734L15.0971 11.7275Z" fill="#0A328C"/>
<path d="M15.853 10.9639L12.7108 13.8434" stroke="#FFD018" stroke-width="0.5"/>
<path d="M16.9439 11.6157L12.5613 14.4616" stroke="#FFD018" stroke-width="0.5"/>
<path d="M17.6962 12.7168L12.7566 14.9758" stroke="#FFD018" stroke-width="0.5"/>
<path fill-rule="evenodd" clip-rule="evenodd" d="M16.9138 14.2563L13.636 14.6228L13.8205 15.0803H14.3402L13.9863 15.3387L13.1882 15.5255V15.0803H12.4892V16.0262H13.9863L14.5604 15.3387C14.5604 15.3387 15.0427 15.8141 15.5133 15.8141C15.984 15.8141 16.448 15.6597 16.448 15.1413C16.448 14.6228 16.448 14.7806 16.448 14.7806L16.9138 14.6228V14.2563Z" fill="#FECA00"/>
</g>
</g>
</g>
</g>
</svg>
