<svg width="26" height="26" viewBox="0 0 26 26" fill="none" xmlns="http://www.w3.org/2000/svg">
<mask id="mask0_1_13452" style="mask-type:alpha" maskUnits="userSpaceOnUse" x="0" y="0" width="26" height="26">
<circle cx="13" cy="13" r="13" fill="#634848"/>
</mask>
<g mask="url(#mask0_1_13452)">
<g clip-path="url(#clip0_1_13452)">
<path fill-rule="evenodd" clip-rule="evenodd" d="M32.6066 26.4469H-5.17969V0H32.6066V26.4469Z" fill="#BA0000"/>
<path fill-rule="evenodd" clip-rule="evenodd" d="M14.6057 19.4262C14.6164 19.3907 14.6413 19.0707 14.627 19.0707C14.6128 19.0707 14.14 18.5091 14.1507 18.5091C14.1614 18.5091 14.7621 18.6442 14.7621 18.6229C14.7621 18.6051 15.0038 18.0328 15.0038 18.0186L15.2953 18.7188L15.8854 18.9783L15.4695 19.3196L15.5655 19.995C15.5655 20.0056 15.1496 19.6039 15.1496 19.6039L14.6875 19.6537C14.6875 19.6537 14.627 19.4475 14.6057 19.4262V19.4262Z" fill="#FFEF00" stroke="black" stroke-width="0.28"/>
<path fill-rule="evenodd" clip-rule="evenodd" d="M11.3852 10.689C10.9941 10.8916 9.47629 12.6263 9.26656 12.8929C9.09238 13.2874 8.75113 13.7815 8.39922 14.1015C8.02598 14.3858 7.81625 14.7769 7.86957 15.1394C7.86602 15.598 8.1184 15.9072 8.32457 16.2307C8.44543 16.3729 8.60895 16.4689 8.77957 16.4796C9.13504 16.5293 9.16703 16.636 9.34121 16.7035C10.0415 17.6562 11.083 18.3564 11.8295 18.9074C12.1702 19.0708 12.4823 19.288 12.7537 19.5508C12.9121 19.8697 12.9644 20.2309 12.903 20.5817L12.3485 22.6789C12.2525 23.2512 12.7502 23.1233 12.775 23.0095C13.0025 22.718 13.3367 22.9242 13.813 21.2393L14.4706 20.3506C14.4706 20.3506 14.7266 20.2511 14.7266 20.2262C15.1105 19.7641 14.8154 19.501 14.5986 19.4157L14.1187 19.238C14.1187 19.238 13.5606 18.6835 13.5357 18.6835C13.2727 17.9121 11.9717 16.2698 11.6731 16.0423C11.5264 15.8741 11.355 15.7291 11.1648 15.6122C10.8626 15.4665 10.7631 15.4167 10.5782 15.3421C10.4218 15.2816 10.532 15.111 10.6316 15.0328C11.6589 14.4747 12.4729 13.8526 13.4611 13.2199L13.6139 13.1168L13.2585 11.0906L11.6127 10.5112C11.5273 10.5717 11.4634 10.6285 11.3852 10.689V10.689Z" fill="white" stroke="black" stroke-width="0.3325"/>
<path fill-rule="evenodd" clip-rule="evenodd" d="M12.7608 21.346C12.7679 21.3246 13.7917 21.1362 13.7917 21.1362L13.6673 21.5166L12.6471 21.8223L12.7608 21.346V21.346Z" fill="#FFEC00"/>
<path d="M10.0913 17.4888C10.1965 17.2467 10.3497 17.0284 10.5415 16.847C10.7333 16.6655 10.9598 16.5248 11.2074 16.4331" stroke="black" stroke-width="0.28"/>
<path d="M12.7253 21.3528C12.7928 21.335 13.0843 21.2461 13.1696 21.2355L13.4398 21.1644C13.5428 21.1395 13.6033 21.1217 13.7099 21.1039C13.7917 21.0684 13.8734 21.0506 13.9587 21.0293M12.5369 21.9855C12.5475 21.9748 12.6186 21.9144 12.6684 21.8824C12.7288 21.8646 12.9279 21.7758 13.0061 21.7651L13.2478 21.694C13.3367 21.6727 13.39 21.6514 13.486 21.6336C13.5598 21.603 13.6359 21.578 13.7135 21.5589" stroke="black" stroke-width="0.30625"/>
<path d="M12.9563 17.6381H12.9421C12.9883 17.6381 12.9599 17.6346 12.8959 17.7092C12.8746 17.7697 12.6862 17.9012 12.544 17.9012C12.4729 17.9083 12.3698 17.9154 12.3023 17.9154C12.2809 17.9154 12.2561 17.9012 12.2347 17.9012M12.9421 20.6667H13.0132C13.0914 20.6667 13.1661 20.6774 13.2336 20.681C13.3082 20.681 13.3829 20.7023 13.4575 20.7023C13.5286 20.713 13.6211 20.7094 13.6957 20.7201C13.781 20.7201 13.8521 20.7378 13.941 20.7378C14.0121 20.7378 14.0512 20.7521 14.1329 20.7521L13.941 20.7378C14.0121 20.7378 14.0512 20.7521 14.1329 20.7521M12.4409 22.4583C12.448 22.4476 12.512 22.3872 12.5582 22.3552C12.6115 22.3374 12.7964 22.2521 12.8675 22.2379L13.0879 22.1668C13.1696 22.1455 13.2229 22.1242 13.3082 22.1064C13.3758 22.0744 13.4433 22.0531 13.5144 22.0353M13.8201 19.9025C13.7775 20.0233 13.8308 20.0553 13.8557 20.1051C13.8912 20.1549 13.9907 20.2331 14.1471 20.2828L14.3249 20.3397C14.3711 20.3468 14.3924 20.3575 14.428 20.3717M8.00109 15.4733H8.01531C7.9691 15.4733 7.99754 15.4769 8.07574 15.4165C8.12195 15.3631 8.16106 15.3383 8.20727 15.2849M8.95375 16.522C8.96086 16.522 9.80688 16.0954 9.8993 16.003C9.96328 15.9568 10.0095 15.9106 10.0877 15.8572C10.1375 15.8324 10.173 15.7968 10.2192 15.7684C10.2583 15.7115 10.3081 15.6795 10.3365 15.6262C10.3898 15.5835 10.3685 15.5338 10.4076 15.4804C10.4289 15.4236 10.468 15.3312 10.4787 15.2778M11.5558 15.9106C11.5593 15.9426 11.5416 16.035 11.5451 16.1061C11.5416 16.1878 11.4349 16.4438 11.307 16.522" stroke="black" stroke-width="0.28"/>
<path d="M10.0344 15.9035L10.3863 16.0101C10.6852 16.1427 10.9709 16.3034 11.2394 16.49C11.2927 16.5327 11.3887 16.5718 11.4278 16.6215C11.4847 16.6713 11.5273 16.7282 11.57 16.7851C11.6211 16.8394 11.6664 16.899 11.7051 16.9628C11.8686 17.0943 12.3094 18.0114 12.3236 18.0647C12.3494 18.1171 12.3731 18.1705 12.3947 18.2247C12.4302 18.2603 12.4516 18.3136 12.4836 18.3704C12.5155 18.4415 12.5511 18.4771 12.5902 18.534C12.6364 18.5695 12.7004 18.6299 12.7644 18.6655C12.8284 18.7224 12.8923 18.7437 12.9421 18.7828C13.0096 18.8112 13.7846 19.3018 13.8201 19.3267C13.8912 19.3835 14.1045 19.611 13.9552 19.771C13.8912 19.8243 13.8343 19.899 13.7775 19.931C13.7189 19.9795 13.6512 20.0157 13.5784 20.0376C13.23 20.1442 13.0523 20.1087 12.9848 20.1087H12.9137M8.32812 14.1724C8.4241 14.2079 8.385 14.1795 8.47387 14.2221C8.5343 14.247 8.5734 14.247 8.63383 14.2683C8.69426 14.2897 8.86844 14.3217 8.95375 14.407C9.01418 14.4603 9.06039 14.5065 9.13148 14.5492C9.20504 14.5979 9.28371 14.6384 9.36609 14.67C9.45141 14.702 9.54383 14.7376 9.62914 14.7411H10.0344H9.82109H10.0273" stroke="black" stroke-width="0.28"/>
<path fill-rule="evenodd" clip-rule="evenodd" d="M8.30324 15.1501C8.52363 15.1359 8.88977 15.2034 8.89688 15.2034L9.38387 15.1963C9.63625 15.1714 9.69313 15.0719 9.73578 15.0043C9.83176 14.8586 9.89574 14.8053 9.97039 14.6951C10.0877 14.6062 10.2512 14.8124 10.2548 14.8124C10.6707 15.2034 10.3401 15.6797 10.3152 15.6975C10.109 15.8824 10.0664 15.8966 9.94195 15.7757C9.81754 15.63 9.77844 15.5624 9.67535 15.5127C9.47985 15.4167 9.0675 15.4913 9.06039 15.4913L8.84711 15.5695C8.74403 15.6051 8.68004 15.694 8.50942 15.7259C8.33168 15.7366 8.27125 15.7188 8.18594 15.5767C8.06508 15.3954 8.12551 15.175 8.30324 15.1501V15.1501Z" fill="#FFE606" stroke="black" stroke-width="0.28"/>
<path fill-rule="evenodd" clip-rule="evenodd" d="M19.8133 6.23484C19.7813 6.2384 19.4934 6.37703 19.4934 6.38769C19.4934 6.39836 19.2446 7.09152 19.241 7.08086C19.2375 7.07019 19.0562 6.47656 19.0384 6.49078C19.0206 6.50144 18.4057 6.57254 18.3986 6.57609C18.3879 6.5832 18.8607 5.98246 18.8607 5.98246L18.7967 5.33906L19.3014 5.53101L19.8453 5.11867C19.8524 5.11511 19.7031 5.67675 19.7031 5.67675L19.9733 6.05C19.9733 6.05 19.8204 6.2064 19.8133 6.23484V6.23484Z" fill="#FFEF00" stroke="black" stroke-width="0.28"/>
<path fill-rule="evenodd" clip-rule="evenodd" d="M13.7775 13.3228C14.1471 13.568 16.4008 14.0408 16.7385 14.0906C17.1651 14.0479 17.7694 14.1012 18.2173 14.2505C18.6474 14.4389 19.0882 14.4283 19.3832 14.2079C19.7813 13.9875 19.9271 13.6107 20.1084 13.2766C20.1759 13.0988 20.1795 12.9104 20.1048 12.754C19.9697 12.4234 20.0515 12.3417 20.023 12.1568C20.51 11.0833 20.6096 9.83207 20.7269 8.90429C20.7023 8.52775 20.7383 8.14971 20.8335 7.78457C21.0325 7.49124 21.3203 7.26946 21.6546 7.15183L23.759 6.60797C24.3029 6.4089 23.9474 6.03922 23.8337 6.07476C23.4711 6.01789 23.4853 5.62687 21.7826 6.03922L20.6878 5.89703C20.6878 5.89703 20.4745 5.7264 20.4532 5.73707C19.8631 5.63043 19.7778 6.01433 19.8133 6.24539L19.8915 6.75015C19.8915 6.75015 19.6782 7.5073 19.6925 7.53218C19.1521 8.13648 18.3452 10.0916 18.2919 10.4648C18.2706 10.8167 18.1355 10.7527 18.1711 11.094C18.1711 11.3641 18.1426 11.1971 18.2315 11.748C18.2528 11.9116 18.0502 11.9009 17.9329 11.8547C16.9411 11.2291 15.9991 10.8238 14.9647 10.2764L14.8012 10.1911L13.2123 11.4921L13.5109 13.2126C13.6033 13.2588 13.6886 13.2837 13.7775 13.3228V13.3228Z" fill="white" stroke="black" stroke-width="0.3325"/>
<path fill-rule="evenodd" clip-rule="evenodd" d="M22.3905 6.90326C22.3691 6.90682 21.7044 6.10701 21.7044 6.10701L22.0954 6.02881L22.8632 6.76818L22.3905 6.90326V6.90326Z" fill="#FFEC00"/>
<path d="M20.3394 11.1191C20.0767 11.1463 19.8111 11.1201 19.5588 11.0419C19.3065 10.9637 19.0726 10.8352 18.8713 10.6641" stroke="black" stroke-width="0.28"/>
<path d="M22.4154 6.93158C22.3691 6.88182 22.1487 6.66854 22.0954 6.59744C22.0329 6.52965 21.9677 6.46443 21.8999 6.40193L21.7151 6.19576C21.6493 6.13843 21.5876 6.07667 21.5302 6.01092M23.0588 6.78229C23.0056 6.7667 22.9543 6.74524 22.9059 6.7183C22.8632 6.67564 22.6891 6.54057 22.6393 6.48369C22.5816 6.42176 22.5211 6.36245 22.458 6.30596L22.2874 6.12822C22.2254 6.07937 22.1671 6.0259 22.1132 5.96826" stroke="black" stroke-width="0.30625"/>
<path d="M19.0633 8.5492L19.0704 8.56342C19.0491 8.52432 19.0597 8.5492 19.1557 8.56342C19.2197 8.55631 19.4259 8.65584 19.497 8.7767C19.5439 8.8434 19.5878 8.9122 19.6285 8.98287C19.6391 9.00064 19.6391 9.03264 19.6498 9.04686M21.7115 7.07756L21.7044 7.06689L21.676 7.01357C21.6404 6.94959 21.612 6.87139 21.58 6.81451C21.5444 6.75053 21.5267 6.67588 21.4911 6.61189C21.4627 6.5408 21.4165 6.46971 21.388 6.39506C21.3489 6.31686 21.3312 6.24932 21.285 6.17111C21.2494 6.10713 21.2423 6.06447 21.2032 5.99693L21.285 6.17111C21.2494 6.10713 21.2423 6.06447 21.2032 5.99693M23.5209 6.63678C23.5066 6.63678 23.4213 6.60834 23.3751 6.58346C23.3325 6.54791 23.1654 6.42705 23.1192 6.37018C23.0647 6.31657 23.0078 6.26556 22.9486 6.21732C22.8881 6.15334 22.8455 6.11779 22.7886 6.05381C22.7292 6.01098 22.6733 5.96343 22.6215 5.91162M20.6167 6.68299C20.7446 6.66166 20.7446 6.59768 20.7766 6.55502C20.8015 6.49459 20.8193 6.37018 20.7873 6.21021C20.7722 6.15047 20.7603 6.08995 20.7518 6.02893C20.734 5.98627 20.7304 5.95783 20.7269 5.92229M19.6071 13.9239L19.6 13.9132C19.6249 13.9488 19.6143 13.9274 19.5218 13.8883C19.4507 13.8741 19.4116 13.8528 19.3441 13.8386M20.055 12.5838C20.0515 12.5731 19.2659 12.047 19.1415 12.0115C19.0704 11.9759 18.9993 11.9617 18.9175 11.919C18.8713 11.8871 18.8251 11.8728 18.7753 11.8479C18.7078 11.8408 18.6545 11.8124 18.5976 11.8124C18.5301 11.7911 18.4981 11.8337 18.4305 11.8231L18.2244 11.8586M18.2457 10.6145C18.2706 10.5931 18.363 10.5647 18.4234 10.5256C18.4945 10.4901 18.7718 10.4545 18.8998 10.5327" stroke="black" stroke-width="0.28"/>
<path d="M18.9815 11.944L18.9069 11.5885C18.8759 11.2634 18.8759 10.9361 18.9069 10.611C18.9175 10.5399 18.9033 10.4404 18.9282 10.3799C18.946 10.3053 18.9744 10.2377 18.9993 10.1738C19.0277 10.0955 19.0562 10.028 19.0882 9.97113C19.1237 9.76496 19.7067 8.92961 19.7458 8.89406C19.7794 8.84527 19.815 8.79783 19.8524 8.75188C19.8666 8.70211 19.9022 8.6559 19.9377 8.59902C19.9839 8.53859 19.9982 8.49238 20.0266 8.43195C20.0337 8.37152 20.055 8.28266 20.055 8.21156C20.0728 8.12625 20.0622 8.06227 20.0728 7.99828C20.0622 7.92719 20.1084 7.01008 20.1155 6.96742C20.1297 6.87855 20.2186 6.57996 20.4354 6.63328C20.5136 6.66172 20.606 6.67594 20.6593 6.70793C20.7375 6.72926 20.798 6.78613 20.8548 6.82879C21.1143 7.08117 21.1712 7.25535 21.2032 7.31578L21.2388 7.37977M18.3097 14.2545L18.3026 14.2403C18.3204 14.2759 18.3097 14.2581 18.2848 14.1834L18.2493 13.9702C18.235 13.9026 18.203 13.828 18.2137 13.7853C18.1888 13.7213 18.203 13.6645 18.2137 13.6005C18.2279 13.5187 18.2386 13.4618 18.2386 13.3836C18.2493 13.2877 18.2386 13.2166 18.2457 13.1241C18.2208 13.053 18.2173 12.9855 18.1746 12.9109C18.1391 12.8398 18.1142 12.7722 18.0751 12.6976L17.972 12.5198L18.0751 12.6976L17.972 12.5198" stroke="black" stroke-width="0.28"/>
<path fill-rule="evenodd" clip-rule="evenodd" d="M19.1806 13.8243C19.0597 13.6394 18.9353 13.2875 18.9318 13.2804L18.6865 12.861C18.5443 12.6477 18.427 12.6477 18.3488 12.6477C18.1711 12.6335 18.0964 12.6015 17.9649 12.5908C17.8298 12.5339 17.9293 12.2922 17.9258 12.2851C18.0644 11.7341 18.6403 11.7874 18.6652 11.8017C18.9318 11.887 18.9638 11.9225 18.9211 12.086C18.85 12.2709 18.8145 12.3349 18.818 12.4486C18.8322 12.669 19.0988 12.9925 19.1024 12.9996L19.2801 13.1418C19.3583 13.2129 19.465 13.2271 19.5787 13.3622C19.6747 13.5115 19.6889 13.5719 19.6072 13.7176C19.5041 13.9096 19.2872 13.9665 19.1806 13.8243V13.8243Z" fill="#FFE606" stroke="black" stroke-width="0.28"/>
<path fill-rule="evenodd" clip-rule="evenodd" d="M5.52703 8.71607C5.55192 8.7374 5.82563 8.90447 5.83274 8.89381C5.83984 8.88314 6.55434 8.71963 6.55078 8.73029C6.54723 8.74096 6.1491 9.21373 6.16688 9.22084C6.18465 9.2315 6.58278 9.70783 6.59344 9.71139L5.83985 9.6474L5.33508 10.0562L5.22133 9.52654L4.58149 9.29904C4.57082 9.29549 5.1218 9.11064 5.1218 9.11064L5.28531 8.68408C5.28531 8.68408 5.4986 8.72318 5.52703 8.71607V8.71607Z" fill="#FFEF00" stroke="black" stroke-width="0.28"/>
<path fill-rule="evenodd" clip-rule="evenodd" d="M14.7621 9.88181C14.7657 9.43747 13.9268 7.29044 13.7846 6.98118C13.4787 6.58652 13.2496 6.13798 13.1092 5.65884C13.031 5.19673 12.7821 4.8306 12.4338 4.70974C12.0321 4.49646 11.6375 4.57821 11.2607 4.61021C11.0723 4.64931 10.9124 4.75239 10.8235 4.89814C10.6209 5.18962 10.5071 5.16829 10.3685 5.29626C9.20258 5.47399 8.10062 6.07829 7.26172 6.48708C6.96019 6.71362 6.6241 6.89007 6.2664 7.00962C5.79363 7.01317 5.44883 6.78923 5.28531 6.66837L3.67859 5.21095C3.21648 4.86259 3.09918 5.36024 3.18804 5.43845C3.34445 5.77259 3.01031 5.97165 4.28289 7.17314L4.76633 8.16845C4.76633 8.16845 4.73789 8.4386 4.76277 8.45282C4.99383 9.0038 5.36707 8.86517 5.53769 8.70876L5.91805 8.36396C5.91805 8.36396 6.66453 8.12935 6.67875 8.10446C7.48211 8.22532 9.55805 7.83075 9.8993 7.66724C10.2086 7.49661 10.2263 7.64235 10.4929 7.42552C10.7169 7.27622 10.596 7.39353 11.0084 7.01673C11.1328 6.91009 11.2359 7.08782 11.2572 7.20868C11.2821 8.38173 11.4562 9.38771 11.5629 10.5572L11.5842 10.7349L13.5429 11.357L14.819 10.1626C14.8048 10.0595 14.7834 9.97423 14.7657 9.87825L14.7621 9.88181Z" fill="white" stroke="black" stroke-width="0.3325"/>
<path fill-rule="evenodd" clip-rule="evenodd" d="M4.67391 6.19213C4.69168 6.20635 4.38598 7.20166 4.38598 7.20166L4.10516 6.91729L4.30422 5.86865L4.67391 6.18857V6.19213Z" fill="#FFEC00"/>
<path d="M9.32344 5.59863C9.49043 5.803 9.61431 6.03907 9.68762 6.2926C9.76093 6.54613 9.78215 6.81188 9.75 7.07383" stroke="black" stroke-width="0.28"/>
<path d="M4.68457 6.1568C4.67035 6.22434 4.61348 6.52293 4.58149 6.60469C4.55878 6.69511 4.53981 6.78642 4.52461 6.8784L4.45352 7.145C4.44285 7.23031 4.42508 7.31562 4.4002 7.40094M4.20824 5.69824C4.21535 5.71246 4.23668 5.80488 4.24024 5.86176C4.22957 5.92219 4.2118 6.13902 4.18692 6.21723C4.16906 6.29831 4.15483 6.38015 4.14426 6.4625L4.08383 6.70422C4.07775 6.78201 4.06587 6.85925 4.04828 6.93527" stroke="black" stroke-width="0.30625"/>
<path d="M7.87668 8.0692L7.88024 8.05853C7.86246 8.10119 7.88024 8.07631 7.83758 7.98744C7.79492 7.93767 7.76649 7.71017 7.83047 7.58576C7.86 7.50954 7.89322 7.43481 7.93 7.36181C7.93711 7.34404 7.96555 7.32627 7.97266 7.31205M5.19289 6.6651L5.18934 6.67576L5.1609 6.72908C5.12535 6.80017 5.07914 6.85705 5.04715 6.91748C5.0116 6.98502 4.95828 7.03834 4.92629 7.10588C4.88363 7.16631 4.84453 7.24806 4.79832 7.30849C4.75567 7.38314 4.70945 7.44002 4.67035 7.51822C4.63481 7.5822 4.60281 7.61064 4.56727 7.68174L4.67035 7.51822C4.63481 7.5822 4.60281 7.61064 4.56727 7.68174M3.83145 5.39252C3.83856 5.40674 3.86699 5.49205 3.86699 5.54537C3.85988 5.60224 3.85277 5.80486 3.83145 5.8724C3.81723 5.9506 3.80301 6.02525 3.7959 6.10345L3.74258 6.3274C3.73873 6.39913 3.72922 6.47045 3.71414 6.54068M5.46305 7.79549C5.37418 7.70306 5.32086 7.73506 5.26754 7.7315C5.20356 7.74217 5.08981 7.79549 4.9725 7.90924C4.93117 7.95552 4.88726 7.99943 4.84098 8.04076C4.81609 8.07631 4.79477 8.09408 4.76988 8.11896M12.0748 4.67092L12.0677 4.68513C12.089 4.64248 12.0712 4.66736 12.0925 4.76334C12.1174 4.83088 12.121 4.87709 12.1494 4.94107M10.7062 5.03349C10.7027 5.0406 10.6884 5.9897 10.7275 6.11056C10.7418 6.18877 10.7631 6.25275 10.7738 6.34873C10.7738 6.40205 10.7844 6.45181 10.788 6.50513C10.8235 6.56556 10.8271 6.62599 10.8591 6.67576C10.8768 6.7433 10.9302 6.74685 10.9586 6.80728C11.0013 6.84994 11.0652 6.92814 11.1043 6.96013M10.0486 7.62486C10.0202 7.6142 9.94195 7.55377 9.88152 7.52533C9.81043 7.48267 9.6327 7.27295 9.62203 7.12365" stroke="black" stroke-width="0.28"/>
<path d="M10.7595 6.28108L10.5036 6.54057C10.2485 6.74368 9.97474 6.92221 9.68602 7.07377C9.62203 7.10221 9.54383 7.1733 9.47984 7.18041C9.40875 7.21241 9.33766 7.22307 9.26656 7.23729C9.18836 7.25506 9.11727 7.27284 9.05328 7.27284C8.85777 7.35815 7.84469 7.32616 7.78781 7.31549C7.72845 7.31427 7.66916 7.31071 7.61008 7.30483C7.56387 7.31549 7.50344 7.31194 7.43945 7.31549C7.36125 7.30838 7.31504 7.3226 7.2475 7.33326C7.19773 7.35815 7.10887 7.39014 7.05199 7.42924C6.97023 7.46123 6.92047 7.50389 6.86359 7.52877C6.57133 7.71302 6.27503 7.8908 5.97492 8.06198C5.89316 8.09752 5.59457 8.18639 5.51992 7.97666C5.50215 7.8949 5.46305 7.80959 5.45949 7.74561C5.43816 7.67096 5.44883 7.5892 5.45594 7.51811C5.52703 7.16264 5.63723 7.02045 5.66922 6.96002L5.70477 6.89604M13.063 5.5808L13.0559 5.59147C13.0736 5.55592 13.0665 5.57725 13.0168 5.63768C12.9634 5.68034 12.903 5.74432 12.8568 5.78698C12.8106 5.83319 12.7644 5.89717 12.7217 5.91494C12.6791 5.97182 12.6257 5.98604 12.5689 6.02158C12.4994 6.04522 12.4327 6.0762 12.3698 6.11401C12.2845 6.16022 12.2276 6.20287 12.1494 6.24908C12.1032 6.31307 12.0534 6.35217 12.0072 6.42682C11.9717 6.49436 11.929 6.55123 11.8899 6.62588L11.7939 6.81073L11.8899 6.62588L11.7939 6.81073M12.3982 10.5858L12.416 10.5609C12.3911 10.6107 12.3982 10.5965 12.4231 10.5147C12.4231 10.4187 12.4445 10.3014 12.448 10.2126C12.4622 10.1237 12.4764 10.0242 12.4764 9.92819C12.4729 9.82155 12.4729 9.72557 12.4551 9.62248C12.4551 9.52651 12.4445 9.42698 12.4409 9.331C12.4407 9.24256 12.4311 9.1544 12.4125 9.06795C12.4106 8.98685 12.4023 8.90602 12.3876 8.82623C12.3982 8.75869 12.3805 8.69826 12.3663 8.6485L12.3023 8.3819L12.2489 8.16862C12.2383 8.09041 12.1956 7.99088 12.1779 7.91979C12.151 7.86335 12.1319 7.80357 12.121 7.74205C12.0961 7.68518 12.0641 7.62119 12.0499 7.55721L11.9717 7.36526L11.9006 7.18041C11.8757 7.10932 11.8402 7.04889 11.8259 6.97424C11.8011 6.94936 11.7939 6.92448 11.7797 6.90315" stroke="black" stroke-width="0.28"/>
<path fill-rule="evenodd" clip-rule="evenodd" d="M12.2241 5.08676C12.1352 5.28938 11.9077 5.58442 11.9041 5.59153L11.6909 6.0252C11.5913 6.26336 11.6553 6.35934 11.6944 6.42688C11.7797 6.57973 11.7975 6.66149 11.8615 6.77879C11.8864 6.92098 11.6269 6.9743 11.6233 6.97786C11.0901 7.1627 10.8164 6.65083 10.8129 6.62239C10.7418 6.35579 10.7524 6.30958 10.9159 6.25626C11.1043 6.21004 11.179 6.21004 11.2714 6.14251C11.4491 6.01098 11.5736 5.6093 11.5771 5.60219L11.602 5.37825C11.6162 5.27161 11.5664 5.17208 11.6198 5.00501C11.6909 4.84504 11.7335 4.79883 11.9041 4.78461C12.1174 4.76684 12.288 4.91969 12.2241 5.08676Z" fill="#FFE606" stroke="black" stroke-width="0.28"/>
<path fill-rule="evenodd" clip-rule="evenodd" d="M11.5202 10.3121C11.442 10.241 13.0416 10.895 13.262 10.9021C13.5642 10.7919 14.8083 9.73975 14.8083 9.73975C14.819 9.84639 14.8652 10.1094 14.9861 10.1663C14.5026 10.5573 14.0689 10.9306 13.5891 11.3216C13.6246 11.9401 13.5109 12.5942 13.8237 13.2838C13.8237 13.2838 13.4469 13.2909 13.4469 13.2838C13.1163 12.9532 12.999 11.3571 12.999 11.3571L11.4207 10.664C11.4989 10.6142 11.5593 10.4613 11.5273 10.3156L11.5202 10.3121Z" fill="#FFEF00" stroke="black" stroke-width="0.28"/>
<path d="M13.0452 11.9473C13.0736 11.9295 12.7608 12.0966 12.6755 12.1357C11.2181 12.9141 10.4716 14.0445 10.4254 14.0872C10.4005 14.1334 10.3543 14.1974 10.3116 14.2614C10.2761 14.3147 10.2263 14.368 10.1943 14.4213C10.1354 14.5037 10.0726 14.5832 10.0059 14.6595C9.99883 14.695 10.0308 14.6488 10.0202 14.6701M14.0405 11.0266C14.0121 11.0124 14.3036 11.215 14.3782 11.2683C15.7361 12.2067 17.0798 12.3596 17.1402 12.3809C17.1971 12.3809 17.2753 12.3916 17.3499 12.4023C17.4104 12.4058 17.4814 12.4271 17.5454 12.4307C17.6165 12.4414 17.7729 12.4662 17.844 12.4911C17.8796 12.4805 17.8227 12.4733 17.844 12.4733" stroke="black" stroke-width="0.28"/>
</g>
</g>
<defs>
<clipPath id="clip0_1_13452">
<rect width="26" height="26" fill="white"/>
</clipPath>
</defs>
</svg>
