<svg width="26" height="26" viewBox="0 0 26 26" fill="none" xmlns="http://www.w3.org/2000/svg">
<mask id="mask0_1_17327" style="mask-type:alpha" maskUnits="userSpaceOnUse" x="0" y="0" width="26" height="26">
<circle cx="13" cy="13" r="13" fill="#634848"/>
</mask>
<g mask="url(#mask0_1_17327)">
<g clip-path="url(#clip0_1_17327)">
<path fill-rule="evenodd" clip-rule="evenodd" d="M31 22.5442C30.595 22.9071 30.2519 23.7358 29.1775 23.7358C27.0344 23.7358 26.5 21.9754 24.8913 21.9754C23.8225 21.9754 23.2881 23.7358 22.2137 23.7358C20.0706 23.7358 19.5362 21.9754 17.9275 21.9754C16.8587 21.9754 16.3244 23.7358 15.2556 23.7358C13.1069 23.7358 12.5725 21.9754 10.9637 21.9754C9.895 21.9754 9.355 23.7358 8.28625 23.7358C6.14312 23.7358 5.60875 21.9754 4 21.9754C2.93125 21.9754 2.39125 23.7358 1.3225 23.7358C-0.82625 23.7358 -1.36063 21.9754 -2.96375 21.9754C-4.0325 21.9754 -4.35875 23.2321 -5 23.2321V25.4908C-4.35875 25.4908 -4.03813 24.245 -2.95813 24.245C-1.355 24.245 -0.820625 26 1.31688 26C2.39125 26 2.92562 24.2396 4 24.2396C5.60875 24.2396 6.14312 26 8.29187 26C9.36062 26 9.88937 24.2396 10.9637 24.2396C12.5725 24.2396 13.1069 26 15.25 26C16.3187 26 16.8587 24.2396 17.9275 24.2396C19.5362 24.2396 20.0706 26 22.2137 26C23.2825 26 23.8225 24.2396 24.8913 24.2396C26.5 24.2396 27.04 26 29.1775 26C30.2462 26 30.595 25.5017 31 25.1442V22.5442ZM31 18.1458C30.595 18.5088 30.2519 19.3375 29.1775 19.3375C27.0344 19.3375 26.5 17.5771 24.8913 17.5771C23.8225 17.5771 23.2881 19.3375 22.2137 19.3375C20.0706 19.3375 19.5362 17.5771 17.9275 17.5771C16.8587 17.5771 16.3244 19.3375 15.2556 19.3375C13.1069 19.3375 12.5725 17.5771 10.9637 17.5771C9.895 17.5771 9.355 19.3375 8.28625 19.3375C6.14312 19.3375 5.60875 17.5771 4 17.5771C2.93125 17.5771 2.39125 19.3375 1.3225 19.3375C-0.82625 19.3375 -1.36063 17.5771 -2.96375 17.5771C-4.0325 17.5771 -4.35875 18.8338 -5 18.8338V21.0979C-4.35875 21.0979 -4.03813 19.8467 -2.95813 19.8467C-1.355 19.8467 -0.820625 21.6071 1.31688 21.6071C2.39125 21.6071 2.92562 19.8467 4 19.8467C5.60875 19.8467 6.14312 21.6071 8.29187 21.6071C9.36062 21.6071 9.88937 19.8467 10.9637 19.8467C12.5725 19.8467 13.1069 21.6071 15.2556 21.6071C16.3244 21.6071 16.8587 19.8467 17.9275 19.8467C19.5362 19.8467 20.0706 21.6071 22.2137 21.6071C23.2825 21.6071 23.8225 19.8467 24.8913 19.8467C26.5 19.8467 27.04 21.6071 29.1775 21.6071C30.2462 21.6071 30.595 21.1088 31 20.7513V18.1458ZM31 13.7529C30.595 14.1158 30.2519 14.9446 29.1775 14.9446C27.0344 14.9446 26.5 13.1842 24.8913 13.1842C23.8225 13.1842 23.2881 14.9446 22.2137 14.9446C20.0706 14.9446 19.5362 13.1842 17.9275 13.1842C16.8587 13.1842 16.3244 14.9446 15.2556 14.9446C13.1069 14.9446 12.5725 13.1842 10.9637 13.1842C9.895 13.1842 9.355 14.9446 8.28625 14.9446C6.14312 14.9446 5.60875 13.1842 4 13.1842C2.93125 13.1842 2.39125 14.9446 1.3225 14.9446C-0.82625 14.9446 -1.36063 13.1842 -2.96375 13.1842C-4.0325 13.1842 -4.35875 14.4408 -5 14.4408V16.705C-4.35875 16.705 -4.03813 15.4483 -2.95813 15.4483C-1.355 15.4483 -0.820625 17.2088 1.31688 17.2088C2.39125 17.2088 2.92562 15.4483 4 15.4483C5.60875 15.4483 6.14312 17.2088 8.29187 17.2088C9.36062 17.2088 9.88937 15.4483 10.9637 15.4483C12.5725 15.4483 13.1069 17.2088 15.2556 17.2088C16.3244 17.2088 16.8587 15.4483 17.9275 15.4483C19.5362 15.4483 20.0706 17.2088 22.2137 17.2088C23.2825 17.2088 23.8225 15.4483 24.8913 15.4483C26.5 15.4483 27.04 17.2088 29.1775 17.2088C30.2462 17.2088 30.595 16.7104 31 16.3529V13.7529ZM31 9.36C30.595 9.7175 30.2519 10.5517 29.1775 10.5517C27.0344 10.5517 26.5 8.79125 24.8913 8.79125C23.8225 8.79125 23.2881 10.5517 22.2137 10.5517C20.0706 10.5517 19.5362 8.79125 17.9275 8.79125C16.8587 8.79125 16.3244 10.5517 15.2556 10.5517C13.1069 10.5517 12.5725 8.79125 10.9637 8.79125C9.895 8.79125 9.355 10.5517 8.28625 10.5517C6.14312 10.5517 5.60875 8.79125 4 8.79125C2.93125 8.79125 2.39125 10.5517 1.3225 10.5517C-0.82625 10.5517 -1.36063 8.79125 -2.96375 8.79125C-4.0325 8.79125 -4.35875 10.0479 -5 10.0479V12.3067C-4.35875 12.3067 -4.03813 11.0608 -2.95813 11.0608C-1.355 11.0608 -0.820625 12.8158 1.31688 12.8158C2.39125 12.8158 2.92562 11.0554 4 11.0554C5.60875 11.0554 6.14312 12.8158 8.29187 12.8158C9.36062 12.8158 9.88937 11.0554 10.9637 11.0554C12.5725 11.0554 13.1069 12.8158 15.2556 12.8158C16.3244 12.8158 16.8587 11.0554 17.9275 11.0554C19.5362 11.0554 20.0706 12.8158 22.2137 12.8158C23.2825 12.8158 23.8225 11.0554 24.8913 11.0554C26.5 11.0554 27.04 12.8158 29.1775 12.8158C30.2462 12.8158 30.595 12.3121 31 11.9546V9.36ZM31 4.95625C30.595 5.31917 30.2519 6.15333 29.1775 6.15333C27.0344 6.15333 26.5 4.39292 24.8913 4.39292C23.8225 4.39292 23.2881 6.15333 22.2137 6.15333C20.0706 6.15333 19.5362 4.39292 17.9275 4.39292C16.8587 4.39292 16.3244 6.15333 15.2556 6.15333C13.1069 6.15333 12.5725 4.39292 10.9637 4.39292C9.895 4.39292 9.355 6.15333 8.28625 6.15333C6.14312 6.15333 5.60875 4.39292 4 4.39292C2.93125 4.39292 2.39125 6.15333 1.3225 6.15333C-0.82625 6.15333 -1.36063 4.39292 -2.96375 4.39292C-4.0325 4.39833 -4.35875 5.655 -5 5.655V7.91917C-4.35875 7.91917 -4.03813 6.66792 -2.96375 6.66792C-1.36063 6.66792 -0.820625 8.42833 1.3225 8.42833C2.39125 8.42833 2.92562 6.66792 4 6.66792C5.60875 6.66792 6.14312 8.42833 8.29187 8.42833C9.36062 8.42833 9.88938 6.66792 10.9581 6.66792C12.5725 6.66792 13.1069 8.42833 15.25 8.42833C16.3187 8.42833 16.8587 6.66792 17.9275 6.66792C19.5362 6.66792 20.0706 8.42833 22.2137 8.42833C23.2825 8.42833 23.8225 6.66792 24.8913 6.66792C26.5 6.66792 27.04 8.42833 29.1775 8.42833C30.2462 8.42833 30.595 7.92458 31 7.56708V4.96708V4.95625ZM31 0.56875C30.595 0.92625 30.2519 1.76042 29.1775 1.76042C27.0344 1.76042 26.5 0 24.8913 0C23.8225 0 23.2881 1.76042 22.2137 1.76042C20.0706 1.76042 19.5362 0 17.9275 0C16.8587 0 16.3244 1.76042 15.2556 1.76042C13.1069 1.76042 12.5725 0 10.9637 0C9.895 0 9.355 1.76042 8.28625 1.76042C6.1375 1.76042 5.60875 0 4 0C2.93125 0 2.39125 1.76042 1.3225 1.76042C-0.82625 1.76042 -1.36063 0 -2.96375 0C-4.0325 0 -4.35875 1.25667 -5 1.25667V3.52625C-4.35875 3.52083 -4.03813 2.275 -2.96375 2.275C-1.36063 2.275 -0.820625 4.03 1.3225 4.03C2.39125 4.03 2.92562 2.275 4 2.275C5.60875 2.275 6.14312 4.03 8.29187 4.03C9.36062 4.03 9.88938 2.275 10.9581 2.275C12.5725 2.275 13.1069 4.03 15.25 4.03C16.3187 4.03 16.8587 2.275 17.9275 2.275C19.5362 2.275 20.0706 4.03 22.2137 4.03C23.2825 4.03 23.8225 2.275 24.8913 2.275C26.5 2.275 27.04 4.03 29.1775 4.03C30.2462 4.03 30.595 3.53167 31 3.17417V0.56875Z" fill="#000063"/>
<path fill-rule="evenodd" clip-rule="evenodd" d="M21.7075 7.13379L21.5106 24.9546C21.5106 25.8917 22.3937 25.8917 22.4894 24.9546L22.2925 7.13379H21.7075Z" fill="#A24300" stroke="white" stroke-width="0.2625"/>
<path fill-rule="evenodd" clip-rule="evenodd" d="M23.7269 13.7585L23.1081 13.1139L22.9619 13.7693L22.6975 12.8214L22.4444 13.298L22.3994 12.2905L22.1519 12.7672L22.1069 11.7597L21.8594 12.2364L21.7187 11.0501L21.4712 11.5268L21.325 10.346L21.0719 10.8226L20.9312 9.63637L20.8581 9.04053L20.9819 8.80762L21.3081 8.92137L21.82 9.39262L22.8494 10.3351L22.2137 10.1022L23.2431 11.0447L22.6019 10.8118L23.6312 11.7489L22.99 11.5214L23.9237 12.2797L23.2881 12.0522L24.2162 12.8105L23.5806 12.583L24.2894 13.4064L23.5525 12.9947L23.7212 13.7693L23.7269 13.7585Z" fill="#006D00" stroke="white" stroke-width="0.225"/>
<path d="M23.7269 13.7584L20.9875 8.80762M22.8494 10.3351L21.3813 9.51178L21.0775 10.8172" stroke="black" stroke-width="0.0375"/>
<path d="M23.2488 11.0396L21.7694 10.2217L21.4713 11.5271" stroke="black" stroke-width="0.0375"/>
<path d="M23.6369 11.7432L22.1631 10.9307L21.8594 12.2307" stroke="black" stroke-width="0.0375"/>
<path d="M23.9294 12.2793L22.5513 11.6348L22.1575 12.7723" stroke="black" stroke-width="0.0375"/>
<path d="M24.2219 12.8106L22.8437 12.166L22.45 13.3035" stroke="black" stroke-width="0.0375"/>
<path d="M24.295 13.4009L23.0406 12.5234L22.9619 13.7693" stroke="black" stroke-width="0.0375"/>
<path fill-rule="evenodd" clip-rule="evenodd" d="M16.5438 5.30335L17.545 5.67168L17.2525 4.94043L18.13 5.76918L18.0456 5.17335L18.7544 6.17001L18.67 5.57418L19.3788 6.57085L19.2944 5.97501L20.2113 7.10168L20.1269 6.50585L21.0438 7.63251L20.965 7.03668L21.8763 8.16335L22.3375 8.72668L22.3769 9.0246L22 9.0571L21.2125 8.82418L19.6263 8.35293L20.3744 8.29335L18.7938 7.8221L19.5419 7.76251L17.9613 7.29126L18.7094 7.22626L17.3369 6.89043L18.085 6.83085L16.7125 6.49501L17.4606 6.43001L16.2513 5.92626L17.2131 5.99668L16.5494 5.30876L16.5438 5.30335Z" fill="#006D00" stroke="white" stroke-width="0.25"/>
<path d="M16.5437 5.30273L22.3769 9.02398M19.6262 8.35232L21.5444 8.49315L20.965 7.03607" stroke="black" stroke-width="0.0375"/>
<path d="M18.7937 7.82167L20.7062 7.9625L20.1269 6.5" stroke="black" stroke-width="0.0375"/>
<path d="M17.9613 7.29042L19.8738 7.43125L19.2944 5.96875" stroke="black" stroke-width="0.0375"/>
<path d="M17.3313 6.89047L19.0469 6.89589L18.67 5.57422" stroke="black" stroke-width="0.0375"/>
<path d="M16.7125 6.4891L18.4225 6.49993L18.0456 5.17285" stroke="black" stroke-width="0.0375"/>
<path d="M16.2513 5.92626L18.0006 6.23501L17.2581 4.94043" stroke="black" stroke-width="0.0375"/>
<path fill-rule="evenodd" clip-rule="evenodd" d="M28.1763 6.54316L27.3438 7.13358L28.2663 7.23108L26.9781 7.52358L27.6644 7.71858L26.275 7.81608L26.9613 8.01108L25.5719 8.10858L26.2525 8.309L24.6269 8.504L25.3131 8.699L23.6875 8.894L24.3738 9.089L22.7481 9.284L21.9325 9.3815L21.595 9.284L21.7188 8.9915L22.3206 8.504L23.5188 7.52358L23.26 8.10858L24.4581 7.13358L24.1994 7.71858L25.3975 6.74358L25.1388 7.32858L26.1063 6.44566L25.8531 7.03608L26.8094 6.15316L26.5563 6.73816L27.625 6.05566L27.1356 6.74358L28.1819 6.54858L28.1763 6.54316Z" fill="#006D00" stroke="white" stroke-width="0.25"/>
<path d="M28.1763 6.54297L21.595 9.2838M23.5131 7.52338L22.5344 8.8938L24.3738 9.0888" stroke="black" stroke-width="0.0375"/>
<path d="M24.4581 7.13379L23.4738 8.50421L25.3131 8.69921" stroke="black" stroke-width="0.0375"/>
<path d="M25.3975 6.73828L24.4131 8.1087L26.2525 8.30911" stroke="black" stroke-width="0.0375"/>
<path d="M26.1062 6.44629L25.3581 7.71921L26.9612 8.01171" stroke="black" stroke-width="0.0375"/>
<path fill-rule="evenodd" clip-rule="evenodd" d="M28.0413 12.4743L27.0063 12.1872L27.3775 12.8914L26.4156 12.133L26.5619 12.7126L25.7462 11.7809L25.8981 12.3659L25.0825 11.4289L25.2288 12.0139L24.1881 10.963L24.34 11.548L23.2994 10.4972L23.4512 11.0822L22.4106 10.0314L21.8931 9.50594L21.82 9.21344L22.1913 9.14844L23.0069 9.32177L24.6381 9.66844L23.8956 9.7876L25.5269 10.1343L24.7844 10.2534L26.4156 10.6001L25.6731 10.7247L27.0794 10.9522L26.3369 11.0714L27.7431 11.2989L27.0063 11.4289L28.2606 11.8351H27.3044L28.0356 12.4851L28.0413 12.4743Z" fill="#006D00" stroke="white" stroke-width="0.25"/>
<path d="M28.0413 12.4747L21.82 9.21387M24.6325 9.66887L22.7088 9.6797L23.4512 11.088" stroke="black" stroke-width="0.0375"/>
<path d="M25.5213 10.1348L23.5975 10.1456L24.34 11.5539" stroke="black" stroke-width="0.0375"/>
<path d="M26.41 10.6006L24.4863 10.6114L25.2288 12.0198" stroke="black" stroke-width="0.0375"/>
<path d="M27.0794 10.9521L25.375 11.0767L25.8981 12.3659" stroke="black" stroke-width="0.0375"/>
<path fill-rule="evenodd" clip-rule="evenodd" d="M17.23 12.8162L17.7531 12.112L16.96 12.2258L17.9387 11.6895L17.3144 11.6624L18.4394 11.2833L17.815 11.2508L18.94 10.8716L18.3156 10.8391L19.6094 10.3191L18.9794 10.292L20.2731 9.7666L19.6488 9.73952L20.9425 9.21952L21.5894 8.9541L21.9044 8.97035L21.8819 9.25743L21.5275 9.82077L20.8187 10.9474L20.8637 10.3733L20.155 11.4999L20.1944 10.9204L19.4856 12.047L19.525 11.4729L18.985 12.4587L19.0244 11.8845L18.4844 12.8704L18.5238 12.2962L17.8375 13.1304L18.0456 12.4154L17.23 12.8162V12.8162Z" fill="#006D00" stroke="white" stroke-width="0.225"/>
<path d="M17.23 12.8156L21.8988 8.96973M20.8244 10.9468L21.235 9.51681L19.6488 9.73889" stroke="black" stroke-width="0.0375"/>
<path d="M20.155 11.4993L20.5656 10.0693L18.9794 10.286" stroke="black" stroke-width="0.0375"/>
<path d="M19.4856 12.0462L19.9019 10.6162L18.3156 10.8383" stroke="black" stroke-width="0.0375"/>
<path d="M18.985 12.4581L19.2325 11.1689L17.815 11.2502" stroke="black" stroke-width="0.0375"/>
<path d="M18.4844 12.8702L18.7319 11.5811L17.3144 11.6623" stroke="black" stroke-width="0.0375"/>
<path d="M17.8375 13.1303L18.4 11.8574L16.96 12.2258" stroke="black" stroke-width="0.0375"/>
<path fill-rule="evenodd" clip-rule="evenodd" d="M26.6687 3.58586L25.6619 4.23586L25.4987 3.53711L24.9081 4.50128L24.7956 4.04086L24.3119 5.02669L24.2444 4.57169L23.8675 5.58461L23.6537 5.09711L23.2769 6.32669L23.0631 5.83919L22.6862 7.06878L22.4669 6.58128L22.09 7.81086L21.9044 8.42836L22.0112 8.67211L22.4162 8.54211L23.1137 8.04378L24.52 7.04711L23.71 7.30169L25.1106 6.29961L24.3006 6.55961L25.7012 5.55753L24.8913 5.81753L26.2975 5.03753L25.3413 5.25419L26.8375 4.51211L25.9206 4.73961L27.0288 3.89461L26.0725 4.33336L26.6687 3.58586Z" fill="#006D00" stroke="white" stroke-width="0.25"/>
<path d="M26.275 3.9375L24.8238 5.14L22.0113 8.67167" stroke="black" stroke-width="0.0375"/>
<path d="M24.2106 7.19327L22.6019 7.92452L22.4669 6.79785" stroke="black" stroke-width="0.0375"/>
<path d="M24.8238 6.4565L23.1925 7.18233L23.0631 6.05566" stroke="black" stroke-width="0.0375"/>
<path d="M25.4031 5.71475L23.7887 6.44059L23.665 5.31934" stroke="black" stroke-width="0.0375"/>
<path d="M25.8869 5.16193L24.3794 5.69818L24.2106 4.77734" stroke="black" stroke-width="0.0375"/>
<path d="M26.4438 4.63156L24.8238 5.14615L24.7675 4.25781" stroke="black" stroke-width="0.0375"/>
<path d="M26.6575 4.12721L25.1613 4.86388L25.4538 3.74805" stroke="black" stroke-width="0.0375"/>
<path fill-rule="evenodd" clip-rule="evenodd" d="M21.2181 2.37207L21.6681 3.3579L22.2475 2.8379L22.1519 3.9104L22.5344 3.56374L22.3263 4.61457L22.6638 4.25707L22.3544 5.28624L22.8438 4.96124L22.3938 6.16915L22.8775 5.84415L22.4275 7.0629L22.9169 6.7379L22.4669 7.95124L22.2419 8.5579L21.9944 8.7204L21.7244 8.43332L21.4431 7.70749L20.8806 6.2504L21.4094 6.81915L20.8413 5.35665L21.37 5.93082L20.8075 4.46832L21.325 5.03707L20.6219 3.76957L21.2969 4.37082L20.4869 3.07624L21.1225 3.67207L20.7119 2.46957L21.2519 3.2604L21.2181 2.37207Z" fill="#006D00" stroke="white" stroke-width="0.25"/>
<path d="M21.3363 2.83789L21.8144 4.48997L21.9944 8.71497" stroke="black" stroke-width="0.0375"/>
<path d="M21.0437 6.51074L21.955 7.82699L22.7819 6.92241" stroke="black" stroke-width="0.0375"/>
<path d="M20.9875 5.61719L21.9156 6.93885L22.7425 6.03427" stroke="black" stroke-width="0.0375"/>
<path d="M20.9594 4.72852L21.8819 6.05018L22.6919 5.1456" stroke="black" stroke-width="0.0375"/>
<path d="M20.8975 4.05664L21.8425 5.16164L22.5738 4.45747" stroke="black" stroke-width="0.0375"/>
<path d="M20.7625 3.3584L21.8144 4.4959L22.4331 3.75923" stroke="black" stroke-width="0.0375"/>
<path d="M20.8919 2.83789L21.7019 4.11081L22.1575 3.03289" stroke="black" stroke-width="0.0375"/>
<path fill-rule="evenodd" clip-rule="evenodd" d="M15.1937 9.64146L16.5044 8.76396L15.8462 8.43896L16.9994 8.62312L16.6056 8.11937L17.7194 8.52562L17.3256 8.02188L18.445 8.42271L18.0512 7.92437L19.4012 8.36312L19.0075 7.85938L20.3181 8.51479L19.9244 8.01104L21.2744 8.45521L21.9325 8.78021L22.1294 9.02937L21.865 9.20812L21.1394 9.30562L19.975 9.77146L20.1887 9.37062L18.7431 9.56563L19.2662 9.21896L17.7869 9.63062L18.3156 9.27854L17.0669 9.72813L17.6237 9.16479L16.3412 9.82562L16.9037 9.26229L15.8462 9.96646L16.4369 9.18646L15.1937 9.64146Z" fill="#006D00" stroke="white" stroke-width="0.2375"/>
<path d="M15.6044 9.40365L16.9656 8.8349L17.6912 8.7374L18.2931 8.72656L19.3337 8.79156L20.2731 8.82948L22.1294 9.0299" stroke="black" stroke-width="0.0375"/>
<path d="M20.155 9.58172L21.1956 8.96422L20.1381 8.16797" stroke="black" stroke-width="0.0375"/>
<path d="M18.9906 9.48984L20.2675 8.82901L19.2156 8.02734" stroke="black" stroke-width="0.0375"/>
<path d="M18.1581 9.46799L19.3337 8.79091L18.265 8.04883M16.6056 9.65216L17.6912 8.73674L16.8137 8.27633" stroke="black" stroke-width="0.0375"/>
<path d="M16.1219 9.71172L16.9656 8.83964L16.2906 8.59589M17.3256 9.55463L18.3944 8.7313L17.5394 8.16797" stroke="black" stroke-width="0.0375"/>
<path fill-rule="evenodd" clip-rule="evenodd" d="M19.6094 19.2371L19.597 17.7596L19.1525 17.0696C19.0411 16.7303 19.0957 16.5665 19.2761 16.5549C19.4558 16.5446 19.6341 16.6426 19.8931 16.6536C20.1521 16.6646 20.1034 16.2705 20.486 16.2815C20.8687 16.2924 21.5359 16.4898 22.1034 16.5227C22.6716 16.5549 22.9677 16.3473 23.6225 16.3253C24.2772 16.3034 24.4497 16.5988 24.4868 16.5988C24.5239 16.5988 24.7094 16.4788 24.8942 16.4569C25.0797 16.435 25.1415 16.5227 25.1415 16.5227C25.1415 16.5227 25.1292 16.8948 25.0426 17.1134C24.956 17.3327 24.6476 17.6938 24.6352 17.6938C24.6228 17.6938 24.5239 19.3029 24.5239 19.3138C24.5239 19.3248 19.6094 19.27 19.6094 19.2371V19.2371Z" fill="#CC0000" stroke="black" stroke-width="0.0206823"/>
<path fill-rule="evenodd" clip-rule="evenodd" d="M24.693 17.7231C24.693 17.7231 25.1877 17.3877 25.2008 16.5809C25.2081 16.1166 24.9506 15.7812 24.306 15.7812C23.4038 15.7812 22.1153 16.1237 22.1153 16.1237V16.2378C22.1153 16.2378 23.1463 15.8954 24.3067 15.8954C24.8218 15.8954 25.0801 16.2308 25.0801 16.5738C25.0801 17.1452 24.5635 17.7237 24.5635 17.7237V18.6375H24.693V17.7231Z" fill="#FFF100" stroke="black" stroke-width="0.0206823"/>
<path fill-rule="evenodd" clip-rule="evenodd" d="M24.9621 17.4841C24.9608 17.4999 24.9631 17.5157 24.969 17.5306C24.9749 17.5455 24.9842 17.5592 24.9963 17.5708C25.0084 17.5824 25.0231 17.5916 25.0395 17.5979C25.0558 17.6043 25.0734 17.6075 25.0912 17.6075C25.1091 17.6075 25.1267 17.6043 25.143 17.5979C25.1594 17.5916 25.1741 17.5824 25.1862 17.5708C25.1983 17.5592 25.2076 17.5455 25.2135 17.5306C25.2194 17.5157 25.2217 17.4999 25.2204 17.4841C25.2179 17.4552 25.2033 17.4283 25.1793 17.4086C25.1554 17.3889 25.1239 17.3779 25.0912 17.3779C25.0586 17.3779 25.0271 17.3889 25.0032 17.4086C24.9792 17.4283 24.9646 17.4552 24.9621 17.4841Z" fill="white" stroke="black" stroke-width="0.0206823"/>
<path fill-rule="evenodd" clip-rule="evenodd" d="M25.09 17.2224C25.0886 17.2382 25.091 17.254 25.0969 17.2689C25.1028 17.2838 25.112 17.2975 25.1242 17.3091C25.1363 17.3207 25.151 17.3299 25.1673 17.3362C25.1837 17.3425 25.2013 17.3458 25.2191 17.3458C25.2369 17.3458 25.2546 17.3425 25.2709 17.3362C25.2872 17.3299 25.3019 17.3207 25.314 17.3091C25.3262 17.2975 25.3355 17.2838 25.3413 17.2689C25.3472 17.254 25.3496 17.2382 25.3482 17.2224C25.3458 17.1935 25.3311 17.1665 25.3072 17.1468C25.2832 17.1272 25.2518 17.1162 25.2191 17.1162C25.1864 17.1162 25.155 17.1272 25.131 17.1468C25.1071 17.1665 25.0924 17.1935 25.09 17.2224Z" fill="white" stroke="black" stroke-width="0.0206823"/>
<path fill-rule="evenodd" clip-rule="evenodd" d="M25.1592 16.9558C25.1579 16.9716 25.1602 16.9874 25.1661 17.0023C25.172 17.0172 25.1813 17.0309 25.1934 17.0425C25.2055 17.0541 25.2202 17.0633 25.2366 17.0696C25.2529 17.0759 25.2705 17.0792 25.2884 17.0792C25.3062 17.0792 25.3238 17.0759 25.3401 17.0696C25.3565 17.0633 25.3712 17.0541 25.3833 17.0425C25.3954 17.0309 25.4047 17.0172 25.4106 17.0023C25.4165 16.9874 25.4188 16.9716 25.4175 16.9558C25.415 16.9269 25.4004 16.8999 25.3764 16.8802C25.3525 16.8606 25.321 16.8496 25.2884 16.8496C25.2557 16.8496 25.2242 16.8606 25.2003 16.8802C25.1763 16.8999 25.1617 16.9269 25.1592 16.9558Z" fill="white" stroke="black" stroke-width="0.0206823"/>
<path fill-rule="evenodd" clip-rule="evenodd" d="M25.2071 16.6736C25.2058 16.6893 25.2081 16.7052 25.214 16.7201C25.2199 16.735 25.2292 16.7487 25.2413 16.7602C25.2535 16.7718 25.2681 16.7811 25.2845 16.7874C25.3008 16.7937 25.3184 16.797 25.3363 16.797C25.3541 16.797 25.3717 16.7937 25.3881 16.7874C25.4044 16.7811 25.4191 16.7718 25.4312 16.7602C25.4433 16.7487 25.4526 16.735 25.4585 16.7201C25.4644 16.7052 25.4667 16.6893 25.4654 16.6736C25.463 16.6447 25.4483 16.6177 25.4243 16.598C25.4004 16.5783 25.3689 16.5674 25.3363 16.5674C25.3036 16.5674 25.2721 16.5783 25.2482 16.598C25.2242 16.6177 25.2096 16.6447 25.2071 16.6736Z" fill="white" stroke="black" stroke-width="0.0206823"/>
<path fill-rule="evenodd" clip-rule="evenodd" d="M25.1964 16.366C25.1951 16.3817 25.1975 16.3975 25.2033 16.4125C25.2092 16.4274 25.2185 16.441 25.2306 16.4526C25.2428 16.4642 25.2575 16.4735 25.2738 16.4798C25.2901 16.4861 25.3078 16.4894 25.3256 16.4894C25.3434 16.4894 25.361 16.4861 25.3774 16.4798C25.3937 16.4735 25.4084 16.4642 25.4205 16.4526C25.4326 16.441 25.4419 16.4274 25.4478 16.4125C25.4537 16.3975 25.4561 16.3817 25.4547 16.366C25.4523 16.3371 25.4376 16.3101 25.4137 16.2904C25.3897 16.2707 25.3583 16.2598 25.3256 16.2598C25.2929 16.2598 25.2615 16.2707 25.2375 16.2904C25.2136 16.3101 25.1989 16.3371 25.1964 16.366Z" fill="white" stroke="black" stroke-width="0.0206823"/>
<path fill-rule="evenodd" clip-rule="evenodd" d="M24.7757 17.7156C24.7744 17.7313 24.7767 17.7472 24.7826 17.7621C24.7885 17.777 24.7978 17.7907 24.8099 17.8022C24.822 17.8138 24.8367 17.8231 24.853 17.8294C24.8694 17.8357 24.887 17.839 24.9048 17.839C24.9227 17.839 24.9403 17.8357 24.9566 17.8294C24.973 17.8231 24.9877 17.8138 24.9998 17.8022C25.0119 17.7907 25.0212 17.777 25.0271 17.7621C25.033 17.7472 25.0353 17.7313 25.034 17.7156C25.0315 17.6867 25.0169 17.6597 24.9929 17.64C24.969 17.6203 24.9375 17.6094 24.9048 17.6094C24.8722 17.6094 24.8407 17.6203 24.8168 17.64C24.7928 17.6597 24.7781 17.6867 24.7757 17.7156Z" fill="white" stroke="black" stroke-width="0.0206823"/>
<path fill-rule="evenodd" clip-rule="evenodd" d="M25.0846 16.074C25.0833 16.0897 25.0856 16.1056 25.0915 16.1205C25.0974 16.1354 25.1067 16.1491 25.1188 16.1606C25.1309 16.1722 25.1456 16.1815 25.162 16.1878C25.1783 16.1941 25.1959 16.1974 25.2138 16.1974C25.2316 16.1974 25.2492 16.1941 25.2656 16.1878C25.2819 16.1815 25.2966 16.1722 25.3087 16.1606C25.3208 16.1491 25.3301 16.1354 25.336 16.1205C25.3419 16.1056 25.3442 16.0897 25.3429 16.074C25.3405 16.0451 25.3258 16.0181 25.3018 15.9984C25.2779 15.9787 25.2464 15.9678 25.2138 15.9678C25.1811 15.9678 25.1496 15.9787 25.1257 15.9984C25.1017 16.0181 25.0871 16.0451 25.0846 16.074Z" fill="white" stroke="black" stroke-width="0.0206823"/>
<path fill-rule="evenodd" clip-rule="evenodd" d="M24.8449 15.8435C24.8436 15.8593 24.846 15.8751 24.8518 15.89C24.8577 15.9049 24.867 15.9186 24.8791 15.9302C24.8913 15.9418 24.906 15.951 24.9223 15.9573C24.9386 15.9636 24.9563 15.9669 24.9741 15.9669C24.9919 15.9669 25.0095 15.9636 25.0259 15.9573C25.0422 15.951 25.0569 15.9418 25.069 15.9302C25.0811 15.9186 25.0904 15.9049 25.0963 15.89C25.1022 15.8751 25.1046 15.8593 25.1032 15.8435C25.1008 15.8146 25.0861 15.7876 25.0622 15.7679C25.0382 15.7482 25.0067 15.7373 24.9741 15.7373C24.9414 15.7373 24.91 15.7482 24.886 15.7679C24.8621 15.7876 24.8474 15.8146 24.8449 15.8435Z" fill="white" stroke="black" stroke-width="0.0206823"/>
<path fill-rule="evenodd" clip-rule="evenodd" d="M24.5253 15.6892C24.524 15.705 24.5263 15.7208 24.5322 15.7357C24.5381 15.7506 24.5474 15.7643 24.5595 15.7759C24.5717 15.7875 24.5863 15.7967 24.6027 15.803C24.619 15.8093 24.6366 15.8126 24.6545 15.8126C24.6723 15.8126 24.6899 15.8093 24.7063 15.803C24.7226 15.7967 24.7373 15.7875 24.7494 15.7759C24.7615 15.7643 24.7708 15.7506 24.7767 15.7357C24.7826 15.7208 24.7849 15.705 24.7836 15.6892C24.7812 15.6603 24.7665 15.6333 24.7425 15.6136C24.7186 15.594 24.6871 15.583 24.6545 15.583C24.6218 15.583 24.5903 15.594 24.5664 15.6136C24.5424 15.6333 24.5278 15.6603 24.5253 15.6892Z" fill="white" stroke="black" stroke-width="0.0206823"/>
<path fill-rule="evenodd" clip-rule="evenodd" d="M24.2058 15.6687C24.2044 15.6845 24.2068 15.7003 24.2127 15.7152C24.2186 15.7301 24.2279 15.7438 24.24 15.7554C24.2521 15.7669 24.2668 15.7762 24.2831 15.7825C24.2995 15.7888 24.3171 15.7921 24.3349 15.7921C24.3527 15.7921 24.3704 15.7888 24.3867 15.7825C24.403 15.7762 24.4177 15.7669 24.4299 15.7554C24.442 15.7438 24.4513 15.7301 24.4572 15.7152C24.463 15.7003 24.4654 15.6845 24.4641 15.6687C24.4616 15.6398 24.4469 15.6128 24.423 15.5931C24.399 15.5734 24.3676 15.5625 24.3349 15.5625C24.3022 15.5625 24.2708 15.5734 24.2468 15.5931C24.2229 15.6128 24.2082 15.6398 24.2058 15.6687Z" fill="white" stroke="black" stroke-width="0.0206823"/>
<path fill-rule="evenodd" clip-rule="evenodd" d="M23.8596 15.6785C23.8582 15.6942 23.8606 15.71 23.8665 15.725C23.8723 15.7399 23.8816 15.7535 23.8938 15.7651C23.9059 15.7767 23.9206 15.786 23.9369 15.7923C23.9532 15.7986 23.9709 15.8019 23.9887 15.8019C24.0065 15.8019 24.0241 15.7986 24.0405 15.7923C24.0568 15.786 24.0715 15.7767 24.0836 15.7651C24.0958 15.7535 24.105 15.7399 24.1109 15.725C24.1168 15.71 24.1192 15.6942 24.1178 15.6785C24.1154 15.6496 24.1007 15.6226 24.0768 15.6029C24.0528 15.5832 24.0214 15.5723 23.9887 15.5723C23.956 15.5723 23.9246 15.5832 23.9006 15.6029C23.8767 15.6226 23.862 15.6496 23.8596 15.6785Z" fill="white" stroke="black" stroke-width="0.0206823"/>
<path fill-rule="evenodd" clip-rule="evenodd" d="M23.5133 15.7253C23.512 15.7411 23.5143 15.7569 23.5202 15.7718C23.5261 15.7867 23.5354 15.8004 23.5475 15.812C23.5597 15.8236 23.5743 15.8328 23.5907 15.8391C23.607 15.8455 23.6246 15.8487 23.6425 15.8487C23.6603 15.8487 23.6779 15.8455 23.6943 15.8391C23.7106 15.8328 23.7253 15.8236 23.7374 15.812C23.7495 15.8004 23.7588 15.7867 23.7647 15.7718C23.7706 15.7569 23.7729 15.7411 23.7716 15.7253C23.7692 15.6965 23.7545 15.6695 23.7305 15.6498C23.7066 15.6301 23.6751 15.6191 23.6425 15.6191C23.6098 15.6191 23.5783 15.6301 23.5544 15.6498C23.5304 15.6695 23.5158 15.6965 23.5133 15.7253Z" fill="white" stroke="black" stroke-width="0.0206823"/>
<path fill-rule="evenodd" clip-rule="evenodd" d="M23.1725 15.7664C23.1711 15.7821 23.1735 15.7979 23.1794 15.8129C23.1852 15.8278 23.1945 15.8414 23.2067 15.853C23.2188 15.8646 23.2335 15.8738 23.2498 15.8802C23.2661 15.8865 23.2838 15.8897 23.3016 15.8897C23.3194 15.8897 23.3371 15.8865 23.3534 15.8802C23.3697 15.8738 23.3844 15.8646 23.3965 15.853C23.4087 15.8414 23.418 15.8278 23.4238 15.8129C23.4297 15.7979 23.4321 15.7821 23.4307 15.7664C23.4283 15.7375 23.4136 15.7105 23.3897 15.6908C23.3657 15.6711 23.3343 15.6602 23.3016 15.6602C23.2689 15.6602 23.2375 15.6711 23.2135 15.6908C23.1896 15.7105 23.1749 15.7375 23.1725 15.7664Z" fill="white" stroke="black" stroke-width="0.0206823"/>
<path fill-rule="evenodd" clip-rule="evenodd" d="M22.7995 15.8171C22.7982 15.8329 22.8005 15.8487 22.8064 15.8636C22.8123 15.8785 22.8216 15.8922 22.8337 15.9038C22.8458 15.9154 22.8605 15.9246 22.8769 15.9309C22.8932 15.9373 22.9108 15.9405 22.9287 15.9405C22.9465 15.9405 22.9641 15.9373 22.9805 15.9309C22.9968 15.9246 23.0115 15.9154 23.0236 15.9038C23.0357 15.8922 23.045 15.8785 23.0509 15.8636C23.0568 15.8487 23.0591 15.8329 23.0578 15.8171C23.0554 15.7883 23.0407 15.7613 23.0167 15.7416C22.9928 15.7219 22.9613 15.7109 22.9287 15.7109C22.896 15.7109 22.8645 15.7219 22.8406 15.7416C22.8166 15.7613 22.802 15.7883 22.7995 15.8171Z" fill="white" stroke="black" stroke-width="0.0206823"/>
<path fill-rule="evenodd" clip-rule="evenodd" d="M22.48 15.8992C22.4786 15.9149 22.481 15.9307 22.4869 15.9457C22.4928 15.9606 22.502 15.9743 22.5142 15.9858C22.5263 15.9974 22.541 16.0067 22.5573 16.013C22.5737 16.0193 22.5913 16.0226 22.6091 16.0226C22.6269 16.0226 22.6446 16.0193 22.6609 16.013C22.6772 16.0067 22.6919 15.9974 22.704 15.9858C22.7162 15.9743 22.7255 15.9606 22.7313 15.9457C22.7372 15.9307 22.7396 15.9149 22.7382 15.8992C22.7358 15.8703 22.7211 15.8433 22.6972 15.8236C22.6732 15.8039 22.6418 15.793 22.6091 15.793C22.5764 15.793 22.545 15.8039 22.521 15.8236C22.4971 15.8433 22.4824 15.8703 22.48 15.8992Z" fill="white" stroke="black" stroke-width="0.0206823"/>
<path fill-rule="evenodd" clip-rule="evenodd" d="M19.2674 17.4851C19.2688 17.5009 19.2664 17.5167 19.2605 17.5316C19.2547 17.5465 19.2454 17.5602 19.2332 17.5718C19.2211 17.5834 19.2064 17.5926 19.1901 17.5989C19.1738 17.6052 19.1561 17.6085 19.1383 17.6085C19.1205 17.6085 19.1029 17.6052 19.0865 17.5989C19.0702 17.5926 19.0555 17.5834 19.0434 17.5718C19.0312 17.5602 19.022 17.5465 19.0161 17.5316C19.0102 17.5167 19.0078 17.5009 19.0092 17.4851C19.0116 17.4562 19.0263 17.4292 19.0502 17.4095C19.0742 17.3898 19.1056 17.3789 19.1383 17.3789C19.171 17.3789 19.2024 17.3898 19.2264 17.4095C19.2503 17.4292 19.265 17.4562 19.2674 17.4851Z" fill="white" stroke="black" stroke-width="0.0206823"/>
<path fill-rule="evenodd" clip-rule="evenodd" d="M19.1343 17.2234C19.1356 17.2391 19.1333 17.255 19.1274 17.2699C19.1215 17.2848 19.1122 17.2985 19.1001 17.3101C19.088 17.3216 19.0733 17.3309 19.057 17.3372C19.0406 17.3435 19.023 17.3468 19.0052 17.3468C18.9873 17.3468 18.9697 17.3435 18.9534 17.3372C18.937 17.3309 18.9223 17.3216 18.9102 17.3101C18.8981 17.2985 18.8888 17.2848 18.8829 17.2699C18.877 17.255 18.8747 17.2391 18.876 17.2234C18.8785 17.1945 18.8931 17.1675 18.9171 17.1478C18.941 17.1281 18.9725 17.1172 19.0052 17.1172C19.0378 17.1172 19.0693 17.1281 19.0932 17.1478C19.1172 17.1675 19.1319 17.1945 19.1343 17.2234Z" fill="white" stroke="black" stroke-width="0.0206823"/>
<path fill-rule="evenodd" clip-rule="evenodd" d="M19.0704 16.9568C19.0717 16.9725 19.0694 16.9884 19.0635 17.0033C19.0576 17.0182 19.0483 17.0319 19.0362 17.0435C19.0241 17.055 19.0094 17.0643 18.9931 17.0706C18.9767 17.0769 18.9591 17.0802 18.9413 17.0802C18.9234 17.0802 18.9058 17.0769 18.8895 17.0706C18.8731 17.0643 18.8585 17.055 18.8463 17.0435C18.8342 17.0319 18.8249 17.0182 18.819 17.0033C18.8131 16.9884 18.8108 16.9725 18.8121 16.9568C18.8146 16.9279 18.8292 16.9009 18.8532 16.8812C18.8771 16.8615 18.9086 16.8506 18.9413 16.8506C18.9739 16.8506 19.0054 16.8615 19.0293 16.8812C19.0533 16.9009 19.068 16.9279 19.0704 16.9568Z" fill="white" stroke="black" stroke-width="0.0206823"/>
<path fill-rule="evenodd" clip-rule="evenodd" d="M19.0225 16.6746C19.0238 16.6903 19.0215 16.7061 19.0156 16.7211C19.0097 16.736 19.0004 16.7496 18.9883 16.7612C18.9762 16.7728 18.9615 16.782 18.9451 16.7884C18.9288 16.7947 18.9112 16.7979 18.8933 16.7979C18.8755 16.7979 18.8579 16.7947 18.8415 16.7884C18.8252 16.782 18.8105 16.7728 18.7984 16.7612C18.7863 16.7496 18.777 16.736 18.7711 16.7211C18.7652 16.7061 18.7629 16.6903 18.7642 16.6746C18.7667 16.6457 18.7813 16.6187 18.8053 16.599C18.8292 16.5793 18.8607 16.5684 18.8933 16.5684C18.926 16.5684 18.9575 16.5793 18.9814 16.599C19.0054 16.6187 19.02 16.6457 19.0225 16.6746Z" fill="white" stroke="black" stroke-width="0.0206823"/>
<path fill-rule="evenodd" clip-rule="evenodd" d="M19.0331 16.3669C19.0344 16.3827 19.0321 16.3985 19.0262 16.4134C19.0203 16.4283 19.011 16.442 18.9989 16.4536C18.9868 16.4652 18.9721 16.4744 18.9558 16.4807C18.9394 16.4871 18.9218 16.4903 18.904 16.4903C18.8861 16.4903 18.8685 16.4871 18.8522 16.4807C18.8358 16.4744 18.8212 16.4652 18.809 16.4536C18.7969 16.442 18.7876 16.4283 18.7817 16.4134C18.7758 16.3985 18.7735 16.3827 18.7748 16.3669C18.7773 16.3381 18.7919 16.3111 18.8159 16.2914C18.8398 16.2717 18.8713 16.2607 18.904 16.2607C18.9366 16.2607 18.9681 16.2717 18.992 16.2914C19.016 16.3111 19.0307 16.3381 19.0331 16.3669Z" fill="white" stroke="black" stroke-width="0.0206823"/>
<path fill-rule="evenodd" clip-rule="evenodd" d="M19.1396 16.074C19.141 16.0897 19.1386 16.1056 19.1327 16.1205C19.1269 16.1354 19.1176 16.1491 19.1054 16.1606C19.0933 16.1722 19.0786 16.1815 19.0623 16.1878C19.046 16.1941 19.0283 16.1974 19.0105 16.1974C18.9927 16.1974 18.9751 16.1941 18.9587 16.1878C18.9424 16.1815 18.9277 16.1722 18.9156 16.1606C18.9034 16.1491 18.8942 16.1354 18.8883 16.1205C18.8824 16.1056 18.88 16.0897 18.8814 16.074C18.8838 16.0451 18.8985 16.0181 18.9224 15.9984C18.9464 15.9787 18.9778 15.9678 19.0105 15.9678C19.0432 15.9678 19.0746 15.9787 19.0986 15.9984C19.1225 16.0181 19.1372 16.0451 19.1396 16.074Z" fill="white" stroke="black" stroke-width="0.0206823"/>
<path fill-rule="evenodd" clip-rule="evenodd" d="M19.374 15.8435C19.3754 15.8593 19.373 15.8751 19.3671 15.89C19.3613 15.9049 19.352 15.9186 19.3398 15.9302C19.3277 15.9418 19.313 15.951 19.2967 15.9573C19.2804 15.9636 19.2627 15.9669 19.2449 15.9669C19.2271 15.9669 19.2094 15.9636 19.1931 15.9573C19.1768 15.951 19.1621 15.9418 19.15 15.9302C19.1378 15.9186 19.1285 15.9049 19.1227 15.89C19.1168 15.8751 19.1144 15.8593 19.1158 15.8435C19.1182 15.8146 19.1329 15.7876 19.1568 15.7679C19.1808 15.7482 19.2122 15.7373 19.2449 15.7373C19.2776 15.7373 19.309 15.7482 19.333 15.7679C19.3569 15.7876 19.3716 15.8146 19.374 15.8435Z" fill="white" stroke="black" stroke-width="0.0206823"/>
<path fill-rule="evenodd" clip-rule="evenodd" d="M19.6989 15.6892C19.7003 15.705 19.6979 15.7208 19.692 15.7357C19.6862 15.7506 19.6769 15.7643 19.6647 15.7759C19.6526 15.7875 19.6379 15.7967 19.6216 15.803C19.6053 15.8093 19.5876 15.8126 19.5698 15.8126C19.552 15.8126 19.5343 15.8093 19.518 15.803C19.5017 15.7967 19.487 15.7875 19.4749 15.7759C19.4627 15.7643 19.4534 15.7506 19.4476 15.7357C19.4417 15.7208 19.4393 15.705 19.4407 15.6892C19.4431 15.6603 19.4578 15.6333 19.4817 15.6136C19.5057 15.594 19.5371 15.583 19.5698 15.583C19.6025 15.583 19.6339 15.594 19.6579 15.6136C19.6818 15.6333 19.6965 15.6603 19.6989 15.6892Z" fill="white" stroke="black" stroke-width="0.0206823"/>
<path fill-rule="evenodd" clip-rule="evenodd" d="M20.0185 15.6687C20.0198 15.6845 20.0175 15.7003 20.0116 15.7152C20.0057 15.7301 19.9964 15.7438 19.9843 15.7554C19.9722 15.7669 19.9575 15.7762 19.9412 15.7825C19.9248 15.7888 19.9072 15.7921 19.8894 15.7921C19.8715 15.7921 19.8539 15.7888 19.8376 15.7825C19.8212 15.7762 19.8065 15.7669 19.7944 15.7554C19.7823 15.7438 19.773 15.7301 19.7671 15.7152C19.7612 15.7003 19.7589 15.6845 19.7602 15.6687C19.7627 15.6398 19.7773 15.6128 19.8013 15.5931C19.8252 15.5734 19.8567 15.5625 19.8894 15.5625C19.922 15.5625 19.9535 15.5734 19.9774 15.5931C20.0014 15.6128 20.016 15.6398 20.0185 15.6687Z" fill="white" stroke="black" stroke-width="0.0206823"/>
<path fill-rule="evenodd" clip-rule="evenodd" d="M20.3647 15.6794C20.3661 15.6952 20.3637 15.711 20.3578 15.7259C20.3519 15.7408 20.3426 15.7545 20.3305 15.7661C20.3184 15.7777 20.3037 15.7869 20.2874 15.7932C20.271 15.7996 20.2534 15.8028 20.2356 15.8028C20.2178 15.8028 20.2001 15.7996 20.1838 15.7932C20.1675 15.7869 20.1528 15.7777 20.1406 15.7661C20.1285 15.7545 20.1192 15.7408 20.1133 15.7259C20.1075 15.711 20.1051 15.6952 20.1064 15.6794C20.1089 15.6506 20.1236 15.6236 20.1475 15.6039C20.1715 15.5842 20.2029 15.5732 20.2356 15.5732C20.2682 15.5732 20.2997 15.5842 20.3237 15.6039C20.3476 15.6236 20.3623 15.6506 20.3647 15.6794Z" fill="white" stroke="black" stroke-width="0.0206823"/>
<path fill-rule="evenodd" clip-rule="evenodd" d="M20.7109 15.7253C20.7123 15.7411 20.7099 15.7569 20.704 15.7718C20.6982 15.7867 20.6889 15.8004 20.6767 15.812C20.6646 15.8236 20.6499 15.8328 20.6336 15.8391C20.6173 15.8455 20.5996 15.8487 20.5818 15.8487C20.564 15.8487 20.5463 15.8455 20.53 15.8391C20.5137 15.8328 20.499 15.8236 20.4869 15.812C20.4747 15.8004 20.4654 15.7867 20.4596 15.7718C20.4537 15.7569 20.4513 15.7411 20.4527 15.7253C20.4551 15.6965 20.4698 15.6695 20.4937 15.6498C20.5177 15.6301 20.5491 15.6191 20.5818 15.6191C20.6145 15.6191 20.6459 15.6301 20.6699 15.6498C20.6938 15.6695 20.7085 15.6965 20.7109 15.7253Z" fill="white" stroke="black" stroke-width="0.0206823"/>
<path fill-rule="evenodd" clip-rule="evenodd" d="M21.0572 15.7664C21.0585 15.7821 21.0561 15.7979 21.0503 15.8129C21.0444 15.8278 21.0351 15.8414 21.023 15.853C21.0108 15.8646 20.9961 15.8738 20.9798 15.8802C20.9635 15.8865 20.9458 15.8897 20.928 15.8897C20.9102 15.8897 20.8926 15.8865 20.8762 15.8802C20.8599 15.8738 20.8452 15.8646 20.8331 15.853C20.821 15.8414 20.8117 15.8278 20.8058 15.8129C20.7999 15.7979 20.7975 15.7821 20.7989 15.7664C20.8013 15.7375 20.816 15.7105 20.8399 15.6908C20.8639 15.6711 20.8954 15.6602 20.928 15.6602C20.9607 15.6602 20.9921 15.6711 21.0161 15.6908C21.04 15.7105 21.0547 15.7375 21.0572 15.7664Z" fill="white" stroke="black" stroke-width="0.0206823"/>
<path fill-rule="evenodd" clip-rule="evenodd" d="M21.4247 15.8181C21.426 15.8339 21.4237 15.8497 21.4178 15.8646C21.4119 15.8795 21.4026 15.8932 21.3905 15.9048C21.3784 15.9164 21.3637 15.9256 21.3473 15.9319C21.331 15.9382 21.3134 15.9415 21.2956 15.9415C21.2777 15.9415 21.2601 15.9382 21.2438 15.9319C21.2274 15.9256 21.2127 15.9164 21.2006 15.9048C21.1885 15.8932 21.1792 15.8795 21.1733 15.8646C21.1674 15.8497 21.1651 15.8339 21.1664 15.8181C21.1689 15.7892 21.1835 15.7622 21.2075 15.7426C21.2314 15.7229 21.2629 15.7119 21.2956 15.7119C21.3282 15.7119 21.3597 15.7229 21.3836 15.7426C21.4076 15.7622 21.4222 15.7892 21.4247 15.8181Z" fill="white" stroke="black" stroke-width="0.0206823"/>
<path fill-rule="evenodd" clip-rule="evenodd" d="M21.7443 15.9001C21.7456 15.9159 21.7433 15.9317 21.7374 15.9466C21.7315 15.9616 21.7222 15.9752 21.7101 15.9868C21.698 15.9984 21.6833 16.0076 21.667 16.014C21.6506 16.0203 21.633 16.0235 21.6152 16.0235C21.5973 16.0235 21.5797 16.0203 21.5634 16.014C21.547 16.0076 21.5323 15.9984 21.5202 15.9868C21.5081 15.9752 21.4988 15.9616 21.4929 15.9466C21.487 15.9317 21.4847 15.9159 21.486 15.9001C21.4885 15.8713 21.5031 15.8443 21.5271 15.8246C21.551 15.8049 21.5825 15.7939 21.6152 15.7939C21.6478 15.7939 21.6793 15.8049 21.7032 15.8246C21.7272 15.8443 21.7419 15.8713 21.7443 15.9001Z" fill="white" stroke="black" stroke-width="0.0206823"/>
<path fill-rule="evenodd" clip-rule="evenodd" d="M19.4486 17.7156C19.4499 17.7313 19.4476 17.7472 19.4417 17.7621C19.4358 17.777 19.4265 17.7907 19.4144 17.8022C19.4023 17.8138 19.3876 17.8231 19.3712 17.8294C19.3549 17.8357 19.3373 17.839 19.3194 17.839C19.3016 17.839 19.284 17.8357 19.2676 17.8294C19.2513 17.8231 19.2366 17.8138 19.2245 17.8022C19.2124 17.7907 19.2031 17.777 19.1972 17.7621C19.1913 17.7472 19.189 17.7313 19.1903 17.7156C19.1927 17.6867 19.2074 17.6597 19.2314 17.64C19.2553 17.6203 19.2868 17.6094 19.3194 17.6094C19.3521 17.6094 19.3836 17.6203 19.4075 17.64C19.4315 17.6597 19.4461 17.6867 19.4486 17.7156Z" fill="white" stroke="black" stroke-width="0.0206823"/>
<path fill-rule="evenodd" clip-rule="evenodd" d="M19.5366 17.7231C19.5366 17.7231 19.0419 17.3877 19.0288 16.5809C19.0215 16.1166 19.2791 15.7812 19.9237 15.7812C20.8258 15.7812 22.1143 16.1237 22.1143 16.1237V16.2378C22.1143 16.2378 21.0833 15.8954 19.9229 15.8954C19.4078 15.8954 19.1496 16.2308 19.1496 16.5738C19.1496 17.1452 19.6661 17.7237 19.6661 17.7237V18.6375H19.5366V17.7231Z" fill="#FFF100" stroke="black" stroke-width="0.0206823"/>
<path fill-rule="evenodd" clip-rule="evenodd" d="M20.4348 18.1472C20.4348 18.1472 20.4719 18.0602 20.6068 18.0602C20.6984 18.0602 20.7785 18.1472 20.7785 18.2342V18.4084H20.8645V18.2342C20.8645 18.1472 20.9504 18.0602 21.0362 18.0602C21.1652 18.0602 21.2082 18.1472 21.2082 18.1472C21.2082 18.1472 21.2082 17.886 21.0362 17.886C20.9075 17.886 20.8645 17.973 20.8645 17.973C20.8645 17.973 20.9075 17.8425 20.9075 17.7118C20.9075 17.5811 20.8216 17.4941 20.8216 17.4941C20.8216 17.5108 20.7355 17.5814 20.7355 17.7118C20.7355 17.8423 20.7785 17.973 20.7785 17.973C20.7785 17.973 20.7355 17.886 20.6068 17.886C20.4348 17.886 20.4348 18.1472 20.4348 18.1472Z" fill="#FFF100" stroke="black" stroke-width="0.0165828"/>
<path fill-rule="evenodd" clip-rule="evenodd" d="M23.0129 18.1472C23.0129 18.1472 23.05 18.0602 23.1848 18.0602C23.2765 18.0602 23.3565 18.1472 23.3565 18.2342V18.4084H23.4426V18.2342C23.4426 18.1472 23.5284 18.0602 23.6143 18.0602C23.7433 18.0602 23.7862 18.1472 23.7862 18.1472C23.7862 18.1472 23.7862 17.886 23.6143 17.886C23.4855 17.886 23.4426 17.973 23.4426 17.973C23.4426 17.973 23.4855 17.8425 23.4855 17.7118C23.4855 17.5811 23.3997 17.4941 23.3997 17.4941C23.3997 17.5108 23.3136 17.5814 23.3136 17.7118C23.3136 17.8423 23.3565 17.973 23.3565 17.973C23.3565 17.973 23.3136 17.886 23.1848 17.886C23.0129 17.886 23.0129 18.1472 23.0129 18.1472Z" fill="#FFF100" stroke="black" stroke-width="0.0165828"/>
<path fill-rule="evenodd" clip-rule="evenodd" d="M19.5366 19.3231V18.2945C19.5366 18.2945 19.7941 18.6376 20.1812 18.6376C20.4977 18.6376 20.8258 18.1804 20.8258 18.1804C20.8258 18.1804 21.1277 18.5235 21.4704 18.5235C21.776 18.5235 22.1143 18.0811 22.1143 18.0811C22.1143 18.0811 22.4286 18.5235 22.7589 18.5235C23.0899 18.5235 23.4035 18.1804 23.4035 18.1804C23.4035 18.1804 23.7403 18.6376 24.1768 18.6376C24.5632 18.6376 24.6927 18.2945 24.6927 18.2945V19.3231H19.5366Z" fill="#FFF100" stroke="black" stroke-width="0.0206823"/>
<path fill-rule="evenodd" clip-rule="evenodd" d="M19.5368 19.3231V18.5234C19.5368 18.5234 20.3101 18.7511 20.3101 19.3231H19.5368Z" fill="#FFF100" stroke="black" stroke-width="0.0206823"/>
<path fill-rule="evenodd" clip-rule="evenodd" d="M24.6874 19.3231V18.5234C24.6874 18.5234 23.9141 18.7511 23.9141 19.3231H24.6874Z" fill="#FFF100" stroke="black" stroke-width="0.0206823"/>
<path fill-rule="evenodd" clip-rule="evenodd" d="M20.0524 19.3238C20.0524 18.7518 20.8258 18.3906 20.8258 18.3906C20.8258 18.3906 21.5992 18.7518 21.5992 19.3238H20.0524Z" fill="#FFF100" stroke="black" stroke-width="0.0206823"/>
<path fill-rule="evenodd" clip-rule="evenodd" d="M22.6305 19.3238C22.6305 18.7518 23.4039 18.3906 23.4039 18.3906C23.4039 18.3906 24.1772 18.7518 24.1772 19.3238H22.6305Z" fill="#FFF100" stroke="black" stroke-width="0.0206823"/>
<path fill-rule="evenodd" clip-rule="evenodd" d="M21.212 19.3268C21.212 18.7554 22.1148 18.2988 22.1148 18.2988C22.1148 18.2988 23.017 18.7554 23.017 19.3268H21.2127H21.212Z" fill="#FFF100" stroke="black" stroke-width="0.0206823"/>
<path fill-rule="evenodd" clip-rule="evenodd" d="M24.8188 19.324C24.5642 19.2099 23.6248 19.0957 22.112 19.0957C20.5993 19.0957 19.5944 19.2099 19.339 19.324C19.0844 19.4381 19.0844 19.6671 19.339 19.7812C19.5937 19.8954 20.6 20.0095 22.112 20.0095C23.624 20.0095 24.5642 19.8954 24.8188 19.7812C25.0735 19.6671 25.0735 19.4381 24.8188 19.324Z" fill="white" stroke="black" stroke-width="0.0205652"/>
<path fill-rule="evenodd" clip-rule="evenodd" d="M24.6928 19.7803C24.6928 20.0112 22.5462 20.0112 22.1148 20.0112C21.6461 20.0112 19.5368 20.0727 19.5368 19.7803C19.5368 19.5547 21.6621 19.5547 22.1148 19.5547C22.5622 19.5547 24.6928 19.6008 24.6928 19.7803Z" fill="#808080"/>
<path fill-rule="evenodd" clip-rule="evenodd" d="M19.7925 18.9595C19.7925 19.0364 19.7392 19.098 19.6646 19.098C19.59 19.098 19.5368 19.0364 19.5368 18.9595C19.5368 18.8826 19.59 18.8262 19.6646 18.8262C19.7338 18.8262 19.7925 18.8877 19.7925 18.9595ZM24.6928 18.9595C24.6928 19.0364 24.6342 19.098 24.5597 19.098C24.4904 19.098 24.4318 19.0364 24.4318 18.9595C24.4318 18.8826 24.4904 18.8262 24.5597 18.8262C24.6342 18.8262 24.6875 18.8877 24.6875 18.9595H24.6928Z" fill="#CC0000"/>
<path fill-rule="evenodd" clip-rule="evenodd" d="M22.3705 18.8924C22.3705 18.9642 22.2533 19.0258 22.1148 19.0258C21.9763 19.0258 21.8538 18.9642 21.8538 18.8873C21.8538 18.8103 21.971 18.7539 22.1148 18.7539C22.2586 18.7539 22.3705 18.8154 22.3705 18.8873V18.8924Z" fill="black"/>
<path fill-rule="evenodd" clip-rule="evenodd" d="M23.6062 18.8924C23.6062 18.9642 23.521 19.0258 23.4144 19.0258C23.3078 19.0258 23.2227 18.9642 23.2227 18.8873C23.2227 18.8103 23.3079 18.7539 23.4145 18.7539C23.521 18.7539 23.6062 18.8154 23.6062 18.8873V18.8924ZM20.9536 18.8924C20.9536 18.9642 20.8684 19.0258 20.7618 19.0258C20.6552 19.0258 20.5648 18.9642 20.5648 18.8873C20.5648 18.8103 20.65 18.7539 20.7619 18.7539C20.8684 18.7539 20.9536 18.8154 20.9536 18.8873V18.8924Z" fill="#006300"/>
<path fill-rule="evenodd" clip-rule="evenodd" d="M21.5965 18.1047C21.5965 18.1047 21.7436 17.9093 21.8912 17.9093H22.0383V18.0394C22.0383 18.2355 21.8176 18.3011 21.8176 18.3011H22.4066C22.4066 18.3011 22.1855 18.2355 22.1855 18.0394V17.9093H22.3331C22.4802 17.9093 22.6274 18.1054 22.6274 18.1054V17.5824C22.6274 17.5824 22.4802 17.7785 22.3331 17.7785H22.1855V17.6477C22.1855 17.452 22.4066 17.3867 22.4066 17.3867H21.8172C21.8172 17.3867 22.0379 17.452 22.0379 17.6477V17.7785H21.8908C21.7432 17.7785 21.596 17.5824 21.596 17.5824V18.105L21.5965 18.1047Z" fill="#FFF100" stroke="black" stroke-width="0.0195001"/>
<path fill-rule="evenodd" clip-rule="evenodd" d="M19.5334 18.5243H19.6808C19.6808 18.5243 19.5702 18.4672 19.5702 18.2957V18.1818H19.6438C19.7176 18.1818 19.7914 18.3534 19.7914 18.3534V17.8958C19.7914 17.8958 19.7176 18.0674 19.6438 18.0674H19.5702V17.9529C19.5702 17.7817 19.6808 17.7246 19.6808 17.7246H19.5334V18.5243Z" fill="#FFF100" stroke="black" stroke-width="0.019349"/>
<path fill-rule="evenodd" clip-rule="evenodd" d="M24.6908 18.5243H24.5434C24.5434 18.5243 24.654 18.4672 24.654 18.2957V18.1818H24.5804C24.5066 18.1818 24.4328 18.3534 24.4328 18.3534V17.8958C24.4328 17.8958 24.5066 18.0674 24.5804 18.0674H24.654V17.9529C24.654 17.7817 24.5434 17.7246 24.5434 17.7246H24.6908V18.5243Z" fill="#FFF100" stroke="black" stroke-width="0.019349"/>
<path fill-rule="evenodd" clip-rule="evenodd" d="M22.243 17.8378C22.243 17.8681 22.2295 17.8971 22.2053 17.9185C22.1812 17.9399 22.1484 17.9519 22.1143 17.9519C22.0801 17.9519 22.0474 17.9399 22.0232 17.9185C21.9991 17.8971 21.9855 17.8681 21.9855 17.8378C21.9855 17.8075 21.9991 17.7785 22.0232 17.7571C22.0474 17.7357 22.0801 17.7236 22.1143 17.7236C22.1484 17.7236 22.1812 17.7357 22.2053 17.7571C22.2295 17.7785 22.243 17.8075 22.243 17.8378V17.8378Z" fill="white" stroke="black" stroke-width="0.0206823"/>
<path fill-rule="evenodd" clip-rule="evenodd" d="M21.5965 15.7043C21.5965 15.7043 21.7436 15.5089 21.8912 15.5089H22.0383V15.639C22.0383 15.8351 21.8176 15.9007 21.8176 15.9007H22.4066C22.4066 15.9007 22.1855 15.8351 22.1855 15.639V15.5089H22.3331C22.4802 15.5089 22.6274 15.705 22.6274 15.705V15.182C22.6274 15.182 22.4802 15.3781 22.3331 15.3781H22.1855V15.2473C22.1855 15.0516 22.4066 14.9863 22.4066 14.9863H21.8172C21.8172 14.9863 22.0379 15.0516 22.0379 15.2473V15.3781H21.8908C21.7432 15.3781 21.596 15.182 21.596 15.182V15.7046L21.5965 15.7043Z" fill="#FFF100" stroke="black" stroke-width="0.0195001"/>
<path fill-rule="evenodd" clip-rule="evenodd" d="M22.2537 15.4579C22.2537 15.4882 22.2402 15.5172 22.216 15.5386C22.1919 15.56 22.1591 15.572 22.125 15.572C22.0908 15.572 22.058 15.56 22.0339 15.5386C22.0097 15.5172 21.9962 15.4882 21.9962 15.4579C21.9962 15.4276 22.0097 15.3986 22.0339 15.3772C22.058 15.3558 22.0908 15.3438 22.125 15.3438C22.1591 15.3438 22.1919 15.3558 22.216 15.3772C22.2402 15.3986 22.2537 15.4276 22.2537 15.4579V15.4579Z" fill="white" stroke="black" stroke-width="0.0206823"/>
<path fill-rule="evenodd" clip-rule="evenodd" d="M21.8567 15.8984H22.3725V16.2415H21.856L21.8567 15.8984Z" fill="#FFF100" stroke="black" stroke-width="0.0206823"/>
<path fill-rule="evenodd" clip-rule="evenodd" d="M21.8567 16.0771H22.3725V17.3831H21.856L21.8567 16.0771Z" fill="#FFF100" stroke="black" stroke-width="0.0206823"/>
<path fill-rule="evenodd" clip-rule="evenodd" d="M22.2396 17.1511C22.241 17.1669 22.2386 17.1827 22.2327 17.1976C22.2269 17.2125 22.2176 17.2262 22.2054 17.2378C22.1933 17.2494 22.1786 17.2586 22.1623 17.2649C22.146 17.2712 22.1283 17.2745 22.1105 17.2745C22.0927 17.2745 22.075 17.2712 22.0587 17.2649C22.0424 17.2586 22.0277 17.2494 22.0156 17.2378C22.0034 17.2262 21.9941 17.2125 21.9883 17.1976C21.9824 17.1827 21.98 17.1669 21.9814 17.1511C21.9838 17.1222 21.9985 17.0953 22.0224 17.0756C22.0464 17.0559 22.0778 17.0449 22.1105 17.0449C22.1432 17.0449 22.1746 17.0559 22.1986 17.0756C22.2225 17.0953 22.2372 17.1222 22.2396 17.1511Z" fill="white" stroke="black" stroke-width="0.0206823"/>
<path fill-rule="evenodd" clip-rule="evenodd" d="M22.2396 16.8591C22.241 16.8749 22.2386 16.8907 22.2327 16.9056C22.2269 16.9205 22.2176 16.9342 22.2054 16.9458C22.1933 16.9574 22.1786 16.9666 22.1623 16.9729C22.146 16.9793 22.1283 16.9825 22.1105 16.9825C22.0927 16.9825 22.075 16.9793 22.0587 16.9729C22.0424 16.9666 22.0277 16.9574 22.0156 16.9458C22.0034 16.9342 21.9941 16.9205 21.9883 16.9056C21.9824 16.8907 21.98 16.8749 21.9814 16.8591C21.9838 16.8302 21.9985 16.8033 22.0224 16.7836C22.0464 16.7639 22.0778 16.7529 22.1105 16.7529C22.1432 16.7529 22.1746 16.7639 22.1986 16.7836C22.2225 16.8033 22.2372 16.8302 22.2396 16.8591Z" fill="white" stroke="black" stroke-width="0.0206823"/>
<path fill-rule="evenodd" clip-rule="evenodd" d="M22.2396 16.5876C22.241 16.6034 22.2386 16.6192 22.2327 16.6341C22.2269 16.6491 22.2176 16.6627 22.2054 16.6743C22.1933 16.6859 22.1786 16.6951 22.1623 16.7015C22.146 16.7078 22.1283 16.711 22.1105 16.711C22.0927 16.711 22.075 16.7078 22.0587 16.7015C22.0424 16.6951 22.0277 16.6859 22.0156 16.6743C22.0034 16.6627 21.9941 16.6491 21.9883 16.6341C21.9824 16.6192 21.98 16.6034 21.9814 16.5876C21.9838 16.5588 21.9985 16.5318 22.0224 16.5121C22.0464 16.4924 22.0778 16.4814 22.1105 16.4814C22.1432 16.4814 22.1746 16.4924 22.1986 16.5121C22.2225 16.5318 22.2372 16.5588 22.2396 16.5876Z" fill="white" stroke="black" stroke-width="0.0206823"/>
<path fill-rule="evenodd" clip-rule="evenodd" d="M22.2396 16.2996C22.241 16.3153 22.2386 16.3311 22.2327 16.3461C22.2269 16.361 22.2176 16.3746 22.2054 16.3862C22.1933 16.3978 22.1786 16.407 22.1623 16.4134C22.146 16.4197 22.1283 16.4229 22.1105 16.4229C22.0927 16.4229 22.075 16.4197 22.0587 16.4134C22.0424 16.407 22.0277 16.3978 22.0156 16.3862C22.0034 16.3746 21.9941 16.361 21.9883 16.3461C21.9824 16.3311 21.98 16.3153 21.9814 16.2996C21.9838 16.2707 21.9985 16.2437 22.0224 16.224C22.0464 16.2043 22.0778 16.1934 22.1105 16.1934C22.1432 16.1934 22.1746 16.2043 22.1986 16.224C22.2225 16.2437 22.2372 16.2707 22.2396 16.2996Z" fill="white" stroke="black" stroke-width="0.0206823"/>
<path fill-rule="evenodd" clip-rule="evenodd" d="M22.3864 19.3286C22.3864 19.3799 22.2693 19.421 22.1201 19.421C21.9709 19.421 21.8644 19.3799 21.8644 19.3286C21.8644 19.2773 21.9816 19.2363 22.1254 19.2363C22.2693 19.2363 22.3864 19.2774 22.3864 19.3286V19.3286ZM24.762 19.5543C24.7461 19.5903 24.6182 19.5954 24.4744 19.5595C24.3306 19.5287 24.2294 19.4774 24.24 19.4415C24.256 19.4056 24.3839 19.4005 24.5277 19.4364C24.6715 19.4671 24.7727 19.5184 24.762 19.5543ZM23.766 19.4005C23.766 19.4466 23.6382 19.4723 23.489 19.4671C23.3452 19.4568 23.228 19.4107 23.2333 19.3645C23.2387 19.3184 23.3665 19.2928 23.5103 19.303C23.6595 19.3133 23.7767 19.3543 23.766 19.4005V19.4005ZM19.4089 19.5543C19.4196 19.5903 19.5474 19.5954 19.6913 19.5595C19.8351 19.5287 19.9416 19.4774 19.9256 19.4415C19.9096 19.4056 19.7818 19.4005 19.638 19.4364C19.4995 19.4671 19.393 19.5184 19.409 19.5543H19.4089ZM20.4476 19.3799C20.4529 19.4261 20.5808 19.4518 20.7246 19.4415C20.8737 19.4312 20.9909 19.3902 20.9802 19.3389C20.9802 19.2979 20.8524 19.2671 20.7033 19.2774C20.5594 19.2876 20.4423 19.3286 20.4476 19.3799V19.3799Z" fill="black"/>
<path d="M-5 0H13V13H-5V0Z" fill="#012169"/>
<path d="M-2.89063 0L3.97187 4.90208L10.8062 0H13V1.67917L6.25 6.52708L13 11.3479V13H10.75L4 8.15208L-2.72188 13H-5V11.375L1.72187 6.55417L-5 1.73333V0H-2.89063Z" fill="white"/>
<path d="M6.925 7.61042L13 11.9167V13L5.37812 7.61042H6.925ZM1.75 8.15208L1.91875 9.1L-3.48125 13H-5L1.75 8.15208ZM13 0V0.08125L5.99687 5.17292L6.05312 3.98125L11.5937 0H13ZM-5 0L1.72187 4.76667H0.0343749L-5 1.1375V0Z" fill="#C8102E"/>
<path d="M1.77812 0V13H6.27812V0H1.77812ZM-5 4.33333V8.66667H13V4.33333H-5Z" fill="white"/>
<path d="M-5 5.22708V7.82708H13V5.22708H-5ZM2.67812 0V13H5.37812V0H2.67812Z" fill="#C8102E"/>
</g>
</g>
<defs>
<clipPath id="clip0_1_17327">
<rect width="36" height="26" fill="white" transform="translate(-5)"/>
</clipPath>
</defs>
</svg>
