<svg width="26" height="26" viewBox="0 0 26 26" fill="none" xmlns="http://www.w3.org/2000/svg">
<mask id="mask0_1_9365" style="mask-type:alpha" maskUnits="userSpaceOnUse" x="0" y="0" width="26" height="26">
<circle cx="13" cy="13" r="13" fill="#634848"/>
</mask>
<g mask="url(#mask0_1_9365)">
<mask id="mask1_1_9365" style="mask-type:alpha" maskUnits="userSpaceOnUse" x="-5" y="0" width="36" height="26">
<rect x="-4.33333" width="34.6667" height="26" fill="white"/>
</mask>
<g mask="url(#mask1_1_9365)">
<path fill-rule="evenodd" clip-rule="evenodd" d="M-4.33073 0V26H30.3359V0H-4.33073Z" fill="#F7FCFF"/>
<mask id="mask2_1_9365" style="mask-type:alpha" maskUnits="userSpaceOnUse" x="-5" y="0" width="36" height="26">
<path fill-rule="evenodd" clip-rule="evenodd" d="M-4.33073 0V26H30.3359V0H-4.33073Z" fill="white"/>
</mask>
<g mask="url(#mask2_1_9365)">
<path fill-rule="evenodd" clip-rule="evenodd" d="M-4.33073 0V8.66667H30.3359V0H-4.33073Z" fill="#BF2714"/>
<path fill-rule="evenodd" clip-rule="evenodd" d="M-4.33073 17.3335V26.0002H30.3359V17.3335H-4.33073Z" fill="#272727"/>
<path fill-rule="evenodd" clip-rule="evenodd" d="M1.44541 13.8788C2.43081 15.293 1.08073 16.25 1.08073 16.25C1.08073 16.25 2.26101 16.25 2.71304 15.3028H12.3735V13.2165C12.3735 13.2165 12.1715 12.2146 11.3113 12.2146C10.451 12.2146 10.2572 13.2165 10.2572 13.2165H6.85936L10.147 10.3143L9.50774 9.75L5.85608 12.9736V13.6571H11.0399V13.2547C11.0399 13.2547 11.0691 13.0218 11.3113 13.0218C11.5535 13.0218 11.4945 13.2547 11.4945 13.2547V14.1141H4.96189V12.939L4.25455 13.2547V14.1141C4.25455 14.1141 3.38824 13.8788 2.84078 13.8788C2.29331 13.8788 2.26101 13.2547 2.26101 13.2547L1.44541 13.8788ZM14.5673 13.9596L15.0971 15.2788H12.9889V9.98275L13.8782 10.2674V13.9596H14.5673ZM24.385 13.9596L24.9148 15.2788H22.8066V9.98275L23.6959 10.2674V13.9596H24.385ZM21.7743 10.0367L21.225 10.4085V13.9551H20.6655V11.1106L19.7438 11.642V13.9551H19.1252V12.3491L18.4246 12.8001V13.236C18.4246 13.236 17.0768 13.329 17.0768 15.2344H21.7689L21.7743 10.0367ZM3.78278 16.2131C3.95226 16.2131 4.08965 16.0918 4.08965 15.9422C4.08965 15.7926 3.95226 15.6713 3.78278 15.6713C3.6133 15.6713 3.47591 15.7926 3.47591 15.9422C3.47591 16.0918 3.6133 16.2131 3.78278 16.2131ZM19.4008 10.4456C19.1625 10.7597 18.4395 10.4456 18.4395 10.4456L20.4898 10.2081C20.278 10.6215 19.4008 10.4456 19.4008 10.4456Z" fill="#009C4E"/>
</g>
</g>
</g>
</svg>
