<svg width="26" height="26" viewBox="0 0 26 26" fill="none" xmlns="http://www.w3.org/2000/svg">
<mask id="mask0_1_11481" style="mask-type:alpha" maskUnits="userSpaceOnUse" x="0" y="0" width="26" height="26">
<circle cx="13" cy="13" r="13" fill="#634848"/>
</mask>
<g mask="url(#mask0_1_11481)">
<mask id="mask1_1_11481" style="mask-type:alpha" maskUnits="userSpaceOnUse" x="-5" y="0" width="36" height="26">
<rect x="-4.33333" width="34.6667" height="26" fill="white"/>
</mask>
<g mask="url(#mask1_1_11481)">
<path fill-rule="evenodd" clip-rule="evenodd" d="M-4.33073 0V26H30.3359V0H-4.33073Z" fill="#F7FCFF"/>
<mask id="mask2_1_11481" style="mask-type:alpha" maskUnits="userSpaceOnUse" x="-5" y="0" width="36" height="26">
<path fill-rule="evenodd" clip-rule="evenodd" d="M-4.33073 0V26H30.3359V0H-4.33073Z" fill="white"/>
</mask>
<g mask="url(#mask2_1_11481)">
<path fill-rule="evenodd" clip-rule="evenodd" d="M-4.33073 0V8.66667H30.3359V0H-4.33073Z" fill="#5EAA22"/>
<path fill-rule="evenodd" clip-rule="evenodd" d="M-4.33073 17.3335V26.0002H30.3359V17.3335H-4.33073Z" fill="#E31D1C"/>
<path fill-rule="evenodd" clip-rule="evenodd" d="M0.66562 17.7573V18.444H-1.85937V17.7573H0.66562ZM-3.70942 19.4818H-3.93364V19.2075H-3.44105V20.1685H-2.81575V20.1766H-2.20752V18.1816H-2.59614V19.4899H-2.65367V18.0768H-3.04229V19.4818H-3.05243V19.2075V18.0768H-3.44105V18.5208H-4.32226V20.1685H-4.12795H-3.70942V19.4818ZM-2.07942 19.8675H-1.6908V19.1867H-1.25747V20.1765H-0.0382724V18.5011H-0.663497V19.1878H-0.426895V19.4898H-0.868846V18.5H-2.07942V19.8675ZM0.399694 19.4818H0.623915V20.1685H0.205383H0.0110717V18.5208H0.892279V18.0768H1.2809V19.2075V19.4818H1.29105V18.0768H1.67967V19.4899H1.73719V18.1816H2.12581V20.1766H1.51758V20.1685H0.892279V19.2075H0.399694V19.4818ZM4.99895 17.7573V18.444H2.47396V17.7573H4.99895ZM2.24545 19.8675H2.63407V19.1867H3.0674V20.1765H4.2866V18.5011H3.66137V19.1878H3.89797V19.4898H3.45602V18.5H2.24545V19.8675ZM4.8092 19.4818H5.03342V20.1685H4.61489H4.42058V18.5208H5.30178V18.0768H5.69041V19.2075V19.4818H5.70055V18.0768H6.08917V19.4899H6.1467V18.1816H6.53532V20.1766H5.92709V20.1685H5.30178V19.2075H4.8092V19.4818ZM9.40846 17.7573V18.444H6.88347V17.7573H9.40846ZM6.66341 19.8675H7.05204V19.1867H7.48537V20.1765H8.70457V18.5011H8.07934V19.1878H8.31594V19.4898H7.87399V18.5H6.66341V19.8675ZM9.14253 19.4818H9.36675V20.1685H8.94822H8.75391V18.5208H9.63512V18.0768H10.0237V19.2075V19.4818H10.0339V18.0768H10.4225V19.4899H10.48V18.1816H10.8687V20.1766H10.2604V20.1685H9.63512V19.2075H9.14253V19.4818ZM13.7418 17.7573V18.444H11.2168V17.7573H13.7418ZM10.9967 19.8675H11.3854V19.1867H11.8187V20.1765H13.0379V18.5011H12.4127V19.1878H12.6493V19.4898H12.2073V18.5H10.9967V19.8675ZM13.4759 19.4818H13.7001V20.1685H13.2816H13.0872V18.5208H13.9685V18.0768H14.3571V19.2075V19.4818H14.3672V18.0768H14.7558V19.4899H14.8134V18.1816H15.202V20.1766H14.5938V20.1685H13.9685V19.2075H13.4759V19.4818ZM18.0751 17.7573V18.444H15.5501V17.7573H18.0751ZM15.3301 19.8675H15.7187V19.1867H16.152V20.1765H17.3712V18.5011H16.746V19.1878H16.9826V19.4898H16.5407V18.5H15.3301V19.8675ZM17.8854 19.4818H18.1096V20.1685H17.6911H17.4967V18.5208H18.378V18.0768H18.7666V19.2075V19.4818H18.7767V18.0768H19.1653V19.4899H19.2229V18.1816H19.6115V20.1766H19.0033V20.1685H18.378V19.2075H17.8854V19.4818ZM22.4846 17.7573V18.444H19.9596V17.7573H22.4846ZM19.7396 19.8675H20.1282V19.1867H20.5615V20.1765H21.7807V18.5011H21.1555V19.1878H21.3921V19.4898H20.9502V18.5H19.7396V19.8675ZM22.2949 19.4818H22.5191V20.1685H22.1006H21.9063V18.5208H22.7875V18.0768H23.1761V19.2075V19.4818H23.1862V18.0768H23.5749V19.4899H23.6408V18.1816H24.0295V20.1766H23.4212V20.1685H22.7875V19.2075H22.2949V19.4818ZM26.8941 17.7573V18.444H24.3691V17.7573H26.8941ZM24.1491 19.8675H24.5377V19.1867H24.971V20.1765H26.1902V18.5011H25.565V19.1878H25.8016V19.4898H25.3597V18.5H24.1491V19.8675ZM26.7044 19.4818H26.9286V20.1685H26.5101H26.3158V18.5208H27.197V18.0768H27.5856V19.2075V19.4818H27.5957V18.0768H27.9844V19.4899H28.0503V18.1816H28.439V20.1766H27.8307V20.1685H27.197V19.2075H26.7044V19.4818ZM31.3036 17.7573V18.444H28.7786V17.7573H31.3036ZM28.5586 19.8675H28.9472V19.1867H29.3806V20.1765H30.5997V18.5011H29.9745V19.1878H30.2111V19.4898H29.7692V18.5H28.5586V19.8675ZM31.0377 19.4818H31.2619V20.1685H30.8434H30.6491V18.5208H31.5303V18.0768H31.9189V19.2075V19.4818H31.9291V18.0768H32.3177V19.4899H32.3837V18.1816H32.7723V20.1766H32.1641V20.1685H31.5303V19.2075H31.0377V19.4818ZM35.637 17.7573V18.444H33.112V17.7573H35.637ZM32.8919 19.8675H33.2806V19.1867H33.7139V20.1765H34.9331V18.5011H34.3079V19.1878H34.5445V19.4898H34.1025V18.5H32.8919V19.8675ZM35.608 19.4818H35.8322V20.1685H35.4137H35.2194V18.5208H36.1006V18.0768H36.4892V19.2075V19.4818H36.4994V18.0768H36.888V19.4899H36.9455V18.1816H37.3341V20.1766H36.7259V20.1685H36.1006V19.2075H35.608V19.4818ZM40.1988 17.7573V18.444H37.6738V17.7573H40.1988ZM37.4538 19.8675H37.8424V19.1867H38.2757V20.1765H39.4949V18.5011H38.8697V19.1878H39.1063V19.4898H38.6644V18.5H37.4538V19.8675Z" fill="#F7FCFF"/>
<path fill-rule="evenodd" clip-rule="evenodd" d="M-3.79336 5.84131V6.52801H-6.31836V5.84131H-3.79336ZM-8.1684 7.56578H-8.39262V7.29145H-7.90004V8.25249H-7.27474V8.2606H-6.6665V6.26554H-7.05513V7.57389H-7.11265V6.16081H-7.50127V7.56578H-7.51142V7.29145V6.16081H-7.90004V6.60474H-8.78125V8.25249H-8.58693H-8.1684V7.56578ZM-6.53841 7.95151H-6.14979V7.27069H-5.71645V8.26048H-4.49726V6.58508H-5.12248V7.27179H-4.88588V7.57377H-5.32783V6.58398H-6.53841V7.95151ZM-4.05929 7.56578H-3.83507V8.25249H-4.2536H-4.44791V6.60474H-3.56671V6.16081H-3.17808V7.29145V7.56578H-3.16794V6.16081H-2.77932V7.57389H-2.72179V6.26554H-2.33317V8.2606H-2.9414V8.25249H-3.56671V7.29145H-4.05929V7.56578ZM0.539969 5.84131V6.52801H-1.98502V5.84131H0.539969ZM-2.21354 7.95151H-1.82492V7.27069H-1.39158V8.26048H-0.172387V6.58508H-0.797612V7.27179H-0.56101V7.57377H-1.00296V6.58398H-2.21354V7.95151ZM0.350215 7.56578H0.574436V8.25249H0.155904H-0.0384073V6.60474H0.8428V6.16081H1.23142V7.29145V7.56578H1.24157V6.16081H1.63019V7.57389H1.68771V6.26554H2.07633V8.2606H1.4681V8.25249H0.8428V7.29145H0.350215V7.56578ZM4.94948 5.84131V6.52801H2.42448V5.84131H4.94948ZM2.20443 7.95151H2.59305V7.27069H3.02639V8.26048H4.24558V6.58508H3.62036V7.27179H3.85696V7.57377H3.41501V6.58398H2.20443V7.95151ZM4.68355 7.56578H4.90777V8.25249H4.48924H4.29493V6.60474H5.17613V6.16081H5.56476V7.29145V7.56578H5.5749V6.16081H5.96352V7.57389H6.02105V6.26554H6.40967V8.2606H5.80144V8.25249H5.17613V7.29145H4.68355V7.56578ZM9.28281 5.84131V6.52801H6.75782V5.84131H9.28281ZM6.53776 7.95151H6.92639V7.27069H7.35972V8.26048H8.57891V6.58508H7.95369V7.27179H8.19029V7.57377H7.74834V6.58398H6.53776V7.95151ZM9.01688 7.56578H9.2411V8.25249H8.82257H8.62826V6.60474H9.50946V6.16081H9.89809V7.29145V7.56578H9.90823V6.16081H10.2969V7.57389H10.3544V6.26554H10.743V8.2606H10.1348V8.25249H9.50946V7.29145H9.01688V7.56578ZM13.6161 5.84131V6.52801H11.0911V5.84131H13.6161ZM10.8711 7.95151H11.2597V7.27069H11.6931V8.26048H12.9122V6.58508H12.287V7.27179H12.5236V7.57377H12.0817V6.58398H10.8711V7.95151ZM13.4264 7.56578H13.6506V8.25249H13.2321H13.0378V6.60474H13.919V6.16081H14.3076V7.29145V7.56578H14.3177V6.16081H14.7064V7.57389H14.7639V6.26554H15.1525V8.2606H14.5443V8.25249H13.919V7.29145H13.4264V7.56578ZM18.0256 5.84131V6.52801H15.5007V5.84131H18.0256ZM15.2806 7.95151H15.6692V7.27069H16.1026V8.26048H17.3218V6.58508H16.6965V7.27179H16.9331V7.57377H16.4912V6.58398H15.2806V7.95151ZM17.8359 7.56578H18.0601V8.25249H17.6416H17.4473V6.60474H18.3285V6.16081H18.7171V7.29145V7.56578H18.7272V6.16081H19.1159V7.57389H19.1819V6.26554H19.5705V8.2606H18.9622V8.25249H18.3285V7.29145H17.8359V7.56578ZM22.4352 5.84131V6.52801H19.9102V5.84131H22.4352ZM19.6901 7.95151H20.0787V7.27069H20.5121V8.26048H21.7313V6.58508H21.106V7.27179H21.3426V7.57377H20.9007V6.58398H19.6901V7.95151ZM22.2454 7.56578H22.4696V8.25249H22.0511H21.8568V6.60474H22.738V6.16081H23.1266V7.29145V7.56578H23.1367V6.16081H23.5254V7.57389H23.5914V6.26554H23.98V8.2606H23.3717V8.25249H22.738V7.29145H22.2454V7.56578ZM26.8447 5.84131V6.52801H24.3197V5.84131H26.8447ZM24.0996 7.95151H24.4882V7.27069H24.9216V8.26048H26.1408V6.58508H25.5155V7.27179H25.7521V7.57377H25.3102V6.58398H24.0996V7.95151ZM26.5787 7.56578H26.803V8.25249H26.3844H26.1901V6.60474H27.0713V6.16081H27.4599V7.29145V7.56578H27.4701V6.16081H27.8587V7.57389H27.9247V6.26554H28.3133V8.2606H27.7051V8.25249H27.0713V7.29145H26.5787V7.56578ZM31.178 5.84131V6.52801H28.653V5.84131H31.178ZM28.4329 7.95151H28.8216V7.27069H29.2549V8.26048H30.4741V6.58508H29.8489V7.27179H30.0855V7.57377H29.6435V6.58398H28.4329V7.95151ZM31.149 7.56578H31.3733V8.25249H30.9547H30.7604V6.60474H31.6416V6.16081H32.0303V7.29145V7.56578H32.0404V6.16081H32.429V7.57389H32.4865V6.26554H32.8752V8.2606H32.2669V8.25249H31.6416V7.29145H31.149V7.56578ZM35.7398 5.84131V6.52801H33.2148V5.84131H35.7398ZM32.9948 7.95151H33.3834V7.27069H33.8168V8.26048H35.0359V6.58508H34.4107V7.27179H34.6473V7.57377H34.2054V6.58398H32.9948V7.95151Z" fill="#F7FCFF"/>
<path fill-rule="evenodd" clip-rule="evenodd" d="M11.487 8.9375C11.487 8.9375 11.9499 9.18125 12.4237 9.18125C12.8976 9.18125 13.3743 8.9375 13.3743 8.9375V9.2625C13.3743 9.2625 12.8539 9.50625 12.3929 9.50625C11.9319 9.50625 11.487 9.2625 11.487 9.2625V8.9375ZM8.07618 12.7727C8.07618 10.8466 10.7217 9.58708 10.7217 9.58708C10.7217 9.58708 9.19262 10.4063 9.19262 12.692C9.19262 14.9777 9.98638 15.9675 9.98638 15.9675C9.98638 15.9675 8.07618 14.6989 8.07618 12.7727ZM16.9967 12.6664C16.9967 10.7403 14.3537 9.58708 14.3537 9.58708C14.3537 9.58708 15.8828 10.4063 15.8828 12.692C15.8828 14.9777 15.089 15.9675 15.089 15.9675C15.089 15.9675 16.9967 14.5926 16.9967 12.6664ZM9.87925 13.1919C9.77844 11.2683 11.3786 9.54421 11.3786 9.54421C11.3786 9.54421 10.7962 10.3365 10.9158 12.6191C10.9569 13.404 11.2665 14.5723 11.6563 15.2593V9.66854H13.2813V15.3018C13.6699 14.6593 13.9691 13.5666 14.0107 12.7726C14.1303 10.4901 13.5758 9.54421 13.5758 9.54421C13.5758 9.54421 15.176 11.2683 15.0752 13.1919C15.0151 14.3375 14.1336 15.549 13.4305 16.3416C13.7721 16.4178 14.2301 16.5107 14.8597 16.635C14.8731 16.7046 14.7329 16.7014 14.4541 16.695H14.4541C14.1463 16.6879 13.6697 16.677 13.0449 16.7559C12.7576 17.0504 12.5576 17.2249 12.5576 17.2249C12.5576 17.2249 12.526 17.1822 12.4772 17.1231C12.4284 17.1822 12.3968 17.2249 12.3968 17.2249C12.3968 17.2249 12.1968 17.0504 11.9096 16.7559C11.2847 16.677 10.8081 16.6879 10.5003 16.695C10.2216 16.7014 10.0813 16.7046 10.0947 16.635C10.7243 16.5107 11.1823 16.4178 11.524 16.3416C10.8208 15.549 9.93929 14.3375 9.87925 13.1919Z" fill="#E31D1C"/>
</g>
</g>
</g>
</svg>
