<svg width="26" height="26" viewBox="0 0 26 26" fill="none" xmlns="http://www.w3.org/2000/svg">
<mask id="mask0_1_13501" style="mask-type:alpha" maskUnits="userSpaceOnUse" x="0" y="0" width="26" height="26">
<circle cx="13" cy="13" r="13" fill="#634848"/>
</mask>
<g mask="url(#mask0_1_13501)">
<g clip-path="url(#clip0_1_13501)">
<path d="M-8.95781 0H34.3755V26H-8.95781V0Z" fill="white"/>
<path fill-rule="evenodd" clip-rule="evenodd" d="M-8.95781 0V1.73333L9.81997 13L-8.95781 24.2667V26H-6.06892L12.7089 14.7333L31.4866 26H34.3755V24.2667L15.5977 13L34.3755 1.73333V0H31.4866L12.7089 11.2667L-6.06892 0H-8.95781Z" fill="#DF112D"/>
<path d="M15.0373 3.91722C15.5847 6.17633 15.2843 8.96411 12.7609 10.5183C10.2547 8.96411 9.93697 6.17633 10.5017 3.91722C11.1026 3.38855 13.785 3.05344 15.0373 3.91722V3.91722Z" fill="#E8112D" stroke="black" stroke-width="0.0434382"/>
<path d="M12.7782 3.45936C13.5726 3.44059 14.3671 3.63559 15.0546 4.0227C15.1708 3.25283 15.4672 2.52131 15.9199 1.88781C15.4779 1.88781 15.2843 2.11748 15.2843 2.34714C15.1789 2.0467 14.7542 2.06403 14.6141 2.22292C15.0907 2.5407 14.7195 3.10548 14.2963 3.00003C14.1013 2.94659 13.9959 2.80648 13.9439 2.59414C13.9998 2.58303 14.0496 2.55151 14.0835 2.50571C14.1175 2.45992 14.1332 2.40313 14.1276 2.34639C14.1221 2.28964 14.0956 2.23701 14.0533 2.19872C14.0111 2.16043 13.9561 2.13922 13.8991 2.13922C13.8421 2.13922 13.7871 2.16043 13.7448 2.19872C13.7026 2.23701 13.6761 2.28964 13.6705 2.34639C13.6649 2.40313 13.6807 2.45992 13.7146 2.50571C13.7486 2.55151 13.7984 2.58303 13.8543 2.59414C13.7315 2.77036 13.5192 2.87581 13.3083 2.82381C13.0772 2.77036 12.9732 2.55803 12.9732 2.38181C12.9732 1.90514 13.4311 1.83581 13.5726 1.92392C13.5726 1.60614 13.0613 1.34036 12.9024 1.60614C13.0786 1.27103 13.0425 0.846365 12.7609 0.582031C12.6314 0.711874 12.5476 0.880238 12.5221 1.0618C12.4966 1.24336 12.5307 1.4283 12.6193 1.58881C12.4604 1.32303 11.9664 1.58881 11.9664 1.90659C12.0906 1.81703 12.5485 1.88781 12.5485 2.36448C12.5485 2.5407 12.4431 2.75303 12.2307 2.80648C12.1245 2.83051 12.0134 2.82122 11.9126 2.77987C11.8118 2.73852 11.7262 2.66711 11.6674 2.57536C11.7021 2.57536 11.7367 2.5407 11.7729 2.50603C11.8082 2.46839 11.8298 2.41993 11.8343 2.36848C11.8387 2.31703 11.8256 2.26559 11.7972 2.22247C11.7688 2.17934 11.7267 2.14705 11.6777 2.1308C11.6287 2.11456 11.5756 2.1153 11.5271 2.13292C11.4785 2.15054 11.4374 2.184 11.4102 2.22791C11.383 2.27181 11.3714 2.3236 11.3773 2.3749C11.3831 2.42621 11.4061 2.47404 11.4425 2.51067C11.4789 2.54731 11.5266 2.57061 11.5779 2.57681C11.5671 2.67202 11.5276 2.76169 11.4646 2.83392C11.4017 2.90616 11.3182 2.95754 11.2254 2.98125C11.1265 3.00645 11.0218 2.99506 10.9307 2.94918C10.8395 2.9033 10.768 2.82602 10.7293 2.73158C10.6906 2.63713 10.6873 2.53189 10.7201 2.43524C10.7529 2.33858 10.8195 2.25702 10.9076 2.20559C10.7661 2.02936 10.3443 2.02936 10.2374 2.32981C10.2374 2.0987 10.0439 1.87048 9.60186 1.87048C10.0606 2.50235 10.3631 3.23398 10.4844 4.00536C11.1884 3.62663 11.9791 3.43841 12.7782 3.45936V3.45936Z" fill="#F9DD16" stroke="black" stroke-width="0.0434382"/>
<path d="M14.6849 5.68222C14.6126 5.68222 14.6126 5.77033 14.5967 5.77033C14.7369 5.77033 14.8076 5.71689 14.8423 5.64611V5.753C14.9492 5.71689 14.9839 5.62878 14.9492 5.57678L15.072 5.61144C15.0026 5.558 15.0546 5.43522 14.9319 5.36444C14.9665 5.36444 15.0373 5.39911 15.072 5.45256C15.0546 5.32978 15.0373 5.259 14.9319 5.18822H15.0185C14.9957 5.1727 14.9772 5.15147 14.9651 5.12665C14.9529 5.10182 14.9474 5.07425 14.9492 5.04667C14.9492 4.97589 14.9131 4.97589 14.8438 4.99322L14.526 5.012C14.3483 5.012 14.1721 5.012 14.032 4.90511C14.2602 5.012 14.5606 4.79967 14.5606 4.64078C14.5606 4.46455 14.3151 4.28833 13.8543 4.39378C13.3964 4.49922 12.8316 4.46455 12.8316 4.30567C12.8316 4.14678 13.2361 4.12944 13.4484 4.16411C13.6607 4.20022 13.8023 4.21755 14.1909 4.07744C14.1013 4.11211 13.785 4.12944 13.538 4.05867C13.291 3.98789 12.6901 3.98789 12.6901 4.30422C12.6901 4.64078 13.3256 4.60611 13.889 4.518C14.2067 4.48189 14.3844 4.518 14.3844 4.60467C14.3844 4.71155 14.084 4.74622 13.8543 4.72889C13.6125 4.69659 13.3665 4.71479 13.1321 4.78233C12.901 4.85311 12.7421 4.78233 12.4965 4.83433C12.3723 4.83433 12.0733 4.83433 11.9317 4.58878C11.8436 4.65811 11.5779 4.78233 11.5259 4.92389C11.4724 5.02933 11.5259 5.15211 11.5966 5.27633C11.7021 5.41789 11.5432 5.39911 11.419 5.39911C11.2789 5.39911 11.0665 5.39911 10.9611 5.259C10.8556 5.15211 10.7314 5.064 10.626 5.13478C10.5725 5.18822 10.626 5.24022 10.6606 5.22289L10.8022 5.259C10.7739 5.24608 10.7427 5.24088 10.7117 5.24393C10.6808 5.24697 10.6512 5.25815 10.626 5.27633C10.5725 5.311 10.626 5.38178 10.678 5.36444C10.7141 5.34711 10.8022 5.32978 10.8556 5.36444C10.8022 5.36444 10.7314 5.36444 10.7141 5.39911C10.6967 5.43378 10.7141 5.47133 10.7661 5.47133C10.873 5.47133 10.8903 5.54067 10.9972 5.52333C10.9724 5.5246 10.9482 5.53167 10.9267 5.54396C10.9051 5.55625 10.8867 5.57343 10.873 5.59411C10.9784 5.54067 11.0665 5.66489 11.1907 5.62878C11.1546 5.64611 11.0665 5.701 11.0665 5.73567C11.1373 5.64611 11.6313 5.805 11.6313 5.61144L11.614 5.753C11.6674 5.71689 11.8595 5.69956 11.9317 5.57678C11.9317 5.61144 11.9317 5.66344 11.8956 5.68222C11.9491 5.68222 12.0372 5.64611 12.1267 5.52333C12.1614 5.46989 12.1614 5.43522 12.1614 5.39911C12.2379 5.40305 12.3131 5.37833 12.3723 5.32978C12.4445 5.27633 12.5139 5.38178 12.6366 5.29367C12.7435 5.22289 12.849 5.29367 12.9197 5.259C12.9732 5.22289 13.0613 5.259 13.1321 5.22289C13.2029 5.18678 13.3083 5.24022 13.4137 5.15211C13.59 5.22433 13.8196 5.32978 14.331 5.24022C14.6141 5.18822 14.721 5.29367 14.721 5.41789C14.721 5.52333 14.6487 5.52333 14.6141 5.52333C14.4379 5.54067 14.383 5.46989 14.3136 5.48722C14.279 5.506 14.2429 5.57678 14.3136 5.61144C14.2602 5.62878 14.2602 5.68222 14.2963 5.69956C14.3324 5.71689 14.383 5.69956 14.4379 5.68222C14.3656 5.69956 14.3136 5.753 14.3483 5.805C14.3671 5.84111 14.4205 5.85844 14.4725 5.805C14.526 5.73567 14.6141 5.68222 14.6849 5.68222V5.68222ZM11.4016 4.271C11.2615 4.21755 11.2254 4.21755 11.2427 4.34033C11.2427 4.39378 11.2962 4.46455 11.3309 4.49922C11.3309 4.44722 11.3496 4.323 11.4031 4.28833L11.4016 4.271Z" fill="#F9DD16" stroke="black" stroke-width="0.0434382"/>
<path d="M11.8783 4.28823C12.0199 4.21601 12.0733 4.21601 12.0372 4.34023C12.0372 4.39367 11.9837 4.46445 11.9491 4.49912C11.9491 4.44712 11.9491 4.3229 11.8783 4.28823Z" fill="#F9DD16" stroke="black" stroke-width="0.0434382"/>
<path d="M11.6486 4.2002C11.9317 4.2002 11.9664 4.34031 11.9491 4.4992C11.9491 4.67686 11.861 4.60608 11.8075 4.85308C11.7902 4.92386 11.7209 4.93975 11.6313 4.93975C11.5779 4.93975 11.5085 4.93975 11.4724 4.83431C11.419 4.60608 11.3309 4.65808 11.3309 4.48186C11.3309 4.34031 11.367 4.2002 11.6486 4.2002Z" fill="#F9DD16" stroke="black" stroke-width="0.0434382"/>
<path d="M10.925 4.85296C10.8556 4.81685 10.8022 4.85296 10.7661 4.85296C10.873 4.87029 10.873 4.99307 11.0839 5.02918C11.0319 5.02918 11.0131 5.06385 10.9611 5.02918C11.0477 5.09996 11.1373 5.18807 11.3496 5.18807C11.4724 5.18807 11.3843 5.24007 11.3135 5.2054C11.3843 5.29351 11.5432 5.22274 11.6486 5.38163C11.6486 5.25885 11.4724 5.08118 11.562 4.9584C11.2615 4.94107 11.2442 4.78218 11.0853 4.65796C10.9437 4.55251 10.9264 4.44707 10.873 4.25351C10.8556 4.16396 10.7487 4.11196 10.6967 4.12929C10.6433 4.12929 10.6072 4.18129 10.6606 4.21596C10.6967 4.25207 10.7661 4.25207 10.7661 4.34018C10.7141 4.27085 10.626 4.25351 10.5899 4.28818C10.5725 4.32285 10.5899 4.37485 10.626 4.37485C10.7126 4.37485 10.6606 4.48174 10.7487 4.55251C10.6621 4.4644 10.5899 4.44707 10.5379 4.49907C10.5191 4.53518 10.5379 4.58718 10.6072 4.58718C10.6967 4.58718 10.7849 4.79951 10.925 4.85296V4.85296ZM13.2202 5.66474C13.1841 5.66474 13.2014 5.7514 13.1321 5.7514C13.2722 5.7514 13.3603 5.71674 13.4137 5.66474L13.3791 5.7514C13.4484 5.6994 13.6434 5.68207 13.7315 5.6994C13.8196 5.71674 13.837 5.68207 13.8731 5.62863C13.9077 5.55785 13.8731 5.52318 13.8196 5.48707C13.7662 5.43507 13.7489 5.36429 13.7662 5.25885C13.5206 4.90496 13.0613 5.08118 13.0613 5.22274C13.2202 5.41774 13.2375 5.39896 13.3791 5.41774C13.5019 5.4524 13.59 5.4524 13.5019 5.52318C13.4672 5.55785 13.3256 5.52318 13.2375 5.54051C13.0079 5.54051 12.8836 5.38163 12.8316 5.46974C12.7782 5.54196 12.8316 5.57663 12.9371 5.57663C12.8663 5.57663 12.7609 5.57663 12.7782 5.64596C12.8143 5.77018 12.9197 5.62863 12.9732 5.66474C12.9371 5.66474 12.8663 5.68207 12.8663 5.71674C12.8663 5.75285 12.9544 5.80485 13.0425 5.71674C13.0942 5.67988 13.1568 5.66156 13.2202 5.66474V5.66474Z" fill="#F9DD16" stroke="black" stroke-width="0.0434382"/>
<path d="M13.4137 5.15223C13.3375 5.11385 13.2507 5.10167 13.1667 5.11757M12.1787 5.11757C12.1065 5.25912 12.1426 5.3299 12.1614 5.39923M11.4536 4.41123C11.4897 4.44735 11.5259 4.37657 11.5966 4.44735C11.5779 4.42857 11.5432 4.49935 11.4897 4.44735M11.8436 4.42857C11.7902 4.42857 11.7555 4.37657 11.6847 4.44735C11.7021 4.42857 11.7367 4.49935 11.7902 4.44735M11.6847 4.44735V4.49935C11.7021 4.62357 11.7367 4.67701 11.6313 4.67701C11.5432 4.67701 11.5779 4.62357 11.5966 4.49935V4.44879" stroke="black" stroke-width="0.0434382"/>
<path d="M11.6486 4.88787C11.7209 4.88787 11.7555 4.88787 11.7555 4.78243C11.7555 4.74631 11.8075 4.72898 11.7729 4.6582C11.8075 4.73043 11.6486 4.73043 11.6486 4.69431C11.6486 4.72898 11.4724 4.72898 11.5085 4.6582C11.4897 4.73043 11.5432 4.74631 11.5259 4.78243C11.5259 4.88787 11.5605 4.88787 11.6486 4.88787V4.88787Z" fill="#FF0016" stroke="black" stroke-width="0.0434382"/>
<path d="M11.5605 4.67698L11.3843 4.62354ZM11.5605 4.67698H11.3843ZM11.5605 4.69431L11.4016 4.74631ZM11.7021 4.67698L11.8783 4.62354ZM11.7021 4.67698H11.9144ZM11.7021 4.69431L11.8783 4.74631Z" fill="black"/>
<path d="M11.5605 4.67698L11.3843 4.62354M11.5605 4.67698H11.3843M11.5605 4.69431L11.4016 4.74631M11.7021 4.67698L11.8783 4.62354M11.7021 4.67698H11.9144M11.7021 4.69431L11.8783 4.74631" stroke="black" stroke-width="0.0434382"/>
<path d="M10.6967 4.12956C10.6433 4.05734 10.5191 4.12956 10.5191 4.20034C10.5552 4.14689 10.626 4.21767 10.678 4.20034C10.6967 4.20034 10.7314 4.16423 10.6967 4.12812V4.12956ZM10.6433 4.28845C10.5899 4.21623 10.4497 4.28845 10.4497 4.35923C10.4844 4.30578 10.5552 4.37656 10.6086 4.35923C10.626 4.35923 10.6606 4.30578 10.6433 4.28701V4.28845ZM10.6072 4.49934C10.5379 4.42856 10.4136 4.49934 10.431 4.58745C10.4671 4.53545 10.5379 4.58745 10.5725 4.58745C10.6072 4.57012 10.626 4.51812 10.5899 4.50078L10.6072 4.49934ZM10.6606 5.15223C10.5899 5.08145 10.4844 5.17101 10.4844 5.25912C10.5191 5.18689 10.6072 5.25912 10.6606 5.22301C10.6606 5.22301 10.6967 5.17101 10.6606 5.13634V5.15223ZM10.6606 5.27645C10.574 5.25912 10.4844 5.38189 10.5379 5.45267C10.5379 5.36456 10.6433 5.39923 10.678 5.36456L10.6606 5.27645V5.27645ZM10.7661 5.39923C10.6794 5.36456 10.5899 5.47145 10.6433 5.54078C10.6433 5.48734 10.7487 5.50612 10.7661 5.47001V5.38334V5.39923ZM12.8316 5.59423C12.7435 5.57689 12.6554 5.68089 12.7074 5.77045C12.7074 5.68234 12.8143 5.71701 12.849 5.68234L12.8316 5.59423ZM12.9371 5.69967C12.8504 5.68234 12.7782 5.80512 12.8316 5.87589C12.8316 5.78923 12.9371 5.80512 12.9544 5.77045C12.9732 5.75312 12.9732 5.69967 12.9544 5.69967H12.9371ZM12.8663 5.45412C12.7955 5.41801 12.6901 5.52345 12.7074 5.59423C12.7435 5.52201 12.8316 5.57689 12.8663 5.54078V5.47001V5.45412ZM14.331 5.62889C14.2602 5.61156 14.1909 5.73578 14.2255 5.80512C14.2255 5.73578 14.331 5.75312 14.3671 5.71845C14.3671 5.68234 14.3671 5.62889 14.331 5.62889ZM14.331 5.50612C14.2602 5.45267 14.1547 5.55812 14.1909 5.62889C14.2255 5.57689 14.3136 5.61156 14.3497 5.57689V5.48734L14.331 5.50612ZM14.4032 5.73578C14.3136 5.73578 14.2443 5.85856 14.2963 5.91201C14.2963 5.83978 14.4017 5.85856 14.4191 5.82389C14.4379 5.78778 14.4191 5.75167 14.4017 5.73578H14.4032ZM11.6486 4.81712C11.7021 4.81712 11.7209 4.83445 11.7209 4.94134C11.7209 5.11756 11.7209 5.22301 11.6486 5.22301C11.5966 5.22301 11.5966 5.13634 11.5966 4.99334C11.5966 4.92401 11.5966 4.87056 11.5779 4.88789C11.5779 4.83445 11.5966 4.81712 11.6501 4.81712H11.6486Z" fill="#0051BA"/>
<path d="M14.4191 7.53547C14.3671 7.53547 14.3671 7.60624 14.3483 7.60624C14.4725 7.60624 14.526 7.57013 14.5606 7.49936V7.58747C14.6661 7.57013 14.7022 7.48202 14.6661 7.42858L14.773 7.46469C14.7195 7.42858 14.773 7.3058 14.6488 7.25236C14.6849 7.25236 14.7369 7.26969 14.773 7.32458C14.773 7.21769 14.7369 7.14691 14.6488 7.09347H14.721C14.6993 7.07752 14.6827 7.05574 14.6729 7.03067C14.6632 7.0056 14.6608 6.97828 14.6661 6.95191C14.6661 6.89991 14.6314 6.89991 14.5606 6.91724H14.279C14.1201 6.91724 13.9612 6.91724 13.837 6.82913C14.0493 6.93458 14.3136 6.74102 14.3136 6.59947C14.3136 6.42324 14.084 6.28169 13.6781 6.3698C13.2736 6.47669 12.7609 6.44202 12.7609 6.29902C12.7609 6.15602 13.1133 6.1228 13.3083 6.15891C13.5019 6.19358 13.6261 6.21091 13.9785 6.08669C13.9077 6.1228 13.6261 6.14158 13.3964 6.0708C13.1667 6.00002 12.6366 5.99858 12.6366 6.29902C12.6366 6.59947 13.2014 6.5648 13.6954 6.47669C13.9959 6.45791 14.1547 6.47669 14.1547 6.56336C14.1547 6.65002 13.8904 6.68758 13.6781 6.67024C13.4591 6.64252 13.2367 6.66072 13.0252 6.72369C12.8143 6.79447 12.6727 6.72369 12.4619 6.77569C12.3376 6.77569 12.0719 6.77569 11.9317 6.54747C11.8595 6.6168 11.6313 6.72369 11.5779 6.84647C11.5432 6.95191 11.5779 7.0588 11.6501 7.16424C11.7367 7.28847 11.5966 7.26969 11.4724 7.26969C11.367 7.26969 11.172 7.26969 11.068 7.14691C10.9784 7.0588 10.873 6.97069 10.7661 7.04147C10.7314 7.09347 10.7661 7.12813 10.8022 7.1108L10.925 7.14691C10.8993 7.13551 10.8711 7.1311 10.8432 7.13415C10.8153 7.13719 10.7887 7.14758 10.7661 7.16424C10.7314 7.20036 10.7661 7.26969 10.8195 7.25236C10.8556 7.23502 10.925 7.21769 10.9784 7.25236L10.8556 7.26969C10.8369 7.28847 10.8556 7.34191 10.9076 7.34191C10.9957 7.34191 11.0131 7.41124 11.1026 7.39391C11.082 7.39449 11.0617 7.39957 11.0433 7.4088C11.0248 7.41803 11.0086 7.43119 10.9957 7.44736C11.0839 7.41125 11.172 7.51669 11.2789 7.48202C11.2427 7.49936 11.172 7.5528 11.172 7.58747C11.2254 7.5008 11.6847 7.64091 11.6847 7.46469L11.6674 7.58747C11.7021 7.57013 11.8783 7.5528 11.9491 7.42858C11.9491 7.46469 11.9491 7.51669 11.9144 7.53547C11.9664 7.53547 12.0372 7.49936 12.1253 7.39391C12.1614 7.34047 12.1614 7.3058 12.1614 7.26969C12.2307 7.26969 12.2842 7.26969 12.3376 7.21769C12.4084 7.16425 12.4777 7.26969 12.5832 7.18158C12.6727 7.1108 12.7609 7.18158 12.8316 7.14691C12.8836 7.1108 12.9732 7.14691 13.0252 7.1108C13.0772 7.07469 13.2014 7.12958 13.2895 7.0588C13.4484 7.1108 13.6434 7.21769 14.1013 7.12958C14.3671 7.09347 14.4552 7.18158 14.4552 7.3058C14.4552 7.39247 14.4018 7.39247 14.3671 7.39247C14.1909 7.39247 14.1547 7.34047 14.084 7.3578C14.0666 7.3578 14.032 7.43002 14.084 7.46469C14.0493 7.48202 14.0493 7.53547 14.084 7.55136C14.1186 7.56725 14.1562 7.55136 14.2082 7.53547C14.136 7.53547 14.084 7.58747 14.1201 7.64091C14.1374 7.67558 14.1909 7.69436 14.2429 7.64091C14.279 7.58747 14.3671 7.53547 14.4191 7.53547V7.53547ZM11.4724 6.26436C11.3496 6.21091 11.2962 6.21091 11.3309 6.3178C11.3309 6.3698 11.3843 6.44058 11.4031 6.47669C11.4031 6.42324 11.419 6.29902 11.4724 6.28169V6.26436Z" fill="#F9DD16" stroke="black" stroke-width="0.0434382"/>
<path d="M11.9144 6.28338C12.0199 6.21115 12.0906 6.21115 12.0372 6.31804C12.0323 6.3775 12.0074 6.43353 11.9664 6.47693C11.9664 6.42349 11.9664 6.29927 11.8956 6.28193L11.9144 6.28338Z" fill="#F9DD16" stroke="black" stroke-width="0.0434382"/>
<path d="M11.7021 6.19336C11.9491 6.19336 11.9837 6.31758 11.9664 6.47647C11.9664 6.63536 11.8797 6.56314 11.8436 6.79425C11.8249 6.84625 11.7555 6.86358 11.6674 6.86358C11.6313 6.86358 11.5605 6.86358 11.5432 6.77691C11.4897 6.56458 11.4016 6.59925 11.4016 6.45914C11.4016 6.31903 11.4377 6.19336 11.7021 6.19336V6.19336Z" fill="#F9DD16" stroke="black" stroke-width="0.0434382"/>
<path d="M11.0319 6.79444C10.9784 6.75833 10.925 6.79444 10.9076 6.79444C10.9957 6.79444 10.9957 6.91722 11.1907 6.95333H11.0665C11.1546 7.00533 11.2427 7.09344 11.419 7.09344C11.5432 7.09344 11.4551 7.12955 11.3843 7.09344C11.4551 7.18155 11.5966 7.11077 11.7021 7.26966C11.7021 7.14689 11.5259 6.988 11.614 6.88255C11.3496 6.86377 11.3309 6.70488 11.1907 6.61677C11.0665 6.51133 11.0492 6.42322 10.9957 6.247C10.9784 6.15888 10.8903 6.12277 10.8195 6.14155C10.7849 6.14155 10.7487 6.17622 10.8195 6.21089C10.8195 6.247 10.9076 6.247 10.9076 6.31777C10.8556 6.26433 10.7661 6.24555 10.7314 6.28166C10.7314 6.31777 10.7314 6.35389 10.7661 6.35389C10.8556 6.35389 10.8022 6.45788 10.8903 6.52866C10.8022 6.442 10.7487 6.42322 10.6967 6.47666C10.678 6.494 10.6967 6.54744 10.7487 6.54744C10.8369 6.54744 10.925 6.72366 11.0492 6.793L11.0319 6.79444ZM13.1133 7.49933C13.0786 7.49933 13.096 7.58744 13.0266 7.58744C13.1494 7.58744 13.2375 7.57011 13.2895 7.51666L13.2549 7.58889C13.3083 7.55277 13.4845 7.53544 13.5726 7.55277C13.6607 7.57011 13.6607 7.53544 13.6954 7.482C13.7315 7.42855 13.6954 7.39388 13.6434 7.35777C13.6073 7.30577 13.59 7.25233 13.6073 7.14689C13.3791 6.82911 12.9717 6.988 12.9717 7.11077C13.1133 7.28844 13.1306 7.28844 13.2549 7.28844C13.3603 7.32311 13.4311 7.32311 13.3603 7.39389C13.3256 7.42855 13.2014 7.39389 13.1321 7.39389C12.9197 7.39389 12.8143 7.26966 12.7609 7.34044C12.7074 7.41266 12.7609 7.42855 12.849 7.42855C12.7955 7.42855 12.6901 7.42855 12.7074 7.50077C12.7435 7.60622 12.8316 7.50077 12.8836 7.50077C12.849 7.50077 12.797 7.53544 12.797 7.57011C12.797 7.58744 12.8663 7.64089 12.9559 7.57011C13.001 7.53432 13.0572 7.51541 13.1147 7.51666L13.1133 7.49933Z" fill="#F9DD16" stroke="black" stroke-width="0.0434382"/>
<path d="M13.2895 7.05897C13.2197 7.02163 13.1393 7.0089 13.0613 7.02286M12.1787 7.02286C12.1065 7.14708 12.1426 7.20052 12.1614 7.26986M11.5259 6.38874C11.5432 6.42341 11.5779 6.35263 11.6486 6.42341C11.6313 6.40608 11.5966 6.47686 11.5432 6.42341M11.861 6.40608C11.8249 6.40608 11.7902 6.35263 11.7194 6.40608C11.7367 6.40608 11.7729 6.47686 11.8249 6.40608M11.7194 6.40608V6.47686C11.7367 6.5823 11.7729 6.63574 11.6847 6.63574C11.5966 6.63574 11.6313 6.5823 11.6486 6.45808V6.42341" stroke="black" stroke-width="0.0434382"/>
<path d="M11.7021 6.8117C11.7555 6.8117 11.7902 6.8117 11.7902 6.72359C11.7902 6.68748 11.8436 6.67014 11.7902 6.6167C11.8436 6.67014 11.7021 6.67014 11.7021 6.63548C11.7021 6.67014 11.5259 6.67014 11.5605 6.6167C11.5605 6.67014 11.5966 6.68892 11.5779 6.72359C11.5779 6.81026 11.614 6.81026 11.7021 6.81026V6.8117Z" fill="#FF0016" stroke="black" stroke-width="0.0434382"/>
<path d="M11.614 6.63548L11.4551 6.58203ZM11.614 6.63548H11.4551ZM11.614 6.63548L11.4724 6.68748ZM11.7367 6.63548L11.9144 6.58203ZM11.7367 6.63548H11.9317ZM11.7555 6.63548L11.8956 6.68748Z" fill="black"/>
<path d="M11.614 6.63548L11.4551 6.58203M11.614 6.63548H11.4551M11.614 6.63548L11.4724 6.68748M11.7367 6.63548L11.9144 6.58203M11.7367 6.63548H11.9317M11.7555 6.63548L11.8956 6.68748" stroke="black" stroke-width="0.0434382"/>
<path d="M10.8369 6.14178C10.7849 6.06955 10.6606 6.14178 10.6606 6.19378C10.7141 6.15911 10.7661 6.21111 10.8195 6.19378C10.8195 6.19378 10.873 6.15911 10.8195 6.14178H10.8369ZM10.7849 6.28189C10.7487 6.21111 10.6072 6.28189 10.6072 6.33533C10.6433 6.29922 10.7141 6.35266 10.7487 6.33533C10.7661 6.33533 10.8022 6.29922 10.7849 6.28189V6.28189ZM10.7487 6.45811C10.6967 6.40611 10.5725 6.45811 10.5899 6.54766C10.626 6.49422 10.6967 6.54766 10.7314 6.54766C10.7487 6.54766 10.7661 6.47544 10.7314 6.47544L10.7487 6.45811ZM10.8022 7.059C10.7487 6.98678 10.6433 7.059 10.6433 7.14566C10.678 7.09366 10.7487 7.14566 10.8195 7.111V7.059H10.8022ZM10.8022 7.16444C10.7314 7.16444 10.6433 7.26989 10.6967 7.34066C10.6967 7.254 10.7834 7.26989 10.8195 7.254V7.16444H10.8022ZM10.9076 7.26989C10.821 7.25255 10.7314 7.34211 10.7849 7.41144C10.7849 7.358 10.8903 7.37678 10.9076 7.34066V7.26989V7.26989ZM12.7609 7.44755C12.6727 7.44755 12.5846 7.53422 12.6554 7.62378C12.6554 7.53566 12.7421 7.57033 12.7782 7.53566L12.7609 7.44755ZM12.849 7.553C12.7782 7.53566 12.7074 7.64111 12.7609 7.71189C12.7609 7.62378 12.849 7.64111 12.8663 7.60644V7.553H12.849ZM12.7955 7.32333C12.7262 7.28866 12.6193 7.39411 12.6554 7.44755C12.6727 7.39411 12.7609 7.44755 12.7955 7.41144V7.34066V7.32333ZM14.1013 7.49955C14.0493 7.46489 13.9785 7.58766 14.0146 7.64111C14.0146 7.58766 14.1013 7.58766 14.1374 7.57033C14.1374 7.53566 14.1374 7.48222 14.1013 7.48222V7.49955ZM14.1013 7.37678C14.0493 7.32333 13.9424 7.42878 13.9785 7.48222C14.0132 7.42878 14.084 7.48222 14.1201 7.42878V7.358L14.1013 7.37678ZM14.1735 7.58766C14.084 7.58766 14.032 7.69455 14.084 7.74655C14.084 7.67578 14.1721 7.69455 14.1909 7.65989L14.1721 7.58766H14.1735ZM11.7021 6.75855C11.7367 6.75855 11.7555 6.75855 11.7555 6.864C11.7555 7.02289 11.7555 7.111 11.7021 7.111C11.6486 7.111 11.6486 7.04166 11.6486 6.91744C11.6486 6.84666 11.6486 6.79466 11.6313 6.812C11.6313 6.77589 11.6313 6.75855 11.7021 6.75855V6.75855Z" fill="#0051BA"/>
<path d="M13.642 9.50451C13.5957 9.50451 13.5957 9.57673 13.5842 9.57673C13.6766 9.57673 13.7229 9.5334 13.746 9.47562V9.56229C13.8153 9.5334 13.8384 9.46118 13.8153 9.41784L13.8962 9.44673C13.85 9.4034 13.8846 9.30229 13.8037 9.24451C13.8269 9.24451 13.8731 9.2734 13.8962 9.31673C13.8846 9.21562 13.8731 9.15784 13.8037 9.10007H13.8615C13.8464 9.08751 13.8342 9.07024 13.8261 9.04997C13.818 9.0297 13.8143 9.00714 13.8153 8.98451C13.8153 8.92673 13.7922 8.92673 13.746 8.94118L13.538 8.95562C13.4224 8.95562 13.3069 8.95562 13.2144 8.86896C13.3646 8.95562 13.5611 8.78229 13.5611 8.65229C13.5611 8.50784 13.3993 8.3634 13.0989 8.45007C12.7984 8.53673 12.4286 8.50784 12.4286 8.37784C12.4286 8.24784 12.6944 8.2334 12.8331 8.26229C12.9717 8.29118 13.0642 8.30562 13.3184 8.19007C13.2606 8.21896 13.0526 8.2334 12.8909 8.17562C12.7291 8.11784 12.3362 8.11784 12.3362 8.37784C12.3362 8.65229 12.7522 8.6234 13.122 8.55118C13.33 8.52229 13.4455 8.55118 13.4455 8.6234C13.4455 8.71007 13.2491 8.73896 13.0989 8.72451C12.9402 8.69779 12.7789 8.71254 12.6251 8.76784C12.4749 8.82562 12.3709 8.76784 12.2091 8.81118C12.1282 8.81118 11.9317 8.81118 11.8393 8.60896C11.7815 8.66673 11.6082 8.76784 11.5735 8.8834C11.5389 8.97007 11.5735 9.07118 11.6197 9.17229C11.6891 9.28784 11.5851 9.2734 11.5042 9.2734C11.4117 9.2734 11.2731 9.2734 11.2037 9.15784C11.1344 9.07118 11.0535 8.99896 10.9842 9.05673C10.9495 9.10007 10.9842 9.1434 11.0073 9.12896L11.0997 9.15784C11.0812 9.14729 11.0607 9.14307 11.0404 9.1456C11.0201 9.14814 11.0007 9.15735 10.9842 9.17229C10.9495 9.20118 10.9842 9.25896 11.0189 9.24451C11.042 9.23007 11.0997 9.21562 11.1344 9.24451C11.0997 9.24451 11.0535 9.24451 11.042 9.2734C11.0304 9.30229 11.042 9.33118 11.0766 9.33118C11.146 9.33118 11.1575 9.38896 11.2269 9.37451C11.2107 9.37562 11.195 9.38142 11.1809 9.39145C11.1669 9.40147 11.1549 9.41546 11.146 9.43229C11.2153 9.38896 11.2731 9.49007 11.354 9.46118C11.3309 9.47562 11.2731 9.51896 11.2731 9.54784C11.3193 9.47562 11.6429 9.60562 11.6429 9.44673L11.6313 9.56229C11.666 9.5334 11.7931 9.51896 11.8393 9.41784C11.8393 9.44673 11.8393 9.49007 11.8162 9.50451C11.8509 9.50451 11.9086 9.47562 11.9664 9.37451C11.9895 9.33118 11.9895 9.30229 11.9895 9.2734C12.0473 9.2734 12.082 9.25896 12.1282 9.21562C12.1744 9.17229 12.2206 9.25896 12.3015 9.18673C12.3709 9.12896 12.4402 9.18673 12.4864 9.15784C12.5211 9.12896 12.5789 9.15784 12.6251 9.12896C12.6713 9.10007 12.7406 9.1434 12.81 9.07118C12.9255 9.12896 13.0757 9.21562 13.4109 9.1434C13.5957 9.10007 13.6651 9.18673 13.6651 9.28784C13.6651 9.37451 13.6189 9.37451 13.5957 9.37451C13.4802 9.38896 13.4455 9.33118 13.3993 9.34562C13.3762 9.36007 13.3531 9.41784 13.3993 9.44673C13.3646 9.46118 13.3646 9.50451 13.3877 9.51896C13.4109 9.5334 13.4455 9.51896 13.4802 9.50451C13.434 9.51896 13.3993 9.56229 13.4224 9.60562C13.434 9.63451 13.4686 9.64896 13.5033 9.60562C13.538 9.54784 13.5957 9.50451 13.642 9.50451V9.50451ZM11.4926 8.34896C11.4002 8.30562 11.3771 8.30562 11.3886 8.40673C11.3886 8.45007 11.4233 8.50784 11.4464 8.53673C11.4464 8.4934 11.458 8.39229 11.4926 8.3634V8.34896Z" fill="#F9DD16" stroke="black" stroke-width="0.0318019"/>
<path d="M11.8046 8.36326C11.8971 8.30548 11.9317 8.30548 11.9086 8.40659C11.9086 8.44992 11.874 8.5077 11.8509 8.53659C11.8509 8.49326 11.8509 8.39215 11.8046 8.36326Z" fill="#F9DD16" stroke="black" stroke-width="0.0318019"/>
<path d="M11.6544 8.29102C11.8393 8.29102 11.8624 8.40657 11.8509 8.53657C11.8509 8.68102 11.7931 8.62324 11.7584 8.82546C11.7469 8.88324 11.7006 8.89768 11.6429 8.89768C11.6082 8.89768 11.562 8.89768 11.5389 8.81102C11.5042 8.62324 11.4464 8.66657 11.4464 8.52213C11.4464 8.40657 11.4695 8.29102 11.6544 8.29102V8.29102Z" fill="#F9DD16" stroke="black" stroke-width="0.0318019"/>
<path d="M11.1806 8.82546C11.1344 8.79657 11.0997 8.82546 11.0766 8.82546C11.146 8.8399 11.146 8.94101 11.2846 8.9699C11.25 8.9699 11.2384 8.99879 11.2037 8.9699C11.2615 9.02768 11.3193 9.0999 11.458 9.0999C11.5389 9.0999 11.4811 9.14324 11.4349 9.11435C11.4811 9.18657 11.5851 9.12879 11.6544 9.25879C11.6544 9.15768 11.5389 9.01324 11.5966 8.91213C11.4002 8.89768 11.3886 8.76768 11.2846 8.66657C11.1922 8.5799 11.1806 8.49324 11.146 8.33435C11.1344 8.26213 11.0651 8.21879 11.0304 8.23324C10.9957 8.23324 10.9726 8.27657 11.0073 8.30546C11.0304 8.33435 11.0766 8.33435 11.0766 8.40657C11.042 8.34879 10.9842 8.33435 10.9611 8.36324C10.9495 8.39213 10.9611 8.43546 10.9842 8.43546C11.042 8.43546 11.0073 8.52213 11.0651 8.5799C11.0073 8.50768 10.9611 8.49324 10.9264 8.53657C10.9149 8.56546 10.9264 8.60879 10.9726 8.60879C11.0304 8.60879 11.0882 8.78213 11.1806 8.82546V8.82546ZM12.6829 9.4899C12.6597 9.4899 12.6713 9.56213 12.6251 9.56213C12.7175 9.56213 12.7753 9.53324 12.81 9.4899L12.7869 9.56213C12.8331 9.51879 12.9602 9.50435 13.018 9.51879C13.0757 9.53324 13.0873 9.50435 13.1104 9.46101C13.1335 9.40324 13.1104 9.37435 13.0757 9.34546C13.0411 9.30213 13.0295 9.24435 13.0411 9.15768C12.8793 8.86879 12.5789 9.01324 12.5789 9.12879C12.6829 9.28768 12.6944 9.27324 12.7869 9.28768C12.8677 9.31657 12.9255 9.31657 12.8677 9.37435C12.8446 9.40324 12.7522 9.37435 12.6944 9.38879C12.5442 9.38879 12.4633 9.25879 12.4286 9.33101C12.394 9.38879 12.4286 9.41768 12.498 9.41768C12.4517 9.41768 12.3824 9.41768 12.394 9.47546C12.4171 9.57657 12.4864 9.46101 12.5211 9.4899C12.498 9.4899 12.4517 9.50435 12.4517 9.53324C12.4517 9.56213 12.5095 9.60546 12.5673 9.53324C12.6009 9.50305 12.6415 9.48779 12.6829 9.4899V9.4899Z" fill="#F9DD16" stroke="black" stroke-width="0.0318019"/>
<path d="M12.81 9.0712C12.7637 9.04231 12.706 9.02787 12.6482 9.04231M12.0011 9.04231C11.9549 9.15787 11.978 9.21565 11.9895 9.27342M11.5273 8.46453C11.5504 8.49342 11.5735 8.43565 11.6197 8.49342C11.6082 8.47898 11.5851 8.53676 11.5504 8.49342M11.7815 8.47898C11.7469 8.47898 11.7237 8.43565 11.6775 8.49342C11.6891 8.47898 11.7122 8.53676 11.7469 8.49342M11.6775 8.49342V8.53676C11.6891 8.63787 11.7122 8.6812 11.6429 8.6812C11.5851 8.6812 11.6082 8.63787 11.6197 8.53676V8.49342" stroke="black" stroke-width="0.0318019"/>
<path d="M11.6544 8.85428C11.7006 8.85428 11.7237 8.85428 11.7237 8.76762C11.7237 8.73873 11.7584 8.72428 11.7353 8.6665C11.7584 8.72428 11.6544 8.72428 11.6544 8.69539C11.6544 8.72428 11.5389 8.72428 11.562 8.6665C11.5504 8.72428 11.5851 8.73873 11.5735 8.76762C11.5735 8.85428 11.5966 8.85428 11.6544 8.85428V8.85428Z" fill="#FF0016" stroke="black" stroke-width="0.0318019"/>
<path d="M11.5966 8.68103L11.4811 8.6377ZM11.5966 8.68103H11.4811ZM11.5966 8.69547L11.4926 8.73881ZM11.6891 8.68103L11.8046 8.6377ZM11.6891 8.68103H11.8277ZM11.6891 8.69547L11.8046 8.73881Z" fill="black"/>
<path d="M11.5966 8.68103L11.4811 8.6377M11.5966 8.68103H11.4811M11.5966 8.69547L11.4926 8.73881M11.6891 8.68103L11.8046 8.6377M11.6891 8.68103H11.8277M11.6891 8.69547L11.8046 8.73881" stroke="black" stroke-width="0.0318019"/>
<path d="M11.3179 7.94991C11.2832 7.89646 11.2009 7.94991 11.2009 8.00191C11.224 7.96291 11.2716 8.01635 11.3063 8.00191C11.3179 8.00191 11.3424 7.97591 11.3179 7.94991ZM11.2832 8.06835C11.2471 8.01635 11.1532 8.06835 11.1532 8.1218C11.1763 8.08135 11.224 8.1348 11.2601 8.1218C11.2716 8.1218 11.2947 8.08135 11.2832 8.06835ZM11.2601 8.22724C11.2124 8.17524 11.1301 8.22724 11.1416 8.29369C11.1647 8.25469 11.2124 8.29369 11.2355 8.29369C11.2601 8.27924 11.2716 8.24024 11.2471 8.22724H11.2601ZM11.2947 8.71835C11.2471 8.66491 11.1763 8.72991 11.1763 8.79635C11.2009 8.74435 11.2601 8.79635 11.2947 8.77035C11.2947 8.77035 11.3179 8.72991 11.2947 8.70391V8.71835ZM11.2947 8.80935C11.237 8.79635 11.1763 8.8888 11.2124 8.94224C11.2124 8.8758 11.2832 8.9018 11.3063 8.8758L11.2947 8.80935V8.80935ZM11.367 8.9018C11.3063 8.8758 11.2471 8.95524 11.2832 9.00869C11.2832 8.96824 11.354 8.98124 11.3655 8.95524V8.8888L11.367 8.9018ZM12.7493 9.04769C12.6901 9.03469 12.6309 9.11413 12.667 9.18057C12.667 9.11413 12.7377 9.14013 12.7609 9.11413L12.7493 9.04769V9.04769ZM12.8201 9.12713C12.7623 9.11413 12.7132 9.20657 12.7479 9.26002C12.7479 9.19357 12.8201 9.20657 12.8316 9.18057C12.8432 9.16613 12.8432 9.12713 12.8316 9.12713H12.8201ZM12.7724 8.94224C12.7262 8.91624 12.654 8.99569 12.667 9.04769C12.6901 8.99569 12.7493 9.03469 12.7724 9.00869V8.95524V8.94224ZM13.7546 9.07513C13.707 9.06069 13.6593 9.15458 13.6824 9.20658C13.6824 9.15458 13.7546 9.16758 13.7777 9.14013C13.7777 9.11413 13.7777 9.07513 13.7546 9.07513ZM13.7546 8.98124C13.707 8.94224 13.6362 9.02169 13.6593 9.07513C13.6839 9.03469 13.7416 9.06069 13.7662 9.03469V8.96969L13.7546 8.98124ZM13.8009 9.15457C13.7431 9.15457 13.6954 9.24702 13.7301 9.28602C13.7301 9.23402 13.8023 9.24702 13.8139 9.21957C13.8254 9.19357 13.8139 9.16757 13.8009 9.15457ZM11.9577 8.46413C11.9939 8.46413 12.0054 8.47857 12.0054 8.55657C12.0054 8.68946 12.0054 8.76891 11.9577 8.76891C11.9231 8.76891 11.9231 8.70246 11.9231 8.59558C11.9231 8.54358 11.9231 8.50457 11.9115 8.51757C11.9115 8.47713 11.9231 8.46413 11.9577 8.46413V8.46413Z" fill="#0051BA"/>
</g>
</g>
<defs>
<clipPath id="clip0_1_13501">
<rect width="26" height="26" fill="white"/>
</clipPath>
</defs>
</svg>
