<svg width="26" height="26" viewBox="0 0 26 26" fill="none" xmlns="http://www.w3.org/2000/svg">
<mask id="mask0_1_11393" style="mask-type:alpha" maskUnits="userSpaceOnUse" x="0" y="0" width="26" height="26">
<circle cx="13" cy="13" r="13" fill="#634848"/>
</mask>
<g mask="url(#mask0_1_11393)">
</g>
<g clip-path="url(#clip0_1_11393)">
<path d="M13 26C20.1797 26 26 20.1797 26 13C26 5.8203 20.1797 0 13 0C5.82027 0 -3.05176e-05 5.8203 -3.05176e-05 13C-3.05176e-05 20.1797 5.82027 26 13 26Z" fill="#F0F0F0"/>
<path d="M13 0C7.84598 0 3.39267 2.99939 1.28992 7.34784H24.71C22.6073 2.99939 18.1539 0 13 0V0Z" fill="black"/>
<path d="M13 26.0002C7.84598 26.0002 3.39267 23.0008 1.28992 18.6523H24.71C22.6073 23.0008 18.1539 26.0002 13 26.0002V26.0002Z" fill="#496E2D"/>
<path d="M25.3861 9.04346H0.613875C0.215649 10.2911 -1.90735e-05 11.6203 -1.90735e-05 13C-1.90735e-05 14.3797 0.215649 15.7089 0.613875 16.9565H25.386C25.7843 15.7089 26 14.3797 26 13C26 11.6203 25.7843 10.2911 25.3861 9.04346Z" fill="#A2001D"/>
<path d="M17.048 6.00746L15.5085 5.29688L13 10.9768L10.4915 5.29688L8.95194 6.00746L12.0663 13L8.95194 19.9925L10.4915 20.7031L13 15.0232L15.5085 20.7031L17.048 19.9925L13.9337 13L17.048 6.00746Z" fill="#F0F0F0"/>
<path d="M14.0456 6.67736C13.4496 6.0265 13 5.65234 13 5.65234C13 5.65234 12.5503 6.02645 11.9543 6.67736V19.3229C12.5503 19.9739 13 20.348 13 20.348C13 20.348 13.4496 19.9739 14.0456 19.323V6.67736Z" fill="#F0F0F0"/>
<path d="M10.1739 9.10181V16.8973C10.8037 18.0133 11.5745 18.9279 12.1522 19.5344V6.46484C11.5745 7.07122 10.8036 7.98594 10.1739 9.10181V9.10181Z" fill="#A2001D"/>
<path d="M15.826 9.10181C15.1962 7.98589 14.4254 7.07122 13.8478 6.46484V19.5344C14.4254 18.9279 15.1962 18.0133 15.826 16.8973V9.10181Z" fill="#A2001D"/>
<path d="M15.826 9.10205V16.8976C16.4636 15.7677 16.9565 14.4317 16.9565 12.9999C16.9565 11.568 16.4636 10.2319 15.826 9.10205Z" fill="black"/>
<path d="M10.1739 9.10205V16.8976C9.53634 15.7677 9.04346 14.4317 9.04346 12.9999C9.04346 11.568 9.53634 10.2319 10.1739 9.10205Z" fill="black"/>
</g>
<defs>
<clipPath id="clip0_1_11393">
<rect width="26" height="26" fill="white"/>
</clipPath>
</defs>
</svg>
