<svg width="26" height="26" viewBox="0 0 26 26" fill="none" xmlns="http://www.w3.org/2000/svg">
<mask id="mask0_1_11348" style="mask-type:alpha" maskUnits="userSpaceOnUse" x="0" y="0" width="26" height="26">
<circle cx="13" cy="13" r="13" fill="#634848"/>
</mask>
<g mask="url(#mask0_1_11348)">
<mask id="mask1_1_11348" style="mask-type:alpha" maskUnits="userSpaceOnUse" x="-5" y="0" width="36" height="26">
<rect x="-4.33333" width="34.6667" height="26" fill="white"/>
</mask>
<g mask="url(#mask1_1_11348)">
<path fill-rule="evenodd" clip-rule="evenodd" d="M-4.33073 0V26H30.3359V0H-4.33073Z" fill="#C51918"/>
<mask id="mask2_1_11348" style="mask-type:alpha" maskUnits="userSpaceOnUse" x="-5" y="0" width="36" height="26">
<path fill-rule="evenodd" clip-rule="evenodd" d="M-4.33073 0V26H30.3359V0H-4.33073Z" fill="white"/>
</mask>
<g mask="url(#mask2_1_11348)">
<path fill-rule="evenodd" clip-rule="evenodd" d="M12.9701 19.3573C13.0863 19.3573 13.2017 19.3543 13.3164 19.3483L13.9849 21.4801L14.1397 19.2529C14.3634 19.2125 14.583 19.1607 14.798 19.0981L15.9441 21.0195L15.5768 18.8162C15.7839 18.7258 15.9853 18.625 16.1804 18.5145L17.7435 20.1231L16.873 18.0613C17.0527 17.9267 17.2251 17.7829 17.3896 17.6308L19.286 18.8394L17.9593 17.0319C18.1029 16.8604 18.2376 16.6813 18.3628 16.4954L20.4884 17.2374L18.7785 15.7832C18.8783 15.5838 18.968 15.3785 19.0468 15.168L21.2859 15.4036L19.2849 14.3801C19.3352 14.1639 19.3745 13.9436 19.4021 13.7196L21.6355 13.4367L19.4506 12.8986C19.4495 12.6723 19.4366 12.4487 19.4125 12.2285L21.5185 11.4429L19.2707 11.4191C19.2174 11.1995 19.1527 10.9842 19.0772 10.7739L20.941 9.52966L18.7504 10.0202C18.6474 9.81918 18.534 9.62425 18.4109 9.43611L19.9342 7.80005L17.9178 8.77792C17.7711 8.60604 17.6154 8.44191 17.4515 8.28623L18.5524 6.34736L16.82 7.75829C16.6373 7.62429 16.4473 7.49959 16.2507 7.38488L16.8701 5.24989L15.5147 7.01608C15.3058 6.92753 15.0913 6.84956 14.8718 6.78283L14.978 4.56682L14.0705 6.59391C13.8473 6.55605 13.6202 6.5295 13.3899 6.51489L12.9781 4.33496L12.5665 6.51389C12.3357 6.52795 12.1082 6.554 11.8846 6.59141L10.9782 4.56682L11.0842 6.77806C10.8634 6.84456 10.6476 6.92243 10.4376 7.01098L9.08606 5.24989L9.70322 7.37692C9.50474 7.49206 9.31298 7.61737 9.12867 7.75213L7.40378 6.34736L8.49912 8.27638C8.33315 8.43332 8.17555 8.59892 8.02708 8.77243L6.022 7.80005L7.53588 9.42603C7.41095 9.61629 7.2959 9.81351 7.19145 10.017L5.01523 9.52966L6.86606 10.7653C6.78928 10.9784 6.72351 11.1966 6.66944 11.4193L4.43774 11.4429L6.5283 12.2228C6.50368 12.4461 6.49059 12.6729 6.48964 12.9025L4.32066 13.4367L6.53781 13.7176C6.56581 13.9447 6.60575 14.1683 6.65701 14.3875L4.67031 15.4036L6.89398 15.1696C6.97395 15.3829 7.06501 15.5909 7.16646 15.7928L5.46783 17.2374L7.58048 16.4999C7.7073 16.6879 7.84385 16.8689 7.98942 17.0421L6.67024 18.8394L8.55718 17.6368C8.72335 17.7901 8.89764 17.9349 9.07935 18.0704L8.2127 20.1231L9.77017 18.5203C9.96669 18.6312 10.1696 18.7322 10.3783 18.8226L10.0121 21.0195L11.1558 19.102C11.3717 19.1643 11.5922 19.2158 11.8167 19.2558L11.9713 21.4801L12.6396 19.3491C12.7491 19.3546 12.8593 19.3573 12.9701 19.3573ZM17.8521 12.9105C17.8521 15.6023 15.652 17.7845 12.9381 17.7845C10.2242 17.7845 8.02409 15.6023 8.02409 12.9105C8.02409 10.2186 10.2242 8.03638 12.9381 8.03638C15.652 8.03638 17.8521 10.2186 17.8521 12.9105ZM16.3669 14.4928C16.5707 14.033 16.6839 13.5241 16.6839 12.9888C16.6839 12.4643 16.5752 11.9652 16.3791 11.5127C15.5328 11.5734 14.8153 11.7964 14.2331 12.0816C15.5247 12.6469 16.1102 13.5767 16.3669 14.4928ZM15.9503 15.2057C15.8447 15.3474 15.7292 15.4814 15.6049 15.6066C15.5349 14.33 14.9884 13.3559 14.009 12.3054C15.2206 12.8872 15.9047 14.2741 15.9503 15.2057ZM15.0218 16.0856C14.952 16.1319 14.8806 16.176 14.8077 16.2176C14.5163 14.7815 13.9647 13.6481 13.1969 12.7422L13.3848 12.6006C13.4097 12.5818 13.435 12.563 13.4609 12.5443C14.4437 13.6747 15.0639 14.6446 15.0218 16.0856ZM12.9689 16.7038C13.4052 16.7038 13.824 16.6286 14.2129 16.4904C13.9311 15.1254 13.4404 13.8537 12.7304 12.935C11.8812 13.9478 11.4495 15.0922 11.4344 16.3731C11.9021 16.5855 12.4217 16.7038 12.9689 16.7038ZM12.2591 12.4916C12.2892 12.5152 12.3179 12.5387 12.3451 12.562C11.4388 13.5936 10.9436 14.7571 10.8603 16.0478C10.7479 15.9702 10.64 15.8866 10.5371 15.7974C10.8783 14.4327 11.4445 13.3068 12.2591 12.4916ZM9.54828 11.5371C10.4017 11.6328 11.0752 11.8401 11.5797 12.0801C10.293 12.6268 9.78793 13.5084 9.53414 14.4069C9.35355 13.9699 9.25391 13.491 9.25391 12.9888C9.25391 12.4737 9.35876 11.9831 9.54828 11.5371ZM10.0188 15.2471C9.98996 15.2094 9.96179 15.1712 9.93434 15.1324C9.99681 14.1898 10.5976 12.8482 11.8134 12.2976C10.9989 13.0877 10.3899 13.9871 10.0188 15.2471ZM10.2896 10.4154C10.9656 9.71177 11.9161 9.27384 12.9689 9.27384C14.0057 9.27384 14.9434 9.69859 15.6173 10.3836C14.5585 10.5068 13.6605 10.7725 12.9312 11.1856C12.2795 10.8117 11.3983 10.5591 10.2896 10.4154Z" fill="#FFDC17"/>
</g>
</g>
</g>
</svg>
