<svg width="26" height="26" viewBox="0 0 26 26" fill="none" xmlns="http://www.w3.org/2000/svg">
<mask id="mask0_1_13557" style="mask-type:alpha" maskUnits="userSpaceOnUse" x="0" y="0" width="26" height="26">
<circle cx="13" cy="13" r="13" fill="#634848"/>
</mask>
<g mask="url(#mask0_1_13557)">
<g clip-path="url(#clip0_1_13557)">
<path fill-rule="evenodd" clip-rule="evenodd" d="M-8.34513 0.00195312H34.0952V15.5588H-8.34513V0.00195312Z" fill="#E73E2D"/>
<path fill-rule="evenodd" clip-rule="evenodd" d="M10.3739 14.3214C9.38504 13.5546 7.54487 13.8137 7.24346 11.7197C8.65003 12.809 8.39621 11.6563 10.5008 12.698L10.3739 14.3214V14.3214Z" fill="#FEC74A" stroke="#D8AA3F" stroke-width="0.20826"/>
<path fill-rule="evenodd" clip-rule="evenodd" d="M10.6383 13.3697C9.92969 12.3333 8.10009 12.0213 8.45438 9.93262C9.45907 11.4026 9.57011 10.2287 11.2569 11.8627L10.633 13.3697H10.6383Z" fill="#FEC74A" stroke="#D8AA3F" stroke-width="0.20826"/>
<path fill-rule="evenodd" clip-rule="evenodd" d="M10.9555 12.6928C10.7017 11.4713 9.13122 10.4772 10.2575 8.68457C10.6277 10.4296 11.1723 9.38257 12.1083 11.54L10.9555 12.6928Z" fill="#FEC74A" stroke="#D8AA3F" stroke-width="0.20826"/>
<path fill-rule="evenodd" clip-rule="evenodd" d="M11.6958 12.0688C11.828 10.8209 10.6383 9.39845 12.2563 8.03418C12.0713 9.80561 12.9173 8.98599 13.1447 11.3126L11.6905 12.0688H11.6958Z" fill="#FEC74A" stroke="#D8AA3F" stroke-width="0.20826"/>
<path fill-rule="evenodd" clip-rule="evenodd" d="M12.3515 11.561C12.9861 10.4822 12.4784 8.69494 14.5143 8.11328C13.6206 9.65205 14.7258 9.24488 13.9802 11.4711L12.3515 11.561V11.561Z" fill="#FEC74A" stroke="#D8AA3F" stroke-width="0.20826"/>
<path fill-rule="evenodd" clip-rule="evenodd" d="M13.3086 11.6934C14.2499 10.8685 14.3398 9.01773 16.4549 9.11291C15.1171 10.2868 16.2963 10.2551 14.8844 12.127L13.3086 11.6934V11.6934Z" fill="#FEC74A" stroke="#D8AA3F" stroke-width="0.20826"/>
<path fill-rule="evenodd" clip-rule="evenodd" d="M14.1494 12.1747C15.2916 11.6671 15.9208 9.92208 17.9143 10.6359C16.291 11.3657 17.4279 11.6829 15.5242 13.0525L14.1494 12.18V12.1747Z" fill="#FEC74A" stroke="#D8AA3F" stroke-width="0.20826"/>
<path fill-rule="evenodd" clip-rule="evenodd" d="M14.8474 12.9468C16.09 12.7776 17.1846 11.2758 18.8979 12.5238C17.1317 12.767 18.1364 13.391 15.9261 14.1736L14.8474 12.9468V12.9468Z" fill="#FEC74A" stroke="#D8AA3F" stroke-width="0.20826"/>
<path fill-rule="evenodd" clip-rule="evenodd" d="M19.268 13.1792L13.5783 13.3061L13.8163 14.8396L19.268 13.1845V13.1792Z" fill="#FEC74A" stroke="#D8AA3F" stroke-width="0.20826"/>
<path fill-rule="evenodd" clip-rule="evenodd" d="M18.4326 11.0908L13.1606 13.1161L14.0436 14.8082L18.4326 11.0908Z" fill="#FEC74A" stroke="#D8AA3F" stroke-width="0.20826"/>
<path fill-rule="evenodd" clip-rule="evenodd" d="M14.2446 14.2526L16.9731 9.29785L12.7904 13.1897L14.2446 14.2473V14.2526Z" fill="#FEC74A" stroke="#D8AA3F" stroke-width="0.20826"/>
<path fill-rule="evenodd" clip-rule="evenodd" d="M14.1951 13.8426L15.0727 8.28383L12.3391 13.2284L14.1951 13.8426Z" fill="#FEC74A" stroke="#D8AA3F" stroke-width="0.215798"/>
<path fill-rule="evenodd" clip-rule="evenodd" d="M13.8639 13.3908L12.9438 7.79102L11.9285 13.4173L13.8639 13.3908V13.3908Z" fill="#FEC74A" stroke="#D8AA3F" stroke-width="0.20826"/>
<path fill-rule="evenodd" clip-rule="evenodd" d="M13.3841 12.9161L10.727 8.24358L11.7472 13.9232L13.3841 12.9161V12.9161Z" fill="#FEC74A" stroke="#D8AA3F" stroke-width="0.21601"/>
<path fill-rule="evenodd" clip-rule="evenodd" d="M12.9755 12.8778L8.85625 9.39844L11.7857 14.3743L12.9755 12.8778V12.8778Z" fill="#FEC74A" stroke="#D8AA3F" stroke-width="0.20826"/>
<path fill-rule="evenodd" clip-rule="evenodd" d="M7.41267 11.1171L11.828 14.7657L12.5102 12.8568L7.40738 11.1118L7.41267 11.1171Z" fill="#FEC74A" stroke="#D8AA3F" stroke-width="0.20826"/>
<path fill-rule="evenodd" clip-rule="evenodd" d="M11.7857 13.2479L6.58776 13.1738L11.7646 14.8977L11.7804 13.2479H11.7857Z" fill="#FEC74A" stroke="#D8AA3F" stroke-width="0.20826"/>
<path fill-rule="evenodd" clip-rule="evenodd" d="M16.0001 14.1838C16.0175 14.604 15.9496 15.0233 15.8008 15.4166C15.6519 15.8098 15.4251 16.169 15.134 16.4724C14.8428 16.7758 14.4933 17.0172 14.1065 17.1821C13.7196 17.347 13.3035 17.432 12.883 17.432C12.4624 17.432 12.0463 17.347 11.6594 17.1821C11.2726 17.0172 10.9231 16.7758 10.632 16.4724C10.3408 16.169 10.114 15.8098 9.96512 15.4166C9.81627 15.0233 9.74846 14.604 9.76577 14.1838C9.76577 13.3564 10.0945 12.5628 10.6795 11.9777C11.2646 11.3927 12.0582 11.064 12.8856 11.064C13.713 11.064 14.5066 11.3927 15.0917 11.9777C15.6767 12.5628 16.0054 13.3564 16.0054 14.1838H16.0001Z" fill="#FEC74A" stroke="#D8AA3F" stroke-width="0.20826"/>
<path fill-rule="evenodd" clip-rule="evenodd" d="M-8.38743 15.4053H34.2644V25.9968H-8.38743V15.4053Z" fill="#005989"/>
<path fill-rule="evenodd" clip-rule="evenodd" d="M-8.40858 23.0516C-7.6154 23.4218 -6.4838 24.3366 -5.2676 24.3366C-3.23178 24.326 -3.1789 22.9459 -1.11663 23.0146C0.945628 23.0675 0.575478 24.5164 3.36218 24.5058C5.66239 24.5058 6.40798 22.7449 8.39621 22.9565C9.86623 22.8824 10.469 24.6168 12.7323 24.638C15.0748 24.6909 15.9314 22.7449 17.4014 22.9089C18.9719 22.9089 19.4848 24.4741 21.6846 24.4846C24.4871 24.5005 24.9736 22.856 26.7239 22.9617C27.9718 22.9353 28.9554 24.1674 30.785 24.1938C32.2391 24.2202 33.4606 23.1204 34.2855 22.7238L34.3278 20.8519C33.4606 21.1744 32.1757 22.2267 30.8854 22.2426C29.0347 22.3113 27.8872 21.0264 26.597 21.037C25.0529 21.0528 24.4396 22.6233 21.8221 22.6233C19.4267 22.6233 18.8767 21.037 17.3327 21.037C15.8256 21.0475 15.3656 22.7661 12.7534 22.7291C10.6224 22.7079 9.7922 21.0898 8.27988 21.1057C6.68295 21.1057 5.02785 22.6762 3.25642 22.5969C0.813432 22.4911 0.284646 21.1057 -1.31757 21.1057C-2.51263 21.1057 -3.80286 22.4065 -5.24116 22.4277C-6.66888 22.4541 -8.28167 21.1321 -8.42973 21.1057L-8.40858 23.0516V23.0516ZM-8.40858 19.3501C-7.6154 19.7203 -6.4838 20.6351 -5.2676 20.6351C-3.23178 20.6192 -3.1789 19.2391 -1.11663 19.3078C0.945628 19.3607 0.575478 20.8096 3.36218 20.8043C5.66239 20.799 6.40798 19.0434 8.39621 19.255C9.86623 19.1756 10.469 20.9153 12.7323 20.9365C15.0748 20.9894 15.9314 19.0434 17.4014 19.2021C18.9719 19.2021 19.4848 20.7673 21.6846 20.7831C24.4871 20.7937 24.9736 19.1545 26.7239 19.255C27.9718 19.2285 28.9554 20.4606 30.785 20.4923C32.2391 20.5188 33.4606 19.4136 34.2855 19.0223L34.3278 17.1504C33.4606 17.4677 32.1757 18.5252 30.8854 18.5358C29.0347 18.6045 27.8872 17.3196 26.597 17.3302C25.0529 17.346 24.4396 18.9165 21.8221 18.9165C19.4267 18.9165 18.8767 17.3302 17.3327 17.3302C15.8256 17.346 15.3656 19.0593 12.7534 19.0276C10.6224 19.0011 9.7922 17.3883 8.27988 17.4042C6.68295 17.4042 5.02785 18.9694 3.25642 18.8954C0.813432 18.7896 0.284646 17.4042 -1.31757 17.4042C-2.51263 17.4042 -3.80286 18.705 -5.24116 18.7262C-6.66888 18.7473 -8.28167 17.4306 -8.42973 17.4042L-8.40858 19.3501V19.3501Z" fill="white"/>
<path fill-rule="evenodd" clip-rule="evenodd" d="M-8.40858 15.6856C-7.6154 16.0557 -6.4838 16.9705 -5.2676 16.9705C-3.23706 16.9547 -3.18418 15.5798 -1.12721 15.6433C0.935052 15.6962 0.564902 17.145 3.3516 17.1397C5.65182 17.1397 6.3974 15.3789 8.37506 15.5904C9.85037 15.5164 10.4479 17.2508 12.7111 17.2719C15.0483 17.3248 15.9102 15.3789 17.3803 15.5428C18.9455 15.5428 19.4584 17.108 21.6529 17.1186C24.4554 17.1292 24.9419 15.4899 26.6922 15.5957C27.9401 15.5693 28.9184 16.796 30.748 16.8278C32.2021 16.8542 33.4236 15.749 34.2432 15.3577L34.2855 13.4858C33.4236 13.8084 32.1334 14.8607 30.8484 14.8713C28.9977 14.94 27.8502 13.6551 26.5653 13.6709C25.0212 13.6815 24.4078 15.2573 21.7903 15.2573C19.4002 15.2573 18.8503 13.6709 17.3115 13.6709C15.8045 13.6815 15.3392 15.3948 12.7322 15.363C10.6012 15.3419 9.77105 13.7238 8.26401 13.7397C6.66708 13.7397 5.01727 15.3049 3.24584 15.2308C0.802855 15.1251 0.274071 13.7397 -1.32286 13.7397C-2.51791 13.7397 -3.80815 15.0405 -5.24645 15.0616C-6.67417 15.0828 -8.28167 13.7661 -8.42973 13.7397L-8.41387 15.6856H-8.40858Z" fill="white"/>
<path fill-rule="evenodd" clip-rule="evenodd" d="M6.94734 3.85702C10.046 3.64551 9.48022 3.38111 10.7282 3.18018C12.2986 3.39169 12.4784 4.3435 13.3562 4.93045C13.3562 4.93045 13.0284 6.0409 11.9496 5.88756C11.8069 5.44338 12.4731 5.30589 10.5537 4.13199C9.43792 4.06853 7.4444 4.32764 6.94734 3.85702V3.85702ZM16.5554 5.58086L14.3239 5.67075V6.22598C15.8309 6.27357 16.1006 6.06734 16.5554 5.58086Z" fill="#FFC84B" stroke="#D8AA3F" stroke-width="0.221276"/>
<path fill-rule="evenodd" clip-rule="evenodd" d="M8.8774 5.48548C9.26871 5.28454 9.45907 5.36915 9.79749 5.35328C10.0302 5.77631 10.247 5.81332 10.7546 5.8662C10.9793 6.19885 11.2804 6.47279 11.6328 6.66508C11.9852 6.85737 12.3785 6.96239 12.7798 6.97136C14.2975 6.92906 14.7786 5.8662 15.7992 5.74987H16.8779C16.6981 5.44318 16.5607 5.26868 16.1694 5.25281C15.2489 5.18945 14.3241 5.24992 13.4197 5.4326L12.1506 5.74987C11.7804 5.57008 10.8656 4.61298 10.284 4.63413C9.94026 4.72403 9.94026 4.84565 9.77105 4.97256C9.4432 5.11533 9.11536 5.04659 8.87212 5.48548H8.8774Z" fill="#FFC84B" stroke="#D8AA3F" stroke-width="0.20826" stroke-linejoin="round"/>
<path fill-rule="evenodd" clip-rule="evenodd" d="M10.4109 5.01996C10.4109 5.06204 10.3942 5.10239 10.3644 5.13214C10.3347 5.16189 10.2943 5.1786 10.2522 5.1786C10.2102 5.1786 10.1698 5.16189 10.1401 5.13214C10.1103 5.10239 10.0936 5.06204 10.0936 5.01996C10.0936 4.97789 10.1103 4.93754 10.1401 4.90779C10.1698 4.87804 10.2102 4.86133 10.2522 4.86133C10.2943 4.86133 10.3347 4.87804 10.3644 4.90779C10.3942 4.93754 10.4109 4.97789 10.4109 5.01996V5.01996Z" fill="#FFC84B" stroke="#D8AA3F" stroke-width="0.20826"/>
<path fill-rule="evenodd" clip-rule="evenodd" d="M11.4526 5.47467C13.7317 2.72499 15.7252 3.05812 18.3268 2.87305C18.4114 3.19032 18.3797 3.66622 17.1423 4.08925C15.4502 4.34307 12.4097 6.13036 12.3991 6.13036C11.8333 6.10392 11.4367 5.51169 11.4473 5.47467H11.4526Z" fill="#FFC84B" stroke="#D8AA3F" stroke-width="0.221276"/>
<path d="M16.1376 3.68213L17.8192 3.75616M15.9578 3.9571L17.1846 4.05757" stroke="#D9A43E" stroke-width="0.221276" stroke-linecap="round"/>
</g>
</g>
<defs>
<clipPath id="clip0_1_13557">
<rect width="26" height="26" fill="white"/>
</clipPath>
</defs>
</svg>
