<svg width="26" height="26" viewBox="0 0 26 26" fill="none" xmlns="http://www.w3.org/2000/svg">
<mask id="mask0_1_10108" style="mask-type:alpha" maskUnits="userSpaceOnUse" x="0" y="0" width="26" height="26">
<circle cx="13" cy="13" r="13" fill="#634848"/>
</mask>
<g mask="url(#mask0_1_10108)">
<rect x="-1" y="-1" width="28" height="28" fill="white"/>
<path fill-rule="evenodd" clip-rule="evenodd" d="M12.8514 17.5239C15.3296 17.5239 17.3385 15.4989 17.3385 13.0008C17.3385 10.5028 15.3296 8.47777 12.8514 8.47777C10.3732 8.47777 8.36418 10.5028 8.36418 13.0008C8.36418 15.4989 10.3732 17.5239 12.8514 17.5239Z" fill="#E01B41"/>
<mask id="mask1_1_10108" style="mask-type:alpha" maskUnits="userSpaceOnUse" x="8" y="8" width="10" height="10">
<path fill-rule="evenodd" clip-rule="evenodd" d="M12.8514 17.5239C15.3296 17.5239 17.3385 15.4989 17.3385 13.0008C17.3385 10.5028 15.3296 8.47777 12.8514 8.47777C10.3732 8.47777 8.36418 10.5028 8.36418 13.0008C8.36418 15.4989 10.3732 17.5239 12.8514 17.5239Z" fill="white"/>
</mask>
<g mask="url(#mask1_1_10108)">
<path fill-rule="evenodd" clip-rule="evenodd" d="M8.36187 13.6462C9.64392 14.8577 11.567 15.5846 12.849 13.6462C14.1311 11.7077 16.6952 11.7077 17.3362 13.6462C17.9772 15.5846 17.3362 17.5231 17.3362 17.5231H8.36187C8.36187 17.5231 7.07981 12.4346 8.36187 13.6462Z" fill="#0E4B9C"/>
</g>
<path opacity="0.75" fill-rule="evenodd" clip-rule="evenodd" d="M19.371 6.95343C19.2119 7.04603 19.1571 7.25059 19.2486 7.41034L20.8403 10.1894C20.9318 10.3491 21.135 10.4035 21.2941 10.3109L21.8282 10.0001C21.9873 9.90752 22.0421 9.70295 21.9506 9.5432L20.3589 6.76418C20.2674 6.60444 20.0642 6.55 19.9051 6.6426L19.371 6.95343ZM17.7052 7.92308C17.5461 8.01568 17.4912 8.22024 17.5827 8.37999L19.1745 11.159C19.266 11.3188 19.4691 11.3732 19.6282 11.2806L20.1623 10.9698C20.3214 10.8772 20.3763 10.6726 20.2848 10.5129L18.693 7.73384C18.6015 7.57409 18.3984 7.51965 18.2393 7.61225L17.7052 7.92308ZM3.70053 16.4569C3.60903 16.2972 3.66384 16.0926 3.82296 16L4.35705 15.6892C4.51616 15.5966 4.71932 15.651 4.81082 15.8108L6.40255 18.5898C6.49405 18.7495 6.43924 18.9541 6.28013 19.0467L5.74603 19.3575C5.58692 19.4501 5.38376 19.3957 5.29226 19.2359L3.70053 16.4569ZM5.48882 15.0304C5.32971 15.1229 5.2749 15.3275 5.36639 15.4873L6.95813 18.2663C7.04963 18.426 7.25279 18.4805 7.4119 18.3879L7.94599 18.077C8.1051 17.9844 8.15992 17.7799 8.06842 17.6201L6.47668 14.8411C6.38519 14.6814 6.18203 14.6269 6.02291 14.7195L5.48882 15.0304ZM19.1781 14.8415C19.2696 14.6818 19.4727 14.6273 19.6318 14.7199L20.1659 15.0308C20.3251 15.1234 20.3799 15.3279 20.2884 15.4877L18.6966 18.2667C18.6051 18.4264 18.402 18.4809 18.2429 18.3883L17.7088 18.0775C17.5497 17.9849 17.4948 17.7803 17.5863 17.6205L19.1781 14.8415ZM21.2977 15.6896C21.1386 15.597 20.9354 15.6514 20.8439 15.8112L19.2522 18.5902C19.1607 18.7499 19.2155 18.9545 19.3746 19.0471L19.9087 19.3579C20.0678 19.4505 20.271 19.3961 20.3625 19.2364L21.9542 16.4573C22.0457 16.2976 21.9909 16.093 21.8318 16.0004L21.2977 15.6896ZM5.29587 6.76461C5.38737 6.60486 5.59053 6.55042 5.74964 6.64302L6.28373 6.95385C6.44284 7.04645 6.49766 7.25101 6.40616 7.41076L4.81442 10.1898C4.72293 10.3495 4.51977 10.404 4.36066 10.3114L3.82656 10.0005C3.66745 9.90794 3.61264 9.70337 3.70414 9.54362L5.29587 6.76461ZM7.4155 7.61267C7.25639 7.52008 7.05323 7.57451 6.96173 7.73426L5.37 10.5133C5.2785 10.673 5.33331 10.8776 5.49243 10.9702L6.02652 11.281C6.18563 11.3736 6.38879 11.3192 6.48029 11.1594L8.07202 8.38041C8.16352 8.22066 8.10871 8.0161 7.9496 7.9235L7.4155 7.61267Z" fill="#262626"/>
</g>
</svg>
