<svg width="26" height="26" viewBox="0 0 26 26" fill="none" xmlns="http://www.w3.org/2000/svg">
<mask id="mask0_1_12599" style="mask-type:alpha" maskUnits="userSpaceOnUse" x="0" y="0" width="26" height="26">
<circle cx="13" cy="13" r="13" fill="#634848"/>
</mask>
<g mask="url(#mask0_1_12599)">
<g clip-path="url(#clip0_1_12599)">
<path d="M-2 0H32V26H-2V0Z" fill="#000066"/>
<path d="M-2 0H15V13H-2V0Z" fill="#012169"/>
<path d="M-0.00781244 0L6.47344 4.90208L12.9281 0H15V1.67917L8.625 6.52708L15 11.3479V13H12.875L6.5 8.15208L0.151563 13H-2V11.375L4.34844 6.55417L-2 1.73333V0H-0.00781244Z" fill="white"/>
<path d="M9.2625 7.61042L15 11.9167V13L7.80156 7.61042H9.2625ZM4.375 8.15208L4.53438 9.1L-0.565625 13H-2L4.375 8.15208ZM15 0V0.08125L8.38594 5.17292L8.43906 3.98125L13.6719 0H15ZM-2 0L4.34844 4.76667H2.75469L-2 1.1375V0Z" fill="#C8102E"/>
<path d="M4.40156 0V13H8.65156V0H4.40156ZM-2 4.33333V8.66667H15V4.33333H-2Z" fill="white"/>
<path d="M-2 5.22708V7.82708H15V5.22708H-2ZM5.25156 0V13H7.80156V0H5.25156Z" fill="#C8102E"/>
<path d="M27.5154 9.84945V14.2578C27.5154 18.0809 25.7425 19.393 23.3678 20.4314C20.993 19.393 19.2016 18.0809 19.2016 14.2578V9.84473H27.5154V9.84945Z" fill="white" stroke="white" stroke-width="1.04563" stroke-linejoin="round"/>
<path d="M16.6232 20.0723C16.7574 20.431 17.711 20.9077 18.822 20.2988C19.5765 19.8646 20.0626 19.2605 20.5301 18.1749C20.6598 17.9012 20.7292 17.5613 20.419 17.3584C20.1737 17.1743 19.771 16.9713 19.5951 16.792C19.5071 16.6976 19.4192 16.6315 19.3543 16.5654C19.4006 16.6126 19.4423 16.6551 19.484 16.7212C19.9284 17.264 19.4654 18.0569 18.9748 18.5336C18.6183 18.8734 17.9795 19.7089 17.0444 18.9159C16.8454 18.7366 16.3778 19.4823 16.6278 20.0723H16.6232ZM30.1124 20.0723C29.955 20.431 29.0014 20.9077 27.9136 20.2988C27.1636 19.8646 26.673 19.2605 26.1869 18.1749C26.0758 17.9012 26.0064 17.5613 26.3165 17.3584C26.5619 17.1743 26.9646 16.9713 27.1405 16.792C27.2284 16.6976 27.2933 16.6315 27.3812 16.5654C27.3349 16.6126 27.2933 16.6551 27.2516 16.7212C26.8072 17.264 27.2701 18.0569 27.7376 18.5336C28.0941 18.8734 28.756 19.7089 29.6911 18.9159C29.8902 18.7366 30.3346 19.4823 30.1077 20.0723H30.1124Z" fill="#FCEA83" stroke="white" stroke-width="1.04563" stroke-linejoin="round"/>
<path d="M23.3678 22.0166C25.1407 22.0166 27.8719 21.2 29.3393 18.3492C29.58 17.8772 29.3393 17.6271 29.0477 17.4713C28.718 17.302 28.4178 17.0788 28.1589 16.8105C28.5153 17.174 28.4459 17.4241 28.2052 17.83C27.0711 19.7557 25.5203 20.728 23.3678 20.728C21.2152 20.728 19.6645 19.7557 18.5304 17.83C18.2897 17.4241 18.2202 17.174 18.5535 16.8153C18.2985 17.0869 17.9974 17.3091 17.6647 17.4713C17.3777 17.6271 17.1324 17.8772 17.3777 18.3492C18.8405 21.2 21.5902 22.0166 23.3678 22.0166V22.0166Z" fill="#FCEA83" stroke="white" stroke-width="1.04563" stroke-linejoin="round"/>
<path d="M19.2618 18.194C19.2155 17.9674 18.9331 18.0571 18.8451 18.3308C18.7254 18.1743 18.62 18.0068 18.5304 17.8305C18.2665 17.4246 18.2202 17.1509 18.5998 16.7686C18.7757 16.5892 19.1322 16.3815 19.3729 16.6081C19.8821 17.0376 19.6182 17.7409 19.2618 18.194V18.194ZM27.4506 18.194C27.4969 17.9674 27.8071 18.0571 27.895 18.3308C28.0061 18.1704 28.1172 18.0146 28.2052 17.8305C28.469 17.4246 28.5153 17.1509 28.1126 16.7686C27.9598 16.5892 27.6034 16.3815 27.3395 16.6081C26.8489 17.0376 27.0942 17.7409 27.4506 18.194ZM16.6232 20.0725C16.401 19.7326 16.2251 18.8453 16.1788 18.6235C16.114 18.4205 16.0908 18.2364 16.3362 18.1515C16.5815 18.0571 16.7991 18.3733 16.9102 18.6471C17.0213 18.9161 17.2018 19.322 17.4009 19.8223C16.9102 19.5297 16.5121 19.7279 16.6232 20.0725ZM30.1124 20.0725C30.3114 19.7326 30.4873 18.8453 30.5568 18.6235C30.6031 18.4205 30.6447 18.2364 30.3994 18.1515C30.154 18.0571 29.9365 18.3733 29.8254 18.6471C29.7143 18.9161 29.5337 19.322 29.3347 19.8223C29.8254 19.5297 30.2003 19.7279 30.1124 20.0725V20.0725Z" fill="#C8102E" stroke="white" stroke-width="1.04563" stroke-linejoin="round"/>
<path d="M21.6596 9.82572C21.3726 9.8918 21.1736 9.9154 20.9051 9.66524C20.7292 9.48589 20.7708 9.16966 20.9514 9.05166C21.1504 8.91951 21.3263 8.82983 21.5717 8.89591C21.817 8.9667 22.4605 9.57557 22.3031 9.59917C22.1457 9.59917 21.905 9.75492 21.6596 9.82572ZM22.3447 8.74015C22.4373 8.66935 22.5484 8.62687 22.8354 8.59855C23.1039 8.57967 23.2983 8.57967 23.3678 8.78735C23.4604 9.03278 23.5252 9.32541 23.7011 9.46229C23.59 9.52837 23.0345 9.59917 22.8354 9.48589C22.5716 9.34901 22.5021 8.82511 22.3494 8.74015H22.3447ZM24.2566 8.76375C24.3445 8.69295 24.4556 8.69295 24.7426 8.71655C25.0296 8.74015 25.1407 8.76375 25.2055 8.9667C25.275 9.19326 25.2055 9.48589 25.3444 9.68884C25.2055 9.73604 24.7658 9.73604 24.6084 9.57557C24.3677 9.39621 24.3862 8.87231 24.2566 8.75903V8.76375Z" fill="white" stroke="white" stroke-width="1.04563" stroke-linejoin="round"/>
<path d="M25.5851 8.89631C25.3861 8.84911 25.2518 8.83023 25.1685 8.89631C25.275 9.03319 25.187 9.57597 25.4092 9.75532C25.562 9.8686 25.9647 9.89692 26.0526 9.64205C26.1637 9.41549 26.1637 9.07566 25.5897 8.89631H25.5851ZM23.303 8.66976C23.3678 8.60368 23.502 8.58008 23.7659 8.58008C24.0575 8.58008 24.2288 8.62728 24.3214 8.80663C24.4139 9.03318 24.3862 9.32582 24.5436 9.50989C24.4788 9.59957 23.877 9.59957 23.7011 9.46269C23.4557 9.30222 23.4326 8.78303 23.303 8.66976V8.66976ZM21.4189 8.87271C21.4189 8.75943 21.5717 8.74055 21.9744 8.71695C22.3679 8.66976 22.391 8.69335 22.5253 8.98599C22.5901 9.14646 22.678 9.41549 22.8586 9.50517C22.3679 9.62317 22.2105 9.68925 21.9466 9.52877C21.7539 9.40589 21.5947 9.23544 21.4837 9.03318C21.4606 8.96711 21.4606 8.89631 21.4143 8.87271H21.4189Z" fill="#073163" stroke="white" stroke-width="1.04563" stroke-linejoin="round"/>
<path d="M21.4606 6.86217C21.3032 6.86217 21.1736 6.79609 21.081 6.68281C20.9282 6.47514 20.507 6.38546 20.3265 6.56954C20.2616 6.61674 20.1737 6.61674 20.1089 6.63561C19.9978 6.63561 19.8635 6.74889 19.9052 6.97545C19.9978 6.90465 20.0163 6.97545 20.0857 6.97545C20.132 6.95185 20.1089 6.99904 20.1089 7.04152C20.1089 7.1548 20.3496 7.38135 20.5718 7.35775C20.8171 7.35775 20.9282 7.45215 20.9699 7.49935C21.0393 7.56071 20.993 7.54183 21.0393 7.65511C21.1041 7.72118 21.1273 7.74478 21.0162 7.83446C20.9657 7.87743 20.925 7.9312 20.8971 7.99196C20.8692 8.05272 20.8547 8.119 20.8547 8.18609C20.8547 8.25319 20.8692 8.31946 20.8971 8.38022C20.925 8.44099 20.9657 8.49475 21.0162 8.53772C21.3032 8.75955 22.0346 9.10411 22.8586 8.44332C23.6548 7.81086 24.8954 8.17429 24.988 8.39613C25.0991 8.6274 25.1407 8.75956 25.1639 8.87283C25.187 8.96723 25.2981 9.05691 25.4555 9.03331C25.6083 9.03331 25.7842 9.09939 25.8721 9.17018C25.9878 9.23626 26.1406 9.21738 26.0989 9.00971C26.0064 8.37725 25.6314 8.28757 25.5897 7.99494C25.8073 8.01382 25.9601 8.01382 26.0527 7.92414C26.1175 7.83446 26.2054 7.67399 26.298 7.63151C26.3628 7.58431 26.3628 7.53711 26.2749 7.56071C26.1638 7.58431 26.0989 7.63151 25.8953 7.60791C24.8769 7.49463 22.0161 6.70169 21.4606 6.86217V6.86217Z" fill="#059334" stroke="white" stroke-width="1.04563" stroke-linejoin="round"/>
<path d="M25.9878 7.63136C25.8186 7.75308 25.674 7.90693 25.562 8.08447C25.3444 8.3771 24.6778 8.66973 23.8538 8.66973C23.0576 8.66973 22.5716 8.53757 22.2151 8.24494C22.0629 8.12087 21.8985 8.01331 21.7244 7.92399C21.4837 7.81071 21.4374 7.56056 21.5022 7.35761C21.4374 7.47088 21.3958 7.58416 21.2615 7.56056C21.169 7.56056 20.993 7.56056 21.0393 7.65496C21.0162 7.60776 21.0162 7.54168 20.993 7.51336L20.9468 7.47088C21.0162 7.51808 21.1736 7.38121 21.2847 7.38121C21.3726 7.40481 21.4837 7.29153 21.4606 7.15465L21.3958 6.86202C21.5717 6.76762 23.9001 7.20185 24.3677 7.24433C24.8306 7.26793 26.1638 7.47088 25.9878 7.63136V7.63136Z" fill="black" stroke="white" stroke-width="1.04563" stroke-linejoin="round"/>
<path d="M21.7707 6.77224C21.9929 6.54569 22.2568 6.43241 22.5253 6.49849H22.5901C22.729 6.38521 23.0345 6.36162 23.215 6.45129H23.303C23.5668 6.36162 24.076 6.45129 24.2566 6.63537L24.3214 6.68257C24.9231 6.63537 25.275 6.9044 25.6962 7.33863C25.7425 7.38583 25.8073 7.47078 25.9184 7.49438C26.0526 7.51798 26.0758 7.58878 25.9647 7.65486C25.7867 7.76709 25.6299 7.91097 25.5018 8.07965C25.2981 8.3534 24.6547 8.62715 23.8538 8.62715C23.0808 8.62715 22.6132 8.48556 22.2568 8.21652C22.0577 8.06077 21.905 7.97109 21.7939 7.90029C21.6596 7.85309 21.4837 7.67374 21.5485 7.49438C21.5948 7.31503 21.4837 7.08847 21.3958 6.86192C21.4606 6.81472 21.6365 6.74864 21.7244 6.79584L21.7707 6.77224Z" fill="#059334" stroke="white" stroke-width="1.04563" stroke-linejoin="round"/>
<path d="M25.6962 7.33863C25.2796 6.9044 24.9232 6.63537 24.3214 6.67785C24.3214 6.70145 24.3214 6.77224 24.2982 6.81944C24.7176 7.01133 25.0894 7.29683 25.3861 7.65486C25.4786 7.56046 25.6314 7.4519 25.6962 7.33863ZM24.2566 6.63537C24.076 6.45601 23.5668 6.36162 23.303 6.45601C23.303 6.54569 23.303 6.68257 23.2567 6.77224C23.4141 6.83832 23.5437 6.9988 23.6779 7.15455C23.7705 7.13095 23.9881 7.06488 24.0992 7.04128C24.1655 6.91199 24.2182 6.77593 24.2566 6.63537V6.63537ZM23.215 6.45129C23.0345 6.36162 22.7243 6.38521 22.5901 6.49849C22.5438 6.59289 22.5253 6.77224 22.5253 6.86192C22.6179 6.86192 22.7475 6.928 22.7891 6.9752C22.928 6.928 23.1039 6.83832 23.1687 6.77224C23.1919 6.67785 23.2335 6.54569 23.215 6.45601V6.45129ZM21.7707 6.77224C21.9929 6.54569 22.2568 6.43241 22.5253 6.49849C22.479 6.56929 22.4605 6.70145 22.4605 6.83832C22.2151 6.81472 21.905 6.88552 21.7707 6.9752V6.77224Z" fill="#00493D" stroke="white" stroke-width="1.04563" stroke-linejoin="round"/>
<path d="M25.2981 7.69756C25.0192 7.36088 24.6717 7.09028 24.2797 6.90462C24.2797 6.92822 24.2334 7.0179 24.2103 7.0887C24.3445 7.29165 24.6084 7.74476 24.7195 7.99491C24.8306 7.94771 25.1407 7.81084 25.2981 7.69756V7.69756ZM23.6131 8.19787C23.6515 7.88938 23.6731 7.57897 23.6779 7.26805C23.789 7.24445 24.0112 7.17837 24.0992 7.15477C24.2103 7.33885 24.4788 7.81556 24.5899 8.03739C24.3214 8.10347 23.877 8.21674 23.6131 8.19787ZM22.8354 7.1123C22.9465 7.0651 23.1039 6.9707 23.2104 6.88574C23.303 6.95182 23.4789 7.1123 23.5437 7.20197C23.5437 7.40493 23.4789 7.99491 23.4557 8.19315C23.2798 8.19315 22.9928 8.15067 22.8354 8.06099C22.8586 7.72116 22.8817 7.33885 22.8354 7.1123V7.1123ZM21.7244 7.38133C21.7476 7.33413 21.7707 7.17837 21.7707 7.1123C21.9466 6.99902 22.391 6.88574 22.7243 7.0651C22.7475 7.29165 22.7243 7.85803 22.7012 7.99491C22.4043 7.74873 22.0776 7.54251 21.7291 7.38133H21.7244Z" fill="#00493D" stroke="white" stroke-width="1.04563" stroke-linejoin="round"/>
<path d="M20.6181 6.97005C20.5718 6.97005 20.5487 6.83789 20.4607 6.83789C20.4376 6.83789 20.3728 6.86149 20.3496 6.83789C20.3496 6.88509 20.3728 6.93229 20.3959 6.95117C20.419 7.01725 20.5301 6.97477 20.6181 6.97477V6.97005Z" fill="black"/>
<path d="M20.6181 7.35755C20.882 7.35755 20.9282 7.01772 21.0625 6.99884M20.7709 7.38115C20.9699 7.47555 21.1273 6.99884 21.2801 7.01772M20.3728 6.79589C20.4376 6.79589 20.4839 6.70149 20.5949 6.81477C20.6412 6.86197 20.706 6.88557 20.7523 6.88557M20.706 7.131C20.6135 7.2726 20.4607 7.35755 20.3728 7.31508M20.3265 6.56934C20.2617 6.61653 20.22 6.70149 20.1737 6.77229M20.1089 6.90445V7.01772" stroke="white" stroke-width="1.04563" stroke-linejoin="round"/>
<path d="M22.4836 6.56914C22.0161 6.20571 21.4606 5.86588 20.9514 5.7998C21.4827 6.16097 21.9871 6.56168 22.4605 6.99865" fill="black"/>
<path d="M22.4836 6.56914C22.0161 6.20571 21.4606 5.86588 20.9514 5.7998C21.4827 6.16097 21.9871 6.56168 22.4605 6.99865" stroke="white" stroke-width="1.04563" stroke-linejoin="round"/>
<path d="M22.7475 6.22941C22.192 5.84238 21.5485 5.41287 20.9282 5.37039C21.5087 5.71338 22.0258 6.15748 22.4558 6.68251M23.4557 5.59695C23.7063 5.01613 24.0775 4.49762 24.5436 4.07715C24.3214 4.55385 24.0807 5.52615 23.9649 5.91318" fill="black"/>
<path d="M22.7475 6.22941C22.192 5.84238 21.5485 5.41287 20.9282 5.37039C21.5087 5.71338 22.0258 6.15748 22.4558 6.68251M23.4557 5.59695C23.7063 5.01613 24.0775 4.49762 24.5436 4.07715C24.3214 4.55385 24.0807 5.52615 23.9649 5.91318" stroke="white" stroke-width="1.04563" stroke-linejoin="round"/>
<path d="M23.9464 5.48384C24.1609 4.952 24.5643 4.52221 25.0759 4.28027C24.6915 4.76924 24.4053 5.33056 24.2334 5.93223" fill="black"/>
<path d="M23.9464 5.48384C24.1609 4.952 24.5643 4.52221 25.0759 4.28027C24.6915 4.76924 24.4053 5.33056 24.2334 5.93223" stroke="white" stroke-width="1.04563" stroke-linejoin="round"/>
<path d="M24.1455 5.93191C24.5705 5.26856 25.1796 4.74933 25.8953 4.44043C25.3398 5.00681 24.5204 6.04518 24.3214 6.45581M24.4556 6.43221C24.8537 6.20566 25.6546 5.84223 26.2286 5.96023C25.8768 6.09238 24.8121 6.58797 24.3445 7.0458" fill="black"/>
<path d="M24.1455 5.93191C24.5705 5.26856 25.1796 4.74933 25.8953 4.44043C25.3398 5.00681 24.5204 6.04518 24.3214 6.45581M24.4556 6.43221C24.8537 6.20566 25.6546 5.84223 26.2286 5.96023C25.8768 6.09238 24.8121 6.58797 24.3445 7.0458" stroke="white" stroke-width="1.04563" stroke-linejoin="round"/>
<path d="M24.3677 6.2714C24.7426 5.86549 25.4324 5.25663 26.1638 5.00648C25.6314 5.52566 24.4973 6.70563 24.3445 6.88498M23.303 6.02597C23.0345 5.18583 22.6364 4.39761 22.0392 4.14746C22.5148 4.84081 22.8457 5.62638 23.0113 6.45548M22.7891 6.00237C22.3494 5.45958 21.7476 4.9168 21.0625 4.80352C21.7338 5.25144 22.2642 5.88729 22.5901 6.63483" fill="black"/>
<path d="M24.3677 6.2714C24.7426 5.86549 25.4324 5.25663 26.1638 5.00648C25.6314 5.52566 24.4973 6.70563 24.3445 6.88498M23.303 6.02597C23.0345 5.18583 22.6364 4.39761 22.0392 4.14746C22.5148 4.84081 22.8457 5.62638 23.0113 6.45548M22.7891 6.00237C22.3494 5.45958 21.7476 4.9168 21.0625 4.80352C21.7338 5.25144 22.2642 5.88729 22.5901 6.63483" stroke="white" stroke-width="1.04563" stroke-linejoin="round"/>
<path d="M23.0391 5.97895C22.4836 4.95946 22.0577 4.7801 21.817 4.57715C22.0161 4.95946 22.5021 5.97895 22.7891 6.40846" fill="black"/>
<path d="M23.0391 5.97895C22.4836 4.95946 22.0577 4.7801 21.817 4.57715C22.0161 4.95946 22.5021 5.97895 22.7891 6.40846" stroke="white" stroke-width="1.04563" stroke-linejoin="round"/>
<path d="M21.9281 5.91309C22.2447 6.11609 22.516 6.38463 22.7243 6.7013" stroke="white" stroke-width="1.04563" stroke-linejoin="round"/>
<path d="M21.9281 6.38536C22.0577 6.49864 22.3031 6.63551 22.5253 6.83847ZM24.5667 6.72519C24.7889 6.54584 25.275 6.2532 25.5203 6.15881ZM24.4093 6.56944C24.6315 6.27208 25.0759 5.86618 25.2333 5.7293ZM25.0296 5.16292C24.7313 5.50376 24.4501 5.85978 24.1871 6.22961ZM24.4556 4.95996C24.2455 5.27681 24.0598 5.60977 23.9001 5.95585ZM22.7012 5.00716C22.8354 5.37059 23.0808 5.97945 23.1641 6.22961ZM22.5021 5.38947C22.5947 5.53107 22.7706 5.84258 22.8354 6.06913Z" fill="black"/>
<path d="M21.9281 6.38536C22.0577 6.49864 22.3031 6.63551 22.5253 6.83847M24.5667 6.72519C24.7889 6.54584 25.275 6.2532 25.5203 6.15881M24.4093 6.56944C24.6315 6.27208 25.0759 5.86618 25.2333 5.7293M25.0296 5.16292C24.7313 5.50376 24.4501 5.85978 24.1871 6.22961M24.4556 4.95996C24.2455 5.27681 24.0598 5.60977 23.9001 5.95585M22.7012 5.00716C22.8354 5.37059 23.0808 5.97945 23.1641 6.22961M22.5021 5.38947C22.5947 5.53107 22.7706 5.84258 22.8354 6.06913" stroke="white" stroke-width="1.04563" stroke-linejoin="round"/>
<path d="M23.2567 5.27537C23.2567 5.07242 23.3909 4.85059 23.5252 4.85059C23.6779 4.85059 23.789 5.11962 23.789 5.27537C23.789 5.45945 23.6548 5.6152 23.5252 5.6152C23.3863 5.6152 23.2567 5.48305 23.2567 5.27537Z" fill="black" stroke="white" stroke-width="1.04563" stroke-linejoin="round"/>
<path d="M22.9697 5.45968C22.9928 5.23313 23.1456 5.05377 23.2798 5.07265C23.4141 5.09625 23.4789 5.37001 23.4557 5.52576C23.4326 5.70512 23.2798 5.84199 23.1687 5.81839C23.0576 5.81839 22.9465 5.66264 22.9697 5.45968ZM23.5668 5.52576C23.5205 5.32281 23.6131 5.10097 23.7474 5.07265C23.877 5.05377 24.0112 5.27561 24.0344 5.45968C24.0807 5.63904 23.9649 5.81839 23.8538 5.81839C23.7474 5.84199 23.59 5.72872 23.5668 5.52576Z" fill="black" stroke="white" stroke-width="1.04563" stroke-linejoin="round"/>
<path d="M23.2335 5.70506C23.2335 5.48323 23.3678 5.28027 23.502 5.28027C23.6548 5.28027 23.7659 5.52571 23.7659 5.70506C23.7659 5.88914 23.6363 6.04489 23.502 6.04489C23.3678 6.04489 23.2335 5.91274 23.2335 5.70506Z" fill="black" stroke="white" stroke-width="1.04563" stroke-linejoin="round"/>
<path d="M22.8354 5.81818C22.8354 5.61522 22.9928 5.39339 23.1224 5.39339C23.2613 5.39339 23.3909 5.66242 23.3909 5.81818C23.3909 6.00225 23.2335 6.15801 23.1224 6.15801C22.9928 6.15801 22.8354 6.02585 22.8354 5.81818ZM23.6548 5.7285C23.6548 5.52554 23.7937 5.30371 23.9233 5.30371C24.076 5.30371 24.1871 5.57274 24.1871 5.7285C24.1871 5.91257 24.0575 6.06833 23.9233 6.06833C23.789 6.06833 23.6548 5.93145 23.6548 5.7285Z" fill="black" stroke="white" stroke-width="1.04563" stroke-linejoin="round"/>
<path d="M23.5668 5.91291C23.5668 5.68635 23.7242 5.4834 23.8538 5.4834C23.9927 5.4834 24.1223 5.72883 24.1223 5.90819C24.1223 6.09226 23.9881 6.25274 23.8538 6.25274C23.7242 6.25274 23.5668 6.11114 23.5668 5.91291V5.91291Z" fill="black" stroke="white" stroke-width="1.04563" stroke-linejoin="round"/>
<path d="M23.215 6.11619C23.215 5.88964 23.3446 5.68669 23.4789 5.68669C23.6363 5.68669 23.7474 5.95572 23.7474 6.11147C23.7474 6.30027 23.6085 6.45602 23.4789 6.45602C23.3446 6.45602 23.2104 6.31443 23.2104 6.11619H23.215ZM22.6595 6.11619C22.6595 5.88964 22.7706 5.68669 22.8817 5.68669C22.9928 5.68669 23.0808 5.95572 23.0808 6.11147C23.0808 6.30027 22.9697 6.45602 22.8817 6.45602C22.7706 6.45602 22.6595 6.31443 22.6595 6.11619V6.11619ZM23.9001 6.07371C23.9001 5.86604 24.0112 5.66309 24.1223 5.66309C24.2334 5.66309 24.3445 5.91324 24.3445 6.06899C24.3445 6.27195 24.2103 6.40882 24.1223 6.40882C24.0112 6.40882 23.9001 6.27195 23.9001 6.06899V6.07371Z" fill="black" stroke="white" stroke-width="1.04563" stroke-linejoin="round"/>
<path d="M24.0344 6.45079C24.0807 6.22895 24.2103 6.04488 24.2982 6.0732C24.3908 6.09208 24.4093 6.36111 24.3677 6.52159C24.3445 6.72454 24.2103 6.83782 24.1223 6.81422C24.0297 6.79534 23.9881 6.63486 24.0297 6.45551L24.0344 6.45079Z" fill="black" stroke="white" stroke-width="1.04563" stroke-linejoin="round"/>
<path d="M23.6131 6.38516C23.6363 6.18221 23.7659 5.97925 23.877 6.00285C24.0112 6.00285 24.076 6.27189 24.0575 6.42764C24.0344 6.63532 23.9186 6.77219 23.8122 6.74859C23.7011 6.74859 23.59 6.58812 23.6131 6.38516V6.38516ZM22.9928 6.45124C22.9234 6.22941 22.7891 6.07365 22.7012 6.09253C22.6132 6.11613 22.5901 6.38516 22.6364 6.54564C22.6827 6.72499 22.8123 6.83827 22.9002 6.81467C22.9697 6.79579 23.0391 6.63532 22.9928 6.45596V6.45124Z" fill="black" stroke="white" stroke-width="1.04563" stroke-linejoin="round"/>
<path d="M22.8354 6.40884C22.8354 6.20588 22.9465 6.00293 23.0576 6.00293C23.1919 6.00293 23.2798 6.25308 23.2798 6.40884C23.2798 6.61179 23.1687 6.74867 23.0576 6.74867C22.9651 6.74867 22.8354 6.61179 22.8354 6.40884Z" fill="black" stroke="white" stroke-width="1.04563" stroke-linejoin="round"/>
<path d="M23.1687 6.49827C23.1687 6.27172 23.303 6.07349 23.4326 6.07349C23.59 6.07349 23.7011 6.31892 23.7011 6.49827C23.7011 6.68235 23.5668 6.8381 23.4326 6.8381C23.303 6.8381 23.1687 6.70123 23.1687 6.49827ZM23.2798 4.0109C23.2335 4.19026 23.0808 4.35073 23.1872 4.60089C22.9928 4.53009 22.8169 4.50649 22.6595 4.69056C22.8586 4.66697 23.0345 4.73776 23.1224 4.86992C22.9465 4.84632 22.8586 4.94072 22.8123 5.05399C22.9697 5.0068 23.1224 4.9596 23.1919 4.9832C23.1224 5.05399 23.0113 5.16255 22.9928 5.25695C23.1224 5.14367 23.2798 5.16255 23.3678 5.09647C23.303 5.25695 23.4326 5.4127 23.5437 5.56846C23.5252 5.34663 23.6548 5.19087 23.59 5.07287C23.789 5.12007 23.8122 5.29943 24.0992 5.29943C23.9881 5.23335 23.9233 5.0068 23.789 5.0068C23.8538 4.9832 24.1223 4.9596 24.1686 5.0068C24.1223 4.9124 23.9649 4.82744 23.877 4.82744C23.9696 4.73304 24.1223 4.55369 24.2334 4.50649C24.076 4.53009 23.8353 4.55369 23.7474 4.69056C23.9649 4.50649 23.9233 4.17138 24.164 4.12418C24.0344 4.10058 23.8353 4.19026 23.6779 4.35073C23.7474 4.21386 23.7474 4.0345 23.8353 3.9873C23.6548 4.0345 23.4557 4.26106 23.3909 4.37433C23.3813 4.24618 23.3433 4.12192 23.2798 4.0109V4.0109Z" fill="black" stroke="white" stroke-width="1.04563" stroke-linejoin="round"/>
<path d="M23.3909 4.37419C23.3909 4.44026 23.3909 4.57714 23.3678 4.61962ZM23.6779 4.35059C23.6316 4.39778 23.5437 4.55354 23.5437 4.69042Z" fill="black"/>
<path d="M23.3909 4.37419C23.3909 4.44026 23.3909 4.57714 23.3678 4.61962M23.6779 4.35059C23.6316 4.39778 23.5437 4.55354 23.5437 4.69042" stroke="white" stroke-width="1.04563" stroke-linejoin="round"/>
<path d="M23.8122 4.62012C23.7359 4.66659 23.6796 4.74078 23.6548 4.82779" stroke="white" stroke-width="1.04563" stroke-linejoin="round"/>
<path d="M16.6232 20.0723C16.7574 20.431 17.711 20.9077 18.822 20.2988C19.5765 19.8646 20.0626 19.2605 20.5301 18.1749C20.6598 17.9012 20.7292 17.5613 20.419 17.3584C20.1737 17.1743 19.771 16.9713 19.5951 16.792C19.5071 16.6976 19.4192 16.6315 19.3543 16.5654C19.4006 16.6126 19.4423 16.6551 19.484 16.7212C19.9284 17.264 19.4654 18.0569 18.9748 18.5336C18.6183 18.8734 17.9795 19.7089 17.0444 18.9159C16.8454 18.7366 16.3778 19.4823 16.6278 20.0723H16.6232ZM30.1124 20.0723C29.955 20.431 29.0014 20.9077 27.9136 20.2988C27.1636 19.8646 26.673 19.2605 26.1869 18.1749C26.0758 17.9012 26.0064 17.5613 26.3165 17.3584C26.5619 17.1743 26.9646 16.9713 27.1405 16.792C27.2284 16.6976 27.2933 16.6315 27.3812 16.5654C27.3349 16.6126 27.2933 16.6551 27.2516 16.7212C26.8072 17.264 27.2701 18.0569 27.7376 18.5336C28.0941 18.8734 28.756 19.7089 29.6911 18.9159C29.8902 18.7366 30.3346 19.4823 30.1077 20.0723H30.1124Z" fill="#FCEA83" stroke="black" stroke-width="0.152488"/>
<path d="M23.3678 22.0166C25.1407 22.0166 27.8719 21.2 29.3393 18.3492C29.58 17.8772 29.3393 17.6271 29.0477 17.4713C28.718 17.302 28.4178 17.0788 28.1589 16.8105C28.5153 17.174 28.4459 17.4241 28.2052 17.83C27.0711 19.7557 25.5203 20.728 23.3678 20.728C21.2152 20.728 19.6645 19.7557 18.5304 17.83C18.2897 17.4241 18.2202 17.174 18.5535 16.8153C18.2985 17.0869 17.9974 17.3091 17.6647 17.4713C17.3777 17.6271 17.1324 17.8772 17.3777 18.3492C18.8405 21.2 21.5902 22.0166 23.3678 22.0166V22.0166Z" fill="#FCEA83" stroke="black" stroke-width="0.152488"/>
<path d="M19.2618 18.194C19.2155 17.9674 18.9331 18.0571 18.8451 18.3308C18.7254 18.1743 18.62 18.0068 18.5304 17.8305C18.2665 17.4246 18.2202 17.1509 18.5998 16.7686C18.7757 16.5892 19.1322 16.3815 19.3729 16.6081C19.8821 17.0376 19.6182 17.7409 19.2618 18.194V18.194ZM27.4506 18.194C27.4969 17.9674 27.8071 18.0571 27.895 18.3308C28.0061 18.1704 28.1172 18.0146 28.2052 17.8305C28.469 17.4246 28.5153 17.1509 28.1126 16.7686C27.9598 16.5892 27.6034 16.3815 27.3395 16.6081C26.8489 17.0376 27.0942 17.7409 27.4506 18.194ZM16.6232 20.0725C16.401 19.7326 16.2251 18.8453 16.1788 18.6235C16.114 18.4205 16.0908 18.2364 16.3362 18.1515C16.5815 18.0571 16.7991 18.3733 16.9102 18.6471C17.0213 18.9161 17.2018 19.322 17.4009 19.8223C16.9102 19.5297 16.5121 19.7279 16.6232 20.0725ZM30.1124 20.0725C30.3114 19.7326 30.4873 18.8453 30.5568 18.6235C30.6031 18.4205 30.6447 18.2364 30.3994 18.1515C30.154 18.0571 29.9365 18.3733 29.8254 18.6471C29.7143 18.9161 29.5337 19.322 29.3347 19.8223C29.8254 19.5297 30.2003 19.7279 30.1124 20.0725V20.0725Z" fill="#C8102E" stroke="black" stroke-width="0.152488"/>
<path d="M17.9101 18.0338L17.7342 18.1282C17.6879 18.1471 17.6879 18.1943 17.6879 18.2179H17.6647L17.5768 18.015H17.5999C17.5999 18.0338 17.6231 18.0622 17.6647 18.0338L18.0443 17.8309C18.0906 17.8073 18.0906 17.7837 18.0675 17.7648L18.086 17.7412L18.1971 17.9678H18.1786C18.1554 17.9442 18.1323 17.9206 18.086 17.9442L17.9332 18.0386L17.998 18.1707L18.1786 18.1046C18.2248 18.081 18.1971 18.0338 18.1971 18.0102H18.2202L18.3128 18.2179C18.2897 18.1943 18.2665 18.1707 18.2202 18.1943L17.8453 18.3973C17.799 18.4209 17.799 18.4445 17.8221 18.4633L17.799 18.4869L17.6879 18.284L17.711 18.2604C17.7342 18.284 17.7573 18.3076 17.8036 18.284L17.9795 18.1896L17.9101 18.0338ZM18.2897 18.3312C18.3359 18.3076 18.3359 18.284 18.3082 18.2368H18.3313L18.5535 18.5766L18.4008 18.6899V18.671C18.4887 18.6002 18.4887 18.5105 18.4656 18.4869C18.4424 18.4633 18.4193 18.4398 18.4193 18.4209C18.4008 18.4209 18.4008 18.3973 18.3545 18.4445L18.1971 18.5577C18.2202 18.5766 18.2434 18.6474 18.3545 18.5766H18.3776L18.1323 18.7607V18.7371C18.2434 18.6427 18.1971 18.5766 18.1786 18.5577L18.0212 18.671C17.9749 18.6899 17.9749 18.7182 17.9749 18.7371C17.998 18.7371 17.998 18.7607 18.0212 18.7843C18.0443 18.8315 18.1138 18.874 18.2202 18.8315L18.2434 18.8504L18.0675 18.9165L17.8453 18.5577H17.8684C17.8869 18.5766 17.9147 18.6049 17.9564 18.5766L18.2897 18.3312ZM18.6415 19.1902L18.4887 19.3224C18.4656 19.346 18.4656 19.3932 18.4887 19.4168H18.4656L18.3082 19.2563L18.3313 19.2327C18.3545 19.2563 18.3776 19.2799 18.4239 19.2327L18.7109 18.9401C18.7572 18.9165 18.7572 18.8929 18.7294 18.8457L18.8868 19.0345C18.8637 19.0061 18.822 19.0061 18.7942 19.0345L18.6646 19.1666L18.7757 19.2799L18.91 19.1666C18.9562 19.1194 18.9331 19.1005 18.91 19.0722L18.9331 19.0533L19.0859 19.2327H19.0627C19.0442 19.2327 19.0164 19.2138 18.9748 19.2563L18.6878 19.53C18.6415 19.5772 18.6415 19.5961 18.6646 19.6197V19.6433L18.5119 19.4592C18.5304 19.4592 18.5767 19.4828 18.5998 19.4592L18.7526 19.3035L18.6415 19.1902ZM18.9748 19.6669L19.0442 19.733L19.1322 19.53C19.1322 19.53 19.0627 19.5489 18.9516 19.6197L18.9748 19.6669L18.9516 19.6858L18.9053 19.6386C18.8868 19.6622 18.8637 19.6622 18.8405 19.6858C18.7757 19.733 18.7942 19.7566 18.822 19.7802V19.7991L18.7109 19.6858H18.7294L18.822 19.6622L19.2618 19.4168L19.2849 19.4356C19.2849 19.4356 19.2618 19.4592 19.0627 19.9123C19.0627 19.9595 19.0442 19.9784 19.0627 20.0256L18.8868 19.8699L18.91 19.8463C18.9331 19.8935 18.9748 19.8935 18.9979 19.8463C18.9979 19.8227 19.0211 19.7755 19.0211 19.7519L18.9516 19.6858L18.9748 19.6622V19.6669ZM19.1507 20.1153L19.1738 20.0917C19.197 20.1153 19.2201 20.1153 19.2664 20.0917L19.5534 19.7094L19.5303 19.6858C19.484 19.6622 19.4192 19.6622 19.3544 19.733V19.7094L19.4423 19.5961L19.7756 19.8463L19.6645 19.9784H19.6414C19.7062 19.9123 19.6876 19.8227 19.6414 19.7991V19.7755L19.3544 20.1625C19.3081 20.1861 19.3312 20.2286 19.3544 20.2522H19.3312L19.1507 20.1153Z" fill="#00493D"/>
<path d="M19.7293 20.2044L19.6182 20.3649C19.5951 20.4121 19.6182 20.431 19.6413 20.4593L19.6182 20.4782L19.4423 20.3413V20.3177C19.4886 20.3413 19.5071 20.3413 19.5303 20.2988L19.7756 19.959C19.7941 19.9118 19.7756 19.8882 19.7524 19.8646L19.7756 19.8457L19.9515 19.9779V20.0015C19.9052 19.9779 19.8867 19.9779 19.8589 20.0251L19.7524 20.1855L19.8867 20.2752L19.9978 20.1147C20.0163 20.0675 19.9978 20.0487 19.9746 20.0251L19.9978 20.0015L20.1737 20.1383V20.1619C20.1506 20.1383 20.1089 20.1383 20.0811 20.1855L19.8635 20.5442C19.8173 20.5678 19.8404 20.5914 19.8635 20.615V20.6339L19.6645 20.5018H19.6876C19.7062 20.5018 19.7339 20.5018 19.7524 20.4782L19.8635 20.2988L19.7293 20.2044ZM20.1737 20.8416L20.1968 20.818C20.22 20.8416 20.2617 20.8416 20.2848 20.7944L20.4607 20.4121C20.4838 20.3649 20.4607 20.3413 20.4376 20.3177L20.8171 20.5018L20.7246 20.6811L20.706 20.6575C20.7709 20.5678 20.706 20.4782 20.6829 20.4546C20.6598 20.4546 20.6366 20.431 20.6181 20.431C20.5949 20.431 20.5949 20.431 20.5718 20.4782C20.5487 20.5018 20.4838 20.6339 20.4838 20.6339C20.507 20.6575 20.5487 20.7047 20.6412 20.5867H20.6598L20.5301 20.8605L20.507 20.8416C20.5718 20.7 20.4838 20.6811 20.4607 20.6811L20.3727 20.8605C20.3496 20.9077 20.3727 20.9313 20.3959 20.9313V20.9549L20.1737 20.8416ZM20.8171 21.1578C20.7523 21.1106 20.7523 20.9738 20.8171 20.8416C20.8634 20.7 20.9514 20.5914 21.0393 20.6339C21.1041 20.6575 21.0856 20.7944 21.0393 20.9313C20.9699 21.087 20.8819 21.1767 20.8171 21.1578H20.794C20.9514 21.2239 21.0625 21.1342 21.1273 20.9738C21.1921 20.8416 21.1736 20.6811 21.0347 20.615C20.9051 20.5442 20.7709 20.6339 20.706 20.7944C20.6412 20.9549 20.6598 21.1106 20.7986 21.1578H20.8171ZM21.5022 21.2003L21.5948 20.9313C21.6133 20.8841 21.5948 20.8605 21.5717 20.8369L21.6828 20.8605V20.8841C21.6596 20.8841 21.6365 20.8841 21.6133 20.9313L21.5254 21.2003C21.4791 21.3136 21.4143 21.4033 21.2847 21.3608C21.1921 21.3372 21.1273 21.2239 21.1736 21.1106L21.2847 20.818C21.3032 20.7708 21.2847 20.7472 21.2615 20.7236V20.7047L21.4606 20.7944V20.818C21.4374 20.7944 21.3958 20.7944 21.3958 20.8416L21.2801 21.1295C21.2569 21.2192 21.2569 21.3089 21.3263 21.3325C21.3912 21.3561 21.456 21.3089 21.4976 21.1956L21.5022 21.2003ZM21.7059 20.9077C21.7059 20.8841 21.7059 20.8841 21.6828 20.8841L21.8355 20.9077L21.9744 21.3372L22.0392 21.0634C22.0577 21.0162 22.0392 20.9974 22.0161 20.9738L22.1457 20.9974L22.1272 21.021C22.104 21.021 22.0809 21.021 22.0577 21.0681L21.9466 21.5637H21.9281L21.7476 21.021L21.6365 21.3844C21.6365 21.4505 21.6596 21.4505 21.6828 21.4741V21.4977L21.5485 21.4505V21.4269C21.5717 21.4505 21.6133 21.4269 21.6133 21.3797L21.7244 20.9738L21.7059 20.9077ZM22.4605 21.3608C22.4142 21.5637 22.3216 21.6109 22.2799 21.6109H22.2336C22.2336 21.6109 22.2151 21.5873 22.2336 21.5637L22.3031 21.1106C22.3262 21.087 22.3262 21.0634 22.3494 21.087H22.3957C22.4373 21.087 22.479 21.1814 22.4605 21.3608L22.5253 21.3844C22.5716 21.1578 22.479 21.0634 22.3679 21.0446C22.2799 21.021 22.1457 20.9974 22.1457 20.9974V21.021C22.1688 21.0446 22.2151 21.0446 22.192 21.1153L22.1272 21.5165C22.104 21.5637 22.0809 21.5873 22.0577 21.5873H22.0392L22.2568 21.6345C22.3679 21.6534 22.479 21.6345 22.5253 21.3844L22.4605 21.3608ZM22.6595 21.1767C22.6595 21.1295 22.6132 21.1106 22.5901 21.1106V21.087L22.9928 21.1342L22.9697 21.3136C22.9697 21.2003 22.9002 21.1578 22.8586 21.1578C22.8354 21.1342 22.8123 21.1342 22.7891 21.1342C22.7706 21.1342 22.7706 21.1342 22.7706 21.2003L22.7475 21.3844C22.7706 21.3844 22.8354 21.4033 22.8817 21.2711L22.8586 21.5637H22.8354C22.8354 21.4269 22.7706 21.4269 22.7428 21.4269L22.7243 21.6298C22.7243 21.677 22.7243 21.677 22.7475 21.677L22.7938 21.7006C22.8586 21.7006 22.9234 21.677 22.9697 21.5401H22.9928L22.9465 21.7195L22.5253 21.6723C22.5716 21.6723 22.5901 21.6534 22.6179 21.6109L22.6595 21.1767ZM23.3909 21.4505C23.3909 21.6534 23.3215 21.7195 23.2567 21.7195C23.2335 21.7006 23.2335 21.7006 23.2104 21.7006L23.1919 21.677L23.215 21.205C23.215 21.1767 23.215 21.1767 23.2335 21.1767H23.2798C23.3261 21.1767 23.3909 21.2475 23.3909 21.4505H23.4789C23.4789 21.2239 23.3678 21.1578 23.2567 21.1578C23.1641 21.1342 23.0345 21.1342 23.0345 21.1342V21.1578C23.0576 21.1578 23.1039 21.1767 23.1039 21.2239L23.0808 21.6534C23.0808 21.7006 23.0576 21.7195 23.0345 21.7195V21.7431H23.2335C23.3446 21.7431 23.4557 21.6959 23.4789 21.4505H23.3863H23.3909ZM24.0344 21.6298C24.0344 21.677 24.0575 21.677 24.0992 21.677V21.7006L23.8538 21.7195C23.877 21.7006 23.9233 21.6723 23.9233 21.6298L23.877 21.205C23.8538 21.1578 23.8307 21.1578 23.789 21.1578V21.1342L24.0344 21.1106C24.0112 21.1342 23.9649 21.1578 23.9881 21.205L24.0344 21.6298ZM24.2566 21.677V21.6534C24.2797 21.6534 24.3029 21.6298 24.3029 21.5873L24.2103 21.1153H24.1871C24.1408 21.1342 24.0992 21.1767 24.1223 21.2711H24.0992L24.076 21.1106L24.4788 21.0446L24.4973 21.2003H24.4788C24.4788 21.1106 24.4093 21.087 24.3399 21.087H24.3214L24.414 21.559C24.414 21.6062 24.4325 21.6298 24.4788 21.6298V21.6534L24.2566 21.677ZM25.2102 21.2239L25.1176 20.9549C25.1176 20.9077 25.0759 20.9077 25.0528 20.9077V20.8841L25.1639 20.8369V20.8605C25.1407 20.8841 25.1407 20.8841 25.1407 20.9313L25.2333 21.2239C25.2518 21.3183 25.2518 21.4505 25.1222 21.4977C25.0296 21.5165 24.9232 21.4741 24.9 21.3372L24.8074 21.0446C24.7889 20.9974 24.7658 20.9974 24.7426 20.9974L24.7195 20.9738L24.9417 20.9077V20.9313C24.9232 20.9549 24.8954 20.9785 24.9232 21.021L24.988 21.3136C25.0111 21.408 25.0805 21.4505 25.1407 21.4505C25.2102 21.4269 25.2333 21.3372 25.2102 21.2239ZM25.4555 21.0634C25.562 21.0162 25.5435 20.9549 25.5203 20.8841C25.4972 20.818 25.4555 20.7708 25.4092 20.7944C25.3861 20.7944 25.3629 20.818 25.3861 20.8416L25.4555 21.0634L25.474 21.087L25.5203 21.2711C25.5435 21.3183 25.5851 21.3183 25.6129 21.29V21.3136L25.4092 21.408L25.3861 21.3844C25.4324 21.3608 25.4324 21.3372 25.4324 21.29L25.275 20.9077C25.2518 20.8416 25.2287 20.8605 25.187 20.8605V20.8416L25.4092 20.7472C25.5018 20.7283 25.5851 20.7472 25.6314 20.8416C25.6546 20.9549 25.6083 21.021 25.5203 21.0681C25.4972 21.0681 25.474 21.087 25.474 21.087L25.4555 21.0634Z" fill="#00493D"/>
<path d="M26.0064 21.13C25.9416 21.1583 25.8536 21.0639 25.7842 20.9082C25.7194 20.7713 25.7194 20.6344 25.7842 20.6155C25.8536 20.5919 25.9416 20.6816 26.0064 20.8185C26.0758 20.9554 26.0758 21.0875 26.0064 21.1347C26.1452 21.0875 26.1869 20.9318 26.1175 20.7713C26.0527 20.6344 25.9184 20.5447 25.7842 20.5919C25.753 20.6079 25.7253 20.63 25.7028 20.6571C25.6802 20.6842 25.6632 20.7156 25.6528 20.7496C25.6425 20.7835 25.6389 20.8192 25.6424 20.8546C25.6459 20.8899 25.6563 20.9242 25.6731 20.9554C25.7425 21.1111 25.8767 21.2008 26.0064 21.1347V21.13ZM26.0295 20.5023H25.9878L26.1175 20.4079L26.5202 20.6344L26.3813 20.389C26.3628 20.3418 26.3165 20.3418 26.298 20.3418V20.3182L26.4091 20.271C26.3859 20.2993 26.3628 20.3182 26.4091 20.3654L26.6313 20.8185L26.6081 20.8421L26.1175 20.5683L26.298 20.9082C26.3165 20.9554 26.3628 20.9554 26.3859 20.9318V20.9554L26.2749 21.0214V20.9978C26.298 20.9742 26.298 20.9506 26.2749 20.9082L26.0989 20.5447L26.0295 20.4975V20.5023ZM27.0294 20.5683V20.5447C27.0294 20.5211 27.0525 20.4975 27.0294 20.4551L26.7609 20.0727H26.7378C26.6915 20.0916 26.673 20.186 26.7378 20.2521L26.7192 20.2757L26.6267 20.1152L26.96 19.8887L27.0525 20.0303C26.9831 19.9595 26.9137 19.9595 26.872 19.9831L26.8489 20.0019L27.1173 20.389C27.1405 20.4362 27.1822 20.4362 27.2099 20.4126V20.4315L27.0294 20.5683Z" fill="#00493D"/>
<path d="M21.6596 9.82572C21.3726 9.8918 21.1736 9.9154 20.9051 9.66524C20.7292 9.48589 20.7709 9.16966 20.9514 9.05166C21.1504 8.91951 21.3263 8.82983 21.5717 8.89591C21.817 8.9667 22.4605 9.57557 22.3031 9.59917C22.1457 9.59917 21.905 9.75492 21.6596 9.82572ZM22.3447 8.74015C22.4373 8.66935 22.5484 8.62687 22.8354 8.59855C23.1039 8.57967 23.2983 8.57967 23.3678 8.78735C23.4604 9.03278 23.5252 9.32541 23.7011 9.46229C23.59 9.52837 23.0345 9.59917 22.8354 9.48589C22.5716 9.34901 22.5021 8.82511 22.3494 8.74015H22.3447ZM24.2566 8.76375C24.3445 8.69295 24.4556 8.69295 24.7426 8.71655C25.0296 8.74015 25.1407 8.76375 25.2055 8.9667C25.275 9.19326 25.2055 9.48589 25.3444 9.68884C25.2055 9.73604 24.7658 9.73604 24.6084 9.57557C24.3677 9.39621 24.3862 8.87231 24.2566 8.75903V8.76375Z" fill="white" stroke="black" stroke-width="0.152488"/>
<path d="M25.5851 8.89631C25.3861 8.84911 25.2518 8.83023 25.1685 8.89631C25.275 9.03319 25.187 9.57597 25.4092 9.75532C25.562 9.8686 25.9647 9.89692 26.0527 9.64205C26.1638 9.41549 26.1638 9.07566 25.5897 8.89631H25.5851ZM23.303 8.66976C23.3678 8.60368 23.502 8.58008 23.7659 8.58008C24.0575 8.58008 24.2288 8.62728 24.3214 8.80663C24.414 9.03318 24.3862 9.32582 24.5436 9.50989C24.4788 9.59957 23.877 9.59957 23.7011 9.46269C23.4557 9.30222 23.4326 8.78303 23.303 8.66976V8.66976ZM21.4189 8.87271C21.4189 8.75943 21.5717 8.74055 21.9744 8.71695C22.3679 8.66976 22.391 8.69335 22.5253 8.98599C22.5901 9.14646 22.678 9.41549 22.8586 9.50517C22.3679 9.62317 22.2105 9.68925 21.9466 9.52877C21.7539 9.40589 21.5947 9.23544 21.4837 9.03318C21.4606 8.96711 21.4606 8.89631 21.4143 8.87271H21.4189Z" fill="#073163" stroke="black" stroke-width="0.152488"/>
<path d="M22.4836 6.56914C22.0161 6.20571 21.4606 5.86588 20.9514 5.7998C21.4827 6.16097 21.9871 6.56168 22.4605 6.99865" fill="#F9D050"/>
<path d="M22.4836 6.56914C22.0161 6.20571 21.4606 5.86588 20.9514 5.7998C21.4827 6.16097 21.9871 6.56168 22.4605 6.99865" stroke="black" stroke-width="0.065352"/>
<path d="M22.7475 6.22941C22.192 5.84238 21.5486 5.41287 20.9283 5.37039C21.5087 5.71338 22.0258 6.15748 22.4559 6.68251M23.4557 5.59695C23.7064 5.01613 24.0775 4.49762 24.5436 4.07715C24.3214 4.55385 24.0807 5.52615 23.9649 5.91318" fill="#F9D050"/>
<path d="M22.7475 6.22941C22.192 5.84238 21.5486 5.41287 20.9283 5.37039C21.5087 5.71338 22.0258 6.15748 22.4559 6.68251M23.4557 5.59695C23.7064 5.01613 24.0775 4.49762 24.5436 4.07715C24.3214 4.55385 24.0807 5.52615 23.9649 5.91318" stroke="black" stroke-width="0.065352"/>
<path d="M23.9464 5.48384C24.1609 4.952 24.5643 4.52221 25.0759 4.28027C24.6915 4.76924 24.4053 5.33056 24.2334 5.93223" fill="#F9D050"/>
<path d="M23.9464 5.48384C24.1609 4.952 24.5643 4.52221 25.0759 4.28027C24.6915 4.76924 24.4053 5.33056 24.2334 5.93223" stroke="black" stroke-width="0.065352"/>
<path d="M24.1455 5.93191C24.5705 5.26856 25.1797 4.74933 25.8953 4.44043C25.3398 5.00681 24.5204 6.04518 24.3214 6.45581M24.4556 6.43221C24.8537 6.20566 25.6546 5.84223 26.2286 5.96023C25.8768 6.09238 24.8121 6.58797 24.3445 7.0458" fill="#F9D050"/>
<path d="M24.1455 5.93191C24.5705 5.26856 25.1797 4.74933 25.8953 4.44043C25.3398 5.00681 24.5204 6.04518 24.3214 6.45581M24.4556 6.43221C24.8537 6.20566 25.6546 5.84223 26.2286 5.96023C25.8768 6.09238 24.8121 6.58797 24.3445 7.0458" stroke="black" stroke-width="0.065352"/>
<path d="M24.3677 6.2714C24.7426 5.86549 25.4324 5.25663 26.1638 5.00648C25.6314 5.52566 24.4973 6.70563 24.3445 6.88498M23.303 6.02597C23.0345 5.18583 22.6364 4.39761 22.0392 4.14746C22.5149 4.84081 22.8457 5.62638 23.0113 6.45548M22.7891 6.00237C22.3494 5.45958 21.7476 4.9168 21.0625 4.80352C21.7338 5.25144 22.2642 5.88729 22.5901 6.63483" fill="#F9D050"/>
<path d="M24.3677 6.2714C24.7426 5.86549 25.4324 5.25663 26.1638 5.00648C25.6314 5.52566 24.4973 6.70563 24.3445 6.88498M23.303 6.02597C23.0345 5.18583 22.6364 4.39761 22.0392 4.14746C22.5149 4.84081 22.8457 5.62638 23.0113 6.45548M22.7891 6.00237C22.3494 5.45958 21.7476 4.9168 21.0625 4.80352C21.7338 5.25144 22.2642 5.88729 22.5901 6.63483" stroke="black" stroke-width="0.065352"/>
<path d="M23.0391 5.97895C22.4836 4.95946 22.0578 4.7801 21.817 4.57715C22.0161 4.95946 22.5021 5.97895 22.7892 6.40846" fill="#F9D050"/>
<path d="M23.0391 5.97895C22.4836 4.95946 22.0578 4.7801 21.817 4.57715C22.0161 4.95946 22.5021 5.97895 22.7892 6.40846" stroke="black" stroke-width="0.065352"/>
<path d="M21.9281 5.91309C22.2447 6.11609 22.516 6.38463 22.7243 6.7013" stroke="black" stroke-width="0.065352"/>
<path d="M21.9281 6.38536C22.0578 6.49864 22.3031 6.63551 22.5253 6.83847ZM24.5667 6.72519C24.7889 6.54584 25.275 6.2532 25.5203 6.15881ZM24.4093 6.56944C24.6315 6.27208 25.0759 5.86618 25.2333 5.7293ZM25.0296 5.16292C24.7313 5.50376 24.4501 5.85978 24.1871 6.22961ZM24.4556 4.95996C24.2455 5.27681 24.0598 5.60977 23.9001 5.95585ZM22.7012 5.00716C22.8354 5.37059 23.0808 5.97945 23.1641 6.22961ZM22.5021 5.38947C22.5947 5.53107 22.7706 5.84258 22.8354 6.06913Z" fill="#F9D050"/>
<path d="M21.9281 6.38536C22.0578 6.49864 22.3031 6.63551 22.5253 6.83847M24.5667 6.72519C24.7889 6.54584 25.275 6.2532 25.5203 6.15881M24.4093 6.56944C24.6315 6.27208 25.0759 5.86618 25.2333 5.7293M25.0296 5.16292C24.7313 5.50376 24.4501 5.85978 24.1871 6.22961M24.4556 4.95996C24.2455 5.27681 24.0598 5.60977 23.9001 5.95585M22.7012 5.00716C22.8354 5.37059 23.0808 5.97945 23.1641 6.22961M22.5021 5.38947C22.5947 5.53107 22.7706 5.84258 22.8354 6.06913" stroke="black" stroke-width="0.065352"/>
<path d="M23.2567 5.27537C23.2567 5.07242 23.3909 4.85059 23.5252 4.85059C23.6779 4.85059 23.789 5.11962 23.789 5.27537C23.789 5.45945 23.6548 5.6152 23.5252 5.6152C23.3863 5.6152 23.2567 5.48305 23.2567 5.27537Z" fill="#F9D050" stroke="black" stroke-width="0.065352"/>
<path d="M22.9697 5.45968C22.9928 5.23313 23.1456 5.05377 23.2798 5.07265C23.4141 5.09625 23.4789 5.37001 23.4557 5.52576C23.4326 5.70512 23.2798 5.84199 23.1687 5.81839C23.0576 5.81839 22.9465 5.66264 22.9697 5.45968ZM23.5668 5.52576C23.5205 5.32281 23.6131 5.10097 23.7474 5.07265C23.877 5.05377 24.0112 5.27561 24.0344 5.45968C24.0807 5.63904 23.9649 5.81839 23.8538 5.81839C23.7474 5.84199 23.59 5.72872 23.5668 5.52576Z" fill="#F9D050" stroke="black" stroke-width="0.065352"/>
<path d="M23.2335 5.70506C23.2335 5.48323 23.3678 5.28027 23.502 5.28027C23.6548 5.28027 23.7659 5.52571 23.7659 5.70506C23.7659 5.88914 23.6363 6.04489 23.502 6.04489C23.3678 6.04489 23.2335 5.91274 23.2335 5.70506Z" fill="#F9D050" stroke="black" stroke-width="0.065352"/>
<path d="M22.8354 5.81818C22.8354 5.61522 22.9928 5.39339 23.1224 5.39339C23.2613 5.39339 23.3909 5.66242 23.3909 5.81818C23.3909 6.00225 23.2335 6.15801 23.1224 6.15801C22.9928 6.15801 22.8354 6.02585 22.8354 5.81818ZM23.6548 5.7285C23.6548 5.52554 23.7937 5.30371 23.9233 5.30371C24.076 5.30371 24.1871 5.57274 24.1871 5.7285C24.1871 5.91257 24.0575 6.06833 23.9233 6.06833C23.789 6.06833 23.6548 5.93145 23.6548 5.7285Z" fill="#F9D050" stroke="black" stroke-width="0.065352"/>
<path d="M23.5668 5.91291C23.5668 5.68635 23.7242 5.4834 23.8538 5.4834C23.9927 5.4834 24.1223 5.72883 24.1223 5.90819C24.1223 6.09226 23.9881 6.25274 23.8538 6.25274C23.7242 6.25274 23.5668 6.11114 23.5668 5.91291V5.91291Z" fill="#F9D050" stroke="black" stroke-width="0.065352"/>
<path d="M23.215 6.11619C23.215 5.88964 23.3446 5.68669 23.4789 5.68669C23.6363 5.68669 23.7474 5.95572 23.7474 6.11147C23.7474 6.30027 23.6085 6.45602 23.4789 6.45602C23.3446 6.45602 23.2104 6.31443 23.2104 6.11619H23.215ZM22.6595 6.11619C22.6595 5.88964 22.7706 5.68669 22.8817 5.68669C22.9928 5.68669 23.0808 5.95572 23.0808 6.11147C23.0808 6.30027 22.9697 6.45602 22.8817 6.45602C22.7706 6.45602 22.6595 6.31443 22.6595 6.11619V6.11619ZM23.9001 6.07371C23.9001 5.86604 24.0112 5.66309 24.1223 5.66309C24.2334 5.66309 24.3445 5.91324 24.3445 6.06899C24.3445 6.27195 24.2103 6.40882 24.1223 6.40882C24.0112 6.40882 23.9001 6.27195 23.9001 6.06899V6.07371Z" fill="#F9D050" stroke="black" stroke-width="0.065352"/>
<path d="M24.0344 6.45079C24.0807 6.22895 24.2103 6.04488 24.2982 6.0732C24.3908 6.09208 24.4093 6.36111 24.3677 6.52159C24.3445 6.72454 24.2103 6.83782 24.1223 6.81422C24.0298 6.79534 23.9881 6.63486 24.0298 6.45551L24.0344 6.45079Z" fill="#F9D050" stroke="black" stroke-width="0.065352"/>
<path d="M23.6131 6.38516C23.6363 6.18221 23.7659 5.97925 23.877 6.00285C24.0112 6.00285 24.076 6.27189 24.0575 6.42764C24.0344 6.63532 23.9186 6.77219 23.8122 6.74859C23.7011 6.74859 23.59 6.58812 23.6131 6.38516V6.38516ZM22.9928 6.45124C22.9234 6.22941 22.7891 6.07365 22.7012 6.09253C22.6132 6.11613 22.5901 6.38516 22.6364 6.54564C22.6827 6.72499 22.8123 6.83827 22.9002 6.81467C22.9697 6.79579 23.0391 6.63532 22.9928 6.45596V6.45124Z" fill="#F9D050" stroke="black" stroke-width="0.065352"/>
<path d="M22.8354 6.40884C22.8354 6.20588 22.9465 6.00293 23.0576 6.00293C23.1919 6.00293 23.2798 6.25308 23.2798 6.40884C23.2798 6.61179 23.1687 6.74867 23.0576 6.74867C22.9651 6.74867 22.8354 6.61179 22.8354 6.40884Z" fill="#F9D050" stroke="black" stroke-width="0.065352"/>
<path d="M23.1687 6.49827C23.1687 6.27172 23.303 6.07349 23.4326 6.07349C23.59 6.07349 23.7011 6.31892 23.7011 6.49827C23.7011 6.68235 23.5668 6.8381 23.4326 6.8381C23.303 6.8381 23.1687 6.70123 23.1687 6.49827ZM23.2798 4.0109C23.2335 4.19026 23.0808 4.35073 23.1872 4.60089C22.9928 4.53009 22.8169 4.50649 22.6595 4.69056C22.8586 4.66697 23.0345 4.73776 23.1224 4.86992C22.9465 4.84632 22.8586 4.94072 22.8123 5.05399C22.9697 5.0068 23.1224 4.9596 23.1919 4.9832C23.1224 5.05399 23.0113 5.16255 22.9928 5.25695C23.1224 5.14367 23.2798 5.16255 23.3678 5.09647C23.303 5.25695 23.4326 5.4127 23.5437 5.56846C23.5252 5.34663 23.6548 5.19087 23.59 5.07287C23.789 5.12007 23.8122 5.29943 24.0992 5.29943C23.9881 5.23335 23.9233 5.0068 23.789 5.0068C23.8538 4.9832 24.1223 4.9596 24.1686 5.0068C24.1223 4.9124 23.9649 4.82744 23.877 4.82744C23.9696 4.73304 24.1223 4.55369 24.2334 4.50649C24.076 4.53009 23.8353 4.55369 23.7474 4.69056C23.9649 4.50649 23.9233 4.17138 24.164 4.12418C24.0344 4.10058 23.8353 4.19026 23.6779 4.35073C23.7474 4.21386 23.7474 4.0345 23.8353 3.9873C23.6548 4.0345 23.4557 4.26106 23.3909 4.37433C23.3813 4.24618 23.3433 4.12192 23.2798 4.0109V4.0109Z" fill="#F9D050" stroke="black" stroke-width="0.065352"/>
<path d="M23.3909 4.37419C23.3909 4.44026 23.3909 4.57714 23.3678 4.61962ZM23.6779 4.35059C23.6316 4.39778 23.5437 4.55354 23.5437 4.69042Z" fill="#F9D050"/>
<path d="M23.3909 4.37419C23.3909 4.44026 23.3909 4.57714 23.3678 4.61962M23.6779 4.35059C23.6316 4.39778 23.5437 4.55354 23.5437 4.69042" stroke="black" stroke-width="0.065352"/>
<path d="M23.8122 4.62012C23.7359 4.66659 23.6796 4.74078 23.6548 4.82779" stroke="black" stroke-width="0.065352"/>
<path d="M21.4606 6.86217C21.3032 6.86217 21.1736 6.79609 21.081 6.68281C20.9282 6.47514 20.507 6.38546 20.3265 6.56954C20.2617 6.61674 20.1737 6.61674 20.1089 6.63561C19.9978 6.63561 19.8636 6.74889 19.9052 6.97545C19.9978 6.90465 20.0163 6.97545 20.0858 6.97545C20.132 6.95185 20.1089 6.99904 20.1089 7.04152C20.1089 7.1548 20.3496 7.38135 20.5718 7.35775C20.8171 7.35775 20.9282 7.45215 20.9699 7.49935C21.0393 7.56071 20.9931 7.54183 21.0393 7.65511C21.1042 7.72118 21.1273 7.74478 21.0162 7.83446C20.9657 7.87743 20.925 7.9312 20.8971 7.99196C20.8692 8.05272 20.8547 8.119 20.8547 8.18609C20.8547 8.25319 20.8692 8.31946 20.8971 8.38022C20.925 8.44099 20.9657 8.49475 21.0162 8.53772C21.3032 8.75955 22.0346 9.10411 22.8586 8.44332C23.6548 7.81086 24.8954 8.17429 24.988 8.39613C25.0991 8.6274 25.1407 8.75956 25.1639 8.87283C25.187 8.96723 25.2981 9.05691 25.4555 9.03331C25.6083 9.03331 25.7842 9.09939 25.8721 9.17018C25.9879 9.23626 26.1406 9.21738 26.099 9.00971C26.0064 8.37725 25.6314 8.28757 25.5897 7.99494C25.8073 8.01382 25.9601 8.01382 26.0527 7.92414C26.1175 7.83446 26.2054 7.67399 26.298 7.63151C26.3628 7.58431 26.3628 7.53711 26.2749 7.56071C26.1638 7.58431 26.099 7.63151 25.8953 7.60791C24.8769 7.49463 22.0161 6.70169 21.4606 6.86217V6.86217Z" fill="#059334" stroke="black" stroke-width="0.152488"/>
<path d="M25.9879 7.63136C25.8187 7.75308 25.6741 7.90693 25.562 8.08447C25.3444 8.3771 24.6778 8.66973 23.8538 8.66973C23.0576 8.66973 22.5716 8.53757 22.2151 8.24494C22.063 8.12087 21.8985 8.01331 21.7245 7.92399C21.4837 7.81071 21.4374 7.56056 21.5023 7.35761C21.4374 7.47088 21.3958 7.58416 21.2615 7.56056C21.169 7.56056 20.9931 7.56056 21.0393 7.65496C21.0162 7.60776 21.0162 7.54168 20.9931 7.51336L20.9468 7.47088C21.0162 7.51808 21.1736 7.38121 21.2847 7.38121C21.3726 7.40481 21.4837 7.29153 21.4606 7.15465L21.3958 6.86202C21.5717 6.76762 23.9001 7.20185 24.3677 7.24433C24.8306 7.26793 26.1638 7.47088 25.9879 7.63136V7.63136Z" fill="black" stroke="black" stroke-width="0.152488"/>
<path d="M21.7707 6.77224C21.9929 6.54569 22.2568 6.43241 22.5253 6.49849H22.5901C22.729 6.38521 23.0345 6.36162 23.215 6.45129H23.303C23.5668 6.36162 24.076 6.45129 24.2566 6.63537L24.3214 6.68257C24.9232 6.63537 25.275 6.9044 25.6962 7.33863C25.7425 7.38583 25.8073 7.47078 25.9184 7.49438C26.0527 7.51798 26.0758 7.58878 25.9647 7.65486C25.7867 7.76709 25.6299 7.91097 25.5018 8.07965C25.2981 8.3534 24.6547 8.62715 23.8538 8.62715C23.0808 8.62715 22.6132 8.48556 22.2568 8.21652C22.0577 8.06077 21.905 7.97109 21.7939 7.90029C21.6596 7.85309 21.4837 7.67374 21.5485 7.49438C21.5948 7.31503 21.4837 7.08847 21.3958 6.86192C21.4606 6.81472 21.6365 6.74864 21.7244 6.79584L21.7707 6.77224Z" fill="#059334" stroke="black" stroke-width="0.152488"/>
<path d="M25.6962 7.33863C25.2796 6.9044 24.9232 6.63537 24.3214 6.67785C24.3214 6.70145 24.3214 6.77224 24.2982 6.81944C24.7176 7.01133 25.0894 7.29683 25.3861 7.65486C25.4787 7.56046 25.6314 7.4519 25.6962 7.33863ZM24.2566 6.63537C24.076 6.45601 23.5668 6.36162 23.303 6.45601C23.303 6.54569 23.303 6.68257 23.2567 6.77224C23.4141 6.83832 23.5437 6.9988 23.6779 7.15455C23.7705 7.13095 23.9881 7.06488 24.0992 7.04128C24.1655 6.91199 24.2182 6.77593 24.2566 6.63537V6.63537ZM23.215 6.45129C23.0345 6.36162 22.7243 6.38521 22.5901 6.49849C22.5438 6.59289 22.5253 6.77224 22.5253 6.86192C22.6179 6.86192 22.7475 6.928 22.7891 6.9752C22.928 6.928 23.1039 6.83832 23.1687 6.77224C23.1919 6.67785 23.2335 6.54569 23.215 6.45601V6.45129ZM21.7707 6.77224C21.9929 6.54569 22.2568 6.43241 22.5253 6.49849C22.479 6.56929 22.4605 6.70145 22.4605 6.83832C22.2151 6.81472 21.905 6.88552 21.7707 6.9752V6.77224Z" fill="#00493D" stroke="black" stroke-width="0.152488"/>
<path d="M25.2981 7.69756C25.0192 7.36088 24.6717 7.09028 24.2797 6.90462C24.2797 6.92822 24.2334 7.0179 24.2103 7.0887C24.3445 7.29165 24.6084 7.74476 24.7195 7.99491C24.8306 7.94771 25.1407 7.81084 25.2981 7.69756V7.69756ZM23.6131 8.19787C23.6515 7.88938 23.6731 7.57897 23.6779 7.26805C23.789 7.24445 24.0112 7.17837 24.0992 7.15477C24.2103 7.33885 24.4788 7.81556 24.5899 8.03739C24.3214 8.10347 23.877 8.21674 23.6131 8.19787ZM22.8354 7.1123C22.9465 7.0651 23.1039 6.9707 23.2104 6.88574C23.303 6.95182 23.4789 7.1123 23.5437 7.20197C23.5437 7.40493 23.4789 7.99491 23.4557 8.19315C23.2798 8.19315 22.9928 8.15067 22.8354 8.06099C22.8586 7.72116 22.8817 7.33885 22.8354 7.1123V7.1123ZM21.7244 7.38133C21.7476 7.33413 21.7707 7.17837 21.7707 7.1123C21.9466 6.99902 22.391 6.88574 22.7243 7.0651C22.7475 7.29165 22.7243 7.85803 22.7012 7.99491C22.4043 7.74873 22.0776 7.54251 21.7291 7.38133H21.7244Z" fill="#00493D" stroke="black" stroke-width="0.152488"/>
<path d="M20.6181 6.97005C20.5718 6.97005 20.5487 6.83789 20.4607 6.83789C20.4376 6.83789 20.3728 6.86149 20.3496 6.83789C20.3496 6.88509 20.3728 6.93229 20.3959 6.95117C20.4191 7.01725 20.5302 6.97477 20.6181 6.97477V6.97005Z" fill="black"/>
<path d="M20.6181 7.35755C20.882 7.35755 20.9283 7.01772 21.0625 6.99884M20.7709 7.38115C20.9699 7.47555 21.1273 6.99884 21.2801 7.01772M20.3728 6.79589C20.4376 6.79589 20.4839 6.70149 20.595 6.81477C20.6412 6.86197 20.7061 6.88557 20.7523 6.88557M20.7061 7.131C20.6135 7.2726 20.4607 7.35755 20.3728 7.31508M20.3265 6.56934C20.2617 6.61653 20.22 6.70149 20.1737 6.77229M20.1089 6.90445V7.01772" stroke="black" stroke-width="0.152488"/>
<path d="M27.5155 9.84847V14.2568C27.5155 18.0799 25.7425 19.392 23.3678 20.4304C20.9931 19.392 19.2016 18.0799 19.2016 14.2568V9.84375H27.5155V9.84847Z" fill="white"/>
<path d="M23.3678 13.5773C23.5668 13.5773 23.877 13.398 24.1455 13.1242C24.4325 12.808 24.9232 12.6994 25.4324 13.1242C25.9416 13.5537 26.2517 13.3744 26.5202 13.1242C26.7841 12.8788 27.0063 12.7844 27.5155 12.7844V9.84863H19.197V12.7891C19.7062 12.7891 19.9284 12.8835 20.1968 13.1289C20.4607 13.3791 20.7709 13.5584 21.2847 13.1289C21.817 12.7042 22.2799 12.8127 22.5901 13.1289C22.8354 13.4027 23.1456 13.582 23.3678 13.582V13.5773Z" fill="#C8102E"/>
<path d="M23.3678 15.8431C23.6363 15.8431 24.1686 15.5457 24.2982 15.4796C24.7889 15.1823 25.1407 15.456 25.4324 15.5929C25.7425 15.7251 26.3165 15.8856 26.673 15.5929C27.0294 15.2956 27.2284 15.3192 27.4738 15.3192C27.5201 14.9793 27.5201 14.6395 27.5201 14.2572V13.9834C27.2053 13.9174 27.0525 14.007 26.7192 14.3044C26.386 14.597 26.0064 14.5309 25.5157 14.3516C25.0528 14.1439 24.5899 13.7852 24.1223 14.3516C23.9284 14.5725 23.6578 14.7079 23.3678 14.7292C23.0345 14.7292 22.7475 14.5073 22.6132 14.3516C22.1272 13.7852 21.6828 14.1439 21.2152 14.3516C20.7292 14.5309 20.3265 14.597 19.9978 14.3044C19.6876 14.007 19.5303 13.9174 19.197 13.9834V14.2572C19.197 14.6395 19.2201 14.9793 19.2618 15.3192C19.5071 15.3192 19.6876 15.2956 20.0395 15.5929C20.3959 15.8856 20.9931 15.7251 21.2847 15.5929C21.5948 15.456 21.9466 15.1823 22.4373 15.4796C22.5716 15.5457 23.0808 15.8384 23.3678 15.8384V15.8431ZM23.3678 16.8154C23.7521 16.7942 24.1256 16.6775 24.4556 16.4755C24.9 16.2254 25.2102 16.3339 25.6546 16.5652C26.1175 16.7918 26.4971 16.721 26.7655 16.5652C26.8952 16.4708 27.0063 16.2915 27.2933 16.3623C27.1636 16.9286 26.96 17.4242 26.7192 17.8301C26.5301 17.8941 26.3304 17.9191 26.1318 17.9037C25.9331 17.8883 25.7394 17.8328 25.562 17.7405C25.0991 17.5139 24.5204 17.377 24.2103 17.58C23.9587 17.7469 23.6677 17.8415 23.3678 17.8537C23.1224 17.8537 22.8123 17.7593 22.5253 17.58C22.2151 17.377 21.6365 17.5139 21.1736 17.7405C20.9964 17.8336 20.8029 17.8899 20.6042 17.9061C20.4056 17.9223 20.2057 17.8981 20.0163 17.8349C19.7756 17.4242 19.5765 16.9239 19.4423 16.3623C19.7293 16.2915 19.8404 16.4755 19.9746 16.5652C20.1406 16.6607 20.328 16.711 20.5186 16.711C20.7092 16.711 20.8965 16.6607 21.0625 16.5652C21.5254 16.3387 21.8355 16.2254 22.2799 16.4708C22.6095 16.6745 22.983 16.7928 23.3678 16.8154V16.8154ZM23.3678 20.4308C24.2258 20.0917 25.0269 19.6188 25.7425 19.029C25.562 18.9629 25.4555 19.0054 25.2981 18.8921C25.1407 18.7788 24.6778 18.7364 24.2797 18.9629C24.0036 19.1271 23.6897 19.2136 23.3701 19.2136C23.0505 19.2136 22.7366 19.1271 22.4605 18.9629C22.0577 18.7364 21.5948 18.7788 21.4421 18.8921C21.2847 19.0054 21.1736 18.9629 20.9931 19.0337C21.7058 19.6266 22.5076 20.0984 23.3678 20.4308V20.4308Z" fill="#0B50A0"/>
<path d="M22.7891 10.9526C22.8123 10.9998 22.7706 11.1131 22.7891 11.1556C22.8354 11.25 22.8354 11.2971 22.9002 11.3396H23.0576C23.5437 11.3396 24.1223 11.1367 24.6084 11.1367C25.0759 11.1367 25.3629 11.2924 25.6268 11.2924C25.7842 11.2924 25.9184 11.1792 25.9184 11.0659C25.9184 10.9526 25.7425 10.8865 25.3629 10.8865C24.8306 10.8865 24.5436 11.0234 24.0992 11.0234C23.4326 11.0234 23.3215 10.7732 23.3215 10.66C23.3215 10.5467 23.4326 10.3909 23.789 10.3909C23.9001 10.3909 23.9881 10.3673 24.0344 10.3201C24.0575 10.2729 24.1223 10.1833 24.2566 10.1172C24.4093 10.0228 24.7195 10.1172 24.8769 10.0039C24.8769 10.0983 24.7426 10.2305 24.6315 10.2777C24.8537 10.2069 25.0944 10.2069 25.1407 10.3909C25.0296 10.3201 24.8537 10.3673 24.7889 10.3909C24.6963 10.4098 24.6547 10.4381 24.5667 10.457C24.6547 10.4334 24.701 10.6128 24.8306 10.6128C24.701 10.726 24.4788 10.726 24.2566 10.6364C24.1871 10.6128 24.0112 10.5467 23.9001 10.5467C23.6779 10.5467 23.5437 10.5939 23.5437 10.6836C23.5437 10.7968 23.6826 10.8629 24.076 10.8629C24.4788 10.8629 24.701 10.7496 25.2981 10.7496C25.2518 10.6836 25.3213 10.6128 25.2333 10.5467C25.4555 10.5467 25.6962 10.6128 25.7888 10.7732C25.7657 10.6128 25.8953 10.4806 25.8536 10.3437C25.9879 10.3673 26.099 10.4995 26.1175 10.6128C26.1175 10.5467 26.21 10.5467 26.21 10.4806C26.272 10.5147 26.3221 10.5675 26.3535 10.6317C26.385 10.6958 26.3963 10.7683 26.386 10.8393C26.4508 10.726 26.5202 10.7732 26.5619 10.6364C26.6082 10.7308 26.585 10.9998 26.4276 11.0895C26.5665 10.9951 26.7609 10.9951 26.8952 11.1556C26.7609 11.1367 26.6961 11.2028 26.6313 11.2264C26.3083 11.3947 25.9473 11.4728 25.5851 11.4529C25.2333 11.4293 25.187 11.3585 24.9648 11.3585C25.0991 11.3821 25.3629 11.6559 25.6129 11.6559C25.7657 11.6559 25.8768 11.6559 25.9416 11.6323C26.0064 11.6087 26.1175 11.6323 26.2054 11.6795C26.2749 11.7455 26.4091 11.8116 26.4971 11.7927C26.4739 11.8824 26.4276 11.9249 26.3628 11.9485C26.4739 12.0193 26.4091 12.0618 26.5202 12.1514C26.4739 12.1514 26.4276 12.1986 26.3628 12.175C26.4276 12.2411 26.4276 12.3355 26.4971 12.378C26.4739 12.378 26.4045 12.4016 26.3628 12.378C26.4276 12.4724 26.3628 12.581 26.4276 12.6282C26.4971 12.7225 26.3628 12.8311 26.2517 12.7414C26.2749 12.8075 26.2054 12.8783 26.1406 12.8547C26.0758 12.8311 26.0295 12.7603 26.048 12.7414C26.048 12.7178 26.048 12.7178 26.0758 12.6942C26.0295 12.765 25.9416 12.765 25.8953 12.7414C25.8768 12.7178 25.849 12.6942 25.849 12.6754C25.6962 12.7225 25.6314 12.581 25.6546 12.5149C25.6731 12.4488 25.8073 12.4205 25.8536 12.4488C25.8999 12.4677 25.9416 12.496 25.9879 12.4488C26.0341 12.4252 26.0527 12.378 26.0527 12.3355C26.0527 12.2647 25.9879 12.0618 25.6962 12.0854C25.3629 12.109 24.8306 12.0193 24.5667 11.9249C24.5436 11.906 24.5204 11.906 24.4973 11.8777C24.4973 11.9721 24.4093 12.0193 24.4093 12.109C24.4093 12.2222 24.4556 12.3119 24.5899 12.3544C24.5204 12.4677 24.4093 12.4488 24.3677 12.378C24.3677 12.4488 24.2751 12.4913 24.2751 12.581C24.2566 12.5338 24.2288 12.5149 24.2103 12.4677C24.1455 12.6282 23.9649 12.7178 23.877 12.6754C23.7659 12.765 23.6363 12.7414 23.59 12.6518C23.5252 12.6989 23.4326 12.6989 23.3909 12.6518C23.3909 12.7178 23.3446 12.6989 23.3215 12.7886C23.3215 12.8358 23.2335 12.8547 23.1919 12.8358C23.1456 12.8075 23.1224 12.7178 23.1687 12.6754C23.1039 12.7225 23.0345 12.7225 22.9928 12.6754C22.9928 12.6282 22.9928 12.5621 23.0391 12.5338H23.0808C23.0345 12.5149 22.9697 12.5338 22.9234 12.5149C22.8771 12.4677 22.8771 12.4205 22.9002 12.378C22.9234 12.3544 22.9928 12.3119 23.0391 12.3544L23.0576 12.378C23.0576 12.3308 23.0808 12.2883 23.1039 12.2883C23.1502 12.2647 23.2104 12.2647 23.2798 12.3355C23.3261 12.4016 23.3678 12.4016 23.502 12.3827C23.6131 12.3827 23.789 12.2647 23.9186 12.1514C23.5483 12.0854 23.7659 11.8352 23.877 11.7455C23.789 11.7219 23.6548 11.7219 23.5668 11.7691C23.1039 12.0193 22.6132 12.3119 22.3031 12.2222C22.3074 12.2696 22.3233 12.315 22.3494 12.3544C22.2799 12.3544 22.1457 12.3544 22.104 12.2883C22.0809 12.3355 22.0392 12.4488 22.0809 12.5385C22.0346 12.4913 21.905 12.4441 21.8356 12.4252C21.8818 12.4724 21.8356 12.5621 21.8587 12.6282C21.7939 12.5621 21.6828 12.5149 21.6365 12.5621C21.5902 12.6093 21.5023 12.6282 21.4374 12.6093C21.3943 12.6715 21.3326 12.7178 21.2615 12.7414C21.2615 12.6942 21.2615 12.6282 21.2384 12.6046C21.2152 12.6754 21.1458 12.765 21.0625 12.8075C21.0625 12.7603 21.0625 12.6942 21.0393 12.6518C21.0393 12.7414 20.8634 12.7886 20.8403 12.8547C20.8634 12.7886 20.8634 12.7178 20.8634 12.6754C20.8389 12.7155 20.8065 12.75 20.7682 12.7768C20.73 12.8036 20.6868 12.8221 20.6412 12.8311C20.6598 12.7839 20.6875 12.7367 20.6598 12.6942C20.6412 12.7886 20.507 12.8358 20.3959 12.8075C20.3959 12.8547 20.3033 12.9208 20.1968 12.8547C20.1274 12.8311 20.0857 12.7603 20.1274 12.7178C20.0395 12.7178 19.9515 12.6282 19.9978 12.5621C19.9978 12.5385 20.0163 12.5149 20.0163 12.4913C19.9515 12.4441 19.9284 12.3544 19.9978 12.2883C20.0163 12.2647 20.0857 12.2647 20.1274 12.2647C20.1274 12.0854 20.2848 12.0854 20.3496 12.2175C20.3959 12.2883 20.5301 12.4016 20.6412 12.378C20.6875 12.378 20.706 12.3544 20.7523 12.3544C20.9515 12.2873 21.1389 12.1885 21.3078 12.0618C21.3263 11.9957 21.3263 11.9485 21.3263 11.906C21.2384 11.9532 21.1504 11.9957 21.1042 12.0618V11.9957C21.0393 11.9957 20.9282 11.9721 20.882 11.9721C20.9051 11.9485 20.9282 11.8352 20.9745 11.8116C20.8634 11.8352 20.7523 11.8116 20.6598 11.7927C20.706 11.7455 20.706 11.6795 20.7292 11.6087C20.6829 11.6323 20.5718 11.5898 20.4839 11.6087C20.507 11.5426 20.5301 11.4529 20.595 11.4293C20.5024 11.4529 20.3959 11.4293 20.2848 11.3821C20.3774 11.3821 20.419 11.2688 20.4839 11.2688C20.3079 11.2688 20.2617 11.1792 20.1737 11.1367C20.2385 11.1556 20.2848 11.0895 20.3496 11.0895C20.2848 11.0659 20.1737 10.9526 20.22 10.8865C20.1968 10.9101 20.1737 10.9526 20.1274 10.9809C20.0811 10.9998 19.9978 10.9809 19.9284 10.9101C19.8821 10.8157 19.9052 10.7072 19.9978 10.6836C19.9775 10.6822 19.958 10.675 19.9416 10.6627C19.9252 10.6504 19.9126 10.6336 19.9053 10.6142C19.898 10.5948 19.8962 10.5737 19.9003 10.5534C19.9044 10.5331 19.9142 10.5144 19.9284 10.4995C19.9515 10.4523 20.0395 10.3909 20.0858 10.4523L20.1506 10.5467C20.1274 10.4995 20.1274 10.4098 20.1274 10.3437C20.1506 10.2777 20.1968 10.2777 20.2663 10.2493C20.3265 10.2493 20.3728 10.3201 20.3728 10.3909C20.3728 10.457 20.3959 10.4995 20.419 10.5939L20.4376 10.4995C20.4376 10.4098 20.5487 10.4334 20.6181 10.4523C20.6829 10.4806 20.7061 10.6128 20.6181 10.6836C20.5718 10.7308 20.595 10.7968 20.6412 10.8393C20.794 11.0895 21.0579 11.2924 21.2847 11.316C21.2847 11.2216 21.331 11.1367 21.3958 11.0659C21.3958 11.0187 21.4143 10.9526 21.4421 10.9101C21.4606 10.7732 21.5254 10.7072 21.6134 10.7496C21.5948 10.726 21.5671 10.7024 21.5671 10.6836C21.5023 10.6128 21.4374 10.4995 21.4837 10.4098C21.53 10.3201 21.6596 10.3437 21.7059 10.3909C21.6828 10.2493 21.8356 10.1408 21.8356 10.07C21.8587 10.1408 21.905 10.2305 21.8818 10.2965C21.905 10.2069 22.0577 10.0936 22.1688 10.0511C22.1226 10.1172 22.2614 10.2305 22.2383 10.2965C22.2846 10.1833 22.4605 10.1172 22.5901 10.1172C22.5438 10.1644 22.5438 10.2541 22.5438 10.2965C22.6132 10.2965 22.729 10.2777 22.7706 10.2069C22.7706 10.3013 22.7243 10.3909 22.678 10.4334C22.7012 10.4098 22.7891 10.4098 22.8586 10.4098C22.7891 10.4806 22.8123 10.5514 22.7475 10.5939C22.8354 10.5467 22.9465 10.5467 22.9697 10.6411C23.016 10.7072 22.9465 10.8204 22.9002 10.8865C22.854 10.9101 22.8123 10.9526 22.7891 10.9526V10.9526Z" fill="#F9D050" stroke="black" stroke-width="0.152488"/>
<path d="M21.4189 11.2266C21.2615 11.2926 21.2152 11.4531 21.1921 11.5428" stroke="black" stroke-width="0.152488"/>
<path d="M21.3958 11.3818C21.1736 11.5234 21.081 11.632 21.1273 11.8821M21.5023 12.0662C21.6411 12.019 21.7245 11.9718 21.8356 11.7689" stroke="black" stroke-width="0.152488"/>
<path d="M21.7707 11.8584C21.7244 11.9528 21.7707 12.1086 21.7059 12.1746C21.7655 12.1444 21.8169 12.0998 21.8556 12.0447C21.8943 11.9896 21.9192 11.9256 21.9281 11.8584" stroke="black" stroke-width="0.152488"/>
<path d="M21.817 12.1084C21.905 12.0612 22.0392 11.9243 22.104 11.7685C22.0809 11.8346 22.104 11.9479 22.0577 12.0187C22.1688 11.9054 22.2151 11.8346 22.2383 11.7213L22.2568 11.8157C22.3031 11.7685 22.3494 11.7213 22.3494 11.6317M22.3448 11.6977V11.811C22.4373 11.7449 22.4605 11.6553 22.4605 11.542" stroke="black" stroke-width="0.152488"/>
<path d="M22.4373 11.6793C22.5716 11.5849 22.5901 11.4528 22.5901 11.2498M22.5901 11.4764C22.6827 11.4056 22.7012 11.3631 22.7012 11.1554M22.4142 10.5465C22.3679 10.5465 22.3216 10.5701 22.3216 10.6409C22.3216 10.6834 22.2568 10.7495 22.2568 10.8203C22.2383 10.91 22.192 10.9336 22.1272 10.91C22.0577 10.8628 22.0577 10.8628 22.0577 10.7967C22.0577 10.7023 22.1688 10.6834 22.1688 10.5937C22.192 10.5465 22.2151 10.4805 22.2383 10.4805C22.1272 10.5465 21.9698 10.4993 21.9466 10.3672" stroke="black" stroke-width="0.152488"/>
<path d="M22.6132 10.6126C22.5669 10.6362 22.5207 10.5654 22.4605 10.5937C22.4373 10.5937 22.3679 10.6126 22.3494 10.5937" stroke="black" stroke-width="0.152488"/>
<path d="M22.3031 10.7262C22.3262 10.7498 22.4373 10.797 22.5484 10.7498C22.4558 10.7734 22.391 10.6601 22.479 10.5941M22.104 10.4997C22.0115 10.4997 21.9466 10.5705 21.9698 10.6413C21.9929 10.7073 22.0809 10.7073 22.1457 10.6601M21.9466 11.6324C21.9698 11.6088 21.9929 11.5664 21.9929 11.538C22.0392 11.538 22.0855 11.5192 22.104 11.4956C22.192 11.4956 22.2568 11.4295 22.2799 11.3634C22.3262 11.3634 22.3494 11.2501 22.3725 11.2029C22.391 11.2265 22.4373 11.2029 22.4605 11.1085C22.5068 11.1369 22.5716 11.1085 22.5901 11.0425M21.6828 10.8867C21.6828 10.9103 21.6365 10.9528 21.5902 10.9811C21.6134 11.0236 21.5902 11.1369 21.5485 11.1557C21.5717 11.2029 21.5485 11.269 21.5254 11.3162C21.5254 11.3398 21.5485 11.4106 21.5485 11.4295M21.7707 10.4336C21.7244 10.5469 21.7476 10.6837 21.8355 10.7073" stroke="black" stroke-width="0.152488"/>
<path d="M21.817 10.7921C21.7939 10.9101 21.7939 11.0659 21.7707 11.1367C21.7476 11.1839 21.7059 11.3396 21.8818 11.3821C22.0809 11.4293 22.192 11.4057 22.3031 11.0659M22.6364 11.9485C22.6364 11.9721 22.6132 12.0193 22.5716 12.0193M22.7891 11.906C22.7891 11.9532 22.7429 12.0193 22.7243 12.0382M22.9465 11.8588C22.9465 11.906 22.9465 11.9721 22.9002 11.9957M21.5948 10.457C21.6134 10.457 21.6411 10.5042 21.6596 10.5467C21.5948 10.4995 21.5254 10.6128 21.5671 10.6836M21.5254 10.8393L21.4374 10.9101M21.4606 11.0423C21.4374 11.0423 21.4143 11.0659 21.3958 11.0659M20.3959 10.6364C20.3959 10.6128 20.3959 10.6128 20.419 10.5892M20.1968 10.5703C20.1737 10.5703 20.1737 10.5703 20.1506 10.5467M20.2154 10.8865H20.2617M20.1274 10.7497C20.0923 10.7141 20.0468 10.6909 19.9978 10.6836M21.3495 11.5898C21.1921 11.722 21.1273 11.8352 21.1042 11.9957M21.5023 11.6984C21.4629 11.7824 21.4022 11.8541 21.3263 11.906M20.6412 12.378C20.5671 12.4024 20.4886 12.4091 20.4115 12.3976C20.3345 12.3862 20.261 12.3569 20.1968 12.3119C20.1737 12.2883 20.1506 12.2883 20.1274 12.2647M21.3032 12.0665C21.2847 12.1515 21.2569 12.2647 21.2152 12.2883C21.3958 12.1939 21.5485 12.0618 21.5717 11.8588M20.0163 12.4913C20.0857 12.4677 20.1552 12.5149 20.1968 12.4677M23.877 11.7456C23.9233 11.7692 23.9881 11.7928 24.0112 11.8116C24.0344 11.7644 24.1223 11.6984 24.1871 11.6795M22.3031 12.2223C22.2799 12.1279 22.3262 12.0193 22.4605 11.9721M21.4374 12.6046C21.4606 12.5574 21.4606 12.4913 21.4837 12.4488M20.4607 12.6754C20.4376 12.7226 20.3959 12.765 20.3959 12.8075M20.1274 12.7178C20.1274 12.7178 20.1274 12.6942 20.1506 12.6942C20.1968 12.6754 20.2617 12.6282 20.2848 12.581M23.1456 12.4016C23.0993 12.4252 23.0808 12.4016 23.0576 12.378M23.1224 12.5149C23.1224 12.5149 23.1039 12.5385 23.0761 12.5385M23.2335 12.6282C23.2104 12.6518 23.1872 12.6754 23.1687 12.6754M23.877 12.6754C23.9233 12.6518 23.9464 12.6046 23.9696 12.5149M23.59 12.6518C23.6548 12.6282 23.7011 12.581 23.7659 12.5149M24.2103 12.4677C24.2103 12.4205 24.2103 12.378 24.2334 12.3355M25.8536 12.6754C25.8073 12.6282 25.8073 12.5621 25.8768 12.5149C25.923 12.4913 25.9416 12.4677 25.9879 12.4488" stroke="black" stroke-width="0.152488"/>
<path d="M24.4973 11.8777C24.1455 11.722 24.1686 11.519 23.877 11.5426M26.0758 12.5857C26.099 12.6046 26.0758 12.6754 26.0758 12.6942M26.2749 12.5857C26.2517 12.6518 26.2517 12.6754 26.2517 12.7414M24.5667 10.457H24.3816M22.7012 11.2264C22.7012 11.2736 22.7706 11.3632 22.9465 11.3632C22.9234 11.3632 22.9002 11.3396 22.9002 11.3396M22.7891 10.9526C22.7706 10.9762 22.7429 10.9526 22.7429 10.9526C22.7012 10.9054 22.7706 10.8205 22.8354 10.7733C22.7706 10.7969 22.7243 10.7969 22.678 10.7969C22.6318 10.9337 22.5021 10.9998 22.4142 10.9101C22.391 10.9998 22.2799 11.1131 22.192 11.0895C22.0994 11.0423 22.0809 10.9762 22.0994 10.9101C21.9929 11.0423 21.8587 10.9573 21.817 10.9101C21.7939 10.8629 21.817 10.7497 21.8633 10.6128" stroke="black" stroke-width="0.152488"/>
<path d="M24.2103 11.8115C24.1455 11.8587 24.076 11.8115 24.0112 11.8823C23.9649 11.9295 24.0344 11.9484 24.076 11.9484C24.0575 12.0192 24.0575 12.0428 24.1686 12.0428C24.1223 12.1089 24.2566 12.1325 24.2334 12.2222C24.2613 12.1927 24.2804 12.1558 24.2886 12.1157C24.2968 12.0756 24.2937 12.034 24.2797 11.9956C24.2566 11.9248 24.1408 11.8823 24.2103 11.8115Z" fill="black"/>
<path d="M22.192 11.0892C22.0994 11.042 22.0809 10.9759 22.0994 10.9098C22.0809 10.957 22.0392 10.9759 21.9929 10.9759C21.9004 11.1788 21.7939 11.3629 21.6596 11.3629C21.5023 11.3818 21.5254 11.5423 21.6365 11.5423C21.8818 11.5895 21.9929 11.4951 22.192 11.0892V11.0892ZM19.9978 10.5464C20.0626 10.4803 20.0163 10.4095 19.9746 10.3906C19.9052 10.367 19.7756 10.3906 19.7062 10.4992C19.7756 10.4803 19.845 10.4803 19.8636 10.5228C19.8867 10.57 19.9284 10.6172 19.9978 10.5464ZM20.1089 10.1405C20.2617 10.1405 20.3079 10.1641 20.3265 10.2301C20.3496 10.2773 20.3079 10.3434 20.2617 10.3434C20.1968 10.3434 20.1274 10.2962 20.1506 10.2773C20.1737 10.2301 20.1737 10.1641 20.1043 10.1357L20.1089 10.1405ZM20.5487 10.4992C20.6598 10.5228 20.706 10.452 20.6412 10.367C20.6181 10.2962 20.5487 10.2537 20.4376 10.2726C20.5487 10.3434 20.4376 10.4567 20.5487 10.4992ZM19.7293 10.8862C19.7492 10.9264 19.7826 10.9579 19.8233 10.9752C19.864 10.9925 19.9095 10.9944 19.9515 10.9806C20.0163 10.9523 20.0441 10.8862 20.0163 10.839C19.97 10.7729 19.9052 10.7493 19.8867 10.839C19.8404 10.9334 19.7756 10.9098 19.7293 10.8862ZM20.0626 12.2644C20.0163 12.1747 19.8867 12.1747 19.7756 12.2644C19.8219 12.2408 19.9052 12.2644 19.9284 12.3116C19.9515 12.3588 19.9978 12.3588 20.0209 12.3588C20.0395 12.3352 20.0857 12.3116 20.0626 12.2644V12.2644ZM20.2385 12.1322C20.2385 12.019 20.0857 11.9906 19.9978 12.0378C20.0441 12.0378 20.1089 12.085 20.1089 12.1322C20.1274 12.1794 20.1737 12.1983 20.1968 12.1983C20.2431 12.1747 20.2617 12.1511 20.2431 12.1322H20.2385ZM20.0163 12.5382C19.8867 12.5146 19.8173 12.675 19.8173 12.7836C19.8404 12.7175 19.9098 12.675 19.9746 12.6939C20.0395 12.6939 20.0626 12.675 20.0626 12.6278C20.0857 12.5806 20.0626 12.5618 20.0163 12.5334V12.5382ZM20.0395 12.9205C20.0857 12.9441 20.132 12.8969 20.1506 12.8308C20.1506 12.7836 20.2431 12.7836 20.2617 12.8072C20.3079 12.8308 20.3079 12.9205 20.2385 12.9677C20.1922 12.9913 20.0857 13.0149 20.0395 12.9205ZM23.1224 12.2408C23.0761 12.2219 22.9697 12.1747 22.8817 12.2408C22.9465 12.2219 22.9928 12.2644 23.0113 12.3116C23.0113 12.3588 23.0808 12.3777 23.1039 12.3352C23.1224 12.3116 23.1502 12.2644 23.1224 12.2408V12.2408ZM22.9234 12.4013C22.8354 12.3541 22.7243 12.4674 22.7012 12.5618C22.7464 12.5241 22.8008 12.4997 22.8586 12.491C22.9049 12.5146 22.9465 12.491 22.9465 12.4438C22.9697 12.4249 22.9697 12.4013 22.9234 12.4013ZM23.0391 12.5854C22.9697 12.5854 22.8817 12.675 22.8817 12.7647C22.9002 12.7175 22.9465 12.6939 22.9928 12.7175C23.0391 12.7175 23.1039 12.6939 23.1039 12.6514C23.1039 12.6042 23.0808 12.5806 23.0345 12.5806L23.0391 12.5854ZM23.2335 12.7647C23.1872 12.7411 23.1224 12.7647 23.1224 12.8308C23.1224 12.8969 23.1224 12.9677 23.1039 12.9913C23.1502 12.9441 23.1919 12.9205 23.2335 12.8969C23.2567 12.878 23.2798 12.8072 23.2335 12.7647V12.7647ZM25.7425 12.5618C25.6962 12.5146 25.6314 12.5382 25.6083 12.5806C25.5851 12.6278 25.562 12.7411 25.6083 12.8308C25.6083 12.7836 25.6546 12.7175 25.7008 12.7175C25.7657 12.6939 25.7842 12.6042 25.7425 12.5618ZM25.8768 12.6514C25.7842 12.6986 25.7842 12.8544 25.8536 12.9441C25.8536 12.8969 25.8768 12.8308 25.9184 12.8072C25.9879 12.8072 26.011 12.7175 25.9879 12.675C25.9416 12.6278 25.8953 12.6514 25.8768 12.6514ZM26.1406 12.7411C26.0943 12.7175 26.048 12.7647 26.048 12.8072C26.0295 12.878 26.0758 12.9677 26.1406 13.0101C26.1406 12.9629 26.1638 12.9205 26.1869 12.8969C26.2517 12.8497 26.2332 12.7647 26.1406 12.7411ZM26.3397 12.7175C26.2934 12.7175 26.2517 12.7836 26.2934 12.8544C26.3165 12.9016 26.3628 12.9205 26.4508 12.9016C26.4276 12.9016 26.386 12.8308 26.4045 12.8072C26.4276 12.76 26.4045 12.7175 26.3397 12.7175Z" fill="#073163"/>
<path d="M20.1737 16.9471L21.2847 13.4639L22.3957 16.9471L19.484 14.7996H23.0854L20.1737 16.9471Z" fill="#F9D050"/>
<path d="M20.3959 16.6304L22.7012 14.9124H19.8636L22.1457 16.6304L21.2847 13.874L20.3959 16.6304Z" fill="#024919"/>
<path d="M20.1737 16.9471L21.2847 13.4639L22.3957 16.9471L19.484 14.7996H23.0854L20.1737 16.9471Z" fill="#F9D050"/>
<path d="M20.3959 16.6304L22.7012 14.9124H19.8636L22.1457 16.6304L21.2847 13.874L20.3959 16.6304Z" fill="#024919"/>
<path d="M20.1737 16.9471L21.2847 13.4639L22.3957 16.9471L19.484 14.7996H23.0854L20.1737 16.9471Z" fill="#F9D050"/>
<path d="M20.3959 16.6304L22.7012 14.9124H19.8636L22.1457 16.6304L21.2847 13.874L20.3959 16.6304Z" fill="#024919"/>
<path d="M27.5155 9.84847V14.2568C27.5155 18.0799 25.7425 19.392 23.3678 20.4304C20.9931 19.392 19.2016 18.0799 19.2016 14.2568V9.84375H27.5155V9.84847Z" stroke="black" stroke-width="0.152488"/>
</g>
</g>
<defs>
<clipPath id="clip0_1_12599">
<rect width="34" height="26" fill="white" transform="translate(-2)"/>
</clipPath>
</defs>
</svg>
