<svg width="26" height="26" viewBox="0 0 26 26" fill="none" xmlns="http://www.w3.org/2000/svg">
<mask id="mask0_1_11412" style="mask-type:alpha" maskUnits="userSpaceOnUse" x="0" y="0" width="26" height="26">
<circle cx="13" cy="13" r="13" fill="#634848"/>
</mask>
<g mask="url(#mask0_1_11412)">
<path fill-rule="evenodd" clip-rule="evenodd" d="M15 17.4001C17.3669 17.4001 19.2857 15.4302 19.2857 13.0001C19.2857 10.57 17.3669 8.6001 15 8.6001C12.6331 8.6001 10.7143 10.57 10.7143 13.0001C10.7143 15.4302 12.6331 17.4001 15 17.4001Z" fill="#FFCD4B"/>
<rect width="33" height="26" fill="#30C6E0"/>
<path fill-rule="evenodd" clip-rule="evenodd" d="M13.2516 20.8646L15 18.1851L16.7484 20.8646L17.1912 17.6717L19.8989 19.3069L18.9485 16.2329L22.079 16.5002L19.9237 14.1539L22.8571 13.0002L19.9237 11.8464L22.079 9.50017L18.9485 9.76739L19.8989 6.69339L17.1912 8.32867L16.7484 5.13575L15 7.81519L13.2516 5.13575L12.8088 8.32867L10.1012 6.69339L11.0515 9.76739L7.92096 9.50017L10.0763 11.8464L7.14286 13.0002L10.0763 14.1539L7.92096 16.5002L11.0515 16.2329L10.1012 19.3069L12.8088 17.6717L13.2516 20.8646ZM20 13.0002C20 15.8352 17.7614 18.1335 15 18.1335C12.2386 18.1335 10 15.8352 10 13.0002C10 10.1651 12.2386 7.86683 15 7.86683C17.7614 7.86683 20 10.1651 20 13.0002Z" fill="#FFCD4B"/>
<path fill-rule="evenodd" clip-rule="evenodd" d="M1.42857 3.80013C1.42857 3.61604 1.57781 3.4668 1.76191 3.4668H2.52381C2.70791 3.4668 2.85715 3.61604 2.85715 3.80013V4.60013C2.85715 4.78423 2.70791 4.93346 2.52381 4.93346H1.76191C1.57781 4.93346 1.42857 4.78423 1.42857 4.60013V3.80013ZM1.42857 6.73347C1.42857 6.54937 1.57781 6.40013 1.76191 6.40013H2.52381C2.70791 6.40013 2.85715 6.54937 2.85715 6.73347V7.53347C2.85715 7.71756 2.70791 7.8668 2.52381 7.8668H1.76191C1.57781 7.8668 1.42857 7.71756 1.42857 7.53347V6.73347ZM1.76191 9.33345C1.57781 9.33345 1.42857 9.48269 1.42857 9.66678V10.4668C1.42857 10.6509 1.57781 10.8001 1.76191 10.8001H2.52381C2.70791 10.8001 2.85715 10.6509 2.85715 10.4668V9.66678C2.85715 9.48269 2.70791 9.33345 2.52381 9.33345H1.76191ZM1.42857 12.6001C1.42857 12.416 1.57781 12.2668 1.76191 12.2668H2.52381C2.70791 12.2668 2.85715 12.416 2.85715 12.6001V13.4001C2.85715 13.5842 2.70791 13.7335 2.52381 13.7335H1.76191C1.57781 13.7335 1.42857 13.5842 1.42857 13.4001V12.6001ZM1.76191 15.2001C1.57781 15.2001 1.42857 15.3494 1.42857 15.5335V16.3335C1.42857 16.5176 1.57781 16.6668 1.76191 16.6668H2.52381C2.70791 16.6668 2.85715 16.5176 2.85715 16.3335V15.5335C2.85715 15.3494 2.70791 15.2001 2.52381 15.2001H1.76191ZM1.42857 18.4668C1.42857 18.2827 1.57781 18.1335 1.76191 18.1335H2.52381C2.70791 18.1335 2.85715 18.2827 2.85715 18.4668V19.2668C2.85715 19.4509 2.70791 19.6001 2.52381 19.6001H1.76191C1.57781 19.6001 1.42857 19.4509 1.42857 19.2668V18.4668ZM1.76191 21.0668C1.57781 21.0668 1.42857 21.216 1.42857 21.4001V22.2001C1.42857 22.3842 1.57781 22.5335 1.76191 22.5335H2.52381C2.70791 22.5335 2.85715 22.3842 2.85715 22.2001V21.4001C2.85715 21.216 2.70791 21.0668 2.52381 21.0668H1.76191ZM2.85715 19.9335C2.85715 19.7494 3.00639 19.6001 3.19048 19.6001H3.95238C4.13648 19.6001 4.28572 19.7494 4.28572 19.9335V20.7335C4.28572 20.9176 4.13648 21.0668 3.95238 21.0668H3.19048C3.00639 21.0668 2.85715 20.9176 2.85715 20.7335V19.9335ZM3.19048 16.6668C3.00639 16.6668 2.85715 16.816 2.85715 17.0001V17.8001C2.85715 17.9842 3.00639 18.1335 3.19048 18.1335H3.95238C4.13648 18.1335 4.28572 17.9842 4.28572 17.8001V17.0001C4.28572 16.816 4.13648 16.6668 3.95238 16.6668H3.19048ZM2.85715 14.0668C2.85715 13.8827 3.00639 13.7335 3.19048 13.7335H3.95238C4.13648 13.7335 4.28572 13.8827 4.28572 14.0668V14.8668C4.28572 15.0509 4.13648 15.2001 3.95238 15.2001H3.19048C3.00639 15.2001 2.85715 15.0509 2.85715 14.8668V14.0668ZM3.19048 10.8001C3.00639 10.8001 2.85715 10.9494 2.85715 11.1335V11.9335C2.85715 12.1176 3.00639 12.2668 3.19048 12.2668H3.95238C4.13648 12.2668 4.28572 12.1176 4.28572 11.9335V11.1335C4.28572 10.9494 4.13648 10.8001 3.95238 10.8001H3.19048ZM2.85715 8.20013C2.85715 8.01604 3.00639 7.8668 3.19048 7.8668H3.95238C4.13648 7.8668 4.28572 8.01604 4.28572 8.20013V9.00013C4.28572 9.18423 4.13648 9.33347 3.95238 9.33347H3.19048C3.00639 9.33347 2.85715 9.18423 2.85715 9.00013V8.20013ZM3.19048 4.93347C3.00639 4.93347 2.85715 5.0827 2.85715 5.2668V6.0668C2.85715 6.25089 3.00639 6.40013 3.19048 6.40013H3.95238C4.13648 6.40013 4.28572 6.25089 4.28572 6.0668V5.2668C4.28572 5.0827 4.13648 4.93347 3.95238 4.93347H3.19048Z" fill="#FFCD4B"/>
<circle cx="15" cy="13" r="4" fill="#FFCD4B"/>
</g>
</svg>
