<svg width="26" height="26" viewBox="0 0 26 26" fill="none" xmlns="http://www.w3.org/2000/svg">
<mask id="mask0_1_11334" style="mask-type:alpha" maskUnits="userSpaceOnUse" x="0" y="0" width="26" height="26">
<circle cx="13" cy="13" r="13" fill="#634848"/>
</mask>
<g mask="url(#mask0_1_11334)">
<mask id="mask1_1_11334" style="mask-type:alpha" maskUnits="userSpaceOnUse" x="-5" y="-1" width="36" height="28">
<rect x="-5" y="-0.5" width="36" height="27" fill="white"/>
</mask>
<g mask="url(#mask1_1_11334)">
<path fill-rule="evenodd" clip-rule="evenodd" d="M-5 17.5H31V26.5H-5V17.5Z" fill="#E31D1C"/>
<path fill-rule="evenodd" clip-rule="evenodd" d="M-5 8.5H31V17.5H-5V8.5Z" fill="#2E42A5"/>
<path fill-rule="evenodd" clip-rule="evenodd" d="M-5 -0.5H31V8.5H-5V-0.5Z" fill="#E31D1C"/>
<path fill-rule="evenodd" clip-rule="evenodd" d="M13 17.208C15.33 17.208 17.2188 15.3192 17.2188 12.9893C17.2188 10.6593 15.33 8.77051 13 8.77051C10.67 8.77051 8.78125 10.6593 8.78125 12.9893C8.78125 15.3192 10.67 17.208 13 17.208Z" fill="#F7FCFF"/>
</g>
</g>
</svg>
