<svg width="26" height="26" viewBox="0 0 26 26" fill="none" xmlns="http://www.w3.org/2000/svg">
<mask id="mask0_1_11305" style="mask-type:alpha" maskUnits="userSpaceOnUse" x="0" y="0" width="26" height="26">
<circle cx="13" cy="13" r="13" fill="#634848"/>
</mask>
<g mask="url(#mask0_1_11305)">
<mask id="mask1_1_11305" style="mask-type:alpha" maskUnits="userSpaceOnUse" x="-5" y="0" width="36" height="26">
<rect x="-4.33333" width="34.6667" height="26" fill="white"/>
</mask>
<g mask="url(#mask1_1_11305)">
<path fill-rule="evenodd" clip-rule="evenodd" d="M30.3385 0H-4.32812V6.5H30.3385V0ZM30.3385 19.5H-4.32812V26H30.3385V19.5Z" fill="#F50101"/>
<path fill-rule="evenodd" clip-rule="evenodd" d="M-4.33073 6.5H30.3359V19.5H-4.33073V6.5Z" fill="#F7FCFF"/>
<path fill-rule="evenodd" clip-rule="evenodd" d="M18.9692 13.5559C19.05 14.4955 15.5824 13.166 15.5824 13.5423C15.5824 13.9185 19.297 14.579 19.2908 15.4213C19.2846 16.2635 14.8863 15.181 15.8726 15.5597C16.8589 15.9384 18.9766 16.8451 18.7359 17.41C18.2219 18.6163 14.8077 16.5731 14.5237 16.9759C14.0654 17.6256 17.0432 19.1411 17.018 19.2859C16.9694 19.5636 14.9842 18.8494 14.5237 19.4261C14.1509 19.321 13.9786 18.8189 13.8628 18.7523L13.1301 9.30203C13.1301 9.30203 13.788 18.1999 12.9474 18.4558C12.1068 18.7117 9.77174 19.4898 9.7038 19.1012C9.67851 18.9563 12.5154 17.6256 12.0571 16.9759C11.7196 16.4971 8.29605 18.195 8.07762 17.2118C7.10461 16.5104 11.2288 15.9035 11.2288 15.1862C11.2288 14.4688 7.45594 16.0352 7.90728 15.0366C8.35863 14.0381 11.3791 13.6806 11.4354 13.5423C11.5384 13.2893 8.07762 13.936 8.07762 13.5423C8.07762 12.7973 10.1491 12.6507 11.4354 11.9802C11.5114 11.2152 8.31506 12.7334 8.07762 12.1201C7.84018 11.5068 12.163 9.91796 12.0571 9.79419C11.8898 9.59871 8.40591 10.4807 8.98045 10.0176C10.0955 9.1186 12.2721 7.89619 12.7729 7.57012C12.7729 7.57012 12.8332 7.44709 12.8977 7.48884C12.9623 7.44709 13.0333 7.40137 13.0333 7.40137C13.0333 7.40137 13.0333 8.17056 13.0226 7.57012C13.0119 6.96968 18.1247 9.59704 18.1828 10.2631C18.2503 11.0412 15.0236 9.67649 15.0995 10.4416C15.7554 10.8479 17.621 11.6344 18.3918 11.9802C18.7415 12.1371 15.8159 11.6482 15.8777 11.8882C16.0352 12.4999 18.885 12.5759 18.9692 13.5559Z" fill="#52AB0B"/>
</g>
</g>
</svg>
