<svg width="26" height="26" viewBox="0 0 26 26" fill="none" xmlns="http://www.w3.org/2000/svg">
<mask id="mask0_1_11267" style="mask-type:alpha" maskUnits="userSpaceOnUse" x="0" y="0" width="26" height="26">
<circle cx="13" cy="13" r="13" fill="#634848"/>
</mask>
<g mask="url(#mask0_1_11267)">
<mask id="mask1_1_11267" style="mask-type:alpha" maskUnits="userSpaceOnUse" x="-5" y="-1" width="36" height="28">
<rect x="-5" y="-0.5" width="36" height="27" fill="white"/>
</mask>
<g mask="url(#mask1_1_11267)">
<path fill-rule="evenodd" clip-rule="evenodd" d="M-5 -0.5V26.5H31V-0.5H-5Z" fill="#E31D1C"/>
<mask id="mask2_1_11267" style="mask-type:alpha" maskUnits="userSpaceOnUse" x="-5" y="-1" width="36" height="28">
<path fill-rule="evenodd" clip-rule="evenodd" d="M-5 -0.5V26.5H31V-0.5H-5Z" fill="white"/>
</mask>
<g mask="url(#mask2_1_11267)">
<path fill-rule="evenodd" clip-rule="evenodd" d="M-5 -0.5V13H31V-0.5H-5Z" fill="#2E42A5"/>
<path fill-rule="evenodd" clip-rule="evenodd" d="M0.396484 11.9346C0.396484 11.9346 1.75398 12.7795 4.89967 12.7795C8.04537 12.7795 9.71509 11.9346 9.71509 11.9346C9.71509 11.9346 7.24815 10.5005 5.04238 10.5005C2.83661 10.5005 0.396484 11.9346 0.396484 11.9346Z" fill="black"/>
<path d="M0.475255 7.08519L0.259175 7.21092L0.331483 7.33519H0.475255H9.84115H10.0243L10.0795 7.16052L9.84115 7.08519C10.0795 7.16052 10.0796 7.16044 10.0796 7.16035L10.0797 7.16013L10.0798 7.15953L10.0804 7.1577L10.0823 7.15156L10.0889 7.12966C10.0944 7.11089 10.1021 7.08391 10.1113 7.04959C10.1298 6.98099 10.1545 6.88282 10.18 6.76207C10.2309 6.52122 10.286 6.18719 10.3013 5.8168C10.3314 5.09021 10.2107 4.15201 9.514 3.54633C8.80532 2.93026 7.90438 3.02395 7.1161 3.22097C6.84818 3.28793 6.57569 3.37185 6.31954 3.45074C6.19814 3.48813 6.08041 3.52438 5.96858 3.55717C5.6071 3.66314 5.30193 3.73473 5.05449 3.73473C4.80809 3.73473 4.53822 3.6685 4.22542 3.57003C4.12972 3.53991 4.02858 3.50623 3.92364 3.47128C3.69947 3.39663 3.45792 3.31619 3.21475 3.2522C2.4781 3.05833 1.63184 2.98591 0.693258 3.51747C0.206421 3.79319 -0.0708754 4.17609 -0.20225 4.59536C-0.331296 5.00719 -0.315443 5.43966 -0.246187 5.8207C-0.176669 6.20319 -0.0504961 6.54939 0.0567412 6.79797C0.110623 6.92286 0.160374 7.0246 0.19699 7.09571C0.215314 7.1313 0.230396 7.1593 0.241121 7.17879L0.253817 7.20156L0.257464 7.20796L0.258568 7.20988L0.258934 7.21051L0.25907 7.21075C0.259125 7.21084 0.259175 7.21092 0.475255 7.08519Z" fill="#FFD83D" stroke="black" stroke-width="0.5"/>
<path d="M-0.616554 7.29665L-0.5 7.51782C-0.616554 7.29665 -0.616456 7.2966 -0.616351 7.29654L-0.616105 7.29641L-0.615487 7.29609L-0.613743 7.29518L-0.608228 7.29235L-0.589076 7.28275C-0.572697 7.27467 -0.549091 7.2633 -0.518236 7.24912C-0.456525 7.22075 -0.365825 7.18112 -0.245961 7.13403C-0.00622132 7.03985 0.350109 6.91584 0.824392 6.79236C1.77315 6.54536 3.19281 6.30078 5.09403 6.30078C6.99525 6.30078 8.41491 6.54536 9.36367 6.79236C9.83795 6.91584 10.1943 7.03985 10.434 7.13403C10.5539 7.18112 10.6446 7.22075 10.7063 7.24912C10.7372 7.2633 10.7608 7.27467 10.7771 7.28275L10.7963 7.29235L10.8018 7.29518L10.8035 7.29609L10.8042 7.29641L10.8044 7.29654C10.8045 7.2966 10.8046 7.29665 10.6881 7.51782L10.8046 7.29665L10.9993 7.39925L10.9222 7.60539L9.58921 11.1698L9.50662 11.3906L-0.616554 7.29665ZM-0.616554 7.29665L-0.809516 7.39834L-0.734929 7.60331L0.562155 11.1677L0.642662 11.3889L0.868286 11.3219L0.868295 11.3219L0.868326 11.3219L0.868459 11.3218L0.869371 11.3216L0.873505 11.3203L0.890845 11.3153C0.906373 11.3108 0.929745 11.3042 0.960444 11.2957C1.02185 11.2787 1.11253 11.2542 1.22835 11.2247C1.46005 11.1657 1.79196 11.0869 2.19102 11.0081C2.99071 10.8501 4.0528 10.6935 5.11534 10.6935C6.17765 10.6935 7.21982 10.8501 7.99923 11.0079C8.38821 11.0866 8.71008 11.1653 8.9342 11.2242C9.04622 11.2536 9.13373 11.2781 9.19288 11.2951C9.22246 11.3036 9.24494 11.3102 9.25984 11.3146L9.27645 11.3196L9.28038 11.3208L9.28123 11.3211L9.28133 11.3211L9.28138 11.3211L-0.616554 7.29665Z" fill="#FFD83D" stroke="black" stroke-width="0.5"/>
<path d="M4.97603 4.26663C5.58216 4.26663 5.98233 3.67252 5.98233 3.06569C5.98233 2.45886 5.58216 1.86475 4.97603 1.86475C4.3699 1.86475 3.96973 2.45886 3.96973 3.06569C3.96973 3.67252 4.3699 4.26663 4.97603 4.26663Z" fill="#FFD83D" stroke="black" stroke-width="0.5"/>
<mask id="path-10-outside-1_1_11267" maskUnits="userSpaceOnUse" x="3.13086" y="-1.5" width="4" height="5" fill="black">
<rect fill="white" x="3.13086" y="-1.5" width="4" height="5"/>
<path fill-rule="evenodd" clip-rule="evenodd" d="M5.26938 -0.5H4.70215L4.77524 0.539097L4.13086 0.451416V1.16462L4.785 1.07452L4.70215 2.70943H5.26938L5.18546 1.07291L5.83254 1.16462V0.451416L5.19721 0.542613L5.26938 -0.5Z"/>
</mask>
<path fill-rule="evenodd" clip-rule="evenodd" d="M5.26938 -0.5H4.70215L4.77524 0.539097L4.13086 0.451416V1.16462L4.785 1.07452L4.70215 2.70943H5.26938L5.18546 1.07291L5.83254 1.16462V0.451416L5.19721 0.542613L5.26938 -0.5Z" fill="#FFD83D"/>
<path d="M4.70215 -0.5V-1H4.16574L4.20338 -0.464917L4.70215 -0.5ZM5.26938 -0.5L5.76818 -0.465475L5.80518 -1H5.26938V-0.5ZM4.77524 0.539097L4.70782 1.03453L5.31715 1.11744L5.27401 0.504014L4.77524 0.539097ZM4.13086 0.451416L4.19827 -0.0440185L3.63086 -0.121227V0.451416H4.13086ZM4.13086 1.16462H3.63086V1.73822L4.19909 1.65995L4.13086 1.16462ZM4.785 1.07452L5.28436 1.09983L5.31492 0.496807L4.71678 0.579197L4.785 1.07452ZM4.70215 2.70943L4.20279 2.68413L4.17617 3.20943H4.70215V2.70943ZM5.26938 2.70943V3.20943H5.79567L5.76872 2.68383L5.26938 2.70943ZM5.18546 1.07291L5.25562 0.577861L4.65505 0.492743L4.68611 1.09852L5.18546 1.07291ZM5.83254 1.16462L5.76238 1.65968L6.33254 1.74048V1.16462H5.83254ZM5.83254 0.451416H6.33254V-0.12548L5.7615 -0.0435112L5.83254 0.451416ZM5.19721 0.542613L4.6984 0.508088L4.65567 1.12547L5.26825 1.03754L5.19721 0.542613ZM4.70215 0H5.26938V-1H4.70215V0ZM5.27401 0.504014L5.20092 -0.535083L4.20338 -0.464917L4.27647 0.57418L5.27401 0.504014ZM4.06345 0.946851L4.70782 1.03453L4.84265 0.0436624L4.19827 -0.0440185L4.06345 0.946851ZM4.63086 1.16462V0.451416H3.63086V1.16462H4.63086ZM4.71678 0.579197L4.06263 0.6693L4.19909 1.65995L4.85323 1.56984L4.71678 0.579197ZM5.20151 2.73474L5.28436 1.09983L4.28565 1.04921L4.20279 2.68413L5.20151 2.73474ZM5.26938 2.20943H4.70215V3.20943H5.26938V2.20943ZM4.68611 1.09852L4.77003 2.73504L5.76872 2.68383L5.6848 1.04731L4.68611 1.09852ZM5.9027 0.669571L5.25562 0.577861L5.11529 1.56797L5.76238 1.65968L5.9027 0.669571ZM5.33254 0.451416V1.16462H6.33254V0.451416H5.33254ZM5.26825 1.03754L5.90358 0.946343L5.7615 -0.0435112L5.12617 0.0476854L5.26825 1.03754ZM4.77057 -0.534525L4.6984 0.508088L5.69602 0.577137L5.76818 -0.465475L4.77057 -0.534525Z" fill="black" mask="url(#path-10-outside-1_1_11267)"/>
</g>
</g>
</g>
</svg>
