<svg width="26" height="26" viewBox="0 0 26 26" fill="none" xmlns="http://www.w3.org/2000/svg">
<mask id="mask0_1_9954" style="mask-type:alpha" maskUnits="userSpaceOnUse" x="0" y="0" width="26" height="26">
<circle cx="13" cy="13" r="13" fill="#634848"/>
</mask>
<g mask="url(#mask0_1_9954)">
<mask id="mask1_1_9954" style="mask-type:alpha" maskUnits="userSpaceOnUse" x="-5" y="0" width="36" height="26">
<rect x="-4.33333" width="34.6667" height="26" fill="white"/>
</mask>
<g mask="url(#mask1_1_9954)">
<path fill-rule="evenodd" clip-rule="evenodd" d="M-4.33073 0H30.3359V26H-4.33073V0Z" fill="#FECA00"/>
<rect x="-2.16406" y="2.16666" width="6.5" height="21.6667" fill="#1F8A6E"/>
<rect x="4.33594" y="2.16666" width="6.5" height="21.6667" fill="#F56800"/>
<rect x="10.8359" y="2.16666" width="17.3333" height="21.6667" fill="#B01D00"/>
<rect x="8.66927" y="2.16666" width="2.16667" height="21.6667" fill="#E8AA00"/>
<path fill-rule="evenodd" clip-rule="evenodd" d="M14.1936 6.68929C14.1936 6.68929 12.8138 6.68529 12.8138 9.08791V12.6111C12.8138 12.6111 12.1569 12.7282 12.1569 13.1362C12.1569 13.5443 12.2961 13.9013 12.5549 13.9013C12.8138 13.9013 13.0726 15.0983 12.8138 15.0983C12.5549 15.0983 12.2961 15.6119 12.5549 15.6119C12.6169 15.6119 12.664 15.6035 12.6998 15.5971C12.7375 15.5904 12.7627 15.5859 12.7796 15.5957C12.8138 15.6156 12.8138 15.6942 12.8138 15.9317C12.8138 16.3981 12.5549 16.5867 12.5549 16.5867C12.5549 16.5867 12.3112 16.5187 12.3112 16.7932C12.3112 17.0677 12.5549 17.1372 12.5549 17.1372C12.5549 17.1372 12.6945 17.1975 12.4257 17.3275C12.1569 17.4574 12.1569 17.5203 12.1569 17.5203H12.8138L13.1427 18.1221L13.4566 17.5203H14.105C14.105 17.5203 13.7785 17.3114 13.7402 17.2677C13.702 17.2239 13.6557 17.16 13.7402 17.0868C13.7649 17.0655 13.801 17.0491 13.8398 17.0316C13.934 16.9891 14.044 16.9395 14.044 16.7932C14.044 16.5867 13.6301 16.5867 13.6301 16.5867C13.6301 16.5867 13.3776 16.1308 13.4566 15.9317C13.4787 15.876 13.4913 15.8264 13.5022 15.784C13.53 15.6745 13.5459 15.6119 13.6817 15.6119C13.8702 15.6119 13.9784 15.374 13.7402 15.0983C13.7402 15.0983 14.0132 15.3918 13.933 15.7726C13.8528 16.1534 14.0164 16.3259 14.105 16.3259C14.1936 16.3259 14.3346 16.1949 14.3346 16.1949C14.3346 16.1949 15.0707 16.8531 15.3942 16.8531C15.7177 16.8531 16.1815 16.3259 16.1815 16.3259L16.8473 16.6999C16.8473 16.6999 17.3348 17.3827 17.2629 17.8521C17.1911 18.3215 16.9133 18.5831 16.5863 18.5105C16.2593 18.4379 15.7276 18.5868 15.687 18.7893C15.6809 18.82 15.6718 18.8573 15.6618 18.8983C15.6058 19.1281 15.522 19.4721 15.7783 19.3872C16.0803 19.2872 16.1395 19.2105 16.1395 19.2105C16.1395 19.2105 16.0998 19.3872 16.343 19.3872C16.5863 19.3872 16.6566 19.2105 16.6566 19.2105C16.6566 19.2105 16.9088 19.3872 17.0859 19.3872C17.2629 19.3872 17.4613 19.2511 17.4613 19.2511C17.4613 19.2511 17.5918 19.4534 17.8805 19.3872C18.1693 19.3211 18.3875 18.5675 18.1775 18.3987C18.1775 18.3987 18.874 18.2977 19.0528 17.6922C19.0528 17.6922 18.379 17.6823 18.4484 17.2677C18.5179 16.8531 18.8737 16.5867 18.8737 16.5867C18.8737 16.5867 19.8983 16.0907 20.3391 15.9317C20.7799 15.7726 21.5126 15.6119 21.6942 15.6119C21.7681 15.6119 21.8208 15.7844 21.8923 16.0182C21.9966 16.3589 22.1406 16.8297 22.4479 17.0868C22.9661 17.5203 22.6128 18.5105 22.6128 18.5105C22.6128 18.5105 21.4596 18.6267 21.4596 18.9389C21.4596 19.2511 21.4782 19.3872 21.6942 19.3872C21.9101 19.3872 21.9058 19.2105 21.9058 19.2105C21.9058 19.2105 22.0339 19.3872 22.2409 19.3872C22.4479 19.3872 22.6128 19.2105 22.6128 19.2105C22.6128 19.2105 22.6678 19.3872 22.9389 19.3872C23.2101 19.3872 23.2082 19.2105 23.2082 19.2105C23.2082 19.2105 23.257 19.3872 23.496 19.3872C23.735 19.3872 24.2255 19.2105 24.2255 19.2105C24.2255 19.2105 24.3024 19.3872 24.5506 19.3872C24.7988 19.3872 24.8046 19.2105 24.8046 19.2105C24.8046 19.2105 24.9372 19.3872 25.1521 19.3872C25.3671 19.3872 25.4931 19.2105 25.4931 19.2105C25.4931 19.2105 25.8022 19.3872 26.0154 19.3872C26.2286 19.3872 26.152 19.0681 26.0154 18.7893C25.9808 18.7188 25.9408 18.6585 25.9042 18.6035C25.7962 18.4409 25.7185 18.3239 25.9014 18.1221C25.9532 18.065 26.0126 18.0073 26.0721 17.9494L26.0721 17.9494C26.2936 17.7339 26.5164 17.5172 26.3532 17.3275C26.3048 17.2712 26.2481 17.2318 26.191 17.1921C26.0043 17.0624 25.8141 16.9303 25.9014 16.1949C25.9537 15.7546 26.0531 15.3966 26.1454 15.0642C26.2542 14.672 26.3532 14.3154 26.3532 13.9013C26.3532 13.1362 25.9014 12.2614 25.9014 12.2614C25.9014 12.2614 26.5098 11.8368 26.5098 10.9731C26.5098 10.1093 25.1521 10.0151 25.1521 10.0151C25.1521 10.0151 23.8036 10.3623 23.2082 10.1887C23.0738 10.1495 22.9614 10.1214 22.8678 10.0979C22.5467 10.0175 22.4479 9.99274 22.4479 9.77022C22.4479 9.48283 22.0145 10.0151 22.0145 10.0151C22.0145 10.0151 21.6748 9.87878 21.9058 9.59665C22.1367 9.31453 22.2409 9.20392 22.2409 9.20392C22.2409 9.20392 22.0375 8.9719 21.6942 9.08791C21.3509 9.20392 21.2896 9.39617 21.2896 9.39617C21.2896 9.39617 20.8982 8.99551 21.1421 8.70459C21.386 8.41367 21.6942 8.70459 21.6942 8.70459C21.6942 8.70459 22.0447 8.88765 22.073 8.64736C22.1012 8.40708 22.073 8.21546 22.073 8.21546C22.073 8.21546 22.9527 8.46776 22.7041 8.86017C22.4555 9.25259 22.6128 9.39617 22.6128 9.39617C22.6128 9.39617 23.2173 9.43338 23.3266 9.01631C23.3679 8.85857 23.3611 8.7056 23.3309 8.58538C23.5051 8.66743 23.7023 8.76466 23.6472 8.92596C23.5461 9.22229 23.3266 9.59665 23.3266 9.59665C23.3266 9.59665 23.9307 9.56135 24.1107 9.08791C24.2908 8.61447 24.2255 9.20392 24.2255 9.20392C24.2255 9.20392 24.4571 9.19568 24.8046 9.39617C25.1521 9.59665 24.8046 9.08791 24.8046 9.08791C24.8046 9.08791 25.526 9.98232 26.2083 9.87627C26.8905 9.77022 26.8527 9.20392 26.8527 9.20392C26.8527 9.20392 26.6911 8.92596 26.3532 8.92596C26.0154 8.92596 26.2083 9.20392 26.2083 9.20392C26.2083 9.20392 26.5377 9.39154 26.0154 9.20392C25.8641 9.14958 25.6384 8.97417 25.3583 8.75651C24.6714 8.2227 23.6574 7.43477 22.6128 7.55544C21.1421 7.72531 20.629 8.38251 20.629 8.38251V7.83529C20.629 7.83529 20.3818 8.21546 20.1515 8.21546C19.9211 8.21546 19.2813 7.83529 19.2813 7.83529L18.8737 8.21546C18.8737 8.21546 18.7194 7.83529 18.4484 7.83529C18.1775 7.83529 18.1775 8.21546 18.1775 8.21546C18.1775 8.21546 17.8367 8.04786 17.4613 8.04786C17.3075 8.04786 17.1767 7.9917 17.0758 7.9484C16.9305 7.886 16.8473 7.85031 16.8473 8.04786C16.8473 8.08796 16.8483 8.12624 16.8492 8.16265C16.8558 8.4301 16.8599 8.59699 16.4707 8.64736C16.0285 8.70459 15.687 8.70459 15.687 8.70459C15.687 8.70459 15.4224 8.38251 15.2165 8.38251C15.0106 8.38251 14.772 8.63244 14.772 8.86017C14.772 9.08791 15.0388 9.7374 15.2165 9.87627C15.2633 9.91284 15.2546 9.90884 15.2164 9.89126C15.1096 9.84207 14.772 9.68657 14.772 10.0151C14.772 10.2417 14.8286 10.2983 14.8698 10.3397C14.9099 10.3797 14.9356 10.4055 14.8816 10.5576C14.8592 10.6209 14.8284 10.6941 14.7962 10.7705C14.6713 11.0671 14.5261 11.412 14.772 11.412C14.9048 11.412 15.0304 11.3827 15.1198 11.3619C15.2387 11.3342 15.2936 11.3214 15.2165 11.412C15.1857 11.448 15.1443 11.4915 15.1026 11.5353C14.9609 11.6841 14.815 11.8372 15.0674 11.721C15.2001 11.6599 15.3122 11.5713 15.4046 11.4982C15.5397 11.3914 15.6328 11.3177 15.687 11.412C15.7213 11.4715 15.6939 11.5511 15.6703 11.6194C15.6312 11.7329 15.6029 11.8149 15.8874 11.721C15.9872 11.6881 16.0456 11.6624 16.0781 11.6439C16.0794 11.6624 16.0947 11.6881 16.1395 11.721C16.2349 11.7911 16.2167 11.8575 16.2027 11.9083C16.1869 11.9657 16.1766 12.0031 16.343 12.0031C16.5024 12.0031 16.7272 11.8796 16.8604 11.8065C16.9895 11.7356 17.0326 11.7119 16.8473 11.8931C16.7306 12.0073 16.5617 12.0834 16.3742 12.1679C15.9568 12.3559 15.4475 12.5854 15.2165 13.3683C14.9046 14.4251 15.0444 14.6428 15.065 14.6678L14.105 13.6167C14.105 13.6167 14.3346 13.4373 14.3346 13.1362C14.3346 12.8352 13.7402 12.6111 13.7402 12.6111C13.7402 12.6111 13.761 8.8652 13.933 8.04786C14.105 7.23053 14.1936 6.68929 14.1936 6.68929ZM15.0674 14.6704L15.065 14.6678C15.0666 14.6696 15.0674 14.6704 15.0674 14.6704ZM16.108 11.6086C16.0972 11.6086 16.0764 11.6204 16.0781 11.6439C16.1197 11.6203 16.1189 11.6085 16.108 11.6086ZM23.3309 8.58538L23.3181 8.57939C23.1776 8.51328 23.0566 8.4564 23.1031 8.38251C23.1684 8.27864 23.2812 8.38774 23.3309 8.58538ZM23.9625 16.6911C23.9625 16.6911 23.5076 17.1373 23.7964 17.2353C23.884 17.2651 23.9906 17.2817 24.0897 17.2971C24.3173 17.3325 24.5053 17.3618 24.3328 17.5302C24.0853 17.772 23.8758 18.0987 23.8758 18.3963C23.8758 18.6938 23.8829 18.945 23.9625 18.8194C24.0062 18.7505 24.1859 18.6783 24.3794 18.6005C24.5384 18.5366 24.7068 18.469 24.8169 18.3963C25.0248 18.2589 25.0218 18.1103 25.0164 17.8432L25.0164 17.8431C25.0154 17.797 25.0144 17.7473 25.0144 17.6935C25.0144 17.3285 23.9625 16.6911 23.9625 16.6911ZM20.4381 10.7146C20.5441 10.6303 20.5509 9.59017 20.5509 9.59017C20.5509 9.59017 20.9229 9.714 20.9229 9.87649C20.9229 9.97769 20.8948 10.0356 20.8523 10.1229C20.8265 10.1758 20.7955 10.2396 20.7623 10.3303C20.6806 10.5538 20.903 10.6938 21.1096 10.8238C21.1253 10.8337 21.141 10.8436 21.1564 10.8534C21.2965 10.9427 21.3358 10.749 21.3662 10.5994C21.383 10.5165 21.3971 10.4472 21.4241 10.4472C21.4996 10.4472 22.0634 10.575 22.4877 10.7906C22.8579 10.9787 23.2211 10.8864 24.0531 10.6749C24.1747 10.644 24.3062 10.6105 24.4493 10.575C25.5715 10.2966 25.7188 10.7146 25.8338 11.0437C25.9488 11.3728 25.0777 11.8289 24.4493 11.9115C24.1732 11.9478 23.934 11.9363 23.714 11.9256C23.4333 11.9121 23.1837 11.9 22.9283 11.9908C22.5279 12.1332 21.276 12.119 20.7873 12.1135C20.7199 12.1127 20.667 12.1121 20.6329 12.1121C20.4085 12.1121 20.3661 12.0413 20.2809 11.8992C20.2593 11.8631 20.2349 11.8224 20.204 11.777C20.0518 11.5534 20.2365 11.4072 20.3562 11.4072C20.476 11.4072 20.4381 11.1454 20.3562 11.0437C20.2744 10.9421 20.3321 10.7989 20.4381 10.7146Z" fill="#FECA00"/>
<path fill-rule="evenodd" clip-rule="evenodd" d="M11.0262 2.2993V2.69042C11.0262 2.73859 11.0054 2.80428 10.9821 2.87791C10.9083 3.11131 10.8092 3.42454 11.2667 3.51257C11.8685 3.62838 12.3119 3.89155 12.4467 4.14C12.533 4.29923 12.5087 4.03391 12.4801 3.72185V3.72185C12.464 3.54697 12.4467 3.3574 12.4467 3.21965C12.4467 2.83611 12.017 2.08871 11.7126 2.2993C11.4082 2.50989 11.0262 2.2993 11.0262 2.2993ZM11.0262 23.2996V23.6908C11.0262 23.6908 11.4082 23.4802 11.7126 23.6908C12.017 23.9014 12.4467 23.154 12.4467 22.7704C12.4467 22.6327 12.464 22.4431 12.4801 22.2682C12.5087 21.9562 12.533 21.6908 12.4467 21.8501C12.3119 22.0985 11.8685 22.3617 11.2667 22.4775C10.8092 22.5655 10.9083 22.8788 10.9821 23.1122C11.0054 23.1858 11.0262 23.2515 11.0262 23.2996ZM27.992 23.2996V23.6908C27.992 23.6908 27.6101 23.4802 27.3056 23.6908C27.0012 23.9014 26.5716 23.154 26.5716 22.7704C26.5716 22.6327 26.5542 22.4431 26.5381 22.2682C26.5095 21.9562 26.4852 21.6908 26.5716 21.8501C26.7064 22.0985 27.1497 22.3617 27.7516 22.4775C28.2091 22.5655 28.11 22.8788 28.0361 23.1122C28.0128 23.1858 27.992 23.2515 27.992 23.2996ZM27.992 2.69042V2.2993C27.992 2.2993 27.6101 2.50989 27.3056 2.2993C27.0012 2.08871 26.5716 2.83611 26.5716 3.21965C26.5716 3.3574 26.5542 3.54697 26.5381 3.72185C26.5095 4.03391 26.4852 4.29923 26.5716 4.14C26.7064 3.89155 27.1497 3.62838 27.7516 3.51257C28.2091 3.42454 28.11 3.11131 28.0361 2.87791C28.0128 2.80428 27.992 2.73859 27.992 2.69042Z" fill="#FECA00"/>
</g>
</g>
</svg>
