<svg width="26" height="26" viewBox="0 0 26 26" fill="none" xmlns="http://www.w3.org/2000/svg">
<mask id="mask0_1_13606" style="mask-type:alpha" maskUnits="userSpaceOnUse" x="0" y="0" width="26" height="26">
<circle cx="13" cy="13" r="13" fill="#634848"/>
</mask>
<g mask="url(#mask0_1_13606)">
<g clip-path="url(#clip0_1_13606)">
<path d="M0 0H26V26H0V0Z" fill="white"/>
<path d="M0 18.2002H26V26.0002H0V18.2002Z" fill="#009543"/>
<path d="M0 0H26V7.8H0V0Z" fill="#00209F"/>
<path d="M13.0813 8.28223C12.9289 8.28223 12.7867 8.4498 12.7867 8.4498L12.802 10.2018L12.2434 10.7857H12.7004L12.6902 11.7861L10.0395 15.3611L9.64844 15.224L8.96289 16.6865C8.96289 16.6865 10.659 17.7479 13.1168 17.7174C15.8184 17.6818 17.2809 16.6357 17.2809 16.6357L16.575 15.1936L16.2297 15.3459L13.5383 11.7912V10.7553H13.9852L13.3758 10.1814L13.3809 8.43457C13.3809 8.43457 13.2285 8.28223 13.0813 8.28223V8.28223Z" fill="black" stroke="black" stroke-width="0.2125"/>
<path d="M14.0055 12.4818H12.1723C12.1723 12.4818 11.507 11.0803 11.6137 10.0951C11.7254 9.09979 12.2941 8.62752 13.0559 8.62244C13.9496 8.60721 14.4168 9.05916 14.559 10.0596C14.7012 11.0498 14.0055 12.4818 14.0055 12.4818V12.4818Z" stroke="black" stroke-width="1.0625"/>
<path d="M9.87695 15.8232C9.84648 15.8639 9.62305 16.3006 9.62305 16.3006L10.0039 16.2193L9.87695 15.8232V15.8232ZM10.0953 16.392L9.69414 16.524L10.1766 16.7119L10.0953 16.392ZM10.2781 15.8334L10.4762 16.4225L10.9637 16.2803L10.8367 16.001L10.2781 15.8334ZM10.5828 16.6307L10.6539 16.8693L11.3039 17.0318L11.05 16.4834L10.5879 16.6357L10.5828 16.6307ZM11.3039 16.133L11.5324 16.6814L12.025 16.4936L11.8625 16.2498L11.3039 16.133ZM11.6238 16.8795L11.7051 17.0928L12.4668 17.1994L12.1418 16.7018L11.6238 16.8795ZM12.3551 16.2904L12.6344 16.783L13.3453 16.524L13.2641 16.3311L12.35 16.2904H12.3551ZM12.7613 16.9607L12.9137 17.2197L13.7922 17.1893L13.4621 16.7018L12.7613 16.9607ZM13.6906 16.3107L13.9344 16.717L14.493 16.4529L14.3406 16.2346L13.6906 16.3107ZM14.6098 16.6205L14.0512 16.8998L14.2035 17.1436L14.95 17.0217L14.6098 16.6205V16.6205ZM14.7926 16.1939L15.082 16.5494L15.5492 16.1838L15.3918 16.0111L14.7926 16.1939V16.1939ZM15.6508 16.3818L15.1988 16.7221L15.3207 16.9303L15.9402 16.7729L15.6508 16.3818ZM16.2703 15.6709L16.382 15.8334L16.0723 16.2904L15.7523 15.8842L16.2703 15.6709V15.6709ZM16.4785 16.0721L16.6715 16.4529L16.2906 16.5799L16.2602 16.4021L16.4785 16.0721Z" fill="white"/>
</g>
</g>
<defs>
<clipPath id="clip0_1_13606">
<rect width="26" height="26" fill="white"/>
</clipPath>
</defs>
</svg>
