<svg width="26" height="26" viewBox="0 0 26 26" fill="none" xmlns="http://www.w3.org/2000/svg">
<mask id="mask0_1_11086" style="mask-type:alpha" maskUnits="userSpaceOnUse" x="0" y="0" width="26" height="26">
<circle cx="13" cy="13" r="13" fill="#634848"/>
</mask>
<g mask="url(#mask0_1_11086)">
<path fill-rule="evenodd" clip-rule="evenodd" d="M16.9034 -2.74561H26.001V29.7457H16.9034V-2.74561Z" fill="#D9071E"/>
<path fill-rule="evenodd" clip-rule="evenodd" d="M0.00607681 -4.04565H9.10365V31.045H0.00607681V-4.04565Z" fill="#3D58DB"/>
<path fill-rule="evenodd" clip-rule="evenodd" d="M7.80676 -4.04565H18.204V31.045H7.80676V-4.04565Z" fill="#FBCD17"/>
<path fill-rule="evenodd" clip-rule="evenodd" d="M17.653 19.6832L16.7976 20.1505L13.9623 14.961L14.8177 14.4937L17.653 19.6832ZM8.54808 19.8078L9.40348 20.2751L12.2388 15.0856L11.3834 14.6183L8.54808 19.8078Z" fill="#FD1900"/>
<path fill-rule="evenodd" clip-rule="evenodd" d="M9.2469 11.3789V15.8876C9.2469 16.8893 8.38437 18.1947 7.94937 18.6804C7.51436 19.166 6.6504 20.2787 6.6504 20.2787V8.14487C6.6504 6.78383 7.94937 6.3163 7.94937 6.3163C7.94937 6.3163 9.02793 6.52968 9.2469 8.14487V9.71801C9.57815 9.97916 10.696 10.7895 11.4177 10.4485C12.2727 10.0443 12.568 8.88524 12.568 8.88524C12.568 8.88524 12.4881 7.71565 12.1371 7.71565C11.7862 7.71565 11.7582 6.06812 13.1022 6.06812C14.4462 6.06812 14.6029 6.70317 14.6029 7.20941C14.6029 7.47478 14.3901 7.90065 14.1877 8.30592C14.004 8.67378 13.8287 9.02467 13.8287 9.22312C13.8287 9.64022 14.143 10.4485 14.6029 10.4485C14.9249 10.4485 16.4723 9.84748 17.3707 9.48729V8.14487C17.5897 6.52968 18.6683 6.3163 18.6683 6.3163C18.6683 6.3163 19.9672 6.78383 19.9672 8.14487V20.2787C19.9672 20.2787 19.1033 19.166 18.6683 18.6804C18.2333 18.1947 17.3707 16.8893 17.3707 15.8876V11.3789H9.2469ZM10.6878 19.8615C11.5664 19.2895 12.8515 16.7245 12.8515 16.7245L13.2782 16.8236C13.2782 16.8236 13.9297 18.5226 15.8454 19.8615C13.8034 20.4065 13.2782 21.5007 13.2782 21.5007C13.2782 20.6253 10.6878 19.8615 10.6878 19.8615ZM10.5471 18.2381C11.1393 18.2381 11.6194 17.7835 11.6194 17.2227C11.6194 16.6619 11.1393 16.2073 10.5471 16.2073C9.95497 16.2073 9.47493 16.6619 9.47493 17.2227C9.47493 17.7835 9.95497 18.2381 10.5471 18.2381ZM16.8364 17.2227C16.8364 17.7835 16.3564 18.2381 15.7642 18.2381C15.172 18.2381 14.692 17.7835 14.692 17.2227C14.692 16.6619 15.172 16.2073 15.7642 16.2073C16.3564 16.2073 16.8364 16.6619 16.8364 17.2227Z" fill="#A77B3B"/>
<path d="M20.4246 12.2056L21.1702 12.5278L18.1326 19.5556L17.387 19.2334L20.4246 12.2056Z" fill="#FDFF00"/>
<path opacity="0.3" fill-rule="evenodd" clip-rule="evenodd" d="M8.97345 10.1147H17.5512V16.3197C17.5512 16.3197 15.3685 16.9771 13.2623 18.0559C11.7076 16.9026 8.97345 16.3197 8.97345 16.3197V10.1147Z" fill="#E1E5E8"/>
<mask id="mask1_1_11086" style="mask-type:alpha" maskUnits="userSpaceOnUse" x="8" y="10" width="10" height="9">
<path fill-rule="evenodd" clip-rule="evenodd" d="M8.97345 10.1147H17.5512V16.3197C17.5512 16.3197 15.3685 16.9771 13.2623 18.0559C11.7076 16.9026 8.97345 16.3197 8.97345 16.3197V10.1147Z" fill="white"/>
</mask>
<g mask="url(#mask1_1_11086)">
<rect x="8.97345" y="14.176" width="8.57771" height="4.06141" fill="#3D58DB"/>
<rect x="8.97345" y="10.1147" width="8.57771" height="4.06141" fill="#FD1900"/>
<path fill-rule="evenodd" clip-rule="evenodd" d="M12.8306 11.9414L12.1805 11.9952L12.5554 11.4894L12.1558 10.9656L12.8092 11.0498L13.0598 10.4722L13.3382 11.0621L13.9883 11.0083L13.6134 11.514L14.013 12.0378L13.3596 11.9537L13.109 12.5313L12.8306 11.9414Z" fill="#FDFF00"/>
<path fill-rule="evenodd" clip-rule="evenodd" d="M11.6622 10.7957C11.6622 10.7957 9.9159 11.8581 10.498 12.6208C11.0801 13.3835 11.8129 13.4811 11.8129 13.4811C11.8129 13.4811 10.0265 16.1611 13.1706 17.6921C16.5367 16.2141 14.7664 13.4811 14.7664 13.4811C14.7664 13.4811 15.8026 13.2519 16.0101 12.4272C16.2175 11.6026 14.6557 10.6567 14.6557 10.6567C14.6557 10.6567 15.6301 12.0691 15.4077 12.4272C15.1852 12.7853 13.9935 13.1499 13.1706 13.1499C12.3477 13.1499 11.0769 12.9188 10.8719 12.2931C10.6668 11.6674 11.6622 10.7957 11.6622 10.7957Z" fill="#FDFF00"/>
<path fill-rule="evenodd" clip-rule="evenodd" d="M10.0457 13.5L11.1179 14.1769L10.0457 14.8538L8.97345 14.1769L10.0457 13.5Z" fill="#FDFF00"/>
<path fill-rule="evenodd" clip-rule="evenodd" d="M16.4756 13.5L17.5478 14.1769L16.4756 14.8538L15.4034 14.1769L16.4756 13.5Z" fill="#FDFF00"/>
<path fill-rule="evenodd" clip-rule="evenodd" d="M10.0128 16.1801C10.1922 16.1801 10.3377 16.0346 10.3377 15.8552C10.3377 15.6757 10.1922 15.5303 10.0128 15.5303C9.83336 15.5303 9.68789 15.6757 9.68789 15.8552C9.68789 16.0346 9.83336 16.1801 10.0128 16.1801Z" fill="#FDFF00"/>
<path fill-rule="evenodd" clip-rule="evenodd" d="M16.9244 15.5643C16.6455 15.3384 16.218 15.404 15.9696 15.7108C15.7211 16.0176 15.7458 16.4495 16.0247 16.6753C16.1763 16.7981 16.0972 16.3103 16.3267 16C16.5194 15.7394 17.0517 15.6674 16.9244 15.5643Z" fill="#FDFF00"/>
</g>
<path fill-rule="evenodd" clip-rule="evenodd" d="M3.85587 13.1163C3.85587 13.1163 4.71212 14.1286 5.51836 13.7976C6.32461 13.4666 6.12914 12.28 6.12914 12.28L5.51836 12.8341H4.99845V13.1163L4.59239 12.8341V13.1163H3.85587ZM4.43739 14.6719C4.43739 14.6719 5.481 15.5821 6.18411 15.3248C6.88721 15.0676 6.71066 13.8356 6.71066 13.8356L6.09988 14.3897H5.57997V14.6719L5.17391 14.3897V14.6719H4.43739ZM7.24746 16.7381C6.54435 16.9954 5.50075 16.0852 5.50075 16.0852H6.23727V15.803L6.64333 16.0852V15.803H7.16324L7.77401 15.2489C7.77401 15.2489 7.95056 16.4809 7.24746 16.7381Z" fill="#048F02"/>
<path fill-rule="evenodd" clip-rule="evenodd" d="M11.368 5.57788H10.5557V6.06179H10.1736V6.87407H10.5557V8.29108H11.368V6.87407H11.8329V6.06179H11.368V5.57788Z" fill="#FDFF00"/>
<path fill-rule="evenodd" clip-rule="evenodd" d="M12.315 6.50049L10.4336 6.98514L12.315 7.57963V6.50049Z" fill="#DB4400"/>
</g>
</svg>
