<svg width="26" height="26" viewBox="0 0 26 26" fill="none" xmlns="http://www.w3.org/2000/svg">
<mask id="mask0_1_10998" style="mask-type:alpha" maskUnits="userSpaceOnUse" x="0" y="0" width="26" height="26">
<circle cx="13" cy="13" r="13" fill="#634848"/>
</mask>
<g mask="url(#mask0_1_10998)">
<mask id="mask1_1_10998" style="mask-type:alpha" maskUnits="userSpaceOnUse" x="-5" y="0" width="36" height="26">
<rect x="-4.33333" width="34.6667" height="26" fill="white"/>
</mask>
<g mask="url(#mask1_1_10998)">
<path fill-rule="evenodd" clip-rule="evenodd" d="M-4.33073 0H30.3359V26H-4.33073V0Z" fill="#E8AA00"/>
<path fill-rule="evenodd" clip-rule="evenodd" d="M2.16927 4.33325H23.8359V21.6666H2.16927V4.33325Z" fill="#C51918"/>
<mask id="mask2_1_10998" style="mask-type:alpha" maskUnits="userSpaceOnUse" x="0" y="4" width="27" height="18">
<path fill-rule="evenodd" clip-rule="evenodd" d="M0.00260544 4.33325H26.0026V21.6666H0.00260544V4.33325Z" fill="white"/>
</mask>
<g mask="url(#mask2_1_10998)">
<path fill-rule="evenodd" clip-rule="evenodd" d="M17.5884 17.0649C18.0302 17.0649 18.3884 16.6979 18.3884 16.2451C18.3884 15.7923 18.0302 15.4253 17.5884 15.4253C17.1466 15.4253 16.7884 15.7923 16.7884 16.2451C16.7884 16.6979 17.1466 17.0649 17.5884 17.0649Z" fill="#1E5E91"/>
<path fill-rule="evenodd" clip-rule="evenodd" d="M7.18413 13.3606C5.08545 10.9215 8.09332 6.68872 8.09332 6.68872C8.09332 6.68872 8.543 9.21673 10.2074 10.9178C10.2074 11.0386 10.0502 11.2169 9.89109 11.3973C9.77997 11.5233 9.66789 11.6504 9.60772 11.7598C9.46139 12.0257 9.96376 12.1774 10.2074 12.1774C10.3167 12.1774 10.3772 12.3359 10.4317 12.4791C10.4987 12.6548 10.5567 12.8073 10.6857 12.6141C10.9195 12.2637 10.4518 11.4938 10.4518 11.4938L11.1923 10.7127L11.4427 10.2078H11.1923V9.68796L11.0168 9.83205C11.0168 9.83205 10.8243 9.36727 10.4518 9.36727C10.0792 9.36727 9.96376 9.15472 9.96376 9.15472H10.4518C10.6961 9.15472 10.4127 8.83091 10.2074 8.66225C10.1154 8.58665 9.97575 8.61271 9.8497 8.63624C9.69455 8.66521 9.55996 8.69033 9.55996 8.5173C9.55996 8.32764 9.70764 8.30251 9.87826 8.27348C9.98978 8.2545 10.1111 8.23386 10.2074 8.16452C10.3667 8.04984 10.5813 8.0851 10.8137 8.12327C10.9368 8.14349 11.0649 8.16452 11.1923 8.16452H11.7957C12.0135 8.16452 11.4427 8.5173 11.4427 8.5173L11.7957 8.83091L12.3205 9.36727L12.058 9.52305L12.5996 10.0482C12.5996 10.0482 12.4158 10.3472 12.5996 10.3472C12.6757 10.3472 12.7257 10.4098 12.7581 10.4832C12.7906 10.4098 12.8405 10.3472 12.9166 10.3472C13.1005 10.3472 12.9166 10.0482 12.9166 10.0482L13.4583 9.52305L13.1958 9.36727L13.7206 8.83091L14.0736 8.5173C14.0736 8.5173 13.5027 8.16452 13.7206 8.16452H14.324C14.4514 8.16452 14.5795 8.14349 14.7026 8.12327C14.935 8.0851 15.1496 8.04984 15.3089 8.16452C15.4052 8.23386 15.5265 8.2545 15.638 8.27348C15.8086 8.30251 15.9563 8.32764 15.9563 8.5173C15.9563 8.69033 15.8217 8.66521 15.6666 8.63624C15.5405 8.61271 15.4009 8.58665 15.3089 8.66225C15.1036 8.83091 14.8202 9.15472 15.0645 9.15472H15.5525C15.5525 9.15472 15.437 9.36727 15.0645 9.36727C14.692 9.36727 14.4995 9.83205 14.4995 9.83205L14.324 9.68796V10.2078H14.0736L14.324 10.7127L15.0645 11.4938C15.0645 11.4938 14.5967 12.2637 14.8306 12.6141C14.9596 12.8073 15.0176 12.6548 15.0846 12.4791C15.1391 12.3359 15.1995 12.1774 15.3089 12.1774C15.5525 12.1774 16.0549 12.0257 15.9086 11.7598C15.8484 11.6504 15.7363 11.5233 15.6252 11.3973C15.4661 11.2169 15.3089 11.0386 15.3089 10.9178C16.9733 9.21673 17.423 6.68872 17.423 6.68872C17.423 6.68872 20.4308 10.9215 18.3322 13.3606C16.2335 15.7996 14.692 15.0641 14.692 15.0641L15.5525 15.8358L15.3089 16.0466H16.0259L15.7622 16.2229L15.9563 16.3079L16.1618 16.3979C16.1618 16.3979 15.6079 16.8052 16.1618 16.8052C16.2492 16.8052 16.3419 16.8026 16.4372 16.7999C16.5417 16.797 16.6494 16.794 16.7571 16.7943C16.7861 16.7943 16.7212 16.6347 16.657 16.4764C16.5935 16.3202 16.5306 16.1653 16.559 16.1665C16.6188 16.1691 16.7365 16.3111 16.8545 16.4536C16.9486 16.5671 17.0429 16.681 17.1085 16.7249C17.1507 16.7531 17.3156 16.6959 17.4684 16.6428C17.5975 16.5979 17.7181 16.5561 17.7485 16.5714C17.8773 16.6364 17.8443 16.768 17.813 16.8932C17.8049 16.9254 17.797 16.9572 17.7919 16.9873C17.7873 17.0147 17.9522 16.9077 18.1258 16.7951C18.308 16.677 18.4996 16.5526 18.5142 16.5714C18.5173 16.5754 18.5206 16.5794 18.524 16.5835C18.586 16.6581 18.6858 16.7781 17.9491 17.3459C17.9491 17.4551 17.953 17.5441 17.9561 17.6165C17.9663 17.8488 17.9689 17.909 17.8115 17.909C17.7414 17.909 17.6433 17.9438 17.5297 17.984C17.2383 18.0873 16.8448 18.2268 16.559 17.909C16.1618 17.4673 15.5525 16.8052 15.5525 16.8052V17.1306L14.8306 16.3979L14.692 16.8052L13.7206 15.6894L13.4583 15.8358C13.4583 15.8358 14.3524 18.3033 14.8306 18.3205C15.0683 18.329 14.7074 18.5596 14.2294 18.8651C13.7454 19.1744 13.1413 19.5605 12.9166 19.8705C12.8495 19.9631 12.7977 19.8211 12.7581 19.5128C12.7186 19.8211 12.6668 19.9631 12.5996 19.8705C12.3749 19.5605 11.7709 19.1744 11.2869 18.8651C10.8089 18.5596 10.448 18.329 10.6857 18.3205C11.1639 18.3033 12.058 15.8358 12.058 15.8358L11.7957 15.6894L10.8243 16.8052L10.6857 16.3979L9.96376 17.1306V16.8052C9.96376 16.8052 9.35452 17.4673 8.95729 17.909C8.67151 18.2268 8.27799 18.0873 7.98662 17.984C7.873 17.9438 7.7749 17.909 7.70479 17.909C7.45488 17.909 7.37122 17.5593 7.70479 17.1306C7.98569 16.7695 8.57063 16.7858 9.07908 16.7999C9.17442 16.8026 9.26707 16.8052 9.35452 16.8052C9.90837 16.8052 9.35452 16.3979 9.35452 16.3979L9.55996 16.3079L9.75405 16.2229L9.49042 16.0466H10.2074L9.96376 15.8358L10.8243 15.0641C10.8243 15.0641 9.2828 15.7996 7.18413 13.3606Z" fill="#F6C540"/>
<path fill-rule="evenodd" clip-rule="evenodd" d="M9.14098 18.4505L8.19294 16.7884C8.19294 16.7884 6.95342 13.9305 6.95342 13.5835C6.95342 13.2365 6.45443 12.209 6.45443 12.5072C6.45443 12.8055 6.45443 13.5835 6.45443 13.5835L8.54577 18.2949V18.6661H8.82741L9.14098 18.4505Z" fill="#F6C540"/>
<path d="M16.7292 16.2129L16.8734 15.7341L18.6348 16.2648L18.4905 16.7435L16.7292 16.2129Z" fill="#F6C540"/>
<path d="M17.6685 15.3418L18.1448 15.4977L17.6794 16.9906L17.2031 16.8347L17.6685 15.3418Z" fill="#F6C540"/>
<path fill-rule="evenodd" clip-rule="evenodd" d="M18.1034 14.8541L18.001 14.8308L17.9596 14.9948L17.7744 14.9493L17.7513 15.0498L17.9343 15.0947L17.8867 15.2832L17.9891 15.3065L18.0363 15.1198L18.2244 15.166L18.2475 15.0655L18.0615 15.0198L18.1034 14.8541Z" fill="#F6C540"/>
<path fill-rule="evenodd" clip-rule="evenodd" d="M12.6768 5.65796L12.7284 5.83781H12.8855L12.9371 5.65796C13.065 5.69646 13.1813 5.74018 13.2857 5.78891L13.2891 5.75188C14.1253 5.82825 14.5592 6.17826 14.5126 6.79363C14.4741 7.30334 14.216 7.57022 13.7856 7.56303V7.94381C13.7856 7.94381 13.0856 8.21252 12.7356 8.21252C12.3856 8.21252 11.6856 7.94381 11.6856 7.94381V7.55675C11.3308 7.51343 11.119 7.25151 11.0844 6.79363C11.0379 6.17826 11.4718 5.82825 12.3079 5.75188L12.3121 5.79657C12.4206 5.74475 12.5423 5.69847 12.6768 5.65796ZM11.791 7.22122C11.7413 7.23508 11.7064 7.24534 11.6924 7.2495C11.4995 7.21397 11.4054 7.06054 11.3836 6.77172C11.3613 6.47744 11.5012 6.27362 11.831 6.1573C11.6083 6.43937 11.5909 6.79867 11.791 7.22122ZM12.0891 7.14376C12.2663 7.10132 12.4706 7.05938 12.6335 7.04549V5.99449C11.9627 6.22998 11.8013 6.59011 12.0891 7.14376ZM12.9335 7.05612C13.1631 7.08673 13.4412 7.15623 13.6158 7.20354L13.521 7.15119C13.8208 6.58058 13.6466 6.21457 12.9335 5.97847V7.05612ZM13.7896 6.16591C14.0122 6.45477 14.0218 6.82359 13.8053 7.25758C14.0658 7.25925 14.1881 7.10636 14.2134 6.77172C14.2351 6.48458 14.1025 6.28355 13.7896 6.16591Z" fill="#F6C540"/>
<path fill-rule="evenodd" clip-rule="evenodd" d="M12.7374 5.97954C12.9307 5.97954 13.0874 5.82284 13.0874 5.62954C13.0874 5.43624 12.9307 5.27954 12.7374 5.27954C12.5441 5.27954 12.3874 5.43624 12.3874 5.62954C12.3874 5.82284 12.5441 5.97954 12.7374 5.97954Z" fill="#3D58DB"/>
<path fill-rule="evenodd" clip-rule="evenodd" d="M12.7836 4.87317L12.6786 4.87529L12.6781 5.04581L12.4801 5.04652L12.482 5.14963L12.6778 5.14894L12.6772 5.34188L12.7821 5.33976L12.7827 5.14856L12.9691 5.1479L12.9672 5.04478L12.7831 5.04544L12.7836 4.87317Z" fill="#F6C540"/>
<path fill-rule="evenodd" clip-rule="evenodd" d="M10.7844 11.2238C10.7844 11.2238 12.0169 10.9912 12.6844 10.9912C13.2836 10.9912 14.5844 11.2238 14.5844 11.2238C14.5844 12.6972 14.9991 13.5992 14.5844 14.6056C14.1698 15.6119 13.1566 15.1282 12.698 16.0911C12.1119 15.1777 11.3203 15.6805 10.7844 14.3798C10.2485 13.0792 11.1102 12.4801 10.7844 11.2238Z" fill="#1E5E91"/>
<mask id="mask3_1_10998" style="mask-type:alpha" maskUnits="userSpaceOnUse" x="10" y="10" width="5" height="7">
<path fill-rule="evenodd" clip-rule="evenodd" d="M10.7844 11.2238C10.7844 11.2238 12.0169 10.9912 12.6844 10.9912C13.2836 10.9912 14.5844 11.2238 14.5844 11.2238C14.5844 12.6972 14.9991 13.5992 14.5844 14.6056C14.1698 15.6119 13.1566 15.1282 12.698 16.0911C12.1119 15.1777 11.3203 15.6805 10.7844 14.3798C10.2485 13.0792 11.1102 12.4801 10.7844 11.2238Z" fill="white"/>
</mask>
<g mask="url(#mask3_1_10998)">
<rect x="10.7819" y="14.2983" width="3.8" height="1.84459" fill="#5EAA22"/>
<path fill-rule="evenodd" clip-rule="evenodd" d="M11.9025 11.9505C11.7573 11.6419 12.6655 11.606 12.6655 11.606C12.6655 11.606 12.8614 11.9505 12.6655 12.4406C12.5231 12.7971 12.7606 12.7654 13.0884 12.7215C13.2113 12.705 13.3469 12.6869 13.4799 12.6869C13.6836 12.6869 13.7909 12.672 13.8799 12.7054C14.004 12.752 14.0928 12.8927 14.3583 13.2988C14.4788 13.4831 14.4743 13.6049 14.4023 13.6781C14.4097 13.8673 14.2042 14.0241 13.824 14.1245L13.7741 13.926C13.9749 13.873 14.0979 13.8223 14.1549 13.7663C13.8688 13.7843 13.4799 13.6428 13.4799 13.4609C13.4799 13.3744 13.385 13.3216 13.238 13.291V13.3333C13.2405 13.3333 13.2605 13.3136 13.2644 13.3012C13.2653 13.3087 13.268 13.3259 13.2739 13.3516C13.2769 13.3648 13.2879 13.4089 13.2942 13.4341L13.2942 13.4341L13.2942 13.4342L13.2985 13.4516C13.3247 13.559 13.338 13.6434 13.338 13.736C13.338 13.9947 13.1177 14.1467 12.7192 14.2053L12.6908 14.0024C13.0029 13.9565 13.138 13.8633 13.138 13.736C13.138 13.6633 13.127 13.5938 13.1045 13.5012L13.1013 13.4886L13.1013 13.4885L13.1013 13.4884L13.1013 13.4884C13.0953 13.4644 13.0827 13.4142 13.0791 13.3981C13.0698 13.3573 13.0651 13.3267 13.0651 13.2975C13.0651 13.2867 13.0658 13.2764 13.0672 13.2665C12.8126 13.2426 12.4819 13.2557 12.1996 13.2717C12.144 13.7563 11.8936 14.0665 11.4546 14.1833L11.4043 13.985C11.7481 13.8935 11.9437 13.6654 11.9967 13.2839C11.864 13.2921 11.7538 13.2988 11.6849 13.2988C11.4864 13.2988 11.5052 13.1485 11.6013 12.9494C11.2313 12.9205 11.139 12.5101 11.2824 11.789L11.4784 11.8299C11.3516 12.4671 11.4225 12.7461 11.6444 12.7461V12.866C11.6992 12.7653 11.7674 12.6566 11.8337 12.5509C11.8571 12.5136 11.8803 12.4767 11.9025 12.4406C12.0173 12.2546 12.0546 12.2071 12.0457 12.171C12.0363 12.1334 11.9767 12.1081 11.9025 11.9505ZM13.2593 13.3002L13.2592 13.2976C13.2592 13.299 13.2591 13.3005 13.2588 13.3021L13.2593 13.3002ZM14.0805 11.9028C13.5318 11.8157 13.224 11.9 13.224 12.207C13.224 12.4993 13.516 12.626 14.0503 12.624C14.0711 12.6308 14.0893 12.6375 14.105 12.644C14.085 12.6534 14.0606 12.6634 14.032 12.6738L14.0984 12.8671C14.4352 12.7456 14.4352 12.5295 14.0942 12.4234L14.0796 12.4189L14.0644 12.419C13.6203 12.4227 13.424 12.3394 13.424 12.207C13.424 12.0866 13.6103 12.0356 14.0499 12.1054L14.0805 11.9028Z" fill="#F6C540"/>
</g>
</g>
</g>
</g>
</svg>
