<svg width="26" height="26" viewBox="0 0 26 26" fill="none" xmlns="http://www.w3.org/2000/svg">
<mask id="mask0_1_13663" style="mask-type:alpha" maskUnits="userSpaceOnUse" x="0" y="0" width="26" height="26">
<circle cx="13" cy="13" r="13" fill="#634848"/>
</mask>
<g mask="url(#mask0_1_13663)">
<g clip-path="url(#clip0_1_13663)">
<path fill-rule="evenodd" clip-rule="evenodd" d="M0 0H25.9949V26H0V0Z" fill="#3B5AA3"/>
<path fill-rule="evenodd" clip-rule="evenodd" d="M7.05859 0.0610352L6.78945 4.52979L5.61133 1.68096L6.06836 4.7126L4.24531 2.26494L5.43867 5.05791L3.05195 3.20439L4.91055 5.53525L2.20898 4.33682L4.57539 6.12939L1.63008 5.73838L4.41797 6.84033L0.0507812 7.2415L4.41797 7.53096L1.65039 8.66846L4.57031 8.27744L2.21406 10.0142L4.94609 8.81572L3.08242 11.1618L5.45391 9.36416L4.26562 12.1063L6.16484 9.72979L5.65703 12.6903L6.84531 9.92275L7.11953 14.295L7.53594 9.93291L8.5668 12.7208L8.17578 9.71963L10.0648 12.0962L8.8207 9.31846L11.1922 11.2278L9.31328 8.84111L12.1266 10.0142L9.6332 8.19619L12.6699 8.704L9.76016 7.58682L14.2797 7.30752L9.76016 6.88604L12.7461 5.89072L9.66367 6.27666L12.2129 4.49932L9.33867 5.65205L11.3191 3.2501L8.90703 5.13408L10.075 2.24971L8.19609 4.70244L8.60234 1.64033L7.48516 4.52979L7.06875 0.0610352H7.05859Z" fill="white"/>
<path fill-rule="evenodd" clip-rule="evenodd" d="M0 25.2992L26 0V4.70742L0 26V25.2992Z" fill="#E2AE57"/>
<path fill-rule="evenodd" clip-rule="evenodd" d="M0.914063 25.9999L26 9.70928L25.9949 4.53467L-0.00507736 25.9999H0.908985H0.914063Z" fill="white"/>
</g>
</g>
<defs>
<clipPath id="clip0_1_13663">
<rect width="26" height="26" fill="white"/>
</clipPath>
</defs>
</svg>
