<svg width="26" height="26" viewBox="0 0 26 26" fill="none" xmlns="http://www.w3.org/2000/svg">
<mask id="mask0_1_11231" style="mask-type:alpha" maskUnits="userSpaceOnUse" x="0" y="0" width="26" height="26">
<circle cx="13" cy="13" r="13" fill="#634848"/>
</mask>
<g mask="url(#mask0_1_11231)">
<mask id="mask1_1_11231" style="mask-type:alpha" maskUnits="userSpaceOnUse" x="-5" y="0" width="36" height="26">
<rect x="-4.33333" width="34.6667" height="26" fill="white"/>
</mask>
<g mask="url(#mask1_1_11231)">
<path fill-rule="evenodd" clip-rule="evenodd" d="M-4.33073 0V26H30.3359V0H-4.33073Z" fill="#F50100"/>
<mask id="mask2_1_11231" style="mask-type:alpha" maskUnits="userSpaceOnUse" x="-5" y="0" width="36" height="26">
<path fill-rule="evenodd" clip-rule="evenodd" d="M-4.33073 0V26H30.3359V0H-4.33073Z" fill="white"/>
</mask>
<g mask="url(#mask2_1_11231)">
<path fill-rule="evenodd" clip-rule="evenodd" d="M-4.326 -0.045166L-4.326 4.37908L10.8407 10.8263L-0.799497 -0.045166H-4.326ZM13.0052 13.0003L16.2552 0.000331245H9.75521L13.0052 13.0003ZM13.0052 13.0003L9.75521 26.0003H16.2552L13.0052 13.0003ZM-4.326 21.6142L-4.326 26.0384H-0.799497L10.8407 15.167L-4.326 21.6142ZM30.3364 4.40553V-0.0187175L26.8099 -0.0187176L15.1698 10.8527L30.3364 4.40553ZM30.3364 26.0649V21.6406L15.1698 15.1934L26.8099 26.0649H30.3364ZM30.3385 9.75033L17.3385 13.0003L30.3385 16.2503V9.75033ZM8.67188 13.0003L-4.32812 9.75033V16.2503L8.67188 13.0003Z" fill="#FFD018"/>
<path d="M13.0026 18.3334C15.9481 18.3334 18.3359 15.9456 18.3359 13.0001C18.3359 10.0546 15.9481 7.66675 13.0026 7.66675C10.0571 7.66675 7.66927 10.0546 7.66927 13.0001C7.66927 15.9456 10.0571 18.3334 13.0026 18.3334Z" fill="#FFD018" stroke="#F50100" stroke-width="2"/>
</g>
</g>
</g>
</svg>
