<svg width="26" height="26" viewBox="0 0 26 26" fill="none" xmlns="http://www.w3.org/2000/svg">
<mask id="mask0_1_11046" style="mask-type:alpha" maskUnits="userSpaceOnUse" x="0" y="0" width="26" height="26">
<circle cx="13" cy="13" r="13" fill="#634848"/>
</mask>
<g mask="url(#mask0_1_11046)">
<mask id="mask1_1_11046" style="mask-type:alpha" maskUnits="userSpaceOnUse" x="-5" y="0" width="36" height="26">
<rect x="-4.33333" width="34.6667" height="26" fill="white"/>
</mask>
<g mask="url(#mask1_1_11046)">
<path fill-rule="evenodd" clip-rule="evenodd" d="M6.50261 0H19.5026V26H6.50261V0Z" fill="#4C67E8"/>
<path fill-rule="evenodd" clip-rule="evenodd" d="M19.5026 0H30.3359V26H19.5026V0Z" fill="#C51918"/>
<path fill-rule="evenodd" clip-rule="evenodd" d="M-4.33073 0H8.66927V26H-4.33073V0Z" fill="#C51918"/>
<path fill-rule="evenodd" clip-rule="evenodd" d="M2.1807 7.45824C1.08291 7.45824 1.22701 6.38862 1.22701 6.38862L1.74751 5.26455V5.71734V6.38862C1.74751 6.5332 1.94479 6.24404 1.94479 5.89595C1.94479 5.54786 2.1807 5.02663 2.1807 5.02663C2.1807 5.02663 2.19017 4.85234 2.1967 4.68024C2.23446 4.76878 2.31015 4.84545 2.42507 4.96184C2.44511 4.98214 2.46634 5.00364 2.48877 5.02663C2.62439 5.16561 2.6061 5.53378 2.59027 5.85234C2.57593 6.14082 2.56362 6.38862 2.66949 6.38862C2.89226 6.38862 2.8757 5.39328 2.8757 5.39328L3.24959 6.38862C3.24959 6.38862 3.27849 7.45824 2.1807 7.45824ZM2.1807 4.40358C2.20864 4.24026 2.20511 4.45843 2.1967 4.68024C2.16517 4.60631 2.16009 4.5241 2.1807 4.40358ZM3.83399 9.40786C3.83399 10.2774 3.10645 10.9824 2.20899 10.9824C1.31152 10.9824 0.583987 10.2774 0.583987 9.40786C0.583987 8.53827 1.31152 7.83334 2.20899 7.83334C3.10645 7.83334 3.83399 8.53827 3.83399 9.40786ZM-0.249997 12.355H-2.16666V21.6406H-0.249997V12.355ZM6.50391 12.355H4.58724V21.6406H6.50391V12.355ZM0.253909 12.4354L2.12236 13.5922L4.22823 12.4354H0.253909ZM2.12236 21.6664L0.253909 20.5096H4.22823L2.12236 21.6664ZM0.253909 13.9694H4.17058V14.6961H0.253909V13.9694ZM4.17058 19.3797H0.253909V20.1064H4.17058V19.3797ZM2.25391 18.9761C3.35848 18.9761 4.25391 18.1085 4.25391 17.0382C4.25391 15.968 3.35848 15.1003 2.25391 15.1003C1.14934 15.1003 0.253909 15.968 0.253909 17.0382C0.253909 18.1085 1.14934 18.9761 2.25391 18.9761ZM4.05312e-06 9.98413C4.05312e-06 9.98413 0.0673366 12.0071 2.06122 12.0071C4.05511 12.0071 4.37692 9.98413 4.37692 9.98413C4.37692 9.98413 3.60515 11.2233 2.18846 11.2233C0.771769 11.2233 4.05312e-06 9.98413 4.05312e-06 9.98413Z" fill="#F8D000"/>
<path d="M2.56099 15.1365L2.65034 14.7383C3.09719 15.2272 3.29961 15.5015 3.20398 15.9494C3.09722 16.4494 2.53595 17.0063 1.88386 17.4651C1.48891 17.743 1.24696 18.4931 1.44296 18.7316L1.25606 19.0716C0.819247 18.54 1.16837 17.5372 1.77115 17.113C2.32465 16.7236 2.71121 16.3152 2.77863 15.9937C2.82253 15.7844 2.90437 15.5121 2.56099 15.1365Z" fill="#C51918"/>
<path fill-rule="evenodd" clip-rule="evenodd" d="M2.71094 18.4166C3.01009 18.4166 3.25261 18.1741 3.25261 17.8749C3.25261 17.5758 3.01009 17.3333 2.71094 17.3333C2.41179 17.3333 2.16927 17.5758 2.16927 17.8749C2.16927 18.1741 2.41179 18.4166 2.71094 18.4166Z" fill="#C51918"/>
<path fill-rule="evenodd" clip-rule="evenodd" d="M1.49219 16.9547C1.79134 16.9547 2.03386 16.7122 2.03386 16.413C2.03386 16.1139 1.79134 15.8713 1.49219 15.8713C1.19304 15.8713 0.950523 16.1139 0.950523 16.413C0.950523 16.7122 1.19304 16.9547 1.49219 16.9547Z" fill="#C51918"/>
</g>
</g>
</svg>
