<svg width="26" height="26" viewBox="0 0 26 26" fill="none" xmlns="http://www.w3.org/2000/svg">
<mask id="mask0_1_13620" style="mask-type:alpha" maskUnits="userSpaceOnUse" x="0" y="0" width="26" height="26">
<circle cx="13" cy="13" r="13" fill="#634848"/>
</mask>
<g mask="url(#mask0_1_13620)">
<g clip-path="url(#clip0_1_13620)">
<path d="M0 0H26V26H0V0Z" fill="#00785E"/>
<path d="M13.8379 7.48516L13 4.90039L12.1621 7.49023L14.3609 5.89062H11.6391L13.8379 7.48516Z" fill="#FBD116"/>
<path d="M13 17.9615H7.44961C7.38058 17.8916 7.31286 17.8205 7.24648 17.7482H13C13.0211 17.756 13.0396 17.7697 13.0531 17.7877C13.0666 17.8057 13.0746 17.8273 13.0762 17.8498C13.0762 17.9005 13.0457 17.9462 13 17.9615ZM13 16.2654C13.0305 16.1994 13.0965 16.047 13.066 15.8591C13.0555 15.7866 13.0332 15.7163 13 15.6509C12.5002 16.125 11.8969 16.4762 11.2379 16.6767C10.8262 16.8012 10.3985 16.8645 9.96836 16.8646H6.5457C6.64727 17.0138 6.75398 17.1595 6.86562 17.3013H10.1664C11.2039 17.3027 12.2081 16.9356 13 16.2654ZM7.06367 14.9298C6.89609 14.9937 6.71967 15.0314 6.54062 15.0416C6.95192 15.5091 7.45814 15.8837 8.02555 16.1402C8.59296 16.3968 9.20853 16.5295 9.83125 16.5294C10.4233 16.53 11.0093 16.4106 11.5539 16.1784C12.0985 15.9463 12.5904 15.6062 13 15.1787C13.1526 14.1206 13.2341 13.0535 13.2437 11.9845C13.2568 10.7579 13.1753 9.53218 13 8.31812C12.6445 8.63804 11.9742 9.33374 11.6594 10.3951C11.5386 10.8005 11.477 11.2213 11.4766 11.6443C11.4752 12.5141 11.7334 13.3645 12.218 14.0869C11.6231 13.3179 11.3015 12.3727 11.3039 11.4005C11.3014 10.7511 11.4437 10.1092 11.7203 9.52163C11.5323 9.32275 11.3932 9.08282 11.3141 8.82085C10.9399 9.48034 10.7439 10.2259 10.7453 10.9841C10.7449 11.9244 11.0477 12.8397 11.6086 13.5943C11.0996 13.0578 10.481 12.6372 9.79484 12.3611C9.10871 12.0851 8.37118 11.9601 7.63242 11.9947C7.78114 12.1333 7.90482 12.2965 7.99805 12.4771C8.69404 12.4775 9.38273 12.619 10.0225 12.8931C10.6623 13.1672 11.2398 13.5681 11.7203 14.0716C10.792 13.2951 9.61964 12.8708 8.40937 12.8732C7.70859 12.8732 7.03828 13.0103 6.42891 13.2693C6.76705 14.1607 7.38572 14.9181 8.19173 15.4273C8.99773 15.9366 9.9474 16.1701 10.8977 16.0927C10.6396 16.1396 10.3779 16.1634 10.1156 16.1638C8.9765 16.1653 7.88168 15.7226 7.06367 14.9298V14.9298ZM13 19.7388H10.1258C11.0405 20.102 12.0158 20.2881 13 20.2873C13.0431 20.2041 13.0657 20.1118 13.066 20.0181C13.0672 19.921 13.0445 19.8251 13 19.7388V19.7388ZM13 18.4083H7.92695C8.06514 18.5267 8.20741 18.6402 8.35351 18.7486H13C13.044 18.7037 13.0694 18.6438 13.0711 18.581C13.0711 18.4794 13.0102 18.4236 13 18.4083V18.4083ZM13 19.0888H8.84609C9.09829 19.2476 9.3594 19.3917 9.62812 19.5205H13C13.0425 19.452 13.0637 19.3725 13.0609 19.2919C13.059 19.22 13.0379 19.1499 13 19.0888V19.0888Z" fill="white"/>
<path d="M7.90156 10.7504L7.54609 8.902L6.74883 10.6083L8.39414 9.69419L6.52539 9.46567L7.90156 10.7504ZM10.4051 7.7645L8.90195 6.63208L9.45039 8.42974L10.0648 6.65239L8.52617 7.73403L10.4051 7.7645Z" fill="#FBD116"/>
<path d="M13 17.9615H18.5504C18.6194 17.8916 18.6871 17.8205 18.7535 17.7482H13C12.9789 17.756 12.9604 17.7697 12.9469 17.7877C12.9334 17.8057 12.9254 17.8273 12.9238 17.8498C12.9238 17.9005 12.9543 17.9462 13 17.9615ZM13 16.2654C12.9695 16.1994 12.9035 16.047 12.934 15.8591C12.9445 15.7866 12.9668 15.7163 13 15.6509C13.4998 16.125 14.1031 16.4762 14.7621 16.6767C15.1738 16.8012 15.6015 16.8645 16.0316 16.8646H19.4543C19.3527 17.0138 19.246 17.1595 19.1344 17.3013H15.8336C14.7961 17.3027 13.7919 16.9356 13 16.2654ZM18.9363 14.9298C19.1039 14.9937 19.2803 15.0314 19.4594 15.0416C19.0481 15.5091 18.5419 15.8837 17.9744 16.1402C17.407 16.3968 16.7915 16.5295 16.1687 16.5294C15.5767 16.53 14.9907 16.4106 14.4461 16.1784C13.9015 15.9463 13.4095 15.6062 13 15.1787C12.8474 14.1206 12.7659 13.0535 12.7562 11.9845C12.7432 10.7579 12.8247 9.53218 13 8.31812C13.3555 8.63804 14.0258 9.33374 14.3406 10.3951C14.4614 10.8005 14.523 11.2213 14.5234 11.6443C14.5248 12.5141 14.2666 13.3645 13.782 14.0869C14.3769 13.3179 14.6985 12.3727 14.6961 11.4005C14.6986 10.7511 14.5563 10.1092 14.2797 9.52163C14.4677 9.32275 14.6068 9.08282 14.6859 8.82085C15.0601 9.48034 15.2561 10.2259 15.2547 10.9841C15.2551 11.9244 14.9523 12.8397 14.3914 13.5943C14.9004 13.0578 15.519 12.6372 16.2052 12.3611C16.8913 12.0851 17.6288 11.9601 18.3676 11.9947C18.2189 12.1333 18.0952 12.2965 18.0019 12.4771C17.306 12.4775 16.6173 12.619 15.9775 12.8931C15.3377 13.1672 14.7602 13.5681 14.2797 14.0716C15.208 13.2951 16.3804 12.8708 17.5906 12.8732C18.2914 12.8732 18.9617 13.0103 19.5711 13.2693C19.233 14.1607 18.6143 14.9181 17.8083 15.4273C17.0023 15.9366 16.0526 16.1701 15.1023 16.0927C15.3604 16.1396 15.6221 16.1634 15.8844 16.1638C17.0235 16.1653 18.1183 15.7226 18.9363 14.9298V14.9298ZM13 19.7388H15.8742C14.9595 20.102 13.9842 20.2881 13 20.2873C12.9569 20.2041 12.9343 20.1118 12.934 20.0181C12.9328 19.921 12.9555 19.8251 13 19.7388V19.7388ZM13 18.4083H18.073C17.9349 18.5267 17.7926 18.6402 17.6465 18.7486H13C12.956 18.7037 12.9306 18.6438 12.9289 18.581C12.9289 18.4794 12.9898 18.4236 13 18.4083V18.4083ZM13 19.0888H17.1539C16.9017 19.2476 16.6406 19.3917 16.3719 19.5205H13C12.9575 19.452 12.9363 19.3725 12.9391 19.2919C12.941 19.22 12.9621 19.1499 13 19.0888V19.0888Z" fill="white"/>
<path d="M18.0984 10.7504L18.4539 8.902L19.2512 10.6083L17.6059 9.69419L19.4746 9.46567L18.0984 10.7504ZM15.5949 7.7645L17.098 6.63208L16.5496 8.42974L15.9352 6.65239L17.4738 7.73403L15.5949 7.7645Z" fill="#FBD116"/>
</g>
</g>
<defs>
<clipPath id="clip0_1_13620">
<rect width="26" height="26" fill="white"/>
</clipPath>
</defs>
</svg>
