<svg width="26" height="26" viewBox="0 0 26 26" fill="none" xmlns="http://www.w3.org/2000/svg">
<mask id="mask0_1_13841" style="mask-type:alpha" maskUnits="userSpaceOnUse" x="0" y="0" width="26" height="26">
<circle cx="13" cy="13" r="13" fill="#634848"/>
</mask>
<g mask="url(#mask0_1_13841)">
<g clip-path="url(#clip0_1_13841)">
<path fill-rule="evenodd" clip-rule="evenodd" d="M-13 0H38.9973V25.996H-13V0Z" fill="#0071BC"/>
<path fill-rule="evenodd" clip-rule="evenodd" d="M16.0044 20.5662C16.0044 20.5662 16.9216 19.5965 17.8021 19.78C18.0642 18.7632 19.0652 18.6793 19.0652 18.6793C19.0652 18.6793 18.9657 17.5525 20.2445 17.3062C20.2812 16.541 21.0569 15.9015 21.0569 15.9015C21.0569 15.9015 20.8996 14.717 21.712 14.4393C21.2141 13.4959 21.8797 12.8145 21.8693 12.7936C21.8588 12.7726 21.0307 11.2998 21.7697 10.8805C20.9835 10.2202 21.2456 9.46543 21.2456 9.46543C21.2456 9.46543 20.386 9.25054 20.6952 8.22328C19.9929 8.10274 19.8514 6.96541 19.8514 6.96541C19.8514 6.96541 18.7613 7.1803 18.6355 6.23689C17.9174 6.3522 17.8388 5.64465 17.8283 5.64465C17.8231 5.64465 16.4132 6.02725 16.1302 4.9633C15.5851 5.24108 15.344 4.73793 15.344 4.73793C15.344 4.73793 14.5579 5.12577 14.0914 4.37629C13.1585 4.95806 12.6396 4.35009 12.6396 4.35009C12.6396 4.35009 11.4132 5.16246 11.0096 4.53353C10.2863 5.26728 9.64169 4.95282 9.64169 4.95282C9.64169 4.95282 9.09661 5.91718 8.21086 5.67085C8.0117 6.57233 6.99492 6.58805 6.99492 6.58805C6.99492 6.58805 7.09974 7.3847 5.8838 7.59435C5.72656 8.52727 5.09239 8.68974 5.09239 8.68974C5.09239 8.68974 5.15528 9.59646 4.57876 9.88472C4.7884 10.3984 4.25381 11.022 4.25381 11.022C4.25381 11.022 4.81985 11.7401 4.0494 12.5263C4.79364 12.7202 4.25905 13.999 4.25905 13.999C4.25905 13.999 5.27583 14.4602 4.63117 15.3093C5.36493 15.5399 5.13432 16.1269 5.1448 16.4676C5.6165 16.6772 6.02531 16.5724 5.82615 17.5158C7.26222 17.673 6.58087 18.4697 6.58087 18.4697C6.58087 18.4697 7.25173 18.4959 6.98968 19.0253C8.21086 18.9991 8.38906 19.9425 8.38906 19.9425C8.38906 19.9425 9.52639 19.6437 9.67838 20.084C9.82513 20.5242 9.18047 23.4907 9.18047 23.4907C9.18047 23.4907 8.22134 23.4907 7.50331 22.7255C5.83139 22.6836 6.20351 21.5829 6.1773 21.5829C6.1511 21.5829 5.62174 21.7821 5.3492 20.8649C4.2276 21.0955 4.26429 20.1521 4.25381 20.1416C4.24332 20.1364 3.75066 19.9163 3.93934 19.4498C2.78629 19.5546 2.87015 18.4278 2.87015 18.4278C2.61857 18.3229 2.52423 18.0871 2.56092 17.8512C2.41417 17.7988 1.38691 17.7831 1.91626 16.4361C0.94141 15.8439 1.54938 15.1625 1.54938 15.1625C1.54938 15.1625 0.197169 14.4655 1.23491 13.6636C0.469708 12.5263 1.30829 11.9497 1.30829 11.9497C1.30829 11.9497 0.233856 10.8596 1.32401 10.0839C1.14581 8.42245 2.13639 8.02936 2.13639 8.02936C2.13639 8.02936 1.61227 6.68239 3.02738 6.11635C3.11648 4.75365 4.10181 4.71172 4.10181 4.71172C4.10181 4.71172 4.12802 3.62681 5.67415 3.73687C5.97814 2.76726 7.03685 2.96118 7.03685 2.96118C7.03685 2.96118 7.3618 1.78717 8.79787 2.35321C9.53163 0.922384 10.6165 1.65614 10.6165 1.65614C10.6165 1.65614 11.3031 1.20541 11.649 1.34167C12.0841 0.597434 13.0117 1.31547 13.6145 1.46222C13.8346 1.37836 14.6103 0.791356 15.2078 1.53036C16.0044 1.00624 16.6805 1.94965 16.6805 1.94965C16.6805 1.94965 17.7759 1.38884 18.2843 2.66244C20.6061 2.45279 20.2707 3.96748 20.2707 3.96748C20.2707 3.96748 22.0946 3.54819 21.6963 5.36687C23.3577 5.48217 23.19 6.57233 23.19 6.57233C23.19 6.57233 24.2382 7.36898 23.777 8.08177C24.7099 8.1237 24.3693 9.02518 24.3693 9.02518C24.3693 9.02518 25.0821 9.29772 24.4898 10.4088C25.8578 11.5042 24.7519 12.5839 24.7519 12.5787C24.7362 12.5682 25.4804 13.4592 24.8095 14.4812C25.0139 16.1059 24.1911 16.52 24.1911 16.52C24.1911 16.52 24.4007 17.5682 23.4888 17.867C23.4678 19.0986 22.3043 19.2506 22.3043 19.2506C22.3043 19.2506 22.6187 19.7852 21.4604 20.3513C21.4133 21.1794 20.2078 21.2423 20.2078 21.2423C20.2078 21.2423 20.0925 22.7622 18.5569 22.3534C18.19 23.5693 16.3923 23.2077 16.3556 23.192C16.3189 23.1762 16.0097 20.5819 16.0097 20.5714L16.0044 20.5662Z" fill="white" stroke="black" stroke-width="0.245124"/>
<path fill-rule="evenodd" clip-rule="evenodd" d="M4.86702 6.01691C4.86702 6.01691 5.25487 6.35234 5.18149 6.85549C5.10811 7.35864 4.81985 8.05571 4.8775 8.57459C4.91419 8.78423 4.89847 9.15635 4.89847 9.15635C4.89847 9.15635 4.55255 8.66368 4.54731 8.13433C4.54207 7.60498 4.92467 7.10183 4.92467 6.70874C4.92467 6.31566 4.85654 6.01167 4.86702 6.01691V6.01691ZM4.6731 6.16891C4.6731 6.16891 4.16995 6.65109 4.10706 7.11755C4.05465 7.35864 4.03892 8.48024 4.03368 8.98339L3.94458 9.95824C3.92886 10.1784 4.31146 9.58088 4.33767 9.0987C4.31661 8.52719 4.32886 7.95493 4.37436 7.38485C4.42153 7.1752 4.41104 6.94983 4.47918 6.74543L4.6731 6.16891V6.16891Z" fill="#217900" stroke="black" stroke-width="0.245124" stroke-linejoin="round"/>
<path fill-rule="evenodd" clip-rule="evenodd" d="M15.7686 4.59665C15.7686 4.59665 16.4237 4.29266 16.6072 3.73186C16.7906 3.17106 16.0411 3.16582 15.9415 3.34402C15.842 3.52221 16.0254 3.96771 15.9782 4.08302C15.9311 4.20356 15.6638 4.48658 15.7686 4.59665Z" fill="#FFD200" stroke="#EF8A10" stroke-width="0.245124"/>
<path fill-rule="evenodd" clip-rule="evenodd" d="M9.97188 4.80105C9.97188 4.80105 10.3964 4.21928 10.2864 3.63752C10.1815 3.05575 9.51591 3.41739 9.51591 3.62179C9.51591 3.8262 9.89327 4.12494 9.90899 4.25073C9.92471 4.37652 9.83037 4.75388 9.97188 4.80105ZM8.82408 5.14696C8.82408 5.14696 9.24861 4.5652 9.13854 3.98343C9.03372 3.40167 8.3681 3.76331 8.3681 3.96771C8.3681 4.17211 8.74546 4.47086 8.76118 4.59665C8.77691 4.72243 8.68256 5.09979 8.82408 5.14696ZM7.55048 5.54005C7.55048 5.54005 7.97501 4.95828 7.86495 4.37652C7.76013 3.79475 7.0945 4.15639 7.0945 4.36079C7.0945 4.5652 7.47186 4.86394 7.48759 4.98973C7.50331 5.11552 7.40897 5.49288 7.55048 5.54005ZM6.65949 6.43104C6.65949 6.43104 7.07878 5.85452 6.97396 5.27275C6.85865 4.69099 6.19827 5.05262 6.19827 5.25703C6.19827 5.46143 6.57563 5.76018 6.59135 5.88596C6.60708 6.01175 6.51274 6.38911 6.65425 6.43628L6.65949 6.43104ZM5.71608 7.30107C5.71608 7.30107 6.13538 6.7193 6.03055 6.13754C5.91525 5.55577 5.25486 5.91741 5.25486 6.12182C5.25486 6.32622 5.63223 6.62496 5.64795 6.75075C5.66367 6.87654 5.56933 7.2539 5.71084 7.30107H5.71608Z" fill="#FFD200" stroke="#EF8A10" stroke-width="0.335432"/>
<path fill-rule="evenodd" clip-rule="evenodd" d="M7.88067 2.26425C7.88067 2.26425 7.31463 2.70975 7.26746 3.29676C7.21505 3.889 7.94881 3.71605 8.00122 3.52212C8.05363 3.32296 7.77585 2.93512 7.79157 2.80933C7.81254 2.68354 8.00122 2.34811 7.88067 2.26425ZM9.76748 1.68249C9.76748 1.68249 9.20144 2.12798 9.14903 2.71499C9.09661 3.30724 9.83037 3.13428 9.88803 2.94036C9.94044 2.7412 9.66266 2.35335 9.67838 2.22757C9.69934 2.10178 9.88802 1.76635 9.76748 1.68249V1.68249ZM2.73912 6.77163C2.73912 6.77163 2.85442 7.48442 3.34709 7.80937C3.83976 8.13432 4.04416 7.41629 3.89741 7.26953C3.75066 7.12278 3.27372 7.19092 3.17413 7.1123C3.06931 7.03892 2.87015 6.70349 2.73912 6.77163ZM1.79572 9.18255C1.79572 9.18255 1.80096 9.90583 2.23597 10.3042C2.67099 10.7077 2.98545 10.0264 2.86491 9.85865C2.74436 9.69094 2.26218 9.68046 2.17308 9.59136C2.08398 9.49702 1.93723 9.14062 1.79572 9.18255ZM3.97079 11.8765C3.97079 11.8765 3.70873 11.2056 3.16365 10.9855C2.61857 10.7601 2.56092 11.5096 2.73388 11.6144C2.9016 11.7297 3.36281 11.5777 3.47288 11.6302C3.58818 11.6826 3.85024 11.9708 3.97079 11.8765V11.8765ZM3.51481 10.713C3.51481 10.713 3.95506 10.1364 3.85548 9.55991C3.7559 8.9729 3.09028 9.32406 3.08503 9.52846C3.08503 9.73287 3.45191 10.0369 3.46764 10.1626C3.47812 10.2884 3.37854 10.6658 3.52005 10.713H3.51481ZM17.1103 5.17832C17.1103 5.17832 17.7602 4.87434 17.9489 4.31354C18.1376 3.75273 17.3828 3.74749 17.2833 3.92569C17.1837 4.10389 17.3671 4.54939 17.32 4.66469C17.2728 4.78524 17.0055 5.06826 17.1103 5.17832V5.17832ZM19.0862 6.16366C19.0862 6.16366 19.4688 5.55568 19.3221 4.97916C19.1753 4.40788 18.5359 4.81144 18.5516 5.01585C18.5673 5.22549 18.9604 5.49279 18.9866 5.61858C19.0128 5.74437 18.9395 6.12697 19.0862 6.16366V6.16366ZM24.4846 11.7664C24.4846 11.7664 24.2225 11.0956 23.6774 10.8702C23.1271 10.6448 23.0747 11.3943 23.2424 11.5096C23.4154 11.6144 23.8714 11.4624 23.9867 11.5201C24.102 11.5725 24.364 11.8608 24.4846 11.7664V11.7664ZM21.843 12.1857C21.843 12.1857 21.8588 11.4624 22.299 11.0694C22.7393 10.671 23.0433 11.3576 22.9227 11.5201C22.7969 11.6826 22.3147 11.6931 22.2256 11.7822C22.1366 11.8765 21.9846 12.2329 21.843 12.1857V12.1857ZM21.4185 4.54939C21.4185 4.54939 20.7477 4.29257 20.2131 4.54939C19.6785 4.8062 20.2026 5.35652 20.4017 5.29887C20.6009 5.24646 20.7843 4.8062 20.9049 4.75379C21.0202 4.70662 21.408 4.70138 21.4185 4.54939V4.54939ZM19.8776 3.26007C19.8776 3.26007 19.2068 3.00325 18.6722 3.26007C18.1428 3.52212 18.6617 4.0672 18.8608 4.00955C19.06 3.95714 19.2487 3.51688 19.364 3.46447C19.4793 3.4173 19.8724 3.41206 19.8776 3.26007ZM17.582 2.0284C17.582 2.0284 17.0107 2.46866 16.9531 3.06091C16.9007 3.64791 17.6344 3.48544 17.6868 3.29151C17.7445 3.09235 17.4667 2.70451 17.4877 2.57872C17.5086 2.45293 17.7026 2.1175 17.582 2.03364V2.0284ZM16.083 1.67725C16.083 1.67725 15.821 2.34811 16.0778 2.88271C16.3346 3.4173 16.8797 2.89319 16.8273 2.69927C16.7749 2.50535 16.3294 2.31142 16.2822 2.19088C16.235 2.07557 16.2298 1.68773 16.083 1.67725V1.67725ZM11.8377 4.26112C11.8377 4.26112 12.3042 3.71605 12.2361 3.1238C12.1679 2.53679 11.4813 2.85126 11.4656 3.05566C11.4551 3.26007 11.8063 3.57978 11.8168 3.71081C11.8168 3.83659 11.7015 4.20347 11.8377 4.26112Z" fill="#FFD200" stroke="#EF8A10" stroke-width="0.245124"/>
<path fill-rule="evenodd" clip-rule="evenodd" d="M14.3692 5.43512C14.3692 5.43512 15.4856 5.50849 15.5432 6.14791C15.6009 6.78733 15.2759 7.17517 15.2759 7.17517C15.2759 7.17517 15.4174 8.55883 14.322 8.9624C13.1533 9.10391 11.3189 8.99385 11.3189 8.99385C11.3189 8.99385 10.7843 9.13012 10.5641 8.01375C10.344 6.89739 10.2811 6.10598 10.2811 6.10598C10.2811 6.10598 10.3912 5.48229 11.1773 5.4456C11.9635 5.40367 14.364 5.45084 14.3744 5.43512H14.3692Z" fill="#8C8A8C" stroke="black" stroke-width="0.245124"/>
<path d="M15.2707 7.16992C15.2707 7.16992 14.6679 7.9194 14.7308 8.21815" stroke="black" stroke-width="0.245124" stroke-linecap="round"/>
<path fill-rule="evenodd" clip-rule="evenodd" d="M14.4635 8.92565C14.6103 9.05144 14.7518 9.18771 14.7832 9.64893L14.8461 10.5714L15.6271 17.5945L16.3137 22.6731L16.3608 23.4593C16.3608 23.4593 16.1984 24.0358 15.7319 24.0882C15.4017 24.7853 13.583 24.9897 13.4048 24.9792C13.2424 24.974 12.6606 24.7329 12.3094 24.7644C11.9583 24.7958 11.3503 25.0264 11.0778 24.9897C10.8052 24.953 10.1868 24.7381 10.0819 24.2927C9.31674 24.0516 9.19096 23.4698 9.19096 23.4698L10.0191 17.5945L10.8209 10.1626C10.8209 10.1626 10.9153 9.17198 11.3136 9.02523C11.7277 8.98854 13.866 9.06716 14.4635 8.92041V8.92565Z" fill="#8C8A8C" stroke="black" stroke-width="0.245124"/>
<path d="M10.2497 19.0935L10.0872 24.2875M15.3021 19.7801L15.7581 24.0621" stroke="black" stroke-width="0.245124"/>
<path d="M1.95295 16.389L1.93199 16.4519M23.5359 16.2056L23.5517 16.258" stroke="black" stroke-width="0.129012"/>
<path d="M1.37119 9.37633C1.37119 9.37633 1.7171 9.84804 1.77475 10.1206C1.83765 10.3931 1.95295 10.9277 2.0997 11.1478C2.2517 11.3627 3.09552 12.5839 3.14793 13.0923C3.14793 13.4225 2.79153 13.9938 2.25694 14.0043C1.92675 13.9938 1.0672 13.7736 1.03051 13.0399C0.993824 12.3061 1.29257 12.2852 1.32926 11.8344C1.36594 11.3889 1.37119 9.38682 1.37119 9.37109V9.37633Z" stroke="#6B18B5" stroke-width="0.245124" stroke-linejoin="round"/>
<path d="M7.2465 2.93505C7.2465 2.93505 6.8901 2.95601 6.61756 3.10276C6.40791 3.23379 6.05152 3.41723 5.79994 3.76839C5.16577 4.26105 4.20664 4.49166 3.9079 4.90571C3.72446 5.18349 3.73494 5.8596 4.19092 6.14262C4.47918 6.31034 5.32824 6.56715 5.73705 5.95918C6.15634 5.34597 5.90477 5.17301 6.10393 4.77468C6.4446 3.85749 7.24125 2.94029 7.2465 2.92981V2.93505ZM15.8262 2.03357C15.8262 2.03357 15.5642 1.79248 15.2654 1.70338C15.0243 1.64049 14.626 1.66669 14.212 1.62476C13.4101 1.5147 12.5872 0.938175 12.0841 1.00631C11.7591 1.07444 11.2822 1.55139 11.3922 2.07026C11.4708 2.39521 11.8325 3.05035 12.561 2.91932C13.2843 2.79354 13.279 2.63106 13.7088 2.50003C14.7518 1.91303 15.8157 2.02833 15.8262 2.02833V2.03357ZM24.3378 10.3041C24.4007 10.1678 24.2854 9.91624 24.212 9.61225C24.1334 9.3764 24.0234 9.00952 23.7456 8.68457C23.4154 7.95081 23.473 6.93927 23.1481 6.55143C22.9175 6.30509 22.2571 6.1531 21.8745 6.52522C21.6439 6.76631 21.1931 7.52628 21.6858 8.0766C22.1785 8.62168 22.3934 8.41727 22.734 8.70553C23.5464 9.25061 23.9395 10.2045 24.3378 10.3041V10.3041ZM24.0548 16.7402C24.1596 16.583 24.364 16.2947 24.3378 16.0484C24.3221 15.8492 24.4269 15.2622 24.4427 15.0001C24.516 14.2035 25.0192 13.5483 24.8777 12.8513C24.799 12.5316 24.3221 12.0651 23.8085 12.2014C23.4888 12.301 22.7812 12.6888 22.9437 13.4068C23.1062 14.1301 23.3368 14.1144 23.494 14.5389C23.9343 15.4089 23.6512 16.4414 24.0548 16.7402Z" stroke="#6B18B5" stroke-width="0.129012" stroke-linejoin="round"/>
<path d="M18.1481 21.8451C18.1481 21.8451 18.0118 22.1072 18.5569 22.3325M19.2382 21.2266C19.2382 21.2266 19.8409 21.0799 20.2497 21.2266M21.0464 19.6962C21.0464 19.7067 20.9625 19.9688 21.4447 20.3461M21.3923 19.0149C21.3923 19.0149 21.7487 19.2769 22.3462 19.2665M17.8021 19.7801C17.8021 19.7801 17.8231 20.4719 17.4667 20.7969M18.9971 18.7109C18.9971 18.7109 19.5789 18.8576 20.0611 18.6166M22.7498 17.6994C22.7498 17.6994 22.8756 17.8776 23.5255 17.8461M20.2235 17.2905C20.2393 17.301 20.9835 17.5421 21.4552 17.322M21.7068 14.4394C21.7068 14.4394 21.7382 14.4027 21.9688 15.2098M22.2833 12.17C22.2833 12.17 22.2519 12.5997 21.9059 12.7884M24.4898 10.4142C24.4898 10.4142 23.9867 10.823 24.081 10.9907M21.9846 10.1207C21.9846 10.1207 22.2466 10.5609 21.8221 10.8649M20.7215 8.23911C20.7215 8.23911 21.1722 8.21815 21.3713 8.60599M19.8724 6.96028H20.2183M21.6649 5.38794C21.6649 5.40366 21.7592 5.48752 21.581 5.66572M18.452 5.43511C18.452 5.43511 18.6931 5.81247 18.6512 6.27369M19.8409 4.15627C19.9458 4.14579 20.3022 3.98855 20.3022 3.98855M18.2948 2.65731C18.2843 2.65731 18.1585 3.12901 18.3891 3.29672M17.713 4.80617C17.713 5.30932 18.1114 5.18353 17.8388 5.66572M16.7382 4.38688C16.5062 4.54911 16.2949 4.73922 16.1093 4.95292M15.1292 4.12482C15.1292 4.12482 15.3912 4.38688 15.3283 4.74328M14.364 3.91518C14.364 3.91518 14.2277 4.3135 14.0495 4.41833M12.9698 3.81036C12.9593 3.83132 12.7497 4.28206 12.6029 4.36592M11.0673 3.82084C11.0778 3.82084 11.2769 4.24013 11.0149 4.54411M10.627 1.65625C10.6375 1.66673 10.669 1.9812 10.4698 2.25374M8.74022 2.36904C8.74022 2.37953 8.82932 2.72544 8.26852 2.84075M7.68675 5.55565C7.69724 5.57662 8.22135 5.66048 8.22135 5.66048M6.38171 6.76636C6.59207 6.69673 6.80349 6.63033 7.01589 6.56719M5.36493 7.55253C5.38589 7.55253 5.80518 7.6259 5.91001 7.57349M5.07143 7.94037C5.07143 7.94037 5.2077 8.01374 5.09239 8.71606M3.02738 6.09549L3.2842 6.47285M2.17308 8.03471C2.17308 8.02423 2.42466 8.41207 2.76009 8.48545M4.14899 10.0054C4.15947 10.0054 4.5578 9.91628 4.62069 9.87435M3.97079 11.4257C3.98127 11.4257 3.96031 11.1637 4.28526 10.9855M3.54102 12.0756C3.54102 12.0861 3.845 12.4635 4.05465 12.5159M3.36282 12.7937C3.39427 12.7832 3.71922 12.5002 4.09658 12.5211M3.258 13.7685C3.258 13.7685 3.26848 14.0935 4.23285 14.0096M3.35234 14.9163C3.35234 14.9058 3.63536 14.2664 4.21188 14.0253M4.12802 15.7339C4.12802 15.7339 4.21188 15.4614 4.69407 15.2727M4.66262 16.8084C4.66262 16.8084 5.00853 16.5253 5.13432 16.4834M5.09239 17.6469C5.09239 17.6469 5.30204 17.8671 5.82615 17.4897M2.56617 17.8199C2.62906 17.8094 3.38902 17.6312 3.65108 18.0296M2.86491 18.4488C2.86491 18.4488 3.67204 18.344 3.77687 18.4279M5.74753 18.6166C5.74753 18.6166 5.64271 18.8367 6.63853 18.4698M6.9792 19.0149C6.801 19.3136 7.02113 19.5547 6.79052 19.6962M3.96031 19.4342C3.98651 19.408 4.32719 19.2927 4.27478 18.8157M4.25905 20.1522C4.30098 20.1417 4.85654 19.9006 4.97185 20.0264M5.34397 20.8598C5.34397 20.8598 5.41734 20.3671 5.57458 20.3147M6.17731 21.604C6.17731 21.604 6.63853 21.5935 6.83769 21.4468M7.0683 19.9373C7.07878 19.9478 7.49807 20.1679 8.38906 19.9478M7.40373 21.9394C7.40373 21.9394 7.52952 22.5736 7.51904 22.7256" stroke="black" stroke-width="0.245124"/>
<path fill-rule="evenodd" clip-rule="evenodd" d="M23.4794 12.1163C23.4545 11.9166 23.352 11.7266 23.2232 11.6413C23.0739 11.5485 22.9188 11.5678 22.8163 11.6922C22.7137 11.8165 22.6502 12.0171 22.6752 12.2168C22.7014 12.4264 22.8026 12.6064 22.9326 12.7017C23.082 12.7946 23.237 12.7752 23.3396 12.6508C23.4421 12.5265 23.5153 12.3247 23.4807 12.1262L23.4794 12.1163Z" fill="#DE2010" stroke="black" stroke-width="0.325311"/>
<path fill-rule="evenodd" clip-rule="evenodd" d="M23.3903 11.0523C23.3654 10.8526 23.2629 10.6626 23.1341 10.5773C22.9848 10.4845 22.8297 10.5039 22.7272 10.6282C22.6246 10.7526 22.5611 10.9531 22.5861 11.1528C22.6123 11.3625 22.7135 11.5424 22.8435 11.6377C22.9929 11.7306 23.1479 11.7112 23.2505 11.5869C23.353 11.4625 23.4262 11.2607 23.3916 11.0623L23.3903 11.0523Z" fill="#DE2010" stroke="black" stroke-width="0.325311"/>
<path fill-rule="evenodd" clip-rule="evenodd" d="M23.1712 9.92112C23.1288 9.72442 23.01 9.54419 22.8743 9.47053C22.7173 9.39116 22.5646 9.42409 22.4734 9.55696C22.3821 9.68984 22.3365 9.89523 22.3789 10.0919C22.4235 10.2985 22.5401 10.4689 22.678 10.5524C22.8349 10.6317 22.9877 10.5988 23.0789 10.4659C23.1701 10.333 23.2253 10.1256 23.1733 9.93095L23.1712 9.92112Z" fill="#DE2010" stroke="black" stroke-width="0.325312"/>
<path fill-rule="evenodd" clip-rule="evenodd" d="M22.7793 8.7359C22.6881 8.55651 22.5273 8.41251 22.3773 8.37589C22.2053 8.33916 22.066 8.40993 22.0117 8.56167C21.9573 8.71342 21.9656 8.92365 22.0567 9.10304C22.1524 9.2914 22.3086 9.42643 22.4632 9.47201C22.6353 9.50875 22.7745 9.43798 22.8289 9.28623C22.8832 9.13449 22.8837 8.91983 22.7838 8.74487L22.7793 8.7359Z" fill="#DE2010" stroke="black" stroke-width="0.325311"/>
<path fill-rule="evenodd" clip-rule="evenodd" d="M22.36 7.78204C22.2688 7.60265 22.108 7.45865 21.958 7.42204C21.786 7.3853 21.6467 7.45607 21.5924 7.60782C21.538 7.75956 21.5463 7.96979 21.6374 8.14918C21.7331 8.33754 21.8894 8.47257 22.044 8.51816C22.216 8.55489 22.3553 8.48412 22.4096 8.33237C22.4639 8.18063 22.4644 7.96598 22.3645 7.79101L22.36 7.78204Z" fill="#DE2010" stroke="black" stroke-width="0.325311"/>
<path fill-rule="evenodd" clip-rule="evenodd" d="M21.765 6.82623C21.659 6.65521 21.4866 6.52534 21.334 6.50156C21.1595 6.47952 21.0267 6.56184 20.9854 6.71764C20.9441 6.87344 20.9701 7.08222 21.0762 7.25324C21.1875 7.43282 21.3546 7.55414 21.5125 7.58647C21.687 7.6085 21.8198 7.52619 21.8611 7.37039C21.9024 7.21459 21.8847 7.00067 21.7703 6.83478L21.765 6.82623Z" fill="#DE2010" stroke="black" stroke-width="0.325312"/>
<path fill-rule="evenodd" clip-rule="evenodd" d="M21.0988 5.90303C20.9767 5.74306 20.7926 5.63046 20.6384 5.62155C20.4626 5.61649 20.3384 5.71125 20.3123 5.87032C20.2863 6.02938 20.3324 6.23467 20.4544 6.39464C20.5826 6.56262 20.7606 6.66721 20.9209 6.68412C21.0967 6.68919 21.2209 6.59442 21.247 6.43535C21.273 6.27629 21.2347 6.06508 21.1049 5.91103L21.0988 5.90303Z" fill="#DE2010" stroke="black" stroke-width="0.325312"/>
<path fill-rule="evenodd" clip-rule="evenodd" d="M20.3066 5.04791C20.1626 4.90732 19.9641 4.82261 19.8102 4.83614C19.6355 4.85662 19.5264 4.96839 19.5237 5.12955C19.521 5.29071 19.5963 5.48715 19.7403 5.62774C19.8914 5.77537 20.0827 5.85304 20.2438 5.84654C20.4185 5.82606 20.5277 5.71429 20.5304 5.55313C20.5331 5.39198 20.4645 5.18855 20.3138 5.05494L20.3066 5.04791Z" fill="#DE2010" stroke="black" stroke-width="0.325313"/>
<path fill-rule="evenodd" clip-rule="evenodd" d="M19.4134 4.25291C19.2571 4.12615 19.0516 4.06006 18.8997 4.08769C18.7276 4.12415 18.6292 4.24549 18.6413 4.40621C18.6535 4.56693 18.7466 4.75561 18.9028 4.88236C19.0669 5.01546 19.2646 5.07521 19.4244 5.05392C19.5964 5.01746 19.6949 4.89612 19.6827 4.7354C19.6706 4.57467 19.5836 4.37842 19.4212 4.25924L19.4134 4.25291Z" fill="#DE2010" stroke="black" stroke-width="0.325311"/>
<path fill-rule="evenodd" clip-rule="evenodd" d="M18.4655 3.62232C18.2903 3.52327 18.0767 3.49221 17.9315 3.54468C17.7678 3.6092 17.6909 3.74519 17.7296 3.90167C17.7682 4.05815 17.8914 4.22875 18.0665 4.32781C18.2504 4.43181 18.4553 4.45792 18.6093 4.4104C18.7729 4.34588 18.8498 4.20989 18.8112 4.05341C18.7725 3.89693 18.6542 3.71783 18.4742 3.62727L18.4655 3.62232Z" fill="#DE2010" stroke="black" stroke-width="0.325312"/>
<path fill-rule="evenodd" clip-rule="evenodd" d="M17.4049 3.06499C17.2215 2.98228 17.0059 2.9708 16.8661 3.03627C16.709 3.11542 16.6448 3.25785 16.6975 3.41016C16.7502 3.56247 16.8884 3.72116 17.0718 3.80386C17.2644 3.89069 17.4708 3.89804 17.6198 3.83671C17.7769 3.75756 17.8411 3.61513 17.7884 3.46282C17.7357 3.31051 17.6015 3.14292 17.4141 3.06912L17.4049 3.06499Z" fill="#DE2010" stroke="black" stroke-width="0.325311"/>
<path fill-rule="evenodd" clip-rule="evenodd" d="M16.368 2.64395C16.1794 2.57373 15.9636 2.57672 15.8284 2.65142C15.677 2.74092 15.6225 2.88733 15.6853 3.03577C15.7481 3.1842 15.8966 3.33327 16.0852 3.40349C16.2832 3.47722 16.4896 3.47071 16.6342 3.39952C16.7856 3.31003 16.8401 3.16361 16.7773 3.01518C16.7145 2.86674 16.5694 2.70853 16.3774 2.64746L16.368 2.64395Z" fill="#DE2010" stroke="black" stroke-width="0.325312"/>
<path fill-rule="evenodd" clip-rule="evenodd" d="M15.3142 2.3118C15.1209 2.25618 14.9059 2.27563 14.7768 2.36043C14.6327 2.46122 14.5895 2.61137 14.6634 2.75458C14.7374 2.89779 14.8968 3.03509 15.0902 3.09071C15.2932 3.14912 15.4985 3.12688 15.6373 3.04486C15.7814 2.94407 15.8246 2.79392 15.7507 2.65071C15.6767 2.50751 15.52 2.36082 15.3239 2.31458L15.3142 2.3118Z" fill="#DE2010" stroke="black" stroke-width="0.325313"/>
<path fill-rule="evenodd" clip-rule="evenodd" d="M14.1497 2.11516C13.9501 2.08998 13.7406 2.1423 13.6262 2.24597C13.4993 2.36776 13.4797 2.52277 13.5748 2.65288C13.67 2.78299 13.8486 2.8941 14.0483 2.91928C14.2579 2.94572 14.4573 2.89213 14.5818 2.78972C14.7087 2.66793 14.7282 2.51292 14.6331 2.38281C14.538 2.25271 14.3605 2.1319 14.1597 2.11641L14.1497 2.11516Z" fill="#DE2010" stroke="black" stroke-width="0.325311"/>
<path fill-rule="evenodd" clip-rule="evenodd" d="M13.0041 2.05327C12.803 2.0452 12.5988 2.11518 12.4936 2.22823C12.3775 2.36039 12.3712 2.5165 12.4771 2.63803C12.583 2.75956 12.7705 2.85504 12.9715 2.86311C13.1826 2.87159 13.3768 2.8012 13.4921 2.68856C13.6081 2.5564 13.6144 2.40028 13.5085 2.27876C13.4026 2.15723 13.2156 2.05199 13.0141 2.05367L13.0041 2.05327Z" fill="#DE2010" stroke="black" stroke-width="0.325312"/>
<path fill-rule="evenodd" clip-rule="evenodd" d="M11.9506 2.08476C11.7495 2.07669 11.5453 2.14667 11.4401 2.25972C11.324 2.39188 11.3178 2.548 11.4237 2.66952C11.5295 2.79105 11.717 2.88653 11.9181 2.89461C12.1292 2.90308 12.3233 2.8327 12.4386 2.72005C12.5547 2.58789 12.5609 2.43178 12.4551 2.31025C12.3492 2.18873 12.1621 2.08348 11.9606 2.08517L11.9506 2.08476Z" fill="#DE2010" stroke="black" stroke-width="0.325312"/>
<path fill-rule="evenodd" clip-rule="evenodd" d="M10.7231 2.23628C10.527 2.28112 10.3482 2.40211 10.2762 2.53876C10.1988 2.6967 10.2336 2.84901 10.3676 2.93858C10.5016 3.02815 10.7076 3.07123 10.9037 3.02639C11.1097 2.97931 11.2786 2.86056 11.3604 2.72166C11.4378 2.56373 11.403 2.41142 11.269 2.32185C11.135 2.23227 10.9269 2.17968 10.7329 2.23404L10.7231 2.23628Z" fill="#DE2010" stroke="black" stroke-width="0.325312"/>
<path fill-rule="evenodd" clip-rule="evenodd" d="M9.60143 2.5148C9.40963 2.57567 9.24147 2.71099 9.18102 2.85312C9.11689 3.0169 9.16415 3.16582 9.30508 3.24403C9.44601 3.32225 9.6548 3.34819 9.84659 3.28733C10.048 3.22342 10.2065 3.09113 10.2766 2.94597C10.3407 2.78219 10.2935 2.63327 10.1525 2.55505C10.0116 2.47684 9.79985 2.44159 9.61102 2.51176L9.60143 2.5148Z" fill="#DE2010" stroke="black" stroke-width="0.325313"/>
<path fill-rule="evenodd" clip-rule="evenodd" d="M8.58004 2.95665C8.39687 3.03992 8.24602 3.19432 8.20293 3.34263C8.15876 3.51288 8.22342 3.65511 8.37267 3.71598C8.52191 3.77685 8.7323 3.77774 8.91547 3.69447C9.10781 3.60703 9.2495 3.4568 9.30175 3.30432C9.34592 3.13407 9.28126 2.99184 9.13201 2.93097C8.98277 2.8701 8.76834 2.86032 8.5892 2.95248L8.58004 2.95665Z" fill="#DE2010" stroke="black" stroke-width="0.325311"/>
<path fill-rule="evenodd" clip-rule="evenodd" d="M7.5604 3.47848C7.38499 3.57708 7.24787 3.74378 7.21759 3.89522C7.18811 4.06863 7.26466 4.20482 7.41856 4.25274C7.57245 4.30065 7.78214 4.28359 7.95755 4.18499C8.14172 4.08146 8.27007 3.9197 8.30913 3.76332C8.33861 3.58992 8.26205 3.45372 8.10816 3.40581C7.95427 3.35789 7.73978 3.36644 7.56917 3.47355L7.5604 3.47848Z" fill="#DE2010" stroke="black" stroke-width="0.32531"/>
<path fill-rule="evenodd" clip-rule="evenodd" d="M6.59737 4.13143C6.43372 4.24851 6.31553 4.42912 6.30188 4.58296C6.29142 4.75854 6.38232 4.88561 6.54051 4.91652C6.6987 4.94743 6.9053 4.90768 7.06895 4.79061C7.24079 4.66768 7.3508 4.49292 7.37263 4.33322C7.38309 4.15765 7.29218 4.03058 7.134 3.99967C6.97581 3.96875 6.76352 4.00056 6.60556 4.12558L6.59737 4.13143Z" fill="#DE2010" stroke="black" stroke-width="0.325311"/>
<path fill-rule="evenodd" clip-rule="evenodd" d="M5.70339 4.80647C5.55023 4.93698 5.44774 5.12694 5.44716 5.28138C5.45159 5.45722 5.55293 5.57614 5.71316 5.59355C5.8734 5.61096 6.0759 5.55388 6.22905 5.42337C6.38987 5.28634 6.4847 5.1029 6.49294 4.94194C6.48851 4.7661 6.38717 4.64718 6.22694 4.62977C6.0667 4.61236 5.85787 4.66201 5.71104 4.79995L5.70339 4.80647Z" fill="#DE2010" stroke="black" stroke-width="0.32531"/>
<path fill-rule="evenodd" clip-rule="evenodd" d="M4.91635 5.63115C4.77295 5.7723 4.68434 5.96912 4.69484 6.12321C4.71186 6.29827 4.82146 6.40962 4.98254 6.4155C5.14361 6.42138 5.34149 6.34992 5.4849 6.20877C5.63548 6.06057 5.71691 5.8708 5.71359 5.70965C5.69656 5.53459 5.58696 5.42324 5.42589 5.41736C5.26481 5.41148 5.06008 5.47598 4.92352 5.62409L4.91635 5.63115Z" fill="#DE2010" stroke="black" stroke-width="0.325311"/>
<path fill-rule="evenodd" clip-rule="evenodd" d="M4.24066 6.54763C4.10958 6.70029 4.03776 6.90384 4.06112 7.05651C4.09274 7.22954 4.21127 7.33132 4.37227 7.3237C4.53327 7.31607 4.72448 7.2283 4.85556 7.07564C4.99321 6.91535 5.05847 6.71943 5.04167 6.55913C5.01005 6.3861 4.89151 6.28432 4.73051 6.29194C4.56951 6.29957 4.3709 6.38098 4.24722 6.54L4.24066 6.54763Z" fill="#DE2010" stroke="black" stroke-width="0.325312"/>
<path fill-rule="evenodd" clip-rule="evenodd" d="M3.62292 7.4816C3.50886 7.64737 3.45916 7.85742 3.49866 8.00672C3.54855 8.17539 3.67727 8.26396 3.83654 8.23921C3.99581 8.21446 4.17656 8.1068 4.29063 7.94103C4.41039 7.76698 4.45439 7.56522 4.42059 7.40762C4.3707 7.23896 4.24198 7.15039 4.08271 7.17514C3.92345 7.19989 3.73464 7.30201 3.62863 7.47331L3.62292 7.4816Z" fill="#DE2010" stroke="black" stroke-width="0.325312"/>
<path fill-rule="evenodd" clip-rule="evenodd" d="M3.10554 8.54493C3.02165 8.72783 3.00877 8.9433 3.07334 9.0836C3.15146 9.24119 3.29347 9.30633 3.44612 9.25459C3.59877 9.20285 3.75835 9.06574 3.84224 8.88284C3.93032 8.6908 3.93901 8.48448 3.87864 8.33503C3.80052 8.17744 3.6585 8.1123 3.50586 8.16404C3.35321 8.21578 3.18475 8.34882 3.10974 8.53579L3.10554 8.54493Z" fill="#DE2010" stroke="black" stroke-width="0.325311"/>
<path fill-rule="evenodd" clip-rule="evenodd" d="M2.69228 9.65664C2.62532 9.84639 2.63202 10.0621 2.70904 10.196C2.80113 10.3459 2.94846 10.3979 3.09579 10.3325C3.24312 10.2671 3.38961 10.1161 3.45657 9.92636C3.52688 9.72713 3.51683 9.52087 3.44316 9.37751C3.35107 9.22766 3.20374 9.17566 3.05641 9.24103C2.90908 9.30639 2.75339 9.45416 2.69563 9.64715L2.69228 9.65664Z" fill="#DE2010" stroke="black" stroke-width="0.325309"/>
<path fill-rule="evenodd" clip-rule="evenodd" d="M2.34147 11.7532C2.32288 11.9138 2.38208 12.0802 2.48947 12.1692C2.61537 12.2677 2.77094 12.2792 2.89785 12.1996C3.02475 12.1199 3.12991 11.9738 3.1485 11.8132C3.16801 11.6446 3.10788 11.4862 3.00142 11.3892C2.87552 11.2907 2.71995 11.2792 2.59305 11.3588C2.46615 11.4385 2.35126 11.5838 2.3424 11.7452L2.34147 11.7532Z" fill="#DE2010" stroke="black" stroke-width="0.291389"/>
<path fill-rule="evenodd" clip-rule="evenodd" d="M2.43389 10.7748C2.38917 10.971 2.42062 11.1846 2.5125 11.3087C2.6212 11.447 2.77353 11.4817 2.91237 11.3999C3.05122 11.318 3.17939 11.1512 3.22411 10.955C3.27106 10.749 3.23738 10.5452 3.14772 10.4113C3.03903 10.273 2.8867 10.2383 2.74785 10.3201C2.60901 10.402 2.47132 10.5667 2.43612 10.765L2.43389 10.7748Z" fill="#DE2010" stroke="black" stroke-width="0.325311"/>
<path fill-rule="evenodd" clip-rule="evenodd" d="M22.6397 10.2725C22.7655 10.131 22.886 10.0891 23.038 10.1415C22.9856 9.77463 22.8703 9.65409 22.7236 9.69602C22.5873 9.73795 22.5244 9.92663 22.6345 10.2725H22.6397ZM22.8336 11.3732C22.9751 11.2422 23.0957 11.2159 23.2424 11.2684C23.2162 10.9015 23.1114 10.7704 22.9699 10.8071C22.8231 10.8386 22.7498 11.0168 22.8336 11.3679V11.3732ZM22.3619 9.261C22.4563 9.09329 22.5611 9.02515 22.7236 9.03563C22.5768 8.7002 22.4353 8.60586 22.3095 8.68448C22.1837 8.76309 22.168 8.96226 22.3619 9.261ZM21.8745 8.26519C21.9636 8.09223 22.0737 8.02409 22.2309 8.03458C22.0894 7.6939 21.9426 7.6048 21.8168 7.68342C21.6963 7.76204 21.6806 7.9612 21.8745 8.25995V8.26519ZM20.7005 6.42031C20.7634 6.24211 20.8577 6.15825 21.015 6.13729C20.821 5.82282 20.6638 5.75992 20.5537 5.85951C20.4437 5.95909 20.4594 6.15301 20.7005 6.42031ZM19.93 5.61841C19.9825 5.43497 20.0768 5.35112 20.2393 5.33015C20.0296 5.02617 19.8724 4.96327 19.7676 5.0681C19.6575 5.16768 19.6785 5.3616 19.93 5.61841ZM18.3158 4.25572C18.3158 4.06704 18.3682 3.95173 18.5149 3.88884C18.2267 3.65823 18.0537 3.65299 17.9856 3.78402C17.9122 3.9098 18.0013 4.088 18.3158 4.25572V4.25572ZM19.1544 4.88466C19.1858 4.69597 19.2592 4.59639 19.4164 4.55446C19.1701 4.28193 19.0024 4.24524 18.9133 4.36054C18.8189 4.47585 18.8713 4.66453 19.1596 4.88466H19.1544ZM17.3566 3.72637C17.3357 3.53768 17.3828 3.42238 17.5139 3.33852C17.1994 3.1446 17.0369 3.14984 16.9793 3.28611C16.9216 3.42238 17.0265 3.59534 17.3566 3.72637ZM16.3766 3.30183C16.3241 3.11839 16.3556 2.99785 16.4814 2.89303C16.1407 2.74627 15.9782 2.78296 15.9415 2.92447C15.9049 3.06598 16.0306 3.21798 16.3766 3.30183V3.30183ZM15.3231 2.97688C15.255 2.79868 15.2759 2.6729 15.3912 2.55759C15.0401 2.44229 14.8776 2.48946 14.8514 2.63621C14.8304 2.78296 14.9667 2.92447 15.3231 2.97688ZM14.2853 2.77772C14.2067 2.60476 14.2172 2.47898 14.322 2.35843C13.9656 2.26409 13.8084 2.32174 13.7927 2.46849C13.777 2.61524 13.9237 2.74627 14.2853 2.77248V2.77772ZM13.1847 2.69386C13.0904 2.52615 13.0851 2.40036 13.1847 2.27457C12.8178 2.21692 12.6606 2.29029 12.6606 2.43705C12.6658 2.5838 12.8283 2.6991 13.1847 2.69386ZM11.0358 2.8511C10.9048 2.71483 10.8681 2.59428 10.931 2.44753C10.5641 2.47898 10.4331 2.58904 10.4698 2.73055C10.5065 2.8773 10.6899 2.95068 11.0358 2.8511V2.8511ZM12.0945 2.71483C11.9792 2.55759 11.9635 2.43705 12.0421 2.29554C11.6753 2.27981 11.5285 2.36891 11.5495 2.51566C11.5652 2.66242 11.7381 2.762 12.0945 2.71483ZM9.99809 3.08171C9.84086 2.96116 9.79369 2.84585 9.83038 2.68862C9.47398 2.77772 9.35867 2.90351 9.41633 3.03978C9.47398 3.17605 9.6679 3.22322 9.99285 3.07646L9.99809 3.08171ZM8.00646 3.99366C7.83874 3.90456 7.76537 3.79974 7.77061 3.64251C7.43518 3.79974 7.35132 3.94125 7.42994 4.0618C7.51379 4.18758 7.71296 4.19807 8.00646 3.99366ZM8.96559 3.501C8.80836 3.39617 8.7507 3.28611 8.77691 3.12888C8.42575 3.23894 8.32093 3.37521 8.38906 3.50624C8.45196 3.63727 8.65112 3.66871 8.96559 3.50624V3.501ZM6.22448 5.23057C6.04104 5.18864 5.9467 5.09954 5.92049 4.94231C5.62699 5.16244 5.56933 5.32491 5.67416 5.42449C5.77898 5.52931 5.97814 5.49263 6.22448 5.23581V5.23057ZM7.07354 4.54398C6.89534 4.48109 6.81148 4.38675 6.79576 4.22951C6.48129 4.42344 6.4184 4.58067 6.51274 4.69073C6.61232 4.8008 6.80624 4.78507 7.07354 4.54398ZM5.46451 5.97481C5.28107 5.94336 5.18149 5.86475 5.13956 5.71275C4.86178 5.95385 4.82509 6.12156 4.9404 6.21066C5.05046 6.305 5.24438 6.25783 5.46451 5.97481ZM4.78841 6.85532C4.59972 6.8396 4.4949 6.77146 4.43725 6.61947C4.18568 6.89201 4.16471 7.05973 4.28526 7.14358C4.4058 7.2222 4.59448 7.15407 4.78841 6.85532V6.85532ZM4.22236 7.7568C4.03368 7.77252 3.91838 7.72011 3.83976 7.5786C3.63011 7.88783 3.63012 8.05554 3.76638 8.11843C3.90265 8.18133 4.07561 8.08699 4.22236 7.7568ZM3.72446 8.72116C3.53578 8.75785 3.41523 8.72116 3.32089 8.59538C3.15841 8.92033 3.17938 9.08804 3.32089 9.13521C3.4624 9.17714 3.61963 9.06184 3.72446 8.71592V8.72116ZM3.32613 9.7065C3.14793 9.77463 3.02214 9.75891 2.90684 9.6436C2.80202 9.99476 2.84919 10.1572 2.9907 10.1782C3.13745 10.1992 3.27896 10.0577 3.32613 9.7065ZM3.05883 10.8071C2.88587 10.8805 2.76009 10.8753 2.63954 10.7704C2.55044 11.1268 2.61334 11.2841 2.76009 11.2946C2.90684 11.3103 3.03787 11.1583 3.05883 10.8019V10.8071ZM2.95401 11.7191C2.78629 11.803 2.66051 11.8134 2.53472 11.7505C2.48231 12.0388 2.56092 12.1541 2.70768 12.1436C2.85443 12.1331 2.96973 12.0021 2.94877 11.7191H2.95401ZM21.4395 7.36895C21.5024 7.19075 21.5967 7.1069 21.754 7.09117C21.5653 6.7767 21.408 6.70857 21.298 6.80291C21.1879 6.90249 21.2036 7.09641 21.4395 7.36895ZM22.9542 12.4843C23.0957 12.3585 23.2162 12.3271 23.363 12.39C23.3368 12.0231 23.232 11.8868 23.0904 11.9183C22.9437 11.9549 22.8703 12.1384 22.9542 12.4843V12.4843Z" fill="#FFE300"/>
<path fill-rule="evenodd" clip-rule="evenodd" d="M21.5129 6.49895C21.5076 6.49895 21.0936 6.90776 21.1669 7.41091C21.2351 7.91406 21.5548 8.53251 21.4971 9.05138C21.4395 9.5755 21.3399 9.91617 21.3399 9.91617C21.3399 9.91617 21.8273 9.36585 21.8326 8.8365C21.8378 8.31238 21.5024 7.61007 21.5024 7.22223C21.5024 6.83438 21.5181 6.48847 21.5129 6.49371V6.49895ZM22.2728 8.17611C22.2728 8.17611 21.9479 8.41721 21.9793 8.96228C22.0108 9.50736 22.5768 10.5137 22.5768 10.5137C22.5768 10.5137 22.9909 11.3627 22.9751 11.5829C22.9647 11.803 23.0538 11.3732 23.0118 10.8858C22.9699 10.4036 22.3462 9.33441 22.3462 9.33441C22.3462 9.33441 22.2152 9.11428 22.2257 8.75264C22.2414 8.38576 22.2781 8.18136 22.2728 8.17611Z" fill="#217900" stroke="black" stroke-width="0.245124" stroke-linejoin="round"/>
<path fill-rule="evenodd" clip-rule="evenodd" d="M12.5767 1.40471C12.5767 1.28941 12.4457 1.19507 12.2885 1.19507C12.1312 1.19507 12.0054 1.28941 12.0054 1.40471C12.0054 1.51478 12.1312 1.60912 12.2885 1.60912C12.4457 1.60912 12.5715 1.51478 12.5715 1.39947L12.5767 1.40471ZM12.6973 1.87642C12.6973 1.77159 12.561 1.68249 12.4038 1.68249C12.2413 1.68249 12.1103 1.77159 12.1103 1.88166C12.1103 1.99172 12.2413 2.07558 12.4038 2.07558C12.561 2.07558 12.6973 1.98648 12.6973 1.87642ZM13.0589 1.31561C13.0589 1.31561 12.7235 1.56719 12.8597 1.66677C13.0013 1.76635 13.3839 1.44664 13.3839 1.44664L13.0589 1.31561ZM22.8965 7.0599C22.8968 7.02601 22.8888 6.99258 22.8732 6.96246C22.8577 6.93233 22.8351 6.90642 22.8074 6.88694C22.7812 6.86891 22.7501 6.85926 22.7183 6.85926C22.6865 6.85926 22.6554 6.86891 22.6292 6.88694C22.6025 6.90699 22.5809 6.93315 22.5663 6.96324C22.5517 6.99333 22.5445 7.02647 22.5454 7.0599C22.5451 7.09378 22.5531 7.12721 22.5686 7.15734C22.5841 7.18746 22.6067 7.21337 22.6345 7.23285C22.6601 7.24976 22.6902 7.25877 22.7209 7.25877C22.7517 7.25877 22.7817 7.24976 22.8074 7.23285C22.8351 7.21337 22.8577 7.18746 22.8732 7.15734C22.8888 7.12721 22.8968 7.09378 22.8965 7.0599V7.0599ZM22.7655 6.58295C22.7655 6.46241 22.6869 6.36807 22.5821 6.36807C22.4772 6.36807 22.3986 6.46241 22.3986 6.58295C22.3986 6.7035 22.4825 6.79784 22.5821 6.79784C22.6816 6.79784 22.7655 6.7035 22.7655 6.58295ZM22.8546 7.5578C22.8546 7.49491 22.8231 7.4425 22.7812 7.4425C22.7445 7.4425 22.7131 7.49491 22.7131 7.5578C22.7131 7.6207 22.7445 7.66787 22.7812 7.66787C22.8231 7.66787 22.8546 7.61546 22.8546 7.5578ZM23.1481 6.68778C23.1481 6.6144 23.1166 6.55675 23.08 6.55675C23.038 6.55675 23.0066 6.6144 23.0066 6.68778C23.0066 6.76115 23.038 6.81356 23.08 6.81356C23.1166 6.81356 23.1481 6.76115 23.1481 6.68778ZM22.3462 6.77163C22.3462 6.71922 22.3148 6.66681 22.2728 6.66681C22.2309 6.66681 22.1994 6.71922 22.1994 6.77163C22.1994 6.82404 22.2309 6.87646 22.2728 6.87646C22.3148 6.87646 22.3462 6.82929 22.3462 6.77163ZM22.472 7.46346C22.472 7.36912 22.4039 7.29051 22.32 7.29051C22.2361 7.29051 22.168 7.36912 22.168 7.46346C22.168 7.55256 22.2361 7.62594 22.3252 7.62594C22.4143 7.62594 22.472 7.55256 22.472 7.45822V7.46346ZM22.0737 7.15948C22.0737 7.08086 22.016 7.01273 21.9426 7.01273C21.8745 7.01273 21.8168 7.07562 21.8168 7.15948C21.8168 7.24334 21.8745 7.30099 21.9426 7.30099C22.016 7.30099 22.0737 7.23809 22.0737 7.15948ZM22.0108 6.75067C22.0108 6.70874 21.9898 6.66681 21.9584 6.64585C21.9412 6.63457 21.9212 6.62857 21.9007 6.62857C21.8802 6.62857 21.8602 6.63457 21.843 6.64585C21.8261 6.65742 21.8124 6.67312 21.8032 6.69146C21.7941 6.7098 21.7897 6.73018 21.7906 6.75067C21.7906 6.7926 21.8064 6.83453 21.843 6.85549C21.8596 6.8657 21.8786 6.8711 21.8981 6.8711C21.9175 6.8711 21.9366 6.8657 21.9531 6.85549C21.97 6.84392 21.9837 6.82822 21.9929 6.80988C22.0021 6.79154 22.0064 6.77116 22.0055 6.75067H22.0108ZM23.8294 8.82092C23.6617 8.60079 23.3997 8.50645 23.2372 8.61127C23.08 8.71609 23.08 8.97815 23.2477 9.19828C23.4101 9.41841 23.6774 9.5075 23.8347 9.40268C23.9972 9.29786 23.9919 9.0358 23.8294 8.82092V8.82092ZM24.3011 12.8356C24.3273 12.5683 24.1963 12.3325 24.0076 12.3115C23.8137 12.2853 23.6303 12.4845 23.5988 12.7518C23.5674 13.0138 23.6984 13.2549 23.8923 13.2759C24.0863 13.2968 24.2645 13.1029 24.2959 12.8356H24.3011ZM24.3955 15.1679C24.4479 14.9059 24.3431 14.6648 24.1544 14.6229C23.9605 14.5809 23.7665 14.7644 23.7089 15.0264C23.6565 15.2885 23.7613 15.5348 23.9552 15.5767C24.1439 15.6134 24.3431 15.4352 24.3955 15.1732V15.1679ZM24.8462 12.9824C24.8462 12.8776 24.7728 12.7937 24.689 12.7937C24.6051 12.7937 24.5317 12.8776 24.5317 12.9824C24.5317 13.0872 24.5999 13.1763 24.689 13.1763C24.7781 13.1763 24.8462 13.0872 24.8462 12.9824ZM24.4531 13.4226L24.1282 13.7895C24.1282 13.7895 23.819 13.8 23.8347 13.8996C23.8556 14.0044 24.2592 14.3031 24.254 14.4237C24.254 14.539 24.5265 14.3922 24.5265 14.3922L24.7466 13.7214C24.7466 13.7214 24.7362 13.2602 24.6156 13.2654C24.4951 13.2759 24.4636 13.4121 24.4584 13.4226H24.4531ZM2.93304 13.2759C2.93304 13.2342 2.91648 13.1942 2.88699 13.1647C2.8575 13.1352 2.81751 13.1186 2.77581 13.1186C2.73411 13.1186 2.69412 13.1352 2.66463 13.1647C2.63514 13.1942 2.61858 13.2342 2.61858 13.2759C2.61858 13.3176 2.63514 13.3576 2.66463 13.3871C2.69412 13.4165 2.73411 13.4331 2.77581 13.4331C2.81751 13.4331 2.8575 13.4165 2.88699 13.3871C2.91648 13.3576 2.93304 13.3176 2.93304 13.2759ZM3.07979 12.8042C3.07979 12.7098 3.00642 12.6365 2.92256 12.6365C2.8387 12.6365 2.76533 12.7098 2.76533 12.7989C2.76533 12.888 2.8387 12.9667 2.92256 12.9667C3.00642 12.9667 3.07979 12.8933 3.07979 12.7989V12.8042ZM1.80096 10.5348C1.74331 10.4037 1.61752 10.3304 1.52842 10.3775C1.43408 10.4142 1.40787 10.5557 1.46553 10.6868C1.52842 10.8178 1.64897 10.8912 1.73807 10.844C1.83241 10.8073 1.85861 10.6658 1.80096 10.5348ZM2.18356 11.9499C2.10494 11.7769 1.93723 11.6826 1.81668 11.7402C1.69614 11.7979 1.64897 11.9708 1.72758 12.1386C1.8062 12.3063 1.97916 12.4006 2.10494 12.3482C2.23073 12.2958 2.26218 12.1176 2.18356 11.9446V11.9499ZM2.60285 12.9824C2.62382 12.7727 2.53996 12.5736 2.40369 12.5474C2.26742 12.5159 2.14163 12.6679 2.11543 12.8776C2.08398 13.0872 2.17308 13.2864 2.30935 13.3126C2.44038 13.3388 2.57141 13.192 2.59761 12.9824H2.60285ZM1.93723 13.1291C2.01584 12.9352 1.98964 12.7256 1.86385 12.6574C1.73807 12.5893 1.58083 12.7046 1.49697 12.8985C1.41311 13.0924 1.44456 13.3073 1.56511 13.3702C1.68565 13.4331 1.85337 13.3283 1.93199 13.1344L1.93723 13.1291Z" fill="#6B18B5"/>
<path fill-rule="evenodd" clip-rule="evenodd" d="M1.63324 12.6836C1.63324 12.584 1.55462 12.5054 1.46028 12.5054C1.36594 12.5054 1.28733 12.5892 1.28733 12.6888C1.28733 12.7884 1.36594 12.867 1.46028 12.867C1.55462 12.867 1.63324 12.7884 1.63324 12.6888V12.6836ZM1.49697 12.2381C1.49841 12.2166 1.49541 12.195 1.48815 12.1747C1.48089 12.1544 1.46954 12.1358 1.45479 12.12C1.44005 12.1043 1.42222 12.0918 1.40243 12.0832C1.38264 12.0747 1.3613 12.0703 1.33974 12.0704C1.25064 12.0704 1.1825 12.1437 1.1825 12.2381C1.1825 12.3324 1.25064 12.4005 1.33974 12.4005C1.42884 12.4005 1.49697 12.3272 1.49697 12.2381ZM1.64372 11.3733C1.64372 11.216 1.57559 11.0955 1.48649 11.0955C1.40787 11.0955 1.33974 11.2213 1.33974 11.3733C1.33974 11.5253 1.40787 11.6511 1.49173 11.6511C1.57559 11.6511 1.64372 11.5253 1.64372 11.3733V11.3733ZM2.11018 11.3051C2.12591 11.1532 2.07874 11.0221 1.99488 11.0116C1.91102 11.0012 1.82716 11.1165 1.8062 11.2632C1.78523 11.4205 1.83764 11.5462 1.9215 11.562C2.00536 11.5724 2.08922 11.4571 2.11018 11.3051ZM5.42782 4.68036C5.49071 4.47071 5.42782 4.25058 5.28631 4.19817C5.1448 4.14576 4.98232 4.28203 4.91943 4.49692C4.85654 4.70656 4.91943 4.92669 5.06094 4.9791C5.20245 5.03151 5.36493 4.89524 5.42782 4.68036ZM4.79888 5.63948C4.98232 5.48225 5.06094 5.26212 4.97184 5.15206C4.88798 5.04199 4.66786 5.07868 4.47918 5.23592C4.29049 5.39315 4.21712 5.60804 4.30622 5.72334C4.39008 5.82816 4.6102 5.79672 4.79888 5.63948ZM4.43201 5.10489C4.6102 4.97386 4.69406 4.78518 4.60496 4.6856C4.51586 4.58601 4.30098 4.62794 4.11754 4.75897C3.9341 4.89524 3.85548 5.08392 3.93934 5.17826C4.0232 5.2726 4.24857 5.24116 4.43201 5.10489ZM5.84711 4.17197C5.9729 4.08287 6.02531 3.95184 5.96766 3.8837C5.90476 3.81557 5.75801 3.84177 5.63747 3.93611C5.51692 4.03045 5.45927 4.15624 5.51692 4.22438C5.57981 4.29251 5.72657 4.27155 5.84711 4.17197Z" fill="#6B18B5"/>
<path fill-rule="evenodd" clip-rule="evenodd" d="M5.10811 5.07865C5.19197 4.94763 5.19721 4.80611 5.1186 4.76419C5.04522 4.72226 4.90895 4.79039 4.83033 4.92142C4.75172 5.05245 4.73599 5.19396 4.81461 5.23589C4.89323 5.27782 5.02426 5.20968 5.10811 5.07865ZM6.1773 4.51785C6.30833 4.40779 6.36074 4.2558 6.29261 4.18766C6.21923 4.11953 6.05676 4.15097 5.92573 4.26104C5.7947 4.3711 5.74229 4.52309 5.81042 4.59647C5.87856 4.6646 6.04103 4.63316 6.1773 4.51785V4.51785ZM4.24333 5.82289C4.36387 5.81765 4.45821 5.75476 4.45297 5.68663C4.44249 5.61325 4.33243 5.56084 4.21188 5.57132C4.08609 5.57132 3.99175 5.63946 4.00223 5.70759C4.01272 5.77572 4.11754 5.82814 4.24333 5.82289ZM6.57563 3.83126C6.65949 3.69499 6.66473 3.55873 6.58611 3.5168C6.51274 3.46963 6.37647 3.543 6.29785 3.67403C6.21923 3.80506 6.20875 3.94133 6.28213 3.9885C6.36074 4.03043 6.49177 3.95705 6.57563 3.83126Z" fill="#6B18B5"/>
<path fill-rule="evenodd" clip-rule="evenodd" d="M20.6376 7.78305C20.6376 7.78305 21.0202 7.17508 20.8734 6.59855C20.7267 6.02727 20.0873 6.43084 20.103 6.63524C20.1187 6.84489 20.5118 7.11219 20.538 7.23797C20.5642 7.36376 20.4961 7.74636 20.6376 7.78305V7.78305Z" fill="#FFD200" stroke="#EF8A10" stroke-width="0.129012"/>
<path fill-rule="evenodd" clip-rule="evenodd" d="M13.2948 2.72021C13.2948 2.72021 14.6784 2.77262 14.6889 3.66885C14.6837 3.81036 14.6889 3.97284 14.6365 4.3764C14.7726 4.28697 14.8829 4.16348 14.9564 4.0182C15.03 3.87292 15.0642 3.71092 15.0558 3.5483C15.0663 2.63635 13.8241 2.01789 13.2948 2.72021V2.72021Z" fill="#217900" stroke="black" stroke-width="0.30963" stroke-linejoin="round"/>
<path fill-rule="evenodd" clip-rule="evenodd" d="M12.4143 2.67817C12.4143 2.67817 13.5306 2.44756 13.5411 3.34379C13.5516 4.23479 13.1847 4.38154 13.1847 4.38154C13.1847 4.38154 14.0442 4.1981 14.0442 3.29138C14.0495 2.37942 12.9436 1.97586 12.4143 2.67817V2.67817Z" fill="#217900" stroke="black" stroke-width="0.30963" stroke-linejoin="round"/>
<path fill-rule="evenodd" clip-rule="evenodd" d="M16.2088 22.0285C16.2088 22.0285 21.4342 20.5558 23.0066 14.1406C22.0894 20.7235 16.3713 22.8095 16.3713 22.8095L16.2036 22.0285H16.2088Z" fill="#F7DF73" stroke="black" stroke-width="0.335432" stroke-linejoin="round"/>
<path fill-rule="evenodd" clip-rule="evenodd" d="M16.7434 22.432C16.9059 22.432 17.3042 21.9865 17.5348 21.9393C17.7655 21.8869 17.7917 21.6563 17.5244 21.6458C17.2623 21.6406 17.0317 21.9446 17.0317 21.9446C17.0317 21.9446 16.8063 22.1437 16.5652 22.1647C16.3294 22.1909 16.4814 22.4896 16.7434 22.4267V22.432Z" fill="#8C1800"/>
<path fill-rule="evenodd" clip-rule="evenodd" d="M19.7571 20.1836C19.7571 20.1836 19.212 20.4981 19.2854 20.5767C19.364 20.6501 19.8462 20.278 19.8567 20.2675C19.8671 20.2622 20.0611 20.0211 19.7518 20.1836H19.7571Z" fill="#8C1800" stroke="#8C1800" stroke-width="0.335432"/>
<path fill-rule="evenodd" clip-rule="evenodd" d="M17.8598 21.6143C17.8598 21.6143 17.6973 21.5567 18.1114 21.3942C18.5307 21.2317 18.5045 21.043 18.6355 20.9697C18.777 20.8911 19.0653 20.6867 19.1229 20.8072C19.1806 20.9277 18.8189 21.1636 18.7351 21.1898C18.6512 21.216 18.2319 21.5986 18.1114 21.6301C17.9961 21.6667 17.907 21.6458 17.8598 21.6143V21.6143Z" fill="#8C1800"/>
<path d="M20.5642 19.387C20.2078 19.7853 20.2078 19.7748 20.2078 19.7748" stroke="#8C1800" stroke-width="0.399939" stroke-linecap="round"/>
<path d="M21.0988 18.7317L20.7581 19.151" stroke="#8C1800" stroke-width="0.374136" stroke-linecap="round"/>
<path d="M21.6334 17.8828L21.2508 18.4908" stroke="#8C1800" stroke-width="0.335432" stroke-linecap="round"/>
<path d="M22.0841 17.0127L21.7697 17.6417M22.2885 16.5515L22.1837 16.7769" stroke="#8C1800" stroke-width="0.30963" stroke-linecap="round"/>
<path d="M22.5192 15.9487L22.4353 16.2108" stroke="#8C1800" stroke-width="0.180617" stroke-linecap="round"/>
<path fill-rule="evenodd" clip-rule="evenodd" d="M9.35308 21.8978C9.35308 21.8978 4.16912 20.3922 2.61393 13.8577C3.52112 20.5663 9.19358 22.6865 9.19358 22.6865L9.35308 21.8978Z" fill="#F7DF73" stroke="black" stroke-width="0.331644" stroke-linejoin="round"/>
<path fill-rule="evenodd" clip-rule="evenodd" d="M8.82408 22.3011C8.66684 22.3011 8.26852 21.8503 8.03791 21.7979C7.81254 21.7455 7.79157 21.5096 8.04839 21.5044C8.31045 21.4939 8.54106 21.8084 8.54106 21.8084C8.54106 21.8084 8.76642 22.0076 9.00228 22.0338C9.23813 22.06 9.08613 22.3587 8.82408 22.2958V22.3011Z" fill="#8C1800"/>
<path fill-rule="evenodd" clip-rule="evenodd" d="M5.84394 20.0132C5.84394 20.0132 6.38228 20.341 6.30252 20.4229C6.23274 20.4946 5.75422 20.1156 5.74425 20.1054C5.73428 20.0951 5.54487 19.8493 5.84394 20.0132Z" fill="#8C1800" stroke="#8C1800" stroke-width="0.331644"/>
<path fill-rule="evenodd" clip-rule="evenodd" d="M7.72344 21.4678C7.72344 21.4678 7.88067 21.4102 7.46662 21.2424C7.05782 21.08 7.07878 20.8913 6.94251 20.8127C6.81148 20.734 6.52322 20.5244 6.47081 20.6449C6.4184 20.7655 6.76955 21.0118 6.85341 21.038C6.93727 21.0642 7.35132 21.4521 7.46662 21.4888C7.58717 21.5202 7.67103 21.5045 7.72344 21.4678V21.4678Z" fill="#8C1800"/>
<path d="M5.04641 19.2041L5.39533 19.6035" stroke="#8C1800" stroke-width="0.397972" stroke-linecap="round"/>
<path d="M4.50807 18.5383L4.84702 18.9583" stroke="#8C1800" stroke-width="0.373099" stroke-linecap="round"/>
<path d="M3.97971 17.6677L4.35854 18.2925" stroke="#8C1800" stroke-width="0.348226" stroke-linecap="round"/>
<path d="M3.53109 16.7871L3.85011 17.4323M3.33171 16.3159L3.4314 16.5412" stroke="#8C1800" stroke-width="0.323353" stroke-linecap="round"/>
<path d="M3.10242 15.7012L3.19214 15.9777" stroke="#8C1800" stroke-width="0.198986" stroke-linecap="round"/>
<path fill-rule="evenodd" clip-rule="evenodd" d="M23.2634 12.9561C23.2896 13.3596 23.6827 13.7422 23.5255 14.4498C23.3315 15.2412 22.6345 17.1385 22.7603 17.4687C22.5506 17.1856 22.5873 16.9236 22.5716 16.5253C22.5506 16.1322 23.1429 14.6699 23.1953 14.172C23.1953 13.7265 23.2372 13.1238 23.2634 12.9561V12.9561Z" fill="#217900" stroke="black" stroke-width="0.30963" stroke-linejoin="round"/>
<path fill-rule="evenodd" clip-rule="evenodd" d="M23.2634 12.9666C23.2634 12.9666 23.9028 13.7789 23.8714 14.4236C23.8347 15.063 23.4783 15.8177 23.5988 16.1532C23.3892 15.8701 23.3368 15.6867 23.3211 15.2936C23.3053 14.9005 23.6355 14.4655 23.5726 14.0357C23.5045 13.606 23.2582 12.9666 23.2582 12.9666H23.2634ZM2.22549 13.1448C2.19929 13.5483 1.90054 13.91 2.05253 14.6123C2.2517 15.4037 2.95401 16.4152 2.8387 17.5735C3.03435 17.2789 3.13496 16.9313 3.12697 16.5777C3.14269 16.1846 2.34604 14.8586 2.29363 14.3607C2.29363 13.9152 2.2517 13.3125 2.22549 13.1448Z" fill="#217900" stroke="black" stroke-width="0.30963" stroke-linejoin="round"/>
<path fill-rule="evenodd" clip-rule="evenodd" d="M2.22549 13.1553C2.22549 13.1553 1.59656 13.9414 1.63324 14.5861C1.64373 15.0106 2.4299 16.8031 2.31459 17.1385C2.51899 16.8555 2.57665 16.887 2.56616 16.4572C2.33555 15.3618 1.92675 14.6595 1.99488 14.2349C2.06302 13.8052 2.23597 13.1553 2.22549 13.1553V13.1553Z" fill="#217900" stroke="black" stroke-width="0.30963" stroke-linejoin="round"/>
<path d="M12.9064 5.95166L14.4502 10.7382H19.5027L15.4326 13.7L16.9835 18.4865L12.9134 15.5318L8.84335 18.4865L10.3872 13.7L6.31009 10.7382H11.3485L12.9064 5.95166Z" fill="white" stroke="black" stroke-width="0.259122" stroke-linecap="square" stroke-linejoin="round"/>
</g>
</g>
<defs>
<clipPath id="clip0_1_13841">
<rect width="26" height="26" fill="white"/>
</clipPath>
</defs>
</svg>
