<svg width="26" height="26" viewBox="0 0 26 26" fill="none" xmlns="http://www.w3.org/2000/svg">
<mask id="mask0_1_15489" style="mask-type:alpha" maskUnits="userSpaceOnUse" x="0" y="0" width="26" height="26">
<circle cx="13" cy="13" r="13" fill="#634848"/>
</mask>
<g mask="url(#mask0_1_15489)">
<g clip-path="url(#clip0_1_15489)">
<path d="M0.0101547 0H26.0102V26H0.0101547V0Z" fill="#012169"/>
<path d="M14.3 6.44922H24.7305L24.7152 13.8785C24.8016 16.8594 22.9379 18.7129 19.5203 19.5508C17.0879 18.9414 14.2848 17.6973 14.2797 13.9648L14.2949 6.44922H14.3Z" fill="white"/>
<path d="M14.5285 6.67261H24.502L24.4918 13.7921C24.573 16.6511 22.7957 18.4234 19.5254 19.2257C17.1996 18.6468 14.5184 17.4484 14.5184 13.8734L14.5285 6.67261V6.67261Z" fill="#00A2BD" stroke="black" stroke-width="0.225"/>
<path d="M24.4258 14.6353C24.0602 17.3622 21.9578 18.5556 19.5203 19.1903C17.3672 18.6114 15.0516 17.6872 14.5945 14.6454L24.4258 14.6353Z" fill="#A53D08"/>
<path d="M19.1293 7.998L19.1141 7.10425L19.825 7.10933L19.8301 7.998H21.7699L21.775 8.6937L19.8301 8.70386L19.8148 16.9L19.1242 16.905L19.1141 8.6937L17.1844 8.70386V7.99292L19.1293 7.998Z" fill="black"/>
<path fill-rule="evenodd" clip-rule="evenodd" d="M17.5602 14.9703L19.3375 16.8136C19.9469 16.1382 19.5203 13.6144 18.7129 13.1523C18.6164 13.4519 18.4539 13.8125 18.2762 13.9242C17.8902 14.1882 16.9508 14.4929 17.2605 14.6859C17.3367 14.5894 17.5246 14.498 17.616 14.7164C17.7176 15.0667 17.2199 15.0871 17.2199 15.0871C17.2199 15.0871 16.9051 15.0464 16.8492 14.7316C16.7984 14.4066 17.3215 14.1121 17.3621 14.0917C17.4129 14.0765 18.0934 13.8886 18.2102 13.2843C18.3523 12.6851 18.5047 12.7765 18.5301 12.7664C19.4289 12.8527 20.0129 14.4574 20.0484 15.5847C20.0789 16.7121 19.5914 17.4636 19.5 17.5144C19.4086 17.5601 17.3672 15.082 17.3672 15.082L17.5602 14.9703V14.9703Z" fill="#FF9A08" stroke="black" stroke-width="0.1"/>
<path d="M18.85 13.2539L18.8652 16.5801ZM18.6519 13.3199L18.6621 16.3363ZM18.4336 13.7566L18.4488 16.1535ZM18.2609 13.9242L18.2711 15.9098ZM18.073 14.0156V15.6914ZM17.8699 14.1477V15.473ZM17.6922 14.2543V15.2699Z" fill="#FF9A08"/>
<path d="M18.85 13.2539L18.8652 16.5801M18.6519 13.3199L18.6621 16.3363M18.4336 13.7566L18.4488 16.1535M18.2609 13.9242L18.2711 15.9098M18.073 14.0156V15.6914M17.8699 14.1477V15.473M17.6922 14.2543V15.2699" stroke="black" stroke-width="0.1"/>
<path d="M17.5297 15.1836L19.3578 17.2758" stroke="#FFDF00" stroke-width="0.125" stroke-linecap="round"/>
<path d="M19.4492 13.8633C19.4492 13.8633 20.277 15.6762 19.5102 17.1641M17.3164 14.7977C17.3164 14.7977 17.3773 14.6402 17.4535 14.7063M17.1691 14.3355C17.1691 14.3355 16.8391 14.6301 17.0168 14.818" stroke="#FFDF00" stroke-width="0.175" stroke-linecap="round"/>
<path d="M19.8352 9.71957C19.957 9.61801 20.0231 9.552 20.0992 9.56723C20.1754 9.57739 20.277 9.56723 20.3531 9.54692C20.553 9.5005 20.76 9.4936 20.9625 9.52661C21.0133 9.53676 21.0844 9.56215 21.1961 9.65356C21.3027 9.74496 21.4602 9.90746 21.4094 10.3442C21.3586 10.7809 21.3738 10.9688 21.3484 11.2176C21.3078 11.6493 21.2113 12.0047 21.0438 11.9793C21.2723 12.3856 21.2977 12.7411 21.45 13.0204C21.6023 13.2997 21.6938 13.8735 21.6379 14.493C21.577 15.1176 21.4145 16.509 21.907 17.4485C21.8258 17.5043 21.6277 17.4485 21.45 17.2606C21.2723 17.0727 21.1961 17.0778 21.0488 17.1895C20.607 17.5297 20.1856 17.9411 19.5762 17.5297C19.434 17.4383 19.3883 17.3266 19.4949 17.0372C19.7488 16.3262 19.8758 15.3411 19.8352 14.884V9.71957Z" fill="#008021" stroke="black" stroke-width="0.0375"/>
<path d="M20.2617 9.2827C20.2922 9.38426 20.3074 9.51122 20.2566 9.62801C20.2059 9.74481 20.1906 9.88192 20.277 10.0546C20.4191 9.85653 20.6172 9.90223 20.734 9.78036C20.8508 9.66356 20.8762 9.55184 20.9625 9.52645C20.8762 9.45028 20.7391 9.37411 20.7695 9.14559C20.8 8.92723 21.1098 8.73934 20.8305 8.40418C20.7639 8.32353 20.669 8.27128 20.5652 8.25807C20.4615 8.24486 20.3566 8.27169 20.2719 8.33309C20.2219 8.36745 20.1803 8.41257 20.15 8.46512C20.1348 8.50575 20.1551 8.59208 20.1145 8.64286L20.0129 8.74442C19.9824 8.75965 19.9621 8.78504 19.9926 8.82059C20.0027 8.83075 20.0281 8.83583 20.0484 8.8409C20.0373 8.86752 20.0237 8.89302 20.0078 8.91708C19.9926 8.93231 19.9977 8.94754 20.0129 8.96786C19.9926 9.03387 20.0332 9.04403 20.0078 9.09481C19.9824 9.14051 19.9469 9.19637 20.0383 9.24715C20.0688 9.26239 20.1906 9.29286 20.2566 9.2827H20.2617ZM19.1191 10.4456C18.9566 10.4913 18.6926 10.4202 18.4895 10.4456C18.4031 10.4507 18.3371 10.405 18.3473 10.3186C18.3574 10.2323 18.3676 10.0952 18.3473 9.97333C18.3219 9.78036 18.4133 9.51629 18.5453 9.22176C18.6457 9.03912 18.7112 8.83935 18.7383 8.6327C18.7383 8.54129 18.7484 8.43973 18.8297 8.38895C18.8906 8.34833 18.9008 8.31278 18.9211 8.28231C18.9719 8.20614 19.0227 8.1909 19.0227 8.23153C19.0277 8.25692 19.0227 8.28231 18.9973 8.31786C19.0481 8.27215 19.1395 8.22137 19.1598 8.20614C19.1801 8.19598 19.2816 8.11981 19.2867 8.1909C19.3273 8.17059 19.3578 8.17059 19.368 8.1909C19.3781 8.21629 19.368 8.22645 19.3527 8.24169C19.3781 8.24169 19.4137 8.29247 19.3527 8.33309C19.3883 8.32294 19.4188 8.37372 19.3629 8.4245C19.307 8.4702 19.241 8.50575 19.2207 8.54129C19.2004 8.58192 19.0633 8.68856 19.0074 8.70887C18.9516 8.73426 18.9465 8.76473 18.9465 8.84598C18.9465 9.74989 18.8398 9.67879 18.8398 9.89208C18.8398 9.95301 18.8297 10.0038 18.8906 9.98856C18.9414 9.96825 19.0328 9.94286 19.1191 9.94286V10.4507V10.4456ZM19.1547 12.3905C19.4188 12.2585 19.7234 12.2128 19.8809 12.1722C20.0332 12.1315 20.2871 12.0046 20.4141 11.9436C20.5359 11.8776 20.6375 11.7913 20.7035 11.7659C20.7746 11.7405 20.8559 11.6948 20.8965 11.6085C21.125 11.1616 21.252 10.8061 21.252 10.4913C21.252 10.2882 21.2012 10.0597 20.9981 10.2272C20.8102 10.3796 20.607 10.6792 20.5512 10.8925C20.4699 11.2225 20.3988 11.2936 20.3836 11.3546C20.3633 11.4206 20.2973 11.4206 20.2211 11.4358C19.9663 11.4767 19.7285 11.5895 19.5356 11.7608C19.3035 11.9315 19.0609 12.0876 18.8094 12.228C18.6215 12.3296 18.5859 12.3448 18.5453 12.4311C18.5151 12.4988 18.4758 12.562 18.4285 12.619C18.4135 12.6362 18.4025 12.6565 18.3963 12.6785C18.3901 12.7004 18.389 12.7235 18.393 12.746L18.3777 13.0202C18.3777 13.0761 18.3879 13.0913 18.4133 13.0964C18.4336 13.0964 18.4641 13.0862 18.4793 13.0151C18.4691 13.0862 18.5656 13.0659 18.5707 13.0151C18.5707 13.0862 18.6723 13.0405 18.6723 12.9745C18.6723 13.0253 18.7535 12.9897 18.7586 12.9643L18.8145 12.7917C18.85 12.7257 18.8855 12.6393 18.9566 12.5886C19.0328 12.5378 18.9973 12.4718 19.1547 12.3905V12.3905ZM21.0488 17.1893L21.1148 17.3722C21.125 17.4179 21.1047 17.428 21.0945 17.4534C21.0263 17.5949 20.9784 17.7454 20.9523 17.9003C20.9523 17.9612 20.9016 18.0272 20.8863 18.0628C20.8609 18.1034 20.8711 18.139 20.9219 18.1796C20.9473 18.1948 21.0234 18.1694 21.0387 18.1288C21.0641 18.1593 21.1199 18.1491 21.1402 18.1034C21.1707 18.1288 21.2113 18.1136 21.2418 18.0679C21.2672 18.0882 21.3078 18.0526 21.323 18.0272C21.3637 18.0475 21.4043 18.0272 21.4094 17.9409L21.4297 17.88C21.4398 17.8597 21.4449 17.8241 21.4449 17.7936C21.4449 17.7581 21.4652 17.6921 21.4906 17.6515C21.516 17.6007 21.5668 17.5245 21.5414 17.4483C21.5262 17.3772 21.4957 17.3823 21.4703 17.2807C21.4043 17.2147 21.318 17.1182 21.2266 17.1132C21.1352 17.1081 21.0844 17.169 21.0488 17.1893V17.1893ZM19.3832 17.6921C19.4645 17.7733 19.6523 17.7784 19.7793 17.6413C19.7285 17.621 19.627 17.5753 19.5863 17.5397C19.5203 17.6007 19.4441 17.6718 19.3832 17.6921Z" fill="#FFE1CF" stroke="black" stroke-width="0.0375"/>
<path d="M20.2109 8.37885C20.2465 8.17573 20.3937 8.17573 20.4852 8.20112C20.5258 8.20619 20.6172 8.21635 20.7035 8.19096C20.8813 8.14526 21.0082 8.20619 20.993 8.37377C21.0437 8.40932 21.0895 8.49057 21.0793 8.56166C21.0691 8.63276 21.0844 8.66323 21.1504 8.6683C21.2164 8.67846 21.3535 8.75971 21.2621 8.87143C21.3484 8.92221 21.4145 9.05932 21.3687 9.14565C21.323 9.23705 21.1809 9.25229 21.125 9.17104C21.059 9.20151 20.9523 9.20658 20.8914 9.14057C20.8457 9.19135 20.7391 9.18627 20.7137 9.14057C20.6934 9.08979 20.6629 9.06948 20.6172 9.05424C20.5664 9.03901 20.5664 8.91205 20.6375 8.89682C20.6273 8.85619 20.6324 8.81557 20.6477 8.79526C20.668 8.77494 20.6527 8.73432 20.6121 8.70385C20.5715 8.6683 20.5359 8.55151 20.5766 8.48041C20.5055 8.5058 20.3531 8.43471 20.3227 8.38901C20.2871 8.33823 20.2414 8.33823 20.216 8.37885H20.2109Z" fill="#870F00" stroke="black" stroke-width="0.0375"/>
<path d="M20.2617 9.28291C20.3734 9.26767 20.4141 9.19658 20.4953 9.20166M20.0129 8.96299L20.0434 8.9833C20.0637 8.99345 20.0941 8.99853 20.1145 8.99853M20.0484 8.84111L20.0992 8.87158M20.3125 8.379C20.2465 8.31806 20.4293 8.18603 20.6172 8.37392C20.6527 8.40439 20.7441 8.40947 20.7695 8.39931M20.5766 8.48056C20.6629 8.46025 20.7949 8.46025 20.8305 8.55674C20.8711 8.6583 20.9473 8.59228 21.0082 8.70908C21.0691 8.83095 21.1707 8.96299 21.2621 8.87158M20.8914 9.14072C20.8762 9.11588 20.8665 9.08805 20.863 9.05914C20.8595 9.03023 20.8623 9.0009 20.8711 8.97314C20.8355 8.93252 20.8508 8.85127 20.8711 8.81064M20.6375 8.89697C20.6375 8.93252 20.6883 8.99853 20.7594 9.00869M21.125 9.17119C21.0844 9.12041 21.0895 9.06963 21.0996 9.00869" stroke="black" stroke-width="0.0375"/>
<path d="M20.6984 8.58706C20.6984 8.63784 20.7238 8.70894 20.7797 8.7394C20.7949 8.7648 20.8508 8.84605 20.9676 8.83589M20.993 8.37886C20.917 8.31115 20.8239 8.26549 20.7238 8.24683M20.277 10.0546C20.1754 10.1917 20.1145 10.3796 20.1602 10.6437C20.2109 10.9027 20.282 11.2937 20.0891 11.4664M21.0387 11.9792C20.9066 11.9488 20.7137 11.9488 20.607 12.025C20.5473 12.0619 20.4792 12.0831 20.4091 12.0867C20.3389 12.0902 20.269 12.076 20.2059 12.0453" stroke="black" stroke-width="0.0375"/>
<path d="M20.7543 11.9691C20.6375 11.9895 20.5816 12.0707 20.5816 12.2891C20.5816 12.5023 20.5359 12.8223 20.5766 13.132M20.541 12.0605C20.4648 12.0809 20.3887 12.0809 20.3988 12.2891M20.1449 12.2891C20.1449 12.1672 20.1957 12.0504 20.277 12.0707M20.9879 12.3145C20.9981 12.0402 20.9371 11.959 20.8508 11.959C20.9625 11.9641 21.0387 11.9793 21.0844 12.4363C21.1199 12.7715 21.191 12.8934 21.2723 13.1625C21.4856 13.8531 21.3789 14.9195 21.4856 15.2953M20.8305 12.4008C21.1186 13.212 21.1097 14.0991 20.8051 14.9043C21.0488 15.5848 21.2977 16.0773 21.3434 16.3566M20.1246 13.9191C20.1652 13.777 20.0231 13.7566 20.15 13.2437C20.2008 13.0203 20.216 12.8883 20.1805 12.8121" stroke="black" stroke-width="0.0375"/>
<path d="M20.1805 13.1167C20.1297 13.3452 20.348 13.7769 20.2363 14.0815M19.957 14.1425C19.957 14.3456 20.0078 14.5995 19.9977 14.8026C19.9875 15.0007 20.0688 15.0921 20.1602 15.28C20.5004 15.9604 20.734 16.4479 20.6984 17.0827C20.6984 17.1995 20.734 17.4483 20.6121 17.5194M19.9723 17.6921C20.0078 17.6921 20.0434 17.6769 20.0891 17.5702C20.1297 17.4687 20.2719 16.8339 20.216 16.4022M20.282 16.8897C20.3095 17.1019 20.2868 17.3176 20.216 17.5194" stroke="black" stroke-width="0.0375"/>
<path d="M20.5055 16.4888C20.5562 16.7731 20.5562 17.0321 20.5105 17.2149M20.3887 17.2149C20.3938 17.3317 20.4496 17.6212 20.3582 17.6466M20.8305 15.854C21.0438 16.1942 21.2164 17.0321 21.3941 17.2099M21.0184 17.0728C21.0082 16.9813 21.0031 16.8493 20.9523 16.7935M18.6773 12.9747C18.6773 12.9087 18.6672 12.8478 18.7383 12.7462M18.5707 13.0103C18.5809 12.7868 18.5758 12.7665 18.6418 12.7056M18.4844 13.0153C18.4844 12.8579 18.4641 12.8021 18.525 12.6954M19.2867 8.18604L19.0531 8.35869M19.3477 8.23682C19.3223 8.24189 19.2461 8.30791 19.0988 8.41963M19.3578 8.32822C19.307 8.34854 19.2258 8.42979 19.1445 8.49072M18.9922 8.31299L18.9109 8.39424M21.0387 18.129C21.0234 18.1138 21.0234 18.063 21.0488 18.0071M21.1402 18.1036C21.125 18.0884 21.1402 18.0173 21.1605 17.9716M21.2418 18.0681C21.2215 18.0579 21.2164 18.0173 21.2418 17.9665M21.323 18.0274C21.3078 18.0274 21.3027 18.0021 21.323 17.936" stroke="black" stroke-width="0.0375"/>
<path d="M20.1703 8.56673C20.2109 8.61751 20.2566 8.61751 20.2617 8.65305L20.282 8.70384H20.2516L20.1805 8.69876C20.1602 8.69876 20.1348 8.67337 20.15 8.66829C20.1652 8.66829 20.1652 8.66321 20.1602 8.65305L20.1754 8.62259C20.1855 8.61751 20.1754 8.62259 20.1754 8.60227C20.1652 8.58704 20.1602 8.55149 20.1703 8.56673V8.56673ZM20.1957 8.51594C20.2599 8.52242 20.3203 8.54909 20.3684 8.59212C20.4039 8.63274 20.3734 8.62259 20.3582 8.62259C20.3379 8.62259 20.3074 8.61243 20.2871 8.59212C20.2719 8.5718 20.216 8.54134 20.1855 8.53626C20.1754 8.53118 20.1602 8.51087 20.1957 8.51594Z" fill="black"/>
<path d="M0.0101547 0H13.0102V13H0.0101547V0Z" fill="#012169"/>
<path d="M13.0102 0V1.625L8.18594 6.5L13.0102 11.248V13H11.309L6.45937 8.22656L1.73672 13H0.0101547V11.2734L4.73281 6.52539L0.0101547 1.87891V0H1.58437L6.45937 4.77344L11.182 0H13.0102Z" fill="white"/>
<path d="M4.68203 8.22656L4.96133 9.08984L1.07656 13H0.0101547V12.9238L4.68203 8.22656ZM7.83047 7.92188L9.20156 8.125L13.0102 11.8574V13L7.83047 7.92188ZM13.0102 0L8.13515 4.97656L8.03359 3.85938L11.8422 0H13.0102ZM0.0101547 0.0253906L4.91055 4.82422L3.4125 4.62109L0.0101547 1.24414V0.0253906Z" fill="#C8102E"/>
<path d="M4.4789 0V13H8.5414V0H4.4789ZM0.0101547 4.46875V8.53125H13.0102V4.46875H0.0101547Z" fill="white"/>
<path d="M0.0101547 5.28125V7.71875H13.0102V5.28125H0.0101547ZM5.2914 0V13H7.7289V0H5.2914Z" fill="#C8102E"/>
</g>
</g>
<defs>
<clipPath id="clip0_1_15489">
<rect width="26" height="26" fill="white"/>
</clipPath>
</defs>
</svg>
