<svg width="26" height="26" viewBox="0 0 26 26" fill="none" xmlns="http://www.w3.org/2000/svg">
<mask id="mask0_1_11162" style="mask-type:alpha" maskUnits="userSpaceOnUse" x="0" y="0" width="26" height="26">
<circle cx="13" cy="13" r="13" fill="#634848"/>
</mask>
<g mask="url(#mask0_1_11162)">
<rect x="-4.33333" width="34.6667" height="26" fill="#F7FCFF"/>
<mask id="mask1_1_11162" style="mask-type:alpha" maskUnits="userSpaceOnUse" x="-5" y="0" width="36" height="26">
<rect x="-4.33333" width="34.6667" height="26" fill="white"/>
</mask>
<g mask="url(#mask1_1_11162)">
<mask id="path-4-inside-1_1_11162" fill="white">
<path fill-rule="evenodd" clip-rule="evenodd" d="M6.4974 4.33374H2.16406V7.57663C1.68825 7.6909 1.33464 8.11918 1.33464 8.63005C1.33464 8.64244 1.33484 8.65478 1.33526 8.66707H-2.16927V13.0004H1.442C1.58153 13.2891 1.84539 13.5065 2.16406 13.583V17.3337H6.4974V13.597C6.84623 13.5366 7.13787 13.3093 7.28717 13.0004H10.8307V8.66707H7.39391C7.39432 8.65478 7.39453 8.64244 7.39453 8.63005C7.39453 8.09523 7.00698 7.65092 6.4974 7.56265V4.33374Z"/>
</mask>
<path fill-rule="evenodd" clip-rule="evenodd" d="M6.4974 4.33374H2.16406V7.57663C1.68825 7.6909 1.33464 8.11918 1.33464 8.63005C1.33464 8.64244 1.33484 8.65478 1.33526 8.66707H-2.16927V13.0004H1.442C1.58153 13.2891 1.84539 13.5065 2.16406 13.583V17.3337H6.4974V13.597C6.84623 13.5366 7.13787 13.3093 7.28717 13.0004H10.8307V8.66707H7.39391C7.39432 8.65478 7.39453 8.64244 7.39453 8.63005C7.39453 8.09523 7.00698 7.65092 6.4974 7.56265V4.33374Z" fill="#A0A0A0"/>
<path d="M2.16406 4.33374V3.33374H1.16406V4.33374H2.16406ZM6.4974 4.33374H7.4974V3.33374H6.4974V4.33374ZM2.16406 7.57663L2.39758 8.54898L3.16406 8.3649V7.57663H2.16406ZM1.33526 8.66707V9.66707H2.36942L2.33469 8.6335L1.33526 8.66707ZM-2.16927 8.66707V7.66707H-3.16927V8.66707H-2.16927ZM-2.16927 13.0004H-3.16927V14.0004H-2.16927V13.0004ZM1.442 13.0004L2.34238 12.5653L2.06939 12.0004H1.442V13.0004ZM2.16406 13.583H3.16406V12.7948L2.39758 12.6107L2.16406 13.583ZM2.16406 17.3337H1.16406V18.3337H2.16406V17.3337ZM6.4974 17.3337V18.3337H7.4974V17.3337H6.4974ZM6.4974 13.597L6.32671 12.6117L5.4974 12.7553V13.597H6.4974ZM7.28717 13.0004V12.0004H6.65978L6.38679 12.5653L7.28717 13.0004ZM10.8307 13.0004V14.0004H11.8307V13.0004H10.8307ZM10.8307 8.66707H11.8307V7.66707H10.8307V8.66707ZM7.39391 8.66707L6.39448 8.6335L6.35975 9.66707H7.39391V8.66707ZM6.4974 7.56265H5.4974V8.40432L6.32672 8.54798L6.4974 7.56265ZM2.16406 5.33374H6.4974V3.33374H2.16406V5.33374ZM3.16406 7.57663V4.33374H1.16406V7.57663H3.16406ZM2.33464 8.63005C2.33464 8.60941 2.34087 8.59298 2.35238 8.57857C2.36509 8.56265 2.3816 8.55282 2.39758 8.54898L1.93054 6.60428C1.01552 6.82403 0.334637 7.6463 0.334637 8.63005H2.33464ZM2.33469 8.6335C2.33466 8.6324 2.33464 8.63125 2.33464 8.63005H0.334637C0.334637 8.65362 0.335032 8.67716 0.335821 8.70065L2.33469 8.6335ZM-2.16927 9.66707H1.33526V7.66707H-2.16927V9.66707ZM-1.16927 13.0004V8.66707H-3.16927V13.0004H-1.16927ZM1.442 12.0004H-2.16927V14.0004H1.442V12.0004ZM2.39758 12.6107C2.37553 12.6054 2.35368 12.5887 2.34238 12.5653L0.54163 13.4355C0.809375 13.9896 1.31525 14.4076 1.93054 14.5554L2.39758 12.6107ZM3.16406 17.3337V13.583H1.16406V17.3337H3.16406ZM6.4974 16.3337H2.16406V18.3337H6.4974V16.3337ZM5.4974 13.597V17.3337H7.4974V13.597H5.4974ZM6.66808 14.5823C7.34191 14.4656 7.9012 14.028 8.18754 13.4355L6.38679 12.5653C6.37455 12.5906 6.35054 12.6076 6.32671 12.6117L6.66808 14.5823ZM10.8307 12.0004H7.28717V14.0004H10.8307V12.0004ZM9.83073 8.66707V13.0004H11.8307V8.66707H9.83073ZM7.39391 9.66707H10.8307V7.66707H7.39391V9.66707ZM6.39453 8.63005C6.39453 8.63125 6.39451 8.6324 6.39448 8.6335L8.39335 8.70065C8.39414 8.67716 8.39453 8.65362 8.39453 8.63005H6.39453ZM6.32672 8.54798C6.34382 8.55094 6.36123 8.5602 6.37506 8.57647C6.38779 8.59145 6.39453 8.60867 6.39453 8.63005H8.39453C8.39453 7.60053 7.64876 6.7472 6.66808 6.57733L6.32672 8.54798ZM5.4974 4.33374V7.56265H7.4974V4.33374H5.4974Z" fill="#FECA00" mask="url(#path-4-inside-1_1_11162)"/>
<path fill-rule="evenodd" clip-rule="evenodd" d="M13 0H30.3333V26H13V0Z" fill="#E31D1C"/>
<mask id="mask2_1_11162" style="mask-type:alpha" maskUnits="userSpaceOnUse" x="13" y="0" width="18" height="26">
<path fill-rule="evenodd" clip-rule="evenodd" d="M13 0H30.3333V26H13V0Z" fill="white"/>
</mask>
<g mask="url(#mask2_1_11162)">
</g>
</g>
</g>
</svg>
