<svg width="26" height="26" viewBox="0 0 26 26" fill="none" xmlns="http://www.w3.org/2000/svg">
<mask id="mask0_1_13636" style="mask-type:alpha" maskUnits="userSpaceOnUse" x="0" y="0" width="26" height="26">
<circle cx="13" cy="13" r="13" fill="#634848"/>
</mask>
<g mask="url(#mask0_1_13636)">
<g clip-path="url(#clip0_1_13636)">
<path fill-rule="evenodd" clip-rule="evenodd" d="M-6.59141 0H32.4089V26.0015H-6.59141V0Z" fill="#F41408"/>
<path fill-rule="evenodd" clip-rule="evenodd" d="M-6.59141 17.3318H32.4089V26.0014H-6.59141V17.3318Z" fill="#21873B"/>
<path fill-rule="evenodd" clip-rule="evenodd" d="M-6.59141 0H32.4089V8.66593H-6.59141V0Z" fill="black"/>
<path fill-rule="evenodd" clip-rule="evenodd" d="M8.13553 7.85133C8.68003 6.5256 9.72883 5.47046 11.0512 4.91796C12.3736 4.36547 13.8614 4.36088 15.1871 4.9052C15.8538 5.16756 16.4592 5.56461 16.9655 6.07152C17.4718 6.57844 17.8681 7.18433 18.1296 7.85133H8.13553ZM6.81473 8.21088C5.91692 8.14214 5.02686 7.99482 4.15478 7.77061C3.94933 7.69723 3.93832 7.57249 3.964 7.4771C3.98505 7.41495 4.02909 7.36321 4.08709 7.33251C4.14508 7.30181 4.21262 7.29447 4.27586 7.312C4.5657 7.38538 5.73975 7.69723 6.8184 8.21088H6.81473ZM13.1472 3.39729C12.9344 2.22324 12.8794 0.928121 12.9014 0.711657C12.9198 0.491523 13.0408 0.454834 13.1399 0.454834C13.2048 0.45948 13.2655 0.488576 13.3098 0.536245C13.354 0.583915 13.3786 0.646605 13.3784 0.711657C13.3784 1.01251 13.371 2.22691 13.1472 3.39729ZM13.7343 3.42664C13.6506 2.52873 13.6445 1.62529 13.7159 0.726332C13.7563 0.509867 13.8774 0.480516 13.9764 0.491523C14.0755 0.498861 14.2076 0.612596 14.1929 0.770359C14.1672 1.06387 14.0571 2.27461 13.7343 3.42664V3.42664ZM14.2626 3.50002C14.2479 2.30396 14.4093 1.01984 14.4717 0.807048C14.5267 0.594252 14.6515 0.575908 14.7506 0.594252C14.8136 0.60998 14.8683 0.649005 14.9037 0.703467C14.9391 0.757929 14.9525 0.823782 14.9413 0.887764C14.89 1.18128 14.6808 2.37733 14.2626 3.49635V3.50002ZM14.8239 3.62109C14.9157 2.43237 15.1908 1.1666 15.2642 0.961141C15.3376 0.755683 15.466 0.748346 15.5614 0.774028C15.6227 0.795061 15.6738 0.838525 15.7045 0.89569C15.7351 0.952856 15.743 1.01949 15.7265 1.08221C15.6494 1.37206 15.3376 2.5461 14.8239 3.62109ZM15.3743 3.7972C15.5216 2.90856 15.7462 2.03448 16.0457 1.18494C16.1411 0.986824 16.2658 0.990493 16.3612 1.02351C16.4213 1.05019 16.469 1.09893 16.4942 1.15969C16.5195 1.22045 16.5205 1.28859 16.4969 1.35004C16.3942 1.62888 15.976 2.76991 15.3706 3.7972H15.3743ZM15.8879 4.01366C16.1814 2.85429 16.6731 1.65823 16.7868 1.46745C16.8969 1.27667 17.0216 1.29134 17.1097 1.33537C17.1661 1.36654 17.2088 1.4178 17.2292 1.47898C17.2495 1.54015 17.2462 1.60676 17.2197 1.66557C17.0913 1.94074 16.5813 3.0414 15.8879 4.01366V4.01366ZM16.3942 4.27782C16.6954 3.42821 17.0686 2.60584 17.5096 1.81966C17.6343 1.63989 17.759 1.66557 17.8471 1.71693C17.9001 1.7541 17.937 1.8099 17.9507 1.87316C17.9643 1.93642 17.9535 2.00248 17.9205 2.05814C17.7737 2.31496 17.1684 3.36794 16.3942 4.27782ZM16.8712 4.58234C17.2444 3.76231 17.6888 2.9766 18.1993 2.23425C18.3387 2.06548 18.4598 2.10217 18.5405 2.16087C18.5903 2.20186 18.6229 2.26009 18.6317 2.32399C18.6406 2.38789 18.625 2.45278 18.5882 2.50575C18.4158 2.75156 17.7224 3.74583 16.8712 4.58234V4.58234ZM17.3188 4.93088C17.9058 3.88892 18.6909 2.86163 18.8487 2.70387C19.0028 2.54977 19.1202 2.5938 19.1973 2.65984C19.2706 2.72588 19.3147 2.89098 19.2119 3.01205C19.0211 3.23952 18.2433 4.17142 17.3188 4.93088ZM17.7407 5.31612C18.2504 4.57317 18.8237 3.8759 19.4541 3.23219C19.6228 3.09277 19.7366 3.1478 19.8063 3.21751C19.8492 3.26701 19.8717 3.33105 19.8689 3.39653C19.8662 3.46201 19.8385 3.52397 19.7916 3.56973C19.1604 4.21219 18.4728 4.79667 17.737 5.31612H17.7407ZM18.1223 5.73804C18.8817 4.81715 19.8356 3.94028 20.0154 3.81554C20.1989 3.6908 20.3016 3.75684 20.3676 3.83022C20.4059 3.88304 20.4227 3.94846 20.4145 4.01319C20.4064 4.07793 20.3738 4.13713 20.3236 4.17876C19.6366 4.76165 18.9001 5.2834 18.1223 5.73804V5.73804ZM18.4525 6.17097C19.0823 5.52544 19.7673 4.93618 20.4997 4.4099C20.6905 4.29983 20.7932 4.37688 20.8483 4.46127C20.907 4.54198 20.907 4.71075 20.7749 4.80247C20.0438 5.32607 19.2679 5.78402 18.4561 6.17097H18.4525ZM18.7533 6.64059C19.4361 6.05191 20.169 5.52402 20.9436 5.06297C21.1418 4.97124 21.2372 5.05563 21.2885 5.14001C21.3362 5.2244 21.3252 5.39683 21.1858 5.47755C20.929 5.62431 19.8797 6.24068 18.7533 6.64059V6.64059ZM19.0322 7.17625C19.7671 6.65471 20.5453 6.19688 21.3582 5.80775C21.5637 5.73437 21.6517 5.8261 21.6921 5.91782C21.7148 5.97838 21.7138 6.04526 21.6893 6.10511C21.6648 6.16497 21.6186 6.21338 21.56 6.24068C20.7465 6.62614 19.9006 6.93921 19.0322 7.17625V7.17625ZM19.2449 7.69356C20.0196 7.23437 20.8336 6.84515 21.6774 6.53052C21.8902 6.47549 21.9709 6.57455 22.004 6.66627C22.0406 6.75799 21.9929 6.92309 21.8425 6.97813C20.9996 7.2933 20.1303 7.53273 19.2449 7.69356V7.69356ZM19.4137 8.2439C20.2283 7.85501 21.0754 7.53827 21.9453 7.29732C22.158 7.26063 22.2278 7.36336 22.2534 7.46242C22.265 7.52541 22.2525 7.59043 22.2186 7.64472C22.1847 7.69902 22.1317 7.73868 22.07 7.75593C21.7765 7.83665 20.6061 8.14851 19.4137 8.24023V8.2439ZM12.5749 3.41563C12.3332 2.54996 12.1675 1.66484 12.0796 0.770359C12.0796 0.550225 12.1933 0.50253 12.2924 0.491523C12.3581 0.490417 12.4217 0.514523 12.4701 0.558881C12.5186 0.603239 12.5482 0.664477 12.5529 0.730001C12.5822 1.02351 12.6886 2.23425 12.5749 3.42297V3.41563ZM12.0099 3.48901C11.6933 2.646 11.4515 1.7768 11.2871 0.891432C11.2688 0.671299 11.3788 0.612596 11.4742 0.594252C11.5396 0.586769 11.6054 0.604674 11.6579 0.644271C11.7105 0.683868 11.7459 0.742136 11.7567 0.807048C11.8081 1.10056 12.0209 2.29662 12.0099 3.48901ZM11.4485 3.61375C11.0587 2.80045 10.7407 1.9546 10.4983 1.08588C10.4616 0.869419 10.568 0.79971 10.6634 0.774028C10.7269 0.76267 10.7923 0.775609 10.8467 0.810276C10.9011 0.844942 10.9404 0.898798 10.9569 0.961141C11.0376 1.25098 11.3532 2.42136 11.4485 3.61375ZM10.9202 3.77885C10.4634 3.00223 10.0754 2.18706 9.76086 1.34271C9.70582 1.12991 9.80488 1.04919 9.8966 1.01617C9.95937 0.998459 10.0265 1.00528 10.0844 1.03526C10.1423 1.06524 10.1867 1.11613 10.2085 1.17761C10.3112 1.46011 10.7258 2.59747 10.9202 3.77885V3.77885ZM10.4066 3.98798C9.88342 3.25533 9.4255 2.47821 9.03808 1.66557C8.96471 1.45644 9.05276 1.37206 9.14448 1.3317C9.20549 1.30795 9.27327 1.30839 9.33396 1.33294C9.39465 1.35749 9.44367 1.40429 9.47101 1.46378C9.59575 1.73528 10.1057 2.83595 10.4029 3.99532L10.4066 3.98798ZM9.8856 4.25948C9.29885 3.5743 8.7734 2.83892 8.31531 2.06181C8.22359 1.86369 8.3043 1.7683 8.38869 1.7206C8.44743 1.69137 8.51512 1.68573 8.57789 1.70483C8.64066 1.72393 8.69373 1.76633 8.72623 1.82333C8.87665 2.08015 9.48569 3.13313 9.8856 4.25948ZM9.40864 4.56033C8.76532 3.92787 8.17851 3.24039 7.65491 2.50575C7.54484 2.31496 7.61822 2.21223 7.70261 2.1572C7.75904 2.12481 7.82544 2.11439 7.88908 2.12793C7.95272 2.14147 8.00912 2.17802 8.04748 2.23058C8.21992 2.47639 8.91334 3.47067 9.40864 4.56033ZM8.96471 4.89053C8.26966 4.317 7.62635 3.68352 7.0422 2.99738C6.91746 2.8176 6.9835 2.7112 7.06055 2.64883C7.11337 2.61052 7.17879 2.59375 7.24353 2.60193C7.30826 2.6101 7.36746 2.64262 7.40909 2.69286C7.59988 2.92033 8.37768 3.85223 8.96471 4.8942V4.89053ZM8.53178 5.2831C7.78841 4.77259 7.09111 4.19806 6.44784 3.56606C6.30843 3.39729 6.36346 3.28355 6.43317 3.21384C6.48266 3.17089 6.54671 3.14848 6.61219 3.15121C6.67767 3.15394 6.73963 3.18159 6.78538 3.22852C6.99818 3.44131 7.8567 4.29617 8.53178 5.2831V5.2831ZM8.15755 5.68301C7.37434 5.23753 6.63161 4.72437 5.93787 4.14941C5.78377 3.99532 5.83147 3.87791 5.89751 3.80087C5.94309 3.75499 6.00429 3.72799 6.06891 3.72527C6.13352 3.72255 6.19678 3.7443 6.24605 3.78619C6.47719 3.97697 7.40176 4.75845 8.15755 5.68301ZM7.80167 6.14162C6.98163 5.76699 6.19594 5.32136 5.45357 4.80981C5.2848 4.66672 5.32149 4.54565 5.38019 4.46494C5.42131 4.41412 5.48026 4.3809 5.54502 4.37204C5.60978 4.36318 5.67548 4.37934 5.72874 4.41724C6.46843 4.93081 7.16203 5.50778 7.80167 6.14162V6.14162ZM7.48247 6.63325C6.6322 6.33519 5.80967 5.96321 5.02431 5.52158C4.84087 5.39317 4.86655 5.27209 4.91792 5.18404C4.95453 5.13047 5.01007 5.09274 5.07337 5.07845C5.13667 5.06415 5.20304 5.07435 5.25912 5.10699C5.51961 5.25375 6.57259 5.85912 7.48247 6.63325V6.63325ZM7.21464 7.13589C6.05894 6.84238 4.85921 6.35075 4.66843 6.24068C4.48132 6.13061 4.49232 6.00587 4.53635 5.91782C4.5682 5.86109 4.62013 5.81834 4.68192 5.79797C4.7437 5.7776 4.81087 5.78109 4.87022 5.80775C5.14172 5.93249 6.24239 6.44614 7.21831 7.13589H7.21464ZM7.00185 7.6422C6.11261 7.49253 5.23842 7.26416 4.38959 6.95978C4.19147 6.86806 4.19514 6.73965 4.22816 6.64793C4.26485 6.55621 4.40427 6.45715 4.55469 6.51218C4.83353 6.61491 5.97456 7.03316 7.00185 7.6422V7.6422Z" fill="#F31509"/>
<path fill-rule="evenodd" clip-rule="evenodd" d="M6.8184 8.21095C5.62601 8.11923 4.36024 7.84773 4.15478 7.77068C3.94933 7.6973 3.93832 7.57256 3.964 7.47717C3.98505 7.41502 4.02909 7.36328 4.08709 7.33258C4.14508 7.30188 4.21262 7.29454 4.27586 7.31207C4.5657 7.38545 5.73975 7.6973 6.8184 8.21095Z" fill="#F31509"/>
<path fill-rule="evenodd" clip-rule="evenodd" d="M3.50906 7.8772H22.8698V8.58529H3.50906V7.8772Z" fill="black"/>
</g>
</g>
<defs>
<clipPath id="clip0_1_13636">
<rect width="26" height="26" fill="white"/>
</clipPath>
</defs>
</svg>
