<svg width="26" height="26" viewBox="0 0 26 26" fill="none" xmlns="http://www.w3.org/2000/svg">
<mask id="mask0_1_11131" style="mask-type:alpha" maskUnits="userSpaceOnUse" x="0" y="0" width="26" height="26">
<circle cx="13" cy="13" r="13" fill="#634848"/>
</mask>
<g mask="url(#mask0_1_11131)">
<rect x="-1" width="29" height="27" rx="3" fill="white"/>
<rect x="19" width="10" height="27" fill="#E3283E"/>
<path fill-rule="evenodd" clip-rule="evenodd" d="M-2 26H7V1H-2V26Z" fill="#128A60"/>
<path d="M10.6667 12.3718C10.6667 12.0036 10.3682 11.7052 10 11.7052C9.63181 11.7052 9.33333 12.0036 9.33333 12.3718H10.6667ZM11.1331 15.5727C11.4494 15.7612 11.8586 15.6577 12.0471 15.3414C12.2356 15.0251 12.1321 14.6159 11.8158 14.4274L11.1331 15.5727ZM14.1812 14.3746C13.8735 14.5767 13.788 14.9901 13.9902 15.2978C14.1923 15.6055 14.6057 15.6911 14.9134 15.4889L14.1812 14.3746ZM16.5793 12.3718C16.5793 12.0036 16.2808 11.7052 15.9126 11.7052C15.5445 11.7052 15.246 12.0036 15.246 12.3718H16.5793ZM9.33333 12.3718C9.33333 13.7329 10.053 14.9288 11.1331 15.5727L11.8158 14.4274C11.1328 14.0202 10.6667 13.2557 10.6667 12.3718H9.33333ZM14.9134 15.4889C15.9185 14.8285 16.5793 13.676 16.5793 12.3718H15.246C15.246 13.2187 14.8182 13.9561 14.1812 14.3746L14.9134 15.4889Z" fill="#8C9157"/>
<path fill-rule="evenodd" clip-rule="evenodd" d="M12.9531 14C13.7816 14 14.4531 13.1046 14.4531 12C14.4531 10.8954 13.7816 10 12.9531 10C12.1247 10 11.4531 10.8954 11.4531 12C11.4531 13.1046 12.1247 14 12.9531 14Z" fill="#C59262"/>
</g>
</svg>
