<svg width="26" height="26" viewBox="0 0 26 26" fill="none" xmlns="http://www.w3.org/2000/svg">
<mask id="mask0_1_13741" style="mask-type:alpha" maskUnits="userSpaceOnUse" x="0" y="0" width="26" height="26">
<circle cx="13" cy="13" r="13" fill="#634848"/>
</mask>
<g mask="url(#mask0_1_13741)">
<g clip-path="url(#clip0_1_13741)">
<path fill-rule="evenodd" clip-rule="evenodd" d="M0 0H26V26H0V0Z" fill="white"/>
<path fill-rule="evenodd" clip-rule="evenodd" d="M-5.49453 0.0101563L-5.4539 18.7281L23.6945 0L-5.49453 0.0101563V0.0101563Z" fill="#3662A2"/>
<path fill-rule="evenodd" clip-rule="evenodd" d="M32.0277 25.9745L31.9566 6.51514L2.5543 25.9897L32.0277 25.9745Z" fill="#38A100"/>
<path fill-rule="evenodd" clip-rule="evenodd" d="M-5.47929 20.1399L-5.4539 26.0001L0.908988 25.9899L31.9719 5.16455L31.9414 0.0711914L25.6547 0.0102539L-5.47422 20.1399H-5.47929Z" fill="#C70000"/>
<path fill-rule="evenodd" clip-rule="evenodd" d="M7.82031 9.31323L6.64727 8.60229L5.9668 9.80073L5.30664 8.59214L4.11328 9.29292L4.14375 7.91675L2.77266 7.9269L3.48359 6.74878L2.28516 6.06831L3.49375 5.40815L2.79297 4.21479L4.16406 4.24526L4.15898 2.86909L5.33711 3.58003L6.01758 2.38159L6.67773 3.58511L7.88125 2.89448L7.85078 4.26558L9.22188 4.2605L8.51094 5.43862L9.70937 6.11401L8.50078 6.77925L9.19648 7.96753L7.82539 7.94214L7.82031 9.31323Z" fill="#FFE700"/>
<path fill-rule="evenodd" clip-rule="evenodd" d="M8.5211 6.0938C8.5211 7.47505 7.38867 8.59731 5.99219 8.59731C4.5957 8.59731 3.46836 7.47505 3.46836 6.08872C3.46836 4.70239 4.60078 3.58521 5.99727 3.58521C7.39375 3.58521 8.5211 4.70239 8.5211 6.08872V6.0938Z" fill="#3662A2"/>
<path fill-rule="evenodd" clip-rule="evenodd" d="M7.97266 6.09384C7.98625 6.36202 7.94517 6.63016 7.8519 6.88196C7.75864 7.13376 7.61514 7.36397 7.43014 7.55859C7.24513 7.75321 7.02248 7.90817 6.77572 8.01406C6.52897 8.11996 6.26325 8.17456 5.99473 8.17456C5.72621 8.17456 5.46049 8.11996 5.21373 8.01406C4.96697 7.90817 4.74432 7.75321 4.55932 7.55859C4.37431 7.36397 4.23082 7.13376 4.13755 6.88196C4.04429 6.63016 4.00321 6.36202 4.0168 6.09384C4.04251 5.58659 4.26211 5.10861 4.63023 4.75868C4.99835 4.40875 5.48683 4.21362 5.99473 4.21362C6.50263 4.21362 6.99111 4.40875 7.35923 4.75868C7.72734 5.10861 7.94695 5.58659 7.97266 6.09384V6.09384Z" fill="#FFE700"/>
</g>
</g>
<defs>
<clipPath id="clip0_1_13741">
<rect width="26" height="26" fill="white"/>
</clipPath>
</defs>
</svg>
