<svg width="26" height="26" viewBox="0 0 26 26" fill="none" xmlns="http://www.w3.org/2000/svg">
<mask id="mask0_1_13769" style="mask-type:alpha" maskUnits="userSpaceOnUse" x="0" y="0" width="26" height="26">
<circle cx="13" cy="13" r="13" fill="#634848"/>
</mask>
<g mask="url(#mask0_1_13769)">
<g clip-path="url(#clip0_1_13769)">
<path d="M0 0H26V26H0V0Z" fill="#009543"/>
<path d="M0 0H26V17.3316H0V0Z" fill="#ED4135"/>
<path d="M0 0H26V8.66836H0V0Z" fill="#0035AD"/>
<path d="M11.4563 21.5212C16.1623 21.5212 19.9773 17.7062 19.9773 13.0001C19.9773 8.29403 16.1623 4.479 11.4563 4.479C6.75018 4.479 2.93516 8.29403 2.93516 13.0001C2.93516 17.7062 6.75018 21.5212 11.4563 21.5212Z" fill="#FAE600" stroke="black" stroke-width="0.7125"/>
<path d="M10.0141 14.2696H12.9035ZM10.0141 12.1368H12.9035ZM11.4562 4.49927V19.0633Z" fill="black"/>
<path d="M10.0141 14.2696H12.9035M10.0141 12.1368H12.9035M11.4562 4.49927V19.0633" stroke="black" stroke-width="0.85"/>
<path d="M8.02344 20.8202C11.507 22.2421 14.7672 20.9116 14.7672 20.9116C14.7672 20.9116 13.5332 19.5811 12.9035 19.0581C12.2891 18.5503 10.4762 18.5706 9.85664 19.0581C9.34883 19.4643 7.86602 20.9624 8.02852 20.8253L8.02344 20.8202Z" fill="black"/>
<path d="M11.4563 18.3168C11.9835 18.3168 12.4109 17.6962 12.4109 16.9305C12.4109 16.1649 11.9835 15.5442 11.4563 15.5442C10.929 15.5442 10.5016 16.1649 10.5016 16.9305C10.5016 17.6962 10.929 18.3168 11.4563 18.3168Z" fill="black"/>
<path d="M11.4563 13.9344C12.0957 13.9344 12.6141 13.607 12.6141 13.2032C12.6141 12.7993 12.0957 12.4719 11.4563 12.4719C10.8168 12.4719 10.2984 12.7993 10.2984 13.2032C10.2984 13.607 10.8168 13.9344 11.4563 13.9344Z" fill="black"/>
<path d="M11.4563 10.979C12.0957 10.979 12.6141 10.4606 12.6141 9.82114C12.6141 9.1817 12.0957 8.66333 11.4563 8.66333C10.8168 8.66333 10.2984 9.1817 10.2984 9.82114C10.2984 10.4606 10.8168 10.979 11.4563 10.979Z" fill="black"/>
<path d="M12.8477 5.51997C12.8477 5.51997 12.9492 5.68247 12.7359 6.06333C11.7254 7.87622 10.7199 7.91685 10.527 8.06919C10.3137 8.24185 10.2223 8.23169 10.2223 8.23169C10.2426 8.07935 10.2527 7.4395 10.2629 7.37856C10.4152 6.5356 11.7 6.54575 12.7004 5.67739C12.8527 5.54028 12.8426 5.51489 12.8426 5.51489L12.8477 5.51997ZM9.46563 9.41997C9.46563 9.41997 9.69414 10.0649 9.72461 10.72C9.78047 11.7559 10.7758 11.7864 11.4563 11.7864V11.2075C10.9484 11.2075 10.4965 11.1364 10.1309 10.3696C9.93722 10.0343 9.71463 9.71651 9.46563 9.41997V9.41997ZM9.43516 17.7989C9.43516 17.7989 9.80078 17.3418 10.2273 16.2958C10.3252 16.047 10.4937 15.8322 10.712 15.6779C10.9304 15.5236 11.1891 15.4366 11.4563 15.4274V14.6149C10.3594 14.6149 9.83125 15.0211 9.78047 15.6254C9.6586 16.8442 9.43516 17.7938 9.43516 17.7938V17.7989ZM13.457 9.41997C13.457 9.41997 13.2234 10.0649 13.193 10.72C13.1371 11.761 12.1418 11.7864 11.4613 11.7864V11.2125C11.9742 11.2125 12.4211 11.1364 12.7918 10.3747C12.9848 10.0344 13.2082 9.7145 13.452 9.41997H13.457ZM13.4824 17.7989C13.4824 17.7989 13.1219 17.3469 12.6902 16.2958C12.5916 16.0479 12.4228 15.8342 12.2045 15.6809C11.9862 15.5276 11.7279 15.4412 11.4613 15.4325V14.62C12.5582 14.62 13.0863 15.0262 13.1422 15.6254C13.2107 16.3562 13.3244 17.0821 13.4824 17.7989V17.7989Z" fill="black"/>
</g>
</g>
<defs>
<clipPath id="clip0_1_13769">
<rect width="26" height="26" fill="white"/>
</clipPath>
</defs>
</svg>
