<svg width="26" height="26" viewBox="0 0 26 26" fill="none" xmlns="http://www.w3.org/2000/svg">
<mask id="mask0_1_13811" style="mask-type:alpha" maskUnits="userSpaceOnUse" x="0" y="0" width="26" height="26">
<circle cx="13" cy="13" r="13" fill="#634848"/>
</mask>
<g mask="url(#mask0_1_13811)">
<g clip-path="url(#clip0_1_13811)">
<path fill-rule="evenodd" clip-rule="evenodd" d="M7.91172 0H18.0883V26H7.91172V0Z" fill="white"/>
<path fill-rule="evenodd" clip-rule="evenodd" d="M0 0H7.91172V26H0V0ZM18.0883 0H26V26H18.0883V0Z" fill="#198200"/>
<path fill-rule="evenodd" clip-rule="evenodd" d="M12.3398 16.8797V18.9618L13.1777 18.9719C13.1777 18.9719 12.9086 17.154 13.0559 16.9102C13.2082 16.6715 13.3453 16.7071 13.3453 16.7071C13.3453 16.7071 13.8937 16.8696 13.9547 16.8442C14.0156 16.8188 13.9445 16.636 14.2391 16.6614C14.3355 16.6258 14.2848 16.4583 14.3711 16.4532C14.4574 16.443 16.1332 16.9204 16.4937 16.4684C16.4023 16.2145 16.0723 16.4532 15.9859 16.4583C15.9047 16.4583 15.5797 16.3059 15.3867 16.4583C15.209 16.3313 14.4219 16.245 14.4219 16.245C14.3203 16.1434 16.3008 16.2958 16.4176 16.2196C16.6512 15.986 15.9859 16.0114 15.8793 16.0875C15.6965 15.9758 15.4629 15.986 15.3207 16.0622C15.2496 15.8997 14.6098 15.9708 14.2492 15.925C14.1324 15.854 14.1477 15.8184 14.2289 15.7727C14.9805 15.8083 15.727 15.9047 16.4785 15.8743C16.6816 15.6051 16.2246 15.5036 15.9402 15.7321C15.7727 15.4579 15.4324 15.7219 15.209 15.6965C14.9855 15.6711 15.0871 15.3918 15.3766 15.4375C15.6609 15.4782 16.1738 15.4172 16.2703 15.2852C16.3668 15.1583 16.2145 15.0262 15.7422 15.1481C15.5797 14.9958 15.2293 15.1481 15.0617 15.1989C14.8434 15.0821 14.3355 15.1836 14.1629 15.2293C13.9902 15.1227 15.0566 14.95 15.0566 14.95C15.4629 14.945 15.6965 14.8739 15.8285 14.8383C16.448 14.5032 15.8184 14.4676 15.4934 14.7114C15.2902 14.554 15.0973 14.7266 14.9145 14.7875C14.7316 14.8485 14.3863 14.8891 14.3863 14.8637C14.3863 14.8383 14.884 14.5336 14.884 14.5336C14.884 14.5336 15.4934 14.4879 15.6102 14.4727C15.732 14.4575 16.3566 14.1375 15.5086 14.3508C15.2141 14.3762 15.0363 14.361 14.9246 14.3661C14.2695 14.3 14.9855 14.2391 14.9855 14.2391C14.9855 14.2391 15.9098 14.1528 15.925 14.1071C15.9402 13.7516 15.1633 13.9192 15.1633 13.9192C15.1633 13.6602 14.4371 13.9243 14.4371 13.9192C14.3 13.8379 14.5184 13.7516 14.5184 13.7516C14.7062 13.7059 14.9957 13.6907 15.0668 13.6297C15.0668 13.6297 15.6051 13.6297 15.6711 13.4825C15.5391 13.1168 14.5285 13.5485 14.3965 13.6145C14.2137 13.6145 14.5184 13.32 14.5234 13.3098C14.5336 13.2997 15.3562 13.2641 15.7473 12.736C15.7777 12.4161 15.2902 12.9188 15.2902 12.9188C15.2547 12.5024 14.7621 12.9442 14.4777 12.9797C14.1883 13.0153 14.1781 12.8477 14.3762 12.8274C14.5793 12.7969 14.8027 12.8172 14.9145 12.5125C15.0313 12.2079 15.3715 12.5278 15.4273 12.411C15.4883 12.3043 15.3055 12.2079 15.3055 12.2079C15.3055 12.2079 15.5594 11.9489 15.1531 11.954C14.7469 11.9641 14.2137 11.9032 14.2137 11.9032C14.2137 11.9032 14.6402 11.7407 15.0363 11.7508C15.4375 11.7559 15.2191 11.4614 14.8332 11.4614C14.4574 11.4614 14.2543 11.3293 14.2543 11.3293L14.9094 11.0856L14.8637 10.9028C14.8637 10.9028 15.2445 10.5981 14.7113 10.6692L14.107 10.7504L13.0254 10.9129C13.0152 10.9129 12.7309 10.8266 13.0051 10.7606C13.2844 10.6895 14.2645 10.4864 14.4117 10.5422C14.5641 10.593 14.3965 10.1766 13.8734 10.1258C13.3555 10.075 13.0305 10.2528 13.0305 10.2528C13.0305 10.2528 12.6953 10.1309 13.0051 10.0293C13.3199 9.92778 13.8176 10.0649 13.8176 10.0649C13.8176 10.0649 14.3711 9.89731 13.909 9.82622C13.452 9.76021 13.2996 9.89224 13.0965 9.89731C13.0102 9.79575 13.8176 9.77036 13.8684 9.67896C13.782 9.52661 13.2793 9.67896 12.9898 9.67896C12.8629 9.62817 12.8578 9.54185 13 9.49106C13.2945 9.48091 13.5738 9.49614 13.8734 9.48599C13.8633 9.32349 13.8734 9.1356 13.8684 8.97817C13.4875 8.90708 13.0457 9.02896 12.8324 9.0188C12.8883 8.84614 13.7059 8.80044 13.7973 8.75474C13.9852 8.51606 13 8.75474 12.9848 8.75474C12.8172 8.72935 12.8324 8.61763 12.934 8.55161C13.1879 8.52622 13.7516 8.58716 13.7109 8.41958C13.6754 8.25708 13.3199 8.34341 13.1727 8.37896C13.0203 8.4145 12.807 8.38911 12.807 8.38911C12.7105 8.26216 13.6551 8.31294 13.65 8.21646C13.6348 8.09966 13.0508 8.18091 12.8527 8.18599C12.6953 8.08442 13.5992 8.00825 13.6145 7.9981C13.6449 7.70864 13.0051 7.9981 12.8832 7.9981C12.7613 7.9981 12.8223 7.81528 12.8223 7.81528C12.8223 7.81528 13.0762 7.70356 13.066 7.68325C13.0609 7.66802 12.8781 7.60708 12.8629 7.60708C12.8426 7.60708 12.8629 7.40396 12.8629 7.40396C12.8629 7.40396 13.066 7.25161 13.0508 7.20591C13.0305 7.16528 12.807 7.24146 12.807 7.24146V7.0688C12.807 7.0688 12.9695 7.04849 12.9898 6.97231C13.0051 6.89614 12.7867 6.88599 12.7867 6.88599L12.7055 5.97192L12.6242 6.82505L12.3398 6.87075C12.3398 6.87075 12.5379 6.98247 12.5734 7.09419C12.609 7.20591 12.3297 7.17036 12.3297 7.17036C12.3297 7.17036 12.5531 7.36333 12.5734 7.43442C12.5887 7.50044 12.2586 7.52075 12.2586 7.52075C12.2586 7.52075 12.5379 7.72388 12.5531 7.83052C12.5734 7.94731 12.5531 8.00825 12.5531 8.00825C12.5531 8.00825 12.0961 7.602 11.8016 7.7188C11.6492 7.80005 12.152 7.8356 12.4871 8.12505C12.4871 8.19106 11.6746 7.927 11.6441 8.09458C11.6645 8.14028 12.5074 8.26216 12.5734 8.3688C12.2637 8.38403 11.6238 8.30278 11.6441 8.40435C11.5781 8.52114 12.2484 8.45513 12.5277 8.55669C12.609 8.6481 12.6039 8.72427 12.4617 8.73442C12.1875 8.60747 11.5832 8.51099 11.5832 8.67349C11.5832 8.71919 12.2078 8.68872 12.4312 8.84106C12.1316 8.90708 11.1109 8.69888 11.1059 8.80044C11.1363 8.85122 11.2988 9.05435 11.573 9.04927C11.8523 9.03911 12.4922 9.16099 12.5379 9.24731C12.5785 9.33364 11.7051 9.0645 11.3699 9.22192C11.0348 9.37935 12.3195 9.28286 12.5277 9.47583C12.7359 9.6688 12.1113 9.45552 12.1113 9.45552C12.1113 9.45552 11.248 9.33364 11.116 9.39458C10.984 9.45552 10.8367 9.59771 10.8367 9.59771C10.8367 9.59771 10.923 9.77036 11.0094 9.73481C11.0957 9.69927 10.984 9.83638 10.984 9.83638C10.984 9.83638 12.2027 10.1309 12.4668 10.395C12.7359 10.6489 10.923 9.98872 10.923 9.98872C10.923 9.98872 10.1918 10.2528 10.9637 10.2731C10.8773 10.4 11.0145 10.4762 11.0145 10.4762C11.0145 10.4762 12.2941 10.7504 12.4262 10.9586C12.5531 11.1618 11.5477 10.7555 11.3242 10.6438C11.0957 10.5321 10.4559 10.7149 10.4609 10.7555C10.4711 10.8012 10.7758 10.8622 10.7859 10.9383C10.791 11.0196 10.4102 11.0399 10.4102 11.111C10.4102 11.1821 12.0352 11.5172 12.4668 11.8879C12.8984 12.2586 11.1922 11.4512 11.1922 11.4512C11.1922 11.4512 11.2887 11.5833 11.1922 11.6188C11.0957 11.6493 10.7555 11.1313 10.202 11.4512C10.1004 11.5833 10.6895 11.6899 10.8367 11.7051C10.7859 11.8321 10.7402 11.8778 10.9484 12.0098C11.1566 12.1368 10.5422 11.8168 10.5422 11.8321L10.5828 12.0606C10.3898 11.9083 10.1613 11.8575 9.94297 12.0149C9.94297 12.0149 9.93281 12.1723 10.1613 12.2688C10.0344 12.5227 10.2984 12.4415 10.7148 12.675C10.0953 12.5125 10.0445 12.8172 10.4863 12.8833C10.9332 12.9543 12.1469 12.995 12.4312 13.3708C12.7207 13.7415 12.025 13.2286 11.9488 13.2184C11.9296 13.2794 11.9177 13.3425 11.9133 13.4063C11.736 13.2896 11.5403 13.2037 11.3344 13.1524C11.3191 13.193 11.3242 13.2387 11.3039 13.2743C11.1008 13.1321 10.9281 13.0305 10.6387 13.0153L10.6031 13.1524C10.6031 13.1524 10.3594 12.8477 9.88203 13.1524C9.61289 13.3454 10.8875 13.2235 11.1008 13.4469C11.3039 13.6754 11.1414 13.711 11.1414 13.711L10.6184 13.518C10.6184 13.518 10.0039 13.4063 9.83125 13.5434C9.65352 13.6805 12.3652 14.0208 12.4414 14.3965C12.4922 14.5997 11.8066 14.1833 11.2074 14.0055L11.1414 14.2086C11.1414 14.2086 10.9027 13.9649 10.6336 13.9243L10.6844 14.1579C10.6844 14.1579 10.0242 13.8481 9.68398 14.0106C9.34375 14.1782 10.8621 14.2645 11.0043 14.4168C11.1414 14.5793 10.5422 14.3153 10.4863 14.4168C10.4355 14.5235 9.69922 14.229 9.70937 14.3661C9.71445 14.5083 9.81094 14.5844 9.81094 14.5844C9.81094 14.5844 11.3496 14.7368 11.4004 14.9145C11.4512 15.0973 10.5473 14.8129 10.5473 14.8129C10.5473 14.8129 10.4609 14.9399 10.532 15.0008C10.6031 15.0618 10.009 14.6555 10.0648 14.9247C9.87187 14.8485 9.3793 14.6098 9.44531 14.7926C9.51641 14.9754 10.8469 15.2344 10.8469 15.2344C10.8469 15.2344 10.2629 15.2801 10.2883 15.4274C9.5418 14.9704 9.56211 15.2649 9.57734 15.275C9.59258 15.2801 8.6125 15.0262 9.35391 15.4274C10.0902 15.8286 9.75 15.7575 9.76016 15.7676C9.77031 15.7727 9.83633 15.9708 9.82109 15.9708C9.80078 15.9708 9.31328 15.7067 9.15078 15.6864C8.98828 15.6711 8.20625 15.9047 9.03906 16.2704C9.87187 16.636 10.3848 16.184 10.8469 16.2348C11.3039 16.2856 11.5223 16.3668 11.4766 16.5141C11.4359 16.6614 11.0094 16.0266 10.5625 16.575C10.0496 16.4735 9.69922 16.4176 9.96328 16.7883C9.13047 16.4836 8.62266 16.8899 9.67383 17.0524C10.7047 17.0829 11.3395 16.7985 11.3395 16.7985C11.3395 16.7985 11.5121 17.1184 11.766 16.895C12.0199 16.6665 12.025 16.9813 12.0352 16.9813L12.2789 16.8797H12.3398V16.8797Z" fill="#198200" stroke="black" stroke-width="0.0875" stroke-linecap="round" stroke-linejoin="round"/>
<path fill-rule="evenodd" clip-rule="evenodd" d="M12.4414 15.6407V15.4985C12.4414 15.4985 12.1113 15.4427 11.9539 15.4731C11.8523 15.4224 11.766 15.3462 11.6543 15.4071C11.634 15.4579 11.8574 15.5798 11.9387 15.5798C12.0301 15.6356 12.4414 15.6509 12.4414 15.6458V15.6407ZM12.4363 15.8794C12.4363 15.8794 12.1062 15.7626 11.9793 15.8997C11.9996 16.047 12.3652 16.1181 12.4363 16.0774C12.5176 16.0368 12.4363 15.8896 12.4363 15.8794ZM12.9898 15.9403V16.0419C12.9898 16.0419 13.3809 16.1181 13.4469 16.0317C13.518 15.9505 13.1422 15.8946 12.9898 15.9403ZM12.9695 15.5341L12.9848 15.6509C12.9848 15.6509 13.325 15.7271 13.452 15.5392C13.584 15.3563 13.1574 15.5392 12.9695 15.5341V15.5341ZM12.9898 15.138V15.2142C12.9898 15.2142 13.2437 15.2548 13.2996 15.1481C13.3605 15.0364 12.9949 15.1481 12.9898 15.138V15.138ZM12.4566 14.9044C12.416 14.8536 12.2789 14.7114 11.9082 14.6708C11.6543 14.6708 12.3754 15.0517 12.4566 14.9044ZM12.9797 14.5185L12.9695 14.62C12.9695 14.62 13.843 14.3661 14.0461 14.3813C14.2289 14.3306 14.2645 14.2036 14.2594 14.2036C14.102 14.0919 13.3504 14.295 12.9797 14.5185ZM13 14.2138L12.9898 14.3153C12.9898 14.3153 13.5992 14.1935 13.7668 14.0767C13.9293 13.9599 13.0051 14.2138 13 14.2087V14.2138ZM12.9746 13.9091V14.0106C12.9746 14.0106 13.3809 14.0005 13.4672 13.9142C13.518 13.8329 13.1066 13.904 12.9746 13.9091ZM13.8277 14.7724C13.8277 14.7724 14.041 14.7978 14.0816 14.7368C14.0766 14.6251 13.8277 14.7724 13.8277 14.7673V14.7724ZM12.9898 13.5282L12.9949 13.7517C12.9949 13.7517 13.9801 13.4368 14.041 13.381C14.102 13.3251 14.2441 13.1474 12.9898 13.5282V13.5282ZM12.9645 13.2134V13.3759C12.9645 13.3759 13.3605 13.3505 13.5434 13.1981C13.7211 13.0458 12.9645 13.2185 12.9645 13.2134V13.2134ZM12.4871 12.8427L12.5125 12.995L11.2125 12.5685C11.2125 12.5685 11.1465 12.3552 12.482 12.8427H12.4871ZM12.5074 12.3196C12.5074 12.3349 12.5074 12.4618 12.5023 12.4567C12.5023 12.4567 11.5984 12.081 11.5629 12.1114C11.4461 11.8321 12.5074 12.3247 12.5074 12.3146V12.3196ZM12.9492 12.5532L12.9645 12.6802C12.9645 12.6802 13.518 12.5634 13.5484 12.5075C13.5789 12.4567 12.9492 12.5583 12.9492 12.5532ZM12.9594 12.8478L12.9797 12.9747C12.9797 12.9747 13.198 12.9595 13.2336 12.9087C13.2641 12.8579 12.9594 12.8478 12.9594 12.8478V12.8478ZM12.9289 12.1724V12.2993C12.9289 12.2993 13.5383 12.1774 13.6043 12.1216C13.6703 12.0606 12.9137 12.1724 12.9289 12.1724V12.1724ZM12.9289 11.8372C12.9289 11.8474 12.9086 11.9642 12.9238 11.9642C13.215 11.9239 13.4999 11.8471 13.7719 11.7356C13.8887 11.6341 12.9391 11.8524 12.9289 11.8372ZM12.9187 11.2481V11.3751C12.9187 11.3751 13.3859 11.2786 13.4773 11.1821C13.5687 11.0856 12.9187 11.2583 12.9187 11.2481V11.2481ZM12.8375 10.3899L12.8527 10.5829C12.8527 10.5829 13.4773 10.4966 13.5687 10.3899C13.6602 10.2884 12.8375 10.3899 12.8375 10.3899V10.3899ZM12.548 8.94775V9.06963C12.548 9.06963 12.2484 9.05439 12.3246 9.00361C12.3957 8.95283 12.548 8.95791 12.548 8.95283V8.94775ZM12.8273 9.11025V9.27275C12.8273 9.27275 13.2184 9.23721 13.2488 9.17119C13.2742 9.11533 12.8324 9.11025 12.8273 9.11025ZM12.802 9.34385L12.8172 9.44541C12.8223 9.44541 12.9695 9.43525 13 9.39463C13.0305 9.354 12.8172 9.354 12.802 9.34385V9.34385ZM12.477 9.81104C12.477 9.82119 12.4871 9.96338 12.477 9.96338C12.477 9.96338 11.6391 9.71963 11.5629 9.72471C11.4816 9.72471 11.4613 9.53174 12.477 9.81104ZM12.543 10.0853C12.543 10.1106 12.5633 10.263 12.5328 10.2579C12.5023 10.2528 11.9641 10.0802 12.025 10.0294C12.0758 9.97861 12.543 10.0954 12.543 10.0802V10.0853ZM12.4973 11.2329V11.37C12.4973 11.37 11.5629 11.0856 11.5324 11.0399C11.4969 10.9892 11.4055 10.7708 12.4973 11.2329ZM12.5328 11.5681C12.5328 11.5731 12.543 11.7001 12.5328 11.7001L11.2633 11.2532C11.2633 11.2532 11.1617 10.9181 12.5328 11.5681V11.5681Z" fill="white" stroke="black" stroke-width="0.1" stroke-linecap="round" stroke-linejoin="round"/>
<path fill-rule="evenodd" clip-rule="evenodd" d="M11.0195 15.9809V16.1231C11.0195 16.1231 10.7656 16.052 10.6895 15.9149C10.8367 15.8743 11.0246 15.986 11.0195 15.9809Z" fill="white" stroke="black" stroke-width="0.1" stroke-linejoin="round"/>
</g>
</g>
<defs>
<clipPath id="clip0_1_13811">
<rect width="26" height="26" fill="white"/>
</clipPath>
</defs>
</svg>
