<svg width="26" height="26" viewBox="0 0 26 26" fill="none" xmlns="http://www.w3.org/2000/svg">
<mask id="mask0_1_10862" style="mask-type:alpha" maskUnits="userSpaceOnUse" x="0" y="0" width="26" height="26">
<circle cx="13" cy="13" r="13" fill="#634848"/>
</mask>
<g mask="url(#mask0_1_10862)">
<mask id="mask1_1_10862" style="mask-type:alpha" maskUnits="userSpaceOnUse" x="-5" y="0" width="36" height="26">
<rect x="-4.33333" width="34.6667" height="26" fill="white"/>
</mask>
<g mask="url(#mask1_1_10862)">
<path fill-rule="evenodd" clip-rule="evenodd" d="M-4.33073 0V26H30.3359V0H-4.33073Z" fill="#F7FCFF"/>
<mask id="mask2_1_10862" style="mask-type:alpha" maskUnits="userSpaceOnUse" x="-5" y="0" width="36" height="26">
<path fill-rule="evenodd" clip-rule="evenodd" d="M-4.33073 0V26H30.3359V0H-4.33073Z" fill="white"/>
</mask>
<g mask="url(#mask2_1_10862)">
<path fill-rule="evenodd" clip-rule="evenodd" d="M-4.33073 0V8.66667H30.3359V0H-4.33073Z" fill="#0080EC"/>
<path fill-rule="evenodd" clip-rule="evenodd" d="M-4.33073 17.3333V25.9999H30.3359V17.3333H-4.33073Z" fill="#0080EC"/>
<path fill-rule="evenodd" clip-rule="evenodd" d="M13.0078 8.66797C13.2125 8.66797 13.4139 8.68216 13.611 8.70962L13.3964 10.0923C13.2686 10.0753 13.1382 10.0666 13.0058 10.0666C12.8152 10.0666 12.6288 10.0847 12.4483 10.1194L12.3481 8.71787C12.5632 8.68501 12.7835 8.66797 13.0078 8.66797ZM14.2573 8.85082L13.8806 10.1991C15.0742 10.5714 15.9407 11.6852 15.9407 13.0014C15.9407 13.0337 15.9401 13.0658 15.9391 13.0978L17.3359 13.2162C17.3394 13.145 17.3411 13.0734 17.3411 13.0013C17.3411 11.0425 16.0414 9.38718 14.2573 8.85082ZM16.8142 15.0741C16.1279 16.3317 14.8365 17.2117 13.3313 17.3227V15.9184C14.1321 15.8301 14.8359 15.4195 15.3101 14.8192L16.8142 15.0741ZM9.29959 15.2446C10.0193 16.4318 11.2931 17.2458 12.7624 17.3278V15.9263C11.9051 15.8559 11.1523 15.4171 10.6624 14.7686L9.29959 15.2446ZM8.67842 13.1877C8.6758 13.1259 8.67448 13.0637 8.67448 13.0013C8.67448 11.1619 9.82056 9.59014 11.4376 8.96122L11.7991 10.3253C10.7859 10.7829 10.079 11.7991 10.071 12.9813L8.67842 13.1877Z" fill="#D0AB00"/>
<path fill-rule="evenodd" clip-rule="evenodd" d="M12.978 9.69531L10.013 14.8203H15.9895L12.978 9.69531Z" fill="#7CDFFF"/>
<mask id="mask3_1_10862" style="mask-type:alpha" maskUnits="userSpaceOnUse" x="10" y="9" width="6" height="6">
<path fill-rule="evenodd" clip-rule="evenodd" d="M12.978 9.69531L10.013 14.8203H15.9895L12.978 9.69531Z" fill="white"/>
</mask>
<g mask="url(#mask3_1_10862)">
<path d="M13.0094 16.3362C14.4169 16.3362 15.5579 15.1952 15.5579 13.7877C15.5579 12.3803 14.4169 11.2393 13.0094 11.2393C11.6019 11.2393 10.4609 12.3803 10.4609 13.7877C10.4609 15.1952 11.6019 16.3362 13.0094 16.3362Z" stroke="#E31D1C"/>
<path d="M13.0094 16.3362C14.4169 16.3362 15.5579 15.1952 15.5579 13.7877C15.5579 12.3803 14.4169 11.2393 13.0094 11.2393C11.6019 11.2393 10.4609 12.3803 10.4609 13.7877C10.4609 15.1952 11.6019 16.3362 13.0094 16.3362Z" stroke="#FFD018"/>
<path d="M13.0094 16.3362C14.4169 16.3362 15.5579 15.1952 15.5579 13.7877C15.5579 12.3803 14.4169 11.2393 13.0094 11.2393C11.6019 11.2393 10.4609 12.3803 10.4609 13.7877C10.4609 15.1952 11.6019 16.3362 13.0094 16.3362Z" stroke="#4EDD00"/>
<path d="M13.0094 16.3362C14.4169 16.3362 15.5579 15.1952 15.5579 13.7877C15.5579 12.3803 14.4169 11.2393 13.0094 11.2393C11.6019 11.2393 10.4609 12.3803 10.4609 13.7877C10.4609 15.1952 11.6019 16.3362 13.0094 16.3362Z" stroke="#3D58DB"/>
<rect x="9.77604" y="13.2351" width="6.77576" height="1.9697" fill="#3D58DB"/>
<path fill-rule="evenodd" clip-rule="evenodd" d="M10.2246 14.0738L11.5751 12.7309L11.9895 13.4024L12.2791 12.5835L12.6006 13.1973L12.9384 12.7309L13.3754 13.1973L13.776 12.5835L14.1185 13.1973L14.5115 12.7309L15.4297 13.7066L15.595 14.0738L10.2246 14.3463V14.0738Z" fill="#97C923"/>
</g>
</g>
</g>
</g>
</svg>
