<svg width="26" height="26" viewBox="0 0 26 26" fill="none" xmlns="http://www.w3.org/2000/svg">
<mask id="mask0_1_10939" style="mask-type:alpha" maskUnits="userSpaceOnUse" x="0" y="0" width="26" height="26">
<circle cx="13" cy="13" r="13" fill="#634848"/>
</mask>
<g mask="url(#mask0_1_10939)">
<rect x="-4" width="34" height="26" fill="white"/>
<path d="M8.28516 13.3201L18.4351 25.5H-3.83073V0.842271L17.5418 12.5H8.66927H7.60175L8.28516 13.3201Z" fill="#C51918" stroke="#4857A1"/>
<mask id="mask1_1_10939" style="mask-type:alpha" maskUnits="userSpaceOnUse" x="-5" y="0" width="25" height="26">
<path d="M8.28516 13.3201L18.4351 25.5H-3.83073V0.842271L17.5418 12.5H8.66927H7.60175L8.28516 13.3201Z" fill="white" stroke="white"/>
</mask>
<g mask="url(#mask1_1_10939)">
<path fill-rule="evenodd" clip-rule="evenodd" d="M1.9847 21.6778L0.657438 23.4004L0.596169 21.2267L-1.49012 21.8401L-0.261992 20.0455L-2.31042 19.3155L-0.261992 18.5855L-1.49012 16.7909L0.596169 17.4044L0.657438 15.2306L1.9847 16.9532L3.31197 15.2306L3.37324 17.4044L5.45953 16.7909L4.2314 18.5855L6.27982 19.3155L4.2314 20.0455L5.45953 21.8401L3.37324 21.2267L3.31197 23.4004L1.9847 21.6778Z" fill="#F7FCFF"/>
<path fill-rule="evenodd" clip-rule="evenodd" d="M1.94922 8.81712L1.25606 9.71673L1.22406 8.5815L0.134513 8.90187L0.775895 7.96465L-0.293881 7.58341L0.775895 7.20218L0.134513 6.26495L1.22406 6.58533L1.25606 5.4501L1.94922 6.34971L2.64237 5.4501L2.67437 6.58533L3.76392 6.26495L3.12254 7.20218L4.19232 7.58341L3.12254 7.96465L3.76392 8.90187L2.67437 8.5815L2.64237 9.71673L1.94922 8.81712Z" fill="#F7FCFF"/>
<path fill-rule="evenodd" clip-rule="evenodd" d="M1.80922 8.55206C4.22106 8.5617 5.50698 7.19346 5.50698 7.19346C5.76137 8.75471 3.79727 9.79346 1.83272 9.79346C-0.13182 9.79346 -1.32125 8.37752 -2.05404 7.19346C-2.05404 7.19346 -0.602628 8.54243 1.80922 8.55206Z" fill="#F9FAFA"/>
</g>
</g>
</svg>
