<svg width="26" height="26" viewBox="0 0 26 26" fill="none" xmlns="http://www.w3.org/2000/svg">
<mask id="mask0_1_13787" style="mask-type:alpha" maskUnits="userSpaceOnUse" x="0" y="0" width="26" height="26">
<circle cx="13" cy="13" r="13" fill="#634848"/>
</mask>
<g mask="url(#mask0_1_13787)">
<g clip-path="url(#clip0_1_13787)">
<path fill-rule="evenodd" clip-rule="evenodd" d="M0 0H26.1847V13.0033H0V0Z" fill="white"/>
<path d="M0 0V0.974851L6.24743 4.19291L8.6007 4.26104L0 0Z" fill="#C8102E"/>
<path d="M2.67298 0L10.2517 3.95706V0H2.67298Z" fill="#012169"/>
<path d="M11.2632 0V5.05245H0V7.93507H11.2684V12.9875H14.7276V7.93507H25.996V5.05245H14.7276V0H11.2684H11.2632Z" fill="#C8102E"/>
<path d="M15.7339 0V3.72645L23.1448 0.0314468L15.7339 0Z" fill="#012169"/>
<path d="M15.9697 4.1353L18.0557 4.11958L26.148 0.0314941L23.9991 0.0629409L15.975 4.14054L15.9697 4.1353Z" fill="#C8102E"/>
<path d="M0 8.77881V11.5461L5.1992 8.80501L0 8.78405V8.77881Z" fill="#012169"/>
<path d="M20.0159 8.89414L17.8461 8.87842L26.0117 12.9403L25.9593 12.0126L20.0106 8.89414H20.0159ZM2.02832 13.0137L9.68561 8.98848L7.67826 9.00421L0 13.0032" fill="#C8102E"/>
<path d="M26.0956 1.14257L19.9111 4.20863L26.0117 4.23484V8.79986H20.8178L25.9646 11.5934L26.0379 13.0085L23.2916 12.977L15.7653 9.28205V13.0137H10.2726V9.27681L3.21281 12.998L0.0209645 13.0085V25.996H51.992V0.0209645L26.1533 0M0.0314468 1.46752L0 4.16146L5.47174 4.22959L0.0262057 1.46752H0.0314468Z" fill="#012169"/>
<path fill-rule="evenodd" clip-rule="evenodd" d="M25.996 0H51.9973V25.996H26.0013L25.996 0Z" fill="#FFD900"/>
<path fill-rule="evenodd" clip-rule="evenodd" d="M0 12.998H27.4373V25.9961H0V12.998Z" fill="#FFD900"/>
<path fill-rule="evenodd" clip-rule="evenodd" d="M15.2465 6.56718C15.2611 6.87053 15.2141 7.17371 15.1081 7.45833C15.0021 7.74295 14.8394 8.00308 14.6299 8.22296C14.4204 8.44285 14.1685 8.6179 13.8893 8.7375C13.6101 8.85711 13.3096 8.91878 13.0059 8.91878C12.7022 8.91878 12.4016 8.85711 12.1224 8.7375C11.8433 8.6179 11.5913 8.44285 11.3818 8.22296C11.1723 8.00308 11.0096 7.74295 10.9037 7.45833C10.7977 7.17371 10.7506 6.87053 10.7653 6.56718C10.7931 5.99168 11.0413 5.44897 11.4585 5.05152C11.8756 4.65407 12.4297 4.43237 13.0059 4.43237C13.582 4.43237 14.1361 4.65407 14.5533 5.05152C14.9704 5.44897 15.2186 5.99168 15.2465 6.56718V6.56718Z" fill="#012169"/>
<path fill-rule="evenodd" clip-rule="evenodd" d="M11.8869 8.07127L12.3219 6.78719L11.1898 5.99054H12.5892L13.019 4.70122L13.4487 5.99054H14.8481L13.716 6.78719L14.1511 8.07127L13.019 7.26937L11.8869 8.07127ZM20.0264 7.18027L20.2413 6.57754L19.6805 6.20018H20.3723L20.5872 5.59745L20.7968 6.20542H21.4939L20.9331 6.5723L21.148 7.17503L20.5872 6.80815L20.0264 7.18027ZM12.4424 11.6614L12.6573 11.0587L12.0965 10.6866H12.7936L13.0032 10.0839L13.2181 10.6866H13.91L13.3492 11.0535L13.564 11.6614L13.0032 11.2893L12.4424 11.6614ZM12.4424 2.90875L12.6573 2.30078L12.0965 1.9339H12.7936L13.0032 1.32593L13.2181 1.92866H13.91L13.3492 2.30602L13.564 2.90875L13.0032 2.54187L12.4424 2.90875ZM4.83756 7.16979L5.05245 6.56706L4.49165 6.20018H5.18348L5.39837 5.59221L5.60801 6.19494H6.30508L5.74428 6.56706L5.95393 7.16979L5.39837 6.80291L4.83756 7.16979Z" fill="#FEDD00"/>
</g>
</g>
<defs>
<clipPath id="clip0_1_13787">
<rect width="26" height="26" fill="white"/>
</clipPath>
</defs>
</svg>
