<svg width="26" height="26" viewBox="0 0 26 26" fill="none" xmlns="http://www.w3.org/2000/svg">
<mask id="mask0_1_10891" style="mask-type:alpha" maskUnits="userSpaceOnUse" x="0" y="0" width="26" height="26">
<circle cx="13" cy="13" r="13" fill="#634848"/>
</mask>
<g mask="url(#mask0_1_10891)">
<mask id="mask1_1_10891" style="mask-type:alpha" maskUnits="userSpaceOnUse" x="-5" y="0" width="36" height="26">
<rect x="-4.33333" width="34.6667" height="26" fill="white"/>
</mask>
<g mask="url(#mask1_1_10891)">
<path fill-rule="evenodd" clip-rule="evenodd" d="M-4.33073 0V26H30.3359V0H-4.33073Z" fill="#2E42A5"/>
<mask id="mask2_1_10891" style="mask-type:alpha" maskUnits="userSpaceOnUse" x="-5" y="0" width="36" height="26">
<path fill-rule="evenodd" clip-rule="evenodd" d="M-4.33073 0V26H30.3359V0H-4.33073Z" fill="white"/>
</mask>
<g mask="url(#mask2_1_10891)">
<rect x="-4.33073" width="18" height="14" fill="#2B409A"/>
<mask id="mask3_1_10891" style="mask-type:alpha" maskUnits="userSpaceOnUse" x="-5" y="0" width="19" height="14">
<rect x="-4.33073" width="18" height="14" fill="white"/>
</mask>
<g mask="url(#mask3_1_10891)">
<path d="M-6.33499 12.9999L-2.37404 14.7371L13.7592 1.88878L15.8485 -0.692749L11.6128 -1.27337L5.03245 4.26332L-0.264047 7.99375L-6.33499 12.9999Z" fill="#F7FCFF"/>
<path d="M-5.79273 14.217L-3.77481 15.2251L15.0982 -0.932617H12.2648L-5.79273 14.217Z" fill="#F50100"/>
<path d="M15.6735 12.9999L11.7126 14.7371L-4.42061 1.88878L-6.50992 -0.692749L-2.27425 -1.27337L4.30609 4.26332L9.60259 7.99375L15.6735 12.9999Z" fill="#F7FCFF"/>
<path d="M15.5384 13.8732L13.5205 14.8813L5.48413 7.96339L3.10154 7.19046L-6.71096 -0.684069H-3.87756L5.92942 7.00356L8.53437 7.93038L15.5384 13.8732Z" fill="#F50100"/>
<mask id="path-11-outside-1_1_10891" maskUnits="userSpaceOnUse" x="-6.33073" y="-2" width="22" height="18" fill="black">
<rect fill="white" x="-6.33073" y="-2" width="22" height="18"/>
<path fill-rule="evenodd" clip-rule="evenodd" d="M5.65378 0H3.65378V6H-4.33073V8H3.65378V14H5.65378V8H13.6693V6H5.65378V0Z"/>
</mask>
<path fill-rule="evenodd" clip-rule="evenodd" d="M5.65378 0H3.65378V6H-4.33073V8H3.65378V14H5.65378V8H13.6693V6H5.65378V0Z" fill="#F50100"/>
<path d="M3.65378 0V-1.5H2.15378V0H3.65378ZM5.65378 0H7.15378V-1.5H5.65378V0ZM3.65378 6V7.5H5.15378V6H3.65378ZM-4.33073 6V4.5H-5.83073V6H-4.33073ZM-4.33073 8H-5.83073V9.5H-4.33073V8ZM3.65378 8H5.15378V6.5H3.65378V8ZM3.65378 14H2.15378V15.5H3.65378V14ZM5.65378 14V15.5H7.15378V14H5.65378ZM5.65378 8V6.5H4.15378V8H5.65378ZM13.6693 8V9.5H15.1693V8H13.6693ZM13.6693 6H15.1693V4.5H13.6693V6ZM5.65378 6H4.15378V7.5H5.65378V6ZM3.65378 1.5H5.65378V-1.5H3.65378V1.5ZM5.15378 6V0H2.15378V6H5.15378ZM-4.33073 7.5H3.65378V4.5H-4.33073V7.5ZM-2.83073 8V6H-5.83073V8H-2.83073ZM3.65378 6.5H-4.33073V9.5H3.65378V6.5ZM5.15378 14V8H2.15378V14H5.15378ZM5.65378 12.5H3.65378V15.5H5.65378V12.5ZM4.15378 8V14H7.15378V8H4.15378ZM13.6693 6.5H5.65378V9.5H13.6693V6.5ZM12.1693 6V8H15.1693V6H12.1693ZM5.65378 7.5H13.6693V4.5H5.65378V7.5ZM4.15378 0V6H7.15378V0H4.15378Z" fill="#F7FCFF" mask="url(#path-11-outside-1_1_10891)"/>
</g>
<path fill-rule="evenodd" clip-rule="evenodd" d="M21.7818 8.09216L21.5005 9.73234L22.9734 8.95795L24.4464 9.73234L24.1651 8.09216L25.3568 6.93057L23.7099 6.69127L22.9734 5.19897L22.2369 6.69127L20.5901 6.93057L21.7818 8.09216ZM17.4484 14.1584L17.1671 15.7986L18.6401 15.0242L20.1131 15.7986L19.8318 14.1584L21.0234 12.9968L19.3766 12.7575L18.6401 11.2652L17.9036 12.7575L16.2568 12.9968L17.4484 14.1584ZM21.0463 21.0847L20.6815 23.2118L22.5918 22.2075L24.5021 23.2118L24.1373 21.0847L25.6827 19.5782L23.5469 19.2679L22.5918 17.3325L21.6366 19.2679L19.5009 19.5782L21.0463 21.0847ZM24.7493 15.7936L25.0303 14.1552L23.84 12.9949L25.485 12.7559L26.2207 11.2652L26.9563 12.7559L28.6013 12.9949L27.411 14.1552L27.692 15.7936L26.2207 15.02L24.7493 15.7936Z" fill="#F50100"/>
<path d="M21.5005 9.73234L21.3033 9.69854L21.2348 10.0979L21.5935 9.90937L21.5005 9.73234ZM21.7818 8.09216L21.9789 8.12596L21.9967 8.02233L21.9214 7.94894L21.7818 8.09216ZM22.9734 8.95795L23.0665 8.78093L22.9734 8.732L22.8804 8.78093L22.9734 8.95795ZM24.4464 9.73234L24.3533 9.90937L24.712 10.0979L24.6435 9.69854L24.4464 9.73234ZM24.1651 8.09216L24.0255 7.94894L23.9502 8.02233L23.968 8.12596L24.1651 8.09216ZM25.3568 6.93057L25.4964 7.07379L25.7866 6.79092L25.3855 6.73265L25.3568 6.93057ZM23.7099 6.69127L23.5306 6.77978L23.5771 6.87407L23.6812 6.88919L23.7099 6.69127ZM22.9734 5.19897L23.1528 5.11046L22.9734 4.74706L22.7941 5.11046L22.9734 5.19897ZM22.2369 6.69127L22.2657 6.88919L22.3698 6.87407L22.4163 6.77978L22.2369 6.69127ZM20.5901 6.93057L20.5613 6.73265L20.1603 6.79092L20.4505 7.07379L20.5901 6.93057ZM17.1671 15.7986L16.97 15.7648L16.9015 16.1642L17.2602 15.9756L17.1671 15.7986ZM17.4484 14.1584L17.6456 14.1922L17.6633 14.0886L17.588 14.0152L17.4484 14.1584ZM18.6401 15.0242L18.7332 14.8472L18.6401 14.7982L18.547 14.8472L18.6401 15.0242ZM20.1131 15.7986L20.02 15.9756L20.3787 16.1642L20.3102 15.7648L20.1131 15.7986ZM19.8318 14.1584L19.6922 14.0152L19.6169 14.0886L19.6346 14.1922L19.8318 14.1584ZM21.0234 12.9968L21.163 13.14L21.4532 12.8572L21.0522 12.7989L21.0234 12.9968ZM19.3766 12.7575L19.1972 12.846L19.2438 12.9403L19.3478 12.9554L19.3766 12.7575ZM18.6401 11.2652L18.8194 11.1767L18.6401 10.8133L18.4608 11.1767L18.6401 11.2652ZM17.9036 12.7575L17.9324 12.9554L18.0364 12.9403L18.083 12.846L17.9036 12.7575ZM16.2568 12.9968L16.228 12.7989L15.827 12.8572L16.1172 13.14L16.2568 12.9968ZM20.6815 23.2118L20.4844 23.178L20.4159 23.5774L20.7746 23.3889L20.6815 23.2118ZM21.0463 21.0847L21.2435 21.1185L21.2612 21.0148L21.1859 20.9415L21.0463 21.0847ZM22.5918 22.2075L22.6849 22.0305L22.5918 21.9816L22.4987 22.0305L22.5918 22.2075ZM24.5021 23.2118L24.409 23.3889L24.7677 23.5774L24.6992 23.178L24.5021 23.2118ZM24.1373 21.0847L23.9977 20.9415L23.9224 21.0148L23.9401 21.1185L24.1373 21.0847ZM25.6827 19.5782L25.8223 19.7214L26.1125 19.4386L25.7115 19.3803L25.6827 19.5782ZM23.5469 19.2679L23.3676 19.3564L23.4141 19.4507L23.5182 19.4658L23.5469 19.2679ZM22.5918 17.3325L22.7711 17.244L22.5918 16.8806L22.4125 17.244L22.5918 17.3325ZM21.6366 19.2679L21.6654 19.4658L21.7695 19.4507L21.816 19.3564L21.6366 19.2679ZM19.5009 19.5782L19.4721 19.3803L19.0711 19.4386L19.3613 19.7214L19.5009 19.5782ZM25.0303 14.1552L25.2274 14.189L25.2452 14.0854L25.1699 14.012L25.0303 14.1552ZM24.7493 15.7936L24.5522 15.7597L24.4837 16.1592L24.8424 15.9706L24.7493 15.7936ZM23.84 12.9949L23.8112 12.797L23.4102 12.8552L23.7004 13.1381L23.84 12.9949ZM25.485 12.7559L25.5137 12.9538L25.6178 12.9387L25.6643 12.8444L25.485 12.7559ZM26.2207 11.2652L26.4 11.1767L26.2207 10.8133L26.0413 11.1767L26.2207 11.2652ZM26.9563 12.7559L26.777 12.8444L26.8235 12.9387L26.9276 12.9538L26.9563 12.7559ZM28.6013 12.9949L28.7409 13.1381L29.0311 12.8552L28.6301 12.797L28.6013 12.9949ZM27.411 14.1552L27.2714 14.012L27.1961 14.0854L27.2139 14.189L27.411 14.1552ZM27.692 15.7936L27.5989 15.9706L27.9576 16.1592L27.8891 15.7597L27.692 15.7936ZM26.2207 15.02L26.3137 14.843L26.2207 14.7941L26.1276 14.843L26.2207 15.02ZM21.6976 9.76615L21.9789 8.12596L21.5846 8.05835L21.3033 9.69854L21.6976 9.76615ZM22.8804 8.78093L21.4074 9.55532L21.5935 9.90937L23.0665 9.13498L22.8804 8.78093ZM24.5395 9.55532L23.0665 8.78093L22.8804 9.13498L24.3533 9.90937L24.5395 9.55532ZM23.968 8.12596L24.2493 9.76615L24.6435 9.69854L24.3622 8.05835L23.968 8.12596ZM25.2172 6.78735L24.0255 7.94894L24.3047 8.23537L25.4964 7.07379L25.2172 6.78735ZM23.6812 6.88919L25.328 7.12849L25.3855 6.73265L23.7387 6.49335L23.6812 6.88919ZM22.7941 5.28749L23.5306 6.77978L23.8893 6.60275L23.1528 5.11046L22.7941 5.28749ZM22.4163 6.77978L23.1528 5.28749L22.7941 5.11046L22.0576 6.60275L22.4163 6.77978ZM20.6189 7.12849L22.2657 6.88919L22.2082 6.49335L20.5613 6.73265L20.6189 7.12849ZM21.9214 7.94894L20.7297 6.78735L20.4505 7.07379L21.6422 8.23537L21.9214 7.94894ZM17.3642 15.8324L17.6456 14.1922L17.2513 14.1246L16.97 15.7648L17.3642 15.8324ZM18.547 14.8472L17.0741 15.6216L17.2602 15.9756L18.7332 15.2012L18.547 14.8472ZM20.2062 15.6216L18.7332 14.8472L18.547 15.2012L20.02 15.9756L20.2062 15.6216ZM19.6346 14.1922L19.916 15.8324L20.3102 15.7648L20.0289 14.1246L19.6346 14.1922ZM20.8838 12.8536L19.6922 14.0152L19.9714 14.3016L21.163 13.14L20.8838 12.8536ZM19.3478 12.9554L20.9947 13.1947L21.0522 12.7989L19.4054 12.5596L19.3478 12.9554ZM18.4608 11.3537L19.1972 12.846L19.5559 12.669L18.8194 11.1767L18.4608 11.3537ZM18.083 12.846L18.8194 11.3537L18.4608 11.1767L17.7243 12.669L18.083 12.846ZM16.2855 13.1947L17.9324 12.9554L17.8749 12.5596L16.228 12.7989L16.2855 13.1947ZM17.588 14.0152L16.3964 12.8536L16.1172 13.14L17.3088 14.3016L17.588 14.0152ZM20.8786 23.2456L21.2435 21.1185L20.8492 21.0509L20.4844 23.178L20.8786 23.2456ZM22.4987 22.0305L20.5884 23.0348L20.7746 23.3889L22.6849 22.3845L22.4987 22.0305ZM24.5952 23.0348L22.6849 22.0305L22.4987 22.3845L24.409 23.3889L24.5952 23.0348ZM23.9401 21.1185L24.305 23.2456L24.6992 23.178L24.3344 21.0509L23.9401 21.1185ZM25.5431 19.435L23.9977 20.9415L24.2769 21.2279L25.8223 19.7214L25.5431 19.435ZM23.5182 19.4658L25.654 19.7761L25.7115 19.3803L23.5757 19.0699L23.5182 19.4658ZM22.4125 17.421L23.3676 19.3564L23.7263 19.1794L22.7711 17.244L22.4125 17.421ZM21.816 19.3564L22.7711 17.421L22.4125 17.244L21.4573 19.1794L21.816 19.3564ZM19.5296 19.7761L21.6654 19.4658L21.6079 19.0699L19.4721 19.3803L19.5296 19.7761ZM21.1859 20.9415L19.6405 19.435L19.3613 19.7214L20.9067 21.2279L21.1859 20.9415ZM24.8332 14.1214L24.5522 15.7597L24.9464 15.8274L25.2274 14.189L24.8332 14.1214ZM23.7004 13.1381L24.8907 14.2984L25.1699 14.012L23.9796 12.8517L23.7004 13.1381ZM25.4562 12.5579L23.8112 12.797L23.8687 13.1928L25.5137 12.9538L25.4562 12.5579ZM26.0413 11.1767L25.3056 12.6673L25.6643 12.8444L26.4 11.3537L26.0413 11.1767ZM27.1357 12.6673L26.4 11.1767L26.0413 11.3537L26.777 12.8444L27.1357 12.6673ZM28.6301 12.797L26.9851 12.5579L26.9276 12.9538L28.5726 13.1928L28.6301 12.797ZM27.5506 14.2984L28.7409 13.1381L28.4617 12.8517L27.2714 14.012L27.5506 14.2984ZM27.8891 15.7597L27.6081 14.1214L27.2139 14.189L27.4949 15.8274L27.8891 15.7597ZM26.1276 15.197L27.5989 15.9706L27.7851 15.6165L26.3137 14.843L26.1276 15.197ZM24.8424 15.9706L26.3137 15.197L26.1276 14.843L24.6562 15.6165L24.8424 15.9706Z" fill="#F7FCFF"/>
</g>
</g>
</g>
</svg>
