<svg width="26" height="26" viewBox="0 0 26 26" fill="none" xmlns="http://www.w3.org/2000/svg">
<mask id="mask0_1_10794" style="mask-type:alpha" maskUnits="userSpaceOnUse" x="0" y="0" width="26" height="26">
<circle cx="13" cy="13" r="13" fill="#634848"/>
</mask>
<g mask="url(#mask0_1_10794)">
<mask id="mask1_1_10794" style="mask-type:alpha" maskUnits="userSpaceOnUse" x="-5" y="0" width="36" height="26">
<rect x="-4.33333" width="34.6667" height="26" fill="white"/>
</mask>
<g mask="url(#mask1_1_10794)">
<path fill-rule="evenodd" clip-rule="evenodd" d="M-4.33073 0V26H30.3359V0H-4.33073Z" fill="#F50101"/>
<mask id="mask2_1_10794" style="mask-type:alpha" maskUnits="userSpaceOnUse" x="-5" y="0" width="36" height="26">
<path fill-rule="evenodd" clip-rule="evenodd" d="M-4.33073 0V26H30.3359V0H-4.33073Z" fill="white"/>
</mask>
<g mask="url(#mask2_1_10794)">
<path fill-rule="evenodd" clip-rule="evenodd" d="M-4.33073 0V8.66667H30.3359V0H-4.33073Z" fill="#F7FCFF"/>
<path fill-rule="evenodd" clip-rule="evenodd" d="M-4.33073 17.3333V25.9999H30.3359V17.3333H-4.33073Z" fill="#5EAA22"/>
<rect x="-4.33073" width="13" height="26" fill="#F50101"/>
<path fill-rule="evenodd" clip-rule="evenodd" d="M7.33143 2.16856C7.34058 2.07731 7.22381 2.04253 7.17741 2.12164C6.79505 2.77343 5.80416 4.37836 4.15843 6.48583V5.48927C4.00371 5.32112 3.51046 4.86874 3.51046 4.86874V3.87606L4.40278 3.06855L3.17724 2.16511L1.88553 3.06855L2.86189 3.87606V4.86874C2.86189 5.34476 2.26996 5.48927 2.26996 5.48927L2.16184 6.36284C0.63181 4.37582 -0.313804 2.83293 -0.701892 2.16533C-0.749227 2.0839 -0.86915 2.12216 -0.855424 2.21534C-0.740305 2.99687 -0.384796 4.79169 0.622393 6.71003H0.358247V6.66792C0.358247 6.61989 0.319315 6.58096 0.27129 6.58096H-2.02762C-2.07565 6.58096 -2.11458 6.61989 -2.11458 6.66792V8.119C-2.11458 8.16703 -2.07565 8.20596 -2.02762 8.20596H0.27129C0.319315 8.20596 0.358247 8.16703 0.358247 8.119V7.35718H0.645738C0.742941 7.58182 0.966194 7.74037 1.22751 7.74581C1.41078 8.02859 1.60954 8.31061 1.8251 8.5891C1.3368 8.54068 -1.94531 8.25962 -1.94531 9.45204C-1.94531 10.1631 -1.14852 10.5394 -0.149495 10.7338C-1.17092 11.6587 -2.13386 12.5279 -2.5601 12.9124C-2.62549 12.9714 -2.57116 13.0718 -2.48563 13.0508C-1.72481 12.8641 0.340227 12.2697 2.30549 10.9295L2.36496 10.9295C2.9134 10.9295 3.29469 10.6914 3.55958 10.3692C5.56448 12.0061 7.83645 12.7505 8.7872 13.0087C8.88036 13.034 8.93226 12.9143 8.85285 12.8594C8.08147 12.3263 6.27646 10.9975 4.4302 9.05458L4.47886 8.99762C4.84893 8.5609 5.17155 8.11172 5.45279 7.66131C5.57371 7.59232 5.66999 7.4858 5.72536 7.35783H6.01286V8.11966C6.01286 8.16768 6.05179 8.20661 6.09981 8.20661H8.39872C8.44675 8.20661 8.48568 8.16768 8.48568 8.11966V6.66857C8.48568 6.62054 8.44675 6.58161 8.39872 6.58161H6.09981C6.07727 6.58161 6.05673 6.59019 6.04128 6.60426C6.98825 4.68725 7.25699 2.91047 7.33143 2.16856ZM6.01286 6.71068V6.66857C6.01286 6.66593 6.01297 6.66332 6.0132 6.66074L5.98808 6.71068H6.01286ZM1.77398 7.10548C1.77398 7.39498 1.53674 7.62967 1.24409 7.62967C0.951437 7.62967 0.714197 7.39498 0.714197 7.10548C0.714197 6.81598 0.951437 6.58129 1.24409 6.58129C1.53674 6.58129 1.77398 6.81598 1.77398 7.10548ZM4.60103 7.10613C4.60103 7.39564 4.83827 7.63032 5.13092 7.63032C5.42357 7.63032 5.66081 7.39564 5.66081 7.10613C5.66081 6.81663 5.42357 6.58194 5.13092 6.58194C4.83827 6.58194 4.60103 6.81663 4.60103 7.10613Z" fill="#F7FCFF"/>
</g>
</g>
</g>
</svg>
