<svg width="26" height="26" viewBox="0 0 26 26" fill="none" xmlns="http://www.w3.org/2000/svg">
<mask id="mask0_1_10689" style="mask-type:alpha" maskUnits="userSpaceOnUse" x="0" y="0" width="26" height="26">
<circle cx="13" cy="13" r="13" fill="#634848"/>
</mask>
<g mask="url(#mask0_1_10689)">
<mask id="mask1_1_10689" style="mask-type:alpha" maskUnits="userSpaceOnUse" x="-5" y="0" width="36" height="26">
<rect x="-4.33333" width="34.6667" height="26" fill="white"/>
</mask>
<g mask="url(#mask1_1_10689)">
<path fill-rule="evenodd" clip-rule="evenodd" d="M4.33594 0H22.7526V26H4.33594V0Z" fill="#F7FCFF"/>
<path fill-rule="evenodd" clip-rule="evenodd" d="M21.6693 0H30.3359V26H21.6693V0Z" fill="#F50101"/>
<path fill-rule="evenodd" clip-rule="evenodd" d="M-4.33073 0H4.33594V26H-4.33073V0Z" fill="#F50101"/>
<path d="M12.7196 9.47305L12.7559 9.86516C11.6742 9.97456 11.0898 9.44604 11.0898 8.34913C11.0898 7.26069 11.6616 6.68214 12.7366 6.67529L12.7389 7.06923C11.8679 7.07477 11.4667 7.4808 11.4667 8.34913C11.4667 9.209 11.8553 9.56047 12.7196 9.47305Z" fill="#A2BB6A"/>
<path d="M13.201 9.47305L13.1647 9.86516C14.2464 9.97456 14.8307 9.44604 14.8307 8.34913C14.8307 7.26069 14.259 6.68214 13.184 6.67529L13.1817 7.06923C14.0527 7.07477 14.4539 7.4808 14.4539 8.34913C14.4539 9.209 14.0653 9.56047 13.201 9.47305Z" fill="#A2BB6A"/>
<path fill-rule="evenodd" clip-rule="evenodd" d="M12.0681 18.5494C11.7571 18.6608 9.64844 18.5494 9.64844 18.5494V19.1367H11.0465C11.5129 19.1367 11.6893 19.2202 11.851 19.2968C11.9881 19.3617 12.1147 19.4216 12.3986 19.4216C12.9514 19.4216 12.9413 19.0104 12.9329 18.6681C12.9318 18.6272 12.9309 18.5874 12.9309 18.5494C12.9309 18.4039 12.9536 18.3227 12.9713 18.2596C12.997 18.1677 13.012 18.114 12.9309 17.9559C12.7939 17.6891 11.4916 17.7247 11.4916 17.9559C11.4916 18.0649 11.689 18.1783 11.8651 18.2794C12.0622 18.3927 12.2325 18.4905 12.0681 18.5494ZM13.9657 18.5494C14.2767 18.6608 16.3854 18.5494 16.3854 18.5494V19.1367H14.9874C14.5209 19.1367 14.3446 19.2202 14.1828 19.2968C14.0457 19.3617 13.9191 19.4216 13.6353 19.4216C13.0824 19.4216 13.0926 19.0104 13.101 18.6681C13.102 18.6272 13.103 18.5874 13.103 18.5494C13.103 18.4039 13.0803 18.3227 13.0626 18.2596C13.0369 18.1677 13.0218 18.114 13.103 17.9559C13.2399 17.6891 14.5423 17.7247 14.5423 17.9559C14.5423 18.0649 14.3448 18.1783 14.1688 18.2794C13.9716 18.3927 13.8014 18.4905 13.9657 18.5494Z" fill="#E31D1C"/>
<path fill-rule="evenodd" clip-rule="evenodd" d="M13.4427 18.6055C13.4427 18.6055 15.0882 18.442 15.4604 17.8486C15.8325 17.2551 16.4525 16.242 16.6704 15.9968C16.8884 15.7515 16.9025 16.3471 16.9025 16.3471C16.9025 16.3471 17.2621 16.8571 17.2621 16.205C17.2621 15.5528 17.0063 16.0084 16.6704 15.0271C16.3345 14.0458 16.1456 13.0833 16.2401 12.9376C16.3345 12.7919 16.5583 13.0833 16.5583 12.9376C16.5583 12.7919 16.5583 12.5067 16.5583 12.5067L16.9025 12.9376L17.2621 12.8011C17.2621 12.8011 17.5582 13.4351 17.7405 13.6313C17.9228 13.8276 18.0295 13.3685 17.9761 12.9376C17.9228 12.5067 17.2621 12.5067 17.2621 12.5067C17.2621 12.5067 16.4171 12.0512 16.4171 11.8603C16.4171 11.6695 16.7824 11.7263 16.7824 11.7263L16.6704 11.1353C16.6704 11.1353 16.9724 11.4942 17.1173 11.3147C17.2621 11.1353 16.9025 10.8203 16.9025 10.8203H17.4758V10.5435L17.7405 10.6916L17.4758 10.0872C17.4758 10.0872 16.6994 10.2041 16.5583 10.0872C16.4171 9.97026 15.9725 9.5146 15.9725 9.5146V9.29829H15.7163L15.9725 8.8644V8.17348L16.9025 8.3589V7.84802C16.9025 7.84802 18.2118 8.48628 17.9761 9.00044C17.7405 9.5146 17.7405 10.0872 17.7405 10.0872V10.5435C17.7405 10.5435 17.7797 10.4038 17.9761 10.4038C18.1726 10.4038 18.3961 10.5053 18.3961 10.8203C18.3961 11.1353 18.7962 10.6916 18.7962 10.6916V12.002C18.7962 12.002 18.8902 12.1437 19.0958 12.002C19.3014 11.8603 19.2113 11.9709 18.5937 12.8011C17.9761 13.6313 18.1986 13.6336 18.3961 13.4302C18.5937 13.2267 19.3954 12.6484 19.0958 12.9376C18.7962 13.2267 18.7763 13.8325 19.0958 13.6313C19.4153 13.4302 19.3536 13.287 19.3536 13.6313C19.3536 13.9757 18.7913 15.1477 18.5937 15.3313C18.3961 15.5148 18.2118 15.6277 17.9761 15.8122C17.7405 15.9968 17.4758 16.2148 17.4758 16.3471C17.4758 16.4794 17.9761 16.205 17.9761 16.205L17.7405 17.0462H18.1985C18.1985 17.0462 17.834 18.1634 17.1173 18.1634C16.4006 18.1634 15.8603 18.1634 15.7163 18.1634C15.5723 18.1634 14.9216 18.4702 14.9216 18.4702L14.4456 18.6055C14.4456 18.6055 15.2045 18.678 15.4604 18.9059C15.7163 19.1337 15.4604 19.2926 15.4604 19.2926C15.4604 19.2926 14.758 19.2229 14.2337 19.0644C13.7094 18.9059 13.4427 19.2063 13.4427 18.9059C13.4427 18.6055 13.4427 18.6055 13.4427 18.6055Z" fill="#00A854"/>
<path fill-rule="evenodd" clip-rule="evenodd" d="M18.188 9.65156C18.188 9.76034 18.1037 9.84853 17.9996 9.84853C17.8956 9.84853 17.8112 9.76034 17.8112 9.65156C17.8112 9.54278 17.8956 9.45459 17.9996 9.45459C18.1037 9.45459 18.188 9.54278 18.188 9.65156ZM17.2401 10.4387C17.2401 10.5475 17.1557 10.6356 17.0517 10.6356C16.9476 10.6356 16.8633 10.5475 16.8633 10.4387C16.8633 10.3299 16.9476 10.2417 17.0517 10.2417C17.1557 10.2417 17.2401 10.3299 17.2401 10.4387ZM18.1858 10.2421C18.2899 10.2421 18.3742 10.1539 18.3742 10.0451C18.3742 9.93633 18.2899 9.84814 18.1858 9.84814C18.0818 9.84814 17.9974 9.93633 17.9974 10.0451C17.9974 10.1539 18.0818 10.2421 18.1858 10.2421ZM17.8072 13.1978C17.8072 13.3066 17.7228 13.3948 17.6187 13.3948C17.5147 13.3948 17.4303 13.3066 17.4303 13.1978C17.4303 13.089 17.5147 13.0008 17.6187 13.0008C17.7228 13.0008 17.8072 13.089 17.8072 13.1978ZM16.8655 15.7582C16.9695 15.7582 17.0539 15.67 17.0539 15.5612C17.0539 15.4524 16.9695 15.3643 16.8655 15.3643C16.7614 15.3643 16.6771 15.4524 16.6771 15.5612C16.6771 15.67 16.7614 15.7582 16.8655 15.7582ZM18.3742 16.1516C18.3742 16.2603 18.2899 16.3485 18.1858 16.3485C18.0818 16.3485 17.9974 16.2603 17.9974 16.1516C17.9974 16.0428 18.0818 15.9546 18.1858 15.9546C18.2899 15.9546 18.3742 16.0428 18.3742 16.1516ZM18.5582 15.955C18.6623 15.955 18.7466 15.8668 18.7466 15.758C18.7466 15.6492 18.6623 15.561 18.5582 15.561C18.4541 15.561 18.3698 15.6492 18.3698 15.758C18.3698 15.8668 18.4541 15.955 18.5582 15.955ZM18.5604 13.001C18.5604 13.1098 18.4761 13.198 18.372 13.198C18.2679 13.198 18.1836 13.1098 18.1836 13.001C18.1836 12.8922 18.2679 12.804 18.372 12.804C18.4761 12.804 18.5604 12.8922 18.5604 13.001Z" fill="#C51918"/>
<path fill-rule="evenodd" clip-rule="evenodd" d="M12.6593 18.258C12.6593 18.258 9.66539 17.6663 9.50164 16.521C9.33789 15.3757 9.34019 14.1563 9.34019 14.1563L9.06257 14.9015C9.06257 14.9015 9.04854 13.8871 9.61799 13.1635C10.1874 12.4399 8.90616 13.643 8.90616 13.643C8.90616 13.643 9.55491 12.62 9.82501 12.5227C10.0951 12.4253 8.73975 13.1635 8.73975 13.1635C8.73975 13.1635 9.12803 12.3052 9.42985 12.0624C9.73168 11.8196 8.73975 12.5227 8.73975 12.5227C8.73975 12.5227 8.96419 11.6713 9.23264 11.4682C9.50109 11.2651 8.35541 12.5227 8.35541 12.5227C8.35541 12.5227 8.95979 10.5774 9.3003 10.3958C9.64082 10.2143 8.73975 10.7525 8.73975 10.7525C8.73975 10.7525 9.29169 9.92049 9.78604 9.50689C10.2804 9.09329 8.89249 9.68326 9.06257 9.68326C9.06257 9.68326 9.56444 9.11649 9.85279 8.95651C10.1411 8.79654 8.73975 9.50689 8.73975 9.50689C8.73975 9.50689 9.7457 8.39684 10.0473 8.23341C10.3488 8.06999 8.56693 9.11496 8.56693 9.11496C8.56693 9.11496 8.67099 8.63091 8.71591 8.28498C8.76084 7.93905 7.89039 9.23305 8.00857 10.3958C8.12675 11.5586 7.53502 9.50689 7.53502 9.50689C7.53502 9.50689 7.29692 9.95231 7.87535 11.119L7.24842 10.2403C7.24842 10.2403 7.33415 11.0377 7.53502 11.4682C7.7359 11.8987 6.96484 10.7525 6.96484 10.7525C6.96484 10.7525 6.81732 11.4682 6.96484 11.4682C6.96484 11.4682 7.84528 12.6445 7.87792 12.9874C7.91056 13.3304 6.88911 11.7629 6.75241 11.7629C6.61571 11.7629 6.53998 12.2664 6.75241 12.2664C6.96484 12.2664 7.36724 12.9874 7.36724 12.9874C7.36724 12.9874 6.84428 12.6095 6.73215 12.5872C6.62002 12.5648 6.82017 12.8114 6.96484 12.9874C6.96484 12.9874 6.55575 13.321 6.58683 13.5737C6.61791 13.8263 7.7018 13.8798 8.17415 15.0793C8.17415 15.0793 7.19754 14.5629 6.96484 14.5629C6.73215 14.5629 7.33955 15.1021 7.53502 15.2801C7.73049 15.4581 7.23384 15.1021 7.09934 15.2801C6.96484 15.4581 7.84299 16.2183 8.00857 16.2183C8.17415 16.2183 7.36724 16.2183 7.36724 16.2183C7.36724 16.2183 7.58169 16.521 7.87792 16.521C8.17415 16.521 9.23264 16.9967 9.23264 17.1508C9.23264 17.305 8.33973 16.9536 8.17415 16.9536C8.00857 16.9536 9.33991 18.2101 10.0473 18.258C10.7546 18.3059 11.2015 18.4958 11.5065 18.4958C11.8114 18.4958 12.0258 18.4958 12.0258 18.4958L10.5852 19.2298C10.5852 19.2298 10.4397 19.2298 11.0647 19.2298C11.6897 19.2298 12.1677 19.4035 12.4135 19.0445C12.6593 18.6854 12.6593 18.258 12.6593 18.258Z" fill="#00A854"/>
<mask id="path-12-outside-1_1_10689" maskUnits="userSpaceOnUse" x="7.94466" y="7.62048" width="10" height="11" fill="black">
<rect fill="white" x="7.94466" y="7.62048" width="10" height="11"/>
<path fill-rule="evenodd" clip-rule="evenodd" d="M13.0973 9.6462C13.1259 9.62999 13.1419 9.62048 13.1419 9.62048V9.67111C13.3499 9.78593 13.8759 10.0562 14.2178 10.0562C14.6519 10.0562 15.2419 9.62048 15.2419 9.62048L16.2291 11.0144C16.2291 11.0144 15.5642 12.4079 16.073 14.1107C16.5817 15.8135 16.0461 17.1265 13.7837 17.2723C13.7837 17.2723 13.3368 17.3572 13.1419 17.4925V17.6167C13.1419 17.5858 13.1254 17.5564 13.0973 17.5288C13.0693 17.5564 13.0528 17.5858 13.0528 17.6167V17.4925C12.8579 17.3572 12.4109 17.2723 12.4109 17.2723C10.1486 17.1265 9.61294 15.8135 10.1217 14.1107C10.6304 12.4079 9.96555 11.0144 9.96555 11.0144L10.9528 9.62048C10.9528 9.62048 11.5428 10.0562 11.9769 10.0562C12.3187 10.0562 12.8448 9.78593 13.0528 9.67111V9.62048C13.0528 9.62048 13.0687 9.62999 13.0973 9.6462Z"/>
</mask>
<path fill-rule="evenodd" clip-rule="evenodd" d="M13.0973 9.6462C13.1259 9.62999 13.1419 9.62048 13.1419 9.62048V9.67111C13.3499 9.78593 13.8759 10.0562 14.2178 10.0562C14.6519 10.0562 15.2419 9.62048 15.2419 9.62048L16.2291 11.0144C16.2291 11.0144 15.5642 12.4079 16.073 14.1107C16.5817 15.8135 16.0461 17.1265 13.7837 17.2723C13.7837 17.2723 13.3368 17.3572 13.1419 17.4925V17.6167C13.1419 17.5858 13.1254 17.5564 13.0973 17.5288C13.0693 17.5564 13.0528 17.5858 13.0528 17.6167V17.4925C12.8579 17.3572 12.4109 17.2723 12.4109 17.2723C10.1486 17.1265 9.61294 15.8135 10.1217 14.1107C10.6304 12.4079 9.96555 11.0144 9.96555 11.0144L10.9528 9.62048C10.9528 9.62048 11.5428 10.0562 11.9769 10.0562C12.3187 10.0562 12.8448 9.78593 13.0528 9.67111V9.62048C13.0528 9.62048 13.0687 9.62999 13.0973 9.6462Z" fill="#E8AA00"/>
<path d="M13.1419 9.62048H14.1419V7.86012L12.6298 8.76154L13.1419 9.62048ZM13.0973 9.6462L12.6041 10.5161L13.0973 10.7957L13.5905 10.5161L13.0973 9.6462ZM13.1419 9.67111H12.1419V10.2614L12.6586 10.5466L13.1419 9.67111ZM15.2419 9.62048L16.0579 9.04253L15.4684 8.21006L14.6478 8.81607L15.2419 9.62048ZM16.2291 11.0144L17.1316 11.4451L17.3844 10.9154L17.0452 10.4365L16.2291 11.0144ZM16.073 14.1107L15.1148 14.397L15.1148 14.397L16.073 14.1107ZM13.7837 17.2723L13.7194 16.2744L13.6577 16.2783L13.597 16.2899L13.7837 17.2723ZM13.1419 17.4925L12.5716 16.6711L12.1419 16.9694V17.4925H13.1419ZM13.0973 17.5288L13.7991 16.8164L13.0973 16.1251L12.3956 16.8164L13.0973 17.5288ZM13.0528 17.4925H14.0528V16.9694L13.6231 16.6711L13.0528 17.4925ZM12.4109 17.2723L12.5976 16.2899L12.5369 16.2783L12.4753 16.2744L12.4109 17.2723ZM10.1217 14.1107L11.0798 14.397L11.0798 14.397L10.1217 14.1107ZM9.96555 11.0144L9.14949 10.4365L8.81031 10.9154L9.06302 11.4451L9.96555 11.0144ZM10.9528 9.62048L11.5469 8.81607L10.7263 8.21006L10.1367 9.04253L10.9528 9.62048ZM13.0528 9.67111L13.536 10.5466L14.0528 10.2614V9.67111H13.0528ZM13.0528 9.62048L13.5649 8.76154L12.0528 7.86012V9.62048H13.0528ZM13.1419 9.62048C12.6298 8.76154 12.6298 8.76153 12.6298 8.76152C12.6298 8.76151 12.6299 8.7615 12.6299 8.7615C12.6299 8.76148 12.6299 8.76147 12.6299 8.76146C12.63 8.76144 12.63 8.76141 12.6301 8.76139C12.6301 8.76134 12.6302 8.7613 12.6303 8.76125C12.6304 8.76117 12.6306 8.76109 12.6307 8.76102C12.6309 8.76089 12.6311 8.76079 12.6312 8.76073C12.6314 8.76059 12.6314 8.7606 12.6311 8.76074C12.6307 8.76102 12.6293 8.76183 12.6271 8.76312C12.6226 8.76571 12.6149 8.77021 12.6041 8.77629L13.5905 10.5161C13.6084 10.506 13.6229 10.4976 13.6336 10.4914C13.6389 10.4883 13.6433 10.4857 13.6467 10.4837C13.6484 10.4827 13.6499 10.4818 13.6511 10.4811C13.6517 10.4808 13.6522 10.4804 13.6527 10.4802C13.6529 10.48 13.6532 10.4799 13.6534 10.4798C13.6535 10.4797 13.6536 10.4796 13.6537 10.4796C13.6537 10.4796 13.6538 10.4795 13.6538 10.4795C13.6538 10.4795 13.6539 10.4795 13.6539 10.4795C13.6539 10.4795 13.6539 10.4795 13.6539 10.4795C13.6539 10.4794 13.6539 10.4794 13.1419 9.62048ZM14.1419 9.67111V9.62048H12.1419V9.67111H14.1419ZM12.6586 10.5466C12.7799 10.6135 13.0008 10.7299 13.251 10.8323C13.4692 10.9215 13.8396 11.0562 14.2178 11.0562V9.05622C14.2531 9.05622 14.2498 9.06145 14.195 9.04667C14.1464 9.03355 14.083 9.01176 14.0083 8.98119C13.858 8.91968 13.7119 8.84353 13.6251 8.79562L12.6586 10.5466ZM14.2178 11.0562C14.7024 11.0562 15.1483 10.8367 15.3677 10.7183C15.5002 10.6467 15.6129 10.5764 15.6925 10.524C15.7328 10.4975 15.7658 10.4748 15.7901 10.4578C15.8022 10.4493 15.8122 10.4421 15.8199 10.4366C15.8238 10.4338 15.827 10.4314 15.8297 10.4295C15.8311 10.4285 15.8322 10.4276 15.8333 10.4269C15.8338 10.4265 15.8343 10.4261 15.8347 10.4258C15.835 10.4256 15.8352 10.4255 15.8354 10.4253C15.8355 10.4252 15.8356 10.4251 15.8357 10.4251C15.8358 10.425 15.836 10.4249 15.2419 9.62048C14.6478 8.81607 14.6479 8.81597 14.6481 8.81588C14.6481 8.81584 14.6482 8.81575 14.6483 8.81569C14.6485 8.81556 14.6487 8.81544 14.6488 8.81533C14.6491 8.81511 14.6494 8.81491 14.6496 8.81474C14.6501 8.8144 14.6504 8.81415 14.6506 8.81399C14.6511 8.81369 14.651 8.81375 14.6504 8.81417C14.6492 8.815 14.6461 8.81722 14.6413 8.82061C14.6316 8.82744 14.6151 8.83879 14.5933 8.85314C14.5487 8.88246 14.4868 8.92103 14.4175 8.95842C14.3463 8.99688 14.2814 9.02642 14.2297 9.0446C14.1707 9.06531 14.1711 9.05622 14.2178 9.05622V11.0562ZM14.4258 10.1984L15.413 11.5924L17.0452 10.4365L16.0579 9.04253L14.4258 10.1984ZM16.2291 11.0144C15.3266 10.5838 15.3264 10.5842 15.3262 10.5845C15.3262 10.5846 15.326 10.585 15.3259 10.5853C15.3257 10.5858 15.3254 10.5863 15.3252 10.5868C15.3246 10.5879 15.3241 10.5891 15.3235 10.5903C15.3223 10.5929 15.321 10.5958 15.3195 10.599C15.3165 10.6055 15.3129 10.6134 15.3087 10.6226C15.3005 10.6411 15.29 10.6652 15.2779 10.6945C15.2536 10.753 15.2223 10.8329 15.1881 10.9319C15.1198 11.1294 15.0384 11.4062 14.9766 11.7442C14.8534 12.4178 14.8043 13.3576 15.1148 14.397L17.0311 13.8245C16.8329 13.161 16.8619 12.5527 16.944 12.1039C16.9848 11.8806 17.0378 11.7026 17.0783 11.5856C17.0984 11.5274 17.1151 11.4851 17.1252 11.4608C17.1302 11.4487 17.1336 11.4411 17.1348 11.4384C17.1354 11.437 17.1355 11.4369 17.135 11.438C17.1347 11.4385 17.1343 11.4394 17.1338 11.4406C17.1335 11.4412 17.1332 11.4418 17.1328 11.4426C17.1326 11.443 17.1325 11.4434 17.1323 11.4438C17.1322 11.444 17.132 11.4443 17.132 11.4444C17.1318 11.4447 17.1316 11.4451 16.2291 11.0144ZM15.1148 14.397C15.3319 15.1237 15.2526 15.5346 15.1219 15.7415C15.0085 15.9213 14.6854 16.2121 13.7194 16.2744L13.848 18.2702C15.1444 18.1867 16.2203 17.7481 16.8131 16.8092C17.3887 15.8975 17.3228 14.8006 17.0311 13.8245L15.1148 14.397ZM13.7837 17.2723C13.597 16.2899 13.5969 16.2899 13.5968 16.2899C13.5968 16.2899 13.5967 16.2899 13.5966 16.2899C13.5965 16.29 13.5963 16.29 13.5961 16.29C13.5958 16.2901 13.5955 16.2902 13.5951 16.2902C13.5943 16.2904 13.5934 16.2906 13.5924 16.2908C13.5904 16.2911 13.588 16.2916 13.5851 16.2922C13.5794 16.2933 13.572 16.2948 13.5631 16.2966C13.5452 16.3003 13.5211 16.3054 13.4921 16.3119C13.4348 16.3247 13.3552 16.3438 13.266 16.3688C13.1302 16.4068 12.8213 16.4977 12.5716 16.6711L13.7121 18.314C13.6676 18.3449 13.6493 18.3476 13.6872 18.3329C13.7163 18.3215 13.7572 18.3082 13.8058 18.2946C13.8527 18.2814 13.897 18.2708 13.9296 18.2635C13.9455 18.2599 13.9578 18.2573 13.9652 18.2558C13.9688 18.255 13.9712 18.2546 13.9722 18.2544C13.9726 18.2543 13.9727 18.2543 13.9724 18.2543C13.9723 18.2543 13.9721 18.2544 13.9717 18.2545C13.9715 18.2545 13.9714 18.2545 13.9711 18.2546C13.971 18.2546 13.9709 18.2546 13.9708 18.2546C13.9707 18.2546 13.9706 18.2547 13.9706 18.2547C13.9705 18.2547 13.9704 18.2547 13.7837 17.2723ZM14.1419 17.6167V17.4925H12.1419V17.6167H14.1419ZM12.3956 18.2412C12.3273 18.174 12.1419 17.9622 12.1419 17.6167H14.1419C14.1419 17.2094 13.9234 16.9389 13.7991 16.8164L12.3956 18.2412ZM12.3956 16.8164C12.2713 16.9389 12.0528 17.2094 12.0528 17.6167H14.0528C14.0528 17.9622 13.8673 18.174 13.7991 18.2412L12.3956 16.8164ZM14.0528 17.6167V17.4925H12.0528V17.6167H14.0528ZM12.4109 17.2723C12.2243 18.2547 12.2242 18.2547 12.2241 18.2547C12.224 18.2547 12.2239 18.2546 12.2239 18.2546C12.2238 18.2546 12.2236 18.2546 12.2235 18.2546C12.2233 18.2545 12.2231 18.2545 12.2229 18.2545C12.2226 18.2544 12.2224 18.2543 12.2222 18.2543C12.2219 18.2543 12.222 18.2543 12.2225 18.2544C12.2234 18.2546 12.2258 18.255 12.2295 18.2558C12.2368 18.2573 12.2491 18.2599 12.2651 18.2635C12.2977 18.2708 12.342 18.2814 12.3889 18.2946C12.4375 18.3082 12.4784 18.3215 12.5074 18.3329C12.5454 18.3476 12.527 18.3449 12.4825 18.314L13.6231 16.6711C13.3734 16.4977 13.0644 16.4068 12.9287 16.3688C12.8395 16.3438 12.7599 16.3247 12.7026 16.3119C12.6736 16.3054 12.6494 16.3003 12.6316 16.2966C12.6227 16.2948 12.6152 16.2933 12.6095 16.2922C12.6067 16.2916 12.6042 16.2911 12.6023 16.2908C12.6013 16.2906 12.6004 16.2904 12.5996 16.2902C12.5992 16.2902 12.5989 16.2901 12.5985 16.29C12.5984 16.29 12.5982 16.29 12.5981 16.2899C12.598 16.2899 12.5979 16.2899 12.5978 16.2899C12.5977 16.2899 12.5976 16.2899 12.4109 17.2723ZM9.16353 13.8245C8.8719 14.8006 8.806 15.8975 9.38158 16.8092C9.97435 17.7481 11.0503 18.1867 12.3466 18.2702L12.4753 16.2744C11.5093 16.2121 11.1862 15.9213 11.0727 15.7415C10.9421 15.5346 10.8627 15.1237 11.0798 14.397L9.16353 13.8245ZM9.96555 11.0144C9.06302 11.4451 9.06286 11.4447 9.0627 11.4444C9.06265 11.4443 9.0625 11.444 9.0624 11.4438C9.0622 11.4434 9.06202 11.443 9.06184 11.4426C9.06149 11.4418 9.06117 11.4412 9.0609 11.4406C9.06034 11.4394 9.05994 11.4385 9.05969 11.438C9.05918 11.4369 9.05926 11.437 9.05987 11.4384C9.06109 11.4411 9.06442 11.4487 9.06945 11.4608C9.07953 11.4851 9.09627 11.5274 9.11641 11.5856C9.15687 11.7026 9.20987 11.8806 9.2507 12.1039C9.33277 12.5527 9.36174 13.161 9.16353 13.8245L11.0798 14.397C11.3904 13.3576 11.3413 12.4178 11.2181 11.7442C11.1563 11.4062 11.0749 11.1294 11.0066 10.9319C10.9723 10.8329 10.9411 10.753 10.9168 10.6945C10.9046 10.6652 10.8942 10.6411 10.8859 10.6226C10.8818 10.6134 10.8782 10.6055 10.8752 10.599C10.8737 10.5958 10.8724 10.5929 10.8712 10.5903C10.8706 10.5891 10.87 10.5879 10.8695 10.5868C10.8693 10.5863 10.869 10.5858 10.8688 10.5853C10.8686 10.585 10.8685 10.5846 10.8684 10.5845C10.8683 10.5842 10.8681 10.5838 9.96555 11.0144ZM10.1367 9.04253L9.14949 10.4365L10.7816 11.5924L11.7689 10.1984L10.1367 9.04253ZM11.9769 9.05622C12.0235 9.05622 12.024 9.06531 11.965 9.0446C11.9132 9.02642 11.8484 8.99688 11.7771 8.95842C11.7079 8.92103 11.6459 8.88246 11.6014 8.85314C11.5795 8.83879 11.5631 8.82744 11.5534 8.82061C11.5485 8.81722 11.5454 8.815 11.5443 8.81417C11.5437 8.81375 11.5436 8.81369 11.544 8.81399C11.5442 8.81415 11.5446 8.8144 11.5451 8.81474C11.5453 8.81491 11.5456 8.81511 11.5459 8.81533C11.546 8.81544 11.5462 8.81556 11.5463 8.81569C11.5464 8.81575 11.5465 8.81584 11.5466 8.81588C11.5467 8.81597 11.5469 8.81607 10.9528 9.62048C10.3587 10.4249 10.3589 10.425 10.359 10.4251C10.359 10.4251 10.3592 10.4252 10.3593 10.4253C10.3595 10.4255 10.3597 10.4256 10.3599 10.4258C10.3604 10.4261 10.3609 10.4265 10.3614 10.4269C10.3624 10.4276 10.3636 10.4285 10.365 10.4295C10.3676 10.4314 10.3709 10.4338 10.3748 10.4366C10.3825 10.4421 10.3925 10.4493 10.4046 10.4578C10.4288 10.4748 10.4619 10.4975 10.5022 10.524C10.5818 10.5764 10.6944 10.6467 10.827 10.7183C11.0464 10.8367 11.4923 11.0562 11.9769 11.0562V9.05622ZM12.5696 8.79562C12.4827 8.84353 12.3367 8.91968 12.1864 8.98119C12.1116 9.01176 12.0483 9.03355 11.9996 9.04667C11.9448 9.06145 11.9415 9.05622 11.9769 9.05622V11.0562C12.3551 11.0562 12.7255 10.9215 12.9437 10.8323C13.1938 10.7299 13.4148 10.6135 13.536 10.5466L12.5696 8.79562ZM14.0528 9.67111V9.62048H12.0528V9.67111H14.0528ZM13.0528 9.62048C12.5407 10.4794 12.5407 10.4794 12.5408 10.4795C12.5408 10.4795 12.5408 10.4795 12.5408 10.4795C12.5408 10.4795 12.5408 10.4795 12.5409 10.4795C12.5409 10.4795 12.541 10.4796 12.541 10.4796C12.5411 10.4796 12.5412 10.4797 12.5413 10.4798C12.5415 10.4799 12.5417 10.48 12.542 10.4802C12.5424 10.4804 12.543 10.4808 12.5436 10.4811C12.5448 10.4818 12.5462 10.4827 12.5479 10.4837C12.5514 10.4857 12.5558 10.4883 12.5611 10.4914C12.5718 10.4976 12.5863 10.506 12.6041 10.5161L13.5905 8.77629C13.5798 8.77021 13.572 8.76571 13.5676 8.76312C13.5654 8.76183 13.564 8.76102 13.5635 8.76074C13.5633 8.7606 13.5633 8.76059 13.5635 8.76073C13.5636 8.76079 13.5638 8.76089 13.564 8.76102C13.5641 8.76109 13.5642 8.76117 13.5644 8.76125C13.5645 8.7613 13.5645 8.76134 13.5646 8.76139C13.5646 8.76141 13.5647 8.76144 13.5647 8.76146C13.5647 8.76147 13.5648 8.76148 13.5648 8.7615C13.5648 8.7615 13.5648 8.76151 13.5648 8.76152C13.5648 8.76153 13.5649 8.76154 13.0528 9.62048Z" fill="#E8AA00" mask="url(#path-12-outside-1_1_10689)"/>
<mask id="mask2_1_10689" style="mask-type:alpha" maskUnits="userSpaceOnUse" x="8" y="7" width="10" height="12">
<mask id="path-14-outside-2_1_10689" maskUnits="userSpaceOnUse" x="7.94466" y="7.62048" width="10" height="11" fill="black">
<rect fill="white" x="7.94466" y="7.62048" width="10" height="11"/>
<path fill-rule="evenodd" clip-rule="evenodd" d="M13.0973 9.6462C13.1259 9.62999 13.1419 9.62048 13.1419 9.62048V9.67111C13.3499 9.78593 13.8759 10.0562 14.2178 10.0562C14.6519 10.0562 15.2419 9.62048 15.2419 9.62048L16.2291 11.0144C16.2291 11.0144 15.5642 12.4079 16.073 14.1107C16.5817 15.8135 16.0461 17.1265 13.7837 17.2723C13.7837 17.2723 13.3368 17.3572 13.1419 17.4925V17.6167C13.1419 17.5858 13.1254 17.5564 13.0973 17.5288C13.0693 17.5564 13.0528 17.5858 13.0528 17.6167V17.4925C12.8579 17.3572 12.4109 17.2723 12.4109 17.2723C10.1486 17.1265 9.61294 15.8135 10.1217 14.1107C10.6304 12.4079 9.96555 11.0144 9.96555 11.0144L10.9528 9.62048C10.9528 9.62048 11.5428 10.0562 11.9769 10.0562C12.3187 10.0562 12.8448 9.78593 13.0528 9.67111V9.62048C13.0528 9.62048 13.0687 9.62999 13.0973 9.6462Z"/>
</mask>
<path fill-rule="evenodd" clip-rule="evenodd" d="M13.0973 9.6462C13.1259 9.62999 13.1419 9.62048 13.1419 9.62048V9.67111C13.3499 9.78593 13.8759 10.0562 14.2178 10.0562C14.6519 10.0562 15.2419 9.62048 15.2419 9.62048L16.2291 11.0144C16.2291 11.0144 15.5642 12.4079 16.073 14.1107C16.5817 15.8135 16.0461 17.1265 13.7837 17.2723C13.7837 17.2723 13.3368 17.3572 13.1419 17.4925V17.6167C13.1419 17.5858 13.1254 17.5564 13.0973 17.5288C13.0693 17.5564 13.0528 17.5858 13.0528 17.6167V17.4925C12.8579 17.3572 12.4109 17.2723 12.4109 17.2723C10.1486 17.1265 9.61294 15.8135 10.1217 14.1107C10.6304 12.4079 9.96555 11.0144 9.96555 11.0144L10.9528 9.62048C10.9528 9.62048 11.5428 10.0562 11.9769 10.0562C12.3187 10.0562 12.8448 9.78593 13.0528 9.67111V9.62048C13.0528 9.62048 13.0687 9.62999 13.0973 9.6462Z" fill="white"/>
<path d="M13.1419 9.62048H14.1419V7.86012L12.6298 8.76154L13.1419 9.62048ZM13.0973 9.6462L12.6041 10.5161L13.0973 10.7957L13.5905 10.5161L13.0973 9.6462ZM13.1419 9.67111H12.1419V10.2614L12.6586 10.5466L13.1419 9.67111ZM15.2419 9.62048L16.0579 9.04253L15.4684 8.21006L14.6478 8.81607L15.2419 9.62048ZM16.2291 11.0144L17.1316 11.4451L17.3844 10.9154L17.0452 10.4365L16.2291 11.0144ZM16.073 14.1107L15.1148 14.397L15.1148 14.397L16.073 14.1107ZM13.7837 17.2723L13.7194 16.2744L13.6577 16.2783L13.597 16.2899L13.7837 17.2723ZM13.1419 17.4925L12.5716 16.6711L12.1419 16.9694V17.4925H13.1419ZM13.0973 17.5288L13.7991 16.8164L13.0973 16.1251L12.3956 16.8164L13.0973 17.5288ZM13.0528 17.4925H14.0528V16.9694L13.6231 16.6711L13.0528 17.4925ZM12.4109 17.2723L12.5976 16.2899L12.5369 16.2783L12.4753 16.2744L12.4109 17.2723ZM10.1217 14.1107L11.0798 14.397L11.0798 14.397L10.1217 14.1107ZM9.96555 11.0144L9.14949 10.4365L8.81031 10.9154L9.06302 11.4451L9.96555 11.0144ZM10.9528 9.62048L11.5469 8.81607L10.7263 8.21006L10.1367 9.04253L10.9528 9.62048ZM13.0528 9.67111L13.536 10.5466L14.0528 10.2614V9.67111H13.0528ZM13.0528 9.62048L13.5649 8.76154L12.0528 7.86012V9.62048H13.0528ZM13.1419 9.62048C12.6298 8.76154 12.6298 8.76153 12.6298 8.76152C12.6298 8.76151 12.6299 8.7615 12.6299 8.7615C12.6299 8.76148 12.6299 8.76147 12.6299 8.76146C12.63 8.76144 12.63 8.76141 12.6301 8.76139C12.6301 8.76134 12.6302 8.7613 12.6303 8.76125C12.6304 8.76117 12.6306 8.76109 12.6307 8.76102C12.6309 8.76089 12.6311 8.76079 12.6312 8.76073C12.6314 8.76059 12.6314 8.7606 12.6311 8.76074C12.6307 8.76102 12.6293 8.76183 12.6271 8.76312C12.6226 8.76571 12.6149 8.77021 12.6041 8.77629L13.5905 10.5161C13.6084 10.506 13.6229 10.4976 13.6336 10.4914C13.6389 10.4883 13.6433 10.4857 13.6467 10.4837C13.6484 10.4827 13.6499 10.4818 13.6511 10.4811C13.6517 10.4808 13.6522 10.4804 13.6527 10.4802C13.6529 10.48 13.6532 10.4799 13.6534 10.4798C13.6535 10.4797 13.6536 10.4796 13.6537 10.4796C13.6537 10.4796 13.6538 10.4795 13.6538 10.4795C13.6538 10.4795 13.6539 10.4795 13.6539 10.4795C13.6539 10.4795 13.6539 10.4795 13.6539 10.4795C13.6539 10.4794 13.6539 10.4794 13.1419 9.62048ZM14.1419 9.67111V9.62048H12.1419V9.67111H14.1419ZM12.6586 10.5466C12.7799 10.6135 13.0008 10.7299 13.251 10.8323C13.4692 10.9215 13.8396 11.0562 14.2178 11.0562V9.05622C14.2531 9.05622 14.2498 9.06145 14.195 9.04667C14.1464 9.03355 14.083 9.01176 14.0083 8.98119C13.858 8.91968 13.7119 8.84353 13.6251 8.79562L12.6586 10.5466ZM14.2178 11.0562C14.7024 11.0562 15.1483 10.8367 15.3677 10.7183C15.5002 10.6467 15.6129 10.5764 15.6925 10.524C15.7328 10.4975 15.7658 10.4748 15.7901 10.4578C15.8022 10.4493 15.8122 10.4421 15.8199 10.4366C15.8238 10.4338 15.827 10.4314 15.8297 10.4295C15.8311 10.4285 15.8322 10.4276 15.8333 10.4269C15.8338 10.4265 15.8343 10.4261 15.8347 10.4258C15.835 10.4256 15.8352 10.4255 15.8354 10.4253C15.8355 10.4252 15.8356 10.4251 15.8357 10.4251C15.8358 10.425 15.836 10.4249 15.2419 9.62048C14.6478 8.81607 14.6479 8.81597 14.6481 8.81588C14.6481 8.81584 14.6482 8.81575 14.6483 8.81569C14.6485 8.81556 14.6487 8.81544 14.6488 8.81533C14.6491 8.81511 14.6494 8.81491 14.6496 8.81474C14.6501 8.8144 14.6504 8.81415 14.6506 8.81399C14.6511 8.81369 14.651 8.81375 14.6504 8.81417C14.6492 8.815 14.6461 8.81722 14.6413 8.82061C14.6316 8.82744 14.6151 8.83879 14.5933 8.85314C14.5487 8.88246 14.4868 8.92103 14.4175 8.95842C14.3463 8.99688 14.2814 9.02642 14.2297 9.0446C14.1707 9.06531 14.1711 9.05622 14.2178 9.05622V11.0562ZM14.4258 10.1984L15.413 11.5924L17.0452 10.4365L16.0579 9.04253L14.4258 10.1984ZM16.2291 11.0144C15.3266 10.5838 15.3264 10.5842 15.3262 10.5845C15.3262 10.5846 15.326 10.585 15.3259 10.5853C15.3257 10.5858 15.3254 10.5863 15.3252 10.5868C15.3246 10.5879 15.3241 10.5891 15.3235 10.5903C15.3223 10.5929 15.321 10.5958 15.3195 10.599C15.3165 10.6055 15.3129 10.6134 15.3087 10.6226C15.3005 10.6411 15.29 10.6652 15.2779 10.6945C15.2536 10.753 15.2223 10.8329 15.1881 10.9319C15.1198 11.1294 15.0384 11.4062 14.9766 11.7442C14.8534 12.4178 14.8043 13.3576 15.1148 14.397L17.0311 13.8245C16.8329 13.161 16.8619 12.5527 16.944 12.1039C16.9848 11.8806 17.0378 11.7026 17.0783 11.5856C17.0984 11.5274 17.1151 11.4851 17.1252 11.4608C17.1302 11.4487 17.1336 11.4411 17.1348 11.4384C17.1354 11.437 17.1355 11.4369 17.135 11.438C17.1347 11.4385 17.1343 11.4394 17.1338 11.4406C17.1335 11.4412 17.1332 11.4418 17.1328 11.4426C17.1326 11.443 17.1325 11.4434 17.1323 11.4438C17.1322 11.444 17.132 11.4443 17.132 11.4444C17.1318 11.4447 17.1316 11.4451 16.2291 11.0144ZM15.1148 14.397C15.3319 15.1237 15.2526 15.5346 15.1219 15.7415C15.0085 15.9213 14.6854 16.2121 13.7194 16.2744L13.848 18.2702C15.1444 18.1867 16.2203 17.7481 16.8131 16.8092C17.3887 15.8975 17.3228 14.8006 17.0311 13.8245L15.1148 14.397ZM13.7837 17.2723C13.597 16.2899 13.5969 16.2899 13.5968 16.2899C13.5968 16.2899 13.5967 16.2899 13.5966 16.2899C13.5965 16.29 13.5963 16.29 13.5961 16.29C13.5958 16.2901 13.5955 16.2902 13.5951 16.2902C13.5943 16.2904 13.5934 16.2906 13.5924 16.2908C13.5904 16.2911 13.588 16.2916 13.5851 16.2922C13.5794 16.2933 13.572 16.2948 13.5631 16.2966C13.5452 16.3003 13.5211 16.3054 13.4921 16.3119C13.4348 16.3247 13.3552 16.3438 13.266 16.3688C13.1302 16.4068 12.8213 16.4977 12.5716 16.6711L13.7121 18.314C13.6676 18.3449 13.6493 18.3476 13.6872 18.3329C13.7163 18.3215 13.7572 18.3082 13.8058 18.2946C13.8527 18.2814 13.897 18.2708 13.9296 18.2635C13.9455 18.2599 13.9578 18.2573 13.9652 18.2558C13.9688 18.255 13.9712 18.2546 13.9722 18.2544C13.9726 18.2543 13.9727 18.2543 13.9724 18.2543C13.9723 18.2543 13.9721 18.2544 13.9717 18.2545C13.9715 18.2545 13.9714 18.2545 13.9711 18.2546C13.971 18.2546 13.9709 18.2546 13.9708 18.2546C13.9707 18.2546 13.9706 18.2547 13.9706 18.2547C13.9705 18.2547 13.9704 18.2547 13.7837 17.2723ZM14.1419 17.6167V17.4925H12.1419V17.6167H14.1419ZM12.3956 18.2412C12.3273 18.174 12.1419 17.9622 12.1419 17.6167H14.1419C14.1419 17.2094 13.9234 16.9389 13.7991 16.8164L12.3956 18.2412ZM12.3956 16.8164C12.2713 16.9389 12.0528 17.2094 12.0528 17.6167H14.0528C14.0528 17.9622 13.8673 18.174 13.7991 18.2412L12.3956 16.8164ZM14.0528 17.6167V17.4925H12.0528V17.6167H14.0528ZM12.4109 17.2723C12.2243 18.2547 12.2242 18.2547 12.2241 18.2547C12.224 18.2547 12.2239 18.2546 12.2239 18.2546C12.2238 18.2546 12.2236 18.2546 12.2235 18.2546C12.2233 18.2545 12.2231 18.2545 12.2229 18.2545C12.2226 18.2544 12.2224 18.2543 12.2222 18.2543C12.2219 18.2543 12.222 18.2543 12.2225 18.2544C12.2234 18.2546 12.2258 18.255 12.2295 18.2558C12.2368 18.2573 12.2491 18.2599 12.2651 18.2635C12.2977 18.2708 12.342 18.2814 12.3889 18.2946C12.4375 18.3082 12.4784 18.3215 12.5074 18.3329C12.5454 18.3476 12.527 18.3449 12.4825 18.314L13.6231 16.6711C13.3734 16.4977 13.0644 16.4068 12.9287 16.3688C12.8395 16.3438 12.7599 16.3247 12.7026 16.3119C12.6736 16.3054 12.6494 16.3003 12.6316 16.2966C12.6227 16.2948 12.6152 16.2933 12.6095 16.2922C12.6067 16.2916 12.6042 16.2911 12.6023 16.2908C12.6013 16.2906 12.6004 16.2904 12.5996 16.2902C12.5992 16.2902 12.5989 16.2901 12.5985 16.29C12.5984 16.29 12.5982 16.29 12.5981 16.2899C12.598 16.2899 12.5979 16.2899 12.5978 16.2899C12.5977 16.2899 12.5976 16.2899 12.4109 17.2723ZM9.16353 13.8245C8.8719 14.8006 8.806 15.8975 9.38158 16.8092C9.97435 17.7481 11.0503 18.1867 12.3466 18.2702L12.4753 16.2744C11.5093 16.2121 11.1862 15.9213 11.0727 15.7415C10.9421 15.5346 10.8627 15.1237 11.0798 14.397L9.16353 13.8245ZM9.96555 11.0144C9.06302 11.4451 9.06286 11.4447 9.0627 11.4444C9.06265 11.4443 9.0625 11.444 9.0624 11.4438C9.0622 11.4434 9.06202 11.443 9.06184 11.4426C9.06149 11.4418 9.06117 11.4412 9.0609 11.4406C9.06034 11.4394 9.05994 11.4385 9.05969 11.438C9.05918 11.4369 9.05926 11.437 9.05987 11.4384C9.06109 11.4411 9.06442 11.4487 9.06945 11.4608C9.07953 11.4851 9.09627 11.5274 9.11641 11.5856C9.15687 11.7026 9.20987 11.8806 9.2507 12.1039C9.33277 12.5527 9.36174 13.161 9.16353 13.8245L11.0798 14.397C11.3904 13.3576 11.3413 12.4178 11.2181 11.7442C11.1563 11.4062 11.0749 11.1294 11.0066 10.9319C10.9723 10.8329 10.9411 10.753 10.9168 10.6945C10.9046 10.6652 10.8942 10.6411 10.8859 10.6226C10.8818 10.6134 10.8782 10.6055 10.8752 10.599C10.8737 10.5958 10.8724 10.5929 10.8712 10.5903C10.8706 10.5891 10.87 10.5879 10.8695 10.5868C10.8693 10.5863 10.869 10.5858 10.8688 10.5853C10.8686 10.585 10.8685 10.5846 10.8684 10.5845C10.8683 10.5842 10.8681 10.5838 9.96555 11.0144ZM10.1367 9.04253L9.14949 10.4365L10.7816 11.5924L11.7689 10.1984L10.1367 9.04253ZM11.9769 9.05622C12.0235 9.05622 12.024 9.06531 11.965 9.0446C11.9132 9.02642 11.8484 8.99688 11.7771 8.95842C11.7079 8.92103 11.6459 8.88246 11.6014 8.85314C11.5795 8.83879 11.5631 8.82744 11.5534 8.82061C11.5485 8.81722 11.5454 8.815 11.5443 8.81417C11.5437 8.81375 11.5436 8.81369 11.544 8.81399C11.5442 8.81415 11.5446 8.8144 11.5451 8.81474C11.5453 8.81491 11.5456 8.81511 11.5459 8.81533C11.546 8.81544 11.5462 8.81556 11.5463 8.81569C11.5464 8.81575 11.5465 8.81584 11.5466 8.81588C11.5467 8.81597 11.5469 8.81607 10.9528 9.62048C10.3587 10.4249 10.3589 10.425 10.359 10.4251C10.359 10.4251 10.3592 10.4252 10.3593 10.4253C10.3595 10.4255 10.3597 10.4256 10.3599 10.4258C10.3604 10.4261 10.3609 10.4265 10.3614 10.4269C10.3624 10.4276 10.3636 10.4285 10.365 10.4295C10.3676 10.4314 10.3709 10.4338 10.3748 10.4366C10.3825 10.4421 10.3925 10.4493 10.4046 10.4578C10.4288 10.4748 10.4619 10.4975 10.5022 10.524C10.5818 10.5764 10.6944 10.6467 10.827 10.7183C11.0464 10.8367 11.4923 11.0562 11.9769 11.0562V9.05622ZM12.5696 8.79562C12.4827 8.84353 12.3367 8.91968 12.1864 8.98119C12.1116 9.01176 12.0483 9.03355 11.9996 9.04667C11.9448 9.06145 11.9415 9.05622 11.9769 9.05622V11.0562C12.3551 11.0562 12.7255 10.9215 12.9437 10.8323C13.1938 10.7299 13.4148 10.6135 13.536 10.5466L12.5696 8.79562ZM14.0528 9.67111V9.62048H12.0528V9.67111H14.0528ZM13.0528 9.62048C12.5407 10.4794 12.5407 10.4794 12.5408 10.4795C12.5408 10.4795 12.5408 10.4795 12.5408 10.4795C12.5408 10.4795 12.5408 10.4795 12.5409 10.4795C12.5409 10.4795 12.541 10.4796 12.541 10.4796C12.5411 10.4796 12.5412 10.4797 12.5413 10.4798C12.5415 10.4799 12.5417 10.48 12.542 10.4802C12.5424 10.4804 12.543 10.4808 12.5436 10.4811C12.5448 10.4818 12.5462 10.4827 12.5479 10.4837C12.5514 10.4857 12.5558 10.4883 12.5611 10.4914C12.5718 10.4976 12.5863 10.506 12.6041 10.5161L13.5905 8.77629C13.5798 8.77021 13.572 8.76571 13.5676 8.76312C13.5654 8.76183 13.564 8.76102 13.5635 8.76074C13.5633 8.7606 13.5633 8.76059 13.5635 8.76073C13.5636 8.76079 13.5638 8.76089 13.564 8.76102C13.5641 8.76109 13.5642 8.76117 13.5644 8.76125C13.5645 8.7613 13.5645 8.76134 13.5646 8.76139C13.5646 8.76141 13.5647 8.76144 13.5647 8.76146C13.5647 8.76147 13.5648 8.76148 13.5648 8.7615C13.5648 8.7615 13.5648 8.76151 13.5648 8.76152C13.5648 8.76153 13.5649 8.76154 13.0528 9.62048Z" fill="white" mask="url(#path-14-outside-2_1_10689)"/>
</mask>
<g mask="url(#mask2_1_10689)">
<rect x="10.0807" y="9.45349" width="3.01449" height="4.13636" fill="#67BAFF"/>
<rect x="13.0938" y="9.45349" width="3.01449" height="4.13636" fill="white"/>
<rect x="9.70834" y="13.9836" width="7.53623" height="4.72727" fill="#C51918"/>
<path d="M14.5539 13.2974H14.1771V10.4648H14.5539V13.2974Z" fill="#C9A951"/>
<path d="M14.4018 12.0087L14.2181 12.3377L13.5677 11.9745L13.7514 11.6455L14.4018 12.0087Z" fill="#C9A951"/>
<path d="M14.4018 11.2195L14.2181 11.5485L13.5677 11.1853L13.7514 10.8563L14.4018 11.2195Z" fill="#C9A951"/>
<path d="M14.3248 12.0087L14.5085 12.3377L15.1589 11.9745L14.9752 11.6455L14.3248 12.0087Z" fill="#C9A951"/>
<path d="M14.3248 11.2195L14.5085 11.5485L15.1589 11.1853L14.9752 10.8563L14.3248 11.2195Z" fill="#C9A951"/>
<path fill-rule="evenodd" clip-rule="evenodd" d="M14.8781 14.8461C14.8781 14.8461 15.1403 14.5464 15.1403 14.6963C15.1403 14.8461 15.1403 15.0981 15.0092 15.0981C14.8781 15.0981 14.2676 14.9782 14.035 14.6963C13.8024 14.4143 13.3103 13.9235 12.6769 14.039C12.0435 14.1546 11.2923 14.9757 11.1071 14.9757C10.9219 14.9757 10.5161 15.6086 10.8116 16.1029C11.1071 16.5972 11.6098 16.4438 11.6098 16.5872C11.6098 16.7306 11.7355 16.7471 12.2062 16.7471C12.6769 16.7471 12.8491 16.9132 13.2566 16.9132C13.6641 16.9132 13.1221 16.9071 13.7784 16.7471C14.4348 16.5872 14.9319 16.1029 14.5494 16.1029C14.167 16.1029 14.0434 16.1029 13.7784 16.1029C13.5134 16.1029 12.9237 16.2939 12.9237 16.1029C12.9237 15.912 13.0546 15.5031 13.4165 15.7075C13.7784 15.912 14.784 16.0678 15.1403 15.7075C15.4966 15.3472 15.6213 15.13 15.5589 14.6963C15.4966 14.2626 15.0092 14.3874 15.0092 14.3874L14.8781 14.8461Z" fill="#FBCD17"/>
<path fill-rule="evenodd" clip-rule="evenodd" d="M12.3306 10.3655C12.1035 10.5641 12.25 11.2902 11.8778 11.2902C11.5056 11.2902 10.9819 10.7465 10.85 11.1052C10.7181 11.464 10.85 11.3434 10.85 11.649C10.85 11.9545 10.5341 12.8035 10.692 12.9471C10.85 13.0906 11.0118 13.4688 10.9838 13.2917C10.9557 13.1147 10.8363 12.8547 10.8861 12.5723C10.838 12.2805 11.1523 11.9999 11.1523 11.9999C11.1523 11.9999 11.1182 12.3028 11.0934 12.4158C11.0934 12.4158 10.9898 12.6437 11.0319 12.7951C11.0319 12.7951 11.1383 13.2219 11.1821 13.2513C11.1821 13.2513 11.2106 12.2409 11.243 12.0744C11.2754 11.9079 11.5064 12.2622 11.5833 12.2221C11.5833 12.2221 11.6097 12.913 11.5697 12.9953C11.5697 12.9953 11.4887 13.1588 11.5188 13.211C11.5188 13.211 11.5939 13.4001 11.6581 13.345C11.6581 13.345 11.6603 13.3411 11.6928 13.157C11.6928 13.157 11.6551 13.0458 11.7142 12.7927C11.7142 12.7927 11.7764 12.2353 11.8021 12.3562C11.8021 12.3562 11.7906 12.6194 11.8203 12.755C11.8203 12.755 11.8677 13.0918 11.8772 13.1287C11.8772 13.1287 12.1046 13.4526 12.1106 13.3159C12.1106 13.3159 11.8926 13.0559 11.9393 12.8581C11.9393 12.8581 11.8145 12.2978 11.9888 12.1728C11.9888 12.1728 12.4509 11.9591 12.4787 11.5931C12.4787 11.5931 12.5457 11.1761 12.5577 10.9849C12.5577 10.9849 12.4563 10.9287 12.6659 10.83C12.6659 10.83 13.0032 10.7005 12.793 10.5205" fill="#D18219"/>
</g>
</g>
</g>
</svg>
