<svg width="26" height="26" viewBox="0 0 26 26" fill="none" xmlns="http://www.w3.org/2000/svg">
<mask id="mask0_1_13126" style="mask-type:alpha" maskUnits="userSpaceOnUse" x="0" y="0" width="26" height="26">
<circle cx="13" cy="13" r="13" fill="#634848"/>
</mask>
<g mask="url(#mask0_1_13126)">
<g clip-path="url(#clip0_1_13126)">
<path d="M0 0H26V26H0V0Z" fill="white"/>
<path fill-rule="evenodd" clip-rule="evenodd" d="M10.6844 18.4591C10.6844 18.4591 11.2734 17.9817 11.8422 17.9817C12.4109 17.9817 12.5734 18.3778 12.9695 18.4083C13.3656 18.4438 13.7008 18.0122 14.1883 18.0021C14.6859 17.9817 15.3055 18.3474 15.3055 18.3474L13.1473 18.9923L10.6844 18.454V18.4591ZM9.45039 17.7583L16.7781 17.7938C16.7781 17.7938 16.1434 17.1083 15.3969 17.0931C14.6555 17.0778 14.8586 17.413 14.2898 17.4587C13.716 17.5095 13.5738 17.1083 13.0508 17.1235C12.5277 17.1388 12.2231 17.4587 11.832 17.4739C11.4309 17.4892 10.9231 17.0778 10.6234 17.0931C10.3188 17.1083 9.24219 17.5704 9.24219 17.5704L9.44532 17.7583H9.45039ZM8.51094 16.8849L17.5551 16.9204C17.7023 16.7122 17.1133 16.2196 16.575 16.1739C16.1281 16.1892 15.8133 16.631 15.4477 16.6462C15.082 16.6665 14.6707 16.1892 14.2543 16.2044C13.8481 16.2196 13.4164 16.6513 13.0051 16.6513C12.5887 16.6513 12.2891 16.1892 11.766 16.1892C11.243 16.1892 11.0043 16.697 10.6082 16.6665C10.207 16.631 9.86172 16.1587 9.48086 16.1587C9.1 16.1587 8.46524 16.7274 8.33828 16.697C8.21133 16.6665 8.49571 16.9356 8.51094 16.8849V16.8849Z" fill="#083D9C" stroke="#083D9C" stroke-width="0.333333"/>
<path fill-rule="evenodd" clip-rule="evenodd" d="M11.9844 11.8572L14.0664 12.4158V9.44511C13.1117 9.49589 12.3195 7.6373 14.0004 7.51034C12.3551 7.26659 12.1621 7.69824 11.9691 8.15527L11.9895 11.8572H11.9844Z" fill="#FF0000" stroke="black" stroke-width="0.3125" stroke-linejoin="round"/>
<path fill-rule="evenodd" clip-rule="evenodd" d="M10.6691 14.0156L15.3664 14.0309Z" fill="#083D9C"/>
<path d="M10.6691 14.0156L15.3664 14.0309" stroke="#083D9C" stroke-width="0.625" stroke-linecap="round"/>
<path d="M10.8926 12.8882L11.4512 13.6347M10.8926 13.6347L11.4969 12.9034M11.2125 12.8374L11.1922 13.2995M11.7812 12.8882L12.3398 13.6347M11.7812 13.6347L12.3855 12.9034M12.1012 12.8374L12.0809 13.2995M12.6902 12.8882L13.2387 13.6347M12.6852 13.6347L13.2895 12.9034M13.0051 12.8374L12.9898 13.2995M13.6195 12.8882L14.1781 13.6347M13.6195 13.6347L14.2289 12.9034M13.9395 12.8374L13.9242 13.2995M14.5285 12.8882L15.082 13.6347M14.5234 13.6347L15.1328 12.9034M14.8434 12.8374L14.8281 13.2995" stroke="black" stroke-width="0.5" stroke-linecap="round"/>
<path fill-rule="evenodd" clip-rule="evenodd" d="M7.51562 14.0664L9.51133 14.0766V12.8223L7.22617 12.7156L7.51054 14.0613L7.51562 14.0664ZM7.41406 12.3348L9.54687 12.5379L9.52656 11.6492L7.44453 10.8266L7.41914 12.3348H7.41406ZM7.8457 10.5574L9.48086 11.3496L9.71445 11.1059C9.71445 11.1059 9.56211 11.0043 9.57226 10.9027C9.57226 10.8113 9.72461 10.7961 9.72461 10.6895C9.72461 10.593 9.55703 10.5828 9.55703 10.4863C9.54179 10.3848 9.68906 10.268 9.68906 10.268L8.21133 8.98828L7.8457 10.5625V10.5574ZM18.5707 14.0766H16.4633L16.448 12.8578L18.7637 12.6801L18.5707 14.0766ZM16.4785 12.5684L18.9871 12.2637L18.4437 10.8266L16.4633 11.6645L16.4785 12.5684ZM18.3066 10.4305L16.4887 11.375C16.4633 11.2734 16.4379 11.1719 16.316 11.0906C16.316 11.0906 16.4277 11.0246 16.4277 10.9129C16.4277 10.8012 16.2805 10.7859 16.2805 10.725C16.2805 10.6641 16.4125 10.6031 16.4227 10.4609C16.4074 10.3594 16.2805 10.2273 16.3059 10.1969L17.7125 9.12031L18.2965 10.4254L18.3066 10.4305ZM14.3762 12.543L15.2852 12.5023L15.3004 12.1367L14.3812 12.543H14.3762ZM11.6187 12.5125L10.6641 12.4922V12.1113L11.6187 12.5176V12.5125ZM11.6137 12.4008L10.6641 11.9133V11.2785C10.6641 11.2785 10.5523 11.2937 10.5676 11.1668C10.5727 10.9027 11.2684 11.6492 11.6187 11.893L11.6137 12.4008V12.4008ZM14.3762 12.3449V11.9336C14.3762 11.9336 15.2293 11.1617 15.4121 11.0195C15.4121 11.177 15.3105 11.2988 15.3105 11.2988V11.9082L14.3762 12.35V12.3449ZM8.83594 8.87148L9.7957 9.93789C9.82109 9.83633 10.0395 9.82617 10.2629 9.83633C10.4863 9.85664 10.6641 9.82617 10.6641 9.98867C10.6641 10.141 10.5473 10.1207 10.5473 10.2324C10.5473 10.3441 10.7199 10.334 10.7199 10.4762C10.7199 10.6184 10.598 10.5879 10.593 10.6996C10.593 10.791 10.725 10.8012 10.725 10.8012L11.6238 11.6695V10.7352L9.77031 7.82539L8.83594 8.87148V8.87148ZM10.3086 7.76953L11.568 10.3441C11.568 10.3441 11.5832 7.96758 11.7914 7.84062L11.4359 7.19063L10.3086 7.76953ZM15.7777 7.87109L14.3762 10.3746V9.31836C14.3762 9.31836 14.493 9.14063 14.3102 9.15586C14.1273 9.17109 13.8988 9.14062 13.8988 9.14062L14.4625 7.16016L15.7828 7.87109H15.7777ZM17.2199 8.94258C17.2047 8.97305 16.2703 9.91758 16.2703 9.91758C16.2297 9.80586 15.9453 9.86172 15.6812 9.86172C15.4121 9.86172 15.3766 9.94805 15.3867 10.0141C15.4172 10.202 15.5086 10.0648 15.5086 10.2375C15.5086 10.4051 15.3766 10.3391 15.3664 10.466C15.3766 10.6082 15.5695 10.5727 15.4578 10.6844L14.3762 11.7203V10.7352L16.3871 7.61211L17.2199 8.94258V8.94258Z" fill="#EF7D08"/>
<path fill-rule="evenodd" clip-rule="evenodd" d="M12.4465 14.5387C11.9945 15.2852 10.7859 15.0668 10.5066 14.5387C10.4203 14.5184 10.4711 11.3141 10.4711 11.3141C10.4711 11.3141 10.334 11.2531 10.3289 11.1566C10.3238 11.0551 10.5117 11.05 10.5117 10.923C10.5117 10.7961 10.3187 10.8418 10.3137 10.7199C10.3137 10.593 10.5219 10.6082 10.5168 10.4965C10.5016 10.3695 10.2832 10.3898 10.273 10.268C10.2629 10.1766 10.4254 10.0953 10.4762 10.0547H9.97344C9.72969 10.0547 9.97851 10.1105 9.97344 10.2578C9.97344 10.3492 9.85156 10.4102 9.84141 10.4914C9.84141 10.5727 10.0141 10.6285 10.0191 10.7301C10.0191 10.8164 9.8414 10.8266 9.84648 10.9078C9.86172 11.0449 10.0039 11.0754 10.0039 11.1617C10.0039 11.243 9.80586 11.2785 9.80586 11.3445L9.83633 14.6352C10.141 16.25 11.9387 16.6563 12.4465 14.5336V14.5387ZM13.6297 14.5387C14.0867 15.2852 15.2902 15.0668 15.5746 14.5387C15.6609 14.5184 15.6102 11.3141 15.6102 11.3141C15.6102 11.3141 15.7473 11.2531 15.7523 11.1566C15.7574 11.0551 15.5797 11.05 15.5797 10.923C15.5797 10.7961 15.7625 10.8418 15.7676 10.7199C15.7676 10.593 15.5746 10.6031 15.5848 10.4863C15.5949 10.3594 15.7422 10.3746 15.7523 10.2578C15.7574 10.1562 15.6559 10.0953 15.6102 10.0547H16.1027C16.3516 10.0547 16.1027 10.1105 16.1027 10.2578C16.1027 10.3492 16.2297 10.4102 16.2398 10.4914C16.2398 10.5727 16.0621 10.6285 16.0621 10.7301C16.0621 10.8164 16.2398 10.8266 16.2297 10.9078C16.2195 11.0449 16.0773 11.0754 16.0773 11.1617C16.0773 11.243 16.2754 11.2785 16.2754 11.3445C16.2652 11.4766 16.2449 14.6352 16.2449 14.6352C15.9352 16.25 14.1426 16.6563 13.6297 14.5336V14.5387Z" fill="#FF0000" stroke="black" stroke-width="0.3125" stroke-linejoin="round"/>
<path fill-rule="evenodd" clip-rule="evenodd" d="M12.0098 16.0113H14.0309C14.0461 15.9961 13.5738 15.3105 13.0152 15.3613C12.3957 15.3766 11.9742 16.0113 12.0098 16.0113ZM18.4488 15.9605H15.6863C15.6863 15.9605 16.0418 15.7523 16.1434 15.5543C16.3211 15.6559 16.2703 15.7523 16.6258 15.7676C16.9813 15.7828 17.3266 15.3613 17.6668 15.3766C18.007 15.3918 18.4488 15.9758 18.4488 15.9605ZM7.56133 15.9605H10.3238C10.3238 15.9605 9.96836 15.7523 9.8668 15.5543C9.68906 15.6559 9.73984 15.7523 9.3793 15.7676C9.02383 15.7828 8.68359 15.3613 8.33828 15.3766C7.99805 15.3918 7.56133 15.9758 7.56133 15.9605ZM7.76445 15.0973L9.73477 15.1074C9.73477 15.1074 9.60781 14.8383 9.59258 14.5082C9.08477 14.3305 8.66836 14.8891 8.30781 14.9043C7.94219 14.9195 7.56133 14.5082 7.56133 14.5082L7.76445 15.0922V15.0973ZM18.2762 15.0973L16.3059 15.1074C16.3059 15.1074 16.4328 14.8383 16.448 14.5082C16.9559 14.3305 17.3672 14.8891 17.7328 14.9043C18.0984 14.9195 18.4793 14.5082 18.4793 14.5082L18.2762 15.0922V15.0973ZM12.5125 15.1074L13.5129 15.077C13.5129 15.077 13.5281 14.7723 13.0051 14.7723C12.482 14.7723 12.5277 15.1277 12.5125 15.1074ZM11.9031 14.6809C12.0809 14.5844 12.2434 14.4879 12.35 14.2695L11.6695 14.2848C11.6695 14.2848 11.3547 14.4727 11.1922 14.6809H11.9031ZM14.1121 14.6809C13.923 14.5971 13.7674 14.4522 13.6703 14.2695L14.3508 14.2848C14.3508 14.2848 14.6707 14.4727 14.8281 14.6809H14.1172H14.1121Z" fill="#083D9C" stroke="#083D9C" stroke-width="0.333333"/>
<path fill-rule="evenodd" clip-rule="evenodd" d="M-6.5 19.5H32.5V26H-6.5V19.5ZM-6.5 0H32.5V6.5H-6.5V0Z" fill="#DE2010"/>
</g>
</g>
<defs>
<clipPath id="clip0_1_13126">
<rect width="26" height="26" fill="white"/>
</clipPath>
</defs>
</svg>
