<svg width="26" height="26" viewBox="0 0 26 26" fill="none" xmlns="http://www.w3.org/2000/svg">
<mask id="mask0_1_13950" style="mask-type:alpha" maskUnits="userSpaceOnUse" x="0" y="0" width="26" height="26">
<circle cx="13" cy="13" r="13" fill="#634848"/>
</mask>
<g mask="url(#mask0_1_13950)">
<g clip-path="url(#clip0_1_13950)">
<path fill-rule="evenodd" clip-rule="evenodd" d="M-4.23942 0L-4.26562 25.996H30.2734L-4.23942 0Z" fill="black"/>
<path fill-rule="evenodd" clip-rule="evenodd" d="M30.2472 25.996L30.2734 0H-4.26562L30.2472 25.996Z" fill="#FF0000"/>
<path d="M17.0605 6.46756L16.5993 6.4466C16.4578 6.11117 16.0595 5.98538 15.8132 6.13213C15.593 6.14786 14.4243 6.11117 14.4243 6.11117L15.2786 6.48329C15.4882 7.05457 16.222 7.19084 16.222 7.19084C16.1591 8.23907 15.158 7.05457 14.3194 7.65206C13.7219 8.0137 13.7115 8.43823 13.3865 9.1353C13.2279 9.376 13.0528 9.60541 12.8624 9.82189L13.5699 9.76948L13.3446 10.063L14.1832 9.94243C14.1832 9.94243 14.0731 10.0368 14.005 10.1102C14.1308 10.1364 14.9641 9.91623 14.9641 9.91623L14.9064 10.1835C15.331 10.0106 15.8603 9.83761 15.8603 9.83761C15.8603 9.83761 16.049 9.99485 16.222 10.063L16.3425 9.58604L16.8195 9.70658L16.94 9.2244C17.658 10.1835 17.8991 11.1427 19.2146 11.3837L19.0941 10.9016C19.461 11.0588 20.1423 11.3942 20.1423 11.3942L20.2472 11.1741C20.8184 11.5829 21.2954 11.5777 21.6098 11.6196L21.374 11.0221L21.6151 11.1427L21.2535 10.1835L21.6151 10.3041L21.1329 9.58604L21.3111 9.46549L21.2587 9.10385C21.9715 9.34495 22.9359 9.70658 23.0512 10.5452C23.1717 11.8607 21.7304 12.2223 20.7765 12.1018C21.4945 12.6993 22.8101 12.4582 23.4128 11.8607C23.6402 11.5798 23.803 11.2524 23.8897 10.9016C24.0103 11.2632 24.2514 11.7401 24.2514 12.2223C24.1308 13.2968 22.6895 13.6584 21.7356 13.7789C22.8101 14.3764 24.7283 13.6584 24.8489 12.1018C24.8489 10.781 24.0103 10.1835 23.6486 9.58604C23.6027 9.37228 23.5625 9.15732 23.5281 8.94138C23.5805 8.95186 23.8897 9.1091 23.8897 9.1091C23.8897 9.1091 23.6801 8.71077 23.6486 8.62691C23.6486 8.62691 23.2765 7.61013 23.1403 7.38476C23.1612 7.36904 23.4128 7.42669 23.4128 7.42669L22.4275 6.19503L22.7052 6.16358C22.7052 6.16358 21.5732 5.26735 21.2587 5.15204L21.6203 5.03149C20.8971 4.6751 20.0585 4.91095 19.3404 5.39313L19.461 5.03149L19.2409 5.05246V4.64365L19.461 4.31346L19.1046 4.19291L19.3404 3.59542L18.984 3.71597L19.1046 3.11324C19.1046 3.11324 18.832 3.23903 18.6696 3.21806C18.6748 3.23379 18.8635 2.81449 18.8635 2.81449C18.7482 2.6363 18.8635 2.27466 18.8635 2.27466C18.0249 2.3952 17.9044 2.51575 17.4274 3.23379C16.7041 4.55455 16.9452 5.15204 17.0658 6.46756H17.0605Z" fill="#FFCC00" stroke="#FFCC00" stroke-width="0.296729"/>
<path fill-rule="evenodd" clip-rule="evenodd" d="M21.5889 8.43823C21.6518 8.54306 22.3279 8.86801 22.8415 9.16151C22.7052 8.60595 21.7042 8.4854 21.5836 8.43823H21.5889Z" fill="#FF0000" stroke="#FF0000" stroke-width="0.387037"/>
<path fill-rule="evenodd" clip-rule="evenodd" d="M5.116 21.6145L4.3508 21.1271L3.32878 21.6197L3.55939 20.7445L2.77322 19.9216L3.67993 19.8692L4.21977 18.8734L4.54996 19.712L5.66108 19.9164L4.96401 20.4929L5.116 21.6145ZM7.07094 17.3377L6.71455 17.17L6.37912 17.3639L6.43153 16.9761L6.13802 16.714L6.52587 16.6406L6.6831 16.2843L6.87178 16.6302L7.25963 16.6721L6.98709 16.9551L7.07094 17.3377ZM8.79528 14.8849L8.01959 14.5075L7.26487 14.9268L7.38541 14.0777L6.75124 13.4907L7.6003 13.344L7.9567 12.5578L8.3655 13.323L9.21981 13.4174L8.62756 14.0463L8.79528 14.8849ZM5.24703 11.4781L4.33507 11.0169L3.44408 11.5096L3.59083 10.5033L2.84659 9.80097L3.85289 9.6385L4.2879 8.71082L4.7596 9.61753L5.77114 9.74332L5.05311 10.4771L5.24703 11.4781ZM1.97132 15.0159L1.04888 14.4708L0.131685 15.0316L0.367536 13.9834L-0.450081 13.2863L0.61911 13.1815L1.03316 12.1909L1.45245 13.1763L2.52688 13.2654L1.72499 13.9729L1.97132 15.0159Z" fill="white"/>
</g>
</g>
<defs>
<clipPath id="clip0_1_13950">
<rect width="26" height="26" fill="white"/>
</clipPath>
</defs>
</svg>
