<svg width="26" height="26" viewBox="0 0 26 26" fill="none" xmlns="http://www.w3.org/2000/svg">
<mask id="mask0_1_10643" style="mask-type:alpha" maskUnits="userSpaceOnUse" x="0" y="0" width="26" height="26">
<circle cx="13" cy="13" r="13" fill="#634848"/>
</mask>
<g mask="url(#mask0_1_10643)">
<mask id="mask1_1_10643" style="mask-type:alpha" maskUnits="userSpaceOnUse" x="-5" y="0" width="36" height="26">
<rect x="-4.33333" width="34.6667" height="26" fill="white"/>
</mask>
<g mask="url(#mask1_1_10643)">
<path fill-rule="evenodd" clip-rule="evenodd" d="M-4.33073 0V26H30.3359V0H-4.33073Z" fill="#BF2714"/>
<mask id="mask2_1_10643" style="mask-type:alpha" maskUnits="userSpaceOnUse" x="-5" y="0" width="36" height="26">
<path fill-rule="evenodd" clip-rule="evenodd" d="M-4.32812 0V26H30.3385V0H-4.32812Z" fill="white"/>
</mask>
<g mask="url(#mask2_1_10643)">
<path fill-rule="evenodd" clip-rule="evenodd" d="M-4.32812 -2.16663V13H30.3385V-2.16663H-4.32812Z" fill="#3D58DB"/>
</g>
<path fill-rule="evenodd" clip-rule="evenodd" d="M-4.33073 0V26L15.1693 13L-4.33073 0Z" fill="#F7FCFF"/>
<mask id="mask3_1_10643" style="mask-type:alpha" maskUnits="userSpaceOnUse" x="-5" y="0" width="21" height="26">
<path fill-rule="evenodd" clip-rule="evenodd" d="M-4.33073 0V26L15.1693 13L-4.33073 0Z" fill="white"/>
</mask>
<g mask="url(#mask3_1_10643)">
<path fill-rule="evenodd" clip-rule="evenodd" d="M10.4045 11.8306L11.7867 12.3636L12.609 11.3958L12.6309 12.6902L13.903 13.1039L12.564 13.5584L12.6522 14.7478L11.7703 13.8367L10.384 14.1004L11.2025 13.051L10.4045 11.8306Z" fill="#FECA00"/>
<path fill-rule="evenodd" clip-rule="evenodd" d="M-2.59552 18.3306L-1.32502 18.8923L-0.390951 17.8958L-0.480844 19.2189L0.902978 19.6039L-0.547729 20.0871L-0.347781 21.2478L-1.35784 20.4184L-2.61596 20.6004L-1.90921 19.5797L-2.59552 18.3306Z" fill="#FECA00"/>
<path fill-rule="evenodd" clip-rule="evenodd" d="M-2.59552 5.33058L-1.18962 5.84866L-0.390951 4.89584L-0.345442 6.17521L0.902978 6.60394L-0.412327 7.04349L-0.347781 8.24783L-1.22244 7.37481L-2.61596 7.60041L-1.77381 6.53608L-2.59552 5.33058Z" fill="#FECA00"/>
<path fill-rule="evenodd" clip-rule="evenodd" d="M4.47136 15.7443C5.96713 15.7443 7.17969 14.5317 7.17969 13.036C7.17969 11.5402 5.96713 10.3276 4.47136 10.3276C2.97559 10.3276 1.76302 11.5402 1.76302 13.036C1.76302 14.5317 2.97559 15.7443 4.47136 15.7443Z" fill="#FECA00"/>
<path fill-rule="evenodd" clip-rule="evenodd" d="M4.14378 8.92601L4.28932 10.6658C4.30323 10.7715 4.38451 10.8557 4.48961 10.8733C4.62164 10.8954 4.74659 10.8062 4.76869 10.6742L4.96078 8.94027C4.96415 8.92011 4.96602 8.89972 4.96638 8.87928C4.97036 8.65117 4.78867 8.46302 4.56055 8.45903C4.54011 8.45868 4.51967 8.45984 4.4994 8.46251C4.27321 8.4923 4.11399 8.69982 4.14378 8.92601ZM3.68983 9.76637L3.91475 10.5232C3.93563 10.5935 4.00579 10.637 4.08514 10.623C4.15019 10.6076 4.19046 10.5424 4.17509 10.4774L3.99559 9.7178C3.97495 9.63045 3.89031 9.57389 3.80171 9.58823C3.79579 9.58919 3.78993 9.59052 3.78419 9.59223C3.71004 9.61427 3.6678 9.69223 3.68983 9.76637ZM4.90198 10.5554C4.88435 10.6199 4.92232 10.6864 4.99387 10.7058C5.06561 10.7208 5.13724 10.6798 5.16056 10.6103L5.41176 9.86176C5.43636 9.78843 5.39687 9.70904 5.32354 9.68443C5.31785 9.68252 5.31205 9.68098 5.30617 9.67982C5.21811 9.66239 5.13156 9.71597 5.10788 9.80255L4.90198 10.5554ZM7.15026 9.79323L5.93941 11.1303C5.87455 11.2148 5.8725 11.3318 5.93438 11.4186C6.01211 11.5276 6.16348 11.5529 6.27247 11.4752L7.71788 10.381C7.73453 10.3692 7.75027 10.3561 7.76498 10.3419C7.92909 10.1834 7.93366 9.92185 7.77517 9.75773C7.76097 9.74303 7.7457 9.7294 7.72948 9.71695C7.54847 9.57807 7.28914 9.61223 7.15026 9.79323ZM6.78609 12.6315L8.59412 12.4915C8.82032 12.4618 9.02783 12.621 9.05762 12.8472C9.06029 12.8674 9.06146 12.8879 9.0611 12.9083C9.05712 13.1364 8.86897 13.3181 8.64085 13.3141C8.62041 13.3138 8.60002 13.3119 8.57986 13.3085L6.77772 13.1109C6.64569 13.0888 6.55657 12.9638 6.57867 12.8318C6.59627 12.7267 6.68044 12.6454 6.78609 12.6315ZM7.72267 15.512L6.31853 14.2896C6.23399 14.2247 6.11699 14.2227 6.03024 14.2845C5.92125 14.3623 5.89591 14.5136 5.97364 14.6226L7.13488 16.0796C7.14675 16.0963 7.15984 16.112 7.17404 16.1267C7.33253 16.2909 7.59405 16.2954 7.75817 16.1369C7.77287 16.1227 7.7865 16.1075 7.79895 16.0912C7.93783 15.9102 7.90368 15.6509 7.72267 15.512ZM4.82194 15.1326L4.92914 16.958C4.95893 17.1842 4.79972 17.3917 4.57352 17.4215C4.55325 17.4242 4.53281 17.4253 4.51237 17.425C4.28425 17.421 4.10256 17.2328 4.10654 17.0047C4.1069 16.9843 4.10877 16.9639 4.11215 16.9437L4.34256 15.1242C4.36466 14.9922 4.48961 14.903 4.62164 14.9251C4.72674 14.9427 4.80803 15.0269 4.82194 15.1326ZM1.97214 16.1183L3.16521 14.6663C3.23007 14.5818 3.23212 14.4648 3.17024 14.378C3.09251 14.269 2.94114 14.2437 2.83215 14.3214L1.40452 15.5305C1.38787 15.5424 1.37213 15.5555 1.35743 15.5697C1.19331 15.7281 1.18874 15.9897 1.34723 16.1538C1.36143 16.1685 1.37671 16.1821 1.39293 16.1946C1.57394 16.3334 1.83326 16.2993 1.97214 16.1183ZM2.32203 13.1643L0.502891 13.3142C0.276695 13.344 0.069177 13.1848 0.0393863 12.9586C0.0367167 12.9383 0.0355556 12.9178 0.0359124 12.8974C0.0398941 12.6693 0.228045 12.4876 0.456159 12.4916C0.476601 12.4919 0.496988 12.4938 0.517151 12.4972L2.3304 12.6849C2.46243 12.707 2.55155 12.8319 2.52945 12.964C2.51185 13.0691 2.42768 13.1504 2.32203 13.1643ZM1.23893 10.3149L2.78185 11.5079C2.86639 11.5728 2.98338 11.5748 3.07014 11.513C3.17913 11.4352 3.20447 11.2839 3.12673 11.1749L1.82672 9.74724C1.81484 9.73059 1.80175 9.71485 1.78755 9.70014C1.62907 9.53603 1.36755 9.53146 1.20343 9.68995C1.18872 9.70415 1.17509 9.71942 1.16265 9.73564C1.02377 9.91665 1.05792 10.176 1.23893 10.3149ZM5.782 10.7653L6.15813 10.0711C6.19498 10.0031 6.27998 9.97785 6.34799 10.0147C6.35326 10.0176 6.35834 10.0207 6.3632 10.0243C6.436 10.0768 6.45585 10.1766 6.40868 10.253L5.9985 10.917C5.96337 10.9739 5.8888 10.9915 5.83193 10.9564C5.76593 10.9102 5.74708 10.8298 5.782 10.7653ZM7.68393 12.0334L6.92708 12.2583C6.85682 12.2792 6.81332 12.3493 6.82731 12.4287C6.84268 12.4937 6.90788 12.534 6.97292 12.5186L7.7325 12.3391C7.81986 12.3185 7.87642 12.2338 7.86208 12.1452C7.86112 12.1393 7.85978 12.1335 7.85808 12.1277C7.83604 12.0536 7.75808 12.0113 7.68393 12.0334ZM6.68074 14.1247L7.37496 14.5008C7.44296 14.5377 7.46822 14.6227 7.43138 14.6907C7.42852 14.696 7.42533 14.7011 7.42182 14.7059C7.3693 14.7787 7.26947 14.7986 7.1931 14.7514L6.52907 14.3412C6.4722 14.3061 6.45458 14.2315 6.48971 14.1747C6.53592 14.1086 6.6163 14.0898 6.68074 14.1247ZM5.41694 16.0309L5.19203 15.274C5.17115 15.2038 5.10098 15.1603 5.02163 15.1743C4.95659 15.1896 4.91632 15.2548 4.93169 15.3199L5.11119 16.0795C5.13183 16.1668 5.21646 16.2234 5.30507 16.209C5.31099 16.2081 5.31684 16.2067 5.32259 16.205C5.39673 16.183 5.43898 16.105 5.41694 16.0309ZM3.32348 15.0298L2.94734 15.724C2.9105 15.792 2.8255 15.8173 2.75749 15.7804C2.75222 15.7776 2.74713 15.7744 2.74227 15.7709C2.66947 15.7184 2.64962 15.6185 2.6968 15.5422L3.10698 14.8781C3.14211 14.8213 3.21668 14.8036 3.27354 14.8388C3.33955 14.885 3.3584 14.9654 3.32348 15.0298ZM1.42154 13.7639L2.17839 13.539C2.24865 13.5181 2.29216 13.4479 2.27816 13.3686C2.26279 13.3035 2.1976 13.2633 2.13255 13.2786L1.37297 13.4581C1.28561 13.4788 1.22905 13.5634 1.24339 13.652C1.24435 13.6579 1.24569 13.6638 1.2474 13.6695C1.26943 13.7437 1.3474 13.7859 1.42154 13.7639ZM2.41627 11.6704L1.72206 11.2943C1.65405 11.2574 1.62879 11.1724 1.66564 11.1044C1.66849 11.0992 1.67168 11.0941 1.67519 11.0892C1.72771 11.0164 1.82755 10.9966 1.90391 11.0437L2.56794 11.4539C2.62481 11.4891 2.64243 11.5636 2.6073 11.6205C2.56109 11.6865 2.48071 11.7053 2.41627 11.6704ZM6.45493 11.4902C6.39687 11.5233 6.37666 11.5972 6.41358 11.6615C6.45366 11.7228 6.53333 11.7445 6.59895 11.7118L7.30587 11.3601C7.37512 11.3257 7.40333 11.2416 7.36888 11.1724C7.36621 11.167 7.3632 11.1618 7.35986 11.1568C7.30992 11.0822 7.21084 11.0589 7.13287 11.1034L6.45493 11.4902ZM6.74665 13.3416C6.76599 13.2701 6.83255 13.2321 6.89702 13.2497L7.64988 13.4556C7.73646 13.4793 7.79003 13.5659 7.7726 13.6539C7.77144 13.6598 7.7699 13.6656 7.76799 13.6713C7.74338 13.7446 7.66399 13.7841 7.59066 13.7595L6.84212 13.5083C6.77264 13.485 6.7316 13.4134 6.74665 13.3416ZM5.95803 14.804C5.92491 14.7459 5.851 14.7257 5.78673 14.7626C5.72537 14.8027 5.70373 14.8824 5.73637 14.948L6.08805 15.6549C6.1225 15.7242 6.20657 15.7524 6.27582 15.7179C6.28119 15.7153 6.28638 15.7123 6.29136 15.7089C6.36595 15.659 6.38927 15.5599 6.34479 15.4819L5.95803 14.804ZM4.1129 15.0915C4.18446 15.1108 4.22243 15.1774 4.20479 15.2419L3.9989 15.9947C3.97522 16.0813 3.88866 16.1349 3.80061 16.1174C3.79473 16.1163 3.78892 16.1147 3.78324 16.1128C3.70991 16.0882 3.67041 16.0088 3.69502 15.9355L3.94621 15.187C3.96953 15.1175 4.04117 15.0764 4.1129 15.0915ZM2.65055 14.3071C2.7086 14.274 2.72882 14.2001 2.6919 14.1358C2.65181 14.0744 2.57214 14.0528 2.50652 14.0854L1.7996 14.4371C1.73035 14.4716 1.70214 14.5556 1.73659 14.6249C1.73926 14.6303 1.74228 14.6354 1.74561 14.6404C1.79555 14.715 1.89464 14.7383 1.97261 14.6939L2.65055 14.3071ZM2.35882 12.4556C2.33948 12.5272 2.27293 12.5651 2.20846 12.5475L1.4556 12.3416C1.36902 12.3179 1.31544 12.2314 1.33287 12.1433C1.33403 12.1374 1.33557 12.1316 1.33748 12.126C1.36209 12.0526 1.44148 12.0131 1.51481 12.0377L2.26335 12.2889C2.33284 12.3123 2.37387 12.3839 2.35882 12.4556ZM3.14744 10.9933C3.18056 11.0513 3.25447 11.0715 3.31874 11.0346C3.38011 10.9945 3.40175 10.9149 3.3691 10.8492L3.01743 10.1423C2.98297 10.0731 2.89891 10.0449 2.82965 10.0793C2.82429 10.082 2.81909 10.085 2.81411 10.0883C2.73953 10.1383 2.71621 10.2374 2.76068 10.3153L3.14744 10.9933Z" fill="#FECA00"/>
</g>
</g>
</g>
</svg>
