<svg width="26" height="26" viewBox="0 0 26 26" fill="none" xmlns="http://www.w3.org/2000/svg">
<mask id="mask0_1_13965" style="mask-type:alpha" maskUnits="userSpaceOnUse" x="0" y="0" width="26" height="26">
<circle cx="13" cy="13" r="13" fill="#634848"/>
</mask>
<g mask="url(#mask0_1_13965)">
<g clip-path="url(#clip0_1_13965)">
<path d="M0 0H26V26H0V0Z" fill="#00247D"/>
<path d="M16.8695 13.6144C16.4783 13.9941 16.2019 14.4763 16.0723 15.0058C15.8336 16.3668 15.5137 16.6715 15.0211 16.3769C15.0211 17.1133 15.5645 17.1691 15.798 16.7426C15.798 17.4281 16.0062 18.0222 16.4785 18.5301C16.6816 18.7484 16.7172 18.6011 16.6207 18.3625C16.5293 18.1238 16.5293 17.3621 16.3363 16.9203C16.641 17.1793 17.0879 17.032 17.0473 16.3211C16.6613 16.5953 16.2754 16.5851 16.2348 15.9402C16.184 15.1836 16.4379 14.0867 16.8695 13.6144V13.6144ZM16.4074 8.18591C16.4328 7.91677 16.3871 7.63747 16.2195 7.46482C15.8996 7.12458 15.5848 7.2363 15.3512 7.51052C15.0008 7.282 14.818 8.08435 14.4168 7.94724C14.4828 8.20622 14.5895 8.31794 14.7875 8.23161C14.5793 8.45505 14.7875 8.72419 14.5437 8.99333C14.9855 9.16599 15.2242 8.87146 15.2039 8.36364C15.2396 8.40686 15.2851 8.44101 15.3365 8.46331C15.3879 8.48561 15.4439 8.49543 15.4999 8.49196C15.5558 8.48849 15.6102 8.47184 15.6585 8.44336C15.7067 8.41489 15.7476 8.37539 15.7777 8.3281C15.5441 8.24177 15.5441 7.99802 15.6355 7.7695C15.7777 7.42927 16.448 7.4445 16.4074 8.18591Z" fill="#F7E017" stroke="black" stroke-width="0.0458307"/>
<path d="M17.4332 12.1062C16.9305 12.4211 16.0113 12.289 15.9301 11.5121C15.8437 10.73 16.4785 10.3847 16.6512 10.2832C16.9152 10.1257 17.1234 10.405 17.0371 10.7351C17.3316 10.6082 17.3926 10.2019 17.2555 9.96832C17.6414 10.0039 18.002 9.65348 18.1543 9.15582C18.0172 9.30817 17.6465 9.2066 17.3418 9.18121C17.4332 9.05934 17.4332 8.82067 17.4027 8.69371C17.0828 9.08473 16.6207 8.90699 16.0062 10.0445C16.1516 9.42718 16.287 8.80757 16.4125 8.1859C16.448 7.44449 15.7828 7.42418 15.6406 7.76949C15.793 7.97262 15.7117 8.22145 15.6559 8.59215C15.5898 9.02887 15.4527 10.0445 15.3258 10.3847C15.2902 9.85153 14.9957 9.81598 14.9398 9.56207C14.8535 9.62809 14.8078 9.80582 14.823 9.93278C14.7215 9.79567 14.3609 9.96324 14.2289 9.76012C14.0867 10.1004 14.3152 10.4355 14.5488 10.5828C14.4117 10.5929 14.3812 10.791 14.2289 10.791C14.432 11.0754 14.6402 11.1871 14.8789 11.2125C15.1227 11.2328 15.3004 11.3394 15.4477 11.6898C15.6863 12.2535 16.5852 12.6191 17.4332 12.1062V12.1062Z" fill="#337321" stroke="black" stroke-width="0.0458307"/>
<path d="M18.6824 11.4208C18.398 12.3551 17.6211 13.0204 17.2707 13.1219C16.4903 13.4018 15.7675 13.8217 15.1379 14.361C15.0871 14.3458 15.0363 14.3254 15.0059 14.295C14.8434 14.1579 14.7113 13.7211 14.9957 13.3454C15.8844 12.3551 16.8391 12.7868 17.4332 12.1063C16.9355 12.4211 16.0164 12.2891 15.9301 11.5071C16.4684 11.6797 17.4434 11.6899 18.2152 10.6946C18.3219 10.8317 18.6215 11.2633 18.6824 11.4208V11.4208Z" fill="#F7E017" stroke="black" stroke-width="0.0458307"/>
<path d="M16.8695 13.6144C16.4176 14.0714 16.184 15.1886 16.2348 15.9402C16.25 16.1484 16.2957 16.2957 16.3719 16.3769C16.4023 15.9503 16.6563 14.8433 17.291 14.3457C18.0768 13.7206 18.6672 12.8836 18.9922 11.9335C18.9313 11.7406 18.8398 11.6035 18.657 11.4714C18.3523 12.482 17.5195 12.9644 16.8746 13.6195L16.8695 13.6144Z" fill="#337321" stroke="black" stroke-width="0.0458307"/>
<path d="M18.393 10.984C18.1859 11.3421 17.8836 11.6357 17.5195 11.8321C17.5957 11.7305 17.6211 11.5985 17.6211 11.4918C17.1793 11.6949 16.2906 11.6746 15.9301 11.5172C16.4684 11.6848 17.4434 11.6949 18.2152 10.7047C18.2914 10.8063 18.3574 10.8926 18.393 10.9891V10.984Z" fill="#316D3A" stroke="black" stroke-width="0.0458307"/>
<path d="M14.9957 13.3453C14.2746 14.1528 14.752 14.8586 15.0312 15.016C14.9551 15.5746 15.402 15.5086 15.3918 15.9809C15.5695 15.859 15.6203 15.534 15.5949 15.2699C15.8184 15.5645 16.3922 15.2395 16.5191 15.7778C16.5953 15.1836 16.2043 14.5844 15.7219 14.6403C15.925 14.427 15.8082 14.0817 15.6203 13.9903C15.5848 14.427 15.1633 14.427 15.0059 14.2949C14.8434 14.1578 14.7113 13.7211 14.9957 13.3453Z" fill="#337321" stroke="black" stroke-width="0.0458307"/>
<path d="M16.5547 18.4742C16.4785 18.525 16.4887 18.6519 16.5344 18.7281C16.6359 18.8855 16.4633 19.2461 16.7883 19.3223C16.8797 19.3426 16.9508 19.2715 16.9914 19.1445C17.0879 18.7891 16.773 18.7535 16.7426 18.5859C16.7172 18.4133 16.6258 18.4336 16.5598 18.4742H16.5547Z" fill="#F7E017" stroke="black" stroke-width="0.0458307"/>
<path d="M16.8289 19.1445C16.7273 19.1953 16.6258 19.2816 16.6766 19.6879C16.6918 19.8555 16.6816 20.2617 16.5598 20.2668C16.6359 20.3125 16.7934 20.3582 16.8645 20.2566C16.9254 20.3836 17.0676 20.348 17.1285 20.1906C17.1996 20.2617 17.3063 20.1398 17.3063 20.0332C17.3723 20.084 17.5094 20.0078 17.4688 19.7691C17.55 19.7996 17.6566 19.7336 17.6922 19.6676C17.5754 19.6422 17.2758 19.4492 17.2047 19.2969C17.1336 19.1445 16.9508 19.0734 16.8289 19.1445V19.1445Z" fill="#F7E017" stroke="black" stroke-width="0.0458307"/>
<path d="M15.1887 7.73901C15.2395 7.65776 15.2902 7.57651 15.3512 7.5105M16.9914 9.23198C17.0727 9.17612 17.1945 9.17105 17.3418 9.1812M16.8594 20.2566C16.8289 20.2007 16.8137 19.9621 16.8391 19.8199M17.1285 20.1906C17.0777 20.1398 16.9762 19.9773 16.9559 19.8351M17.3063 20.0332C17.181 19.9096 17.09 19.7556 17.0422 19.5863M17.4688 19.764C17.3926 19.7437 17.1539 19.5609 17.0523 19.3628" stroke="black" stroke-width="0.0458307"/>
<path d="M21.8309 13.3555C22.9937 14.5234 23.0648 15.4426 22.8871 15.9859C22.7957 15.4781 22.3133 14.691 21.8105 14.4879L21.8309 13.3555Z" fill="#F7E017" stroke="black" stroke-width="0.0458307"/>
<path d="M19.7539 12.7055H21.907V15.7422C21.907 18.332 20.6934 19.8656 19.4695 20.6781C18.2355 19.8656 17.027 18.332 17.027 15.7422V12.6953H18.5352C18.5352 12.8578 18.5504 13.0914 18.7027 13.3301C19.0582 13.2895 19.4645 12.9746 19.7438 12.7004L19.7539 12.7055Z" fill="#337321" stroke="black" stroke-width="0.0458307"/>
<path d="M21.907 12.7055V15.7422C21.907 16.5242 21.7953 17.2148 21.6074 17.809L19.4695 13.127L17.3266 17.809C17.1222 17.1393 17.0212 16.4423 17.027 15.7422V12.6953L21.907 12.7055Z" fill="#006EC7" stroke="black" stroke-width="0.0458307"/>
<path d="M21.6734 17.5906C21.6328 17.7277 21.5668 17.9511 21.5109 18.0882L19.4695 13.5585L17.418 18.0882C17.3672 17.9511 17.2961 17.7328 17.2555 17.5906L19.4645 12.7156L21.6734 17.5906Z" fill="#F7E017"/>
<path d="M20.4395 19.2563L20.6426 19.3782C20.7541 19.0607 20.7889 18.7214 20.7441 18.3879C20.6172 18.7586 20.2008 18.7434 20.0891 18.9719C20.1602 19.0125 20.2211 19.0684 20.2769 19.1141C20.0939 19.3306 19.8694 19.5084 19.6168 19.6371V17.2149C19.6168 17.0422 19.566 16.9 19.566 16.7578V16.2602C19.566 16.1485 19.5508 15.986 19.4644 15.986C19.3781 15.986 19.3629 16.1485 19.3629 16.2602V16.7629C19.3629 16.9 19.3121 17.0676 19.3121 17.2149V19.6321C19.2105 19.2715 18.8043 19.3934 18.6113 19.0328C18.6875 19.0125 18.7637 19.0024 18.8398 19.0227C18.6977 18.4489 18.3117 18.4032 18.2355 18.2305C18.2355 18.4692 18.1492 19.0227 18.2863 19.2614C18.3117 19.2156 18.3574 19.1699 18.4133 19.1344C18.5707 19.5508 19.2969 19.5508 19.4644 20.2414C19.6016 19.9875 20.0941 19.693 20.4395 19.2512V19.2563Z" fill="#F7E017" stroke="black" stroke-width="0.0458307"/>
<path d="M19.4645 17.2453C19.627 17.2453 20.1348 17.1843 20.3227 17.1843C20.3734 17.1843 20.409 17.098 20.409 16.9914C20.409 16.8898 20.3684 16.8035 20.3227 16.8035C20.1398 16.8035 19.627 16.7426 19.4645 16.7426C19.307 16.7426 18.7941 16.8035 18.6113 16.8035C18.5605 16.8035 18.5199 16.8898 18.5199 16.9914C18.5199 17.098 18.5605 17.1843 18.6113 17.1843C18.7941 17.1843 19.307 17.2453 19.4645 17.2453ZM19.3629 16.2551C19.3277 16.224 19.2828 16.206 19.2359 16.2043C19.1293 16.2043 19.0379 16.3008 19.0379 16.4125C19.0379 16.5293 19.1242 16.6258 19.2359 16.6258C19.3375 16.6258 19.4289 16.5293 19.4289 16.4125C19.4289 16.3261 19.5355 16.3261 19.5355 16.4125C19.5355 16.6004 19.4035 16.7476 19.2309 16.7476C19.0633 16.7476 18.9262 16.5953 18.9262 16.4125C18.9262 16.2297 19.0684 16.0824 19.2309 16.0824C19.2816 16.0824 19.3324 16.0976 19.373 16.123L19.3629 16.2551V16.2551Z" fill="#F7E017" stroke="black" stroke-width="0.0458307"/>
<path d="M18.6113 17.1843C18.6621 17.1843 18.6977 17.098 18.6977 16.9914C18.6977 16.8898 18.657 16.8035 18.6113 16.8035" fill="#F7E017"/>
<path d="M18.6113 17.1843C18.6621 17.1843 18.6977 17.098 18.6977 16.9914C18.6977 16.8898 18.657 16.8035 18.6113 16.8035" stroke="black" stroke-width="0.0458307"/>
<path d="M18.6824 17.1844C18.7332 17.1844 18.7688 17.0981 18.7688 16.9914C18.7688 16.8899 18.7281 16.8035 18.6824 16.8035M19.1445 17.225C19.2055 17.225 19.2512 17.1235 19.2512 16.9914C19.2512 16.8645 19.2055 16.7629 19.1496 16.7629M19.2563 17.2352C19.3172 17.2352 19.368 17.1235 19.368 16.9914C19.368 16.8594 19.3172 16.7528 19.2563 16.7528M19.6219 17.2352C19.6828 17.2352 19.7285 17.1285 19.7285 16.9914C19.7285 16.8594 19.6777 16.7477 19.6219 16.7477M19.7336 17.2301C19.7945 17.2301 19.8453 17.1285 19.8453 16.9914C19.8453 16.8645 19.7945 16.7578 19.7336 16.7578M20.2414 17.1895C20.2922 17.1895 20.3328 17.1032 20.3328 16.9914C20.3328 16.8848 20.2922 16.7985 20.2414 16.7985M18.4133 19.1395C18.4691 19.0989 18.5402 19.0582 18.6164 19.0379ZM20.3379 19.1649L20.282 19.1141ZM20.4395 19.2563C20.5792 19.086 20.6829 18.889 20.7441 18.6774Z" fill="#F7E017"/>
<path d="M18.6824 17.1844C18.7332 17.1844 18.7688 17.0981 18.7688 16.9914C18.7688 16.8899 18.7281 16.8035 18.6824 16.8035M19.1445 17.225C19.2055 17.225 19.2512 17.1235 19.2512 16.9914C19.2512 16.8645 19.2055 16.7629 19.1496 16.7629M19.2563 17.2352C19.3172 17.2352 19.368 17.1235 19.368 16.9914C19.368 16.8594 19.3172 16.7528 19.2563 16.7528M19.6219 17.2352C19.6828 17.2352 19.7285 17.1285 19.7285 16.9914C19.7285 16.8594 19.6777 16.7477 19.6219 16.7477M19.7336 17.2301C19.7945 17.2301 19.8453 17.1285 19.8453 16.9914C19.8453 16.8645 19.7945 16.7578 19.7336 16.7578M20.2414 17.1895C20.2922 17.1895 20.3328 17.1032 20.3328 16.9914C20.3328 16.8848 20.2922 16.7985 20.2414 16.7985M18.4133 19.1395C18.4691 19.0989 18.5402 19.0582 18.6164 19.0379M20.3379 19.1649L20.282 19.1141M20.4395 19.2563C20.5792 19.086 20.6829 18.889 20.7441 18.6774" stroke="black" stroke-width="0.0458307"/>
<path d="M19.0328 14.8586C19.0328 14.8028 19.0684 14.7774 19.1141 14.7367C19.1648 14.691 19.1902 14.6656 19.2359 14.6656H19.8605C19.9012 14.6656 19.9113 14.6809 19.9113 14.7317V15.7422C19.9113 15.793 19.9063 15.8082 19.8605 15.8082H19.0328V14.8485" fill="white"/>
<path d="M19.0328 14.8586C19.0328 14.8028 19.0684 14.7774 19.1141 14.7367C19.1648 14.691 19.1902 14.6656 19.2359 14.6656H19.8605C19.9012 14.6656 19.9113 14.6809 19.9113 14.7317V15.7422C19.9113 15.793 19.9063 15.8082 19.8605 15.8082H19.0328V14.8485" stroke="black" stroke-width="0.0458307"/>
<path d="M19.7031 15.8946C19.7844 15.8946 19.7742 15.8895 19.8301 15.8184C19.891 15.7473 19.8809 15.7575 19.8809 15.6915V14.7672C19.8809 14.7215 19.8707 14.7063 19.8301 14.7063H19.2563C19.2105 14.7063 19.1902 14.7317 19.1445 14.7774C19.1039 14.8129 19.0684 14.8333 19.0684 14.884V15.8946H19.7031Z" fill="#E5E5E5" stroke="black" stroke-width="0.0458307"/>
<path d="M19.7641 15.8691C19.7641 15.9199 19.7539 15.9351 19.7133 15.9351H19.0887C19.0379 15.9351 19.0328 15.9199 19.0328 15.8691V14.8636C19.0328 14.8128 19.043 14.7976 19.0887 14.7976H19.7082C19.759 14.7976 19.7641 14.8128 19.7641 14.8636V15.8691Z" fill="white" stroke="black" stroke-width="0.0458307"/>
<path d="M20.9727 12.1164C21.0895 12.2738 21.125 12.4922 21.0641 12.7004H20.8813C20.9574 12.4313 20.9117 12.1723 20.5918 12.1418C20.1094 12.091 19.5508 13.198 18.7129 13.3352C18.459 12.9848 18.4742 12.3195 18.7891 12.0047C18.6266 11.4461 18.2863 10.8367 18.0527 10.5777C17.9004 10.5473 17.7176 10.527 17.6008 10.5371C17.7609 10.1992 18.0289 9.92406 18.3625 9.75508C18.4031 9.67383 18.4539 9.60273 18.4996 9.53164C18.5301 9.09492 20.2617 9.29805 20.6324 9.56719C20.6324 10.0547 20.7848 11.6746 20.9676 12.1164H20.9727Z" fill="#96877D" stroke="black" stroke-width="0.0458307"/>
<path d="M18.8703 12.411C18.8297 11.6594 18.5758 11.0399 18.2203 10.6184C18.3491 10.6554 18.4848 10.6613 18.6163 10.6357C18.7479 10.6101 18.8714 10.5537 18.977 10.4711C19.2816 10.2274 20.0992 9.79066 20.3988 9.97855C20.4242 10.0395 20.4344 10.1817 20.4191 10.268C20.348 10.0446 19.5609 10.395 19.3375 10.5016C19.1293 10.6184 19.0328 10.7758 19.109 11.1313C18.9871 11.0094 19.0277 10.8875 18.9008 10.8012C18.9516 10.9485 18.9922 11.2075 19.0074 11.4258C18.9566 11.2735 18.8754 10.9485 18.6926 10.7555C18.8862 11.3129 18.9656 11.9035 18.9262 12.4922C19.0531 12.4922 19.3324 12.3399 19.4441 12.2383C19.3477 12.4059 19.0633 12.5227 18.8754 12.5684C18.7846 12.7531 18.7393 12.9568 18.7434 13.1625C18.7281 12.9543 18.784 12.4414 18.8703 12.411V12.411ZM20.9727 12.1164C20.8102 11.9082 20.5156 11.7965 20.1449 11.9133C20.2059 11.8828 20.3277 11.827 20.4344 11.8016C20.4242 11.6848 20.3328 11.177 20.3176 11.0551L20.4191 11.0043C20.4699 11.309 20.541 11.6543 20.5816 11.7965C20.6172 11.8067 20.6934 11.827 20.7594 11.8676C20.7289 11.7457 20.5664 10.8977 20.5715 10.8012L20.7137 10.7149C20.7552 11.1889 20.8402 11.658 20.9676 12.1164H20.9727Z" fill="black"/>
<path d="M20.8863 12.7055C20.9574 12.4313 20.9117 12.1774 20.5918 12.1418C20.3379 12.1164 20.0738 12.4059 19.7539 12.7004L20.8863 12.7055ZM18.7941 10.2731C18.652 10.2985 18.3371 10.2629 18.1746 10.202C18.1848 10.1512 18.2 10.1004 18.2254 10.0446C18.1238 10.1207 17.9359 10.2731 17.8648 10.3848C18.0883 10.4356 18.5605 10.466 18.7941 10.2731Z" fill="#96877D" stroke="black" stroke-width="0.0458307"/>
<path d="M18.7891 12.0047C18.8398 12.1875 18.8754 12.3602 18.8805 12.5125M18.3625 9.75513C18.2762 9.90747 18.2 10.0649 18.1746 10.202C18.3371 10.2629 18.652 10.2985 18.7941 10.2731" stroke="black" stroke-width="0.0458307"/>
<path d="M18.0527 10.5777L18.2203 10.6184C18.3491 10.6553 18.4848 10.6613 18.6163 10.6357C18.7479 10.6101 18.8714 10.5537 18.977 10.4711C19.2105 10.268 19.8555 9.63828 20.5816 9.57227" stroke="black" stroke-width="0.0458307"/>
<path d="M17.8648 10.3848C18.0934 10.4356 18.5605 10.466 18.7941 10.2731C19.2411 9.86612 19.8038 9.60872 20.4039 9.53674" stroke="black" stroke-width="0.0458307"/>
<path d="M21.8309 13.3554C22.623 14.0156 23.207 14.6453 23.3797 15.6558C23.5523 16.6714 23.8723 16.9406 24.2684 16.6714C24.1719 17.2554 23.6844 17.3265 23.268 16.8746C23.3035 17.5499 23.0801 18.3624 22.491 18.6519C22.4555 18.2457 22.6789 17.9308 22.6129 17.5957C22.5875 17.4484 22.5773 17.1082 22.7398 16.9507C22.425 17.0777 21.9324 16.839 21.8867 16.2906C22.2422 16.4937 22.7094 16.5242 22.8871 15.9859C23.0648 15.4425 22.9887 14.5183 21.8309 13.3605V13.3554ZM22.8313 8.08432C23.075 7.3226 23.7199 7.39878 23.9383 7.72378C24.573 7.29721 24.6543 8.26206 25.1977 8.07417C25.1874 8.16932 25.1413 8.25698 25.0686 8.31926C24.9959 8.38154 24.9022 8.41375 24.8066 8.40932C25.0148 8.63276 24.7203 8.973 25.1621 9.17612C24.7863 9.39956 24.2582 9.16596 24.116 8.54643C23.9941 8.83589 23.5523 8.83589 23.3695 8.59721C23.7605 8.48042 23.7301 8.04878 23.5117 7.8812C23.2934 7.70854 22.9023 7.77964 22.8313 8.08432V8.08432ZM20.9117 9.77026C21.0823 10.4161 21.4024 11.0127 21.8461 11.5121C22.3031 12.0046 22.9887 11.8828 23.3695 11.4105C23.3797 12.3499 22.557 12.4261 22.1 12.1316C21.902 11.9996 21.7445 12.0656 21.9324 12.2738C22.227 12.5937 22.8668 12.8273 23.6234 13.0203C24.9438 13.3554 24.4766 14.6097 24.0906 14.5945C24.2023 14.5945 24.2938 14.4574 24.1313 14.2847C22.9836 13.0507 20.6477 13.5382 20.6832 10.7859C20.4395 11.507 19.4289 11.2277 19.9012 10.3695C20.0535 10.5167 20.3176 10.5269 20.3938 10.3035C20.4547 10.1257 20.4141 9.82104 20.15 9.56206C20.1906 9.55698 20.2871 9.56206 20.277 9.43003C20.2871 9.5062 20.348 9.61792 20.4953 9.58237C20.5359 9.65854 20.5816 9.7144 20.6426 9.68393C20.6527 9.67885 20.6934 9.65854 20.673 9.57729C20.6883 9.72964 20.8355 9.78042 20.9117 9.77026V9.77026Z" fill="#337321" stroke="black" stroke-width="0.0458307"/>
<path d="M22.1051 12.1316C22.6535 12.5581 23.273 12.5581 23.8418 11.771C24.0195 11.5171 24.3039 11.3089 24.502 11.2835C24.7051 11.2581 24.6949 11.0347 24.8422 10.989C24.7508 10.9585 24.7102 10.8214 24.568 10.8367C24.9234 10.6945 24.8219 10.3542 24.9945 10.1917C24.8523 10.2527 24.6289 9.99877 24.4258 10.3238C24.4766 10.1714 24.4105 9.99877 24.3598 9.93275C24.375 10.1003 24.0805 10.1359 24.0195 10.5624C23.9891 10.8062 23.8824 10.791 23.8621 10.4152C23.8469 10.146 23.7402 9.38939 23.6082 9.00853C23.4762 8.62768 23.4457 8.09955 23.6234 8.02338C23.598 7.96752 23.5574 7.92182 23.5117 7.88119C23.2934 7.71361 22.9074 7.77963 22.8312 8.08432C22.5875 8.85111 23.2781 9.29291 23.2172 10.1257C23.1156 9.50619 22.2727 9.34877 22.2828 8.73939C22.0086 8.88666 22.0492 9.1558 22.1508 9.36908C21.9832 9.05424 21.5922 9.57221 21.2621 9.14564C21.2266 9.70932 21.643 9.9226 21.9832 9.94799C21.9501 10.0161 21.9311 10.0902 21.9273 10.1658C21.9235 10.2415 21.935 10.3171 21.9611 10.3882C21.9871 10.4593 22.0273 10.5244 22.0791 10.5796C22.1308 10.6349 22.1932 10.6791 22.2625 10.7097C22.2727 10.08 23.3594 10.339 23.3695 11.4206C23.3797 12.3449 22.5469 12.421 22.1 12.1316H22.1051ZM23.6234 13.0203C24.9437 13.3554 24.4766 14.6097 24.0906 14.5945C23.8418 14.5945 23.6082 14.3406 23.593 14.1324C23.3086 14.3101 23.3848 14.6656 23.6031 14.8078C23.0039 14.7214 22.7551 15.1886 22.7398 15.7015C22.8516 15.4628 23.1816 15.4476 23.3035 15.4984C23.4254 15.5492 23.7453 15.5796 23.8723 15.407C23.7707 15.5136 23.9383 15.7624 23.791 15.9554C24.2887 15.93 24.502 15.3816 24.4207 15.1378C25.0605 14.4421 24.9387 13.2996 23.6234 13.0203V13.0203ZM22.618 18.3726C22.7043 18.4386 22.6941 18.5757 22.6332 18.657C22.5164 18.8296 22.6941 19.2359 22.3336 19.307C22.227 19.3273 22.1508 19.246 22.1152 19.1038C22.0137 18.6976 22.3691 18.6722 22.4098 18.4843C22.4453 18.2964 22.5469 18.3218 22.618 18.3726V18.3726Z" fill="#F7E017" stroke="black" stroke-width="0.0458307"/>
<path d="M22.293 19.1039C22.4098 19.175 22.5113 19.2715 22.4453 19.7184C22.4199 19.9063 22.4148 20.3633 22.552 20.3786C22.4656 20.4192 22.2879 20.4649 22.2168 20.3481C22.1406 20.4852 21.9781 20.4344 21.9223 20.2567C21.8359 20.3329 21.7191 20.1907 21.7293 20.0688C21.6531 20.1196 21.5059 20.0332 21.5516 19.7641C21.4602 19.7997 21.3484 19.7184 21.3078 19.6473C21.4398 19.6219 21.7801 19.4239 21.8664 19.2563C21.9477 19.0938 22.1559 19.0227 22.293 19.1039V19.1039Z" fill="#F7E017" stroke="black" stroke-width="0.0458307"/>
<path d="M22.2168 20.3481C22.2523 20.2871 22.2777 20.0231 22.2523 19.8606M21.9223 20.2617C21.9832 20.211 22.1 20.0281 22.1254 19.8707M21.7293 20.0739C21.8004 20.0332 21.9883 19.7692 22.034 19.5864M21.5516 19.7692C21.7513 19.6779 21.918 19.5271 22.0289 19.3375" stroke="black" stroke-width="0.0458307"/>
<path d="M20.6832 10.791C20.668 11.9438 21.0742 12.5278 21.6328 12.9086C21.4246 12.7563 21.5109 12.2535 21.2316 12.091C21.2977 12.086 21.4043 12.1926 21.5668 12.152C21.4906 11.9387 21.3586 11.6137 21.0488 11.568C21.1301 11.5578 21.3027 11.5883 21.4195 11.5375C21.257 11.243 20.8305 11.3852 20.6832 10.791V10.791ZM20.5867 9.68909C20.5512 9.67385 20.5207 9.63831 20.4953 9.58752C20.343 9.62307 20.2922 9.50627 20.277 9.43518C20.2871 9.56213 20.1906 9.55706 20.15 9.56213C20.4141 9.8262 20.4547 10.1309 20.3938 10.3035C20.3176 10.527 20.0535 10.5168 19.9012 10.3696C19.8809 10.852 20.4039 11.0094 20.5918 10.4051C20.5918 10.5067 20.6984 10.4965 20.7289 10.6285C20.8609 10.3746 20.7594 9.99885 20.5867 9.68909Z" fill="#F7E017" stroke="black" stroke-width="0.0458307"/>
<path d="M19.7539 7.40397C19.5363 7.13735 19.4179 6.80356 19.4187 6.45943C19.4289 6.21568 19.5152 5.94147 19.8148 6.05318C19.7234 6.05318 19.7895 6.2817 19.6879 6.30709C19.7691 6.33756 19.8758 6.25631 19.891 6.20553C19.9113 6.28678 20.0332 6.26647 20.0434 6.35787C20.0941 6.30709 20.0434 6.08873 19.9672 6.04303C20.018 6.01256 20.0484 5.8399 20.023 5.75358C19.9773 5.76373 19.9062 5.8399 19.891 5.9567C19.9164 5.86529 19.891 5.63678 19.7539 5.60123C19.7184 5.66725 19.7082 5.81959 19.759 5.90592C19.6371 5.87037 19.4543 5.96686 19.4137 6.08873C19.4238 5.93639 19.4441 5.72818 19.5152 5.59108C19.5457 5.54537 19.4797 5.4692 19.434 5.57584C19.3375 5.36256 19.0937 5.25084 18.9871 5.35748C18.8754 5.45904 18.7332 5.3067 18.6418 5.47428C18.5504 5.64186 18.2457 5.66217 18.2609 5.8399C18.2711 5.94654 18.2508 6.11412 18.2051 6.17506C18.0984 6.31725 18.2559 6.42897 18.2863 6.55592C18.266 6.12936 18.8398 5.29654 19.4137 5.62154C19.3629 5.72818 19.3121 5.94147 19.2969 6.20045C19.2715 6.58639 19.3223 7.12467 19.632 7.43951L19.7539 7.40397Z" fill="#337321" stroke="black" stroke-width="0.0458307"/>
<path d="M19.9266 6.05825C19.9215 5.95669 20.0688 5.82465 20.2668 5.82973C20.5055 5.82973 20.6883 6.09379 20.8762 6.0684C21.0691 6.04301 20.9777 6.16997 20.9371 6.20043C20.9153 6.21858 20.899 6.24246 20.89 6.26937C20.881 6.29629 20.8798 6.32518 20.8863 6.35278C20.9016 6.41372 20.8762 6.45434 20.8 6.3934C20.6273 6.26645 20.4598 6.44419 20.2363 6.34262C20.0434 6.26137 19.9316 6.21059 19.9266 6.05825V6.05825Z" fill="#C8102E" stroke="black" stroke-width="0.0458307"/>
<path d="M18.9516 8.71919C18.8551 8.36372 18.4945 7.97778 18.3219 7.88638L18.3117 7.69849C18.4082 7.64771 18.6367 7.4395 18.7383 7.31763C19.4492 7.72388 20.4141 7.15005 20.8559 6.55591L21.0285 6.67778L20.9422 6.80981L20.8508 6.75395C20.7441 6.91138 20.3379 7.36333 20.216 7.46489C20.3631 7.50815 20.5148 7.53372 20.668 7.54106C21.0641 7.20591 21.3789 6.90122 21.5313 6.88091L21.6531 7.08403L21.5414 7.17544L21.45 7.1145C20.9578 7.68088 20.5847 8.34062 20.3531 9.05435C20.0891 8.98325 19.1445 9.02895 18.9516 8.71919V8.71919Z" fill="#96877D" stroke="black" stroke-width="0.0458307"/>
<path d="M20.2109 7.46487C20.15 7.44456 20.0992 7.42424 20.0687 7.40393C19.9926 7.48518 19.8047 7.55627 19.5609 7.57151" stroke="black" stroke-width="0.0458307"/>
<path d="M18.9922 8.59727C18.9262 8.17578 19.0277 7.70859 19.2055 7.57148C19.4197 7.72535 19.6781 7.80556 19.9418 7.80007C20.2055 7.79457 20.4603 7.70367 20.668 7.54102" stroke="black" stroke-width="0.0458307"/>
<path d="M18.9922 8.37893C19.2918 8.3637 19.9469 8.42971 20.1094 8.4551C20.2668 8.48557 20.5359 8.56174 20.5004 8.65823M19.1293 8.31799L19.2156 8.21643L19.1293 8.11487L19.043 8.21643L19.1293 8.31799Z" stroke="black" stroke-width="0.0458307"/>
<path d="M19.3324 6.22076C19.2258 6.03794 18.9262 5.98208 18.8602 6.22076C18.8348 6.33248 18.7891 6.44419 18.718 6.49498C18.6469 6.54576 18.6672 6.6981 18.6977 6.76412C18.7687 6.93169 18.7027 7.08912 18.85 7.19576C18.85 7.06372 19.0125 6.93169 19.1496 6.89615C19.2867 6.8606 19.4949 6.71841 19.5203 6.55083C19.5508 6.38833 19.5965 6.25123 19.3324 6.22076Z" fill="#337321" stroke="black" stroke-width="0.0458307"/>
<path d="M18.652 7.84058H18.6926V8.14526L18.7129 8.1605L18.9363 8.00815L18.9566 8.04878L18.7332 8.20112V8.23159L18.9566 8.38394L18.9363 8.42456L18.7129 8.27222C18.7075 8.27893 18.7005 8.28418 18.6926 8.28745V8.59214H18.652V8.28745L18.6316 8.27222L18.4082 8.42456L18.3879 8.38901L18.6113 8.23667V8.2062L18.3879 8.05386L18.4082 8.01323L18.6316 8.16558L18.652 8.15034V7.84058Z" fill="#96877D" stroke="black" stroke-width="0.0458307"/>
<path d="M18.9922 8.59221C18.9541 8.64077 18.9055 8.68014 18.8502 8.70739C18.7948 8.73464 18.734 8.74908 18.6723 8.74963C18.4234 8.74963 18.2254 8.51096 18.2254 8.21643C18.2254 7.9219 18.4234 7.68323 18.6723 7.68323C18.8145 7.68323 18.9465 7.76448 19.0277 7.89143C19.0023 7.96252 18.977 8.10979 18.977 8.18088C18.9566 7.99807 18.8246 7.85081 18.6723 7.85081C18.4996 7.85081 18.3676 8.01838 18.3676 8.21643C18.3676 8.41956 18.4996 8.58206 18.6723 8.58206C18.8094 8.58206 18.9363 8.46526 18.9668 8.30784C18.9668 8.37893 18.9719 8.54143 18.9871 8.59221H18.9922Z" fill="#96877D" stroke="black" stroke-width="0.0458307"/>
<path d="M18.4844 9.10505C18.4376 9.03778 18.4111 8.95845 18.4082 8.87654C18.4488 8.87654 18.5301 8.90701 18.5656 8.95271C18.5656 8.89177 18.5453 8.7699 18.5555 8.71404C18.6062 8.73943 18.7129 8.81052 18.7535 8.89177C18.7434 8.84099 18.723 8.68865 18.7434 8.60232C18.7992 8.64294 18.8957 8.74958 18.916 8.82068C18.916 8.70896 18.9516 8.52107 18.982 8.47537C19.0227 8.52615 19.0887 8.57693 19.1344 8.64294C19.1395 8.55154 19.1801 8.43982 19.2359 8.41443C19.3025 8.51493 19.3443 8.6298 19.3578 8.74959C19.3984 8.72927 19.4594 8.64802 19.4797 8.59724C19.5051 8.64802 19.5305 8.72419 19.5152 8.82068C19.5731 8.76406 19.6167 8.69442 19.6422 8.61755C19.6777 8.6531 19.7488 8.73435 19.7691 8.82576C19.759 8.75466 19.7641 8.62263 19.7437 8.55154C19.8148 8.59216 19.8707 8.67341 19.8859 8.75466C19.9063 8.67849 19.9469 8.54138 19.9875 8.50076C20.0296 8.59152 20.0521 8.69016 20.0535 8.79021C20.0789 8.73943 20.1195 8.63787 20.1551 8.61248C20.1855 8.67341 20.1855 8.81052 20.1754 8.88162C20.2096 8.82602 20.2545 8.7777 20.3074 8.73943C20.3074 8.7699 20.3176 8.84099 20.3074 8.89177C20.348 8.8613 20.4191 8.70896 20.4445 8.62771C20.5105 8.66833 20.5766 8.80544 20.5816 8.87146C20.6499 8.8253 20.7072 8.76461 20.7492 8.69373C20.7492 8.72927 20.7645 8.84099 20.7492 8.92224C20.7746 8.88669 20.8 8.82068 20.8152 8.79021C20.8355 8.85115 20.8203 8.98318 20.8051 9.05427C20.8457 9.01365 20.9066 8.98318 20.9473 8.98318C20.9473 9.07966 20.8965 9.24724 20.8406 9.37419C20.3836 9.22185 19.4391 9.16599 18.4844 9.10505Z" fill="#337321" stroke="black" stroke-width="0.0458307"/>
<path d="M20.0637 6.11916C20.0637 6.07854 20.1398 5.98206 20.282 5.98206C20.4445 5.98206 20.602 6.1344 20.7391 6.11916C20.8711 6.10901 20.8051 6.16487 20.7746 6.17502C20.7441 6.19026 20.7289 6.21057 20.7391 6.23596C20.7492 6.26135 20.734 6.27659 20.6781 6.25627C20.5563 6.20549 20.4395 6.27659 20.282 6.23596C20.1449 6.20042 20.0688 6.18518 20.0637 6.11916Z" fill="#F7E017"/>
<path d="M18.6316 9.44532C18.4894 9.64845 18.3473 9.6129 18.3168 9.48087C18.2914 9.34884 18.393 9.2879 18.3574 9.17618C18.3168 9.06446 18.4184 9.01368 18.4641 9.06446C18.5148 9.11524 18.6672 8.95275 18.7281 9.12032C18.7941 9.2879 18.85 9.40978 18.8094 9.47579C18.7738 9.54181 18.657 9.51134 18.6316 9.44024V9.44532ZM19.241 9.14064C19.2105 9.06446 19.3578 8.92228 19.434 9.02384C19.5102 9.1254 19.632 8.91212 19.698 9.07462L19.8148 9.4047C19.8504 9.4961 19.6371 9.54689 19.5711 9.46564C19.5812 9.51642 19.3883 9.56212 19.3324 9.40978L19.241 9.13556V9.14064ZM20.2211 9.23204C20.1855 9.15079 20.3582 9.03907 20.4496 9.18126C20.475 9.1254 20.6426 9.11017 20.6527 9.28282L20.6781 9.62814C20.6781 9.69415 20.5766 9.75509 20.4953 9.58243C20.3531 9.61798 20.2922 9.52657 20.2769 9.43009L20.2262 9.22696L20.2211 9.23204Z" fill="#F7E017" stroke="black" stroke-width="0.0458307"/>
<path d="M18.723 9.12032C18.6977 9.05938 18.8398 8.94766 18.9363 9.03399C19.0379 9.12032 19.1699 8.96289 19.2258 9.11016C19.3426 9.41992 19.3477 9.44024 19.3172 9.50118C19.2816 9.56211 19.1293 9.53672 19.0887 9.45547C19.0836 9.51133 18.9516 9.50625 18.8855 9.45547C18.8043 9.40469 18.7535 9.22188 18.723 9.12032ZM19.7184 9.13047C19.6828 9.04414 19.9062 8.96797 20.0027 9.12032C20.0535 9.06953 20.1602 9.06446 20.2211 9.23203C20.282 9.39453 20.2922 9.48594 20.2465 9.53164C20.216 9.56211 20.0992 9.58242 20.0637 9.50625C20.0129 9.54688 19.8504 9.51133 19.8148 9.40469C19.7793 9.30313 19.7488 9.20664 19.7133 9.13047H19.7184ZM20.6578 9.29805C20.6527 9.22188 20.7746 9.18125 20.8152 9.29805C20.866 9.41485 21.0082 9.30821 21.0184 9.50118C21.0184 9.53672 21.0031 9.67891 20.9574 9.74492C20.9117 9.81602 20.6934 9.74493 20.6781 9.60274C20.6629 9.45547 20.6578 9.37422 20.6578 9.29805V9.29805Z" fill="#337321" stroke="black" stroke-width="0.0458307"/>
<path d="M18.6316 9.44536C18.5809 9.35903 18.5047 9.22192 18.4184 9.36919M19.0937 9.45552C19.056 9.39743 19.0269 9.33413 19.0074 9.26763M19.5711 9.46567C19.5246 9.42639 19.4865 9.378 19.4594 9.32349M19.5254 9.17114C19.6117 9.1813 19.6676 9.2727 19.693 9.31841C19.7184 9.35903 19.7742 9.4352 19.8148 9.44536M20.0637 9.51138C20.0332 9.45552 20.0078 9.40981 20.0027 9.36919M20.0027 9.12036C20.0332 9.17114 20.0535 9.20669 20.0687 9.25239M20.4953 9.58247C20.4636 9.50517 20.4108 9.43832 20.343 9.3895M20.475 9.27271C20.4801 9.44028 20.668 9.45044 20.6781 9.56724M20.8203 9.2981C20.8355 9.33872 20.8457 9.38442 20.8457 9.45044" stroke="black" stroke-width="0.0458307"/>
<path d="M0 0H13V13H0V0Z" fill="#012169"/>
<path d="M13 0V1.625L8.17578 6.5L13 11.248V13H11.2988L6.44922 8.22656L1.72656 13H0V11.2734L4.72266 6.52539L0 1.87891V0H1.57422L6.44922 4.77344L11.1719 0H13Z" fill="white"/>
<path d="M4.67188 8.22656L4.95117 9.08984L1.06641 13H0V12.9238L4.67188 8.22656ZM7.82031 7.92188L9.19141 8.125L13 11.8574V13L7.82031 7.92188ZM13 0L8.125 4.97656L8.02344 3.85938L11.832 0H13ZM0 0.0253906L4.90039 4.82422L3.40234 4.62109L0 1.24414V0.0253906Z" fill="#C8102E"/>
<path d="M4.46875 0V13H8.53125V0H4.46875ZM0 4.46875V8.53125H13V4.46875H0Z" fill="white"/>
<path d="M0 5.28125V7.71875H13V5.28125H0ZM5.28125 0V13H7.71875V0H5.28125Z" fill="#C8102E"/>
</g>
</g>
<defs>
<clipPath id="clip0_1_13965">
<rect width="26" height="26" fill="white"/>
</clipPath>
</defs>
</svg>
