<svg width="26" height="26" viewBox="0 0 26 26" fill="none" xmlns="http://www.w3.org/2000/svg">
<mask id="mask0_1_10473" style="mask-type:alpha" maskUnits="userSpaceOnUse" x="0" y="0" width="26" height="26">
<circle cx="13" cy="13" r="13" fill="#634848"/>
</mask>
<g mask="url(#mask0_1_10473)">
<mask id="mask1_1_10473" style="mask-type:alpha" maskUnits="userSpaceOnUse" x="-5" y="0" width="36" height="26">
<rect x="-4.33333" width="34.6667" height="26" fill="white"/>
</mask>
<g mask="url(#mask1_1_10473)">
<path fill-rule="evenodd" clip-rule="evenodd" d="M4.33594 0H30.3359V26H4.33594V0Z" fill="#EF0000"/>
<path fill-rule="evenodd" clip-rule="evenodd" d="M-4.33073 0H8.66927V26H-4.33073V0Z" fill="#2F8D00"/>
<mask id="mask2_1_10473" style="mask-type:alpha" maskUnits="userSpaceOnUse" x="0" y="4" width="17" height="18">
<path fill-rule="evenodd" clip-rule="evenodd" d="M8.56287 21.4585C3.94735 21.4585 0.20573 17.6718 0.20573 13.0007C0.20573 8.32955 3.94735 4.54285 8.56287 4.54285C13.1784 4.54285 16.92 8.32955 16.92 13.0007C16.92 17.6718 13.1784 21.4585 8.56287 21.4585Z" fill="white"/>
</mask>
<g mask="url(#mask2_1_10473)">
<path fill-rule="evenodd" clip-rule="evenodd" d="M8.04297 4.33325H9.1263V7.25695H8.04297V4.33325Z" fill="#FFE017"/>
<path fill-rule="evenodd" clip-rule="evenodd" d="M8.04297 18.9519H9.1263V21.6668H8.04297V18.9519Z" fill="#FFE017"/>
<path d="M0.339342 13.4376L0.0364609 12.6605C3.37874 11.3262 5.90135 10.4657 7.61301 10.0779C10.1243 9.50894 12.8836 9.08797 15.8912 8.8147L15.965 9.64669C12.9919 9.91683 10.268 10.3324 7.79333 10.8931C6.13263 11.2693 3.64506 12.1179 0.339342 13.4376Z" fill="#FFE017"/>
<path d="M16.4047 8.30366L16.1589 9.1011C13.6328 8.30364 11.5751 7.96086 9.99343 8.06703L9.9388 7.23352C11.637 7.11953 13.7897 7.47814 16.4047 8.30366Z" fill="#FFE017"/>
<path d="M17.2749 12.7629L16.808 13.4518C15.5203 12.5577 13.9338 12.1087 12.0378 12.1087V11.2733C14.0933 11.2733 15.8426 11.7685 17.2749 12.7629Z" fill="#FFE017"/>
<path d="M16.5801 13.0126L16.7935 13.8195C14.0173 14.5715 11.4108 14.9981 8.97393 15.0986C6.52022 15.1998 3.66037 14.7716 0.39193 13.8173L0.620712 13.0147C3.80972 13.9458 6.58374 14.3611 8.94033 14.264C11.3137 14.1661 13.8604 13.7493 16.5801 13.0126Z" fill="#FFE017"/>
<path d="M16.2641 16.9396L14.9594 18.2772C12.48 15.8001 10.2971 14.0289 8.42428 12.9647C6.51945 11.8822 4.03538 10.7831 0.975914 9.67172L1.60332 7.90271C4.75301 9.04688 7.32846 10.1864 9.33352 11.3258C11.3706 12.4834 13.6763 14.3543 16.2641 16.9396Z" fill="#FFE017"/>
<path d="M1.57978 17.6979L1.08594 17.0286C1.1549 16.9764 1.27795 16.8895 1.4475 16.7794C1.72743 16.5975 2.03828 16.416 2.37273 16.2463C3.29389 15.779 4.21791 15.4873 5.09922 15.4605C5.14232 15.4592 5.18524 15.4585 5.22798 15.4585V16.2938C5.19355 16.2938 5.15889 16.2944 5.12401 16.2954C4.38131 16.318 3.5657 16.5755 2.74259 16.9931C2.43579 17.1487 2.14993 17.3157 1.89338 17.4824C1.80408 17.5404 1.72507 17.594 1.65737 17.6418C1.61789 17.6697 1.5917 17.6889 1.57978 17.6979Z" fill="#FFE017"/>
<path d="M1.96615 17.9876L2.17401 17.1792C4.9258 17.9039 7.04728 18.265 8.52786 18.265C10.0029 18.265 12.1984 17.839 15.1 16.9841L15.3307 17.7862C12.3605 18.6613 10.0976 19.1003 8.52786 19.1003C6.96366 19.1003 4.77994 18.7286 1.96615 17.9876Z" fill="#FFE017"/>
<path d="M0.891277 10.5026L2.19894 9.16797L4.11354 11.0894L2.80587 12.424L0.891277 10.5026Z" fill="#FFE017"/>
<path d="M11.7415 17.1697L12.7142 15.5686L15.7515 17.4584L14.7788 19.0595L11.7415 17.1697Z" fill="#FFE017"/>
</g>
<path fill-rule="evenodd" clip-rule="evenodd" d="M0.20573 13.0007C0.20573 17.6718 3.94735 21.4585 8.56287 21.4585C13.1784 21.4585 16.92 17.6718 16.92 13.0007C16.92 8.32955 13.1784 4.54285 8.56287 4.54285C3.94735 4.54285 0.20573 8.32955 0.20573 13.0007ZM15.8859 13.1045C15.8859 17.1413 12.6524 20.4138 8.66363 20.4138C4.67491 20.4138 1.44141 17.1413 1.44141 13.1045C1.44141 9.06774 4.67491 5.79529 8.66363 5.79529C12.6524 5.79529 15.8859 9.06774 15.8859 13.1045Z" fill="#F9E813"/>
<path d="M3.96289 7.78406V14.5665C4.40937 17.2511 5.91354 18.5934 8.4754 18.5934C11.0373 18.5934 12.5414 17.2511 12.9879 14.5665V7.78406H3.96289Z" fill="white"/>
<path d="M3.34505 7.15771H13.6082V14.619L13.5996 14.6706C13.1038 17.6516 11.3462 19.22 8.47661 19.22C5.60698 19.22 3.84941 17.6516 3.35364 14.6706L3.34505 14.619V7.15771Z" fill="#C51918"/>
<path d="M5.68946 9.43652H11.2575V14.2475C11.2575 14.2475 10.8443 16.7319 8.47347 16.7319C6.10264 16.7319 5.68946 14.2475 5.68946 14.2475V9.43652Z" fill="#F7FCFF"/>
<path fill-rule="evenodd" clip-rule="evenodd" d="M4.32878 7.67493H5.11191V8.19702H4.32878V7.67493Z" fill="#F9E813"/>
<path fill-rule="evenodd" clip-rule="evenodd" d="M3.91407 7.8844H5.35851V8.14544H3.91407V7.8844Z" fill="#060101"/>
<path fill-rule="evenodd" clip-rule="evenodd" d="M3.91407 8.0918H4.6972V8.35284H3.91407V8.0918Z" fill="#F9E813"/>
<path fill-rule="evenodd" clip-rule="evenodd" d="M4.74349 8.0918H5.52662V8.35284H4.74349V8.0918Z" fill="#F9E813"/>
<path fill-rule="evenodd" clip-rule="evenodd" d="M3.91407 8.71802H4.43615V9.50115H3.91407V8.71802Z" fill="#F9E813"/>
<path fill-rule="evenodd" clip-rule="evenodd" d="M4.94662 8.71802H5.46871V9.50115H4.94662V8.71802Z" fill="#F9E813"/>
<path fill-rule="evenodd" clip-rule="evenodd" d="M4.53191 8.71802H4.79295V9.50115H4.53191V8.71802Z" fill="#F9E813"/>
<path fill-rule="evenodd" clip-rule="evenodd" d="M3.91407 8.51074H5.35851V8.77179H3.91407V8.51074Z" fill="#060101"/>
<path fill-rule="evenodd" clip-rule="evenodd" d="M3.91407 9.13696H5.35851V9.39801H3.91407V9.13696Z" fill="#060101"/>
<path fill-rule="evenodd" clip-rule="evenodd" d="M4.11719 8.30127H4.37824V8.56231H4.11719V8.30127Z" fill="#F9E813"/>
<path fill-rule="evenodd" clip-rule="evenodd" d="M4.94662 8.30127H5.20766V8.56231H4.94662V8.30127Z" fill="#F9E813"/>
<path fill-rule="evenodd" clip-rule="evenodd" d="M4.53191 8.0918H4.79295V8.61389H4.53191V8.0918Z" fill="#F9E813"/>
<path fill-rule="evenodd" clip-rule="evenodd" d="M8.25196 7.67493H9.03509V8.19702H8.25196V7.67493Z" fill="#F9E813"/>
<path fill-rule="evenodd" clip-rule="evenodd" d="M7.83724 7.8844H9.28169V8.14544H7.83724V7.8844Z" fill="#060101"/>
<path fill-rule="evenodd" clip-rule="evenodd" d="M7.83724 8.0918H8.62037V8.35284H7.83724V8.0918Z" fill="#F9E813"/>
<path fill-rule="evenodd" clip-rule="evenodd" d="M8.66667 8.0918H9.4498V8.35284H8.66667V8.0918Z" fill="#F9E813"/>
<path fill-rule="evenodd" clip-rule="evenodd" d="M7.83724 8.71802H8.35933V9.50115H7.83724V8.71802Z" fill="#F9E813"/>
<path fill-rule="evenodd" clip-rule="evenodd" d="M8.86979 8.71802H9.39188V9.50115H8.86979V8.71802Z" fill="#F9E813"/>
<path fill-rule="evenodd" clip-rule="evenodd" d="M8.45508 8.71802H8.71613V9.50115H8.45508V8.71802Z" fill="#F9E813"/>
<path fill-rule="evenodd" clip-rule="evenodd" d="M7.83724 8.51074H9.28169V8.77179H7.83724V8.51074Z" fill="#060101"/>
<path fill-rule="evenodd" clip-rule="evenodd" d="M7.83724 9.13696H9.28169V9.39801H7.83724V9.13696Z" fill="#060101"/>
<path fill-rule="evenodd" clip-rule="evenodd" d="M8.04037 8.30127H8.30141V8.56231H8.04037V8.30127Z" fill="#F9E813"/>
<path fill-rule="evenodd" clip-rule="evenodd" d="M8.86979 8.30127H9.13084V8.56231H8.86979V8.30127Z" fill="#F9E813"/>
<path fill-rule="evenodd" clip-rule="evenodd" d="M8.45508 8.0918H8.71613V8.61389H8.45508V8.0918Z" fill="#F9E813"/>
<path fill-rule="evenodd" clip-rule="evenodd" d="M11.9642 7.67493H12.7473V8.19702H11.9642V7.67493Z" fill="#F9E813"/>
<path fill-rule="evenodd" clip-rule="evenodd" d="M11.5495 7.8844H12.9939V8.14544H11.5495V7.8844Z" fill="#060101"/>
<path fill-rule="evenodd" clip-rule="evenodd" d="M11.5495 8.0918H12.3326V8.35284H11.5495V8.0918Z" fill="#F9E813"/>
<path fill-rule="evenodd" clip-rule="evenodd" d="M12.3789 8.0918H13.162V8.35284H12.3789V8.0918Z" fill="#F9E813"/>
<path fill-rule="evenodd" clip-rule="evenodd" d="M11.5495 8.71802H12.0716V9.50115H11.5495V8.71802Z" fill="#F9E813"/>
<path fill-rule="evenodd" clip-rule="evenodd" d="M12.582 8.71802H13.1041V9.50115H12.582V8.71802Z" fill="#F9E813"/>
<path fill-rule="evenodd" clip-rule="evenodd" d="M12.1673 8.71802H12.4284V9.50115H12.1673V8.71802Z" fill="#F9E813"/>
<path fill-rule="evenodd" clip-rule="evenodd" d="M11.5495 8.51074H12.9939V8.77179H11.5495V8.51074Z" fill="#060101"/>
<path fill-rule="evenodd" clip-rule="evenodd" d="M11.5495 9.13696H12.9939V9.39801H11.5495V9.13696Z" fill="#060101"/>
<path fill-rule="evenodd" clip-rule="evenodd" d="M11.7526 8.30127H12.0137V8.56231H11.7526V8.30127Z" fill="#F9E813"/>
<path fill-rule="evenodd" clip-rule="evenodd" d="M12.582 8.30127H12.8431V8.56231H12.582V8.30127Z" fill="#F9E813"/>
<path fill-rule="evenodd" clip-rule="evenodd" d="M12.1673 8.0918H12.4284V8.61389H12.1673V8.0918Z" fill="#F9E813"/>
<path fill-rule="evenodd" clip-rule="evenodd" d="M11.9642 11.4351H12.7473V11.9571H11.9642V11.4351Z" fill="#F9E813"/>
<path fill-rule="evenodd" clip-rule="evenodd" d="M11.5495 11.6445H12.9939V11.9056H11.5495V11.6445Z" fill="#060101"/>
<path fill-rule="evenodd" clip-rule="evenodd" d="M11.5495 11.8519H12.3326V12.113H11.5495V11.8519Z" fill="#F9E813"/>
<path fill-rule="evenodd" clip-rule="evenodd" d="M12.3789 11.8519H13.162V12.113H12.3789V11.8519Z" fill="#F9E813"/>
<path fill-rule="evenodd" clip-rule="evenodd" d="M11.5495 12.4781H12.0716V13.2613H11.5495V12.4781Z" fill="#F9E813"/>
<path fill-rule="evenodd" clip-rule="evenodd" d="M12.582 12.4781H13.1041V13.2613H12.582V12.4781Z" fill="#F9E813"/>
<path fill-rule="evenodd" clip-rule="evenodd" d="M12.1673 12.4781H12.4284V13.2613H12.1673V12.4781Z" fill="#F9E813"/>
<path fill-rule="evenodd" clip-rule="evenodd" d="M11.5495 12.2709H12.9939V12.5319H11.5495V12.2709Z" fill="#060101"/>
<path fill-rule="evenodd" clip-rule="evenodd" d="M11.5495 12.8971H12.9939V13.1581H11.5495V12.8971Z" fill="#060101"/>
<path fill-rule="evenodd" clip-rule="evenodd" d="M11.7526 12.0614H12.0137V12.3224H11.7526V12.0614Z" fill="#F9E813"/>
<path fill-rule="evenodd" clip-rule="evenodd" d="M12.582 12.0614H12.8431V12.3224H12.582V12.0614Z" fill="#F9E813"/>
<path fill-rule="evenodd" clip-rule="evenodd" d="M12.1673 11.8519H12.4284V12.374H12.1673V11.8519Z" fill="#F9E813"/>
<path fill-rule="evenodd" clip-rule="evenodd" d="M4.32878 11.4351H5.11191V11.9571H4.32878V11.4351Z" fill="#F9E813"/>
<path fill-rule="evenodd" clip-rule="evenodd" d="M3.91407 11.6445H5.35851V11.9056H3.91407V11.6445Z" fill="#060101"/>
<path fill-rule="evenodd" clip-rule="evenodd" d="M3.91407 11.8519H4.6972V12.113H3.91407V11.8519Z" fill="#F9E813"/>
<path fill-rule="evenodd" clip-rule="evenodd" d="M4.74349 11.8519H5.52662V12.113H4.74349V11.8519Z" fill="#F9E813"/>
<path fill-rule="evenodd" clip-rule="evenodd" d="M3.91407 12.4781H4.43615V13.2613H3.91407V12.4781Z" fill="#F9E813"/>
<path fill-rule="evenodd" clip-rule="evenodd" d="M4.94662 12.4781H5.46871V13.2613H4.94662V12.4781Z" fill="#F9E813"/>
<path fill-rule="evenodd" clip-rule="evenodd" d="M4.53191 12.4781H4.79295V13.2613H4.53191V12.4781Z" fill="#F9E813"/>
<path fill-rule="evenodd" clip-rule="evenodd" d="M3.91407 12.2709H5.35851V12.5319H3.91407V12.2709Z" fill="#060101"/>
<path fill-rule="evenodd" clip-rule="evenodd" d="M3.91407 12.8971H5.35851V13.1581H3.91407V12.8971Z" fill="#060101"/>
<path fill-rule="evenodd" clip-rule="evenodd" d="M4.11719 12.0614H4.37824V12.3224H4.11719V12.0614Z" fill="#F9E813"/>
<path fill-rule="evenodd" clip-rule="evenodd" d="M4.94662 12.0614H5.20766V12.3224H4.94662V12.0614Z" fill="#F9E813"/>
<path fill-rule="evenodd" clip-rule="evenodd" d="M4.53191 11.8519H4.79295V12.374H4.53191V11.8519Z" fill="#F9E813"/>
<path fill-rule="evenodd" clip-rule="evenodd" d="M4.83139 16.1471L5.33477 15.5472L5.73472 15.8828L5.23133 16.4827L4.83139 16.1471Z" fill="#F9E813"/>
<path fill-rule="evenodd" clip-rule="evenodd" d="M4.72982 16.5957L5.6583 15.4892L5.85827 15.657L4.9298 16.7635L4.72982 16.5957Z" fill="#060101"/>
<path fill-rule="evenodd" clip-rule="evenodd" d="M4.89063 16.7311L5.39402 16.1312L5.59399 16.299L5.0906 16.8989L4.89063 16.7311Z" fill="#F9E813"/>
<path fill-rule="evenodd" clip-rule="evenodd" d="M5.41537 16.0985L5.91876 15.4986L6.11873 15.6664L5.61534 16.2663L5.41537 16.0985Z" fill="#F9E813"/>
<path fill-rule="evenodd" clip-rule="evenodd" d="M5.37305 17.1332L5.70864 16.7332L6.30856 17.2366L5.97296 17.6366L5.37305 17.1332Z" fill="#F9E813"/>
<path fill-rule="evenodd" clip-rule="evenodd" d="M6.03321 16.3439L6.3688 15.9439L6.96871 16.4473L6.63312 16.8473L6.03321 16.3439Z" fill="#F9E813"/>
<path fill-rule="evenodd" clip-rule="evenodd" d="M5.77084 16.6592L5.93864 16.4592L6.53855 16.9626L6.37075 17.1626L5.77084 16.6592Z" fill="#F9E813"/>
<path fill-rule="evenodd" clip-rule="evenodd" d="M5.21225 16.9999L6.14072 15.8934L6.34069 16.0612L5.41222 17.1677L5.21225 16.9999Z" fill="#060101"/>
<path fill-rule="evenodd" clip-rule="evenodd" d="M5.6862 17.4019L6.61467 16.2953L6.81465 16.4631L5.88617 17.5697L5.6862 17.4019Z" fill="#060101"/>
<path fill-rule="evenodd" clip-rule="evenodd" d="M5.17839 16.7079L5.34619 16.5079L5.54616 16.6757L5.37836 16.8757L5.17839 16.7079Z" fill="#F9E813"/>
<path fill-rule="evenodd" clip-rule="evenodd" d="M5.71159 16.0752L5.87939 15.8752L6.07936 16.043L5.91157 16.243L5.71159 16.0752Z" fill="#F9E813"/>
<path fill-rule="evenodd" clip-rule="evenodd" d="M5.28842 16.2572L5.45621 16.0572L5.85616 16.3928L5.68836 16.5928L5.28842 16.2572Z" fill="#F9E813"/>
<path fill-rule="evenodd" clip-rule="evenodd" d="M11.8939 15.6699L12.3973 16.2698L11.9973 16.6054L11.4939 16.0055L11.8939 15.6699Z" fill="#F9E813"/>
<path fill-rule="evenodd" clip-rule="evenodd" d="M11.4707 15.4879L12.3992 16.5944L12.1992 16.7622L11.2707 15.6557L11.4707 15.4879Z" fill="#060101"/>
<path fill-rule="evenodd" clip-rule="evenodd" d="M11.3099 15.6233L11.8133 16.2232L11.6133 16.391L11.1099 15.7911L11.3099 15.6233Z" fill="#F9E813"/>
<path fill-rule="evenodd" clip-rule="evenodd" d="M11.8431 16.256L12.3465 16.8559L12.1465 17.0237L11.6431 16.4238L11.8431 16.256Z" fill="#F9E813"/>
<path fill-rule="evenodd" clip-rule="evenodd" d="M10.8275 16.0254L11.1631 16.4253L10.5632 16.9287L10.2276 16.5288L10.8275 16.0254Z" fill="#F9E813"/>
<path fill-rule="evenodd" clip-rule="evenodd" d="M11.4961 16.8167L11.8317 17.2166L11.2318 17.72L10.8962 17.32L11.4961 16.8167Z" fill="#F9E813"/>
<path fill-rule="evenodd" clip-rule="evenodd" d="M11.2337 16.4993L11.4015 16.6992L10.8016 17.2026L10.6338 17.0027L11.2337 16.4993Z" fill="#F9E813"/>
<path fill-rule="evenodd" clip-rule="evenodd" d="M10.9883 15.8921L11.9168 16.9986L11.7168 17.1664L10.7883 16.0599L10.9883 15.8921Z" fill="#060101"/>
<path fill-rule="evenodd" clip-rule="evenodd" d="M10.5143 16.2941L11.4428 17.4006L11.2428 17.5684L10.3144 16.4619L10.5143 16.2941Z" fill="#060101"/>
<path fill-rule="evenodd" clip-rule="evenodd" d="M11.2845 15.9153L11.4523 16.1153L11.2523 16.2831L11.0845 16.0831L11.2845 15.9153Z" fill="#F9E813"/>
<path fill-rule="evenodd" clip-rule="evenodd" d="M11.8177 16.548L11.9855 16.7479L11.7855 16.9157L11.6177 16.7158L11.8177 16.548Z" fill="#F9E813"/>
<path fill-rule="evenodd" clip-rule="evenodd" d="M11.7077 16.0973L11.8755 16.2973L11.4755 16.6329L11.3077 16.4329L11.7077 16.0973Z" fill="#F9E813"/>
<path fill-rule="evenodd" clip-rule="evenodd" d="M9.27997 9.97131H7.84961V11.0129C7.84961 11.0129 7.95576 11.5508 8.56479 11.5508C9.17383 11.5508 9.27997 11.0129 9.27997 11.0129V9.97131ZM8.46544 10.3896C8.46544 10.505 8.37305 10.5985 8.25909 10.5985C8.14512 10.5985 8.05274 10.505 8.05274 10.3896C8.05274 10.2743 8.14512 10.1808 8.25909 10.1808C8.37305 10.1808 8.46544 10.2743 8.46544 10.3896ZM8.25909 11.4321C8.37305 11.4321 8.46544 11.3386 8.46544 11.2233C8.46544 11.1079 8.37305 11.0144 8.25909 11.0144C8.14512 11.0144 8.05274 11.1079 8.05274 11.2233C8.05274 11.3386 8.14512 11.4321 8.25909 11.4321ZM9.09174 11.2233C9.09174 11.3386 8.99935 11.4321 8.88539 11.4321C8.77143 11.4321 8.67904 11.3386 8.67904 11.2233C8.67904 11.1079 8.77143 11.0144 8.88539 11.0144C8.99935 11.0144 9.09174 11.1079 9.09174 11.2233ZM8.57224 11.0153C8.6862 11.0153 8.77859 10.9218 8.77859 10.8065C8.77859 10.6911 8.6862 10.5976 8.57224 10.5976C8.45827 10.5976 8.36589 10.6911 8.36589 10.8065C8.36589 10.9218 8.45827 11.0153 8.57224 11.0153ZM9.09174 10.3896C9.09174 10.505 8.99935 10.5985 8.88539 10.5985C8.77143 10.5985 8.67904 10.505 8.67904 10.3896C8.67904 10.2743 8.77143 10.1808 8.88539 10.1808C8.99935 10.1808 9.09174 10.2743 9.09174 10.3896Z" fill="#013399"/>
<path fill-rule="evenodd" clip-rule="evenodd" d="M9.27997 12.2701H7.84961V13.3117C7.84961 13.3117 7.95576 13.8496 8.56479 13.8496C9.17383 13.8496 9.27997 13.3117 9.27997 13.3117V12.2701ZM8.46544 12.6884C8.46544 12.8038 8.37305 12.8973 8.25909 12.8973C8.14512 12.8973 8.05274 12.8038 8.05274 12.6884C8.05274 12.5731 8.14512 12.4796 8.25909 12.4796C8.37305 12.4796 8.46544 12.5731 8.46544 12.6884ZM8.25909 13.7309C8.37305 13.7309 8.46544 13.6374 8.46544 13.5221C8.46544 13.4068 8.37305 13.3133 8.25909 13.3133C8.14512 13.3133 8.05274 13.4068 8.05274 13.5221C8.05274 13.6374 8.14512 13.7309 8.25909 13.7309ZM9.09174 13.5221C9.09174 13.6374 8.99935 13.7309 8.88539 13.7309C8.77143 13.7309 8.67904 13.6374 8.67904 13.5221C8.67904 13.4068 8.77143 13.3133 8.88539 13.3133C8.99935 13.3133 9.09174 13.4068 9.09174 13.5221ZM8.57224 13.3141C8.6862 13.3141 8.77859 13.2206 8.77859 13.1053C8.77859 12.9899 8.6862 12.8964 8.57224 12.8964C8.45827 12.8964 8.36589 12.9899 8.36589 13.1053C8.36589 13.2206 8.45827 13.3141 8.57224 13.3141ZM9.09174 12.6884C9.09174 12.8038 8.99935 12.8973 8.88539 12.8973C8.77143 12.8973 8.67904 12.8038 8.67904 12.6884C8.67904 12.5731 8.77143 12.4796 8.88539 12.4796C8.99935 12.4796 9.09174 12.5731 9.09174 12.6884Z" fill="#013399"/>
<path fill-rule="evenodd" clip-rule="evenodd" d="M11.1276 12.2701H9.69727V13.3117C9.69727 13.3117 9.80341 13.8496 10.4124 13.8496C11.0215 13.8496 11.1276 13.3117 11.1276 13.3117V12.2701ZM10.3131 12.6884C10.3131 12.8038 10.2207 12.8973 10.1067 12.8973C9.99278 12.8973 9.90039 12.8038 9.90039 12.6884C9.90039 12.5731 9.99278 12.4796 10.1067 12.4796C10.2207 12.4796 10.3131 12.5731 10.3131 12.6884ZM10.1067 13.7309C10.2207 13.7309 10.3131 13.6374 10.3131 13.5221C10.3131 13.4068 10.2207 13.3133 10.1067 13.3133C9.99278 13.3133 9.90039 13.4068 9.90039 13.5221C9.90039 13.6374 9.99278 13.7309 10.1067 13.7309ZM10.9394 13.5221C10.9394 13.6374 10.847 13.7309 10.733 13.7309C10.6191 13.7309 10.5267 13.6374 10.5267 13.5221C10.5267 13.4068 10.6191 13.3133 10.733 13.3133C10.847 13.3133 10.9394 13.4068 10.9394 13.5221ZM10.4199 13.3141C10.5339 13.3141 10.6262 13.2206 10.6262 13.1053C10.6262 12.9899 10.5339 12.8964 10.4199 12.8964C10.3059 12.8964 10.2135 12.9899 10.2135 13.1053C10.2135 13.2206 10.3059 13.3141 10.4199 13.3141ZM10.9394 12.6884C10.9394 12.8038 10.847 12.8973 10.733 12.8973C10.6191 12.8973 10.5267 12.8038 10.5267 12.6884C10.5267 12.5731 10.6191 12.4796 10.733 12.4796C10.847 12.4796 10.9394 12.5731 10.9394 12.6884Z" fill="#013399"/>
<path fill-rule="evenodd" clip-rule="evenodd" d="M7.41539 12.2701H5.98503V13.3117C5.98503 13.3117 6.09117 13.8496 6.70021 13.8496C7.30924 13.8496 7.41539 13.3117 7.41539 13.3117V12.2701ZM6.60085 12.6884C6.60085 12.8038 6.50847 12.8973 6.3945 12.8973C6.28054 12.8973 6.18815 12.8038 6.18815 12.6884C6.18815 12.5731 6.28054 12.4796 6.3945 12.4796C6.50847 12.4796 6.60085 12.5731 6.60085 12.6884ZM6.3945 13.7309C6.50847 13.7309 6.60085 13.6374 6.60085 13.5221C6.60085 13.4068 6.50847 13.3133 6.3945 13.3133C6.28054 13.3133 6.18815 13.4068 6.18815 13.5221C6.18815 13.6374 6.28054 13.7309 6.3945 13.7309ZM7.22715 13.5221C7.22715 13.6374 7.13477 13.7309 7.0208 13.7309C6.90684 13.7309 6.81445 13.6374 6.81445 13.5221C6.81445 13.4068 6.90684 13.3133 7.0208 13.3133C7.13477 13.3133 7.22715 13.4068 7.22715 13.5221ZM6.70765 13.3141C6.82162 13.3141 6.914 13.2206 6.914 13.1053C6.914 12.9899 6.82162 12.8964 6.70765 12.8964C6.59369 12.8964 6.5013 12.9899 6.5013 13.1053C6.5013 13.2206 6.59369 13.3141 6.70765 13.3141ZM7.22715 12.6884C7.22715 12.8038 7.13477 12.8973 7.0208 12.8973C6.90684 12.8973 6.81445 12.8038 6.81445 12.6884C6.81445 12.5731 6.90684 12.4796 7.0208 12.4796C7.13477 12.4796 7.22715 12.5731 7.22715 12.6884Z" fill="#013399"/>
<path fill-rule="evenodd" clip-rule="evenodd" d="M9.27997 14.5648H7.84961V15.6064C7.84961 15.6064 7.95576 16.1443 8.56479 16.1443C9.17383 16.1443 9.27997 15.6064 9.27997 15.6064V14.5648ZM8.46544 14.9831C8.46544 15.0985 8.37305 15.192 8.25909 15.192C8.14512 15.192 8.05274 15.0985 8.05274 14.9831C8.05274 14.8678 8.14512 14.7743 8.25909 14.7743C8.37305 14.7743 8.46544 14.8678 8.46544 14.9831ZM8.25909 16.0256C8.37305 16.0256 8.46544 15.9321 8.46544 15.8168C8.46544 15.7014 8.37305 15.608 8.25909 15.608C8.14512 15.608 8.05274 15.7014 8.05274 15.8168C8.05274 15.9321 8.14512 16.0256 8.25909 16.0256ZM9.09174 15.8168C9.09174 15.9321 8.99935 16.0256 8.88539 16.0256C8.77143 16.0256 8.67904 15.9321 8.67904 15.8168C8.67904 15.7014 8.77143 15.608 8.88539 15.608C8.99935 15.608 9.09174 15.7014 9.09174 15.8168ZM8.57224 15.6088C8.6862 15.6088 8.77859 15.5153 8.77859 15.4C8.77859 15.2846 8.6862 15.1911 8.57224 15.1911C8.45827 15.1911 8.36589 15.2846 8.36589 15.4C8.36589 15.5153 8.45827 15.6088 8.57224 15.6088ZM9.09174 14.9831C9.09174 15.0985 8.99935 15.192 8.88539 15.192C8.77143 15.192 8.67904 15.0985 8.67904 14.9831C8.67904 14.8678 8.77143 14.7743 8.88539 14.7743C8.99935 14.7743 9.09174 14.8678 9.09174 14.9831Z" fill="#013399"/>
</g>
</g>
</svg>
