<svg width="26" height="26" viewBox="0 0 26 26" fill="none" xmlns="http://www.w3.org/2000/svg">
<mask id="mask0_1_10739" style="mask-type:alpha" maskUnits="userSpaceOnUse" x="0" y="0" width="26" height="26">
<circle cx="13" cy="13" r="13" fill="#634848"/>
</mask>
<g mask="url(#mask0_1_10739)">
<mask id="mask1_1_10739" style="mask-type:alpha" maskUnits="userSpaceOnUse" x="-5" y="0" width="36" height="26">
<rect x="-4.33333" width="34.6667" height="26" fill="white"/>
</mask>
<g mask="url(#mask1_1_10739)">
<path fill-rule="evenodd" clip-rule="evenodd" d="M-4.33073 0V26H30.3359V0H-4.33073Z" fill="#F7FCFF"/>
<mask id="mask2_1_10739" style="mask-type:alpha" maskUnits="userSpaceOnUse" x="-5" y="0" width="36" height="26">
<path fill-rule="evenodd" clip-rule="evenodd" d="M-4.33073 0V26H30.3359V0H-4.33073Z" fill="white"/>
</mask>
<g mask="url(#mask2_1_10739)">
<path d="M17.1635 13.0007C17.1635 15.2973 15.3018 17.159 13.0052 17.159C10.7086 17.159 8.84688 15.2973 8.84688 13.0007C8.84688 10.7041 10.7086 8.84236 13.0052 8.84236C15.3018 8.84236 17.1635 10.7041 17.1635 13.0007Z" stroke="#272727" stroke-width="0.35"/>
<path fill-rule="evenodd" clip-rule="evenodd" d="M9.75521 13.0007C9.75521 14.7957 11.2103 16.2507 13.0052 16.2507C14.8001 16.2507 16.2552 14.7957 16.2552 13.0007C16.2552 12.0413 15.8395 11.1789 15.1783 10.584C14.6025 10.066 13.8407 9.75073 13.0052 9.75073C12.3024 9.75073 11.6516 9.97383 11.12 10.3531C10.2939 10.9424 9.75521 11.9086 9.75521 13.0007ZM15.8777 13.0003C15.8777 14.5858 14.5924 15.8711 13.0069 15.8711C11.4214 15.8711 10.1361 14.5858 10.1361 13.0003C10.1361 12.0317 10.6157 11.1752 11.3504 10.6553C11.8184 10.3241 12.3899 10.1295 13.0069 10.1295C13.7732 10.1295 14.4693 10.4297 14.9841 10.9189C15.5346 11.442 15.8777 12.1811 15.8777 13.0003Z" fill="#272727"/>
<path fill-rule="evenodd" clip-rule="evenodd" d="M-4.33073 0V8.66667H30.3359V0H-4.33073Z" fill="#F05234"/>
<path fill-rule="evenodd" clip-rule="evenodd" d="M-4.33073 17.3334V26H30.3359V17.3334H-4.33073Z" fill="#3D58DB"/>
<path d="M11.5008 10.8365L11.8091 11.2819C11.0943 11.7768 10.7707 12.3578 11.0349 13.3437C11.2965 14.3202 11.9103 14.8049 12.932 14.8404L12.9132 15.3817C11.6542 15.338 10.8039 14.8221 10.4804 13.6148C10.1594 12.417 10.5889 11.4678 11.5008 10.8365Z" fill="#73BE4A"/>
<path fill-rule="evenodd" clip-rule="evenodd" d="M13.0026 13.3404L12.0475 13.9888L12.369 12.8801L11.4571 12.172L12.611 12.1352L13.0026 11.0492L13.3942 12.1352L14.5481 12.172L13.6362 12.8801L13.9578 13.9888L13.0026 13.3404Z" fill="#FBCD17"/>
<path d="M14.2684 11.024C14.2684 11.024 15.4884 11.8687 15.0496 13.5065C14.6107 15.1443 12.9002 15.2037 12.9002 15.2037" stroke="#73BE4A" stroke-width="0.5"/>
<path d="M11.4453 9.79659L11.951 10.5747Z" fill="#F7FCFF"/>
</g>
</g>
</g>
</svg>
