<svg width="26" height="26" viewBox="0 0 26 26" fill="none" xmlns="http://www.w3.org/2000/svg">
<mask id="mask0_1_10222" style="mask-type:alpha" maskUnits="userSpaceOnUse" x="0" y="0" width="26" height="26">
<circle cx="13" cy="13" r="13" fill="#634848"/>
</mask>
<g mask="url(#mask0_1_10222)">
<mask id="mask1_1_10222" style="mask-type:alpha" maskUnits="userSpaceOnUse" x="-5" y="0" width="36" height="26">
<rect x="-4.33333" width="34.6667" height="26" fill="white"/>
</mask>
<g mask="url(#mask1_1_10222)">
<path fill-rule="evenodd" clip-rule="evenodd" d="M-4.33073 0V26H30.3359V0H-4.33073Z" fill="#4857A1"/>
<mask id="mask2_1_10222" style="mask-type:alpha" maskUnits="userSpaceOnUse" x="-5" y="0" width="36" height="26">
<path fill-rule="evenodd" clip-rule="evenodd" d="M-4.33073 0V26H30.3359V0H-4.33073Z" fill="white"/>
</mask>
<g mask="url(#mask2_1_10222)">
<path fill-rule="evenodd" clip-rule="evenodd" d="M-4.33073 0V8.66667H30.3359V0H-4.33073Z" fill="#C51918"/>
<path fill-rule="evenodd" clip-rule="evenodd" d="M-4.33073 17.3333V26H30.3359V17.3333H-4.33073Z" fill="#F7FCFF"/>
<path fill-rule="evenodd" clip-rule="evenodd" d="M8.07553 4.11949L7.95295 3.62823C8.05713 3.66023 8.17026 3.69307 8.28965 3.72683L8.28843 3.72018C9.71848 3.8499 11.9291 4.59013 12.3406 5.37634C12.4996 5.68023 12.3414 5.93928 12.1342 6.27877L12.1342 6.27877C12.1032 6.3295 12.0711 6.38203 12.0389 6.43676C11.9347 6.61353 11.8402 6.78252 11.7511 6.94178C11.4292 7.51761 11.1783 7.96625 10.7957 8.1959L10.8033 9.49589L4.41648 9.44097L4.4082 8.12713C4.08179 7.88261 3.84828 7.46496 3.55627 6.94268L3.55626 6.94267C3.46722 6.78342 3.37274 6.61443 3.26853 6.43767C3.23626 6.38293 3.20419 6.3304 3.17322 6.27967C2.96595 5.94018 2.80779 5.68113 2.96684 5.37725C3.27828 4.7822 4.69658 4.2036 5.98787 3.90117C6.23483 3.81383 6.4923 3.73203 6.74761 3.65363L6.86264 3.73687C6.9625 3.72331 7.05928 3.71223 7.15221 3.7038L7.29955 4.03237H7.82266C7.82266 4.03237 8.13667 4.96463 8.13667 5.48236C8.13667 6.0001 7.82266 6.42823 7.82266 6.42823V6.78499C7.87788 6.78962 7.93582 6.79527 7.99604 6.80181C7.99647 6.77089 7.99949 6.73836 8.00537 6.70505C8.03548 6.53426 8.12912 6.40802 8.21451 6.42308C8.29991 6.43813 8.34472 6.58879 8.31461 6.75958C8.30972 6.78729 8.30316 6.81384 8.29523 6.83879C8.63182 6.8847 9.00852 6.94859 9.3652 7.01425C9.50144 6.75012 9.66758 6.48916 9.82621 6.24001L9.82621 6.24C10.236 5.59628 10.5957 5.03133 10.26 4.69408C10.1959 4.62966 10.0795 4.56977 9.92939 4.51434C9.43884 4.39239 8.9049 4.29833 8.386 4.25126L8.3704 4.16638C8.2671 4.1496 8.16795 4.13397 8.07553 4.11949ZM10.5039 7.23975C10.6824 7.27738 10.7905 7.30126 10.7905 7.30126L10.7916 7.48894C11.4257 7.00216 11.8745 5.91917 11.9149 5.56471C11.9392 5.35143 11.6012 5.10556 11.0712 4.88274C11.3226 5.35912 10.9862 5.83183 10.564 6.42512C10.4053 6.64817 10.2344 6.88826 10.0781 7.15199L10.2351 7.18388C10.2337 7.13482 10.2401 7.07961 10.2553 7.02285C10.3002 6.85534 10.4045 6.73774 10.4882 6.76018C10.572 6.78262 10.6035 6.93661 10.5586 7.10413C10.5451 7.15471 10.5261 7.20075 10.5039 7.23975ZM7.23869 6.78677V6.39002C7.23869 6.39002 6.96682 6.08616 6.92468 5.45334C6.8945 5.00016 6.98806 4.46734 7.04361 4.20133C6.65692 4.25023 6.25014 4.32502 5.8541 4.41685C5.55387 4.49784 5.31212 4.59046 5.20806 4.695C4.87238 5.03225 5.23206 5.59721 5.64189 6.24093C5.79456 6.48073 5.95419 6.73147 6.08742 6.98543C6.31637 6.93592 6.5463 6.89011 6.76109 6.85361C6.75169 6.81998 6.74494 6.78326 6.74156 6.7446C6.72644 6.57184 6.78422 6.42566 6.8706 6.4181C6.95698 6.41054 7.03926 6.54447 7.05437 6.71723C7.05713 6.74874 7.05746 6.77936 7.05564 6.80842C7.11922 6.79989 7.18042 6.79261 7.23869 6.78677ZM4.90412 6.42606L4.90411 6.42605L4.90411 6.42605C4.47121 5.8177 4.12852 5.33613 4.4172 4.84739C3.7909 5.08893 3.36812 5.35172 3.3925 5.56561C3.43062 5.89999 3.83219 6.88268 4.40987 7.4016C4.44949 7.39055 4.67482 7.32802 4.99291 7.24628C4.96918 7.20887 4.94825 7.16453 4.93232 7.11552C4.87873 6.95058 4.90214 6.79515 4.98461 6.76836C5.06707 6.74156 5.17737 6.85355 5.23096 7.01848C5.24919 7.0746 5.25851 7.12962 5.25963 7.17884L5.38677 7.14749C5.23134 6.8859 5.06175 6.64758 4.90412 6.42606Z" fill="#F6C540"/>
<path fill-rule="evenodd" clip-rule="evenodd" d="M8.2939 3.79894C8.2939 4.17971 7.97758 4.48838 7.58738 4.48838C7.19718 4.48838 6.88086 4.17971 6.88086 3.79894C6.88086 3.41817 7.19718 3.1095 7.58738 3.1095C7.97758 3.1095 8.2939 3.41817 8.2939 3.79894ZM7.58272 8.91932C7.88621 8.91932 8.13224 8.77873 8.13224 8.60531C8.13224 8.43189 7.88621 8.2913 7.58272 8.2913C7.27923 8.2913 7.0332 8.43189 7.0332 8.60531C7.0332 8.77873 7.27923 8.91932 7.58272 8.91932ZM4.8382 8.83996C4.8382 8.97003 4.73276 9.07547 4.60269 9.07547C4.47263 9.07547 4.36719 8.97003 4.36719 8.83996C4.36719 8.70989 4.47263 8.60445 4.60269 8.60445C4.73276 8.60445 4.8382 8.70989 4.8382 8.83996ZM11.1181 8.83996C11.1181 8.97003 11.0127 9.07547 10.8826 9.07547C10.7526 9.07547 10.6471 8.97003 10.6471 8.83996C10.6471 8.70989 10.7526 8.60445 10.8826 8.60445C11.0127 8.60445 11.1181 8.70989 11.1181 8.83996Z" fill="#2E42A5"/>
<path fill-rule="evenodd" clip-rule="evenodd" d="M6.41654 8.68192C6.41654 8.81199 6.2408 8.91743 6.02402 8.91743C5.80725 8.91743 5.63151 8.81199 5.63151 8.68192C5.63151 8.55185 5.80725 8.44641 6.02402 8.44641C6.2408 8.44641 6.41654 8.55185 6.41654 8.68192ZM9.71732 8.68192C9.71732 8.81199 9.54158 8.91743 9.32481 8.91743C9.10803 8.91743 8.93229 8.81199 8.93229 8.68192C8.93229 8.55185 9.10803 8.44641 9.32481 8.44641C9.54158 8.44641 9.71732 8.55185 9.71732 8.68192Z" fill="#C5363C"/>
<path fill-rule="evenodd" clip-rule="evenodd" d="M8.91883 6.71971C8.91883 6.89313 8.84853 7.03372 8.76182 7.03372C8.67511 7.03372 8.60482 6.89313 8.60482 6.71971C8.60482 6.54629 8.67511 6.4057 8.76182 6.4057C8.84853 6.4057 8.91883 6.54629 8.91883 6.71971ZM6.55453 6.67078C6.60812 6.83572 6.58471 6.99115 6.50224 7.01794C6.41978 7.04474 6.30948 6.93275 6.25589 6.76782C6.2023 6.60288 6.22571 6.44746 6.30818 6.42066C6.39064 6.39386 6.50094 6.50585 6.55453 6.67078ZM4.70797 7.52152C4.79044 7.49473 4.81385 7.3393 4.76026 7.17436C4.70667 7.00943 4.59637 6.89745 4.5139 6.92424C4.43144 6.95104 4.40803 7.10646 4.46162 7.2714C4.51521 7.43633 4.62551 7.54832 4.70797 7.52152ZM10.9222 7.31024C10.8303 7.45731 10.6961 7.53928 10.6226 7.49333C10.5491 7.44738 10.564 7.29091 10.6559 7.14384C10.7478 6.99677 10.8819 6.91479 10.9554 6.96074C11.0289 7.00669 11.0141 7.16317 10.9222 7.31024Z" fill="#F7FCFF"/>
<path fill-rule="evenodd" clip-rule="evenodd" d="M6.26047 4.11096C6.30376 4.14166 6.35666 4.1597 6.41378 4.1597C6.56032 4.1597 6.67911 4.04091 6.67911 3.89437C6.67911 3.74782 6.56032 3.62903 6.41378 3.62903C6.31097 3.62903 6.22182 3.68749 6.17776 3.77299C6.13447 3.74229 6.08157 3.72424 6.02445 3.72424C5.92941 3.72424 5.84603 3.77422 5.79917 3.84933C5.75278 3.8096 5.69253 3.7856 5.62667 3.7856C5.48012 3.7856 5.36133 3.9044 5.36133 4.05094C5.36133 4.0566 5.36151 4.06221 5.36185 4.06778C5.3132 4.01158 5.24134 3.97603 5.16117 3.97603C5.02684 3.97603 4.91583 4.07585 4.89826 4.20536C4.84978 4.14185 4.77328 4.10087 4.68721 4.10087C4.56003 4.10087 4.45375 4.19035 4.42788 4.3098C4.38421 4.27819 4.33053 4.25956 4.2725 4.25956C4.15466 4.25956 4.05476 4.33638 4.02015 4.44267C3.9841 4.42435 3.94331 4.41402 3.9001 4.41402C3.76945 4.41402 3.66085 4.50846 3.63884 4.6328C3.62206 4.62947 3.60471 4.62773 3.58695 4.62773C3.44138 4.62773 3.32319 4.74496 3.32163 4.89016C3.30612 4.88734 3.29013 4.88586 3.2738 4.88586C3.12726 4.88586 3.00846 5.00466 3.00846 5.1512C3.00846 5.1694 3.0103 5.18717 3.01378 5.20434C2.99662 5.20085 2.97885 5.19902 2.96065 5.19902C2.81411 5.19902 2.69531 5.31781 2.69531 5.46435C2.69531 5.57693 2.76542 5.67313 2.86435 5.71168C2.85898 5.73272 2.85612 5.75478 2.85612 5.7775C2.85612 5.88735 2.92287 5.98161 3.01803 6.02193C3.01179 6.04448 3.00846 6.06824 3.00846 6.09277C3.00846 6.23655 3.12282 6.35362 3.26555 6.35798C3.20674 6.40665 3.16927 6.4802 3.16927 6.5625C3.16927 6.70904 3.28807 6.82784 3.43461 6.82784C3.58115 6.82784 3.69995 6.70904 3.69995 6.5625C3.69995 6.41872 3.58559 6.30165 3.44286 6.29729C3.50167 6.24862 3.53914 6.17507 3.53914 6.09277C3.53914 5.98292 3.47239 5.88866 3.37723 5.84835C3.38347 5.8258 3.3868 5.80204 3.3868 5.7775C3.3868 5.66493 3.31669 5.56873 3.21776 5.53018C3.22313 5.50913 3.22599 5.48708 3.22599 5.46435C3.22599 5.44616 3.22416 5.42839 3.22067 5.41122C3.23783 5.41471 3.2556 5.41654 3.2738 5.41654C3.41938 5.41654 3.53757 5.29931 3.53912 5.1541C3.55464 5.15693 3.57062 5.1584 3.58695 5.1584C3.71761 5.1584 3.82621 5.06397 3.84822 4.93963C3.865 4.94295 3.88235 4.9447 3.9001 4.9447C4.01794 4.9447 4.11784 4.86788 4.15245 4.76159C4.1885 4.77991 4.22929 4.79024 4.2725 4.79024C4.33089 4.79024 4.38488 4.77138 4.4287 4.73941C4.43689 4.77483 4.45218 4.80753 4.47297 4.83594C4.44084 4.87982 4.42188 4.93395 4.42188 4.99251C4.42188 5.13713 4.53758 5.25473 4.68147 5.25779C4.62122 5.30643 4.58268 5.38089 4.58268 5.46435C4.58268 5.574 4.64919 5.66812 4.74407 5.70856C4.73817 5.73054 4.73503 5.75366 4.73503 5.7775C4.73503 5.89027 4.80537 5.9866 4.90456 6.02502C4.89887 6.04665 4.89583 6.06936 4.89583 6.09277C4.89583 6.23931 5.01463 6.35811 5.16117 6.35811C5.30771 6.35811 5.42651 6.23931 5.42651 6.09277C5.42651 5.98001 5.35617 5.88368 5.25697 5.84526C5.26267 5.82363 5.2657 5.80092 5.2657 5.7775C5.2657 5.66785 5.19919 5.57374 5.10431 5.5333C5.11021 5.51131 5.11336 5.4882 5.11336 5.46435C5.11336 5.31973 4.99766 5.20213 4.85377 5.19908C4.91402 5.15044 4.95255 5.07597 4.95255 4.99251C4.95255 4.93395 4.93358 4.87982 4.90145 4.83594C4.93358 4.79205 4.95255 4.73792 4.95255 4.67936C4.95255 4.6208 4.93358 4.56667 4.90145 4.52278C4.92688 4.48805 4.94407 4.4469 4.95013 4.40222C4.99861 4.46573 5.0751 4.50671 5.16117 4.50671C5.30771 4.50671 5.42651 4.38791 5.42651 4.24137C5.42651 4.23571 5.42633 4.2301 5.42598 4.22453C5.47464 4.28073 5.5465 4.31628 5.62667 4.31628C5.72171 4.31628 5.80509 4.2663 5.85195 4.1912C5.89833 4.23092 5.95859 4.25492 6.02445 4.25492C6.12726 4.25492 6.21641 4.19645 6.26047 4.11096ZM4.70185 4.63115C4.78381 4.62669 4.85587 4.58504 4.90145 4.52278C4.85318 4.45684 4.7752 4.41402 4.68721 4.41402C4.62882 4.41402 4.57483 4.43288 4.53101 4.46485C4.51634 4.40145 4.47895 4.34675 4.42788 4.3098C4.42395 4.32798 4.42188 4.34685 4.42188 4.36621C4.42188 4.42477 4.44085 4.4789 4.47297 4.52278C4.44085 4.56667 4.42188 4.6208 4.42188 4.67936C4.42188 4.70001 4.42423 4.72012 4.4287 4.73941C4.48032 4.70176 4.51784 4.64592 4.53183 4.58131C4.57327 4.6113 4.62371 4.6296 4.67833 4.6314C4.65739 4.63684 4.64193 4.65587 4.64193 4.67851C4.64193 4.70539 4.66372 4.72719 4.6906 4.72719C4.71748 4.72719 4.73927 4.70539 4.73927 4.67851C4.73927 4.65551 4.72331 4.63623 4.70185 4.63115ZM4.70185 4.63115C4.69824 4.63029 4.69447 4.62984 4.6906 4.62984C4.68636 4.62984 4.68225 4.63038 4.67833 4.6314L4.68721 4.63155C4.69213 4.63155 4.69701 4.63141 4.70185 4.63115ZM4.53183 4.58131C4.50929 4.565 4.48941 4.54523 4.47297 4.52278C4.48921 4.50061 4.50881 4.48105 4.53101 4.46485C4.53548 4.48414 4.53784 4.50425 4.53784 4.5249C4.53784 4.54426 4.53576 4.56313 4.53183 4.58131ZM5.25697 5.84526C5.22726 5.83375 5.19495 5.82743 5.16117 5.82743C5.03805 5.82743 4.93451 5.9113 4.90456 6.02502C4.93428 6.03653 4.96658 6.04284 5.00036 6.04284C5.12349 6.04284 5.22703 5.95898 5.25697 5.84526ZM5.10431 5.5333C5.07239 5.5197 5.03726 5.51217 5.00036 5.51217C4.87767 5.51217 4.77443 5.59544 4.74407 5.70856C4.77599 5.72216 4.81113 5.72969 4.84802 5.72969C4.97071 5.72969 5.07396 5.64641 5.10431 5.5333ZM4.85377 5.19908L4.84802 5.19902C4.78494 5.19902 4.727 5.22103 4.68147 5.25779L4.68721 5.25785C4.75029 5.25785 4.80823 5.23584 4.85377 5.19908ZM4.90145 4.83594C4.85318 4.77 4.7752 4.72717 4.68721 4.72717C4.59923 4.72717 4.52125 4.77 4.47297 4.83594C4.52125 4.90188 4.59923 4.9447 4.68721 4.9447C4.7752 4.9447 4.85318 4.90188 4.90145 4.83594ZM3.44286 6.29729L3.43461 6.29716C3.37037 6.29716 3.31145 6.31999 3.26555 6.35798L3.2738 6.35811C3.33805 6.35811 3.39696 6.33528 3.44286 6.29729ZM3.37723 5.84835C3.34624 5.9605 3.24347 6.04284 3.12146 6.04284C3.08476 6.04284 3.04981 6.03539 3.01803 6.02193C3.04902 5.90978 3.15179 5.82743 3.2738 5.82743C3.3105 5.82743 3.34545 5.83488 3.37723 5.84835ZM3.21776 5.53018C3.18848 5.64488 3.08447 5.72969 2.96065 5.72969C2.92668 5.72969 2.8942 5.72331 2.86435 5.71168C2.89363 5.59698 2.99764 5.51217 3.12146 5.51217C3.15543 5.51217 3.18791 5.51855 3.21776 5.53018ZM3.01378 5.20434C3.03491 5.30825 3.11675 5.3901 3.22067 5.41122C3.19955 5.30731 3.1177 5.22546 3.01378 5.20434ZM3.53912 5.1541C3.41541 5.13158 3.32161 5.02328 3.32161 4.89306L3.32163 4.89016C3.44534 4.91268 3.53914 5.02099 3.53914 5.1512L3.53912 5.1541ZM3.84822 4.93963C3.72652 4.9155 3.63477 4.80815 3.63477 4.67936C3.63477 4.66347 3.63616 4.64791 3.63884 4.6328C3.76054 4.65692 3.85229 4.76428 3.85229 4.89306C3.85229 4.90895 3.8509 4.92451 3.84822 4.93963ZM4.15245 4.76159C4.06623 4.71778 4.00716 4.62824 4.00716 4.5249C4.00716 4.4962 4.01172 4.46856 4.02015 4.44267C4.10637 4.48648 4.16544 4.57602 4.16544 4.67936C4.16544 4.70806 4.16088 4.7357 4.15245 4.76159ZM4.95013 4.40222C4.91606 4.3576 4.89583 4.30185 4.89583 4.24137C4.89583 4.22916 4.89666 4.21714 4.89826 4.20536C4.93232 4.24998 4.95255 4.30573 4.95255 4.36621C4.95255 4.37842 4.95173 4.39044 4.95013 4.40222ZM5.36185 4.06778C5.3656 4.12756 5.38913 4.18197 5.42598 4.22453C5.42224 4.16476 5.3987 4.11035 5.36185 4.06778ZM5.85195 4.1912C5.79512 4.14253 5.75911 4.07026 5.75911 3.98958C5.75911 3.93809 5.77378 3.89002 5.79917 3.84933C5.85599 3.89799 5.892 3.97026 5.892 4.05094C5.892 4.10244 5.87734 4.15051 5.85195 4.1912ZM6.26047 4.11096C6.19268 4.06289 6.14844 3.98379 6.14844 3.89437C6.14844 3.85063 6.15902 3.80936 6.17776 3.77299C6.24555 3.82106 6.28979 3.90015 6.28979 3.98958C6.28979 4.03332 6.27921 4.07458 6.26047 4.11096ZM3.59034 4.94301C3.61722 4.94301 3.63901 4.92121 3.63901 4.89433C3.63901 4.86745 3.61722 4.84566 3.59034 4.84566C3.56346 4.84566 3.54167 4.86745 3.54167 4.89433C3.54167 4.92121 3.56346 4.94301 3.59034 4.94301ZM3.27719 5.19903C3.30407 5.19903 3.32586 5.17724 3.32586 5.15036C3.32586 5.12348 3.30407 5.10168 3.27719 5.10168C3.25031 5.10168 3.22852 5.12348 3.22852 5.15036C3.22852 5.17724 3.25031 5.19903 3.27719 5.19903ZM2.96404 5.51218C2.99092 5.51218 3.01271 5.49039 3.01271 5.46351C3.01271 5.43663 2.99092 5.41484 2.96404 5.41484C2.93716 5.41484 2.91536 5.43663 2.91536 5.46351C2.91536 5.49039 2.93716 5.51218 2.96404 5.51218ZM3.11638 5.82745C3.14326 5.82745 3.16505 5.80565 3.16505 5.77877C3.16505 5.75189 3.14326 5.7301 3.11638 5.7301C3.0895 5.7301 3.06771 5.75189 3.06771 5.77877C3.06771 5.80565 3.0895 5.82745 3.11638 5.82745ZM3.27719 6.1406C3.30407 6.1406 3.32586 6.11881 3.32586 6.09193C3.32586 6.06504 3.30407 6.04325 3.27719 6.04325C3.25031 6.04325 3.22852 6.06504 3.22852 6.09193C3.22852 6.11881 3.25031 6.1406 3.27719 6.1406ZM3.4782 6.56377C3.4782 6.59065 3.45641 6.61244 3.42953 6.61244C3.40265 6.61244 3.38086 6.59065 3.38086 6.56377C3.38086 6.53689 3.40265 6.5151 3.42953 6.5151C3.45641 6.5151 3.4782 6.53689 3.4782 6.56377ZM3.90349 4.72719C3.93037 4.72719 3.95216 4.70539 3.95216 4.67851C3.95216 4.65163 3.93037 4.62984 3.90349 4.62984C3.87661 4.62984 3.85482 4.65163 3.85482 4.67851C3.85482 4.70539 3.87661 4.72719 3.90349 4.72719ZM4.27588 4.57273C4.30277 4.57273 4.32456 4.55093 4.32456 4.52405C4.32456 4.49717 4.30277 4.47538 4.27588 4.47538C4.249 4.47538 4.22721 4.49717 4.22721 4.52405C4.22721 4.55093 4.249 4.57273 4.27588 4.57273ZM4.6906 4.41403C4.71748 4.41403 4.73927 4.39224 4.73927 4.36536C4.73927 4.33848 4.71748 4.31669 4.6906 4.31669C4.66372 4.31669 4.64193 4.33848 4.64193 4.36536C4.64193 4.39224 4.66372 4.41403 4.6906 4.41403ZM5.15609 4.29131C5.18297 4.29131 5.20476 4.26952 5.20476 4.24264C5.20476 4.21576 5.18297 4.19397 5.15609 4.19397C5.12921 4.19397 5.10742 4.21576 5.10742 4.24264C5.10742 4.26952 5.12921 4.29131 5.15609 4.29131ZM5.63005 4.10088C5.65693 4.10088 5.67872 4.07909 5.67872 4.05221C5.67872 4.02533 5.65693 4.00354 5.63005 4.00354C5.60317 4.00354 5.58138 4.02533 5.58138 4.05221C5.58138 4.07909 5.60317 4.10088 5.63005 4.10088ZM6.01937 4.03952C6.04626 4.03952 6.06805 4.01773 6.06805 3.99085C6.06805 3.96397 6.04626 3.94218 6.01937 3.94218C5.99249 3.94218 5.9707 3.96397 5.9707 3.99085C5.9707 4.01773 5.99249 4.03952 6.01937 4.03952ZM6.41716 3.94219C6.44404 3.94219 6.46583 3.9204 6.46583 3.89352C6.46583 3.86664 6.44404 3.84485 6.41716 3.84485C6.39028 3.84485 6.36849 3.86664 6.36849 3.89352C6.36849 3.9204 6.39028 3.94219 6.41716 3.94219ZM4.6906 5.04245C4.71748 5.04245 4.73927 5.02066 4.73927 4.99378C4.73927 4.9669 4.71748 4.94511 4.6906 4.94511C4.66372 4.94511 4.64193 4.9669 4.64193 4.99378C4.64193 5.02066 4.66372 5.04245 4.6906 5.04245ZM4.84294 5.51218C4.86982 5.51218 4.89161 5.49039 4.89161 5.46351C4.89161 5.43663 4.86982 5.41484 4.84294 5.41484C4.81606 5.41484 4.79427 5.43663 4.79427 5.46351C4.79427 5.49039 4.81606 5.51218 4.84294 5.51218ZM5.00375 5.82745C5.03063 5.82745 5.05242 5.80565 5.05242 5.77877C5.05242 5.75189 5.03063 5.7301 5.00375 5.7301C4.97687 5.7301 4.95508 5.75189 4.95508 5.77877C4.95508 5.80565 4.97687 5.82745 5.00375 5.82745ZM5.15609 6.1406C5.18297 6.1406 5.20476 6.11881 5.20476 6.09193C5.20476 6.06504 5.18297 6.04325 5.15609 6.04325C5.12921 6.04325 5.10742 6.06504 5.10742 6.09193C5.10742 6.11881 5.12921 6.1406 5.15609 6.1406ZM12.0708 6.61244C12.0977 6.61244 12.1195 6.59065 12.1195 6.56377C12.1195 6.53689 12.0977 6.5151 12.0708 6.5151C12.0439 6.5151 12.0221 6.53689 12.0221 6.56377C12.0221 6.59065 12.0439 6.61244 12.0708 6.61244ZM11.8021 6.5625C11.8021 6.70904 11.9209 6.82784 12.0674 6.82784C12.214 6.82784 12.3328 6.70904 12.3328 6.5625C12.3328 6.47999 12.2951 6.40628 12.236 6.35762C12.375 6.34921 12.4851 6.23385 12.4851 6.09277C12.4851 6.06935 12.4821 6.04664 12.4764 6.02502C12.5756 5.9866 12.6459 5.89027 12.6459 5.7775C12.6459 5.75478 12.6431 5.73272 12.6377 5.71167C12.7366 5.67312 12.8067 5.57693 12.8067 5.46435C12.8067 5.31781 12.6879 5.19902 12.5414 5.19902C12.52 5.19902 12.4993 5.20154 12.4794 5.2063C12.4831 5.18852 12.4851 5.1701 12.4851 5.1512C12.4851 5.00466 12.3663 4.88586 12.2198 4.88586C12.2034 4.88586 12.1874 4.88734 12.1719 4.89016C12.1704 4.74496 12.0522 4.62773 11.9066 4.62773C11.8889 4.62773 11.8715 4.62947 11.8547 4.6328C11.8327 4.50846 11.7241 4.41402 11.5935 4.41402C11.5503 4.41402 11.5095 4.42435 11.4734 4.44267C11.4388 4.33638 11.3389 4.25956 11.2211 4.25956C11.1662 4.25956 11.1153 4.2762 11.073 4.3047C11.0452 4.18782 10.9402 4.10087 10.8148 4.10087C10.7287 4.10087 10.6523 4.14185 10.6038 4.20536C10.5862 4.07585 10.4752 3.97603 10.3409 3.97603C10.2553 3.97603 10.1793 4.01649 10.1307 4.07932C10.1317 4.07 10.1322 4.06053 10.1322 4.05094C10.1322 3.9044 10.0134 3.7856 9.8669 3.7856C9.80362 3.7856 9.74552 3.80775 9.69992 3.84472C9.65256 3.77218 9.57067 3.72424 9.47758 3.72424C9.41771 3.72424 9.36248 3.74407 9.31808 3.77751C9.27487 3.68956 9.1844 3.62903 9.07979 3.62903C8.93325 3.62903 8.81445 3.74782 8.81445 3.89437C8.81445 4.04091 8.93325 4.1597 9.07979 4.1597C9.13966 4.1597 9.19489 4.13988 9.23929 4.10643C9.2825 4.19438 9.37297 4.25492 9.47758 4.25492C9.54085 4.25492 9.59896 4.23277 9.64456 4.1958C9.69191 4.26834 9.77381 4.31628 9.8669 4.31628C9.95242 4.31628 10.0285 4.27582 10.077 4.21299C10.076 4.22232 10.0755 4.23179 10.0755 4.24137C10.0755 4.38791 10.1943 4.50671 10.3409 4.50671C10.4269 4.50671 10.5034 4.46573 10.5519 4.40222C10.558 4.4469 10.5752 4.48805 10.6006 4.52279C10.5685 4.56667 10.5495 4.6208 10.5495 4.67936C10.5495 4.73792 10.5684 4.79205 10.6006 4.83594C10.5684 4.87982 10.5495 4.93395 10.5495 4.99251C10.5495 5.07597 10.588 5.15044 10.6483 5.19908C10.5044 5.20213 10.3887 5.31973 10.3887 5.46435C10.3887 5.48708 10.3915 5.50913 10.3969 5.53018C10.298 5.56873 10.2279 5.66493 10.2279 5.7775C10.2279 5.80204 10.2312 5.8258 10.2374 5.84835C10.1423 5.88866 10.0755 5.98292 10.0755 6.09277C10.0755 6.23931 10.1943 6.35811 10.3409 6.35811C10.4874 6.35811 10.6062 6.23931 10.6062 6.09277C10.6062 6.06824 10.6029 6.04448 10.5966 6.02193C10.6918 5.98161 10.7585 5.88735 10.7585 5.7775C10.7585 5.75478 10.7557 5.73273 10.7503 5.71168C10.8492 5.67313 10.9193 5.57693 10.9193 5.46435C10.9193 5.38089 10.8808 5.30643 10.8206 5.25779C10.9644 5.25473 11.0802 5.13713 11.0802 4.99251C11.0802 4.93395 11.0612 4.87982 11.0291 4.83594C11.0489 4.80889 11.0637 4.77796 11.0721 4.74451C11.1146 4.77337 11.1658 4.79024 11.2211 4.79024C11.2643 4.79024 11.3051 4.77991 11.3411 4.76159C11.3757 4.86788 11.4756 4.9447 11.5935 4.9447C11.6112 4.9447 11.6286 4.94295 11.6453 4.93962C11.6674 5.06396 11.776 5.1584 11.9066 5.1584C11.9229 5.1584 11.9389 5.15692 11.9544 5.1541C11.956 5.29931 12.0742 5.41654 12.2198 5.41654C12.2411 5.41654 12.2619 5.41401 12.2818 5.40925C12.278 5.42703 12.276 5.44546 12.276 5.46435C12.276 5.48708 12.2789 5.50913 12.2843 5.53018C12.1853 5.56873 12.1152 5.66493 12.1152 5.7775C12.1152 5.80092 12.1183 5.82363 12.124 5.84526C12.0248 5.88368 11.9544 5.98001 11.9544 6.09277C11.9544 6.17528 11.9921 6.24899 12.0511 6.29765C11.9122 6.30606 11.8021 6.42142 11.8021 6.5625ZM10.9629 4.58641C10.9784 4.65181 11.0182 4.70784 11.0721 4.74451C11.0774 4.72366 11.0802 4.70184 11.0802 4.67936C11.0802 4.6208 11.0612 4.56667 11.0291 4.52278C11.0612 4.4789 11.0802 4.42477 11.0802 4.36621C11.0802 4.34503 11.0777 4.32444 11.073 4.3047C11.0196 4.34067 10.98 4.39556 10.9638 4.45976C10.9213 4.43089 10.87 4.41402 10.8148 4.41402C10.7268 4.41402 10.6489 4.45685 10.6006 4.52279C10.6459 4.5847 10.7174 4.62623 10.7988 4.63107C10.7772 4.63603 10.7611 4.65539 10.7611 4.67851C10.7611 4.70539 10.7829 4.72719 10.8097 4.72719C10.8366 4.72719 10.8584 4.70539 10.8584 4.67851C10.8584 4.65593 10.843 4.63694 10.8222 4.63145C10.8742 4.63003 10.9225 4.61363 10.9629 4.58641ZM10.9629 4.58641C10.9885 4.56919 11.0109 4.54763 11.0291 4.52278C11.0111 4.49823 10.989 4.47688 10.9638 4.45976C10.9585 4.4806 10.9557 4.50242 10.9557 4.5249C10.9557 4.54608 10.9582 4.56667 10.9629 4.58641ZM10.8222 4.63145L10.8148 4.63155C10.8094 4.63155 10.8041 4.63139 10.7988 4.63107C10.8023 4.63027 10.806 4.62984 10.8097 4.62984C10.814 4.62984 10.8182 4.6304 10.8222 4.63145ZM10.5966 6.02193C10.5656 5.90978 10.4629 5.82743 10.3409 5.82743C10.3042 5.82743 10.2692 5.83488 10.2374 5.84835C10.2684 5.9605 10.3712 6.04284 10.4932 6.04284C10.5299 6.04284 10.5648 6.03539 10.5966 6.02193ZM10.7503 5.71168C10.721 5.59698 10.617 5.51217 10.4932 5.51217C10.4592 5.51217 10.4268 5.51855 10.3969 5.53018C10.4262 5.64488 10.5302 5.72969 10.654 5.72969C10.688 5.72969 10.7205 5.72331 10.7503 5.71168ZM10.8206 5.25779C10.775 5.22103 10.7171 5.19902 10.654 5.19902L10.6483 5.19908C10.6938 5.23584 10.7517 5.25785 10.8148 5.25785L10.8206 5.25779ZM11.0291 4.83594C10.9808 4.77 10.9028 4.72717 10.8148 4.72717C10.7268 4.72717 10.6489 4.77 10.6006 4.83594C10.6489 4.90188 10.7268 4.9447 10.8148 4.9447C10.9028 4.9447 10.9808 4.90188 11.0291 4.83594ZM9.23929 4.10643C9.30357 4.05801 9.34513 3.98104 9.34513 3.89437C9.34513 3.85243 9.3354 3.81277 9.31808 3.77751C9.2538 3.82594 9.21224 3.9029 9.21224 3.98958C9.21224 4.03152 9.22197 4.07118 9.23929 4.10643ZM9.64456 4.1958C9.70456 4.14715 9.74292 4.07285 9.74292 3.98958C9.74292 3.93613 9.72711 3.88637 9.69992 3.84472C9.63992 3.89337 9.60156 3.96768 9.60156 4.05094C9.60156 4.10439 9.61737 4.15415 9.64456 4.1958ZM10.1307 4.07932C10.1254 4.12934 10.1062 4.17521 10.077 4.21299C10.0823 4.16297 10.1016 4.1171 10.1307 4.07932ZM10.5519 4.40222C10.586 4.3576 10.6062 4.30185 10.6062 4.24137C10.6062 4.22916 10.6054 4.21714 10.6038 4.20536C10.5697 4.24999 10.5495 4.30573 10.5495 4.36621C10.5495 4.37842 10.5503 4.39044 10.5519 4.40222ZM11.3411 4.76159C11.4273 4.71777 11.4864 4.62824 11.4864 4.5249C11.4864 4.4962 11.4818 4.46856 11.4734 4.44267C11.3872 4.48648 11.3281 4.57602 11.3281 4.67936C11.3281 4.70806 11.3327 4.7357 11.3411 4.76159ZM11.6453 4.93962C11.767 4.9155 11.8588 4.80814 11.8588 4.67936C11.8588 4.66348 11.8574 4.64791 11.8547 4.6328C11.733 4.65692 11.6413 4.76428 11.6413 4.89306C11.6413 4.90895 11.6427 4.92451 11.6453 4.93962ZM12.2818 5.40925C12.3808 5.38554 12.4582 5.30631 12.4794 5.2063C12.3803 5.23001 12.3029 5.30924 12.2818 5.40925ZM12.1719 4.89016L12.172 4.89306C12.172 5.02328 12.0782 5.13158 11.9544 5.1541L11.9544 5.1512C11.9544 5.02099 12.0482 4.91269 12.1719 4.89016ZM12.2843 5.53018C12.3141 5.51855 12.3466 5.51217 12.3806 5.51217C12.5044 5.51217 12.6084 5.59697 12.6377 5.71167C12.6078 5.7233 12.5753 5.72969 12.5414 5.72969C12.4176 5.72969 12.3136 5.64488 12.2843 5.53018ZM12.124 5.84526C12.1537 5.83375 12.186 5.82743 12.2198 5.82743C12.3429 5.82743 12.4464 5.9113 12.4764 6.02502C12.4467 6.03652 12.4144 6.04284 12.3806 6.04284C12.2574 6.04284 12.1539 5.95898 12.124 5.84526ZM12.2198 6.35811C12.1557 6.35811 12.097 6.33542 12.0511 6.29765C12.0565 6.29733 12.062 6.29716 12.0674 6.29716C12.1315 6.29716 12.1902 6.31984 12.236 6.35762C12.2307 6.35794 12.2252 6.35811 12.2198 6.35811ZM12.2232 6.1406C12.25 6.1406 12.2718 6.11881 12.2718 6.09193C12.2718 6.06504 12.25 6.04325 12.2232 6.04325C12.1963 6.04325 12.1745 6.06504 12.1745 6.09193C12.1745 6.11881 12.1963 6.1406 12.2232 6.1406ZM12.384 5.82745C12.4108 5.82745 12.4326 5.80565 12.4326 5.77877C12.4326 5.75189 12.4108 5.7301 12.384 5.7301C12.3571 5.7301 12.3353 5.75189 12.3353 5.77877C12.3353 5.80565 12.3571 5.82745 12.384 5.82745ZM12.5363 5.51218C12.5632 5.51218 12.585 5.49039 12.585 5.46351C12.585 5.43663 12.5632 5.41484 12.5363 5.41484C12.5094 5.41484 12.4876 5.43663 12.4876 5.46351C12.4876 5.49039 12.5094 5.51218 12.5363 5.51218ZM12.2232 5.19903C12.25 5.19903 12.2718 5.17724 12.2718 5.15036C12.2718 5.12348 12.25 5.10168 12.2232 5.10168C12.1963 5.10168 12.1745 5.12348 12.1745 5.15036C12.1745 5.17724 12.1963 5.19903 12.2232 5.19903ZM11.91 4.94301C11.9369 4.94301 11.9587 4.92121 11.9587 4.89433C11.9587 4.86745 11.9369 4.84566 11.91 4.84566C11.8831 4.84566 11.8613 4.86745 11.8613 4.89433C11.8613 4.92121 11.8831 4.94301 11.91 4.94301ZM11.5968 4.72719C11.6237 4.72719 11.6455 4.70539 11.6455 4.67851C11.6455 4.65163 11.6237 4.62984 11.5968 4.62984C11.57 4.62984 11.5482 4.65163 11.5482 4.67851C11.5482 4.70539 11.57 4.72719 11.5968 4.72719ZM11.2245 4.57273C11.2513 4.57273 11.2731 4.55093 11.2731 4.52405C11.2731 4.49717 11.2513 4.47538 11.2245 4.47538C11.1976 4.47538 11.1758 4.49717 11.1758 4.52405C11.1758 4.55093 11.1976 4.57273 11.2245 4.57273ZM10.8097 4.41403C10.8366 4.41403 10.8584 4.39224 10.8584 4.36536C10.8584 4.33848 10.8366 4.31669 10.8097 4.31669C10.7829 4.31669 10.7611 4.33848 10.7611 4.36536C10.7611 4.39224 10.7829 4.41403 10.8097 4.41403ZM10.3358 4.29131C10.3627 4.29131 10.3845 4.26952 10.3845 4.24264C10.3845 4.21576 10.3627 4.19397 10.3358 4.19397C10.3089 4.19397 10.2871 4.21576 10.2871 4.24264C10.2871 4.26952 10.3089 4.29131 10.3358 4.29131ZM9.87029 4.10088C9.89717 4.10088 9.91896 4.07909 9.91896 4.05221C9.91896 4.02533 9.89717 4.00354 9.87029 4.00354C9.84341 4.00354 9.82161 4.02533 9.82161 4.05221C9.82161 4.07909 9.84341 4.10088 9.87029 4.10088ZM9.48096 4.03952C9.50784 4.03952 9.52963 4.01773 9.52963 3.99085C9.52963 3.96397 9.50784 3.94218 9.48096 3.94218C9.45408 3.94218 9.43229 3.96397 9.43229 3.99085C9.43229 4.01773 9.45408 4.03952 9.48096 4.03952ZM9.08318 3.94219C9.11006 3.94219 9.13185 3.9204 9.13185 3.89352C9.13185 3.86664 9.11006 3.84485 9.08318 3.84485C9.0563 3.84485 9.0345 3.86664 9.0345 3.89352C9.0345 3.9204 9.0563 3.94219 9.08318 3.94219ZM10.8097 5.04245C10.8366 5.04245 10.8584 5.02066 10.8584 4.99378C10.8584 4.9669 10.8366 4.94511 10.8097 4.94511C10.7829 4.94511 10.7611 4.9669 10.7611 4.99378C10.7611 5.02066 10.7829 5.04245 10.8097 5.04245ZM10.6574 5.51218C10.6843 5.51218 10.7061 5.49039 10.7061 5.46351C10.7061 5.43663 10.6843 5.41484 10.6574 5.41484C10.6305 5.41484 10.6087 5.43663 10.6087 5.46351C10.6087 5.49039 10.6305 5.51218 10.6574 5.51218ZM10.4966 5.82745C10.5235 5.82745 10.5453 5.80565 10.5453 5.77877C10.5453 5.75189 10.5235 5.7301 10.4966 5.7301C10.4697 5.7301 10.4479 5.75189 10.4479 5.77877C10.4479 5.80565 10.4697 5.82745 10.4966 5.82745ZM10.3358 6.1406C10.3627 6.1406 10.3845 6.11881 10.3845 6.09193C10.3845 6.06504 10.3627 6.04325 10.3358 6.04325C10.3089 6.04325 10.2871 6.06504 10.2871 6.09193C10.2871 6.11881 10.3089 6.1406 10.3358 6.1406Z" fill="white"/>
<path fill-rule="evenodd" clip-rule="evenodd" d="M7.69582 2.33483L7.46308 2.33864L7.46347 2.71992L7.03863 2.71968L7.04375 2.95193L7.46372 2.95216L7.46417 3.38944L7.69691 3.38563L7.69646 2.95229L8.12379 2.95253L8.11867 2.72029L7.69622 2.72005L7.69582 2.33483Z" fill="#F6C540"/>
<path fill-rule="evenodd" clip-rule="evenodd" d="M1.93229 9.46143H13.199V19.031C13.199 19.031 12.8582 23.7978 7.56563 23.7978C2.27301 23.7978 1.93229 19.031 1.93229 19.031V9.46143Z" fill="#C51918"/>
<path fill-rule="evenodd" clip-rule="evenodd" d="M5.33314 9.79248C5.22983 9.79248 5.0708 9.86668 4.85999 9.9507C4.64918 10.0347 4.4278 10.2161 4.64389 10.3978C4.85999 10.5795 5.16934 10.9783 5.16934 10.8292C5.16934 10.6801 5.53889 10.5355 5.53889 10.6078C5.53889 10.6801 5.42448 10.8292 5.7246 10.8292C6.02471 10.8292 6.17933 10.9179 5.85911 10.9179C5.53889 10.9179 5.5041 11.0644 5.29599 11.0644C5.08788 11.0644 4.64389 10.9168 4.64389 10.8292C4.64389 10.7416 4.90101 11.2597 5.16934 11.2597C5.43767 11.2597 5.59009 11.5118 5.7246 11.3857C5.85911 11.2597 5.84319 11.2597 6.06051 11.2597C6.27782 11.2597 6.19851 10.7507 6.19851 10.7507C6.19851 10.7507 5.43645 9.79248 5.33314 9.79248Z" fill="#E8AA00"/>
<path fill-rule="evenodd" clip-rule="evenodd" d="M9.68509 9.79248C9.7884 9.79248 9.94743 9.86668 10.1582 9.9507C10.369 10.0347 10.5904 10.2161 10.3743 10.3978C10.1582 10.5795 9.84889 10.9783 9.84889 10.8292C9.84889 10.6801 9.47934 10.5355 9.47934 10.6078C9.47934 10.6801 9.59375 10.8292 9.29363 10.8292C8.99352 10.8292 8.8389 10.9179 9.15912 10.9179C9.47934 10.9179 9.51413 11.0644 9.72224 11.0644C9.93035 11.0644 10.3743 10.9168 10.3743 10.8292C10.3743 10.7416 10.1172 11.2597 9.84889 11.2597C9.58056 11.2597 9.42815 11.5118 9.29363 11.3857C9.15912 11.2597 9.17504 11.2597 8.95772 11.2597C8.74041 11.2597 8.81972 10.7507 8.81972 10.7507C8.81972 10.7507 9.58178 9.79248 9.68509 9.79248Z" fill="#E8AA00"/>
<path fill-rule="evenodd" clip-rule="evenodd" d="M11.0625 10.8326C11.2785 11.3362 9.62324 13.2073 9.62324 13.2073H9.4379C9.36002 13.2073 9.21516 13.0156 9.04025 12.7842C8.92038 12.6256 8.78639 12.4484 8.65017 12.3013C8.39391 12.0247 8.52972 11.7923 8.65633 11.5757C8.69522 11.5092 8.73324 11.4441 8.75876 11.3797C8.81405 11.2402 8.82192 11.1846 8.8309 11.121C8.83957 11.0597 8.84928 10.991 8.90356 10.8326C8.98334 10.5998 9.26146 10.2995 9.45432 10.0913C9.52878 10.0109 9.59053 9.94421 9.62324 9.90045C9.72649 9.76232 9.64816 9.76312 9.43263 9.76533C9.40305 9.76563 9.3709 9.76596 9.33628 9.76596C9.04931 9.76596 8.50112 9.90045 8.33727 10.0575C8.17341 10.2146 8.00159 10.2481 7.74912 10.2481C7.49665 10.2481 7.65238 10.4181 7.8823 10.533C7.63384 10.5805 7.47488 10.996 7.38177 11.3634C7.33116 10.996 7.21903 10.5805 6.97057 10.533C7.20049 10.4181 7.35621 10.2481 7.10374 10.2481C6.85128 10.2481 6.67946 10.2146 6.5156 10.0575C6.35174 9.90045 5.80356 9.76596 5.51659 9.76596C5.48197 9.76596 5.44981 9.76563 5.42024 9.76533C5.20471 9.76312 5.12638 9.76232 5.22962 9.90045C5.26233 9.94421 5.32408 10.0109 5.39855 10.0913C5.5914 10.2995 5.86953 10.5998 5.9493 10.8326C6.00359 10.991 6.0133 11.0597 6.02196 11.121C6.03095 11.1846 6.03882 11.2402 6.0941 11.3797C6.11962 11.4441 6.15765 11.5092 6.19654 11.5757C6.32315 11.7923 6.45896 12.0247 6.2027 12.3013C6.06648 12.4484 5.93249 12.6256 5.81262 12.7842C5.63771 13.0156 5.49285 13.2073 5.41496 13.2073H5.22962C5.22962 13.2073 3.57437 11.3362 3.79035 10.8326C3.87383 10.6379 4.00848 10.4545 4.1199 10.3027C4.29676 10.0617 4.41512 9.90045 4.17757 9.90045C3.79035 9.90045 2.24675 10.8792 2.24675 13.0862C2.24675 15.2932 2.38933 16.5484 2.72031 17.4278C2.94617 18.0279 2.73929 18.6107 2.5851 19.045C2.51335 19.2471 2.45301 19.4171 2.45301 19.5417C2.45301 19.9341 3.06076 19.5903 3.06076 19.3446C3.06076 19.2277 3.14398 19.4018 3.23126 19.5843C3.3275 19.7855 3.42867 19.9971 3.42867 19.8405C3.42867 19.6733 3.52556 19.4968 3.61092 19.3413C3.67813 19.2189 3.73819 19.1094 3.73819 19.0279C3.73819 18.9463 3.82344 18.9493 3.91884 18.9527C4.04002 18.957 4.17757 18.9619 4.17757 18.7948C4.17757 18.682 4.22133 18.6595 4.27582 18.6314C4.36567 18.5852 4.48468 18.524 4.48468 18.0183C4.48468 17.6435 4.55972 17.7763 4.64579 17.9286C4.72501 18.0688 4.81358 18.2255 4.86159 18.0183C4.86627 17.9981 4.91599 17.9112 4.97746 17.8038C5.06692 17.6474 5.18126 17.4476 5.21782 17.3467C5.10508 17.7881 4.83457 18.2481 4.66279 18.4672C4.48468 18.6944 4.17757 19.1876 4.17757 19.1876C4.17757 19.1876 4.46398 19.3473 4.66279 19.1876C4.77383 19.0984 4.78133 19.1823 4.7895 19.2738C4.79596 19.3461 4.80284 19.4232 4.86159 19.4232C4.89849 19.4232 4.93322 19.4292 4.96416 19.4346C4.98704 19.4385 5.00785 19.4421 5.02592 19.4427C4.95955 19.6117 4.90002 19.882 5.09968 19.7014C5.24227 19.5724 5.34225 19.5201 5.40848 19.4854C5.48514 19.4453 5.51659 19.4288 5.51659 19.3446C5.51659 19.2605 5.54774 19.289 5.59653 19.3336C5.63887 19.3723 5.6945 19.4232 5.75459 19.4232C5.83203 19.4232 5.84815 19.3153 5.8716 19.1585C5.88732 19.0534 5.90633 18.9262 5.9493 18.7948C5.95932 18.7641 5.96872 18.7347 5.97764 18.7068C6.06409 18.4362 6.10441 18.31 6.2027 18.6513C6.24864 18.8109 6.32977 18.9238 6.40042 19.0222C6.49654 19.156 6.57327 19.2628 6.5156 19.4232C6.49302 19.486 6.4647 19.5569 6.43438 19.6329C6.33033 19.8935 6.2027 20.2133 6.2027 20.465C6.2027 20.6147 6.06646 20.8186 5.93842 21.0104C5.78834 21.2351 5.64952 21.4429 5.75459 21.5266C5.9493 21.6818 5.71369 22.2043 5.51659 22.4723C5.3195 22.7403 5.35209 23.0676 5.6507 23.0676C5.81411 23.0676 5.90279 23.1269 5.98308 23.1806C6.0495 23.225 6.11018 23.2656 6.2027 23.2656C6.40706 23.2656 6.5156 23.1648 6.5156 23.1648C6.5156 23.1648 6.64175 23.3555 6.85128 23.3555C7.0608 23.3555 7.10374 23.1648 7.10374 23.1648L7.25888 23.3555L7.27248 22.4117V23.3555L7.74912 23.1648C7.74912 23.1648 7.79206 23.3555 8.00159 23.3555C8.21112 23.3555 8.33727 23.1648 8.33727 23.1648C8.33727 23.1648 8.44581 23.2656 8.65017 23.2656C8.74269 23.2656 8.80337 23.225 8.86979 23.1806C8.95008 23.1269 9.03875 23.0676 9.20217 23.0676C9.50077 23.0676 9.53337 22.7403 9.33628 22.4723C9.13918 22.2043 8.90356 21.6818 9.09828 21.5266C9.20335 21.4429 9.06453 21.2351 8.91445 21.0104C8.78641 20.8186 8.65017 20.6147 8.65017 20.465C8.65017 20.2133 8.52254 19.8935 8.41849 19.6329C8.38816 19.5569 8.35984 19.486 8.33727 19.4232C8.2796 19.2628 8.35633 19.156 8.45245 19.0222C8.5231 18.9238 8.60423 18.8109 8.65017 18.6513C8.74845 18.31 8.78877 18.4362 8.87523 18.7068C8.88414 18.7347 8.89355 18.7641 8.90356 18.7948C8.94654 18.9262 8.96555 19.0534 8.98127 19.1585C9.00472 19.3153 9.02084 19.4232 9.09828 19.4232C9.15837 19.4232 9.214 19.3723 9.25634 19.3336C9.30513 19.289 9.33628 19.2605 9.33628 19.3446C9.33628 19.4288 9.36773 19.4453 9.44439 19.4854C9.51062 19.5201 9.6106 19.5724 9.75318 19.7014C9.95285 19.882 9.89332 19.6117 9.82695 19.4427C9.84501 19.4421 9.86582 19.4385 9.88871 19.4346C9.91965 19.4292 9.95438 19.4232 9.99128 19.4232C10.05 19.4232 10.0569 19.3461 10.0634 19.2738C10.0715 19.1823 10.079 19.0984 10.1901 19.1876C10.3889 19.3473 10.6753 19.1876 10.6753 19.1876C10.6753 19.1876 10.3682 18.6944 10.1901 18.4672C10.0183 18.2481 9.74779 17.7881 9.63504 17.3467C9.67161 17.4476 9.78595 17.6474 9.87541 17.8038C9.93688 17.9112 9.9866 17.9981 9.99128 18.0183C10.0393 18.2255 10.1279 18.0688 10.2071 17.9286C10.2931 17.7763 10.3682 17.6435 10.3682 18.0183C10.3682 18.524 10.4872 18.5852 10.577 18.6314C10.6315 18.6595 10.6753 18.682 10.6753 18.7948C10.6753 18.9619 10.8128 18.957 10.934 18.9527C11.0294 18.9493 11.1147 18.9463 11.1147 19.0279C11.1147 19.1094 11.1747 19.2189 11.2419 19.3413C11.3273 19.4968 11.4242 19.6733 11.4242 19.8405C11.4242 19.9971 11.5254 19.7855 11.6216 19.5843C11.7089 19.4018 11.7921 19.2277 11.7921 19.3446C11.7921 19.5903 12.3999 19.9341 12.3999 19.5417C12.3999 19.4171 12.3395 19.2471 12.2678 19.045C12.1136 18.6107 11.9067 18.0279 12.1326 17.4278C12.4635 16.5484 12.6061 15.2932 12.6061 13.0862C12.6061 10.8792 11.0625 9.90045 10.6753 9.90045C10.4377 9.90045 10.5561 10.0617 10.733 10.3027C10.8444 10.4545 10.979 10.6379 11.0625 10.8326ZM9.62324 17.298C9.62695 17.3142 9.63089 17.3304 9.63504 17.3467C9.62748 17.3258 9.62324 17.3092 9.62324 17.298ZM9.75318 19.3446C9.75318 19.2895 9.79106 19.3513 9.82695 19.4427C9.78133 19.4441 9.75318 19.4259 9.75318 19.3446ZM5.02592 19.4427C5.07154 19.4441 5.09968 19.4259 5.09968 19.3446C5.09968 19.2895 5.0618 19.3513 5.02592 19.4427ZM5.21782 17.3467C5.22539 17.3258 5.22962 17.3092 5.22962 17.298C5.22591 17.3142 5.22198 17.3304 5.21782 17.3467Z" fill="#F7FCFF"/>
<path fill-rule="evenodd" clip-rule="evenodd" d="M4.53887 20.8024C4.53887 20.6502 4.92836 20.2971 4.92836 20.2971V20.3286C4.99186 20.3802 5.328 20.6597 5.328 20.7976C5.328 20.8847 5.28293 21.0109 5.24434 21.1189C5.21547 21.1998 5.19023 21.2705 5.19023 21.3069C5.19023 21.3314 5.20043 21.3139 5.21983 21.2804C5.2679 21.1974 5.3725 21.0169 5.51859 21.1376C5.71211 21.2974 5.71094 21.5331 5.71019 21.6826C5.71015 21.6915 5.7101 21.7001 5.7101 21.7083C5.7101 21.7549 5.71001 21.7545 5.70381 21.7324C5.69045 21.6846 5.64875 21.5355 5.51859 21.5355C5.328 21.5355 5.19023 21.7083 5.19023 21.7083V22.003C5.19023 22.003 5.21441 22.2464 5.328 22.1247C5.4416 22.003 5.46577 22.2749 5.328 22.2749C5.25767 22.2749 5.18533 22.3495 5.11451 22.4226C5.0466 22.4927 4.98009 22.5613 4.91809 22.5613V22.5374C4.86074 22.531 4.81318 22.4716 4.76468 22.411C4.71111 22.3441 4.65639 22.2758 4.58606 22.2758C4.4483 22.2758 4.47247 22.004 4.58606 22.1256C4.69966 22.2473 4.72383 22.004 4.72383 22.004V21.7093C4.72383 21.7093 4.58606 21.5364 4.39548 21.5364C4.26531 21.5364 4.22361 21.6855 4.21026 21.7333C4.20405 21.7555 4.20396 21.7558 4.20396 21.7093C4.20396 21.701 4.20392 21.6924 4.20387 21.6835C4.20313 21.5341 4.20196 21.2983 4.39548 21.1385C4.54157 21.0178 4.64616 21.1983 4.69423 21.2813C4.71364 21.3148 4.72383 21.3324 4.72383 21.3079C4.72383 21.2714 4.68995 21.2014 4.65119 21.1214C4.59939 21.0144 4.53887 20.8895 4.53887 20.8024Z" fill="#E8AA00"/>
<path fill-rule="evenodd" clip-rule="evenodd" d="M9.71856 20.8024C9.71856 20.6502 10.1081 20.2971 10.1081 20.2971V20.3286C10.1715 20.3802 10.5077 20.6597 10.5077 20.7976C10.5077 20.8847 10.4626 21.0109 10.424 21.1189C10.3952 21.1998 10.3699 21.2705 10.3699 21.3069C10.3699 21.3314 10.3801 21.3139 10.3995 21.2804C10.4476 21.1974 10.5522 21.0169 10.6983 21.1376C10.8918 21.2974 10.8906 21.5331 10.8899 21.6826C10.8898 21.6915 10.8898 21.7001 10.8898 21.7083C10.8898 21.7549 10.8897 21.7545 10.8835 21.7324C10.8701 21.6846 10.8284 21.5355 10.6983 21.5355C10.5077 21.5355 10.3699 21.7083 10.3699 21.7083V22.003C10.3699 22.003 10.3941 22.2464 10.5077 22.1247C10.6213 22.003 10.6455 22.2749 10.5077 22.2749C10.4374 22.2749 10.365 22.3495 10.2942 22.4226C10.2263 22.4927 10.1598 22.5613 10.0978 22.5613V22.5374C10.0404 22.531 9.99287 22.4716 9.94437 22.411C9.8908 22.3441 9.83608 22.2758 9.76575 22.2758C9.62798 22.2758 9.65215 22.004 9.76575 22.1256C9.87935 22.2473 9.90352 22.004 9.90352 22.004V21.7093C9.90352 21.7093 9.76575 21.5364 9.57516 21.5364C9.445 21.5364 9.4033 21.6855 9.38994 21.7333C9.38374 21.7555 9.38365 21.7558 9.38365 21.7093C9.38365 21.701 9.38361 21.6924 9.38356 21.6835C9.38282 21.5341 9.38164 21.2983 9.57516 21.1385C9.72126 21.0178 9.82585 21.1983 9.87392 21.2813C9.89332 21.3148 9.90352 21.3324 9.90352 21.3079C9.90352 21.2714 9.86964 21.2014 9.83087 21.1214C9.77907 21.0144 9.71856 20.8895 9.71856 20.8024Z" fill="#E8AA00"/>
<path fill-rule="evenodd" clip-rule="evenodd" d="M4.14228 19.8883C4.48946 19.8883 4.55965 19.228 4.55965 19.228C4.55965 19.228 4.85094 18.9261 4.85094 19.1487C4.85094 19.2675 4.76812 19.417 4.70513 19.5308C4.64998 19.6304 4.61003 19.7025 4.65413 19.7025H5.1349C5.53129 19.7025 5.06529 19.8883 4.85094 19.9711C4.7537 20.0087 4.68474 20.0283 4.61858 20.0471C4.53891 20.0698 4.46331 20.0914 4.34728 20.1416C4.1349 20.2337 4.04379 20.8395 4.14228 21.0341C4.24077 21.2286 4.04379 21.1465 3.96239 21.0341C3.91716 20.9716 3.88415 21.0576 3.8381 21.1776C3.80127 21.2735 3.75609 21.3912 3.68966 21.472C3.56133 21.628 3.56271 21.4901 3.56567 21.1933C3.56616 21.1443 3.56669 21.0911 3.56669 21.0341C3.56669 20.7711 3.61919 20.7687 3.69728 20.7652C3.73871 20.7633 3.78733 20.7611 3.83914 20.7196C3.95104 20.6297 3.96447 20.5835 3.9983 20.4671C4.00966 20.428 4.02332 20.381 4.04379 20.3218C4.1252 20.0861 3.68966 20.4586 3.56669 20.635C3.49181 20.7424 3.43965 20.7541 3.36164 20.7717C3.31154 20.7829 3.25077 20.7966 3.16646 20.8395C3.02942 20.9094 3.06661 20.7722 3.11189 20.6051C3.13784 20.5094 3.16646 20.4038 3.16646 20.3218C3.16646 20.1803 3.25156 20.2166 3.36063 20.2631C3.42515 20.2907 3.49805 20.3218 3.56669 20.3218C3.74207 20.3218 3.83265 20.2477 3.94446 20.1563C3.95037 20.1514 3.95634 20.1466 3.96239 20.1416C4.0521 20.0686 3.85668 20.0906 3.62398 20.1169C3.54438 20.1258 3.46043 20.1353 3.38203 20.1416C3.20308 20.1561 3.19113 20.1453 3.14645 20.1051C3.11432 20.0762 3.06527 20.0321 2.92503 19.9711C2.58976 19.8254 3.14054 19.8883 3.38203 19.9711C3.51631 20.0171 3.62898 19.9864 3.76224 19.95C3.86864 19.9209 3.98816 19.8883 4.14228 19.8883ZM10.8747 19.8883C10.5275 19.8883 10.4573 19.228 10.4573 19.228C10.4573 19.228 10.166 18.9261 10.166 19.1487C10.166 19.2675 10.2488 19.417 10.3118 19.5308C10.367 19.6304 10.4069 19.7025 10.3628 19.7025H9.88203C9.48564 19.7025 9.95164 19.8883 10.166 19.9711C10.2632 20.0087 10.3322 20.0283 10.3984 20.0471C10.478 20.0698 10.5536 20.0914 10.6697 20.1416C10.882 20.2337 10.9731 20.8395 10.8747 21.0341C10.7762 21.2286 10.9731 21.1465 11.0545 21.0341C11.0998 20.9716 11.1328 21.0576 11.1788 21.1776C11.2157 21.2735 11.2608 21.3912 11.3273 21.472C11.4556 21.628 11.4542 21.4901 11.4513 21.1933C11.4508 21.1443 11.4502 21.0911 11.4502 21.0341C11.4502 20.7711 11.3977 20.7687 11.3197 20.7652C11.2782 20.7633 11.2296 20.7611 11.1778 20.7196C11.0659 20.6297 11.0525 20.5835 11.0186 20.4671C11.0073 20.428 10.9936 20.381 10.9731 20.3218C10.8917 20.0861 11.3273 20.4586 11.4502 20.635C11.5251 20.7424 11.5773 20.7541 11.6553 20.7717C11.7054 20.7829 11.7662 20.7966 11.8505 20.8395C11.9875 20.9094 11.9503 20.7722 11.905 20.6051C11.8791 20.5094 11.8505 20.4038 11.8505 20.3218C11.8505 20.1803 11.7654 20.2166 11.6563 20.2631C11.5918 20.2907 11.5189 20.3218 11.4502 20.3218C11.2749 20.3218 11.1843 20.2477 11.0725 20.1563C11.0666 20.1514 11.0606 20.1466 11.0545 20.1416C10.9648 20.0686 11.1602 20.0906 11.393 20.1169C11.4725 20.1258 11.5565 20.1353 11.6349 20.1416C11.8139 20.1561 11.8258 20.1453 11.8705 20.1051C11.9026 20.0762 11.9517 20.0321 12.0919 19.9711C12.4272 19.8254 11.8764 19.8883 11.6349 19.9711C11.5006 20.0171 11.388 19.9864 11.2547 19.95C11.1483 19.9209 11.0288 19.8883 10.8747 19.8883Z" fill="#E8AA00"/>
<path fill-rule="evenodd" clip-rule="evenodd" d="M5.45964 13.3703H9.65811V17.1992C9.65811 17.1992 9.2074 19.1064 7.55887 19.1064C5.91035 19.1064 5.45964 17.1992 5.45964 17.1992V13.3703Z" fill="#C51918"/>
<path fill-rule="evenodd" clip-rule="evenodd" d="M8.13094 13.3161H7.0319V15.5145H5.45768V16.2995H7.0319V19.1253H8.13094V16.2995H9.69681V15.5145H8.13094V13.3161Z" fill="#F7FCFF"/>
<path fill-rule="evenodd" clip-rule="evenodd" d="M6 17.619C5.99956 17.6191 5.99913 17.6191 5.99871 17.6191ZM5.99581 17.6192C5.99672 17.6192 5.99769 17.6192 5.99871 17.6191L5.9972 17.6193L5.99581 17.6192Z" fill="#F7FCFF"/>
</g>
</g>
</g>
</svg>
