<svg width="26" height="26" viewBox="0 0 26 26" fill="none" xmlns="http://www.w3.org/2000/svg">
<mask id="mask0_1_10416" style="mask-type:alpha" maskUnits="userSpaceOnUse" x="0" y="0" width="26" height="26">
<circle cx="13" cy="13" r="13" fill="#634848"/>
</mask>
<g mask="url(#mask0_1_10416)">
<mask id="mask1_1_10416" style="mask-type:alpha" maskUnits="userSpaceOnUse" x="-5" y="0" width="36" height="26">
<rect x="-4.33333" width="34.6667" height="26" fill="white"/>
</mask>
<g mask="url(#mask1_1_10416)">
<path fill-rule="evenodd" clip-rule="evenodd" d="M-4.33073 0V26H30.3359V0H-4.33073Z" fill="#FECA00"/>
<mask id="mask2_1_10416" style="mask-type:alpha" maskUnits="userSpaceOnUse" x="-5" y="0" width="36" height="26">
<path fill-rule="evenodd" clip-rule="evenodd" d="M-4.33073 0V26H30.3359V0H-4.33073Z" fill="white"/>
</mask>
<g mask="url(#mask2_1_10416)">
<path fill-rule="evenodd" clip-rule="evenodd" d="M-4.33073 0V15.1667H30.3359V0H-4.33073Z" fill="#3CA5D9"/>
<path fill-rule="evenodd" clip-rule="evenodd" d="M-4.33073 19.5V26H30.3359V19.5H-4.33073Z" fill="#5A962A"/>
<path fill-rule="evenodd" clip-rule="evenodd" d="M21.7659 12.857C21.7299 12.8579 21.6938 12.8583 21.6576 12.8583C21.6267 12.8583 21.5959 12.858 21.5652 12.8574L20.9104 14.9957L20.7719 12.7684C20.7055 12.7548 20.6397 12.7396 20.5745 12.7229L19.4406 14.6512L19.8245 12.4556C19.7627 12.4269 19.7017 12.3968 19.6415 12.3653L18.0908 13.9806L18.9751 11.9345C18.9212 11.8922 18.8684 11.8486 18.8166 11.8039L16.9337 13.0202L18.2688 11.2342C18.2257 11.1802 18.1839 11.1252 18.1434 11.0692L16.0317 11.8218L17.7437 10.3914C17.714 10.3284 17.6858 10.2644 17.6592 10.1998L15.4335 10.4498L17.4301 9.44988C17.4161 9.38135 17.4036 9.31223 17.3929 9.24255L15.1712 8.97843L17.3459 8.4612C17.3482 8.3904 17.3521 8.32004 17.3579 8.25015L15.259 7.48686L17.4936 7.47967C17.5124 7.4111 17.5329 7.34323 17.5551 7.27608L15.6922 6.05552L17.8686 6.55837C17.903 6.49624 17.9388 6.43505 17.9762 6.37485L16.4474 4.76158L18.4496 5.74818C18.4972 5.6959 18.5462 5.6448 18.5963 5.59491L17.484 3.67481L19.2032 5.09241C19.2615 5.05255 19.3207 5.01407 19.381 4.97702L18.746 2.85378L20.0891 4.62638C20.1548 4.60107 20.2212 4.5773 20.2883 4.55512L20.1653 2.34277L21.0602 4.37651C21.1292 4.36706 21.1988 4.35922 21.2689 4.35304L21.6656 2.16931L22.0625 4.3545C22.1322 4.36091 22.2014 4.36896 22.2701 4.3786L23.1659 2.34277L23.0426 4.56034C23.1086 4.58243 23.1739 4.60606 23.2384 4.63117L24.5852 2.85378L23.9477 4.98536C24.0063 5.0217 24.064 5.0594 24.1207 5.0984L25.8472 3.67481L24.729 5.60502C24.7774 5.65343 24.8246 5.70298 24.8705 5.75362L26.8838 4.76158L25.3454 6.38506C25.3811 6.44303 25.4154 6.5019 25.4484 6.56164L27.639 6.05552L25.763 7.2847C25.784 7.34902 25.8036 7.414 25.8216 7.47962L28.0722 7.48686L25.9578 8.2558C25.9632 8.32257 25.967 8.38977 25.9692 8.45737L28.16 8.97843L25.922 9.24449C25.9117 9.31105 25.8999 9.3771 25.8866 9.44262L27.8977 10.4498L25.6567 10.198C25.6312 10.26 25.6043 10.3213 25.576 10.3818L27.2995 11.8218L25.1751 11.0646C25.1362 11.1187 25.096 11.1717 25.0546 11.2238L26.3975 13.0202L24.5054 11.798C24.4553 11.8415 24.4042 11.8839 24.352 11.9251L25.2404 13.9806L23.6843 12.3597C23.6255 12.3907 23.5659 12.4204 23.5055 12.4487L23.8906 14.6512L22.7546 12.7194C22.6901 12.736 22.6251 12.7513 22.5595 12.7651L22.4208 14.9957L21.7659 12.857ZM21.6126 11.2842C23.1299 11.2842 24.3599 10.072 24.3599 8.57675C24.3599 7.08149 23.1299 5.86934 21.6126 5.86934C20.0953 5.86934 18.8652 7.08149 18.8652 8.57675C18.8652 10.072 20.0953 11.2842 21.6126 11.2842ZM23.1956 8.65694C23.1956 9.51206 22.5024 10.2053 21.6473 10.2053C20.7922 10.2053 20.099 9.51206 20.099 8.65694C20.099 7.80182 20.7922 7.1086 21.6473 7.1086C22.5024 7.1086 23.1956 7.80182 23.1956 8.65694Z" fill="#FFDC17"/>
</g>
</g>
</g>
</svg>
