<svg width="26" height="26" viewBox="0 0 26 26" fill="none" xmlns="http://www.w3.org/2000/svg">
<mask id="mask0_1_14403" style="mask-type:alpha" maskUnits="userSpaceOnUse" x="0" y="0" width="26" height="26">
<circle cx="13" cy="13" r="13" fill="#634848"/>
</mask>
<g mask="url(#mask0_1_14403)">
<g clip-path="url(#clip0_1_14403)">
<path fill-rule="evenodd" clip-rule="evenodd" d="M-2 25.7563L47.1771 0H-2V25.7563Z" fill="#0000D6"/>
<path fill-rule="evenodd" clip-rule="evenodd" d="M49 0L-0.645313 26H49V0Z" fill="#006000"/>
<path fill-rule="evenodd" clip-rule="evenodd" d="M49 0H46.2657L-2 24.6492V26H0.734277L49 1.40156V0Z" fill="#FFCC00"/>
<path fill-rule="evenodd" clip-rule="evenodd" d="M1.55605 0.462097L2.14375 2.21405H4.06123L2.5123 3.28553L3.10498 5.03241L1.55605 3.96093L0.00712894 5.03749L0.599805 3.29061L-0.949121 2.20897H0.963379L1.55605 0.462097ZM11.0737 0.462097L11.6664 2.21405H13.5839L12.03 3.29061L12.6276 5.03749L11.0688 3.96093L9.52481 5.04257L10.1175 3.29569L8.56358 2.21405H10.4811L11.0737 0.462097ZM11.0737 7.79999L11.6664 9.55194H13.5839L12.03 10.6285L12.6276 12.3754L11.0737 11.2937L9.52979 12.3754L10.1225 10.6285L8.56856 9.54686H10.486L11.0737 7.79999ZM6.34229 4.17421L6.93496 5.92108H8.84746L7.30352 7.00272L7.89121 8.7496L6.34727 7.66796L4.79336 8.7496L5.39102 7.00272L3.83711 5.92108H5.75459L6.34229 4.17421ZM1.55605 7.79999L2.14375 9.55194H4.06123L2.5123 10.6285L3.10498 12.3754L1.55605 11.2937L0.00712894 12.3754L0.604785 10.6285L-0.954102 9.54686H0.958399L1.55605 7.79999Z" fill="white"/>
</g>
</g>
<defs>
<clipPath id="clip0_1_14403">
<rect width="34" height="26" fill="white" transform="translate(-2)"/>
</clipPath>
</defs>
</svg>
