<svg width="26" height="26" viewBox="0 0 26 26" fill="none" xmlns="http://www.w3.org/2000/svg">
<mask id="mask0_1_10186" style="mask-type:alpha" maskUnits="userSpaceOnUse" x="0" y="0" width="26" height="26">
<circle cx="13" cy="13" r="13" fill="#634848"/>
</mask>
<g mask="url(#mask0_1_10186)">
<mask id="mask1_1_10186" style="mask-type:alpha" maskUnits="userSpaceOnUse" x="-5" y="0" width="36" height="26">
<rect x="-4.33333" width="34.6667" height="26" fill="white"/>
</mask>
<g mask="url(#mask1_1_10186)">
<path fill-rule="evenodd" clip-rule="evenodd" d="M-4.33073 0V26H30.3359V0H-4.33073Z" fill="#F7FCFF"/>
<mask id="mask2_1_10186" style="mask-type:alpha" maskUnits="userSpaceOnUse" x="-5" y="0" width="36" height="26">
<path fill-rule="evenodd" clip-rule="evenodd" d="M-4.33073 0V26H30.3359V0H-4.33073Z" fill="white"/>
</mask>
<g mask="url(#mask2_1_10186)">
<path fill-rule="evenodd" clip-rule="evenodd" d="M-4.33073 0V13H30.3359V0H-4.33073Z" fill="#E31D1C"/>
<path fill-rule="evenodd" clip-rule="evenodd" d="M5.28062 11.4718C5.28062 11.4718 2.21946 10.2406 2.21946 6.90494C2.21946 3.56928 5.28062 2.37786 5.28062 2.37786C3.79284 2.00122 -0.154945 2.33809 -0.154945 6.90494C-0.154945 11.4718 3.73319 12.3331 5.28062 11.4718ZM6.06355 10.9208L6.94173 10.3907L7.83926 10.9208L7.6196 9.88628L8.34922 9.07016H7.36068L6.94173 8.10416L6.52278 9.07016L5.53255 9.11203L6.26386 9.88628L6.06355 10.9208ZM10.1325 10.3314L9.25431 10.8616L9.45462 9.82704L8.72331 9.05278L9.71354 9.01092L10.1325 8.04491L10.5514 9.01092H11.54L10.8104 9.82704L11.03 10.8616L10.1325 10.3314ZM7.90014 6.25106L8.77832 5.72091L9.67585 6.25106L9.45619 5.21652L10.1858 4.4004H9.19727L8.77832 3.4344L8.35937 4.4004L7.36914 4.44227L8.10045 5.21652L7.90014 6.25106ZM5.82454 7.8241L4.94637 8.35425L5.14667 7.31971L4.41537 6.54546L5.4056 6.50359L5.82454 5.53759L6.24349 6.50359H7.23203L6.50241 7.31971L6.72207 8.35425L5.82454 7.8241ZM10.7524 8.3077L11.6305 7.77755L12.5281 8.3077L12.3084 7.27316L13.038 6.45705H12.0495L11.6305 5.49104L11.2116 6.45705L10.2214 6.49891L10.9527 7.27316L10.7524 8.3077Z" fill="#F1F9FF"/>
</g>
</g>
</g>
</svg>
