<svg width="26" height="26" viewBox="0 0 26 26" fill="none" xmlns="http://www.w3.org/2000/svg">
<mask id="mask0_1_14049" style="mask-type:alpha" maskUnits="userSpaceOnUse" x="0" y="0" width="26" height="26">
<circle cx="13" cy="13" r="13" fill="#634848"/>
</mask>
<g mask="url(#mask0_1_14049)">
<g clip-path="url(#clip0_1_14049)">
<path d="M26 26V0H0V26H26Z" fill="#000066"/>
<path d="M23.923 11.1414C23.923 14.0765 23.4559 17.2453 19.6371 18.7585C15.8387 17.2453 15.3715 14.0765 15.3512 11.1414H23.923Z" fill="#8FC5FF" stroke="white" stroke-width="0.443326"/>
<path d="M19.6371 18.7382C21.0841 18.2324 22.2913 17.2062 23.0242 15.8589H22.6637C22.557 15.8437 19.0074 15.5035 18.5758 15.3207C18.2203 15.1937 16.8086 15.4476 16.1637 15.6761C16.8751 17.114 18.1223 18.2153 19.6371 18.7433V18.7382Z" fill="#366CC9" stroke="black" stroke-width="0.443326"/>
<path d="M16.9711 16.9406H17.1895C17.2402 16.9406 17.2402 16.9406 17.2605 16.8898C17.2809 16.834 17.3316 16.8492 17.3672 16.8695C17.4027 16.8847 17.4789 16.8695 17.5144 16.834C17.55 16.7984 17.55 16.7984 17.5855 16.834C17.6211 16.8695 17.6363 16.8492 17.677 16.834C17.6922 16.834 17.7633 16.7984 17.7785 16.7425C17.7988 16.6918 17.8547 16.6715 17.875 16.707C17.8902 16.7425 17.9258 16.7425 17.9613 16.7425C18.002 16.7425 18.002 16.7629 18.002 16.8136C18.002 16.8492 18.002 16.8644 18.0883 16.7984C18.1594 16.8695 18.1797 16.834 18.1797 16.7629C18.1797 16.6867 18.1797 16.4023 18.1441 16.382C18.1086 16.3668 18.0934 16.2398 18.073 16.1484C18.073 15.9707 18.073 15.9707 17.8902 15.8793C17.8902 15.8285 17.8547 15.8082 17.7125 15.8082C17.7277 15.7879 17.7125 15.732 17.677 15.7168C17.6414 15.6965 17.6414 15.6812 17.677 15.6101C17.7125 15.6101 17.7785 15.6101 17.7988 15.5543C17.8395 15.5187 17.9461 15.5187 18.0172 15.5543C18.0883 15.5898 18.1594 15.5898 18.2863 15.5543L18.5047 15.4476C18.5961 15.3968 18.6113 15.3765 18.6113 15.3004C18.6113 15.1226 18.5605 14.9449 18.5199 14.8535C18.4691 14.7621 18.4691 14.6707 18.398 14.5082C18.3219 14.366 18.3219 14.3304 18.2508 14.239C18.2152 14.2035 18.2 14.1882 18.2 14.1324C18.1948 14.0618 18.1619 13.9961 18.1086 13.9496C17.9613 13.8277 17.9258 13.4113 17.8547 13.1066C17.8191 12.9238 17.8547 12.5125 17.7836 12.4363C17.6566 12.35 17.6008 12.3652 17.5144 12.3347C17.4434 12.2382 17.423 12.0808 17.352 11.9183C17.2605 11.9336 17.2047 12.0199 17.1488 12.0605C17.098 12.0961 17.0828 12.0961 17.0828 12.1875C17.0828 12.2586 17.0269 12.3652 16.9559 12.5125C16.8848 12.6547 16.7223 12.5988 16.5953 12.7968C16.3414 12.4922 16.3414 12.4007 16.3262 12.3144C16.3262 12.223 16.2703 12.2027 16.123 12.0757V11.8066C16.0012 11.7203 15.9301 11.7355 15.8742 11.8066C15.8234 11.8574 15.7828 11.9539 15.6965 11.9894C15.6559 12.0605 15.5137 12.2027 15.407 12.4007C15.5137 14.0257 15.8742 15.6457 16.9711 16.9406V16.9406Z" fill="#5D3100" stroke="black" stroke-width="0.05"/>
<path d="M23.923 11.1414C23.923 10.0243 23.8723 8.94262 23.8875 8.00824C22.5328 7.48201 21.0904 7.21833 19.6371 7.23129C18.6824 7.23129 16.8086 7.37856 15.3867 8.00824C15.4223 8.94262 15.3512 10.0243 15.3512 11.1414H23.923Z" fill="#FFFF00" stroke="white" stroke-width="0.443326"/>
<path d="M15.5898 12.4161C15.6355 12.4922 15.7219 12.6192 15.727 12.6903C15.7676 12.6243 15.7879 12.5887 15.793 12.5532C15.8031 12.5125 15.8539 12.4262 15.8336 12.3856C15.8082 12.3399 15.8031 12.3043 15.8539 12.3348C15.9047 12.3704 15.8945 12.4262 15.8844 12.5075C15.8539 12.736 15.7574 12.7868 15.7422 12.9442C15.8793 13.2641 15.7777 13.3809 15.925 13.7008C15.9504 13.7161 16.0113 13.6907 16.0316 13.7008C16.1129 13.6399 16.1688 13.6602 16.2855 13.6805C16.3922 13.7059 16.4531 13.7821 16.4531 13.8582C16.4531 13.9293 16.4531 13.9446 16.4785 13.9852C16.5039 14.036 16.5547 14.0969 16.5395 14.1375C16.5293 14.1883 16.5496 14.2137 16.5648 14.2391C16.5801 14.2645 16.5598 14.3102 16.5445 14.3457C16.5293 14.3864 16.5344 14.4219 16.5953 14.4981C16.6461 14.5641 16.7781 14.8536 16.7781 15.0313C16.7781 15.1989 16.7883 15.2852 16.8594 15.3157C16.9305 15.3512 16.9559 15.3766 16.9406 15.4528C16.9451 15.6279 16.9604 15.8026 16.9863 15.9758C16.9965 16.0368 17.0168 16.0266 17.0422 16.0571C17.0727 16.0875 17.093 16.1282 17.1844 16.1282C17.2859 16.1282 17.3672 16.1129 17.4332 16.1282C17.5145 16.2399 17.5652 16.3973 17.5855 16.4989C17.6008 16.6004 17.6008 16.7325 17.6363 16.7325C17.6668 16.7325 17.7023 16.7325 17.6871 16.6157C17.677 16.4938 17.6719 16.4735 17.6313 16.4125C17.5855 16.3516 17.5652 16.3211 17.5855 16.2856C17.6109 16.25 17.616 16.184 17.6059 16.1383C17.5957 16.0926 17.5855 16.0215 17.6617 16.1129L17.7937 16.2653C17.8191 16.3008 17.8242 16.3567 17.8191 16.4176C17.8141 16.4684 17.8242 16.4938 17.8547 16.4684C17.8902 16.4379 17.9309 16.4887 17.9105 16.5497C17.8953 16.6106 17.9105 16.6512 17.9715 16.6664C18.0324 16.6817 18.0527 16.6969 18.0629 16.7375C18.073 16.7782 18.1289 16.7985 18.1289 16.7172C18.1289 16.6309 18.0934 16.4532 18.073 16.3973C18.0477 16.3414 18.0273 16.2196 18.0223 16.1434C18.0223 16.0774 18.007 16.0622 17.9715 16.0418C17.941 16.0317 17.9105 16.0114 17.9055 15.9707C17.9055 15.9352 17.8699 15.9352 17.8547 15.9352C17.8344 15.9352 17.8141 15.9149 17.8039 15.8946C17.7938 15.8692 17.7785 15.8692 17.7531 15.8641C17.7328 15.8641 17.6922 15.8743 17.682 15.8387C17.6719 15.8032 17.6516 15.7473 17.6313 15.7168C17.6109 15.6813 17.5855 15.6762 17.5805 15.5645C17.5805 15.4629 17.5805 15.4528 17.5449 15.4122C17.5024 15.3564 17.465 15.2969 17.4332 15.2344C17.4129 15.1989 17.3824 15.1532 17.3824 15.2395C17.3824 15.3258 17.3824 15.3766 17.4434 15.4071C17.4992 15.4426 17.5145 15.4426 17.4891 15.4883C17.4637 15.534 17.4891 15.5696 17.4992 15.6C17.5094 15.6356 17.5297 15.6661 17.4992 15.7016C17.4688 15.7321 17.4434 15.7219 17.4484 15.6711C17.4508 15.6181 17.4385 15.5653 17.4129 15.5188C17.3875 15.4731 17.3672 15.4426 17.3418 15.468C17.3113 15.4934 17.291 15.468 17.3062 15.4477C17.3266 15.4325 17.3215 15.4122 17.3062 15.3969C17.291 15.3918 17.291 15.3715 17.3164 15.3461C17.3418 15.3157 17.3367 15.3004 17.3215 15.2344C17.3063 15.1735 17.2047 14.8434 17.159 14.7672C17.1082 14.6911 17.1184 14.6352 17.1742 14.7164C17.2352 14.7875 17.291 14.8485 17.291 14.9145C17.3012 14.9754 17.3164 15.0161 17.3266 15.0364C17.3418 15.0618 17.3672 15.0465 17.3723 15.0008C17.3773 14.95 17.423 14.9653 17.352 14.8637C17.291 14.7672 17.1691 14.6047 17.1234 14.3051C17.0727 14.0106 17.0574 13.8176 17.0066 13.7414C16.9609 13.6602 16.9457 13.6399 16.9406 13.5637C16.9406 13.4875 16.9406 13.4114 16.9051 13.3606C16.8695 13.3098 16.8543 13.2946 16.8492 13.3809C16.843 13.4832 16.8516 13.5858 16.8746 13.6856C16.9 13.7161 16.8898 13.7973 16.8797 13.8481C16.8746 13.8938 16.8035 13.9395 16.9559 14.036C17.0168 14.0715 17.0066 14.1223 16.9965 14.1528C16.9914 14.1883 16.9813 14.1832 16.9457 14.1325C16.9152 14.0817 16.8797 14.0411 16.8441 14.0106C16.8137 13.9801 16.8137 13.9598 16.8137 13.8989C16.8188 13.8379 16.834 13.7872 16.8137 13.7618C16.7984 13.7414 16.7883 13.7618 16.7781 13.7973C16.768 13.8329 16.7629 13.9344 16.7426 13.9598C16.7223 13.9852 16.7121 13.975 16.6969 13.909C16.6816 13.8481 16.702 13.7567 16.7324 13.65C16.768 13.5383 16.7883 13.4317 16.7629 13.2895C16.7324 13.1473 16.7477 13.1067 16.6359 12.9848C16.5293 12.8731 16.4125 12.7614 16.3566 12.6141C16.3059 12.4668 16.2957 12.345 16.2398 12.2789C16.1873 12.2113 16.1238 12.1529 16.052 12.1063V11.8829C16.052 11.8321 16.0266 11.8016 15.9707 11.8118C15.9098 11.8219 15.8691 11.8676 15.8336 11.9438C15.798 12.0098 15.7676 11.9793 15.7168 12.0961C15.6609 12.218 15.5898 12.2789 15.5898 12.411V12.4161Z" fill="#CF6200"/>
<path d="M15.9301 13.7922C15.9656 13.8176 16.0012 13.8278 16.057 13.8024C16.1078 13.777 16.1789 13.6906 16.2602 13.7719C16.3318 13.8612 16.3712 13.9722 16.3719 14.0867C16.3719 14.1883 16.3719 14.3813 16.4887 14.4879C16.6055 14.5946 16.6715 14.7063 16.6715 14.8485C16.6766 14.9906 16.7273 15.2039 16.7477 15.2649C16.7578 15.3156 16.7883 15.3817 16.8238 15.4172C16.8645 15.4578 16.8898 15.5696 16.9 15.6711C16.9 15.793 16.8848 15.8742 16.9 15.925C16.9152 15.9758 16.9 16.0266 16.8543 15.9961C16.8137 15.9707 16.8035 15.9606 16.7832 15.9098C16.7629 15.859 16.7273 15.8742 16.7527 15.9453C16.7781 16.0215 16.8441 16.0774 16.9051 16.0774C16.966 16.0774 16.9863 16.0875 17.0219 16.1281C17.0574 16.1637 17.0676 16.184 17.1336 16.184C17.1996 16.184 17.2047 16.184 17.2656 16.2043C17.3266 16.2196 17.3266 16.2094 17.3621 16.2043C17.3926 16.1942 17.4281 16.2196 17.4484 16.2805C17.4688 16.3465 17.5297 16.5141 17.5297 16.5547C17.5297 16.6004 17.5297 16.6512 17.5602 16.6969C17.5957 16.7477 17.5855 16.7934 17.5449 16.7629C17.5094 16.7324 17.5094 16.7477 17.484 16.7477C17.4535 16.7528 17.4332 16.7426 17.3977 16.7172C17.3621 16.6918 17.3824 16.6969 17.3469 16.641C17.3113 16.5903 17.2859 16.5649 17.2859 16.6055C17.2859 16.6461 17.2859 16.702 17.2504 16.6817C17.225 16.6563 17.2098 16.6563 17.1844 16.6817C17.159 16.7071 17.1539 16.7223 17.1234 16.6766C17.098 16.6309 17.0676 16.6258 17.0371 16.6156C17.0066 16.6055 17.0066 16.6106 16.9965 16.5649C16.9813 16.5242 16.9406 16.5141 16.9 16.5141C16.8645 16.5141 16.8441 16.4989 16.8391 16.4684C16.8391 16.4379 16.8137 16.4176 16.7934 16.4074C16.773 16.3922 16.7883 16.3567 16.7781 16.3262C16.773 16.2957 16.7477 16.3059 16.7273 16.3008C16.707 16.2957 16.6969 16.3008 16.6969 16.25C16.6969 16.1992 16.6766 16.1891 16.6613 16.1535C16.6512 16.118 16.6613 16.0875 16.6715 16.052C16.6757 16.0362 16.676 16.0197 16.6725 16.0038C16.669 15.9879 16.6616 15.9731 16.6512 15.9606C16.6207 15.925 16.6461 15.8946 16.5699 15.8285C16.4988 15.7625 16.4582 15.8184 16.4328 15.661C16.4149 15.483 16.3774 15.3076 16.3211 15.1379C16.2855 15.0871 16.25 15.0516 16.2094 15.0364C16.1688 15.0211 16.1383 15.0364 16.1383 14.9399C16.1281 14.8535 16.1027 14.7418 16.0469 14.686L15.9352 14.5844C15.9098 14.5692 15.8996 14.5235 15.9352 14.4422C15.9758 14.361 15.9605 14.2543 15.9555 14.2035C15.9555 14.1528 15.9352 14.0867 15.9504 14.0309C15.9605 13.9801 15.9504 13.9039 15.9352 13.8684C15.925 13.8328 15.9047 13.8176 15.9301 13.7922V13.7922ZM17.0574 12.4617C16.9958 12.5434 16.9222 12.6153 16.8391 12.675C16.7477 12.736 16.6359 12.7817 16.6969 12.8934C16.7629 12.9949 16.8137 13.0102 16.8238 13.0914C16.8391 13.1727 16.8543 13.2387 16.9152 13.259C16.9813 13.2793 17.0066 13.2641 17.0066 13.3961C17.0066 13.5281 17.0066 13.5789 17.0625 13.6246C17.1234 13.6754 17.1133 13.7262 17.1336 13.8481C17.159 13.9649 17.159 14.2188 17.2352 14.3914C17.3164 14.5641 17.484 14.8992 17.4637 14.9653C17.4434 15.0313 17.418 15.0871 17.4941 15.1684C17.5619 15.2444 17.6075 15.3375 17.6262 15.4375C17.6313 15.5086 17.6414 15.534 17.7176 15.5086C17.7937 15.4832 17.8293 15.4578 17.8547 15.4223C17.8801 15.3918 17.9258 15.402 17.9969 15.4375C18.068 15.4731 18.1746 15.5086 18.2355 15.4731C18.2965 15.4375 18.332 15.3817 18.3879 15.3817C18.4742 15.3156 18.5047 15.1836 18.525 15.1481C18.5402 15.1125 18.525 15.1125 18.4895 15.077C18.4539 15.0414 18.4742 14.9754 18.4641 14.9145C18.4524 14.81 18.4177 14.7094 18.3625 14.6199C18.2863 14.4828 18.2406 14.3153 18.1898 14.2645C18.1391 14.2239 18.1188 14.1223 18.1137 14.0715C18.1035 14.0207 18.0477 13.975 18.0121 13.9395C17.9715 13.9039 17.9359 13.8481 17.8953 13.6246C17.8496 13.4063 17.8191 13.2539 17.8191 13.2184C17.8191 13.1778 17.809 13.1676 17.7684 13.1625C17.7379 13.1473 17.7176 13.0864 17.7277 13.0508C17.7379 13.0203 17.7176 12.9899 17.7023 12.9492C17.6871 12.9188 17.7023 12.8477 17.7277 12.8071C17.7531 12.7715 17.748 12.6649 17.7227 12.5785C17.6973 12.4922 17.6719 12.416 17.5754 12.4008C17.4738 12.3906 17.4586 12.3653 17.418 12.284C17.3773 12.2028 17.3418 12.0606 17.3266 12.0301C17.3164 11.9946 17.3012 11.9946 17.225 12.0555C17.1488 12.1164 17.1234 12.1367 17.1234 12.2535C17.1234 12.3246 17.1336 12.3551 17.159 12.4008C17.1844 12.4414 17.1945 12.4516 17.2098 12.5735C17.2301 12.6953 17.3367 12.8781 17.1996 12.9848C17.0574 13.0965 17.0828 13.1168 17.0879 13.1879C17.0879 13.2641 17.0523 13.3149 17.027 13.2082C17.0016 13.1067 17.027 13.0406 17.098 12.9899C17.1742 12.9391 17.2453 12.8781 17.1945 12.8071C17.1438 12.741 17.1234 12.5785 17.1234 12.5024C17.1184 12.4313 17.098 12.4008 17.0574 12.4617V12.4617Z" fill="#CF6200"/>
<path d="M15.9453 14.0512L15.9555 14.2035C15.9555 14.2543 15.9758 14.3609 15.9352 14.4371C15.8996 14.5184 15.9098 14.5641 15.9352 14.5895C15.9504 14.585 15.9646 14.5774 15.9767 14.567C15.9888 14.5567 15.9985 14.5438 16.0053 14.5294C16.012 14.515 16.0156 14.4993 16.0157 14.4834C16.0159 14.4675 16.0127 14.4517 16.0063 14.4371C15.9962 14.4144 15.9919 14.3895 15.9937 14.3648C15.9954 14.34 16.0032 14.316 16.0164 14.2949C16.0367 14.2543 16.0367 14.2289 16.0164 14.1984C15.9961 14.168 15.9961 14.168 16.0164 14.0766C16.0418 14.0004 15.9859 14.0004 15.9453 14.0512V14.0512ZM16.7477 15.2649C16.7273 15.2039 16.6766 14.9906 16.6715 14.8484C16.6673 14.779 16.6489 14.7112 16.6175 14.6492C16.5861 14.5872 16.5422 14.5323 16.4887 14.4879C16.3973 14.4066 16.382 14.2695 16.3719 14.168C16.3059 14.1223 16.2754 14.1426 16.2855 14.2188C16.2855 14.3051 16.3719 14.3457 16.3617 14.4625C16.3465 14.5895 16.3465 14.5539 16.4074 14.6148C16.4633 14.6809 16.4887 14.7316 16.4582 14.757C16.4277 14.7824 16.4227 14.8231 16.4633 14.8383C16.509 14.8586 16.5141 14.9043 16.5039 14.95C16.5039 14.9906 16.5395 15.0008 16.5648 15.0313C16.5782 15.0544 16.5853 15.0807 16.5853 15.1074C16.5853 15.1342 16.5782 15.1604 16.5648 15.1836C16.5445 15.2242 16.5395 15.2902 16.5852 15.2547C16.6309 15.2191 16.6461 15.2547 16.6816 15.3156C16.707 15.3664 16.7324 15.3512 16.768 15.3309C16.7572 15.308 16.7487 15.2842 16.7426 15.2598L16.7477 15.2649ZM17.352 16.3516C17.3215 16.4024 17.291 16.3871 17.2656 16.3566C17.2352 16.3313 17.1996 16.3313 17.2148 16.2805C17.2301 16.2297 17.225 16.2195 17.1844 16.1891C17.181 16.189 17.1776 16.189 17.1742 16.1891H17.1336C17.0676 16.1891 17.0574 16.1637 17.0219 16.1281C17.0155 16.1193 17.0088 16.1108 17.0016 16.1027V16.1383C17.0016 16.1891 17.0016 16.1789 16.9508 16.1941C16.9 16.2094 16.9051 16.1434 16.8949 16.1027C16.894 16.0941 16.8923 16.0857 16.8898 16.0774C16.834 16.0672 16.773 16.0063 16.7527 15.9453C16.7273 15.8691 16.7527 15.8641 16.7781 15.9098C16.7984 15.9504 16.8137 15.9707 16.8543 15.9961C16.8949 16.0215 16.9051 15.9809 16.8949 15.925C16.8923 15.9048 16.8923 15.8843 16.8949 15.8641C16.8797 15.8438 16.8695 15.8285 16.8492 15.8184C16.7781 15.7879 16.7984 15.7777 16.8035 15.7168C16.8035 15.6609 16.7934 15.6609 16.7477 15.6863C16.6969 15.727 16.6969 15.6863 16.6969 15.5899C16.6969 15.4984 16.6309 15.4984 16.6207 15.5645C16.6055 15.6305 16.5852 15.5848 16.5547 15.4934C16.5293 15.3969 16.4887 15.3766 16.4836 15.468C16.4836 15.5391 16.4633 15.5594 16.4125 15.5188L16.4328 15.6609C16.4582 15.8133 16.4937 15.7625 16.5699 15.8285C16.6461 15.8945 16.6207 15.9301 16.6461 15.9606C16.6766 15.991 16.6816 16.0113 16.6715 16.052C16.6613 16.0875 16.6461 16.1231 16.6613 16.1535C16.6766 16.1891 16.6969 16.2043 16.6969 16.2449C16.6969 16.2906 16.707 16.2906 16.7273 16.3008L16.7629 16.3059L16.7984 16.2551C16.8594 16.2043 16.9508 16.2602 16.9711 16.3313C16.9965 16.3973 17.032 16.4227 17.0727 16.3668C17.1133 16.316 17.1031 16.316 17.1488 16.3668C17.1895 16.4176 17.2148 16.4125 17.2148 16.4125C17.2148 16.4125 17.2656 16.3922 17.2961 16.4227C17.3266 16.4481 17.3469 16.443 17.4027 16.3566C17.4688 16.2703 17.3773 16.2957 17.352 16.3566V16.3516ZM17.5195 13.782C17.5348 13.6449 17.5195 13.5078 17.5805 13.457C17.6313 13.4063 17.7023 13.3098 17.6973 13.5231C17.6973 13.7313 17.6871 13.7262 17.6465 13.7668C17.5957 13.8176 17.5602 13.8328 17.6059 13.9191C17.6516 13.9953 17.6566 14.0004 17.6516 14.1223C17.6414 14.2492 17.6414 14.3 17.6922 14.3609C17.743 14.427 17.7531 14.432 17.7633 14.5031C17.7816 14.5811 17.8202 14.6529 17.875 14.7113C17.9258 14.7621 17.9969 14.9043 18.002 15.0059C18.0121 15.1074 18.0984 15.1328 18.1797 15.1988C18.2559 15.2699 18.1594 15.3156 18.0984 15.2902C18.0375 15.2496 18.0629 15.2902 18.0223 15.3258C17.9867 15.3766 17.9715 15.3766 17.941 15.3055C17.9055 15.2344 17.8039 15.1785 17.7531 15.1582C17.7074 15.143 17.6617 15.0617 17.616 14.9805C17.5989 14.9455 17.5731 14.9155 17.5411 14.8932C17.5091 14.871 17.472 14.8573 17.4332 14.8535C17.4586 14.9043 17.4687 14.95 17.4586 14.9652C17.4434 15.0363 17.418 15.0871 17.4941 15.1684C17.5619 15.2444 17.6075 15.3374 17.6262 15.4375C17.6262 15.5035 17.6414 15.5289 17.7125 15.5035C17.7937 15.4781 17.8293 15.4527 17.8547 15.4223C17.8801 15.3918 17.9258 15.3969 17.9969 15.4375C18.0629 15.4731 18.1695 15.5086 18.2305 15.4731C18.2965 15.4375 18.327 15.3816 18.3828 15.3816C18.4742 15.3156 18.4996 15.1836 18.5199 15.1481C18.5402 15.1125 18.525 15.1125 18.4895 15.077C18.4539 15.0414 18.4742 14.9754 18.4641 14.9145C18.459 14.8484 18.4336 14.757 18.3574 14.6199C18.2813 14.4777 18.2406 14.3152 18.1898 14.2645C18.1391 14.2238 18.1188 14.1223 18.1086 14.0664C18.1086 14.0156 18.0477 13.975 18.007 13.9344C17.9715 13.8988 17.9359 13.8481 17.8902 13.6297L17.8191 13.2539C17.7785 13.3301 17.748 13.3453 17.7277 13.2945C17.7125 13.2438 17.6871 13.2082 17.6617 13.2438C17.6363 13.2793 17.6262 13.2133 17.6262 13.1828C17.6262 13.1524 17.6262 13.1473 17.5906 13.1473C17.5602 13.1473 17.5855 13.0965 17.5703 13C17.5602 12.9086 17.5398 12.8984 17.5297 13.0102C17.5195 13.1219 17.4586 13.1879 17.4789 13.2133C17.5043 13.2387 17.4941 13.2895 17.4688 13.3656C17.4434 13.4367 17.4535 13.4824 17.4738 13.5332C17.4941 13.584 17.4586 13.6805 17.4484 13.7566C17.4332 13.8379 17.4992 13.9191 17.5195 13.782V13.782ZM16.377 12.6648C16.3262 12.6648 16.2957 12.7055 16.3262 12.8477C16.3414 12.934 16.2754 12.9188 16.2551 12.8731C16.2246 12.8274 16.2043 12.7359 16.1535 12.6547C16.1078 12.5734 16.1281 12.7055 16.1281 12.7867C16.118 12.8578 16.1687 12.8578 16.2145 12.9238C16.2602 12.9899 16.2145 13.0102 16.1687 13.0102C16.123 13.0102 16.1434 13.1117 16.1535 13.1777C16.1688 13.2488 16.1434 13.259 16.1078 13.2031C16.0723 13.1473 16.0926 13.0609 16.1027 12.9492C16.1078 12.8477 16.1129 12.8731 16.0418 12.8477C15.9758 12.8223 15.991 12.8121 16.0113 12.7461C16.0367 12.6852 16.0621 12.6547 16.0316 12.6191C16.0012 12.5938 16.0063 12.5734 16.057 12.5684C16.1078 12.5582 16.0875 12.5227 16.1281 12.5074C16.1738 12.4973 16.1941 12.5176 16.2043 12.4363C16.2043 12.3652 16.2297 12.3246 16.2754 12.35C16.3109 12.4516 16.3465 12.6141 16.377 12.6598V12.6648ZM17.0016 13.3961C17.0016 13.5281 17.0016 13.5789 17.0574 13.6246C17.1184 13.6754 17.1082 13.7262 17.1336 13.8481C17.159 13.9649 17.159 14.2188 17.2352 14.3914L17.3164 14.5793C17.3549 14.5473 17.386 14.5075 17.4078 14.4625C17.4281 14.4219 17.3723 14.3356 17.3266 14.2594C17.2809 14.1832 17.3316 14.1578 17.3773 14.0664C17.418 13.9649 17.3672 13.9649 17.3012 13.9395C17.2301 13.9141 17.2301 13.8531 17.1945 13.7516C17.159 13.65 17.1641 13.6094 17.1945 13.5535C17.2098 13.4977 17.1945 13.452 17.1438 13.4418C17.093 13.4266 17.1082 13.391 17.1234 13.3301C17.1488 13.2641 17.159 13.2539 17.0828 13.2691C17.027 13.2844 17.0117 13.2945 16.9914 13.3199C17.0016 13.3352 17.0016 13.3606 17.0016 13.3961Z" fill="#00B800"/>
<path d="M17.7227 13.6601C17.7227 13.7312 17.7227 13.7668 17.7023 13.7922C17.682 13.8176 17.6922 13.8582 17.7125 13.8937C17.7277 13.9344 17.743 13.9851 17.7277 14.0461C17.7074 14.1172 17.7379 14.1781 17.7734 14.1984C17.809 14.2137 17.8293 14.1984 17.8191 14.2847C17.8148 14.3245 17.8194 14.3648 17.8326 14.4025C17.8458 14.4403 17.8672 14.4747 17.8953 14.5031C17.941 14.5387 17.9715 14.5996 17.9715 14.6351C17.9613 14.6707 17.9969 14.7113 18.0426 14.7316C18.0883 14.7469 18.0781 14.757 18.0781 14.7824C18.0781 14.8078 18.0984 14.8078 18.1492 14.8179C18.2 14.8281 18.2355 14.8637 18.2965 14.9297C18.3523 15.0008 18.4285 15.0414 18.4184 14.9601C18.4082 14.8789 18.4184 14.8383 18.3473 14.7976C18.266 14.7621 18.2102 14.5793 18.1797 14.4574C18.1481 14.3324 18.0832 14.2183 17.9918 14.1273C17.9867 14.0461 17.9969 14.0004 17.941 13.9597C17.9185 13.9424 17.9004 13.9201 17.8881 13.8945C17.8757 13.8689 17.8695 13.8409 17.8699 13.8125C17.8699 13.7668 17.8344 13.7109 17.8141 13.7058C17.7887 13.6906 17.7785 13.6551 17.7785 13.6195C17.7785 13.584 17.7277 13.589 17.7277 13.6551L17.7227 13.6601Z" fill="#5D3100"/>
<path d="M17.3926 17.0015C17.5478 16.9805 17.6997 16.9395 17.8445 16.8796C17.9214 16.9379 18.0096 16.9794 18.1035 17.0015C17.9969 17.0269 17.9258 17.0117 17.9004 16.9914C17.9105 17.0269 17.9512 17.0777 17.9715 17.0828C17.8699 17.0777 17.7531 17.0523 17.7176 17.0167C17.6262 17.0523 17.4789 17.0625 17.3926 17.0066V17.0015ZM17.5957 17.1539L17.8598 17.1894C17.7938 17.2503 17.8496 17.3011 17.9613 17.291C17.9055 17.3011 17.8496 17.3214 17.8852 17.3265C18.0243 17.3281 18.1623 17.3022 18.2914 17.2503C18.2051 17.3621 17.7734 17.4687 17.5957 17.1488V17.1539ZM17.7734 17.4281C17.8242 17.4027 17.9613 17.4128 18.0273 17.4433C17.9512 17.4687 17.8141 17.4687 17.7734 17.4281Z" fill="#00D860"/>
<path d="M17.9766 17.4281C18.068 17.4129 18.3371 17.4789 18.4336 17.418C18.398 17.5043 18.2305 17.5195 18.1746 17.4992C18.1137 17.4789 18.0629 17.4535 18.0223 17.4586C18.0375 17.4434 18.007 17.4434 17.9715 17.4281H17.9766Z" fill="black"/>
<path d="M18.073 17.5602C18.1441 17.5703 18.4031 17.5399 18.4793 17.5094C18.5656 17.5348 18.7332 17.5856 18.7687 17.5754C18.6926 17.6262 18.5402 17.5957 18.4895 17.5754C18.3473 17.6262 18.2355 17.6364 18.073 17.5602Z" fill="#00D860"/>
<path d="M18.1949 17.6059C18.3016 17.6262 18.3879 17.611 18.4895 17.5754C18.5461 17.5973 18.6065 17.6077 18.6672 17.6059C18.718 17.6313 18.7789 17.6668 18.8398 17.6719C18.7261 17.6912 18.6093 17.6825 18.4996 17.6465C18.3725 17.6452 18.2465 17.6694 18.1289 17.7176C18.1289 17.6821 18.1492 17.6364 18.1949 17.6059Z" fill="#00D860"/>
<path d="M18.073 17.0777C18.1543 17.1031 18.4488 17.093 18.5961 17.027C18.657 16.9914 18.6926 17.0371 18.6215 17.0625C18.3828 17.1437 18.1898 17.1793 18.0477 17.1082C17.9918 17.0727 17.9867 17.0473 18.073 17.0777V17.0777Z" fill="black"/>
<path d="M19.5051 16.6765C19.1496 16.8492 18.9109 16.9 18.4082 16.7476C18.3625 16.7324 18.332 16.7476 18.3828 16.7781C18.5078 16.8321 18.6392 16.8696 18.7738 16.8898C18.8398 16.8898 18.8145 16.9253 18.7738 16.9355C18.7332 16.9457 18.723 16.9761 18.7738 16.9507C18.8348 16.9304 19.1293 16.9253 19.2562 16.9914C19.307 17.0167 19.3273 17.0117 19.3172 16.9914C19.3121 16.966 19.3426 16.9558 19.3832 16.9507C19.4238 16.9507 19.4441 16.9355 19.4137 16.9203C19.3883 16.905 19.3781 16.9 19.4035 16.8898C19.4289 16.8796 19.4289 16.8695 19.3934 16.8593C19.3578 16.8593 19.3375 16.8441 19.368 16.8238C19.4035 16.8085 19.4492 16.7984 19.4898 16.7984C19.4949 16.773 19.4797 16.6968 19.5051 16.6816V16.6765Z" fill="#00D860"/>
<path d="M18.9109 16.7222C19.1974 16.7262 19.4761 16.6291 19.698 16.448C19.7641 16.4886 19.8656 16.5343 19.9164 16.5496C19.9672 16.5546 20.018 16.6003 19.9316 16.6003C19.8555 16.6003 19.7387 16.5648 19.6879 16.5496C19.4541 16.6907 19.1838 16.7596 18.9109 16.7476C18.8602 16.7425 18.8398 16.7171 18.9109 16.7222Z" fill="black"/>
<path d="M18.3016 15.6C18.4027 15.6794 18.5285 15.7207 18.657 15.7168C18.7347 15.7748 18.8226 15.8178 18.916 15.8437C18.8094 15.8894 18.6926 15.925 18.6621 15.9605C18.6113 15.9148 18.5504 15.925 18.5301 15.8996C18.4895 15.9351 18.4945 15.9605 18.525 15.9808C18.5504 16.0011 18.7891 16.0367 18.85 16.0215C18.9059 16.0011 18.9211 16.057 18.8754 16.0722C18.7434 16.1129 18.4996 16.0722 18.4184 15.9351C18.332 15.8031 18.266 15.7523 18.0324 15.8742C18.007 15.8082 18.007 15.7929 17.9613 15.7929C17.9105 15.7929 17.8344 15.732 17.8953 15.7371C17.9613 15.7371 18.1492 15.7117 18.3016 15.6V15.6Z" fill="#00D860"/>
<path d="M18.3574 15.8945C18.3219 15.9098 18.2051 15.9707 18.1645 15.9707C18.1289 15.9758 18.0578 16.0367 18.1289 16.0367C18.2051 16.0367 18.2965 15.9605 18.3473 15.9504C18.4031 15.9402 18.4031 15.8844 18.3574 15.8996V15.8945ZM18.5809 16.1383C18.5555 16.1383 18.4336 16.1687 18.398 16.1637C18.3625 16.1637 18.3371 16.1738 18.3422 16.1941C18.3422 16.2195 18.3523 16.2297 18.3066 16.2297C18.2559 16.2297 18.2102 16.2449 18.1949 16.2551C18.1797 16.2703 18.1797 16.2855 18.2305 16.2957C18.2813 16.3008 18.3016 16.3008 18.3574 16.2754C18.4184 16.25 18.4691 16.2094 18.5301 16.2043C18.591 16.2043 18.652 16.1281 18.5809 16.1332V16.1383Z" fill="#00D860"/>
<path d="M18.4133 16.2805C18.4641 16.316 18.718 16.3973 18.8094 16.3922C18.9008 16.3871 18.8855 16.4278 18.8145 16.443C18.6723 16.4735 18.4996 16.4125 18.3777 16.3211C18.327 16.2703 18.3777 16.2551 18.4133 16.2805Z" fill="black"/>
<path d="M19.6117 16.4024C19.4188 16.4633 19.2207 16.443 19.1445 16.4227C19.0633 16.4075 18.9922 16.3973 19.043 16.4481C19.0988 16.4989 19.2715 16.5344 19.373 16.509C19.0227 16.5903 18.9313 16.5801 18.8449 16.5649C18.7385 16.5547 18.6314 16.5547 18.525 16.5649C18.4742 16.5649 18.4031 16.5649 18.3727 16.5395C18.3473 16.5192 18.332 16.4887 18.4234 16.4989C18.5148 16.509 18.525 16.4887 18.4488 16.4735C18.3676 16.4633 18.2559 16.4989 18.3676 16.5649C18.4742 16.636 18.7078 16.5649 18.8602 16.6055C19.0125 16.6462 19.3273 16.6766 19.632 16.4329C19.6473 16.4227 19.6727 16.3821 19.6117 16.4024ZM18.6621 16.118V16.184C18.657 16.1993 18.657 16.2196 18.6824 16.1993C18.7129 16.179 18.7332 16.1485 18.7637 16.1637C18.8115 16.1774 18.8617 16.1808 18.9109 16.1739C18.9465 16.1739 18.9516 16.1637 18.9008 16.1383C18.85 16.118 18.7992 16.1129 18.7688 16.1129C18.7434 16.118 18.7078 16.113 18.6824 16.1028C18.657 16.0876 18.657 16.0977 18.6621 16.118V16.118Z" fill="#00D860"/>
<path d="M19.1598 16.2094C19.1109 16.2045 19.063 16.1925 19.0176 16.1738C18.977 16.1586 18.916 16.1535 18.9617 16.2043C19.0023 16.2602 19.175 16.2906 19.2359 16.2652C19.302 16.2398 19.2715 16.2145 19.3324 16.2449C19.3934 16.2805 19.4543 16.3109 19.5 16.3109C19.5457 16.3109 19.5609 16.3109 19.5102 16.2805C19.4594 16.2551 19.4391 16.2449 19.4391 16.2246C19.4391 16.2043 19.4238 16.1891 19.4695 16.2043C19.5102 16.2195 19.5609 16.2398 19.5965 16.2195C19.6371 16.2043 19.698 16.1637 19.759 16.1637L19.7742 16.1281C19.6879 16.118 19.6371 16.1434 19.6066 16.1535C19.5726 16.1664 19.5358 16.1699 19.5 16.1637C19.4543 16.1535 19.3984 16.1484 19.3832 16.1383C19.368 16.1281 19.368 16.1129 19.4035 16.1078C19.4391 16.1027 19.4543 16.0773 19.4035 16.0875C19.3527 16.0977 19.2156 16.0875 19.1445 16.0672C19.0684 16.0469 19.043 16.0418 19.0074 16.052C18.977 16.0621 18.982 16.0977 19.0277 16.1027C19.0684 16.1027 19.1699 16.1129 19.2105 16.1434C19.2461 16.1789 19.2359 16.1789 19.1953 16.1637C19.1598 16.1434 19.0887 16.1535 19.1598 16.2145V16.2094Z" fill="#00D860"/>
<path d="M19.7691 16.1282L19.759 16.1637C19.8833 16.1586 20.0075 16.1775 20.1246 16.2196C20.1906 16.1688 20.1754 16.1536 20.2262 16.1637C20.277 16.1688 20.3277 16.1891 20.3582 16.1739C20.3836 16.1586 20.3988 16.1637 20.4293 16.1637C20.4547 16.1739 20.5156 16.1637 20.5512 16.1383C20.5816 16.118 20.6578 16.0875 20.7035 16.0875C20.7441 16.0875 20.7949 16.0825 20.7188 16.0672C20.64 16.0627 20.5611 16.0713 20.4852 16.0926C20.4445 16.1079 20.3227 16.118 20.2516 16.118C20.1855 16.118 20.084 16.1536 20.0078 16.1332C19.9266 16.1129 19.8148 16.1282 19.7691 16.1282V16.1282Z" fill="#00D860"/>
<path d="M20.8559 16.0875C20.7188 16.189 20.5461 16.2093 20.3481 16.2246C20.2871 16.2246 20.3074 16.2449 20.3582 16.25C20.5613 16.2703 20.8102 16.1992 20.8863 16.1078C20.9117 16.0875 20.9117 16.0468 20.8559 16.0875V16.0875Z" fill="black"/>
<path d="M19.9012 16.3211C19.957 16.3211 20.1703 16.382 20.2414 16.4023C20.2922 16.4023 20.3074 16.3871 20.2922 16.3668C20.282 16.3465 20.277 16.3312 20.3684 16.3312H20.7238C20.7543 16.3211 20.8254 16.2652 20.8609 16.2601C20.7746 16.2703 20.4191 16.2855 20.3785 16.2804C20.3456 16.2748 20.3116 16.2801 20.282 16.2957C20.2516 16.3109 20.2414 16.3211 20.2008 16.3058C20.1652 16.2957 20.1043 16.2703 20.0738 16.2957C20.0332 16.316 19.9621 16.2957 19.9012 16.3211V16.3211Z" fill="#00D860"/>
<path d="M20.7187 16.3313C20.7543 16.3211 20.8254 16.2602 20.8609 16.2602C20.9219 16.2602 20.9879 16.2805 21.0234 16.2856C21.0539 16.2856 21.0895 16.2856 21.0641 16.2602C21.0387 16.2348 21.0641 16.1891 21.1656 16.2043C21.257 16.2145 21.3078 16.2297 21.3992 16.2196C21.4906 16.2145 21.5363 16.2805 21.709 16.2094C21.6988 16.2805 21.7344 16.2805 21.7648 16.2703C21.8004 16.2602 21.8359 16.2602 21.8918 16.3059C21.9426 16.3465 22.2879 16.3567 22.3691 16.3364C22.4453 16.3211 22.491 16.3618 22.4301 16.3871C22.3691 16.4024 22.3539 16.4278 22.3691 16.4481C22.3793 16.4684 22.3945 16.4887 22.3184 16.4836C22.2473 16.4735 22.232 16.4938 22.1965 16.5243C22.1609 16.5547 22.1457 16.5598 22.0441 16.5395C21.9426 16.5243 21.9223 16.5395 21.8664 16.5496C21.8055 16.5598 21.8004 16.5547 21.7395 16.5395C21.6579 16.511 21.57 16.5058 21.4855 16.5243C21.4094 16.5446 21.3586 16.575 21.2926 16.5547C21.2266 16.5344 21.2215 16.5395 21.2621 16.5039C21.3078 16.4633 21.3129 16.4633 21.3941 16.4532C21.4754 16.443 21.5363 16.4176 21.4805 16.3871C21.4195 16.3567 21.4043 16.3567 21.3281 16.3973C21.257 16.4328 21.2164 16.4582 21.1301 16.4125C21.0488 16.3618 21.0082 16.3719 20.9473 16.3871C20.8914 16.4024 20.8 16.3719 20.7187 16.3364V16.3313ZM21.0031 16.4735C20.8914 16.4887 20.866 16.4227 20.7492 16.4379C20.7187 16.4379 20.6477 16.4887 20.7391 16.4786C20.8254 16.4735 20.9219 16.5192 21.0031 16.5141C21.0895 16.5039 21.0539 16.4684 21.0031 16.4735ZM20.8711 16.5547C20.932 16.5344 21.0488 16.575 21.0945 16.5649C21.1453 16.5598 21.1961 16.5852 21.1402 16.6055C21.0844 16.6207 20.9625 16.575 20.9066 16.5903C20.8559 16.6055 20.7949 16.5852 20.8711 16.5547V16.5547ZM19.7539 16.8594C19.8301 16.8594 20.1094 16.8493 20.2211 16.6157C20.2262 16.5953 20.2363 16.5903 20.2719 16.6157C20.3023 16.6411 20.4344 16.7172 20.6781 16.7325C20.7441 16.7426 20.8152 16.7731 20.6781 16.7629C20.541 16.7528 20.3277 16.7223 20.2566 16.6715C20.1348 16.8645 19.9164 16.8899 19.7488 16.8848C19.6574 16.8848 19.6828 16.8543 19.7488 16.8594H19.7539Z" fill="#00D860"/>
<path d="M20.3633 16.5395C20.3227 16.5903 20.1957 16.6817 20.1398 16.6918C20.0738 16.6918 19.9012 16.6715 19.8555 16.6563C19.8148 16.6411 19.7539 16.6461 19.8199 16.6918C19.9073 16.7377 20.0061 16.7571 20.1043 16.7477C20.1703 16.7375 20.2414 16.7122 20.2871 16.7477C20.3379 16.7833 20.4344 16.834 20.4852 16.8239C20.5524 16.8103 20.6218 16.812 20.6883 16.829C20.7187 16.8442 20.7797 16.895 20.6883 16.8645C20.5969 16.834 20.5258 16.8645 20.4801 16.8391C20.5309 16.9051 20.6324 17.0118 20.7238 17.0118C20.7441 17.0118 20.7594 17.0473 20.7137 17.0676C20.7543 17.093 20.8609 17.1083 20.9168 17.0575C20.9016 17.0778 20.9117 17.093 20.932 17.1032C20.9523 17.1133 20.9828 17.1336 20.9422 17.1336C20.9016 17.1387 20.8051 17.1489 20.7746 17.1387C20.866 17.1946 21.1047 17.2911 21.3434 17.2403C21.3941 17.2403 21.4144 17.2149 21.3434 17.22C21.1809 17.22 21.1758 17.22 21.1453 17.2047C21.1148 17.1895 21.125 17.1743 21.1707 17.159C21.2113 17.1438 21.323 17.1336 21.3738 17.1336C21.4195 17.1336 21.4652 17.1083 21.3738 17.1083C21.2824 17.1083 21.1555 17.1083 21.1098 17.093C21.0641 17.0829 21.0285 17.0575 21.0742 17.0219C21.125 16.9864 21.1758 17.0016 21.2012 16.9711C21.0488 16.9711 20.8559 16.8899 20.9625 16.8086C20.9879 16.7934 20.9777 16.7934 20.9371 16.7883C20.8965 16.7883 20.7848 16.7528 20.734 16.7223C20.6832 16.6918 20.7187 16.6715 20.7543 16.6665C20.668 16.6817 20.4852 16.6309 20.3582 16.5395H20.3633ZM21.7344 16.5344C21.6412 16.5922 21.5342 16.6238 21.4246 16.6258C21.3586 16.6258 21.3434 16.6461 21.3992 16.6563C21.45 16.6614 21.5059 16.6665 21.5312 16.6614C21.5566 16.6563 21.5668 16.6563 21.6074 16.6665C21.6626 16.6883 21.7237 16.6901 21.7801 16.6715C21.8511 16.6518 21.9248 16.6432 21.9984 16.6461C22.0441 16.6461 22.0949 16.6461 21.9984 16.6258C21.9112 16.6093 21.8216 16.6093 21.7344 16.6258C21.7039 16.6309 21.6074 16.6258 21.6582 16.6157C21.701 16.6013 21.7406 16.5789 21.775 16.5497C21.7598 16.5497 21.7496 16.5395 21.7344 16.5344V16.5344ZM21.6887 16.7172C21.6058 16.7788 21.5072 16.8158 21.4043 16.8239C21.5059 16.8594 21.5871 16.9661 21.648 16.961C21.6176 16.9762 21.577 17.0016 21.5414 17.0118C21.6023 17.027 21.7039 17.0118 21.7852 16.961C21.9273 17.0016 22.1102 16.9762 22.1711 16.9254C22.0823 16.9259 21.9955 16.8994 21.9223 16.8493C21.968 16.8493 22.0086 16.8239 22.034 16.7985C21.9223 16.8137 21.7395 16.7579 21.6887 16.7172Z" fill="#00D860"/>
<path d="M21.5414 17.0117C21.582 17.0117 21.6176 16.9761 21.648 16.9609C21.4676 16.9741 21.2874 16.9334 21.1301 16.8441C21.0336 16.7527 21.0336 16.8238 21.1047 16.8847C21.1622 16.9391 21.2317 16.9789 21.3077 17.001C21.3836 17.0231 21.4638 17.0267 21.5414 17.0117V17.0117ZM21.7852 17.2249C21.7445 17.2503 21.5414 17.2605 21.4805 17.2503C21.4145 17.2351 21.3789 17.2402 21.3992 17.2656C21.4195 17.291 21.4246 17.3164 21.3687 17.3113C21.3057 17.3032 21.2417 17.3084 21.1809 17.3265C21.1453 17.3417 21.0895 17.3773 21.1809 17.3621C21.257 17.3519 21.3332 17.3316 21.3992 17.3519C21.4602 17.3671 21.6887 17.3722 21.7344 17.3519C21.775 17.3265 21.7496 17.3316 21.7242 17.3316C21.7039 17.3316 21.6988 17.3214 21.7242 17.3062C21.7547 17.291 21.7801 17.2554 21.7852 17.2249ZM19.8402 16.9507C19.6987 17.0035 19.5525 17.0426 19.4035 17.0675C19.3355 17.1031 19.2614 17.1255 19.1852 17.1335C19.2207 17.164 19.3426 17.1945 19.3934 17.1792C19.3587 17.2094 19.3192 17.2334 19.2766 17.2503C19.3527 17.2453 19.4391 17.2605 19.4797 17.2656C19.3864 17.316 19.2808 17.3389 19.175 17.3316C19.1953 17.3671 19.2258 17.3976 19.2766 17.3976C19.1937 17.4208 19.1064 17.4225 19.0227 17.4027C19.043 17.4535 19.0684 17.4789 19.0988 17.4839C19.0277 17.4941 18.9312 17.5042 18.85 17.4585C18.9109 17.5398 19.048 17.5703 19.2562 17.5449C19.4037 17.5282 19.5449 17.4759 19.6676 17.3925C19.5812 17.4027 19.4695 17.4078 19.4137 17.3925C19.5552 17.3576 19.6905 17.301 19.8148 17.2249C19.7699 17.2261 19.7257 17.2137 19.6879 17.1894C19.7488 17.1945 19.9824 17.1691 20.0484 17.1386C19.9855 17.1247 19.9296 17.0887 19.891 17.0371C20.1454 17.1112 20.4144 17.1199 20.673 17.0624C20.7086 17.0523 20.7187 17.0015 20.6426 17.0117C20.5105 17.0167 20.2566 16.9812 20.1906 16.9507C20.2465 16.9914 20.3106 17.0191 20.3785 17.032C20.2566 17.0675 20.084 17.0929 19.8402 16.9507V16.9507Z" fill="#00D860"/>
<path d="M19.2766 17.2555L19.3934 17.1844C19.3211 17.1882 19.2492 17.1724 19.1852 17.1387C19.2309 17.1387 19.307 17.1133 19.4035 17.0726C19.2309 17.0676 19.1141 17.0676 19.048 17.0371C18.9796 17.0131 18.9059 17.0078 18.8348 17.0219C18.7941 17.032 18.8094 17.098 18.9871 17.0828C18.8779 17.134 18.756 17.1517 18.6367 17.1336C18.657 17.1945 18.6723 17.2555 18.652 17.2859C18.7535 17.3418 19.0074 17.418 19.1344 17.4027C19.0227 17.3621 18.9617 17.3164 19.0531 17.3062C19.1445 17.2961 19.1953 17.2758 19.2766 17.2555V17.2555Z" fill="#00D860"/>
<path d="M18.9922 17.5601C19.2105 17.5398 19.5102 17.5347 19.7539 17.3367C19.8148 17.2808 19.8555 17.3011 19.7945 17.3519C19.5806 17.5151 19.3219 17.609 19.0531 17.6211C18.9313 17.6211 18.8754 17.5703 18.9922 17.5601V17.5601Z" fill="black"/>
<path d="M20.668 17.1843C20.6121 17.2097 20.4547 17.2351 20.409 17.23C20.3582 17.225 20.2922 17.2199 20.2566 17.2402C20.216 17.2605 20.216 17.2757 20.2668 17.2859L20.4191 17.291C20.3872 17.3084 20.3594 17.3327 20.3379 17.3621C20.409 17.3417 20.5512 17.3773 20.5918 17.4027C20.5562 17.4078 20.5258 17.3976 20.5004 17.3824C20.6273 17.5195 21.0031 17.5195 21.059 17.4941C21.0336 17.5144 21.0082 17.5347 20.9777 17.5449C21.0844 17.5601 21.2062 17.5601 21.323 17.489C21.2602 17.4912 21.1974 17.4878 21.1352 17.4789C21.1612 17.4549 21.1925 17.4375 21.2266 17.4281C21.1501 17.4189 21.0726 17.4241 20.998 17.4433C21.0133 17.4128 21.0336 17.3773 21.0641 17.3671C20.8982 17.3792 20.7314 17.362 20.5715 17.3164C20.7035 17.3316 20.8457 17.2554 20.9117 17.2554C20.8102 17.2554 20.6934 17.23 20.668 17.1843V17.1843ZM20.1957 17.291C20.1059 17.3076 20.0176 17.3314 19.9316 17.3621C19.891 17.3824 19.8555 17.4027 19.9316 17.4027C19.9418 17.3993 19.9519 17.3959 19.9621 17.3925C19.9316 17.3925 19.891 17.3925 19.952 17.3722C20.0129 17.3519 20.0941 17.3113 20.1957 17.291V17.291ZM20.0129 17.5093C20.0434 17.5093 20.1906 17.5093 20.2414 17.4585C20.3023 17.5042 20.4141 17.5703 20.4852 17.5703C20.5613 17.5703 20.5512 17.5855 20.4852 17.5957C20.4242 17.6007 20.3023 17.5601 20.2414 17.5144C20.1551 17.5449 20.084 17.5195 20.0078 17.5042L20.0129 17.5093ZM18.9262 18.139C19.0734 18.1949 19.2613 18.2406 19.4035 18.1898C19.4848 18.2609 19.6473 18.266 19.7387 18.2457C19.825 18.2304 19.9062 18.2152 20.0027 18.2457C20.1043 18.2812 20.3023 18.2863 20.3582 18.332C20.3074 18.332 20.2008 18.332 20.1703 18.3421C20.1449 18.3472 20.1602 18.3625 20.2059 18.3929C20.0248 18.3865 19.8455 18.4305 19.6879 18.5199C19.7112 18.467 19.7497 18.4223 19.7986 18.3916C19.8474 18.3608 19.9044 18.3454 19.9621 18.3472C19.8809 18.3167 19.6066 18.3167 19.5203 18.3675C19.4949 18.3421 19.4645 18.2964 19.4645 18.2812C19.3172 18.3574 19.043 18.2406 18.9262 18.139V18.139ZM18.5555 17.875C18.7281 17.8546 18.85 17.7988 18.9008 17.7429C18.9262 17.7734 19.0531 17.8039 19.1902 17.7582C19.1787 17.7678 19.1705 17.7809 19.1668 17.7955C19.1632 17.8101 19.1643 17.8255 19.1699 17.8394C19.0596 17.8489 18.9515 17.8763 18.85 17.9207C18.7941 17.946 18.6215 17.9714 18.5656 17.941C18.5148 17.9105 18.5098 17.88 18.5555 17.875Z" fill="#00D860"/>
<path d="M19.1699 17.8394C19.0785 17.8394 18.9109 17.8902 18.85 17.9207L18.8754 18.007C19.1012 17.9418 19.3365 17.916 19.5711 17.9308C19.5051 17.9308 19.368 18.007 19.2969 18.0172C19.4797 18.0019 19.6523 18.0426 19.7031 18.0527C19.7488 18.0629 19.7539 18.1035 19.7234 18.134C19.6879 18.1644 19.6727 18.1695 19.7488 18.1695C19.8199 18.1695 19.9773 18.1695 20.0484 18.0984C20.018 18.0679 19.9469 18.0781 19.9266 18.0578C19.9724 18.0418 20.014 18.0158 20.0484 17.9816C19.977 17.9849 19.9054 17.9798 19.8352 17.9664C19.7945 17.9562 19.7641 17.9461 19.8148 17.9156C19.8496 17.898 19.8806 17.8738 19.9062 17.8445C19.8148 17.8699 19.6727 17.8953 19.5508 17.7937C19.6016 17.814 19.7031 17.8039 19.7387 17.7886C19.698 17.7633 19.6676 17.7531 19.6371 17.7531C19.7285 17.7023 19.9164 17.6617 20.1551 17.7531C20.2655 17.7442 20.3766 17.751 20.4852 17.7734C20.5258 17.7379 20.602 17.6465 20.6426 17.6261C20.3684 17.6465 19.8758 17.5957 19.8809 17.4535C19.7945 17.5703 19.5914 17.6363 19.5 17.616C19.4898 17.6566 19.5254 17.7074 19.5559 17.7379C19.4695 17.7531 19.307 17.7734 19.2309 17.7531C19.2715 17.7988 19.3527 17.8344 19.4035 17.8293C19.302 17.8293 19.2512 17.8496 19.1699 17.8394Z" fill="#00D860"/>
<path d="M19.7488 18.1695C19.8199 18.1695 19.9773 18.1695 20.0484 18.0984C20.018 18.068 19.9469 18.0781 19.9266 18.0578C19.9723 18.0417 20.0139 18.0157 20.0484 17.9816C20.2465 17.9613 20.4191 17.9715 20.5055 17.9461C20.5918 17.9207 20.8102 17.9359 20.8457 17.9207C20.6629 17.9562 20.6273 17.9715 20.6121 18.002C20.602 18.0324 20.6781 18.0527 20.7187 18.0527C20.6375 18.0527 20.5309 18.1391 20.5156 18.1746C20.4141 18.1137 20.3582 18.1898 20.343 18.2152C20.2947 18.2033 20.2444 18.2017 20.1954 18.2104C20.1464 18.2192 20.0998 18.2381 20.0586 18.266C19.957 18.2406 19.891 18.2203 19.7895 18.2406C19.8555 18.2254 19.8402 18.1797 19.7488 18.1746V18.1695ZM20.6426 17.6211C20.7086 17.6211 20.8457 17.6313 20.8965 17.6211C20.8644 17.6362 20.8352 17.6568 20.8102 17.682C20.9727 17.6617 21.1859 17.6516 21.2469 17.6617C21.1758 17.6465 21.0945 17.6973 21.0539 17.7277C21.0133 17.7531 21.0387 17.7633 21.0894 17.7734C21.1453 17.7785 21.2215 17.8242 21.1199 17.809C21.0069 17.7967 20.893 17.795 20.7797 17.8039C20.734 17.809 20.7086 17.7887 20.7797 17.7785C20.8406 17.7633 20.8914 17.743 20.9219 17.7277C20.858 17.738 20.7928 17.738 20.7289 17.7277C20.6934 17.7176 20.673 17.6973 20.7086 17.6922C20.7441 17.6871 20.7238 17.6668 20.6832 17.6719C20.6426 17.682 20.541 17.7227 20.4852 17.7734C20.5461 17.7125 20.602 17.6566 20.6426 17.6262V17.6211Z" fill="#00D860"/>
<path d="M19.9316 17.7328C19.9707 17.7776 20.0192 17.8131 20.0737 17.8368C20.1281 17.8605 20.1871 17.8718 20.2465 17.8699C20.277 17.8699 20.3328 17.9106 20.2566 17.9156C20.0637 17.9207 19.9672 17.8801 19.8809 17.7531C19.8606 17.7227 19.891 17.6871 19.9316 17.7278V17.7328ZM21.0996 16.0926C21.2513 16.1531 21.4137 16.1824 21.577 16.1789C21.6074 16.1789 21.6582 16.2043 21.5922 16.2145C21.4187 16.2355 21.2429 16.2018 21.0895 16.118C21.0539 16.0977 21.0641 16.0774 21.1047 16.0926H21.0996Z" fill="black"/>
<path d="M21.2062 16.0977C21.3687 16.0876 21.4906 16.0876 21.5363 16.1383C21.6277 16.1079 21.7902 16.0876 21.8258 16.1028C21.8664 16.113 21.907 16.0876 21.8207 16.0672C21.7344 16.0469 21.5312 16.0368 21.4703 16.052C21.4094 16.0622 21.2164 16.0723 21.1453 16.0622C21.1707 16.0672 21.191 16.0723 21.2062 16.0876V16.0977ZM21.8258 16.1536C21.9019 16.113 22.1203 16.1536 22.1812 16.1231C22.1305 16.179 22.3336 16.184 22.5012 16.1383C22.4352 16.179 22.298 16.1891 22.2371 16.2145C22.1762 16.2399 22.1406 16.2196 22.0949 16.2044C22.0441 16.184 21.9273 16.1383 21.8258 16.1536Z" fill="#00D860"/>
<path d="M22.5012 16.1383C22.3336 16.1891 22.1355 16.1789 22.1863 16.123C22.1152 16.1535 21.902 16.1129 21.8309 16.1535C21.902 16.1078 21.9629 16.1434 22.0187 16.0469C22.0594 16.057 22.1355 16.0621 22.1711 16.0215C22.2251 16.0324 22.2767 16.0531 22.3234 16.0824C22.3539 16.1078 22.3945 16.0773 22.359 16.0316C22.4301 16.0063 22.3844 16.0723 22.5672 16.0215C22.6027 16.0113 22.6941 15.9961 22.7297 15.9961C22.6612 16.0523 22.5861 16.1 22.5062 16.1383H22.5012Z" fill="#00D860"/>
<path d="M19.1902 15.3562L19.1496 11.3597C19.1496 11.1769 19.0633 11.2125 19.0633 11.3597V15.3207L19.1902 15.3562ZM20.4852 11.1414L20.6273 15.3562L20.6121 15.3917H20.5156L20.4242 11.1414H20.4852ZM21.709 14.7062L21.6379 11.2835C21.6379 11.182 21.5465 11.1972 21.5465 11.3039L21.6176 14.7062H21.709Z" fill="#FFFF00" stroke="black" stroke-width="0.05"/>
<path d="M19.7641 11.8422L18.5047 11.827C18.4539 12.0809 18.7586 12.0606 18.8602 12.0047C19.0125 12.0961 19.1141 12.0961 19.1902 12.0047C19.2918 12.0961 19.4441 12.0758 19.4949 12.0047C19.6371 12.1317 19.7996 12.0047 19.7641 11.827V11.8422ZM19.8555 12.4567H18.5961C18.3574 12.675 18.6469 12.7817 18.9008 12.6344C18.9363 12.7106 19.0785 12.7461 19.1902 12.6903C19.2918 12.7614 19.4441 12.7106 19.5102 12.6395C19.6371 12.6903 19.7996 12.7106 19.8707 12.4567H19.8555ZM19.8199 13.2692H18.5961C18.5758 13.4672 18.8297 13.4469 18.916 13.391C19.0074 13.5383 19.2207 13.5028 19.2969 13.4114C19.4238 13.5028 19.5305 13.4824 19.5863 13.4114C19.7082 13.518 19.8402 13.3758 19.8199 13.2692V13.2692ZM19.891 14.0614L18.5047 14.041C18.4336 14.2746 18.6469 14.3102 18.7383 14.2594C18.7738 14.3813 18.9516 14.3457 19.0074 14.2594C19.0785 14.3102 19.1699 14.2746 19.2105 14.2239C19.2258 14.3457 19.3883 14.366 19.5152 14.2594C19.7691 14.4371 19.9977 14.2239 19.8707 14.0563L19.891 14.0614ZM21.0945 13.7364H19.9621C20.0129 13.9496 20.1246 14.0055 20.3023 13.8785C20.4496 14.0258 20.6629 13.9699 20.7187 13.8989C20.9727 14.0969 21.0945 13.8633 21.0945 13.716V13.7364ZM20.993 12.9442L19.8758 12.9086C19.891 13.193 20.1602 13.1778 20.3023 13.0711C20.3937 13.193 20.5766 13.1574 20.6629 13.0711C20.7898 13.2133 21.0234 13.1219 20.9879 12.9442H20.993ZM21.1352 12.0606H19.9469C19.9469 12.2586 20.216 12.3653 20.4141 12.1875C20.4648 12.4211 20.6832 12.35 20.7695 12.2586C20.9168 12.4364 21.2266 12.2231 21.1352 12.0758V12.0606ZM21.059 11.4664L19.9824 11.4817C19.9824 11.6645 20.2363 11.7356 20.3227 11.5934C20.3734 11.6797 20.5562 11.6645 20.6121 11.5934C20.6832 11.7203 20.7898 11.6289 20.8254 11.5934C20.9523 11.6797 21.0793 11.6289 21.059 11.4664ZM22.3031 11.8625L21.0082 11.8422C21.0082 11.9692 21.1352 12.025 21.2215 11.9692C21.2215 12.1164 21.4043 12.152 21.5262 12.0403C21.6023 12.1672 21.8309 12.1875 21.9273 12.0403C22.1051 12.2028 22.3234 12.0758 22.2828 11.8625H22.3031ZM22.2879 12.9289H21.0234C21.0234 13.1067 21.2266 13.1574 21.3484 13.0711C21.3687 13.2133 21.5313 13.2285 21.6176 13.1422C21.7445 13.2692 21.9223 13.2844 22.034 13.1422C22.1762 13.193 22.3031 13.0711 22.2879 12.9239V12.9289ZM22.2117 13.8785H21.2063C21.2063 14.0614 21.4195 14.0614 21.5109 13.9699C21.6176 14.0969 21.7648 14.0969 21.8512 14.0055C21.9781 14.1121 22.1965 14.0766 22.2117 13.8785Z" fill="white" stroke="black" stroke-width="0.05"/>
<path d="M20.6121 15.3918C20.0687 15.3918 19.5102 15.3918 19.1344 15.3563C18.7535 15.3207 18.6469 15.2496 18.3777 15.0871L17.3672 14.4727C17.2809 14.4321 17.1895 14.4879 17.3164 14.559L18.3219 15.2243C18.5961 15.4071 18.7738 15.5696 18.9312 15.7676C19.1496 16.0012 19.2969 16.0012 19.4035 15.9657C19.5102 15.9301 19.6574 15.8743 19.8199 15.9098C19.9621 15.9454 20.1754 15.9606 20.2871 15.9454C20.3785 16.0368 20.6121 16.0164 20.7391 15.9809C20.8377 15.9501 20.9425 15.9448 21.0437 15.9657H21.3484C21.4398 15.9657 21.6734 15.9098 21.8359 15.9301C22.0137 15.9657 22.1762 15.9301 22.2879 15.9301C22.4038 15.8997 22.5247 15.8928 22.6434 15.9098C22.7314 15.8484 22.7959 15.7588 22.8262 15.6559C22.9328 15.6407 22.9684 15.6204 22.9887 15.5696L23.0953 15.2801H23.1309V15.1735L23.0598 15.0618L23.0953 14.884L23.1867 14.8485L23.1512 14.6657L21.5668 14.7012C21.5079 14.7545 21.4686 14.826 21.4551 14.9043L20.9879 14.9754C20.9371 14.9907 20.8813 14.9907 20.8254 15.0618L20.6121 15.3918Z" fill="black" stroke="black" stroke-width="0.05"/>
<path d="M22.5012 14.691L22.7348 13.8074C22.7703 13.716 22.684 13.7008 22.6434 13.8074L22.4098 14.691H22.5012Z" fill="black" stroke="black" stroke-width="0.05"/>
<path d="M23.4203 13.7008C23.2223 13.7871 23.1156 13.843 23.0242 13.8074C22.9328 13.7719 22.8211 13.7567 22.7551 13.7871C22.7558 13.7939 22.7558 13.8007 22.7551 13.8074C22.6883 14.0362 22.6206 14.2648 22.552 14.493C22.7043 14.5438 22.9531 14.5438 23.009 14.493C23.0801 14.4219 23.2426 14.4422 23.3289 14.4422C23.3797 14.366 23.4 14.2746 23.3797 14.2391C23.3645 14.2035 23.3797 14.1121 23.3797 14.0614C23.3797 14.0055 23.4559 13.8074 23.4203 13.7008Z" fill="white" stroke="black" stroke-width="0.05"/>
<path d="M18.8805 12.0047C18.5324 12.9141 18.0478 13.7652 17.4434 14.5286M17.7988 14.7418C18.5985 14.099 19.2925 13.3348 19.8555 12.477M18.5961 13.2489C18.5402 13.7364 18.393 14.5997 18.3219 15.0516M18.7941 14.3305C18.6113 14.5083 18.3777 14.7977 18.1797 14.9602M20.4648 13.3555C20.3227 13.5028 20.1602 13.6805 19.9977 13.7161M20.5562 13.3911C20.6887 13.5436 20.8559 13.662 21.0437 13.7364M20.4648 12.6192C20.3081 12.7564 20.1249 12.8601 19.9266 12.9239M20.5359 12.6344C20.648 12.7618 20.7844 12.8654 20.9371 12.9391M19.957 12.0657C20.1376 12.0135 20.3041 11.9215 20.4445 11.7965M20.4953 11.7965C20.6223 11.9235 20.8559 12.0504 20.9828 12.0809M19.9926 11.4868C20.1622 11.4564 20.3153 11.3663 20.4242 11.2329M20.475 11.2024C20.607 11.309 20.8406 11.4563 20.9676 11.4715M21.5414 11.6137C21.4703 11.7051 21.2723 11.8473 21.1453 11.8473M21.6328 11.6137C21.6836 11.7051 21.8309 11.8473 21.9223 11.8473M21.059 12.929C21.2512 12.857 21.4235 12.7404 21.5617 12.5887M21.648 12.604C21.7357 12.7381 21.8541 12.8495 21.9934 12.929M21.257 13.8633C21.3332 13.8633 21.5312 13.7516 21.582 13.6297M21.6938 13.5739C21.7922 13.6968 21.9127 13.8001 22.0492 13.8786M18.6824 14.0411C19.0325 13.9033 19.3467 13.688 19.6016 13.4114M19.1699 13.7516C19.343 13.8872 19.5391 13.9904 19.7488 14.0563M18.6316 13.2489C18.7903 13.1854 18.9365 13.0943 19.0633 12.9797M19.1496 12.9594C19.2055 13.0305 19.5863 13.2641 19.7488 13.2641M19.0633 12.2028C18.9259 12.3092 18.7736 12.3947 18.6113 12.4567M19.1496 12.2028C19.2766 12.2942 19.5457 12.4567 19.7082 12.4567M19.0633 11.4817C18.94 11.6205 18.7941 11.7372 18.6316 11.827M19.1496 11.502C19.2258 11.629 19.4391 11.8067 19.5863 11.827M21.0234 12.2891C21.4172 12.97 21.9523 13.5588 22.5926 14.0157M20.0535 11.6239C20.5613 12.345 21.5262 13.909 22.4656 14.4879M22.6434 13.8786C22.4032 14.2041 22.1054 14.4829 21.7648 14.7012M22.5773 14.0715C22.2676 13.5637 22.1051 12.9391 21.8512 12.0911M19.3324 14.3254L19.6879 15.4071M19.2613 14.3051L19.6016 15.3868M19.1699 14.2543L19.4949 15.3715M19.1344 14.2696L19.3883 15.3715M19.3883 15.3309H19.693M19.6574 15.2293H19.368M19.6219 15.1329H19.3324M19.5863 15.0465H19.2969M19.5305 14.9348H19.2969M19.2766 14.8485H19.5102M19.2563 14.7774H19.4949M19.241 14.686H19.4594M19.2258 14.6149H19.4238M19.2055 14.5235H19.3883M19.1852 14.4524H19.368M19.1699 14.3965H19.3477M19.1699 14.3254H19.3324M18.8652 14.3254L18.6469 15.2243M18.916 14.3254L18.7383 15.2598M18.9719 14.2899L18.8297 15.2801M19.043 14.2696L18.9363 15.3157M19.0633 15.2446H18.7027M19.0582 15.1532H18.652M19.0582 15.0465H18.6875M19.048 14.9551H18.7078M19.0633 14.8637H18.723M19.0684 14.7571H18.7637M19.0684 14.6657H18.7637M19.048 14.5743H18.7789M19.048 14.4879H18.8145M19.048 14.3965H18.8348M19.048 14.3458H18.85M19.0328 15.3309V14.2696M20.2008 13.9141L19.4797 15.3715M20.2566 13.8938L19.6473 15.3868M20.2922 13.8735L19.8047 15.3868M20.348 13.9141L19.952 15.3868M19.9672 15.336H19.5152M20.0027 15.1887H19.5711M20.023 15.0821H19.6523M20.084 14.9754H19.7234M20.0992 14.8637H19.759M20.1398 14.7571H19.8148M20.1703 14.6301H19.8859M20.1906 14.5387H19.9215M20.2262 14.4372H19.9723M20.2465 14.361H20.0129M20.2668 14.2899H20.0129M20.2465 14.2188H20.0637M20.2465 14.1629H20.084M20.2617 14.0918H20.1195M20.2973 14.0208H20.1602M20.3023 13.9649H20.1805M20.7898 13.9446L21.0945 14.9551M20.8406 13.9649L21.2215 14.9348M20.8965 13.9649L21.3535 14.9196M21.4551 14.8282L20.9523 13.9446M21.4602 14.8485H21.0945M21.4195 14.7012H21.0641M21.3687 14.5946H21.0234M21.2926 14.4676H20.9879M21.2215 14.361H20.9523M21.1555 14.234H20.9168M21.0945 14.1071H20.8813M21.0234 14.0004H20.8457M21.4195 14.0208L21.0945 14.9551M21.5109 13.9801L21.2215 14.9348M21.3484 14.9196L21.5668 14.0208M21.6176 14.0563L21.4398 14.8993M21.1352 14.8485H21.4398M21.1707 14.7368H21.4754M21.2063 14.6149H21.4957M21.257 14.5032H21.5312M21.2926 14.3762H21.5465M21.3332 14.2747H21.5668M21.384 14.1426H21.6023M21.4195 14.0411H21.6023M21.7648 14.0563L21.907 14.7012M21.8156 14.0208L22.0187 14.6809M21.8918 14.0208L22.1051 14.6809M21.9781 14.0563L22.2117 14.686M22.1965 14.6352H21.8918M22.1609 14.5387H21.8715M22.1254 14.4524H21.8512M22.0898 14.3407H21.8156M22.034 14.2543H21.7801M21.9984 14.1629H21.7648M21.9629 14.0715H21.7445" stroke="black" stroke-width="0.05"/>
<path d="M19.0023 15.727C19.0825 15.6835 19.173 15.6625 19.2641 15.666C19.3553 15.6696 19.4438 15.6977 19.5203 15.7473C19.6727 15.6609 19.9418 15.6863 20.0687 15.798C20.2617 15.666 20.4242 15.6457 20.6121 15.7727C20.7645 15.6711 20.9777 15.6609 21.1555 15.7828C21.323 15.7016 21.5109 15.6355 21.6734 15.8133C21.5719 15.7422 21.3687 15.6812 21.1555 15.8437C20.9879 15.6812 20.7035 15.7422 20.6121 15.8539C20.578 15.8167 20.5364 15.7872 20.4901 15.7673C20.4437 15.7474 20.3936 15.7376 20.3432 15.7386C20.2928 15.7396 20.2431 15.7512 20.1976 15.7729C20.152 15.7945 20.1115 15.8256 20.0789 15.8641C19.9113 15.7219 19.6574 15.7168 19.5203 15.8285C19.4137 15.7422 19.2562 15.6711 19.0023 15.727Z" fill="#00B800"/>
<path d="M21.5566 15.5289C20.6507 15.6243 19.7365 15.6072 18.8348 15.4781C18.718 15.4425 18.7484 15.4019 18.85 15.4273C19.4355 15.5073 20.0276 15.5277 20.6172 15.4882L20.9066 15.0972C20.9574 15.0414 20.9676 15.0312 21.059 15.016L21.4652 14.95V15.0058L21.4348 15.0363C21.4348 15.1277 21.4551 15.3613 21.4703 15.4527C21.4906 15.4527 21.516 15.4375 21.5211 15.4375C21.5617 15.4273 21.5922 15.5136 21.5617 15.5238L21.5566 15.5289Z" fill="#CF6200"/>
<path d="M22.7805 15.5645H22.877C22.8976 15.5634 22.9174 15.556 22.9338 15.5433C22.9501 15.5306 22.9622 15.5132 22.9684 15.4934L23.0699 15.1989L22.9937 15.0872C23.0072 15.0061 23.019 14.9249 23.0293 14.8434L23.1309 14.8079C23.1309 14.7875 23.1258 14.7266 23.1004 14.7063C22.7805 14.7215 21.8309 14.7571 21.648 14.7571C21.6074 14.7571 21.5871 14.7571 21.5719 14.8129C21.4805 15.1481 21.6074 15.6153 21.9426 15.8793C21.968 15.9047 21.9934 15.8844 21.9527 15.8489C21.8755 15.7736 21.8089 15.6882 21.7547 15.595L21.9934 15.5848C22.0137 15.661 22.0695 15.8286 22.0848 15.854C22.0949 15.8844 22.1203 15.8946 22.1102 15.854C22.0746 15.7524 22.0594 15.6356 22.0441 15.5848L22.298 15.5797L22.3082 15.8184C22.3082 15.854 22.3387 15.854 22.3387 15.8184V15.5747L22.557 15.5696L22.5367 15.8083C22.5367 15.8438 22.552 15.8692 22.5621 15.8083L22.5977 15.5696H22.75C22.75 15.6102 22.6992 15.7676 22.684 15.8032C22.6738 15.8438 22.6891 15.8438 22.7043 15.8032C22.7388 15.7268 22.7643 15.6467 22.7805 15.5645V15.5645Z" fill="#CF6200"/>
<path d="M21.7141 15.5238C21.6937 15.473 21.6125 15.2902 21.6074 15.1582L21.9223 15.148C21.9364 15.2725 21.9568 15.3963 21.9832 15.5188L21.7141 15.5238ZM21.9832 15.148L22.034 15.5188H22.2879L22.2777 15.143L21.9832 15.148ZM21.6176 14.823C21.6074 14.8891 21.6023 15.0312 21.6074 15.0973L21.9172 15.0922L21.8918 14.8129L21.6176 14.823ZM21.9527 14.8129L21.973 15.0871L22.2777 15.082L22.2625 14.8027L21.9527 14.8129ZM22.3234 14.8027C22.3234 14.8637 22.3336 15.0363 22.3285 15.082L22.5977 15.0719C22.5977 15.0109 22.6078 14.8383 22.6027 14.7926L22.3234 14.8027ZM22.6535 14.7926L22.6484 15.0719L22.9328 15.0617C22.948 15.0059 22.9734 14.8434 22.9734 14.7773L22.6535 14.7926ZM22.948 15.1227L22.6434 15.1328C22.6356 15.2566 22.6255 15.3802 22.6129 15.5035L22.9023 15.4934C22.9419 15.4007 22.9759 15.3058 23.0039 15.209L22.948 15.1227V15.1227ZM22.3387 15.1379L22.3437 15.5086L22.5621 15.5035L22.5926 15.1328L22.3387 15.1379V15.1379ZM21.0895 15.0668L20.9727 15.0922C20.8782 15.2286 20.78 15.3624 20.6781 15.4934L21.1047 15.4832L21.0895 15.0719V15.0668ZM21.1453 15.0566L21.1605 15.4781L21.4145 15.4578L21.3789 15.016L21.1453 15.0566Z" fill="black"/>
<path d="M19.891 14.0613H18.5047V14.0258L19.891 14.041V14.0613ZM20.9727 12.9441C20.9879 12.9441 20.9879 12.9441 20.9727 12.9441L19.891 12.9238C19.8707 12.9238 19.8707 12.9238 19.891 12.9238H20.9727V12.9441ZM19.8199 13.2488C19.8352 13.2488 19.8352 13.2691 19.8199 13.2691H18.5961C18.5758 13.2691 18.5961 13.2488 18.5961 13.2488H19.8199ZM19.8555 12.4566C19.8707 12.4566 19.8707 12.477 19.8555 12.477H18.5758C18.5555 12.477 18.5555 12.4566 18.5758 12.4566H19.8555ZM19.7641 11.827C19.7844 11.827 19.7844 11.8422 19.7641 11.8422H18.5199C18.5047 11.8422 18.5199 11.8066 18.5199 11.8066L19.7844 11.827H19.7641Z" fill="black" stroke="black" stroke-width="0.05"/>
<path d="M21.059 11.4664L19.9824 11.4817L21.059 11.4664Z" fill="white" stroke="black" stroke-width="0.05"/>
<path d="M21.1148 12.0758C21.1352 12.0758 21.1352 12.0758 21.1148 12.0758H19.9469C19.9266 12.0758 19.9266 12.0758 19.9469 12.0758H21.1148ZM22.2828 12.9086V12.9238H21.0234C20.9879 12.9238 20.9879 12.9238 21.0234 12.9238H22.293L22.2828 12.9086ZM22.2828 11.8422C22.3234 11.8422 22.3234 11.8625 22.2828 11.8625H21.0082C20.9879 11.8625 20.9879 11.8422 21.0082 11.8422H22.3031H22.2828ZM21.0945 13.7211C21.1148 13.7211 21.1148 13.7363 21.0945 13.7363H19.9469V13.716L21.0945 13.7211ZM22.2117 13.8785C22.232 13.8785 22.232 13.8785 22.2117 13.8785H21.2063H22.2117Z" fill="black" stroke="black" stroke-width="0.05"/>
<path d="M23.1309 14.0613C23.1511 13.9779 23.1511 13.8908 23.1309 13.8074C23.096 13.8171 23.0591 13.8171 23.0242 13.8074C23.008 13.7946 22.991 13.7827 22.9734 13.7719C22.9734 13.8429 22.9328 14.041 22.8973 14.1121C22.8465 14.1121 22.7195 14.1121 22.6637 14.0765L22.6129 14.2593C22.7016 14.2787 22.7934 14.2787 22.882 14.2593C22.882 14.3609 22.8617 14.4574 22.8059 14.5285C22.8973 14.5285 22.9887 14.5285 23.009 14.4777C23.0598 14.4015 23.0598 14.2949 23.0801 14.239L23.1664 14.2238L23.2578 14.1832L23.3848 14.1679V14.0613L23.4203 13.9851L23.1309 14.0765V14.0613Z" fill="#EF072D" stroke="black" stroke-width="0.05"/>
<path d="M18.6672 7.97268C18.4853 7.96377 18.303 7.97569 18.1238 8.00823C18.073 8.04378 18.0527 8.05901 18.1594 8.07932C18.2711 8.09964 18.4641 8.17073 18.5758 8.22151C18.6341 8.26103 18.6812 8.31505 18.7124 8.37826C18.7435 8.44147 18.7577 8.51171 18.7535 8.58206C18.7138 8.80466 18.7449 9.03411 18.8424 9.23815C18.9398 9.44218 19.0988 9.61054 19.2969 9.71956C19.3121 9.73479 19.3324 9.75511 19.3121 9.8262L19.2613 10.0293C19.2613 10.0598 19.241 10.0953 19.2969 10.0801C19.2406 10.1794 19.1795 10.276 19.1141 10.3696C18.8297 10.3289 18.5758 10.3696 18.5758 10.6895C18.5758 10.725 18.5758 10.7657 18.6113 10.6895C18.6621 10.6184 18.718 10.5473 18.8449 10.5117C18.7738 10.6387 18.7383 10.7453 18.7535 10.8164C18.7535 10.8672 18.7941 10.9078 18.8297 10.8164C18.8449 10.7453 18.916 10.6742 18.9719 10.6184C19.0074 10.6032 19.0074 10.6032 18.9922 10.6539C18.9719 10.7047 19.0074 10.8164 19.043 10.8571C19.0785 10.8875 19.0937 10.8723 19.0785 10.8164C19.0785 10.7453 19.0785 10.6184 19.1699 10.5828C19.2766 10.5117 19.3883 10.5473 19.4238 10.6184C19.4746 10.7098 19.5102 10.6184 19.4594 10.5473C19.4086 10.4762 19.3477 10.3848 19.2766 10.3848L19.4594 10.0801C19.4594 10.0446 19.4949 10.0293 19.5305 10.0446C19.5305 10.0598 19.566 10.0598 19.5812 10.009L19.7082 9.75511L19.8199 9.71956L19.9977 9.9887V10.0953C19.9977 10.1715 19.9266 10.3289 19.9062 10.3848C19.693 10.3848 19.5863 10.3848 19.5102 10.5117C19.4746 10.5625 19.5305 10.5828 19.5863 10.5625C19.6401 10.5302 19.7014 10.5127 19.7641 10.5117C19.7996 10.5117 19.8148 10.5473 19.7641 10.5625C19.6371 10.6184 19.5457 10.7098 19.5457 10.8367C19.5457 10.8723 19.5863 10.8875 19.6016 10.8367C19.6523 10.7453 19.7488 10.6742 19.8352 10.6539C19.8352 10.7453 19.8555 10.8875 19.9266 10.9231C19.9773 10.9637 19.9773 10.9231 19.9621 10.8723C19.9266 10.7809 19.9621 10.6895 20.0129 10.6387C20.1043 10.527 20.3227 10.6742 20.3785 10.7098C20.4141 10.7453 20.4496 10.7606 20.4141 10.659C20.3937 10.527 20.2109 10.4762 20.0535 10.4407L20.2668 9.67893C20.3582 9.73479 20.4496 9.59261 20.5918 9.64846C20.8457 9.75511 21.2215 9.9887 21.2773 10.0446C21.3484 10.0953 21.3687 10.0801 21.4043 10.0446C21.4398 10.0242 21.4957 10.0446 21.5465 10.0446C21.582 10.0598 21.6176 10.0801 21.5668 9.97346C21.4647 9.78242 21.3163 9.62004 21.1352 9.5012C21.2773 9.5012 21.4551 9.5012 21.4551 9.46565C21.4551 9.43011 21.2418 9.35901 21.1504 9.35901C21.2581 9.33921 21.3583 9.29 21.4398 9.21682C21.4754 9.1762 21.4398 9.16096 21.2926 9.16096C20.9168 9.16096 20.7187 9.16096 20.5207 9.05432C20.1957 8.87151 19.9977 8.65823 19.8352 8.58206C19.7641 8.53128 19.7082 8.41956 19.6574 8.32815C19.566 8.06409 19.566 7.9219 19.3324 7.82542C19.2181 7.79231 19.0972 7.78844 18.981 7.81417C18.8648 7.8399 18.7569 7.8944 18.6672 7.97268V7.97268Z" fill="black" stroke="black" stroke-width="0.05"/>
<path d="M18.6875 8.04372H18.3777C18.3777 8.04372 18.3422 8.04372 18.3777 8.04372L18.6469 8.11481C18.6977 8.11481 18.6824 8.16559 18.6469 8.15036C18.6113 8.13512 18.5758 8.15036 18.6113 8.1859C18.7941 8.31286 18.8297 8.36872 18.7941 8.85622L18.8805 8.92731C18.916 8.92731 18.9008 8.96286 18.8805 8.94255C18.8652 8.92731 18.7941 8.94255 18.8449 8.97809C18.8957 9.01872 18.9363 9.01872 18.8805 9.01872C18.8297 9.01872 18.7738 9.05426 18.8805 9.03395C18.9719 9.03395 19.0277 9.0695 18.8805 9.08473C18.7738 9.08473 18.8094 9.12536 18.8805 9.12536C19.0074 9.12536 18.9719 9.1609 18.9313 9.1609C18.9008 9.1609 18.8805 9.19645 18.9719 9.19645H19.0988C19.1141 9.19645 19.1344 9.19645 19.0988 9.21676C19.0633 9.21676 19.0633 9.25231 19.1141 9.25231C19.1699 9.25231 19.2055 9.25231 19.1496 9.26754C19.1344 9.26754 19.0988 9.28786 19.1496 9.30309C19.2766 9.30309 19.2969 9.33864 19.2613 9.35387C19.2258 9.37419 19.2105 9.37419 19.2613 9.37419C19.3121 9.37419 19.368 9.3945 19.3121 9.41481C19.2766 9.41481 19.2613 9.45036 19.3121 9.45036C19.368 9.45036 19.4035 9.4859 19.368 9.50114C19.3324 9.52145 19.3172 9.53669 19.368 9.53669C19.4188 9.53669 19.4391 9.557 19.4035 9.57223C19.368 9.61286 19.3527 9.61286 19.3121 9.57223C19.3121 9.53669 19.2766 9.53669 19.2766 9.57223L19.241 9.52145C19.2258 9.47067 19.1902 9.47067 19.1902 9.52145C19.1902 9.57223 19.1496 9.53669 19.1141 9.52145C19.2009 9.62261 19.3192 9.69164 19.45 9.71742C19.5808 9.74321 19.7164 9.72427 19.8352 9.66364C19.8555 9.66364 19.8707 9.66364 19.8859 9.71442L19.9977 9.91755C20.018 9.95309 20.0484 9.91755 20.0484 9.882L20.1602 9.57731C20.1602 9.52145 20.2313 9.4859 20.2109 9.62809C20.2668 9.59255 20.4852 9.57731 20.668 9.62809C20.8395 9.69717 21.0015 9.78759 21.1504 9.89723C21.1631 9.90735 21.1779 9.91444 21.1937 9.91796C21.2096 9.92148 21.226 9.92134 21.2418 9.91755C21.2926 9.91755 21.3129 9.91754 21.2215 9.82614C21.1352 9.73473 21.1707 9.69919 21.2215 9.73473C21.2773 9.77536 21.3129 9.75504 21.257 9.69919L21.0793 9.53669C21.059 9.53669 21.059 9.50114 20.9727 9.50114H20.6984C20.6629 9.50114 20.6273 9.50114 20.7391 9.53669C20.8406 9.57223 21.0438 9.7195 21.0945 9.75505C21.1504 9.79059 21.1707 9.86169 21.0793 9.79059C20.8742 9.65216 20.6565 9.53315 20.4293 9.43512C19.9469 9.4859 19.5457 9.53669 19.2613 9.232C19.1141 9.0695 19.1141 8.72419 19.3477 8.582C19.3121 8.54645 19.3121 8.5109 19.3324 8.5109V8.40426C19.2969 8.38395 19.2613 8.35348 19.2613 8.31286C19.2105 8.31286 19.1699 8.22145 19.0785 8.26208C18.9922 8.29762 18.9719 8.26208 18.9363 8.24176C18.916 8.20622 18.9008 8.20622 18.8449 8.20622C18.7941 8.20622 18.7535 8.20622 18.7535 8.17067C18.7535 8.13512 18.7941 8.13512 18.8652 8.17067C18.9922 8.22145 19.0988 8.26208 19.1902 8.13512C19.2613 8.0234 19.1496 7.932 19.0074 7.90153C18.8449 7.86598 18.7383 7.98786 18.6672 8.04372H18.6875Z" fill="white" stroke="black" stroke-width="0.05"/>
<path d="M19.4746 7.98792C19.4229 7.94235 19.3624 7.90779 19.2969 7.88635C19.2461 7.88635 19.2461 7.91682 19.2613 7.93713V8.04377C19.2969 8.06409 19.3121 8.09456 19.2613 8.09456C19.2258 8.13518 19.2613 8.26213 19.3121 8.22151H19.3477C19.3477 8.22151 19.3477 8.27737 19.3883 8.27737C19.4238 8.27737 19.3883 8.31291 19.3883 8.32815H19.4238C19.4594 8.32815 19.4391 8.40432 19.4035 8.41956C19.4543 8.41956 19.4746 8.41956 19.4746 8.46018C19.4949 8.49573 19.5457 8.51096 19.5457 8.56174C19.5457 8.62268 19.5457 8.62268 19.4746 8.60237C19.4035 8.58206 19.4035 8.60237 19.3883 8.63792C19.368 8.67346 19.3477 8.6887 19.3883 8.6887C19.4238 8.6887 19.4594 8.70901 19.4035 8.72932C19.3527 8.74456 19.2969 8.72932 19.2766 8.7801C19.2766 8.83596 19.2766 8.85627 19.3121 8.83596L19.4391 8.76487L19.5305 8.7801C19.566 8.80041 19.5305 8.87151 19.4949 8.83596C19.4594 8.80041 19.4238 8.83596 19.4035 8.85627L19.3121 8.89182C19.2766 8.89182 19.241 8.89182 19.2613 8.97815C19.2613 9.23206 19.4594 9.41487 19.8199 9.41487H20.4141C20.3023 9.3387 20.2313 9.30315 20.1805 9.30315H20.1246C20.1449 9.28791 20.1246 9.25237 20.1043 9.25237C20.0891 9.25237 20.0535 9.21682 20.018 9.25237L19.8352 9.3387C19.7996 9.3387 19.7488 9.3387 19.7996 9.30315L19.9621 9.23206C19.9977 9.23206 19.9824 9.19651 19.9824 9.19651C19.9824 9.19651 19.9824 9.14573 20.0332 9.16096C20.1314 9.23332 20.2414 9.28829 20.3582 9.32346C20.409 9.32346 20.4293 9.28792 20.3938 9.27268C20.3799 9.26485 20.3681 9.25387 20.3593 9.24064C20.3505 9.22741 20.3449 9.21229 20.343 9.19651C20.343 9.1762 20.3582 9.16096 20.4293 9.19651C20.5018 9.24287 20.5804 9.27877 20.6629 9.30315C20.7188 9.32346 20.7543 9.32346 20.6629 9.2676L20.2516 8.96291C20.2008 8.91213 20.2008 8.96291 20.216 8.99846C20.2313 9.03401 20.1652 9.04924 20.1246 9.01877C20.0891 8.97815 20.0738 8.96292 20.1246 8.9426C20.1754 8.92737 20.1602 8.90706 20.1043 8.85627C20.0332 8.80041 20.018 8.80041 20.0332 8.85627C20.0535 8.90706 20.0535 8.9426 19.9977 8.92737C19.9469 8.90706 19.891 8.87659 19.9469 8.85627C19.9824 8.82073 20.0332 8.80041 19.9469 8.74456C19.8555 8.69377 19.9063 8.74456 19.891 8.7801C19.8707 8.82073 19.8199 8.82073 19.7996 8.7801C19.7844 8.74456 19.7488 8.72932 19.7641 8.70901C19.7844 8.69377 19.7844 8.67346 19.8148 8.70901C19.8555 8.74456 19.891 8.70901 19.8352 8.65823C19.7844 8.60237 19.7641 8.62268 19.7844 8.65823C19.7996 8.69377 19.7488 8.72932 19.6727 8.65823C19.6371 8.63791 19.6371 8.60237 19.6727 8.58206C19.7082 8.58206 19.7082 8.56682 19.6727 8.53127C19.5457 8.31291 19.6016 8.15042 19.4594 7.98792H19.4746Z" fill="white" stroke="black" stroke-width="0.05"/>
<path d="M19.4848 8.02341C19.4746 8.04373 19.4695 8.04373 19.4492 8.05896C19.4187 8.07419 19.4137 8.13005 19.4594 8.1199C19.4949 8.1199 19.5102 8.09451 19.5203 8.08435C19.5103 8.06305 19.4984 8.04266 19.4848 8.02341V8.02341ZM19.3375 7.90662C19.302 7.94216 19.2969 7.9574 19.3121 7.9574C19.3375 7.9574 19.3273 7.9574 19.3121 7.98279C19.2969 8.00818 19.3426 8.01833 19.3629 8.00818C19.3781 7.99294 19.3832 7.98279 19.3934 8.00818C19.4035 8.02341 19.4289 8.00818 19.4543 7.98787C19.4193 7.95554 19.38 7.9282 19.3375 7.90662V7.90662ZM19.2715 8.10974C19.2258 8.13513 19.2461 8.25193 19.3121 8.22146C19.3375 8.2113 19.3578 8.2113 19.3527 8.23162V8.26208C19.3837 8.2499 19.4115 8.2308 19.434 8.20623C19.4797 8.15544 19.434 8.15544 19.373 8.15544C19.307 8.15544 19.2867 8.15037 19.3527 8.10974C19.4035 8.07419 19.368 8.05388 19.2918 8.06404C19.302 8.07927 19.2918 8.09958 19.2715 8.10974V8.10974ZM19.5457 8.38396C19.5051 8.34841 19.5305 8.3281 19.5711 8.31287L19.5863 8.29255L19.5559 8.17576C19.5355 8.17576 19.5152 8.22146 19.5051 8.24685C19.5 8.27732 19.4898 8.29763 19.4594 8.2824C19.4289 8.27732 19.4035 8.30779 19.3984 8.34334H19.4137C19.4289 8.34334 19.4391 8.36365 19.434 8.37888C19.5203 8.37888 19.5355 8.43474 19.5457 8.48044C19.5609 8.52107 19.5812 8.51091 19.5965 8.4906C19.6066 8.46521 19.5762 8.41951 19.5457 8.37888V8.38396Z" fill="#CF6200"/>
<path d="M19.566 8.87153C19.5508 8.90708 19.5508 8.90708 19.5 8.90708C19.4492 8.90708 19.3883 8.92231 19.3629 8.9477C19.3477 8.96294 19.2613 8.96802 19.2613 9.00864C19.2613 9.04419 19.2613 9.07466 19.2969 9.07974C19.3324 9.07974 19.3375 9.08989 19.3273 9.11528C19.3121 9.14067 19.302 9.19145 19.3629 9.19145C19.4289 9.19653 19.4797 9.1813 19.4949 9.21685C19.5102 9.25239 19.4949 9.31841 19.5051 9.33364C19.5203 9.35903 19.566 9.37427 19.632 9.39458C19.6828 9.40474 19.8504 9.41489 19.9063 9.40981C19.957 9.39966 19.9418 9.37427 19.8859 9.36411C19.8352 9.36411 19.7895 9.35395 19.7742 9.31333C19.7641 9.27778 19.7539 9.25747 19.7895 9.22192C19.8148 9.18638 19.8453 9.16606 19.8301 9.1102C19.8098 9.05942 19.7793 8.98833 19.7184 8.9731C19.6574 8.95786 19.6777 8.87153 19.6168 8.86646L19.566 8.87153V8.87153Z" fill="#FFFF00"/>
<path d="M19.2613 9.38439C19.3172 9.38439 19.3629 9.39962 19.3223 9.41485C19.2715 9.42501 19.2461 9.4504 19.307 9.45548C19.3629 9.46056 19.4086 9.48087 19.368 9.4961C19.3273 9.51134 19.3172 9.53673 19.368 9.53165C19.4187 9.53165 19.4441 9.56212 19.4086 9.58243C19.373 9.60274 19.3477 9.61798 19.3223 9.58243C19.302 9.54689 19.2867 9.53165 19.2766 9.56212C19.2715 9.58751 19.2562 9.5672 19.2359 9.52657C19.2207 9.48087 19.1852 9.47579 19.1953 9.50626C19.2055 9.54181 19.1598 9.54181 19.1191 9.52657C19.1606 9.56869 19.2066 9.60615 19.2563 9.63829C19.307 9.61798 19.3781 9.63829 19.3984 9.63829C19.4188 9.63829 19.4949 9.6586 19.5305 9.67384C19.5711 9.69415 19.5965 9.6586 19.5813 9.62306C19.566 9.57228 19.5609 9.59259 19.5457 9.6129C19.5203 9.63829 19.5203 9.60275 19.5203 9.55196C19.5203 9.51642 19.4949 9.52657 19.4797 9.55196C19.4695 9.57735 19.4543 9.53673 19.4645 9.51134C19.4746 9.48595 19.4645 9.47579 19.4391 9.48087C19.4187 9.49103 19.4187 9.48087 19.4137 9.43009C19.4137 9.38439 19.3934 9.39454 19.3883 9.40978C19.3781 9.43009 19.3629 9.4047 19.3324 9.36915C19.307 9.3336 19.2816 9.35392 19.2309 9.37423L19.2664 9.38439H19.2613Z" fill="#CF6200"/>
<path d="M19.8301 9.66872C19.5762 9.77536 19.3934 9.72966 19.2512 9.63318C19.3121 9.61794 19.3781 9.63318 19.3984 9.63318C19.4445 9.64155 19.4891 9.65697 19.5305 9.67888C19.5711 9.69919 19.5965 9.65857 19.5813 9.61794C19.6219 9.66364 19.6422 9.69411 19.6828 9.69411C19.7336 9.68903 19.7945 9.68396 19.8352 9.66872H19.8301ZM19.2867 8.49568C19.2715 8.44489 19.2563 8.42966 19.2258 8.42966L19.1547 8.4195C19.1242 8.40427 19.0785 8.4195 19.0785 8.47536C19.0785 8.5363 19.0379 8.56169 18.9922 8.59216C18.9414 8.62771 18.916 8.65818 18.916 8.71404C18.916 8.76482 18.9008 8.78513 18.8754 8.82068L18.8195 8.88161L18.8805 8.92224C18.9109 8.93239 18.9008 8.95778 18.8652 8.94763C18.8297 8.94255 18.7992 8.95778 18.8551 8.97302C18.9059 8.98318 18.9363 9.00857 18.8855 9.00857C18.8297 9.00857 18.7688 9.04919 18.8754 9.03903C18.977 9.02888 19.0176 9.07458 18.8957 9.07458C18.7688 9.08474 18.8195 9.12536 18.8855 9.12536C19.0023 9.12536 18.9668 9.15583 18.9363 9.15583C18.9059 9.15583 18.8906 9.19138 18.9668 9.1863H18.9719C18.982 9.17614 18.9922 9.16091 18.9973 9.1406C19.0074 9.10505 19.0227 8.99841 19.0684 8.96286C19.109 8.93239 19.1344 8.89177 19.1344 8.8613C19.1521 8.78563 19.1888 8.71572 19.241 8.65818C19.2867 8.62263 19.302 8.54646 19.2918 8.49568H19.2867Z" fill="#FFFF00"/>
<path d="M19.1953 8.49576C19.1496 8.46529 19.1039 8.4856 19.1039 8.53639C19.1039 8.59225 19.0785 8.61256 19.043 8.62779C19.023 8.63985 19.0059 8.65607 18.9927 8.67535C18.9796 8.69463 18.9707 8.71651 18.9668 8.73951C18.9566 8.78014 18.9719 8.8106 18.9363 8.84615C18.9109 8.8817 18.9008 8.90709 18.9262 8.9274C18.9516 8.94771 18.9516 8.94771 18.9566 8.97818C18.9668 9.00357 19.0176 8.97818 19.0176 8.94264C19.0176 8.90709 19.0328 8.90709 19.0684 8.89185C19.1039 8.87154 19.1598 8.78014 19.1445 8.75474C19.1344 8.73443 19.1039 8.71412 19.1445 8.67857C19.1852 8.63795 19.2258 8.63795 19.2258 8.6024C19.2258 8.56685 19.2359 8.56178 19.2512 8.54654C19.2613 8.53639 19.2207 8.51607 19.1953 8.49576V8.49576Z" fill="#CF6200"/>
<path d="M19.1953 8.44999C19.1648 8.43983 19.1496 8.50077 19.1902 8.51093C19.2309 8.51601 19.2359 8.46015 19.1902 8.44999H19.1953ZM19.1852 8.53124C19.1598 8.53124 19.1191 8.57186 19.175 8.56679C19.2258 8.56171 19.2461 8.52108 19.1852 8.53124ZM19.1293 8.60233C19.0938 8.62265 19.1039 8.66327 19.1445 8.6328C19.1902 8.59726 19.2055 8.56679 19.1293 8.60741V8.60233ZM19.0785 8.67343C19.043 8.68866 19.0531 8.72929 19.0988 8.69882C19.1445 8.66835 19.1598 8.6328 19.0785 8.67343Z" fill="black"/>
<path d="M19.0125 8.69885C18.977 8.71409 19.0023 8.75979 19.048 8.72932C19.0988 8.70393 19.0938 8.65823 19.0125 8.70393V8.69885ZM19.048 8.73948C19.0176 8.75471 19.043 8.80041 19.0836 8.76994C19.1293 8.73948 19.1344 8.69885 19.048 8.73948Z" fill="black"/>
<path d="M18.9973 8.75464C18.9617 8.77495 18.982 8.81558 19.0328 8.78511C19.0836 8.75464 19.0734 8.71402 18.9973 8.75464ZM19.0328 8.80542C18.9973 8.82066 19.0176 8.86128 19.0684 8.83081C19.1141 8.80034 19.109 8.7648 19.0277 8.80542H19.0328Z" fill="black"/>
<path d="M18.977 8.83083C18.9414 8.84607 18.9668 8.88669 19.0176 8.85622C19.0684 8.83083 19.0531 8.79021 18.977 8.83083Z" fill="black"/>
<path d="M18.982 8.87148C18.9465 8.88672 18.9668 8.92734 19.0176 8.89687C19.0684 8.87148 19.0582 8.83086 18.982 8.87148Z" fill="black"/>
<path d="M18.9566 9.26761C18.9211 9.26761 18.9059 9.31839 18.9414 9.32347C18.982 9.33363 18.9922 9.33363 18.9922 9.36918C18.9922 9.39964 19.0023 9.44027 19.048 9.44535C19.0937 9.44535 19.1344 9.39457 19.0937 9.38441C19.0531 9.36918 19.0176 9.35394 19.0176 9.32347C19.0176 9.28285 18.982 9.26253 18.9566 9.26761V9.26761Z" fill="#CF6200"/>
<path d="M20.1094 8.99841L20.1246 9.01873C20.1551 9.04412 20.216 9.01872 20.2059 8.99841C20.2008 8.97302 20.1703 8.90701 20.2414 8.96287L20.673 9.26247C20.7594 9.32341 20.7035 9.33357 20.6629 9.31326L20.4344 9.20662C20.3633 9.16599 20.3582 9.18122 20.343 9.19138C20.3379 9.20662 20.343 9.23201 20.3684 9.2574C20.3277 9.26247 20.2617 9.2574 20.2414 9.20662C20.216 9.15583 20.1602 9.08982 20.1246 9.03904C20.1094 9.01872 20.0992 9.00857 20.1043 8.99841H20.1094Z" fill="#FFFF00"/>
<path d="M22.4301 16.6664C22.3691 16.702 22.2879 16.7731 22.3438 16.8696L22.359 16.8594C22.5834 16.5871 22.7823 16.2947 22.9531 15.986V15.9606C22.892 16.0126 22.8235 16.0553 22.75 16.0875C22.7754 16.1637 22.6484 16.2602 22.5723 16.2906C22.6027 16.3414 22.5926 16.4074 22.5316 16.4227C22.5469 16.4633 22.4961 16.4633 22.4453 16.4887C22.3895 16.5141 22.359 16.5242 22.3438 16.5598C22.3691 16.5395 22.4148 16.5242 22.4352 16.5344C22.4555 16.5446 22.4656 16.575 22.4199 16.5852C22.3793 16.5953 22.3488 16.6157 22.3387 16.636C22.3996 16.6157 22.4859 16.6258 22.425 16.6664H22.4301Z" fill="#00D860"/>
<path d="M19.6523 8.90709C19.5863 8.85631 19.566 8.89185 19.5863 8.90709C19.6016 8.9274 19.5863 8.97818 19.5305 8.99849H19.3477C19.3121 8.99849 19.2613 9.06959 19.3477 9.04928L19.6371 8.99849C19.6727 8.99849 19.7082 8.96295 19.6371 8.90709H19.6523ZM19.7844 9.01881C19.7285 8.96295 19.7082 8.97818 19.7285 9.01881C19.7488 9.05435 19.7082 9.06959 19.6777 9.06959L19.4238 9.14068C19.3477 9.14068 19.3477 9.19654 19.4391 9.19654C19.5305 9.19654 19.7082 9.10513 19.7285 9.10513C19.7488 9.10513 19.7641 9.05435 19.7793 9.06959C19.7996 9.0899 19.8352 9.06959 19.7793 9.01881H19.7844ZM19.8352 9.16099L19.6574 9.2524C19.6066 9.2524 19.566 9.30318 19.6574 9.30318C19.7488 9.30318 19.8352 9.21685 19.8707 9.19654L19.9469 9.16099C19.9469 9.16099 20.018 9.14068 19.9469 9.0899C19.8707 9.03912 19.7996 9.0899 19.8352 9.10513C19.8707 9.12545 19.8352 9.15592 19.8352 9.15592V9.16099Z" fill="black" stroke="black" stroke-width="0.05"/>
<path d="M19.0988 7.98784C18.9871 7.91675 18.8551 8.06909 18.982 8.15542C19.0938 8.23159 19.2106 8.05894 19.0988 7.98784Z" fill="black"/>
<path d="M18.9566 8.05896H18.9922C18.982 8.09451 19.0176 8.14529 19.0734 8.13513C19.0277 8.1656 18.9465 8.13005 18.9566 8.05896ZM19.4035 9.76013C19.4391 9.77029 19.5559 9.78552 19.5965 9.78552L19.5457 9.88709C19.5305 9.91755 19.5254 9.92263 19.5254 9.87693C19.5254 9.82615 19.4949 9.79568 19.4746 9.84646L19.4238 9.93279C19.4137 9.9531 19.3934 9.96326 19.3984 9.91248V9.76521L19.4035 9.76013Z" fill="white"/>
<path d="M23.923 11.1414C23.923 14.0766 23.4559 17.2454 19.6371 18.7586C15.8387 17.2454 15.3715 14.0766 15.3512 11.1414H23.923ZM23.923 11.1414C23.923 10.0243 23.8723 8.94262 23.8875 8.00824C22.5328 7.48201 21.0904 7.21833 19.6371 7.23129C18.6824 7.23129 16.8086 7.37856 15.3867 8.00824C15.4223 8.94262 15.3512 10.0243 15.3512 11.1414H23.923Z" stroke="black" stroke-width="0.1375"/>
<path d="M0 0H13V13H0V0Z" fill="#012169"/>
<path d="M13 0V1.625L8.17578 6.5L13 11.248V13H11.2988L6.44922 8.22656L1.72656 13H0V11.2734L4.72266 6.52539L0 1.87891V0H1.57422L6.44922 4.77344L11.1719 0H13Z" fill="white"/>
<path d="M4.67188 8.22656L4.95117 9.08984L1.06641 13H0V12.9238L4.67188 8.22656ZM7.82031 7.92188L9.19141 8.125L13 11.8574V13L7.82031 7.92188ZM13 0L8.125 4.97656L8.02344 3.85938L11.832 0H13ZM0 0.0253906L4.90039 4.82422L3.40234 4.62109L0 1.24414V0.0253906Z" fill="#C8102E"/>
<path d="M4.46875 0V13H8.53125V0H4.46875ZM0 4.46875V8.53125H13V4.46875H0Z" fill="white"/>
<path d="M0 5.28125V7.71875H13V5.28125H0ZM5.28125 0V13H7.71875V0H5.28125Z" fill="#C8102E"/>
</g>
</g>
<defs>
<clipPath id="clip0_1_14049">
<rect width="26" height="26" fill="white"/>
</clipPath>
</defs>
</svg>
