<svg width="26" height="26" viewBox="0 0 26 26" fill="none" xmlns="http://www.w3.org/2000/svg">
<mask id="mask0_1_10143" style="mask-type:alpha" maskUnits="userSpaceOnUse" x="0" y="0" width="26" height="26">
<circle cx="13" cy="13" r="13" fill="#634848"/>
</mask>
<g mask="url(#mask0_1_10143)">
<mask id="mask1_1_10143" style="mask-type:alpha" maskUnits="userSpaceOnUse" x="-5" y="0" width="36" height="26">
<rect x="-4.33333" width="34.6667" height="26" fill="white"/>
</mask>
<g mask="url(#mask1_1_10143)">
<path fill-rule="evenodd" clip-rule="evenodd" d="M-4.33073 0V26H30.3359V0H-4.33073Z" fill="#2E42A5"/>
<mask id="mask2_1_10143" style="mask-type:alpha" maskUnits="userSpaceOnUse" x="-5" y="0" width="36" height="26">
<path fill-rule="evenodd" clip-rule="evenodd" d="M-4.33073 0V26H30.3359V0H-4.33073Z" fill="white"/>
</mask>
<g mask="url(#mask2_1_10143)">
<path fill-rule="evenodd" clip-rule="evenodd" d="M-4.33073 0V8.66667H30.3359V0H-4.33073Z" fill="#F7FCFF"/>
<path fill-rule="evenodd" clip-rule="evenodd" d="M-4.33073 17.3333V26H30.3359V17.3333H-4.33073Z" fill="#C51918"/>
<path fill-rule="evenodd" clip-rule="evenodd" d="M10.5525 5.45762C10.5525 5.45762 8.27235 4.38086 5.4364 4.38086C2.60045 4.38086 0.320312 5.45762 0.320312 5.45762C0.320312 5.45762 0.574057 9.78523 0.975109 12.0778C1.14635 13.0566 1.96939 14.4843 2.71451 15.16C3.56381 15.9302 5.4364 16.8427 5.4364 16.8427C5.97829 16.4693 6.99149 16.3014 8.28654 15.16C9.5816 14.0187 9.90349 12.0778 9.90349 12.0778L10.5525 5.45762Z" fill="#2E42A5"/>
<path d="M10.2532 5.31607L11.2028 5.79027L10.5509 12.3148C10.3226 13.6957 9.75134 14.7846 8.83779 15.5898C8.34222 16.0265 7.85848 16.3528 7.33985 16.624C7.0471 16.7771 5.82257 17.4078 5.83323 17.4027C5.71054 17.4618 5.6175 17.5136 5.54193 17.5657L5.42349 17.6473L5.29562 17.585C4.0273 16.967 2.84397 16.1352 2.25592 15.602C1.45319 14.874 0.606799 13.3844 0.426353 12.3529C0.15655 10.8106 -0.0854043 8.68625 -0.255207 5.79027L0.59781 5.34401C0.766334 8.21817 0.969766 10.5093 1.2347 12.0238C1.39144 12.9198 2.17193 14.2934 2.88393 14.9391C3.41014 15.4163 4.25789 15.9455 5.42349 16.521C5.49302 16.4802 5.57008 16.4399 5.65822 16.3974C5.66071 16.3962 6.45361 16.0441 6.72917 15.9C7.2125 15.6473 7.66176 15.3442 8.1243 14.9366C8.93525 14.2219 9.44139 13.2594 9.64608 12.0366L10.2532 5.31607Z" fill="#C51918"/>
<path fill-rule="evenodd" clip-rule="evenodd" d="M1.67839 11.9458C1.67839 11.9458 1.88537 12.5791 2.268 13.2898C2.82799 13.4373 3.17066 13.4294 3.27906 13.308C3.59299 12.9567 4.70996 12.8065 4.91837 13.1067C5.04694 13.2918 5.49889 13.4199 5.99306 13.2505L5.93796 13.2602C6.0238 13.229 6.22485 13.1493 6.34877 13.1002L6.34879 13.1002C6.40058 13.0797 6.4389 13.0645 6.4497 13.0604C6.63575 12.9902 6.77244 12.9534 6.91171 12.943C7.08627 12.9301 7.25367 12.9626 7.43104 13.047C7.82115 13.2328 8.30253 13.3193 8.63015 13.2629C9.0309 12.565 9.31672 11.9458 9.31672 11.9458L7.41515 10.1209L6.65935 10.941L5.40358 9.15073L4.35226 10.941L3.5461 10.1209L1.67839 11.9458ZM2.77732 14.1015C2.69001 13.9837 2.60749 13.8621 2.52989 13.7393C3.01552 13.8276 3.34536 13.7808 3.52896 13.5753C3.6158 13.4781 3.87346 13.3838 4.16662 13.3444C4.30329 13.3261 4.43442 13.3215 4.53495 13.3311C4.58109 13.3355 4.61826 13.3427 4.64329 13.3513C4.6514 13.3541 4.65114 13.3538 4.64273 13.3417L4.64119 13.3395C4.86534 13.6601 5.47394 13.8319 6.04816 13.6231L5.99306 13.6328C6.14837 13.5851 6.42807 13.4751 6.52861 13.4356L6.52864 13.4356L6.56363 13.4219C6.72305 13.3617 6.83292 13.3321 6.9354 13.3245C7.05358 13.3157 7.16509 13.3374 7.2916 13.3976C7.637 13.5621 8.03852 13.6599 8.39237 13.6624C8.31698 13.7843 8.23914 13.9055 8.15971 14.0233C7.88463 14.0858 7.4611 14.0018 7.11918 13.8151C6.95878 13.7275 6.80559 13.6934 6.64586 13.707C6.51957 13.7178 6.3971 13.7556 6.23166 13.8272C6.222 13.8314 6.18803 13.8468 6.14228 13.8676C6.03407 13.9168 5.85997 13.996 5.78586 14.0269L5.84808 14.0143C5.4186 14.18 5.04266 14.0579 4.93533 13.8806C4.74379 13.5642 3.73996 13.719 3.45753 14.0815C3.38205 14.1784 3.15386 14.1959 2.77732 14.1015ZM3.15157 14.5451C3.17269 14.5668 3.19402 14.5882 3.21555 14.6092C4.19401 15.5632 5.40358 16.0309 5.40358 16.0309C5.40358 16.0309 6.84428 15.5949 7.66196 14.6771C7.73171 14.5988 7.8016 14.514 7.87111 14.4243C7.57361 14.4091 7.24688 14.3121 6.96313 14.1572C6.85856 14.1001 6.76855 14.0801 6.67301 14.0882C6.58852 14.0954 6.49599 14.124 6.36019 14.1828C6.35653 14.1844 6.34765 14.1884 6.3346 14.1942C6.25145 14.2317 5.99891 14.3454 5.84808 14.3967L5.9103 14.3841C5.40416 14.5952 4.86676 14.4286 4.65716 14.1125C4.63859 14.1052 4.60944 14.0987 4.5725 14.0947C4.48841 14.0855 4.37737 14.0899 4.26128 14.1078C4.01255 14.1462 3.79533 14.2373 3.72349 14.3295C3.60236 14.485 3.41218 14.5534 3.15157 14.5451Z" fill="white"/>
<path fill-rule="evenodd" clip-rule="evenodd" d="M3.4095 6.37884H2.64779L3.23857 5.82539L2.64779 5.24055H3.4095L3.73112 4.67285L4.05404 5.24055H4.81446L4.25321 5.79026L4.75156 6.37884H4.05404L3.73112 6.97792L3.4095 6.37884Z" fill="#FECA00"/>
<path fill-rule="evenodd" clip-rule="evenodd" d="M6.99804 6.37884H6.23633L6.82711 5.82539L6.23633 5.24055H6.99804L7.31966 4.67285L7.64258 5.24055H8.40299L7.84175 5.79026L8.3401 6.37884H7.64258L7.31966 6.97792L6.99804 6.37884Z" fill="#FECA00"/>
<path fill-rule="evenodd" clip-rule="evenodd" d="M4.98372 8.20062H4.22201L4.81279 7.64716L4.22201 7.06232H4.98372L5.30534 6.49463L5.62826 7.06232H6.38867L5.82743 7.61204L6.32578 8.20062H5.62826L5.30534 8.7997L4.98372 8.20062Z" fill="#FECA00"/>
</g>
</g>
</g>
</svg>
