<svg width="26" height="26" viewBox="0 0 26 26" fill="none" xmlns="http://www.w3.org/2000/svg">
<mask id="mask0_1_10167" style="mask-type:alpha" maskUnits="userSpaceOnUse" x="0" y="0" width="26" height="26">
<circle cx="13" cy="13" r="13" fill="#634848"/>
</mask>
<g mask="url(#mask0_1_10167)">
<mask id="mask1_1_10167" style="mask-type:alpha" maskUnits="userSpaceOnUse" x="-5" y="0" width="36" height="26">
<rect x="-4.33333" width="34.6667" height="26" fill="white"/>
</mask>
<g mask="url(#mask1_1_10167)">
<path fill-rule="evenodd" clip-rule="evenodd" d="M-4.33073 0V26H30.3359V0H-4.33073Z" fill="#3D58DB"/>
<mask id="mask2_1_10167" style="mask-type:alpha" maskUnits="userSpaceOnUse" x="-5" y="0" width="36" height="26">
<path fill-rule="evenodd" clip-rule="evenodd" d="M-4.33073 0V26H30.3359V0H-4.33073Z" fill="white"/>
</mask>
<g mask="url(#mask2_1_10167)">
<path fill-rule="evenodd" clip-rule="evenodd" d="M-4.33073 0V8.66667H30.3359V0H-4.33073Z" fill="#F7FCFF"/>
<path fill-rule="evenodd" clip-rule="evenodd" d="M-4.33073 17.3333V26H30.3359V17.3333H-4.33073Z" fill="#E31D1C"/>
<path d="M12.5746 6.53452L13.0718 6.48162L13.0243 6.03452H12.5746H2.54396H2.07655L2.0451 6.50088L2.54396 6.53452L2.04509 6.50097L2.04508 6.5012L2.04502 6.50206L2.0448 6.50538L2.04393 6.51828L2.04063 6.56835L2.02836 6.75913C2.0179 6.92415 2.00323 7.1616 1.98635 7.4518C1.95259 8.03204 1.90994 8.82396 1.8744 9.66994C1.80427 11.3392 1.75813 13.2876 1.87889 14.195C2.11495 15.969 3.19452 19.9447 7.36506 21.7462L7.56681 21.8334L7.76743 21.7437C11.7301 19.9718 13.056 16.4035 13.3619 14.1978C13.5162 13.0854 13.4379 11.1345 13.329 9.50887C13.2739 8.68594 13.2097 7.92975 13.1592 7.37945C13.134 7.10419 13.1122 6.88019 13.0967 6.72481C13.0889 6.64711 13.0827 6.58655 13.0785 6.5453L13.0736 6.49817L13.0723 6.48597L13.072 6.4828L13.0719 6.48196L13.0718 6.48172C13.0718 6.48166 13.0718 6.48162 12.5746 6.53452Z" fill="#E31D1C" stroke="white"/>
<mask id="mask3_1_10167" style="mask-type:alpha" maskUnits="userSpaceOnUse" x="1" y="5" width="13" height="18">
<path d="M12.5746 6.53452L13.0718 6.48162L13.0243 6.03452H12.5746H2.54396H2.07655L2.0451 6.50088L2.54396 6.53452L2.04509 6.50097L2.04508 6.5012L2.04502 6.50206L2.0448 6.50538L2.04393 6.51828L2.04063 6.56835L2.02836 6.75913C2.0179 6.92415 2.00323 7.1616 1.98635 7.4518C1.95259 8.03204 1.90994 8.82396 1.8744 9.66994C1.80427 11.3392 1.75813 13.2876 1.87889 14.195C2.11495 15.969 3.19452 19.9447 7.36506 21.7462L7.56681 21.8334L7.76743 21.7437C11.7301 19.9718 13.056 16.4035 13.3619 14.1978C13.5162 13.0854 13.4379 11.1345 13.329 9.50887C13.2739 8.68594 13.2097 7.92975 13.1592 7.37945C13.134 7.10419 13.1122 6.88019 13.0967 6.72481C13.0889 6.64711 13.0827 6.58655 13.0785 6.5453L13.0736 6.49817L13.0723 6.48597L13.072 6.4828L13.0719 6.48196L13.0718 6.48172C13.0718 6.48166 13.0718 6.48162 12.5746 6.53452Z" fill="white" stroke="white"/>
</mask>
<g mask="url(#mask3_1_10167)">
<path fill-rule="evenodd" clip-rule="evenodd" d="M6.78426 7.13965C6.78426 7.13965 7.00796 7.48049 7.1081 8.00166C7.20825 8.52284 7.22551 9.436 7.22551 9.436L5.10339 9.17471V10.7838L7.27293 10.5075L7.23766 12.0347C7.23766 12.0347 6.58861 12.102 6.05629 12.0347C5.52396 11.9674 4.47526 11.6855 4.47526 11.6855V13.5276C4.47526 13.5276 5.54072 13.1867 6.05629 13.1085C6.57185 13.0303 7.23766 13.1085 7.23766 13.1085V15.3709H8.11845V13.1085C8.11845 13.1085 9.08127 13.0248 9.65562 13.1154C10.23 13.2061 10.7748 13.5276 10.7748 13.5276V11.6855C10.7748 11.6855 10.2228 11.9605 9.70224 12.029C9.18165 12.0974 8.11845 12.0347 8.11845 12.0347L8.15371 10.5075C8.15371 10.5075 8.87437 10.4329 9.27869 10.4878C9.68301 10.5426 10.1891 10.7838 10.1891 10.7838V9.17471C10.1891 9.17471 9.69583 9.4431 9.30775 9.49178C8.91967 9.54047 8.1063 9.436 8.1063 9.436C8.1063 9.436 8.12071 8.49364 8.20416 8.03478C8.28761 7.57593 8.52391 7.13965 8.52391 7.13965H6.78426Z" fill="#F7FCFF"/>
<path fill-rule="evenodd" clip-rule="evenodd" d="M3.14648 17.5997C3.14648 17.5997 3.6226 16.5778 4.39733 16.3835C5.17206 16.1892 5.98443 16.9916 5.98443 16.9916C5.98443 16.9916 6.48049 15.3705 7.6896 15.3705C8.89871 15.3705 9.32306 16.9916 9.32306 16.9916C9.32306 16.9916 9.83893 16.3835 10.5808 16.3835C11.3226 16.3835 12.0099 17.5997 12.0099 17.5997C12.0099 17.5997 9.79406 21.6226 7.5782 21.6226C5.36234 21.6226 3.14648 17.5997 3.14648 17.5997Z" fill="#2E42A5"/>
</g>
</g>
</g>
</g>
</svg>
