<svg width="26" height="26" viewBox="0 0 26 26" fill="none" xmlns="http://www.w3.org/2000/svg">
<mask id="mask0_1_14207" style="mask-type:alpha" maskUnits="userSpaceOnUse" x="0" y="0" width="26" height="26">
<circle cx="13" cy="13" r="13" fill="#634848"/>
</mask>
<g mask="url(#mask0_1_14207)">
<g clip-path="url(#clip0_1_14207)">
<path fill-rule="evenodd" clip-rule="evenodd" d="M0 13H26V26H0V13Z" fill="#19B6EF"/>
<path fill-rule="evenodd" clip-rule="evenodd" d="M0 0H26V13H0V0Z" fill="white"/>
<path fill-rule="evenodd" clip-rule="evenodd" d="M12.8426 18.3727C15.6812 16.25 18.7383 11.9133 15.1582 9.63322C14.4879 9.50119 13.7414 9.54182 13.3809 9.82619C13.193 9.71447 13.0457 9.72463 12.8527 9.92775C12.7207 9.76525 12.5887 9.68908 12.3094 9.77541C12.0507 9.63461 11.7666 9.54682 11.4736 9.51717C11.1807 9.48752 10.8847 9.51662 10.6031 9.60275C7.48008 11.4817 9.38945 15.9301 12.8375 18.3727H12.8426Z" fill="#FFDD00" stroke="#7D6C00" stroke-width="0.3"/>
<path fill-rule="evenodd" clip-rule="evenodd" d="M18.0934 13.5485C18.0934 13.5485 18.4133 13.1168 18.4234 13.1168C18.7434 12.9289 18.7789 12.6852 18.7789 12.6852C19.0988 12.5836 18.9973 12.3246 19.0227 12.2891C19.0725 12.2398 19.1064 12.1766 19.12 12.1078C19.1336 12.039 19.1262 11.9677 19.0988 11.9031C19.0988 11.8574 19.2105 11.4512 19.0531 11.3953C19.0633 10.9637 18.7941 11.0043 18.5809 11.2887C18.3523 11.3547 18.3016 11.5426 18.3777 11.7457C18.0832 11.7457 18.073 12.1774 18.1594 12.4211C17.7633 12.411 17.9867 12.8528 17.9715 12.8781C17.8395 12.9391 18.073 13.5688 18.0934 13.5485ZM15.5898 17.2403L15.793 17.3621C15.8285 17.5145 15.9707 17.6059 16.0773 17.5805C16.1281 17.8141 16.382 17.7836 16.5598 17.6465C16.7121 17.8598 16.8898 17.8649 17.1336 17.7938C17.357 17.9563 17.6414 17.8852 17.8293 17.7125C18.0324 17.8801 18.1695 17.7633 18.2711 17.5805C18.4285 17.6211 18.5555 17.5957 18.6113 17.4383C18.9211 17.4129 18.7637 17.1235 18.5098 16.9965C18.7129 16.8239 18.9414 16.4582 18.6215 16.4024C18.5199 16.3313 18.3371 16.3465 18.1949 16.4125C18.1594 16.25 17.9309 16.2094 17.6871 16.3922C17.6008 16.2094 17.3063 16.2957 17.1691 16.4227C16.9914 16.2703 16.7832 16.2703 16.4734 16.4481L15.5898 17.2403ZM15.5898 16.768C15.6254 16.5649 15.4883 16.1992 15.7016 16.1586C15.6609 15.8235 15.7219 15.4426 16.1078 15.4781C16.1738 15.1582 16.1586 14.8586 16.5293 14.818C16.5293 14.818 16.8289 13.777 17.1387 14.4981C17.2555 14.7012 17.2352 15.0465 16.9914 14.9805C17.0422 15.2344 16.9559 15.4629 16.6715 15.4528C16.7984 15.6356 16.7578 15.8793 16.6207 15.9961L15.5898 16.768ZM17.3875 15.4781L17.7074 15.4121C18.0375 15.1887 18.1695 15.1024 18.3371 15.3461C18.6113 15.2852 18.8754 15.3156 18.8652 15.534C19.1953 15.5543 19.1902 15.7625 19.1547 15.9301C19.2055 16.2196 19.0785 16.6004 18.8754 16.1383C18.2355 15.7473 17.875 15.7981 16.8594 16.0266L17.3875 15.4781V15.4781ZM17.5551 15.1582C17.5652 15.1481 18.5047 14.9043 18.4031 14.6149C18.6672 14.5742 18.723 14.3102 18.7332 14.3102C19.2867 14.1324 19.2512 13.8125 19.2512 13.8125C19.4086 13.6399 19.6879 13.4723 19.627 13.1727C19.6473 12.8324 19.6777 12.6192 19.2207 12.8426C18.8754 12.8071 18.7586 13.0051 18.657 13.2996C18.4945 13.1117 18.2355 13.4164 18.2051 13.6906C18.2051 13.6906 17.7836 14.0969 17.7836 14.1071L17.4332 14.7571L17.5551 15.1582V15.1582Z" fill="#4FD46B" stroke="#3A9D4F" stroke-width="0.3" stroke-linejoin="round"/>
<path fill-rule="evenodd" clip-rule="evenodd" d="M17.5754 14.427C17.352 14.2594 17.225 14.0563 17.2707 13.8531C17.1184 13.6551 17.0168 13.5332 17.159 13.3606L17.0473 12.9543C16.7578 12.8426 16.8797 12.5988 16.9609 12.5125C16.8238 12.3246 16.8188 12.1266 16.9457 11.9488C16.9457 11.5934 17.1945 11.7254 17.4027 11.9488C17.4027 11.9488 17.743 12.1926 17.4891 12.411C17.743 12.4973 17.8191 12.7156 17.677 12.8071C17.8953 12.9086 17.9309 13.1067 17.809 13.2387C18.0324 13.4164 17.9461 13.6449 18.0172 13.8481L17.5754 14.427V14.427Z" fill="#4FD46B" stroke="#3A9D4F" stroke-width="0.3" stroke-linejoin="round"/>
<path fill-rule="evenodd" clip-rule="evenodd" d="M17.9766 12.7867C17.9613 12.7766 17.5957 12.3094 17.6973 12.2789C17.677 12.1367 17.5652 11.9793 17.6313 11.8371C17.4535 11.6594 17.4484 11.4461 17.5855 11.2785C17.4637 11.111 17.5195 10.8875 17.6871 10.7453C17.6363 10.4762 17.8242 10.4102 17.9918 10.3594C18.1188 9.92268 18.3219 10.0344 18.4387 10.3696C18.6113 10.5219 18.5859 10.7504 18.525 10.9231C18.7281 11.0602 18.6063 11.2328 18.5148 11.309L17.9715 12.7867H17.9766Z" fill="#4FD46B" stroke="#3A9D4F" stroke-width="0.3" stroke-linejoin="round"/>
<path fill-rule="evenodd" clip-rule="evenodd" d="M17.9207 10.4609L17.6109 10.1512C17.6871 9.98867 17.7531 9.69414 17.5195 9.56718C17.3926 9.25234 16.7578 8.8664 16.6512 9.60781C16.5496 9.38437 16.3465 9.16601 16.1941 9.425C15.8641 9.13554 15.6863 9.22187 15.859 9.5875C15.859 9.5875 15.7066 9.83125 16.1129 10.0191C16.1434 10.0496 15.9758 10.4609 16.4633 10.4711C16.3719 10.6082 16.5242 10.8062 16.7172 10.791C16.575 10.9637 16.8137 11.1465 16.9609 11.0754C16.8949 11.2684 16.9 11.3598 17.1641 11.3852L17.4688 11.7254L17.7074 12.0605L17.9156 10.4609H17.9207Z" fill="#4FD46B" stroke="#3A9D4F" stroke-width="0.3" stroke-linejoin="round"/>
<path d="M18.1086 13.3555C18.1188 13.3351 18.6977 12.0098 18.7738 11.6035M18.1645 10.9941C18.1645 10.9941 18.266 12.0758 17.9969 12.873M16.3922 9.90233C16.3922 9.90233 17.5754 11.0398 17.6871 11.507M17.2148 9.78046C17.2148 9.78046 17.2961 10.7148 17.6211 11.634M19.307 13.1777C19.307 13.1777 18.1238 14.173 17.5449 15.0465M18.1848 16.6715C18.1848 16.6715 16.6258 16.8848 15.9402 16.9M17.6668 17.3418C17.6668 17.3418 15.7371 17.291 15.5949 17.1539M16.707 14.8281C16.707 14.8433 15.727 16.4633 15.6914 16.9965" stroke="#3A9D4F" stroke-width="0.275" stroke-linecap="round"/>
<path fill-rule="evenodd" clip-rule="evenodd" d="M12.8324 18.0629C10.7859 16.1332 8.68867 12.5074 10.7758 10.6793C11.1414 10.8875 11.5832 10.6996 12.1824 10.466C12.3652 10.664 12.5988 10.7148 12.8273 10.5676C13.0914 10.6742 13.2844 10.5879 13.4113 10.4457C14.0004 10.791 14.757 10.9687 14.9348 10.6285C16.9863 12.5785 14.9094 16.2144 12.8273 18.0629H12.8324Z" fill="#65C7FF" stroke="#7D6C00" stroke-width="0.3"/>
<path fill-rule="evenodd" clip-rule="evenodd" d="M12.8426 18.007C11.9068 17.1029 11.1307 16.047 10.5473 14.884C10.6488 14.7926 10.6996 14.7672 10.7555 14.6098C11.0532 14.6629 11.3585 14.6577 11.6543 14.5945C11.7355 14.9043 11.7559 15.1633 11.9488 15.4223L12.3652 14.6098C12.6586 14.6837 12.9657 14.6837 13.259 14.6098C13.4316 14.8433 13.3707 15.1937 13.6754 15.4578C13.8582 14.9195 14.041 14.884 14.2238 14.5945C14.493 14.691 14.6656 14.6453 14.884 14.5793C15.0008 14.7113 14.9449 14.7062 15.1582 14.9043C14.5852 16.0715 13.7999 17.122 12.8426 18.0019V18.007Z" fill="#8FC753"/>
<path fill-rule="evenodd" clip-rule="evenodd" d="M10.4355 8.90195C10.4355 8.95044 10.4163 8.99694 10.382 9.03122C10.3477 9.06551 10.3012 9.08477 10.2527 9.08477C10.2043 9.08477 10.1578 9.06551 10.1235 9.03122C10.0892 8.99694 10.0699 8.95044 10.0699 8.90195C10.0699 8.85347 10.0892 8.80697 10.1235 8.77269C10.1578 8.7384 10.2043 8.71914 10.2527 8.71914C10.3012 8.71914 10.3477 8.7384 10.382 8.77269C10.4163 8.80697 10.4355 8.85347 10.4355 8.90195ZM10.2477 8.48047C10.2477 8.52895 10.2284 8.57545 10.1941 8.60974C10.1598 8.64402 10.1133 8.66328 10.0648 8.66328C10.0164 8.66328 9.96986 8.64402 9.93558 8.60974C9.90129 8.57545 9.88203 8.52895 9.88203 8.48047C9.88203 8.43198 9.90129 8.38549 9.93558 8.3512C9.96986 8.31692 10.0164 8.29766 10.0648 8.29766C10.1133 8.29766 10.1598 8.31692 10.1941 8.3512C10.2284 8.38549 10.2477 8.43198 10.2477 8.48047V8.48047ZM10.0242 8.09453C10.0286 8.12074 10.0273 8.14759 10.0203 8.17323C10.0132 8.19886 10.0007 8.22265 9.98354 8.24294C9.96638 8.26323 9.945 8.27954 9.92089 8.29073C9.89678 8.30191 9.87052 8.30771 9.84395 8.30771C9.81737 8.30771 9.79111 8.30191 9.76701 8.29073C9.7429 8.27954 9.72152 8.26323 9.70436 8.24294C9.6872 8.22265 9.67467 8.19886 9.66764 8.17323C9.66061 8.14759 9.65926 8.12074 9.66367 8.09453C9.67085 8.05191 9.6929 8.01321 9.7259 7.9853C9.7589 7.9574 9.80073 7.94208 9.84395 7.94208C9.88717 7.94208 9.92899 7.9574 9.96199 7.9853C9.995 8.01321 10.017 8.05191 10.0242 8.09453ZM9.87188 7.71875C9.87835 7.74563 9.87864 7.77363 9.87273 7.80063C9.86681 7.82764 9.85485 7.85296 9.83774 7.87467C9.82063 7.89639 9.79882 7.91394 9.77395 7.92601C9.74908 7.93808 9.72179 7.94435 9.69414 7.94435C9.6665 7.94435 9.63921 7.93808 9.61434 7.92601C9.58946 7.91394 9.56765 7.89639 9.55054 7.87467C9.53343 7.85296 9.52147 7.82764 9.51556 7.80063C9.50965 7.77363 9.50994 7.74563 9.51641 7.71875C9.52601 7.67885 9.54877 7.64334 9.58101 7.61794C9.61325 7.59254 9.6531 7.57873 9.69414 7.57873C9.73519 7.57873 9.77503 7.59254 9.80727 7.61794C9.83951 7.64334 9.86227 7.67885 9.87188 7.71875V7.71875ZM9.89727 7.30742C9.90168 7.33363 9.90033 7.36048 9.8933 7.38612C9.88628 7.41175 9.87375 7.43554 9.85658 7.45583C9.83942 7.47612 9.81804 7.49243 9.79394 7.50362C9.76983 7.5148 9.74357 7.5206 9.71699 7.5206C9.69042 7.5206 9.66416 7.5148 9.64005 7.50362C9.61594 7.49243 9.59456 7.47612 9.5774 7.45583C9.56024 7.43554 9.54771 7.41175 9.54069 7.38612C9.53366 7.36048 9.53231 7.33363 9.53672 7.30742C9.5439 7.2648 9.56595 7.2261 9.59895 7.19819C9.63195 7.17029 9.67377 7.15497 9.71699 7.15497C9.76022 7.15497 9.80204 7.17029 9.83504 7.19819C9.86804 7.2261 9.89009 7.2648 9.89727 7.30742ZM10.857 6.63203C10.857 6.65604 10.8523 6.67981 10.8431 6.70199C10.8339 6.72417 10.8205 6.74432 10.8035 6.7613C10.7865 6.77827 10.7664 6.79174 10.7442 6.80093C10.722 6.81012 10.6982 6.81484 10.6742 6.81484C10.6502 6.81484 10.6264 6.81012 10.6043 6.80093C10.5821 6.79174 10.5619 6.77827 10.545 6.7613C10.528 6.74432 10.5145 6.72417 10.5053 6.70199C10.4961 6.67981 10.4914 6.65604 10.4914 6.63203C10.4914 6.58355 10.5107 6.53705 10.545 6.50276C10.5792 6.46848 10.6257 6.44922 10.6742 6.44922C10.7227 6.44922 10.7692 6.46848 10.8035 6.50276C10.8378 6.53705 10.857 6.58355 10.857 6.63203ZM10.4965 6.69297C10.5009 6.71918 10.4995 6.74603 10.4925 6.77166C10.4855 6.79729 10.473 6.82108 10.4558 6.84138C10.4386 6.86167 10.4173 6.87798 10.3932 6.88916C10.369 6.90035 10.3428 6.90614 10.3162 6.90614C10.2896 6.90614 10.2634 6.90035 10.2393 6.88916C10.2152 6.87798 10.1938 6.86167 10.1766 6.84138C10.1595 6.82108 10.1469 6.79729 10.1399 6.77166C10.1329 6.74603 10.1315 6.71918 10.1359 6.69297C10.1431 6.65035 10.1652 6.61165 10.1982 6.58374C10.2312 6.55583 10.273 6.54052 10.3162 6.54052C10.3594 6.54052 10.4013 6.55583 10.4343 6.58374C10.4673 6.61165 10.4893 6.65035 10.4965 6.69297V6.69297ZM10.1055 6.93164C10.1055 6.95565 10.1007 6.97942 10.0916 7.0016C10.0824 7.02378 10.0689 7.04393 10.0519 7.06091C10.035 7.07788 10.0148 7.09135 9.99262 7.10054C9.97044 7.10972 9.94667 7.11445 9.92266 7.11445C9.89865 7.11445 9.87488 7.10972 9.8527 7.10054C9.83052 7.09135 9.81037 7.07788 9.79339 7.06091C9.77641 7.04393 9.76295 7.02378 9.75376 7.0016C9.74457 6.97942 9.73985 6.95565 9.73985 6.93164C9.73985 6.88316 9.75911 6.83666 9.79339 6.80237C9.82767 6.76809 9.87417 6.74883 9.92266 6.74883C9.97114 6.74883 10.0176 6.76809 10.0519 6.80237C10.0862 6.83666 10.1055 6.88316 10.1055 6.93164V6.93164ZM11.3191 6.63711C11.3191 6.68559 11.2999 6.73209 11.2656 6.76638C11.2313 6.80066 11.1848 6.81992 11.1363 6.81992C11.0878 6.81992 11.0413 6.80066 11.0071 6.76638C10.9728 6.73209 10.9535 6.68559 10.9535 6.63711C10.9535 6.58862 10.9728 6.54213 11.0071 6.50784C11.0413 6.47356 11.0878 6.4543 11.1363 6.4543C11.1848 6.4543 11.2313 6.47356 11.2656 6.50784C11.2999 6.54213 11.3191 6.58862 11.3191 6.63711ZM11.8219 6.67773C11.8263 6.70394 11.8249 6.7308 11.8179 6.75643C11.8109 6.78206 11.7984 6.80585 11.7812 6.82614C11.764 6.84644 11.7427 6.86274 11.7185 6.87393C11.6944 6.88512 11.6682 6.89091 11.6416 6.89091C11.615 6.89091 11.5888 6.88512 11.5647 6.87393C11.5406 6.86274 11.5192 6.84644 11.502 6.82614C11.4849 6.80585 11.4723 6.78206 11.4653 6.75643C11.4583 6.7308 11.4569 6.70394 11.4613 6.67773C11.4709 6.63783 11.4937 6.60232 11.5259 6.57692C11.5582 6.55152 11.598 6.53771 11.6391 6.53771C11.6801 6.53771 11.72 6.55152 11.7522 6.57692C11.7844 6.60232 11.8072 6.63783 11.8168 6.67773H11.8219ZM12.2688 6.65234C12.2732 6.67855 12.2718 6.70541 12.2648 6.73104C12.2578 6.75667 12.2452 6.78046 12.2281 6.80075C12.2109 6.82105 12.1895 6.83735 12.1654 6.84854C12.1413 6.85972 12.1151 6.86552 12.0885 6.86552C12.0619 6.86552 12.0356 6.85972 12.0115 6.84854C11.9874 6.83735 11.966 6.82105 11.9489 6.80075C11.9317 6.78046 11.9192 6.75667 11.9122 6.73104C11.9051 6.70541 11.9038 6.67855 11.9082 6.65234C11.9154 6.60972 11.9374 6.57102 11.9704 6.54312C12.0034 6.51521 12.0453 6.49989 12.0885 6.49989C12.1317 6.49989 12.1735 6.51521 12.2065 6.54312C12.2395 6.57102 12.2616 6.60972 12.2688 6.65234V6.65234Z" fill="white" stroke="black" stroke-width="0.1375"/>
<path fill-rule="evenodd" clip-rule="evenodd" d="M13.3199 6.36288C13.3199 6.48679 13.2707 6.60562 13.1831 6.69323C13.0955 6.78085 12.9766 6.83007 12.8527 6.83007C12.7288 6.83007 12.61 6.78085 12.5224 6.69323C12.4348 6.60562 12.3855 6.48679 12.3855 6.36288C12.3976 6.24803 12.4517 6.14169 12.5375 6.0644C12.6233 5.98711 12.7347 5.94434 12.8502 5.94434C12.9657 5.94434 13.0771 5.98711 13.1629 6.0644C13.2487 6.14169 13.3028 6.24803 13.3148 6.36288H13.3199Z" fill="#FFDD00" stroke="#7D6C00" stroke-width="0.1375"/>
<path fill-rule="evenodd" clip-rule="evenodd" d="M13.8074 6.64729C13.8074 6.69577 13.7882 6.74227 13.7539 6.77656C13.7196 6.81084 13.6731 6.8301 13.6246 6.8301C13.5761 6.8301 13.5296 6.81084 13.4953 6.77656C13.4611 6.74227 13.4418 6.69577 13.4418 6.64729C13.4418 6.5988 13.4611 6.55231 13.4953 6.51802C13.5296 6.48374 13.5761 6.46448 13.6246 6.46448C13.6731 6.46448 13.7196 6.48374 13.7539 6.51802C13.7882 6.55231 13.8074 6.5988 13.8074 6.64729ZM14.2797 6.68284C14.2841 6.70904 14.2827 6.7359 14.2757 6.76153C14.2687 6.78716 14.2562 6.81095 14.239 6.83125C14.2218 6.85154 14.2005 6.86785 14.1764 6.87903C14.1522 6.89022 14.126 6.89601 14.0994 6.89601C14.0728 6.89601 14.0466 6.89022 14.0225 6.87903C13.9984 6.86785 13.977 6.85154 13.9598 6.83125C13.9427 6.81095 13.9301 6.78716 13.9231 6.76153C13.9161 6.7359 13.9147 6.70904 13.9191 6.68284C13.9263 6.64022 13.9484 6.60152 13.9814 6.57361C14.0144 6.5457 14.0562 6.53039 14.0994 6.53039C14.1426 6.53039 14.1845 6.5457 14.2175 6.57361C14.2505 6.60152 14.2725 6.64022 14.2797 6.68284V6.68284ZM14.7367 6.66252C14.7411 6.68873 14.7398 6.71559 14.7328 6.74122C14.7257 6.76685 14.7132 6.79064 14.696 6.81093C14.6789 6.83123 14.6575 6.84753 14.6334 6.85872C14.6093 6.86991 14.583 6.8757 14.5564 6.8757C14.5299 6.8757 14.5036 6.86991 14.4795 6.85872C14.4554 6.84753 14.434 6.83123 14.4169 6.81093C14.3997 6.79064 14.3872 6.76685 14.3801 6.74122C14.3731 6.71559 14.3718 6.68873 14.3762 6.66252C14.3833 6.6199 14.4054 6.58121 14.4384 6.5533C14.4714 6.52539 14.5132 6.51007 14.5564 6.51007C14.5997 6.51007 14.6415 6.52539 14.6745 6.5533C14.7075 6.58121 14.7295 6.6199 14.7367 6.66252V6.66252ZM15.1227 6.64729C15.1271 6.6735 15.1257 6.70035 15.1187 6.72598C15.1117 6.75161 15.0991 6.77541 15.082 6.7957C15.0648 6.81599 15.0434 6.8323 15.0193 6.84348C14.9952 6.85467 14.969 6.86047 14.9424 6.86047C14.9158 6.86047 14.8895 6.85467 14.8654 6.84348C14.8413 6.8323 14.82 6.81599 14.8028 6.7957C14.7856 6.77541 14.7731 6.75161 14.7661 6.72598C14.759 6.70035 14.7577 6.6735 14.7621 6.64729C14.7693 6.60467 14.7913 6.56597 14.8243 6.53806C14.8573 6.51015 14.8992 6.49484 14.9424 6.49484C14.9856 6.49484 15.0274 6.51015 15.0604 6.53806C15.0934 6.56597 15.1155 6.60467 15.1227 6.64729ZM15.6051 6.69807C15.6051 6.74656 15.5858 6.79306 15.5515 6.82734C15.5172 6.86162 15.4707 6.88088 15.4223 6.88088C15.3738 6.88088 15.3273 6.86162 15.293 6.82734C15.2587 6.79306 15.2395 6.74656 15.2395 6.69807C15.2395 6.64959 15.2587 6.60309 15.293 6.5688C15.3273 6.53452 15.3738 6.51526 15.4223 6.51526C15.4707 6.51526 15.5172 6.53452 15.5515 6.5688C15.5858 6.60309 15.6051 6.64959 15.6051 6.69807V6.69807ZM15.9809 6.93674C15.9853 6.96295 15.9839 6.98981 15.9769 7.01544C15.9699 7.04107 15.9573 7.06486 15.9402 7.08515C15.923 7.10544 15.9016 7.12175 15.8775 7.13294C15.8534 7.14412 15.8272 7.14992 15.8006 7.14992C15.774 7.14992 15.7477 7.14412 15.7236 7.13294C15.6995 7.12175 15.6782 7.10544 15.661 7.08515C15.6438 7.06486 15.6313 7.04107 15.6243 7.01544C15.6173 6.98981 15.6159 6.96295 15.6203 6.93674C15.6275 6.89412 15.6495 6.85542 15.6825 6.82752C15.7155 6.79961 15.7574 6.78429 15.8006 6.78429C15.8438 6.78429 15.8856 6.79961 15.9186 6.82752C15.9516 6.85542 15.9737 6.89412 15.9809 6.93674V6.93674Z" fill="white" stroke="black" stroke-width="0.1375"/>
<path fill-rule="evenodd" clip-rule="evenodd" d="M10.2578 8.21641L10.725 9.11016H15.016L15.5086 8.24687C15.2191 8.04883 15.0211 7.89648 14.6098 7.99297C14.3711 7.65273 14.1172 7.58672 13.7363 7.62734C13.6329 7.50729 13.4876 7.43104 13.3301 7.41406L12.4262 7.43945C12.1926 7.45977 12.0098 7.64258 11.9996 7.64258C11.6137 7.5918 11.2633 7.60703 11.1719 7.97773C10.8215 7.89141 10.5777 7.98789 10.2578 8.21641V8.21641Z" fill="#E40000" stroke="#AC0000" stroke-width="0.3"/>
<path fill-rule="evenodd" clip-rule="evenodd" d="M16.1383 7.33281C16.1427 7.35902 16.1413 7.38587 16.1343 7.4115C16.1273 7.43713 16.1148 7.46092 16.0976 7.48122C16.0804 7.50151 16.0591 7.51782 16.0349 7.529C16.0108 7.54019 15.9846 7.54598 15.958 7.54598C15.9314 7.54598 15.9052 7.54019 15.8811 7.529C15.857 7.51782 15.8356 7.50151 15.8184 7.48122C15.8013 7.46092 15.7887 7.43713 15.7817 7.4115C15.7747 7.38587 15.7733 7.35902 15.7777 7.33281C15.7849 7.29019 15.807 7.25149 15.84 7.22358C15.873 7.19567 15.9148 7.18036 15.958 7.18036C16.0012 7.18036 16.043 7.19567 16.0761 7.22358C16.1091 7.25149 16.1311 7.29019 16.1383 7.33281ZM16.1687 7.75429C16.1732 7.7805 16.1718 7.80735 16.1648 7.83299C16.1578 7.85862 16.1452 7.88241 16.1281 7.9027C16.1109 7.92299 16.0895 7.9393 16.0654 7.95049C16.0413 7.96167 16.0151 7.96747 15.9885 7.96747C15.9619 7.96747 15.9356 7.96167 15.9115 7.95049C15.8874 7.9393 15.866 7.92299 15.8489 7.9027C15.8317 7.88241 15.8192 7.85862 15.8122 7.83299C15.8051 7.80735 15.8038 7.7805 15.8082 7.75429C15.8154 7.71167 15.8374 7.67297 15.8704 7.64507C15.9034 7.61716 15.9453 7.60184 15.9885 7.60184C16.0317 7.60184 16.0735 7.61716 16.1065 7.64507C16.1395 7.67297 16.1616 7.71167 16.1687 7.75429ZM16.0367 8.15039C16.0411 8.17659 16.0398 8.20345 16.0328 8.22908C16.0257 8.25471 16.0132 8.2785 15.996 8.2988C15.9789 8.31909 15.9575 8.3354 15.9334 8.34658C15.9093 8.35777 15.883 8.36356 15.8564 8.36356C15.8299 8.36356 15.8036 8.35777 15.7795 8.34658C15.7554 8.3354 15.734 8.31909 15.7169 8.2988C15.6997 8.2785 15.6872 8.25471 15.6801 8.22908C15.6731 8.20345 15.6718 8.17659 15.6762 8.15039C15.6833 8.10777 15.7054 8.06907 15.7384 8.04116C15.7714 8.01325 15.8132 7.99794 15.8564 7.99794C15.8997 7.99794 15.9415 8.01325 15.9745 8.04116C16.0075 8.06907 16.0295 8.10777 16.0367 8.15039ZM15.8691 8.47539C15.8756 8.50227 15.8759 8.53026 15.87 8.55727C15.8641 8.58428 15.8521 8.60959 15.835 8.63131C15.8179 8.65303 15.7961 8.67058 15.7712 8.68265C15.7463 8.69472 15.7191 8.70099 15.6914 8.70099C15.6638 8.70099 15.6365 8.69472 15.6116 8.68265C15.5867 8.67058 15.5649 8.65303 15.5478 8.63131C15.5307 8.60959 15.5187 8.58428 15.5128 8.55727C15.5069 8.53026 15.5072 8.50227 15.5137 8.47539C15.5233 8.43548 15.546 8.39997 15.5783 8.37457C15.6105 8.34917 15.6504 8.33536 15.6914 8.33536C15.7324 8.33536 15.7723 8.34917 15.8045 8.37457C15.8368 8.39997 15.8595 8.43548 15.8691 8.47539V8.47539ZM15.6762 8.88164C15.6762 8.93012 15.6569 8.97662 15.6226 9.0109C15.5883 9.04519 15.5418 9.06445 15.4934 9.06445C15.4449 9.06445 15.3984 9.04519 15.3641 9.0109C15.3298 8.97662 15.3105 8.93012 15.3105 8.88164C15.3105 8.83315 15.3298 8.78665 15.3641 8.75237C15.3984 8.71808 15.4449 8.69882 15.4934 8.69882C15.5418 8.69882 15.5883 8.71808 15.6226 8.75237C15.6569 8.78665 15.6762 8.83315 15.6762 8.88164ZM13.1371 8.36367C13.1424 8.40176 13.1394 8.44055 13.1284 8.47741C13.1175 8.51427 13.0987 8.54834 13.0734 8.57734C13.0482 8.60634 13.017 8.62959 12.982 8.64552C12.947 8.66145 12.909 8.66969 12.8705 8.66969C12.832 8.66969 12.794 8.66145 12.759 8.64552C12.724 8.62959 12.6928 8.60634 12.6676 8.57734C12.6423 8.54834 12.6236 8.51427 12.6126 8.47741C12.6016 8.44055 12.5986 8.40176 12.6039 8.36367C12.6128 8.29929 12.6447 8.24031 12.6937 8.19762C12.7427 8.15493 12.8055 8.13141 12.8705 8.13141C12.9355 8.13141 12.9983 8.15493 13.0473 8.19762C13.0963 8.24031 13.1282 8.29929 13.1371 8.36367V8.36367ZM13.1879 7.74921C13.1936 7.79496 13.1896 7.8414 13.176 7.88546C13.1624 7.92952 13.1396 7.97018 13.1092 8.00476C13.0787 8.03933 13.0411 8.06702 12.9991 8.08599C12.9571 8.10495 12.9115 8.11476 12.8654 8.11476C12.8193 8.11476 12.7738 8.10495 12.7317 8.08599C12.6897 8.06702 12.6522 8.03933 12.6217 8.00476C12.5912 7.97018 12.5684 7.92952 12.5548 7.88546C12.5413 7.8414 12.5372 7.79496 12.543 7.74921C12.543 7.66302 12.5772 7.58035 12.6382 7.51941C12.6991 7.45846 12.7818 7.42421 12.868 7.42421C12.9542 7.42421 13.0368 7.45846 13.0978 7.51941C13.1587 7.58035 13.193 7.66302 13.193 7.74921H13.1879Z" fill="white" stroke="black" stroke-width="0.1375"/>
<path fill-rule="evenodd" clip-rule="evenodd" d="M13.1473 7.15002C13.1473 7.22747 13.1165 7.30173 13.0617 7.35649C13.007 7.41125 12.9327 7.44202 12.8553 7.44202C12.7778 7.44202 12.7036 7.41125 12.6488 7.35649C12.594 7.30173 12.5633 7.22747 12.5633 7.15002C12.5633 7.07258 12.594 6.99831 12.6488 6.94355C12.7036 6.8888 12.7778 6.85803 12.8553 6.85803C12.9327 6.85803 13.007 6.8888 13.0617 6.94355C13.1165 6.99831 13.1473 7.07258 13.1473 7.15002V7.15002Z" fill="white" stroke="black" stroke-width="0.1375"/>
<path fill-rule="evenodd" clip-rule="evenodd" d="M12.7563 5.90588V5.67229H12.5633L12.5684 5.49963H12.7359V5.34729H12.9746V5.4844H13.1625V5.66721H12.9645V5.91096H12.7563V5.90588Z" fill="#FFDD00" stroke="#7D6C00" stroke-width="0.1375"/>
<path d="M10.6996 9.11018C10.3187 8.4551 9.75 7.57151 10.1004 7.19065C10.5879 6.63713 11.7254 7.13987 12.4516 6.81487C12.5023 7.43948 12.3297 8.46526 12.609 8.67854L12.35 8.90706C12.1926 8.70393 11.893 8.42971 11.5223 8.91721C11.3141 8.7344 11.0754 8.76487 10.9637 9.00862C10.852 9.02385 10.8621 9.06956 10.6996 9.11018V9.11018ZM15.0414 9.08479C15.4223 8.43479 15.991 7.5512 15.6406 7.16526C15.1531 6.61682 14.0156 7.11448 13.2895 6.79456C13.2387 7.41409 13.4113 8.43987 13.132 8.65823L13.391 8.88166C13.6449 8.53127 13.9496 8.52112 14.2137 8.8969C14.427 8.70901 14.6453 8.7344 14.7773 8.98831C14.8891 9.00354 14.8789 9.04416 15.0414 9.08987V9.08479Z" stroke="#FFDD00" stroke-width="0.4125"/>
<path fill-rule="evenodd" clip-rule="evenodd" d="M10.6895 9.59766C12.1168 9.46771 13.5531 9.46771 14.9805 9.59766L15.148 9.11016C13.65 8.83594 12.6141 8.80547 10.6539 9.07462L10.6895 9.59258V9.59766Z" fill="#FFDD00" stroke="#7D6C00" stroke-width="0.3"/>
<path fill-rule="evenodd" clip-rule="evenodd" d="M12.6801 17.8395L12.7156 17.611C12.868 17.6567 12.9848 17.6364 13.1117 17.5906L13.2438 17.3926L13.1422 17.2758C13.0559 17.2961 12.9898 17.3774 12.9289 17.4485C12.8426 17.4485 12.7664 17.4078 12.6801 17.3926L12.5988 17.0422C12.5176 16.9457 12.3449 16.9559 12.3805 17.1285L12.4008 17.2606C12.4313 17.3418 12.4465 17.4586 12.5023 17.5145V17.6567L12.6801 17.8395V17.8395ZM12.7461 16.8492C12.6293 16.9051 12.4922 16.8086 12.35 16.7477C12.218 16.7426 12.1113 16.8492 11.9488 16.8188C11.9793 16.7324 12.0504 16.7172 12.1012 16.6664C12.0656 16.443 12.1824 16.3668 12.218 16.3668C12.2484 16.3668 12.3805 16.4024 12.3805 16.4024L12.5125 16.4176C12.5938 16.5598 12.7004 16.6918 12.7461 16.8492V16.8492Z" fill="#C76E2E"/>
<path fill-rule="evenodd" clip-rule="evenodd" d="M11.959 19.8301C12.3398 19.2055 15.0059 17.9613 17.5043 15.2648C14.9652 17.7176 13.3707 18.3168 11.2887 19.8148L11.959 19.8301V19.8301Z" fill="#FFE100" stroke="#E9BF00" stroke-width="0.3"/>
<path fill-rule="evenodd" clip-rule="evenodd" d="M15.6203 16.9609C15.6203 17.0121 15.6 17.0612 15.5638 17.0974C15.5276 17.1336 15.4785 17.1539 15.4273 17.1539C15.3762 17.1539 15.3271 17.1336 15.2909 17.0974C15.2547 17.0612 15.2344 17.0121 15.2344 16.9609C15.2344 16.9098 15.2547 16.8607 15.2909 16.8245C15.3271 16.7883 15.3762 16.768 15.4273 16.768C15.4785 16.768 15.5276 16.7883 15.5638 16.8245C15.6 16.8607 15.6203 16.9098 15.6203 16.9609ZM17.484 15.077C17.484 15.1355 17.4607 15.1917 17.4193 15.2332C17.3779 15.2746 17.3217 15.2979 17.2631 15.2979C17.2045 15.2979 17.1483 15.2746 17.1069 15.2332C17.0655 15.1917 17.0422 15.1355 17.0422 15.077C17.0422 15.0184 17.0655 14.9622 17.1069 14.9208C17.1483 14.8793 17.2045 14.8561 17.2631 14.8561C17.3217 14.8561 17.3779 14.8793 17.4193 14.9208C17.4607 14.9622 17.484 15.0184 17.484 15.077V15.077ZM18.1035 13.4723C18.1035 13.5234 18.0832 13.5725 18.047 13.6087C18.0108 13.6449 17.9617 13.6652 17.9105 13.6652C17.8594 13.6652 17.8103 13.6449 17.7741 13.6087C17.7379 13.5725 17.7176 13.5234 17.7176 13.4723C17.7176 13.4211 17.7379 13.372 17.7741 13.3358C17.8103 13.2996 17.8594 13.2793 17.9105 13.2793C17.9617 13.2793 18.0108 13.2996 18.047 13.3358C18.0832 13.372 18.1035 13.4211 18.1035 13.4723ZM17.4941 11.3902C17.4941 11.4414 17.4738 11.4905 17.4376 11.5267C17.4014 11.5629 17.3524 11.5832 17.3012 11.5832C17.25 11.5832 17.2009 11.5629 17.1647 11.5267C17.1285 11.4905 17.1082 11.4414 17.1082 11.3902C17.1082 11.3391 17.1285 11.29 17.1647 11.2538C17.2009 11.2176 17.25 11.1973 17.3012 11.1973C17.3524 11.1973 17.4014 11.2176 17.4376 11.2538C17.4738 11.29 17.4941 11.3391 17.4941 11.3902V11.3902Z" fill="#9D4916" stroke="#68300E" stroke-width="0.1375"/>
<path fill-rule="evenodd" clip-rule="evenodd" d="M10.7859 14.6047V13.782L10.6996 13.711V13.518L10.852 13.5027L10.8824 12.5887L10.7809 12.5328L10.7707 12.3805C10.7707 12.3805 10.8824 12.4211 10.8824 12.3906L10.9078 12.2129C10.9078 12.2129 10.8418 12.1977 10.8418 12.1672C10.8418 12.1367 10.923 12.0707 10.923 12.0707C10.923 12.0707 10.8824 12.0301 10.8723 12.0047L10.8266 11.8524L10.8672 11.7L10.8418 11.6137L10.7707 11.4867L10.8723 11.3902L10.8418 11.2379C10.8418 11.2125 10.9078 11.0957 10.923 11.0856L11.05 10.918L11.2836 10.8621L11.5629 10.9027L11.7152 11.0043L11.7457 11.2531C11.7457 11.2531 11.7152 11.4055 11.7051 11.4055L11.5781 11.4563C11.5781 11.4563 11.441 11.4715 11.4258 11.4563C11.4105 11.441 11.4664 11.6238 11.4664 11.6238V11.7914L11.4512 11.9996C11.4512 11.9996 11.4512 12.1012 11.441 12.1113L11.3953 12.1672L11.3852 12.3754L11.6035 12.4313L11.5934 12.5582L11.441 12.5735L11.4664 13.4215L11.6898 13.4621V13.7008L11.5883 13.7516L11.5629 14.6047H10.7859ZM14.1629 14.6149V13.7973L14.0816 13.7262V13.5332L14.234 13.518L14.2645 12.6039L14.1629 12.543L14.1527 12.3906C14.1527 12.3906 14.2645 12.4313 14.2645 12.4059L14.2898 12.2231C14.2898 12.2231 14.2187 12.2129 14.2187 12.1824C14.2187 12.152 14.3051 12.086 14.3051 12.086C14.3051 12.086 14.2645 12.0453 14.2492 12.0149C14.234 11.9844 14.2086 11.8625 14.2086 11.8625L14.2492 11.7102L14.2187 11.6289L14.1527 11.502L14.2492 11.4004L14.2187 11.2481C14.2385 11.1927 14.2677 11.1411 14.3051 11.0957L14.427 10.9332L14.6656 10.8774L14.9449 10.918L15.0973 11.0195L15.1227 11.2633C15.1227 11.2633 15.0973 11.4156 15.082 11.4156C15.0668 11.4156 14.9551 11.4766 14.9551 11.4766C14.9551 11.4766 14.818 11.4867 14.8027 11.4766C14.7875 11.4664 14.8484 11.6391 14.8484 11.6391V11.8067L14.8332 12.0149C14.8332 12.0149 14.8332 12.1164 14.818 12.1266L14.7773 12.1824L14.7621 12.3906L14.9855 12.4465L14.9703 12.5735L14.818 12.5887L14.8484 13.4367L15.0668 13.4774V13.711L14.9703 13.7668L14.9449 14.6149H14.1629V14.6149ZM12.4566 14.6453V13.8227L12.3703 13.7567V13.5586L12.5227 13.5484L12.5531 12.6293L12.4516 12.5735L12.4414 12.4211C12.4414 12.4211 12.5531 12.4617 12.5531 12.4363L12.5785 12.2535C12.5785 12.2535 12.5074 12.2383 12.5074 12.2129C12.5074 12.1875 12.5937 12.1113 12.5937 12.1113L12.5379 12.0453C12.5227 12.0199 12.4973 11.893 12.4973 11.893L12.5379 11.7406L12.5074 11.6543L12.4414 11.5324L12.5379 11.4309L12.5074 11.2785C12.5272 11.2231 12.5564 11.1716 12.5937 11.1262L12.7207 10.9586L12.9543 10.9078L13.2336 10.9485L13.3859 11.0449L13.4113 11.2938C13.4113 11.2938 13.3859 11.4461 13.3707 11.4461C13.3555 11.4461 13.2488 11.502 13.2488 11.502C13.2488 11.502 13.1066 11.5172 13.0965 11.502C13.0863 11.4867 13.1371 11.6695 13.1371 11.6695V11.8371L13.1219 12.0402C13.1219 12.0402 13.1219 12.1418 13.1066 12.157C13.0914 12.1672 13.066 12.2078 13.066 12.2078L13.0508 12.4211L13.2742 12.4719L13.259 12.5988L13.1066 12.6141L13.1371 13.4621L13.3605 13.5027V13.7414L13.259 13.7922L13.2336 14.6453H12.4566V14.6453Z" fill="white" stroke="#A9A9A9" stroke-width="0.1375"/>
<path fill-rule="evenodd" clip-rule="evenodd" d="M10.9891 14.5945V13.9496H11.3547V14.625L10.9891 14.5945ZM12.6953 14.6453L12.7105 13.9851H13.0355V14.6351L12.7004 14.6504L12.6953 14.6453ZM14.3813 14.6351L14.3559 14.0156L14.7012 14.0004V14.6504L14.3813 14.6351ZM11.0805 12.6801H11.2836V13.0203H11.0805V12.6801ZM12.7258 12.6953H13.0102V13.0203H12.7258V12.6953ZM14.4016 12.7207H14.6555V13.0304H14.4016V12.7207Z" fill="black"/>
<path d="M11.1871 11.2125C11.4105 11.4613 11.4258 11.4613 11.4258 11.4613M12.8477 11.2074C12.8832 11.2937 12.9543 11.4765 13.0406 11.4867M14.625 11.2531C14.625 11.2531 14.691 11.4461 14.7926 11.4715" stroke="#A8A8A8" stroke-width="0.1375"/>
<path fill-rule="evenodd" clip-rule="evenodd" d="M10.9535 10.5117C11.6035 10.2984 10.8012 9.87694 10.6691 10.5117C10.4559 10.5422 10.4305 10.6996 9.97344 10.6285C8.87148 12.4262 9.68906 15.3156 12.9086 18.3117C7.13984 13.4062 9.48594 9.78046 11.0805 9.91249C11.9488 9.97343 11.5121 11.0551 10.9535 10.5117V10.5117Z" fill="#B97700"/>
<path d="M11.1312 9.58749C11.1312 9.58749 11.6645 9.72968 11.6645 9.95819M11.6645 9.55194C11.6645 9.55194 12.0301 9.70936 12.1113 9.85663M14.5539 9.61288C14.5539 9.61288 14.0867 9.66874 13.9852 9.816M13.843 9.64842C13.843 9.64842 13.5789 9.87694 13.5992 9.93788M13.782 10.6285C13.7414 10.6082 13.5586 10.3644 13.5992 10.0598M11.9895 10.466C11.9895 10.466 12.1113 10.3238 12.1113 10.0598M12.8426 9.95819L12.8629 10.5473M13.3707 10.466C13.3707 10.4254 13.5383 10.0394 13.3555 9.85663M12.2535 9.77538C12.2535 9.77538 12.1113 10.1613 12.2129 10.4863M13.2945 10.1207C13.2945 10.1207 13.0711 10.1816 12.9695 10.2832M12.3348 10.1816C12.3348 10.1613 12.5785 10.1207 12.6598 10.2629" stroke="#7D6C00" stroke-width="0.3"/>
<path fill-rule="evenodd" clip-rule="evenodd" d="M11.9488 16.3516C11.959 16.3516 12.152 16.316 12.152 16.2195C12.2535 16.1586 12.1773 15.9809 12.1773 15.9809L11.9945 15.9453L11.7457 15.6609C11.7355 15.5746 11.766 15.4934 11.7102 15.407C11.5375 15.4477 11.441 15.5899 11.3801 15.7574C11.4258 15.8082 11.4309 15.8641 11.507 15.9098C11.5883 15.925 11.6441 15.8793 11.7203 15.8945C11.7609 15.9606 11.7508 16.0215 11.7609 16.0824C11.8625 16.1586 11.8879 16.2602 11.9488 16.3516V16.3516ZM11.7254 15.1481V14.8129L11.4867 14.8078C11.4562 14.8586 11.4004 14.8789 11.3648 14.9246L11.2023 15.0059C11.2684 15.0922 11.3547 15.1379 11.4055 15.1785C11.5324 15.2141 11.6289 15.2141 11.7254 15.1481V15.1481ZM10.9738 15.6406L10.8469 15.4223C10.9308 15.3989 11.0202 15.4043 11.1008 15.4375C11.1008 15.4375 11.1566 15.5746 11.116 15.6254C11.0957 15.6762 10.9687 15.6508 10.9738 15.6406ZM12.9543 15.8641C12.9919 15.8493 13.0251 15.8253 13.0508 15.7942C13.0766 15.7631 13.094 15.726 13.1016 15.6863L12.8578 15.407H12.6445C12.5937 15.3512 12.5125 15.341 12.4465 15.341C12.4465 15.341 12.5176 15.4426 12.6039 15.468C12.6699 15.6051 12.9391 15.8641 12.9594 15.8641H12.9543ZM13.1879 15.8996C13.2917 15.8531 13.4042 15.8288 13.518 15.8285C13.5078 15.7422 13.6754 15.5391 13.6754 15.5391L13.9801 15.9352C13.9242 15.9809 13.8277 15.9656 13.7516 15.9809C13.7516 15.9809 13.6043 16.1231 13.5891 16.1281C13.5738 16.1332 13.3098 16.1942 13.1828 16.118C13.1219 16.0063 13.193 15.8793 13.1879 15.8996V15.8996ZM13.3605 15.2039C13.3961 15.077 13.4113 14.95 13.3605 14.7977C13.3605 14.7977 13.0152 14.7875 13.0152 14.7977L12.7867 14.8992C12.7867 14.8992 12.8629 15.1277 12.9492 15.1024C12.9898 15.2242 13.1066 15.1938 13.1625 15.2344L13.3605 15.2039V15.2039ZM14.7062 14.8586C14.6605 15.0008 14.6352 15.1531 14.7062 15.2953C14.7672 15.3055 14.8383 15.3461 14.8941 15.3359L15.1734 14.8383C14.9805 14.7774 14.8281 14.7824 14.7062 14.8586Z" fill="#C76E2E"/>
<path fill-rule="evenodd" clip-rule="evenodd" d="M14.7926 10.4609C14.1426 10.2578 14.9449 9.83123 15.077 10.4609C15.2902 10.4965 15.3156 10.6539 15.7727 10.5879C16.8695 12.3804 16.057 15.275 12.8375 18.266C18.6012 13.3605 16.2602 9.73474 14.6656 9.86677C13.7922 9.92771 14.234 11.0094 14.7926 10.466V10.4609Z" fill="#B97700"/>
<path fill-rule="evenodd" clip-rule="evenodd" d="M14.8586 15.4172C14.8484 15.4172 14.691 15.534 14.691 15.534L14.4676 15.6203L14.2289 15.6254L14.1781 15.4629L14.3609 15.3004C14.2086 15.275 14.0512 15.3359 13.9293 15.4527C13.9293 15.4527 13.9293 15.6305 14.0309 15.7219C14.1063 15.8009 14.1878 15.8739 14.2746 15.9402C14.3914 15.9605 14.498 15.9402 14.5742 15.8844L14.8586 15.4172V15.4172ZM13.5992 17.0523C13.6754 17.0726 14.2137 16.3617 14.2137 16.3617C14.1658 16.2338 14.0715 16.1287 13.9496 16.0672C13.9496 16.0672 13.6855 16.3719 13.6805 16.4785C13.6398 16.575 13.523 16.9355 13.5738 16.9812C13.5687 16.9914 13.5484 17.1336 13.5992 17.0523V17.0523Z" fill="#C76E2E"/>
<path fill-rule="evenodd" clip-rule="evenodd" d="M10.0953 17.1945C9.29297 16.4937 8.20625 16.1078 6.69297 16.6359C7.09922 16.8086 7.54102 16.8695 7.9168 17.0574L10.0953 17.1945Z" fill="#006800" stroke="#004100" stroke-width="0.3" stroke-linejoin="round"/>
<path d="M7.76953 16.6969C9.35391 16.7274 9.81602 17.1235 9.72969 17.0574" stroke="#00A400" stroke-width="0.275" stroke-linecap="round"/>
<path fill-rule="evenodd" clip-rule="evenodd" d="M10.1258 17.2758C9.65352 17.3672 8.99844 17.8242 8.80547 17.8039C8.29258 17.743 7.80508 17.5297 7.30742 17.3723C7.09922 17.3062 6.89102 17.3723 6.67773 17.3723C8.45508 16.5293 9.06445 16.6461 10.1309 17.2707L10.1258 17.2758Z" fill="#006800" stroke="#004100" stroke-width="0.275" stroke-linejoin="round"/>
<path fill-rule="evenodd" clip-rule="evenodd" d="M8.95781 16.0367C8.95781 16.0367 8.36367 16.118 8.09453 16.1383C7.83555 16.118 7.44961 15.8742 7.02812 15.4274C6.80469 15.1836 6.30195 15.2141 6.30195 15.2141C7.41914 14.9754 8.28242 15.1989 8.95781 16.0367ZM8.14531 14.884C7.33789 14.8332 6.33242 14.1071 6.1039 13.2489C6.1039 13.2641 6.39844 13.4367 6.35273 13.4824C7.67305 13.8176 7.76445 14.0867 8.15039 14.884H8.14531ZM9.50117 16.2703C9.61797 15.5391 9.65351 15.0516 9.29805 14.6199C9.01875 14.2899 8.94258 14.0918 8.73945 13.6297C8.68359 14.5946 8.47539 15.3867 9.50117 16.2703ZM8.23164 14.2391C8.83086 13.3656 8.93242 12.7055 8.84101 11.6696C8.77735 11.8729 8.69929 12.0714 8.60742 12.2637C7.71875 12.8223 8.11484 13.6957 8.23164 14.2442V14.2391Z" fill="#006800" stroke="#004100" stroke-width="0.3" stroke-linejoin="round"/>
<path fill-rule="evenodd" clip-rule="evenodd" d="M7.70351 10.0192C8.30273 10.8926 8.21133 11.7153 8.11484 12.7563C8.05271 12.5531 7.97635 12.3546 7.88633 12.1621C6.99258 11.6035 7.58672 10.5625 7.70351 10.0192Z" fill="#006800" stroke="#004100" stroke-width="0.3" stroke-linejoin="round"/>
<path fill-rule="evenodd" clip-rule="evenodd" d="M8.19609 11.375C9.64844 10.6387 9.08984 9.70936 9.35391 8.99335C8.34844 9.74491 8.21641 10.5422 8.19609 11.3699V11.375Z" fill="#006800" stroke="#004100" stroke-width="0.3" stroke-linejoin="round"/>
<path d="M8.39414 11.1871C8.57695 10.6793 8.9375 9.80585 8.97305 9.80585M7.96758 12.2637C7.93203 11.898 7.7543 10.923 7.73399 10.8265" stroke="#00A400" stroke-width="0.275" stroke-linecap="round"/>
<path fill-rule="evenodd" clip-rule="evenodd" d="M8.03359 13.8937C7.22109 13.8429 6.35273 12.741 6.11914 11.8828C6.11914 11.8929 6.41875 12.0656 6.36797 12.1113C7.52578 12.6293 7.64766 13.0965 8.03359 13.8886V13.8937ZM7.79492 13.132C7.1957 12.2586 7.08906 11.5984 7.18555 10.5625C7.20078 10.6437 7.39883 11.1566 7.41406 11.1566C8.30273 11.7152 7.90664 12.5886 7.79492 13.1371V13.132ZM8.32812 11.6035C9.83125 10.9383 9.36914 10.2375 9.81602 9.50623C8.81055 10.2527 8.34336 10.7758 8.32812 11.6035V11.6035Z" fill="#006800" stroke="#004100" stroke-width="0.3" stroke-linejoin="round"/>
<path d="M8.39414 11.4512C9.00352 10.8418 9.22188 10.334 9.22188 10.334" stroke="#00A400" stroke-width="0.275" stroke-linecap="round"/>
<path fill-rule="evenodd" clip-rule="evenodd" d="M13.7313 19.8453L14.4625 19.8605C12.0402 17.5855 7.38867 16.5953 8.03867 12.416C7.36328 16.9508 11.832 17.3672 13.7313 19.8453Z" fill="#FFE100" stroke="#E9BF00" stroke-width="0.3"/>
<path fill-rule="evenodd" clip-rule="evenodd" d="M8.41953 11.5172C8.41953 11.5478 8.41349 11.5782 8.40175 11.6066C8.39001 11.6349 8.37281 11.6606 8.35111 11.6823C8.32942 11.704 8.30367 11.7212 8.27533 11.733C8.24699 11.7447 8.21661 11.7508 8.18594 11.7508C8.15526 11.7508 8.12489 11.7447 8.09655 11.733C8.06821 11.7212 8.04245 11.704 8.02076 11.6823C7.99907 11.6606 7.98187 11.6349 7.97013 11.6066C7.95839 11.5782 7.95235 11.5478 7.95235 11.5172C7.95235 11.4552 7.97696 11.3958 8.02076 11.352C8.06457 11.3082 8.12399 11.2836 8.18594 11.2836C8.24789 11.2836 8.30731 11.3082 8.35111 11.352C8.39492 11.3958 8.41953 11.4552 8.41953 11.5172ZM8.27735 12.7969C8.27735 12.8554 8.25407 12.9116 8.21265 12.953C8.17122 12.9945 8.11503 13.0177 8.05645 13.0177C7.99786 13.0177 7.94167 12.9945 7.90025 12.953C7.85882 12.9116 7.83555 12.8554 7.83555 12.7969C7.83555 12.7383 7.85882 12.6821 7.90025 12.6407C7.94167 12.5992 7.99786 12.576 8.05645 12.576C8.11503 12.576 8.17122 12.5992 8.21265 12.6407C8.25407 12.6821 8.27735 12.7383 8.27735 12.7969ZM8.48047 14.625C8.48047 14.6762 8.46014 14.7252 8.42395 14.7614C8.38776 14.7976 8.33868 14.8179 8.2875 14.8179C8.23632 14.8179 8.18724 14.7976 8.15105 14.7614C8.11486 14.7252 8.09453 14.6762 8.09453 14.625C8.09453 14.5738 8.11486 14.5247 8.15105 14.4885C8.18724 14.4523 8.23632 14.432 8.2875 14.432C8.33868 14.432 8.38776 14.4523 8.42395 14.4885C8.46014 14.5247 8.48047 14.5738 8.48047 14.625V14.625ZM10.1766 16.641C10.1766 16.6928 10.156 16.7426 10.1193 16.7792C10.0826 16.8159 10.0329 16.8365 9.98106 16.8365C9.9292 16.8365 9.87948 16.8159 9.84281 16.7792C9.80615 16.7426 9.78555 16.6928 9.78555 16.641C9.78555 16.5891 9.80615 16.5394 9.84281 16.5027C9.87948 16.4661 9.9292 16.4455 9.98106 16.4455C10.0329 16.4455 10.0826 16.4661 10.1193 16.5027C10.156 16.5394 10.1766 16.5891 10.1766 16.641ZM10.4203 17.2199C10.4203 17.2711 10.4 17.3202 10.3638 17.3563C10.3276 17.3925 10.2785 17.4129 10.2273 17.4129C10.1762 17.4129 10.1271 17.3925 10.0909 17.3563C10.0547 17.3202 10.0344 17.2711 10.0344 17.2199C10.0344 17.1687 10.0547 17.1196 10.0909 17.0834C10.1271 17.0473 10.1762 17.0269 10.2273 17.0269C10.2785 17.0269 10.3276 17.0473 10.3638 17.0834C10.4 17.1196 10.4203 17.1687 10.4203 17.2199V17.2199Z" fill="#9D4916" stroke="#68300E" stroke-width="0.1375"/>
<path fill-rule="evenodd" clip-rule="evenodd" d="M11.2734 18.9058C11.1646 18.8229 11.0775 18.7149 11.0195 18.591L10.2578 18.5046L10.2477 18.9414L11.2785 18.9058H11.2734Z" fill="white" stroke="black" stroke-width="0.1375"/>
<path fill-rule="evenodd" clip-rule="evenodd" d="M5.70273 18.3929C6.14453 18.4742 6.80976 18.3523 7.02812 18.6367C7.29219 18.9312 6.21562 19.3883 6.36797 19.6422C6.69805 19.9976 7.04336 19.8504 7.41406 19.6574C7.50547 19.4644 7.57148 19.1242 7.61719 19.0226C7.48515 18.7129 7.11953 18.5605 7.21094 18.0883C7.83047 17.8547 9.01367 17.875 9.14062 17.9664C9.24219 18.1593 9.15078 18.2508 9.17109 18.4082C9.06953 18.6011 8.80547 18.9363 8.80547 19.1191C9.45039 19.3426 9.61797 19.0785 10.202 19.0937C10.8824 19.1039 11.2988 19.2867 11.4461 19.0176C11.3445 18.784 10.7199 18.9719 10.4812 18.8195C10.3645 18.7789 10.2883 18.6875 10.1867 18.5808C10.0852 18.4742 9.7957 18.4691 9.75 18.2101C9.87187 17.6566 10.6691 17.7429 10.8012 17.6566L12.8832 17.7988C13.259 17.7886 13.4723 18.4691 12.9645 18.6722C12.4566 18.8754 10.9484 18.3676 10.2984 18.723C10.2629 18.5758 9.79062 18.3625 9.76015 18.3523C9.55703 18.4133 9.17109 18.3929 9.17109 18.3929C9.07461 18.5707 8.96797 18.6976 8.87148 18.8754C8.43984 18.6875 8.03359 19.0226 7.56133 18.9261L6.825 19.0023L6.35781 18.9617L5.64687 19.1648L6.15469 18.7179L5.70273 18.3929V18.3929Z" fill="white" stroke="black" stroke-width="0.1375" stroke-linejoin="round"/>
<path fill-rule="evenodd" clip-rule="evenodd" d="M5.67227 18.3066C5.67684 18.3349 5.67522 18.3639 5.6675 18.3915C5.65978 18.4192 5.64615 18.4448 5.62756 18.4666C5.60897 18.4885 5.58586 18.506 5.55982 18.518C5.53378 18.5301 5.50544 18.5363 5.47676 18.5363C5.44808 18.5363 5.41974 18.5301 5.3937 18.518C5.36766 18.506 5.34455 18.4885 5.32596 18.4666C5.30736 18.4448 5.29374 18.4192 5.28602 18.3915C5.2783 18.3639 5.27667 18.3349 5.28125 18.3066C5.28876 18.2602 5.31256 18.2179 5.34838 18.1874C5.3842 18.1569 5.42971 18.1402 5.47676 18.1402C5.5238 18.1402 5.56931 18.1569 5.60514 18.1874C5.64096 18.2179 5.66476 18.2602 5.67227 18.3066V18.3066ZM5.62148 19.2766C5.62148 19.3291 5.60062 19.3795 5.56348 19.4166C5.52634 19.4537 5.47596 19.4746 5.42344 19.4746C5.37091 19.4746 5.32054 19.4537 5.2834 19.4166C5.24626 19.3795 5.22539 19.3291 5.22539 19.2766C5.22539 19.224 5.24626 19.1737 5.2834 19.1365C5.32054 19.0994 5.37091 19.0785 5.42344 19.0785C5.47596 19.0785 5.52634 19.0994 5.56348 19.1365C5.60062 19.1737 5.62148 19.224 5.62148 19.2766V19.2766Z" fill="white" stroke="black" stroke-width="0.1375"/>
<path fill-rule="evenodd" clip-rule="evenodd" d="M14.4219 18.9109C14.5488 18.7941 14.625 18.7179 14.6758 18.591L15.4375 18.5097L15.4527 18.9464L14.4219 18.9109Z" fill="white" stroke="black" stroke-width="0.1375"/>
<path fill-rule="evenodd" clip-rule="evenodd" d="M19.9926 18.398C19.5508 18.4793 18.8855 18.3574 18.6723 18.6418C18.4082 18.9363 19.4848 19.3933 19.3324 19.6472C18.9973 20.0027 18.657 19.8554 18.2812 19.6625C18.1949 19.4695 18.1289 19.1293 18.0781 19.0277C18.2152 18.7179 18.5809 18.5605 18.4844 18.0882C17.8699 17.8597 16.6867 17.88 16.5547 17.9664C16.4531 18.1644 16.5496 18.2558 16.5293 18.4082C16.6309 18.6113 16.8898 18.9414 16.8898 19.1191C16.2449 19.3476 16.0773 19.0836 15.4934 19.0988C14.8129 19.1089 14.3965 19.2918 14.2492 19.0175C14.3508 18.7839 14.9754 18.9769 15.2141 18.8246C15.3309 18.7839 15.407 18.6875 15.5137 18.5859C15.6203 18.4843 15.9047 18.4742 15.9453 18.2152C15.8234 17.6617 15.0262 17.748 14.8941 17.6617L12.8121 17.8039C12.4363 17.7937 12.2281 18.4742 12.7359 18.6773C13.2437 18.8804 14.7469 18.3726 15.402 18.723C15.4375 18.5808 15.9047 18.3675 15.9402 18.3574C16.1383 18.4183 16.5293 18.398 16.5293 18.398C16.6207 18.5707 16.7324 18.7027 16.8289 18.8804C17.2605 18.6875 17.6668 19.0277 18.1391 18.9312L18.8703 19.0074L19.3426 18.9668L20.0535 19.1699L19.5457 18.723L19.9926 18.398V18.398Z" fill="white" stroke="black" stroke-width="0.1375" stroke-linejoin="round"/>
<path fill-rule="evenodd" clip-rule="evenodd" d="M20.0281 18.3066C20.0235 18.3349 20.0252 18.3639 20.0329 18.3915C20.0406 18.4192 20.0542 18.4448 20.0728 18.4666C20.0914 18.4885 20.1145 18.506 20.1406 18.518C20.1666 18.5301 20.195 18.5363 20.2236 18.5363C20.2523 18.5363 20.2807 18.5301 20.3067 18.518C20.3327 18.506 20.3558 18.4885 20.3744 18.4666C20.393 18.4448 20.4067 18.4192 20.4144 18.3915C20.4221 18.3639 20.4237 18.3349 20.4191 18.3066C20.4191 18.2541 20.3983 18.2037 20.3611 18.1666C20.324 18.1294 20.2736 18.1086 20.2211 18.1086C20.1686 18.1086 20.1182 18.1294 20.0811 18.1666C20.0439 18.2037 20.023 18.2541 20.023 18.3066H20.0281ZM20.0789 19.2816C20.0743 19.3099 20.076 19.3389 20.0837 19.3665C20.0914 19.3942 20.105 19.4198 20.1236 19.4416C20.1422 19.4635 20.1653 19.481 20.1914 19.493C20.2174 19.5051 20.2457 19.5113 20.2744 19.5113C20.3031 19.5113 20.3314 19.5051 20.3575 19.493C20.3835 19.481 20.4066 19.4635 20.4252 19.4416C20.4438 19.4198 20.4574 19.3942 20.4652 19.3665C20.4729 19.3389 20.4745 19.3099 20.4699 19.2816C20.4624 19.2352 20.4386 19.1929 20.4028 19.1624C20.367 19.1319 20.3215 19.1152 20.2744 19.1152C20.2274 19.1152 20.1819 19.1319 20.146 19.1624C20.1102 19.1929 20.0864 19.2352 20.0789 19.2816V19.2816Z" fill="white" stroke="black" stroke-width="0.1375"/>
<path fill-rule="evenodd" clip-rule="evenodd" d="M12.8375 17.8394C12.6598 17.8039 12.5988 17.8141 12.482 17.8039L12.2027 18.6621C12.6293 18.6976 13.0305 18.6976 13.0305 18.6976C12.7715 18.6469 12.8324 17.8445 12.8375 17.8344V17.8394Z" fill="white"/>
<path d="M11.1064 19.6174V18.1876H11.3601V19.392H12.0062V19.6174H11.1064Z" fill="black"/>
<path d="M11.5624 19.6445V18.2147H11.8161V19.6445H11.5624Z" fill="black"/>
<path d="M12.2744 19.6896H11.8372V18.2608C12.0298 18.2517 12.1648 18.2472 12.2422 18.2472C12.3906 18.2472 12.5064 18.279 12.5897 18.3428C12.6736 18.4059 12.7156 18.4963 12.7156 18.6141C12.7156 18.7273 12.6557 18.8168 12.536 18.8825C12.7136 18.9443 12.8024 19.0718 12.8024 19.2651C12.8024 19.3952 12.7533 19.4987 12.6551 19.5754C12.5568 19.6516 12.4299 19.6896 12.2744 19.6896ZM12.091 18.4638V18.8064C12.13 18.809 12.171 18.8103 12.2139 18.8103C12.3792 18.8103 12.4618 18.7482 12.4618 18.6239C12.4618 18.5139 12.3867 18.4589 12.2364 18.4589C12.1967 18.4589 12.1482 18.4606 12.091 18.4638ZM12.091 19.0045V19.4769C12.1424 19.4814 12.184 19.4837 12.2159 19.4837C12.3291 19.4837 12.4111 19.4645 12.4618 19.4261C12.5132 19.3877 12.5389 19.324 12.5389 19.2348C12.5389 19.1535 12.5152 19.0943 12.4677 19.0572C12.4202 19.0201 12.3372 19.0016 12.2188 19.0016C12.1941 19.0016 12.1515 19.0026 12.091 19.0045Z" fill="black"/>
<path d="M12.6233 18.5214V18.8561H13.0956V19.0718H12.6233V19.5003H13.2713V19.7257H12.3695V18.2959H13.282V18.5214H12.6233Z" fill="black"/>
<path d="M13.6899 19.7347L13.3083 19.1443C13.2699 19.1436 13.2163 19.1414 13.1473 19.1374V19.7347H12.8838V18.3049C12.8981 18.3049 12.9531 18.3027 13.0487 18.2981C13.1444 18.2929 13.2215 18.2903 13.28 18.2903C13.6431 18.2903 13.8246 18.4308 13.8246 18.7119C13.8246 18.7965 13.7996 18.8736 13.7495 18.9432C13.6994 19.0128 13.6363 19.062 13.5601 19.0906L13.9827 19.7347H13.6899ZM13.1473 18.5255V18.9227C13.1941 18.9266 13.2299 18.9286 13.2547 18.9286C13.3607 18.9286 13.4381 18.9136 13.4869 18.8837C13.5364 18.8538 13.5611 18.7955 13.5611 18.709C13.5611 18.6387 13.5348 18.5896 13.4821 18.5616C13.4294 18.5336 13.3464 18.5197 13.2332 18.5197C13.2059 18.5197 13.1772 18.5216 13.1473 18.5255Z" fill="black"/>
<path d="M13.9707 18.5123V19.7167H13.717V18.5123H13.2622V18.2869H14.446V18.5123H13.9707Z" fill="black"/>
<path d="M14.7107 19.6355L14.6063 19.3456H14.1163L14.0168 19.6355H13.7347L14.3047 18.1862H14.416L14.9908 19.6355H14.7107ZM14.3603 18.6234L14.1885 19.1514H14.5321L14.3603 18.6234Z" fill="black"/>
<path d="M14.3673 19.5384L14.461 19.311C14.5612 19.3812 14.6598 19.4164 14.7567 19.4164C14.9057 19.4164 14.9802 19.3643 14.9802 19.2602C14.9802 19.2114 14.9626 19.1649 14.9275 19.1207C14.8924 19.0764 14.8198 19.027 14.7099 18.9723C14.6006 18.917 14.5267 18.8718 14.4883 18.8367C14.4506 18.8009 14.4213 18.7586 14.4005 18.7098C14.3803 18.661 14.3702 18.607 14.3702 18.5478C14.3702 18.4372 14.4106 18.3454 14.4912 18.2725C14.5726 18.1997 14.6767 18.1632 14.8036 18.1632C14.9688 18.1632 15.0902 18.1941 15.1676 18.256L15.0905 18.4746C15.0014 18.4108 14.9073 18.3789 14.8084 18.3789C14.7499 18.3789 14.7043 18.3945 14.6718 18.4258C14.6399 18.4564 14.624 18.4964 14.624 18.5458C14.624 18.6278 14.7147 18.713 14.8963 18.8015C14.9919 18.8484 15.0609 18.8916 15.1032 18.9313C15.1455 18.9704 15.1777 19.0162 15.1998 19.0689C15.2219 19.121 15.233 19.1792 15.233 19.2436C15.233 19.3595 15.1871 19.4548 15.0954 19.5296C15.0043 19.6044 14.882 19.6418 14.7284 19.6418C14.595 19.6418 14.4747 19.6073 14.3673 19.5384Z" fill="black"/>
<path d="M8.19609 17.2555C8.74453 17.3215 9.50117 17.2758 9.83125 17.2555M7.37344 15.3918C7.83047 15.7574 8.84102 15.9707 8.82578 15.9707M9.39961 16.0723C9.25235 15.3105 9.08984 15.1328 8.95781 14.6504M6.59649 13.7922C7.37344 14.1426 7.49024 14.3711 7.98281 14.7164M8.26211 13.9547C8.32813 13.0203 8.46524 12.7715 8.69375 12.5582M6.59649 12.4414C6.99412 12.8729 7.3953 13.3012 7.8 13.7262M7.42422 11.5832C7.76953 11.832 7.76953 12.7207 7.76953 12.7207" stroke="#00A400" stroke-width="0.275" stroke-linecap="round"/>
</g>
</g>
<defs>
<clipPath id="clip0_1_14207">
<rect width="26" height="26" fill="white"/>
</clipPath>
</defs>
</svg>
