<svg width="26" height="26" viewBox="0 0 26 26" fill="none" xmlns="http://www.w3.org/2000/svg">
<mask id="mask0_1_14347" style="mask-type:alpha" maskUnits="userSpaceOnUse" x="0" y="0" width="26" height="26">
<circle cx="13" cy="13" r="13" fill="#634848"/>
</mask>
<g mask="url(#mask0_1_14347)">
<g clip-path="url(#clip0_1_14347)">
<path fill-rule="evenodd" clip-rule="evenodd" d="M0 0H39.0008V13.0003H17.3337L0 0Z" fill="#ED2939"/>
<path fill-rule="evenodd" clip-rule="evenodd" d="M0 26.0005H39.0008V13.0002H17.3337L0 26.0005Z" fill="#002395"/>
<path fill-rule="evenodd" clip-rule="evenodd" d="M0 0L17.3337 13.0003L0 26.0005V0Z" fill="white"/>
<path d="M8.74772 9.81086L8.7535 9.61441C8.7535 9.61441 8.64372 9.44107 8.77084 9.25618C8.77084 9.25618 8.50505 9.11173 8.56861 8.89217C8.56861 8.89217 8.32594 8.83439 8.34327 8.56861C8.34327 8.56861 8.08327 8.55128 8.05438 8.32594C8.05438 8.32594 7.79437 8.37216 7.68459 8.1526C7.68459 8.1526 7.43037 8.2046 7.35525 8.02549C7.35525 8.02549 7.11258 8.11216 6.96236 7.90415C6.96236 7.90415 6.70235 8.00815 6.59257 7.81171C6.48857 8.00815 6.22856 7.90415 6.22856 7.90415C6.08412 8.11216 5.83567 8.01971 5.83567 8.01971C5.76633 8.2046 5.51211 8.1526 5.51211 8.1526C5.39655 8.36638 5.13654 8.32594 5.13654 8.32594C5.11343 8.5455 4.84765 8.56283 4.84765 8.56283C4.85625 8.63408 4.83956 8.70608 4.80049 8.76627C4.76141 8.82647 4.70244 8.87103 4.63387 8.89217C4.69165 9.11173 4.43164 9.2504 4.43164 9.2504C4.55875 9.43529 4.44897 9.60863 4.44897 9.60863V9.79352L8.74772 9.81086Z" fill="#FFFF00"/>
<path d="M8.7494 9.81309V9.60937C8.7494 9.60937 8.64462 9.43475 8.77269 9.26013C8.77269 9.26013 8.50491 9.11461 8.56895 8.89343C8.56895 8.89343 8.32445 8.83522 8.34192 8.56748C8.34192 8.56748 8.07996 8.55001 8.05086 8.32883C8.05086 8.32883 7.79472 8.36957 7.68412 8.15421C7.68412 8.15421 7.42798 8.20078 7.35813 8.02616C7.35813 8.02616 7.10782 8.11346 6.96229 7.90392C6.96229 7.90392 6.70033 8.00869 6.59555 7.81079C6.48495 8.00869 6.22299 7.90392 6.22299 7.90392C6.08328 8.10764 5.83297 8.02033 5.83297 8.02033C5.76311 8.20077 5.5128 8.15421 5.5128 8.15421C5.39638 8.36957 5.13442 8.32883 5.13442 8.32883C5.11114 8.54419 4.84918 8.56165 4.84918 8.56165C4.85881 8.63285 4.84228 8.70511 4.80267 8.76505C4.76307 8.82499 4.70307 8.86854 4.6338 8.88761C4.69201 9.1088 4.43005 9.24849 4.43005 9.24849C4.55812 9.43475 4.44752 9.60937 4.44752 9.60937V9.79563L8.7494 9.81309V9.81309Z" stroke="black" stroke-width="0.0429854"/>
<path d="M8.6495 9.56239C7.97349 9.49306 7.19348 9.33128 6.59257 9.67217C6.18812 9.43528 5.62767 9.44684 5.1481 9.49884C4.89387 9.53928 4.58765 9.53928 4.31609 9.5855L4.27564 9.59128C3.77874 9.62595 3.33384 9.47573 2.90628 9.29083C3.04495 10.0593 3.19517 10.8509 3.27029 11.6598C3.43207 12.85 2.70405 13.8554 2.99873 15.0341C3.17784 15.6003 3.80185 15.9296 4.37386 15.9932C4.92203 16.0291 5.46671 16.1063 6.00323 16.2243C6.10044 16.2482 6.19522 16.2811 6.28635 16.3225C6.41066 16.3764 6.52271 16.4551 6.61569 16.5536C6.92769 16.2359 7.37837 16.1492 7.82904 16.103C8.62639 16.0047 9.62019 16.0567 10.1113 15.3287V15.2883C10.3771 14.8838 10.3424 14.2714 10.2269 13.8149C10.2153 13.6589 10.1749 13.5202 10.1518 13.3642C9.66063 12.07 10.0824 10.614 10.2904 9.30817C10.0362 9.44684 9.7473 9.51617 9.45841 9.5855C9.22729 9.61439 8.97884 9.60284 8.74195 9.5855L8.6495 9.56239" fill="#FF0000"/>
<path d="M9.66063 13.2834C9.65485 13.37 9.70108 13.4336 9.71841 13.5145C9.81086 14.0807 9.9033 14.8318 9.31396 15.1843C8.67839 15.5888 7.82904 15.4154 7.08369 15.635C6.93347 15.6754 6.72546 15.8083 6.62146 15.9065C6.55213 15.8661 6.48857 15.7968 6.4019 15.7563C5.78367 15.4328 4.98632 15.5368 4.29297 15.3634C3.9463 15.2479 3.58229 14.9821 3.48984 14.6238C3.26451 13.6878 3.80763 12.8905 3.74407 11.966C3.69971 11.2719 3.5914 10.5833 3.42051 9.90909C3.98045 10.1536 4.6035 10.2143 5.2001 10.0824C5.65077 10.0246 6.18234 10.0246 6.59835 10.2095C6.84149 10.1173 7.09619 10.0589 7.35525 10.0362C7.83482 10.0824 8.34905 10.1691 8.84017 10.1691C9.15696 10.1459 9.46661 10.0636 9.75308 9.92642C9.57974 11.0242 9.25618 12.1798 9.65485 13.2776" fill="#80CFE1"/>
<path d="M8.68417 13.5029L8.67839 12.4687H8.8055L7.22236 11.446V10.9202H7.37259L6.58102 10.354L5.79522 10.9202H5.94545V11.446L4.38542 12.4687H4.50098L4.51253 13.4971H8.67261" fill="white"/>
<path d="M8.67955 13.5034V12.4673H8.80179L7.23006 11.4487L7.22424 10.9249H7.37559L6.58391 10.3544L5.79804 10.919H5.94939L5.95521 11.4487L4.38348 12.4673H4.51155V13.4976H8.67955V13.5034Z" stroke="black" stroke-width="0.171941"/>
<path d="M9.16951 14.855V15.1785H4.08497V14.8492H9.16951" fill="white"/>
<path d="M9.16853 14.8596V15.1797H4.08078V14.8538H9.16853V14.8596Z" stroke="black" stroke-width="0.171941"/>
<path d="M4.42009 14.8376V13.7398H4.62231L4.61076 14.8492L4.62231 13.7514L4.33342 13.7456V13.5145H8.87484V13.7456H8.59173L8.5975 14.855L8.59173 13.7456H8.79973V14.8434" fill="white"/>
<path d="M4.41841 14.8363V13.742H4.62215L4.61051 14.848L4.62215 13.7537L4.33109 13.742V13.5092L8.87165 13.515V13.7479H8.59223L8.59805 14.8538L8.58641 13.7479H8.79597L8.80179 14.8421" stroke="black" stroke-width="0.171941"/>
<path d="M5.39638 14.5686V13.8061H4.77933V14.5627L5.39056 14.5686" stroke="black" stroke-width="0.171941"/>
<path d="M4.95396 13.9632V14.4056H5.23338V13.9632H4.94814M8.38267 14.5686L8.37684 13.8119H7.77144V14.5686H8.38267Z" stroke="black" stroke-width="0.171941"/>
<path d="M7.93443 13.969V14.4114H8.21385V13.969H7.93443ZM8.37684 13.3288V12.5721H7.76561V13.3288H8.37684Z" stroke="black" stroke-width="0.171941"/>
<path d="M7.92861 12.7293V13.1716H8.20803V12.7293H7.92861ZM5.39056 13.3288V12.5663H4.77933V13.323H5.39056V13.3288Z" stroke="black" stroke-width="0.171941"/>
<path d="M6.49659 13.3288V12.5663H5.88536V13.323H6.49659M4.94814 12.7234V13.1658H5.22756V12.7234H4.94814Z" stroke="black" stroke-width="0.171941"/>
<path d="M6.04835 12.7234V13.1658H6.32777V12.7234H6.04835ZM7.34649 13.3288V12.5721L6.73526 12.5663V13.323L7.34649 13.3288Z" stroke="black" stroke-width="0.171941"/>
<path d="M6.89825 12.7234V13.1658H7.18349V12.7234H6.89825Z" stroke="black" stroke-width="0.171941"/>
<path d="M7.4997 13.0985L7.50548 14.855H5.74322L5.73745 13.0927H7.4997" fill="white"/>
<path d="M5.72237 13.5965H7.50366M5.94357 14.8538V13.6082M7.28828 14.8538V13.614M7.49784 13.0959L7.50366 14.8538H5.73983L5.73401 13.0959H7.49784ZM8.14399 12.3451L7.15439 11.6233H6.03089L5.04128 12.3451H8.14399ZM6.11821 11.018V11.4603H7.06125V11.018H6.11821Z" stroke="black" stroke-width="0.171941"/>
<path d="M6.58391 10.5058L7.10782 10.8783H6.06582L6.58973 10.5058M6.37434 11.1286V11.3498H6.80511V11.1286H6.37434Z" stroke="black" stroke-width="0.171941"/>
<path d="M8.7015 10.2615C8.85173 10.2615 8.88639 10.874 8.88639 11.1802C9.09295 11.2607 9.27722 11.3895 9.42374 11.5558H7.99082C8.13407 11.3909 8.31422 11.2623 8.51661 11.1802C8.51661 10.874 8.55128 10.2558 8.7015 10.2615" fill="white"/>
<path d="M6.97393 13.1425H7.102L7.06125 13.2182C7.06125 13.2182 7.12528 13.2938 7.06125 13.387L7.09618 13.4452H6.97975L7.00886 13.387C7.00886 13.387 6.95064 13.2822 7.00886 13.2124L6.97393 13.1483M8.69701 10.2613C8.84836 10.2613 8.88329 10.8725 8.88329 11.181C9.01136 11.2159 9.2966 11.3963 9.41885 11.5535H7.98682C8.10907 11.3963 8.39431 11.2159 8.51656 11.181C8.51656 10.8725 8.55148 10.2613 8.69701 10.2613ZM5.81551 13.1425H5.94357L5.90865 13.2124C5.90865 13.2124 5.96686 13.2938 5.90865 13.387L5.94357 13.4452H5.81551L5.85043 13.387C5.85043 13.387 5.79222 13.2822 5.85043 13.2124L5.81551 13.1425ZM6.07746 13.1425H6.20553L6.1706 13.2124C6.1706 13.2124 6.22881 13.2938 6.1706 13.387L6.20553 13.4452H6.07746L6.11239 13.387C6.11239 13.387 6.05418 13.2822 6.11239 13.2124L6.07746 13.1425ZM6.36852 13.1425H6.49077L6.45584 13.2124C6.45584 13.2124 6.51405 13.2938 6.45584 13.387L6.49077 13.4452H6.36852L6.39763 13.387C6.39763 13.387 6.33942 13.2822 6.39763 13.2124L6.3627 13.1425H6.36852ZM6.68869 13.1425H6.81676L6.77601 13.2182C6.77601 13.2182 6.84004 13.2938 6.77601 13.387L6.81094 13.4452H6.68869L6.72362 13.387C6.72362 13.387 6.66541 13.2822 6.72362 13.2124L6.68869 13.1483V13.1425ZM7.25917 13.1483H7.38724L7.34649 13.2182C7.34649 13.2182 7.41052 13.2938 7.34649 13.387L7.38142 13.4452H7.26499L7.2941 13.387C7.2941 13.387 7.23589 13.2822 7.2941 13.2124L7.25917 13.1483Z" stroke="black" stroke-width="0.171941"/>
<path d="M6.62724 17.1025C7.25896 17.1191 7.8876 17.0091 8.47617 16.779L9.31974 16.7039L9.33129 17.7208C8.62639 18.1137 6.99125 18.2003 6.62724 18.1946C6.26901 18.1946 4.61076 18.1137 3.90008 17.7208L3.91163 16.6981L4.74943 16.7732C5.3482 17.0039 5.98564 17.1176 6.62724 17.1083" fill="#FFFF00"/>
<path d="M6.62466 17.1064C7.28828 17.1064 8.09743 16.9725 8.48163 16.7746L9.31406 16.7048L9.33153 17.7234C8.62716 18.1134 6.98557 18.2007 6.63048 18.1948C6.26956 18.1948 4.61051 18.1134 3.8945 17.7176L3.90614 16.6989L4.7444 16.7746C5.1286 16.9725 5.96686 17.1064 6.62466 17.1064" stroke="black" stroke-width="0.0429854"/>
<path d="M1.74492 12.7518L2.48449 12.9829L2.25915 14.1789L1.56581 14.2887C1.56581 14.2887 1.45025 13.6589 1.74492 12.7518" fill="#FFFF00"/>
<path d="M1.74647 12.7525L2.47994 12.9854L2.25874 14.1786L1.56019 14.2892C1.56019 14.2892 1.44377 13.6606 1.74647 12.7525Z" stroke="black" stroke-width="0.0429854"/>
<path d="M2.25915 14.1674L1.56581 14.2887L2.00493 13.6589L2.25915 14.1674Z" fill="#7E7E7E"/>
<path d="M2.25874 14.1669L1.56019 14.2834L2.0026 13.6606L2.25874 14.1669Z" stroke="black" stroke-width="0.0429854"/>
<path d="M1.3058 13.6127L2.01648 13.6647C2.03382 14.2656 2.10315 16.5594 4.84765 16.6865L4.76098 17.5243C1.42136 17.559 1.17291 14.7047 1.3058 13.6127" fill="#FFFF00"/>
<path d="M3.91196 17.6943L4.75022 17.5138M1.30405 13.614L2.01424 13.6605C2.03171 14.2659 2.10156 16.5592 4.84918 16.6873L4.76186 17.5255C1.42048 17.5604 1.17017 14.7083 1.30405 13.614V13.614Z" stroke="black" stroke-width="0.0429854"/>
<path d="M11.446 12.7576L10.7122 12.9887L10.9433 14.1847L11.6425 14.3003C11.6425 14.3003 11.758 13.6647 11.446 12.7576Z" fill="#FFFF00"/>
<path d="M11.4446 12.7584L10.7112 12.9912L10.944 14.1844L11.6426 14.3008C11.6426 14.3008 11.759 13.6722 11.4446 12.7584Z" stroke="black" stroke-width="0.0429854"/>
<path d="M10.9433 14.1732L11.6425 14.2945L11.1976 13.6705L10.9433 14.1732" fill="#7E7E7E"/>
<path d="M10.944 14.1728L11.6426 14.295L11.1943 13.6722L10.944 14.1728Z" stroke="black" stroke-width="0.0429854"/>
<path d="M11.8967 13.6185L11.186 13.6705C11.1744 14.2714 11.1224 16.571 8.37794 16.6923L8.47039 17.5244C11.81 17.5648 12.0411 14.7105 11.8967 13.6185" fill="#FFFF00"/>
<path d="M9.31988 17.6943L8.48163 17.5196M11.8929 13.6198L11.1827 13.6664C11.171 14.2717 11.1245 16.5709 8.37684 16.6931L8.46998 17.5255C11.8114 17.5662 12.0384 14.7141 11.8929 13.6256V13.6198Z" stroke="black" stroke-width="0.0429854"/>
<path d="M6.18234 17.611C6.16501 17.6226 6.13612 17.6226 6.10723 17.6226L5.97434 17.6168L5.98589 17.4492L6.11879 17.455C6.1419 17.455 6.16501 17.4666 6.17656 17.4723C6.20545 17.4839 6.21701 17.5128 6.21123 17.5475C6.21123 17.5763 6.19968 17.5995 6.18234 17.6052M5.957 17.871L5.97434 17.6688L6.12456 17.6803C6.16599 17.683 6.207 17.6707 6.24012 17.6457C6.26323 17.6168 6.28057 17.5879 6.28057 17.5475C6.28291 17.5286 6.28102 17.5095 6.27502 17.4915C6.26902 17.4735 6.25907 17.4571 6.2459 17.4435C6.21713 17.4181 6.18026 17.4037 6.1419 17.403L5.92234 17.3915L5.89345 17.8652H5.957M6.44235 17.4723H6.60413L6.66191 17.4839C6.67924 17.4955 6.6908 17.5186 6.6908 17.5532C6.6908 17.5879 6.68502 17.611 6.66769 17.6226C6.65035 17.6341 6.62146 17.6399 6.59257 17.6399H6.43657V17.4723M6.43657 17.8941V17.6919H6.58679C6.61568 17.6919 6.6388 17.6919 6.65035 17.7035C6.67346 17.7092 6.68502 17.7323 6.68502 17.7612V17.8421L6.6908 17.8826L6.69657 17.8999H6.77747V17.8883C6.77159 17.8857 6.76643 17.8817 6.76241 17.8767C6.75839 17.8717 6.75563 17.8658 6.75435 17.8595V17.7555C6.75435 17.7266 6.7428 17.7035 6.73124 17.6977C6.72173 17.6822 6.70758 17.67 6.6908 17.663L6.74858 17.6226L6.76013 17.5475C6.76013 17.4955 6.73702 17.455 6.6908 17.4377C6.66145 17.4258 6.63001 17.4199 6.59835 17.4203H6.37301V17.8941H6.43657M6.94502 17.7959C6.91411 17.7582 6.8959 17.7117 6.89302 17.663C6.89302 17.5937 6.90458 17.5475 6.93347 17.5128C6.96236 17.4723 7.0028 17.455 7.0548 17.455C7.11258 17.455 7.14725 17.4666 7.18192 17.5012C7.21081 17.5301 7.23392 17.5763 7.2397 17.6341C7.2397 17.6861 7.22814 17.7323 7.20503 17.7728C7.17614 17.8132 7.14147 17.8363 7.07792 17.8421C7.02014 17.8421 6.97391 17.8306 6.94502 17.7959M6.86413 17.4955C6.83281 17.5454 6.81862 17.6042 6.82369 17.663C6.82559 17.7272 6.85015 17.7886 6.89302 17.8363C6.91716 17.858 6.94557 17.8743 6.97643 17.8843C7.00729 17.8943 7.0399 17.8976 7.07214 17.8941C7.1076 17.8953 7.14284 17.888 7.17496 17.8729C7.20709 17.8579 7.23521 17.8354 7.25703 17.8075C7.29165 17.7544 7.30789 17.6915 7.30325 17.6283C7.30335 17.5693 7.28292 17.5122 7.24547 17.4666C7.19925 17.4146 7.12992 17.3915 7.04903 17.3972C6.96236 17.3972 6.90458 17.4319 6.86413 17.4955M9.10018 16.8079C9.14046 16.7995 9.18221 16.8015 9.22151 16.8137C9.27929 16.831 9.31396 16.8714 9.33707 16.9292L9.26774 16.9408C9.26325 16.9259 9.25582 16.9121 9.2459 16.9002C9.23597 16.8883 9.22375 16.8785 9.20996 16.8714C9.1784 16.8604 9.14437 16.8584 9.11173 16.8657C9.08991 16.8676 9.06877 16.8743 9.04981 16.8853C9.03084 16.8963 9.01451 16.9113 9.00195 16.9292C8.97884 16.9697 8.97306 17.0159 8.98462 17.0852C8.9904 17.143 9.01351 17.1834 9.0424 17.2123C9.07707 17.247 9.11751 17.2586 9.17529 17.247C9.21604 17.2417 9.25322 17.221 9.27929 17.1892C9.3024 17.1661 9.31396 17.1199 9.3024 17.0679L9.15218 17.091L9.14062 17.039L9.3544 17.0043L9.39485 17.2586H9.3544L9.33129 17.2008C9.31562 17.2233 9.29605 17.2429 9.27351 17.2586C9.24351 17.2828 9.20764 17.2988 9.16951 17.3048C9.115 17.3132 9.05931 17.3009 9.01351 17.2701C8.98655 17.2491 8.96399 17.223 8.94714 17.1932C8.93028 17.1635 8.91946 17.1307 8.91529 17.0968C8.90785 17.0634 8.90708 17.0288 8.91303 16.9951C8.91898 16.9614 8.93153 16.9292 8.94995 16.9003C8.96669 16.8749 8.98882 16.8534 9.01478 16.8374C9.04074 16.8214 9.06989 16.8113 9.10018 16.8079M9.58552 16.7732L9.73575 16.7154C9.7542 16.7086 9.77409 16.7066 9.79352 16.7097C9.81664 16.7097 9.83975 16.727 9.8513 16.7617C9.86286 16.7906 9.86286 16.8137 9.8513 16.831L9.78775 16.8714L9.6433 16.9292L9.58552 16.7732M9.73575 17.1661L9.66063 16.9754L9.80508 16.9234C9.82354 16.9163 9.84308 16.9124 9.86286 16.9119C9.88597 16.9119 9.9033 16.9292 9.92064 16.9581L9.94953 17.0332L9.96686 17.0679L9.97842 17.0794L10.0535 17.0506V17.0448C10.042 17.0448 10.0304 17.0332 10.0189 17.0217L10.0015 16.987L9.97842 16.9292C9.96686 16.9003 9.95531 16.883 9.93797 16.8714C9.92171 16.8638 9.90395 16.8598 9.88597 16.8599C9.90331 16.8426 9.91486 16.8252 9.92064 16.8021C9.9252 16.7789 9.9232 16.7549 9.91486 16.7328C9.89175 16.6808 9.85708 16.6519 9.80508 16.6519C9.78197 16.6519 9.7473 16.6519 9.71263 16.6634L9.49885 16.7443L9.67219 17.1892L9.73575 17.1661M10.2904 16.935L10.0189 16.5305L10.3193 16.3399L10.354 16.3919L10.1055 16.5479L10.1922 16.6634L10.4175 16.5248L10.4464 16.571L10.2211 16.7154L10.3135 16.8483L10.562 16.6865L10.5967 16.7328L10.2904 16.9292M10.5331 16.2301L10.6082 16.1434C10.6429 16.103 10.6833 16.0856 10.7238 16.0914C10.7738 16.0975 10.8205 16.1199 10.8567 16.155C10.8898 16.1842 10.9138 16.2223 10.926 16.2648C10.9375 16.2937 10.9318 16.3225 10.926 16.3457L10.8913 16.3861L10.8104 16.4728L10.5331 16.2301ZM10.9375 16.415C10.9953 16.3572 11.0127 16.2879 10.978 16.2128C10.9577 16.1685 10.9281 16.1291 10.8913 16.0972C10.8484 16.0576 10.7935 16.0332 10.7353 16.0279C10.7047 16.0251 10.6739 16.0299 10.6457 16.0421C10.6174 16.0542 10.5926 16.0731 10.5735 16.0972L10.4406 16.2359L10.8104 16.5594L10.9433 16.415M11.2264 16.0452L10.8047 15.7968L10.8393 15.739L11.2611 15.9874L11.2264 16.0452ZM11.394 15.7563L10.9318 15.5772L11.0704 15.2536L11.1282 15.2767L11.0127 15.5425L11.1513 15.5945L11.2553 15.3519L11.3131 15.375L11.2091 15.6176L11.3593 15.6754L11.4749 15.4096L11.5327 15.4327L11.394 15.7563M11.602 15.1959L11.1224 15.0919L11.1398 15.0167L11.5789 14.8665L11.1918 14.7856L11.2033 14.7278L11.6829 14.8261L11.6713 14.9012L11.2264 15.0514L11.6136 15.1381L11.602 15.1959M11.5616 14.5892L11.5673 14.5314C11.5962 14.5314 11.6251 14.5314 11.6367 14.5141C11.6713 14.4967 11.6945 14.4621 11.6945 14.4101V14.3407C11.6829 14.3003 11.6598 14.2829 11.6251 14.2772C11.5962 14.2772 11.5789 14.2772 11.5673 14.2945C11.5558 14.3118 11.5384 14.3349 11.5327 14.3696L11.5096 14.4274L11.4691 14.5198C11.446 14.5487 11.4113 14.5603 11.3709 14.5545C11.3504 14.5528 11.3306 14.5468 11.3127 14.5368C11.2947 14.5269 11.2791 14.5132 11.2669 14.4967C11.238 14.4678 11.2322 14.4274 11.238 14.3696C11.238 14.3234 11.2553 14.2829 11.2842 14.2483C11.3131 14.2194 11.3536 14.2021 11.4056 14.2078V14.2656C11.3767 14.2656 11.3536 14.2714 11.342 14.2829C11.3131 14.3003 11.2958 14.3292 11.2958 14.3812C11.29 14.4158 11.2958 14.4389 11.3073 14.4621C11.3247 14.4794 11.342 14.491 11.3651 14.491C11.3882 14.491 11.4056 14.4909 11.4229 14.4678L11.4576 14.3869L11.4749 14.3234C11.4864 14.2887 11.498 14.2656 11.5153 14.2483C11.529 14.2351 11.5454 14.2252 11.5634 14.2192C11.5814 14.2132 11.6005 14.2113 11.6193 14.2136C11.6771 14.2194 11.7118 14.2425 11.7349 14.2829C11.7522 14.3234 11.758 14.3696 11.7522 14.4216C11.7528 14.4466 11.7479 14.4714 11.7379 14.4944C11.7279 14.5173 11.7131 14.5378 11.6945 14.5545C11.6758 14.569 11.6544 14.5796 11.6316 14.5856C11.6087 14.5915 11.5849 14.5928 11.5616 14.5892M1.62936 14.5603L1.64092 14.6181C1.61781 14.6238 1.5947 14.6354 1.58314 14.6527C1.54847 14.6758 1.5427 14.7105 1.54847 14.7683L1.57159 14.8318C1.5947 14.8665 1.62359 14.8838 1.65825 14.8781C1.68137 14.8723 1.6987 14.8607 1.71026 14.8434L1.72181 14.7625V14.6932L1.74492 14.6007C1.75648 14.5718 1.78537 14.5487 1.82581 14.543C1.84602 14.5393 1.86678 14.5399 1.88671 14.5449C1.90664 14.5499 1.92527 14.5591 1.94137 14.5718C1.97604 14.595 1.99915 14.6296 1.99915 14.6874C2.0061 14.7092 2.00865 14.7322 2.00667 14.755C2.00468 14.7778 1.9982 14.8 1.98759 14.8203C1.97026 14.855 1.93559 14.8781 1.88359 14.8896L1.87204 14.8318C1.89515 14.8203 1.91248 14.8145 1.92981 14.7972C1.94715 14.7741 1.95293 14.7394 1.94715 14.6932C1.94137 14.6585 1.92981 14.6354 1.9067 14.6181C1.89879 14.6113 1.88958 14.6063 1.87963 14.6033C1.86969 14.6004 1.85923 14.5995 1.84892 14.6007C1.8382 14.6024 1.82817 14.6071 1.81999 14.6143C1.81182 14.6215 1.80582 14.6308 1.8027 14.6412C1.79337 14.6691 1.78945 14.6985 1.79115 14.7278V14.7972C1.7902 14.8256 1.78226 14.8534 1.76803 14.8781C1.75912 14.8938 1.74663 14.9072 1.73158 14.9173C1.71653 14.9273 1.69933 14.9337 1.68137 14.9358C1.62359 14.9474 1.58314 14.9358 1.55425 14.9012C1.52324 14.8652 1.50319 14.8211 1.49647 14.7741C1.48355 14.7255 1.48976 14.6738 1.51381 14.6296C1.52666 14.6102 1.54371 14.5938 1.56371 14.5818C1.58371 14.5698 1.60615 14.5625 1.62936 14.5603M1.60048 15.1901L2.06848 15.0456L2.18404 15.375L2.12626 15.3981L2.03382 15.1265L1.88937 15.167L1.97026 15.4154L1.91248 15.4327L1.83737 15.1843L1.67559 15.2305L1.76803 15.5079L1.71026 15.5252L1.60048 15.1901ZM1.80848 15.7621L2.24182 15.531L2.28804 15.6119L1.98759 15.9239L2.42094 15.8545L2.46716 15.9296L2.03382 16.1608L2.00493 16.103L2.25915 15.9701L2.30538 15.947L2.36893 15.9123L1.93559 15.9874L1.9067 15.9296L2.20138 15.6176L2.18404 15.6292L2.13782 15.6523C2.12318 15.6631 2.10773 15.6728 2.0916 15.6812L1.83737 15.8141L1.80848 15.7563M2.61161 16.3919C2.58849 16.3919 2.57116 16.3803 2.54805 16.3572L2.4556 16.2648L2.57694 16.1492L2.66939 16.2417L2.70405 16.2937C2.71561 16.3225 2.70405 16.3514 2.68094 16.3688C2.65783 16.3919 2.63472 16.4034 2.61161 16.3977M2.26493 16.4381L2.41516 16.2994L2.51916 16.415C2.54914 16.4429 2.58804 16.4593 2.62894 16.4612C2.6663 16.4586 2.70133 16.4421 2.72716 16.415C2.75605 16.3861 2.77339 16.3572 2.77339 16.3168C2.77339 16.2821 2.75605 16.2532 2.72716 16.2185L2.57694 16.0625L2.21871 16.3919L2.26493 16.4381M2.69827 16.8194L2.9525 16.415L3.25873 16.5999L3.22984 16.6519L2.97561 16.5017L2.9005 16.623L3.13162 16.7617L3.09695 16.8079L2.86583 16.6692L2.77916 16.8079L3.03339 16.9581L3.0045 17.0101L2.6925 16.8194M3.46096 16.7443L3.61696 16.7906L3.66318 16.8194C3.68052 16.8368 3.68629 16.8657 3.67474 16.8946C3.66896 16.9234 3.65163 16.9408 3.62851 16.9523L3.5534 16.9466L3.40895 16.9003L3.46096 16.7443M3.32806 17.143L3.38584 16.9466L3.53607 16.9928L3.59385 17.0217C3.6054 17.039 3.61118 17.0621 3.59963 17.091L3.58229 17.1603L3.57074 17.2008V17.2123L3.65163 17.2412V17.2297L3.64007 17.195C3.64007 17.1892 3.64007 17.1719 3.65163 17.1546L3.66896 17.0968C3.67474 17.0679 3.68052 17.0506 3.66896 17.039C3.66388 17.0212 3.65387 17.0052 3.64007 16.9928C3.66318 16.987 3.68629 16.9812 3.70363 16.9639C3.72096 16.9523 3.73252 16.9292 3.74407 16.9061C3.76141 16.8483 3.74985 16.8079 3.71518 16.7732C3.69207 16.7617 3.66896 16.7443 3.62851 16.7328L3.41473 16.6634L3.26451 17.1141L3.32229 17.1372" fill="#009FC5"/>
<path d="M3.98675 8.92105C4.04452 8.78238 4.55876 8.41838 6.26323 8.57438C6.26323 8.57438 6.55213 8.75349 6.71969 8.73038C6.81213 8.71883 6.66191 8.73616 6.5348 8.63216C6.40768 8.52816 6.37879 8.31437 6.67346 8.32015C6.96236 8.32593 8.06016 8.38949 8.07749 8.48771C8.09483 8.58594 7.4997 8.62638 7.28014 8.6206C7.05481 8.6206 7.0837 8.73038 7.30325 8.71883C7.9966 8.69572 8.74773 8.45304 9.55663 9.01928C9.64908 9.08283 9.30818 9.09439 9.04818 8.98461C9.04818 8.98461 8.34327 9.02506 8.04282 8.97305C8.04282 8.97305 7.81171 9.16372 7.4997 9.14639C7.54015 9.24462 7.38415 9.60862 6.43079 9.33706C6.26901 9.38328 5.697 9.48151 5.75478 9.30817C5.60455 9.30817 5.33877 9.35439 5.29833 9.26773C5.26366 9.18684 5.76634 9.05395 5.85878 8.9615C5.85878 8.9615 4.78409 8.97305 4.58187 8.90372C4.58187 8.90372 3.9463 9.04239 3.98675 8.92105" fill="#BC715F"/>
<path d="M4.33342 10.4233C4.35075 10.3944 4.36231 10.3366 4.40853 10.3366C4.51831 10.3655 4.58764 10.562 4.72054 10.4349C4.76676 10.4233 4.77832 10.4869 4.81876 10.4926C4.84765 10.6024 4.93432 10.4753 4.9921 10.4811C5.14372 10.418 5.31078 10.4019 5.47166 10.4349C5.47166 10.5389 5.39077 10.6544 5.28677 10.718C5.28677 10.822 5.38499 10.8913 5.38499 11.0011C5.36766 11.0415 5.38499 11.1051 5.32721 11.1167C5.24632 11.0993 5.17121 11.0935 5.10766 11.0531C5.0961 11.0415 5.09032 11.03 5.07877 11.03C5.06721 11.0704 5.12499 11.1051 5.1481 11.1455C5.10766 11.2033 5.0441 11.1455 4.9921 11.1455C4.97476 11.186 4.9921 11.2322 4.95165 11.2611C4.88232 11.2553 4.86498 11.1802 4.82454 11.1455C4.78409 11.1918 4.85921 11.2207 4.86498 11.2553C4.84187 11.394 4.84187 11.5327 4.7032 11.6251L4.61076 11.6713C4.58765 11.5962 4.5992 11.4922 4.58187 11.4171C4.52409 11.5095 4.48364 11.5904 4.40853 11.6656C4.31031 11.6309 4.25253 11.5211 4.23519 11.4287C4.21429 11.3747 4.20971 11.3158 4.22204 11.2593C4.23437 11.2028 4.26306 11.1512 4.30453 11.1109C4.27564 11.0531 4.17164 11.0704 4.16008 10.9895C4.00986 10.8913 3.92897 11.1629 3.83074 11.0184C3.81535 10.9507 3.81622 10.8803 3.8333 10.8131C3.85037 10.7458 3.88316 10.6835 3.92897 10.6313C3.91163 10.5735 3.8423 10.5909 3.80185 10.562C3.70363 10.4811 3.57074 10.4002 3.57651 10.2557C3.70459 10.2086 3.84352 10.1993 3.97672 10.2291C4.10992 10.2588 4.23174 10.3262 4.32764 10.4233" fill="#008737"/>
<path d="M4.46053 10.4118C4.46053 10.5273 4.54142 10.4407 4.60498 10.51C4.55298 10.4927 4.51831 10.5967 4.47209 10.5389L4.43742 10.5678C4.45475 10.6082 4.4952 10.614 4.45475 10.6544C4.40275 10.6775 4.39698 10.6082 4.36809 10.5851C4.36809 10.5735 4.37386 10.5504 4.35653 10.5447C4.32764 10.5678 4.29875 10.5793 4.25253 10.5735C4.24097 10.5504 4.21786 10.5158 4.24097 10.5042C4.28142 10.4464 4.34497 10.5215 4.37386 10.4869C4.37964 10.4522 4.35075 10.4118 4.3912 10.3829C4.41431 10.3887 4.44898 10.3771 4.46053 10.406M4.77832 10.5042C4.77832 10.5273 4.76676 10.562 4.79565 10.5735C4.8361 10.5562 4.87654 10.5735 4.89965 10.6082C4.89965 10.6313 4.90543 10.6544 4.87654 10.666L4.81876 10.6544C4.81876 10.6429 4.80143 10.6371 4.79565 10.6255C4.76676 10.614 4.7552 10.6371 4.73787 10.6487C4.74943 10.6718 4.78409 10.6891 4.77254 10.718C4.73787 10.7527 4.72054 10.6833 4.68009 10.7007C4.65698 10.6891 4.69165 10.6371 4.6512 10.6198C4.5992 10.6198 4.63387 10.7007 4.57031 10.6718C4.5472 10.6429 4.52409 10.614 4.55298 10.5793C4.5677 10.5715 4.58448 10.5684 4.60103 10.5705C4.61758 10.5725 4.63309 10.5797 4.64543 10.5909C4.68587 10.5504 4.68587 10.3829 4.77832 10.5042M4.38542 10.6775C4.40853 10.7122 4.37964 10.7642 4.40853 10.8047C4.46631 10.7064 4.51253 10.8278 4.57609 10.8162C4.59342 10.8393 4.57609 10.874 4.58187 10.8971C4.50676 10.9202 4.41431 10.9433 4.35075 10.8798L4.32764 10.9029C4.36809 10.9376 4.40853 10.9838 4.37386 11.0473C4.31609 11.0589 4.22942 11.0589 4.20053 11.0011C4.18897 10.9491 4.23519 10.9144 4.18319 10.8798C4.14853 10.926 4.14853 10.9896 4.06764 10.9433C4.05645 10.9378 4.0465 10.9301 4.03837 10.9207C4.03024 10.9113 4.0241 10.9003 4.02032 10.8884C4.01654 10.8765 4.0152 10.864 4.01638 10.8516C4.01756 10.8392 4.02124 10.8272 4.02719 10.8162C4.08497 10.7353 4.17164 10.8162 4.22364 10.7758C4.23519 10.7064 4.20631 10.6487 4.26986 10.6082C4.32764 10.6024 4.35075 10.6429 4.38542 10.6775" fill="#FFFF00"/>
<path d="M4.5992 10.718C4.57609 10.8335 4.48364 10.7122 4.4432 10.7064C4.50098 10.6082 4.53565 10.7411 4.5992 10.718ZM4.87654 10.8451C4.81876 10.8624 4.81876 10.7873 4.78987 10.7584L4.81876 10.7353L4.87654 10.8509" fill="white"/>
<path d="M4.79565 10.822C4.8072 10.8624 4.74942 10.8971 4.80143 10.926L4.84187 10.8855C4.88809 10.8971 4.93432 10.9086 4.96321 10.9433C4.99787 11.0358 4.90543 11.0358 4.8592 11.0589H4.81298C4.82454 11.03 4.78987 11.0184 4.77831 11.0011C4.76831 10.9986 4.75776 10.9995 4.74834 11.0037C4.73891 11.0079 4.73116 11.0151 4.72631 11.0242C4.73787 11.082 4.8072 11.1224 4.73209 11.1686C4.67431 11.1686 4.58764 11.1918 4.59342 11.1109C4.57031 11.0646 4.6512 10.9953 4.56453 10.9953C4.53564 11.0531 4.50675 11.1109 4.43164 11.0531L4.43742 10.9664C4.50675 10.9664 4.59342 10.978 4.62809 10.8971C4.64542 10.8393 4.59342 10.7873 4.63965 10.7411C4.71476 10.7238 4.7552 10.7758 4.78987 10.822" fill="#FFFF00"/>
<path d="M4.73787 10.9549C4.76098 11.0011 4.70898 11.0011 4.68009 11.0242C4.6512 11.0242 4.63387 11.0127 4.61076 10.9896C4.5992 10.9376 4.63965 10.9318 4.66854 10.9144C4.7032 10.8971 4.71476 10.9376 4.73787 10.9549" fill="black"/>
<path d="M4.69742 10.978C4.69165 10.9953 4.68009 10.9896 4.66853 10.9953L4.65698 10.9376C4.68009 10.9376 4.70898 10.9491 4.69742 10.9838" fill="white"/>
</g>
</g>
<defs>
<clipPath id="clip0_1_14347">
<rect width="26" height="26" fill="white"/>
</clipPath>
</defs>
</svg>
