<svg width="26" height="26" viewBox="0 0 26 26" fill="none" xmlns="http://www.w3.org/2000/svg">
<mask id="mask0_1_14599" style="mask-type:alpha" maskUnits="userSpaceOnUse" x="0" y="0" width="26" height="26">
<circle cx="13" cy="13" r="13" fill="#634848"/>
</mask>
<g mask="url(#mask0_1_14599)">
<g clip-path="url(#clip0_1_14599)">
<path fill-rule="evenodd" clip-rule="evenodd" d="M-8 -1H33.9936V26.9957H-8V-1Z" fill="#3E5EB9"/>
<path fill-rule="evenodd" clip-rule="evenodd" d="M-8 4.00085H33.9936V22.0005H-8V4.00085Z" fill="#FFD900"/>
<path fill-rule="evenodd" clip-rule="evenodd" d="M-8 5.99893H33.9936V19.9968H-8V5.99893Z" fill="#B10C0C"/>
<path d="M29.8958 12.6987H-3.51843C-3.68053 12.6987 -3.81193 12.8326 -3.81193 12.9978C-3.81193 13.1631 -3.68053 13.297 -3.51843 13.297H29.8958C30.0579 13.297 30.1893 13.1631 30.1893 12.9978C30.1893 12.8326 30.0579 12.6987 29.8958 12.6987Z" fill="#FFD900" stroke="black" stroke-width="0.167716"/>
<path fill-rule="evenodd" clip-rule="evenodd" d="M26.4956 9.7998L24.7953 10.3992L26.4956 10.9987L28.1959 10.3992L26.4956 9.7998V9.7998Z" fill="white" stroke="black" stroke-width="0.160693"/>
<path d="M25.3747 10.1983H0.816393C0.69482 10.1983 0.596264 10.2867 0.596264 10.3959V10.4015C0.596264 10.5106 0.69482 10.599 0.816393 10.599H25.3747C25.4963 10.599 25.5949 10.5106 25.5949 10.4015V10.3959C25.5949 10.2867 25.4963 10.1983 25.3747 10.1983Z" fill="#FFD900" stroke="black" stroke-width="0.167716"/>
<path d="M24.9959 10.599C25.0946 10.599 25.1934 10.4975 25.1934 10.3959C25.1934 10.2943 25.0946 10.1983 24.9959 10.1983" stroke="black" stroke-width="0.161267"/>
<path d="M24.7983 10.599C24.8971 10.599 24.9959 10.4975 24.9959 10.3959C24.9959 10.2943 24.8971 10.1983 24.7983 10.1983" stroke="black" stroke-width="0.161267"/>
<path d="M24.5951 10.6047C24.6939 10.6047 24.7927 10.5031 24.7927 10.4015C24.7927 10.2999 24.6939 10.2039 24.5951 10.2039" stroke="black" stroke-width="0.161267"/>
<path fill-rule="evenodd" clip-rule="evenodd" d="M24.8982 11.002L23.198 11.6015L24.8982 12.2009L26.5985 11.6015L24.8982 11.002V11.002Z" fill="white" stroke="black" stroke-width="0.160693"/>
<path d="M23.7774 11.4005H-0.780943C-0.902516 11.4005 -1.00107 11.489 -1.00107 11.5981V11.6037C-1.00107 11.7128 -0.902516 11.8013 -0.780943 11.8013H23.7774C23.899 11.8013 23.9975 11.7128 23.9975 11.6037V11.5981C23.9975 11.489 23.899 11.4005 23.7774 11.4005Z" fill="#FFD900" stroke="black" stroke-width="0.167716"/>
<path d="M23.3985 11.8013C23.4973 11.8013 23.5961 11.6997 23.5961 11.5981C23.5961 11.4965 23.4973 11.4005 23.3985 11.4005" stroke="black" stroke-width="0.161267"/>
<path d="M23.201 11.8013C23.2998 11.8013 23.3985 11.6997 23.3985 11.5981C23.3985 11.4965 23.2998 11.4005 23.201 11.4005" stroke="black" stroke-width="0.161267"/>
<path d="M22.9978 11.8069C23.0966 11.8069 23.1953 11.7053 23.1953 11.6037C23.1953 11.5021 23.0966 11.4062 22.9978 11.4062" stroke="black" stroke-width="0.161267"/>
<path fill-rule="evenodd" clip-rule="evenodd" d="M-2.34705 13.2659C-2.36571 13.1109 -2.3284 13.0937 -2.4279 12.9789C-2.29108 13.0363 -2.28487 13.1913 -2.11696 13.0822C-2.05477 13.0478 -2.02989 13.0478 -2.10452 12.8813C-1.93039 12.8813 -1.35825 13.0822 -1.27119 13.088C-1.02865 13.0994 -0.593327 12.8354 -0.294821 13.1568C-0.00253291 13.4495 -0.102035 13.7537 -0.102035 14.1612C-0.213975 14.1038 -0.164224 14.0809 -0.288601 13.9316C-0.189099 14.2875 -0.288601 14.9303 -0.288601 15.3091C-0.338352 15.2173 -0.332135 15.2517 -0.375667 15.1599C-0.500045 15.5042 -0.649298 15.5788 -0.649298 15.9806C-0.69283 15.8256 -0.649297 15.8543 -0.699048 15.774C-0.823426 16.0322 -1.63188 16.2561 -1.32094 16.5201C-1.59457 16.3594 -1.71895 16.3766 -1.84954 16.2274C-1.90551 16.2618 -1.94904 16.3307 -1.9988 16.4225C-2.49631 16.193 -2.30974 15.7051 -2.70153 15.378C-2.76372 15.5157 -2.73884 15.4928 -2.81347 15.7166C-2.8881 15.4067 -2.91297 15.2058 -3.00004 14.9819C-3.07466 15.1082 -3.06223 15.0566 -3.20526 15.2517C-3.26745 14.8729 -3.35451 14.7811 -3.3172 14.5343C-3.46645 14.6376 -3.36695 14.5917 -3.5162 14.7237C-3.37939 13.748 -2.77616 13.0363 -2.34705 13.2659V13.2659Z" fill="#3D5DA7" stroke="black" stroke-width="0.182074"/>
<path fill-rule="evenodd" clip-rule="evenodd" d="M22.9986 12.9969C21.0005 14.9949 18.3326 18.9979 12.9969 18.9979C8.33088 18.9979 4.99696 14.9983 2.99887 12.9969C4.99696 10.9988 8.33088 6.99924 12.9969 6.99924C18.3326 6.99924 20.9967 10.9954 22.9986 12.9969Z" fill="white" stroke="black" stroke-width="0.16319"/>
<path fill-rule="evenodd" clip-rule="evenodd" d="M12.3027 9.08635C12.8332 9.68464 12.3873 9.92735 12.9518 9.96686C13.5444 10.0064 13.2114 10.599 13.7081 10.6159C14.058 10.6329 13.6742 12.027 14.0129 12.4899C14.3515 12.9696 14.6394 12.631 14.6451 12.9753C14.6507 13.3365 13.7137 13.297 13.6968 14.4033C13.6686 15.0411 12.9066 15.0806 12.8671 15.4926C12.8219 15.8764 14.3741 16.0909 14.3515 16.4409C14.3346 16.7795 12.6808 16.7231 12.6075 17.1182C12.5736 17.4738 14.8765 17.7616 15.0627 18.7776C14.7241 18.8905 13.742 19.0034 12.9969 19.0034C8.33473 19.0034 4.99895 14.9959 3.00087 12.9978C4.99895 10.9998 8.33473 6.99796 12.9969 6.99796C12.9969 6.99796 11.6141 8.26792 12.3027 9.08635V9.08635Z" fill="black"/>
<path fill-rule="evenodd" clip-rule="evenodd" d="M6.73161 10.8643H7.21702V12.4673H6.73161V10.8643ZM6.73161 13.534H7.21702V15.1314H6.73161V13.534ZM7.70243 10.8643H8.18784V12.4673H7.70243V10.8643ZM7.70243 13.534H8.18784V15.1314H7.70243V13.534ZM8.67325 10.8643H9.15866V12.4673H8.67325V10.8643ZM8.67325 13.534H9.15866V15.1314H8.67325V13.534ZM9.64407 10.8643H10.1295V12.4673H9.64407V10.8643ZM9.64407 13.534H10.1295V15.1314H9.64407V13.534ZM10.6092 10.8643H11.0947V12.4673H10.6092V10.8643ZM10.6092 13.534H11.0947V15.1314H10.6092V13.534ZM11.5801 10.8643H12.0655V12.4673H11.5857L11.5801 10.8643ZM11.5801 13.534H12.0655V15.1314H11.5857L11.5801 13.534Z" fill="white"/>
<path fill-rule="evenodd" clip-rule="evenodd" d="M14.0692 10.8643H14.549V12.4673H14.0692V10.8643ZM14.0692 13.534H14.549V15.1314H14.0692V13.534ZM15.0344 10.8643H15.5198V12.4673H15.0344V10.8643ZM15.0344 13.534H15.5198V15.1314H15.0344V13.534ZM16.0052 10.8643H16.4906V12.4673H16.0052V10.8643ZM16.0052 13.534H16.4906V15.1314H16.0052V13.534ZM16.976 10.8643H17.4614V12.4673H16.976V10.8643ZM16.976 13.534H17.4614V15.1314H16.976V13.534ZM17.9468 10.8643H18.4322V12.4673H17.9468V10.8643ZM17.9468 13.534H18.4322V15.1314H17.9468V13.534ZM18.912 10.8643H19.3974V12.4673H18.912V10.8643ZM18.912 13.534H19.3974V15.1314H18.912V13.534Z" fill="black"/>
<path fill-rule="evenodd" clip-rule="evenodd" d="M9.76327 8.0701C9.48974 8.6041 10.2506 7.89353 11.4442 8.78928C11.7441 9.11364 11.932 9.50477 11.9863 9.91758C11.7327 9.8659 11.2801 9.61613 11.2801 9.61613C11.2801 9.61613 11.8072 10.1415 11.8072 10.753C11.6232 10.6368 11.5287 10.654 11.4691 10.5119C11.4691 10.7057 11.6332 10.8349 11.6332 11.1406C11.5212 11.0492 11.3997 10.967 11.2701 10.8952C11.4442 11.2009 10.9469 11.7952 11.1955 11.9933C10.7629 11.9287 10.3153 11.6488 10.1412 11.3473C10.0467 11.4076 10.0418 11.5067 10.0318 11.6143C10.0467 11.6229 9.37038 11.1105 9.43504 10.9124C9.34055 11.0416 9.3306 11.1105 9.31071 11.2569C9.04746 11.0324 8.85413 10.7539 8.74874 10.4473L8.51997 10.7358C8.4404 10.232 8.4404 10.2492 8.60451 9.81853C8.49005 9.8982 8.38049 9.98301 8.27628 10.0726C8.34779 9.6671 8.51716 9.27919 8.77337 8.93416C9.02958 8.58912 9.36687 8.29471 9.76327 8.0701V8.0701Z" fill="#3D5DA7" stroke="black" stroke-width="0.141039"/>
<path fill-rule="evenodd" clip-rule="evenodd" d="M9.07964 10.6837C9.1248 10.3168 9.22075 10.1757 9.24897 9.93865C9.30542 9.52097 9.24333 9.21054 9.39008 9.22183C9.53683 9.22747 9.58199 9.38551 9.50861 9.80319C9.43523 10.2209 9.37315 10.3168 9.07964 10.6837V10.6837ZM9.85291 11.361C9.82469 11.0449 9.88113 10.9151 9.8642 10.7119C9.83033 10.362 9.72309 10.1249 9.85291 10.1023C9.98273 10.0798 10.0448 10.1983 10.0618 10.5539C10.073 10.9095 10.0392 11.0054 9.85291 11.361ZM11.0608 11.9085C10.931 11.6432 10.8181 11.5586 10.7334 11.3892C10.5867 11.0844 10.5528 10.8305 10.4399 10.8813C10.327 10.9208 10.327 11.0506 10.4964 11.3497C10.6657 11.6489 10.7391 11.711 11.0608 11.9142V11.9085ZM11.4785 9.4984C11.1455 9.31778 10.9705 9.31778 10.756 9.20489C10.3778 9.00734 10.1577 8.78157 10.0787 8.90575C9.99966 9.02992 10.1069 9.1541 10.4964 9.33471C10.8915 9.51533 11.0043 9.52097 11.4785 9.4984V9.4984ZM11.6026 10.5031C11.3599 10.2999 11.2132 10.2773 11.0608 10.1418C10.7786 9.91608 10.6431 9.6903 10.5528 9.78061C10.4569 9.87092 10.5189 9.98945 10.8124 10.2039C11.1003 10.4241 11.2019 10.4466 11.6026 10.5031Z" fill="#A70000"/>
</g>
</g>
<defs>
<clipPath id="clip0_1_14599">
<rect width="28" height="28" fill="white" transform="translate(-1 -1)"/>
</clipPath>
</defs>
</svg>
