<svg width="26" height="26" viewBox="0 0 26 26" fill="none" xmlns="http://www.w3.org/2000/svg">
<mask id="mask0_1_14714" style="mask-type:alpha" maskUnits="userSpaceOnUse" x="0" y="0" width="26" height="26">
<circle cx="13" cy="13" r="13" fill="#634848"/>
</mask>
<g mask="url(#mask0_1_14714)">
<g clip-path="url(#clip0_1_14714)">
<path d="M26 26V0H0V26H26Z" fill="#002868"/>
<path d="M24.9336 9.72461V14.2949C24.9336 17.3418 23.4102 20.6235 19.6016 22.4009C15.793 20.6235 14.2695 17.3418 14.2695 14.2949V9.72461H24.9336Z" fill="#FCD116" stroke="black"/>
<path d="M24.9336 9.72461V14.2949C24.9336 17.3418 23.4102 20.6235 19.6016 22.4009C15.793 20.6235 14.2695 17.3418 14.2695 14.2949V9.72461H24.9336Z" stroke="white" stroke-width="0.875"/>
<path d="M17.6782 14.7583C17.5386 14.9931 17.3037 15.0439 17.1196 14.9678C16.9292 14.8916 16.7578 14.4472 16.5674 14.206C16.3833 13.9712 16.3325 14.0727 16.2056 13.9331C16.085 13.7998 15.8945 13.6982 15.5962 13.5586C15.4312 13.4824 15.2598 13.4126 15.1455 13.1206C15.1899 13 15.3105 12.8984 15.4058 12.8603C15.501 12.8286 15.5771 12.6889 15.5898 12.5683C15.6025 12.4541 15.7041 12.3271 15.8438 12.2319C15.7803 12.2446 15.647 12.2192 15.5835 12.1748C15.5264 12.124 15.4312 12.1367 15.374 12.1811C15.3169 12.2192 15.2471 12.2319 15.1455 12.2192C15.1836 12.1875 15.2534 12.1177 15.2598 12.0542C15.2661 11.9907 15.3423 11.959 15.4883 11.959C15.6279 11.959 15.7231 11.7939 15.8374 11.7939C15.7549 11.7939 15.7739 11.6543 15.8184 11.6479C15.6152 11.6098 15.6406 11.4448 15.7231 11.4448C15.7168 11.4194 15.6914 11.394 15.5962 11.3623C15.5073 11.3305 15.5518 11.248 15.6216 11.1972C15.5581 11.0703 15.6152 10.9751 15.7168 10.8926C15.5771 10.8862 15.7295 10.6894 15.7676 10.5815C15.8057 10.48 15.8247 10.4673 15.8691 10.5307C15.9199 10.5879 16.0342 10.7212 16.1675 10.7593C16.2944 10.7973 16.3706 10.8672 16.396 10.9751C16.4214 11.0893 16.4722 11.1465 16.6118 11.1972C16.7578 11.2417 16.9546 11.3623 16.9292 11.6352C17.0435 11.6416 17.126 11.6733 17.1958 11.7304" fill="#FCAD56"/>
<path d="M17.6782 14.7583C17.5386 14.9931 17.3037 15.0439 17.1196 14.9678C16.9292 14.8916 16.7578 14.4472 16.5674 14.206C16.3833 13.9712 16.3325 14.0727 16.2056 13.9331C16.085 13.7998 15.8945 13.6982 15.5962 13.5586C15.4312 13.4824 15.2598 13.4126 15.1455 13.1206C15.1899 13 15.3105 12.8984 15.4058 12.8603C15.501 12.8286 15.5771 12.6889 15.5898 12.5683C15.6025 12.4541 15.7041 12.3271 15.8438 12.2319C15.7803 12.2446 15.647 12.2192 15.5835 12.1748C15.5264 12.124 15.4312 12.1367 15.374 12.1811C15.3169 12.2192 15.2471 12.2319 15.1455 12.2192C15.1836 12.1875 15.2534 12.1177 15.2598 12.0542C15.2661 11.9907 15.3423 11.959 15.4883 11.959C15.6279 11.959 15.7231 11.7939 15.8374 11.7939C15.7549 11.7939 15.7739 11.6543 15.8184 11.6479C15.6152 11.6098 15.6406 11.4448 15.7231 11.4448C15.7168 11.4194 15.6914 11.394 15.5962 11.3623C15.5073 11.3305 15.5518 11.248 15.6216 11.1972C15.5581 11.0703 15.6152 10.9751 15.7168 10.8926C15.5771 10.8862 15.7295 10.6894 15.7676 10.5815C15.8057 10.48 15.8247 10.4673 15.8691 10.5307C15.9199 10.5879 16.0342 10.7212 16.1675 10.7593C16.2944 10.7973 16.3706 10.8672 16.396 10.9751C16.4214 11.0893 16.4722 11.1465 16.6118 11.1972C16.7578 11.2417 16.9546 11.3623 16.9292 11.6352C17.0435 11.6416 17.126 11.6733 17.1958 11.7304" stroke="black" stroke-width="0.034375" stroke-linecap="round" stroke-linejoin="round"/>
<path d="M18.0273 11.3179C18.0273 11.4702 18.0972 11.5654 18.186 11.6416C18.2813 11.7178 18.3638 11.7812 18.3447 11.8765C18.3257 11.978 18.3638 12.0415 18.4463 12.105C18.5352 12.1685 18.5986 12.2446 18.5732 12.3716C18.5479 12.4985 18.5669 12.5747 18.6177 12.6699C18.6685 12.7651 18.7573 12.8413 18.7192 12.9937C18.6812 13.146 18.7002 13.3491 18.751 13.4507C18.7954 13.5459 18.751 13.6221 18.6621 13.7935C18.5732 13.9585 18.5225 14.022 18.3384 14.0854C18.148 14.1426 18.1353 14.2568 18.1353 14.4536C18.1353 14.6567 18.002 14.7583 17.7544 14.7202C17.5005 14.9297 17.3418 14.6821 17.2783 14.3711C17.2148 14.0601 17.2022 13.7236 16.8276 13.4507C16.4595 13.1714 16.6055 12.7017 16.9165 12.5112C17.2275 12.3271 17.1895 11.7812 17.1514 11.4448C17.1196 11.1084 17.3418 10.918 17.5132 10.7339C17.7417 10.8228 18.0273 11.1719 18.0273 11.3179Z" fill="#FFA1A1" stroke="black" stroke-width="0.034375" stroke-linecap="round" stroke-linejoin="round"/>
<path d="M17.4878 13.4824C17.418 13.3174 17.3418 13.1524 17.5259 12.7969C17.7163 12.4351 17.5957 12.1621 17.5386 11.978C17.4814 11.8003 17.4688 11.6353 17.5386 11.5591C17.6147 11.4893 17.6465 11.4448 17.6528 11.3242C17.6592 11.21 17.7544 11.2481 17.7671 11.3052C17.7798 11.3623 17.7925 11.4575 17.6909 11.6289C17.5894 11.8067 17.9766 12.2383 17.7988 12.7017C17.6782 13.0254 17.8369 13.438 17.9004 13.7236C17.9639 14.0093 18.002 14.6948 17.583 14.7964C17.8687 14.6568 17.6021 13.749 17.4878 13.4824Z" fill="#F1B2DC" stroke="black" stroke-width="0.034375" stroke-linecap="round" stroke-linejoin="round"/>
<path d="M15.6025 13.4316C15.6724 13.4443 15.7104 13.4062 15.7295 13.3618C15.7485 13.3174 15.7612 13.292 15.8247 13.2856C15.8882 13.2856 15.9897 13.2666 16.0151 13.2158C16.0342 13.165 16.1104 13.2095 16.1802 13.0825C16.2437 12.9492 16.2881 12.7969 16.4595 12.7397M16.9292 11.6353C16.8657 11.6353 16.6816 11.6416 16.6055 11.8066M16.0786 10.8481C16.231 10.8926 16.1675 10.9941 16.2437 11.0513C16.3833 11.1592 16.2563 11.2734 16.3706 11.3052C16.4849 11.3369 16.4785 11.356 16.4531 11.4829C16.415 11.6289 16.5547 11.6353 16.5039 11.7305M15.8438 12.2319C15.9326 12.1494 16.1548 12.0859 16.2056 11.9971M15.8374 11.7939C15.9707 11.7876 16.1484 11.8384 16.1738 11.7876M15.8184 11.6479C15.8818 11.6479 16.0151 11.6035 16.0405 11.5146M15.7231 11.4448C15.7993 11.4448 15.8945 11.4385 15.9897 11.3687M15.6216 11.1973C15.6787 11.1528 15.7803 11.2036 15.8755 11.1401M15.7168 10.8926C15.7612 10.8926 15.8564 10.8799 15.8564 10.937" stroke="black" stroke-width="0.034375" stroke-linecap="round" stroke-linejoin="round"/>
<path d="M21.7915 12.0542C21.7915 12.0542 21.3472 11.6797 20.979 11.4258C20.6108 11.1719 20.1665 10.8608 20.1665 10.7974C20.2363 10.7466 20.6108 10.9878 21.125 11.2988C21.6455 11.6162 21.9375 11.9272 21.9375 11.9272L21.7915 12.0542ZM21.7598 12.3081C21.7598 12.3081 21.3281 12.0479 20.9028 11.8638C20.4585 11.6797 19.792 11.6797 19.7222 11.6162C19.7222 11.5527 20.4966 11.5146 21.0488 11.7368C21.6138 11.9971 21.9058 12.1812 21.9058 12.1812L21.7598 12.3081ZM21.7534 12.7397C21.7534 12.7397 21.2837 12.5239 20.8267 12.4224C20.3823 12.3208 19.7476 12.3589 19.6714 12.3018C19.6714 12.2383 20.4585 12.1113 21.0488 12.3018C21.6455 12.4858 21.8994 12.6128 21.8994 12.6128L21.7534 12.7397ZM21.728 13.1777C21.728 13.1777 21.3726 12.9365 20.9028 12.8857C20.4585 12.8413 19.8682 13.1777 19.792 13.1143C19.792 13.0508 20.3062 12.6763 20.9473 12.7397C21.5757 12.8032 21.874 13.0508 21.874 13.0508L21.728 13.1777ZM21.874 11.7939C21.874 11.7939 21.4233 11.3813 21.4233 11.1021C21.4233 10.8545 21.6963 10.4736 21.8169 10.4736C21.7534 10.6006 21.5439 10.8545 21.5439 11.1021C21.5439 11.356 22.02 11.667 22.02 11.667L21.874 11.7939Z" fill="#9E540A" stroke="black" stroke-width="0.034375" stroke-linecap="round" stroke-linejoin="round"/>
<path d="M21.874 11.7939C21.874 11.7939 21.9629 11.3813 21.9629 11.1021C21.9629 10.7275 21.6963 10.3848 21.7217 10.2896C21.8169 10.3848 22.0835 10.6641 22.0835 11.1021C22.0835 11.4829 22.02 11.667 22.02 11.667L21.874 11.7939Z" fill="#9E540A" stroke="black" stroke-width="0.034375" stroke-linecap="round" stroke-linejoin="round"/>
<path d="M21.9819 11.6606C21.9819 11.54 21.9375 11.4321 21.8613 11.3496C21.7598 11.229 21.6074 11.1909 21.4487 11.2163C21.2583 11.248 21.106 11.3623 21.0107 11.54C20.8838 11.7749 20.8711 12.0288 20.8647 12.2764C20.8647 13.1333 20.8965 13.4824 20.9219 14.3267C20.9282 14.5742 20.9727 15.082 20.8584 15.4819C20.814 15.6533 20.7632 15.812 20.687 15.9771C20.7378 15.7676 20.7632 15.6597 20.7886 15.501C20.8584 15.0884 20.8394 14.7012 20.8267 14.3203C20.8013 13.5396 20.7568 13.1396 20.7314 12.1938C20.7251 11.9082 20.7505 11.6924 20.8838 11.4639C21.0234 11.229 21.2646 11.0576 21.5376 11.0576C21.6519 11.0576 21.7471 11.0767 21.8423 11.1338C22.0327 11.2354 22.1216 11.4448 22.1216 11.6543L21.9819 11.6606Z" fill="#9E540A" stroke="#FCD116" stroke-width="0.1875" stroke-linecap="round" stroke-linejoin="round"/>
<path d="M21.9819 11.6606C21.9819 11.54 21.9375 11.4321 21.8613 11.3496C21.7598 11.229 21.6074 11.1909 21.4487 11.2163C21.2583 11.248 21.106 11.3623 21.0107 11.54C20.8838 11.7749 20.8711 12.0288 20.8647 12.2764C20.8647 13.1333 20.8965 13.4824 20.9219 14.3267C20.9282 14.5742 20.9727 15.082 20.8584 15.4819C20.814 15.6533 20.7632 15.812 20.687 15.9771C20.7378 15.7676 20.7632 15.6597 20.7886 15.501C20.8584 15.0884 20.8394 14.7012 20.8267 14.3203C20.8013 13.5396 20.7568 13.1396 20.7314 12.1938C20.7251 11.9082 20.7505 11.6924 20.8838 11.4639C21.0234 11.229 21.2646 11.0576 21.5376 11.0576C21.6519 11.0576 21.7471 11.0767 21.8423 11.1338C22.0327 11.2354 22.1216 11.4448 22.1216 11.6543L21.9819 11.6606Z" fill="#9E540A"/>
<path d="M22.02 14.7202C22.02 14.7202 21.8423 15.0376 21.709 15.2661C21.5757 15.4946 21.4678 15.5454 21.3662 15.4756C21.271 15.4058 21.3535 15.2217 21.4297 15.1328C21.5059 15.0439 21.9312 14.6313 21.9312 14.6313L22.02 14.7202Z" fill="#9E540A" stroke="black" stroke-width="0.034375" stroke-linecap="round" stroke-linejoin="round"/>
<path d="M22.0645 14.7456C22.0645 14.7456 21.9946 15.1074 21.9375 15.3677C21.8867 15.6279 21.7979 15.7168 21.6899 15.6851C21.5757 15.6597 21.5947 15.4502 21.6392 15.3423C21.6836 15.2344 21.9502 14.6885 21.9502 14.6885L22.0645 14.7456Z" fill="#9E540A" stroke="black" stroke-width="0.034375" stroke-linecap="round" stroke-linejoin="round"/>
<path d="M22.1406 14.7583V15.3931C22.1406 15.6597 22.0772 15.7676 21.9565 15.7612C21.8423 15.7549 21.8169 15.5518 21.8423 15.4312C21.8613 15.3169 22.02 14.7266 22.02 14.7266L22.1406 14.7583Z" fill="#9E540A" stroke="black" stroke-width="0.034375" stroke-linecap="round" stroke-linejoin="round"/>
<path d="M22.4897 12.0542C22.4897 12.0542 22.9341 11.6797 23.3022 11.4258C23.6704 11.1719 24.1147 10.8608 24.1147 10.7974C24.0449 10.7466 23.6704 10.9878 23.1562 11.2988C22.6357 11.6162 22.3438 11.9272 22.3438 11.9272L22.4897 12.0542ZM22.5215 12.3081C22.5215 12.3081 22.9531 12.0479 23.3784 11.8638C23.8228 11.6797 24.4893 11.6797 24.5591 11.6162C24.5591 11.5527 23.7847 11.5146 23.2324 11.7368C22.6675 11.9971 22.3755 12.1812 22.3755 12.1812L22.5215 12.3081ZM22.5278 12.7397C22.5278 12.7397 22.9976 12.5239 23.4546 12.4224C23.8989 12.3208 24.5337 12.3589 24.6099 12.3018C24.6099 12.2383 23.8228 12.1113 23.2324 12.3018C22.6357 12.4858 22.3818 12.6128 22.3818 12.6128L22.5278 12.7397ZM22.5532 13.1777C22.5532 13.1777 22.9087 12.9365 23.3784 12.8857C23.8228 12.8413 24.4131 13.1777 24.4893 13.1143C24.4893 13.0508 23.9751 12.6763 23.334 12.7397C22.7056 12.8032 22.4072 13.0508 22.4072 13.0508L22.5532 13.1777ZM22.4072 11.7939C22.4072 11.7939 22.8579 11.3813 22.8579 11.1021C22.8579 10.8545 22.585 10.4736 22.4644 10.4736C22.5278 10.6006 22.7373 10.8545 22.7373 11.1021C22.7373 11.356 22.2612 11.667 22.2612 11.667L22.4072 11.7939Z" fill="#9E540A" stroke="black" stroke-width="0.034375" stroke-linecap="round" stroke-linejoin="round"/>
<path d="M22.4072 11.7939C22.4072 11.7939 22.3184 11.3813 22.3184 11.1021C22.3184 10.7275 22.585 10.3848 22.5596 10.2896C22.4644 10.3848 22.1978 10.6641 22.1978 11.1021C22.1978 11.4829 22.2612 11.667 22.2612 11.667L22.4072 11.7939Z" fill="#9E540A" stroke="black" stroke-width="0.034375" stroke-linecap="round" stroke-linejoin="round"/>
<path d="M22.2993 11.6606C22.2993 11.54 22.3438 11.4321 22.4199 11.3496C22.5215 11.229 22.6738 11.1909 22.8325 11.2163C23.0229 11.248 23.1753 11.3623 23.2705 11.54C23.3975 11.7749 23.4102 12.0288 23.4165 12.2764C23.4165 13.1333 23.3848 13.4824 23.3594 14.3267C23.353 14.5742 23.3086 15.082 23.4229 15.4819C23.4673 15.6533 23.5181 15.812 23.5942 15.9771C23.5435 15.7676 23.5181 15.6597 23.4927 15.501C23.4229 15.0884 23.4419 14.7012 23.4546 14.3203C23.48 13.5396 23.5244 13.1396 23.5498 12.1938C23.5562 11.9082 23.5308 11.6924 23.3975 11.4639C23.2578 11.229 23.0166 11.0576 22.7437 11.0576C22.6294 11.0576 22.5342 11.0767 22.439 11.1338C22.2485 11.2354 22.1597 11.4448 22.1597 11.6543L22.2993 11.6606Z" fill="#9E540A" stroke="#FCD116" stroke-width="0.1875" stroke-linecap="round" stroke-linejoin="round"/>
<path d="M22.2993 11.6606C22.2993 11.54 22.3438 11.4321 22.4199 11.3496C22.5215 11.229 22.6738 11.1909 22.8325 11.2163C23.0229 11.248 23.1753 11.3623 23.2705 11.54C23.3975 11.7749 23.4102 12.0288 23.4165 12.2764C23.4165 13.1333 23.3848 13.4824 23.3594 14.3267C23.353 14.5742 23.3086 15.082 23.4229 15.4819C23.4673 15.6533 23.5181 15.812 23.5942 15.9771C23.5435 15.7676 23.5181 15.6597 23.4927 15.501C23.4229 15.0884 23.4419 14.7012 23.4546 14.3203C23.48 13.5396 23.5244 13.1396 23.5498 12.1938C23.5562 11.9082 23.5308 11.6924 23.3975 11.4639C23.2578 11.229 23.0166 11.0576 22.7437 11.0576C22.6294 11.0576 22.5342 11.0767 22.439 11.1338C22.2485 11.2354 22.1597 11.4448 22.1597 11.6543L22.2993 11.6606Z" fill="#9E540A"/>
<path d="M22.2612 14.7202C22.2612 14.7202 22.439 15.0376 22.5723 15.2661C22.7056 15.4946 22.8135 15.5454 22.915 15.4756C23.0103 15.4058 22.9277 15.2217 22.8516 15.1328C22.7754 15.0439 22.3501 14.6313 22.3501 14.6313L22.2612 14.7202Z" fill="#9E540A" stroke="black" stroke-width="0.034375" stroke-linecap="round" stroke-linejoin="round"/>
<path d="M22.2168 14.7456C22.2168 14.7456 22.2866 15.1074 22.3438 15.3677C22.3945 15.6279 22.4834 15.7168 22.5913 15.6851C22.7056 15.6597 22.6865 15.4502 22.6421 15.3423C22.5977 15.2344 22.3311 14.6885 22.3311 14.6885L22.2168 14.7456Z" fill="#9E540A" stroke="black" stroke-width="0.034375" stroke-linecap="round" stroke-linejoin="round"/>
<path d="M22.1406 14.7583V15.3931C22.1406 15.6597 22.2041 15.7676 22.3247 15.7612C22.439 15.7549 22.4644 15.5518 22.439 15.4312C22.4199 15.3169 22.2612 14.7266 22.2612 14.7266L22.1406 14.7583Z" fill="#9E540A" stroke="black" stroke-width="0.034375" stroke-linecap="round" stroke-linejoin="round"/>
<path d="M22.1406 14.752C21.8042 14.7456 21.7725 14.625 21.7725 14.625C21.7725 14.625 21.728 14.4727 21.7217 14.3774C21.7153 14.3647 21.6265 14.1743 21.6519 14.0918C21.6201 14.0156 21.5439 13.8315 21.6138 13.7998C21.582 13.7109 21.5312 13.6094 21.5249 13.5142C21.4995 13.4443 21.436 13.292 21.4868 13.2412C21.4868 13.2412 21.3662 12.9873 21.4233 12.9238C21.4233 12.9238 21.3662 12.6763 21.4233 12.6128C21.4233 12.6128 21.4233 12.3589 21.4868 12.2954C21.4868 12.2954 21.4868 12.0479 21.5439 11.9844C21.5439 11.9971 21.7217 11.6353 22.1406 11.6353L22.1343 12.1748H22.1406V14.752Z" fill="#9E540A" stroke="black" stroke-width="0.034375" stroke-linecap="round" stroke-linejoin="round"/>
<path d="M22.1406 13.3682C21.6011 13.3618 21.4868 13.2412 21.4868 13.2412M22.1406 13.0508C21.6011 13.0508 21.4233 12.9238 21.4233 12.9238M22.1406 12.7397C21.6011 12.7334 21.4233 12.6128 21.4233 12.6128M22.1406 12.4224C21.6011 12.416 21.4868 12.2954 21.4868 12.2954M22.1343 12.1748C22.1406 12.1748 21.728 12.1748 21.6646 12.1113L21.5439 11.9907M22.1406 14.498C21.9819 14.498 21.8042 14.4727 21.7217 14.3774M22.1406 14.2441C21.8423 14.2441 21.6646 14.1235 21.6646 14.1235C21.6646 14.1235 21.6582 14.1108 21.6519 14.0918M22.1406 13.9331C21.7471 13.9268 21.6392 13.8442 21.6138 13.7998M22.1406 13.6792C21.6011 13.6792 21.5439 13.5522 21.5439 13.5522L21.5249 13.5142" stroke="black" stroke-width="0.034375" stroke-linecap="round" stroke-linejoin="round"/>
<path d="M22.1406 14.752C22.4771 14.7456 22.5088 14.625 22.5088 14.625C22.5088 14.625 22.5532 14.4727 22.5596 14.3774C22.5659 14.3647 22.6548 14.1743 22.6294 14.0918C22.6611 14.0156 22.7373 13.8315 22.6675 13.7998C22.6992 13.7109 22.75 13.6094 22.7563 13.5142C22.7817 13.4443 22.8452 13.292 22.7944 13.2412C22.7944 13.2412 22.915 12.9873 22.8579 12.9238C22.8579 12.9238 22.915 12.6763 22.8579 12.6128C22.8579 12.6128 22.8579 12.3589 22.7944 12.2954C22.7944 12.2954 22.7944 12.0479 22.7373 11.9844C22.7373 11.9971 22.5596 11.6353 22.1406 11.6353L22.147 12.1748H22.1406V14.752Z" fill="#9E540A" stroke="black" stroke-width="0.034375" stroke-linecap="round" stroke-linejoin="round"/>
<path d="M22.1406 13.3682C22.6802 13.3618 22.7944 13.2412 22.7944 13.2412M22.1406 13.0508C22.6802 13.0508 22.8579 12.9238 22.8579 12.9238M22.1406 12.7397C22.6802 12.7334 22.8579 12.6128 22.8579 12.6128M22.1406 12.4224C22.6802 12.416 22.7944 12.2954 22.7944 12.2954M22.147 12.1748C22.1406 12.1748 22.5532 12.1748 22.6167 12.1113L22.7373 11.9907M22.1406 14.498C22.2993 14.498 22.4771 14.4727 22.5596 14.3774M22.1406 14.2441C22.439 14.2441 22.6167 14.1235 22.6167 14.1235C22.6167 14.1235 22.623 14.1108 22.6294 14.0918M22.1406 13.9331C22.5342 13.9268 22.6421 13.8442 22.6675 13.7998M22.1406 13.6792C22.6802 13.6792 22.7373 13.5522 22.7373 13.5522L22.7563 13.5142" stroke="black" stroke-width="0.034375" stroke-linecap="round" stroke-linejoin="round"/>
<path d="M19.6016 20.5918C19.3286 20.8457 18.8018 20.6807 18.6367 20.5664C18.4653 20.6235 18.0083 20.4458 17.8877 20.249C17.5576 20.2935 17.4434 19.8237 17.5005 19.7031C17.5894 19.5254 17.4307 19.4111 17.5449 19.2905C17.7036 19.1382 17.4561 18.9922 17.6084 18.8906C17.7607 18.7827 17.5703 18.605 17.7227 18.4907C17.8813 18.3701 17.6401 18.2051 17.8052 18.1226C17.9702 18.04 17.7861 17.8242 17.9258 17.7417C18.0654 17.6592 17.8433 17.4497 18.0337 17.3545C18.2178 17.2593 18.0527 17.0942 18.1987 17.0244C18.3574 16.9419 18.2114 16.7705 18.3574 16.7134C18.5225 16.6436 18.4019 16.4595 18.5415 16.4087C18.6621 16.3643 18.5859 16.25 18.6621 16.1484H19.6016" fill="#009E49"/>
<path d="M19.6016 20.5918C19.3286 20.8457 18.8018 20.6807 18.6367 20.5664C18.4653 20.6235 18.0083 20.4458 17.8877 20.249C17.5576 20.2935 17.4434 19.8237 17.5005 19.7031C17.5894 19.5254 17.4307 19.4111 17.5449 19.2905C17.7036 19.1382 17.4561 18.9922 17.6084 18.8906C17.7607 18.7827 17.5703 18.605 17.7227 18.4907C17.8813 18.3701 17.6401 18.2051 17.8052 18.1226C17.9702 18.04 17.7861 17.8242 17.9258 17.7417C18.0654 17.6592 17.8433 17.4497 18.0337 17.3545C18.2178 17.2593 18.0527 17.0942 18.1987 17.0244C18.3574 16.9419 18.2114 16.7705 18.3574 16.7134C18.5225 16.6436 18.4019 16.4595 18.5415 16.4087C18.6621 16.3643 18.5859 16.25 18.6621 16.1484H19.6016" stroke="black" stroke-width="0.034375" stroke-linecap="round" stroke-linejoin="round"/>
<path d="M18.9731 16.1865C18.8462 16.3135 18.9985 16.4087 18.8716 16.561C18.7383 16.7197 18.8589 16.8022 18.751 16.9419C18.6431 17.0815 18.8018 17.1514 18.6812 17.3101C18.5605 17.4624 18.7065 17.5576 18.5732 17.6846C18.4463 17.8179 18.5986 17.9321 18.4653 18.0718C18.3384 18.2178 18.4907 18.313 18.3638 18.4399C18.2305 18.5732 18.3828 18.7129 18.2559 18.8398C18.1289 18.9731 18.2813 19.1382 18.1353 19.2905C17.9956 19.4429 18.1606 19.5635 18.0464 19.6777C17.9258 19.7983 18.0337 19.9189 17.9512 20.0015C17.8687 20.084 17.856 20.1982 17.8877 20.249M19.2207 16.231C19.1064 16.3896 19.2842 16.4595 19.1763 16.5864C19.0684 16.7197 19.2207 16.7642 19.1382 16.9165C19.0557 17.0688 19.2017 17.1069 19.0938 17.2593C18.9858 17.4116 19.1509 17.5322 19.0366 17.6846C18.916 17.8369 19.0938 17.9194 18.9858 18.0718C18.8843 18.2305 19.0366 18.313 18.9414 18.4272C18.8462 18.5479 19.0112 18.6621 18.8906 18.8081C18.7764 18.9478 18.9414 19.0557 18.8462 19.1826C18.751 19.3159 18.8843 19.4556 18.8018 19.5635C18.7192 19.665 18.8589 19.8237 18.7383 19.9634C18.624 20.103 18.7637 20.1982 18.6939 20.2935C18.624 20.3887 18.5669 20.5283 18.6367 20.5664" stroke="black" stroke-width="0.034375" stroke-linecap="round" stroke-linejoin="round"/>
<path d="M19.6016 20.5918C19.8745 20.8457 20.4014 20.6807 20.5664 20.5664C20.7378 20.6235 21.1948 20.4458 21.3154 20.249C21.6455 20.2935 21.7598 19.8237 21.7026 19.7031C21.6138 19.5254 21.7725 19.4111 21.6582 19.2905C21.4995 19.1382 21.7471 18.9922 21.5947 18.8906C21.4424 18.7827 21.6328 18.605 21.4805 18.4907C21.3218 18.3701 21.563 18.2051 21.398 18.1226C21.2329 18.04 21.417 17.8242 21.2773 17.7417C21.1377 17.6592 21.3599 17.4497 21.1694 17.3545C20.9854 17.2593 21.1504 17.0942 21.0044 17.0244C20.8457 16.9419 20.9917 16.7705 20.8457 16.7134C20.6807 16.6436 20.8013 16.4595 20.6616 16.4087C20.541 16.3643 20.6172 16.25 20.541 16.1484H19.6016" fill="#009E49"/>
<path d="M19.6016 20.5918C19.8745 20.8457 20.4014 20.6807 20.5664 20.5664C20.7378 20.6235 21.1948 20.4458 21.3154 20.249C21.6455 20.2935 21.7598 19.8237 21.7026 19.7031C21.6138 19.5254 21.7725 19.4111 21.6582 19.2905C21.4995 19.1382 21.7471 18.9922 21.5947 18.8906C21.4424 18.7827 21.6328 18.605 21.4805 18.4907C21.3218 18.3701 21.563 18.2051 21.398 18.1226C21.2329 18.04 21.417 17.8242 21.2773 17.7417C21.1377 17.6592 21.3599 17.4497 21.1694 17.3545C20.9854 17.2593 21.1504 17.0942 21.0044 17.0244C20.8457 16.9419 20.9917 16.7705 20.8457 16.7134C20.6807 16.6436 20.8013 16.4595 20.6616 16.4087C20.541 16.3643 20.6172 16.25 20.541 16.1484H19.6016" stroke="black" stroke-width="0.034375" stroke-linecap="round" stroke-linejoin="round"/>
<path d="M20.23 16.1865C20.3569 16.3135 20.2046 16.4087 20.3315 16.561C20.4648 16.7197 20.3442 16.8022 20.4521 16.9419C20.5601 17.0815 20.4014 17.1514 20.522 17.3101C20.6426 17.4624 20.4966 17.5576 20.6299 17.6846C20.7568 17.8179 20.6045 17.9321 20.7378 18.0718C20.8647 18.2178 20.7124 18.313 20.8394 18.4399C20.9727 18.5732 20.8203 18.7129 20.9473 18.8398C21.0742 18.9731 20.9219 19.1382 21.0679 19.2905C21.2075 19.4429 21.0425 19.5635 21.1567 19.6777C21.2773 19.7983 21.1694 19.9189 21.252 20.0015C21.3345 20.084 21.3472 20.1982 21.3154 20.249M19.9824 16.231C20.0967 16.3896 19.9189 16.4595 20.0269 16.5864C20.1348 16.7197 19.9824 16.7642 20.0649 16.9165C20.1475 17.0688 20.0015 17.1069 20.1094 17.2593C20.2173 17.4116 20.0522 17.5322 20.1665 17.6846C20.2871 17.8369 20.1094 17.9194 20.2173 18.0718C20.3188 18.2305 20.1665 18.313 20.2617 18.4272C20.3569 18.5479 20.1919 18.6621 20.3125 18.8081C20.4268 18.9478 20.2617 19.0557 20.3569 19.1826C20.4521 19.3159 20.3188 19.4556 20.4014 19.5635C20.4839 19.665 20.3442 19.8237 20.4648 19.9634C20.5791 20.103 20.4395 20.1982 20.5093 20.2935C20.5791 20.3887 20.6362 20.5283 20.5664 20.5664" stroke="black" stroke-width="0.034375" stroke-linecap="round" stroke-linejoin="round"/>
<path d="M19.6016 20.5918V16.1484" stroke="#009E49" stroke-width="0.034375" stroke-linecap="round" stroke-linejoin="round"/>
<path d="M19.6016 16.377C19.5444 16.6245 19.6841 16.8403 19.6016 17.0498C19.519 17.2529 19.6587 17.3354 19.6143 17.5005C19.5635 17.6655 19.6714 17.7861 19.6016 17.9639C19.5317 18.1416 19.6968 18.2812 19.6016 18.5161C19.5063 18.7446 19.665 18.8018 19.6016 19.0366C19.5317 19.3032 19.7222 19.4429 19.6016 19.6333C19.481 19.8237 19.7095 19.8682 19.6143 20.084C19.519 20.2935 19.6714 20.376 19.6016 20.5918" stroke="black" stroke-width="0.034375" stroke-linecap="round" stroke-linejoin="round"/>
<path d="M19.6968 17.1767C19.665 17.2465 19.792 17.4116 19.7222 17.5385C19.646 17.6591 19.7603 17.8496 19.6841 18.0019C19.6079 18.1543 19.8047 18.3447 19.7285 18.5224C19.646 18.7002 19.7666 18.9223 19.7285 19.0874C19.6968 19.2524 19.811 19.5698 19.7285 19.684C19.646 19.8046 19.811 19.8364 19.7158 20.1284C19.6206 20.4204 19.5571 20.1728 19.6143 20.0839C19.7349 19.8872 19.481 19.8237 19.6016 19.6333C19.7222 19.4428 19.5317 19.3032 19.6016 19.0366C19.665 18.8017 19.5063 18.7446 19.6016 18.5161C19.6968 18.2812 19.5317 18.1416 19.6016 17.9638C19.6714 17.7861 19.5635 17.6655 19.6143 17.5004C19.6587 17.3354 19.519 17.2529 19.6016 17.0498C19.665 16.8466 19.7285 17.1069 19.6968 17.1767ZM19.1636 17.3798C19.1191 17.456 19.2397 17.602 19.1318 17.748C19.0557 17.8496 19.1826 17.9702 19.0747 18.1162C19.0049 18.2177 19.1445 18.3447 19.0493 18.4907C18.9858 18.5732 19.0938 18.7319 19.0176 18.8525C18.9414 18.9795 19.0557 19.081 18.9224 19.2461C18.8462 19.3349 18.9795 19.5571 18.897 19.6269C18.8145 19.6967 18.8906 19.9697 18.8335 20.0078C18.7827 20.0522 18.8335 20.249 18.6938 20.2934C18.7637 20.1982 18.624 20.103 18.7383 19.9633C18.8589 19.8237 18.7192 19.665 18.8018 19.5634C18.8843 19.4555 18.751 19.3159 18.8462 19.1826C18.9414 19.0556 18.7764 18.9477 18.8906 18.8081C19.0112 18.6621 18.8462 18.5478 18.9414 18.4272C19.0366 18.3129 18.8843 18.2304 18.9858 18.0717C19.0938 17.9194 18.916 17.8369 19.0366 17.6845C19.1509 17.5322 18.9858 17.4116 19.0938 17.2592C19.2017 17.1069 19.0557 17.0688 19.1382 16.9165C19.2905 16.9736 19.2144 17.3037 19.1636 17.3798ZM18.8462 16.9672C18.7827 17.0688 18.8716 17.1894 18.7764 17.3164C18.6812 17.4497 18.7764 17.6147 18.6812 17.7226C18.5859 17.8242 18.7065 18.0273 18.5859 18.1098C18.4653 18.1923 18.5415 18.4399 18.4463 18.5224C18.3511 18.6049 18.4463 18.8398 18.3384 18.9604C18.2305 19.081 18.2812 19.3286 18.2178 19.3857C18.1606 19.4428 18.3003 19.5634 18.1987 19.646C18.0908 19.7285 18.0908 19.8935 17.9512 20.0014C18.0337 19.9189 17.9258 19.7983 18.0464 19.6777C18.1606 19.5634 17.9956 19.4428 18.1353 19.2905C18.2812 19.1381 18.1289 18.9731 18.2559 18.8398C18.3828 18.7129 18.2305 18.5732 18.3638 18.4399C18.4907 18.3129 18.3384 18.2177 18.4653 18.0717C18.5986 17.9321 18.4463 17.8178 18.5732 17.6845C18.7065 17.5576 18.5605 17.4624 18.6812 17.31C18.8018 17.1513 18.6431 17.0815 18.751 16.9419C18.8018 16.8784 18.8018 16.8212 18.8018 16.7705C18.8779 16.5737 18.8779 16.9165 18.8462 16.9672Z" fill="#FCD116" stroke="black" stroke-width="0.034375" stroke-linecap="round" stroke-linejoin="round"/>
<path d="M18.7192 16.2944C18.7192 14.9614 18.9033 14.498 19.6016 14.498C20.2998 14.498 20.4839 14.9614 20.4839 16.2944H18.7192Z" fill="#CE1126" stroke="black" stroke-width="0.034375" stroke-linecap="round" stroke-linejoin="round"/>
<path d="M18.7192 16.2944C18.7192 14.9614 18.9033 14.498 19.6016 14.498C19.2842 14.498 19.0874 14.7456 19.0366 14.9106C18.9795 15.0757 19.0112 15.063 19.0811 14.9995C19.1509 14.936 19.1191 15.0757 19.0557 15.1519C18.9985 15.228 18.9414 15.4502 19.0239 15.3804C19.1064 15.3042 19.1699 15.3867 19.0811 15.5137C18.9922 15.6343 18.916 15.9263 19.0049 15.8247C19.0938 15.7231 19.1128 15.8882 19.0557 15.9707C19.0049 16.0532 19.0112 16.1294 19.0557 16.0913C19.1064 16.0532 19.1001 16.2246 19.0557 16.2944H18.7192ZM19.9316 16.269C19.9316 16.0723 19.938 15.6089 19.8301 15.4565C19.7539 15.3359 19.7539 15.209 19.8428 15.3486C19.9316 15.4883 19.9761 15.4185 19.9126 15.2788C19.8364 15.1011 19.7349 14.9043 19.7603 14.8662C19.792 14.8218 19.811 14.8408 19.8745 14.936C19.938 15.0312 19.9507 14.8916 19.8809 14.7964C19.811 14.7075 19.8174 14.6885 19.9634 14.752C20.2236 14.8599 20.3506 15.1709 20.3506 16.2183L19.9316 16.269Z" fill="black" stroke="black" stroke-width="0.034375" stroke-linecap="round" stroke-linejoin="round"/>
<path d="M19.6016 16.4848C19.3223 16.4848 19.0176 16.4404 18.8144 16.3579C18.5732 16.2627 18.5605 16.1802 18.6431 16.0786C18.7065 16.0024 18.8335 16.0469 18.9604 16.104C19.0811 16.1548 19.4238 16.1928 19.6016 16.1928C19.7793 16.1928 20.1221 16.1548 20.2427 16.0976C20.3696 16.0469 20.4966 16.0024 20.5601 16.0786C20.6426 16.1802 20.6299 16.2627 20.3887 16.3579C20.1855 16.4404 19.8809 16.4848 19.6016 16.4848Z" fill="#CE1126" stroke="black" stroke-width="0.034375" stroke-linecap="round" stroke-linejoin="round"/>
<path d="M0 -0.0253906H13V12.9746H0V-0.0253906Z" fill="#012169"/>
<path d="M13 -0.0253906V1.59961L8.17578 6.47461L13 11.2227V12.9746H11.2988L6.44922 8.20117L1.72656 12.9746H0V11.248L4.72266 6.5L0 1.85352V-0.0253906H1.57422L6.44922 4.74805L11.1719 -0.0253906H13Z" fill="white"/>
<path d="M4.67188 8.20117L4.95117 9.06445L1.06641 12.9746H0V12.8984L4.67188 8.20117ZM7.82031 7.89648L9.19141 8.09961L13 11.832V12.9746L7.82031 7.89648ZM13 -0.0253906L8.125 4.95117L8.02344 3.83398L11.832 -0.0253906H13ZM0 0L4.90039 4.79883L3.40234 4.5957L0 1.21875V0Z" fill="#C8102E"/>
<path d="M4.46875 -0.0253906V12.9746H8.53125V-0.0253906H4.46875ZM0 4.44336V8.50586H13V4.44336H0Z" fill="white"/>
<path d="M0 5.25586V7.69336H13V5.25586H0ZM5.28125 -0.0253906V12.9746H7.71875V-0.0253906H5.28125Z" fill="#C8102E"/>
</g>
</g>
<defs>
<clipPath id="clip0_1_14714">
<rect width="26" height="26" fill="white"/>
</clipPath>
</defs>
</svg>
