<svg width="26" height="26" viewBox="0 0 26 26" fill="none" xmlns="http://www.w3.org/2000/svg">
<mask id="mask0_1_9884" style="mask-type:alpha" maskUnits="userSpaceOnUse" x="0" y="0" width="26" height="26">
<circle cx="13" cy="13" r="13" fill="#634848"/>
</mask>
<g mask="url(#mask0_1_9884)">
<mask id="mask1_1_9884" style="mask-type:alpha" maskUnits="userSpaceOnUse" x="-5" y="0" width="36" height="26">
<rect x="-4.33333" width="34.6667" height="26" fill="white"/>
</mask>
<g mask="url(#mask1_1_9884)">
<path fill-rule="evenodd" clip-rule="evenodd" d="M-4.33073 0H30.3359V26H-4.33073V0Z" fill="#F7FCFF"/>
<path fill-rule="evenodd" clip-rule="evenodd" d="M-4.33073 0V8.66667H30.3359V0H-4.33073Z" fill="#C51918"/>
<path fill-rule="evenodd" clip-rule="evenodd" d="M-4.33073 17.3333V26H30.3359V17.3333H-4.33073Z" fill="#409100"/>
<path fill-rule="evenodd" clip-rule="evenodd" d="M13.0258 9.34874L12.3853 9.80127L12.6113 9.04294L11.9895 8.5643L12.7696 8.54815L13.0258 7.7998L13.282 8.54815L14.0621 8.5643L13.4403 9.04294L13.6662 9.80127L13.0258 9.34874ZM10.3175 10.0131L9.67701 10.4657L9.90296 9.70733L9.2812 9.22868L10.0613 9.21254L10.3175 8.46419L10.5736 9.21254L11.3537 9.22868L10.732 9.70733L10.9579 10.4657L10.3175 10.0131ZM7.57806 12.4567L8.2185 12.0042L8.85895 12.4567L8.63301 11.6984L9.25477 11.2197L8.47468 11.2036L8.2185 10.4552L7.96232 11.2036L7.18224 11.2197L7.804 11.6984L7.57806 12.4567ZM7.54142 14.5856L6.90097 15.0381L7.12691 14.2798L6.50515 13.8011L7.28524 13.785L7.54142 13.0366L7.7976 13.785L8.57769 13.8011L7.95593 14.2798L8.18187 15.0381L7.54142 14.5856ZM17.7936 15.0381L18.434 14.5856L19.0744 15.0381L18.8485 14.2798L19.4703 13.8011L18.6902 13.785L18.434 13.0366L18.1778 13.785L17.3977 13.8011L18.0195 14.2798L17.7936 15.0381ZM17.6046 12.0042L16.9641 12.4567L17.1901 11.6984L16.5683 11.2197L17.3484 11.2036L17.6046 10.4552L17.8608 11.2036L18.6408 11.2197L18.0191 11.6984L18.245 12.4567L17.6046 12.0042ZM14.899 10.4657L15.5395 10.0131L16.1799 10.4657L15.954 9.70733L16.5757 9.22868L15.7956 9.21254L15.5395 8.46419L15.2833 9.21254L14.5032 9.22868L15.125 9.70733L14.899 10.4657ZM9.39371 18.15L9.19401 17.4389C10.2991 17.1399 11.5677 16.9912 13.0002 16.9912C14.4328 16.9912 15.7014 17.1399 16.8065 17.4389L16.6068 18.15C15.571 17.8697 14.3687 17.7288 13.0002 17.7288C11.6318 17.7288 10.4295 17.8697 9.39371 18.15ZM10.7572 17.0094C10.3163 17.0843 9.95573 16.6581 9.95573 16.6581L10.3931 16.4774C10.3793 16.1742 10.5622 15.9862 10.5622 15.9862C10.7102 16.0543 10.9121 16.4266 10.9121 16.4266H11.3086C11.3086 16.4266 11.1981 16.9345 10.7572 17.0094ZM15.9733 16.7322C15.9733 16.7322 15.6127 17.1584 15.1718 17.0835C14.7309 17.0086 14.6205 16.5007 14.6205 16.5007H15.017C15.017 16.5007 15.2189 16.1284 15.3668 16.0602C15.3668 16.0602 15.5497 16.2482 15.5359 16.5515L15.9733 16.7322ZM12.9429 16.8761C12.4959 16.8889 12.1982 16.4167 12.1982 16.4167L12.6565 16.2986C12.685 15.9964 12.8922 15.8357 12.8922 15.8357C13.0293 15.9238 13.1774 16.3206 13.1774 16.3206L13.5701 16.3758C13.5701 16.3758 13.39 16.8633 12.9429 16.8761Z" fill="#FFBB00"/>
<path fill-rule="evenodd" clip-rule="evenodd" d="M12.9554 14.8399C12.9554 14.8399 12.4473 16.0026 11.6471 16.0925C10.8469 16.1825 10.4405 15.4312 10.4405 15.4312C10.4405 15.4312 10.3881 16.2125 9.43773 16.5136C8.4874 16.8147 7.98698 15.6116 7.98698 15.6116C7.98698 15.6116 8.48174 16.0541 9.2491 15.8613C10.0165 15.6684 10.3194 14.9562 10.3194 14.9562C10.3194 14.9562 10.8873 15.6987 11.6471 15.3275C12.4069 14.9562 12.8273 14.5025 12.8273 14.0672V12.7652C12.8273 12.7652 12.6313 12.4276 12.2912 12.4276C11.9511 12.4276 11.8562 12.6669 11.8562 12.6669C11.8562 12.6669 11.7235 11.3122 12.9468 11.2287L12.9468 11.2254C12.9581 11.2257 12.9693 11.2262 12.9805 11.2267C12.9916 11.2262 13.0028 11.2257 13.0142 11.2254L13.0141 11.2287C14.2375 11.3122 14.1047 12.6669 14.1047 12.6669C14.1047 12.6669 14.0098 12.4276 13.6697 12.4276C13.3297 12.4276 13.1336 12.7652 13.1336 12.7652V14.0672C13.1336 14.5025 13.554 14.9562 14.3138 15.3275C15.0737 15.6987 15.6416 14.9562 15.6416 14.9562C15.6416 14.9562 15.9445 15.6684 16.7118 15.8613C17.4792 16.0541 17.974 15.6116 17.974 15.6116C17.974 15.6116 17.4735 16.8147 16.5232 16.5136C15.5729 16.2125 15.5205 15.4312 15.5205 15.4312C15.5205 15.4312 15.114 16.1825 14.3138 16.0925C13.5136 16.0026 13.0056 14.8399 13.0056 14.8399L12.9805 13.2971L12.9554 14.8399ZM12.9506 11.5934C12.3864 11.5934 12.2721 12.0711 12.2721 12.0711C12.769 12.0711 12.9506 12.2876 12.9506 12.2876C12.9506 12.2876 13.3185 12.0711 13.6888 12.0711C13.6888 12.0711 13.5149 11.5934 12.9506 11.5934Z" fill="#FFBB00"/>
</g>
</g>
</svg>
