<svg width="26" height="26" viewBox="0 0 26 26" fill="none" xmlns="http://www.w3.org/2000/svg">
<mask id="mask0_1_14677" style="mask-type:alpha" maskUnits="userSpaceOnUse" x="0" y="0" width="26" height="26">
<circle cx="13" cy="13" r="13" fill="#634848"/>
</mask>
<g mask="url(#mask0_1_14677)">
<g clip-path="url(#clip0_1_14677)">
<path d="M0 0H26V26H0V0Z" fill="#00247D"/>
<path d="M4.60586 19.5101C4.33672 19.5101 7.14492 18.0121 9.50117 16.0976C12.5836 13.584 19.2258 9.56209 21.1809 8.91209C21.384 8.84607 20.7645 9.2574 20.6832 9.39451C18.5961 11.8625 20.2617 16.5191 22.8668 18.8601C23.6488 19.4594 23.6082 19.4898 25.0605 19.5508V19.6879L4.60586 19.5101V19.5101ZM4.43828 19.7844C4.43828 19.7844 4.24023 19.9265 4.24023 20.0332C4.24023 20.15 4.46367 20.3074 4.46367 20.3074L24.6391 20.5308L25.0098 20.282L24.4918 19.9621L4.43828 19.7844V19.7844Z" fill="#FED100"/>
<path d="M5.35742 5.92111L5.1543 6.53556L5.68242 6.1547L6.20547 6.53556L6.00234 5.92111L6.53047 5.54025H5.88047L5.68242 4.92072L5.4793 5.54025H4.83437L5.35742 5.92111ZM9.3082 8.82072L9.74492 8.50587H9.20664L9.03906 7.99298L8.87148 8.50587H8.3332L8.76992 8.82072L8.60234 9.33361L9.03906 9.01876L9.47578 9.33361L9.3082 8.82072ZM1.96016 9.48087L1.76211 8.86642L1.55898 9.48087H0.914062L1.43711 9.86173L1.23398 10.4762L1.76211 10.0953L2.28516 10.4762L2.08711 9.86173L2.61016 9.48087H1.96016ZM5.91602 15.6711L5.68242 14.95L5.44883 15.6711H4.69219L5.30156 16.1129L5.06797 16.834L5.68242 16.3871L6.2918 16.834L6.0582 16.1129L6.66758 15.6711H5.91602Z" fill="white"/>
</g>
</g>
<defs>
<clipPath id="clip0_1_14677">
<rect width="26" height="26" fill="white"/>
</clipPath>
</defs>
</svg>
