<svg width="26" height="26" viewBox="0 0 26 26" fill="none" xmlns="http://www.w3.org/2000/svg">
<mask id="mask0_1_9560" style="mask-type:alpha" maskUnits="userSpaceOnUse" x="0" y="0" width="26" height="26">
<circle cx="13" cy="13" r="13" fill="#634848"/>
</mask>
<g mask="url(#mask0_1_9560)">
<mask id="mask1_1_9560" style="mask-type:alpha" maskUnits="userSpaceOnUse" x="-5" y="0" width="36" height="26">
<rect x="-4.33333" width="34.6667" height="26" fill="white"/>
</mask>
<g mask="url(#mask1_1_9560)">
<path fill-rule="evenodd" clip-rule="evenodd" d="M-4.33073 0V26H30.3359V0H-4.33073Z" fill="#29C470"/>
<mask id="mask2_1_9560" style="mask-type:alpha" maskUnits="userSpaceOnUse" x="-5" y="0" width="36" height="26">
<path fill-rule="evenodd" clip-rule="evenodd" d="M-4.33073 0V26H30.3359V0H-4.33073Z" fill="white"/>
</mask>
<g mask="url(#mask2_1_9560)">
<rect x="-2.16666" y="-0.348633" width="10.8333" height="28.5165" fill="#C51918"/>
<mask id="mask3_1_9560" style="mask-type:alpha" maskUnits="userSpaceOnUse" x="-3" y="-1" width="12" height="30">
<rect x="-2.16666" y="-0.348633" width="10.8333" height="28.5165" fill="white"/>
</mask>
<g mask="url(#mask3_1_9560)">
<path fill-rule="evenodd" clip-rule="evenodd" d="M-1.5243 0.980953L-2.1159 1.74115L-2.16927 1.68838L-1.5953 0.950829V0.802775L-1.59313 0.789021L-1.5264 0.583531L-1.56724 0.511947L-1.90573 0.850396L-1.25326 -0.165782V0.181452L-1.12804 0.294475L-0.828956 -0.228625L-1.12905 -0.732068L-1.34562 -0.565627L-1.2578 -0.389188L-1.31819 -0.347254L-1.8071 -1.16519L-1.49562 -0.95221L-1.44075 -1.03177L-1.73923 -1.33581L-1.60721 -1.4812L-2.04346 -2.1179L-1.98727 -2.16681L-1.51239 -1.47374L-1.63558 -1.33808L-1.34425 -1.04133L-1.47838 -0.846825L-1.56771 -0.907907L-1.39728 -0.62278L-1.10998 -0.843571L-0.743972 -0.229542L-1.11099 0.41238L-1.32425 0.219889V0.0812707L-1.53833 0.414682L-1.4476 0.573694L-1.5243 0.809868V0.980953ZM-2.1159 7.1832L-1.5243 6.42301V6.25193L-1.4476 6.01575L-1.53833 5.85674L-1.32425 5.52333V5.66195L-1.11099 5.85444L-0.743972 5.21252L-1.10998 4.59849L-1.39728 4.81928L-1.56771 4.53415L-1.47838 4.59523L-1.34425 4.40073L-1.63558 4.10397L-1.51239 3.96831L-1.98727 3.27525L-2.04346 3.32416L-1.60721 3.96085L-1.73923 4.10625L-1.44075 4.41028L-1.49562 4.48985L-1.8071 4.27687L-1.31819 5.0948L-1.2578 5.05287L-1.34562 4.87643L-1.12905 4.70999L-0.828956 5.21343L-1.12804 5.73653L-1.25326 5.62351V5.27628L-1.90573 6.29245L-1.56724 5.954L-1.5264 6.02559L-1.59313 6.23108L-1.5953 6.24483V6.39289L-2.16927 7.13043L-2.1159 7.1832ZM-1.5243 11.3848L-2.1159 12.145L-2.16927 12.0922L-1.5953 11.3546V11.2066L-1.59313 11.1928L-1.5264 10.9873L-1.56724 10.9158L-1.90573 11.2542L-1.25326 10.238V10.5853L-1.12804 10.6983L-0.828956 10.1752L-1.12905 9.67174L-1.34562 9.83818L-1.2578 10.0146L-1.31819 10.0566L-1.8071 9.23862L-1.49562 9.4516L-1.44075 9.37204L-1.73923 9.068L-1.60721 8.92261L-2.04346 8.28591L-1.98727 8.237L-1.51239 8.93007L-1.63558 9.06573L-1.34425 9.36248L-1.47838 9.55698L-1.56771 9.4959L-1.39728 9.78103L-1.10998 9.56024L-0.743972 10.1743L-1.11099 10.8162L-1.32425 10.6237V10.4851L-1.53833 10.8185L-1.4476 10.9775L-1.5243 11.2137V11.3848ZM-2.1159 17.185L-1.5243 16.4248V16.2537L-1.4476 16.0175L-1.53833 15.8585L-1.32425 15.5251V15.6637L-1.11099 15.8562L-0.743972 15.2143L-1.10998 14.6003L-1.39728 14.8211L-1.56771 14.5359L-1.47838 14.597L-1.34425 14.4025L-1.63558 14.1058L-1.51239 13.9701L-1.98727 13.277L-2.04346 13.326L-1.60721 13.9626L-1.73923 14.108L-1.44075 14.4121L-1.49562 14.4916L-1.8071 14.2787L-1.31819 15.0966L-1.2578 15.0547L-1.34562 14.8782L-1.12905 14.7118L-0.828956 15.2152L-1.12804 15.7383L-1.25326 15.6253V15.2781L-1.90573 16.2942L-1.56724 15.9558L-1.5264 16.0274L-1.59313 16.2329L-1.5953 16.2466V16.3947L-2.16927 17.1322L-2.1159 17.185ZM-2.1159 21.6664L-1.5243 20.9062V20.7352L-1.4476 20.499L-1.53833 20.34L-1.32425 20.0066V20.1452L-1.11099 20.3377L-0.743972 19.6958L-1.10998 19.0817L-1.39728 19.3025L-1.56771 19.0174L-1.47838 19.0785L-1.34425 18.884L-1.63558 18.5872L-1.51239 18.4516L-1.98727 17.7585L-2.04346 17.8074L-1.60721 18.4441L-1.73923 18.5895L-1.44075 18.8935L-1.49562 18.9731L-1.8071 18.7601L-1.31819 19.578L-1.2578 19.5361L-1.34562 19.3597L-1.12905 19.1932L-0.828956 19.6967L-1.12804 20.2198L-1.25326 20.1067V19.7595L-1.90573 20.7757L-1.56724 20.4372L-1.5264 20.5088L-1.59313 20.7143L-1.5953 20.7281V20.8761L-2.16927 21.6137L-2.1159 21.6664ZM8.61069 21.6664L8.0191 20.9062V20.7352L7.9424 20.499L8.03312 20.34L7.81904 20.0066V20.1452L7.60579 20.3377L7.23877 19.6958L7.60478 19.0817L7.89207 19.3025L8.06251 19.0174L7.97317 19.0785L7.83904 18.884L8.13037 18.5872L8.00719 18.4516L8.48207 17.7585L8.53825 17.8074L8.102 18.4441L8.23403 18.5895L7.93555 18.8935L7.99042 18.9731L8.3019 18.7601L7.81299 19.578L7.75259 19.5361L7.84042 19.3597L7.62384 19.1932L7.32375 19.6967L7.62283 20.2198L7.74805 20.1067V19.7595L8.40053 20.7757L8.06204 20.4372L8.02119 20.5088L8.08793 20.7143L8.09009 20.7281V20.8761L8.66406 21.6137L8.61069 21.6664ZM8.0191 16.4248L8.61069 17.185L8.66406 17.1322L8.09009 16.3947V16.2466L8.08793 16.2329L8.02119 16.0274L8.06204 15.9558L8.40053 16.2942L7.74805 15.2781V15.6253L7.62283 15.7383L7.32375 15.2152L7.62384 14.7118L7.84042 14.8782L7.75259 15.0547L7.81299 15.0966L8.3019 14.2787L7.99042 14.4916L7.93555 14.4121L8.23403 14.108L8.102 13.9626L8.53825 13.326L8.48207 13.277L8.00719 13.9701L8.13037 14.1058L7.83904 14.4025L7.97317 14.597L8.06251 14.5359L7.89207 14.8211L7.60478 14.6003L7.23877 15.2143L7.60579 15.8562L7.81904 15.6637V15.5251L8.03312 15.8585L7.9424 16.0175L8.0191 16.2537V16.4248ZM8.61069 12.145L8.0191 11.3848V11.2137L7.9424 10.9775L8.03312 10.8185L7.81904 10.4851V10.6237L7.60579 10.8162L7.23877 10.1743L7.60478 9.56024L7.89207 9.78103L8.06251 9.4959L7.97317 9.55698L7.83904 9.36248L8.13037 9.06573L8.00719 8.93007L8.48207 8.237L8.53825 8.28591L8.102 8.92261L8.23403 9.068L7.93555 9.37204L7.99042 9.4516L8.3019 9.23862L7.81299 10.0566L7.75259 10.0146L7.84042 9.83818L7.62384 9.67174L7.32375 10.1752L7.62283 10.6983L7.74805 10.5853V10.238L8.40053 11.2542L8.06204 10.9158L8.02119 10.9873L8.08793 11.1928L8.09009 11.2066V11.3546L8.66406 12.0922L8.61069 12.145ZM8.0191 6.42301L8.61069 7.1832L8.66406 7.13043L8.09009 6.39289V6.24483L8.08793 6.23108L8.02119 6.02559L8.06204 5.954L8.40053 6.29245L7.74805 5.27628V5.62351L7.62283 5.73653L7.32375 5.21343L7.62384 4.70999L7.84042 4.87643L7.75259 5.05287L7.81299 5.0948L8.3019 4.27687L7.99042 4.48985L7.93555 4.41028L8.23403 4.10625L8.102 3.96085L8.53825 3.32416L8.48207 3.27525L8.00719 3.96831L8.13037 4.10397L7.83904 4.40073L7.97317 4.59523L8.06251 4.53415L7.89207 4.81928L7.60478 4.59849L7.23877 5.21252L7.60579 5.85444L7.81904 5.66195V5.52333L8.03312 5.85674L7.9424 6.01575L8.0191 6.25193V6.42301ZM8.61069 1.74115L8.0191 0.980953V0.809868L7.9424 0.573694L8.03312 0.414682L7.81904 0.0812707V0.219889L7.60579 0.41238L7.23877 -0.229542L7.60478 -0.843571L7.89207 -0.62278L8.06251 -0.907907L7.97317 -0.846825L7.83904 -1.04133L8.13037 -1.33808L8.00719 -1.47374L8.48207 -2.16681L8.53825 -2.1179L8.102 -1.4812L8.23403 -1.33581L7.93555 -1.03177L7.99042 -0.95221L8.3019 -1.16519L7.81299 -0.347254L7.75259 -0.389188L7.84042 -0.565627L7.62384 -0.732068L7.32375 -0.228625L7.62283 0.294475L7.74805 0.181452V-0.165782L8.40053 0.850396L8.06204 0.511947L8.02119 0.583531L8.08793 0.789021L8.09009 0.802775V0.950829L8.66406 1.68838L8.61069 1.74115Z" fill="#E8AA00"/>
<path fill-rule="evenodd" clip-rule="evenodd" d="M3.58538 15.7793H5.27063V16.175H5.64827V16.4902H6.11107V17.5171H5.64827V17.8338H5.27063V18.1491H3.63299L3.17826 18.5532L2.72137 18.1491H1.20573V17.8338H0.81641V17.5171H0.435551V16.4902H0.81641V16.175H1.20573V15.7793H2.76921L3.17826 15.4175L3.58538 15.7793Z" fill="#389F5D"/>
<path d="M5.27063 15.7793H5.52063V15.5293H5.27063V15.7793ZM3.58538 15.7793L3.4193 15.9662L3.49034 16.0293H3.58538V15.7793ZM5.27063 16.175H5.02063V16.425H5.27063V16.175ZM5.64827 16.175H5.89827V15.925H5.64827V16.175ZM5.64827 16.4902H5.39827V16.7402H5.64827V16.4902ZM6.11107 16.4902H6.36107V16.2402H6.11107V16.4902ZM6.11107 17.5171V17.7671H6.36107V17.5171H6.11107ZM5.64827 17.5171V17.2671H5.39827V17.5171H5.64827ZM5.64827 17.8338V18.0838H5.89827V17.8338H5.64827ZM5.27063 17.8338V17.5838H5.02063V17.8338H5.27063ZM5.27063 18.1491V18.3991H5.52063V18.1491H5.27063ZM3.63299 18.1491V17.8991H3.53795L3.46692 17.9622L3.63299 18.1491ZM3.17826 18.5532L3.01263 18.7405L3.17865 18.8873L3.34434 18.7401L3.17826 18.5532ZM2.72137 18.1491L2.887 17.9618L2.81607 17.8991H2.72137V18.1491ZM1.20573 18.1491H0.955733V18.3991H1.20573V18.1491ZM1.20573 17.8338H1.45573V17.5838H1.20573V17.8338ZM0.81641 17.8338H0.56641V18.0838H0.81641V17.8338ZM0.81641 17.5171H1.06641V17.2671H0.81641V17.5171ZM0.435551 17.5171H0.185551V17.7671H0.435551V17.5171ZM0.435551 16.4902V16.2402H0.185551V16.4902H0.435551ZM0.81641 16.4902V16.7402H1.06641V16.4902H0.81641ZM0.81641 16.175V15.925H0.56641V16.175H0.81641ZM1.20573 16.175V16.425H1.45573V16.175H1.20573ZM1.20573 15.7793V15.5293H0.955733V15.7793H1.20573ZM2.76921 15.7793V16.0293H2.86391L2.93484 15.9666L2.76921 15.7793ZM3.17826 15.4175L3.34434 15.2306L3.17865 15.0834L3.01263 15.2302L3.17826 15.4175ZM5.27063 15.5293H3.58538V16.0293H5.27063V15.5293ZM5.52063 16.175V15.7793H5.02063V16.175H5.52063ZM5.64827 15.925H5.27063V16.425H5.64827V15.925ZM5.89827 16.4902V16.175H5.39827V16.4902H5.89827ZM6.11107 16.2402H5.64827V16.7402H6.11107V16.2402ZM6.36107 17.5171V16.4902H5.86107V17.5171H6.36107ZM5.64827 17.7671H6.11107V17.2671H5.64827V17.7671ZM5.89827 17.8338V17.5171H5.39827V17.8338H5.89827ZM5.27063 18.0838H5.64827V17.5838H5.27063V18.0838ZM5.52063 18.1491V17.8338H5.02063V18.1491H5.52063ZM3.63299 18.3991H5.27063V17.8991H3.63299V18.3991ZM3.34434 18.7401L3.79907 18.336L3.46692 17.9622L3.01219 18.3664L3.34434 18.7401ZM2.55573 18.3363L3.01263 18.7405L3.34389 18.366L2.887 17.9618L2.55573 18.3363ZM1.20573 18.3991H2.72137V17.8991H1.20573V18.3991ZM0.955733 17.8338V18.1491H1.45573V17.8338H0.955733ZM0.81641 18.0838H1.20573V17.5838H0.81641V18.0838ZM0.56641 17.5171V17.8338H1.06641V17.5171H0.56641ZM0.435551 17.7671H0.81641V17.2671H0.435551V17.7671ZM0.185551 16.4902V17.5171H0.685551V16.4902H0.185551ZM0.81641 16.2402H0.435551V16.7402H0.81641V16.2402ZM0.56641 16.175V16.4902H1.06641V16.175H0.56641ZM1.20573 15.925H0.81641V16.425H1.20573V15.925ZM0.955733 15.7793V16.175H1.45573V15.7793H0.955733ZM2.76921 15.5293H1.20573V16.0293H2.76921V15.5293ZM2.93484 15.9666L3.34389 15.6047L3.01263 15.2302L2.60357 15.592L2.93484 15.9666ZM3.01219 15.6043L3.4193 15.9662L3.75145 15.5924L3.34434 15.2306L3.01219 15.6043Z" fill="#E8AA00"/>
<path fill-rule="evenodd" clip-rule="evenodd" d="M4.8431 16.6926V15.9948H4.02998L4.8431 16.6926ZM1.42383 16.6927V15.9949H2.23695L1.42383 16.6927ZM1.42383 17.9562V17.2583L2.23695 17.9562H1.42383ZM4.8431 17.2583V17.9562H4.02998L4.8431 17.2583Z" fill="#C51918"/>
<path fill-rule="evenodd" clip-rule="evenodd" d="M2.86394 16.0552L3.14461 15.6876L3.42176 16.0552H2.86394ZM2.86394 16.3992L3.14461 16.7667L3.42176 16.3992H2.86394ZM3.14461 17.2682L2.86394 17.6358H3.42176L3.14461 17.2682ZM2.86394 17.9776L3.14461 18.3452L3.42176 17.9776H2.86394Z" fill="#E8AA00"/>
<path fill-rule="evenodd" clip-rule="evenodd" d="M2.86849 16.0109V16.1696H2.70769V16.3862H2.86849V16.5428H3.43083V16.3862H3.59232V16.1696H3.43083V16.0109H2.86849ZM3.43083 17.748V17.5914H2.86849V17.748H2.70769V17.9647H2.86849V18.1234H3.43083V17.9647H3.59232V17.748H3.43083Z" fill="#AF0100"/>
<path fill-rule="evenodd" clip-rule="evenodd" d="M1.79362 16.8463L2.0608 16.4771L2.32461 16.8463H1.79362ZM1.79362 17.1912L2.0608 17.5604L2.32461 17.1912H1.79362ZM4.28671 16.4771L4.01954 16.8463H4.55052L4.28671 16.4771ZM4.01954 17.1912L4.28671 17.5604L4.55052 17.1912H4.01954Z" fill="#AF0100"/>
<path fill-rule="evenodd" clip-rule="evenodd" d="M1.78841 16.8003V16.9611H1.63607V17.1821H1.78841V17.3429H2.3237V17.1821H2.47814V16.9611H2.3237V16.8003H1.78841ZM4.54961 16.9611V16.8003H4.01433V16.9611H3.86198V17.1821H4.01433V17.3429H4.54961V17.1821H4.70405V16.9611H4.54961Z" fill="#E8AA00"/>
<mask id="mask4_1_9560" style="mask-type:alpha" maskUnits="userSpaceOnUse" x="0" y="18" width="7" height="5">
<path fill-rule="evenodd" clip-rule="evenodd" d="M2.39772 18.6904L0.478519 19.7726V21.5662L2.39772 22.692H4.47641L6.44125 21.5662V19.7726L4.47641 18.6904H2.39772Z" fill="white"/>
</mask>
<g mask="url(#mask4_1_9560)">
<path d="M0.50391 20.6899H3.49506V22.6648H0.50391V20.6899Z" fill="#E8AA00"/>
<rect x="0.199223" y="18.7137" width="3.29794" height="1.97483" fill="#F9E8E7"/>
<path d="M0.969406 19.8639L1.9623 19.266V19.8639H0.969406Z" fill="#E8AA00"/>
<rect width="3.29794" height="1.97483" transform="matrix(-1 0 0 1 6.79167 18.7137)" fill="#E8AA00"/>
<path d="M5.79297 19.8639L4.80008 19.266V19.8639H5.79297Z" fill="#F9E8E7"/>
<rect x="6.48698" y="22.6632" width="2.99115" height="1.97483" transform="rotate(-180 6.48698 22.6632)" fill="#F9E8E7"/>
<path d="M5.7168 21.5131L4.72391 22.111V21.5131H5.7168Z" fill="#E8AA00"/>
<path d="M0.969406 21.389L1.9623 21.9869V21.389H0.969406Z" fill="#FCFCFC"/>
</g>
<path fill-rule="evenodd" clip-rule="evenodd" d="M2.42709 19.8998H2.92561L3.42414 19.7418L3.92266 19.8998H4.42119V21.4007H3.92266L3.42414 21.6377L2.92561 21.4007H2.42709V19.8998Z" fill="#C51918"/>
<path fill-rule="evenodd" clip-rule="evenodd" d="M4.11198 19.002H4.38281V19.3066H4.50068V19.5233H4.38281V19.6409H4.11198V19.002ZM1.39518 19.9499H1.12435V20.2546V20.4712V20.5888H1.39518V20.4712H1.50458V20.2546H1.39518V19.9499ZM1.77604 19.9499H1.50521V20.5888H1.77604V19.9499ZM1.39518 20.7391H1.12435V21.0459V21.2626V21.378H1.39518V21.2626H1.50458V21.0459H1.39518V20.7391ZM1.50521 20.7391H1.77604V21.378H1.50521V20.7391ZM5.3392 19.9499H5.61003V20.2546H5.72789V20.4712H5.61003V20.5888H5.3392V19.9499ZM5.99935 19.9499H5.72852V20.5888H5.99935V19.9499ZM5.61003 20.7391H5.3392V21.378H5.61003V21.2626H5.72789V21.0459H5.61003V20.7391ZM5.72852 20.7391H5.99935V21.378H5.72852V20.7391ZM4.77214 19.002H4.5013V19.6409H4.77214V19.002ZM2.54623 19.002H2.27539V19.3066V19.5233V19.6409H2.54623V19.5233H2.65562V19.3066H2.54623V19.002ZM2.65625 19.002H2.92709V19.6409H2.65625V19.002ZM4.11198 21.687H4.38281V21.9938H4.50068V22.2105H4.38281V22.3259H4.11198V21.687ZM4.77214 21.687H4.5013V22.3259H4.77214V21.687ZM2.54623 21.687H2.27539V21.9938V22.2105V22.3259H2.54623V22.2105H2.65562V21.9938H2.54623V21.687ZM2.65625 21.687H2.92709V22.3259H2.65625V21.687Z" fill="#C9343F"/>
<path fill-rule="evenodd" clip-rule="evenodd" d="M3.28268 20.2232H3.35938V20.0084H2.97618V20.254H2.66039V20.606H2.95403V20.527H2.73709V20.333H2.99161L3.38308 20.6718L2.99161 21.0105H2.73709V20.8165H2.95403V20.7375H2.66039V21.0895H2.97618V21.3351H3.35938V21.1203H3.28268V21.2561H3.05288V21.0607L3.44825 20.7185L3.84362 21.0607V21.2561H3.61381V21.1203H3.53711V21.3351H3.92032V21.0895H4.2361V20.7375H3.94247V20.8165H4.15941V21.0105H3.90489L3.51341 20.6718L3.90489 20.333H4.15941V20.527H3.94247V20.606H4.2361V20.254H3.92032V20.0084H3.53711V20.2232H3.61381V20.0874H3.84362V20.2828L3.44825 20.625L3.05288 20.2828V20.0874H3.28268V20.2232ZM3.44825 20.6743L3.45032 20.6718L3.44825 20.6692L3.44618 20.6718L3.44825 20.6743Z" fill="white"/>
<path fill-rule="evenodd" clip-rule="evenodd" d="M3.88386 5.20068H2.53321V9.53402H3.88386V5.20068ZM0.848961 6.11686H1.69312V8.4502H0.848961V6.11686ZM4.81836 6.11686H5.66252V8.4502H4.81836V6.11686Z" fill="#E8AA00"/>
<path fill-rule="evenodd" clip-rule="evenodd" d="M2.5284 5.53528H1.68425V8.86861H2.5284V5.53528ZM0.84416 6.45146H3.8147e-06V8.03479H0.84416V6.45146ZM5.65365 6.45146H6.49781V8.03479H5.65365V6.45146ZM4.72893 5.53528H3.88477V8.86861H4.72893V5.53528Z" fill="#389F5D"/>
<path fill-rule="evenodd" clip-rule="evenodd" d="M2.35741 5.95129C2.35741 6.08937 2.24403 6.20129 2.10416 6.20129C1.9643 6.20129 1.85092 6.08937 1.85092 5.95129C1.85092 5.81322 1.9643 5.70129 2.10416 5.70129C2.24403 5.70129 2.35741 5.81322 2.35741 5.95129ZM0.673165 6.78495C0.673165 6.92302 0.559783 7.03495 0.419919 7.03495C0.280054 7.03495 0.166672 6.92302 0.166672 6.78495C0.166672 6.64688 0.280054 6.53495 0.419919 6.53495C0.559783 6.53495 0.673165 6.64688 0.673165 6.78495ZM0.673165 7.70113C0.673165 7.8392 0.559783 7.95113 0.419919 7.95113C0.280054 7.95113 0.166672 7.8392 0.166672 7.70113C0.166672 7.56306 0.280054 7.45113 0.419919 7.45113C0.559783 7.45113 0.673165 7.56306 0.673165 7.70113ZM2.10416 8.70227C2.24403 8.70227 2.35741 8.59034 2.35741 8.45227C2.35741 8.3142 2.24403 8.20227 2.10416 8.20227C1.9643 8.20227 1.85092 8.3142 1.85092 8.45227C1.85092 8.59034 1.9643 8.70227 2.10416 8.70227ZM6.07356 7.03495C6.21343 7.03495 6.32681 6.92302 6.32681 6.78495C6.32681 6.64688 6.21343 6.53495 6.07356 6.53495C5.9337 6.53495 5.82032 6.64688 5.82032 6.78495C5.82032 6.92302 5.9337 7.03495 6.07356 7.03495ZM6.32681 7.70113C6.32681 7.8392 6.21343 7.95113 6.07356 7.95113C5.9337 7.95113 5.82032 7.8392 5.82032 7.70113C5.82032 7.56306 5.9337 7.45113 6.07356 7.45113C6.21343 7.45113 6.32681 7.56306 6.32681 7.70113ZM4.30468 8.70227C4.44455 8.70227 4.55793 8.59034 4.55793 8.45227C4.55793 8.3142 4.44455 8.20227 4.30468 8.20227C4.16482 8.20227 4.05144 8.3142 4.05144 8.45227C4.05144 8.59034 4.16482 8.70227 4.30468 8.70227ZM4.55793 5.95129C4.55793 6.08937 4.44455 6.20129 4.30468 6.20129C4.16482 6.20129 4.05144 6.08937 4.05144 5.95129C4.05144 5.81322 4.16482 5.70129 4.30468 5.70129C4.44455 5.70129 4.55793 5.81322 4.55793 5.95129Z" fill="#E1E5E8"/>
<path fill-rule="evenodd" clip-rule="evenodd" d="M3.46027 5.61902C3.46027 5.75709 3.34689 5.86902 3.20703 5.86902C3.06716 5.86902 2.95378 5.75709 2.95378 5.61902C2.95378 5.48095 3.06716 5.36902 3.20703 5.36902C3.34689 5.36902 3.46027 5.48095 3.46027 5.61902ZM1.52212 6.5352C1.52212 6.67327 1.40874 6.7852 1.26888 6.7852C1.12901 6.7852 1.01563 6.67327 1.01563 6.5352C1.01563 6.39713 1.12901 6.2852 1.26888 6.2852C1.40874 6.2852 1.52212 6.39713 1.52212 6.5352ZM3.20703 9.45333C3.34689 9.45333 3.46027 9.3414 3.46027 9.20333C3.46027 9.06526 3.34689 8.95333 3.20703 8.95333C3.06716 8.95333 2.95378 9.06526 2.95378 9.20333C2.95378 9.3414 3.06716 9.45333 3.20703 9.45333ZM5.49152 6.5352C5.49152 6.67327 5.37814 6.7852 5.23828 6.7852C5.09841 6.7852 4.98503 6.67327 4.98503 6.5352C4.98503 6.39713 5.09841 6.2852 5.23828 6.2852C5.37814 6.2852 5.49152 6.39713 5.49152 6.5352ZM1.26888 8.28536C1.40874 8.28536 1.52212 8.17343 1.52212 8.03536C1.52212 7.89729 1.40874 7.78536 1.26888 7.78536C1.12901 7.78536 1.01563 7.89729 1.01563 8.03536C1.01563 8.17343 1.12901 8.28536 1.26888 8.28536ZM5.49152 8.03536C5.49152 8.17343 5.37814 8.28536 5.23828 8.28536C5.09841 8.28536 4.98503 8.17343 4.98503 8.03536C4.98503 7.89729 5.09841 7.78536 5.23828 7.78536C5.37814 7.78536 5.49152 7.89729 5.49152 8.03536Z" fill="#C51918"/>
<path fill-rule="evenodd" clip-rule="evenodd" d="M1.7461 6.92394L2.56788 6.18176H3.9022L4.83771 7.03235H6.08141V7.36568H4.87243V7.38395L3.9022 8.37072H2.56788L1.7461 7.48013V7.36568H0.341148V7.03235H1.7461V6.92394Z" fill="#C51918"/>
<path fill-rule="evenodd" clip-rule="evenodd" d="M3.24301 6.60494L2.80425 6.16028L2.71355 6.2475L2.76832 6.30301L2.59101 6.48212L2.46716 6.38483L2.12543 6.71643L2.64622 7.20975L2.12877 7.73416L2.44412 8.06675H2.57786L2.84496 8.23478L3.24297 7.86628L3.64203 8.23576L3.90912 8.06772H4.04286L4.35822 7.73514L3.84077 7.21073L4.36156 6.71741L4.01983 6.3858L3.89598 6.48309L3.7177 6.30302L3.77344 6.24652L3.68274 6.1593L3.24301 6.60494ZM3.46465 6.83281L3.47332 6.82365L3.33413 6.69522L3.6433 6.40995L3.88118 6.65023L4.00681 6.55153L4.17564 6.71536L3.74824 7.12022L3.46465 6.83281ZM3.24401 7.60277L2.82594 7.20676L3.24266 6.78444L3.24303 6.7841L3.66104 7.20773L3.24401 7.60277ZM3.33707 7.77915L3.38417 7.73554L3.33618 7.69008L3.75167 7.29651L4.18542 7.73609L3.99022 7.94196H3.87448L3.65919 8.0774L3.33707 7.77915ZM3.19857 7.73276L2.82845 8.07544L2.61316 7.94H2.49742L2.30222 7.73414L2.73597 7.29456L3.19857 7.73276ZM2.30353 6.71341L2.73093 7.11826L3.14779 6.69581L2.83587 6.408L2.598 6.64827L2.47236 6.54958L2.30353 6.71341Z" fill="#E8AA00"/>
<path fill-rule="evenodd" clip-rule="evenodd" d="M6.01428 23.229C6.24072 22.9416 6.39355 22.7476 6.43381 22.7505C6.5602 22.7598 6.67873 24.0979 5.03594 25.116C5.03594 25.116 4.79345 25.2509 4.65221 25.116C4.51098 24.9812 4.65221 24.7828 4.65221 24.7828C5.18325 24.2838 5.67931 23.6541 6.01428 23.229ZM0.485726 23.229C0.259284 22.9416 0.106454 22.7476 0.0661945 22.7505C-0.0601901 22.7598 -0.178718 24.0979 1.46407 25.116C1.46407 25.116 1.70656 25.2509 1.84779 25.116C1.98903 24.9812 1.84779 24.7828 1.84779 24.7828C1.31676 24.2838 0.820699 23.6541 0.485726 23.229ZM5.89063 25.0302C5.35081 25.1897 4.7256 25.2231 4.48653 25.12C4.41027 25.0871 4.32931 25.0613 4.24423 25.0419C4.00641 24.988 3.77459 24.9875 3.4995 25.0176C3.47611 25.0202 3.41833 25.027 3.39805 25.0294L3.39786 25.0294L3.39092 25.0302C3.36502 25.0331 3.35006 25.0344 3.3472 25.0344C3.33178 25.0344 3.31495 25.0366 3.29655 25.0407C3.27816 25.0366 3.26132 25.0344 3.2459 25.0344C3.24305 25.0344 3.22809 25.0331 3.20218 25.0302C3.2018 25.0302 3.19929 25.0299 3.19525 25.0294C3.17514 25.027 3.11707 25.0202 3.09361 25.0176C2.81851 24.9875 2.5867 24.988 2.34887 25.0419C2.2638 25.0613 2.18284 25.0871 2.10658 25.12C1.86751 25.2231 1.2423 25.1897 0.702478 25.0302C0.702478 25.0302 1.68481 25.4247 2.26823 25.2499C2.3248 25.2255 2.38447 25.2064 2.44726 25.1922C2.61219 25.1548 2.78109 25.1512 2.98384 25.1699C2.89759 25.2101 2.79726 25.256 2.6805 25.3034V25.3512C2.91196 25.2573 3.1835 25.2132 3.29655 25.2C3.40961 25.2132 3.68115 25.2573 3.91261 25.3512V25.3034C3.79585 25.256 3.69551 25.2101 3.60927 25.1699C3.81201 25.1512 3.98091 25.1548 4.14585 25.1922C4.20863 25.2064 4.2683 25.2255 4.32488 25.2499C4.90829 25.4247 5.89063 25.0302 5.89063 25.0302Z" fill="#E8AA00"/>
<path fill-rule="evenodd" clip-rule="evenodd" d="M1.90574 10.8099L0.549484 12.0051V13.1435L1.73517 14.3349H4.15618L5.49103 13.0636V12.0945L4.15618 10.8099H1.90574Z" fill="#389F5D"/>
<path fill-rule="evenodd" clip-rule="evenodd" d="M2.37385 10.9364H2.06706V11.1734H2.37385V10.9364ZM2.37385 14.0341H2.06706V14.271H2.37385V14.0341ZM2.83724 14.0341H3.14403V14.271H2.83724V14.0341ZM3.14403 10.9364H2.83724V11.1734H3.14403V10.9364ZM3.59896 14.0341H3.90575V14.271H3.59896V14.0341ZM3.90575 10.9364H3.59896V11.1734H3.90575V10.9364Z" fill="#C51918"/>
<path fill-rule="evenodd" clip-rule="evenodd" d="M2.76737 10.8761H2.45508V11.1131H2.76737V10.8761ZM2.76737 14.0351H2.45508V14.2721H2.76737V14.0351ZM3.23373 10.8761H3.54602V11.1131H3.23373V10.8761ZM3.54602 14.0351H3.23373V14.2721H3.54602V14.0351Z" fill="#E8AA00"/>
<path fill-rule="evenodd" clip-rule="evenodd" d="M0.986325 10.6639H5.08136V11.2967H5.66771V13.9128H5.08136V14.4536H0.986325V13.9128H0.349613V11.2967H0.986325V10.6639ZM1.21484 11.5337H0.578129V13.6758H1.21484V14.2166H4.8497V13.6758H5.43605V11.5337H4.8497V10.9009H1.21484V11.5337Z" fill="#750100"/>
<path fill-rule="evenodd" clip-rule="evenodd" d="M2.59963 10.4009H2.21615V10.7958H2.59963V10.4009ZM3.21747 10.4009H2.83399V10.7958H3.21747V10.4009ZM3.44336 10.4009H3.82684V10.7958H3.44336V10.4009ZM2.59963 14.3512H2.21615V14.7462H2.59963V14.3512ZM2.83399 14.3512H3.21747V14.7462H2.83399V14.3512ZM3.82684 14.3512H3.44336V14.7462H3.82684V14.3512ZM-0.00976181 13.4753V13.0918H0.385203V13.4753H-0.00976181ZM-0.00976181 12.4612V12.8447H0.385203V12.4612H-0.00976181ZM-0.00976181 12.2121V11.8286H0.385203V12.2121H-0.00976181ZM5.50847 13.0918V13.4753H5.90343V13.0918H5.50847ZM5.50847 12.8447V12.4612H5.90343V12.8447H5.50847ZM5.50847 11.8286V12.2121H5.90343V11.8286H5.50847Z" fill="#389F5D"/>
<path fill-rule="evenodd" clip-rule="evenodd" d="M1.92183 11.1442L1.26042 11.7194V13.5809L1.80933 13.9693H4.18902L4.73712 13.5809V11.7194L4.11853 11.1442H1.92183Z" fill="#C51918"/>
<path fill-rule="evenodd" clip-rule="evenodd" d="M3.0318 11.9144L2.23373 12.5963H3.0318V11.9144Z" fill="#E1E5E8"/>
<path d="M3.0318 13.2157L2.23373 12.5338H3.0318V13.2157Z" fill="#E8AA00"/>
<path fill-rule="evenodd" clip-rule="evenodd" d="M2.96755 11.9144L3.76563 12.5963H2.96755V11.9144Z" fill="#E8AA00"/>
<path fill-rule="evenodd" clip-rule="evenodd" d="M3.00019 12.7808C3.13368 12.7808 3.24191 12.6726 3.24191 12.5391C3.24191 12.4056 3.13368 12.2974 3.00019 12.2974C2.86669 12.2974 2.75847 12.4056 2.75847 12.5391C2.75847 12.6726 2.86669 12.7808 3.00019 12.7808Z" fill="#29AE66"/>
<path d="M2.96755 13.2157L3.76563 12.5338H2.96755V13.2157Z" fill="#E1E5E8"/>
<path fill-rule="evenodd" clip-rule="evenodd" d="M1.29899 12.298H0.608727V12.519H1.29899V12.298ZM1.29899 12.7H0.608727V12.921H1.29899V12.7ZM4.7474 12.298H5.43766V12.519H4.7474V12.298ZM5.43766 12.7H4.7474V12.921H5.43766V12.7Z" fill="#C51918"/>
<path fill-rule="evenodd" clip-rule="evenodd" d="M1.2223 12.0604H0.608727V12.3021H1.2223V12.0604ZM1.2223 12.4624H0.608727V12.7042H1.2223V12.4624ZM0.608727 12.8666H1.2223V13.1083H0.608727V12.8666ZM5.36097 12.0604H4.7474V12.3021H5.36097V12.0604ZM4.7474 12.4624H5.36097V12.7042H4.7474V12.4624ZM5.36097 12.8666H4.7474V13.1083H5.36097V12.8666Z" fill="#E8AA00"/>
<path fill-rule="evenodd" clip-rule="evenodd" d="M6.48568 1.72227L6.48335 2.16121H3.28074L3.27844 4.15502H2.27332C2.09787 4.15502 1.61681 3.81811 1.61681 3.81811H0.800677L0.423908 3.43319V3.04643L0.0195351 2.56629L0.0218658 2.12735H3.22448L3.22677 0.133545H4.23189C4.40734 0.133545 4.88841 0.470456 4.88841 0.470456H5.70454L6.08131 0.855369V1.24213L6.48568 1.72227Z" fill="#E8AA00"/>
<path fill-rule="evenodd" clip-rule="evenodd" d="M0.0169287 1.72227L0.0192595 2.16121H3.22187L3.22417 4.15502H4.22929C4.40474 4.15502 4.8858 3.81811 4.8858 3.81811H5.70193L6.0787 3.43319V3.04643L6.48307 2.56629L6.48074 2.12735H3.27813L3.27584 0.133545H2.27072C2.09526 0.133545 1.6142 0.470456 1.6142 0.470456H0.79807L0.421301 0.855369V1.24213L0.0169287 1.72227Z" fill="#E1E5E8"/>
<path fill-rule="evenodd" clip-rule="evenodd" d="M2.17443 0.743673L2.13932 0.574138L2.83078 0.415135C2.91378 0.375053 3.05784 0.260867 3.25626 0.0753174L3.34912 0.179838L3.36679 0.159953C3.56521 0.345503 3.70927 0.459689 3.79227 0.49977L4.48373 0.658773L4.44862 0.828309L4.05548 0.747099L4.0944 0.781893C4.06805 0.79768 4.03939 0.820694 4.00867 0.850795L3.84678 0.826956L3.86183 0.772209L3.82805 0.766708C3.79841 0.822824 3.76457 0.90281 3.72843 1.00525L3.56652 0.957583L3.63208 0.643541L3.26641 0.300573L3.00615 0.544669C3.03667 0.572689 3.0671 0.604627 3.09757 0.640555C3.07037 0.650904 3.04437 0.660037 3.01955 0.667959L3.01401 0.669279L3.05653 0.872948L2.89462 0.920619C2.87342 0.860507 2.853 0.808127 2.83376 0.763766L2.8175 0.76616C2.78679 0.736059 2.75812 0.713045 2.73177 0.697257L2.77963 0.654468C2.7725 0.642378 2.76566 0.631843 2.75915 0.622888L2.17443 0.743673ZM2.20317 1.36284L2.29548 1.21771L1.81806 0.897607L1.8706 0.824149L1.73451 0.721567L1.67649 0.802687L1.48685 0.675531L1.39453 0.820657L1.57643 0.942616L1.53841 0.995772L1.6745 1.09835L1.718 1.03754L2.20317 1.36284ZM1.61072 1.53634L1.70303 1.39122L1.22561 1.07111L1.27815 0.997651L1.14206 0.895069L1.08405 0.976189L0.894401 0.849034L0.802085 0.99416L0.983979 1.11612L0.945965 1.16927L1.08205 1.27186L1.12555 1.21104L1.61072 1.53634ZM1.35681 2.05685L1.44913 1.91172L0.971709 1.59162L1.02424 1.51816L0.888151 1.41558L0.83014 1.4967L0.640495 1.36954L0.548178 1.51467L0.730072 1.63663L0.692059 1.68978L0.828148 1.79236L0.871641 1.73155L1.35681 2.05685ZM1.36449 2.47281L1.27218 2.32768L0.787006 2.65299L0.743513 2.59217L0.607423 2.69475L0.645437 2.74791L0.463543 2.86987L0.555859 3.01499L0.745504 2.88784L0.803516 2.96896L0.939606 2.86637L0.887073 2.79292L1.36449 2.47281ZM1.52608 2.84819L1.6184 2.99332L1.14098 3.31342L1.19351 3.38688L1.05742 3.48946L0.999411 3.40834L0.809766 3.5355L0.717449 3.39037L0.899343 3.26841L0.861329 3.21526L0.997419 3.11268L1.04091 3.17349L1.52608 2.84819ZM2.11853 3.02169L2.21085 3.16682L1.73343 3.48693L1.78596 3.56038L1.64987 3.66297L1.59186 3.58185L1.40221 3.709L1.3099 3.56388L1.49179 3.44192L1.45378 3.38876L1.58987 3.28618L1.63336 3.347L2.11853 3.02169ZM3.01294 3.84977C2.98574 3.83942 2.95973 3.83029 2.93491 3.82237L2.90834 3.81603L2.9719 3.51159L2.80998 3.46391C2.75826 3.61055 2.71122 3.71118 2.67451 3.76164L2.08979 3.64086L2.05469 3.8104L2.71578 3.96242L2.71484 3.96558L2.81123 4.02959C2.81684 4.02619 2.82244 4.02267 2.82804 4.01902C2.91222 4.07745 3.0276 4.17454 3.17162 4.30922L3.22689 4.24701L3.28216 4.30922C3.48058 4.12367 3.62463 4.00948 3.70764 3.9694L3.72407 3.96562C3.75316 3.99046 3.78238 4.01176 3.81182 4.02959L3.9082 3.96558L3.89803 3.93105L3.90621 3.92373L4.39909 3.8104L4.36399 3.64086L3.77926 3.76164C3.74256 3.71118 3.69552 3.61055 3.6438 3.46391L3.48188 3.51159L3.54744 3.82563L3.22689 4.12628L2.97621 3.89116C2.98845 3.87801 3.00069 3.86421 3.01294 3.84977ZM5.08082 2.47281L5.17314 2.32768L5.65831 2.65299L5.7018 2.59217L5.83789 2.69475L5.79988 2.74791L5.98177 2.86987L5.88946 3.01499L5.69981 2.88784L5.6418 2.96896L5.50571 2.86637L5.55824 2.79292L5.08082 2.47281ZM4.82692 2.99332L4.91923 2.84819L5.4044 3.17349L5.4479 3.11268L5.58399 3.21526L5.54597 3.26841L5.72787 3.39037L5.63555 3.5355L5.4459 3.40834L5.38789 3.48946L5.2518 3.38688L5.30434 3.31342L4.82692 2.99332ZM4.24293 3.16682L4.33525 3.02169L4.82042 3.347L4.86391 3.28618L5 3.38876L4.96199 3.44192L5.14388 3.56388L5.05157 3.709L4.86192 3.58185L4.80391 3.66297L4.66782 3.56038L4.72035 3.48693L4.24293 3.16682ZM5.16546 1.99848L5.25777 2.1436L5.74397 1.81761L5.78644 1.877L5.92253 1.77442L5.88554 1.72269L6.06641 1.60142L5.97409 1.45629L5.78547 1.58276L5.72643 1.50021L5.59034 1.60279L5.6439 1.67768L5.16546 1.99848ZM4.91155 1.47797L5.00387 1.62309L5.48904 1.29779L5.53253 1.35861L5.66862 1.25603L5.63061 1.20287L5.8125 1.08091L5.72018 0.935785L5.53054 1.06294L5.47253 0.981821L5.33644 1.0844L5.38897 1.15786L4.91155 1.47797ZM4.32757 1.30446L4.41988 1.44959L4.90505 1.12429L4.94855 1.18511L5.08464 1.08252L5.04662 1.02937L5.22852 0.907408L5.1362 0.762282L4.94656 0.889438L4.88854 0.808318L4.75245 0.9109L4.80499 0.984359L4.32757 1.30446Z" fill="#C51918"/>
<path fill-rule="evenodd" clip-rule="evenodd" d="M2.39732 1.25054L3.35341 0.74353V2.13124H5.71615L5.15294 2.53687V3.06758H4.26153L3.30545 3.57458V2.18688H0.942711L1.50592 1.78125V1.25054H2.39732Z" fill="#C51918"/>
<path fill-rule="evenodd" clip-rule="evenodd" d="M4.26153 1.25054L3.30545 0.74353V2.13124H0.942711L1.50592 2.53687V3.06758H2.39732L3.35341 3.57458V2.18688H5.71615L5.15294 1.78125V1.25054H4.26153Z" fill="#29AE66"/>
<path fill-rule="evenodd" clip-rule="evenodd" d="M1.93099 1.60957L2.087 1.30212L2.48385 1.51438L2.59381 1.35079L2.87172 1.54768L2.78562 1.67579L3.96062 2.30425L4.03261 2.19714L4.31053 2.39403L4.26239 2.46565L4.38896 2.53334L4.23295 2.84079L4.06914 2.75317L3.93547 2.95205L3.65755 2.75515L3.76737 2.59177L2.59237 1.96331L2.49667 2.10569L2.21875 1.9088L2.2906 1.80191L1.93099 1.60957Z" fill="#29AE66"/>
<path fill-rule="evenodd" clip-rule="evenodd" d="M4.43551 1.52349L4.25844 1.22768L3.87966 1.46566L3.76063 1.31278L3.49712 1.52858L3.58989 1.64772L2.45988 2.35768L2.38107 2.25647L2.11757 2.47227L2.17011 2.53974L2.04797 2.61648L2.22505 2.91229L2.38295 2.81309L2.53063 3.00276L2.79414 2.78696L2.67272 2.63103L3.80273 1.92106L3.91019 2.05907L4.17369 1.84327L4.0925 1.739L4.43551 1.52349Z" fill="#C51918"/>
</g>
<path fill-rule="evenodd" clip-rule="evenodd" d="M16.3347 2.16736C16.3347 2.16736 18.8591 8.14909 16.6163 10.6894C14.3735 13.2298 8.67188 12.74 8.67188 12.74C8.67188 12.74 15.9913 16.0459 19.1804 11.4938C22.3694 6.94175 16.3347 2.16736 16.3347 2.16736Z" fill="#F7FCFF"/>
<path fill-rule="evenodd" clip-rule="evenodd" d="M11.7611 5.68635L11.0931 6.15649L11.3288 5.36865L10.6803 4.87138L11.4939 4.85461L11.7611 4.07715L12.0282 4.85461L12.8418 4.87138L12.1934 5.36865L12.429 6.15649L11.7611 5.68635ZM11.888 7.85936L11.2201 8.3295L11.4557 7.54167L10.8073 7.0444L11.6209 7.02763L11.888 6.25016L12.1552 7.02763L12.9688 7.0444L12.3203 7.54167L12.5559 8.3295L11.888 7.85936ZM9.18885 8.49665L9.85677 8.02652L10.5247 8.49665L10.2891 7.70882L10.9375 7.21155L10.1239 7.19478L9.85677 6.41732L9.5896 7.19478L8.77605 7.21155L9.42448 7.70882L9.18885 8.49665ZM11.888 10.1382L11.2201 10.6083L11.4557 9.82048L10.8073 9.32321L11.6209 9.30644L11.888 8.52897L12.1552 9.30644L12.9688 9.32321L12.3203 9.82048L12.5559 10.6083L11.888 10.1382ZM13.4291 7.66511L14.097 7.19498L14.7649 7.66511L14.5293 6.87728L15.1777 6.38001L14.3642 6.36324L14.097 5.58577L13.8298 6.36324L13.0163 6.38001L13.6647 6.87728L13.4291 7.66511Z" fill="#F7FCFF"/>
</g>
</g>
</g>
</svg>
