<svg width="26" height="26" viewBox="0 0 26 26" fill="none" xmlns="http://www.w3.org/2000/svg">
<mask id="mask0_1_9833" style="mask-type:alpha" maskUnits="userSpaceOnUse" x="0" y="0" width="26" height="26">
<circle cx="13" cy="13" r="13" fill="#634848"/>
</mask>
<g mask="url(#mask0_1_9833)">
<rect x="-7" width="35" height="26" rx="2" fill="white"/>
<rect x="-7" width="38" height="26" fill="#E92434"/>
<path fill-rule="evenodd" clip-rule="evenodd" d="M17.8656 13.9741L16.3419 15.8551L16.4457 13.4191L14.2179 12.5248L16.5253 11.8726L16.6721 9.43894L17.9944 11.4718L20.313 10.862L18.8228 12.7706L20.1089 14.8273L17.8656 13.9741V13.9741V13.9741V13.9741Z" fill="white"/>
<path fill-rule="evenodd" clip-rule="evenodd" d="M15.86 17.6628C14.4943 19.4509 12.3612 20.6012 9.96429 20.6012C5.84187 20.6012 2.5 17.1986 2.5 13.0012C2.5 8.80388 5.84187 5.40125 9.96429 5.40125C12.3604 5.40125 14.4928 6.55079 15.8586 8.33777C14.8038 7.55569 13.4768 7.08972 12.0353 7.08972C8.6 7.08972 5.8151 9.73622 5.8151 13.0008C5.8151 16.2654 8.6 18.9119 12.0353 18.9119C13.4775 18.9119 14.805 18.4455 15.86 17.6628Z" fill="white"/>
</g>
</svg>
