<svg width="26" height="26" viewBox="0 0 26 26" fill="none" xmlns="http://www.w3.org/2000/svg">
<mask id="mask0_1_14774" style="mask-type:alpha" maskUnits="userSpaceOnUse" x="0" y="0" width="26" height="26">
<circle cx="13" cy="13" r="13" fill="#634848"/>
</mask>
<g mask="url(#mask0_1_14774)">
<g clip-path="url(#clip0_1_14774)">
<path d="M0 0H26V26H0V0Z" fill="#009FCA"/>
<path fill-rule="evenodd" clip-rule="evenodd" d="M24.2734 11.4918L24.634 12.5278L23.6996 11.8879L22.7602 12.5278L23.1207 11.4918L22.1812 10.852H23.3441L23.6996 9.81604L24.0551 10.852H25.2129L24.2734 11.4918ZM21.3687 19.759L21.7242 20.7949L20.7898 20.15L19.8555 20.7949L20.2109 19.759L19.2766 19.1141H20.4344L20.7898 18.0781L21.1453 19.1192H22.3082L21.3687 19.759ZM24.2785 17.8852L24.634 18.9211L23.6996 18.2813L22.7602 18.9211L23.1207 17.8852L22.1812 17.2453H23.3441L23.6996 16.2094L24.0551 17.2453H25.2129L24.2785 17.8852ZM11.7762 23.8774L12.1367 24.9184L11.2023 24.2735L10.2629 24.9184L10.6234 23.8824L9.68398 23.2426H10.8418L11.1973 22.2067L11.5578 23.2426H12.7156L11.7762 23.8774ZM13.9648 19.3883L13.6094 18.3524L14.5437 18.9922L15.4781 18.3524L15.1227 19.3883L16.057 20.0281H14.8992L14.5437 21.0641L14.1883 20.0281H13.0305L13.9648 19.3883ZM17.3824 14.6656L17.0219 13.6297L17.9562 14.2696L18.8957 13.6297L18.5402 14.6656L19.4746 15.3055H18.3168L17.9613 16.3414L17.6059 15.3055H16.443L17.3824 14.6656ZM20.2516 13.6856L19.8961 12.6496L20.8305 13.2895L21.7648 12.6496L21.4094 13.6856L22.3437 14.3254H21.1859L20.8305 15.3614L20.475 14.3254H19.3121L20.2516 13.6856ZM17.3824 21.8614L17.0219 20.8254L17.9562 21.4653L18.8957 20.8254L18.5402 21.8614L19.4746 22.5012H18.3168L17.9613 23.5371L17.6059 22.5012H16.443L17.3824 21.8614ZM13.9648 22.6942L13.6094 21.6582L14.5437 22.2981L15.4781 21.6582L15.1227 22.6942L16.057 23.334H14.8992L14.5437 24.3699L14.1883 23.334H13.0305L13.9648 22.6942Z" fill="#FFF40D"/>
<path d="M0 0H13V13H0V0Z" fill="#012169"/>
<path d="M13 0V1.625L8.17578 6.5L13 11.248V13H11.2988L6.44922 8.22656L1.72656 13H0V11.2734L4.72266 6.52539L0 1.87891V0H1.57422L6.44922 4.77344L11.1719 0H13Z" fill="white"/>
<path d="M4.67188 8.22656L4.95117 9.08984L1.06641 13H0V12.9238L4.67188 8.22656ZM7.82031 7.92188L9.19141 8.125L13 11.8574V13L7.82031 7.92188ZM13 0L8.125 4.97656L8.02344 3.85938L11.832 0H13ZM0 0.0253906L4.90039 4.82422L3.40234 4.62109L0 1.24414V0.0253906Z" fill="#C8102E"/>
<path d="M4.46875 0V13H8.53125V0H4.46875ZM0 4.46875V8.53125H13V4.46875H0Z" fill="white"/>
<path d="M0 5.28125V7.71875H13V5.28125H0ZM5.28125 0V13H7.71875V0H5.28125Z" fill="#C8102E"/>
</g>
</g>
<defs>
<clipPath id="clip0_1_14774">
<rect width="26" height="26" fill="white"/>
</clipPath>
</defs>
</svg>
