<svg width="26" height="26" viewBox="0 0 26 26" fill="none" xmlns="http://www.w3.org/2000/svg">
<mask id="mask0_1_9876" style="mask-type:alpha" maskUnits="userSpaceOnUse" x="0" y="0" width="26" height="26">
<circle cx="13" cy="13" r="13" fill="#634848"/>
</mask>
<g mask="url(#mask0_1_9876)">
</g>
<g clip-path="url(#clip0_1_9876)">
<path d="M13 25.9999C20.1797 25.9999 26 20.1796 26 12.9999C26 5.82024 20.1797 -6.10352e-05 13 -6.10352e-05C5.82032 -6.10352e-05 2.28882e-05 5.82024 2.28882e-05 12.9999C2.28882e-05 20.1796 5.82032 25.9999 13 25.9999Z" fill="#FFDA44"/>
<path d="M3.80762 22.1924C4.35296 22.7377 4.93481 23.2241 5.54515 23.6522L23.6522 5.54512C23.2241 4.93478 22.7378 4.35293 22.1924 3.80759C21.647 3.26225 21.0652 2.77597 20.4549 2.34778L2.34786 20.4549C2.77594 21.0651 3.26233 21.647 3.80762 22.1924V22.1924Z" fill="black"/>
<path d="M3.8076 3.80756C-0.293593 7.90886 -1.08096 14.0682 1.44404 18.9606L18.9606 1.44405C14.0682 -1.08094 7.90885 -0.293531 3.8076 3.80756V3.80756Z" fill="#6DA544"/>
<path d="M22.1924 22.1923C26.2935 18.0911 27.0809 11.9317 24.556 7.03931L7.03938 24.5559C11.9317 27.0809 18.0911 26.2935 22.1924 22.1923Z" fill="#338AF3"/>
</g>
<defs>
<clipPath id="clip0_1_9876">
<rect width="26" height="26" fill="white"/>
</clipPath>
</defs>
</svg>
