<svg width="26" height="26" viewBox="0 0 26 26" fill="none" xmlns="http://www.w3.org/2000/svg">
<mask id="mask0_1_9546" style="mask-type:alpha" maskUnits="userSpaceOnUse" x="0" y="0" width="26" height="26">
<circle cx="13" cy="13" r="13" fill="#634848"/>
</mask>
<g mask="url(#mask0_1_9546)">
</g>
<g clip-path="url(#clip0_1_9546)">
<path d="M22.6887 21.6667C24.7475 19.3667 26 16.3299 26 13C26 9.6702 24.7475 6.63333 22.6886 4.33335L13 3.39136L3.31133 4.33335C1.2525 6.63333 -1.52588e-05 9.6702 -1.52588e-05 13C-1.52588e-05 16.3299 1.25245 19.3667 3.31128 21.6667L13 22.6087L22.6887 21.6667Z" fill="#FFDA44"/>
<path d="M3.31135 4.33332H22.6887C20.3083 1.67405 16.8499 0 13 0C9.15013 0 5.69167 1.67405 3.31135 4.33332Z" fill="black"/>
<path d="M-1.52588e-05 13L13 14.1304L26 13C26 11.4804 25.7384 10.0221 25.2592 8.66663H0.740782C0.261559 10.0221 -1.52588e-05 11.4804 -1.52588e-05 13H-1.52588e-05Z" fill="#D80027"/>
<path d="M0.740782 17.3333H25.2593C25.7384 15.9779 26 14.5196 26 13H-1.52588e-05C-1.52588e-05 14.5196 0.261559 15.9779 0.740782 17.3333V17.3333Z" fill="black"/>
<path d="M22.6886 21.6666H3.31118C5.6915 24.3259 9.14996 26 12.9999 26C16.8498 26 20.3083 24.3259 22.6886 21.6666Z" fill="#D80027"/>
<path d="M17.338 13C17.338 15.396 15.396 17.3381 13 17.3381C10.604 17.3381 8.66193 15.396 8.66193 13C8.66193 10.604 10.604 8.66199 13 8.66199C15.396 8.66199 17.338 10.604 17.338 13Z" fill="#F0F0F0"/>
<path d="M14.5892 13.2213L13 12.5326C13 12.5326 13.3718 11.2985 13.3916 11.214C13.4061 11.1523 13.4138 11.088 13.4138 11.0219C13.4138 10.7877 13.3189 10.5758 13.1654 10.4224L13.5651 10.0228C13.3094 9.76707 12.9561 9.60889 12.5659 9.60889C12.1757 9.60889 11.8224 9.76702 11.5667 10.0228L11.9664 10.4224C11.8129 10.5758 11.7181 10.7878 11.7181 11.0219C11.7181 11.1075 11.731 11.19 11.7546 11.268L11.1529 11.8696H12.2465C12.2465 11.8696 11.7944 12.5488 11.5475 13.1065C11.3007 13.6642 11.5509 14.345 12.1214 14.5986L12.4513 14.7452L13 15.2609V15.8261L12.4348 16.3913H13.5652V15.2609L14.081 14.7451H15.1478C15.153 14.7345 15.1583 14.7241 15.1632 14.7133C15.4167 14.1428 15.1597 13.4748 14.5892 13.2213Z" fill="black"/>
</g>
<defs>
<clipPath id="clip0_1_9546">
<rect width="26" height="26" fill="white"/>
</clipPath>
</defs>
</svg>
