<svg width="26" height="26" viewBox="0 0 26 26" fill="none" xmlns="http://www.w3.org/2000/svg">
<mask id="mask0_1_9396" style="mask-type:alpha" maskUnits="userSpaceOnUse" x="0" y="0" width="26" height="26">
<circle cx="13" cy="13" r="13" fill="#634848"/>
</mask>
<g mask="url(#mask0_1_9396)">
<rect x="-3" width="39" height="26" fill="white"/>
<mask id="mask1_1_9396" style="mask-type:alpha" maskUnits="userSpaceOnUse" x="-3" y="0" width="39" height="26">
<rect x="-3" width="39" height="26" fill="white"/>
</mask>
<g mask="url(#mask1_1_9396)">
<path fill-rule="evenodd" clip-rule="evenodd" d="M36 0H-3V1.73333H36V0ZM36 3.46667H-3V5.2H36V3.46667ZM-3 6.93332H36V8.66665H-3V6.93332ZM36 10.4H-3V12.1333H36V10.4ZM-3 13.8667H36V15.6H-3V13.8667ZM36 17.3333H-3V19.0667H36V17.3333ZM-3 20.8H36V22.5333H-3V20.8ZM36 24.2667H-3V26H36V24.2667Z" fill="#D02F44"/>
<rect x="-3" width="16.7143" height="12.1333" fill="#46467F"/>
<g filter="url(#filter0_d_1_9396)">
<path fill-rule="evenodd" clip-rule="evenodd" d="M0.714287 2.59994C0.714287 3.07859 0.298551 3.46661 -0.214285 3.46661C-0.727121 3.46661 -1.14286 3.07859 -1.14286 2.59994C-1.14286 2.1213 -0.727121 1.73328 -0.214285 1.73328C0.298551 1.73328 0.714287 2.1213 0.714287 2.59994ZM4.42857 2.59994C4.42857 3.07859 4.01283 3.46661 3.5 3.46661C2.98716 3.46661 2.57143 3.07859 2.57143 2.59994C2.57143 2.1213 2.98716 1.73328 3.5 1.73328C4.01283 1.73328 4.42857 2.1213 4.42857 2.59994ZM7.21429 3.46661C7.72712 3.46661 8.14286 3.07859 8.14286 2.59994C8.14286 2.1213 7.72712 1.73328 7.21429 1.73328C6.70145 1.73328 6.28571 2.1213 6.28571 2.59994C6.28571 3.07859 6.70145 3.46661 7.21429 3.46661ZM11.8572 2.59994C11.8572 3.07859 11.4414 3.46661 10.9286 3.46661C10.4157 3.46661 10 3.07859 10 2.59994C10 2.1213 10.4157 1.73328 10.9286 1.73328C11.4414 1.73328 11.8572 2.1213 11.8572 2.59994ZM1.64286 5.19995C2.15569 5.19995 2.57143 4.81193 2.57143 4.33328C2.57143 3.85463 2.15569 3.46661 1.64286 3.46661C1.13002 3.46661 0.714287 3.85463 0.714287 4.33328C0.714287 4.81193 1.13002 5.19995 1.64286 5.19995ZM6.28571 4.33328C6.28571 4.81193 5.86998 5.19995 5.35714 5.19995C4.84431 5.19995 4.42857 4.81193 4.42857 4.33328C4.42857 3.85463 4.84431 3.46661 5.35714 3.46661C5.86998 3.46661 6.28571 3.85463 6.28571 4.33328ZM9.07144 5.19995C9.58428 5.19995 10 4.81193 10 4.33328C10 3.85463 9.58428 3.46661 9.07144 3.46661C8.55861 3.46661 8.14287 3.85463 8.14287 4.33328C8.14287 4.81193 8.55861 5.19995 9.07144 5.19995ZM11.8572 6.06661C11.8572 6.54526 11.4414 6.93328 10.9286 6.93328C10.4157 6.93328 10 6.54526 10 6.06661C10 5.58797 10.4157 5.19995 10.9286 5.19995C11.4414 5.19995 11.8572 5.58797 11.8572 6.06661ZM7.21429 6.93328C7.72712 6.93328 8.14286 6.54526 8.14286 6.06661C8.14286 5.58797 7.72712 5.19995 7.21429 5.19995C6.70145 5.19995 6.28571 5.58797 6.28571 6.06661C6.28571 6.54526 6.70145 6.93328 7.21429 6.93328ZM4.42857 6.06661C4.42857 6.54526 4.01283 6.93328 3.5 6.93328C2.98716 6.93328 2.57143 6.54526 2.57143 6.06661C2.57143 5.58797 2.98716 5.19995 3.5 5.19995C4.01283 5.19995 4.42857 5.58797 4.42857 6.06661ZM-0.214285 6.93328C0.298551 6.93328 0.714287 6.54526 0.714287 6.06661C0.714287 5.58797 0.298551 5.19995 -0.214285 5.19995C-0.727121 5.19995 -1.14286 5.58797 -1.14286 6.06661C-1.14286 6.54526 -0.727121 6.93328 -0.214285 6.93328ZM2.57143 7.79995C2.57143 8.27859 2.15569 8.66661 1.64286 8.66661C1.13002 8.66661 0.714287 8.27859 0.714287 7.79995C0.714287 7.3213 1.13002 6.93328 1.64286 6.93328C2.15569 6.93328 2.57143 7.3213 2.57143 7.79995ZM5.35714 8.66661C5.86998 8.66661 6.28571 8.27859 6.28571 7.79995C6.28571 7.3213 5.86998 6.93328 5.35714 6.93328C4.84431 6.93328 4.42857 7.3213 4.42857 7.79995C4.42857 8.27859 4.84431 8.66661 5.35714 8.66661ZM10 7.79995C10 8.27859 9.58428 8.66661 9.07144 8.66661C8.55861 8.66661 8.14287 8.27859 8.14287 7.79995C8.14287 7.3213 8.55861 6.93328 9.07144 6.93328C9.58428 6.93328 10 7.3213 10 7.79995ZM10.9286 10.3999C11.4414 10.3999 11.8572 10.0119 11.8572 9.53326C11.8572 9.05461 11.4414 8.66659 10.9286 8.66659C10.4157 8.66659 10 9.05461 10 9.53326C10 10.0119 10.4157 10.3999 10.9286 10.3999ZM8.14286 9.53326C8.14286 10.0119 7.72712 10.3999 7.21429 10.3999C6.70145 10.3999 6.28571 10.0119 6.28571 9.53326C6.28571 9.05461 6.70145 8.66659 7.21429 8.66659C7.72712 8.66659 8.14286 9.05461 8.14286 9.53326ZM3.5 10.3999C4.01283 10.3999 4.42857 10.0119 4.42857 9.53326C4.42857 9.05461 4.01283 8.66659 3.5 8.66659C2.98716 8.66659 2.57143 9.05461 2.57143 9.53326C2.57143 10.0119 2.98716 10.3999 3.5 10.3999ZM0.714287 9.53326C0.714287 10.0119 0.298551 10.3999 -0.214285 10.3999C-0.727121 10.3999 -1.14286 10.0119 -1.14286 9.53326C-1.14286 9.05461 -0.727121 8.66659 -0.214285 8.66659C0.298551 8.66659 0.714287 9.05461 0.714287 9.53326Z" fill="url(#paint0_linear_1_9396)"/>
</g>
</g>
</g>
<defs>
<filter id="filter0_d_1_9396" x="-1.14286" y="1.73328" width="13" height="9.66663" filterUnits="userSpaceOnUse" color-interpolation-filters="sRGB">
<feFlood flood-opacity="0" result="BackgroundImageFix"/>
<feColorMatrix in="SourceAlpha" type="matrix" values="0 0 0 0 0 0 0 0 0 0 0 0 0 0 0 0 0 0 127 0" result="hardAlpha"/>
<feOffset dy="1"/>
<feColorMatrix type="matrix" values="0 0 0 0 0 0 0 0 0 0 0 0 0 0 0 0 0 0 0.06 0"/>
<feBlend mode="normal" in2="BackgroundImageFix" result="effect1_dropShadow_1_9396"/>
<feBlend mode="normal" in="SourceGraphic" in2="effect1_dropShadow_1_9396" result="shape"/>
</filter>
<linearGradient id="paint0_linear_1_9396" x1="-1.14286" y1="1.73328" x2="-1.14286" y2="10.3999" gradientUnits="userSpaceOnUse">
<stop stop-color="white"/>
<stop offset="1" stop-color="#F0F0F0"/>
</linearGradient>
</defs>
</svg>
