<svg width="26" height="26" viewBox="0 0 26 26" fill="none" xmlns="http://www.w3.org/2000/svg">
<mask id="mask0_1_14840" style="mask-type:alpha" maskUnits="userSpaceOnUse" x="0" y="0" width="26" height="26">
<circle cx="13" cy="13" r="13" fill="#634848"/>
</mask>
<g mask="url(#mask0_1_14840)">
<g clip-path="url(#clip0_1_14840)">
<path d="M0 0H26V26H0V0Z" fill="white"/>
<path d="M14.4219 2.8894H26V5.77886H14.4219V2.8894ZM14.4219 8.66831H26V11.5578H14.4219V8.66831ZM0 14.4421H26V17.3367H0V14.4421ZM0 20.221H26V23.1156H0V20.221Z" fill="#0038A8"/>
<path d="M6.89404 8.63348L7.37221 9.34748C5.4074 10.7694 6.60694 11.6102 5.21455 12.0653C6.08057 11.2202 5.07819 11.149 5.80784 9.38742" fill="#FCD116"/>
<path d="M6.89404 8.63348L7.37221 9.34748C5.4074 10.7694 6.60694 11.6102 5.21455 12.0653C6.08057 11.2202 5.07819 11.149 5.80784 9.38742" stroke="black" stroke-width="0.234667" stroke-miterlimit="20" stroke-linecap="square"/>
<path d="M6.55224 8.83583C5.4682 10.6225 6.17915 11.6049 5.21455 12.0653" stroke="black" stroke-width="0.234667" stroke-miterlimit="20"/>
<path d="M7.22109 7.22107H8.17442L7.22109 12.4644L6.26776 7.22107H7.22109V12.4644Z" fill="#FCD116"/>
<path d="M7.22109 7.22107H8.17442L7.22109 12.4644L6.26776 7.22107H7.22109ZM7.22109 7.22107V12.4644" stroke="black" stroke-width="0.234667" stroke-miterlimit="20"/>
<path d="M5.99115 7.98845L5.82439 8.83144C3.42963 8.44754 3.68328 9.8903 2.37688 9.22756C3.58686 9.24232 2.92844 8.48316 4.68997 7.75351" fill="#FCD116"/>
<path d="M5.99115 7.98845L5.82439 8.83144C3.42963 8.44754 3.68328 9.8903 2.37688 9.22756C3.58686 9.24232 2.92844 8.48316 4.68997 7.75351" stroke="black" stroke-width="0.234667" stroke-miterlimit="20" stroke-linecap="square"/>
<path d="M5.60636 7.88995C3.57642 8.38681 3.38447 9.58419 2.37688 9.22764" stroke="black" stroke-width="0.234667" stroke-miterlimit="20"/>
<path d="M7.22109 7.22111L7.8952 7.89521L3.5135 10.9287L6.54699 6.547L7.22109 7.22111L3.5135 10.9287Z" fill="#FCD116"/>
<path d="M7.22109 7.22111L7.8952 7.89521L3.5135 10.9287L6.54699 6.547L7.22109 7.22111ZM7.22109 7.22111L3.5135 10.9287" stroke="black" stroke-width="0.234667" stroke-miterlimit="20"/>
<path d="M5.80874 6.89409L5.09474 7.37226C3.67284 5.40745 2.83202 6.60699 2.37688 5.2146C3.22203 6.08062 3.29326 5.07824 5.0548 5.80789" fill="#FCD116"/>
<path d="M5.80874 6.89409L5.09474 7.37226C3.67284 5.40745 2.83202 6.60699 2.37688 5.2146C3.22203 6.08062 3.29326 5.07824 5.0548 5.80789" stroke="black" stroke-width="0.234667" stroke-miterlimit="20" stroke-linecap="square"/>
<path d="M5.60636 6.5523C3.81964 5.46826 2.83723 6.1792 2.37688 5.21461" stroke="black" stroke-width="0.234667" stroke-miterlimit="20"/>
<path d="M7.22109 7.22103V8.17437L1.97776 7.22103L7.22109 6.2677V7.22103H1.97776Z" fill="#FCD116"/>
<path d="M7.22109 7.22103V8.17437L1.97776 7.22103L7.22109 6.2677V7.22103ZM7.22109 7.22103H1.97776" stroke="black" stroke-width="0.234667" stroke-miterlimit="20"/>
<path d="M6.45366 5.99115L5.61067 5.82438C5.99457 3.42963 4.55182 3.68327 5.21455 2.37688C5.1998 3.58685 5.95896 2.92844 6.68861 4.68997" fill="#FCD116"/>
<path d="M6.45366 5.99115L5.61067 5.82438C5.99457 3.42963 4.55182 3.68327 5.21455 2.37688C5.1998 3.58685 5.95896 2.92844 6.68861 4.68997" stroke="black" stroke-width="0.234667" stroke-miterlimit="20" stroke-linecap="square"/>
<path d="M6.55224 5.60634C6.05538 3.5764 4.858 3.38445 5.21455 2.37686" stroke="black" stroke-width="0.234667" stroke-miterlimit="20"/>
<path d="M7.22109 7.22111L6.54698 7.89521L3.51349 3.51351L7.8952 6.547L7.22109 7.22111L3.51349 3.51351Z" fill="#FCD116"/>
<path d="M7.22109 7.22111L6.54698 7.89521L3.51349 3.51351L7.8952 6.547L7.22109 7.22111ZM7.22109 7.22111L3.51349 3.51351" stroke="black" stroke-width="0.234667" stroke-miterlimit="20"/>
<path d="M7.54814 5.80853L7.06998 5.09453C9.03479 3.67264 7.83525 2.83182 9.22763 2.37668C8.36162 3.22183 9.36399 3.29306 8.63434 5.05459" fill="#FCD116"/>
<path d="M7.54814 5.80853L7.06998 5.09453C9.03479 3.67264 7.83525 2.83182 9.22763 2.37668C8.36162 3.22183 9.36399 3.29306 8.63434 5.05459" stroke="black" stroke-width="0.234667" stroke-miterlimit="20" stroke-linecap="square"/>
<path d="M7.88994 5.60619C8.97398 3.81947 8.26304 2.83707 9.22763 2.37671" stroke="black" stroke-width="0.234667" stroke-miterlimit="20"/>
<path d="M7.22109 7.22095H6.26776L7.22109 1.97761L8.17443 7.22095H7.22109V1.97761Z" fill="#FCD116"/>
<path d="M7.22109 7.22095H6.26776L7.22109 1.97761L8.17443 7.22095H7.22109ZM7.22109 7.22095V1.97761" stroke="black" stroke-width="0.234667" stroke-miterlimit="20"/>
<path d="M8.45103 6.45356L8.6178 5.61058C11.0126 5.99447 10.7589 4.55172 12.0653 5.21445C10.8553 5.1997 11.5137 5.95886 9.75221 6.68851" fill="#FCD116"/>
<path d="M8.45103 6.45356L8.6178 5.61058C11.0126 5.99447 10.7589 4.55172 12.0653 5.21445C10.8553 5.1997 11.5137 5.95886 9.75221 6.68851" stroke="black" stroke-width="0.234667" stroke-miterlimit="20" stroke-linecap="square"/>
<path d="M8.83583 6.55207C10.8658 6.0552 11.0577 4.85782 12.0653 5.21438" stroke="black" stroke-width="0.234667" stroke-miterlimit="20"/>
<path d="M7.22109 7.22091L6.54698 6.5468L10.9287 3.51331L7.8952 7.89502L7.22109 7.22091L10.9287 3.51331Z" fill="#FCD116"/>
<path d="M7.22109 7.22091L6.54698 6.5468L10.9287 3.51331L7.8952 7.89502L7.22109 7.22091ZM7.22109 7.22091L10.9287 3.51331" stroke="black" stroke-width="0.234667" stroke-miterlimit="20"/>
<path d="M8.63344 7.54792L9.34745 7.06976C10.7693 9.03457 11.6102 7.83503 12.0653 9.22741C11.2202 8.3614 11.1489 9.36378 9.38738 8.63413" fill="#FCD116"/>
<path d="M8.63344 7.54792L9.34745 7.06976C10.7693 9.03457 11.6102 7.83503 12.0653 9.22741C11.2202 8.3614 11.1489 9.36378 9.38738 8.63413" stroke="black" stroke-width="0.234667" stroke-miterlimit="20" stroke-linecap="square"/>
<path d="M8.83582 7.88972C10.6225 8.97376 11.6049 8.26281 12.0653 9.22741" stroke="black" stroke-width="0.234667" stroke-miterlimit="20"/>
<path d="M7.22109 7.22098V6.26765L12.4644 7.22098L7.22109 8.17432V7.22098H12.4644Z" fill="#FCD116"/>
<path d="M7.22109 7.22098V6.26765L12.4644 7.22098L7.22109 8.17432V7.22098ZM7.22109 7.22098H12.4644" stroke="black" stroke-width="0.234667" stroke-miterlimit="20"/>
<path d="M7.98852 8.45087L8.83151 8.61763C8.44761 11.0124 9.89036 10.7587 9.22763 12.0651C9.24238 10.8552 8.48322 11.5136 7.75357 9.75205" fill="#FCD116"/>
<path d="M7.98852 8.45087L8.83151 8.61763C8.44761 11.0124 9.89036 10.7587 9.22763 12.0651C9.24238 10.8552 8.48322 11.5136 7.75357 9.75205" stroke="black" stroke-width="0.234667" stroke-miterlimit="20" stroke-linecap="square"/>
<path d="M7.88994 8.83568C8.3868 10.8656 9.58418 11.0576 9.22763 12.0652" stroke="black" stroke-width="0.234667" stroke-miterlimit="20"/>
<path d="M7.22109 7.22091L7.8952 6.5468L10.9287 10.9285L6.54698 7.89502L7.22109 7.22091L10.9287 10.9285Z" fill="#FCD116"/>
<path d="M7.22109 7.22091L7.8952 6.5468L10.9287 10.9285L6.54698 7.89502L7.22109 7.22091ZM7.22109 7.22091L10.9287 10.9285" stroke="black" stroke-width="0.234667" stroke-miterlimit="20"/>
<path d="M7.22109 8.96882C8.18636 8.96882 8.96887 8.18632 8.96887 7.22105C8.96887 6.25577 8.18636 5.47327 7.22109 5.47327C6.25582 5.47327 5.47331 6.25577 5.47331 7.22105C5.47331 8.18632 6.25582 8.96882 7.22109 8.96882Z" fill="#FCD116" stroke="black" stroke-width="0.234667" stroke-miterlimit="20"/>
<path d="M8.5081 6.52193C8.39688 6.64904 8.33332 6.42659 7.9361 6.42659C7.53887 6.42659 7.47532 6.66493 7.41176 6.61726C7.34821 6.56959 7.74543 6.28359 7.87254 6.2677C7.99965 6.25182 8.3651 6.37893 8.5081 6.52193ZM8.04732 6.66493C8.15854 6.76026 8.06321 6.96682 7.95199 6.96682C7.84076 6.96682 7.63421 6.77615 7.72954 6.64904" fill="black"/>
<path d="M7.52299 6.80789C7.53888 6.61723 7.69777 6.58545 7.95199 6.58545C8.20621 6.58545 8.31743 6.77612 8.41277 6.82378C8.30155 6.82378 8.20621 6.66489 7.95199 6.66489C7.69777 6.66489 7.69777 6.66489 7.52299 6.82378M7.57065 6.85556C7.63421 6.76023 7.71365 6.95089 7.88843 6.95089C8.06321 6.95089 8.15855 6.90323 8.26977 6.82378C8.38099 6.74434 8.11088 7.01445 7.9361 7.01445C7.76132 7.01445 7.52299 6.91912 7.57065 6.85556Z" fill="black"/>
<path d="M8.11088 6.95094C8.31743 6.83972 8.19032 6.68083 8.11088 6.64905C8.14265 6.68083 8.26977 6.83972 8.11088 6.95094ZM7.2211 7.90427C7.31643 7.90427 7.34821 7.8725 7.47532 7.8725C7.60243 7.8725 7.90432 8.04727 8.0791 7.98372C7.71365 8.12672 7.85665 8.03139 7.2211 8.03139H7.14165M8.14265 8.12672C8.0791 8.0155 8.09499 8.04727 7.96788 7.8725C8.09499 7.96783 8.12677 8.0155 8.14265 8.12672ZM7.2211 8.28561C7.61832 8.28561 7.55476 8.20616 8.0791 7.98372C7.69776 8.03139 7.61832 8.1585 7.2211 8.1585H7.14165M7.2211 7.69772C7.33232 7.69772 7.3641 7.61827 7.49121 7.61827C7.61832 7.61827 7.7931 7.66594 7.87254 7.7295C7.88843 7.74539 7.82488 7.60238 7.69776 7.5865C7.57065 7.57061 7.61832 7.36405 7.47532 7.33227C7.47532 7.39583 7.52299 7.37994 7.53887 7.47527C7.53887 7.55472 7.39587 7.55472 7.3641 7.47527C7.39587 7.60238 7.30054 7.60238 7.2211 7.60238" fill="black"/>
<path d="M5.93409 6.52193C6.04531 6.64904 6.10887 6.42659 6.50609 6.42659C6.90331 6.42659 6.96687 6.66493 7.03043 6.61726C7.09398 6.56959 6.69676 6.28359 6.56965 6.2677C6.44253 6.25182 6.07709 6.37893 5.93409 6.52193ZM6.39487 6.66493C6.28364 6.76026 6.37898 6.96682 6.4902 6.96682C6.60142 6.96682 6.80798 6.77615 6.71265 6.64904" fill="black"/>
<path d="M6.9192 6.80789C6.90331 6.61723 6.74442 6.58545 6.4902 6.58545C6.23598 6.58545 6.12475 6.77612 6.02942 6.82378C6.14064 6.82378 6.23598 6.66489 6.4902 6.66489C6.74442 6.66489 6.74442 6.66489 6.9192 6.82378M6.87153 6.85556C6.80798 6.76023 6.72853 6.95089 6.55376 6.95089C6.37898 6.95089 6.28364 6.90323 6.17242 6.82378C6.0612 6.74434 6.33131 7.01445 6.50609 7.01445C6.68087 7.01445 6.9192 6.91912 6.87153 6.85556Z" fill="black"/>
<path d="M6.33131 6.95094C6.12476 6.83972 6.25187 6.68083 6.33131 6.64905C6.29953 6.68083 6.17242 6.83972 6.33131 6.95094ZM7.22109 7.90427C7.12576 7.90427 7.09398 7.8725 6.96687 7.8725C6.83976 7.8725 6.53787 8.04727 6.36309 7.98372C6.72854 8.12672 6.58553 8.03139 7.22109 8.03139H7.30054M6.29953 8.12672C6.36309 8.0155 6.3472 8.04727 6.47431 7.8725C6.3472 7.96783 6.31542 8.0155 6.29953 8.12672ZM7.22109 8.28561C6.82387 8.28561 6.88742 8.20616 6.36309 7.98372C6.74442 8.03139 6.82387 8.1585 7.22109 8.1585H7.30054M7.22109 7.69772C7.10987 7.69772 7.07809 7.61827 6.95098 7.61827C6.82387 7.61827 6.64909 7.66594 6.56965 7.7295C6.55376 7.74539 6.61731 7.60238 6.74442 7.5865C6.87154 7.57061 6.82387 7.36405 6.96687 7.33227C6.96687 7.39583 6.9192 7.37994 6.90331 7.47527C6.90331 7.55472 7.04631 7.55472 7.07809 7.47527C7.04631 7.60238 7.14165 7.60238 7.22109 7.60238" fill="black"/>
<path d="M7.2211 8.42859C7.14165 8.42859 6.9351 8.47626 7.2211 8.47626C7.5071 8.47626 7.30054 8.42859 7.2211 8.42859Z" fill="black"/>
</g>
</g>
<defs>
<clipPath id="clip0_1_14840">
<rect width="26" height="26" fill="white"/>
</clipPath>
</defs>
</svg>
