<svg width="26" height="26" viewBox="0 0 26 26" fill="none" xmlns="http://www.w3.org/2000/svg">
<mask id="mask0_1_9500" style="mask-type:alpha" maskUnits="userSpaceOnUse" x="0" y="0" width="26" height="26">
<circle cx="13" cy="13" r="13" fill="#634848"/>
</mask>
<g mask="url(#mask0_1_9500)">
<rect width="41" height="26" fill="white"/>
<path fill-rule="evenodd" clip-rule="evenodd" d="M0 8H41V0H0V8Z" fill="#04AAC8"/>
<path fill-rule="evenodd" clip-rule="evenodd" d="M0 26H41V18H0V26Z" fill="#23C840"/>
<path fill-rule="evenodd" clip-rule="evenodd" d="M13.6009 3.46576C14.0853 3.46576 14.4779 3.07774 14.4779 2.59909C14.4779 2.12044 14.0853 1.73242 13.6009 1.73242C13.1166 1.73242 12.724 2.12044 12.724 2.59909C12.724 3.07774 13.1166 3.46576 13.6009 3.46576ZM6.58408 6.93291C7.1249 6.93291 7.6276 6.77165 8.04564 6.49513C7.9967 6.49836 7.94731 6.5 7.89754 6.5C6.68668 6.5 5.70508 5.52995 5.70508 4.33333C5.70508 3.13672 6.68668 2.16667 7.89754 2.16667C7.94779 2.16667 7.99765 2.16834 8.04706 2.17163C7.62874 1.89453 7.12551 1.73291 6.58408 1.73291C5.13104 1.73291 3.95312 2.89697 3.95312 4.33291C3.95312 5.76885 5.13104 6.93291 6.58408 6.93291ZM10.974 6.06491C10.974 6.54356 10.5814 6.93158 10.097 6.93158C9.61269 6.93158 9.22005 6.54356 9.22005 6.06491C9.22005 5.58626 9.61269 5.19824 10.097 5.19824C10.5814 5.19824 10.974 5.58626 10.974 6.06491ZM17.9903 2.59909C17.9903 3.07774 17.5977 3.46576 17.1133 3.46576C16.629 3.46576 16.2363 3.07774 16.2363 2.59909C16.2363 2.12044 16.629 1.73242 17.1133 1.73242C17.5977 1.73242 17.9903 2.12044 17.9903 2.59909ZM17.1133 6.93158C17.5977 6.93158 17.9903 6.54356 17.9903 6.06491C17.9903 5.58626 17.5977 5.19824 17.1133 5.19824C16.629 5.19824 16.2363 5.58626 16.2363 6.06491C16.2363 6.54356 16.629 6.93158 17.1133 6.93158ZM14.4779 6.06491C14.4779 6.54356 14.0853 6.93158 13.6009 6.93158C13.1166 6.93158 12.724 6.54356 12.724 6.06491C12.724 5.58626 13.1166 5.19824 13.6009 5.19824C14.0853 5.19824 14.4779 5.58626 14.4779 6.06491Z" fill="white"/>
</g>
</svg>
