<svg width="26" height="26" viewBox="0 0 26 26" fill="none" xmlns="http://www.w3.org/2000/svg">
<mask id="mask0_1_9474" style="mask-type:alpha" maskUnits="userSpaceOnUse" x="0" y="0" width="26" height="26">
<circle cx="13" cy="13" r="13" fill="#634848"/>
</mask>
<g mask="url(#mask0_1_9474)">
<mask id="mask1_1_9474" style="mask-type:alpha" maskUnits="userSpaceOnUse" x="-5" y="0" width="36" height="26">
<rect x="-4.33333" width="34.6667" height="26" fill="white"/>
</mask>
<g mask="url(#mask1_1_9474)">
<path fill-rule="evenodd" clip-rule="evenodd" d="M-4.33073 0V26H30.3359V0H-4.33073Z" fill="#2E42A5"/>
<mask id="mask2_1_9474" style="mask-type:alpha" maskUnits="userSpaceOnUse" x="-5" y="0" width="36" height="26">
<path fill-rule="evenodd" clip-rule="evenodd" d="M-4.33073 0V26H30.3359V0H-4.33073Z" fill="white"/>
</mask>
<g mask="url(#mask2_1_9474)">
<path fill-rule="evenodd" clip-rule="evenodd" d="M-4.33073 0V8.66667H30.3359V0H-4.33073Z" fill="#FECA00"/>
<path fill-rule="evenodd" clip-rule="evenodd" d="M-4.33073 17.3334V26H30.3359V17.3334H-4.33073Z" fill="#E31D1C"/>
<path fill-rule="evenodd" clip-rule="evenodd" d="M9.46378 12.8486L10.5284 12.2446L11.7229 12.8486L11.2939 11.6211L12.1861 10.7192H11.0506L10.5268 9.55762L10.08 10.7192H8.74805L9.75039 11.6057H8.63001L8.10618 10.4442L7.65945 11.6057H6.32748L7.34726 12.5077L7.15243 13.2942H6.30254L5.77871 12.1326L5.33197 13.2942H4L5.01978 14.1962L4.83125 14.9573H4.45749L3.93365 13.7957L3.48692 14.9573H2.15495L3.17473 15.8593L2.87068 17.0867L3.93526 16.4828L5.12977 17.0867L4.70079 15.8593L5.59296 14.9573H5.53775L5.78031 14.8197L6.97482 15.4236L6.54584 14.1962L7.05702 13.6794L7.04321 13.7351L8.10779 13.1312L9.30229 13.7351L8.87332 12.5077L9.75844 11.6128L9.76783 11.6211L9.46378 12.8486Z" fill="#F7FCFF"/>
<path fill-rule="evenodd" clip-rule="evenodd" d="M16.4978 12.8L15.4332 12.1961L14.2387 12.8L14.6677 11.5726L13.7755 10.6706H14.911L15.4348 9.50903L15.8816 10.6706H17.2135L16.2112 11.5571H17.34L17.8639 10.3956L18.3106 11.5571H19.6426L18.6228 12.4591L18.8176 13.2456H19.6675L20.1914 12.0841L20.6381 13.2456H21.9701L20.9503 14.1476L21.1388 14.9087H21.5126L22.0364 13.7472L22.4831 14.9087H23.8151L22.7953 15.8107L23.0994 17.0381L22.0348 16.4342L20.8403 17.0381L21.2693 15.8107L20.3771 14.9087H20.4323L20.1897 14.7711L18.9952 15.375L19.4242 14.1476L18.913 13.6308L18.9269 13.6866L17.8623 13.0826L16.6678 13.6866L17.0967 12.4591L16.2077 11.5603L16.1938 11.5726L16.4978 12.8Z" fill="#F7FCFF"/>
<path fill-rule="evenodd" clip-rule="evenodd" d="M12.8207 11.4122L11.7561 12.0162L12.0601 10.7887L11.0404 9.88676H12.3723L12.8191 8.72522L13.3429 9.88676H14.4784L13.5862 10.7887L14.0152 12.0162L12.8207 11.4122Z" fill="#F7FCFF"/>
</g>
</g>
</g>
</svg>
