<svg width="26" height="26" viewBox="0 0 26 26" fill="none" xmlns="http://www.w3.org/2000/svg">
<mask id="mask0_1_17459" style="mask-type:alpha" maskUnits="userSpaceOnUse" x="0" y="0" width="26" height="26">
<circle cx="13" cy="13" r="13" fill="#634848"/>
</mask>
<g mask="url(#mask0_1_17459)">
<g clip-path="url(#clip0_1_17459)">
<path d="M-4 0H30V26H-4V0Z" fill="#000066"/>
<path d="M-4 0H13V13H-4V0Z" fill="#012169"/>
<path d="M-2.00781 0L4.47344 4.90208L10.9281 0H13V1.67917L6.625 6.52708L13 11.3479V13H10.875L4.5 8.15208L-1.84844 13H-4V11.375L2.34844 6.55417L-4 1.73333V0H-2.00781Z" fill="white"/>
<path d="M7.2625 7.61042L13 11.9167V13L5.80156 7.61042H7.2625ZM2.375 8.15208L2.53438 9.1L-2.56562 13H-4L2.375 8.15208ZM13 0V0.08125L6.38594 5.17292L6.43906 3.98125L11.6719 0H13ZM-4 0L2.34844 4.76667H0.754688L-4 1.1375V0Z" fill="#C8102E"/>
<path d="M2.40156 0V13H6.65156V0H2.40156ZM-4 4.33333V8.66667H13V4.33333H-4Z" fill="white"/>
<path d="M-4 5.22708V7.82708H13V5.22708H-4ZM3.25156 0V13H5.80156V0H3.25156Z" fill="#C8102E"/>
<path d="M16.4058 5.53583L26.7148 5.49805L26.6943 14.859C26.6943 14.859 27.0566 16.2863 22.3714 18.4481C24.0552 18.2718 25.8914 16.4416 25.8914 16.4416C25.8914 16.4416 26.6366 15.4635 27.003 16.0092C27.3653 16.5549 27.707 16.832 27.9747 17.0461C28.2423 17.256 28.4522 17.8436 28.0529 18.2718C27.6494 18.7042 27.0195 18.7588 26.8466 18.234C26.579 18.3726 24.9363 20.4001 21.5686 20.4966C18.1432 20.4379 16.2699 18.213 16.2699 18.213C16.2699 18.213 15.813 18.956 15.1583 18.3726C14.5284 17.6086 15.006 17.1216 15.006 17.1216C15.006 17.1216 15.5412 16.811 15.6977 16.5969C15.9447 16.3031 16.0229 15.9127 16.4387 15.9127C16.941 15.9547 17.1304 16.3618 17.1304 16.3618C17.1304 16.3618 18.8513 18.213 20.7081 18.4481C16.5211 16.3996 16.3646 15.1319 16.3852 14.8213L16.4058 5.54002V5.53583Z" fill="white"/>
<path d="M16.6528 5.79217L26.4843 5.7334V14.7418C26.5049 15.9172 24.5699 17.1051 21.548 18.6247C18.4314 16.9876 16.6322 15.9927 16.6158 14.7208L16.6528 5.79217V5.79217Z" fill="#006129" stroke="black" stroke-width="0.184055"/>
<path d="M17.9909 7.12284L18.5672 6.25391L19.156 7.12704" stroke="#FFC72C" stroke-width="0.184055"/>
<path d="M18.6866 6.79527C18.6866 6.82644 18.6745 6.85634 18.6529 6.87838C18.6313 6.90043 18.6019 6.91281 18.5714 6.91281C18.5408 6.91281 18.5115 6.90043 18.4899 6.87838C18.4682 6.85634 18.4561 6.82644 18.4561 6.79527C18.4561 6.7641 18.4682 6.7342 18.4899 6.71216C18.5115 6.69012 18.5408 6.67773 18.5714 6.67773C18.6019 6.67773 18.6313 6.69012 18.6529 6.71216C18.6745 6.7342 18.6866 6.7641 18.6866 6.79527V6.79527Z" fill="#FFC72C" stroke="black" stroke-width="0.0871841"/>
<path d="M18.0979 7.76494H18.9995C18.9995 7.76494 19.0119 7.6474 18.9048 7.57604C19.3783 7.50888 19.2548 7.0891 19.6459 7.06391C19.7282 7.07651 19.4401 7.24442 19.4401 7.24442C19.4401 7.24442 19.2054 7.41233 19.3165 7.50048C19.3989 7.57184 19.4401 7.4585 19.4483 7.37455C19.4606 7.29059 19.8312 7.23602 19.7777 6.99675C19.6912 6.79946 19.1725 7.13108 19.1725 7.13108L18.8019 7.12688C18.7772 7.0849 18.6784 6.91699 18.5714 6.91699C18.4479 6.91699 18.3573 7.12688 18.3573 7.12688H17.5215C17.5215 7.12688 17.4927 7.34936 17.9168 7.39134C18.0114 7.51727 18.0856 7.55085 18.172 7.58444C18.1144 7.63061 18.0979 7.68938 18.0979 7.76494V7.76494ZM18.1638 7.58024H18.9131Z" fill="#FFC72C"/>
<path d="M18.1638 7.58024H18.9131M18.0979 7.76494H18.9995C18.9995 7.76494 19.0119 7.6474 18.9048 7.57604C19.3783 7.50888 19.2548 7.0891 19.6459 7.06391C19.7282 7.07651 19.4401 7.24442 19.4401 7.24442C19.4401 7.24442 19.2054 7.41233 19.3165 7.50048C19.3989 7.57184 19.4401 7.4585 19.4483 7.37455C19.4606 7.29059 19.8312 7.23602 19.7777 6.99675C19.6912 6.79946 19.1725 7.13108 19.1725 7.13108L18.8019 7.12688C18.7772 7.0849 18.6784 6.91699 18.5714 6.91699C18.4479 6.91699 18.3573 7.12688 18.3573 7.12688H17.5215C17.5215 7.12688 17.4927 7.34936 17.9168 7.39134C18.0114 7.51727 18.0856 7.55085 18.172 7.58444C18.1144 7.63061 18.0979 7.68938 18.0979 7.76494V7.76494Z" stroke="black" stroke-width="0.0871841"/>
<path d="M17.8221 7.13086C17.8221 7.13086 17.8797 7.48767 18.1597 7.57162Z" fill="#FFC72C"/>
<path d="M17.8221 7.13086C17.8221 7.13086 17.8797 7.48767 18.1597 7.57162" stroke="black" stroke-width="0.0871841"/>
<path d="M17.7768 7.12283C17.8015 6.9885 17.855 6.96331 17.9085 6.78701C17.9168 6.6191 17.7768 6.64008 17.8179 6.53514C17.8921 6.41341 17.855 6.30007 17.715 6.21191C17.7438 6.36723 17.5339 6.51415 17.5339 6.64008C17.5339 6.76602 17.6409 6.74083 17.6286 6.93393C17.6368 7.04307 17.5997 7.01788 17.5874 7.12283H17.7768Z" fill="url(#paint0_linear_1_17459)" stroke="black" stroke-width="0.0871841"/>
<path d="M18.6784 6.27906C18.6784 6.30801 18.6671 6.33577 18.6471 6.35624C18.627 6.37671 18.5998 6.3882 18.5714 6.3882C18.543 6.3882 18.5158 6.37671 18.4957 6.35624C18.4756 6.33577 18.4643 6.30801 18.4643 6.27906C18.4643 6.25012 18.4756 6.22236 18.4957 6.20189C18.5158 6.18142 18.543 6.16992 18.5714 6.16992C18.5998 6.16992 18.627 6.18142 18.6471 6.20189C18.6671 6.22236 18.6784 6.25012 18.6784 6.27906V6.27906Z" fill="#FFC72C" stroke="black" stroke-width="0.0871841"/>
<path d="M17.9909 7.12284L18.5672 6.25391L19.156 7.12704" stroke="#FFC72C" stroke-width="0.184055"/>
<path d="M18.6866 6.79527C18.6866 6.82644 18.6745 6.85634 18.6529 6.87838C18.6313 6.90043 18.6019 6.91281 18.5714 6.91281C18.5408 6.91281 18.5115 6.90043 18.4899 6.87838C18.4682 6.85634 18.4561 6.82644 18.4561 6.79527C18.4561 6.7641 18.4682 6.7342 18.4899 6.71216C18.5115 6.69012 18.5408 6.67773 18.5714 6.67773C18.6019 6.67773 18.6313 6.69012 18.6529 6.71216C18.6745 6.7342 18.6866 6.7641 18.6866 6.79527V6.79527Z" fill="#FFC72C" stroke="black" stroke-width="0.0871841"/>
<path d="M18.0979 7.76494H18.9995C18.9995 7.76494 19.0119 7.6474 18.9048 7.57604C19.3783 7.50888 19.2548 7.0891 19.6459 7.06391C19.7282 7.07651 19.4401 7.24442 19.4401 7.24442C19.4401 7.24442 19.2054 7.41233 19.3165 7.50048C19.3989 7.57184 19.4401 7.4585 19.4483 7.37455C19.4606 7.29059 19.8312 7.23602 19.7777 6.99675C19.6912 6.79946 19.1725 7.13108 19.1725 7.13108L18.8019 7.12688C18.7772 7.0849 18.6784 6.91699 18.5714 6.91699C18.4479 6.91699 18.3573 7.12688 18.3573 7.12688H17.5215C17.5215 7.12688 17.4927 7.34936 17.9168 7.39134C18.0114 7.51727 18.0856 7.55085 18.172 7.58444C18.1144 7.63061 18.0979 7.68938 18.0979 7.76494V7.76494ZM18.1638 7.58024H18.9131Z" fill="#FFC72C"/>
<path d="M18.1638 7.58024H18.9131M18.0979 7.76494H18.9995C18.9995 7.76494 19.0119 7.6474 18.9048 7.57604C19.3783 7.50888 19.2548 7.0891 19.6459 7.06391C19.7282 7.07651 19.4401 7.24442 19.4401 7.24442C19.4401 7.24442 19.2054 7.41233 19.3165 7.50048C19.3989 7.57184 19.4401 7.4585 19.4483 7.37455C19.4606 7.29059 19.8312 7.23602 19.7777 6.99675C19.6912 6.79946 19.1725 7.13108 19.1725 7.13108L18.8019 7.12688C18.7772 7.0849 18.6784 6.91699 18.5714 6.91699C18.4479 6.91699 18.3573 7.12688 18.3573 7.12688H17.5215C17.5215 7.12688 17.4927 7.34936 17.9168 7.39134C18.0114 7.51727 18.0856 7.55085 18.172 7.58444C18.1144 7.63061 18.0979 7.68938 18.0979 7.76494V7.76494Z" stroke="black" stroke-width="0.0871841"/>
<path d="M17.8221 7.13086C17.8221 7.13086 17.8797 7.48767 18.1597 7.57162Z" fill="#FFC72C"/>
<path d="M17.8221 7.13086C17.8221 7.13086 17.8797 7.48767 18.1597 7.57162" stroke="black" stroke-width="0.0871841"/>
<path d="M17.7768 7.12283C17.8015 6.9885 17.855 6.96331 17.9085 6.78701C17.9168 6.6191 17.7768 6.64008 17.8179 6.53514C17.8921 6.41341 17.855 6.30007 17.715 6.21191C17.7438 6.36723 17.5339 6.51415 17.5339 6.64008C17.5339 6.76602 17.6409 6.74083 17.6286 6.93393C17.6368 7.04307 17.5997 7.01788 17.5874 7.12283H17.7768Z" fill="url(#paint1_linear_1_17459)" stroke="black" stroke-width="0.0871841"/>
<path d="M18.6784 6.27906C18.6784 6.30801 18.6671 6.33577 18.6471 6.35624C18.627 6.37671 18.5998 6.3882 18.5714 6.3882C18.543 6.3882 18.5158 6.37671 18.4957 6.35624C18.4756 6.33577 18.4643 6.30801 18.4643 6.27906C18.4643 6.25012 18.4756 6.22236 18.4957 6.20189C18.5158 6.18142 18.543 6.16992 18.5714 6.16992C18.5998 6.16992 18.627 6.18142 18.6471 6.20189C18.6671 6.22236 18.6784 6.25012 18.6784 6.27906V6.27906Z" fill="#FFC72C" stroke="black" stroke-width="0.0871841"/>
<path d="M17.9909 7.12284L18.5672 6.25391L19.156 7.12704" stroke="#FFC72C" stroke-width="0.184055"/>
<path d="M18.6866 6.79527C18.6866 6.82644 18.6745 6.85634 18.6529 6.87838C18.6313 6.90043 18.6019 6.91281 18.5714 6.91281C18.5408 6.91281 18.5115 6.90043 18.4899 6.87838C18.4682 6.85634 18.4561 6.82644 18.4561 6.79527C18.4561 6.7641 18.4682 6.7342 18.4899 6.71216C18.5115 6.69012 18.5408 6.67773 18.5714 6.67773C18.6019 6.67773 18.6313 6.69012 18.6529 6.71216C18.6745 6.7342 18.6866 6.7641 18.6866 6.79527V6.79527Z" fill="#FFC72C" stroke="black" stroke-width="0.0871841"/>
<path d="M18.0979 7.76494H18.9995C18.9995 7.76494 19.0119 7.6474 18.9048 7.57604C19.3783 7.50888 19.2548 7.0891 19.6459 7.06391C19.7282 7.07651 19.4401 7.24442 19.4401 7.24442C19.4401 7.24442 19.2054 7.41233 19.3165 7.50048C19.3989 7.57184 19.4401 7.4585 19.4483 7.37455C19.4606 7.29059 19.8312 7.23602 19.7777 6.99675C19.6912 6.79946 19.1725 7.13108 19.1725 7.13108L18.8019 7.12688C18.7772 7.0849 18.6784 6.91699 18.5714 6.91699C18.4479 6.91699 18.3573 7.12688 18.3573 7.12688H17.5215C17.5215 7.12688 17.4927 7.34936 17.9168 7.39134C18.0114 7.51727 18.0856 7.55085 18.172 7.58444C18.1144 7.63061 18.0979 7.68938 18.0979 7.76494V7.76494ZM18.1638 7.58024H18.9131Z" fill="#FFC72C"/>
<path d="M18.1638 7.58024H18.9131M18.0979 7.76494H18.9995C18.9995 7.76494 19.0119 7.6474 18.9048 7.57604C19.3783 7.50888 19.2548 7.0891 19.6459 7.06391C19.7282 7.07651 19.4401 7.24442 19.4401 7.24442C19.4401 7.24442 19.2054 7.41233 19.3165 7.50048C19.3989 7.57184 19.4401 7.4585 19.4483 7.37455C19.4606 7.29059 19.8312 7.23602 19.7777 6.99675C19.6912 6.79946 19.1725 7.13108 19.1725 7.13108L18.8019 7.12688C18.7772 7.0849 18.6784 6.91699 18.5714 6.91699C18.4479 6.91699 18.3573 7.12688 18.3573 7.12688H17.5215C17.5215 7.12688 17.4927 7.34936 17.9168 7.39134C18.0114 7.51727 18.0856 7.55085 18.172 7.58444C18.1144 7.63061 18.0979 7.68938 18.0979 7.76494V7.76494Z" stroke="black" stroke-width="0.0871841"/>
<path d="M17.8221 7.13086C17.8221 7.13086 17.8797 7.48767 18.1597 7.57162Z" fill="#FFC72C"/>
<path d="M17.8221 7.13086C17.8221 7.13086 17.8797 7.48767 18.1597 7.57162" stroke="black" stroke-width="0.0871841"/>
<path d="M17.7768 7.12283C17.8015 6.9885 17.855 6.96331 17.9085 6.78701C17.9168 6.6191 17.7768 6.64008 17.8179 6.53514C17.8921 6.41341 17.855 6.30007 17.715 6.21191C17.7438 6.36723 17.5339 6.51415 17.5339 6.64008C17.5339 6.76602 17.6409 6.74083 17.6286 6.93393C17.6368 7.04307 17.5997 7.01788 17.5874 7.12283H17.7768Z" fill="url(#paint2_linear_1_17459)" stroke="black" stroke-width="0.0871841"/>
<path d="M18.6784 6.27906C18.6784 6.30801 18.6671 6.33577 18.6471 6.35624C18.627 6.37671 18.5998 6.3882 18.5714 6.3882C18.543 6.3882 18.5158 6.37671 18.4957 6.35624C18.4756 6.33577 18.4643 6.30801 18.4643 6.27906C18.4643 6.25012 18.4756 6.22236 18.4957 6.20189C18.5158 6.18142 18.543 6.16992 18.5714 6.16992C18.5998 6.16992 18.627 6.18142 18.6471 6.20189C18.6671 6.22236 18.6784 6.25012 18.6784 6.27906V6.27906Z" fill="#FFC72C" stroke="black" stroke-width="0.0871841"/>
<path d="M17.9909 7.12284L18.5672 6.25391L19.156 7.12704" stroke="#FFC72C" stroke-width="0.184055"/>
<path d="M18.6866 6.79527C18.6866 6.82644 18.6745 6.85634 18.6529 6.87838C18.6313 6.90043 18.6019 6.91281 18.5714 6.91281C18.5408 6.91281 18.5115 6.90043 18.4899 6.87838C18.4682 6.85634 18.4561 6.82644 18.4561 6.79527C18.4561 6.7641 18.4682 6.7342 18.4899 6.71216C18.5115 6.69012 18.5408 6.67773 18.5714 6.67773C18.6019 6.67773 18.6313 6.69012 18.6529 6.71216C18.6745 6.7342 18.6866 6.7641 18.6866 6.79527V6.79527Z" fill="#FFC72C" stroke="black" stroke-width="0.0871841"/>
<path d="M18.0979 7.76494H18.9995C18.9995 7.76494 19.0119 7.6474 18.9048 7.57604C19.3783 7.50888 19.2548 7.0891 19.6459 7.06391C19.7282 7.07651 19.4401 7.24442 19.4401 7.24442C19.4401 7.24442 19.2054 7.41233 19.3165 7.50048C19.3989 7.57184 19.4401 7.4585 19.4483 7.37455C19.4606 7.29059 19.8312 7.23602 19.7777 6.99675C19.6912 6.79946 19.1725 7.13108 19.1725 7.13108L18.8019 7.12688C18.7772 7.0849 18.6784 6.91699 18.5714 6.91699C18.4479 6.91699 18.3573 7.12688 18.3573 7.12688H17.5215C17.5215 7.12688 17.4927 7.34936 17.9168 7.39134C18.0114 7.51727 18.0856 7.55085 18.172 7.58444C18.1144 7.63061 18.0979 7.68938 18.0979 7.76494V7.76494ZM18.1638 7.58024H18.9131Z" fill="#FFC72C"/>
<path d="M18.1638 7.58024H18.9131M18.0979 7.76494H18.9995C18.9995 7.76494 19.0119 7.6474 18.9048 7.57604C19.3783 7.50888 19.2548 7.0891 19.6459 7.06391C19.7282 7.07651 19.4401 7.24442 19.4401 7.24442C19.4401 7.24442 19.2054 7.41233 19.3165 7.50048C19.3989 7.57184 19.4401 7.4585 19.4483 7.37455C19.4606 7.29059 19.8312 7.23602 19.7777 6.99675C19.6912 6.79946 19.1725 7.13108 19.1725 7.13108L18.8019 7.12688C18.7772 7.0849 18.6784 6.91699 18.5714 6.91699C18.4479 6.91699 18.3573 7.12688 18.3573 7.12688H17.5215C17.5215 7.12688 17.4927 7.34936 17.9168 7.39134C18.0114 7.51727 18.0856 7.55085 18.172 7.58444C18.1144 7.63061 18.0979 7.68938 18.0979 7.76494V7.76494Z" stroke="black" stroke-width="0.0871841"/>
<path d="M17.8221 7.13086C17.8221 7.13086 17.8797 7.48767 18.1597 7.57162Z" fill="#FFC72C"/>
<path d="M17.8221 7.13086C17.8221 7.13086 17.8797 7.48767 18.1597 7.57162" stroke="black" stroke-width="0.0871841"/>
<path d="M17.7768 7.12283C17.8015 6.9885 17.855 6.96331 17.9085 6.78701C17.9168 6.6191 17.7768 6.64008 17.8179 6.53514C17.8921 6.41341 17.855 6.30007 17.715 6.21191C17.7438 6.36723 17.5339 6.51415 17.5339 6.64008C17.5339 6.76602 17.6409 6.74083 17.6286 6.93393C17.6368 7.04307 17.5997 7.01788 17.5874 7.12283H17.7768Z" fill="url(#paint3_linear_1_17459)" stroke="black" stroke-width="0.0871841"/>
<path d="M18.6784 6.27906C18.6784 6.30801 18.6671 6.33577 18.6471 6.35624C18.627 6.37671 18.5998 6.3882 18.5714 6.3882C18.543 6.3882 18.5158 6.37671 18.4957 6.35624C18.4756 6.33577 18.4643 6.30801 18.4643 6.27906C18.4643 6.25012 18.4756 6.22236 18.4957 6.20189C18.5158 6.18142 18.543 6.16992 18.5714 6.16992C18.5998 6.16992 18.627 6.18142 18.6471 6.20189C18.6671 6.22236 18.6784 6.25012 18.6784 6.27906V6.27906Z" fill="#FFC72C" stroke="black" stroke-width="0.0871841"/>
<path d="M17.9909 7.12284L18.5672 6.25391L19.156 7.12704" stroke="#FFC72C" stroke-width="0.184055"/>
<path d="M18.6866 6.79527C18.6866 6.82644 18.6745 6.85634 18.6529 6.87838C18.6313 6.90043 18.6019 6.91281 18.5714 6.91281C18.5408 6.91281 18.5115 6.90043 18.4899 6.87838C18.4682 6.85634 18.4561 6.82644 18.4561 6.79527C18.4561 6.7641 18.4682 6.7342 18.4899 6.71216C18.5115 6.69012 18.5408 6.67773 18.5714 6.67773C18.6019 6.67773 18.6313 6.69012 18.6529 6.71216C18.6745 6.7342 18.6866 6.7641 18.6866 6.79527V6.79527Z" fill="#FFC72C" stroke="black" stroke-width="0.0871841"/>
<path d="M18.0979 7.76494H18.9995C18.9995 7.76494 19.0119 7.6474 18.9048 7.57604C19.3783 7.50888 19.2548 7.0891 19.6459 7.06391C19.7282 7.07651 19.4401 7.24442 19.4401 7.24442C19.4401 7.24442 19.2054 7.41233 19.3165 7.50048C19.3989 7.57184 19.4401 7.4585 19.4483 7.37455C19.4606 7.29059 19.8312 7.23602 19.7777 6.99675C19.6912 6.79946 19.1725 7.13108 19.1725 7.13108L18.8019 7.12688C18.7772 7.0849 18.6784 6.91699 18.5714 6.91699C18.4479 6.91699 18.3573 7.12688 18.3573 7.12688H17.5215C17.5215 7.12688 17.4927 7.34936 17.9168 7.39134C18.0114 7.51727 18.0856 7.55085 18.172 7.58444C18.1144 7.63061 18.0979 7.68938 18.0979 7.76494V7.76494ZM18.1638 7.58024H18.9131Z" fill="#FFC72C"/>
<path d="M18.1638 7.58024H18.9131M18.0979 7.76494H18.9995C18.9995 7.76494 19.0119 7.6474 18.9048 7.57604C19.3783 7.50888 19.2548 7.0891 19.6459 7.06391C19.7282 7.07651 19.4401 7.24442 19.4401 7.24442C19.4401 7.24442 19.2054 7.41233 19.3165 7.50048C19.3989 7.57184 19.4401 7.4585 19.4483 7.37455C19.4606 7.29059 19.8312 7.23602 19.7777 6.99675C19.6912 6.79946 19.1725 7.13108 19.1725 7.13108L18.8019 7.12688C18.7772 7.0849 18.6784 6.91699 18.5714 6.91699C18.4479 6.91699 18.3573 7.12688 18.3573 7.12688H17.5215C17.5215 7.12688 17.4927 7.34936 17.9168 7.39134C18.0114 7.51727 18.0856 7.55085 18.172 7.58444C18.1144 7.63061 18.0979 7.68938 18.0979 7.76494V7.76494Z" stroke="black" stroke-width="0.0871841"/>
<path d="M17.8221 7.13086C17.8221 7.13086 17.8797 7.48767 18.1597 7.57162Z" fill="#FFC72C"/>
<path d="M17.8221 7.13086C17.8221 7.13086 17.8797 7.48767 18.1597 7.57162" stroke="black" stroke-width="0.0871841"/>
<path d="M17.7768 7.12283C17.8015 6.9885 17.855 6.96331 17.9085 6.78701C17.9168 6.6191 17.7768 6.64008 17.8179 6.53514C17.8921 6.41341 17.855 6.30007 17.715 6.21191C17.7438 6.36723 17.5339 6.51415 17.5339 6.64008C17.5339 6.76602 17.6409 6.74083 17.6286 6.93393C17.6368 7.04307 17.5997 7.01788 17.5874 7.12283H17.7768Z" fill="url(#paint4_linear_1_17459)" stroke="black" stroke-width="0.0871841"/>
<path d="M18.6784 6.27906C18.6784 6.30801 18.6671 6.33577 18.6471 6.35624C18.627 6.37671 18.5998 6.3882 18.5714 6.3882C18.543 6.3882 18.5158 6.37671 18.4957 6.35624C18.4756 6.33577 18.4643 6.30801 18.4643 6.27906C18.4643 6.25012 18.4756 6.22236 18.4957 6.20189C18.5158 6.18142 18.543 6.16992 18.5714 6.16992C18.5998 6.16992 18.627 6.18142 18.6471 6.20189C18.6671 6.22236 18.6784 6.25012 18.6784 6.27906V6.27906Z" fill="#FFC72C" stroke="black" stroke-width="0.0871841"/>
<path d="M17.9909 7.12284L18.5672 6.25391L19.156 7.12704" stroke="#FFC72C" stroke-width="0.184055"/>
<path d="M18.6866 6.79527C18.6866 6.82644 18.6745 6.85634 18.6529 6.87838C18.6313 6.90043 18.6019 6.91281 18.5714 6.91281C18.5408 6.91281 18.5115 6.90043 18.4899 6.87838C18.4682 6.85634 18.4561 6.82644 18.4561 6.79527C18.4561 6.7641 18.4682 6.7342 18.4899 6.71216C18.5115 6.69012 18.5408 6.67773 18.5714 6.67773C18.6019 6.67773 18.6313 6.69012 18.6529 6.71216C18.6745 6.7342 18.6866 6.7641 18.6866 6.79527V6.79527Z" fill="#FFC72C" stroke="black" stroke-width="0.0871841"/>
<path d="M18.0979 7.76494H18.9995C18.9995 7.76494 19.0119 7.6474 18.9048 7.57604C19.3783 7.50888 19.2548 7.0891 19.6459 7.06391C19.7282 7.07651 19.4401 7.24442 19.4401 7.24442C19.4401 7.24442 19.2054 7.41233 19.3165 7.50048C19.3989 7.57184 19.4401 7.4585 19.4483 7.37455C19.4606 7.29059 19.8312 7.23602 19.7777 6.99675C19.6912 6.79946 19.1725 7.13108 19.1725 7.13108L18.8019 7.12688C18.7772 7.0849 18.6784 6.91699 18.5714 6.91699C18.4479 6.91699 18.3573 7.12688 18.3573 7.12688H17.5215C17.5215 7.12688 17.4927 7.34936 17.9168 7.39134C18.0114 7.51727 18.0856 7.55085 18.172 7.58444C18.1144 7.63061 18.0979 7.68938 18.0979 7.76494V7.76494ZM18.1638 7.58024H18.9131Z" fill="#FFC72C"/>
<path d="M18.1638 7.58024H18.9131M18.0979 7.76494H18.9995C18.9995 7.76494 19.0119 7.6474 18.9048 7.57604C19.3783 7.50888 19.2548 7.0891 19.6459 7.06391C19.7282 7.07651 19.4401 7.24442 19.4401 7.24442C19.4401 7.24442 19.2054 7.41233 19.3165 7.50048C19.3989 7.57184 19.4401 7.4585 19.4483 7.37455C19.4606 7.29059 19.8312 7.23602 19.7777 6.99675C19.6912 6.79946 19.1725 7.13108 19.1725 7.13108L18.8019 7.12688C18.7772 7.0849 18.6784 6.91699 18.5714 6.91699C18.4479 6.91699 18.3573 7.12688 18.3573 7.12688H17.5215C17.5215 7.12688 17.4927 7.34936 17.9168 7.39134C18.0114 7.51727 18.0856 7.55085 18.172 7.58444C18.1144 7.63061 18.0979 7.68938 18.0979 7.76494V7.76494Z" stroke="black" stroke-width="0.0871841"/>
<path d="M17.8221 7.13086C17.8221 7.13086 17.8797 7.48767 18.1597 7.57162Z" fill="#FFC72C"/>
<path d="M17.8221 7.13086C17.8221 7.13086 17.8797 7.48767 18.1597 7.57162" stroke="black" stroke-width="0.0871841"/>
<path d="M17.7768 7.12283C17.8015 6.9885 17.855 6.96331 17.9085 6.78701C17.9168 6.6191 17.7768 6.64008 17.8179 6.53514C17.8921 6.41341 17.855 6.30007 17.715 6.21191C17.7438 6.36723 17.5339 6.51415 17.5339 6.64008C17.5339 6.76602 17.6409 6.74083 17.6286 6.93393C17.6368 7.04307 17.5997 7.01788 17.5874 7.12283H17.7768Z" fill="url(#paint5_linear_1_17459)" stroke="black" stroke-width="0.0871841"/>
<path d="M18.6784 6.27906C18.6784 6.30801 18.6671 6.33577 18.6471 6.35624C18.627 6.37671 18.5998 6.3882 18.5714 6.3882C18.543 6.3882 18.5158 6.37671 18.4957 6.35624C18.4756 6.33577 18.4643 6.30801 18.4643 6.27906C18.4643 6.25012 18.4756 6.22236 18.4957 6.20189C18.5158 6.18142 18.543 6.16992 18.5714 6.16992C18.5998 6.16992 18.627 6.18142 18.6471 6.20189C18.6671 6.22236 18.6784 6.25012 18.6784 6.27906V6.27906Z" fill="#FFC72C" stroke="black" stroke-width="0.0871841"/>
<path d="M17.9909 7.12284L18.5672 6.25391L19.156 7.12704" stroke="#FFC72C" stroke-width="0.184055"/>
<path d="M18.6866 6.79527C18.6866 6.82644 18.6745 6.85634 18.6529 6.87838C18.6313 6.90043 18.6019 6.91281 18.5714 6.91281C18.5408 6.91281 18.5115 6.90043 18.4899 6.87838C18.4682 6.85634 18.4561 6.82644 18.4561 6.79527C18.4561 6.7641 18.4682 6.7342 18.4899 6.71216C18.5115 6.69012 18.5408 6.67773 18.5714 6.67773C18.6019 6.67773 18.6313 6.69012 18.6529 6.71216C18.6745 6.7342 18.6866 6.7641 18.6866 6.79527V6.79527Z" fill="#FFC72C" stroke="black" stroke-width="0.0871841"/>
<path d="M18.0979 7.76494H18.9995C18.9995 7.76494 19.0119 7.6474 18.9048 7.57604C19.3783 7.50888 19.2548 7.0891 19.6459 7.06391C19.7282 7.07651 19.4401 7.24442 19.4401 7.24442C19.4401 7.24442 19.2054 7.41233 19.3165 7.50048C19.3989 7.57184 19.4401 7.4585 19.4483 7.37455C19.4606 7.29059 19.8312 7.23602 19.7777 6.99675C19.6912 6.79946 19.1725 7.13108 19.1725 7.13108L18.8019 7.12688C18.7772 7.0849 18.6784 6.91699 18.5714 6.91699C18.4479 6.91699 18.3573 7.12688 18.3573 7.12688H17.5215C17.5215 7.12688 17.4927 7.34936 17.9168 7.39134C18.0114 7.51727 18.0856 7.55085 18.172 7.58444C18.1144 7.63061 18.0979 7.68938 18.0979 7.76494V7.76494ZM18.1638 7.58024H18.9131Z" fill="#FFC72C"/>
<path d="M18.1638 7.58024H18.9131M18.0979 7.76494H18.9995C18.9995 7.76494 19.0119 7.6474 18.9048 7.57604C19.3783 7.50888 19.2548 7.0891 19.6459 7.06391C19.7282 7.07651 19.4401 7.24442 19.4401 7.24442C19.4401 7.24442 19.2054 7.41233 19.3165 7.50048C19.3989 7.57184 19.4401 7.4585 19.4483 7.37455C19.4606 7.29059 19.8312 7.23602 19.7777 6.99675C19.6912 6.79946 19.1725 7.13108 19.1725 7.13108L18.8019 7.12688C18.7772 7.0849 18.6784 6.91699 18.5714 6.91699C18.4479 6.91699 18.3573 7.12688 18.3573 7.12688H17.5215C17.5215 7.12688 17.4927 7.34936 17.9168 7.39134C18.0114 7.51727 18.0856 7.55085 18.172 7.58444C18.1144 7.63061 18.0979 7.68938 18.0979 7.76494V7.76494Z" stroke="black" stroke-width="0.0871841"/>
<path d="M17.8221 7.13086C17.8221 7.13086 17.8797 7.48767 18.1597 7.57162Z" fill="#FFC72C"/>
<path d="M17.8221 7.13086C17.8221 7.13086 17.8797 7.48767 18.1597 7.57162" stroke="black" stroke-width="0.0871841"/>
<path d="M17.7768 7.12283C17.8015 6.9885 17.855 6.96331 17.9085 6.78701C17.9168 6.6191 17.7768 6.64008 17.8179 6.53514C17.8921 6.41341 17.855 6.30007 17.715 6.21191C17.7438 6.36723 17.5339 6.51415 17.5339 6.64008C17.5339 6.76602 17.6409 6.74083 17.6286 6.93393C17.6368 7.04307 17.5997 7.01788 17.5874 7.12283H17.7768Z" fill="url(#paint6_linear_1_17459)" stroke="black" stroke-width="0.0871841"/>
<path d="M18.6784 6.27906C18.6784 6.30801 18.6671 6.33577 18.6471 6.35624C18.627 6.37671 18.5998 6.3882 18.5714 6.3882C18.543 6.3882 18.5158 6.37671 18.4957 6.35624C18.4756 6.33577 18.4643 6.30801 18.4643 6.27906C18.4643 6.25012 18.4756 6.22236 18.4957 6.20189C18.5158 6.18142 18.543 6.16992 18.5714 6.16992C18.5998 6.16992 18.627 6.18142 18.6471 6.20189C18.6671 6.22236 18.6784 6.25012 18.6784 6.27906V6.27906Z" fill="#FFC72C" stroke="black" stroke-width="0.0871841"/>
<path d="M17.9909 7.12284L18.5672 6.25391L19.156 7.12704" stroke="#FFC72C" stroke-width="0.184055"/>
<path d="M18.6866 6.79527C18.6866 6.82644 18.6745 6.85634 18.6529 6.87838C18.6313 6.90043 18.6019 6.91281 18.5714 6.91281C18.5408 6.91281 18.5115 6.90043 18.4899 6.87838C18.4682 6.85634 18.4561 6.82644 18.4561 6.79527C18.4561 6.7641 18.4682 6.7342 18.4899 6.71216C18.5115 6.69012 18.5408 6.67773 18.5714 6.67773C18.6019 6.67773 18.6313 6.69012 18.6529 6.71216C18.6745 6.7342 18.6866 6.7641 18.6866 6.79527V6.79527Z" fill="#FFC72C" stroke="black" stroke-width="0.0871841"/>
<path d="M18.0979 7.76494H18.9995C18.9995 7.76494 19.0119 7.6474 18.9048 7.57604C19.3783 7.50888 19.2548 7.0891 19.6459 7.06391C19.7282 7.07651 19.4401 7.24442 19.4401 7.24442C19.4401 7.24442 19.2054 7.41233 19.3165 7.50048C19.3989 7.57184 19.4401 7.4585 19.4483 7.37455C19.4606 7.29059 19.8312 7.23602 19.7777 6.99675C19.6912 6.79946 19.1725 7.13108 19.1725 7.13108L18.8019 7.12688C18.7772 7.0849 18.6784 6.91699 18.5714 6.91699C18.4479 6.91699 18.3573 7.12688 18.3573 7.12688H17.5215C17.5215 7.12688 17.4927 7.34936 17.9168 7.39134C18.0114 7.51727 18.0856 7.55085 18.172 7.58444C18.1144 7.63061 18.0979 7.68938 18.0979 7.76494V7.76494ZM18.1638 7.58024H18.9131Z" fill="#FFC72C"/>
<path d="M18.1638 7.58024H18.9131M18.0979 7.76494H18.9995C18.9995 7.76494 19.0119 7.6474 18.9048 7.57604C19.3783 7.50888 19.2548 7.0891 19.6459 7.06391C19.7282 7.07651 19.4401 7.24442 19.4401 7.24442C19.4401 7.24442 19.2054 7.41233 19.3165 7.50048C19.3989 7.57184 19.4401 7.4585 19.4483 7.37455C19.4606 7.29059 19.8312 7.23602 19.7777 6.99675C19.6912 6.79946 19.1725 7.13108 19.1725 7.13108L18.8019 7.12688C18.7772 7.0849 18.6784 6.91699 18.5714 6.91699C18.4479 6.91699 18.3573 7.12688 18.3573 7.12688H17.5215C17.5215 7.12688 17.4927 7.34936 17.9168 7.39134C18.0114 7.51727 18.0856 7.55085 18.172 7.58444C18.1144 7.63061 18.0979 7.68938 18.0979 7.76494V7.76494Z" stroke="black" stroke-width="0.0871841"/>
<path d="M17.8221 7.13086C17.8221 7.13086 17.8797 7.48767 18.1597 7.57162Z" fill="#FFC72C"/>
<path d="M17.8221 7.13086C17.8221 7.13086 17.8797 7.48767 18.1597 7.57162" stroke="black" stroke-width="0.0871841"/>
<path d="M17.7768 7.12283C17.8015 6.9885 17.855 6.96331 17.9085 6.78701C17.9168 6.6191 17.7768 6.64008 17.8179 6.53514C17.8921 6.41341 17.855 6.30007 17.715 6.21191C17.7438 6.36723 17.5339 6.51415 17.5339 6.64008C17.5339 6.76602 17.6409 6.74083 17.6286 6.93393C17.6368 7.04307 17.5997 7.01788 17.5874 7.12283H17.7768Z" fill="url(#paint7_linear_1_17459)" stroke="black" stroke-width="0.0871841"/>
<path d="M18.6784 6.27906C18.6784 6.30801 18.6671 6.33577 18.6471 6.35624C18.627 6.37671 18.5998 6.3882 18.5714 6.3882C18.543 6.3882 18.5158 6.37671 18.4957 6.35624C18.4756 6.33577 18.4643 6.30801 18.4643 6.27906C18.4643 6.25012 18.4756 6.22236 18.4957 6.20189C18.5158 6.18142 18.543 6.16992 18.5714 6.16992C18.5998 6.16992 18.627 6.18142 18.6471 6.20189C18.6671 6.22236 18.6784 6.25012 18.6784 6.27906V6.27906Z" fill="#FFC72C" stroke="black" stroke-width="0.0871841"/>
<path d="M17.9909 7.12284L18.5672 6.25391L19.156 7.12704" stroke="#FFC72C" stroke-width="0.184055"/>
<path d="M18.6866 6.79527C18.6866 6.82644 18.6745 6.85634 18.6529 6.87838C18.6313 6.90043 18.6019 6.91281 18.5714 6.91281C18.5408 6.91281 18.5115 6.90043 18.4899 6.87838C18.4682 6.85634 18.4561 6.82644 18.4561 6.79527C18.4561 6.7641 18.4682 6.7342 18.4899 6.71216C18.5115 6.69012 18.5408 6.67773 18.5714 6.67773C18.6019 6.67773 18.6313 6.69012 18.6529 6.71216C18.6745 6.7342 18.6866 6.7641 18.6866 6.79527V6.79527Z" fill="#FFC72C" stroke="black" stroke-width="0.0871841"/>
<path d="M18.0979 7.76494H18.9995C18.9995 7.76494 19.0119 7.6474 18.9048 7.57604C19.3783 7.50888 19.2548 7.0891 19.6459 7.06391C19.7282 7.07651 19.4401 7.24442 19.4401 7.24442C19.4401 7.24442 19.2054 7.41233 19.3165 7.50048C19.3989 7.57184 19.4401 7.4585 19.4483 7.37455C19.4606 7.29059 19.8312 7.23602 19.7777 6.99675C19.6912 6.79946 19.1725 7.13108 19.1725 7.13108L18.8019 7.12688C18.7772 7.0849 18.6784 6.91699 18.5714 6.91699C18.4479 6.91699 18.3573 7.12688 18.3573 7.12688H17.5215C17.5215 7.12688 17.4927 7.34936 17.9168 7.39134C18.0114 7.51727 18.0856 7.55085 18.172 7.58444C18.1144 7.63061 18.0979 7.68938 18.0979 7.76494V7.76494ZM18.1638 7.58024H18.9131Z" fill="#FFC72C"/>
<path d="M18.1638 7.58024H18.9131M18.0979 7.76494H18.9995C18.9995 7.76494 19.0119 7.6474 18.9048 7.57604C19.3783 7.50888 19.2548 7.0891 19.6459 7.06391C19.7282 7.07651 19.4401 7.24442 19.4401 7.24442C19.4401 7.24442 19.2054 7.41233 19.3165 7.50048C19.3989 7.57184 19.4401 7.4585 19.4483 7.37455C19.4606 7.29059 19.8312 7.23602 19.7777 6.99675C19.6912 6.79946 19.1725 7.13108 19.1725 7.13108L18.8019 7.12688C18.7772 7.0849 18.6784 6.91699 18.5714 6.91699C18.4479 6.91699 18.3573 7.12688 18.3573 7.12688H17.5215C17.5215 7.12688 17.4927 7.34936 17.9168 7.39134C18.0114 7.51727 18.0856 7.55085 18.172 7.58444C18.1144 7.63061 18.0979 7.68938 18.0979 7.76494V7.76494Z" stroke="black" stroke-width="0.0871841"/>
<path d="M17.8221 7.13086C17.8221 7.13086 17.8797 7.48767 18.1597 7.57162Z" fill="#FFC72C"/>
<path d="M17.8221 7.13086C17.8221 7.13086 17.8797 7.48767 18.1597 7.57162" stroke="black" stroke-width="0.0871841"/>
<path d="M17.7768 7.12283C17.8015 6.9885 17.855 6.96331 17.9085 6.78701C17.9168 6.6191 17.7768 6.64008 17.8179 6.53514C17.8921 6.41341 17.855 6.30007 17.715 6.21191C17.7438 6.36723 17.5339 6.51415 17.5339 6.64008C17.5339 6.76602 17.6409 6.74083 17.6286 6.93393C17.6368 7.04307 17.5997 7.01788 17.5874 7.12283H17.7768Z" fill="url(#paint8_linear_1_17459)" stroke="black" stroke-width="0.0871841"/>
<path d="M18.6784 6.27906C18.6784 6.30801 18.6671 6.33577 18.6471 6.35624C18.627 6.37671 18.5998 6.3882 18.5714 6.3882C18.543 6.3882 18.5158 6.37671 18.4957 6.35624C18.4756 6.33577 18.4643 6.30801 18.4643 6.27906C18.4643 6.25012 18.4756 6.22236 18.4957 6.20189C18.5158 6.18142 18.543 6.16992 18.5714 6.16992C18.5998 6.16992 18.627 6.18142 18.6471 6.20189C18.6671 6.22236 18.6784 6.25012 18.6784 6.27906V6.27906Z" fill="#FFC72C" stroke="black" stroke-width="0.0871841"/>
<path d="M17.9909 7.12284L18.5672 6.25391L19.156 7.12704" stroke="#FFC72C" stroke-width="0.184055"/>
<path d="M18.6866 6.79527C18.6866 6.82644 18.6745 6.85634 18.6529 6.87838C18.6313 6.90043 18.6019 6.91281 18.5714 6.91281C18.5408 6.91281 18.5115 6.90043 18.4899 6.87838C18.4682 6.85634 18.4561 6.82644 18.4561 6.79527C18.4561 6.7641 18.4682 6.7342 18.4899 6.71216C18.5115 6.69012 18.5408 6.67773 18.5714 6.67773C18.6019 6.67773 18.6313 6.69012 18.6529 6.71216C18.6745 6.7342 18.6866 6.7641 18.6866 6.79527V6.79527Z" fill="#FFC72C" stroke="black" stroke-width="0.0871841"/>
<path d="M18.0979 7.76494H18.9995C18.9995 7.76494 19.0119 7.6474 18.9048 7.57604C19.3783 7.50888 19.2548 7.0891 19.6459 7.06391C19.7282 7.07651 19.4401 7.24442 19.4401 7.24442C19.4401 7.24442 19.2054 7.41233 19.3165 7.50048C19.3989 7.57184 19.4401 7.4585 19.4483 7.37455C19.4606 7.29059 19.8312 7.23602 19.7777 6.99675C19.6912 6.79946 19.1725 7.13108 19.1725 7.13108L18.8019 7.12688C18.7772 7.0849 18.6784 6.91699 18.5714 6.91699C18.4479 6.91699 18.3573 7.12688 18.3573 7.12688H17.5215C17.5215 7.12688 17.4927 7.34936 17.9168 7.39134C18.0114 7.51727 18.0856 7.55085 18.172 7.58444C18.1144 7.63061 18.0979 7.68938 18.0979 7.76494V7.76494ZM18.1638 7.58024H18.9131Z" fill="#FFC72C"/>
<path d="M18.1638 7.58024H18.9131M18.0979 7.76494H18.9995C18.9995 7.76494 19.0119 7.6474 18.9048 7.57604C19.3783 7.50888 19.2548 7.0891 19.6459 7.06391C19.7282 7.07651 19.4401 7.24442 19.4401 7.24442C19.4401 7.24442 19.2054 7.41233 19.3165 7.50048C19.3989 7.57184 19.4401 7.4585 19.4483 7.37455C19.4606 7.29059 19.8312 7.23602 19.7777 6.99675C19.6912 6.79946 19.1725 7.13108 19.1725 7.13108L18.8019 7.12688C18.7772 7.0849 18.6784 6.91699 18.5714 6.91699C18.4479 6.91699 18.3573 7.12688 18.3573 7.12688H17.5215C17.5215 7.12688 17.4927 7.34936 17.9168 7.39134C18.0114 7.51727 18.0856 7.55085 18.172 7.58444C18.1144 7.63061 18.0979 7.68938 18.0979 7.76494V7.76494Z" stroke="black" stroke-width="0.0871841"/>
<path d="M17.8221 7.13086C17.8221 7.13086 17.8797 7.48767 18.1597 7.57162Z" fill="#FFC72C"/>
<path d="M17.8221 7.13086C17.8221 7.13086 17.8797 7.48767 18.1597 7.57162" stroke="black" stroke-width="0.0871841"/>
<path d="M17.7768 7.12283C17.8015 6.9885 17.855 6.96331 17.9085 6.78701C17.9168 6.6191 17.7768 6.64008 17.8179 6.53514C17.8921 6.41341 17.855 6.30007 17.715 6.21191C17.7438 6.36723 17.5339 6.51415 17.5339 6.64008C17.5339 6.76602 17.6409 6.74083 17.6286 6.93393C17.6368 7.04307 17.5997 7.01788 17.5874 7.12283H17.7768Z" fill="url(#paint9_linear_1_17459)" stroke="black" stroke-width="0.0871841"/>
<path d="M18.6784 6.27906C18.6784 6.30801 18.6671 6.33577 18.6471 6.35624C18.627 6.37671 18.5998 6.3882 18.5714 6.3882C18.543 6.3882 18.5158 6.37671 18.4957 6.35624C18.4756 6.33577 18.4643 6.30801 18.4643 6.27906C18.4643 6.25012 18.4756 6.22236 18.4957 6.20189C18.5158 6.18142 18.543 6.16992 18.5714 6.16992C18.5998 6.16992 18.627 6.18142 18.6471 6.20189C18.6671 6.22236 18.6784 6.25012 18.6784 6.27906V6.27906Z" fill="#FFC72C" stroke="black" stroke-width="0.0871841"/>
<path d="M17.9909 7.12284L18.5672 6.25391L19.156 7.12704" stroke="#FFC72C" stroke-width="0.184055"/>
<path d="M18.6866 6.79527C18.6866 6.82644 18.6745 6.85634 18.6529 6.87838C18.6313 6.90043 18.6019 6.91281 18.5714 6.91281C18.5408 6.91281 18.5115 6.90043 18.4899 6.87838C18.4682 6.85634 18.4561 6.82644 18.4561 6.79527C18.4561 6.7641 18.4682 6.7342 18.4899 6.71216C18.5115 6.69012 18.5408 6.67773 18.5714 6.67773C18.6019 6.67773 18.6313 6.69012 18.6529 6.71216C18.6745 6.7342 18.6866 6.7641 18.6866 6.79527V6.79527Z" fill="#FFC72C" stroke="black" stroke-width="0.0871841"/>
<path d="M18.0979 7.76494H18.9995C18.9995 7.76494 19.0119 7.6474 18.9048 7.57604C19.3783 7.50888 19.2548 7.0891 19.6459 7.06391C19.7282 7.07651 19.4401 7.24442 19.4401 7.24442C19.4401 7.24442 19.2054 7.41233 19.3165 7.50048C19.3989 7.57184 19.4401 7.4585 19.4483 7.37455C19.4606 7.29059 19.8312 7.23602 19.7777 6.99675C19.6912 6.79946 19.1725 7.13108 19.1725 7.13108L18.8019 7.12688C18.7772 7.0849 18.6784 6.91699 18.5714 6.91699C18.4479 6.91699 18.3573 7.12688 18.3573 7.12688H17.5215C17.5215 7.12688 17.4927 7.34936 17.9168 7.39134C18.0114 7.51727 18.0856 7.55085 18.172 7.58444C18.1144 7.63061 18.0979 7.68938 18.0979 7.76494V7.76494ZM18.1638 7.58024H18.9131Z" fill="#FFC72C"/>
<path d="M18.1638 7.58024H18.9131M18.0979 7.76494H18.9995C18.9995 7.76494 19.0119 7.6474 18.9048 7.57604C19.3783 7.50888 19.2548 7.0891 19.6459 7.06391C19.7282 7.07651 19.4401 7.24442 19.4401 7.24442C19.4401 7.24442 19.2054 7.41233 19.3165 7.50048C19.3989 7.57184 19.4401 7.4585 19.4483 7.37455C19.4606 7.29059 19.8312 7.23602 19.7777 6.99675C19.6912 6.79946 19.1725 7.13108 19.1725 7.13108L18.8019 7.12688C18.7772 7.0849 18.6784 6.91699 18.5714 6.91699C18.4479 6.91699 18.3573 7.12688 18.3573 7.12688H17.5215C17.5215 7.12688 17.4927 7.34936 17.9168 7.39134C18.0114 7.51727 18.0856 7.55085 18.172 7.58444C18.1144 7.63061 18.0979 7.68938 18.0979 7.76494V7.76494Z" stroke="black" stroke-width="0.0871841"/>
<path d="M17.8221 7.13086C17.8221 7.13086 17.8797 7.48767 18.1597 7.57162Z" fill="#FFC72C"/>
<path d="M17.8221 7.13086C17.8221 7.13086 17.8797 7.48767 18.1597 7.57162" stroke="black" stroke-width="0.0871841"/>
<path d="M17.7768 7.12283C17.8015 6.9885 17.855 6.96331 17.9085 6.78701C17.9168 6.6191 17.7768 6.64008 17.8179 6.53514C17.8921 6.41341 17.855 6.30007 17.715 6.21191C17.7438 6.36723 17.5339 6.51415 17.5339 6.64008C17.5339 6.76602 17.6409 6.74083 17.6286 6.93393C17.6368 7.04307 17.5997 7.01788 17.5874 7.12283H17.7768Z" fill="url(#paint10_linear_1_17459)" stroke="black" stroke-width="0.0871841"/>
<path d="M18.6784 6.27906C18.6784 6.30801 18.6671 6.33577 18.6471 6.35624C18.627 6.37671 18.5998 6.3882 18.5714 6.3882C18.543 6.3882 18.5158 6.37671 18.4957 6.35624C18.4756 6.33577 18.4643 6.30801 18.4643 6.27906C18.4643 6.25012 18.4756 6.22236 18.4957 6.20189C18.5158 6.18142 18.543 6.16992 18.5714 6.16992C18.5998 6.16992 18.627 6.18142 18.6471 6.20189C18.6671 6.22236 18.6784 6.25012 18.6784 6.27906V6.27906Z" fill="#FFC72C" stroke="black" stroke-width="0.0871841"/>
<path d="M17.9909 7.12284L18.5672 6.25391L19.156 7.12704" stroke="#FFC72C" stroke-width="0.184055"/>
<path d="M18.6866 6.79527C18.6866 6.82644 18.6745 6.85634 18.6529 6.87838C18.6313 6.90043 18.6019 6.91281 18.5714 6.91281C18.5408 6.91281 18.5115 6.90043 18.4899 6.87838C18.4682 6.85634 18.4561 6.82644 18.4561 6.79527C18.4561 6.7641 18.4682 6.7342 18.4899 6.71216C18.5115 6.69012 18.5408 6.67773 18.5714 6.67773C18.6019 6.67773 18.6313 6.69012 18.6529 6.71216C18.6745 6.7342 18.6866 6.7641 18.6866 6.79527V6.79527Z" fill="#FFC72C" stroke="black" stroke-width="0.0871841"/>
<path d="M18.0979 7.76494H18.9995C18.9995 7.76494 19.0119 7.6474 18.9048 7.57604C19.3783 7.50888 19.2548 7.0891 19.6459 7.06391C19.7282 7.07651 19.4401 7.24442 19.4401 7.24442C19.4401 7.24442 19.2054 7.41233 19.3165 7.50048C19.3989 7.57184 19.4401 7.4585 19.4483 7.37455C19.4606 7.29059 19.8312 7.23602 19.7777 6.99675C19.6912 6.79946 19.1725 7.13108 19.1725 7.13108L18.8019 7.12688C18.7772 7.0849 18.6784 6.91699 18.5714 6.91699C18.4479 6.91699 18.3573 7.12688 18.3573 7.12688H17.5215C17.5215 7.12688 17.4927 7.34936 17.9168 7.39134C18.0114 7.51727 18.0856 7.55085 18.172 7.58444C18.1144 7.63061 18.0979 7.68938 18.0979 7.76494V7.76494ZM18.1638 7.58024H18.9131Z" fill="#FFC72C"/>
<path d="M18.1638 7.58024H18.9131M18.0979 7.76494H18.9995C18.9995 7.76494 19.0119 7.6474 18.9048 7.57604C19.3783 7.50888 19.2548 7.0891 19.6459 7.06391C19.7282 7.07651 19.4401 7.24442 19.4401 7.24442C19.4401 7.24442 19.2054 7.41233 19.3165 7.50048C19.3989 7.57184 19.4401 7.4585 19.4483 7.37455C19.4606 7.29059 19.8312 7.23602 19.7777 6.99675C19.6912 6.79946 19.1725 7.13108 19.1725 7.13108L18.8019 7.12688C18.7772 7.0849 18.6784 6.91699 18.5714 6.91699C18.4479 6.91699 18.3573 7.12688 18.3573 7.12688H17.5215C17.5215 7.12688 17.4927 7.34936 17.9168 7.39134C18.0114 7.51727 18.0856 7.55085 18.172 7.58444C18.1144 7.63061 18.0979 7.68938 18.0979 7.76494V7.76494Z" stroke="black" stroke-width="0.0871841"/>
<path d="M17.8221 7.13086C17.8221 7.13086 17.8797 7.48767 18.1597 7.57162Z" fill="#FFC72C"/>
<path d="M17.8221 7.13086C17.8221 7.13086 17.8797 7.48767 18.1597 7.57162" stroke="black" stroke-width="0.0871841"/>
<path d="M17.7768 7.12283C17.8015 6.9885 17.855 6.96331 17.9085 6.78701C17.9168 6.6191 17.7768 6.64008 17.8179 6.53514C17.8921 6.41341 17.855 6.30007 17.715 6.21191C17.7438 6.36723 17.5339 6.51415 17.5339 6.64008C17.5339 6.76602 17.6409 6.74083 17.6286 6.93393C17.6368 7.04307 17.5997 7.01788 17.5874 7.12283H17.7768Z" fill="url(#paint11_linear_1_17459)" stroke="black" stroke-width="0.0871841"/>
<path d="M18.6784 6.27906C18.6784 6.30801 18.6671 6.33577 18.6471 6.35624C18.627 6.37671 18.5998 6.3882 18.5714 6.3882C18.543 6.3882 18.5158 6.37671 18.4957 6.35624C18.4756 6.33577 18.4643 6.30801 18.4643 6.27906C18.4643 6.25012 18.4756 6.22236 18.4957 6.20189C18.5158 6.18142 18.543 6.16992 18.5714 6.16992C18.5998 6.16992 18.627 6.18142 18.6471 6.20189C18.6671 6.22236 18.6784 6.25012 18.6784 6.27906V6.27906Z" fill="#FFC72C" stroke="black" stroke-width="0.0871841"/>
<path d="M22.1491 16.5469C22.1491 16.5469 22.3837 17.101 22.6513 16.7567C22.9189 16.4209 22.8242 16.274 22.8242 16.274L22.2232 15.9424L22.0461 16.3202L22.1491 16.5469V16.5469Z" fill="#FFC72C" stroke="black" stroke-width="0.0871841"/>
<path d="M22.6678 16.4755C22.6678 16.4755 22.709 16.4797 22.7378 16.421C22.7707 16.3622 22.6678 16.337 22.6184 16.2698L22.569 16.3748L22.6678 16.4755ZM21.3092 16.3244L20.7822 16.6182C20.7822 16.6182 20.5187 16.6728 20.5022 16.6182C20.4817 16.5679 20.5064 16.5217 20.6463 16.5133C20.7822 16.5091 21.1527 16.1607 21.1527 16.1607L21.3092 16.3286V16.3244ZM21.3174 6.75772L21.3339 6.95082C21.3421 7.01799 21.231 7.16071 21.2268 7.15231C21.2186 7.14392 21.1651 7.16071 21.1733 7.19849C21.1774 7.24047 21.2557 7.25306 21.2557 7.25306C21.2557 7.25306 21.2268 7.39159 21.2557 7.39998C21.2886 7.40418 21.1733 7.57629 21.2557 7.62246C21.3421 7.66864 21.4862 7.7316 21.5521 7.71901C21.618 7.70222 21.5521 7.97507 21.5521 7.97507L21.3668 8.37386L22.3714 8.26892L22.1655 7.9331C22.1655 7.9331 22.0667 7.86173 22.0914 7.66864C22.1202 7.47974 22.0791 6.60661 22.0791 6.60661L21.3627 6.50586L21.3174 6.75772V6.75772ZM21.1321 8.27731C21.1321 8.27731 20.8069 8.42843 20.8193 8.83981C20.7369 9.2386 20.6916 9.63738 20.6916 9.63738C20.6916 9.63738 20.3046 10.0823 20.1893 10.2461C20.07 10.4056 19.8929 10.7288 19.8312 10.817C19.7653 10.9009 19.51 11.1864 19.5142 11.2955C19.5224 11.4004 19.4565 11.8748 19.7118 11.9252C19.7776 11.9545 19.9876 11.3795 19.9876 11.3795C19.9876 11.3795 20 11.136 19.9259 11.0856C19.8559 11.0436 20.0823 10.8841 20.0823 10.8841L20.6175 10.4769C20.7163 10.393 20.9839 10.0907 20.9839 10.0907L21.1321 8.27731V8.27731Z" fill="#FFC6B5" stroke="black" stroke-width="0.0871841"/>
<path d="M21.5068 7.96184C21.5068 7.96184 21.5891 8.19692 21.7785 8.15494C21.9679 8.11296 22.1902 7.93666 22.1902 7.93666C22.1902 7.93666 22.3673 7.92826 22.392 7.95765C22.4167 7.98283 22.8695 8.42779 22.8531 8.56632C22.8407 8.70904 22.6472 8.66707 22.5731 8.75942C22.5031 8.85177 22.3837 9.08684 22.4167 9.26315C22.4496 9.43106 22.5484 9.65774 22.5361 9.74589C22.5237 9.82984 22.4537 9.85923 22.4537 9.9054C22.4537 9.94738 22.5114 10.0313 22.5114 10.1153C22.5114 10.2034 22.429 10.3294 22.4455 10.4175C22.4578 10.5015 22.462 10.7533 22.462 10.7533L22.4455 11.9287C22.4455 11.9287 22.5114 11.9665 22.5155 12.0337C22.5237 12.0966 22.9601 14.0318 22.9601 14.0318C22.9601 14.0318 22.9395 14.0948 22.8942 14.0864C22.849 14.078 23.0713 14.3844 23.0754 14.4726C23.0836 14.5565 23.3059 15.2366 23.2977 15.3289C23.2936 15.4213 23.2565 15.6311 23.2401 15.6353C23.2195 15.6437 23.3842 16.0635 23.3553 16.1265C23.3306 16.1936 23.0672 16.1894 23.0672 16.1894L22.993 16.1727C22.993 16.1727 22.9972 16.2608 22.9478 16.2692C22.8942 16.2734 22.5114 16.2482 22.5114 16.2482C22.5114 16.2482 22.4002 16.4203 22.3343 16.4161C22.2684 16.4077 22.182 16.2902 22.1655 16.307C22.1449 16.328 22.2232 16.4413 22.2067 16.4749C22.182 16.5085 21.8526 16.5798 21.7868 16.4203C21.7209 16.2608 21.8279 16.3028 21.8032 16.2692C21.7868 16.2356 21.6385 16.1475 21.5891 16.1727C21.548 16.202 21.7085 16.2398 21.7003 16.307C21.6962 16.3741 21.5562 16.4749 21.5068 16.4749C21.4533 16.4749 21.3298 16.2272 21.1445 16.2524C20.9634 16.2818 20.8481 16.328 20.8481 16.328C20.8481 16.328 20.6299 16.4203 20.5393 16.3993C20.4487 16.3825 20.4076 16.307 20.4076 16.2692C20.4076 16.2272 20.4734 16.0551 20.4693 16.0005C20.4611 15.9502 20.4076 15.8956 20.4076 15.8158C20.4076 15.7319 20.5599 15.4632 20.5599 15.4632L20.5516 14.2375C20.5516 14.2375 20.4158 14.2375 20.4076 14.1535C20.4034 14.0696 20.6175 12.2184 20.6546 12.0966L20.7699 11.5509C20.7699 11.5509 20.671 11.6013 20.6628 11.5509C20.6587 11.5089 20.9592 10.4511 20.9592 10.4511C20.9592 10.4511 21.0086 9.92219 21.0086 9.78367C21.0086 9.64514 20.9839 9.45205 20.9839 9.45205C20.9839 9.45205 20.7163 9.33451 20.7081 9.1582C20.6834 8.87695 20.9634 8.72164 20.9963 8.62929L21.128 8.25149C21.128 8.25149 21.2721 7.99962 21.5068 7.96184V7.96184Z" fill="white" stroke="black" stroke-width="0.0871841"/>
<path d="M21.408 16.4077C21.408 16.4077 20.774 16.7435 20.6834 16.7729C20.5928 16.7981 20.5352 16.6595 20.6258 16.6344C20.7163 16.605 20.8604 16.5924 20.8604 16.5924C20.8604 16.5924 20.6463 16.4203 20.6546 16.4119L20.951 16.3027C20.9592 16.3027 21.0416 16.4706 21.0992 16.4622C21.181 16.4218 21.2583 16.3725 21.3298 16.3153L21.408 16.4077V16.4077Z" fill="#FFC72C" stroke="black" stroke-width="0.0871841"/>
<path d="M22.2973 16.5923C22.359 16.6721 22.3796 16.8064 22.5196 16.7267C22.6555 16.6469 22.4496 16.5 22.4496 16.5L22.2973 16.5923Z" fill="#FFC6B5" stroke="black" stroke-width="0.0871841"/>
<path d="M22.5484 16.5795C22.5484 16.5795 22.6143 16.6341 22.6719 16.5711C22.7296 16.5124 22.5566 16.3864 22.5566 16.3864L22.4702 16.4872L22.5484 16.5795ZM22.8284 8.59961C22.8366 8.59961 23.0425 9.25446 23.0713 9.42237C23.096 9.59028 23.1824 10.2535 23.1495 10.3459C23.1166 10.4382 22.7831 10.8832 22.746 10.9965C22.7049 11.1099 22.4702 11.5422 22.4702 11.5422C22.4702 11.5422 22.4125 11.9704 22.3878 11.9872C22.359 12.0082 22.4537 12.1131 22.4455 12.1467C22.4331 12.1887 22.2561 12.3734 22.1779 12.3566C22.0955 12.3356 21.972 12.2433 21.972 12.1551C21.9597 12.0712 21.972 11.7815 22.0338 11.7101C22.0914 11.6346 22.4002 10.9 22.4167 10.8538C22.4372 10.8034 22.6966 10.2241 22.7049 10.1276C22.7131 10.0268 22.6225 9.79597 22.5319 9.71201C22.3261 9.09494 22.4084 8.72554 22.8284 8.59961V8.59961Z" fill="#FFC6B5" stroke="black" stroke-width="0.0871841"/>
<path d="M21.2927 6.7195C21.2927 6.7195 21.4409 6.74049 21.5192 6.69431C21.5974 6.64814 21.688 6.62715 21.7538 6.7195C21.8197 6.81185 21.865 6.80346 21.865 6.80346C21.865 6.80346 21.7662 7.05532 21.865 7.08051C21.9597 7.10569 22.0091 7.10569 22.0132 7.13928C22.0214 7.17286 21.9309 7.24422 21.9556 7.2778C21.9803 7.31138 22.0255 7.34916 22.0338 7.37855C22.0379 7.40373 21.9761 7.51707 21.9926 7.54646C22.0132 7.57164 22.075 7.67659 22.112 7.67659C22.1532 7.67659 22.1244 7.8445 22.2437 7.80252C22.359 7.76054 22.3549 7.6556 22.3549 7.6556C22.3549 7.6556 22.4784 7.63881 22.5114 7.52547C22.5402 7.41213 22.6184 7.38275 22.6184 7.38275C22.6184 7.38275 22.7748 7.29879 22.569 7.16446C22.569 6.23256 21.9679 6.33331 21.9679 6.33331C21.9679 6.33331 21.8979 6.1654 21.7785 6.18639C21.6632 6.20737 21.655 6.3459 21.5727 6.33331C21.4862 6.32071 21.4656 6.26195 21.4615 6.26614C21.4533 6.27454 21.3792 6.40887 21.3792 6.43825C21.3792 6.47183 21.1527 6.39627 21.1733 6.56418C21.1939 6.74049 21.3051 6.73209 21.2968 6.7195H21.2927Z" fill="#9C5100" stroke="black" stroke-width="0.0871841"/>
<path d="M22.3549 8.22304C22.3549 8.22304 21.7744 8.60083 21.7868 8.73516M22.4867 8.2902C22.4867 8.2902 22.3549 8.43712 22.3467 8.43712M22.6596 8.44971C22.6596 8.44971 22.3714 8.68899 22.4167 8.84011M21.3051 8.18945C21.3051 8.18945 21.2186 8.36996 21.2392 8.42872C21.2557 8.48749 21.4039 8.71417 21.4203 8.8527C21.4409 8.99542 21.4203 9.09197 21.4203 9.09197M21.1527 8.52108C21.1527 8.52108 21.1774 8.73096 21.2186 8.77294C21.2598 8.81492 21.3627 8.99542 21.3751 9.06678M21.0992 9.4068C21.0992 9.4068 21.2721 9.49076 21.4286 9.15913M21.6797 8.92826C21.6756 8.92826 21.5562 9.25148 21.7662 9.37322C21.972 9.49495 22.1326 9.47816 22.219 9.44458C22.3137 9.4152 22.4125 9.35223 22.4125 9.35223M21.5891 9.32704C21.5891 9.32704 21.6015 9.76361 22.2355 10.196M21.618 9.73842C21.618 9.73842 21.6097 10.1246 21.8567 10.2967M21.4862 9.28507C21.4862 9.28507 21.2968 9.86016 21.1445 9.91473M21.4286 9.70484C21.4286 9.70484 21.4203 10.1162 21.3668 10.2631M21.3174 10.3639C21.3174 10.3639 21.445 10.5318 21.5891 10.515C21.7332 10.5024 21.795 10.3303 21.8897 10.3555C21.9885 10.3849 22.0791 10.4646 22.3055 10.4436M21.9803 10.6158C21.9803 10.6158 21.9803 10.9558 22.042 10.9894C22.0997 11.0229 22.0708 11.3336 22.0708 11.3336M21.1857 10.4562C21.1857 10.4562 21.1774 10.7753 21.1404 10.8886C21.0992 11.0019 21.021 11.195 21.0375 11.363M20.7863 11.5477C20.8193 11.5351 20.9304 11.4343 20.9304 11.4343M20.9881 11.5057C20.9881 11.5057 20.7081 12.7314 20.7863 13.4618M21.0539 11.5686C21.0539 11.5686 20.9098 12.4838 20.9757 12.6601M20.9839 11.5393L21.5315 11.5812M21.6097 11.5057C21.6097 11.5057 21.7579 11.5896 21.9679 11.5728M21.5439 11.9548C21.5439 11.9548 21.5192 13.5206 21.478 13.869M22.3467 12.3116C22.3467 12.3116 22.5155 13.6885 22.6143 13.8144M22.0214 12.4838C22.0214 12.4838 22.1244 13.7011 22.1861 13.8102M20.5393 14.2342C20.5393 14.2342 20.7451 14.1671 20.9263 13.9698C21.1321 14.2552 21.4533 13.9824 21.4533 13.9824C21.4533 13.9824 21.9473 14.3266 22.1696 13.9404C22.5114 14.1671 22.6802 13.9068 22.6802 13.9068C22.6802 13.9068 22.8037 14.0999 22.8942 14.0789M22.3549 14.2132C22.3549 14.2132 22.606 15.4306 22.9848 15.7748" stroke="black" stroke-width="0.0871841"/>
<path d="M21.0457 14.0869C21.0457 14.0869 21.0745 15.1028 21.1321 15.8206M20.9963 15.2371C20.9963 15.2371 20.9634 15.9003 20.9263 15.9507M20.6134 16.0137C20.6134 16.0137 20.6834 16.3033 21.0416 16.0347C21.3998 15.7702 21.408 16.1354 21.4203 16.1732C21.4327 16.2152 21.4903 16.5006 21.6262 16.2613M21.9144 15.8709C21.9144 15.8709 21.8567 16.4586 22.3714 16.0305C22.886 15.5981 22.9725 16.0221 22.9889 16.1564M21.9226 6.49316C21.9226 6.49316 21.8773 6.78701 22.182 6.75762C22.1408 6.92134 22.2643 6.97171 22.2643 6.97171M22.4867 7.15221C22.4949 7.15221 22.6266 7.23617 22.4867 7.34531M22.0461 7.38309C22.0461 7.38309 22.112 7.46704 22.182 7.44605C22.2561 7.42507 22.3714 7.51742 22.3714 7.51742C22.3714 7.51742 22.4702 7.551 22.4825 7.53001M21.6468 7.63495C21.6468 7.63495 21.8691 7.72311 22.0173 7.3663M21.2392 7.25716L21.3668 7.26555M19.79 11.4549L19.8023 11.7446M19.5224 11.4297C19.5224 11.4297 19.7077 11.7446 19.6871 11.9083" stroke="black" stroke-width="0.0871841"/>
<path d="M21.2557 7.3916H21.3751L21.2721 7.43778M21.9803 12.0847C21.9803 12.0847 22.1161 12.0679 22.112 12.303C22.1985 12.0091 22.3755 12.0049 22.3755 12.0049" stroke="black" stroke-width="0.0871841" stroke-linejoin="round"/>
<path d="M21.4203 7.01743C21.4409 7.01743 21.5109 6.99225 21.5233 7.01323C21.5397 7.03003 21.445 7.04682 21.4203 7.01743Z" stroke="black" stroke-width="0.164681" stroke-linejoin="round"/>
<path d="M21.5109 18.7423C23.2295 18.6593 24.8484 17.8957 26.0232 16.6141C26.0067 16.5973 26.3896 16.0516 26.6943 16.1271C26.9989 16.2069 27.4394 17.122 27.9747 17.3193C28.2423 17.7475 27.9005 18.1379 27.7853 18.2134C27.67 18.2932 27.1512 18.5073 27.0771 18.1966C26.9989 17.8818 26.8466 17.9448 26.8466 17.9448C26.8466 17.9448 24.397 20.3795 21.5686 20.2829C18.6455 20.2997 16.2329 17.9406 16.2329 17.9406L16.0229 18.1756C16.0229 18.1756 15.7924 18.4275 15.6771 18.4107C15.5618 18.3897 15.0637 18.0581 15.0266 17.7265C14.9854 17.3949 15.3313 17.1808 15.3313 17.1808C15.3313 17.1808 16.1752 16.5175 16.2699 16.1691C16.4634 15.9718 16.8257 16.3034 16.8257 16.3034C16.8257 16.3034 19.0448 18.8977 21.5109 18.7381V18.7423Z" fill="#FFC72C" stroke="black" stroke-width="0.184055"/>
<path d="M15.2777 17.2316C15.2777 17.2316 15.5042 17.1728 15.5865 17.2694C15.6689 17.3659 16.2452 17.941 16.2452 17.941" stroke="black" stroke-width="0.184055"/>
<path d="M15.7965 17.5036L15.5659 17.6757C15.5659 17.6757 16.1423 17.7933 16.0106 18.1794M27.7688 17.214C27.7688 17.214 27.6576 17.151 27.4806 17.2853C27.2995 17.4238 26.8507 17.936 26.8507 17.936" stroke="black" stroke-width="0.184055"/>
<path d="M18.1926 17.852C18.1761 17.894 18.135 17.852 18.102 17.8604C18.0197 17.8604 17.9456 17.9192 17.8715 17.9612L17.1139 18.4103C17.0892 18.4019 17.0933 18.3809 17.1016 18.36L17.3074 17.3945C17.3157 17.3399 17.3321 17.2685 17.2786 17.2266C17.258 17.2098 17.291 17.1804 17.3074 17.2098L17.6944 17.491C17.6821 17.5288 17.6574 17.4994 17.6368 17.4868C17.5833 17.4323 17.5174 17.4826 17.5215 17.5498L17.3815 18.1837C17.5545 18.0829 17.7274 17.9822 17.9003 17.873C17.9579 17.8478 18.0032 17.7639 17.9415 17.7135C17.9168 17.6967 17.8756 17.6589 17.9168 17.6505L18.1926 17.852V17.852ZM18.4643 19.1953C18.4561 19.2205 18.4437 19.2247 18.4231 19.2079L17.9703 18.956C17.9744 18.9267 17.9867 18.9225 18.0073 18.9393C18.0485 18.9686 18.1144 18.9812 18.1473 18.9309L18.312 18.6244L18.5425 18.1962C18.5755 18.1417 18.5384 18.0787 18.489 18.0577C18.4726 18.0493 18.4479 18.0409 18.4684 18.0241C18.4767 18.0115 18.5014 18.0367 18.5137 18.0409L18.9501 18.2844C18.946 18.3096 18.9337 18.3138 18.9131 18.297C18.8719 18.2676 18.806 18.255 18.7731 18.3054L18.6084 18.6118L18.3779 19.04C18.3449 19.0904 18.382 19.1575 18.4314 19.1785L18.4643 19.1953ZM20.2182 18.7755L20.0947 19.1281C20.0411 19.124 20.0782 19.0568 20.0617 19.0232C20.0536 18.9428 20.0216 18.8668 19.9702 18.8054C19.9187 18.7439 19.8501 18.6998 19.7735 18.679C19.65 18.6454 19.5265 18.7084 19.4524 18.8091C19.3449 18.9585 19.282 19.1363 19.2713 19.3212C19.2675 19.374 19.2777 19.4268 19.3009 19.474C19.3241 19.5213 19.3594 19.5613 19.403 19.5899C19.4756 19.6361 19.5605 19.6581 19.6459 19.6529L19.7324 19.3884C19.7447 19.3296 19.683 19.2919 19.6377 19.2793C19.6294 19.2625 19.6459 19.2373 19.6665 19.2583L20.1194 19.4262C20.1194 19.4808 20.0535 19.4178 20.0164 19.443C19.9629 19.464 19.9588 19.5311 19.9341 19.5815L19.8806 19.741C19.6747 19.7536 19.4689 19.7116 19.2877 19.6067C19.1189 19.4976 18.9995 19.2835 19.0366 19.0736C19.0613 18.8931 19.1724 18.7252 19.333 18.6454C19.4812 18.5615 19.6624 18.5657 19.8188 18.6286C19.9012 18.658 19.9753 18.7126 20.0411 18.7713C20.0823 18.8259 20.1564 18.8259 20.1894 18.7671L20.2182 18.7755M20.9551 19.9845C20.9551 20.0013 20.9551 20.0223 20.9304 20.0097L20.4117 19.9299C20.4117 19.9089 20.4117 19.8921 20.4364 19.9047C20.4775 19.9131 20.5434 19.9131 20.5599 19.8628C20.5846 19.7914 20.5887 19.7158 20.6011 19.6445L20.6916 19.0316C20.704 18.9896 20.6916 18.9393 20.6463 18.9225C20.6175 18.9099 20.5928 18.9099 20.564 18.9015C20.564 18.8847 20.564 18.8679 20.5887 18.8763L21.1075 18.9602C21.1075 18.977 21.1075 18.9938 21.0827 18.9854C21.0416 18.9728 20.9798 18.977 20.9592 19.0274C20.9345 19.0946 20.9304 19.1701 20.9181 19.2415L20.8275 19.8544C20.8151 19.8963 20.8275 19.9509 20.8769 19.9677L20.9592 19.9845H20.9551ZM22.3631 19.6403L22.3426 20.0139L21.4121 20.0601C21.408 20.0391 21.4121 20.0265 21.4368 20.0307C21.4821 20.0307 21.5439 20.0097 21.5521 19.9551L21.5397 19.6781L21.5109 19.1156C21.515 19.061 21.4697 19.019 21.4162 19.0232C21.3998 19.0148 21.3545 19.04 21.3586 19.0106C21.3504 18.9854 21.3874 18.998 21.3998 18.9938L21.9185 18.9644C21.9185 18.9896 21.9185 19.0022 21.8897 18.998C21.8444 18.998 21.7826 19.0064 21.7662 19.0652C21.7621 19.1449 21.7703 19.2247 21.7744 19.3045L21.8032 19.8921C21.8032 19.9383 21.8444 19.9845 21.8938 19.9761C21.9679 19.9719 22.0461 19.9761 22.1202 19.9551C22.2232 19.9257 22.2767 19.8208 22.3055 19.7242C22.3261 19.699 22.3055 19.6319 22.3467 19.6403H22.3631M23.0836 18.7252C23.0589 18.7252 23.0713 18.7587 23.063 18.7755C23.0219 19.0904 22.9848 19.4052 22.9395 19.7158C22.9313 19.7872 22.9148 19.867 22.849 19.9005C22.8243 19.9131 22.8448 19.9509 22.8695 19.9299L23.1783 19.8334C23.1742 19.783 23.1124 19.8334 23.0795 19.8208C23.0095 19.8208 22.9972 19.7326 23.0095 19.6781C23.0095 19.6361 23.0178 19.6025 23.0219 19.5647L23.3759 19.4556C23.4212 19.5143 23.4706 19.5689 23.5118 19.6319C23.5447 19.6906 23.4706 19.7158 23.4295 19.7284C23.4048 19.7284 23.4212 19.7704 23.4418 19.7536L23.907 19.6109C23.907 19.5563 23.8412 19.6109 23.8123 19.5689C23.7218 19.5059 23.66 19.4136 23.59 19.3296L23.0836 18.7252V18.7252ZM23.0836 19.103L23.3306 19.4094L23.0301 19.5018L23.0836 19.103ZM24.6728 18.0199L24.8087 18.2718C24.7675 18.3138 24.7428 18.2256 24.7057 18.213C24.675 18.1856 24.6365 18.1688 24.5959 18.1651C24.5552 18.1613 24.5144 18.1707 24.4793 18.1921L24.397 18.2382L24.8004 19.0064C24.821 19.0694 24.8992 19.082 24.9528 19.0484C24.9692 19.0316 24.9898 19.0232 24.9939 19.0526C24.9281 19.0946 24.8498 19.1323 24.7798 19.1701L24.5122 19.317C24.4916 19.2961 24.504 19.2835 24.5287 19.2751C24.5432 19.2697 24.5563 19.2609 24.5669 19.2495C24.5775 19.238 24.5854 19.2242 24.5898 19.2091C24.5942 19.194 24.595 19.178 24.5923 19.1625C24.5896 19.147 24.5833 19.1323 24.574 19.1198L24.1746 18.3642C24.1005 18.4061 24.01 18.4397 23.9894 18.5321C23.9688 18.595 23.9976 18.6664 23.9976 18.7168C23.977 18.742 23.9688 18.7084 23.9564 18.6916L23.8453 18.4733L24.6728 18.0199V18.0199ZM25.3027 17.6379L25.558 17.9864C25.6156 17.9444 25.665 17.8772 25.6485 17.8017C25.6568 17.7429 25.5744 17.6757 25.6032 17.6338C25.6197 17.6254 25.6321 17.6673 25.6444 17.6799L25.9408 18.0787C25.8997 18.1207 25.875 18.0325 25.8338 18.0199C25.7762 17.978 25.6979 17.957 25.6362 18.0032C25.5909 18.0199 25.595 18.0451 25.6238 18.0745C25.6897 18.1627 25.7556 18.2592 25.8297 18.3474C25.8709 18.3893 25.9285 18.3474 25.9655 18.3138C26.0644 18.2466 26.1508 18.1375 26.1467 18.0115C26.1549 17.9528 26.1179 17.894 26.1179 17.8436C26.1426 17.8143 26.1467 17.8604 26.159 17.8772L26.299 18.1291L25.5744 18.6874C25.5456 18.6664 25.5744 18.6496 25.595 18.637C25.6609 18.595 25.6403 18.5069 25.595 18.4607L25.1257 17.8352C25.0845 17.7807 25.0104 17.8101 24.9733 17.8478C24.9528 17.873 24.9322 17.8268 24.961 17.8226L25.6403 17.2979L25.8256 17.5498C25.7844 17.5918 25.7432 17.4952 25.6979 17.491C25.6074 17.4407 25.5003 17.4784 25.4262 17.5414L25.2986 17.6379" fill="black"/>
</g>
</g>
<defs>
<linearGradient id="paint0_linear_1_17459" x1="17.6492" y1="6.86713" x2="17.1806" y2="6.79938" gradientUnits="userSpaceOnUse">
<stop stop-color="#FF0000"/>
<stop offset="1" stop-color="#FFFF00"/>
</linearGradient>
<linearGradient id="paint1_linear_1_17459" x1="17.6492" y1="6.86713" x2="17.1806" y2="6.79938" gradientUnits="userSpaceOnUse">
<stop stop-color="#FF0000"/>
<stop offset="1" stop-color="#FFFF00"/>
</linearGradient>
<linearGradient id="paint2_linear_1_17459" x1="17.6492" y1="6.86713" x2="17.1806" y2="6.79938" gradientUnits="userSpaceOnUse">
<stop stop-color="#FF0000"/>
<stop offset="1" stop-color="#FFFF00"/>
</linearGradient>
<linearGradient id="paint3_linear_1_17459" x1="17.6492" y1="6.86713" x2="17.1806" y2="6.79938" gradientUnits="userSpaceOnUse">
<stop stop-color="#FF0000"/>
<stop offset="1" stop-color="#FFFF00"/>
</linearGradient>
<linearGradient id="paint4_linear_1_17459" x1="17.6492" y1="6.86713" x2="17.1806" y2="6.79938" gradientUnits="userSpaceOnUse">
<stop stop-color="#FF0000"/>
<stop offset="1" stop-color="#FFFF00"/>
</linearGradient>
<linearGradient id="paint5_linear_1_17459" x1="17.6492" y1="6.86713" x2="17.1806" y2="6.79938" gradientUnits="userSpaceOnUse">
<stop stop-color="#FF0000"/>
<stop offset="1" stop-color="#FFFF00"/>
</linearGradient>
<linearGradient id="paint6_linear_1_17459" x1="17.6492" y1="6.86713" x2="17.1806" y2="6.79938" gradientUnits="userSpaceOnUse">
<stop stop-color="#FF0000"/>
<stop offset="1" stop-color="#FFFF00"/>
</linearGradient>
<linearGradient id="paint7_linear_1_17459" x1="17.6492" y1="6.86713" x2="17.1806" y2="6.79938" gradientUnits="userSpaceOnUse">
<stop stop-color="#FF0000"/>
<stop offset="1" stop-color="#FFFF00"/>
</linearGradient>
<linearGradient id="paint8_linear_1_17459" x1="17.6492" y1="6.86713" x2="17.1806" y2="6.79938" gradientUnits="userSpaceOnUse">
<stop stop-color="#FF0000"/>
<stop offset="1" stop-color="#FFFF00"/>
</linearGradient>
<linearGradient id="paint9_linear_1_17459" x1="17.6492" y1="6.86713" x2="17.1806" y2="6.79938" gradientUnits="userSpaceOnUse">
<stop stop-color="#FF0000"/>
<stop offset="1" stop-color="#FFFF00"/>
</linearGradient>
<linearGradient id="paint10_linear_1_17459" x1="17.6492" y1="6.86713" x2="17.1806" y2="6.79938" gradientUnits="userSpaceOnUse">
<stop stop-color="#FF0000"/>
<stop offset="1" stop-color="#FFFF00"/>
</linearGradient>
<linearGradient id="paint11_linear_1_17459" x1="17.6492" y1="6.86713" x2="17.1806" y2="6.79938" gradientUnits="userSpaceOnUse">
<stop stop-color="#FF0000"/>
<stop offset="1" stop-color="#FFFF00"/>
</linearGradient>
<clipPath id="clip0_1_17459">
<rect width="34" height="26" fill="white" transform="translate(-4)"/>
</clipPath>
</defs>
</svg>
