<svg width="26" height="26" viewBox="0 0 26 26" fill="none" xmlns="http://www.w3.org/2000/svg">
<mask id="mask0_1_14789" style="mask-type:alpha" maskUnits="userSpaceOnUse" x="0" y="0" width="26" height="26">
<circle cx="13" cy="13" r="13" fill="#634848"/>
</mask>
<g mask="url(#mask0_1_14789)">
<g clip-path="url(#clip0_1_14789)">
<path d="M-1 0H27V27H-1V0Z" fill="white"/>
<path d="M7.9414 16.664C7.9414 16.664 7.91953 16.5111 8.20937 16.4003C8.49922 16.2949 8.52109 15.8888 8.46641 15.6199C8.46641 15.6199 8.31328 15.8783 8.12734 15.9626C8.12734 15.9626 7.82656 16.1156 7.81016 16.4056C7.81016 16.4056 7.81015 16.5111 7.78828 16.5902C7.77734 16.6376 7.64062 16.2316 7.89765 15.9257C8.15469 15.6146 8.22578 15.3615 8.02344 14.871C8.02344 14.871 8.00156 15.1664 7.79922 15.3404C7.5914 15.5091 7.56953 15.525 7.56953 15.931C7.56953 15.931 7.56953 16.0734 7.49844 16.1209C7.49844 16.1209 7.33437 15.8941 7.29609 15.7517C7.25234 15.5988 7.23594 15.5408 7.4164 15.3667C7.4164 15.3667 7.99609 15.0029 7.58047 14.2066C7.58047 14.2066 7.56406 14.4861 7.36172 14.6443C7.16484 14.8025 7.18125 14.9132 7.17031 15.1927C7.15937 15.4722 7.1375 15.4564 7.11562 15.4933C7.11562 15.4933 6.74922 14.8394 7.03359 14.4914C7.31797 14.1433 7.47656 14.0695 7.16484 13.4208C7.16484 13.4208 7.17578 13.7531 6.92422 13.9166C6.67265 14.08 6.73281 14.4703 6.73281 14.4703C6.73281 14.4703 6.74922 14.6126 6.69453 14.7181C6.69453 14.7181 6.33906 14.0484 6.67812 13.6898C6.96797 13.3839 6.98984 13.1677 6.83125 12.7353C6.83125 12.7353 6.81484 12.9357 6.65625 13.0464C6.49219 13.1519 6.37187 13.2574 6.39922 13.6792C6.39922 13.6792 6.41015 13.9693 6.37187 14.0484C6.37187 14.0484 6.22422 13.7847 6.18047 13.6107C6.14219 13.4367 6.12578 13.3365 6.23515 13.1625C6.34453 12.9884 6.78203 12.4875 6.25703 11.7703C6.25703 11.7703 6.24062 12.0023 6.10937 12.2132C5.97812 12.4242 6.03828 12.672 6.06562 12.8619C6.09844 13.0517 6 13.2363 6 13.2363C6 13.2363 5.77578 12.8355 5.81953 12.3767C5.87422 11.9179 5.67734 11.533 5.23437 11.2693C5.23437 11.2693 4.91719 11.9812 5.35469 12.3451C5.35469 12.3451 5.72656 12.7037 5.81953 13.1361C5.81953 13.1361 5.53515 13.1044 5.28359 12.6246C5.02656 12.15 4.49609 12.2238 4.46328 12.2185C4.46328 12.2185 4.54531 12.9568 5.36015 13.1677C5.36015 13.1677 5.88515 13.2574 5.97812 13.6265C5.97812 13.6265 6.06562 13.8796 6.1039 14.0167C6.1039 14.0167 5.93984 13.9535 5.78672 13.7373C5.63359 13.5158 5.65547 13.4894 5.1414 13.4419C5.1414 13.4419 4.93359 13.4208 4.82422 13.2785C4.82422 13.2785 5.04297 14.0642 5.59531 14.0589C5.59531 14.0589 6.10391 14.0062 6.38828 14.6496L6.25703 14.5652C6.18594 14.5125 5.99453 14.4228 5.62265 14.4703C5.25078 14.5177 5.14687 14.4492 5.0539 14.4175C5.0539 14.4175 5.43125 15.0873 5.96172 14.8921C6.49219 14.6917 6.74922 15.4089 6.75469 15.4248C6.75469 15.4248 6.68359 15.372 6.59062 15.2824C6.49765 15.1927 6.30078 15.0873 5.93437 15.198C5.93437 15.198 5.6664 15.2982 5.39844 15.2191C5.39844 15.2191 5.65547 15.699 6.2625 15.6199C6.86406 15.5355 7.02265 16.0523 7.02265 16.0523L6.88594 15.9626C6.83125 15.9205 6.62344 15.8044 6.18594 15.931C5.74844 16.0576 5.58984 15.9099 5.58984 15.9099C5.58984 15.9099 5.83594 16.3371 6.30078 16.3845C6.30078 16.3845 6.55781 16.3845 6.67265 16.3476C6.77825 16.3045 6.89613 16.2983 7.00596 16.3301C7.11579 16.3618 7.21067 16.4296 7.27422 16.5216C7.27422 16.5216 7.21953 16.5322 7.13203 16.4953C7.13203 16.4953 6.82031 16.3898 6.58515 16.5796C6.58515 16.5796 6.37734 16.7906 6.07656 16.7484C6.07656 16.7484 6.45937 17.107 7.07734 16.8011C7.07734 16.8011 7.28515 16.6587 7.43281 16.7695C7.58594 16.8802 7.9414 16.664 7.9414 16.664V16.664Z" fill="#369443" stroke="#010002" stroke-width="0.15" stroke-miterlimit="10"/>
<path d="M11.3484 7.75187C11.3484 7.75187 11.2773 7.13487 11.7859 7.07687C12.3109 7.01886 12.5734 7.12433 12.5734 7.12433L12.8086 7.57257L12.7266 7.87843L12.3984 8.02081C12.3984 8.02081 12.4531 7.55675 12.0156 7.5462C11.9062 7.5462 11.8352 7.58839 11.6602 7.56202C11.4797 7.53038 11.3867 7.72023 11.3484 7.74659V7.75187Z" fill="#F4C53D" stroke="#010002" stroke-width="0.15" stroke-miterlimit="10"/>
<path d="M14.9141 9.26537C14.8375 9.3603 14.5367 9.39194 14.5367 9.39194C14.5367 9.39194 14.8484 9.61869 14.9797 9.95092C15.1164 10.2779 11.3813 9.95092 11.3813 9.95092C11.3813 9.95092 11.5453 9.84018 11.6547 9.63451C11.6547 9.63451 11.4906 9.68725 11.3211 9.52905C11.3211 9.52905 11.4469 9.57123 11.6055 9.33393C11.6055 9.33393 11.8461 9.03862 12.0156 8.95951C12.0156 8.95951 11.9336 9.00698 11.7477 8.90678C11.7477 8.90678 12.0758 8.86459 12.1852 8.33198C12.1852 8.33198 12.207 8.21596 12.3328 8.04194C12.4531 7.87319 12.4258 8.07885 12.6555 7.81518C12.6555 7.81518 12.7594 7.62533 12.6664 7.51459C12.5734 7.40385 12.4805 7.44076 12.2891 7.33002C12.0977 7.21928 12.0156 7.16127 12.0813 6.99252C12.1469 6.82377 12.3109 6.85014 12.3383 6.85014C12.3602 6.85014 12.3766 6.70248 12.5789 6.60229C12.853 6.52391 13.144 6.51844 13.4211 6.58647C13.5031 6.63393 13.8367 6.72885 14.0281 7.19819C14.225 7.6728 13.9734 7.85209 14.5094 8.56928C14.5094 8.56928 14.2906 8.61147 14.1594 8.56928C14.1594 8.56928 14.4328 9.04389 14.9141 9.26537V9.26537Z" fill="#F4C53D" stroke="#010002" stroke-width="0.15" stroke-miterlimit="10"/>
<path d="M12.6008 7.2667C12.1742 7.24561 12.3383 6.8501 12.3383 6.8501" stroke="#010002" stroke-width="0.15" stroke-miterlimit="10"/>
<path d="M13.35 7.31947C13.35 7.31947 13.2734 7.28255 13.2133 7.20345C13.1203 7.08743 12.918 7.0347 12.8086 7.14017C12.8086 7.14017 12.6992 7.26146 12.6008 7.26673C12.6008 7.26673 12.7102 7.29837 12.7867 7.36693C12.8633 7.43548 12.9453 7.48294 13.0602 7.47239C13.1695 7.4513 13.1914 7.39329 13.2406 7.36165C13.2953 7.32474 13.35 7.31947 13.35 7.31947V7.31947Z" fill="#F4C53D" stroke="#010002" stroke-width="0.15" stroke-miterlimit="10"/>
<path d="M7.87578 17.571C7.87578 17.571 7.86484 17.3074 8.21484 17.281L9.24297 18.6626C9.24297 18.6626 9.20469 18.7523 8.73984 18.7417C8.73984 18.7417 8.68516 18.7417 8.66328 18.7945C8.625 18.8789 7.87578 17.571 7.87578 17.571Z" fill="#369443" stroke="#010002" stroke-width="0.15" stroke-miterlimit="10"/>
<path d="M9.00551 15.965C9.00551 15.965 8.67684 16.5087 8.27967 16.5176C8.27967 16.5176 7.59664 16.4376 7.40365 16.6097C7.26863 16.7297 7.13097 16.8288 7.07433 17.1356C7.019 17.4423 7.183 17.5084 7.22186 17.5217C7.22186 17.5217 7.25216 17.7409 7.47676 17.6837C7.47676 17.6837 7.48994 17.9123 7.88645 17.8025C8.28362 17.6926 8.44828 17.7275 8.52534 17.3464C8.60372 16.9647 8.67552 16.9711 8.74599 16.9254C8.84084 16.8637 9.01934 16.8059 9.15173 16.7323C9.27028 16.6662 9.72608 16.4427 9.88152 16.4255C10.037 16.4077 10.0027 15.9034 10.0027 15.9034H9.60093L9.40663 15.6271L9.00485 15.965H9.00551ZM10.2701 13.2378C10.2701 13.2378 9.86835 13.5534 9.53111 13.2378C9.53111 13.2378 9.39543 13.3953 9.12275 13.3496C8.85138 13.3032 8.80593 13.1654 8.78025 13.0866C8.78025 13.0866 8.54445 13.2187 8.34553 13.1139C8.14794 13.0098 8.14794 12.8516 8.14794 12.8516C8.14794 12.8516 7.80214 12.9177 7.62496 12.6916C7.44778 12.4661 7.5558 12.2425 7.65131 12.2158C7.65131 12.2158 7.27785 12.3105 7.17576 12.0012C7.14858 11.9321 7.14437 11.8566 7.16373 11.7851C7.18309 11.7136 7.22505 11.6497 7.28378 11.6023C7.28378 11.6023 6.49734 11.5985 6.1746 11.361C6.1746 11.361 5.90653 11.1984 6.06658 11.0275C6.06658 11.0275 5.35853 10.9183 5.18135 10.6464C5.18135 10.6464 5.10363 10.5715 5.12931 10.44C5.12931 10.44 5.13392 10.3657 5.21165 10.3613C5.21165 10.3613 4.40413 10.2406 4.17097 9.98399C4.17097 9.98399 4.059 9.86585 4.11498 9.7077C4.11498 9.7077 4.12684 9.66642 4.14594 9.63784C4.14594 9.63784 3.41088 9.48858 3.04862 9.17292C3.04862 9.17292 2.83917 8.99318 2.94718 8.75183C2.94718 8.75183 1.71879 8.42791 2.00333 7.90583C2.00333 7.90583 1.42898 7.72609 1.61077 7.22624C1.61077 7.22624 1.13588 6.99378 1.3427 6.6254C1.54095 6.2729 2.15021 6.68701 2.87078 6.87946C2.87078 6.87946 4.82304 7.4714 5.78402 7.62891L8.51481 11.5496L10.1081 12.1415L10.2695 13.2378H10.2701Z" fill="#F4C53D" stroke="#010002" stroke-width="0.15055"/>
<path d="M10.2892 10.3505C10.2892 10.3505 10.033 10.165 9.57656 10.3829C9.57656 10.3829 9.42309 10.4851 9.3019 10.3734C9.27562 10.3492 9.25523 10.3197 9.2422 10.287C9.22916 10.2543 9.22381 10.2192 9.22651 10.1843C9.22922 10.1494 9.23993 10.1155 9.25786 10.085C9.2758 10.0545 9.30051 10.0283 9.33022 10.0082C9.67075 9.7649 9.79655 9.03513 9.27885 8.73217C9.27885 8.73217 8.52798 8.30282 5.77282 7.62704C5.77282 7.62704 5.54229 7.5648 5.41846 7.59465C5.35856 7.60939 5.3039 7.63949 5.2603 7.68175C5.2167 7.72402 5.18577 7.77688 5.17081 7.83473C5.17081 7.83473 5.04698 8.17326 5.46194 8.36697C5.46194 8.36697 5.64899 8.44954 5.84198 8.50289C5.84198 8.50289 5.62989 8.45843 5.539 8.6604C5.45337 8.85348 5.57852 9.05101 5.96712 9.17804C5.96712 9.17804 6.07251 9.21741 6.22202 9.25235C6.22202 9.25235 5.8894 9.34444 6.04946 9.60357C6.04946 9.60357 6.19173 9.87541 6.69494 9.92368C6.69494 9.92368 6.31951 9.96306 6.58429 10.3073C6.58429 10.3073 6.70087 10.4959 7.06774 10.5658C7.06774 10.5658 6.78979 10.5747 6.92942 10.8154C7.07037 11.0568 7.40036 11.1927 7.72574 11.2149C7.72574 11.2149 7.9016 11.2238 8.02477 11.1971C8.02477 11.1971 7.7152 11.3464 7.89699 11.596C7.89699 11.596 8.0307 11.7738 8.36529 11.7649C8.36529 11.7649 8.27901 12.0444 8.52403 12.1498C8.71504 12.2324 8.87377 12.1003 8.87377 12.1003C8.87377 12.1003 8.80923 12.3994 9.08784 12.5049C9.08784 12.5049 9.22681 12.5741 9.43429 12.5049C9.43429 12.5049 9.59237 12.8472 10.1562 12.6065C10.72 12.367 10.2892 10.3511 10.2892 10.3511V10.3505ZM10.3222 13.4588C10.3222 13.4588 10.2398 13.8869 9.58447 14.4255C9.58447 14.4255 9.07862 14.8555 9.09113 15.3509C9.1043 15.8558 9.0009 15.9123 8.80198 16.0832C8.80198 16.0832 9.21232 16.1143 9.41058 15.8507C9.41058 15.8507 9.40202 16.289 9.34142 16.329C9.34142 16.329 9.47052 16.3366 9.65692 16.1404C9.65692 16.1404 9.76889 16.026 9.87296 15.9822C9.87296 15.9822 9.75176 16.2852 9.84661 16.5659C9.84661 16.5659 9.87691 16.456 10.037 16.4078C10.037 16.4078 10.3268 16.3506 10.4387 15.9473C10.4387 15.9473 10.5119 15.6805 10.9657 15.443C10.9657 15.443 11.4794 15.2563 11.4662 15.0124C11.4531 14.7678 10.3228 13.4588 10.3228 13.4588H10.3222Z" fill="#F4C53D" stroke="#010002" stroke-width="0.15055"/>
<path d="M12.7039 18.9775C12.7039 18.9775 12.586 19.4779 12.1769 19.4379C12.1769 19.4379 11.8878 19.4113 11.9095 18.9463C11.9095 18.9463 11.4821 19.1661 11.4129 18.6224C11.4129 18.6224 11.0243 18.7094 11.0289 18.2013C11.0289 18.2013 10.6666 18.2623 10.7094 17.8107C10.7094 17.8107 10.3162 17.9123 10.3162 17.4868C10.3162 17.4868 9.39675 17.3395 11.3134 15.6538L13.0233 16.6357L12.7039 18.9775V18.9775Z" fill="#F4C53D" stroke="#010002" stroke-width="0.15055" stroke-miterlimit="10"/>
<path d="M12.8942 16.7298C12.8942 16.7298 12.609 16.9737 12.4061 16.6091C12.4061 16.6091 12.1295 16.5964 12.0867 16.3944C12.0867 16.3944 11.8621 16.3728 11.8186 16.1664C11.8186 16.1664 11.5124 16.1359 11.5209 15.8863C11.5209 15.8863 10.9637 15.8444 11.5209 15.2359C12.0781 14.6275 13.0233 16.2458 13.0233 16.2458L12.8942 16.7298ZM13.2117 16.5786C13.4883 16.5786 13.8012 18.2426 13.7202 19.2455C13.6905 19.6095 13.4883 19.9067 13.2117 19.9067C12.935 19.9067 12.7335 19.6095 12.7045 19.2455C12.6228 18.2426 12.9357 16.5786 13.2117 16.5786Z" fill="#F4C53D" stroke="#010002" stroke-width="0.15055"/>
<path d="M13.2117 17.1121C13.4227 17.1121 13.5937 16.8675 13.5937 16.5659C13.5937 16.2642 13.4227 16.0197 13.2117 16.0197C13.0007 16.0197 12.8297 16.2642 12.8297 16.5659C12.8297 16.8675 13.0007 17.1121 13.2117 17.1121Z" fill="#F4C53D" stroke="#010002" stroke-width="0.15055"/>
<path d="M11.9095 18.9463C11.9095 18.9463 11.953 18.0654 12.7447 16.8021M11.4129 18.6224C11.4129 18.6224 11.2897 18.1137 12.4061 16.609C12.4061 16.609 12.2764 16.2502 12.6736 16.0196M11.0289 18.2013C11.0289 18.2013 10.994 17.6507 12.0867 16.3944C12.0867 16.3944 11.9899 16.0704 12.3857 15.8113M10.7094 17.8107C10.7094 17.8107 10.7503 17.2543 11.8186 16.1663C11.8186 16.1663 11.7659 15.8335 12.148 15.6271M10.3169 17.4868C10.3169 17.4868 10.394 16.851 11.5209 15.8863C11.5209 15.8863 11.4821 15.636 11.8575 15.382" stroke="#010002" stroke-width="0.15055" stroke-miterlimit="10"/>
<path d="M1.61077 7.2262C1.61077 7.2262 2.49535 7.72033 5.25248 8.21446M2.00333 7.90579C2.00333 7.90579 4.39886 8.65906 5.51463 8.75179M2.94653 8.75179C2.94653 8.75179 4.3521 9.17732 5.99808 9.44599M4.14594 9.63843C4.14594 9.63843 5.7333 10.0062 6.49207 10.0671M5.21164 10.3612C5.21164 10.3612 6.55464 10.6311 6.89451 10.6635M6.06658 11.0275C6.06658 11.0275 7.04666 11.171 7.43659 11.1634M7.28378 11.6016C7.28378 11.6016 7.68029 11.5838 7.87064 11.5534M7.65065 12.2158C7.65065 12.2158 7.98788 12.1282 8.18614 12.0056M8.14728 12.8516C8.14728 12.8516 8.40679 12.755 8.53193 12.4921M8.78024 13.0866C8.78024 13.0866 8.98048 12.9132 8.99365 12.7201M9.53111 13.2377C9.53111 13.2377 9.45602 13.1749 9.5074 12.903M9.43429 12.5041C9.43429 12.5041 9.39477 12.4267 9.40794 12.3034M8.01818 8.61142C8.01818 8.61142 8.47133 8.78672 8.62217 9.02807C8.77366 9.26942 8.6742 9.50378 8.62217 9.6378C8.59648 9.70575 8.27703 10.2996 8.65247 10.7296M8.02411 11.1958C8.02411 11.1958 8.02674 11.1939 8.18614 11.145M7.06774 10.5645C7.06774 10.5645 7.33779 10.6165 7.60323 10.6191M6.69428 9.9217C6.69428 9.9217 7.01175 9.95282 7.31012 9.94838M6.22202 9.251C6.22202 9.251 6.67979 9.33865 6.92547 9.34309M5.84198 8.50281C5.84198 8.50281 6.40645 8.65779 6.82601 8.71304M7.75867 9.03315C7.75867 9.03315 7.35294 9.39708 7.841 9.73497C7.841 9.73497 7.63813 10.0417 8.04387 10.3618M7.93585 10.513C7.93585 10.513 7.87525 11.0986 8.61821 11.0986C8.61821 11.0986 8.47529 11.62 9.19256 11.6029C9.19256 11.6029 9.27424 12.0195 9.79194 11.9357M8.65181 16.5182C8.65181 16.5182 8.53391 16.5436 8.27901 16.5182M7.56239 16.825C7.56239 16.825 7.20408 16.7722 7.2212 17.5223M7.77843 16.9958C7.77843 16.9958 7.45437 16.9564 7.47545 17.6843M10.9051 15.2422C10.9051 15.2422 10.7496 15.2727 10.6416 15.3915C10.5342 15.5096 10.3268 15.4874 10.3268 15.4874C10.3268 15.4874 10.4387 15.3997 10.4783 15.1806C10.5165 14.9615 10.6423 14.8954 10.6423 14.8954M10.2714 14.6884C10.2714 14.6884 10.116 14.7189 10.008 14.837C9.89996 14.9558 9.69248 14.9335 9.69248 14.9335C9.69248 14.9335 9.80445 14.8459 9.84397 14.6268C9.88283 14.4076 10.008 14.3416 10.008 14.3416M10.1641 15.5388C10.1641 15.5388 10.0284 15.5661 9.93421 15.669C9.84002 15.7725 9.65889 15.7535 9.65889 15.7535C9.65889 15.7535 9.75769 15.6773 9.79062 15.4855C9.82487 15.2943 9.93421 15.2365 9.93421 15.2365" stroke="#010002" stroke-width="0.15055"/>
<path d="M17.3117 15.965C17.3117 15.965 17.6404 16.5087 18.0375 16.5176C18.0375 16.5176 18.7205 16.4376 18.9135 16.6097C19.0486 16.7297 19.1862 16.8288 19.2429 17.1356C19.2982 17.4423 19.1342 17.5084 19.0953 17.5217C19.0953 17.5217 19.065 17.7409 18.8404 17.6837C18.8404 17.6837 18.8273 17.9123 18.4307 17.8025C18.0336 17.6926 17.8689 17.7275 17.7918 17.3464C17.7135 16.9647 17.6417 16.9711 17.5712 16.9254C17.4763 16.8637 17.2979 16.8059 17.1655 16.7323C17.0469 16.6662 16.5911 16.4427 16.4357 16.4255C16.2802 16.4077 16.3145 15.9034 16.3145 15.9034H16.7163L16.9106 15.6271L17.3123 15.965H17.3117ZM16.0471 13.2378C16.0471 13.2378 16.4488 13.5534 16.7861 13.2378C16.7861 13.2378 16.9218 13.3953 17.1944 13.3496C17.4658 13.3032 17.5113 13.1654 17.5369 13.0866C17.5369 13.0866 17.7727 13.2187 17.9717 13.1139C18.1693 13.0098 18.1693 12.8516 18.1693 12.8516C18.1693 12.8516 18.515 12.9177 18.6922 12.6916C18.8694 12.4661 18.7614 12.2425 18.6659 12.2158C18.6659 12.2158 19.0393 12.3105 19.1414 12.0012C19.1686 11.9321 19.1728 11.8566 19.1535 11.7851C19.1341 11.7136 19.0921 11.6497 19.0334 11.6023C19.0334 11.6023 19.8198 11.5985 20.1426 11.361C20.1426 11.361 20.4107 11.1984 20.2506 11.0275C20.2506 11.0275 20.9587 10.9183 21.1358 10.6464C21.1358 10.6464 21.2136 10.5715 21.1879 10.44C21.1879 10.44 21.1833 10.3657 21.1055 10.3613C21.1055 10.3613 21.9131 10.2406 22.1462 9.98399C22.1462 9.98399 22.2582 9.86585 22.2022 9.7077C22.2022 9.7077 22.1904 9.66642 22.1712 9.63784C22.1712 9.63784 22.9063 9.48858 23.2686 9.17292C23.2686 9.17292 23.478 8.99318 23.37 8.75183C23.37 8.75183 24.5984 8.42791 24.3139 7.90583C24.3139 7.90583 24.8882 7.72609 24.7064 7.22624C24.7064 7.22624 25.1813 6.99378 24.9745 6.6254C24.7762 6.2729 24.167 6.68701 23.4464 6.87946C23.4464 6.87946 21.4942 7.4714 20.5332 7.62891L17.8024 11.5496L16.2091 12.1415L16.0477 13.2378H16.0471Z" fill="#F4C53D" stroke="#010002" stroke-width="0.15055"/>
<path d="M16.028 10.3505C16.028 10.3505 16.2842 10.165 16.7406 10.3829C16.7406 10.3829 16.8941 10.4851 17.0153 10.3734C17.0416 10.3492 17.062 10.3197 17.075 10.287C17.088 10.2543 17.0934 10.2192 17.0907 10.1843C17.088 10.1494 17.0773 10.1155 17.0593 10.085C17.0414 10.0545 17.0167 10.0283 16.987 10.0082C16.6464 9.7649 16.5206 9.03513 17.0383 8.73217C17.0383 8.73217 17.7892 8.30282 20.5444 7.62704C20.5444 7.62704 20.7749 7.5648 20.8987 7.59465C20.9586 7.60939 21.0133 7.63949 21.0569 7.68175C21.1005 7.72402 21.1314 7.77688 21.1464 7.83473C21.1464 7.83473 21.2702 8.17326 20.8553 8.36697C20.8553 8.36697 20.6682 8.44954 20.4752 8.50289C20.4752 8.50289 20.6873 8.45843 20.7782 8.6604C20.8638 8.85348 20.7387 9.05101 20.3501 9.17804C20.3501 9.17804 20.2447 9.21741 20.0952 9.25235C20.0952 9.25235 20.4278 9.34444 20.2677 9.60357C20.2677 9.60357 20.1255 9.87541 19.6223 9.92368C19.6223 9.92368 19.9977 9.96306 19.7329 10.3073C19.7329 10.3073 19.6163 10.4959 19.2495 10.5658C19.2495 10.5658 19.5274 10.5747 19.3878 10.8154C19.2468 11.0568 18.9168 11.1927 18.5915 11.2149C18.5915 11.2149 18.4156 11.2238 18.2924 11.1971C18.2924 11.1971 18.602 11.3464 18.4202 11.596C18.4202 11.596 18.2865 11.7738 17.9519 11.7649C17.9519 11.7649 18.0382 12.0444 17.7932 12.1498C17.6022 12.2324 17.4434 12.1003 17.4434 12.1003C17.4434 12.1003 17.508 12.3994 17.2294 12.5049C17.2294 12.5049 17.0904 12.5741 16.8829 12.5049C16.8829 12.5049 16.7248 12.8472 16.161 12.6065C15.5972 12.367 16.028 10.3511 16.028 10.3511V10.3505ZM15.995 13.4588C15.995 13.4588 16.0774 13.8869 16.7327 14.4255C16.7327 14.4255 17.2386 14.8555 17.2261 15.3509C17.2129 15.8558 17.3163 15.9123 17.5152 16.0832C17.5152 16.0832 17.1049 16.1143 16.9066 15.8507C16.9066 15.8507 16.9152 16.289 16.9758 16.329C16.9758 16.329 16.8467 16.3366 16.6603 16.1404C16.6603 16.1404 16.5483 16.026 16.4442 15.9822C16.4442 15.9822 16.5654 16.2852 16.4706 16.5659C16.4706 16.5659 16.4403 16.456 16.2802 16.4078C16.2802 16.4078 15.9904 16.3506 15.8784 15.9473C15.8784 15.9473 15.8053 15.6805 15.3515 15.443C15.3515 15.443 14.8378 15.2563 14.8509 15.0124C14.8641 14.7678 15.9944 13.4588 15.9944 13.4588H15.995Z" fill="#F4C53D" stroke="#010002" stroke-width="0.15055"/>
<path d="M13.6133 18.9775C13.6133 18.9775 13.7312 19.4779 14.1403 19.4379C14.1403 19.4379 14.4294 19.4113 14.4077 18.9463C14.4077 18.9463 14.8351 19.1661 14.9043 18.6224C14.9043 18.6224 15.2929 18.7094 15.2883 18.2013C15.2883 18.2013 15.6506 18.2623 15.6077 17.8107C15.6077 17.8107 16.001 17.9123 16.001 17.4868C16.001 17.4868 16.9204 17.3395 15.0038 15.6538L13.2939 16.6357L13.6133 18.9775V18.9775Z" fill="#F4C53D" stroke="#010002" stroke-width="0.15055" stroke-miterlimit="10"/>
<path d="M13.423 16.7298C13.423 16.7298 13.7082 16.9737 13.911 16.6091C13.911 16.6091 14.1877 16.5964 14.2305 16.3944C14.2305 16.3944 14.4551 16.3728 14.4986 16.1664C14.4986 16.1664 14.8048 16.1359 14.7963 15.8863C14.7963 15.8863 15.3535 15.8444 14.7963 15.2359C14.2391 14.6275 13.2939 16.2458 13.2939 16.2458L13.423 16.7298ZM13.1055 16.5786C12.8289 16.5786 12.516 18.2426 12.597 19.2455C12.6267 19.6095 12.8289 19.9067 13.1055 19.9067C13.3821 19.9067 13.5837 19.6095 13.6127 19.2455C13.6943 18.2426 13.3815 16.5786 13.1055 16.5786Z" fill="#F4C53D" stroke="#010002" stroke-width="0.15055"/>
<path d="M13.1055 17.1121C12.8945 17.1121 12.7235 16.8675 12.7235 16.5659C12.7235 16.2642 12.8945 16.0197 13.1055 16.0197C13.3165 16.0197 13.4875 16.2642 13.4875 16.5659C13.4875 16.8675 13.3165 17.1121 13.1055 17.1121Z" fill="#F4C53D" stroke="#010002" stroke-width="0.15055"/>
<path d="M14.4077 18.9463C14.4077 18.9463 14.3642 18.0654 13.5725 16.8021M14.9043 18.6224C14.9043 18.6224 15.0275 18.1137 13.911 16.609C13.911 16.609 14.0408 16.2502 13.6436 16.0196M15.2883 18.2013C15.2883 18.2013 15.3232 17.6507 14.2305 16.3944C14.2305 16.3944 14.3273 16.0704 13.9315 15.8113M15.6077 17.8107C15.6077 17.8107 15.5669 17.2543 14.4986 16.1663C14.4986 16.1663 14.5513 15.8335 14.1692 15.6271M16.0003 17.4868C16.0003 17.4868 15.9232 16.851 14.7963 15.8863C14.7963 15.8863 14.8351 15.636 14.4597 15.382" stroke="#010002" stroke-width="0.15055" stroke-miterlimit="10"/>
<path d="M24.7064 7.2262C24.7064 7.2262 23.8218 7.72033 21.0647 8.21446M24.3139 7.90579C24.3139 7.90579 21.9183 8.65906 20.8026 8.75179M23.3707 8.75179C23.3707 8.75179 21.9651 9.17732 20.3191 9.44599M22.1713 9.63843C22.1713 9.63843 20.5839 10.0062 19.8251 10.0671M21.1055 10.3612C21.1055 10.3612 19.7625 10.6311 19.4227 10.6635M20.2506 11.0275C20.2506 11.0275 19.2705 11.171 18.8806 11.1634M19.0334 11.6016C19.0334 11.6016 18.6369 11.5838 18.4466 11.5534M18.6665 12.2158C18.6665 12.2158 18.3293 12.1282 18.1311 12.0056M18.1699 12.8516C18.1699 12.8516 17.9104 12.755 17.7853 12.4921M17.5369 13.0866C17.5369 13.0866 17.3367 12.9132 17.3235 12.7201M16.7861 13.2377C16.7861 13.2377 16.8612 13.1749 16.8098 12.903M16.8829 12.5041C16.8829 12.5041 16.9224 12.4267 16.9092 12.3034M18.299 8.61142C18.299 8.61142 17.8459 8.78672 17.695 9.02807C17.5435 9.26942 17.643 9.50378 17.695 9.6378C17.7207 9.70575 18.0402 10.2996 17.6647 10.7296M18.2931 11.1958C18.2931 11.1958 18.2905 11.1939 18.1311 11.145M19.2495 10.5645C19.2495 10.5645 18.9794 10.6165 18.714 10.6191M19.6229 9.9217C19.6229 9.9217 19.3054 9.95282 19.0071 9.94838M20.0952 9.251C20.0952 9.251 19.6374 9.33865 19.3917 9.34309M20.4752 8.50281C20.4752 8.50281 19.9107 8.65779 19.4912 8.71304M18.5585 9.03315C18.5585 9.03315 18.9643 9.39708 18.4762 9.73497C18.4762 9.73497 18.6791 10.0417 18.2733 10.3618M18.3813 10.513C18.3813 10.513 18.4419 11.0986 17.699 11.0986C17.699 11.0986 17.8419 11.62 17.1246 11.6029C17.1246 11.6029 17.043 12.0195 16.5253 11.9357M17.6654 16.5182C17.6654 16.5182 17.7833 16.5436 18.0382 16.5182M18.7548 16.825C18.7548 16.825 19.1131 16.7722 19.096 17.5223M18.5388 16.9958C18.5388 16.9958 18.8628 16.9564 18.8417 17.6843M15.4121 15.2422C15.4121 15.2422 15.5676 15.2727 15.6756 15.3915C15.7829 15.5096 15.9904 15.4874 15.9904 15.4874C15.9904 15.4874 15.8785 15.3997 15.8389 15.1806C15.8007 14.9615 15.6749 14.8954 15.6749 14.8954M16.0458 14.6884C16.0458 14.6884 16.2012 14.7189 16.3092 14.837C16.4172 14.9558 16.6247 14.9335 16.6247 14.9335C16.6247 14.9335 16.5127 14.8459 16.4732 14.6268C16.4344 14.4076 16.3092 14.3416 16.3092 14.3416M16.1531 15.5388C16.1531 15.5388 16.2888 15.5661 16.383 15.669C16.4772 15.7725 16.6583 15.7535 16.6583 15.7535C16.6583 15.7535 16.5595 15.6773 16.5266 15.4855C16.4923 15.2943 16.383 15.2365 16.383 15.2365" stroke="#010002" stroke-width="0.15055"/>
<path d="M19.7648 14.3807L19.3875 14.1698L18.7641 16.7801L18.507 16.6008L19.1141 14.1012L18.6875 14.1118L19.6992 12.3293L19.7648 14.386V14.3807ZM21.2414 15.0874L21.0063 14.7182L19.125 16.8645L18.9227 16.643L20.7984 14.5336L20.4156 14.3333L22.1328 13.2417L21.2414 15.0874Z" fill="#0081C6" stroke="#010002" stroke-width="0.15" stroke-miterlimit="10"/>
<path d="M20.8641 13.8903L20.5523 13.5844L18.868 16.7063L18.6109 16.5586L20.3063 13.4473L19.8906 13.3418L21.318 11.8864L20.8586 13.8903H20.8641ZM18.4523 17.6608L18.3266 18.1565L18.6711 18.4887L18.1789 20.4715L17.7469 19.9125L17.107 20.2026L17.5992 18.2145L18.0477 18.0932L18.1625 17.5975C18.1625 17.5975 18.2992 17.5448 18.4523 17.6608V17.6608Z" fill="#0081C6" stroke="#010002" stroke-width="0.15" stroke-miterlimit="10"/>
<path d="M18.5672 17.3285L18.3211 17.7767L18.5672 18.1881L17.5883 19.981L17.3148 19.3218L16.6203 19.4326L17.5992 17.6396H18.0641L18.3047 17.1967C18.3047 17.1967 18.4797 17.1967 18.5672 17.3285V17.3285Z" fill="#0081C6" stroke="#010002" stroke-width="0.15" stroke-miterlimit="10"/>
<path d="M18.6109 17.4604L17.9492 18.2725L18.1023 18.726L16.7516 20.25L16.6258 19.5486L15.9258 19.4959L17.2766 17.9719L17.7305 18.0773L18.4305 17.223C18.4305 17.223 18.6219 17.3127 18.6109 17.4604ZM1.86563 15.5619C2.02422 15.4986 2.13906 15.4406 2.13906 15.2771C2.13906 15.2402 2.11719 15.1559 2.06797 15.024L1.0125 11.9074C0.976657 11.7922 0.932808 11.6795 0.88125 11.5699C0.832031 11.4803 0.739062 11.4434 0.613281 11.3959H1.95859C1.81094 11.4592 1.67969 11.5119 1.68516 11.6596C1.68516 11.7229 1.69609 11.802 1.72891 11.9074L2.54375 14.3438L3.35312 11.9021C3.38594 11.7967 3.40781 11.7176 3.40781 11.6596C3.40234 11.5014 3.26016 11.4486 3.12344 11.3906H4.43047C4.31016 11.4381 4.21172 11.4697 4.1625 11.5646C4.14063 11.6068 4.09141 11.7123 4.03125 11.9021L2.97578 15.0135C2.94432 15.0992 2.92053 15.1875 2.90469 15.2771C2.90469 15.2771 2.85547 15.4723 3.17813 15.5566H1.86563V15.5619ZM24.4078 15.2455V11.7123C24.4097 11.6646 24.3984 11.6173 24.375 11.5752C24.3586 11.5383 24.2656 11.4486 24.1344 11.3959H25.3484C25.2517 11.4289 25.1677 11.4896 25.1078 11.5699C25.084 11.6137 25.0727 11.6629 25.075 11.7123V15.2455C25.075 15.3035 25.0859 15.351 25.1078 15.3879C25.1297 15.4195 25.2172 15.5039 25.3484 15.5619H24.1344C24.2656 15.5092 24.3531 15.4195 24.375 15.3879C24.3969 15.351 24.4078 15.3035 24.4078 15.2402V15.2455Z" fill="#0081C6" stroke="#010002" stroke-width="0.15" stroke-miterlimit="10"/>
<path d="M13.2133 16.4426C13.2133 16.4426 16.4508 15.0557 16.4617 11.8547H9.95937C9.97031 15.0557 13.2133 16.4426 13.2133 16.4426Z" fill="white" stroke="#010002" stroke-width="0.15"/>
<path d="M10.4625 11.8547V13.9008C10.4625 13.9008 10.7086 14.3754 10.9602 14.676V11.8547H10.4625ZM11.4633 11.8547V15.2297C11.4633 15.2297 11.775 15.525 11.9609 15.6674V11.8547H11.4578H11.4633ZM12.4586 11.8547V16.0208C12.4586 16.0208 12.8195 16.2475 12.9617 16.3213V11.8547H12.4531H12.4586ZM15.9586 11.8547V13.9008C15.9586 13.9008 15.7125 14.3754 15.4609 14.676V11.8547H15.9586ZM14.9578 11.8547V15.2297C14.9578 15.2297 14.6461 15.525 14.4656 15.6674V11.8547H14.9578ZM13.9625 11.8547V16.0208C13.9625 16.0208 13.6016 16.2475 13.4594 16.3213V11.8547H13.9625Z" fill="#A60032" stroke="#010002" stroke-width="0.15"/>
<path d="M16.4617 9.52385C16.4617 9.52385 14.8703 10.3254 13.2133 9.46057C11.5508 10.3254 9.95937 9.52385 9.95937 9.52385V11.8547H16.4617V9.52385V9.52385Z" fill="#162667" stroke="#010002" stroke-width="0.15" stroke-miterlimit="10"/>
</g>
</g>
<defs>
<clipPath id="clip0_1_14789">
<rect width="28" height="27" fill="white" transform="translate(-1)"/>
</clipPath>
</defs>
</svg>
