<svg width="26" height="26" viewBox="0 0 26 26" fill="none" xmlns="http://www.w3.org/2000/svg">
<mask id="mask0_1_14900" style="mask-type:alpha" maskUnits="userSpaceOnUse" x="0" y="0" width="26" height="26">
<circle cx="13" cy="13" r="13" fill="#634848"/>
</mask>
<g mask="url(#mask0_1_14900)">
<g clip-path="url(#clip0_1_14900)">
<path fill-rule="evenodd" clip-rule="evenodd" d="M0 0L17.6417 11.1426H38.9993V14.8586H17.6417L0 25.996V0Z" fill="black"/>
<path fill-rule="evenodd" clip-rule="evenodd" d="M0 25.0736L18.0138 13.5589H38.9993V12.4425H18.0138L0 0.927734V2.6049L16.8974 12.9981L0 23.4017V25.0684V25.0736Z" fill="#FFFF00"/>
<path fill-rule="evenodd" clip-rule="evenodd" d="M0 25.996L18.0138 14.4865H38.9993V25.996H0Z" fill="#40AA40"/>
<path fill-rule="evenodd" clip-rule="evenodd" d="M0 0L18.0138 11.5148H38.9993V0H0Z" fill="#CE0000"/>
<path fill-rule="evenodd" clip-rule="evenodd" d="M4.86377 13.5378C4.92667 13.5535 4.94239 13.5693 5.00528 13.4802C5.02101 13.433 5.05769 13.3753 5.08914 13.3124C5.13631 13.2391 5.15728 13.2076 5.19396 13.2653C5.22541 13.2967 5.33547 13.2391 5.38265 13.2705C5.45078 13.3229 5.40885 13.3124 5.4665 13.26C5.50843 13.1657 5.4665 13.1762 5.40885 13.1342C5.36692 13.108 5.25162 13.1657 5.20969 13.1342C5.22541 13.0451 5.25686 13.0294 5.30927 13.0137C5.3512 13.0451 5.4665 12.9927 5.50843 12.9927C5.56084 13.0032 5.60277 13.0085 5.6185 12.9351C5.6447 12.8827 5.63422 12.9194 5.6185 12.8827C5.56608 12.8512 5.46126 12.9089 5.41409 12.8827C5.36168 12.8355 5.36692 12.8198 5.40361 12.7516C5.44554 12.7254 5.47699 12.7359 5.53464 12.7726C5.58705 12.8093 5.67615 12.7359 5.72856 12.7307C5.77049 12.6783 5.8229 12.6625 5.79145 12.6049C5.77573 12.5525 5.76001 12.5525 5.69711 12.5368C5.63422 12.4948 5.5556 12.5734 5.5294 12.5105C5.58181 12.4424 5.59753 12.4581 5.66043 12.4948C5.69711 12.5105 5.81766 12.4424 5.84911 12.4372C5.90676 12.4215 5.88055 12.4843 5.91724 12.3428C5.90676 12.2904 5.80718 12.3795 5.74952 12.3638C5.69711 12.3743 5.64994 12.3533 5.6447 12.2957C5.6447 12.217 5.68663 12.2118 5.73904 12.2223C5.79145 12.2328 5.90152 12.1699 5.94345 12.1699C6.0011 12.2013 6.02206 12.1908 6.06923 12.1175C6.10068 12.0336 6.06399 12.0651 6.00634 12.0231C5.95917 11.9969 5.84911 12.0546 5.80718 12.0231C5.81242 11.9969 5.82814 11.955 5.85959 11.9393C5.90152 11.9497 5.93821 11.9445 5.99062 11.9812C6.04303 12.0022 6.13213 11.9026 6.1793 11.8659C6.16882 11.8135 6.07972 11.8869 6.0273 11.8502C5.99586 11.8292 5.95393 11.803 5.94345 11.7768C5.97489 11.6877 5.95917 11.6929 6.04303 11.7244C6.08496 11.7087 6.15833 11.7087 6.11116 11.63C6.10068 11.6143 6.05875 11.6196 6.02206 11.6038C5.96965 11.5724 5.92772 11.5409 5.88055 11.5252C5.84911 11.52 5.79669 11.5095 5.77049 11.5147C5.76525 11.5671 5.78097 11.5986 5.77049 11.6615C5.79669 11.6982 5.83862 11.6982 5.84911 11.7139C5.80194 11.7506 5.78097 11.7296 5.7338 11.7349C5.67615 11.6929 5.7076 11.5724 5.63946 11.5986C5.65518 11.6353 5.64994 11.7716 5.67615 11.7978C5.7076 11.8187 5.74952 11.8397 5.75477 11.8711C5.70235 11.9445 5.68663 11.9393 5.62898 11.9026C5.57657 11.8711 5.59753 11.7611 5.5556 11.7663C5.50319 11.803 5.50319 11.803 5.51367 11.8606C5.51367 11.9288 5.48747 12.0284 5.54512 12.0703C5.61326 12.1227 5.62374 12.1122 5.56608 12.2066C5.5294 12.2537 5.50843 12.2433 5.46126 12.2223C5.41933 12.1908 5.42982 12.0755 5.39313 12.0336C5.32499 11.9969 5.36168 11.9969 5.30927 12.0441C5.28831 12.1122 5.30403 12.1279 5.33023 12.1856C5.3512 12.217 5.3512 12.3428 5.39313 12.3428C5.45602 12.3848 5.45602 12.3743 5.38265 12.4477C5.33023 12.4477 5.30403 12.4634 5.2621 12.411C5.20969 12.3743 5.24113 12.2537 5.173 12.2485C5.11011 12.2537 5.09962 12.2537 5.10487 12.3376C5.11535 12.4162 5.08914 12.5315 5.14679 12.5787C5.20445 12.6049 5.24113 12.5996 5.25686 12.6311L5.18872 12.7097C5.15204 12.7097 5.11011 12.6835 5.06294 12.673C5.01052 12.6521 5.03673 12.6049 4.9948 12.5734C4.94239 12.5892 4.94239 12.521 4.91618 12.5892C4.92667 12.6468 4.9057 12.7202 4.96335 12.7569C5.00528 12.7883 5.04197 12.8512 5.08914 12.8774C5.14155 12.9403 5.11535 12.9508 5.08914 13.0347C5.04721 13.0347 4.9948 13.0085 4.95287 12.977C4.9057 12.9456 4.91618 12.8303 4.86901 12.7988C4.83233 12.7621 4.84281 12.7307 4.78516 12.8093C4.78516 12.8669 4.7904 12.8722 4.80612 12.9141C4.80612 12.9665 4.7904 13.0714 4.84281 13.108L5.00004 13.1605C5.03673 13.2129 5.00004 13.2024 4.95811 13.2758C4.92667 13.3491 4.92667 13.3596 4.88474 13.3963C4.84281 13.4487 4.83233 13.4697 4.86377 13.5378V13.5378Z" fill="#FFFF00"/>
<path fill-rule="evenodd" clip-rule="evenodd" d="M6.14261 13.6007C6.17929 13.5431 6.20026 13.5326 6.14261 13.4277C6.10592 13.3963 6.06399 13.3282 6.02206 13.2705C5.96965 13.1919 5.95393 13.1657 6.02206 13.1395C6.06399 13.1238 6.05351 12.9823 6.10068 12.9456C6.16881 12.8932 6.14785 12.9351 6.12164 12.8512C6.05351 12.7674 6.04827 12.8145 5.98537 12.8617C5.9382 12.8984 5.95393 13.0399 5.90676 13.0714C5.82814 13.0189 5.83338 12.9875 5.83338 12.9194C5.87531 12.8879 5.88055 12.7412 5.89627 12.7045C5.92772 12.6521 5.94868 12.6049 5.88579 12.5577C5.84386 12.5053 5.87531 12.5368 5.83338 12.542C5.78621 12.5787 5.80193 12.7202 5.75476 12.7516C5.69187 12.7988 5.68139 12.7778 5.62898 12.715C5.62898 12.6625 5.64994 12.6311 5.70235 12.5839C5.75476 12.542 5.72332 12.4162 5.74428 12.3638C5.71283 12.2957 5.71807 12.2328 5.64994 12.2433C5.59753 12.2433 5.58705 12.259 5.5556 12.3166C5.48746 12.369 5.52939 12.4843 5.46126 12.4843C5.41409 12.4005 5.43505 12.39 5.49795 12.3428C5.52415 12.3061 5.50843 12.1542 5.51891 12.1122C5.52939 12.0493 5.57132 12.1017 5.4665 12.0074C5.40361 11.9969 5.45078 12.1437 5.41409 12.1961C5.39837 12.2537 5.36168 12.2957 5.30927 12.2747C5.23589 12.2433 5.24637 12.2013 5.28306 12.1437C5.30927 12.0965 5.29878 11.955 5.31451 11.9078C5.36692 11.8606 5.36692 11.8344 5.31451 11.7558C5.25161 11.6877 5.26734 11.7401 5.20444 11.7873C5.15727 11.8187 5.173 11.9655 5.12583 11.9969C5.09962 11.976 5.07342 11.9445 5.06817 11.9078C5.09438 11.8659 5.10486 11.824 5.15727 11.782C5.1992 11.7349 5.14155 11.5986 5.12583 11.5409C5.07866 11.5305 5.1101 11.6458 5.05245 11.6929C5.021 11.7191 4.97908 11.7506 4.94763 11.7506C4.88473 11.6877 4.87949 11.6982 4.93715 11.6248C4.94763 11.5724 4.97383 11.4938 4.88473 11.52C4.86377 11.52 4.85329 11.5724 4.82184 11.6038C4.77467 11.6353 4.7275 11.672 4.69605 11.7191C4.67509 11.7506 4.64364 11.803 4.64364 11.8344C4.68557 11.8554 4.72226 11.8554 4.77467 11.8869C4.82184 11.8764 4.83756 11.8344 4.85329 11.824C4.87425 11.8921 4.84281 11.9078 4.82708 11.9602C4.76943 12.0074 4.66985 11.9235 4.66985 12.0022C4.70654 12.0022 4.82708 12.0651 4.86901 12.0441C4.90046 12.0179 4.9319 11.9864 4.96335 11.9917C5.01576 12.0703 5.00004 12.0913 4.94239 12.1384C4.88998 12.1751 4.79564 12.1175 4.78515 12.1594C4.80088 12.2328 4.80088 12.2328 4.85329 12.2433C4.92142 12.2695 5.00004 12.3376 5.06293 12.2957C5.13631 12.2433 5.13107 12.2275 5.1992 12.3219C5.22541 12.3795 5.20968 12.4005 5.173 12.4372C5.12059 12.4739 5.01576 12.4162 4.96859 12.4372C4.9057 12.4948 4.92142 12.4529 4.94763 12.5368C5.00004 12.5787 5.01576 12.5734 5.07866 12.563C5.12059 12.5525 5.23589 12.6049 5.25686 12.563C5.30927 12.5105 5.30927 12.5105 5.34595 12.6154C5.32499 12.673 5.32499 12.7045 5.2621 12.7307C5.20968 12.7726 5.10486 12.6887 5.07866 12.7569C5.05769 12.825 5.05245 12.8407 5.13107 12.8617C5.20968 12.8827 5.30403 12.9613 5.37216 12.9141C5.41409 12.8617 5.42457 12.8303 5.4665 12.8198L5.50843 12.9246C5.49271 12.9665 5.45602 12.998 5.42457 13.0451C5.38264 13.0923 5.34595 13.0451 5.30403 13.0818C5.30403 13.1342 5.23589 13.1133 5.2883 13.1657C5.34595 13.1814 5.40885 13.2286 5.46126 13.1867C5.50843 13.1552 5.57656 13.1342 5.61849 13.1028C5.69711 13.0714 5.69711 13.1028 5.76524 13.1657C5.73958 13.2131 5.70379 13.2542 5.66042 13.2862C5.60801 13.3177 5.50843 13.2653 5.4665 13.302C5.41409 13.3229 5.39312 13.302 5.44029 13.3963C5.49271 13.4225 5.49795 13.412 5.53988 13.412C5.59229 13.433 5.68139 13.4959 5.73904 13.454C5.77049 13.4015 5.81766 13.3491 5.84386 13.3124C5.90676 13.2862 5.88579 13.3229 5.93296 13.3963C5.98537 13.4592 6.0011 13.4644 6.01682 13.5221C6.04827 13.585 6.06399 13.6112 6.14261 13.6007Z" fill="#FFFF00"/>
<path fill-rule="evenodd" clip-rule="evenodd" d="M4.97908 15.9697C4.97908 15.7024 4.93715 15.4299 4.97908 15.4299C7.35331 15.4299 7.94556 13.8051 7.94556 12.7307C7.94556 11.651 7.1227 10.5661 5.57132 10.5661C3.78934 10.5661 3.19185 11.6248 3.19185 12.7307C3.19185 13.8104 4.08284 14.6175 4.97383 14.6175C6.16357 14.6175 6.46232 14.3502 7.35331 13.2705C7.05456 14.6175 5.57132 15.1573 4.97908 15.1573C4.66017 15.1679 4.34253 15.1121 4.04627 14.9936C3.75001 14.8751 3.48156 14.6964 3.25791 14.4688C3.03427 14.2413 2.86028 13.9697 2.74697 13.6714C2.63365 13.3732 2.58347 13.0546 2.5996 12.7359C2.5996 11.3837 3.49059 10.0315 5.57132 10.0315C7.35331 10.0315 8.54305 11.3837 8.54305 12.7359C8.54305 14.6227 7.05456 15.9749 4.97908 15.9749V15.9697Z" fill="#FFFF00"/>
</g>
</g>
<defs>
<clipPath id="clip0_1_14900">
<rect width="26" height="26" fill="white"/>
</clipPath>
</defs>
</svg>
