<svg width="26" height="26" viewBox="0 0 26 26" fill="none" xmlns="http://www.w3.org/2000/svg">
<mask id="mask0_1_14195" style="mask-type:alpha" maskUnits="userSpaceOnUse" x="0" y="0" width="26" height="26">
<circle cx="13" cy="13" r="13" fill="#634848"/>
</mask>
<g mask="url(#mask0_1_14195)">
<g clip-path="url(#clip0_1_14195)">
<path fill-rule="evenodd" clip-rule="evenodd" d="M0 0H26V26H0V0Z" fill="#CE1126"/>
<path fill-rule="evenodd" clip-rule="evenodd" d="M0 0H13V13H0V0Z" fill="#002B7F"/>
<path fill-rule="evenodd" clip-rule="evenodd" d="M7.46484 11.7508L6.46953 11.0754L5.50977 11.761L5.81445 10.5676L4.90039 9.82111L6.07852 9.75509L6.46953 8.61759L6.90117 9.7754L8.05898 9.80079L7.13477 10.5879L7.46484 11.7508ZM7.29219 3.78829L6.5 3.28048L5.71797 3.78829L5.93125 2.82345L5.23555 2.209L6.16484 2.12775L6.51016 1.23907L6.8707 2.1379L7.78477 2.209L7.07383 2.84376L7.29219 3.78829ZM3.77305 6.65236L3.00117 6.10392L2.21914 6.63204L2.45273 5.70275L1.72656 5.08829L2.65078 5.04767L2.99102 4.12853L3.32617 5.03243L4.25547 5.08829L3.5293 5.69767L3.77305 6.65236ZM10.8316 6.00743L10.0852 5.52501L9.35898 6.01759L9.56211 5.134L8.90195 4.56525L9.78047 4.49415L10.0852 3.66134L10.4203 4.50431L11.2734 4.55509L10.6031 5.14415L10.8316 6.00743ZM8.74453 8.1047L8.25195 7.78986L7.76445 8.1047L7.89141 7.51564L7.44961 7.12462L8.02852 7.07384L8.25195 6.51525L8.48047 7.07384L9.04922 7.12462L8.61758 7.51564L8.74453 8.1047Z" fill="white"/>
</g>
</g>
<defs>
<clipPath id="clip0_1_14195">
<rect width="26" height="26" fill="white"/>
</clipPath>
</defs>
</svg>
