<svg width="26" height="26" viewBox="0 0 26 26" fill="none" xmlns="http://www.w3.org/2000/svg">
<mask id="mask0_1_13593" style="mask-type:alpha" maskUnits="userSpaceOnUse" x="0" y="0" width="26" height="26">
<circle cx="13" cy="13" r="13" fill="#634848"/>
</mask>
<g mask="url(#mask0_1_13593)">
<g clip-path="url(#clip0_1_13593)">
<path d="M0 0H26V26H0V0Z" fill="#244AA5"/>
<path d="M10.273 12.4771L10.3391 12.4415L10.4203 12.4161C10.4203 12.4161 10.4609 12.3958 10.4813 12.3958C10.5016 12.3958 10.5473 12.4212 10.5574 12.4415C10.5727 12.4618 10.6438 12.4923 10.6438 12.4923C10.6438 12.4923 10.6945 12.5126 10.6996 12.4923C10.7098 12.4822 10.7301 12.4669 10.7504 12.4669C10.7707 12.4669 10.7809 12.4466 10.7809 12.4314C10.7809 12.4161 10.791 12.3958 10.8063 12.3755C10.8215 12.3552 10.857 12.345 10.857 12.345C10.857 12.345 10.9078 12.3247 10.9078 12.2943C10.9078 12.2638 10.9637 12.2435 10.9941 12.2435C11.0195 12.2384 10.9941 12.2232 11.0602 12.2333C11.1313 12.2384 11.1414 12.2181 11.1465 12.1978C11.1465 12.1724 11.1465 12.1521 11.1922 12.1572C11.2328 12.1622 11.2582 12.1622 11.2582 12.1368C11.2582 12.1165 11.2988 12.1013 11.2277 12.0861C11.1566 12.0607 11.1617 12.0759 11.1566 12.0454C11.1516 12.0099 11.1566 12.015 11.1059 12.0099C11.0551 12.0099 11.0855 11.9845 11.0805 11.9591C11.0805 11.9337 11.0652 11.9236 11.0551 11.9083C11.0449 11.888 11.0195 11.888 11.0195 11.8677C11.0195 11.8423 11.0195 11.8271 10.9891 11.8271C10.9586 11.8271 10.9535 11.8271 10.9535 11.8068C10.9535 11.7814 10.9586 11.7611 10.984 11.7611C11.0094 11.7611 11.0246 11.7407 11.0195 11.7154V11.6392L11.05 11.5986L11.1668 11.497C11.177 11.4818 11.2125 11.4665 11.2277 11.497C11.243 11.5325 11.2531 11.5427 11.2684 11.5579C11.2785 11.5732 11.3191 11.5579 11.3293 11.5478C11.3395 11.5275 11.3395 11.4716 11.3648 11.4361C11.3902 11.4056 11.4055 11.3853 11.4105 11.365C11.4156 11.3447 11.4258 11.3142 11.4563 11.3142C11.4867 11.3142 11.502 11.2786 11.502 11.2583C11.502 11.238 11.5121 11.2126 11.5527 11.2075C11.5832 11.2075 11.6035 11.1822 11.6137 11.2126C11.6238 11.2482 11.634 11.2482 11.6594 11.2583C11.6797 11.2685 11.7102 11.2837 11.7305 11.2685C11.7508 11.2532 11.7559 11.2279 11.7813 11.2431C11.8066 11.2583 11.827 11.2431 11.832 11.2126L11.8422 11.1365C11.8422 11.1365 11.8473 11.1161 11.893 11.1161C11.9387 11.1161 11.9031 11.0907 11.9234 11.0755C11.9488 11.0552 11.9488 11.04 11.9742 11.0501C12.0047 11.0603 12.0504 11.04 12.025 11.0146C12.0047 10.9841 11.9539 10.9435 11.9793 10.913C12.0098 10.8825 12.0199 10.8267 11.9945 10.8216C11.9641 10.8165 11.9234 10.8267 11.9184 10.7962C11.9133 10.7657 11.9031 10.7454 11.9336 10.7353C11.9691 10.7353 12.0301 10.7353 12.0453 10.715C12.0605 10.6947 12.1215 10.6896 12.1215 10.6439C12.1215 10.5931 12.1367 10.5931 12.1418 10.5626C12.1469 10.5372 12.1469 10.4814 12.1266 10.456C12.1017 10.4314 12.0795 10.4041 12.0605 10.3747C12.0543 10.3626 12.0457 10.3519 12.0352 10.3431C12.0248 10.3344 12.0127 10.3279 11.9996 10.324C11.9641 10.3138 11.9336 10.3087 11.9336 10.2833C11.9336 10.2529 11.959 10.2833 11.959 10.2173C11.959 10.1513 11.9082 10.1361 11.9082 10.1361L11.8422 10.0954C11.8422 10.0954 11.7203 10.065 11.6898 10.065C11.6594 10.065 11.6188 10.0294 11.6543 10.0091C11.6949 9.98372 11.7051 9.94817 11.6898 9.9177C11.6746 9.88723 11.6645 9.86692 11.6137 9.85168C11.5629 9.83645 11.5477 9.82629 11.568 9.79582C11.5934 9.76536 11.5984 9.74504 11.6289 9.76536C11.6543 9.78567 11.7 9.79582 11.7406 9.77551C11.7762 9.76028 11.7914 9.74504 11.8117 9.76536C11.827 9.78059 11.8523 9.8009 11.8828 9.77551C11.9082 9.74504 11.959 9.74504 11.9844 9.7552C12.0098 9.77043 12.0656 9.76536 12.0859 9.7552C12.1012 9.74504 12.1367 9.71457 12.1367 9.69934C12.1367 9.68411 12.1621 9.64856 12.1875 9.6384C12.2078 9.62317 12.2383 9.58254 12.2637 9.58254C12.2891 9.58254 12.2941 9.55715 12.2941 9.53684C12.2941 9.51653 12.3145 9.48606 12.3195 9.4759C12.3195 9.46067 12.3703 9.44036 12.4008 9.47082C12.4363 9.49622 12.477 9.50637 12.477 9.50637H12.548C12.5734 9.49622 12.6039 9.48606 12.6395 9.50637C12.6699 9.53176 12.7207 9.53176 12.7207 9.53176L12.7258 9.48098C12.7258 9.46067 12.7359 9.4302 12.7207 9.42004C12.7004 9.40481 12.675 9.38958 12.7156 9.35911C12.7512 9.33372 12.7512 9.33879 12.7867 9.33879L12.8781 9.34387C12.9086 9.34387 12.9543 9.36926 12.9543 9.39465C12.9543 9.42004 12.9746 9.44036 12.9949 9.45051C13.0203 9.46575 13.0457 9.4759 13.0406 9.50129C13.0305 9.52161 13.0305 9.53684 13.0559 9.53684C13.0863 9.53176 13.0965 9.547 13.0965 9.56731C13.0965 9.58762 13.1016 9.60286 13.132 9.61301C13.1625 9.62317 13.1727 9.6384 13.1727 9.66379L13.1777 9.71458C13.1828 9.73489 13.2184 9.77043 13.2184 9.77043C13.2184 9.77043 13.2691 9.83137 13.2031 9.8009C13.1371 9.77043 13.1219 9.76028 13.1016 9.76536C13.0762 9.76536 13.0609 9.78059 13.0609 9.78059L13.0102 9.79075C12.9797 9.79075 12.9594 9.84153 12.9949 9.84661C13.0355 9.85676 13.0457 9.86184 13.0457 9.89739C13.0457 9.93293 13.0355 9.9177 13.0152 9.93801C12.9949 9.95832 12.9797 9.94817 12.9492 9.94817C12.9137 9.94817 12.9086 9.97356 12.9086 9.99895C12.9086 10.0243 12.9188 10.0193 12.934 10.0396C12.9492 10.065 12.9746 10.065 12.9949 10.0447C13.0203 10.0243 13.0406 10.0091 13.0508 10.0497C13.0609 10.0904 13.0863 10.0904 13.1117 10.0904C13.1422 10.0904 13.1523 10.0904 13.1727 10.0751C13.198 10.065 13.2234 10.0751 13.2336 10.1107C13.2336 10.1462 13.259 10.1513 13.2844 10.1615C13.3047 10.1767 13.3199 10.1868 13.325 10.2072C13.3301 10.2275 13.3453 10.2376 13.3656 10.2224C13.391 10.2122 13.4266 10.2021 13.4418 10.2224L13.4824 10.2732V10.3138L13.5738 10.3443L13.584 10.3849C13.584 10.4052 13.5992 10.4103 13.6195 10.4052H13.6855C13.6855 10.4052 13.7211 10.39 13.7211 10.3646C13.7211 10.3392 13.7363 10.3341 13.7566 10.3341C13.782 10.3341 13.8328 10.3493 13.848 10.324C13.8633 10.2986 13.9039 10.2884 13.9344 10.3036L14.0563 10.3493C14.0563 10.3493 14.0461 10.3493 14.0715 10.4001C14.102 10.4407 14.1527 10.4407 14.1527 10.4407L14.168 10.4966C14.1781 10.5118 14.2188 10.522 14.2441 10.5068C14.2645 10.4864 14.2949 10.4661 14.3254 10.4661C14.3559 10.4661 14.3762 10.4661 14.3762 10.4509C14.3762 10.4357 14.3457 10.4204 14.3457 10.39C14.3457 10.3646 14.3762 10.3646 14.3813 10.3392C14.3813 10.3138 14.4117 10.3392 14.432 10.3544C14.4473 10.3646 14.4727 10.39 14.4727 10.4052C14.4727 10.4204 14.5133 10.4814 14.5336 10.4915C14.559 10.5017 14.6199 10.5068 14.6352 10.4814C14.6555 10.4611 14.7012 10.4509 14.7012 10.5068C14.6961 10.5575 14.6859 10.5575 14.7164 10.5779C14.752 10.5982 14.757 10.6591 14.7266 10.6743C14.7012 10.6896 14.691 10.6947 14.691 10.7251C14.691 10.7556 14.6809 10.7911 14.7012 10.8064C14.7266 10.8267 14.7418 10.8368 14.7418 10.8572C14.7418 10.8775 14.7672 10.9536 14.7672 10.9536C14.7672 10.9536 14.7824 11.0298 14.7773 11.045C14.7723 11.0603 14.7672 11.0958 14.8078 11.0907C14.8484 11.0857 14.8586 11.0857 14.8586 11.1212C14.8586 11.1568 14.8738 11.172 14.8484 11.1822C14.8281 11.1923 14.8129 11.2329 14.8332 11.2482C14.8586 11.2532 14.8789 11.2685 14.884 11.2837C14.884 11.304 14.9246 11.3345 14.95 11.3142C14.9703 11.299 14.9754 11.2888 14.9957 11.2837C15.016 11.2837 15.0262 11.2685 15.0109 11.2482C14.9906 11.2228 14.9855 11.2025 15.0059 11.1872C15.0262 11.1771 15.0313 11.1365 15.0313 11.1365C15.0313 11.1365 15.0617 11.0958 15.0922 11.1365C15.1277 11.172 15.1328 11.1568 15.1531 11.1568C15.1785 11.1568 15.1887 11.1822 15.1887 11.2025C15.1887 11.2228 15.2395 11.2177 15.2395 11.2532L15.2445 11.37C15.2445 11.37 15.2445 11.4208 15.275 11.4361C15.3004 11.4564 15.2953 11.4564 15.2801 11.4818C15.2699 11.5021 15.275 11.5325 15.275 11.5529C15.275 11.5732 15.2801 11.5782 15.2598 11.5986C15.2344 11.6138 15.2242 11.6341 15.2395 11.6595C15.2547 11.69 15.2496 11.7052 15.2902 11.7357C15.3258 11.7661 15.3207 11.7814 15.3207 11.8017C15.3207 11.822 15.3563 11.8525 15.3563 11.8728C15.3563 11.8982 15.3867 11.9236 15.407 11.9236C15.4273 11.9236 15.4578 11.9693 15.4578 11.9896L15.468 12.0708C15.468 12.0708 15.4629 12.081 15.4883 12.081C15.5188 12.081 15.5391 12.1114 15.5441 12.081C15.5543 12.0454 15.5848 12.0404 15.6 12.0302C15.6203 12.02 15.6609 12.0048 15.6762 12.015C15.6965 12.0302 15.7219 12.0302 15.7371 12.0302H15.8488C15.8488 12.0302 15.8691 12.0302 15.8844 12.0657C15.8996 12.1013 15.9402 12.1368 15.9199 12.1572C15.8945 12.1724 15.8945 12.2079 15.9199 12.2079C15.9504 12.2079 15.9809 12.2079 15.9809 12.2282C15.9809 12.2536 15.9809 12.2689 16.0063 12.2536C16.0316 12.2384 16.0469 12.2384 16.057 12.2536C16.0621 12.274 16.0824 12.2739 16.1078 12.2841C16.1281 12.2993 16.1383 12.2892 16.1535 12.2739C16.1688 12.2536 16.2246 12.2384 16.2246 12.2384C16.2246 12.2384 16.3008 12.2232 16.3262 12.2282L16.3922 12.2536C16.3922 12.2536 16.4125 12.2993 16.4023 12.3247C16.3922 12.3501 16.382 12.345 16.3922 12.3857C16.4023 12.4263 16.382 12.4314 16.3668 12.4263C16.3465 12.4212 16.3262 12.4212 16.3262 12.4568C16.3262 12.4923 16.3059 12.4974 16.3059 12.5279C16.3059 12.5583 16.3059 12.5532 16.2906 12.5685C16.2703 12.5786 16.2652 12.604 16.2906 12.6091C16.3211 12.6091 16.3109 12.6396 16.3109 12.6599V12.7107C16.3109 12.7107 16.3109 12.7361 16.2805 12.7361C16.2449 12.7361 16.2195 12.7361 16.2145 12.7564C16.2094 12.7767 16.1738 12.8072 16.2043 12.8325C16.2398 12.8529 16.2297 12.8681 16.2094 12.8732C16.1891 12.8833 16.1789 12.924 16.2094 12.9392C16.25 12.9544 16.2449 12.9646 16.2246 12.9849C16.1992 13.0001 16.1535 13.0154 16.1535 13.0357C16.1535 13.0661 16.1434 13.0661 16.1129 13.0712C16.0824 13.0763 16.0723 13.1068 16.1078 13.1525C16.1383 13.1982 16.1484 13.188 16.1738 13.188C16.1941 13.188 16.1941 13.1525 16.1941 13.1525H16.2957C16.3211 13.1525 16.3566 13.1525 16.3719 13.1423C16.3922 13.1322 16.443 13.1068 16.443 13.1474C16.443 13.188 16.4531 13.1829 16.4785 13.1982C16.4988 13.2185 16.5039 13.2032 16.5293 13.2286C16.5445 13.254 16.5496 13.2337 16.5598 13.2032C16.575 13.1728 16.6055 13.1423 16.6258 13.1779C16.6461 13.2134 16.6512 13.2032 16.6766 13.2032C16.707 13.2032 16.7172 13.2185 16.7172 13.2388C16.7172 13.2591 16.7477 13.2591 16.7781 13.254C16.8086 13.249 16.8137 13.2743 16.8289 13.2947C16.8441 13.315 16.8492 13.315 16.8695 13.315C16.8848 13.315 16.9051 13.315 16.9203 13.2947C16.9355 13.2794 16.9508 13.254 16.9711 13.2845C16.9914 13.315 17.027 13.3048 17.0371 13.2743C17.0473 13.2439 17.0879 13.2185 17.1133 13.254C17.1336 13.2845 17.1539 13.2845 17.1793 13.2896C17.1996 13.2947 17.2352 13.2947 17.2504 13.315C17.2656 13.3404 17.3113 13.3759 17.2758 13.4013C17.2453 13.4267 17.2047 13.4622 17.2352 13.4673C17.2656 13.4775 17.2859 13.4876 17.3012 13.5079C17.3215 13.5282 17.3824 13.5384 17.4078 13.5435C17.4383 13.5435 17.4586 13.5536 17.4941 13.5232C17.5246 13.4978 17.5602 13.4978 17.5551 13.5333C17.55 13.5689 17.5703 13.6095 17.5703 13.6095C17.5703 13.6095 17.5906 13.6603 17.5906 13.6857C17.5906 13.706 17.5906 13.7111 17.6313 13.7365C17.6719 13.7618 17.6668 13.7822 17.7023 13.7568C17.7328 13.7263 17.743 13.7161 17.743 13.6958V13.6247C17.743 13.6247 17.7938 13.6146 17.809 13.6044C17.8242 13.5943 17.9055 13.5536 17.9207 13.5689C17.9359 13.5841 17.9664 13.579 17.9816 13.5689H18.0578C18.0781 13.5689 18.1086 13.5689 18.1492 13.5384C18.1848 13.5079 18.1848 13.5181 18.2102 13.5384C18.2355 13.5587 18.2305 13.5892 18.2203 13.6044C18.2051 13.6197 18.2203 13.6552 18.2508 13.6552C18.2863 13.6552 18.2914 13.6755 18.2914 13.7009L18.3016 13.7669C18.3066 13.7872 18.3066 13.7923 18.3574 13.8075C18.4082 13.8177 18.4031 13.8482 18.4082 13.8736C18.4184 13.8939 18.4184 13.9091 18.393 13.9091C18.3625 13.9091 18.3523 13.9243 18.3523 13.9447C18.3473 13.965 18.3016 13.9751 18.3016 13.9751L18.2609 13.965C18.2609 13.965 18.2305 13.965 18.2203 13.9853C18.2051 14.0005 18.1746 14.0361 18.1949 14.0665C18.2152 14.097 18.2152 14.1173 18.1949 14.1275C18.1746 14.1427 18.1645 14.2036 18.1441 14.1935C18.1238 14.1833 18.1035 14.1935 18.0883 14.2036C18.068 14.2138 18.073 14.2747 18.1086 14.295C18.1492 14.3204 18.1594 14.3458 18.1594 14.3458L18.2 14.4118L18.1746 14.4474C18.1645 14.4677 18.1391 14.5134 18.1645 14.5236C18.1898 14.5337 18.1797 14.5743 18.1543 14.5743C18.1238 14.5743 18.0934 14.5642 18.0883 14.5997C18.0832 14.6353 18.068 14.6251 18.0375 14.62C18.0121 14.62 17.9359 14.5997 17.9207 14.6353C17.9055 14.6708 17.9004 14.6861 17.8699 14.6759C17.8344 14.6759 17.8445 14.7267 17.8547 14.7521C17.8648 14.7724 17.9004 14.8029 17.9004 14.8029C17.9004 14.8029 17.9258 14.8232 17.9258 14.8689C17.9258 14.9146 17.9055 14.9095 17.8902 14.879C17.875 14.8486 17.8344 14.8536 17.8293 14.8841C17.8242 14.9197 17.8191 14.9704 17.7836 14.9704C17.7531 14.9704 17.7379 14.9806 17.7227 15.0009C17.7125 15.0161 17.6871 15.0466 17.6871 15.0618C17.6871 15.0771 17.682 15.0974 17.6566 15.1025C17.6363 15.1025 17.6313 15.1532 17.6313 15.1532C17.6313 15.1532 17.5754 15.1634 17.5703 15.1837C17.5652 15.204 17.5703 15.2396 17.5246 15.2447C17.4789 15.2497 17.4535 15.2802 17.4383 15.3005C17.423 15.3259 17.418 15.3411 17.4383 15.3615C17.4586 15.3818 17.4688 15.4529 17.4891 15.463C17.5195 15.4782 17.5398 15.4833 17.5297 15.5138C17.5297 15.5544 17.4992 15.5798 17.5348 15.5798C17.5754 15.5798 17.5957 15.59 17.5855 15.6204C17.5703 15.6509 17.5703 15.6509 17.5398 15.6661C17.5145 15.6814 17.4992 15.6814 17.4992 15.7169C17.4992 15.7525 17.5094 15.7474 17.484 15.7626C17.4586 15.7728 17.4586 15.7931 17.4586 15.8134C17.4586 15.8439 17.4535 15.8337 17.423 15.8642C17.3926 15.8947 17.357 15.8947 17.3316 15.8845C17.3113 15.8794 17.3063 15.8794 17.3012 15.854C17.2961 15.8236 17.2504 15.8236 17.2301 15.8286C17.2047 15.8337 17.1742 15.8591 17.1742 15.8591C17.1742 15.8591 17.1336 15.8845 17.1488 15.9099C17.1691 15.9302 17.159 15.9607 17.1285 15.9607C17.093 15.9607 17.0168 15.9962 16.9965 15.9607C16.9711 15.915 16.9051 15.8896 16.8949 15.9454C16.8848 15.9962 16.9254 15.9911 16.9203 16.047C16.9152 16.0978 16.9051 16.0978 16.8848 16.113C16.8695 16.1282 16.8695 16.1435 16.8645 16.1638C16.8594 16.1841 16.8543 16.2349 16.8848 16.2501C16.9203 16.2704 16.9355 16.3161 16.9355 16.3415C16.9355 16.3669 16.9355 16.3923 16.966 16.3923C17.0016 16.3923 17.027 16.3923 17.032 16.3568C17.0371 16.3263 17.1031 16.3111 17.1082 16.372C17.1133 16.4329 17.1082 16.4634 17.1387 16.4888C17.159 16.5142 17.1793 16.5497 17.1996 16.565C17.2199 16.5802 17.2504 16.6868 17.2504 16.6868C17.1996 16.697 17.1895 16.7579 17.159 16.7681C17.1438 16.7732 17.1285 16.7681 17.1082 16.7782C17.098 16.7884 17.098 16.8036 17.0828 16.8138C17.0473 16.829 17.0574 16.7732 17.0117 16.7935C16.9762 16.8087 16.9711 16.8544 16.9203 16.8341C16.8898 16.824 16.8695 16.7173 16.8645 16.6919C16.8645 16.6767 16.8289 16.631 16.8188 16.6157C16.7883 16.565 16.7273 16.6157 16.707 16.6005C16.6715 16.5802 16.6867 16.5396 16.641 16.5396C16.5395 16.5294 16.6105 16.5954 16.5699 16.6107C16.4938 16.6411 16.4938 16.5396 16.4328 16.5853C16.4125 16.6005 16.4684 16.6157 16.4531 16.6462C16.443 16.6665 16.382 16.7072 16.3871 16.7376C16.3922 16.7782 16.4379 16.7884 16.448 16.8239C16.4836 16.9103 16.4277 16.9763 16.3363 16.9052C16.2855 16.8646 16.2805 16.7935 16.2043 16.7986C16.184 16.7986 16.1789 16.8138 16.1586 16.8189C16.1434 16.8189 16.1281 16.8036 16.1078 16.8087C16.0824 16.8189 16.1078 16.8392 16.1027 16.8544L16.057 16.895C16.0367 16.9204 16.0418 16.9458 16.0113 16.9712C15.9859 16.9865 15.9656 16.9763 15.9402 17.0068C15.9098 17.0372 15.9047 17.0829 15.8691 17.1134C15.8488 17.1286 15.8387 17.0677 15.8184 17.1134C15.8082 17.1134 15.8082 17.1185 15.8031 17.1236V17.154C15.8539 17.2556 15.7523 17.2861 15.7168 17.3572C15.7016 17.3825 15.7422 17.4079 15.727 17.4282C15.7168 17.4486 15.6711 17.4892 15.666 17.4993C15.666 17.5095 15.6609 17.5298 15.6508 17.54C15.6406 17.5501 15.6152 17.54 15.6102 17.5552C15.6102 17.5704 15.6406 17.5857 15.6508 17.5958C15.6609 17.606 15.6457 17.6212 15.6508 17.6263C15.7016 17.6771 15.6711 17.6618 15.6965 17.7075C15.6965 17.7177 15.7168 17.7075 15.7219 17.7228C15.727 17.738 15.7117 17.738 15.7168 17.7532L15.7574 17.8091C15.7574 17.8243 15.6813 17.8599 15.666 17.8599C15.6203 17.8599 15.7066 17.7685 15.6305 17.7685C15.6 17.7685 15.6 17.8396 15.5898 17.8497H15.5492C15.5035 17.8497 15.473 17.9056 15.4527 17.9107H15.3969C15.3766 17.9107 15.3563 17.931 15.3359 17.931C15.3258 17.931 15.3207 17.9208 15.3105 17.9157L15.2293 17.8904C15.2141 17.8904 15.1887 17.9107 15.1785 17.9005C15.1684 17.8954 15.1938 17.865 15.1582 17.8497L15.1277 17.7786C15.1379 17.738 15.1531 17.6923 15.148 17.6517C15.1379 17.6009 15.0719 17.5654 15.0465 17.5298C15.0363 17.5044 15.0262 17.4282 14.9957 17.413C14.9659 17.3899 14.9416 17.3604 14.9246 17.3267C14.9246 17.3165 14.9348 17.3013 14.9246 17.2861C14.9145 17.2708 14.8891 17.2657 14.884 17.2454C14.8789 17.2251 14.884 17.1693 14.8637 17.1591C14.8434 17.1439 14.6961 17.1286 14.6605 17.1236C14.6453 17.1236 14.6301 17.1236 14.6148 17.1083L14.5945 17.0829L14.5488 17.088H14.5133C14.4625 17.1185 14.4574 17.1591 14.4117 17.1896C14.366 17.2302 14.3203 17.2251 14.2746 17.2657C14.2441 17.2911 14.2238 17.3521 14.1984 17.3775C14.1883 17.3927 14.168 17.3775 14.1629 17.3825L14.0816 17.4587C14.0816 17.4587 14.0816 17.474 14.0715 17.479L14.0207 17.4892H13.9699C13.9496 17.4993 13.9496 17.5247 13.8684 17.54L13.8531 17.5501L13.8227 17.5755H13.7922C13.7719 17.5755 13.7566 17.5907 13.7414 17.5958C13.6957 17.5958 13.6297 17.5755 13.5992 17.5907C13.5789 17.5958 13.523 17.6568 13.4977 17.6618H13.4672C13.457 17.6618 13.4418 17.7329 13.4367 17.7482L13.3352 17.8345L13.3098 17.8751C13.2996 17.8853 13.2844 17.8954 13.2691 17.8954C13.2488 17.8954 13.2184 17.8802 13.2031 17.8751C13.1676 17.8751 13.066 17.865 13.0355 17.8751C13.0051 17.8751 13.0152 17.9716 12.934 17.9767L12.7969 17.997C12.7969 17.997 12.7664 17.9767 12.7359 17.9868C12.7258 17.9868 12.6953 18.0224 12.6953 18.0376V18.0529L12.7004 18.0681C12.6852 18.0935 12.6445 18.1189 12.6293 18.1493L12.6191 18.1646C12.609 18.1747 12.5531 18.195 12.548 18.2052C12.5328 18.2357 12.5836 18.2661 12.5785 18.2814C12.5684 18.322 12.5074 18.3626 12.4922 18.4032C12.4871 18.4185 12.5125 18.4693 12.5074 18.4896C12.5074 18.5404 12.4871 18.6064 12.4871 18.6572L12.4973 18.7232L12.5277 18.7435C12.5328 18.7536 12.5988 18.8755 12.5988 18.8907C12.609 18.9771 12.482 18.9466 12.5582 19.038L12.5887 19.0786L12.7055 19.17C12.7055 19.1853 12.6242 19.2005 12.6141 19.2107C12.5734 19.2513 12.543 19.3173 12.5074 19.3579C12.482 19.3782 12.4617 19.3579 12.4363 19.4087C12.4262 19.429 12.4363 19.4747 12.4211 19.49C12.4008 19.5103 12.3855 19.4798 12.3703 19.49C12.3602 19.49 12.3551 19.5204 12.35 19.5255C12.3246 19.5407 12.1367 19.6423 12.1215 19.6322C12.1113 19.6322 12.1012 19.5966 12.1012 19.5865C12.0961 19.5711 12.0874 19.5571 12.0758 19.5458C12.025 19.5052 11.9539 19.495 11.9082 19.5458C11.893 19.5611 11.893 19.5814 11.8777 19.5966L11.7965 19.6575C11.7965 19.6575 11.7813 19.6779 11.7711 19.6728C11.7559 19.6728 11.7102 19.622 11.6949 19.6068C11.6746 19.5814 11.6137 19.5204 11.6086 19.495C11.6086 19.3935 11.5324 19.297 11.502 19.2005H11.5527C11.6035 19.17 11.5883 19.0786 11.6797 19.1142C11.6949 19.099 11.6898 19.0837 11.7152 19.0685C11.7254 19.0685 11.7406 19.0583 11.7406 19.0532C11.7762 19.0025 11.8117 18.8197 11.7813 18.7689C11.7508 18.7282 11.7203 18.7282 11.6949 18.6572V18.5962C11.6949 18.5759 11.6594 18.4743 11.6543 18.4642C11.6492 18.4591 11.6289 18.449 11.6289 18.4388C11.6289 18.4337 11.6188 18.322 11.6238 18.3118C11.5934 18.2255 11.4816 18.1697 11.4766 18.1595L11.4359 18.0884C11.4207 18.063 11.4207 18.0478 11.4105 18.0224C11.4105 18.0122 11.3902 18.0021 11.3902 17.9868C11.3902 17.9665 11.4512 17.9157 11.4512 17.8802C11.4512 17.865 11.4105 17.8294 11.4156 17.804C11.4258 17.7837 11.4664 17.7329 11.4664 17.7025C11.4664 17.672 11.4004 17.6009 11.3902 17.5654C11.3902 17.545 11.4156 17.5298 11.4105 17.5197L11.3242 17.4282C11.3191 17.413 11.3496 17.3978 11.3242 17.3775C11.3039 17.3521 11.3242 17.3622 11.3191 17.3419L11.2785 17.281L11.2125 17.0474C11.2023 17.0322 11.1871 17.022 11.182 17.0068L11.1617 16.956C11.1617 16.956 11.0957 16.9357 11.0855 16.9154C11.0754 16.9001 11.0754 16.8544 11.0551 16.829C11.05 16.8138 11.0348 16.8189 11.0246 16.8087L11.0145 16.7833C10.9941 16.7579 10.9586 16.7833 10.9332 16.6818L10.8316 16.6107L10.8215 16.5954C10.7961 16.5853 10.7605 16.5853 10.7402 16.565L10.659 16.5599L10.6387 16.5294C10.6082 16.5193 10.5523 16.5243 10.527 16.499C10.5016 16.4786 10.4965 16.3872 10.4609 16.3974H10.4406C10.4152 16.3618 10.3289 16.3568 10.2883 16.3365C10.2781 16.3314 10.2477 16.3365 10.2477 16.3263L10.2527 16.2755L10.202 16.2197C10.1715 16.2095 10.1867 16.2044 10.1613 16.1943C10.1055 16.1892 10.1004 16.1943 10.0598 16.2349L10.0191 16.2501C9.99883 16.2603 9.99375 16.3009 9.96836 16.2806L9.94297 16.2603C9.92774 16.245 9.91758 16.2552 9.9125 16.2298C9.86172 16.2044 9.72969 16.2907 9.69922 16.2298C9.67383 16.2146 9.6586 16.2298 9.63828 16.2146C9.62813 16.2044 9.66367 16.0927 9.56719 16.0521L9.63828 16.0013V15.9607C9.63828 15.9454 9.64844 15.9099 9.64336 15.8947L9.62305 15.854C9.61289 15.8388 9.62305 15.8236 9.61289 15.8032L9.58242 15.788C9.55703 15.7677 9.53164 15.7575 9.51133 15.7322L9.4961 15.7118C9.48086 15.7017 9.41992 15.6814 9.425 15.656C9.425 15.6458 9.43516 15.6458 9.44024 15.6357C9.44024 15.6255 9.44024 15.6103 9.45039 15.6001C9.47578 15.5646 9.53672 15.5798 9.52656 15.5138C9.52656 15.4833 9.50117 15.4579 9.4961 15.4224L9.47578 15.397C9.41485 15.3919 9.425 15.331 9.40469 15.3157C9.33867 15.2751 9.29297 15.3005 9.36406 15.2142C9.37422 15.1888 9.30313 15.1431 9.28789 15.1329C9.2625 15.1075 9.27774 15.0568 9.26758 15.0314C9.2625 15.0161 9.2168 14.9958 9.20664 14.9806L9.18633 14.94V14.9298C9.20156 14.9197 9.19649 14.9044 9.18633 14.8892C9.18633 14.879 9.16602 14.8841 9.16094 14.879C9.1 14.8282 9.03399 14.8029 8.95781 14.7775C8.9375 14.7673 8.94766 14.7521 8.92735 14.7419L8.81055 14.6911C8.79531 14.6911 8.79024 14.6454 8.78008 14.6353C8.77074 14.6197 8.75871 14.606 8.74453 14.5947C8.74453 14.554 8.71914 14.549 8.69375 14.5286L8.6836 14.5032L8.70899 14.4169C8.71406 14.4017 8.73438 14.3865 8.73438 14.3661L8.71406 14.2747C8.6836 14.1935 8.64805 14.2036 8.66328 14.0919C8.66836 14.0665 8.66328 14.0564 8.67852 14.0361L8.68867 14.0208L8.73945 13.9853C8.75469 13.965 8.76485 13.9091 8.79024 13.8939C8.80039 13.8786 8.85117 13.8532 8.85625 13.8431C8.86641 13.8329 8.87656 13.8075 8.87149 13.7923H8.8207C8.81563 13.7923 8.79531 13.772 8.775 13.772L8.76485 13.7517L8.75469 13.7415L8.70391 13.7263C8.67852 13.7161 8.65313 13.7161 8.62774 13.7009C8.59219 13.6806 8.55156 13.6197 8.51094 13.6146C8.46016 13.6044 8.42969 13.6146 8.38399 13.6146C8.35352 13.6197 8.35352 13.6044 8.3332 13.5943C8.29766 13.5841 8.32305 13.6146 8.24688 13.5892C8.23672 13.579 8.24688 13.5536 8.25195 13.5435C8.2418 13.5435 8.22656 13.5486 8.21133 13.5435C8.15039 13.5282 8.1707 13.4724 8.16055 13.4419C8.15039 13.4267 8.125 13.4318 8.10977 13.4318V13.4165C8.125 13.4013 8.08945 13.3607 8.08945 13.3556C8.08945 13.3404 8.16563 13.3302 8.17578 13.3302C8.18086 13.32 8.1707 13.3099 8.1707 13.2997L8.18594 13.2286L8.13516 13.1779C8.14024 13.1728 8.15547 13.1626 8.15547 13.1525C8.19102 13.0509 8.24688 13.1322 8.29766 13.0407L8.32305 12.99H8.3332L8.36367 13.0001C8.36875 12.99 8.38399 12.9849 8.39414 12.9798L8.41445 12.9849C8.50586 12.9646 8.48555 12.9341 8.53633 12.8935C8.55156 12.8833 8.59219 12.8833 8.6125 12.8732C8.63281 12.8833 8.66328 12.9138 8.69883 12.929C8.72422 12.9392 8.81563 12.9595 8.83086 12.9697C8.85117 12.9798 8.85625 13.0052 8.87656 13.0154C8.92735 13.0407 8.89688 12.995 8.94766 13.0052C8.99844 13.0154 9.03906 13.056 9.08985 13.0763H9.12539C9.14063 13.0763 9.22695 13.056 9.23203 13.0611L9.26758 13.0763C9.27774 13.0763 9.28789 13.0509 9.29297 13.0509C9.32852 13.056 9.33359 13.0712 9.3793 13.0661C9.3793 13.0661 9.40469 12.9341 9.43008 12.929C9.44024 12.929 9.47578 12.9595 9.48086 12.9646C9.50117 12.9646 9.48086 12.9341 9.48086 12.9341C9.48086 12.924 9.45039 12.8427 9.45547 12.8325C9.45547 12.8325 9.47578 12.8427 9.48594 12.8325C9.51641 12.8325 9.54688 12.8224 9.56719 12.8021L9.61289 12.7411C9.61289 12.731 9.60274 12.7056 9.60781 12.7005L9.64336 12.6751C9.65859 12.6599 9.66367 12.6345 9.68399 12.6243C9.77031 12.6142 9.7957 12.5482 9.87188 12.538H9.89727L9.9125 12.5634C9.91758 12.5685 9.96328 12.599 9.97852 12.599L9.99375 12.5837C10.009 12.5837 10.0496 12.5583 10.0547 12.5431C10.0547 12.5431 10.0445 12.5329 10.0547 12.5228C10.0547 12.5177 10.1055 12.472 10.1156 12.472H10.1715L10.1969 12.4974H10.2426C10.2527 12.4974 10.2578 12.4771 10.268 12.472L10.273 12.4771V12.4771Z" fill="#D0A650"/>
<path d="M14.2898 6.32227L14.9449 8.33828L13.2285 7.09414H15.3461L13.6348 8.33828L14.2898 6.32227V6.32227ZM16.8391 6.77422L17.4941 8.79023L15.7777 7.54609H17.9004L16.184 8.78516L16.8391 6.76914V6.77422ZM19.2715 7.65781L19.9316 9.67383L18.2152 8.42969H20.3328L18.6164 9.67383L19.2766 7.65781H19.2715Z" fill="white"/>
<path d="M11.7 6.32227L11.0398 8.33828L12.7563 7.09414H10.6387L12.3551 8.33828L11.6949 6.32227H11.7ZM9.15078 6.77422L8.49062 8.79023L10.207 7.54609H8.08945L9.80078 8.78516L9.14062 6.76914L9.15078 6.77422ZM6.72852 7.65781L7.38359 9.67383L5.66719 8.42969H7.78477L6.07344 9.67383L6.72852 7.65781Z" fill="white"/>
</g>
</g>
<defs>
<clipPath id="clip0_1_13593">
<rect width="26" height="26" fill="white"/>
</clipPath>
</defs>
</svg>
