<svg width="26" height="26" viewBox="0 0 26 26" fill="none" xmlns="http://www.w3.org/2000/svg">
<mask id="mask0_1_15398" style="mask-type:alpha" maskUnits="userSpaceOnUse" x="0" y="0" width="26" height="26">
<circle cx="13" cy="13" r="13" fill="#634848"/>
</mask>
<g mask="url(#mask0_1_15398)">
<g clip-path="url(#clip0_1_15398)">
<path fill-rule="evenodd" clip-rule="evenodd" d="M-13 0H25.994V25.996H-13V0Z" fill="#198A00"/>
<path fill-rule="evenodd" clip-rule="evenodd" d="M21.4238 9.33972H25.994V25.996H21.4185L21.4238 9.33972Z" fill="#EF7D00"/>
<path fill-rule="evenodd" clip-rule="evenodd" d="M16.8535 9.32922H21.4238V25.996H16.8535V9.32922Z" fill="black"/>
<path fill-rule="evenodd" clip-rule="evenodd" d="M12.1836 9.34497H16.8482V25.9961H12.1836V9.34497Z" fill="#DE2010"/>
<path fill-rule="evenodd" clip-rule="evenodd" d="M22.9332 3.32813C22.9332 3.32813 24.6575 2.59438 24.82 2.44238C24.8986 2.53148 24.1334 3.45916 22.6449 3.80508C23.9972 3.48013 25.1502 2.47907 25.3808 2.51052C25.4489 2.52624 25.4332 3.49061 22.341 4.32395C24.4793 3.76315 25.7267 2.73065 25.711 2.84595C25.7267 2.86691 25.5014 3.65833 23.625 4.27154C24.1491 4.15099 25.5643 3.28621 25.5485 3.45392C25.5957 3.52206 24.1754 5.34073 21.6124 4.74848C23.6565 5.28308 24.9877 3.999 25.1764 4.01996C25.2183 4.03045 24.799 5.14157 22.2204 5.2097C23.4573 5.08391 23.1009 5.20446 23.1009 5.20446C23.1009 5.20446 22.3672 5.77574 21.4919 5.3879C22.1837 5.57658 22.2571 5.58182 22.2728 5.64472C22.2257 5.71809 21.6596 5.8334 21.1093 5.53989C21.5495 5.71809 21.9479 5.74954 21.9531 5.81767C21.8757 5.87259 21.7859 5.90755 21.6917 5.91943C21.5976 5.93132 21.5019 5.91977 21.4133 5.88581C21.1669 5.77574 18.8556 4.3554 18.8556 4.3554L22.7865 3.27572L22.9332 3.32813V3.32813ZM18.3105 7.16989C18.2671 7.16477 18.2231 7.16876 18.1814 7.1816C18.1396 7.19443 18.1009 7.21583 18.0679 7.24444C18.0349 7.27304 18.0082 7.30821 17.9895 7.34772C17.9708 7.38722 17.9605 7.43019 17.9594 7.47387C17.9594 7.47387 17.9279 7.50008 17.9489 7.64683C17.9728 7.60068 18.0008 7.55682 18.0327 7.5158C18.0694 7.5158 18.2319 7.56821 18.4782 7.37429C18.2529 7.61014 18.3891 7.69924 18.3891 7.69924C18.3891 7.69924 18.3367 7.88792 18.5097 7.92461C18.4573 7.84599 18.4887 7.7831 18.4887 7.7831C18.4887 7.7831 18.7298 7.75689 18.7141 7.45815C18.7246 7.72545 18.8713 7.79358 18.8713 7.79358C18.8713 7.79358 18.8713 7.94033 19.0286 7.95081C18.9447 7.87744 18.9604 7.76213 18.9604 7.76213C18.9604 7.76213 19.1701 7.61014 18.9919 7.35857C19.0967 7.30091 19.1858 7.1332 19.1858 7.1332C19.1858 7.1332 19.039 7.0703 18.9761 7.01789C18.9447 6.955 18.9761 6.58812 18.9761 6.58812L18.8871 6.11642L18.6407 6.85018C18.6512 6.74535 18.6564 7.16464 18.3105 7.16464V7.16989Z" fill="#EF7D00" stroke="black" stroke-width="0.116111" stroke-linejoin="round"/>
<path fill-rule="evenodd" clip-rule="evenodd" d="M20.0191 6.10595C20.0244 6.11643 20.2812 6.39421 20.5223 6.37848C20.6114 6.30511 20.3284 6.13739 20.3284 6.10071C20.4332 6.1898 20.8472 6.5462 21.1145 6.41517C21.2194 6.26842 20.9206 6.28939 20.5957 5.88058C20.821 6.03257 21.3923 6.368 21.6596 6.23697C21.7697 6.11643 21.0674 5.73383 20.8315 5.44032L20.2235 5.12585L19.3954 5.8072L20.0191 6.10595Z" fill="#EF7D00" stroke="black" stroke-width="0.116111" stroke-linejoin="round"/>
<path fill-rule="evenodd" clip-rule="evenodd" d="M19.0862 3.79987C19.0862 3.79987 19.3692 3.63215 20.4908 3.71601C20.6114 3.73173 21.256 3.49588 21.4604 3.42775C21.7854 3.3701 22.8231 3.13949 23.1062 2.92984C23.3053 2.90363 23.0537 3.29672 22.8022 3.38582C22.5401 3.50636 21.5757 3.8418 21.2298 3.79463C21.6439 3.79987 21.4133 4.1353 20.7319 3.97283C21.0569 4.15627 20.9416 4.18771 20.9416 4.18771C20.9416 4.18771 20.365 4.21916 20.2078 4.08813C20.5957 4.23488 20.4384 4.28729 20.4384 4.28729C20.4384 4.28729 20.0401 4.32398 19.8619 4.24012C20.1397 4.32398 19.9982 4.37639 19.9982 4.37639C19.9982 4.37639 19.7676 4.41308 19.5789 4.34495C19.3902 4.27681 19.1019 3.79987 19.0862 3.79987V3.79987Z" fill="#EF7D00" stroke="black" stroke-width="0.116111" stroke-linecap="round" stroke-linejoin="round"/>
<path fill-rule="evenodd" clip-rule="evenodd" d="M19.5369 6.26315L19.5789 7.00739L19.5369 7.06505C19.516 7.09125 19.0128 6.98643 19.081 7.37951C19.081 7.53675 19.081 7.57344 19.1858 7.66253C19.1596 7.55771 19.1701 7.48434 19.1701 7.48434C19.1701 7.48434 19.3116 7.57344 19.4531 7.33758C19.3588 7.56819 19.4269 7.65205 19.4478 7.65205C19.4688 7.69922 19.4112 7.8879 19.5998 7.88266C19.5265 7.81453 19.5632 7.70971 19.5632 7.70971C19.5632 7.70971 19.7623 7.67826 19.6889 7.31662C19.7623 7.24324 19.7938 7.31662 19.7938 7.31662C19.7938 7.31662 19.8147 7.52627 19.9877 7.48434C20.0663 7.53151 19.9772 7.64681 19.9772 7.64681C19.9772 7.64681 20.103 7.64681 20.1397 7.54199C20.1816 7.43717 20.2235 7.24324 20.0139 7.16463C19.9877 7.08601 20.0978 7.08077 20.0978 7.08077C20.0978 7.08077 20.2288 7.1227 20.2707 7.19083C20.3074 7.25897 20.2917 7.01787 20.1292 6.99167C19.9248 6.98643 19.9143 6.93926 19.9143 6.93402L19.8619 6.24219L19.5369 6.26315V6.26315Z" fill="#EF7D00" stroke="black" stroke-width="0.116111" stroke-linejoin="round"/>
<path fill-rule="evenodd" clip-rule="evenodd" d="M20.2445 6.89736C20.2445 6.86067 19.8986 6.39421 19.9824 6.33131C20.0715 6.35228 20.2183 6.56716 20.3336 6.49379C20.3022 6.40993 20.1973 6.4571 20.0715 6.24745C19.9562 6.00636 19.9405 5.64472 19.5212 5.25164C19.7938 5.67093 20.407 5.91202 20.4332 5.78624C20.4594 5.66045 19.8933 5.20971 19.9196 5.09441C20.0296 5.32502 20.6009 5.82816 21.0202 5.79148C21.0464 5.69189 20.6743 5.49273 20.5799 5.30929C20.3179 5.13109 19.5998 4.51264 19.5841 4.37113C19.4601 4.15661 19.29 3.97225 19.0862 3.83129C19.0548 3.79985 19.0495 3.76316 19.0443 3.74219C18.8818 3.36483 19.0967 3.23904 19.2225 3.21808C19.3273 3.21284 19.3535 3.22332 19.4321 3.19187L19.1648 3.08705C19.2801 3.17091 19.5736 3.09753 19.5055 3.33863C19.6365 3.29146 19.9091 2.97175 19.1963 2.89313C18.9657 2.63107 18.017 2.47384 17.7812 3.63213C17.7969 3.64785 17.8074 3.66358 17.8703 3.71075C17.5663 3.564 16.7592 3.44869 16.4656 3.40676C15.6795 3.17615 14.8619 2.63107 14.7832 2.69397C14.6784 2.74638 15.2549 3.28622 15.2287 3.2967C14.7203 3.00319 14.2644 2.79355 13.8346 2.60487C13.5306 2.48956 13.2319 2.22751 13.1952 2.27992C13.0904 2.51053 13.6826 3.08705 13.7927 3.15519C13.8975 3.21808 14.7728 3.62689 14.757 3.62689C13.4468 3.03464 13.2266 2.92458 13.1637 2.85644C13.0484 2.83024 12.7654 2.45287 12.692 2.47384C12.6449 2.51577 12.7287 3.1185 13.3577 3.3858C13.4625 3.45917 14.6941 3.90991 14.6837 3.94136L13.2109 3.33339C12.9384 3.22856 12.6029 2.8512 12.54 2.89313C12.4824 2.93506 12.6973 3.33863 12.9698 3.46965C13.1166 3.53255 13.6669 3.80509 14.17 3.97804C14.2015 3.99377 13.2738 3.62689 12.8231 3.43821C12.6239 3.33339 12.5243 3.18663 12.4981 3.21808C12.4457 3.24953 12.5715 3.84702 14.0076 4.18769C14.0442 4.20341 14.5107 4.07763 14.4897 4.09335C14.2243 4.1593 13.9546 4.20658 13.6826 4.23486C13.6669 4.27679 13.7717 4.49168 14.5159 4.44451C14.6103 4.44451 15.1239 4.26107 15.082 4.29775C15.061 4.31872 14.3797 4.53885 14.3273 4.54409C14.2853 4.54409 14.0442 4.57553 14.039 4.5965C14.0285 4.63319 14.212 4.78518 14.6155 4.80614C14.9667 4.82711 15.6323 4.5965 15.6218 4.61222C15.6061 4.62794 14.9772 4.84283 14.9562 4.85331C14.9352 4.86904 14.7046 4.87952 14.6941 4.90048C14.6784 4.94241 15.0296 5.2726 16.0726 4.92145C15.9677 5.06296 15.4646 5.1573 15.4646 5.18351C15.4646 5.20447 15.5747 5.31453 15.7529 5.35122C15.842 5.37219 15.9625 5.36694 16.0673 5.35122C16.3262 5.30031 16.5637 5.17244 16.7487 4.98434C16.7749 5.06296 16.083 5.41936 16.1145 5.4508C16.2665 5.59231 16.7644 5.42984 16.7958 5.41412C17.1336 5.23561 17.4577 5.0324 17.7654 4.80614C17.7812 4.88476 16.56 5.55038 16.5757 5.57659C16.6543 5.69714 17.0736 5.56611 17.0893 5.55563L17.6344 5.26212C17.6501 5.25164 17.0369 5.62376 17.0893 5.68141C17.0631 5.91726 18.0485 5.5137 18.1271 5.46128C18.1638 5.43508 17.6554 5.68665 17.6554 5.8072C17.8126 6.08498 18.3472 5.99588 18.4258 5.93299C18.4678 5.90678 18.3734 6.14263 18.4049 6.12167C18.4682 6.05672 18.5212 5.98249 18.5621 5.90154C18.5516 5.98016 18.4887 6.1007 18.4573 6.24221C18.4258 6.38372 18.4153 6.5462 18.3682 6.71392C18.3577 6.78729 18.6931 6.56716 18.646 6.04305C18.6722 6.31559 18.5411 6.82922 18.5726 6.85018C18.646 6.9026 18.8346 6.59861 18.8608 6.38897C18.9133 6.49379 19.039 6.71392 19.1439 6.76633C19.1334 6.60909 19.1439 6.60909 19.0967 6.4571C19.1229 6.24745 19.1281 5.96443 19.1334 5.63948C19.4216 6.18456 19.5317 6.41517 19.4531 6.83446C19.537 6.87115 19.6732 6.54096 19.6627 6.37324C19.7676 6.84494 20.2393 6.91308 20.2497 6.89736H20.2445Z" fill="#EF7D00" stroke="black" stroke-width="0.129012" stroke-linecap="round" stroke-linejoin="round"/>
<path fill-rule="evenodd" clip-rule="evenodd" d="M15.5065 3.43823C15.5065 3.43823 15.3126 3.58498 15.0715 3.5745C15.1292 3.81559 15.6323 3.63215 15.6323 3.63215C15.6323 3.63215 15.3912 3.89945 15.213 3.94662C15.3178 4.02524 15.7529 3.99903 15.8262 3.9571C15.8996 3.90993 16.0306 3.74746 16.0306 3.74746C16.0306 3.74746 15.5851 4.26109 15.517 4.25585C15.5118 4.3135 15.9887 4.29254 16.0883 4.20344C16.1879 4.11434 16.4342 3.97807 16.4342 3.97807C16.4342 3.97807 15.7791 4.43405 15.7528 4.43405C15.9939 4.50218 16.4866 4.36067 16.8011 4.16675C16.3346 4.47598 16.2927 4.53363 16.0568 4.63845C16.2665 4.68038 16.3713 4.82189 17.0893 4.51266C17.4981 4.31874 17.7288 3.96759 17.7288 3.96759C17.4174 4.33293 17.045 4.64149 16.6281 4.87954C16.6072 4.93196 17.1051 5.1416 17.7445 4.48122" fill="#EF7D00"/>
<path d="M15.5065 3.43823C15.5065 3.43823 15.3126 3.58498 15.0715 3.5745C15.1292 3.81559 15.6323 3.63215 15.6323 3.63215C15.6323 3.63215 15.3912 3.89945 15.213 3.94662C15.3178 4.02524 15.7529 3.99903 15.8262 3.9571C15.8996 3.90993 16.0306 3.74746 16.0306 3.74746C16.0306 3.74746 15.5851 4.26109 15.517 4.25585C15.5118 4.3135 15.9887 4.29254 16.0883 4.20344C16.1879 4.11434 16.4342 3.97807 16.4342 3.97807C16.4342 3.97807 15.7791 4.43405 15.7528 4.43405C15.9939 4.50218 16.4866 4.36067 16.8011 4.16675C16.3346 4.47598 16.2927 4.53363 16.0568 4.63845C16.2665 4.68038 16.3713 4.82189 17.0893 4.51266C17.4981 4.31874 17.7288 3.96759 17.7288 3.96759C17.4174 4.33293 17.045 4.64149 16.6281 4.87954C16.6072 4.93196 17.1051 5.1416 17.7445 4.48122" stroke="black" stroke-width="0.129012" stroke-linecap="round" stroke-linejoin="round"/>
<path fill-rule="evenodd" clip-rule="evenodd" d="M18.9657 4.87424C18.9657 4.87424 19.0076 5.07864 19.1753 5.23064C19.3483 5.38787 19.364 5.53986 19.364 5.53986M18.8766 3.55872C18.8766 3.55872 18.9395 3.74216 19.1124 3.85746C19.3015 4.00895 19.4614 4.19367 19.5841 4.40254C19.6382 4.63404 19.6785 4.86856 19.7047 5.10485M17.7812 3.8365C17.7917 3.90987 17.5296 4.25579 17.8912 4.66459C17.561 5.06816 17.561 5.12057 17.561 5.12057C17.561 5.12057 17.7445 5.2254 18.0799 4.93713C18.625 5.608 18.4468 5.91723 18.4468 5.91723" fill="#EF7D00"/>
<path d="M18.9657 4.87424C18.9657 4.87424 19.0076 5.07864 19.1753 5.23064C19.3483 5.38787 19.364 5.53986 19.364 5.53986M18.8766 3.55872C18.8766 3.55872 18.9395 3.74216 19.1124 3.85746C19.3015 4.00895 19.4614 4.19367 19.5841 4.40254C19.6382 4.63404 19.6785 4.86856 19.7047 5.10485M17.7812 3.8365C17.7917 3.90987 17.5296 4.25579 17.8912 4.66459C17.561 5.06816 17.561 5.12057 17.561 5.12057C17.561 5.12057 17.7445 5.2254 18.0799 4.93713C18.625 5.608 18.4468 5.91723 18.4468 5.91723" stroke="black" stroke-width="0.129012" stroke-linecap="round"/>
<path fill-rule="evenodd" clip-rule="evenodd" d="M18.3944 5.44553C18.3944 5.44553 18.3472 5.37216 18.4363 5.10486C18.5202 5.1992 18.6093 5.22016 18.646 5.26209C18.6827 5.30402 19.1019 5.36167 19.1281 5.63421" fill="#EF7D00"/>
<path d="M18.3944 5.44553C18.3944 5.44553 18.3472 5.37216 18.4363 5.10486C18.5202 5.1992 18.6093 5.22016 18.646 5.26209C18.6827 5.30402 19.1019 5.36167 19.1281 5.63421" stroke="black" stroke-width="0.129012" stroke-linecap="round" stroke-linejoin="round"/>
<path fill-rule="evenodd" clip-rule="evenodd" d="M18.8818 2.91935C18.8818 2.89839 18.798 2.72019 18.4887 2.94032C18.6564 2.9508 18.8189 3.04514 18.8818 2.91935Z" fill="#EF7D00" stroke="black" stroke-width="0.129012"/>
<path fill-rule="evenodd" clip-rule="evenodd" d="M21.8378 3.73169C21.8535 3.74217 22.7655 3.94133 23.0695 3.83651C22.6816 4.35538 21.9059 4.00423 21.9059 4.00423C22.2885 4.11953 22.3043 4.10905 22.4248 4.21387C22.4615 4.3187 21.7277 4.27153 21.4814 4.13526C22.1628 4.3449 22.1732 4.33442 22.1942 4.41304C22.2257 4.52834 21.0936 4.38683 20.9887 4.23484C21.2927 4.47069 21.4605 4.51262 21.6282 4.62268C21.4185 4.71178 21.0412 4.80088 20.3441 4.30821C21.2613 5.1468 22.0894 5.09438 22.2204 5.24114C21.9007 5.71284 20.6638 4.96336 20.0925 4.58075C19.5265 4.20339 21.3399 5.49795 21.5076 5.47699C21.4238 5.60802 20.8263 5.49271 20.7843 5.42982" fill="#EF7D00"/>
<path d="M21.8378 3.73169C21.8535 3.74217 22.7655 3.94133 23.0695 3.83651C22.6816 4.35538 21.9059 4.00423 21.9059 4.00423C22.2885 4.11953 22.3043 4.10905 22.4248 4.21387C22.4615 4.3187 21.7277 4.27153 21.4814 4.13526C22.1628 4.3449 22.1732 4.33442 22.1942 4.41304C22.2257 4.52834 21.0936 4.38683 20.9887 4.23484C21.2927 4.47069 21.4605 4.51262 21.6282 4.62268C21.4185 4.71178 21.0412 4.80088 20.3441 4.30821C21.2613 5.1468 22.0894 5.09438 22.2204 5.24114C21.9007 5.71284 20.6638 4.96336 20.0925 4.58075C19.5265 4.20339 21.3399 5.49795 21.5076 5.47699C21.4238 5.60802 20.8263 5.49271 20.7843 5.42982" stroke="black" stroke-width="0.129012" stroke-linejoin="round"/>
<path fill-rule="evenodd" clip-rule="evenodd" d="M22.0737 4.60693C21.9688 4.62266 21.6544 4.62266 21.602 4.61217Z" fill="#EF7D00"/>
<path d="M22.0737 4.60693C21.9688 4.62266 21.6544 4.62266 21.602 4.61217" stroke="black" stroke-width="0.129012" stroke-linecap="round"/>
<path fill-rule="evenodd" clip-rule="evenodd" d="M15.2392 3.30188C15.2392 3.30188 15.931 3.66876 16.2246 3.64255C16.1459 3.71593 16.0306 3.74738 16.0306 3.74738C16.104 3.77358 16.3032 3.88365 16.6072 3.81027C16.539 3.88365 16.4447 3.9675 16.4447 3.9675C16.4447 3.9675 16.7067 4.06709 17.0002 3.91509C16.9499 3.97551 16.9026 4.03849 16.8587 4.10377L17.0684 4.1195" fill="#EF7D00"/>
<path d="M15.2392 3.30188C15.2392 3.30188 15.931 3.66876 16.2246 3.64255C16.1459 3.71593 16.0306 3.74738 16.0306 3.74738C16.104 3.77358 16.3032 3.88365 16.6072 3.81027C16.539 3.88365 16.4447 3.9675 16.4447 3.9675C16.4447 3.9675 16.7067 4.06709 17.0002 3.91509C16.9499 3.97551 16.9026 4.03849 16.8587 4.10377L17.0684 4.1195" stroke="black" stroke-width="0.129012" stroke-linecap="round" stroke-linejoin="round"/>
</g>
</g>
<defs>
<clipPath id="clip0_1_15398">
<rect width="26" height="26" fill="white"/>
</clipPath>
</defs>
</svg>
