<svg width="26" height="26" viewBox="0 0 26 26" fill="none" xmlns="http://www.w3.org/2000/svg">
<mask id="mask0_1_15424" style="mask-type:alpha" maskUnits="userSpaceOnUse" x="0" y="0" width="26" height="26">
<circle cx="13" cy="13" r="13" fill="#634848"/>
</mask>
<g mask="url(#mask0_1_15424)">
<g clip-path="url(#clip0_1_15424)">
<path d="M-0.0761719 0.00512695H51.7469V25.9913H-0.0761719V0.00512695Z" fill="#006400"/>
<path d="M-0.0761719 3.71741H51.7469V22.279H-0.0761719V3.71741Z" fill="#FFD200"/>
<path d="M-0.0761719 7.42981H51.7469V18.5667H-0.0761719V7.42981Z" fill="#D40000"/>
<path d="M-0.0761719 11.1421H51.7469V14.8544H-0.0761719V11.1421Z" fill="black"/>
<path d="M-0.0761719 0.00512695V25.9913L17.1982 12.9982L-0.0761719 0.00512695Z" fill="black" stroke="black" stroke-width="3.04162"/>
<path d="M-0.0761719 0.00512695V25.9913L17.1982 12.9982L-0.0761719 0.00512695Z" fill="white"/>
<path d="M6.49425 6.4646L9.91828 17.0261L0.960289 10.4986H12.0344L3.07023 17.0261L6.49425 6.4646Z" fill="#D40000"/>
<path d="M5.0321 15.702L5.63671 15.5906L6.75337 15.5473L7.16672 15.5845L8.09213 15.7391L8.16 15.6463V14.9781L8.27105 14.4027L8.45613 13.8211L8.65972 13.3571L8.91884 12.8745L9.33836 12.9797H9.4494L9.46174 12.8992L8.57335 12.1382L7.64794 11.4267L6.30917 10.4243L6.18578 10.3934L6.04389 9.34158L5.93901 9.02604L5.79711 8.9023L5.53183 8.81567L5.23569 8.82805L5.09997 8.9023L4.81617 8.96417L4.66811 8.98892L4.5694 9.10647L4.55706 9.25496L4.97041 9.26734L5.07529 9.31065L5.06295 9.35396L4.82851 9.3849L4.71746 9.42202L4.84702 9.52101L4.98275 9.57051L5.15549 9.63238L5.19251 9.75613L5.20485 11.3524L5.11231 11.5999L5.08146 12.0639L5.21719 12.6208L4.8717 13.0168L4.67428 13.3694L4.63726 13.586L4.53238 13.8025L4.52004 13.9387L4.58791 14.0872L4.85319 14.9657L4.98892 15.6896L5.0321 15.702Z" fill="#FFCC00"/>
<path d="M5.35291 8.79091C5.24186 8.79091 5.19251 8.80328 5.08763 8.85897C5.00072 8.90886 4.90372 8.93847 4.80384 8.94559C4.6496 8.94559 4.52621 9.05696 4.52621 9.19926V9.29207L4.74831 9.28588C5.40227 9.30445 4.81001 9.36632 4.76065 9.3725C4.60024 9.40344 4.79767 9.53337 4.98892 9.60143C5.19251 9.6633 5.18017 9.62618 5.18017 10.5295C5.18017 11.2658 5.18017 11.371 5.11848 11.538C5.03827 11.7855 5.03827 12.1567 5.11848 12.4042C5.15549 12.5032 5.18017 12.5898 5.18017 12.6084C5.18017 12.6208 5.08146 12.7383 4.96424 12.8745C4.74831 13.1219 4.61875 13.3756 4.61875 13.555C4.61106 13.6128 4.58992 13.6679 4.55706 13.7159C4.47686 13.8211 4.47686 14.0005 4.55089 14.0686C4.63109 14.1428 4.95807 15.4174 4.96424 15.6587C4.96424 15.7453 4.97658 15.7453 5.4763 15.6463C5.88348 15.5659 6.83974 15.5473 7.32713 15.6092C7.54922 15.6401 7.80834 15.6896 7.90088 15.7082C8.19701 15.7886 8.18467 15.801 8.18467 15.4421C8.18694 14.8767 8.29362 14.3166 8.49931 13.7902C8.6172 13.4902 8.75958 13.2004 8.925 12.924C8.925 12.924 9.03605 12.9363 9.17178 12.9734C9.42473 13.0353 9.49876 13.0291 9.49876 12.9116C9.49876 12.8497 9.23347 12.627 7.93173 11.6123C7.40669 11.1813 6.86545 10.7706 6.30917 10.381C6.27216 10.381 6.23514 10.3625 6.22897 10.3377L6.13643 9.74992C6.09324 9.44675 6.03155 9.14977 6.00687 9.08789C5.9205 8.90228 5.75393 8.80947 5.4763 8.79091C5.43518 8.78959 5.39403 8.78959 5.35291 8.79091V8.79091ZM5.35908 8.85278H5.48247C5.88965 8.87753 5.96369 8.9889 6.07473 9.71899C6.1047 9.91214 6.12939 10.1061 6.14877 10.3006C6.14877 10.3501 6.09324 10.412 5.95135 10.5048C5.71788 10.6691 5.50998 10.8671 5.3344 11.0925L5.2542 11.2039L5.23569 10.9441V10.214C5.2542 9.67568 5.23569 9.62618 5.06295 9.56431C4.92105 9.51481 4.73597 9.46531 4.78533 9.43438C4.84702 9.39725 4.90872 9.422 5.05678 9.37869C5.11848 9.36632 5.11231 9.3725 5.09997 9.32301C5.08763 9.24257 5.00126 9.19926 4.77299 9.21164C4.58791 9.22401 4.5694 9.21783 4.58174 9.16833C4.60641 9.06933 4.70512 9.00746 4.85936 8.9889C4.95378 8.97794 5.04561 8.95073 5.13081 8.90846C5.19968 8.86694 5.27874 8.84552 5.35908 8.84659V8.85278ZM6.27833 10.4491H6.303C6.40788 10.4676 9.43707 12.8435 9.43707 12.9116C9.43707 12.9363 9.41239 12.9549 9.37537 12.9549C9.35069 12.9549 8.57952 12.7383 7.66644 12.4723C6.21046 12.0392 6.0007 11.9773 5.93901 11.8969C5.89609 11.8425 5.87223 11.7755 5.87111 11.7061C5.87 11.6368 5.89169 11.569 5.93284 11.5133C5.96245 11.4772 5.98355 11.4349 5.99453 11.3895C5.99453 11.3153 5.8403 11.5009 5.80945 11.6061C5.7786 11.7298 5.8403 11.9402 5.93284 12.0082C5.96985 12.0392 6.24748 12.132 6.54978 12.2248C7.06801 12.3733 7.10503 12.3919 7.1297 12.4785C7.1914 12.6827 6.97547 12.9239 6.667 12.992C6.55134 13.0198 6.4423 13.0702 6.34619 13.1405C6.02611 13.4064 5.66851 13.6232 5.28505 13.784C5.26037 13.8025 5.22952 13.9015 5.21102 13.9943C5.174 14.1985 5.16166 14.2294 5.09997 14.2294C5.06912 14.2294 5.06295 14.2109 5.08763 14.1428C5.13081 14.0191 5.12464 13.8706 5.08146 13.8706C5.05061 13.8706 5.03827 13.9139 5.03827 13.982C5.03827 14.0438 5.01976 14.1181 4.99509 14.1366C4.96424 14.1738 4.95807 14.149 4.97041 13.9943C4.98275 13.8892 4.97658 13.8087 4.96424 13.8087C4.93339 13.8087 4.87787 13.9634 4.85936 14.0995C4.84702 14.1799 4.84702 14.1799 4.82234 14.081C4.80384 14.0067 4.81 13.9572 4.86553 13.8644C4.90059 13.7972 4.92158 13.7235 4.92722 13.6479C4.92722 13.5674 4.98892 13.487 5.27888 13.1962C5.46396 13.0044 5.69223 12.7631 5.77243 12.6579C5.91433 12.4847 5.9205 12.4723 5.91433 12.2929C5.91433 12.1939 5.90199 12.1011 5.88965 12.0887C5.85264 12.0516 5.80328 12.2495 5.82796 12.3547C5.8403 12.4537 5.82796 12.4847 5.62437 12.726C5.47789 12.8941 5.32348 13.0552 5.16166 13.2086C4.92105 13.4313 4.83468 13.555 4.83468 13.6664C4.83468 13.7035 4.81 13.7902 4.77299 13.8706C4.73597 13.951 4.72363 14.0315 4.73597 14.05C4.74831 14.0686 4.73597 14.0686 4.71746 14.05C4.68662 14.0191 4.68662 13.9696 4.71129 13.8644C4.72542 13.812 4.7296 13.7575 4.72363 13.7035C4.69279 13.6417 4.6496 13.7159 4.63109 13.8706C4.61875 13.9572 4.60024 14.0253 4.58174 14.0129C4.53855 13.9881 4.55089 13.8273 4.60641 13.7407C4.63726 13.6973 4.66811 13.5984 4.68662 13.5179C4.7298 13.289 4.82851 13.1034 5.04444 12.8559C5.1136 12.7804 5.17946 12.702 5.24186 12.6208L5.18017 12.4166C5.09743 12.1407 5.09315 11.8471 5.16783 11.569C5.24803 11.3338 5.40844 11.0987 5.66138 10.8451C5.90816 10.6038 6.14877 10.4553 6.27833 10.4491V10.4491ZM7.20374 12.4413C7.21153 12.4408 7.21942 12.4413 7.22688 12.4429C7.23435 12.4445 7.24122 12.4471 7.24705 12.4506C7.25288 12.4542 7.25753 12.4584 7.2607 12.4632C7.26387 12.468 7.26548 12.4732 7.26543 12.4785C7.26164 12.4858 7.25456 12.4921 7.24516 12.4965C7.23576 12.501 7.22452 12.5034 7.21299 12.5034C7.20146 12.5034 7.19022 12.501 7.18082 12.4965C7.17143 12.4921 7.16434 12.4858 7.16055 12.4785C7.16023 12.4699 7.16436 12.4615 7.17223 12.4548C7.1801 12.448 7.19123 12.4433 7.20374 12.4413V12.4413ZM7.35797 12.4599C7.36577 12.4593 7.37365 12.4599 7.38112 12.4615C7.38859 12.4631 7.39546 12.4657 7.40129 12.4692C7.40712 12.4727 7.41177 12.477 7.41493 12.4818C7.4181 12.4866 7.41972 12.4918 7.41967 12.497C7.41588 12.5043 7.40879 12.5106 7.3994 12.5151C7.39 12.5196 7.37876 12.522 7.36723 12.522C7.3557 12.522 7.34445 12.5196 7.33506 12.5151C7.32566 12.5106 7.31858 12.5043 7.31479 12.497C7.31447 12.4885 7.31859 12.4801 7.32647 12.4733C7.33434 12.4666 7.34547 12.4618 7.35797 12.4599V12.4599ZM7.51838 12.4908C7.52617 12.4903 7.53406 12.4908 7.54152 12.4924C7.54899 12.494 7.55586 12.4966 7.56169 12.5001C7.56752 12.5037 7.57217 12.5079 7.57534 12.5127C7.57851 12.5175 7.58012 12.5227 7.58007 12.528C7.57628 12.5352 7.5692 12.5416 7.5598 12.546C7.5504 12.5505 7.53916 12.5529 7.52763 12.5529C7.5161 12.5529 7.50486 12.5505 7.49546 12.546C7.48607 12.5416 7.47898 12.5352 7.47519 12.528C7.47487 12.5194 7.479 12.511 7.48687 12.5043C7.49474 12.4975 7.50587 12.4927 7.51838 12.4908V12.4908ZM7.66644 12.5218C7.67424 12.5212 7.68212 12.5217 7.68959 12.5233C7.69706 12.5249 7.70393 12.5276 7.70976 12.5311C7.71559 12.5346 7.72024 12.5389 7.72341 12.5437C7.72657 12.5485 7.72819 12.5537 7.72814 12.5589C7.72435 12.5662 7.71726 12.5725 7.70787 12.577C7.69847 12.5814 7.68723 12.5838 7.6757 12.5838C7.66417 12.5838 7.65293 12.5814 7.64353 12.577C7.63413 12.5725 7.62705 12.5662 7.62326 12.5589C7.62294 12.5503 7.62706 12.542 7.63494 12.5352C7.64281 12.5284 7.65394 12.5237 7.66644 12.5218ZM7.27777 12.5589C7.28556 12.5583 7.29345 12.5589 7.30092 12.5605C7.30838 12.5621 7.31526 12.5647 7.32108 12.5682C7.32691 12.5717 7.33156 12.576 7.33473 12.5808C7.3379 12.5856 7.33951 12.5908 7.33946 12.596C7.33568 12.6033 7.32859 12.6096 7.31919 12.6141C7.3098 12.6186 7.29855 12.621 7.28702 12.621C7.2755 12.621 7.26425 12.6186 7.25486 12.6141C7.24546 12.6096 7.23837 12.6033 7.23458 12.596C7.23426 12.5875 7.23839 12.5791 7.24626 12.5723C7.25414 12.5655 7.26527 12.5608 7.27777 12.5589ZM7.42584 12.5837C7.43363 12.5831 7.44152 12.5836 7.44898 12.5852C7.45645 12.5868 7.46332 12.5894 7.46915 12.593C7.47498 12.5965 7.47963 12.6008 7.4828 12.6056C7.48597 12.6103 7.48758 12.6155 7.48753 12.6208C7.48374 12.6281 7.47666 12.6344 7.46726 12.6388C7.45786 12.6433 7.44662 12.6457 7.43509 12.6457C7.42356 12.6457 7.41232 12.6433 7.40292 12.6388C7.39352 12.6344 7.38644 12.6281 7.38265 12.6208C7.38233 12.6122 7.38646 12.6038 7.39433 12.5971C7.4022 12.5903 7.41333 12.5856 7.42584 12.5837V12.5837ZM7.74665 12.596C7.75444 12.5954 7.76233 12.596 7.76979 12.5976C7.77726 12.5992 7.78413 12.6018 7.78996 12.6053C7.79579 12.6088 7.80044 12.6131 7.80361 12.6179C7.80678 12.6227 7.80839 12.6279 7.80834 12.6332C7.80455 12.6404 7.79747 12.6467 7.78807 12.6512C7.77867 12.6557 7.76743 12.6581 7.7559 12.6581C7.74437 12.6581 7.73313 12.6557 7.72373 12.6512C7.71433 12.6467 7.70725 12.6404 7.70346 12.6332C7.70314 12.6246 7.70727 12.6162 7.71514 12.6094C7.72301 12.6027 7.73414 12.5979 7.74665 12.596ZM7.58007 12.596C7.58786 12.5954 7.59575 12.596 7.60322 12.5976C7.61068 12.5992 7.61756 12.6018 7.62339 12.6053C7.62921 12.6088 7.63387 12.6131 7.63703 12.6179C7.6402 12.6227 7.64181 12.6279 7.64177 12.6332C7.63798 12.6404 7.63089 12.6467 7.62149 12.6512C7.6121 12.6557 7.60085 12.6581 7.58933 12.6581C7.5778 12.6581 7.56655 12.6557 7.55716 12.6512C7.54776 12.6467 7.54068 12.6404 7.53689 12.6332C7.53657 12.6246 7.54069 12.6162 7.54856 12.6094C7.55644 12.6027 7.56757 12.5979 7.58007 12.596V12.596ZM7.88854 12.6332C7.89471 12.6332 8.11681 12.6827 8.3821 12.7569L8.86948 12.8992L8.77694 13.0663C8.72523 13.1557 8.67586 13.2465 8.62887 13.3385C8.56718 13.4622 8.55484 13.4622 8.25871 13.3942C7.9379 13.3199 7.43201 13.2519 6.91378 13.2086L6.42022 13.1653L6.6053 13.0972C6.71706 13.0541 6.82623 13.0045 6.93228 12.9487C7.05567 12.8806 7.10503 12.8683 7.29628 12.8868C7.5739 12.9054 7.75898 12.8497 7.83302 12.7383L7.89471 12.6332H7.88854ZM7.34563 12.6703C7.35343 12.6697 7.36132 12.6702 7.36878 12.6718C7.37625 12.6734 7.38312 12.6761 7.38895 12.6796C7.39478 12.6831 7.39943 12.6874 7.4026 12.6922C7.40576 12.697 7.40738 12.7022 7.40733 12.7074C7.40354 12.7147 7.39645 12.721 7.38706 12.7255C7.37766 12.7299 7.36642 12.7323 7.35489 12.7323C7.34336 12.7323 7.33212 12.7299 7.32272 12.7255C7.31332 12.721 7.30624 12.7147 7.30245 12.7074C7.30213 12.6988 7.30626 12.6904 7.31413 12.6837C7.322 12.6769 7.33313 12.6722 7.34563 12.6703V12.6703ZM7.69112 12.6703C7.69891 12.6697 7.7068 12.6702 7.71427 12.6718C7.72173 12.6734 7.72861 12.6761 7.73444 12.6796C7.74026 12.6831 7.74492 12.6874 7.74808 12.6922C7.75125 12.697 7.75286 12.7022 7.75282 12.7074C7.74814 12.7135 7.74107 12.7185 7.73236 12.7221C7.72366 12.7256 7.71366 12.7275 7.70346 12.7275C7.69326 12.7275 7.68326 12.7256 7.67456 12.7221C7.66585 12.7185 7.65878 12.7135 7.6541 12.7074C7.65379 12.6988 7.65791 12.6904 7.66578 12.6837C7.67366 12.6769 7.68479 12.6722 7.69729 12.6703H7.69112ZM7.19757 12.6703C7.20536 12.6697 7.21325 12.6702 7.22072 12.6718C7.22818 12.6734 7.23505 12.6761 7.24088 12.6796C7.24671 12.6831 7.25136 12.6874 7.25453 12.6922C7.2577 12.697 7.25931 12.7022 7.25926 12.7074C7.25547 12.7147 7.24839 12.721 7.23899 12.7255C7.22959 12.7299 7.21835 12.7323 7.20682 12.7323C7.19529 12.7323 7.18405 12.7299 7.17465 12.7255C7.16526 12.721 7.15817 12.7147 7.15438 12.7074C7.15601 12.6999 7.16102 12.6929 7.16874 12.6874C7.17645 12.6819 7.18651 12.6781 7.19757 12.6765V12.6703ZM7.52455 12.6826C7.53882 12.6815 7.55323 12.684 7.56474 12.6898C7.57625 12.6956 7.58395 12.7041 7.58624 12.7136C7.58245 12.7209 7.57537 12.7272 7.56597 12.7316C7.55657 12.7361 7.54533 12.7385 7.5338 12.7385C7.52227 12.7385 7.51103 12.7361 7.50163 12.7316C7.49223 12.7272 7.48515 12.7209 7.48136 12.7136C7.48299 12.7061 7.488 12.6991 7.49572 12.6936C7.50343 12.6881 7.51349 12.6843 7.52455 12.6826ZM7.11737 12.7507C7.12516 12.7501 7.13305 12.7507 7.14051 12.7523C7.14798 12.7539 7.15485 12.7565 7.16068 12.76C7.16651 12.7635 7.17116 12.7678 7.17433 12.7726C7.1775 12.7774 7.17911 12.7826 7.17906 12.7878C7.17527 12.7951 7.16819 12.8014 7.15879 12.8059C7.14939 12.8104 7.13815 12.8128 7.12662 12.8128C7.11509 12.8128 7.10385 12.8104 7.09445 12.8059C7.08505 12.8014 7.07797 12.7951 7.07418 12.7878C7.07386 12.7793 7.07799 12.7709 7.08586 12.7641C7.09373 12.7573 7.10486 12.7526 7.11737 12.7507V12.7507ZM7.2716 12.7507C7.28024 12.75 7.28901 12.7506 7.29722 12.7526C7.30542 12.7545 7.31283 12.7577 7.31883 12.7619C7.32484 12.7661 7.32927 12.7712 7.33179 12.7768C7.3343 12.7824 7.33482 12.7883 7.3333 12.794C7.32951 12.8013 7.32242 12.8076 7.31302 12.8121C7.30363 12.8165 7.29238 12.8189 7.28086 12.8189C7.26933 12.8189 7.25808 12.8165 7.24869 12.8121C7.23929 12.8076 7.2322 12.8013 7.22842 12.794C7.2281 12.7854 7.23222 12.7771 7.24009 12.7703C7.24797 12.7635 7.2591 12.7588 7.2716 12.7569V12.7507ZM7.43201 12.7631C7.44628 12.7619 7.46069 12.7645 7.4722 12.7702C7.4837 12.776 7.49141 12.7845 7.4937 12.794C7.48991 12.8013 7.48283 12.8076 7.47343 12.8121C7.46403 12.8165 7.45279 12.8189 7.44126 12.8189C7.42973 12.8189 7.41849 12.8165 7.40909 12.8121C7.39969 12.8076 7.39261 12.8013 7.38882 12.794C7.39045 12.7865 7.39546 12.7796 7.40317 12.774C7.41089 12.7685 7.42095 12.7647 7.43201 12.7631ZM7.60475 12.7631C7.61254 12.7625 7.62043 12.763 7.6279 12.7646C7.63536 12.7662 7.64224 12.7689 7.64806 12.7724C7.65389 12.7759 7.65854 12.7802 7.66171 12.785C7.66488 12.7898 7.66649 12.795 7.66644 12.8002C7.66265 12.8075 7.65557 12.8138 7.64617 12.8183C7.63678 12.8227 7.62553 12.8251 7.614 12.8251C7.60247 12.8251 7.59123 12.8227 7.58183 12.8183C7.57244 12.8138 7.56535 12.8075 7.56156 12.8002C7.56124 12.7916 7.56537 12.7833 7.57324 12.7765C7.58111 12.7697 7.59225 12.765 7.60475 12.7631V12.7631ZM6.35236 13.2642C7.08063 13.2836 7.80555 13.3706 8.51782 13.5241C8.52399 13.5303 8.48081 13.6788 8.41294 13.8582L8.28955 14.2294C8.28339 14.2604 8.2402 14.2604 8.13532 14.248C7.62326 14.1676 6.1426 14.1738 5.57501 14.2604C5.24803 14.3099 5.20485 14.3037 5.22953 14.2356L5.29122 14.0191L5.32824 13.852L5.66138 13.6788C5.88344 13.5651 6.09416 13.4305 6.29066 13.2766H6.34619L6.35236 13.2642ZM4.68662 14.1428C4.70512 14.1428 4.74214 14.1614 4.78533 14.1923C4.84702 14.2294 4.92105 14.2604 4.9519 14.2604C5.11231 14.2604 5.19868 14.4893 5.3344 15.2503L5.38376 15.5226C5.3961 15.5844 5.38376 15.5968 5.24186 15.6278C5.06912 15.6649 5.02593 15.6711 5.02593 15.6463C5.02593 15.5844 4.85319 14.7987 4.77916 14.5202C4.74231 14.3976 4.70939 14.2738 4.68045 14.149C4.68139 14.1485 4.68245 14.1482 4.68353 14.1482C4.68462 14.1482 4.68568 14.1485 4.68662 14.149V14.1428ZM6.45107 14.2666H6.62998L6.56829 14.3284C6.46341 14.4522 6.41405 14.4584 6.34002 14.3779C6.31402 14.351 6.29311 14.3196 6.27833 14.2851C6.27833 14.2728 6.35853 14.2604 6.45107 14.2604V14.2666ZM6.8274 14.2666H7.16055L7.08652 14.3408C7.00015 14.4398 6.99398 14.4398 6.90144 14.3408L6.8274 14.2604V14.2666ZM7.3333 14.2666H7.4135C7.45668 14.2666 7.53689 14.2666 7.58624 14.2789L7.67878 14.2975L7.59241 14.3779C7.54306 14.4212 7.49987 14.4584 7.4937 14.4522L7.40733 14.3532L7.3333 14.2604V14.2666ZM7.8577 14.2851L7.93173 14.3037C7.97491 14.3161 8.06746 14.3223 8.13532 14.3284H8.25871L8.16617 14.4089C8.13264 14.4402 8.09534 14.4673 8.05512 14.4893C8.04895 14.4893 7.99342 14.4398 7.95024 14.3841L7.8577 14.2851V14.2851ZM5.99453 14.2913H6.00687C6.01304 14.3037 5.98836 14.3532 5.94518 14.3965L5.88348 14.4831L5.79094 14.4089L5.6984 14.3284L5.84647 14.3099L5.99453 14.2913V14.2913ZM6.13643 14.3037L6.23514 14.3903L6.33385 14.4831L6.14877 14.4955L5.96369 14.5017L6.05006 14.4089L6.13643 14.3037ZM7.24692 14.3037C7.26543 14.3037 7.27777 14.3099 7.29628 14.3223C7.32854 14.3527 7.35563 14.3882 7.37648 14.4274C7.40116 14.4769 7.39499 14.4893 7.31479 14.4893L7.16055 14.4584L7.08652 14.4398L7.16672 14.3594C7.20374 14.3223 7.22842 14.2975 7.25309 14.2975L7.24692 14.3037ZM6.73486 14.3037C6.76571 14.3037 6.79656 14.3223 6.83357 14.3841C6.87676 14.4522 6.87676 14.4522 6.71018 14.4522H6.54361L6.62998 14.3718C6.67317 14.3284 6.71018 14.3099 6.73486 14.3099V14.3037ZM7.78366 14.3161L7.8577 14.3903C7.94407 14.4707 7.95641 14.5202 7.89471 14.5141L7.72197 14.4955L7.58624 14.4831L7.68495 14.4027L7.78366 14.3161V14.3161ZM5.61203 14.3594C5.62437 14.3594 5.67372 14.3903 5.71074 14.4336L5.78477 14.5141L5.63054 14.5388L5.41461 14.5697C5.37142 14.5821 5.38376 14.5512 5.4763 14.4707C5.538 14.4089 5.59969 14.3594 5.61203 14.3594ZM5.38376 14.3594H5.40844C5.45779 14.3718 5.45779 14.3841 5.37142 14.4707L5.27888 14.5636L5.24803 14.4831C5.22336 14.4212 5.22953 14.4027 5.28505 14.3779C5.31666 14.3662 5.35004 14.3599 5.38376 14.3594V14.3594ZM8.22169 14.4707C8.23403 14.4707 8.23403 14.4831 8.22169 14.5079C8.20935 14.5574 8.15383 14.5697 8.15383 14.5202C8.15383 14.5079 8.17234 14.4893 8.19701 14.4769H8.21552L8.22169 14.4707ZM6.90144 14.5697C7.37648 14.5697 7.8577 14.5821 7.97491 14.5945C8.16617 14.6192 8.18467 14.6254 8.18467 14.6997C8.18467 14.7863 8.16 14.7925 7.90088 14.7492C7.82685 14.7306 7.51221 14.7059 7.20991 14.6811C6.62319 14.6455 6.03442 14.6663 5.45162 14.743C5.3344 14.7554 5.30356 14.743 5.30356 14.7059C5.30356 14.6254 5.93284 14.5697 6.90144 14.5697V14.5697ZM6.26599 14.7492H6.59913L6.5251 14.8296C6.43256 14.9286 6.42639 14.9286 6.34002 14.8296L6.26599 14.7492ZM6.69785 14.7492L6.78422 14.8358L6.87059 14.9348L6.69168 14.941H6.51276L6.6053 14.842L6.69168 14.7492H6.69785ZM6.8274 14.7492H7.16055L7.08652 14.8296C7.00015 14.9286 6.99398 14.9286 6.90144 14.8296L6.8274 14.7492ZM6.03772 14.7492C6.05006 14.7492 6.03772 14.7801 5.99453 14.842C5.95135 14.8977 5.90816 14.941 5.90199 14.941C5.88965 14.941 5.84647 14.9039 5.80945 14.8605L5.73542 14.7801H5.84647C5.90292 14.7804 5.95909 14.7721 6.01304 14.7554C6.02118 14.7537 6.02958 14.7537 6.03772 14.7554V14.7492ZM6.16111 14.7801L6.24131 14.8544L6.33385 14.9348L6.17345 14.9472L5.99453 14.9595L6.0809 14.8667L6.16111 14.7801V14.7801ZM7.23458 14.7801L7.32096 14.8791C7.41967 14.9843 7.4135 14.9905 7.1914 14.9472L7.08652 14.9286L7.16055 14.8544L7.23458 14.7801V14.7801ZM7.35797 14.7801H7.50604C7.66644 14.7801 7.68495 14.8049 7.59241 14.8915C7.51838 14.9533 7.51838 14.9533 7.43201 14.8605L7.35797 14.7801V14.7801ZM5.47013 14.811C5.54417 14.811 5.538 14.8172 5.44545 14.91C5.37759 14.9781 5.37142 14.9781 5.34674 14.9286C5.32824 14.8667 5.38376 14.8172 5.47013 14.811ZM7.86386 14.8234C7.88854 14.8234 7.9379 14.8234 7.98725 14.8358L8.12915 14.8605L8.04895 14.9348L7.97491 15.009L7.90705 14.9224L7.84536 14.8234H7.86386V14.8234ZM5.64288 14.8544C5.66138 14.8544 5.67989 14.8667 5.71074 14.8977C5.77243 14.9595 5.77243 14.9595 5.72308 14.9843C5.67527 15.0001 5.62534 15.0084 5.57501 15.009H5.4763L5.5565 14.9224C5.59969 14.8791 5.6182 14.8605 5.63671 14.8544H5.64288ZM7.74665 14.8729C7.77132 14.8729 7.78983 14.8853 7.82068 14.9348L7.8762 15.009H7.74665C7.66027 15.009 7.62326 14.9967 7.62326 14.9719C7.6356 14.9472 7.66644 14.91 7.70346 14.8915L7.74665 14.8729V14.8729ZM8.14149 14.9533C8.15383 14.9533 8.15383 14.9657 8.15383 14.9843C8.15383 15.0462 8.0983 15.0895 8.07363 15.0462C8.06746 15.0276 8.07979 14.9967 8.10447 14.9781L8.14149 14.9533V14.9533ZM6.54361 15.0276C7.08035 15.0276 7.67261 15.0647 8.02427 15.1266L8.12298 15.1452V15.4174C8.12298 15.6216 8.11064 15.6896 8.07979 15.6896L7.77132 15.6278C7.05794 15.5064 6.33116 15.4856 5.61203 15.5659L5.47013 15.5844L5.43312 15.3555C5.41778 15.2781 5.40952 15.1994 5.40844 15.1204C5.40844 15.1204 5.55033 15.0895 5.71691 15.0709C5.9205 15.04 6.2228 15.0276 6.54361 15.0276V15.0276Z" fill="black"/>
<path d="M7.62326 13.4808C7.43817 13.4808 7.30862 13.6108 7.30862 13.8026C7.30862 14.0996 7.64177 14.248 7.83919 14.0377C8.03661 13.8273 7.90088 13.4808 7.62326 13.4808V13.4808ZM7.62326 13.5551C7.65566 13.5551 7.68775 13.5615 7.71769 13.5739C7.74763 13.5864 7.77484 13.6046 7.79775 13.6276C7.82067 13.6505 7.83885 13.6778 7.85125 13.7079C7.86365 13.7379 7.87003 13.7701 7.87003 13.8026C7.87003 13.9882 7.66644 14.1119 7.49987 14.0315C7.33329 13.9387 7.34563 13.6541 7.52455 13.5798C7.55364 13.566 7.585 13.5576 7.61709 13.5551H7.62326Z" fill="black"/>
<path d="M7.62326 13.4808C7.43817 13.4808 7.30862 13.6108 7.30862 13.8026C7.30862 14.0996 7.64177 14.248 7.83919 14.0377C8.03661 13.8273 7.90088 13.4808 7.62326 13.4808V13.4808ZM7.62326 13.5551C7.65566 13.5551 7.68775 13.5615 7.71769 13.5739C7.74763 13.5864 7.77484 13.6046 7.79775 13.6276C7.82067 13.6505 7.83885 13.6778 7.85125 13.7079C7.86365 13.7379 7.87003 13.7701 7.87003 13.8026C7.87003 13.9882 7.66644 14.1119 7.49987 14.0315C7.33329 13.9387 7.34563 13.6541 7.52455 13.5798C7.55364 13.566 7.585 13.5576 7.61709 13.5551H7.62326Z" fill="black"/>
<path d="M5.35291 8.99505C5.32716 8.99662 5.30285 9.00822 5.28464 9.02762C5.26643 9.04703 5.25559 9.07288 5.2542 9.10023C5.2542 9.13064 5.26558 9.1598 5.28583 9.1813C5.30607 9.2028 5.33353 9.21488 5.36217 9.21488C5.3908 9.21488 5.41826 9.2028 5.43851 9.1813C5.45876 9.1598 5.47013 9.13064 5.47013 9.10023C5.46944 9.08496 5.46578 9.07001 5.45941 9.05631C5.45303 9.0426 5.44407 9.03043 5.43307 9.02057C5.42207 9.0107 5.40928 9.00334 5.39549 8.99895C5.3817 8.99456 5.36721 8.99324 5.35291 8.99505V8.99505ZM5.35908 9.03217C5.37872 9.03217 5.39755 9.03935 5.41143 9.05211C5.42532 9.06487 5.43312 9.08218 5.43312 9.10023C5.43312 9.11828 5.42532 9.1356 5.41143 9.14836C5.39755 9.16112 5.37872 9.16829 5.35908 9.16829C5.33945 9.16829 5.32062 9.16112 5.30673 9.14836C5.29285 9.1356 5.28505 9.11828 5.28505 9.10023C5.28505 9.0913 5.28697 9.08245 5.29069 9.07419C5.29441 9.06593 5.29986 9.05843 5.30673 9.05211C5.31361 9.04579 5.32177 9.04078 5.33075 9.03736C5.33973 9.03394 5.34936 9.03217 5.35908 9.03217Z" fill="black"/>
</g>
</g>
<defs>
<clipPath id="clip0_1_15424">
<rect width="26" height="26" fill="white"/>
</clipPath>
</defs>
</svg>
