<svg width="20" height="20" viewBox="0 0 20 20" fill="none" xmlns="http://www.w3.org/2000/svg">
<path d="M13.1094 11.4717H6.85938C6.77722 11.4714 6.69582 11.4889 6.61987 11.5234C6.54391 11.5578 6.4749 11.6084 6.4168 11.6724C6.35871 11.7363 6.31268 11.8122 6.28137 11.8957C6.25007 11.9793 6.23409 12.0688 6.23438 12.1592V18.3467C6.23436 18.437 6.25051 18.5264 6.28191 18.6098C6.31331 18.6932 6.35934 18.769 6.41739 18.8329C6.47543 18.8967 6.54434 18.9474 6.62017 18.9819C6.69601 19.0164 6.7773 19.0342 6.85938 19.0342H13.1094C13.275 19.0337 13.4337 18.961 13.5508 18.8322C13.6679 18.7034 13.7339 18.5289 13.7344 18.3467V12.1592C13.7344 12.0689 13.7182 11.9795 13.6868 11.8961C13.6554 11.8126 13.6094 11.7368 13.5514 11.673C13.4933 11.6091 13.4244 11.5585 13.3486 11.524C13.2727 11.4894 13.1915 11.4717 13.1094 11.4717ZM10.6094 17.0714H9.35938C9.2765 17.0714 9.19701 17.0352 9.13841 16.9707C9.0798 16.9062 9.04688 16.8188 9.04688 16.7276C9.04688 16.6365 9.0798 16.549 9.13841 16.4846C9.19701 16.4201 9.2765 16.3839 9.35938 16.3839H9.67188V14.4761C9.61436 14.541 9.5359 14.5785 9.45346 14.5804C9.37102 14.5823 9.29122 14.5484 9.2313 14.4861C9.17137 14.4238 9.13614 14.3381 9.13321 14.2474C9.13028 14.1568 9.15988 14.0685 9.21563 14.0017L9.75625 13.3726C9.79904 13.3224 9.85455 13.2874 9.9156 13.2723C9.97665 13.2572 10.0404 13.2625 10.0987 13.2877C10.1569 13.3129 10.2069 13.3567 10.2423 13.4135C10.2776 13.4704 10.2966 13.5375 10.2969 13.6064V16.3839H10.6094C10.6923 16.3839 10.7717 16.4201 10.8303 16.4846C10.889 16.549 10.9219 16.6365 10.9219 16.7276C10.9219 16.8188 10.889 16.9062 10.8303 16.9707C10.7717 17.0352 10.6923 17.0714 10.6094 17.0714Z" fill="#54657E"/>
<path d="M5.60938 18.3467C5.60961 18.5882 5.66783 18.8254 5.77813 19.0342H1.85938C1.7773 19.0342 1.69601 19.0164 1.62017 18.9819C1.54434 18.9474 1.47543 18.8967 1.41739 18.8329C1.35934 18.769 1.31331 18.6932 1.28191 18.6098C1.25051 18.5264 1.23436 18.437 1.23438 18.3467V13.5342C1.23409 13.4438 1.25007 13.3543 1.28137 13.2707C1.31268 13.1872 1.35871 13.1113 1.4168 13.0474C1.4749 12.9834 1.54391 12.9328 1.61987 12.8984C1.69582 12.8639 1.77722 12.8464 1.85938 12.8467H5.60938V18.3467Z" fill="#54657E"/>
<path d="M18.7719 14.9092V18.3467C18.7719 18.437 18.7557 18.5264 18.7243 18.6098C18.6929 18.6932 18.6469 18.769 18.5889 18.8329C18.5308 18.8967 18.4619 18.9474 18.3861 18.9819C18.3102 19.0164 18.229 19.0342 18.1469 19.0342H14.1875C14.3002 18.8263 14.3596 18.5887 14.3594 18.3467V14.2217H18.1469C18.229 14.2214 18.3104 14.2389 18.3864 14.2734C18.4623 14.3078 18.5314 14.3584 18.5895 14.4224C18.6475 14.4863 18.6936 14.5622 18.7249 14.6457C18.7562 14.7293 18.7722 14.8188 18.7719 14.9092Z" fill="#54657E"/>
<path d="M12.5029 6.32636L10.9805 6.07073L10.2968 4.46948L10.2966 4.46931C10.2688 4.40402 10.2245 4.34881 10.1692 4.31015C10.1138 4.27148 10.0496 4.25096 9.98401 4.25098C9.91843 4.25099 9.85421 4.27155 9.79887 4.31025C9.74352 4.34894 9.69934 4.40417 9.67148 4.46948L8.98789 6.07073L7.46567 6.32636C7.40263 6.3373 7.34353 6.3671 7.29485 6.4125C7.24617 6.4579 7.20977 6.51715 7.18964 6.58377C7.16951 6.6504 7.16642 6.72183 7.18071 6.79025C7.195 6.85867 7.22613 6.92146 7.27067 6.97173L8.38136 8.22303L8.11875 9.99299C8.10788 10.0635 8.11528 10.136 8.1401 10.2021C8.16493 10.2682 8.20617 10.3252 8.25912 10.3668C8.31207 10.4083 8.37457 10.4325 8.43947 10.4368C8.50438 10.441 8.56906 10.4251 8.62611 10.3908L9.98414 9.56548L11.342 10.3906C11.399 10.425 11.4636 10.441 11.5284 10.4368C11.5933 10.4327 11.6557 10.4086 11.7087 10.3672C11.7617 10.3259 11.803 10.2689 11.828 10.203C11.8529 10.137 11.8605 10.0646 11.8498 9.99416L11.5871 8.22302L12.6976 6.97172C12.7422 6.92148 12.7733 6.85872 12.7876 6.79031C12.802 6.72191 12.7989 6.65049 12.7788 6.58387C12.7587 6.51724 12.7223 6.45798 12.6737 6.41257C12.625 6.36715 12.5659 6.33733 12.5029 6.32636Z" fill="#56C6AD"/>
<path d="M6.3815 8.29199H4.5625C4.47962 8.29199 4.40013 8.25578 4.34153 8.19131C4.28292 8.12684 4.25 8.03941 4.25 7.94824C4.25 7.85707 4.28292 7.76964 4.34153 7.70517C4.40013 7.64071 4.47962 7.60449 4.5625 7.60449H6.3815C6.46438 7.60449 6.54387 7.64071 6.60247 7.70517C6.66108 7.76964 6.694 7.85707 6.694 7.94824C6.694 8.03941 6.66108 8.12684 6.60247 8.19131C6.54387 8.25578 6.46438 8.29199 6.3815 8.29199Z" fill="#56C6AD"/>
<path d="M15.4049 8.29199H13.5859C13.5031 8.29199 13.4236 8.25578 13.365 8.19131C13.3064 8.12684 13.2734 8.03941 13.2734 7.94824C13.2734 7.85707 13.3064 7.76964 13.365 7.70517C13.4236 7.64071 13.5031 7.60449 13.5859 7.60449H15.4049C15.4878 7.60449 15.5673 7.64071 15.6259 7.70517C15.6845 7.76964 15.7174 7.85707 15.7174 7.94824C15.7174 8.03941 15.6845 8.12684 15.6259 8.19131C15.5673 8.25578 15.4878 8.29199 15.4049 8.29199Z" fill="#56C6AD"/>
<path d="M9.67188 3.20313V2.05371C9.67188 1.96254 9.7048 1.87511 9.7634 1.81064C9.82201 1.74618 9.90149 1.70996 9.98438 1.70996C10.0673 1.70996 10.1467 1.74618 10.2053 1.81064C10.264 1.87511 10.2969 1.96254 10.2969 2.05371V3.20313C10.2969 3.29429 10.264 3.38173 10.2053 3.44619C10.1467 3.51066 10.0673 3.54688 9.98438 3.54688C9.90149 3.54688 9.82201 3.51066 9.7634 3.44619C9.7048 3.38173 9.67188 3.29429 9.67188 3.20313Z" fill="#56C6AD"/>
<path d="M6.07748 6.58403L4.01678 5.62628C3.94107 5.59032 3.88135 5.5229 3.85063 5.43872C3.8199 5.35454 3.82067 5.26041 3.85275 5.17685C3.88484 5.09328 3.94565 5.02705 4.02193 4.99258C4.09821 4.95812 4.18378 4.9582 4.26 4.99283L6.3207 5.95056C6.39664 5.98636 6.4566 6.05377 6.48749 6.13805C6.51838 6.22234 6.51767 6.31665 6.48553 6.40037C6.45338 6.48409 6.39242 6.5504 6.31595 6.58481C6.23949 6.61923 6.15375 6.61895 6.07748 6.58403Z" fill="#56C6AD"/>
<path d="M15.7027 10.9036L13.6419 9.94553C13.5661 9.9096 13.5064 9.84219 13.4756 9.75801C13.4449 9.67382 13.4457 9.57968 13.4778 9.49611C13.5099 9.41253 13.5707 9.34631 13.647 9.31187C13.7233 9.27742 13.8089 9.27756 13.8851 9.31224L15.9459 10.2701C16.0216 10.3061 16.0814 10.3735 16.1121 10.4577C16.1428 10.5419 16.142 10.636 16.11 10.7196C16.0779 10.8031 16.0171 10.8694 15.9408 10.9038C15.8645 10.9383 15.7789 10.9382 15.7027 10.9036Z" fill="#56C6AD"/>
<path d="M13.6232 5.87561L15.6962 4.94994C15.7729 4.91655 15.8584 4.91782 15.9342 4.95348C16.01 4.98914 16.0699 5.0563 16.1009 5.14033C16.1319 5.22437 16.1315 5.31847 16.0997 5.40214C16.0679 5.48582 16.0074 5.55229 15.9312 5.58708L13.8582 6.51276C13.7815 6.54646 13.6957 6.54539 13.6198 6.50979C13.5438 6.47418 13.4837 6.40693 13.4526 6.32274C13.4216 6.23855 13.4221 6.14425 13.454 6.06047C13.486 5.97669 13.5468 5.91023 13.6232 5.87561Z" fill="#56C6AD"/>
<path d="M4.0368 10.3092L6.1097 9.38354C6.18635 9.35014 6.2719 9.35141 6.3477 9.38707C6.42351 9.42273 6.48343 9.48989 6.51443 9.57393C6.54542 9.65797 6.54497 9.75207 6.51318 9.83575C6.48139 9.91943 6.42083 9.9859 6.34469 10.0207L4.27178 10.9464C4.1951 10.9799 4.10948 10.9787 4.03359 10.9431C3.9577 10.9074 3.8977 10.8402 3.86668 10.7561C3.83566 10.672 3.83613 10.5778 3.868 10.4941C3.89987 10.4104 3.96055 10.3439 4.0368 10.3092Z" fill="#56C6AD"/>
<path d="M6.80827 4.99399L5.96645 3.94025C5.91267 3.87164 5.88569 3.78245 5.89137 3.69208C5.89705 3.6017 5.93494 3.51745 5.9968 3.45764C6.05865 3.39783 6.13947 3.36729 6.22168 3.37268C6.30389 3.37806 6.38084 3.41893 6.43581 3.48639L7.27763 4.54013C7.33145 4.60874 7.35846 4.69794 7.35279 4.78834C7.34712 4.87874 7.30923 4.96302 7.24736 5.02285C7.18549 5.08268 7.10465 5.11321 7.02242 5.10781C6.94019 5.1024 6.86322 5.0615 6.80827 4.99399Z" fill="#56C6AD"/>
<path d="M12.6681 4.45424L13.6259 3.52823C13.6882 3.46884 13.7694 3.43897 13.8516 3.44513C13.9339 3.45129 14.0107 3.49299 14.0651 3.56113C14.1196 3.62927 14.1473 3.71832 14.1423 3.80888C14.1373 3.89944 14.1 3.98415 14.0384 4.04455L13.0807 4.97056C13.0184 5.03046 12.937 5.06075 12.8545 5.05478C12.7719 5.04882 12.6949 5.00708 12.6403 4.93873C12.5857 4.87038 12.5579 4.78099 12.5631 4.69017C12.5683 4.59935 12.6061 4.5145 12.6681 4.45424Z" fill="#56C6AD"/>
<path d="M7.82759 3.09838L7.16002 1.49375C7.12639 1.41101 7.12384 1.317 7.15291 1.23219C7.18199 1.14738 7.24034 1.07864 7.31527 1.04093C7.39019 1.00322 7.47563 0.999588 7.55298 1.03083C7.63033 1.06207 7.69332 1.12566 7.72826 1.20775L8.39583 2.81238C8.42946 2.89512 8.43202 2.98913 8.40294 3.07394C8.37387 3.15874 8.31551 3.22749 8.24059 3.2652C8.16566 3.30291 8.08022 3.30654 8.00287 3.27529C7.92553 3.24405 7.86253 3.18046 7.82759 3.09838Z" fill="#56C6AD"/>
<path d="M11.5814 2.84548L12.1408 1.19152C12.1702 1.10691 12.2288 1.03852 12.3039 1.00121C12.3789 0.963896 12.4643 0.960686 12.5415 0.992276C12.6187 1.02387 12.6814 1.0877 12.716 1.1699C12.7507 1.25209 12.7544 1.346 12.7264 1.4312L12.167 3.08516C12.1377 3.17 12.0791 3.23866 12.004 3.27615C11.9289 3.31364 11.8433 3.31691 11.766 3.28527C11.6887 3.25362 11.6259 3.18962 11.5913 3.10723C11.5567 3.02483 11.5531 2.93074 11.5814 2.84548Z" fill="#56C6AD"/>
</svg>
