<svg width="20" height="17" viewBox="0 0 20 17" fill="none" xmlns="http://www.w3.org/2000/svg">
<path d="M17.1094 9.17773H15.5625C15.7242 9.6217 15.8067 10.0907 15.8063 10.5633V16.4209C15.8064 16.6181 15.7728 16.8139 15.707 16.9998H18.2641C18.7232 16.9993 19.1633 16.8164 19.4881 16.4912C19.8128 16.166 19.9957 15.7251 19.9965 15.265V12.0707C19.9956 11.3037 19.6911 10.5684 19.1498 10.0261C18.6086 9.48376 17.8748 9.17867 17.1094 9.17773Z" fill="#54657E"/>
<path d="M4.18984 10.5639C4.18944 10.0911 4.27208 9.62199 4.43398 9.17792H2.88711C2.12169 9.17885 1.38788 9.48394 0.846642 10.0263C0.305406 10.5686 0.000930356 11.3039 0 12.0709V15.2652C0.000516948 15.7255 0.183205 16.1667 0.507986 16.4921C0.832766 16.8176 1.27311 17.0006 1.73242 17.0012H4.28945C4.22358 16.8154 4.18989 16.6198 4.18984 16.4226V10.5639Z" fill="#54657E"/>
<path d="M11.7668 7.67188H8.23086C7.46544 7.67281 6.73163 7.9779 6.19039 8.52023C5.64916 9.06257 5.34468 9.79786 5.34375 10.5648V16.4212C5.34375 16.5747 5.40456 16.7219 5.51283 16.8304C5.62109 16.939 5.76794 17 5.92109 17.0001H14.0766C14.2297 17 14.3766 16.939 14.4848 16.8304C14.5931 16.7219 14.6539 16.5747 14.6539 16.4212V10.5641C14.6528 9.79721 14.3482 9.06212 13.807 8.51996C13.2658 7.97779 12.5321 7.67281 11.7668 7.67188Z" fill="#56C6AD"/>
<path d="M10.002 0C9.31543 0.000154832 8.64436 0.204278 8.0736 0.586562C7.50283 0.968846 7.058 1.51212 6.79535 2.14771C6.5327 2.78329 6.46402 3.48264 6.59799 4.15733C6.73197 4.83203 7.06258 5.45177 7.54803 5.9382C8.03347 6.42463 8.65196 6.75591 9.32529 6.89016C9.99862 7.0244 10.6966 6.95558 11.3309 6.6924C11.9652 6.42922 12.5073 5.98349 12.8888 5.41157C13.2704 4.83965 13.4741 4.16722 13.4742 3.4793C13.4731 2.55688 13.1069 1.67257 12.456 1.02032C11.805 0.368073 10.9225 0.00113936 10.002 0V0Z" fill="#56C6AD"/>
<path d="M3.90664 3.24316C3.39344 3.2434 2.89182 3.39609 2.4652 3.68193C2.03859 3.96777 1.70612 4.37394 1.50983 4.84908C1.31355 5.32423 1.26225 5.84702 1.36243 6.35137C1.4626 6.85572 1.70976 7.31899 2.07265 7.68262C2.43554 8.04624 2.89787 8.2939 3.40121 8.39428C3.90454 8.49466 4.42627 8.44326 4.90046 8.24657C5.37464 8.04989 5.77998 7.71675 6.06525 7.28927C6.35051 6.86179 6.50289 6.35915 6.50313 5.84491C6.5023 5.15514 6.22848 4.49386 5.74172 4.00611C5.25496 3.51837 4.59502 3.24399 3.90664 3.24316Z" fill="#54657E"/>
<path d="M16.0969 3.24316C15.5832 3.24316 15.0812 3.39579 14.6541 3.68173C14.227 3.96767 13.8942 4.3741 13.6976 4.8496C13.5011 5.3251 13.4497 5.84832 13.5499 6.3531C13.6502 6.85787 13.8975 7.32153 14.2607 7.68543C14.624 8.04933 15.0867 8.29713 15.5905 8.39749C16.0943 8.49785 16.6164 8.44626 17.0909 8.24925C17.5654 8.05224 17.971 7.71866 18.2563 7.29069C18.5416 6.86272 18.6938 6.35958 18.6938 5.84491C18.6929 5.15507 18.419 4.49373 17.9322 4.00597C17.4454 3.51822 16.7853 3.24389 16.0969 3.24316Z" fill="#54657E"/>
</svg>
