<svg width="20" height="20" viewBox="0 0 20 20" fill="none" xmlns="http://www.w3.org/2000/svg">
<path d="M18.442 2.12333H15.6287C15.6287 1.89828 15.6287 1.72948 15.6287 1.50443C15.6287 1.2231 15.3474 0.998047 15.0661 0.998047H4.93851C4.65718 0.998047 4.37586 1.2231 4.37586 1.50443C4.37586 1.72948 4.3196 1.89828 4.3196 2.12333H1.56264C1.22506 2.12333 1 2.40466 1 2.68598V3.36115C1 6.39943 3.19431 8.93132 6.17632 9.38144C6.51391 9.94408 6.90776 10.4505 7.30161 10.9568H12.703C13.1531 10.4505 13.547 9.94408 13.8283 9.38144C16.8103 8.87506 19.0046 6.34316 19.0046 3.36115V2.68598C19.0046 2.40466 18.7233 2.12333 18.442 2.12333ZM2.12529 3.36115V3.24862H4.3196C4.37586 4.93655 4.71345 6.51195 5.44488 8.03109C3.47563 7.35592 2.12529 5.4992 2.12529 3.36115ZM12.2529 5.94931L11.4652 6.73701L11.634 7.8623C11.6902 8.03109 11.5777 8.19989 11.4652 8.31241C11.4089 8.36868 11.2964 8.42494 11.1839 8.42494C11.1276 8.42494 11.0151 8.42494 10.9588 8.36868L10.0023 7.8623L9.0458 8.36868C8.87701 8.48121 8.70822 8.42494 8.53942 8.31241C8.37063 8.19989 8.31437 8.03109 8.37063 7.8623L8.53942 6.73701L7.75172 5.94931C7.63919 5.83678 7.58293 5.61172 7.63919 5.44293C7.69546 5.27414 7.86425 5.16161 8.03305 5.10535L9.10207 4.93655L9.60845 3.92379C9.66471 3.755 9.83351 3.64247 10.0586 3.64247C10.2274 3.64247 10.3961 3.755 10.5087 3.92379L11.0151 4.93655L12.0841 5.10535C12.2529 5.16161 12.4217 5.27414 12.4779 5.44293C12.4217 5.61172 12.3654 5.83678 12.2529 5.94931ZM17.8793 3.36115C17.8793 5.4992 16.529 7.35592 14.5597 8.03109C15.2349 6.56822 15.5725 4.99282 15.6287 3.24862H17.8793V3.36115ZM12.1966 12.0259H7.80799C7.80799 12.9261 7.35787 13.8263 6.51391 14.7266C6.34511 14.8953 6.45764 15.2329 6.73897 15.2329H13.3782C13.6595 15.2329 13.772 14.8953 13.6032 14.7266C12.6467 13.7701 12.1966 12.8698 12.1966 12.0259Z" fill="#54657E"/>
<path d="M13.9959 16.4141H6.00638C5.72506 16.4141 5.5 16.6391 5.5 16.9204V18.4396C5.5 18.7772 5.72506 19.0022 6.06264 19.0022H13.9397C14.2772 19.0022 14.5023 18.7772 14.5023 18.4396V16.8642C14.5023 16.6391 14.2772 16.4141 13.9959 16.4141Z" fill="#56C6AD"/>
</svg>
