<svg width="20" height="20" viewBox="0 0 20 20" fill="none" xmlns="http://www.w3.org/2000/svg">
<g clip-path="url(#clip0_2582_7746)">
<path d="M14.6641 10.7031C12.1009 10.7031 10.0156 12.7884 10.0156 15.3516C10.0156 17.9147 12.1009 20 14.6641 20C17.2487 20 19.3516 17.9147 19.3516 15.3516C19.3516 12.7884 17.2487 10.7031 14.6641 10.7031ZM16.0907 14.7892L14.5282 16.6642C14.4162 16.7986 14.2509 16.875 14.0782 16.875C14.0557 16.875 14.0332 16.8737 14.0105 16.8711C13.8141 16.8483 13.6425 16.728 13.554 16.5511L12.929 15.3011C12.7843 15.0117 12.9016 14.6597 13.1911 14.515C13.4805 14.3702 13.8325 14.4876 13.9772 14.777L14.2015 15.2257L15.1905 14.0389C15.3977 13.7904 15.7671 13.7568 16.0157 13.9639C16.2643 14.1711 16.2979 14.5405 16.0907 14.7892Z" fill="#56C6AD"/>
<path d="M14.4115 3.33801L12.0341 0.879453C12.033 0.878281 12.0318 0.87707 12.0307 0.875898C11.4833 0.319258 10.7216 0 9.94102 0H2.39844C1.42918 0 0.640625 0.788555 0.640625 1.75781V16.9531C0.640625 17.9224 1.42918 18.7109 2.39844 18.7109H9.91367C9.24012 17.7612 8.84375 16.6019 8.84375 15.3516C8.84375 12.1422 11.4547 9.53125 14.6641 9.53125C14.8618 9.53125 15.0572 9.54117 15.25 9.56027V5.38984C15.25 4.61762 14.9522 3.88906 14.4115 3.33801ZM6.85156 13.0859H3.72656C3.40297 13.0859 3.14062 12.8236 3.14062 12.5C3.14062 12.1764 3.40297 11.9141 3.72656 11.9141H6.85156C7.17516 11.9141 7.4375 12.1764 7.4375 12.5C7.4375 12.8236 7.17516 13.0859 6.85156 13.0859ZM6.85156 9.96094H3.72656C3.40297 9.96094 3.14062 9.69859 3.14062 9.375C3.14062 9.05141 3.40297 8.78906 3.72656 8.78906H6.85156C7.17516 8.78906 7.4375 9.05141 7.4375 9.375C7.4375 9.69859 7.17516 9.96094 6.85156 9.96094ZM6.85156 6.83594H3.72656C3.40297 6.83594 3.14062 6.57359 3.14062 6.25C3.14062 5.92641 3.40297 5.66406 3.72656 5.66406H6.85156C7.17516 5.66406 7.4375 5.92641 7.4375 6.25C7.4375 6.57359 7.17516 6.83594 6.85156 6.83594ZM10.6016 9.96094H9.97656C9.65297 9.96094 9.39062 9.69859 9.39062 9.375C9.39062 9.05141 9.65297 8.78906 9.97656 8.78906H10.6016C10.9252 8.78906 11.1875 9.05141 11.1875 9.375C11.1875 9.69859 10.9252 9.96094 10.6016 9.96094ZM10.6016 6.83594H9.97656C9.65297 6.83594 9.39062 6.57359 9.39062 6.25C9.39062 5.92641 9.65297 5.66406 9.97656 5.66406H10.6016C10.9252 5.66406 11.1875 5.92641 11.1875 6.25C11.1875 6.57359 10.9252 6.83594 10.6016 6.83594Z" fill="#54657E"/>
</g>
<defs>
<clipPath id="clip0_2582_7746">
<rect width="20" height="20" fill="white"/>
</clipPath>
</defs>
</svg>
