<svg width="164" height="160" viewBox="0 0 164 160" fill="none" xmlns="http://www.w3.org/2000/svg">
<g clip-path="url(#clip0_2311_6774)">
<path fill-rule="evenodd" clip-rule="evenodd" d="M52.506 51.5118L46.2799 52.5683L45.7761 49.3989L52.0021 48.3424L52.506 51.5118ZM43.1849 53.0783L36.9589 54.1347L36.4191 51.0017L42.6451 49.9453L43.1849 53.0783ZM109.98 22.8051L106.813 3.49722C106.733 2.93702 106.546 2.39818 106.26 1.91164C105.975 1.42509 105.597 1.00038 105.149 0.661915C104.701 0.323448 104.191 0.0778833 103.649 -0.0607233C103.107 -0.19933 102.543 -0.228231 101.99 -0.145772L88.8904 2.07645H89.9701C90.5566 2.14373 91.1239 2.32905 91.6386 2.62154C92.1533 2.91403 92.605 3.30778 92.9671 3.7796C93.3293 4.25142 93.5946 4.79177 93.7474 5.3689C93.9002 5.94604 93.9374 6.54829 93.8569 7.1402C93.6624 9.0061 93.833 10.8925 94.3591 12.6916C94.8851 14.4907 95.7562 16.1673 96.9227 17.6254C98.0891 19.0836 99.528 20.2947 101.157 21.1897C102.786 22.0847 104.573 22.646 106.417 22.8415C107.602 22.9761 108.798 22.9639 109.98 22.8051ZM28.8615 22.8051L43.2569 110.601H52.6859L58.8759 50.5646L55.493 51.1111L54.9532 47.9781L59.1998 47.2495L61.5751 24.1894C58.1948 23.2286 55.1545 21.314 52.8093 18.6691C50.4641 16.0242 48.9109 12.7584 48.3313 9.25314L31.2367 12.1675C30.6792 12.2384 30.1416 12.4224 29.656 12.7086C29.1705 12.9948 28.7471 13.3772 28.411 13.8331C28.075 14.2889 27.8333 14.8087 27.7004 15.3613C27.5676 15.9139 27.5463 16.488 27.6378 17.0491L28.8615 22.8051Z" fill="#54657E"/>
<path fill-rule="evenodd" clip-rule="evenodd" d="M132.367 54.0255L132.691 50.8197L138.953 51.4755L138.629 54.6813L132.367 54.0255ZM129.2 53.6613L122.938 53.0055L123.262 49.8361L129.56 50.4918L129.2 53.6613ZM119.807 52.6776L113.509 52.0219L113.833 48.8525L120.131 49.5083L119.807 52.6776ZM110.378 51.694L104.08 51.0383L104.44 47.8325L110.702 48.4882L110.378 51.694ZM100.949 50.674L94.687 50.0183L95.0109 46.8488L101.273 47.5046L100.949 50.674ZM91.52 49.6904L85.5819 49.0347L85.9058 45.8653L92.2038 46.521L91.52 49.6904ZM82.127 48.7068L75.829 48.051L76.1529 44.8452L82.4509 45.501L82.127 48.7068ZM72.698 47.6868L66.4 47.031L66.7239 43.8616L73.0219 44.5173L72.698 47.6868ZM66.9398 14.4992L57.043 110.455H120.095C125.226 106.372 131.563 104.153 138.089 104.153L143.164 55.1549H141.76L142.12 51.9855H143.488L147.086 17.1221C147.2 16.0244 146.888 14.9251 146.217 14.0554C145.545 13.1857 144.567 12.6135 143.488 12.4591L126.249 10.6376C126.06 13.1286 125.38 15.556 124.249 17.7764C123.118 19.9967 121.558 21.9649 119.662 23.5646C117.766 25.1643 115.573 26.3629 113.212 27.0897C110.851 27.8165 108.369 28.0567 105.915 27.7961C103.46 27.5354 101.082 26.7793 98.9212 25.5723C96.7603 24.3652 94.8605 22.7319 93.3339 20.7688C91.8074 18.8057 90.6852 16.5527 90.0336 14.1431C89.3821 11.7334 89.2145 9.21596 89.5407 6.73957L72.3021 4.91808C71.2177 4.80347 70.1317 5.11908 69.2725 5.79853C68.4134 6.47798 67.8481 7.46828 67.6956 8.56107L66.9398 14.4992Z" fill="#54657E"/>
<g clip-path="url(#clip1_2311_6774)">
<path d="M112.694 62.1386L89.5849 59.6961L81.3764 73.5901L97.4102 93.8064L117.256 77.3625L112.694 62.1386ZM99.5584 78.6551C99.0976 78.6033 98.6448 78.4954 98.2096 78.3335C98.0389 79.9667 97.8414 81.8557 97.8706 82.6944C97.8998 83.533 97.9742 83.9388 98.7514 84.1403C99.1959 84.2268 99.6469 84.2744 100.099 84.2828C100.408 84.3153 100.507 84.485 100.494 84.603C100.482 84.7211 100.254 84.8561 99.9841 84.8276C98.2124 84.6403 96.3444 84.4429 95.6511 84.3696C94.9578 84.2963 93.3594 84.1274 92.3195 84.0175C91.9728 83.9808 91.7995 83.9625 91.8283 83.687C91.8571 83.4116 91.9534 83.4217 92.2807 83.4564C92.5822 83.5362 92.8938 83.5692 93.2051 83.5541C93.7759 83.495 93.9622 83.0173 94.1387 82.2601C94.3152 81.5029 94.6038 78.9272 94.8198 76.8612C94.1193 76.5945 93.3989 76.3853 92.6655 76.2356C90.9486 75.9848 89.1982 76.3637 87.725 77.3049C88.3108 76.2856 89.1804 75.4668 90.2226 74.9532C91.2647 74.4396 92.4321 74.2547 93.5755 74.4219C95.5013 74.6254 96.7121 75.7084 100.1 76.8225C100.948 77.0426 101.832 77.0833 102.697 76.9421C103.562 76.8009 104.391 76.4808 105.132 76.0014C104.471 76.8646 103.622 77.5591 102.654 78.03C101.685 78.5009 100.623 78.7351 99.5522 78.7142L99.5584 78.6551ZM100.722 76.0924C100.457 76.0838 100.193 76.0559 99.9323 76.0089C99.853 76.0062 99.7778 75.9726 99.7222 75.9149C99.6667 75.8572 99.635 75.7799 99.6337 75.6988C99.6563 75.4824 99.9768 75.3969 100.535 75.4559C101.558 75.4489 102.541 75.0447 103.286 74.3253C104.03 73.6059 104.479 72.6253 104.542 71.5823C104.664 70.8536 104.625 70.1067 104.426 69.3969C104.227 68.6871 103.874 68.0327 103.394 67.482C102.723 66.7553 101.814 66.3054 100.839 66.2172C100.458 66.1687 100.072 66.168 99.6903 66.2152C99.5362 66.1989 99.4558 66.4093 99.427 66.6847L98.4954 75.5984C97.1438 75.1174 96.0639 74.6451 95.0953 74.2244L95.3113 72.1584C95.7226 68.223 95.8049 67.4359 95.8912 66.6094C95.9776 65.783 95.7044 65.4159 94.8838 65.0706C94.5419 64.9977 94.1934 64.9609 93.8439 64.9607C93.5743 64.9322 93.3817 64.9118 93.4105 64.6363C93.4393 64.3608 93.6491 64.4029 94.0342 64.4436C95.4208 64.5902 97.1155 64.7693 97.8858 64.8507L102.277 65.3148C104.072 65.3092 105.796 66.0275 107.072 67.3137C107.8 68.2386 108.151 69.4155 108.052 70.6004C107.955 71.4731 107.684 72.3169 107.257 73.0801C106.829 73.8433 106.254 74.5097 105.566 75.0387C104.878 75.5676 104.092 75.9478 103.256 76.1561C102.421 76.3643 101.553 76.3962 100.705 76.2498L100.722 76.0924Z" fill="white"/>
</g>
<path fill-rule="evenodd" clip-rule="evenodd" d="M129.701 129.108L136.179 135.665L147.119 124.59L151.078 128.561L138.158 141.639L136.179 143.643L134.2 141.639L125.742 133.078L129.701 129.108Z" fill="#56C6AD"/>
<path fill-rule="evenodd" clip-rule="evenodd" d="M20.3698 114.499H30.4826C31.2176 114.499 31.9224 114.795 32.4421 115.321C32.9618 115.847 33.2538 116.56 33.2538 117.304C33.2538 118.048 32.9618 118.762 32.4421 119.288C31.9224 119.814 31.2176 120.109 30.4826 120.109H20.3698C19.6349 120.109 18.93 119.814 18.4103 119.288C17.8906 118.762 17.5987 118.048 17.5987 117.304C17.5987 116.56 17.8906 115.847 18.4103 115.321C18.93 114.795 19.6349 114.499 20.3698 114.499ZM22.889 148.087H48.3689C49.1039 148.087 49.8087 148.383 50.3284 148.909C50.8481 149.435 51.14 150.149 51.14 150.893C51.14 151.637 50.8481 152.35 50.3284 152.876C49.8087 153.402 49.1039 153.698 48.3689 153.698H22.889C22.1541 153.698 21.4492 153.402 20.9295 152.876C20.4098 152.35 20.1179 151.637 20.1179 150.893C20.1179 150.149 20.4098 149.435 20.9295 148.909C21.4492 148.383 22.1541 148.087 22.889 148.087ZM32.9298 136.903C33.6648 136.903 34.3696 137.199 34.8893 137.725C35.409 138.251 35.701 138.965 35.701 139.709C35.701 140.453 35.409 141.166 34.8893 141.692C34.3696 142.218 33.6648 142.514 32.9298 142.514C32.1949 142.514 31.4901 142.218 30.9704 141.692C30.4507 141.166 30.1587 140.453 30.1587 139.709C30.1587 138.965 30.4507 138.251 30.9704 137.725C31.4901 137.199 32.1949 136.903 32.9298 136.903ZM101.884 142.514C102.434 142.514 102.971 142.679 103.427 142.989C103.884 143.299 104.239 143.739 104.447 144.254C104.656 144.769 104.709 145.334 104.599 145.88C104.489 146.425 104.222 146.924 103.83 147.315C103.439 147.706 102.942 147.97 102.402 148.074C101.862 148.178 101.304 148.118 100.798 147.9C100.293 147.682 99.8624 147.317 99.5622 146.851C99.2621 146.385 99.1057 145.839 99.1128 145.282C99.1223 144.545 99.4184 143.841 99.9371 143.322C100.456 142.804 101.155 142.514 101.884 142.514ZM80.9746 120.073H103.971C104.706 120.073 105.411 120.368 105.931 120.894C106.451 121.421 106.742 122.134 106.742 122.878C106.742 123.622 106.451 124.335 105.931 124.861C105.411 125.388 104.706 125.683 103.971 125.683H80.9746C80.2397 125.683 79.5348 125.388 79.0151 124.861C78.4954 124.335 78.2035 123.622 78.2035 122.878C78.2035 122.134 78.4954 121.421 79.0151 120.894C79.5348 120.368 80.2397 120.073 80.9746 120.073ZM152.556 119.745C149.281 116.433 144.973 114.372 140.366 113.915C135.758 113.457 131.137 114.631 127.289 117.236C123.44 119.842 120.604 123.717 119.262 128.202C117.92 132.687 118.156 137.504 119.929 141.833C121.703 146.162 124.905 149.734 128.988 151.941C133.072 154.148 137.786 154.853 142.326 153.937C146.866 153.02 150.952 150.538 153.887 146.914C156.822 143.29 158.425 138.748 158.422 134.062C158.414 128.703 156.304 123.567 152.556 119.781V119.745ZM138.376 108.16C142.498 108.18 146.554 109.207 150.199 111.154C153.845 113.102 156.971 115.912 159.313 119.345C161.655 122.778 163.143 126.734 163.65 130.874C164.157 135.015 163.669 139.218 162.226 143.127C160.784 147.035 158.43 150.533 155.365 153.322C152.3 156.112 148.615 158.111 144.623 159.149C140.63 160.187 136.45 160.233 132.436 159.284C128.422 158.335 124.694 156.419 121.57 153.698H56.3584C55.6235 153.698 54.9186 153.402 54.3989 152.876C53.8792 152.35 53.5873 151.637 53.5873 150.893C53.5873 150.149 53.8792 149.435 54.3989 148.909C54.9186 148.383 55.6235 148.087 56.3584 148.087H92.7789C93.4548 148.009 94.0786 147.682 94.5315 147.168C94.9844 146.654 95.2347 145.989 95.2347 145.301C95.2347 144.612 94.9844 143.947 94.5315 143.433C94.0786 142.919 93.4548 142.592 92.7789 142.514H42.1429C41.4079 142.514 40.7031 142.218 40.1834 141.692C39.6637 141.166 39.3718 140.453 39.3718 139.709C39.3718 138.965 39.6637 138.251 40.1834 137.725C40.7031 137.199 41.4079 136.903 42.1429 136.903H108.074C108.809 136.903 109.514 136.608 110.033 136.082C110.553 135.556 110.845 134.842 110.845 134.098C110.845 133.354 110.553 132.641 110.033 132.115C109.514 131.589 108.809 131.293 108.074 131.293H2.80738C2.13145 131.215 1.50763 130.888 1.05474 130.374C0.601851 129.86 0.351562 129.195 0.351562 128.506C0.351562 127.818 0.601851 127.153 1.05474 126.639C1.50763 126.125 2.13145 125.798 2.80738 125.72H71.5456C72.2806 125.72 72.9854 125.424 73.5051 124.898C74.0247 124.372 74.3167 123.658 74.3167 122.914C74.3167 122.17 74.0247 121.457 73.5051 120.931C72.9854 120.405 72.2806 120.109 71.5456 120.109H38.4361C37.7011 120.109 36.9963 119.814 36.4766 119.288C35.9569 118.762 35.665 118.048 35.665 117.304C35.665 116.56 35.9569 115.847 36.4766 115.321C36.9963 114.795 37.7011 114.499 38.4361 114.499H121.57C126.236 110.413 132.206 108.175 138.376 108.197V108.16Z" fill="#56C6AD"/>
</g>
<defs>
<clipPath id="clip0_2311_6774">
<rect width="164" height="160" fill="white"/>
</clipPath>
<clipPath id="clip1_2311_6774">
<rect width="36" height="33" fill="white" transform="matrix(0.994461 0.10511 -0.10395 0.994583 83 59)"/>
</clipPath>
</defs>
</svg>
