<svg width="22" height="22" viewBox="0 0 22 22" fill="none" xmlns="http://www.w3.org/2000/svg">
<g clip-path="url(#clip0_2582_7980)">
<path d="M11.0039 0C7.8002 0 5.20312 2.59707 5.20312 5.80078C5.20312 9.00449 7.8002 11.6016 11.0039 11.6016C14.2076 11.6016 16.8047 9.00449 16.8047 5.80078C16.8047 2.59707 14.2076 0 11.0039 0ZM11.6484 9.02344H10.3594V5.15625H11.6484V9.02344ZM11.6484 3.86719H10.3594V2.57812H11.6484V3.86719Z" fill="#56C6AD"/>
<path d="M10.3594 12.829C6.9682 12.5174 4.25433 9.838 3.94672 6.44531H2.625V18.1328H7.89705C8.8012 18.1328 9.67888 18.4829 10.3594 19.0785V12.829Z" fill="#54657E"/>
<path d="M18.0611 6.44531C17.7535 9.838 15.0396 12.5174 11.6484 12.829V19.0785C12.3289 18.4829 13.2066 18.1328 14.1108 18.1328H19.3828V6.44531H18.0611Z" fill="#54657E"/>
<path d="M20.668 7.73438V19.4219H14.1116C13.4573 19.4219 12.8298 19.6818 12.3671 20.1444L11 21.5116L9.63291 20.1445C9.17022 19.6818 8.54275 19.4219 7.88842 19.4219H1.33203V7.73438H0V20.7109L6.34262 20.7144C7.50595 20.715 8.62146 21.1774 9.44406 22H12.5559C12.6861 21.9095 13.629 20.7109 15.3959 20.7109H22V7.73438H20.668Z" fill="#54657E"/>
</g>
<defs>
<clipPath id="clip0_2582_7980">
<rect width="22" height="22" fill="white"/>
</clipPath>
</defs>
</svg>
