<svg width="16" height="15" viewBox="0 0 16 15" fill="none" xmlns="http://www.w3.org/2000/svg">
<path fill-rule="evenodd" clip-rule="evenodd" d="M12.441 5.11144H3.55208V13.4448C3.55208 13.887 3.72764 14.3109 4.04042 14.6231C4.35264 14.9359 4.77653 15.1114 5.21875 15.1114H10.7743C11.2165 15.1114 11.6404 14.9359 11.9526 14.6231C12.2654 14.3109 12.441 13.887 12.441 13.4448V5.11144ZM7.44097 7.32644C7.09319 7.4131 6.79819 7.5931 6.59931 7.86088C6.43542 8.08144 6.32986 8.36477 6.32986 8.72644C6.32986 9.44255 6.82486 9.80588 7.51208 10.0064C7.76097 10.0787 8.03542 10.132 8.27431 10.212C8.34819 10.237 8.41764 10.2637 8.47819 10.2987C8.51542 10.3203 8.55208 10.3431 8.55208 10.3931C8.55208 10.6142 8.38431 10.6992 8.19986 10.7242C7.86542 10.7692 7.46375 10.6687 7.19597 10.4881C6.94208 10.3164 6.59653 10.3837 6.42486 10.6375C6.25319 10.892 6.32042 11.2375 6.57486 11.4092C6.81708 11.5725 7.12153 11.697 7.44097 11.7692V11.7781C7.44097 12.0848 7.68986 12.3337 7.99653 12.3337C8.30042 12.3337 8.54764 12.0892 8.55208 11.7864C8.61097 11.7725 8.66875 11.7559 8.72375 11.7364C9.26931 11.5437 9.66319 11.1231 9.66319 10.3931C9.66319 9.67699 9.16819 9.31366 8.48097 9.1131C8.23208 9.04033 7.95764 8.98699 7.71875 8.90699C7.64486 8.88255 7.57542 8.85533 7.51486 8.82088C7.47764 8.79921 7.44097 8.77588 7.44097 8.72644C7.44097 8.50255 7.60931 8.41422 7.79542 8.3881C8.12708 8.34199 8.52431 8.44088 8.7893 8.62644C9.04097 8.80199 9.38764 8.74033 9.56319 8.48866C9.73875 8.23755 9.67708 7.89088 9.42597 7.71533C9.18153 7.54421 8.87375 7.41422 8.55208 7.33921V7.33366C8.55208 7.02699 8.30319 6.7781 7.99653 6.7781C7.69264 6.7781 7.44486 7.0231 7.44097 7.32644ZM2.44097 5.11144H0.21875V6.7781C0.21875 7.69866 0.964861 8.44477 1.88542 8.44477H2.44097V5.11144ZM15.7743 5.11144H13.5521V8.44477H14.1076C15.0282 8.44477 15.7743 7.69866 15.7743 6.7781V5.11144ZM15.7743 4.00033V2.33366C15.7743 1.4131 15.0282 0.666992 14.1076 0.666992H1.88542C0.964861 0.666992 0.21875 1.4131 0.21875 2.33366V4.00033H15.7743ZM11.8854 2.88921H12.9965C13.3032 2.88921 13.5521 2.64033 13.5521 2.33366C13.5521 2.02699 13.3032 1.7781 12.9965 1.7781H11.8854C11.5787 1.7781 11.3299 2.02699 11.3299 2.33366C11.3299 2.64033 11.5787 2.88921 11.8854 2.88921Z" fill="#1F2328"/>
</svg>
