<svg width="123" height="118" viewBox="0 0 123 118" fill="none" xmlns="http://www.w3.org/2000/svg">
<g clip-path="url(#clip0_5002_6202)">
<path d="M106.306 101.305C128.566 79.0452 128.566 42.9548 106.306 20.6949C84.046 -1.56497 47.9556 -1.56497 25.6957 20.6949C3.43583 42.9548 3.43583 79.0452 25.6957 101.305C47.9556 123.565 84.046 123.565 106.306 101.305Z" fill="#56C6AD"/>
<g style="mix-blend-mode:multiply">
<path d="M122.998 61C122.997 73.114 119.138 84.9126 111.98 94.6861C104.823 104.46 94.7398 111.7 83.1916 115.359L55.9396 88.1067L56.2414 88.0173L36.9023 68.6783L61.118 71.9157L72.0486 57.3528L97.2925 34.1765L122.998 59.8824C122.998 60.2549 122.998 60.6275 122.998 61Z" fill="#49A893"/>
</g>
<path d="M61.3298 90.5394C60.0421 90.5383 58.7781 90.1922 57.6695 89.537C56.5609 88.8818 55.6482 87.9415 55.0263 86.8139C48.693 75.3431 37.021 68.7415 36.9018 68.6745C35.2221 67.761 33.9741 66.2177 33.4322 64.384C32.8904 62.5504 33.0992 60.5766 34.0127 58.8969C34.9261 57.2172 36.4695 55.9692 38.3031 55.4274C40.1367 54.8855 42.1105 55.0943 43.7902 56.0078C49.6114 59.4027 54.8918 63.6496 59.4559 68.6074L59.5677 68.7303L59.6422 68.5776C64.5747 58.4368 73.3557 44.0341 87.1512 33.0141C88.6461 31.8539 90.5376 31.3287 92.4166 31.5521C94.2957 31.7755 96.0113 32.7295 97.1925 34.2079C98.3737 35.6862 98.9256 37.5701 98.7288 39.4521C98.532 41.3341 97.6023 43.0631 96.1408 44.265C76.3175 60.0984 68.2891 85.197 68.1996 85.4503C67.7827 86.8 66.9773 87.9969 65.884 88.8914C64.7907 89.7859 63.4581 90.3384 62.0526 90.4798C61.8129 90.5124 61.5716 90.5323 61.3298 90.5394Z" fill="white"/>
</g>
<path d="M21.9992 43.2667C20.6047 43.2661 19.234 42.9052 18.0202 42.2188L6.28682 35.5806C5.04779 34.8787 4.01682 33.8611 3.29882 32.6313C2.58082 31.4016 2.20142 30.0035 2.19922 28.5795V15.4213C2.20119 13.9972 2.5805 12.5991 3.29852 11.3693C4.01655 10.1395 5.04764 9.1219 6.28682 8.42017L18.0202 1.7813C19.2341 1.09441 20.6051 0.733398 22 0.733398C23.3948 0.733398 24.7658 1.09441 25.9798 1.7813L37.7131 8.42017C38.952 9.12209 39.9828 10.1398 40.7005 11.3695C41.4183 12.5993 41.7974 13.9974 41.7992 15.4213V28.5795C41.7965 30.0033 41.4169 31.4011 40.6991 32.6307C39.9813 33.8604 38.9508 34.8782 37.7123 35.5806L25.979 42.2188C24.7649 42.9053 23.394 43.2663 21.9992 43.2667Z" fill="#F1E9D8"/>
<path d="M38.1339 15.4214V28.5788C38.1339 29.3547 37.9277 30.1167 37.5365 30.7867C37.1453 31.4567 36.5831 32.0108 35.9075 32.3922L24.1741 39.031C23.511 39.406 22.7623 39.603 22.0005 39.603C21.2388 39.603 20.49 39.406 19.8269 39.031L8.09359 32.3922C7.41791 32.0108 6.85571 31.4567 6.46451 30.7867C6.07331 30.1167 5.86717 29.3547 5.86719 28.5788V15.4214C5.86759 14.6461 6.07394 13.8848 6.46513 13.2154C6.85632 12.546 7.4183 11.9926 8.09359 11.6117L19.8269 4.9721C20.49 4.59718 21.2388 4.40015 22.0005 4.40015C22.7623 4.40015 23.511 4.59718 24.1741 4.9721L35.9075 11.6117C36.5827 11.9926 37.1447 12.546 37.5359 13.2154C37.9271 13.8848 38.1334 14.6461 38.1339 15.4214Z" fill="#EEBC55"/>
<g clip-path="url(#clip1_5002_6202)">
<path d="M21.9999 15.1018C17.0574 15.1018 13.0508 19.1085 13.0508 24.051C13.0508 28.9934 17.0574 33.0001 21.9999 33.0001C26.9424 33.0001 30.9491 28.9934 30.9491 24.051C30.9491 19.1085 26.9424 15.1018 21.9999 15.1018ZM26.6982 30.3154C23.7888 32.495 19.7621 32.3862 16.9746 30.0527C14.187 27.7191 13.3716 23.7743 15.0054 20.5268C15.0629 20.4036 15.1828 20.3214 15.3185 20.3123C15.4542 20.3033 15.584 20.3687 15.6574 20.4832C15.7307 20.5976 15.7359 20.743 15.6711 20.8624C15.1708 21.8506 14.9118 22.9433 14.9152 24.0509C14.9152 26.7344 16.4314 29.1876 18.8316 30.3877C21.2318 31.5878 24.104 31.3288 26.2508 29.7187C26.3574 29.6388 26.4985 29.6218 26.621 29.6741C26.7435 29.7264 26.8288 29.8401 26.8448 29.9724C26.8606 30.1047 26.8048 30.2354 26.6982 30.3154ZM27.2501 23.4886L25.6169 25.1446C25.515 25.2502 25.4697 25.398 25.4949 25.5424L25.8827 27.8916C25.9621 28.3421 25.7755 28.7982 25.4032 29.0639C25.0587 29.3113 24.6025 29.3383 24.2312 29.1333L22.1729 28.0083C22.0654 27.9483 21.9344 27.9483 21.8269 28.0083L19.7686 29.1333C19.3972 29.338 18.9413 29.311 18.5966 29.0639C18.2243 28.7982 18.0377 28.3422 18.1171 27.8916L18.5049 25.5424C18.5302 25.3985 18.4853 25.2511 18.3841 25.1457L16.7497 23.4882C16.4317 23.1648 16.3234 22.6897 16.4697 22.2603C16.6006 21.8479 16.9532 21.5448 17.3806 21.4773L19.6586 21.1331C19.7884 21.1106 19.8986 21.025 19.9528 20.9049L20.9797 18.7422C21.1603 18.3406 21.5596 18.0824 21.9999 18.0824C22.4402 18.0824 22.8395 18.3406 23.0201 18.7422L24.047 20.9049C24.1011 21.025 24.2114 21.1106 24.3412 21.1331L26.6192 21.4773C27.0466 21.5448 27.3992 21.8479 27.5301 22.2603C27.6764 22.6898 27.5681 23.165 27.2501 23.4886ZM28.9836 27.5967C28.8898 27.7793 28.6661 27.8518 28.483 27.7588C28.3 27.6658 28.2266 27.4423 28.3188 27.2589C28.8255 26.2656 29.088 25.1659 29.0847 24.051C29.0847 21.3675 27.5685 18.9143 25.1684 17.7142C22.7682 16.5141 19.8959 16.7731 17.7491 18.3832C17.5844 18.5067 17.3506 18.4733 17.2271 18.3086C17.1035 18.1438 17.1369 17.9101 17.3017 17.7865C20.2147 15.6034 24.248 15.7152 27.0357 18.0562C29.8234 20.3972 30.6307 24.3504 28.9841 27.597L28.9836 27.5967Z" fill="white"/>
<path d="M21.6289 11.3729V13.6102C21.6289 13.8161 21.7958 13.9831 22.0018 13.9831C22.2077 13.9831 22.3747 13.8161 22.3747 13.6102V11.3729C22.3747 11.1669 22.2077 11 22.0018 11C21.7958 11 21.6289 11.1669 21.6289 11.3729Z" fill="white"/>
<path d="M24.2383 11.3729V13.9831C24.2383 14.189 24.4052 14.3559 24.6112 14.3559C24.8171 14.3559 24.984 14.189 24.984 13.9831V11.3729C24.984 11.1669 24.8171 11 24.6112 11C24.4052 11 24.2383 11.1669 24.2383 11.3729Z" fill="white"/>
<path d="M26.8477 15.1017C26.8477 15.3077 27.0146 15.4746 27.2205 15.4746C27.4265 15.4746 27.5934 15.3077 27.5934 15.1017V13.6102C27.5934 13.4042 27.4265 13.2373 27.2205 13.2373C27.0146 13.2373 26.8477 13.4042 26.8477 13.6102V15.1017Z" fill="white"/>
<path d="M27.2205 12.4915C27.4265 12.4915 27.5934 12.3246 27.5934 12.1186V11.3729C27.5934 11.1669 27.4265 11 27.2205 11C27.0146 11 26.8477 11.1669 26.8477 11.3729V12.1186C26.8477 12.3246 27.0146 12.4915 27.2205 12.4915Z" fill="white"/>
<path d="M29.8299 12.8645C29.624 12.8645 29.457 13.0314 29.457 13.2374V17.8611C29.7301 18.1871 29.9793 18.5323 30.2028 18.894V13.2374C30.2028 13.0314 30.0359 12.8645 29.8299 12.8645Z" fill="white"/>
<path d="M19.0156 11.3729V13.9831C19.0156 14.189 19.1826 14.3559 19.3885 14.3559C19.5945 14.3559 19.7614 14.189 19.7614 13.9831V11.3729C19.7614 11.1669 19.5945 11 19.3885 11C19.1826 11 19.0156 11.1669 19.0156 11.3729Z" fill="white"/>
<path d="M16.7791 13.2373C16.5732 13.2373 16.4062 13.4042 16.4062 13.6102V15.1017C16.4062 15.3077 16.5732 15.4746 16.7791 15.4746C16.9851 15.4746 17.152 15.3077 17.152 15.1017V13.6102C17.152 13.4042 16.9851 13.2373 16.7791 13.2373Z" fill="white"/>
<path d="M17.152 11.3729C17.152 11.1669 16.9851 11 16.7791 11C16.5732 11 16.4062 11.1669 16.4062 11.3729V12.1186C16.4062 12.3246 16.5732 12.4915 16.7791 12.4915C16.9851 12.4915 17.152 12.3246 17.152 12.1186V11.3729Z" fill="white"/>
<path d="M13.7969 13.2374V18.894C14.0204 18.5323 14.2696 18.1871 14.5426 17.8611V13.2374C14.5426 13.0314 14.3757 12.8645 14.1698 12.8645C13.9638 12.8645 13.7969 13.0314 13.7969 13.2374Z" fill="white"/>
<g clip-path="url(#clip2_5002_6202)">
<path d="M24.0291 23.9648C24.2009 23.7461 24.3078 23.4835 24.3377 23.2071C24.3676 22.9306 24.3194 22.6512 24.1985 22.4008C24.0775 22.1504 23.8887 21.9389 23.6536 21.7905C23.4184 21.642 23.1463 21.5625 22.8682 21.561H22.6561V20.854H22.0905V21.561H21.5249V20.854H20.9593V21.561H19.8281V22.4094H20.6765V25.803H19.8281V26.6514H20.9593V27.3584H21.5249V26.6514H22.0905V27.3584H22.6561V26.6514H23.151C24.5792 26.6514 25.1844 24.8132 24.0291 23.9648ZM21.5249 22.4094C22.9135 22.4094 23.0803 22.3486 23.3179 22.5961C23.4068 22.685 23.4673 22.7984 23.4918 22.9217C23.5163 23.0451 23.5037 23.1729 23.4556 23.2891C23.4075 23.4053 23.326 23.5047 23.2215 23.5746C23.1169 23.6445 22.994 23.6819 22.8682 23.682H21.5249V22.4094ZM23.151 25.803H21.5249V24.5304H23.151C23.2346 24.5302 23.3174 24.5466 23.3946 24.5786C23.4718 24.6106 23.5419 24.6577 23.6007 24.7171C23.6896 24.8061 23.7501 24.9194 23.7746 25.0427C23.7991 25.1661 23.7865 25.294 23.7384 25.4102C23.6903 25.5264 23.6088 25.6257 23.5043 25.6956C23.3997 25.7655 23.2768 25.8029 23.151 25.803Z" fill="white"/>
</g>
</g>
<defs>
<clipPath id="clip0_5002_6202">
<rect width="114" height="114" fill="white" transform="translate(9 4)"/>
</clipPath>
<clipPath id="clip1_5002_6202">
<rect width="22" height="22" fill="white" transform="translate(11 11)"/>
</clipPath>
<clipPath id="clip2_5002_6202">
<rect width="6.78723" height="6.78723" fill="white" transform="translate(18.8398 20.7126)"/>
</clipPath>
</defs>
</svg>
