<svg width="16" height="16" viewBox="0 0 16 16" fill="none" xmlns="http://www.w3.org/2000/svg">
<path d="M12.84 0.823999H12.712V0.6C12.712 0.272 12.44 0 12.112 0C11.784 0 11.512 0.272 11.512 0.6V0.823999H4.488V0.6C4.488 0.272 4.224 0 3.888 0C3.56 0 3.288 0.272 3.288 0.6V0.823999H3.16C1.416 0.823999 0 2.24 0 3.984V12.84C0 14.584 1.416 16 3.16 16H12.84C14.584 16 16 14.584 16 12.84V3.984C16 2.24 14.584 0.823999 12.84 0.823999ZM3.2 13.576C2.76 13.576 2.4 13.224 2.4 12.776C2.4 12.336 2.76 11.976 3.2 11.976C3.64 11.976 4 12.336 4 12.776C4 13.224 3.64 13.576 3.2 13.576ZM3.2 10.792C2.76 10.792 2.4 10.432 2.4 9.992C2.4 9.544 2.76 9.192 3.2 9.192C3.64 9.192 4 9.544 4 9.992C4 10.432 3.64 10.792 3.2 10.792ZM3.2 8C2.76 8 2.4 7.64 2.4 7.2C2.4 6.76 2.76 6.4 3.2 6.4C3.64 6.4 4 6.76 4 7.2C4 7.64 3.64 8 3.2 8ZM6.4 13.576C5.96 13.576 5.6 13.224 5.6 12.776C5.6 12.336 5.96 11.976 6.4 11.976C6.84 11.976 7.2 12.336 7.2 12.776C7.2 13.224 6.84 13.576 6.4 13.576ZM6.4 10.792C5.96 10.792 5.6 10.432 5.6 9.992C5.6 9.544 5.96 9.192 6.4 9.192C6.84 9.192 7.2 9.544 7.2 9.992C7.2 10.432 6.84 10.792 6.4 10.792ZM6.4 8C5.96 8 5.6 7.64 5.6 7.2C5.6 6.76 5.96 6.4 6.4 6.4C6.84 6.4 7.2 6.76 7.2 7.2C7.2 7.64 6.84 8 6.4 8ZM9.6 13.576C9.16 13.576 8.8 13.224 8.8 12.776C8.8 12.336 9.16 11.976 9.6 11.976C10.04 11.976 10.4 12.336 10.4 12.776C10.4 13.224 10.04 13.576 9.6 13.576ZM9.6 10.792C9.16 10.792 8.8 10.432 8.8 9.992C8.8 9.544 9.16 9.192 9.6 9.192C10.04 9.192 10.4 9.544 10.4 9.992C10.4 10.432 10.04 10.792 9.6 10.792ZM9.6 8C9.16 8 8.8 7.64 8.8 7.2C8.8 6.76 9.16 6.4 9.6 6.4C10.04 6.4 10.4 6.76 10.4 7.2C10.4 7.64 10.04 8 9.6 8ZM12.8 10.792C12.36 10.792 12 10.432 12 9.992C12 9.544 12.36 9.192 12.8 9.192C13.24 9.192 13.6 9.544 13.6 9.992C13.6 10.432 13.24 10.792 12.8 10.792ZM12.8 8C12.36 8 12 7.64 12 7.2C12 6.76 12.36 6.4 12.8 6.4C13.24 6.4 13.6 6.76 13.6 7.2C13.6 7.64 13.24 8 12.8 8ZM14.8 4.12H1.2V3.984C1.2 2.904 2.08 2.024 3.16 2.024H3.288V2.248C3.288 2.584 3.56 2.848 3.888 2.848C4.224 2.848 4.488 2.584 4.488 2.248V2.024H11.512V2.248C11.512 2.584 11.784 2.848 12.112 2.848C12.44 2.848 12.712 2.584 12.712 2.248V2.024H12.84C13.92 2.024 14.8 2.904 14.8 3.984V4.12Z" fill="#727A89"/>
</svg>
