<svg width="186" height="164" viewBox="0 0 186 164" fill="none" xmlns="http://www.w3.org/2000/svg">
<path d="M176.344 42.6493V121.351C176.344 130.999 168.522 138.821 158.874 138.821H56.9855C47.337 138.821 39.5156 130.999 39.5156 121.351V42.6493C39.5156 33.0008 47.337 25.1794 56.9855 25.1794H158.874C168.522 25.1794 176.344 33.0008 176.344 42.6493Z" fill="#9BE0D1"/>
<path d="M159.312 42.6493V121.351C159.312 130.999 151.491 138.821 141.842 138.821H39.9542C30.3058 138.821 22.4844 130.999 22.4844 121.351V42.6493C22.4844 33.0008 30.3058 25.1794 39.9542 25.1794H141.842C151.491 25.1794 159.312 33.0008 159.312 42.6493Z" fill="#56C6AD"/>
<path d="M185.515 82C185.515 89.7128 179.263 95.9653 171.55 95.9653H155.145C147.432 95.9653 141.18 89.7128 141.18 82C141.18 74.2872 147.432 68.0347 155.145 68.0347H171.55C179.263 68.0347 185.515 74.2872 185.515 82Z" fill="#B6EDE1"/>
<path d="M76.3513 103.847H61.786V98.5877H76.3513C80.2005 98.5877 83.3309 95.4573 83.3309 91.6081C83.3309 87.7615 80.2005 84.6311 76.3513 84.6311H71.3925C64.6467 84.6311 59.1562 79.1409 59.1562 72.3923C59.1562 65.6465 64.6464 60.156 71.3925 60.156H85.9603V65.4152H71.3925C67.5459 65.4152 64.4155 68.5456 64.4155 72.3923C64.4155 76.2415 67.5459 79.3719 71.3925 79.3719H76.3513C83.0996 79.3719 88.5901 84.862 88.5901 91.6081C88.5898 98.3568 83.0996 103.847 76.3513 103.847Z" fill="white"/>
<path d="M71.2344 101.225H76.4936V114.45H71.2344V101.225Z" fill="white"/>
<path d="M71.2344 49.5486H76.4936V62.7938H71.2344V49.5486Z" fill="white"/>
<path d="M153.895 79.3721H159.313V84.6313H153.895V79.3721Z" fill="white"/>
<path d="M21.9992 61.2667C20.6047 61.2661 19.234 60.9052 18.0202 60.2188L6.28682 53.5806C5.04779 52.8787 4.01682 51.8611 3.29882 50.6313C2.58082 49.4016 2.20142 48.0035 2.19922 46.5795V33.4213C2.20119 31.9972 2.5805 30.5991 3.29852 29.3693C4.01655 28.1395 5.04764 27.1219 6.28682 26.4202L18.0202 19.7813C19.2341 19.0944 20.6051 18.7334 22 18.7334C23.3948 18.7334 24.7658 19.0944 25.9798 19.7813L37.7131 26.4202C38.952 27.1221 39.9828 28.1398 40.7005 29.3695C41.4183 30.5993 41.7974 31.9974 41.7992 33.4213V46.5795C41.7965 48.0033 41.4169 49.4011 40.6991 50.6307C39.9813 51.8604 38.9508 52.8782 37.7123 53.5806L25.979 60.2188C24.7649 60.9053 23.394 61.2663 21.9992 61.2667Z" fill="#F1E9D8"/>
<path d="M38.1339 33.4214V46.5788C38.1339 47.3547 37.9277 48.1167 37.5365 48.7867C37.1453 49.4567 36.5831 50.0108 35.9075 50.3922L24.1741 57.031C23.511 57.406 22.7623 57.603 22.0005 57.603C21.2388 57.603 20.49 57.406 19.8269 57.031L8.09359 50.3922C7.41791 50.0108 6.85571 49.4567 6.46451 48.7867C6.07331 48.1167 5.86717 47.3547 5.86719 46.5788V33.4214C5.86759 32.6461 6.07394 31.8848 6.46513 31.2154C6.85632 30.546 7.4183 29.9926 8.09359 29.6117L19.8269 22.9721C20.49 22.5972 21.2388 22.4001 22.0005 22.4001C22.7623 22.4001 23.511 22.5972 24.1741 22.9721L35.9075 29.6117C36.5827 29.9926 37.1447 30.546 37.5359 31.2154C37.9271 31.8848 38.1334 32.6461 38.1339 33.4214Z" fill="#EEBC55"/>
<g clip-path="url(#clip0_5002_6201)">
<path d="M21.9999 33.1018C17.0574 33.1018 13.0508 37.1085 13.0508 42.051C13.0508 46.9934 17.0574 51.0001 21.9999 51.0001C26.9424 51.0001 30.9491 46.9934 30.9491 42.051C30.9491 37.1085 26.9424 33.1018 21.9999 33.1018ZM26.6982 48.3154C23.7888 50.495 19.7621 50.3862 16.9746 48.0527C14.187 45.7191 13.3716 41.7743 15.0054 38.5268C15.0629 38.4036 15.1828 38.3214 15.3185 38.3123C15.4542 38.3033 15.584 38.3687 15.6574 38.4832C15.7307 38.5976 15.7359 38.743 15.6711 38.8624C15.1708 39.8506 14.9118 40.9433 14.9152 42.0509C14.9152 44.7344 16.4314 47.1876 18.8316 48.3877C21.2318 49.5878 24.104 49.3288 26.2508 47.7187C26.3574 47.6388 26.4985 47.6218 26.621 47.6741C26.7435 47.7264 26.8288 47.8401 26.8448 47.9724C26.8606 48.1047 26.8048 48.2354 26.6982 48.3154ZM27.2501 41.4886L25.6169 43.1446C25.515 43.2502 25.4697 43.398 25.4949 43.5424L25.8827 45.8916C25.9621 46.3421 25.7755 46.7982 25.4032 47.0639C25.0587 47.3113 24.6025 47.3383 24.2312 47.1333L22.1729 46.0083C22.0654 45.9483 21.9344 45.9483 21.8269 46.0083L19.7686 47.1333C19.3972 47.338 18.9413 47.311 18.5966 47.0639C18.2243 46.7982 18.0377 46.3422 18.1171 45.8916L18.5049 43.5424C18.5302 43.3985 18.4853 43.2511 18.3841 43.1457L16.7497 41.4882C16.4317 41.1648 16.3234 40.6897 16.4697 40.2603C16.6006 39.8479 16.9532 39.5448 17.3806 39.4773L19.6586 39.1331C19.7884 39.1106 19.8986 39.025 19.9528 38.9049L20.9797 36.7422C21.1603 36.3406 21.5596 36.0824 21.9999 36.0824C22.4402 36.0824 22.8395 36.3406 23.0201 36.7422L24.047 38.9049C24.1011 39.025 24.2114 39.1106 24.3412 39.1331L26.6192 39.4773C27.0466 39.5448 27.3992 39.8479 27.5301 40.2603C27.6764 40.6898 27.5681 41.165 27.2501 41.4886ZM28.9836 45.5967C28.8898 45.7793 28.6661 45.8518 28.483 45.7588C28.3 45.6658 28.2266 45.4423 28.3188 45.2589C28.8255 44.2656 29.088 43.1659 29.0847 42.051C29.0847 39.3675 27.5685 36.9143 25.1684 35.7142C22.7682 34.5141 19.8959 34.7731 17.7491 36.3832C17.5844 36.5067 17.3506 36.4733 17.2271 36.3086C17.1035 36.1438 17.1369 35.9101 17.3017 35.7865C20.2147 33.6034 24.248 33.7152 27.0357 36.0562C29.8234 38.3972 30.6307 42.3504 28.9841 45.597L28.9836 45.5967Z" fill="white"/>
<path d="M21.6289 29.3729V31.6102C21.6289 31.8161 21.7958 31.9831 22.0018 31.9831C22.2077 31.9831 22.3747 31.8161 22.3747 31.6102V29.3729C22.3747 29.1669 22.2077 29 22.0018 29C21.7958 29 21.6289 29.1669 21.6289 29.3729Z" fill="white"/>
<path d="M24.2383 29.3729V31.9831C24.2383 32.189 24.4052 32.3559 24.6112 32.3559C24.8171 32.3559 24.984 32.189 24.984 31.9831V29.3729C24.984 29.1669 24.8171 29 24.6112 29C24.4052 29 24.2383 29.1669 24.2383 29.3729Z" fill="white"/>
<path d="M26.8477 33.1017C26.8477 33.3077 27.0146 33.4746 27.2205 33.4746C27.4265 33.4746 27.5934 33.3077 27.5934 33.1017V31.6102C27.5934 31.4042 27.4265 31.2373 27.2205 31.2373C27.0146 31.2373 26.8477 31.4042 26.8477 31.6102V33.1017Z" fill="white"/>
<path d="M27.2205 30.4915C27.4265 30.4915 27.5934 30.3246 27.5934 30.1186V29.3729C27.5934 29.1669 27.4265 29 27.2205 29C27.0146 29 26.8477 29.1669 26.8477 29.3729V30.1186C26.8477 30.3246 27.0146 30.4915 27.2205 30.4915Z" fill="white"/>
<path d="M29.8299 30.8645C29.624 30.8645 29.457 31.0314 29.457 31.2374V35.8611C29.7301 36.1871 29.9793 36.5323 30.2028 36.894V31.2374C30.2028 31.0314 30.0359 30.8645 29.8299 30.8645Z" fill="white"/>
<path d="M19.0156 29.3729V31.9831C19.0156 32.189 19.1826 32.3559 19.3885 32.3559C19.5945 32.3559 19.7614 32.189 19.7614 31.9831V29.3729C19.7614 29.1669 19.5945 29 19.3885 29C19.1826 29 19.0156 29.1669 19.0156 29.3729Z" fill="white"/>
<path d="M16.7791 31.2373C16.5732 31.2373 16.4062 31.4042 16.4062 31.6102V33.1017C16.4062 33.3077 16.5732 33.4746 16.7791 33.4746C16.9851 33.4746 17.152 33.3077 17.152 33.1017V31.6102C17.152 31.4042 16.9851 31.2373 16.7791 31.2373Z" fill="white"/>
<path d="M17.152 29.3729C17.152 29.1669 16.9851 29 16.7791 29C16.5732 29 16.4062 29.1669 16.4062 29.3729V30.1186C16.4062 30.3246 16.5732 30.4915 16.7791 30.4915C16.9851 30.4915 17.152 30.3246 17.152 30.1186V29.3729Z" fill="white"/>
<path d="M13.7969 31.2374V36.894C14.0204 36.5323 14.2696 36.1871 14.5426 35.8611V31.2374C14.5426 31.0314 14.3757 30.8645 14.1698 30.8645C13.9638 30.8645 13.7969 31.0314 13.7969 31.2374Z" fill="white"/>
<g clip-path="url(#clip1_5002_6201)">
<path d="M24.0291 41.9648C24.2009 41.7461 24.3078 41.4835 24.3377 41.2071C24.3676 40.9306 24.3194 40.6512 24.1985 40.4008C24.0775 40.1504 23.8887 39.9389 23.6536 39.7905C23.4184 39.642 23.1463 39.5625 22.8682 39.561H22.6561V38.854H22.0905V39.561H21.5249V38.854H20.9593V39.561H19.8281V40.4094H20.6765V43.803H19.8281V44.6514H20.9593V45.3584H21.5249V44.6514H22.0905V45.3584H22.6561V44.6514H23.151C24.5792 44.6514 25.1844 42.8132 24.0291 41.9648ZM21.5249 40.4094C22.9135 40.4094 23.0803 40.3486 23.3179 40.5961C23.4068 40.685 23.4673 40.7984 23.4918 40.9217C23.5163 41.0451 23.5037 41.1729 23.4556 41.2891C23.4075 41.4053 23.326 41.5047 23.2215 41.5746C23.1169 41.6445 22.994 41.6819 22.8682 41.682H21.5249V40.4094ZM23.151 43.803H21.5249V42.5304H23.151C23.2346 42.5302 23.3174 42.5466 23.3946 42.5786C23.4718 42.6106 23.5419 42.6577 23.6007 42.7171C23.6896 42.8061 23.7501 42.9194 23.7746 43.0427C23.7991 43.1661 23.7865 43.294 23.7384 43.4102C23.6903 43.5264 23.6088 43.6257 23.5043 43.6956C23.3997 43.7655 23.2768 43.8029 23.151 43.803Z" fill="white"/>
</g>
</g>
<defs>
<clipPath id="clip0_5002_6201">
<rect width="22" height="22" fill="white" transform="translate(11 29)"/>
</clipPath>
<clipPath id="clip1_5002_6201">
<rect width="6.78723" height="6.78723" fill="white" transform="translate(18.8398 38.7126)"/>
</clipPath>
</defs>
</svg>
