<svg width="123" height="118" viewBox="0 0 123 118" fill="none" xmlns="http://www.w3.org/2000/svg">
<g clip-path="url(#clip0_5002_6203)">
<path d="M106.306 101.305C128.566 79.0452 128.566 42.9548 106.306 20.6949C84.046 -1.56497 47.9556 -1.56497 25.6957 20.6949C3.43583 42.9548 3.43583 79.0452 25.6957 101.305C47.9556 123.565 84.046 123.565 106.306 101.305Z" fill="#56C6AD"/>
<g style="mix-blend-mode:multiply">
<path d="M122.998 60.9999C122.997 73.1138 119.138 84.9125 111.98 94.686C104.823 104.46 94.7398 111.7 83.1916 115.359L55.9396 88.1066L56.2414 88.0172L36.9023 68.6782L61.118 71.9156L72.0486 57.3527L97.2925 34.1764L122.998 59.8823C122.998 60.2548 122.998 60.6274 122.998 60.9999Z" fill="#49A893"/>
</g>
<path d="M61.3298 90.5394C60.0421 90.5384 58.7781 90.1922 57.6695 89.537C56.5609 88.8818 55.6482 87.9415 55.0263 86.8139C48.693 75.3431 37.021 68.7415 36.9018 68.6745C35.2221 67.761 33.9741 66.2177 33.4322 64.384C32.8904 62.5504 33.0992 60.5766 34.0127 58.8969C34.9261 57.2172 36.4695 55.9692 38.3031 55.4274C40.1367 54.8855 42.1105 55.0943 43.7902 56.0078C49.6114 59.4027 54.8918 63.6496 59.4559 68.6074L59.5677 68.7303L59.6422 68.5776C64.5747 58.4368 73.3557 44.0341 87.1512 33.0141C88.6461 31.8539 90.5376 31.3287 92.4166 31.5521C94.2957 31.7755 96.0113 32.7295 97.1925 34.2079C98.3737 35.6862 98.9256 37.5701 98.7288 39.4521C98.532 41.3341 97.6023 43.0631 96.1408 44.265C76.3175 60.0984 68.2891 85.197 68.1996 85.4503C67.7827 86.8 66.9773 87.9969 65.884 88.8914C64.7907 89.7859 63.4581 90.3384 62.0526 90.4798C61.8129 90.5124 61.5716 90.5323 61.3298 90.5394V90.5394Z" fill="white"/>
</g>
<path d="M21.9992 43.2667C20.6047 43.2661 19.234 42.9052 18.0202 42.2188L6.28682 35.5806C5.04779 34.8787 4.01682 33.8611 3.29882 32.6313C2.58082 31.4016 2.20142 30.0035 2.19922 28.5795V15.4213C2.20119 13.9972 2.5805 12.5991 3.29852 11.3693C4.01655 10.1395 5.04764 9.1219 6.28682 8.42017L18.0202 1.7813C19.2341 1.09441 20.6051 0.733398 22 0.733398C23.3948 0.733398 24.7658 1.09441 25.9798 1.7813L37.7131 8.42017C38.952 9.12209 39.9828 10.1398 40.7005 11.3695C41.4183 12.5993 41.7974 13.9974 41.7992 15.4213V28.5795C41.7965 30.0033 41.4169 31.4011 40.6991 32.6307C39.9813 33.8604 38.9508 34.8782 37.7123 35.5806L25.979 42.2188C24.7649 42.9053 23.394 43.2663 21.9992 43.2667V43.2667Z" fill="#F1E9D8"/>
<path d="M38.1339 15.4212V28.5787C38.1339 29.3546 37.9277 30.1165 37.5365 30.7866C37.1453 31.4566 36.5831 32.0107 35.9075 32.392L24.1741 39.0309C23.511 39.4058 22.7623 39.6029 22.0005 39.6029C21.2388 39.6029 20.49 39.4058 19.8269 39.0309L8.09359 32.392C7.41791 32.0107 6.85571 31.4566 6.46451 30.7866C6.07331 30.1165 5.86717 29.3546 5.86719 28.5787V15.4212C5.86759 14.6459 6.07394 13.8847 6.46513 13.2153C6.85632 12.5459 7.4183 11.9925 8.09359 11.6116L19.8269 4.97198C20.49 4.59706 21.2388 4.40002 22.0005 4.40002C22.7623 4.40002 23.511 4.59706 24.1741 4.97198L35.9075 11.6116C36.5827 11.9925 37.1447 12.5459 37.5359 13.2153C37.9271 13.8847 38.1335 14.6459 38.1339 15.4212V15.4212Z" fill="#EEBC55"/>
<path fill-rule="evenodd" clip-rule="evenodd" d="M15.5016 15.5C15.5016 14.7471 15.7195 14.0103 16.129 13.3786C16.5386 12.7469 17.1222 12.2472 17.8094 11.9398C18.4967 11.6325 19.2582 11.5306 20.0021 11.6466C20.746 11.7625 21.4404 12.0913 22.0016 12.5932C22.6469 12.0148 23.4664 11.6678 24.3309 11.607C25.1953 11.5462 26.0553 11.775 26.7753 12.2574C27.4952 12.7397 28.034 13.4481 28.3065 14.2707C28.5791 15.0932 28.57 15.9832 28.2806 16.8H29.8016C30.4911 16.8 31.1524 17.0739 31.64 17.5615C32.1276 18.0491 32.4016 18.7104 32.4016 19.4C32.4016 20.0895 32.1276 20.7508 31.64 21.2384C31.1524 21.726 30.4911 22 29.8016 22H23.3016V20.7C23.3016 20.3552 23.1646 20.0245 22.9208 19.7807C22.677 19.5369 22.3463 19.4 22.0016 19.4C21.6568 19.4 21.3261 19.5369 21.0823 19.7807C20.8385 20.0245 20.7016 20.3552 20.7016 20.7V22H14.2016C13.512 22 12.8507 21.726 12.3631 21.2384C11.8755 20.7508 11.6016 20.0895 11.6016 19.4C11.6016 18.7104 11.8755 18.0491 12.3631 17.5615C12.8507 17.0739 13.512 16.8 14.2016 16.8H15.7226C15.5796 16.3931 15.5016 15.955 15.5016 15.5ZM20.7016 16.8V15.5C20.7016 15.2429 20.6253 14.9915 20.4825 14.7777C20.3396 14.5639 20.1366 14.3973 19.8991 14.2989C19.6615 14.2005 19.4001 14.1748 19.1479 14.2249C18.8958 14.2751 18.6641 14.3989 18.4823 14.5807C18.3005 14.7625 18.1767 14.9942 18.1265 15.2463C18.0764 15.4985 18.1021 15.7599 18.2005 15.9975C18.2989 16.235 18.4655 16.438 18.6793 16.5809C18.8931 16.7237 19.1444 16.8 19.4016 16.8H20.7016ZM24.6016 16.8C24.8587 16.8 25.11 16.7237 25.3238 16.5809C25.5376 16.438 25.7042 16.235 25.8026 15.9975C25.901 15.7599 25.9267 15.4985 25.8766 15.2463C25.8264 14.9942 25.7026 14.7625 25.5208 14.5807C25.339 14.3989 25.1074 14.2751 24.8552 14.2249C24.603 14.1748 24.3416 14.2005 24.1041 14.2989C23.8665 14.3973 23.6635 14.5639 23.5207 14.7777C23.3778 14.9915 23.3016 15.2429 23.3016 15.5V16.8H24.6016Z" fill="white"/>
<path d="M20.6984 23.3H12.8984V29.8C12.8984 30.4896 13.1724 31.1509 13.66 31.6385C14.1476 32.1261 14.8089 32.4 15.4984 32.4H20.6984V23.3ZM23.2984 32.4H28.4984C29.188 32.4 29.8493 32.1261 30.3369 31.6385C30.8245 31.1509 31.0984 30.4896 31.0984 29.8V23.3H23.2984V32.4Z" fill="white"/>
<defs>
<clipPath id="clip0_5002_6203">
<rect width="114" height="114" fill="white" transform="translate(9 4)"/>
</clipPath>
</defs>
</svg>
