<svg width="80" height="70" viewBox="0 0 80 70" fill="none" xmlns="http://www.w3.org/2000/svg">
<g clip-path="url(#clip0_2582_7522)">
<path d="M66.0015 53.0576H41.7188V53.3542H66.0015V53.0576Z" fill="#FFCC73"/>
<path d="M79.7188 44.2207H41.7188V69.9995H79.7188V44.2207Z" fill="#FFD32F"/>
<path d="M63.2033 44.2207H58.2031V69.9995H63.2033V44.2207Z" fill="#EF487D"/>
<path d="M61.7266 44.1254L62.0395 42.3631C62.2867 40.9475 63.604 33.7846 65.3249 31.8529C65.8 31.3173 66.3776 30.879 67.0247 30.5632C67.6718 30.2474 68.3757 30.0602 69.0963 30.0123C69.8169 29.9644 70.54 30.0567 71.2243 30.284C71.9087 30.5112 72.5409 30.869 73.0848 31.3368C74.1807 32.2832 74.8506 33.6191 74.9474 35.0512C75.0441 36.4833 74.56 37.8947 73.6011 38.9757C71.8801 40.9074 64.8571 43.158 63.4647 43.597L61.7266 44.1254ZM69.4583 32.1825C69.3832 32.1825 69.3018 32.1825 69.2314 32.1902C68.8007 32.2187 68.3801 32.3311 67.9939 32.521C67.6077 32.7108 67.2636 32.9744 66.9817 33.2962C66.1869 34.1912 65.2029 37.8466 64.5646 40.9336C67.5856 39.8954 71.1354 38.4428 71.9177 37.5447C72.3306 37.0771 72.5985 36.5026 72.6895 35.8895C72.7804 35.2764 72.6906 34.6505 72.4307 34.0861C72.1709 33.5218 71.7519 33.0428 71.2235 32.7062C70.6952 32.3696 70.0798 32.1894 69.4505 32.1871L69.4583 32.1825Z" fill="#EF487D"/>
<path d="M59.9497 44.0795L58.1991 43.6035C56.791 43.2199 49.6866 41.2112 47.9062 39.3396C47.385 38.826 46.974 38.2144 46.6976 37.5413C46.4213 36.8681 46.2852 36.1471 46.2977 35.4211C46.3101 34.6951 46.4706 33.979 46.7698 33.3154C47.069 32.6518 47.5007 32.0542 48.0392 31.5581C48.5778 31.0621 49.2121 30.6778 49.9045 30.428C50.597 30.1783 51.3333 30.0682 52.0699 30.1044C52.8064 30.1405 53.528 30.3222 54.1918 30.6385C54.8555 30.9548 55.4479 31.3993 55.9337 31.9456C57.7141 33.8172 59.2848 40.9293 59.5805 42.3372L59.9497 44.0795ZM51.9176 32.4077C51.2784 32.4095 50.6536 32.5949 50.1198 32.9411C49.586 33.2873 49.1664 33.7792 48.9123 34.3568C48.6582 34.9343 48.5807 35.5722 48.6894 36.1924C48.798 36.8126 49.0881 37.3881 49.5239 37.8485C50.35 38.7173 53.9452 40.0466 57.0007 40.9801C56.2544 37.9163 55.1405 34.2978 54.316 33.4321C54.022 33.1215 53.6683 32.8714 53.2754 32.6963C52.8825 32.5213 52.4582 32.4248 52.0271 32.4124L51.9176 32.4077Z" fill="#EF487D"/>
<path d="M44.9067 20.7714C44.9921 20.0507 44.7911 19.3253 44.3478 18.7537C44.1413 18.4855 43.8776 18.2675 43.5763 18.116C43.2751 17.9644 42.9439 17.8831 42.6073 17.878C41.5826 17.872 40.5078 18.1121 39.2572 18.4026C38.3384 18.6155 37.6226 19.4246 37.4576 20.4435L37.0927 22.5712C36.9993 23.1297 37.1243 23.7029 37.4413 24.1703C37.7583 24.6377 38.2426 24.9628 38.7923 25.0772C40.5892 25.4633 42.4506 25.4197 44.2279 24.9501C44.8677 24.6131 44.5368 24.0421 44.6278 23.2663L44.9067 20.7714Z" fill="#FFA08A"/>
<path d="M44.3436 17.0996L39.2109 17.3922L42.2102 25.1422C42.3105 25.4015 42.4896 25.6221 42.7218 25.7725C42.954 25.9229 43.2274 25.9954 43.5028 25.9795L44.4186 25.927C44.5221 25.9212 44.6234 25.8942 44.7164 25.8477C44.8093 25.8013 44.8919 25.7363 44.9593 25.6567C45.0266 25.5771 45.0773 25.4846 45.1083 25.3847C45.1393 25.2849 45.1498 25.1797 45.1394 25.0756L44.3436 17.0996Z" fill="#EF487D"/>
<g style="mix-blend-mode:multiply">
<path d="M39.2109 17.3922L39.4249 17.946L44.3736 17.6484L44.3436 17.0996L39.2109 17.3922Z" fill="#CD3E6A"/>
</g>
<path d="M57.6044 4.48047C50.9681 8.87804 45.6875 9.59432 45.6875 9.59432L45.8964 13.3271L46.1034 17.0235C46.1034 17.0235 52.2018 16.5372 58.8131 20.165L59.6659 12.3616L57.6044 4.48047Z" fill="#D8DDFF"/>
<path d="M46.0312 15.6646L46.1072 17.0246C46.1072 17.0246 52.2057 16.5383 58.817 20.1661L59.1619 17.0115C51.2019 14.912 46.3912 15.6092 46.0312 15.6646Z" fill="#C9D1F4"/>
<path d="M55.8033 16.2877L56.4381 16.3714L55.7743 8.91504C55.7743 8.91504 54.2767 12.3966 55.8033 16.2877Z" fill="#C9D1F4"/>
<path d="M45.6875 9.59432L45.7525 10.7545C46.2843 10.7727 51.0511 10.8403 58.4832 7.94889L57.6044 4.48047C50.9681 8.87804 45.6875 9.59432 45.6875 9.59432Z" fill="#E9EDFF"/>
<path d="M59.5834 20.323C61.3448 20.1762 62.4781 16.457 62.1147 12.0158C61.7514 7.57466 60.0289 4.09337 58.2674 4.24013C56.506 4.38689 55.3727 8.10612 55.7361 12.5473C56.0995 16.9884 57.8219 20.4697 59.5834 20.323Z" fill="#E9EDFF"/>
<path d="M59.5038 19.358C61.0539 19.2288 62.0513 15.956 61.7315 12.0479C61.4117 8.13987 59.8959 5.07645 58.3458 5.2056C56.7957 5.33475 55.7983 8.60758 56.118 12.5157C56.4378 16.4237 57.9536 19.4872 59.5038 19.358Z" fill="#C3CBED"/>
<path d="M56.2257 8.79395C56.0437 10.0265 56.0068 11.2764 56.1157 12.5176C56.2111 13.7818 56.4575 15.0297 56.8496 16.2342L59.184 15.4523L58.6641 9.11577L56.2257 8.79395Z" fill="#758ABF"/>
<path d="M59.1811 15.4493C59.875 15.3915 60.3214 13.9262 60.1783 12.1765C60.0351 10.4268 59.3565 9.05528 58.6626 9.11309C57.9688 9.17091 57.5223 10.6362 57.6655 12.3859C57.8086 14.1356 58.4872 15.5071 59.1811 15.4493Z" fill="#8C9DD3"/>
<path d="M58.7824 10.6113C58.4165 10.6425 58.1825 11.4183 58.2555 12.3404C58.3285 13.2625 58.6894 13.9879 59.0553 13.9546C59.4212 13.9213 59.6552 13.1475 59.5822 12.2264C59.5092 11.3054 59.1513 10.581 58.7824 10.6113Z" fill="#C3CBED"/>
<path d="M45.6898 9.59452L38.4916 9.96678C36.4771 9.99402 35.0515 11.7646 35.0785 13.8004C35.091 14.7117 35.4376 15.5859 36.0516 16.2543C36.6655 16.9226 37.5032 17.3376 38.4026 17.4192C38.5274 17.4437 38.6547 17.4525 38.7815 17.4454L46.1017 17.0277L47.0884 17.0075C46.0067 13.6693 46.6125 9.41797 46.6125 9.41797L45.6898 9.59452Z" fill="#EF487D"/>
<g style="mix-blend-mode:multiply">
<path d="M45.7164 9.58859C45.6504 10.0991 45.2005 13.9266 46.1683 17.0228L47.094 17.0036C46.0123 13.6654 46.6182 9.41406 46.6182 9.41406L45.7164 9.58859Z" fill="#CD3E6A"/>
</g>
<path d="M37.9098 10.0254C36.2102 10.3482 35.0545 11.9664 35.0785 13.7975C35.0909 14.7087 35.4376 15.583 36.0516 16.2513C36.6655 16.9197 37.5032 17.3347 38.4026 17.4162C34.8026 14.1919 37.8938 10.0466 37.9098 10.0254Z" fill="#CD3E6A"/>
<path d="M45.7604 23.4514C45.7171 23.4114 45.6703 23.3756 45.6204 23.3445L45.6014 23.3334C45.4752 23.2635 45.3408 23.2096 45.2015 23.173C45.1295 23.1518 45.0475 23.1326 44.9556 23.1134C44.8656 23.0963 44.7656 23.0791 44.6557 23.066C44.5687 23.0539 44.4767 23.0448 44.3767 23.0368H44.3687C44.1488 23.0206 43.8958 23.0126 43.6039 23.0186C43.404 23.0186 43.187 23.0317 42.9511 23.0509C42.8811 23.0509 42.8081 23.062 42.7341 23.068C42.634 23.0775 42.5362 23.1044 42.4452 23.1477C42.2651 23.2348 42.121 23.383 42.038 23.5663C41.955 23.7496 41.9385 23.9565 41.9912 24.1509C42.0439 24.3453 42.1625 24.5149 42.3265 24.63C42.4904 24.7452 42.6891 24.7987 42.8881 24.7811C43.2867 24.7412 43.6875 24.7284 44.0878 24.7427C44.2428 24.7498 44.3707 24.7629 44.4707 24.776C44.5796 24.7888 44.6871 24.8121 44.7916 24.8456C44.8992 24.9018 45.0175 24.9338 45.1385 24.9395C45.3129 24.9485 45.4858 24.9033 45.6339 24.8099C45.782 24.7165 45.898 24.5794 45.9663 24.4173C46.0346 24.2551 46.0519 24.0756 46.0158 23.9032C45.9796 23.7308 45.8919 23.5738 45.7644 23.4534L45.7604 23.4514Z" fill="#FFA08A"/>
<path d="M46.0334 21.5099C45.9644 21.4837 44.3238 20.8875 42.5273 21.3425C42.2864 21.404 42.0796 21.5596 41.9524 21.775C41.8252 21.9904 41.788 22.248 41.849 22.491C41.91 22.7341 42.0641 22.9428 42.2776 23.0712C42.491 23.1995 42.7463 23.2371 42.9872 23.1755C44.2099 22.8658 45.3796 23.2764 45.3866 23.2835C45.5028 23.3304 45.6272 23.3533 45.7524 23.3509C45.8776 23.3485 46.001 23.3207 46.1154 23.2693C46.2298 23.2179 46.3328 23.1439 46.4183 23.0517C46.5039 22.9594 46.5702 22.8508 46.6135 22.7323C46.6567 22.6137 46.676 22.4876 46.6701 22.3614C46.6642 22.2352 46.6333 22.1114 46.5792 21.9975C46.5252 21.8835 46.449 21.7817 46.3552 21.6979C46.2615 21.6142 46.152 21.5503 46.0334 21.5099Z" fill="#FFA08A"/>
<path d="M46.208 17.9751C46.138 17.9488 44.4554 17.3375 42.6149 17.8036C42.368 17.8667 42.1562 18.0262 42.0258 18.247C41.8955 18.4678 41.8575 18.7318 41.9201 18.9809C41.9826 19.23 42.1407 19.4438 42.3595 19.5753C42.5783 19.7068 42.8399 19.7452 43.0868 19.682C44.3394 19.3653 45.5381 19.7829 45.5501 19.793C45.6696 19.8434 45.798 19.8689 45.9275 19.8679C46.057 19.8669 46.185 19.8395 46.3037 19.7873C46.4225 19.7351 46.5295 19.6592 46.6184 19.5641C46.7073 19.4691 46.7762 19.3568 46.8209 19.2342C46.8657 19.1116 46.8854 18.981 46.8788 18.8505C46.8723 18.72 46.8396 18.5921 46.7828 18.4747C46.726 18.3572 46.6463 18.2526 46.5483 18.1671C46.4504 18.0816 46.3363 18.0169 46.213 17.9771L46.208 17.9751Z" fill="#FFA08A"/>
<path d="M46.2851 19.8307C46.2181 19.8004 44.6146 19.1063 42.795 19.4534C42.5561 19.5051 42.3466 19.649 42.2113 19.8544C42.076 20.0598 42.0256 20.3104 42.0709 20.5527C42.1162 20.7951 42.2535 21.01 42.4536 21.1516C42.6537 21.2932 42.9007 21.3503 43.1419 21.3107C44.3806 21.0746 45.5243 21.5568 45.5353 21.5619C45.7628 21.6622 46.0205 21.6672 46.2517 21.5759C46.4828 21.4845 46.6686 21.3042 46.768 21.0746C46.8674 20.845 46.8724 20.585 46.7819 20.3517C46.6913 20.1184 46.5126 19.931 46.2851 19.8307Z" fill="#FFA08A"/>
<path d="M45.7211 23.3149C45.6671 23.2957 44.3614 22.8579 42.9508 23.0475C42.93 23.0498 42.9107 23.0598 42.8967 23.0755C42.8827 23.0913 42.875 23.1116 42.875 23.1328C42.875 23.1539 42.8827 23.1743 42.8967 23.19C42.9107 23.2058 42.93 23.2157 42.9508 23.218C42.9581 23.219 42.9655 23.219 42.9728 23.218C44.3454 23.0334 45.6541 23.4723 45.6671 23.4773C45.6778 23.4815 45.6892 23.4835 45.7007 23.4831C45.7122 23.4827 45.7235 23.4799 45.7339 23.475C45.7443 23.4701 45.7536 23.4631 45.7613 23.4544C45.7689 23.4458 45.7747 23.4356 45.7784 23.4246C45.7821 23.4136 45.7835 23.402 45.7825 23.3904C45.7816 23.3789 45.7784 23.3676 45.773 23.3574C45.7676 23.3471 45.7603 23.3381 45.7513 23.3308C45.7424 23.3235 45.7321 23.3181 45.7211 23.3149Z" fill="#F48573"/>
<path d="M46.2346 21.6167C45.2017 21.2693 44.1122 21.1254 43.0254 21.193C43.0143 21.1935 43.0034 21.1962 42.9934 21.201C42.9833 21.2058 42.9743 21.2126 42.9668 21.221C42.9594 21.2293 42.9537 21.2391 42.95 21.2497C42.9463 21.2603 42.9448 21.2715 42.9455 21.2828C42.9465 21.3028 42.9544 21.3219 42.968 21.3366C42.9815 21.3514 42.9997 21.3609 43.0194 21.3635H43.0344C44.097 21.297 45.1624 21.4371 46.1726 21.7761C46.1831 21.7802 46.1942 21.7822 46.2054 21.7819C46.2166 21.7817 46.2277 21.7793 46.2379 21.7747C46.2482 21.7702 46.2574 21.7636 46.2652 21.7555C46.273 21.7473 46.279 21.7377 46.2831 21.7272C46.2872 21.7166 46.2892 21.7054 46.2889 21.6941C46.2887 21.6828 46.2862 21.6716 46.2817 21.6613C46.2772 21.6509 46.2708 21.6416 46.2627 21.6338C46.2546 21.6259 46.2451 21.6198 46.2346 21.6157V21.6167Z" fill="#F48573"/>
<path d="M46.0736 19.8011C46.0336 19.783 45.0739 19.3613 43.0914 19.5368C43.0706 19.5391 43.0513 19.5491 43.0373 19.5648C43.0234 19.5805 43.0156 19.6009 43.0156 19.6221C43.0156 19.6432 43.0234 19.6636 43.0373 19.6793C43.0513 19.695 43.0706 19.705 43.0914 19.7073H43.1094C45.0429 19.5358 45.9977 19.9525 46.0086 19.9575C46.0293 19.9669 46.0529 19.9676 46.074 19.9594C46.0952 19.9513 46.1123 19.935 46.1216 19.9141C46.1309 19.8932 46.1316 19.8695 46.1235 19.8481C46.1155 19.8268 46.0993 19.8095 46.0786 19.8001L46.0736 19.8011Z" fill="#F48573"/>
<path d="M43.2087 16.1627C42.701 16.1091 42.1884 16.1254 41.685 16.2111L41.5851 16.2272L41.4851 16.2494L41.2912 16.2948C41.1632 16.3332 41.0322 16.3675 40.9053 16.4169C40.7783 16.4663 40.6523 16.5178 40.5263 16.5723C40.4004 16.6267 40.2794 16.6943 40.1604 16.767C39.6806 17.0513 39.2552 17.4203 38.9048 17.8565C38.7276 18.0741 38.5687 18.3063 38.4299 18.5506C38.3589 18.6727 38.2949 18.7988 38.2299 18.9309C38.1989 18.9965 38.17 19.0631 38.142 19.1327C38.128 19.167 38.113 19.2043 38.1 19.2427L38.079 19.3032L38.068 19.3375L38.062 19.3567L38.053 19.388C37.9961 19.6736 38.0518 19.9704 38.2083 20.2153C38.3647 20.4602 38.6096 20.6339 38.8909 20.6995C39.1722 20.7652 39.4678 20.7176 39.7149 20.5669C39.9621 20.4162 40.1412 20.1742 40.2144 19.8924V19.9035C40.2139 19.9015 40.2139 19.8994 40.2144 19.8974C40.2144 19.8904 40.2144 19.8853 40.2144 19.8772C40.2144 19.8692 40.2194 19.845 40.2224 19.8268C40.2294 19.7915 40.2384 19.7532 40.2474 19.7148C40.2674 19.6382 40.2904 19.5585 40.3194 19.4798C40.3729 19.3206 40.4398 19.1664 40.5193 19.0187C40.6805 18.7213 40.8935 18.4558 41.1482 18.2348C41.2112 18.1773 41.2802 18.1289 41.3481 18.0754C41.4161 18.022 41.4901 17.9746 41.5671 17.9362C41.6441 17.8979 41.722 17.8535 41.801 17.8121L41.925 17.7587L41.987 17.7314L42.051 17.7082C42.4117 17.5801 42.7881 17.502 43.1697 17.4762H43.1917C43.3505 17.4586 43.4975 17.3831 43.605 17.2638C43.7124 17.1445 43.773 16.9897 43.7752 16.8285C43.7774 16.6672 43.7211 16.5108 43.617 16.3885C43.5128 16.2663 43.3679 16.1867 43.2097 16.1647L43.2087 16.1627Z" fill="#FFA08A"/>
<path d="M23.0699 69.9589H21.3474C20.3236 70.0084 19.2989 70.0134 18.2861 69.9741V69.9589L18.1522 69.281L17.7183 67C17.4394 65.4776 17.1594 63.9553 16.9185 62.4269C16.6601 60.8012 16.8766 59.1348 17.5415 57.6313C18.2064 56.1278 19.2909 54.8522 20.6625 53.9606C20.7735 53.889 20.8865 53.8184 21.0014 53.7518C21.9687 53.1888 23.0373 52.8256 24.145 52.6833C25.2528 52.541 26.3775 52.6224 27.4537 52.9228C28.5299 53.2232 29.5362 53.7367 30.4139 54.4332C31.2917 55.1298 32.0234 55.9955 32.5665 56.9801C32.6274 57.0901 32.6854 57.201 32.7404 57.314C33.0018 57.8427 33.2075 58.3976 33.3543 58.9696L33.3603 58.9907C33.3953 59.1269 33.4262 59.2651 33.4542 59.4034C33.5276 59.7652 33.5982 60.1274 33.6662 60.4899C33.6712 60.5202 33.6772 60.5504 33.6832 60.5807C33.7712 61.0427 33.8565 61.5058 33.9391 61.9699C33.9451 61.9961 33.9491 62.0223 33.9531 62.0486C34.0371 62.5133 34.1197 62.9787 34.201 63.4448C34.236 63.6405 34.27 63.8362 34.301 64.032L34.5739 65.6522L34.6929 66.3513L35.0688 68.6717C35.1355 69.1008 35.2021 69.5292 35.2688 69.9569H23.0719L23.0699 69.9589Z" fill="#1093DD"/>
<path d="M20.1338 12.0566C20.1118 13.2047 20.4697 14.3851 21.6074 14.4072C22.7451 14.4294 24.2317 13.2854 24.2537 12.1373C24.2618 11.8626 24.2159 11.5889 24.1185 11.3322C24.0212 11.0755 23.8743 10.8408 23.6865 10.6417C23.4987 10.4426 23.2737 10.2831 23.0244 10.1723C22.7751 10.0616 22.5065 10.0018 22.2341 9.99649C21.9618 9.99115 21.6911 10.0404 21.4377 10.1413C21.1844 10.2422 20.9533 10.3928 20.758 10.5844C20.5627 10.7759 20.4069 11.0047 20.2998 11.2574C20.1926 11.5101 20.1362 11.7818 20.1338 12.0566Z" fill="#EF9789"/>
<path d="M41.4513 21.3112C40.9904 21.1753 40.5075 21.1323 40.0301 21.1848C39.5528 21.2372 39.0904 21.384 38.6693 21.6168C38.2482 21.8496 37.8766 22.1638 37.5759 22.5416C37.2751 22.9193 37.051 23.353 36.9164 23.8181L33.6023 35.2767L31.1389 28.1239C31.1079 28.0341 31.0689 27.9302 31.0319 27.8414C30.7864 27.2492 30.4276 26.7116 29.9761 26.2593C29.5247 25.8071 28.9894 25.4489 28.4007 25.2054C27.8121 24.9619 27.1817 24.8377 26.5456 24.8401C25.9094 24.8424 25.2799 24.9711 24.6931 25.2189C24.1062 25.4667 23.5735 25.8288 23.1253 26.2843C22.677 26.7399 22.3222 27.2801 22.0808 27.8741C21.8395 28.4681 21.7165 29.1042 21.7188 29.7462C21.7211 30.3881 21.8487 31.0233 22.0942 31.6155L30.0212 50.7221L30.1152 50.9511C30.4583 51.7644 31.0463 52.448 31.7959 52.9053C32.5455 53.3625 33.4187 53.5701 34.2918 53.4987C35.1648 53.4272 35.9934 53.0804 36.6603 52.5073C37.3271 51.9342 37.7983 51.1639 38.0071 50.3055L43.9746 25.7309C44.1969 24.8082 44.0589 23.8345 43.5891 23.0117C43.1193 22.1888 42.3538 21.5799 41.4513 21.3112Z" fill="#FFA08A"/>
<path d="M23.1103 69.9588L23.1233 69.8287C23.1899 69.2065 23.2509 68.5844 23.3062 67.9623L23.5122 65.6349C23.6002 64.5312 23.6881 63.4265 23.7551 62.3208C23.7551 62.2976 23.7551 62.2754 23.7551 62.2522C23.7818 61.8258 23.8048 61.3991 23.8241 60.972C23.8652 59.9719 23.7298 58.9724 23.4242 58.0201C22.8231 56.1208 21.581 54.4943 19.9141 53.4238C18.8552 52.7428 17.6572 52.3127 16.41 52.1657C16.1209 52.1313 15.8303 52.1118 15.5392 52.1072C13.4613 52.0788 11.4465 52.8282 9.884 54.2109C8.32148 55.5935 7.32196 57.5113 7.07842 59.5939C6.89746 61.1425 6.7695 62.6951 6.64253 64.2477L6.47157 66.5771C6.47157 66.6579 6.46057 66.7376 6.45558 66.8183C6.40959 67.515 6.36593 68.2125 6.32461 68.9106C6.30461 69.2597 6.28495 69.6091 6.26562 69.9588H17.9206C18.0433 69.9655 18.1662 69.9706 18.2895 69.9739C19.3023 70.0133 20.327 70.0082 21.3507 69.9588H23.1103Z" fill="#0D94F2"/>
<path d="M31.4417 28.098L33.9621 35.8984C34.3628 37.1492 34.2676 38.508 33.6965 39.6895C33.1254 40.8709 32.1228 41.7831 30.8994 42.2344C29.6759 42.6856 28.3267 42.6409 27.1352 42.1096C25.9437 41.5783 25.0026 40.6017 24.5095 39.385L21.4503 31.7833C21.1761 31.1278 21.0336 30.4238 21.0313 29.7122C21.0289 29.0006 21.1667 28.2956 21.4367 27.6382C21.7066 26.9809 22.1033 26.3841 22.6038 25.8828C23.1042 25.3814 23.6983 24.9854 24.3517 24.7177C25.0051 24.4501 25.7046 24.3161 26.4098 24.3235C27.1149 24.331 27.8115 24.4798 28.4592 24.7613C29.1069 25.0427 29.6926 25.4513 30.1825 25.9631C30.6724 26.475 31.0566 27.0799 31.3128 27.7429C31.3588 27.8549 31.4038 27.983 31.4417 28.098Z" fill="white"/>
<path d="M13.5771 18.1745L13.4531 27.6577C15.8845 31.4137 20.1444 30.3241 21.4021 27.3813L20.7542 18.6124C19.3506 16.4575 15.8215 15.7634 13.5771 18.1745Z" fill="#FFA08A"/>
<path d="M35.422 64.827C35.1576 65.1181 34.8765 65.3934 34.5802 65.6513C31.8469 68.0473 27.593 69.384 23.1251 69.8279H23.0981C23.0981 69.8279 23.0981 69.8279 23.0921 69.8279C22.5143 69.8864 21.9344 69.9291 21.3526 69.956C20.3288 70.0055 19.3041 70.0105 18.2914 69.9712C18.1687 69.9712 18.0458 69.9661 17.9225 69.956C13.2857 69.7351 8.96677 68.6213 6.45742 66.8155C5.66762 66.2475 5.05778 65.6119 4.67188 64.9128C4.67188 64.9128 5.32171 61.8439 6.01253 57.9517C6.40343 55.7504 6.80733 53.2878 7.11225 50.9665C7.17356 50.5098 7.22988 50.0595 7.2812 49.6156C7.35518 48.9952 7.41917 48.3909 7.47215 47.8128C7.53914 47.0834 7.58712 46.3944 7.61412 45.7638C7.77408 41.8969 7.14824 38.2782 5.94855 35.2718C5.01579 32.9303 4.9548 32.3169 5.05678 29.7968C5.09877 28.7425 5.16175 28.0343 5.3707 27.537C5.44771 27.3461 5.56194 27.1729 5.70661 27.0275C6.10651 26.63 6.75934 26.4323 7.85905 26.2365C8.62486 26.1004 10.9293 25.6988 13.4876 25.2771C13.5429 25.267 13.5979 25.258 13.6526 25.2499C16.4318 24.7909 19.4791 24.3137 21.1646 24.1281L21.2966 24.1109C21.6575 24.0726 21.9484 24.0504 22.1514 24.0453C23.669 24.009 24.9686 24.1311 26.0824 24.3984C26.7023 24.5414 27.3054 24.75 27.8819 25.0209C29.4205 25.7553 30.4812 26.8812 31.216 28.3269C31.6795 29.2707 32.0235 30.2695 32.2398 31.3C32.6497 33.126 32.8306 35.2345 32.9476 37.5548C32.9986 38.5637 33.0376 39.6099 33.0786 40.6913C33.1445 42.4528 33.2135 44.304 33.3465 46.2168C33.3805 46.7031 33.4285 47.2771 33.4875 47.9187C33.6314 49.4875 33.8434 51.4568 34.0753 53.5128C34.2203 54.79 34.3752 56.1005 34.5232 57.3686C34.5862 57.8983 34.6482 58.4219 34.7091 58.9313C34.7091 58.9535 34.7141 58.9747 34.7171 58.9959C34.7791 59.5154 34.8401 60.0209 34.8991 60.5092C34.8991 60.5203 34.8991 60.5324 34.8991 60.5435C34.9611 61.055 35.0211 61.5453 35.077 62.0063C35.22 63.1685 35.34 64.1471 35.422 64.827Z" fill="white"/>
<path d="M20.7621 18.707L20.962 21.4531C20.962 21.4531 17.7089 21.8567 15.7344 20.0549L20.7621 18.707Z" fill="#3B3348"/>
<path d="M26.5133 55.4079L9.10679 50.1618L10.2285 32.733C10.2345 32.6381 10.2385 32.5312 10.2385 32.4303C10.2403 31.7886 10.1169 31.1527 9.87523 30.5591C9.63355 29.9655 9.27838 29.4257 8.82999 28.9706C8.3816 28.5155 7.84877 28.154 7.26192 27.9067C6.67507 27.6594 6.0457 27.5312 5.40975 27.5293C4.77379 27.5275 4.14369 27.652 3.55544 27.8959C2.96719 28.1398 2.43229 28.4982 1.9813 28.9507C1.53031 29.4031 1.17205 29.9408 0.926985 30.533C0.681916 31.1252 0.554834 31.7603 0.552996 32.4021L0.50001 53.1208V53.3639C0.498027 54.284 0.802502 55.1781 1.36455 55.9026C1.92659 56.6271 2.7136 57.14 3.59921 57.359L24.6038 62.5283C25.5319 62.7611 26.5135 62.6176 27.3381 62.1286C28.1626 61.6396 28.7644 60.8441 29.0145 59.9125C29.2645 58.981 29.1429 57.9877 28.6758 57.1456C28.2086 56.3035 27.433 55.6797 26.5153 55.4079H26.5133Z" fill="#FFA08A"/>
<path d="M11.1107 32.9201L10.044 43.8681C9.91744 45.1874 9.28489 46.4045 8.28135 47.2597C7.27781 48.1148 5.98279 48.5403 4.67269 48.4452C3.3626 48.3501 2.14121 47.7421 1.26924 46.7509C0.397268 45.7596 -0.0562171 44.4637 0.00557938 43.1397L0.500452 32.1503C0.522892 31.4393 0.685102 30.7399 0.977663 30.0927C1.27022 29.4454 1.6873 28.8633 2.20468 28.3801C2.72205 27.8969 3.32941 27.5223 3.99147 27.2779C4.65354 27.0336 5.35712 26.9244 6.06135 26.9567C6.76557 26.9891 7.45641 27.1623 8.09375 27.4663C8.73108 27.7703 9.3022 28.1991 9.77393 28.7278C10.2457 29.2564 10.6086 29.8743 10.8417 30.5457C11.0748 31.2171 11.1734 31.9285 11.1317 32.6386C11.1277 32.7264 11.1197 32.8333 11.1107 32.9201Z" fill="white"/>
<path d="M23.3418 62.0523C23.3418 62.0523 21.9892 56.8183 26.0411 55.293L31.6567 56.9475L28.8924 63.1156C28.8924 63.1156 24.2486 62.6868 23.3418 62.0523Z" fill="#FFA08A"/>
<path d="M30.2551 58.8896L33.2873 58.9683L34.8019 58.9986L35.5547 59.0077H35.9276C36.0536 59.0077 36.1675 59.0077 36.2825 59.0077H36.3085C36.4979 59.0047 36.681 59.0764 36.8189 59.2075C36.9567 59.3386 37.0385 59.5188 37.0469 59.7097C37.0552 59.9007 36.9894 60.0874 36.8635 60.2303C36.7376 60.3731 36.5614 60.4607 36.3725 60.4746C36.2345 60.4846 36.0956 60.4937 35.9726 60.4998L35.5857 60.5179L34.8199 60.5472L33.2963 60.5946L30.2531 60.6723C30.0223 60.6731 29.8004 60.5827 29.6349 60.4204C29.4693 60.2582 29.3734 60.037 29.3675 59.8042C29.3616 59.5714 29.4463 59.3455 29.6034 59.175C29.7605 59.0044 29.9776 58.9027 30.2081 58.8917H30.2591L30.2551 58.8896Z" fill="#FFA08A"/>
<path d="M29.5195 60.3887L32.5517 60.4674L34.0663 60.4976L34.8201 60.5077H35.193C35.319 60.5077 35.434 60.5077 35.5479 60.5077H35.5739C35.7633 60.5048 35.9464 60.5764 36.0843 60.7075C36.2222 60.8386 36.304 61.0188 36.3123 61.2098C36.3206 61.4007 36.2548 61.5875 36.1289 61.7303C36.003 61.8731 35.8268 61.9607 35.6379 61.9746C35.4999 61.9847 35.362 61.9937 35.238 61.9998L34.8511 62.018L34.0863 62.0472L32.5617 62.0956L29.5185 62.1723C29.401 62.178 29.2836 62.1599 29.1732 62.1191C29.0627 62.0783 28.9614 62.0156 28.8753 61.9348C28.7892 61.854 28.72 61.7566 28.6717 61.6484C28.6234 61.5402 28.597 61.4234 28.594 61.3047C28.5911 61.1861 28.6117 61.068 28.6546 60.9575C28.6975 60.847 28.7618 60.7463 28.8439 60.6612C28.9259 60.5762 29.0239 60.5085 29.1322 60.4622C29.2405 60.416 29.3569 60.392 29.4745 60.3917H29.5245L29.5195 60.3887Z" fill="#FFA08A"/>
<path d="M29.1721 61.3597L31.6645 61.6967L32.9091 61.854L33.528 61.9267C33.7329 61.9499 33.9369 61.97 34.1278 61.9852H34.1488C34.3388 61.9984 34.516 62.0862 34.6425 62.2298C34.7691 62.3734 34.8348 62.5613 34.8256 62.7532C34.8165 62.9451 34.7332 63.1258 34.5936 63.2564C34.4539 63.3871 34.2692 63.4573 34.0788 63.4521C33.8449 63.4521 33.6299 63.4399 33.416 63.4288L32.7782 63.3935L31.5125 63.3118L28.9891 63.1302C28.8716 63.1246 28.7563 63.0952 28.6502 63.044C28.544 62.9927 28.4491 62.9205 28.371 62.8317C28.2928 62.7429 28.2331 62.6392 28.1953 62.5267C28.1574 62.4143 28.1423 62.2953 28.1507 62.1769C28.1591 62.0584 28.1909 61.9428 28.2442 61.8369C28.2975 61.7311 28.3712 61.637 28.4611 61.5603C28.551 61.4836 28.6551 61.4258 28.7674 61.3903C28.8797 61.3548 28.9979 61.3424 29.1151 61.3536L29.1661 61.3587L29.1721 61.3597Z" fill="#FFA08A"/>
<path d="M29.8585 57.2072L32.8948 57.3192L34.4084 57.3656L35.1622 57.3838L35.5341 57.3888C35.661 57.3888 35.775 57.3888 35.89 57.3888H35.917C36.104 57.3896 36.2836 57.463 36.4185 57.5938C36.5533 57.7247 36.6331 57.9029 36.6412 58.0914C36.6493 58.28 36.5851 58.4645 36.462 58.6066C36.3389 58.7487 36.1663 58.8376 35.98 58.8547C35.842 58.8658 35.703 58.8769 35.5801 58.8839L35.1932 58.9071L34.4274 58.9445L32.9038 59.009L29.8515 59.118C29.7268 59.1225 29.6024 59.1022 29.4855 59.0582C29.3686 59.0142 29.2614 58.9473 29.17 58.8615C29.0787 58.7757 29.005 58.6726 28.9531 58.558C28.9012 58.4435 28.8723 58.3197 28.8678 58.1939C28.8633 58.068 28.8835 57.9425 28.9271 57.8245C28.9707 57.7065 29.0369 57.5983 29.1219 57.5061C29.207 57.414 29.3092 57.3396 29.4227 57.2873C29.5362 57.2349 29.6588 57.2057 29.7836 57.2012H29.8585V57.2072Z" fill="#FFA08A"/>
<path d="M27.7518 56.0017L30.1512 55.7576L31.3459 55.6284C31.7458 55.5841 32.1457 55.5387 32.5156 55.4862H32.5316C32.7137 55.4675 32.8961 55.5187 33.0426 55.6295C33.189 55.7403 33.2888 55.9026 33.322 56.0843C33.3553 56.2659 33.3196 56.4535 33.222 56.6098C33.1245 56.7661 32.9722 56.8796 32.7955 56.9278C32.3756 57.0287 31.9867 57.1064 31.5878 57.1891L30.3961 57.4303L28.0208 57.8953C27.7736 57.9438 27.5176 57.8911 27.3089 57.7491C27.1002 57.607 26.956 57.3871 26.908 57.1377C26.86 56.8883 26.9122 56.6299 27.053 56.4193C27.1938 56.2088 27.4117 56.0633 27.6588 56.0148C27.6868 56.0148 27.7148 56.0047 27.7428 56.0017H27.7518Z" fill="#FFA08A"/>
<path d="M23.7084 6.54245V6.52227C23.4525 3.4473 20.4722 1.14814 16.9971 1.36806C13.479 1.59102 10.7837 4.30684 10.9787 7.43327C11.0117 7.95664 11.1254 8.47162 11.3156 8.95965L11.3406 13.9192C11.3496 15.7714 12.1694 17.5308 13.608 18.7869C15.0907 20.0569 17.0064 20.6922 18.9466 20.5574C21.7399 20.3808 23.4045 17.8032 23.2455 15.1832L23.6454 7.89229C23.7253 7.4754 23.7525 7.04998 23.7264 6.62619C23.7144 6.59794 23.7104 6.5707 23.7084 6.54245Z" fill="#FFA08A"/>
<path d="M13.7654 12.1386C13.8364 13.2846 13.5295 14.4801 12.3938 14.5518C11.2581 14.6234 9.72346 13.5429 9.65248 12.3989C9.63554 12.1264 9.67196 11.8531 9.75966 11.5948C9.84736 11.3365 9.98462 11.0982 10.1636 10.8934C10.3426 10.6886 10.5598 10.5214 10.8028 10.4013C11.0458 10.2812 11.3099 10.2106 11.58 10.1935C11.85 10.1764 12.1208 10.2132 12.3768 10.3017C12.6328 10.3902 12.869 10.5287 13.0719 10.7093C13.2748 10.8899 13.4405 11.1091 13.5595 11.3544C13.6785 11.5996 13.7485 11.8661 13.7654 12.1386Z" fill="#FFA08A"/>
<path d="M23.7385 6.03151C24.6383 5.00187 24.5407 3.43103 23.5203 2.52295C22.5 1.61488 20.9433 1.71343 20.0434 2.74308C19.1436 3.77273 19.2412 5.34356 20.2616 6.25164C21.2819 7.15972 22.8386 7.06116 23.7385 6.03151Z" fill="#461F16"/>
<path d="M17.9402 0.0250734C13.1034 0.327728 10.3771 2.92652 11.7838 5.70792C15.4738 4.25013 20.9974 5.27008 22.8709 6.67036C23.2073 6.9221 23.6213 7.04508 24.0392 7.01736C24.457 6.98965 24.8515 6.81304 25.1523 6.51904C25.7902 5.89456 25.7402 5.16718 25.6702 4.03626C25.5162 1.56054 22.0551 -0.23521 17.9402 0.0250734Z" fill="#461F16"/>
<path d="M14.8324 4.73255C14.8324 4.73255 12.8329 5.68894 12.7379 7.12958C12.643 8.57021 12.63 10.5839 12.63 10.5839L10.9074 10.4053C10.9074 10.4053 9.93067 6.53335 10.7704 4.97972C11.6102 3.42609 14.8324 4.73255 14.8324 4.73255Z" fill="#461F16"/>
<path d="M19.3338 14.5144C19.3191 14.5148 19.3044 14.5123 19.2907 14.507C19.2769 14.5017 19.2644 14.4937 19.2537 14.4835C19.243 14.4733 19.2345 14.461 19.2285 14.4475C19.2225 14.4339 19.2192 14.4193 19.2188 14.4045C19.2184 14.3896 19.2209 14.3749 19.2262 14.361C19.2314 14.3471 19.2393 14.3345 19.2495 14.3237C19.2596 14.3129 19.2717 14.3043 19.2851 14.2982C19.2986 14.2922 19.3131 14.2889 19.3278 14.2885C19.4091 14.2831 19.4883 14.2603 19.5602 14.2217C19.6321 14.183 19.6951 14.1294 19.7449 14.0643C19.7947 13.9993 19.8303 13.9243 19.8492 13.8443C19.8681 13.7643 19.87 13.6812 19.8546 13.6004L19.2928 10.3913C19.2875 10.3617 19.294 10.3312 19.311 10.3065C19.328 10.2819 19.3539 10.265 19.3832 10.2596C19.4125 10.2543 19.4428 10.2609 19.4672 10.278C19.4917 10.2951 19.5084 10.3214 19.5137 10.3509L20.0786 13.557C20.0995 13.6692 20.0965 13.7845 20.07 13.8954C20.0435 14.0063 19.994 14.1103 19.9248 14.2005C19.8555 14.2906 19.7681 14.365 19.6683 14.4186C19.5685 14.4722 19.4586 14.5038 19.3458 14.5114L19.3338 14.5144Z" fill="#461F16"/>
<path d="M20.9836 15.7383C21.0005 16.1623 20.8522 16.5761 20.5705 16.8911C20.2888 17.2061 19.896 17.3973 19.4763 17.4237C19.0566 17.45 18.6434 17.3095 18.3251 17.0322C18.0068 16.7549 17.8088 16.3629 17.7734 15.9401L20.9836 15.7383Z" fill="white"/>
<path d="M20.9264 8.95572C20.897 8.95665 20.8677 8.95172 20.8401 8.94122C20.8126 8.93072 20.7874 8.91485 20.766 8.89453C20.7445 8.8742 20.7272 8.8498 20.7151 8.82274C20.703 8.79568 20.6963 8.76648 20.6954 8.7368C20.6945 8.70712 20.6994 8.67756 20.7098 8.64978C20.7202 8.62201 20.7359 8.59658 20.7561 8.57494C20.7762 8.5533 20.8004 8.53587 20.8272 8.52366C20.854 8.51145 20.883 8.50468 20.9124 8.50376L22.6789 8.39177C22.7373 8.38947 22.7944 8.41033 22.8378 8.44988C22.8812 8.48944 22.9075 8.54456 22.9112 8.60346C22.9148 8.66235 22.8955 8.72036 22.8573 8.76507C22.8192 8.80978 22.7652 8.83766 22.7069 8.84273L20.9404 8.95471L20.9264 8.95572Z" fill="#461F16"/>
<path d="M17.3519 9.17462H15.5833C15.5239 9.17462 15.467 9.15081 15.425 9.10843C15.383 9.06605 15.3594 9.00857 15.3594 8.94864C15.3594 8.8887 15.383 8.83122 15.425 8.78885C15.467 8.74647 15.5239 8.72266 15.5833 8.72266H17.3529C17.4123 8.72266 17.4692 8.74647 17.5112 8.78885C17.5532 8.83122 17.5768 8.8887 17.5768 8.94864C17.5768 9.00857 17.5532 9.06605 17.5112 9.10843C17.4692 9.15081 17.4123 9.17462 17.3529 9.17462H17.3519Z" fill="#461F16"/>
<path d="M17.9993 29.1289C20.4174 28.9758 22.2928 27.4876 22.1881 25.8049C22.0835 24.1222 20.0385 22.8822 17.6204 23.0353C15.2024 23.1884 13.327 24.6766 13.4316 26.3593C13.5362 28.042 15.5813 29.282 17.9993 29.1289Z" fill="#FFA08A"/>
<path d="M11.8103 13.1919C11.7805 13.1919 11.751 13.1859 11.7236 13.1743C11.6961 13.1627 11.6712 13.1457 11.6503 13.1243C11.1065 12.5644 11.1904 11.7674 11.1944 11.7341C11.2027 11.6759 11.233 11.6233 11.2791 11.5873C11.3251 11.5513 11.3833 11.5349 11.4411 11.5415C11.499 11.548 11.5521 11.5771 11.5891 11.6224C11.6261 11.6678 11.6441 11.726 11.6393 11.7845C11.6393 11.7966 11.5803 12.407 11.9702 12.8075C11.9911 12.8285 12.0076 12.8534 12.0189 12.8809C12.0301 12.9083 12.0359 12.9377 12.0359 12.9674C12.0359 12.9971 12.0301 13.0265 12.0189 13.054C12.0076 13.0814 11.9911 13.1063 11.9702 13.1273C11.9493 13.1484 11.9243 13.165 11.8968 13.1761C11.8693 13.1872 11.8399 13.1925 11.8103 13.1919Z" fill="#461F16"/>
<path d="M17.8406 10.3193C17.8406 10.3193 17.2547 11.0527 16.5139 11.0688C15.7731 11.085 15.1562 10.3778 15.1562 10.3778C15.1562 10.3778 15.7411 9.64434 16.4829 9.6282C17.2247 9.61206 17.8406 10.3193 17.8406 10.3193Z" fill="white"/>
<path d="M17.8416 10.3196C17.8443 10.462 17.8052 10.6019 17.7291 10.7219C17.6531 10.8418 17.5435 10.9362 17.4143 10.9934C17.2851 11.0505 17.142 11.0677 17.0031 11.0428C16.8641 11.0179 16.7357 10.952 16.6338 10.8535C16.532 10.755 16.4614 10.6282 16.4309 10.4892C16.4004 10.3502 16.4115 10.2052 16.4626 10.0725C16.5137 9.9398 16.6027 9.82538 16.7182 9.74368C16.8338 9.66198 16.9707 9.61666 17.1117 9.61344C17.2056 9.61144 17.299 9.62811 17.3865 9.66252C17.474 9.69692 17.5539 9.74839 17.6216 9.81397C17.6894 9.87955 17.7437 9.95796 17.7815 10.0447C17.8192 10.1315 17.8396 10.2249 17.8416 10.3196Z" fill="#461F16"/>
<path d="M23.0671 10.2283C23.0671 10.2283 22.4823 10.9618 21.7405 10.9779C20.9987 10.9941 20.3828 10.2899 20.3828 10.2899C20.3828 10.2899 20.9687 9.55645 21.7095 9.54031C22.4503 9.52417 23.0671 10.2283 23.0671 10.2283Z" fill="white"/>
<path d="M22.526 10.7561C22.8025 10.4726 22.799 10.0165 22.518 9.73746C22.2371 9.45838 21.7851 9.46196 21.5086 9.74546C21.232 10.029 21.2356 10.485 21.5165 10.7641C21.7974 11.0432 22.2494 11.0396 22.526 10.7561Z" fill="#461F16"/>
<path opacity="0.5" d="M16.5958 14.6412C17.1599 14.0719 17.1599 13.1488 16.5958 12.5795C16.0316 12.0102 15.1169 12.0102 14.5528 12.5795C13.9886 13.1488 13.9886 14.0719 14.5528 14.6412C15.1169 15.2105 16.0316 15.2105 16.5958 14.6412Z" fill="#FF7D90"/>
<path opacity="0.5" d="M22.5371 14.5964C23.2223 14.3439 23.5749 13.5788 23.3247 12.8874C23.0745 12.196 22.3163 11.8402 21.6312 12.0927C20.946 12.3451 20.5934 13.1103 20.8436 13.8016C21.0938 14.493 21.852 14.8488 22.5371 14.5964Z" fill="#FF7D90"/>
</g>
<defs>
<clipPath id="clip0_2582_7522">
<rect width="80" height="70" fill="white"/>
</clipPath>
</defs>
</svg>
