<svg width="28" height="28" viewBox="0 0 28 28" fill="none" xmlns="http://www.w3.org/2000/svg">
<path d="M25.8545 23.7908C25.8545 23.7908 22.7468 18.4496 22.1894 17.4916C22.8236 17.2981 23.4992 17.1273 23.78 16.6425C24.2478 15.8349 23.415 14.5099 23.6337 13.6442C23.859 12.7532 25.1887 11.9823 25.1887 11.0766C25.1887 10.1942 23.8139 9.16341 23.5885 8.27765C23.3683 7.41208 24.1986 6.08571 23.7293 5.27902C23.2599 4.47225 21.6965 4.53854 21.053 3.91927C20.3908 3.282 20.3929 1.7228 19.5942 1.29573C18.7923 0.867074 17.489 1.73339 16.5986 1.52818C15.7183 1.32532 14.9319 0 14.0125 0C13.0794 0 11.5954 1.50336 11.3626 1.55746C10.4727 1.76434 9.16773 0.90014 8.36664 1.33061C7.56873 1.75912 7.57364 3.31847 6.91269 3.9568C6.2702 4.5772 4.70675 4.51379 4.23883 5.32147C3.77097 6.12899 4.60377 7.45363 4.38517 8.31979C4.16596 9.18815 2.78987 10.068 2.78987 11.0723C2.78987 11.978 4.12298 12.7466 4.3496 13.6371C4.56987 14.5027 3.73957 15.8289 4.20894 16.6359C4.46447 17.0751 5.04423 17.2554 5.62324 17.4288C5.69081 17.449 5.81861 17.5246 5.73205 17.6507C5.33593 18.3345 2.14768 23.8369 2.14768 23.8369C1.89404 24.2746 2.10001 24.6497 2.60524 24.671L5.07828 24.7741C5.58351 24.7954 6.2173 25.1625 6.48698 25.5903L7.80662 27.6843C8.0763 28.1121 8.5042 28.104 8.75777 27.6665C8.75777 27.6665 12.4501 21.2918 12.4516 21.29C12.5257 21.2034 12.6002 21.2212 12.6358 21.2514C13.0398 21.5954 13.603 21.9386 14.073 21.9386C14.534 21.9386 14.9608 21.6156 15.3831 21.2553C15.4174 21.226 15.501 21.166 15.5622 21.2906C15.5631 21.2925 19.2514 27.6323 19.2514 27.6323C19.5057 28.0694 19.9336 28.0768 20.2025 27.6485L21.5184 25.552C21.7873 25.124 22.4204 24.7554 22.9257 24.7334L25.3985 24.6256C25.9035 24.6034 26.1088 24.2277 25.8545 23.7908ZM18.0995 18.0566C15.3652 19.6474 12.0831 19.4769 9.57626 17.8957C5.90298 15.5428 4.69435 10.6755 6.90255 6.86425C9.13595 3.00899 14.0455 1.64864 17.9355 3.76726C17.9559 3.77838 17.9761 3.78988 17.9964 3.80123C18.0252 3.8172 18.054 3.83339 18.0826 3.84974C19.2827 4.54164 20.3234 5.54582 21.0686 6.82665C23.346 10.7414 22.0142 15.7792 18.0995 18.0566Z" fill="#54657E"/>
<path d="M17.4774 5.00124C17.466 4.99466 17.4545 4.98853 17.4432 4.98202C15.3652 3.77936 12.7167 3.69144 10.497 4.98285C7.203 6.89921 6.08214 11.138 7.9985 14.4319C8.58325 15.4371 9.38457 16.2395 10.3091 16.8153C10.3877 16.8651 10.4672 16.914 10.5485 16.9611C13.846 18.8715 18.0826 17.743 19.9929 14.4456C21.9031 11.1481 20.7749 6.91162 17.4774 5.00124ZM18.3023 10.3919L17.1477 11.5173C16.7901 11.8658 16.5666 12.5538 16.6511 13.046L16.9236 14.6351C17.0081 15.1273 16.7155 15.3398 16.2735 15.1075L14.8463 14.3571C14.4043 14.1248 13.681 14.1248 13.2389 14.3571L11.8118 15.1075C11.3698 15.3398 11.0772 15.1273 11.1616 14.6351L11.4342 13.046C11.5186 12.5538 11.2951 11.8658 10.9375 11.5173L9.78296 10.3919C9.42528 10.0433 9.53712 9.69936 10.0313 9.62748L11.6268 9.39563C12.121 9.32382 12.7062 8.89865 12.9272 8.45085L13.6408 7.00507C13.8618 6.55727 14.2235 6.55727 14.4445 7.00507L15.1581 8.45085C15.3791 8.89865 15.9642 9.32382 16.4585 9.39563L18.054 9.62748C18.5481 9.69936 18.6599 10.0433 18.3023 10.3919Z" fill="#56C6AD"/>
</svg>
