<svg width="28" height="28" viewBox="0 0 28 28" fill="none" xmlns="http://www.w3.org/2000/svg">
<path d="M23.3333 7.29297H4.66667C3.53909 7.29297 2.625 8.20705 2.625 9.33464V11.668C2.625 12.7956 3.53909 13.7096 4.66667 13.7096H23.3333C24.4609 13.7096 25.375 12.7956 25.375 11.668V9.33464C25.375 8.20705 24.4609 7.29297 23.3333 7.29297Z" fill="#54657E"/>
<path d="M15.6489 9.04348C15.2756 9.08746 14.8974 9.03043 14.5536 8.87837C14.2099 8.72631 13.9133 8.48478 13.6947 8.17899C13.3564 7.57698 13.5582 6.87815 14.1614 4.80148C14.4134 3.95448 15.3409 1.45898 17.7104 1.45898C18.6596 1.46114 19.5693 1.83943 20.2402 2.51097C20.9111 3.18251 21.2885 4.09258 21.2897 5.04182C21.2897 7.27482 18.9296 8.20815 18.0394 8.55815C17.2779 8.86115 16.4683 9.02551 15.6489 9.04348ZM15.3059 7.27015C16.0148 7.3204 16.7257 7.20538 17.3826 6.93415C18.3929 6.53515 19.5374 5.96348 19.5374 5.03948C19.5362 4.55438 19.3429 4.08951 18.9999 3.74649C18.6569 3.40347 18.192 3.21022 17.7069 3.20898C16.5484 3.20898 15.9989 4.74782 15.8589 5.21915C15.6092 6.08248 15.3841 6.86648 15.3082 7.27248L15.3059 7.27015Z" fill="#56C6AD"/>
<path d="M12.3296 9.03895C11.5169 9.01032 10.7153 8.84139 9.9601 8.53962C9.16444 8.22462 6.7436 7.26678 6.71094 5.03962C6.71632 4.56782 6.81613 4.10188 7.00448 3.66927C7.19283 3.23667 7.46591 2.84616 7.8076 2.52078C8.12868 2.18171 8.51618 1.91244 8.94594 1.72978C9.3757 1.54712 9.83849 1.45498 10.3054 1.45912C12.1651 1.50812 13.0483 3.24062 13.7576 4.63245L12.9771 5.02912L13.7576 4.63362C14.2674 5.63462 15.0409 7.14545 14.2184 8.25029C13.9892 8.52274 13.6982 8.73646 13.3697 8.87365C13.0411 9.01084 12.6845 9.06751 12.3296 9.03895ZM10.2296 3.20562C9.77533 3.23356 9.34885 3.43386 9.03727 3.76562C8.86192 3.92446 8.72001 4.11667 8.61985 4.33102C8.51969 4.54537 8.46328 4.77754 8.45394 5.01395C8.46794 5.94728 9.60544 6.51662 10.5959 6.90862C11.2792 7.25823 12.0622 7.36126 12.8126 7.20028C12.9106 7.01945 12.7053 6.42095 12.1978 5.42578L12.9759 5.02678L12.1966 5.42462C11.5409 4.14128 11.0171 3.22545 10.2576 3.20795L10.2296 3.20562Z" fill="#56C6AD"/>
<path d="M12.5391 14.875H15.4557V26.5417H12.5391V14.875Z" fill="#56C6AD"/>
<path d="M10.7891 14.8745V26.5411H6.9974C6.57599 26.5415 6.15865 26.4587 5.76926 26.2976C5.37987 26.1364 5.02606 25.9001 4.72808 25.6021C4.4301 25.3041 4.19378 24.9503 4.03266 24.561C3.87153 24.1716 3.78876 23.7542 3.78906 23.3328V14.7578C4.07483 14.8325 4.36871 14.8717 4.66406 14.8745H10.7891Z" fill="#54657E"/>
<path d="M24.2109 14.7578V23.3328C24.2112 23.7542 24.1285 24.1716 23.9673 24.561C23.8062 24.9503 23.5699 25.3041 23.2719 25.6021C22.9739 25.9001 22.6201 26.1364 22.2307 26.2976C21.8414 26.4587 21.424 26.5415 21.0026 26.5411H17.2109V14.8745H23.3359C23.6313 14.8717 23.9252 14.8325 24.2109 14.7578Z" fill="#54657E"/>
</svg>
