<svg width="123" height="118" viewBox="0 0 123 118" fill="none" xmlns="http://www.w3.org/2000/svg">
<g clip-path="url(#clip0_1_13)">
<path d="M106.306 101.305C128.566 79.0451 128.566 42.9547 106.306 20.6949C84.046 -1.56503 47.9556 -1.56503 25.6957 20.6949C3.43583 42.9547 3.43583 79.0451 25.6957 101.305C47.9556 123.565 84.046 123.565 106.306 101.305Z" fill="#56C6AD"/>
<g style="mix-blend-mode:multiply">
<path d="M122.998 60.9999C122.997 73.1138 119.138 84.9125 111.98 94.686C104.823 104.46 94.7398 111.7 83.1916 115.359L55.9396 88.1066L56.2414 88.0172L36.9023 68.6782L61.118 71.9156L72.0486 57.3527L97.2925 34.1764L122.998 59.8823C122.998 60.2548 122.998 60.6274 122.998 60.9999Z" fill="#49A893"/>
</g>
<path d="M61.3298 90.5394C60.0421 90.5384 58.7781 90.1922 57.6695 89.537C56.5609 88.8818 55.6482 87.9415 55.0263 86.8139C48.693 75.3431 37.021 68.7415 36.9018 68.6745C35.2221 67.761 33.9741 66.2177 33.4322 64.384C32.8904 62.5504 33.0992 60.5766 34.0127 58.8969C34.9261 57.2172 36.4695 55.9692 38.3031 55.4274C40.1367 54.8855 42.1105 55.0943 43.7902 56.0078C49.6114 59.4027 54.8918 63.6496 59.4559 68.6074L59.5677 68.7303L59.6422 68.5776C64.5747 58.4368 73.3557 44.0341 87.1512 33.0141C88.6461 31.8539 90.5376 31.3287 92.4166 31.5521C94.2957 31.7755 96.0113 32.7295 97.1925 34.2079C98.3737 35.6862 98.9256 37.5701 98.7288 39.4521C98.532 41.3341 97.6023 43.0631 96.1408 44.265C76.3175 60.0984 68.2891 85.197 68.1996 85.4503C67.7827 86.8 66.9773 87.9969 65.884 88.8914C64.7907 89.7859 63.4581 90.3384 62.0526 90.4798C61.8129 90.5124 61.5716 90.5323 61.3298 90.5394V90.5394Z" fill="white"/>
</g>
<path d="M21.9992 43.2667C20.6047 43.2661 19.234 42.9052 18.0202 42.2188L6.28682 35.5806C5.04779 34.8787 4.01682 33.8611 3.29882 32.6313C2.58082 31.4016 2.20142 30.0035 2.19922 28.5795V15.4213C2.20119 13.9972 2.5805 12.5991 3.29852 11.3693C4.01655 10.1395 5.04764 9.1219 6.28682 8.42017L18.0202 1.7813C19.2341 1.09441 20.6051 0.733398 22 0.733398C23.3948 0.733398 24.7658 1.09441 25.9798 1.7813L37.7131 8.42017C38.952 9.12209 39.9828 10.1398 40.7005 11.3695C41.4183 12.5993 41.7974 13.9974 41.7992 15.4213V28.5795C41.7965 30.0033 41.4169 31.4011 40.6991 32.6307C39.9813 33.8604 38.9508 34.8782 37.7123 35.5806L25.979 42.2188C24.7649 42.9053 23.394 43.2663 21.9992 43.2667V43.2667Z" fill="#F1E9D8"/>
<path d="M38.1339 15.4212V28.5787C38.1339 29.3546 37.9277 30.1165 37.5365 30.7866C37.1453 31.4566 36.5831 32.0107 35.9075 32.392L24.1741 39.0309C23.511 39.4058 22.7623 39.6029 22.0005 39.6029C21.2388 39.6029 20.49 39.4058 19.8269 39.0309L8.09359 32.392C7.41791 32.0107 6.85571 31.4566 6.46451 30.7866C6.07331 30.1165 5.86717 29.3546 5.86719 28.5787V15.4212C5.86759 14.6459 6.07394 13.8847 6.46513 13.2153C6.85632 12.5459 7.4183 11.9925 8.09359 11.6116L19.8269 4.97198C20.49 4.59706 21.2388 4.40002 22.0005 4.40002C22.7623 4.40002 23.511 4.59706 24.1741 4.97198L35.9075 11.6116C36.5827 11.9925 37.1447 12.5459 37.5359 13.2153C37.9271 13.8847 38.1335 14.6459 38.1339 15.4212V15.4212Z" fill="#EEBC55"/>
<path d="M30 14.6022L26.9946 30.2923C26.9946 30.2923 26.5741 31.3801 25.4189 30.8584L18.4846 25.3526L18.4524 25.3364C19.3891 24.4654 26.6524 17.7027 26.9698 17.3961C27.4613 16.9214 27.1562 16.6387 26.5856 16.9974L15.8568 24.053L11.7176 22.6108C11.7176 22.6108 11.0663 22.3708 11.0036 21.8491C10.9401 21.3265 11.7391 21.0439 11.7391 21.0439L28.6131 14.1889C28.6131 14.1889 30 13.5579 30 14.6022V14.6022Z" fill="#FEFEFE"/>
<defs>
<clipPath id="clip0_1_13">
<rect width="114" height="114" fill="white" transform="translate(9 4)"/>
</clipPath>
</defs>
</svg>
