<svg width="28" height="28" viewBox="0 0 28 28" fill="none" xmlns="http://www.w3.org/2000/svg">
<g clip-path="url(#clip0_2582_7725)">
<path d="M15.9088 27.9924C22.2343 27.2016 27.2034 22.2325 27.9934 15.9086C28.0553 15.42 27.6736 14.9865 27.1794 14.9865H23.8632C23.4626 14.9865 23.1213 15.2757 23.0539 15.6699C22.4162 19.4468 19.4493 22.4145 15.67 23.053C15.2758 23.1203 14.9866 23.4616 14.9866 23.8622V27.1784C14.9866 27.6663 15.4097 28.0518 15.9088 27.9924Z" fill="#54657E"/>
<path d="M23.8632 13.127H27.1794C27.6739 13.127 28.0553 12.6931 27.9934 12.2048C27.1249 5.24707 21.1799 0 14.1662 0C11.0503 0 8.0962 1.01592 5.62291 2.93804C5.22954 3.24493 5.20006 3.82039 5.54601 4.16628L7.89032 6.51142C8.17397 6.79583 8.61942 6.83111 8.94633 6.59953C10.4855 5.50266 12.2906 4.92262 14.1662 4.92262C18.5801 4.92262 22.3185 8.08578 23.054 12.4436C23.1213 12.8377 23.4626 13.127 23.8632 13.127Z" fill="#54657E"/>
<path d="M13.125 27.1787V23.8625C13.125 23.4619 12.8358 23.1206 12.4416 23.0533C8.0838 22.3178 4.92064 18.5793 4.92064 14.1655C4.92064 12.2898 5.50069 10.4847 6.59756 8.94559C6.8299 8.61949 6.79304 8.17241 6.50944 7.88958L4.16431 5.54526C3.82284 5.2038 3.24558 5.22546 2.93606 5.62216C1.01394 8.09551 -0.00197411 11.0496 -0.00197411 14.1654C-0.00197411 21.1792 5.24515 27.1241 12.2028 27.9927C12.7074 28.0528 13.125 27.6609 13.125 27.1787Z" fill="#54657E"/>
<path d="M17.2808 10.7198C17.2808 10.2668 17.6481 9.89941 18.1012 9.89941H19.7421C20.1952 9.89941 20.5625 10.2668 20.5625 10.7198V17.2833C20.5625 17.7364 20.1952 18.1038 19.7421 18.1038H18.1012C17.6481 18.1038 17.2808 17.7364 17.2808 17.2833V10.7198Z" fill="#56C6AD"/>
<path d="M12.3589 17.2836V9.07923C12.3589 8.62613 12.7262 8.25879 13.1793 8.25879H14.8202C15.2733 8.25879 15.6406 8.62613 15.6406 9.07923V17.2836C15.6406 17.7367 15.2733 18.104 14.8202 18.104H13.1793C12.7262 18.104 12.3589 17.7367 12.3589 17.2836Z" fill="#56C6AD"/>
<path d="M7.43701 17.2838V14.0021C7.43701 13.549 7.80434 13.1816 8.25744 13.1816H9.89831C10.3514 13.1816 10.7188 13.549 10.7188 14.0021V17.2838C10.7188 17.7369 10.3514 18.1043 9.89831 18.1043H8.25744C7.80429 18.1043 7.43701 17.7369 7.43701 17.2838Z" fill="#56C6AD"/>
</g>
<defs>
<clipPath id="clip0_2582_7725">
<rect width="28" height="28" fill="white" transform="matrix(-1 0 0 1 28 0)"/>
</clipPath>
</defs>
</svg>
