<svg width="18" height="18" viewBox="0 0 18 18" fill="none" xmlns="http://www.w3.org/2000/svg">
<path fill-rule="evenodd" clip-rule="evenodd" d="M9 18C13.9706 18 18 13.9706 18 9C18 4.02944 13.9706 0 9 0C4.02944 0 0 4.02944 0 9C0 13.9706 4.02944 18 9 18ZM6.59331 6.60407C6.28466 6.33492 6.20312 6.04152 6.20312 5.80407C6.20487 5.64216 6.23936 5.48228 6.30452 5.33405C6.36968 5.18582 6.46417 5.05232 6.58229 4.94157C6.84496 4.67733 7.20139 4.52757 7.57396 4.5249C8.26077 4.5249 8.61466 5.15465 8.87569 5.61917L8.89062 5.64574C8.93639 5.74837 8.97991 5.85197 9.02116 5.95643C9.04834 5.87206 9.07438 5.78793 9.0991 5.70423C9.19077 5.4209 9.5491 4.5334 10.4491 4.5334C10.7999 4.52216 11.1408 4.65053 11.397 4.89034C11.6532 5.13016 11.8038 5.46182 11.8158 5.81256C11.8158 6.15639 11.649 6.41339 11.4316 6.60407H11.7109C12.0148 6.60407 12.3063 6.72479 12.5212 6.93968C12.736 7.15456 12.8568 7.44601 12.8568 7.7499V8.27074H5.14844V7.7499C5.14844 7.44601 5.26916 7.15456 5.48404 6.93968C5.69893 6.72479 5.99038 6.60407 6.29427 6.60407H6.59331ZM9.69494 5.8709C9.7491 5.70006 9.96577 5.1459 10.4449 5.1459C10.6269 5.14006 10.8041 5.20493 10.9392 5.32689C11.0744 5.44886 11.1571 5.61845 11.1699 5.80006C11.1699 6.16256 10.5741 6.38756 10.3366 6.4709C10.0491 6.55195 9.75199 6.594 9.45327 6.5959C9.54077 6.35423 9.61994 6.11256 9.69494 5.8709ZM7.52813 5.14574C7.33026 5.15426 7.14347 5.23943 7.00729 5.38324C6.9479 5.43561 6.89988 5.49961 6.86619 5.57127C6.83251 5.64294 6.81388 5.72075 6.81146 5.7999C6.81146 6.05407 7.11979 6.2999 7.64479 6.47074C7.95113 6.54992 8.2659 6.59189 8.58229 6.59574C8.5149 6.37384 8.43277 6.15669 8.33646 5.94574L8.58229 5.79574L8.31146 5.94574C8.06979 5.48324 7.86146 5.15407 7.54063 5.14574H7.52813ZM9.3125 8.89551V13.4788H11.7083C12.0122 13.4788 12.3037 13.3581 12.5186 13.1432C12.7334 12.9283 12.8542 12.6369 12.8542 12.333V8.89551H9.3125ZM5.14844 8.89574H8.6901V13.4791H6.29427C5.99038 13.4791 5.69893 13.3583 5.48404 13.1435C5.26916 12.9286 5.14844 12.6371 5.14844 12.3332V8.89574Z" fill="#099A7A"/>
</svg>
