<svg width="56" height="76" viewBox="0 0 56 76" fill="none" xmlns="http://www.w3.org/2000/svg">
<path d="M28.2502 37.243C28.2502 37.243 28.1626 37.2148 27.9978 37.1569C25.5812 36.2959 6.61094 28.7167 7.92016 3.34281L27.882 2.22656L27.9978 2.22953L48.0235 2.82773C48.0235 2.82773 51.0531 28.6692 28.2502 37.243Z" fill="#F3F5FA"/>
<path d="M48.0235 73.1413L27.9978 73.7395L27.882 73.7425L7.92016 72.6277C6.61094 47.2523 25.5812 39.6731 27.9978 38.8122C28.1626 38.7543 28.2502 38.7261 28.2502 38.7261C51.0531 47.2998 48.0235 73.1413 48.0235 73.1413Z" fill="#F3F5FA"/>
<path d="M48.0257 73.1413L28 73.7395V38.8122C28.1648 38.7543 28.2523 38.7261 28.2523 38.7261C51.0553 47.2998 48.0257 73.1413 48.0257 73.1413Z" fill="#E7E9F0"/>
<path d="M28.2523 37.2424C28.2523 37.2424 28.1648 37.2142 28 37.1563V2.229L48.0257 2.82721C48.0257 2.82721 51.0553 28.6687 28.2523 37.2424Z" fill="#E7E9F0"/>
<path d="M45.57 20.6489C38.3693 33.7426 28.2488 37.2428 28.2488 37.2428C28.1642 37.219 28.0796 37.1938 27.9965 37.1685C16.0161 33.5971 10.1914 20.6489 10.1914 20.6489H45.57Z" fill="#56C6AD"/>
<path d="M47.6928 68.9589V74.5164H8.54688V68.4498L15.3854 61.1615C18.6599 57.6703 23.0997 55.751 27.8809 55.751C27.9195 55.751 27.958 55.751 27.9966 55.7525C32.7377 55.7821 37.133 57.7029 40.3763 61.1615L47.6928 68.9589Z" fill="#56C6AD"/>
<path d="M28.2523 37.2428C28.1677 37.219 28.0831 37.1938 28 37.1685V20.6489H45.5735C38.3728 33.7426 28.2523 37.2428 28.2523 37.2428Z" fill="#53AD99"/>
<path d="M47.6962 68.9575V74.515H28V55.751C32.7411 55.7807 37.1363 57.7014 40.3797 61.16L47.6962 68.9575Z" fill="#53AD99"/>
<path d="M5.76562 65.1762V73.773H10.2187V65.1762C10.2187 58.5733 13.3123 52.3636 19.4137 46.7195C22.8564 43.5348 26.3502 41.4264 27.993 40.5166C29.6357 41.4264 33.1295 43.5348 36.5722 46.7195C42.6736 52.3634 45.7672 58.5731 45.7672 65.1762V73.773H50.2203V65.1762C50.2203 57.3552 46.5135 49.8121 39.5006 43.3625C36.9566 41.0228 34.4244 39.2313 32.4778 37.9996C34.4244 36.7678 36.9566 34.9763 39.5006 32.6367C46.5135 26.1871 50.2203 18.6439 50.2203 10.8229V2.82715H45.7672V10.8229C45.7672 17.4258 42.6736 23.6356 36.5722 29.2796C33.1289 32.4648 29.6345 34.5735 27.993 35.4825C26.3502 34.5727 22.8564 32.4643 19.4137 29.2796C13.3123 23.6357 10.2187 17.426 10.2187 10.8229V2.82715H5.76562V10.8229C5.76562 18.6439 9.47241 26.1871 16.4853 32.6367C19.0293 34.9763 21.5615 36.7678 23.5081 37.9996C21.5615 39.2313 19.0293 41.0228 16.4853 43.3625C9.47241 49.8121 5.76562 57.3552 5.76562 65.1762Z" fill="#E3E7ED"/>
<path d="M55.6084 2.22656C55.6084 3.45563 54.6124 4.45312 53.3819 4.45312H2.61328C1.38273 4.45312 0.386719 3.45563 0.386719 2.22656C0.386719 0.9975 1.38273 0 2.61328 0H53.3819C54.6124 0 55.6084 0.9975 55.6084 2.22656Z" fill="#54657E"/>
<path d="M55.6084 73.7734C55.6084 75.0025 54.6124 76 53.3819 76H2.61328C1.38273 76 0.386719 75.0025 0.386719 73.7734C0.386719 72.5444 1.38273 71.5469 2.61328 71.5469H53.3819C54.6124 71.5469 55.6084 72.5444 55.6084 73.7734Z" fill="#54657E"/>
<path d="M55.6109 73.7734C55.6109 75.0025 54.6148 76 53.3843 76H28V71.5469H53.3843C54.6148 71.5469 55.6109 72.5444 55.6109 73.7734Z" fill="#4D5C72"/>
<path d="M28 4.45312V0H53.3843C54.6148 0 55.6109 0.9975 55.6109 2.22656C55.6109 3.45563 54.6148 4.45312 53.3843 4.45312H28Z" fill="#4D5C72"/>
</svg>
