<svg width="18" height="18" viewBox="0 0 18 18" fill="none" xmlns="http://www.w3.org/2000/svg">
<path d="M9.71538 1.19684C9.52521 1.00702 9.26733 0.900391 8.99844 0.900391C8.72955 0.900391 8.47166 1.00702 8.2815 1.19684L1.1831 8.28444C0.998377 8.4754 0.896165 8.73116 0.898476 8.99664C0.900786 9.26212 1.00743 9.51607 1.19545 9.7038C1.38346 9.89152 1.6378 9.99801 1.90368 10.0003C2.16957 10.0026 2.42572 9.90057 2.61697 9.71613L2.91409 9.41946V16.0879C2.91409 16.3564 3.02093 16.6139 3.2111 16.8038C3.40128 16.9937 3.6592 17.1004 3.92815 17.1004H5.95626C6.22521 17.1004 6.48314 16.9937 6.67331 16.8038C6.86348 16.6139 6.97032 16.3564 6.97032 16.0879V14.0629C6.97032 13.7943 7.07716 13.5368 7.26733 13.3469C7.45751 13.157 7.71544 13.0503 7.98438 13.0503H10.0125C10.2814 13.0503 10.5394 13.157 10.7295 13.3469C10.9197 13.5368 11.0266 13.7943 11.0266 14.0629V16.0879C11.0266 16.3564 11.1334 16.6139 11.3236 16.8038C11.5137 16.9937 11.7717 17.1004 12.0406 17.1004H14.0687C14.3377 17.1004 14.5956 16.9937 14.7858 16.8038C14.9759 16.6139 15.0828 16.3564 15.0828 16.0879V9.41946L15.3799 9.71613C15.5712 9.90057 15.8273 10.0026 16.0932 10.0003C16.3591 9.99801 16.6134 9.89152 16.8014 9.7038C16.9894 9.51607 17.0961 9.26212 17.0984 8.99664C17.1007 8.73116 16.9985 8.4754 16.8138 8.28444L9.71538 1.19684V1.19684Z" fill="white"/>
</svg>
