<svg width="18" height="18" viewBox="0 0 18 18" fill="none" xmlns="http://www.w3.org/2000/svg">
<g clip-path="url(#clip0_1398_5618)">
<path d="M14.7687 3.45667C14.5884 2.72299 14.05 2.15009 13.3287 1.92491C12.6038 1.69822 11.8376 1.8636 11.273 2.3644L10.375 3.15809L14.6784 4.72433C14.8302 4.32531 14.8746 3.88779 14.7687 3.45667Z" fill="#868F9D"/>
<path d="M9.81386 1.83254C9.70157 1.08547 9.21824 0.458635 8.52116 0.167506C7.82409 -0.124115 7.04351 -0.0308803 6.43246 0.415323C6.07443 0.677167 5.82746 1.04789 5.6875 1.4512L9.9914 3.01773L9.81386 1.83254Z" fill="#868F9D"/>
<path d="M7.57812 8.87598V18.0002H8.6333V9.26002L7.57812 8.87598Z" fill="#868F9D"/>
<path d="M1.76978 8.53906C1.47816 8.53906 1.24219 8.77503 1.24219 9.06665V16.4177C1.24219 17.2904 1.95217 18.0005 2.82496 18.0005H6.51805V8.53906H1.76978Z" fill="#868F9D"/>
<path d="M9.6875 9.64355V17.9997H13.3806C14.2533 17.9997 14.9634 17.2897 14.9634 16.4169V11.5638L9.6875 9.64355Z" fill="#868F9D"/>
<path d="M9.37304 3.91697L7.92969 7.88281L8.92157 8.2438L10.3649 4.27796L9.37304 3.91697Z" fill="#868F9D"/>
<path d="M15.8194 6.26257L11.3576 4.63867L9.91406 8.60454L15.3675 10.5894C15.4268 10.6111 15.4881 10.6214 15.5479 10.6214C15.7632 10.6214 15.9657 10.4884 16.0435 10.2741L16.7653 8.29098C17.0655 7.46727 16.6397 6.56154 15.8194 6.26257Z" fill="#868F9D"/>
<path d="M3.92301 1.93248C3.10432 1.63306 2.19501 2.05272 1.89403 2.87843L1.17273 4.86153C1.07278 5.13511 1.21397 5.43809 1.48805 5.53751L6.94135 7.52233L8.38493 3.55646L3.92301 1.93248Z" fill="#868F9D"/>
</g>
<defs>
<clipPath id="clip0_1398_5618">
<rect width="18" height="18" fill="white"/>
</clipPath>
</defs>
</svg>
