<svg width="18" height="18" viewBox="0 0 18 18" fill="none" xmlns="http://www.w3.org/2000/svg">
<path d="M1.20312 6.3083V11.6912C1.20392 12.2206 1.34498 12.7404 1.61194 13.1976C1.87891 13.6548 2.26224 14.0331 2.72293 14.294L7.52293 17.0099C7.97593 17.2606 8.48521 17.3922 9.00298 17.3922C9.52074 17.3922 10.03 17.2606 10.483 17.0099L15.283 14.294C15.7437 14.0331 16.1271 13.6548 16.3941 13.1976C16.6611 12.7404 16.8022 12.2206 16.8031 11.6912V6.3083C16.8024 5.77886 16.6613 5.25908 16.3943 4.80187C16.1274 4.34467 15.744 3.96637 15.2833 3.7055L10.4833 0.989297C10.0317 0.733855 9.52168 0.599609 9.00283 0.599609C8.48397 0.599609 7.97394 0.733855 7.52233 0.989297L2.72233 3.7052C2.26173 3.96622 1.8785 4.34461 1.61165 4.80186C1.3448 5.2591 1.20384 5.77888 1.20312 6.3083V6.3083ZM3.16603 4.4885L7.96603 1.7726C8.28263 1.59456 8.63974 1.50104 9.00298 1.50104C9.36621 1.50104 9.72332 1.59456 10.0399 1.7726L14.8399 4.4885C15.1622 4.6708 15.4303 4.93526 15.6171 5.25493C15.8039 5.5746 15.9025 5.93807 15.9031 6.3083V11.6912C15.9025 12.0614 15.8038 12.4248 15.617 12.7444C15.4302 13.064 15.1621 13.3284 14.8399 13.5107L10.0399 16.2266C9.72331 16.4046 9.3662 16.4981 9.00298 16.4981C8.63975 16.4981 8.28264 16.4046 7.96603 16.2266L3.16603 13.5107C2.84395 13.3283 2.57593 13.0639 2.38923 12.7443C2.20253 12.4247 2.10382 12.0613 2.10313 11.6912V6.3083C2.10376 5.93811 2.20246 5.57471 2.38916 5.25506C2.57586 4.9354 2.84391 4.67091 3.16603 4.4885V4.4885Z" fill="#868F9D"/>
<path d="M3.46183 12.9899L8.26183 15.7058C8.48831 15.8328 8.74361 15.8995 9.00328 15.8995C9.26294 15.8995 9.51824 15.8328 9.74473 15.7058L14.5447 12.9899C14.7746 12.8598 14.9659 12.6711 15.0991 12.443C15.2323 12.215 15.3027 11.9556 15.3031 11.6915V6.30861C15.3028 6.04442 15.2324 5.78504 15.0992 5.5569C14.966 5.32876 14.7747 5.14002 14.5447 5.00991L9.74473 2.29371C9.51833 2.16645 9.26299 2.09961 9.00328 2.09961C8.74356 2.09961 8.48822 2.16645 8.26183 2.29371L3.46183 5.00991C3.23182 5.13995 3.04041 5.32867 2.90712 5.55682C2.77384 5.78497 2.70345 6.04438 2.70312 6.30861V11.6915C2.70353 11.9557 2.77396 12.215 2.90724 12.4431C3.04052 12.6712 3.23188 12.8599 3.46183 12.9899V12.9899ZM11.4031 6.29991H13.8031C13.8827 6.29991 13.959 6.33152 14.0153 6.38778C14.0715 6.44404 14.1031 6.52034 14.1031 6.59991C14.1031 6.67947 14.0715 6.75578 14.0153 6.81204C13.959 6.8683 13.8827 6.89991 13.8031 6.89991H12.9031V11.3999C12.9031 11.4795 12.8715 11.5558 12.8153 11.612C12.759 11.6683 12.6827 11.6999 12.6031 11.6999C12.5236 11.6999 12.4473 11.6683 12.391 11.612C12.3347 11.5558 12.3031 11.4795 12.3031 11.3999V6.89991H11.4031C11.3236 6.89991 11.2473 6.8683 11.191 6.81204C11.1347 6.75578 11.1031 6.67947 11.1031 6.59991C11.1031 6.52034 11.1347 6.44404 11.191 6.38778C11.2473 6.33152 11.3236 6.29991 11.4031 6.29991ZM7.80313 6.59991C7.80313 6.52034 7.83473 6.44404 7.89099 6.38778C7.94725 6.33152 8.02356 6.29991 8.10313 6.29991H10.5031C10.5827 6.29991 10.659 6.33152 10.7153 6.38778C10.7715 6.44404 10.8031 6.52034 10.8031 6.59991C10.8031 6.67947 10.7715 6.75578 10.7153 6.81204C10.659 6.8683 10.5827 6.89991 10.5031 6.89991H8.40313V8.69991H9.60313C9.68269 8.69991 9.759 8.73152 9.81526 8.78778C9.87152 8.84404 9.90313 8.92034 9.90313 8.99991C9.90313 9.07947 9.87152 9.15578 9.81526 9.21204C9.759 9.2683 9.68269 9.29991 9.60313 9.29991H8.40313V11.3999C8.40313 11.4795 8.37152 11.5558 8.31526 11.612C8.259 11.6683 8.18269 11.6999 8.10313 11.6999C8.02356 11.6999 7.94725 11.6683 7.89099 11.612C7.83473 11.5558 7.80313 11.4795 7.80313 11.3999V6.59991ZM3.90313 6.59991C3.90306 6.53227 3.92586 6.4666 3.96781 6.41354C4.00977 6.36049 4.06842 6.32317 4.13425 6.30764C4.20008 6.29211 4.26923 6.29929 4.33047 6.328C4.39171 6.35671 4.44145 6.40527 4.47163 6.46581L6.30313 10.1291V6.59991C6.30313 6.52034 6.33473 6.44404 6.39099 6.38778C6.44725 6.33152 6.52356 6.29991 6.60313 6.29991C6.68269 6.29991 6.759 6.33152 6.81526 6.38778C6.87152 6.44404 6.90313 6.52034 6.90313 6.59991V11.3999C6.90318 11.4675 6.8804 11.5332 6.83847 11.5862C6.79654 11.6392 6.73792 11.6766 6.67213 11.6921C6.64948 11.6972 6.62634 11.6998 6.60313 11.6999C6.54738 11.6999 6.49272 11.6844 6.4453 11.6551C6.39787 11.6258 6.35955 11.5839 6.33463 11.534L4.50313 7.87071V11.3999C4.50313 11.4795 4.47152 11.5558 4.41526 11.612C4.359 11.6683 4.28269 11.6999 4.20313 11.6999C4.12356 11.6999 4.04725 11.6683 3.99099 11.612C3.93473 11.5558 3.90313 11.4795 3.90313 11.3999V6.59991Z" fill="#868F9D"/>
</svg>
