<svg width="18" height="18" viewBox="0 0 18 18" fill="none" xmlns="http://www.w3.org/2000/svg">
<path fill-rule="evenodd" clip-rule="evenodd" d="M10.5071 2.08503C10.1223 0.505509 7.87453 0.505509 7.48977 2.08503C7.43232 2.32238 7.31965 2.54282 7.16092 2.7284C7.00219 2.91398 6.80188 3.05946 6.5763 3.15301C6.35073 3.24655 6.10625 3.28552 5.86277 3.26673C5.61928 3.24795 5.38368 3.17194 5.17512 3.0449C3.78592 2.19844 2.19625 3.78809 3.04273 5.17726C3.58949 6.07435 3.10449 7.24481 2.08386 7.49288C0.503297 7.87662 0.503297 10.1254 2.08386 10.5082C2.32128 10.5657 2.54175 10.6784 2.72733 10.8373C2.91292 10.9961 3.05836 11.1966 3.15182 11.4223C3.24527 11.648 3.28411 11.8925 3.26515 12.1361C3.24619 12.3796 3.16998 12.6153 3.04273 12.8238C2.19625 14.2129 3.78592 15.8026 5.17512 14.9561C5.38364 14.8289 5.61927 14.7527 5.86281 14.7337C6.10636 14.7148 6.35094 14.7536 6.57664 14.847C6.80234 14.9405 7.00278 15.0859 7.16163 15.2715C7.32048 15.4571 7.43326 15.6776 7.49078 15.915C7.87453 17.4955 10.1234 17.4955 10.5061 15.915C10.5638 15.6777 10.6767 15.4574 10.8356 15.2719C10.9945 15.0865 11.1949 14.9411 11.4205 14.8477C11.6461 14.7543 11.8906 14.7154 12.1341 14.7342C12.3776 14.7531 12.6132 14.8291 12.8218 14.9561C14.211 15.8026 15.8006 14.2129 14.9541 12.8238C14.8271 12.6152 14.7511 12.3796 14.7322 12.1361C14.7134 11.8927 14.7523 11.6482 14.8457 11.4225C14.9391 11.1969 15.0845 10.9965 15.2699 10.8376C15.4554 10.6787 15.6757 10.5659 15.913 10.5082C17.4936 10.1244 17.4936 7.87561 15.913 7.49288C15.6756 7.43537 15.4551 7.32259 15.2695 7.16374C15.084 7.00489 14.9385 6.80446 14.8451 6.57876C14.7516 6.35307 14.7128 6.10849 14.7317 5.86494C14.7507 5.6214 14.8269 5.38578 14.9541 5.17726C15.8006 3.78809 14.211 2.19844 12.8218 3.0449C12.6132 3.17215 12.3776 3.24836 12.1341 3.26732C11.8905 3.28627 11.6459 3.24744 11.4202 3.15399C11.1945 3.06053 10.9941 2.91509 10.8352 2.72951C10.6764 2.54393 10.5636 2.32346 10.5061 2.08605L10.5071 2.08503ZM8.99844 12.0381C9.80406 12.0381 10.5767 11.718 11.1463 11.1484C11.716 10.5787 12.036 9.80613 12.036 9.00052C12.036 8.19491 11.716 7.4223 11.1463 6.85265C10.5767 6.283 9.80406 5.96297 8.99844 5.96297C8.19282 5.96297 7.42019 6.283 6.85053 6.85265C6.28087 7.4223 5.96084 8.19491 5.96084 9.00052C5.96084 9.80613 6.28087 10.5787 6.85053 11.1484C7.42019 11.718 8.19282 12.0381 8.99844 12.0381V12.0381Z" fill="white"/>
</svg>
