<svg width="18" height="16" viewBox="0 0 18 16" fill="none" xmlns="http://www.w3.org/2000/svg">
<path d="M14.9469 -8.27209e-08L3.35266 -1.85547e-08L3.92729e-08 7.09623L9.00483 16L18 7.08667L14.9469 -8.27209e-08ZM9.28502 8.60729C9.05371 8.6058 8.82341 8.5769 8.59904 8.52122C8.59904 9.315 8.59904 10.2331 8.65701 10.6348C8.71498 11.0365 8.77295 11.2277 9.16908 11.2851C9.39412 11.3041 9.62038 11.3041 9.84541 11.2851C10 11.2851 10.058 11.3616 10.058 11.419C10.058 11.4764 9.95169 11.5529 9.81642 11.5529C8.92754 11.5529 7.99034 11.5529 7.64251 11.5529C7.29469 11.5529 6.49275 11.5529 5.97101 11.5529C5.7971 11.5529 5.71014 11.5529 5.71014 11.419C5.71014 11.2851 5.75845 11.2851 5.92271 11.2851C6.07642 11.3082 6.23276 11.3082 6.38647 11.2851C6.66667 11.2277 6.7343 10.9886 6.78261 10.6157C6.83092 10.2427 6.84058 8.98984 6.84058 7.98565C6.47914 7.89306 6.11083 7.8291 5.73913 7.79438C4.87417 7.76106 4.02525 8.03213 3.343 8.55947C3.58084 8.03967 3.96988 7.60187 4.46038 7.30204C4.95088 7.00221 5.52057 6.85397 6.09662 6.87627C7.0628 6.87627 7.71981 7.33532 9.45894 7.69874C9.89118 7.76147 10.3318 7.73614 10.7538 7.62432C11.1758 7.51249 11.5703 7.31652 11.913 7.04841C11.6297 7.49693 11.2447 7.87393 10.7885 8.1495C10.3323 8.42507 9.81756 8.59163 9.28502 8.63598L9.28502 8.60729ZM9.72947 7.3162C9.59759 7.32551 9.46521 7.32551 9.33333 7.3162C9.29384 7.31894 9.25479 7.30659 9.22423 7.28168C9.19367 7.25677 9.17393 7.2212 9.16908 7.18231C9.16908 7.07711 9.32367 7.01972 9.60387 7.01972C10.1111 6.96437 10.578 6.7201 10.91 6.33647C11.2419 5.95284 11.414 5.45858 11.3913 4.95398C11.4141 4.59747 11.3557 4.24044 11.2202 3.90934C11.0847 3.57824 10.8757 3.28155 10.6087 3.04124C10.2382 2.72599 9.7639 2.5559 9.27536 2.56306C9.08369 2.55908 8.89225 2.57835 8.70532 2.62044C8.62802 2.62044 8.59904 2.72564 8.59904 2.85953L8.59904 7.19187C7.90338 7.02929 7.343 6.85714 6.84058 6.70412L6.84058 5.69994C6.84058 3.78721 6.84058 3.40466 6.84058 3.00299C6.84058 2.60131 6.68599 2.43873 6.26087 2.3144C6.08741 2.29675 5.91259 2.29675 5.73913 2.3144C5.60387 2.3144 5.50725 2.3144 5.50725 2.18051C5.50725 2.04662 5.61353 2.05618 5.80676 2.05618C6.50242 2.05618 7.35266 2.05618 7.73913 2.05618L9.94203 2.05618C10.8329 1.96222 11.7252 2.21998 12.4251 2.77346C12.8345 3.18108 13.0698 3.729 13.0821 4.30365C13.0791 4.72812 12.9885 5.1475 12.8159 5.5361C12.6433 5.92469 12.3924 6.27431 12.0785 6.56353C11.7646 6.85274 11.3944 7.07547 10.9904 7.21805C10.5865 7.36063 10.1574 7.42006 9.72947 7.39271L9.72947 7.3162Z" fill="#56C6AD"/>
</svg>
