<svg width="12" height="11" viewBox="0 0 12 11" fill="none" xmlns="http://www.w3.org/2000/svg">
<path d="M12 6.5583V10.6951H9.57848V6.81054C9.57848 5.85202 9.22534 5.19619 8.36771 5.19619C7.71188 5.19619 7.3083 5.65023 7.15695 6.05381C7.1065 6.20516 7.05606 6.40695 7.05606 6.65919V10.6951H4.63453C4.63453 10.6951 4.68498 4.13677 4.63453 3.48094H7.05606V4.48991C7.35875 3.98543 7.96412 3.27915 9.22534 3.27915C10.7892 3.27915 12 4.33857 12 6.5583ZM2.11211 0C1.30493 0 0.75 0.554933 0.75 1.26121C0.75 1.96749 1.25448 2.52242 2.06166 2.52242C2.91928 2.52242 3.42377 1.96749 3.42377 1.26121C3.47422 0.504484 2.96973 0 2.11211 0ZM0.901345 10.6951H3.32287V3.48094H0.901345V10.6951Z" fill="white"/>
</svg>
