<svg width="15" height="17" viewBox="0 0 15 17" fill="none" xmlns="http://www.w3.org/2000/svg">
<path d="M14.4822 4.69018C13.4372 4.69016 12.435 4.27502 11.6961 3.53609C10.9572 2.79716 10.5421 1.79498 10.5421 0.75H7.72713V11.773C7.72661 12.2756 7.56792 12.7653 7.27356 13.1726C6.97921 13.5799 6.56411 13.8843 6.08711 14.0426C5.61011 14.2008 5.0954 14.2049 4.61593 14.0543C4.13647 13.9037 3.71657 13.606 3.41575 13.2034C3.11493 12.8008 2.94845 12.3137 2.93991 11.8112C2.93136 11.3087 3.08119 10.8163 3.36815 10.4037C3.65511 9.99113 4.06464 9.67933 4.53871 9.5125C5.01278 9.34567 5.52733 9.33227 6.00944 9.47422V6.73778C4.98488 6.59963 3.94255 6.77733 3.02165 7.24716C2.10074 7.71699 1.34509 8.45659 0.855584 9.36719C0.366083 10.2778 0.166035 11.3161 0.282152 12.3434C0.398269 13.3706 0.825025 14.3381 1.50543 15.1164C2.18584 15.8948 3.08752 16.447 4.09007 16.6995C5.09261 16.9519 6.1483 16.8924 7.11617 16.5291C8.08405 16.1657 8.91803 15.5157 9.50676 14.6659C10.0955 13.8161 10.411 12.8069 10.411 11.773L10.4931 6.20125C11.6498 7.05031 13.0476 7.50716 14.4824 7.50502L14.4822 4.69018Z" fill="white"/>
</svg>
