<svg width="22" height="22" viewBox="0 0 22 22" fill="none" xmlns="http://www.w3.org/2000/svg">
<path fill-rule="evenodd" clip-rule="evenodd" d="M0.304688 11C0.304688 5.09361 5.09275 0.305542 10.9991 0.305542C16.9055 0.305542 21.6936 5.09361 21.6936 11C21.6936 16.9064 16.9055 21.6944 10.9991 21.6944C5.09275 21.6944 0.304688 16.9064 0.304688 11ZM12.2214 6.1111C12.2214 6.78611 11.6741 7.33332 10.9991 7.33332C10.3241 7.33332 9.77691 6.78611 9.77691 6.1111C9.77691 5.43608 10.3241 4.88888 10.9991 4.88888C11.6741 4.88888 12.2214 5.43608 12.2214 6.1111ZM10.9991 9.47221C11.5054 9.47221 11.9158 9.88261 11.9158 10.3889V16.5C11.9158 17.0062 11.5054 17.4167 10.9991 17.4167C10.4929 17.4167 10.0825 17.0062 10.0825 16.5V10.3889C10.0825 9.88261 10.4929 9.47221 10.9991 9.47221Z" fill="#F9B856"/>
</svg>
