<svg width="11" height="7" viewBox="0 0 11 7" fill="none" xmlns="http://www.w3.org/2000/svg">
<path fill-rule="evenodd" clip-rule="evenodd" d="M10.7072 5.70741C10.5197 5.89488 10.2654 6.00019 10.0002 6.00019C9.73505 6.00019 9.48074 5.89488 9.29321 5.70741L6.00021 2.41441L2.70721 5.70741C2.61497 5.80292 2.50462 5.8791 2.38262 5.93151C2.26061 5.98392 2.12939 6.0115 1.99661 6.01266C1.86384 6.01381 1.73216 5.98851 1.60926 5.93823C1.48636 5.88795 1.37471 5.8137 1.28082 5.7198C1.18693 5.62591 1.11267 5.51426 1.06239 5.39136C1.01211 5.26847 0.986809 5.13679 0.987963 5.00401C0.989116 4.87123 1.0167 4.74001 1.06911 4.618C1.12152 4.496 1.1977 4.38566 1.29321 4.29341L5.29321 0.293408C5.48074 0.105937 5.73505 0.000621302 6.00021 0.000621279C6.26538 0.000621256 6.51969 0.105937 6.70721 0.293408L10.7072 4.29341C10.8947 4.48094 11 4.73524 11 5.00041C11 5.26557 10.8947 5.51988 10.7072 5.70741V5.70741Z" fill="#868F9D"/>
</svg>
