<svg width="16" height="16" viewBox="0 0 16 16" fill="none" xmlns="http://www.w3.org/2000/svg">
<g clip-path="url(#clip0_1843_5855)">
<path d="M2 1.99866C2 0.894088 2.89543 -0.00134277 4 -0.00134277H12C13.1046 -0.00134277 14 0.894088 14 1.99866V14.0001C14 15.1047 13.1046 16.0001 12 16.0001H4C2.89543 16.0001 2 15.1047 2 14.0001V1.99866ZM4.53347 6.83213C4.53347 7.9367 5.4289 8.83212 6.53347 8.83212H9.37357C10.4781 8.83212 11.3736 7.93669 11.3736 6.83212V4.6689C11.3736 3.56434 10.4781 2.66891 9.37357 2.66891H6.53347C5.4289 2.66891 4.53347 3.56434 4.53347 4.66891V6.83213ZM10.5744 13.3685C11.0533 13.3685 11.4416 12.9803 11.4416 12.5014C11.4416 12.0225 11.0533 11.6342 10.5744 11.6342H5.40895C4.93003 11.6342 4.5418 12.0225 4.5418 12.5014C4.5418 12.9803 4.93003 13.3685 5.40895 13.3685H10.5744Z" fill="#868F9D"/>
<path d="M6.30469 7.08023V4.46875H9.68589V7.08023H6.30469Z" fill="#868F9D"/>
</g>
<defs>
<clipPath id="clip0_1843_5855">
<rect width="16" height="16" fill="white"/>
</clipPath>
</defs>
</svg>
