<svg width="16" height="16" viewBox="0 0 16 16" fill="none" xmlns="http://www.w3.org/2000/svg">
<path d="M4 16C2.89543 16 2 15.1046 2 14V2C2 0.895431 2.89543 0 4 0H9.82078C10.3681 0 10.8915 0.224285 11.2689 0.620575L13.4482 2.9084C13.8024 3.28029 14 3.77421 14 4.28782V14C14 15.1046 13.1046 16 12 16H4ZM4.59652 6.92531C4.59652 7.50539 5.06676 7.97564 5.64685 7.97564H10.3518C10.9319 7.97564 11.4021 7.50539 11.4021 6.92531C11.4021 6.34523 10.9319 5.87498 10.3518 5.87498H5.64685C5.06676 5.87498 4.59652 6.34523 4.59652 6.92531ZM4.59652 11.3652C4.59652 11.9465 5.06773 12.4177 5.649 12.4177H10.3283C10.9281 12.4177 11.4144 11.9314 11.4144 11.3315C11.4144 10.7433 10.9618 10.3127 10.3735 10.3127H5.649C5.06773 10.3127 4.59652 10.7839 4.59652 11.3652Z" fill="#868F9D"/>
</svg>
