<svg width="22" height="22" viewBox="0 0 22 22" fill="none" xmlns="http://www.w3.org/2000/svg">
<path d="M11.0013 21.8333C5.01822 21.8333 0.167969 16.9831 0.167969 11C0.167969 5.0169 5.01822 0.166656 11.0013 0.166656C16.9844 0.166656 21.8346 5.0169 21.8346 11C21.8281 16.9804 16.9817 21.8268 11.0013 21.8333ZM11.0013 2.33332C6.24049 2.33453 2.37197 6.17576 2.33706 10.9364C2.30216 15.6971 6.11393 19.5947 10.8742 19.6657C15.6345 19.7367 19.5608 15.9546 19.668 11.195V13.1266V11C19.6626 6.21575 15.7855 2.3387 11.0013 2.33332ZM11.0013 16.4167L5.58464 11L11.0013 5.58332L12.5288 7.11082L9.7338 9.91666H16.418V12.0833H9.7338L12.5288 14.8892L11.0013 16.4167Z" fill="#727A89"/>
</svg>
