<svg width="16" height="16" viewBox="0 0 16 16" fill="none" xmlns="http://www.w3.org/2000/svg">
<path fill-rule="evenodd" clip-rule="evenodd" d="M3.28967 0C2.31421 0 1.52344 0.767654 1.52344 1.7146V15.4228C1.52344 15.932 2.1576 16.187 2.52849 15.8269L3.46211 14.9207C3.69203 14.6974 4.0648 14.6974 4.29472 14.9206L5.26821 15.6652C5.77488 16.1571 6.61284 16.0992 7.0428 15.5428L7.52345 14.9207C7.75895 14.6158 8.22995 14.6158 8.46544 14.9207L8.94604 15.5428C9.376 16.0992 10.214 16.1571 10.7207 15.6652L11.7045 14.9207C11.9344 14.6974 12.3072 14.6974 12.5371 14.9206L13.4708 15.8269C13.8417 16.187 14.4758 15.932 14.4758 15.4228V1.7146C14.4758 0.767654 13.6851 0 12.7096 0H3.28967ZM5.05591 3.4292C5.05591 3.74484 4.79232 4.00073 4.46716 4.00073C4.142 4.00073 3.87842 3.74484 3.87842 3.4292C3.87842 3.11355 4.142 2.85766 4.46716 2.85766C4.79232 2.85766 5.05591 3.11355 5.05591 3.4292ZM5.05591 7.42992C5.05591 7.74558 4.79232 8.00146 4.46716 8.00146C4.142 8.00146 3.87842 7.74558 3.87842 7.42992C3.87842 7.11427 4.142 6.85839 4.46716 6.85839C4.79232 6.85839 5.05591 7.11427 5.05591 7.42992ZM4.46716 12.0022C4.79232 12.0022 5.05591 11.7463 5.05591 11.4307C5.05591 11.115 4.79232 10.8591 4.46716 10.8591C4.142 10.8591 3.87842 11.115 3.87842 11.4307C3.87842 11.7463 4.142 12.0022 4.46716 12.0022ZM6.23339 3.4292C6.23339 3.11355 6.49698 2.85766 6.82214 2.85766H11.5321C11.8573 2.85766 12.1208 3.11355 12.1208 3.4292C12.1208 3.74484 11.8573 4.00073 11.5321 4.00073H6.82214C6.49698 4.00073 6.23339 3.74484 6.23339 3.4292ZM6.82214 6.85839C6.49698 6.85839 6.23339 7.11427 6.23339 7.42992C6.23339 7.74558 6.49698 8.00146 6.82214 8.00146H11.5321C11.8573 8.00146 12.1208 7.74558 12.1208 7.42992C12.1208 7.11427 11.8573 6.85839 11.5321 6.85839H6.82214ZM6.23339 11.4307C6.23339 11.115 6.49698 10.8591 6.82214 10.8591H11.5321C11.8573 10.8591 12.1208 11.115 12.1208 11.4307C12.1208 11.7463 11.8573 12.0022 11.5321 12.0022H6.82214C6.49698 12.0022 6.23339 11.7463 6.23339 11.4307Z" fill="#54657E"/>
</svg>
