<svg width="1267" height="1070" viewBox="0 0 1267 1070" fill="none" xmlns="http://www.w3.org/2000/svg">
<g opacity="0.18">
<path d="M567.667 383.369H546.853L540.812 396.008L557.003 412.17L573.193 396.008L567.667 383.369ZM557.457 398.955C557.041 398.949 556.626 398.901 556.219 398.812C556.219 400.241 556.249 401.9 556.327 402.611C556.405 403.322 556.542 403.69 557.254 403.796C557.661 403.848 558.07 403.874 558.48 403.873C558.749 403.873 558.863 404.01 558.863 404.116C558.863 404.223 558.672 404.359 558.426 404.359C556.818 404.359 555.131 404.276 554.503 404.276C553.875 404.276 552.433 404.359 551.477 404.359C551.177 404.359 551.016 404.276 551.016 404.116C551.016 403.956 551.1 403.873 551.399 403.873C551.682 403.881 551.965 403.855 552.242 403.796C552.733 403.684 552.87 403.251 552.948 402.611C553.044 401.758 553.055 399.648 553.055 397.87C552.406 397.702 551.744 397.586 551.076 397.52C548.827 397.289 546.889 398.795 546.74 398.907C547.175 397.973 547.879 397.186 548.763 396.644C549.646 396.102 550.671 395.83 551.71 395.861C553.462 395.903 554.646 396.703 557.774 397.36C560.167 397.858 562.2 396.175 562.2 396.175C562.033 396.264 560.502 398.949 557.457 398.955ZM558.259 396.62C558.024 396.634 557.788 396.634 557.553 396.62C557.517 396.624 557.481 396.621 557.446 396.611C557.412 396.601 557.38 396.584 557.352 396.561C557.324 396.538 557.301 396.51 557.284 396.479C557.267 396.447 557.257 396.412 557.254 396.377C557.254 396.193 557.523 396.08 558.044 396.08C559.377 396.08 561.255 394.706 561.255 392.359C561.291 391.723 561.183 391.088 560.939 390.499C560.695 389.911 560.321 389.384 559.844 388.957C559.18 388.389 558.329 388.081 557.451 388.092C557.103 388.082 556.755 388.118 556.417 388.199C556.279 388.258 556.225 388.388 556.225 388.631V396.448C554.975 396.152 553.959 395.855 553.061 395.571V393.68C553.061 390.202 553.061 389.532 553.061 388.821C553.061 388.11 552.786 387.796 552.027 387.582C551.712 387.521 551.391 387.493 551.07 387.499C550.825 387.499 550.663 387.416 550.663 387.256C550.663 387.096 550.855 387.043 551.207 387.043C552.463 387.043 553.989 387.096 554.67 387.096C555.651 387.096 557.553 387.043 558.648 387.043C561.638 387.043 562.733 388.015 563.115 388.335C563.86 389.065 564.289 390.053 564.312 391.091C564.282 394.297 561.668 396.62 558.259 396.62Z" stroke="#36B8BC" stroke-width="0.75" stroke-miterlimit="10"/>
<g clip-path="url(#clip0_933_169)">
<path d="M465.403 656.983L450.686 642.265L437.477 646.931L437.497 669.808L460.373 669.828L465.403 656.983ZM447.163 660.784C446.873 660.486 446.613 660.159 446.388 659.808C445.378 660.818 444.226 662.013 443.778 662.571C443.33 663.128 443.168 663.485 443.596 664.064C443.846 664.389 444.118 664.696 444.408 664.986C444.599 665.176 444.583 665.353 444.507 665.428C444.432 665.504 444.2 665.465 444.027 665.291C442.889 664.154 441.755 662.902 441.311 662.458C440.867 662.014 439.789 661.054 439.112 660.377C438.901 660.165 438.845 659.993 438.958 659.879C439.072 659.766 439.189 659.767 439.401 659.978C439.596 660.184 439.814 660.366 440.052 660.52C440.478 660.787 440.881 660.579 441.389 660.181C442.06 659.645 443.56 658.162 444.817 656.905C444.476 656.327 444.091 655.776 443.665 655.258C442.238 653.504 439.803 653.198 439.618 653.172C440.587 652.82 441.641 652.76 442.649 653.002C443.657 653.244 444.574 653.776 445.286 654.533C446.496 655.801 446.768 657.204 448.514 659.881C449.854 661.925 452.482 662.173 452.482 662.173C452.301 662.117 449.32 662.933 447.163 660.784ZM449.381 659.7C449.204 659.544 449.038 659.378 448.882 659.201C448.854 659.179 448.83 659.151 448.813 659.119C448.795 659.088 448.784 659.053 448.781 659.017C448.777 658.981 448.781 658.945 448.791 658.911C448.802 658.877 448.819 658.845 448.842 658.818C448.972 658.688 449.242 658.799 449.61 659.167C450.553 660.11 452.853 660.465 454.512 658.806C454.987 658.382 455.36 657.856 455.604 657.268C455.847 656.679 455.955 656.041 455.92 655.403C455.852 654.531 455.468 653.712 454.84 653.099C454.601 652.846 454.329 652.625 454.033 652.443C453.894 652.388 453.763 652.442 453.592 652.614L448.064 658.141C447.39 657.047 446.881 656.119 446.447 655.283L447.784 653.947C450.244 651.487 450.717 651.013 451.22 650.51C451.723 650.008 451.751 649.591 451.364 648.903C451.185 648.637 450.978 648.39 450.746 648.168C450.573 647.994 450.517 647.821 450.631 647.708C450.744 647.595 450.917 647.693 451.166 647.942C452.054 648.83 453.095 649.947 453.577 650.429C454.271 651.122 455.653 652.429 456.427 653.203C458.542 655.318 458.629 656.779 458.673 657.276C458.684 658.319 458.288 659.321 457.57 660.07C455.282 662.316 451.791 662.111 449.381 659.7Z" stroke="#36B8BC" stroke-width="0.75" stroke-miterlimit="10"/>
</g>
<g clip-path="url(#clip1_933_169)">
<path d="M663.868 641.901L649.15 656.619L653.816 669.828L676.693 669.807L676.713 646.931L663.868 641.901ZM667.669 660.141C667.371 660.432 667.044 660.691 666.693 660.916C667.703 661.926 668.898 663.078 669.456 663.526C670.013 663.974 670.37 664.137 670.949 663.709C671.274 663.458 671.581 663.187 671.871 662.896C672.061 662.706 672.238 662.722 672.313 662.797C672.389 662.873 672.35 663.105 672.176 663.278C671.039 664.416 669.787 665.55 669.343 665.994C668.899 666.438 667.939 667.516 667.262 668.192C667.05 668.404 666.878 668.459 666.764 668.346C666.651 668.233 666.652 668.115 666.863 667.904C667.069 667.709 667.251 667.49 667.405 667.253C667.672 666.826 667.464 666.423 667.066 665.916C666.53 665.245 665.047 663.744 663.79 662.487C663.212 662.828 662.661 663.213 662.143 663.64C660.389 665.067 660.083 667.501 660.057 667.686C659.705 666.717 659.645 665.663 659.887 664.656C660.129 663.648 660.661 662.731 661.418 662.018C662.686 660.808 664.089 660.537 666.766 658.79C668.81 657.45 669.058 654.822 669.058 654.822C669.002 655.004 669.818 657.985 667.669 660.141ZM666.585 657.924C666.429 658.1 666.263 658.267 666.086 658.423C666.064 658.451 666.036 658.474 666.004 658.492C665.973 658.509 665.938 658.52 665.902 658.524C665.866 658.527 665.83 658.524 665.796 658.513C665.762 658.503 665.73 658.485 665.703 658.462C665.573 658.332 665.684 658.063 666.052 657.695C666.995 656.751 667.35 654.451 665.691 652.792C665.267 652.317 664.742 651.944 664.153 651.701C663.564 651.457 662.926 651.349 662.288 651.385C661.416 651.452 660.597 651.836 659.984 652.465C659.731 652.704 659.51 652.975 659.328 653.272C659.273 653.411 659.327 653.541 659.499 653.713L665.026 659.24C663.932 659.914 663.004 660.424 662.168 660.857L660.832 659.52C658.372 657.061 657.898 656.587 657.395 656.084C656.893 655.581 656.476 655.554 655.788 655.94C655.522 656.119 655.275 656.326 655.053 656.558C654.879 656.731 654.706 656.787 654.593 656.674C654.48 656.561 654.578 656.388 654.827 656.138C655.715 655.25 656.832 654.209 657.314 653.727C658.007 653.034 659.314 651.651 660.088 650.877C662.203 648.763 663.664 648.676 664.161 648.631C665.204 648.621 666.206 649.016 666.955 649.734C669.201 652.022 668.996 655.513 666.585 657.924Z" stroke="#36B8BC" stroke-width="0.75" stroke-miterlimit="10"/>
</g>
<g clip-path="url(#clip2_933_169)">
<path d="M432.623 484.439L401.068 475.984L386.781 492.671L404.769 523.723L435.872 505.825L432.623 484.439ZM410.82 503.895C410.191 503.716 409.582 503.476 409.001 503.177C408.421 505.339 407.793 507.864 407.623 508.973C407.452 510.081 407.512 510.694 408.547 511.144C409.142 511.389 409.753 511.594 410.375 511.759C410.783 511.868 410.9 512.121 410.856 512.283C410.813 512.444 410.468 512.573 410.096 512.473C407.657 511.82 405.134 511.009 404.181 510.754C403.229 510.499 401.011 510.039 399.56 509.65C399.106 509.529 398.895 509.337 398.96 509.095C399.025 508.853 399.186 508.761 399.639 508.882C400.065 509.009 400.505 509.085 400.949 509.108C401.738 509.137 402.122 508.538 402.5 507.6C402.991 506.347 403.865 503.157 404.587 500.464C403.67 499.946 402.714 499.501 401.727 499.131C398.412 497.867 394.863 499.359 394.591 499.469C395.631 498.231 397.017 497.325 398.576 496.863C400.136 496.402 401.8 496.406 403.362 496.875C406.002 497.65 407.472 499.343 411.948 501.609C415.373 503.335 419.138 501.612 419.138 501.612C418.848 501.679 415.438 505.123 410.82 503.895ZM412.983 500.684C412.62 500.611 412.263 500.516 411.913 500.398C411.857 500.389 411.803 500.37 411.755 500.341C411.706 500.311 411.664 500.273 411.631 500.227C411.598 500.181 411.574 500.13 411.562 500.075C411.549 500.02 411.548 499.964 411.558 499.908C411.632 499.63 412.086 499.569 412.875 499.78C414.897 500.322 418.302 499.003 419.254 495.449C419.567 494.501 419.661 493.495 419.529 492.504C419.398 491.514 419.044 490.564 418.495 489.724C417.719 488.594 416.554 487.782 415.219 487.442C414.695 487.285 414.153 487.198 413.607 487.183C413.374 487.217 413.24 487.393 413.141 487.761L409.969 499.598C408.195 498.642 406.773 497.78 405.529 496.985L406.296 494.122C407.707 488.854 407.979 487.84 408.268 486.763C408.556 485.686 408.267 485.098 407.202 484.467C406.749 484.245 406.274 484.073 405.785 483.952C405.413 483.853 405.202 483.661 405.267 483.419C405.331 483.177 405.643 483.174 406.178 483.317C408.082 483.827 410.373 484.528 411.407 484.805C412.894 485.203 415.799 485.895 417.458 486.34C421.992 487.554 423.257 489.471 423.707 490.111C424.54 491.518 424.79 493.189 424.402 494.77C423.056 499.613 418.151 502.069 412.983 500.684Z" stroke="#36B8BC" stroke-width="0.75" stroke-miterlimit="10"/>
</g>
<path d="M591.695 547.638L983.779 561.884" stroke="url(#paint0_linear_933_169)" stroke-width="0.75"/>
<path d="M522.305 547.638L130.221 562.33" stroke="url(#paint1_linear_933_169)" stroke-width="0.75"/>
<path d="M579.906 520.481L887.257 272.502" stroke="url(#paint2_linear_933_169)" stroke-width="0.75"/>
<path d="M535.203 520.481L227.852 272.502" stroke="url(#paint3_linear_933_169)" stroke-width="0.75"/>
<path d="M557 582.135V978" stroke="url(#paint4_linear_933_169)" stroke-width="0.75"/>
<circle cx="557" cy="551" r="426.625" stroke="#36B8BC" stroke-opacity="0.1" stroke-width="0.75"/>
<circle cx="556.776" cy="551.222" r="348.119" stroke="#36B8BC" stroke-opacity="0.2" stroke-width="0.75"/>
<circle cx="556.78" cy="551.222" r="291.186" stroke="#36B8BC" stroke-opacity="0.3" stroke-width="0.75"/>
<circle cx="556.78" cy="551.222" r="237.811" stroke="#36B8BC" stroke-opacity="0.4" stroke-width="0.75"/>
<circle cx="556.776" cy="551.222" r="181.322" stroke="#36B8BC" stroke-opacity="0.6" stroke-width="0.75"/>
<circle cx="556.777" cy="551.222" r="126.613" stroke="#36B8BC" stroke-width="0.75"/>
<path d="M579.85 520.31H535.249L522.305 547.442L556.998 582.136L591.692 547.442L579.85 520.31ZM557.972 553.767C557.08 553.754 556.191 553.652 555.32 553.462C555.32 556.528 555.384 560.089 555.55 561.616C555.717 563.143 556.012 563.931 557.537 564.16C558.408 564.272 559.286 564.328 560.164 564.326C560.741 564.326 560.984 564.618 560.984 564.847C560.984 565.076 560.574 565.369 560.049 565.369C556.601 565.369 552.987 565.191 551.641 565.191C550.296 565.191 547.207 565.369 545.156 565.369C544.515 565.369 544.169 565.191 544.169 564.847C544.169 564.504 544.349 564.326 544.99 564.326C545.596 564.342 546.203 564.286 546.797 564.16C547.848 563.919 548.142 562.99 548.309 561.616C548.514 559.784 548.54 555.255 548.54 551.439C547.148 551.079 545.729 550.828 544.297 550.688C539.479 550.192 535.326 553.423 535.006 553.665C535.94 551.659 537.447 549.969 539.341 548.807C541.234 547.644 543.43 547.06 545.656 547.126C549.411 547.215 551.949 548.933 558.652 550.345C563.778 551.413 568.136 547.801 568.136 547.801C567.777 547.991 564.496 553.754 557.972 553.767ZM559.69 548.755C559.186 548.786 558.681 548.786 558.178 548.755C558.101 548.763 558.023 548.757 557.949 548.735C557.875 548.714 557.806 548.677 557.746 548.629C557.686 548.58 557.637 548.52 557.601 548.452C557.565 548.384 557.543 548.31 557.537 548.233C557.537 547.839 558.113 547.597 559.228 547.597C562.087 547.597 566.111 544.646 566.111 539.608C566.188 538.244 565.957 536.88 565.433 535.616C564.91 534.353 564.108 533.222 563.086 532.306C561.664 531.086 559.84 530.425 557.96 530.449C557.214 530.427 556.468 530.504 555.742 530.678C555.448 530.805 555.332 531.085 555.332 531.606V548.386C552.654 547.75 550.475 547.114 548.553 546.503V542.445C548.553 534.977 548.553 533.54 548.553 532.013C548.553 530.487 547.963 529.812 546.335 529.354C545.66 529.222 544.973 529.162 544.285 529.176C543.759 529.176 543.413 528.998 543.413 528.655C543.413 528.311 543.823 528.197 544.579 528.197C547.271 528.197 550.539 528.311 552 528.311C554.102 528.311 558.178 528.197 560.523 528.197C566.931 528.197 569.276 530.283 570.097 530.97C571.693 532.536 572.612 534.658 572.66 536.886C572.596 543.768 566.995 548.755 559.69 548.755Z" stroke="#36B8BC" stroke-width="0.75" stroke-miterlimit="10"/>
<g clip-path="url(#clip3_933_169)">
<path d="M713.037 475.775L681.482 484.23L677.453 505.825L708.556 523.723L726.544 492.671L713.037 475.775ZM703.883 503.526C703.249 503.686 702.601 503.782 701.948 503.813C702.528 505.976 703.247 508.477 703.653 509.522C704.059 510.567 704.417 511.068 705.539 510.94C706.177 510.854 706.808 510.727 707.429 510.559C707.837 510.45 708.065 510.61 708.108 510.771C708.152 510.933 707.917 511.217 707.545 511.317C705.106 511.97 702.515 512.53 701.563 512.785C700.611 513.04 698.46 513.751 697.009 514.14C696.555 514.261 696.277 514.201 696.212 513.959C696.147 513.717 696.24 513.557 696.694 513.436C697.126 513.332 697.545 513.178 697.941 512.976C698.639 512.607 698.672 511.896 698.53 510.895C698.329 509.563 697.491 506.364 696.769 503.671C695.716 503.681 694.666 503.773 693.626 503.946C690.123 504.51 687.796 507.576 687.615 507.808C687.897 506.215 688.644 504.737 689.764 503.558C690.884 502.379 692.327 501.551 693.914 501.176C696.588 500.527 698.708 501.257 703.717 500.983C707.546 500.765 709.946 497.39 709.946 497.39C709.728 497.592 708.496 502.28 703.883 503.526ZM704.151 499.664C703.8 499.782 703.443 499.878 703.081 499.951C703.028 499.971 702.972 499.982 702.915 499.98C702.859 499.979 702.803 499.967 702.751 499.944C702.7 499.921 702.654 499.888 702.615 499.846C702.577 499.805 702.548 499.757 702.529 499.704C702.454 499.426 702.817 499.146 703.605 498.935C705.627 498.393 707.917 495.548 706.964 491.994C706.761 491.017 706.339 490.099 705.73 489.307C705.121 488.514 704.34 487.868 703.444 487.416C702.207 486.825 700.792 486.704 699.466 487.078C698.934 487.204 698.421 487.399 697.941 487.66C697.756 487.805 697.728 488.024 697.826 488.392L700.998 500.23C698.983 500.289 697.321 500.253 695.845 500.187L695.078 497.324C693.667 492.056 693.395 491.042 693.106 489.965C692.818 488.888 692.273 488.524 691.035 488.509C690.533 488.544 690.035 488.632 689.551 488.773C689.179 488.872 688.901 488.812 688.836 488.57C688.771 488.328 689.039 488.169 689.574 488.026C691.478 487.516 693.812 486.977 694.846 486.7C696.333 486.301 699.195 485.448 700.854 485.003C705.388 483.789 707.441 484.816 708.151 485.145C709.577 485.947 710.628 487.27 711.083 488.832C712.339 493.699 709.319 498.279 704.151 499.664Z" stroke="#36B8BC" stroke-width="0.75" stroke-miterlimit="10"/>
</g>
</g>
<rect opacity="0.2" x="136" y="295" width="761" height="762" fill="url(#paint5_radial_933_169)"/>
<rect opacity="0.2" y="106" width="598" height="599" fill="url(#paint6_radial_933_169)"/>
<rect opacity="0.2" x="250" y="106" width="598" height="599" fill="url(#paint7_radial_933_169)"/>
<rect opacity="0.2" x="506" width="761" height="762" fill="url(#paint8_radial_933_169)"/>
<rect opacity="0.2" x="382" y="314" width="761" height="762" fill="url(#paint9_radial_933_169)"/>
<rect opacity="0.2" x="67" y="100" width="900" height="1105" fill="url(#paint10_radial_933_169)"/>
<defs>
<linearGradient id="paint0_linear_933_169" x1="591.695" y1="547.638" x2="984.003" y2="561.858" gradientUnits="userSpaceOnUse">
<stop stop-color="#36B8BC"/>
<stop offset="1" stop-color="#36B8BC" stop-opacity="0"/>
</linearGradient>
<linearGradient id="paint1_linear_933_169" x1="522.305" y1="554.761" x2="134.668" y2="565.871" gradientUnits="userSpaceOnUse">
<stop stop-color="#36B8BC"/>
<stop offset="1" stop-color="#36B8BC" stop-opacity="0"/>
</linearGradient>
<linearGradient id="paint2_linear_933_169" x1="589.024" y1="520.481" x2="818.025" y2="346.165" gradientUnits="userSpaceOnUse">
<stop stop-color="#36B8BC"/>
<stop offset="1" stop-color="#36B8BC" stop-opacity="0"/>
</linearGradient>
<linearGradient id="paint3_linear_933_169" x1="521.192" y1="527.159" x2="302.87" y2="357.954" gradientUnits="userSpaceOnUse">
<stop stop-color="#36B8BC"/>
<stop offset="1" stop-color="#36B8BC" stop-opacity="0"/>
</linearGradient>
<linearGradient id="paint4_linear_933_169" x1="557.5" y1="582.135" x2="557.5" y2="978" gradientUnits="userSpaceOnUse">
<stop stop-color="#36B8BC"/>
<stop offset="1" stop-color="#36B8BC" stop-opacity="0"/>
</linearGradient>
<radialGradient id="paint5_radial_933_169" cx="0" cy="0" r="1" gradientUnits="userSpaceOnUse" gradientTransform="translate(516.5 676) rotate(90) scale(381 380.5)">
<stop stop-color="#36B8BC"/>
<stop offset="1" stop-color="#08080D" stop-opacity="0"/>
</radialGradient>
<radialGradient id="paint6_radial_933_169" cx="0" cy="0" r="1" gradientUnits="userSpaceOnUse" gradientTransform="translate(299 405.5) rotate(90) scale(299.5 299)">
<stop stop-color="#36B8BC"/>
<stop offset="1" stop-color="#08080D" stop-opacity="0"/>
</radialGradient>
<radialGradient id="paint7_radial_933_169" cx="0" cy="0" r="1" gradientUnits="userSpaceOnUse" gradientTransform="translate(549 405.5) rotate(90) scale(299.5 299)">
<stop stop-color="#36B8BC"/>
<stop offset="1" stop-color="#08080D" stop-opacity="0"/>
</radialGradient>
<radialGradient id="paint8_radial_933_169" cx="0" cy="0" r="1" gradientUnits="userSpaceOnUse" gradientTransform="translate(886.5 381) rotate(90) scale(381 380.5)">
<stop stop-color="#36B8BC"/>
<stop offset="1" stop-color="#08080D" stop-opacity="0"/>
</radialGradient>
<radialGradient id="paint9_radial_933_169" cx="0" cy="0" r="1" gradientUnits="userSpaceOnUse" gradientTransform="translate(762.5 695) rotate(90) scale(381 380.5)">
<stop stop-color="#36B8BC"/>
<stop offset="1" stop-color="#08080D" stop-opacity="0"/>
</radialGradient>
<radialGradient id="paint10_radial_933_169" cx="0" cy="0" r="1" gradientUnits="userSpaceOnUse" gradientTransform="translate(517 652.5) rotate(90) scale(552.5 450)">
<stop stop-color="#36B8BC"/>
<stop offset="1" stop-color="#08080D" stop-opacity="0"/>
</radialGradient>
<clipPath id="clip0_933_169">
<rect width="37.3625" height="33.3594" fill="white" transform="translate(446.262 634.621) rotate(45)"/>
</clipPath>
<clipPath id="clip1_933_169">
<rect width="37.3625" height="33.3594" fill="white" transform="translate(641.508 661.04) rotate(-45)"/>
</clipPath>
<clipPath id="clip2_933_169">
<rect width="58.6411" height="52.3015" fill="white" transform="translate(389.059 469.067) rotate(15)"/>
</clipPath>
<clipPath id="clip3_933_169">
<rect width="58.6411" height="52.3015" fill="white" transform="translate(667.625 484.244) rotate(-15)"/>
</clipPath>
</defs>
</svg>
