<svg width="1428" height="1201" viewBox="0 0 1428 1201" fill="none" xmlns="http://www.w3.org/2000/svg">
<rect opacity="0.2" x="337" y="449" width="761" height="762" fill="url(#paint0_radial_936_170)"/>
<rect opacity="0.2" x="584" y="331" width="761" height="762" fill="url(#paint1_radial_936_170)"/>
<rect opacity="0.2" x="62" y="331" width="761" height="762" fill="url(#paint2_radial_936_170)"/>
<rect opacity="0.2" x="667" width="761" height="762" fill="url(#paint3_radial_936_170)"/>
<rect opacity="0.2" width="761" height="762" fill="url(#paint4_radial_936_170)"/>
<rect opacity="0.2" x="337" width="761" height="762" fill="url(#paint5_radial_936_170)"/>
<g opacity="0.18">
<path d="M728.667 383.369H707.853L701.812 396.008L718.003 412.17L734.193 396.008L728.667 383.369ZM718.457 398.955C718.041 398.949 717.626 398.901 717.219 398.812C717.219 400.241 717.249 401.9 717.327 402.611C717.405 403.322 717.542 403.69 718.254 403.796C718.661 403.848 719.07 403.874 719.48 403.873C719.749 403.873 719.863 404.01 719.863 404.116C719.863 404.223 719.672 404.359 719.426 404.359C717.818 404.359 716.131 404.276 715.503 404.276C714.875 404.276 713.433 404.359 712.477 404.359C712.177 404.359 712.016 404.276 712.016 404.116C712.016 403.956 712.1 403.873 712.399 403.873C712.682 403.881 712.965 403.855 713.242 403.796C713.733 403.684 713.87 403.251 713.948 402.611C714.044 401.758 714.055 399.648 714.055 397.87C713.406 397.702 712.744 397.586 712.076 397.52C709.827 397.289 707.889 398.795 707.74 398.907C708.175 397.973 708.879 397.186 709.763 396.644C710.646 396.102 711.671 395.83 712.71 395.861C714.462 395.903 715.646 396.703 718.774 397.36C721.167 397.858 723.2 396.175 723.2 396.175C723.033 396.264 721.502 398.949 718.457 398.955ZM719.259 396.62C719.024 396.634 718.788 396.634 718.553 396.62C718.517 396.624 718.481 396.621 718.446 396.611C718.412 396.601 718.38 396.584 718.352 396.561C718.324 396.538 718.301 396.51 718.284 396.479C718.267 396.447 718.257 396.412 718.254 396.377C718.254 396.193 718.523 396.08 719.044 396.08C720.377 396.08 722.255 394.706 722.255 392.359C722.291 391.723 722.183 391.088 721.939 390.499C721.695 389.911 721.321 389.384 720.844 388.957C720.18 388.389 719.329 388.081 718.451 388.092C718.103 388.082 717.755 388.118 717.417 388.199C717.279 388.258 717.225 388.388 717.225 388.631V396.448C715.975 396.152 714.959 395.855 714.061 395.571V393.68C714.061 390.202 714.061 389.532 714.061 388.821C714.061 388.11 713.786 387.796 713.027 387.582C712.712 387.521 712.391 387.493 712.07 387.499C711.825 387.499 711.663 387.416 711.663 387.256C711.663 387.096 711.855 387.043 712.207 387.043C713.463 387.043 714.989 387.096 715.67 387.096C716.651 387.096 718.553 387.043 719.648 387.043C722.638 387.043 723.733 388.015 724.115 388.335C724.86 389.065 725.289 390.053 725.312 391.091C725.282 394.297 722.668 396.62 719.259 396.62Z" stroke="#36B8BC" stroke-width="0.75" stroke-miterlimit="10"/>
<g clip-path="url(#clip0_936_170)">
<path d="M626.403 656.983L611.686 642.265L598.477 646.931L598.497 669.808L621.373 669.828L626.403 656.983ZM608.163 660.784C607.873 660.486 607.613 660.159 607.388 659.808C606.378 660.818 605.226 662.013 604.778 662.571C604.33 663.128 604.168 663.485 604.596 664.064C604.846 664.389 605.118 664.696 605.408 664.986C605.599 665.176 605.583 665.353 605.507 665.428C605.432 665.504 605.2 665.465 605.027 665.291C603.889 664.154 602.755 662.902 602.311 662.458C601.867 662.014 600.789 661.054 600.112 660.377C599.901 660.165 599.845 659.993 599.958 659.879C600.072 659.766 600.189 659.767 600.401 659.978C600.596 660.184 600.814 660.366 601.052 660.52C601.478 660.787 601.881 660.579 602.389 660.181C603.06 659.645 604.56 658.162 605.817 656.905C605.476 656.327 605.091 655.776 604.665 655.258C603.238 653.504 600.803 653.198 600.618 653.172C601.587 652.82 602.641 652.76 603.649 653.002C604.657 653.244 605.574 653.776 606.286 654.533C607.496 655.801 607.768 657.204 609.514 659.881C610.854 661.925 613.482 662.173 613.482 662.173C613.301 662.117 610.32 662.933 608.163 660.784ZM610.381 659.7C610.204 659.544 610.038 659.378 609.882 659.201C609.854 659.179 609.83 659.151 609.813 659.119C609.795 659.088 609.784 659.053 609.781 659.017C609.777 658.981 609.781 658.945 609.791 658.911C609.802 658.877 609.819 658.845 609.842 658.818C609.972 658.688 610.242 658.799 610.61 659.167C611.553 660.11 613.853 660.465 615.512 658.806C615.987 658.382 616.36 657.856 616.604 657.268C616.847 656.679 616.955 656.041 616.92 655.403C616.852 654.531 616.468 653.712 615.84 653.099C615.601 652.846 615.329 652.625 615.033 652.443C614.894 652.388 614.763 652.442 614.592 652.614L609.064 658.141C608.39 657.047 607.881 656.119 607.447 655.283L608.784 653.947C611.244 651.487 611.717 651.013 612.22 650.51C612.723 650.008 612.751 649.591 612.364 648.903C612.185 648.637 611.978 648.39 611.746 648.168C611.573 647.994 611.517 647.821 611.631 647.708C611.744 647.595 611.917 647.693 612.166 647.942C613.054 648.83 614.095 649.947 614.577 650.429C615.271 651.122 616.653 652.429 617.427 653.203C619.542 655.318 619.629 656.779 619.673 657.276C619.684 658.319 619.288 659.321 618.57 660.07C616.282 662.316 612.791 662.111 610.381 659.7Z" stroke="#36B8BC" stroke-width="0.75" stroke-miterlimit="10"/>
</g>
<g clip-path="url(#clip1_936_170)">
<path d="M824.868 641.901L810.15 656.619L814.816 669.828L837.693 669.807L837.713 646.931L824.868 641.901ZM828.669 660.141C828.371 660.432 828.044 660.691 827.693 660.916C828.703 661.926 829.898 663.078 830.456 663.526C831.013 663.974 831.37 664.137 831.949 663.709C832.274 663.458 832.581 663.187 832.871 662.896C833.061 662.706 833.238 662.722 833.313 662.797C833.389 662.873 833.35 663.105 833.176 663.278C832.039 664.416 830.787 665.55 830.343 665.994C829.899 666.438 828.939 667.516 828.262 668.192C828.05 668.404 827.878 668.459 827.764 668.346C827.651 668.233 827.652 668.115 827.863 667.904C828.069 667.709 828.251 667.49 828.405 667.253C828.672 666.826 828.464 666.423 828.066 665.916C827.53 665.245 826.047 663.744 824.79 662.487C824.212 662.828 823.661 663.213 823.143 663.64C821.389 665.067 821.083 667.501 821.057 667.686C820.705 666.717 820.645 665.663 820.887 664.656C821.129 663.648 821.661 662.731 822.418 662.018C823.686 660.808 825.089 660.537 827.766 658.79C829.81 657.45 830.058 654.822 830.058 654.822C830.002 655.004 830.818 657.985 828.669 660.141ZM827.585 657.924C827.429 658.1 827.263 658.267 827.086 658.423C827.064 658.451 827.036 658.474 827.004 658.492C826.973 658.509 826.938 658.52 826.902 658.524C826.866 658.527 826.83 658.524 826.796 658.513C826.762 658.503 826.73 658.485 826.703 658.462C826.573 658.332 826.684 658.063 827.052 657.695C827.995 656.751 828.35 654.451 826.691 652.792C826.267 652.317 825.742 651.944 825.153 651.701C824.564 651.457 823.926 651.349 823.288 651.385C822.416 651.452 821.597 651.836 820.984 652.465C820.731 652.704 820.51 652.975 820.328 653.272C820.273 653.411 820.327 653.541 820.499 653.713L826.026 659.24C824.932 659.914 824.004 660.424 823.168 660.857L821.832 659.52C819.372 657.061 818.898 656.587 818.395 656.084C817.893 655.581 817.476 655.554 816.788 655.94C816.522 656.119 816.275 656.326 816.053 656.558C815.879 656.731 815.706 656.787 815.593 656.674C815.48 656.561 815.578 656.388 815.827 656.138C816.715 655.25 817.832 654.209 818.314 653.727C819.007 653.034 820.314 651.651 821.088 650.877C823.203 648.763 824.664 648.676 825.161 648.631C826.204 648.621 827.206 649.016 827.955 649.734C830.201 652.022 829.996 655.513 827.585 657.924Z" stroke="#36B8BC" stroke-width="0.75" stroke-miterlimit="10"/>
</g>
<g clip-path="url(#clip2_936_170)">
<path d="M593.623 484.439L562.068 475.984L547.781 492.671L565.769 523.723L596.872 505.825L593.623 484.439ZM571.82 503.895C571.191 503.716 570.582 503.476 570.001 503.177C569.421 505.339 568.793 507.864 568.623 508.973C568.452 510.081 568.512 510.694 569.547 511.144C570.142 511.389 570.753 511.594 571.375 511.759C571.783 511.868 571.9 512.121 571.856 512.283C571.813 512.444 571.468 512.573 571.096 512.473C568.657 511.82 566.134 511.009 565.181 510.754C564.229 510.499 562.011 510.039 560.56 509.65C560.106 509.529 559.895 509.337 559.96 509.095C560.025 508.853 560.186 508.761 560.639 508.882C561.065 509.009 561.505 509.085 561.949 509.108C562.738 509.137 563.122 508.538 563.5 507.6C563.991 506.347 564.865 503.157 565.587 500.464C564.67 499.946 563.714 499.501 562.727 499.131C559.412 497.867 555.863 499.359 555.591 499.469C556.631 498.231 558.017 497.325 559.576 496.863C561.136 496.402 562.8 496.406 564.362 496.875C567.002 497.65 568.472 499.343 572.948 501.609C576.373 503.335 580.138 501.612 580.138 501.612C579.848 501.679 576.438 505.123 571.82 503.895ZM573.983 500.684C573.62 500.611 573.263 500.516 572.913 500.398C572.857 500.389 572.803 500.37 572.755 500.341C572.706 500.311 572.664 500.273 572.631 500.227C572.598 500.181 572.574 500.13 572.562 500.075C572.549 500.02 572.548 499.964 572.558 499.908C572.632 499.63 573.086 499.569 573.875 499.78C575.897 500.322 579.302 499.003 580.254 495.449C580.567 494.501 580.661 493.495 580.529 492.504C580.398 491.514 580.044 490.564 579.495 489.724C578.719 488.594 577.554 487.782 576.219 487.442C575.695 487.285 575.153 487.198 574.607 487.183C574.374 487.217 574.24 487.393 574.141 487.761L570.969 499.598C569.195 498.642 567.773 497.78 566.529 496.985L567.296 494.122C568.707 488.854 568.979 487.84 569.268 486.763C569.556 485.686 569.267 485.098 568.202 484.467C567.749 484.245 567.274 484.073 566.785 483.952C566.413 483.853 566.202 483.661 566.267 483.419C566.331 483.177 566.643 483.174 567.178 483.317C569.082 483.827 571.373 484.528 572.407 484.805C573.894 485.203 576.799 485.895 578.458 486.34C582.992 487.554 584.257 489.471 584.707 490.111C585.54 491.518 585.79 493.189 585.402 494.77C584.056 499.613 579.151 502.069 573.983 500.684Z" stroke="#36B8BC" stroke-width="0.75" stroke-miterlimit="10"/>
</g>
<path d="M752.695 547.638L1144.78 561.884" stroke="url(#paint6_linear_936_170)" stroke-width="0.75"/>
<path d="M683.305 547.638L291.221 562.33" stroke="url(#paint7_linear_936_170)" stroke-width="0.75"/>
<path d="M740.906 520.481L1048.26 272.502" stroke="url(#paint8_linear_936_170)" stroke-width="0.75"/>
<path d="M696.203 520.481L388.852 272.502" stroke="url(#paint9_linear_936_170)" stroke-width="0.75"/>
<path d="M718 582.135V978" stroke="url(#paint10_linear_936_170)" stroke-width="0.75"/>
<circle cx="718" cy="551" r="426.625" stroke="#36B8BC" stroke-opacity="0.1" stroke-width="0.75"/>
<circle cx="717.776" cy="551.222" r="348.119" stroke="#36B8BC" stroke-opacity="0.2" stroke-width="0.75"/>
<circle cx="717.78" cy="551.222" r="291.186" stroke="#36B8BC" stroke-opacity="0.3" stroke-width="0.75"/>
<circle cx="717.78" cy="551.222" r="237.811" stroke="#36B8BC" stroke-opacity="0.4" stroke-width="0.75"/>
<circle cx="717.776" cy="551.222" r="181.322" stroke="#36B8BC" stroke-opacity="0.6" stroke-width="0.75"/>
<circle cx="717.777" cy="551.222" r="126.613" stroke="#36B8BC" stroke-width="0.75"/>
<path d="M740.85 520.31H696.249L683.305 547.442L717.998 582.136L752.692 547.442L740.85 520.31ZM718.972 553.767C718.08 553.754 717.191 553.652 716.32 553.462C716.32 556.528 716.384 560.089 716.55 561.616C716.717 563.143 717.012 563.931 718.537 564.16C719.408 564.272 720.286 564.328 721.164 564.326C721.741 564.326 721.984 564.618 721.984 564.847C721.984 565.076 721.574 565.369 721.049 565.369C717.601 565.369 713.987 565.191 712.641 565.191C711.296 565.191 708.207 565.369 706.156 565.369C705.515 565.369 705.169 565.191 705.169 564.847C705.169 564.504 705.349 564.326 705.99 564.326C706.596 564.342 707.203 564.286 707.797 564.16C708.848 563.919 709.142 562.99 709.309 561.616C709.514 559.784 709.54 555.255 709.54 551.439C708.148 551.079 706.729 550.828 705.297 550.688C700.479 550.192 696.326 553.423 696.006 553.665C696.94 551.659 698.447 549.969 700.341 548.807C702.234 547.644 704.43 547.06 706.656 547.126C710.411 547.215 712.949 548.933 719.652 550.345C724.778 551.413 729.136 547.801 729.136 547.801C728.777 547.991 725.496 553.754 718.972 553.767ZM720.69 548.755C720.186 548.786 719.681 548.786 719.178 548.755C719.101 548.763 719.023 548.757 718.949 548.735C718.875 548.714 718.806 548.677 718.746 548.629C718.686 548.58 718.637 548.52 718.601 548.452C718.565 548.384 718.543 548.31 718.537 548.233C718.537 547.839 719.113 547.597 720.228 547.597C723.087 547.597 727.111 544.646 727.111 539.608C727.188 538.244 726.957 536.88 726.433 535.616C725.91 534.353 725.108 533.222 724.086 532.306C722.664 531.086 720.84 530.425 718.96 530.449C718.214 530.427 717.468 530.504 716.742 530.678C716.448 530.805 716.332 531.085 716.332 531.606V548.386C713.654 547.75 711.475 547.114 709.553 546.503V542.445C709.553 534.977 709.553 533.54 709.553 532.013C709.553 530.487 708.963 529.812 707.335 529.354C706.66 529.222 705.973 529.162 705.285 529.176C704.759 529.176 704.413 528.998 704.413 528.655C704.413 528.311 704.823 528.197 705.579 528.197C708.271 528.197 711.539 528.311 713 528.311C715.102 528.311 719.178 528.197 721.523 528.197C727.931 528.197 730.276 530.283 731.097 530.97C732.693 532.536 733.612 534.658 733.66 536.886C733.596 543.768 727.995 548.755 720.69 548.755Z" stroke="#36B8BC" stroke-width="0.75" stroke-miterlimit="10"/>
<g clip-path="url(#clip3_936_170)">
<path d="M874.037 475.775L842.482 484.23L838.453 505.825L869.556 523.723L887.544 492.671L874.037 475.775ZM864.883 503.526C864.249 503.686 863.601 503.782 862.948 503.813C863.528 505.976 864.247 508.477 864.653 509.522C865.059 510.567 865.417 511.068 866.539 510.94C867.177 510.854 867.808 510.727 868.429 510.559C868.837 510.45 869.065 510.61 869.108 510.771C869.152 510.933 868.917 511.217 868.545 511.317C866.106 511.97 863.515 512.53 862.563 512.785C861.611 513.04 859.46 513.751 858.009 514.14C857.555 514.261 857.277 514.201 857.212 513.959C857.147 513.717 857.24 513.557 857.694 513.436C858.126 513.332 858.545 513.178 858.941 512.976C859.639 512.607 859.672 511.896 859.53 510.895C859.329 509.563 858.491 506.364 857.769 503.671C856.716 503.681 855.666 503.773 854.626 503.946C851.123 504.51 848.796 507.576 848.615 507.808C848.897 506.215 849.644 504.737 850.764 503.558C851.884 502.379 853.327 501.551 854.914 501.176C857.588 500.527 859.708 501.257 864.717 500.983C868.546 500.765 870.946 497.39 870.946 497.39C870.728 497.592 869.496 502.28 864.883 503.526ZM865.151 499.664C864.8 499.782 864.443 499.878 864.081 499.951C864.028 499.971 863.972 499.982 863.915 499.98C863.859 499.979 863.803 499.967 863.751 499.944C863.7 499.921 863.654 499.888 863.615 499.846C863.577 499.805 863.548 499.757 863.529 499.704C863.454 499.426 863.817 499.146 864.605 498.935C866.627 498.393 868.917 495.548 867.964 491.994C867.761 491.017 867.339 490.099 866.73 489.307C866.121 488.514 865.34 487.868 864.444 487.416C863.207 486.825 861.792 486.704 860.466 487.078C859.934 487.204 859.421 487.399 858.941 487.66C858.756 487.805 858.728 488.024 858.826 488.392L861.998 500.23C859.983 500.289 858.321 500.253 856.845 500.187L856.078 497.324C854.667 492.056 854.395 491.042 854.106 489.965C853.818 488.888 853.273 488.524 852.035 488.509C851.533 488.544 851.035 488.632 850.551 488.773C850.179 488.872 849.901 488.812 849.836 488.57C849.771 488.328 850.039 488.169 850.574 488.026C852.478 487.516 854.812 486.977 855.846 486.7C857.333 486.301 860.195 485.448 861.854 485.003C866.388 483.789 868.441 484.816 869.151 485.145C870.577 485.947 871.628 487.27 872.083 488.832C873.339 493.699 870.319 498.279 865.151 499.664Z" stroke="#36B8BC" stroke-width="0.75" stroke-miterlimit="10"/>
</g>
</g>
<defs>
<radialGradient id="paint0_radial_936_170" cx="0" cy="0" r="1" gradientUnits="userSpaceOnUse" gradientTransform="translate(717.5 830) rotate(90) scale(381 380.5)">
<stop stop-color="#36B8BC"/>
<stop offset="1" stop-color="#08080D" stop-opacity="0"/>
</radialGradient>
<radialGradient id="paint1_radial_936_170" cx="0" cy="0" r="1" gradientUnits="userSpaceOnUse" gradientTransform="translate(964.5 712) rotate(90) scale(381 380.5)">
<stop stop-color="#36B8BC"/>
<stop offset="1" stop-color="#08080D" stop-opacity="0"/>
</radialGradient>
<radialGradient id="paint2_radial_936_170" cx="0" cy="0" r="1" gradientUnits="userSpaceOnUse" gradientTransform="translate(442.5 712) rotate(90) scale(381 380.5)">
<stop stop-color="#36B8BC"/>
<stop offset="1" stop-color="#08080D" stop-opacity="0"/>
</radialGradient>
<radialGradient id="paint3_radial_936_170" cx="0" cy="0" r="1" gradientUnits="userSpaceOnUse" gradientTransform="translate(1047.5 381) rotate(90) scale(381 380.5)">
<stop stop-color="#36B8BC"/>
<stop offset="1" stop-color="#08080D" stop-opacity="0"/>
</radialGradient>
<radialGradient id="paint4_radial_936_170" cx="0" cy="0" r="1" gradientUnits="userSpaceOnUse" gradientTransform="translate(380.5 381) rotate(90) scale(381 380.5)">
<stop stop-color="#36B8BC"/>
<stop offset="1" stop-color="#08080D" stop-opacity="0"/>
</radialGradient>
<radialGradient id="paint5_radial_936_170" cx="0" cy="0" r="1" gradientUnits="userSpaceOnUse" gradientTransform="translate(717.5 381) rotate(90) scale(381 380.5)">
<stop stop-color="#36B8BC"/>
<stop offset="1" stop-color="#08080D" stop-opacity="0"/>
</radialGradient>
<linearGradient id="paint6_linear_936_170" x1="752.695" y1="547.638" x2="1145" y2="561.858" gradientUnits="userSpaceOnUse">
<stop stop-color="#36B8BC"/>
<stop offset="1" stop-color="#36B8BC" stop-opacity="0"/>
</linearGradient>
<linearGradient id="paint7_linear_936_170" x1="683.305" y1="554.761" x2="295.668" y2="565.871" gradientUnits="userSpaceOnUse">
<stop stop-color="#36B8BC"/>
<stop offset="1" stop-color="#36B8BC" stop-opacity="0"/>
</linearGradient>
<linearGradient id="paint8_linear_936_170" x1="750.024" y1="520.481" x2="979.025" y2="346.165" gradientUnits="userSpaceOnUse">
<stop stop-color="#36B8BC"/>
<stop offset="1" stop-color="#36B8BC" stop-opacity="0"/>
</linearGradient>
<linearGradient id="paint9_linear_936_170" x1="682.192" y1="527.159" x2="463.87" y2="357.954" gradientUnits="userSpaceOnUse">
<stop stop-color="#36B8BC"/>
<stop offset="1" stop-color="#36B8BC" stop-opacity="0"/>
</linearGradient>
<linearGradient id="paint10_linear_936_170" x1="718.5" y1="582.135" x2="718.5" y2="978" gradientUnits="userSpaceOnUse">
<stop stop-color="#36B8BC"/>
<stop offset="1" stop-color="#36B8BC" stop-opacity="0"/>
</linearGradient>
<clipPath id="clip0_936_170">
<rect width="37.3625" height="33.3594" fill="white" transform="translate(607.262 634.621) rotate(45)"/>
</clipPath>
<clipPath id="clip1_936_170">
<rect width="37.3625" height="33.3594" fill="white" transform="translate(802.508 661.04) rotate(-45)"/>
</clipPath>
<clipPath id="clip2_936_170">
<rect width="58.6411" height="52.3015" fill="white" transform="translate(550.059 469.067) rotate(15)"/>
</clipPath>
<clipPath id="clip3_936_170">
<rect width="58.6411" height="52.3015" fill="white" transform="translate(828.625 484.244) rotate(-15)"/>
</clipPath>
</defs>
</svg>
