<svg width="375" height="770" viewBox="0 0 375 770" fill="none" xmlns="http://www.w3.org/2000/svg">
<g opacity="0.16">
<path d="M197.109 233.856H178.363L172.922 245.252L187.504 259.824L202.087 245.252L197.109 233.856ZM187.914 247.909C187.539 247.904 187.165 247.861 186.799 247.781C186.799 249.069 186.825 250.565 186.895 251.206C186.966 251.847 187.089 252.178 187.73 252.275C188.097 252.322 188.466 252.345 188.835 252.344C189.077 252.344 189.18 252.467 189.18 252.563C189.18 252.659 189.007 252.782 188.786 252.782C187.337 252.782 185.818 252.707 185.252 252.707C184.687 252.707 183.389 252.782 182.527 252.782C182.257 252.782 182.112 252.707 182.112 252.563C182.112 252.419 182.187 252.344 182.457 252.344C182.712 252.351 182.967 252.327 183.216 252.275C183.658 252.173 183.782 251.783 183.852 251.206C183.938 250.436 183.949 248.534 183.949 246.931C183.364 246.78 182.768 246.675 182.166 246.616C180.14 246.408 178.395 247.765 178.26 247.866C178.653 247.024 179.286 246.314 180.082 245.826C180.878 245.337 181.801 245.092 182.737 245.12C184.315 245.157 185.382 245.879 188.199 246.472C190.354 246.921 192.185 245.403 192.185 245.403C192.035 245.483 190.656 247.904 187.914 247.909ZM188.635 245.804C188.424 245.817 188.211 245.817 188 245.804C187.968 245.808 187.935 245.805 187.904 245.796C187.872 245.787 187.843 245.771 187.818 245.751C187.793 245.731 187.772 245.705 187.757 245.677C187.742 245.648 187.733 245.617 187.73 245.585C187.73 245.419 187.973 245.318 188.442 245.318C189.643 245.318 191.334 244.078 191.334 241.962C191.367 241.389 191.269 240.816 191.049 240.286C190.829 239.755 190.492 239.28 190.063 238.895C189.465 238.383 188.698 238.105 187.908 238.115C187.595 238.106 187.281 238.138 186.976 238.211C186.852 238.265 186.804 238.382 186.804 238.601V245.649C185.678 245.382 184.762 245.115 183.954 244.858V243.154C183.954 240.017 183.954 239.413 183.954 238.772C183.954 238.131 183.706 237.848 183.022 237.655C182.739 237.6 182.45 237.575 182.16 237.581C181.94 237.581 181.794 237.506 181.794 237.362C181.794 237.217 181.966 237.169 182.284 237.169C183.416 237.169 184.789 237.217 185.403 237.217C186.287 237.217 188 237.169 188.986 237.169C191.679 237.169 192.665 238.046 193.01 238.334C193.681 238.992 194.067 239.883 194.087 240.819C194.06 243.709 191.706 245.804 188.635 245.804Z" stroke="#36B8BC" stroke-width="0.75" stroke-miterlimit="10"/>
<path d="M218.758 381.791L571.899 394.624" stroke="url(#paint0_linear_1409_181)" stroke-width="0.75"/>
<path d="M156.25 381.791L-196.891 395.025" stroke="url(#paint1_linear_1409_181)" stroke-width="0.75"/>
<path d="M208.133 357.328L484.957 133.948" stroke="url(#paint2_linear_1409_181)" stroke-width="0.75"/>
<path d="M167.875 357.328L-108.949 133.948" stroke="url(#paint3_linear_1409_181)" stroke-width="0.75"/>
<path d="M187.5 413.073V770" stroke="url(#paint4_linear_1409_181)" stroke-width="0.75"/>
<path d="M571.718 385C571.718 597.422 399.699 769.624 187.503 769.624C-24.692 769.624 -196.711 597.422 -196.711 385C-196.711 172.577 -24.692 0.375 187.503 0.375C399.699 0.375 571.718 172.577 571.718 385Z" stroke="#36B8BC" stroke-opacity="0.1" stroke-width="0.75"/>
<path d="M500.809 385.2C500.809 558.53 360.447 699.041 187.303 699.041C14.1586 699.041 -126.203 558.53 -126.203 385.2C-126.203 211.87 14.1586 71.3594 187.303 71.3594C360.447 71.3594 500.809 211.87 500.809 385.2Z" stroke="#36B8BC" stroke-opacity="0.2" stroke-width="0.75"/>
<path d="M449.533 385.2C449.533 530.179 332.129 647.708 187.305 647.708C42.4817 647.708 -74.9219 530.179 -74.9219 385.2C-74.9219 240.221 42.4817 122.692 187.305 122.692C332.129 122.692 449.533 240.221 449.533 385.2Z" stroke="#36B8BC" stroke-opacity="0.3" stroke-width="0.75"/>
<path d="M401.456 385.2C401.456 503.601 305.576 599.583 187.302 599.583C69.0287 599.583 -26.8516 503.601 -26.8516 385.2C-26.8516 266.799 69.0287 170.817 187.302 170.817C305.576 170.817 401.456 266.799 401.456 385.2Z" stroke="#36B8BC" stroke-opacity="0.4" stroke-width="0.75"/>
<path d="M350.575 385.2C350.575 475.472 277.473 548.651 187.299 548.651C97.1249 548.651 24.0234 475.472 24.0234 385.2C24.0234 294.929 97.1249 221.75 187.299 221.75C277.473 221.75 350.575 294.929 350.575 385.2Z" stroke="#36B8BC" stroke-opacity="0.6" stroke-width="0.75"/>
<path d="M301.305 385.2C301.305 448.229 250.265 499.323 187.305 499.323C124.345 499.323 73.3047 448.229 73.3047 385.2C73.3047 322.172 124.345 271.078 187.305 271.078C250.265 271.078 301.305 322.172 301.305 385.2Z" stroke="#36B8BC" stroke-width="0.75"/>
</g>
<defs>
<linearGradient id="paint0_linear_1409_181" x1="218.758" y1="381.791" x2="572.1" y2="394.597" gradientUnits="userSpaceOnUse">
<stop stop-color="#36B8BC"/>
<stop offset="1" stop-color="#36B8BC" stop-opacity="0"/>
</linearGradient>
<linearGradient id="paint1_linear_1409_181" x1="156.25" y1="388.208" x2="-192.886" y2="398.212" gradientUnits="userSpaceOnUse">
<stop stop-color="#36B8BC"/>
<stop offset="1" stop-color="#36B8BC" stop-opacity="0"/>
</linearGradient>
<linearGradient id="paint2_linear_1409_181" x1="216.345" y1="357.328" x2="422.623" y2="200.332" gradientUnits="userSpaceOnUse">
<stop stop-color="#36B8BC"/>
<stop offset="1" stop-color="#36B8BC" stop-opacity="0"/>
</linearGradient>
<linearGradient id="paint3_linear_1409_181" x1="155.256" y1="363.344" x2="-41.4029" y2="210.951" gradientUnits="userSpaceOnUse">
<stop stop-color="#36B8BC"/>
<stop offset="1" stop-color="#36B8BC" stop-opacity="0"/>
</linearGradient>
<linearGradient id="paint4_linear_1409_181" x1="188" y1="413.073" x2="188" y2="770" gradientUnits="userSpaceOnUse">
<stop stop-color="#36B8BC"/>
<stop offset="1" stop-color="#36B8BC" stop-opacity="0"/>
</linearGradient>
</defs>
</svg>
