<svg width="80" height="80" viewBox="0 0 80 80" fill="none" xmlns="http://www.w3.org/2000/svg">
<g clip-path="url(#clip0_522_621)">
<path d="M60.9302 33L49.311 33L45.9512 40.1175L54.9754 49.048L63.9899 40.1079L60.9302 33ZM55.2562 41.6331C55.0244 41.6316 54.7936 41.6026 54.5687 41.5468C54.5687 42.3429 54.5687 43.2638 54.6268 43.6667C54.6849 44.0695 54.743 44.2614 55.14 44.3189C55.3655 44.338 55.5923 44.338 55.8178 44.3189C55.9727 44.3189 56.0308 44.3957 56.0308 44.4532C56.0308 44.5108 55.9243 44.5875 55.7887 44.5875C54.8979 44.5875 53.9587 44.5875 53.6101 44.5875C53.2616 44.5875 52.4579 44.5875 51.935 44.5875C51.7607 44.5875 51.6736 44.5875 51.6736 44.4532C51.6736 44.3189 51.722 44.3189 51.8866 44.3189C52.0407 44.3421 52.1973 44.3421 52.3514 44.3189C52.6322 44.2614 52.7 44.0216 52.7484 43.6475C52.7968 43.2734 52.8065 42.0168 52.8065 41.0096C52.4443 40.9167 52.0752 40.8526 51.7027 40.8177C50.8358 40.7843 49.9851 41.0562 49.3014 41.5851C49.5397 41.0638 49.9296 40.6247 50.4211 40.3239C50.9127 40.0232 51.4836 39.8745 52.0609 39.8969C53.0292 39.8969 53.6876 40.3573 55.4305 40.7218C55.8636 40.7847 56.3052 40.7593 56.7281 40.6472C57.151 40.535 57.5464 40.3384 57.8899 40.0695C57.6059 40.5194 57.22 40.8975 56.7629 41.1739C56.3057 41.4503 55.7899 41.6174 55.2562 41.6619L55.2562 41.6331ZM55.7016 40.3381C55.5694 40.3475 55.4367 40.3475 55.3046 40.3381C55.265 40.3409 55.2259 40.3285 55.1953 40.3035C55.1646 40.2785 55.1448 40.2428 55.14 40.2038C55.14 40.0983 55.2949 40.0408 55.5757 40.0408C56.084 39.9852 56.552 39.7402 56.8846 39.3555C57.2173 38.9707 57.3897 38.4749 57.367 37.9688C57.3899 37.6112 57.3313 37.2531 57.1955 36.9211C57.0597 36.589 56.8503 36.2914 56.5827 36.0504C56.2114 35.7342 55.7361 35.5636 55.2465 35.5707C55.0544 35.5667 54.8626 35.5861 54.6752 35.6283C54.5978 35.6283 54.5687 35.7338 54.5687 35.8681L54.5687 40.2134C53.8716 40.0504 53.31 39.8777 52.8065 39.7242L52.8065 38.717C52.8065 36.7986 52.8065 36.4149 52.8065 36.012C52.8065 35.6091 52.6515 35.446 52.2255 35.3213C52.0517 35.3036 51.8765 35.3036 51.7027 35.3213C51.5671 35.3213 51.4703 35.3213 51.4703 35.187C51.4703 35.0528 51.5768 35.0623 51.7704 35.0623C52.4676 35.0623 53.3197 35.0623 53.707 35.0623L55.9146 35.0623C56.8073 34.9681 57.7016 35.2266 58.403 35.7818C58.8133 36.1906 59.0491 36.7402 59.0614 37.3165C59.0584 37.7423 58.9676 38.1629 58.7947 38.5527C58.6217 38.9424 58.3702 39.2931 58.0557 39.5832C57.7411 39.8733 57.37 40.0967 56.9653 40.2397C56.5605 40.3827 56.1304 40.4423 55.7016 40.4149L55.7016 40.3381Z" fill="#727A89"/>
</g>
<g clip-path="url(#clip1_522_621)">
<path d="M80.0024 67.8041C79.5116 69.0585 79.2043 70.4238 78.4949 71.5385C76.8451 74.1233 74.3497 75.4249 71.2913 75.4392C60.3839 75.4762 49.4765 75.4577 38.569 75.4516C36.835 75.4502 35.1374 74.9567 33.6752 74.0288C33.3407 73.8357 32.947 73.7708 32.5678 73.8461C30.2003 74.4353 27.8513 75.0964 25.49 75.7041C20.8004 76.9112 16.1458 74.3655 14.8486 69.7155C12.5347 61.4152 10.3343 53.0862 8.09257 44.7612C5.85086 36.4363 3.60297 28.0663 1.36126 19.7147C-0.0142822 14.5822 2.63988 10.0019 7.77085 8.62846C18.0658 5.87881 28.3593 3.12916 38.6515 0.379507C43.434 -0.901565 47.5462 1.05905 49.5239 5.62492C49.7446 6.13406 50.0807 6.06015 50.4478 6.06015H70.8232C74.3476 6.06015 77.1193 7.46441 78.8661 10.5542C79.4085 11.5129 79.6312 12.6503 80.0024 13.7055V67.8041ZM30.92 71.0889C29.726 69.118 29.7198 67.0486 29.7259 64.9648C29.7466 58.7668 29.7259 52.5688 29.7259 46.3708C29.7259 35.9689 29.7259 25.5705 29.7259 15.1755C29.7259 9.80687 33.4628 6.10532 38.8516 6.07247C41.0644 6.06015 43.2772 6.07247 45.4901 6.07247C45.7313 6.07247 45.9726 6.04578 46.2944 6.0273C46.1747 5.80763 46.1129 5.67009 46.0324 5.54896C44.6651 3.49596 42.2255 2.62138 39.6394 3.30503C29.2619 6.06563 18.879 8.83718 8.49059 11.6197C5.08575 12.5312 3.41737 15.4465 4.3289 18.838C7.34396 30.0789 10.3686 41.3163 13.403 52.5503C14.8589 57.96 16.2902 63.3737 17.7874 68.769C18.5875 71.6658 21.3716 73.4334 24.2403 72.8237C26.4366 72.3556 28.6103 71.6966 30.9303 71.0848L30.92 71.0889ZM76.909 40.7764C76.909 32.2523 76.909 23.7269 76.909 15.2001C76.909 11.5047 74.5539 9.14991 70.8356 9.14581C60.1887 9.14581 49.5411 9.14581 38.8928 9.14581C35.1807 9.14581 32.8318 11.5006 32.8297 15.2124C32.8297 32.24 32.8297 49.2662 32.8297 66.2911C32.8297 70.046 35.1848 72.3782 38.9464 72.3782C49.5672 72.3782 60.1894 72.3782 70.8129 72.3782C74.5642 72.3782 76.909 70.0275 76.909 66.2767C76.9145 57.7732 76.9159 49.2717 76.9131 40.7723L76.909 40.7764Z" fill="#727A89"/>
<path d="M73.8257 40.8362C73.8257 49.311 73.8257 57.7871 73.8257 66.2647C73.8257 68.3567 72.8709 69.3031 70.755 69.3031H38.9607C36.8984 69.3031 35.9209 68.3423 35.9209 66.3098C35.9209 49.2795 35.9209 32.2499 35.9209 15.2209C35.9209 13.1844 36.9005 12.2153 38.9545 12.2153C49.5519 12.2153 60.15 12.2153 70.7488 12.2153C72.8647 12.2153 73.8257 13.1679 73.8257 15.2538C73.8285 23.7806 73.8285 32.308 73.8257 40.8362ZM39.0618 66.1682H70.6931V15.3523H39.0618V66.1682Z" fill="#727A89"/>
</g>
<defs>
<clipPath id="clip0_522_621">
<rect width="18" height="16" fill="white" transform="translate(46 33)"/>
</clipPath>
<clipPath id="clip1_522_621">
<rect width="79" height="76" fill="white" transform="translate(1)"/>
</clipPath>
</defs>
</svg>
