<svg width="80" height="80" viewBox="0 0 80 80" fill="none" xmlns="http://www.w3.org/2000/svg">
<g clip-path="url(#clip0_522_642)">
<path d="M30 40C30 41.9778 30.5865 43.9112 31.6853 45.5557C32.7841 47.2002 34.3459 48.4819 36.1732 49.2388C38.0004 49.9957 40.0111 50.1937 41.9509 49.8079C43.8907 49.422 45.6725 48.4696 47.0711 47.0711C48.4696 45.6725 49.422 43.8907 49.8079 41.9509C50.1937 40.0111 49.9957 38.0004 49.2388 36.1732C48.4819 34.3459 47.2002 32.7841 45.5557 31.6853C43.9112 30.5865 41.9778 30 40 30C37.3478 30 34.8043 31.0536 32.9289 32.9289C31.0536 34.8043 30 37.3478 30 40ZM47.5 40C47.5 41.4834 47.0601 42.9334 46.236 44.1668C45.4119 45.4001 44.2406 46.3614 42.8701 46.9291C41.4997 47.4968 39.9917 47.6453 38.5368 47.3559C37.082 47.0665 35.7456 46.3522 34.6967 45.3033C33.6478 44.2544 32.9335 42.918 32.6441 41.4632C32.3547 40.0083 32.5032 38.5003 33.0709 37.1299C33.6386 35.7594 34.5999 34.5881 35.8332 33.764C37.0666 32.9399 38.5166 32.5 40 32.5C41.9891 32.5 43.8968 33.2902 45.3033 34.6967C46.7098 36.1032 47.5 38.0109 47.5 40Z" fill="#727A89"/>
<path d="M18.75 52.5C20.4806 52.5 22.1723 51.9868 23.6112 51.0254C25.0502 50.0639 26.1717 48.6973 26.8339 47.0985C27.4962 45.4996 27.6695 43.7403 27.3319 42.043C26.9942 40.3456 26.1609 38.7865 24.9372 37.5628C23.7135 36.3391 22.1544 35.5058 20.457 35.1681C18.7597 34.8305 17.0004 35.0038 15.4015 35.6661C13.8027 36.3283 12.4361 37.4498 11.4746 38.8888C10.5132 40.3277 10 42.0194 10 43.75C10 46.0706 10.9219 48.2962 12.5628 49.9372C14.2038 51.5781 16.4294 52.5 18.75 52.5ZM18.75 37.5C19.9861 37.5 21.1945 37.8666 22.2223 38.5533C23.2501 39.2401 24.0512 40.2162 24.5242 41.3582C24.9973 42.5003 25.1211 43.7569 24.8799 44.9693C24.6387 46.1817 24.0435 47.2953 23.1694 48.1694C22.2953 49.0435 21.1817 49.6388 19.9693 49.8799C18.7569 50.1211 17.5003 49.9973 16.3582 49.5242C15.2162 49.0512 14.2401 48.2501 13.5533 47.2223C12.8666 46.1945 12.5 44.9861 12.5 43.75C12.5 42.0924 13.1585 40.5027 14.3306 39.3306C15.5027 38.1585 17.0924 37.5 18.75 37.5Z" fill="#727A89"/>
<path d="M66.875 52.5C66.6603 52.5007 66.4493 52.5566 66.2625 52.6625L61.25 55.5L56.25 52.6625C56.0595 52.5545 55.844 52.4985 55.625 52.5C55.1101 52.5034 54.5962 52.5451 54.0875 52.625C51.9538 50.9315 49.3116 50.0067 46.5875 50C46.3326 50.0006 46.084 50.0791 45.875 50.225L40 54.275L34.15 50.225C33.941 50.0791 33.6924 50.0006 33.4375 50C30.7134 50.0067 28.0712 50.9315 25.9375 52.625C25.4206 52.5439 24.8982 52.5021 24.375 52.5C24.1603 52.5007 23.9493 52.5566 23.7625 52.6625L18.75 55.5L13.75 52.6625C13.5595 52.5545 13.344 52.4985 13.125 52.5C10.3081 52.5033 7.6075 53.6238 5.61564 55.6156C3.62379 57.6075 2.50331 60.3081 2.5 63.125V71.25C2.5 71.5815 2.6317 71.8995 2.86612 72.1339C3.10054 72.3683 3.41848 72.5 3.75 72.5H21.25V76.25C21.25 76.5815 21.3817 76.8995 21.6161 77.1339C21.8505 77.3683 22.1685 77.5 22.5 77.5H57.5C57.8315 77.5 58.1495 77.3683 58.3839 77.1339C58.6183 76.8995 58.75 76.5815 58.75 76.25V72.5H76.25C76.5815 72.5 76.8995 72.3683 77.1339 72.1339C77.3683 71.8995 77.5 71.5815 77.5 71.25V63.125C77.5 60.3071 76.3806 57.6046 74.388 55.612C72.3954 53.6194 69.6929 52.5 66.875 52.5ZM5 70V63.125C5.00464 61.025 5.81968 59.0079 7.27519 57.4942C8.7307 55.9804 10.7143 55.087 12.8125 55L18.1375 58.025C18.3275 58.1347 18.5431 58.1925 18.7625 58.1925C18.9819 58.1925 19.1975 58.1347 19.3875 58.025L22.9875 55.9875C21.8608 57.8771 21.2688 60.0375 21.275 62.2375V70H5ZM56.25 75H23.75V62.1875C23.7512 59.6828 24.7213 57.2757 26.4571 55.47C28.1928 53.6643 30.5598 52.6001 33.0625 52.5L39.3125 56.8125C39.5217 56.9577 39.7703 57.0354 40.025 57.0354C40.2797 57.0354 40.5283 56.9577 40.7375 56.8125L46.9875 52.5C49.4814 52.6126 51.8358 53.6823 53.561 55.4867C55.2862 57.2911 56.2493 59.6911 56.25 62.1875V75ZM75 70H58.75V62.1875C58.7562 59.9875 58.1642 57.8271 57.0375 55.9375L60.6375 57.975C60.8275 58.0847 61.0431 58.1425 61.2625 58.1425C61.4819 58.1425 61.6975 58.0847 61.8875 57.975L67.1875 55C69.2846 55.09 71.2665 55.9844 72.7214 57.4975C74.1762 59.0106 74.9923 61.026 75 63.125V70Z" fill="#727A89"/>
<path d="M61.25 52.5C62.9806 52.5 64.6723 51.9868 66.1112 51.0254C67.5502 50.0639 68.6717 48.6973 69.3339 47.0985C69.9962 45.4996 70.1695 43.7403 69.8319 42.043C69.4943 40.3456 68.6609 38.7865 67.4372 37.5628C66.2135 36.3391 64.6544 35.5058 62.957 35.1681C61.2597 34.8305 59.5004 35.0038 57.9015 35.6661C56.3027 36.3283 54.9361 37.4498 53.9746 38.8888C53.0132 40.3277 52.5 42.0194 52.5 43.75C52.5 46.0706 53.4219 48.2962 55.0628 49.9372C56.7038 51.5781 58.9294 52.5 61.25 52.5ZM61.25 37.5C62.4861 37.5 63.6945 37.8666 64.7223 38.5533C65.7501 39.2401 66.5512 40.2162 67.0242 41.3582C67.4973 42.5003 67.6211 43.7569 67.3799 44.9693C67.1388 46.1817 66.5435 47.2953 65.6694 48.1694C64.7953 49.0435 63.6817 49.6388 62.4693 49.8799C61.2569 50.1211 60.0003 49.9973 58.8582 49.5242C57.7162 49.0512 56.7401 48.2501 56.0533 47.2223C55.3666 46.1945 55 44.9861 55 43.75C55 42.0924 55.6585 40.5027 56.8306 39.3306C58.0027 38.1585 59.5924 37.5 61.25 37.5Z" fill="#727A89"/>
<path d="M53.7503 26.5875L57.7378 12.5C58.4676 12.4537 59.1679 12.1951 59.7526 11.7559C60.3372 11.3167 60.7807 10.7162 61.0285 10.0282C61.2763 9.34018 61.3175 8.59476 61.1471 7.88366C60.9766 7.17255 60.602 6.52678 60.0694 6.02582C59.5367 5.52486 58.8691 5.19057 58.1489 5.06409C57.4287 4.93762 56.6872 5.02447 56.0157 5.31396C55.3442 5.60345 54.772 6.08295 54.3695 6.69345C53.967 7.30395 53.7518 8.01881 53.7503 8.75005C53.7549 9.08862 53.8054 9.42501 53.9003 9.75005L45.5753 15.575L42.8128 8.75005C43.2902 8.20879 43.6012 7.54129 43.7086 6.82764C43.816 6.114 43.7151 5.38453 43.4182 4.72676C43.1213 4.069 42.6409 3.51088 42.0346 3.11939C41.4283 2.72789 40.722 2.51965 40.0003 2.51965C39.2786 2.51965 38.5723 2.72789 37.966 3.11939C37.3598 3.51088 36.8794 4.069 36.5824 4.72676C36.2855 5.38453 36.1847 6.114 36.2921 6.82764C36.3994 7.54129 36.7105 8.20879 37.1878 8.75005L34.4253 15.625L26.1003 9.75005C26.2512 9.23229 26.2886 8.68809 26.21 8.15456C26.1313 7.62104 25.9386 7.11074 25.6448 6.65848C25.3511 6.20623 24.9633 5.82265 24.5078 5.53391C24.0523 5.24518 23.5399 5.05807 23.0055 4.98537C22.4712 4.91267 21.9274 4.95608 21.4114 5.11263C20.8953 5.26919 20.4191 5.53521 20.0152 5.89254C19.6113 6.24988 19.2892 6.69013 19.0709 7.18326C18.8526 7.6764 18.7433 8.21081 18.7503 8.75005C18.7484 9.70479 19.1107 10.6243 19.7634 11.3211C20.4161 12.018 21.31 12.4396 22.2628 12.5L26.2503 26.5875C26.3259 26.8579 26.4904 27.095 26.7171 27.2605C26.9439 27.426 27.2198 27.5104 27.5003 27.5H52.5003C52.7809 27.5104 53.0568 27.426 53.2835 27.2605C53.5103 27.095 53.6747 26.8579 53.7503 26.5875ZM57.5003 7.50005C57.7475 7.50005 57.9892 7.57336 58.1948 7.71071C58.4003 7.84806 58.5606 8.04328 58.6552 8.27169C58.7498 8.5001 58.7745 8.75143 58.7263 8.99391C58.6781 9.23638 58.559 9.45911 58.3842 9.63393C58.2094 9.80874 57.9867 9.9278 57.7442 9.97603C57.5017 10.0243 57.2504 9.9995 57.022 9.90489C56.7936 9.81029 56.5983 9.65007 56.461 9.44451C56.3236 9.23895 56.2503 8.99727 56.2503 8.75005C56.2503 8.41852 56.382 8.10058 56.6164 7.86616C56.8509 7.63174 57.1688 7.50005 57.5003 7.50005ZM40.0003 5.00005C40.2475 5.00005 40.4892 5.07336 40.6948 5.21071C40.9003 5.34806 41.0606 5.54328 41.1552 5.77169C41.2498 6.0001 41.2745 6.25143 41.2263 6.49391C41.1781 6.73638 41.059 6.95911 40.8842 7.13393C40.7094 7.30874 40.4867 7.4278 40.2442 7.47603C40.0017 7.52426 39.7504 7.4995 39.522 7.40489C39.2936 7.31029 39.0983 7.15007 38.961 6.94451C38.8236 6.73895 38.7503 6.49727 38.7503 6.25005C38.7503 5.91852 38.882 5.60058 39.1164 5.36616C39.3509 5.13174 39.6688 5.00005 40.0003 5.00005ZM21.2503 8.75005C21.2503 8.50282 21.3236 8.26114 21.461 8.05558C21.5983 7.85002 21.7936 7.68981 22.022 7.5952C22.2504 7.50059 22.5017 7.47583 22.7442 7.52406C22.9867 7.5723 23.2094 7.69135 23.3842 7.86616C23.559 8.04098 23.6781 8.26371 23.7263 8.50618C23.7745 8.74866 23.7498 8.99999 23.6552 9.2284C23.5606 9.45681 23.4003 9.65203 23.1948 9.78938C22.9892 9.92673 22.7475 10 22.5003 10C22.1688 10 21.8509 9.86835 21.6164 9.63393C21.382 9.39951 21.2503 9.08157 21.2503 8.75005ZM28.4378 25L24.6878 11.8L34.3003 18.525C34.5058 18.6685 34.7497 18.7469 35.0003 18.75C35.1205 18.7677 35.2426 18.7677 35.3628 18.75C35.5431 18.6954 35.7087 18.6006 35.8473 18.4729C35.9858 18.3452 36.0937 18.1878 36.1628 18.0125L39.3753 10C39.7878 10.0835 40.2128 10.0835 40.6253 10L43.8378 18.025C43.907 18.2003 44.0148 18.3577 44.1534 18.4854C44.2919 18.6131 44.4575 18.7079 44.6378 18.7625C44.7586 18.776 44.8807 18.7718 45.0003 18.75C45.2552 18.7494 45.5038 18.6709 45.7128 18.525L55.3253 11.8L51.5628 25H28.4378Z" fill="#727A89"/>
</g>
<defs>
<clipPath id="clip0_522_642">
<rect width="80" height="80" fill="white"/>
</clipPath>
</defs>
</svg>
