<svg width="80" height="80" viewBox="0 0 80 80" fill="none" xmlns="http://www.w3.org/2000/svg">
<g clip-path="url(#clip0_522_627)">
<path d="M40.4498 1C41.2028 1.47184 41.4253 2.16253 41.4074 3.03795C41.3657 4.99156 41.3975 6.94517 41.3915 8.89878C41.3915 10.1296 40.8531 10.7922 39.8795 10.7982C38.906 10.8042 38.3417 10.1235 38.3397 8.91885C38.3397 6.99134 38.3715 5.06183 38.3238 3.13432C38.3019 2.23682 38.5086 1.51601 39.2596 1H40.4498Z" fill="#727A89"/>
<path d="M16.6669 44.4673C13.9985 40.4717 14.4694 38.0423 18.3915 35.4662C16.8715 31.288 17.7239 29.1537 21.6579 27.3326C21.1731 24.0779 22.4626 21.8753 25.5244 20.767C25.5244 20.0642 25.4568 19.3615 25.5363 18.6788C25.6182 17.9562 25.8493 17.259 26.2146 16.6323C26.58 16.0056 27.0715 15.4634 27.6573 15.0408C28.2432 14.6181 28.9103 14.3245 29.6155 14.1789C30.3207 14.0333 31.0483 14.0389 31.7512 14.1954C31.9694 14.2537 32.1981 14.2596 32.4189 14.2125C32.6397 14.1654 32.8466 14.0667 33.0228 13.9243C34.0163 13.2115 35.1706 13.1774 36.3091 13.3822C39.7683 14.0026 43.2175 14.6793 46.6746 15.3097C47.3263 15.4282 48.0138 15.3639 48.6615 15.4924C51.616 16.0747 53.3565 18.6929 52.834 21.7167C52.8181 21.8131 52.822 21.9175 52.8141 22.056C55.9255 23.1563 57.2468 25.3649 56.7362 28.6617C60.0165 30.0391 60.7656 31.296 60.706 35.3116C62.6312 35.914 64.0201 37.1408 64.5426 39.1787C65.0652 41.2166 64.4473 42.9273 62.975 44.4774L65.9553 47.4529C66.0657 47.5528 66.1699 47.6594 66.2672 47.7722C67.1276 48.8765 68.0018 49.5049 69.5933 48.9548C71.1291 48.4227 72.6153 49.1255 73.7995 50.2539C74.7194 51.1313 75.6115 52.0368 76.4877 52.9564C78.5163 55.0867 78.5124 58.1044 76.444 60.2307C74.0478 62.6943 71.6099 65.1198 69.1899 67.5613C66.3858 70.3923 63.5797 73.2227 60.7715 76.0524C58.3634 78.4798 55.4467 78.4798 53.0406 76.0704C52.2459 75.2673 51.4392 74.4983 50.6782 73.6771C49.202 72.0829 48.8145 70.2377 49.6113 68.1998C49.7861 67.752 49.6748 67.5312 49.3848 67.242C47.6244 65.4812 45.8799 63.7023 44.1156 61.9434C43.9342 61.7501 43.6945 61.623 43.4341 61.582C41.5028 61.5057 39.5716 61.4876 37.6423 61.4153C37.1494 61.3835 36.6559 61.4666 36.1998 61.6581C35.7437 61.8495 35.3372 62.1443 35.0117 62.5196C33.4222 64.2283 31.7333 65.8607 30.0962 67.5151C30.3036 68.0048 30.4827 68.5063 30.6326 69.017C31.0638 70.836 30.6127 72.4423 29.3471 73.7936C28.4795 74.7212 27.5861 75.6247 26.6668 76.5041C24.5746 78.512 21.5923 78.512 19.5141 76.472C18.465 75.444 17.4378 74.3919 16.4125 73.3398C15.6178 72.5367 15.582 71.6291 16.2735 70.9585C16.9152 70.3361 17.8272 70.4004 18.5822 71.1473C19.5419 72.0909 20.4777 73.0587 21.4294 74.0084C22.5897 75.1729 23.615 75.181 24.7674 74.0325C25.472 73.3298 26.1727 72.6217 26.8695 71.9082C28.004 70.7517 27.9821 69.8141 26.8317 68.6435C21.8711 63.6025 16.9119 58.5589 11.954 53.5126C11.5685 53.1255 11.164 52.7582 10.742 52.4123C10.132 51.9063 9.07104 51.9545 8.41537 52.5729C7.45769 53.4804 6.52187 54.4141 5.63374 55.3838C4.86482 56.2171 4.91449 57.2853 5.73308 58.1466C6.71063 59.1786 7.73784 60.1544 8.7134 61.1865C9.00025 61.459 9.21944 61.7961 9.35317 62.1703C9.45546 62.4854 9.44415 62.827 9.32125 63.1346C9.19835 63.4421 8.97178 63.6958 8.68161 63.8508C8.0617 64.2323 7.41199 64.2002 6.89342 63.6942C5.59599 62.4172 4.25882 61.1764 3.08855 59.789C1.55071 57.9679 1.66992 55.1489 3.27134 53.374C4.24924 52.2762 5.28386 51.2313 6.37087 50.2438C7.76168 48.9909 9.41675 48.6175 11.2149 49.2138C11.6798 49.3664 11.9679 49.3102 12.3136 48.9508C13.7044 47.4951 15.1429 46.0736 16.5616 44.638C16.6024 44.5849 16.6377 44.5277 16.6669 44.4673ZM60.7636 46.7201C60.6344 46.8365 60.5033 46.947 60.3781 47.0674C60.2172 47.222 60.0662 47.3907 59.9033 47.5433C59.1701 48.2199 58.2661 48.2521 57.6442 47.6216C57.0223 46.9911 57.0481 46.0555 57.7356 45.3447C58.8264 44.2143 59.9609 43.1361 61.0338 41.9816C61.4164 41.5792 61.6301 41.0428 61.6301 40.4848C61.6301 39.9268 61.4164 39.3904 61.0338 38.988C60.2152 38.1226 58.9555 38.0824 58.0297 38.9036C57.6204 39.265 57.2548 39.6766 56.8614 40.0601C56.0666 40.8452 55.1606 40.9195 54.501 40.2609C53.8413 39.6024 53.9049 38.6788 54.6758 37.8756C55.4904 37.0364 56.3428 36.2292 57.1296 35.3618C57.5099 34.9574 57.7202 34.4198 57.7165 33.862C57.7128 33.3041 57.4953 32.7694 57.1097 32.3702C56.2872 31.5189 55.0215 31.4787 54.0956 32.3059C53.6327 32.7195 53.2115 33.1834 52.7684 33.6191C51.9439 34.4342 51.01 34.5125 50.3524 33.8198C49.6947 33.1271 49.796 32.2357 50.5789 31.4345C51.4471 30.5411 52.3512 29.6817 53.1956 28.7661C53.3942 28.566 53.5512 28.3276 53.6573 28.0652C53.7634 27.8027 53.8165 27.5215 53.8133 27.238C53.8102 26.9545 53.7509 26.6746 53.639 26.4146C53.5271 26.1546 53.3649 25.9199 53.1618 25.7243C52.7596 25.3237 52.2175 25.0991 51.6528 25.0991C51.088 25.0991 50.546 25.3237 50.1437 25.7243C49.6689 26.164 49.2338 26.6479 48.7688 27.0976C48.0098 27.8365 47.0998 27.8887 46.4581 27.2442C45.8163 26.5997 45.8461 25.6821 46.5872 24.9131C47.4018 24.0719 48.2363 23.2507 49.0569 22.4154C50.0603 21.3954 50.1418 20.0422 49.2556 19.1426C48.3695 18.2431 47.0581 18.2773 46.023 19.3093C44.8308 20.514 43.6506 21.7307 42.4347 22.9093C42.0552 23.2788 42.0154 23.5558 42.236 24.0518C43.6089 27.2221 41.628 30.9246 38.3119 31.3502C37.6602 31.4325 37.4635 31.6614 37.3622 32.2718C36.9866 34.5206 35.6733 36.0164 33.4937 36.5204C32.5519 36.7392 32.234 37.0725 32.0175 38.0182C31.5108 40.2268 30.0187 41.5078 27.8053 41.9334C27.4655 41.9977 27.0284 41.8712 26.941 42.5037C26.4204 46.3185 22.9672 48.2761 19.4644 46.7321C19.0769 46.5615 18.8942 46.6799 18.6478 46.9329C17.4557 48.1617 16.2417 49.3885 15.0138 50.5912C14.7707 50.7942 14.5038 50.9662 14.219 51.1032L28.2066 65.3226C28.3091 65.0797 28.4427 64.8516 28.604 64.6439C30.1697 63.0377 31.7612 61.4595 33.3268 59.8533C34.0646 59.0608 35.0536 58.5543 36.1223 58.4217C37.0572 58.3299 37.9971 58.3004 38.9358 58.3333C39.9014 58.3494 40.867 58.4237 41.8306 58.498C43.9447 58.6586 45.6256 57.8956 46.9767 56.2352C47.1049 56.0637 47.2679 55.9218 47.4548 55.8191C47.6417 55.7164 47.8482 55.6552 48.0603 55.6396C48.2725 55.624 48.4855 55.6544 48.6852 55.7287C48.8848 55.803 49.0664 55.9196 49.2179 56.0705C49.8854 56.707 49.8437 57.6125 49.1523 58.4056C48.5145 59.1385 47.9085 59.9014 47.3005 60.6383L51.8286 65.2282L65.3811 51.4565L60.7636 46.7201ZM70.2569 51.7396C69.6926 52.095 69.1144 52.342 68.6972 52.7436C66.5851 54.8196 64.5128 56.9399 62.4286 59.0461C59.3066 62.1944 56.1878 65.344 53.0724 68.4949C52.0293 69.551 52.0392 70.6453 53.0724 71.7074C53.8393 72.4905 54.6063 73.2735 55.3891 74.0405C56.3408 74.9722 57.4217 75.0143 58.3456 74.0867C63.6505 68.7553 68.9442 63.4138 74.2267 58.0623C75.1565 57.1206 75.1386 56.0223 74.2267 55.0706C73.418 54.2253 72.6074 53.376 71.7411 52.593C71.3695 52.2516 70.843 52.0709 70.2569 51.7437V51.7396ZM34.4673 31.3924C34.2686 30.9486 34.1772 30.4045 33.8712 30.0772C31.9976 28.1216 30.0962 26.1881 28.153 24.3048C27.3582 23.5257 26.029 23.6502 25.2601 24.4333C24.8874 24.8231 24.6715 25.339 24.6542 25.8808C24.6369 26.4225 24.8196 26.9514 25.1667 27.3647C25.4349 27.6899 25.7449 27.9791 26.0429 28.2802C27.5808 29.8343 29.1127 31.3964 30.6624 32.9384C30.9669 33.2746 31.371 33.5019 31.8141 33.5862C32.2573 33.6706 32.7156 33.6074 33.1202 33.4062C33.9308 33.0408 34.3441 32.3622 34.4673 31.3924ZM39.5755 26.172C39.5755 25.4673 39.353 25.0296 38.6159 24.7023C35.5819 23.347 33.3169 21.1585 32.0592 18.0102C31.994 17.7987 31.8679 17.6116 31.6969 17.4728C31.526 17.334 31.318 17.2499 31.0995 17.2312C30.0942 17.0826 29.2239 17.4982 28.7928 18.3516C28.3616 19.2049 28.4947 20.1847 29.2577 20.9617C30.9426 22.6885 32.6493 24.3951 34.3501 26.1098C34.9104 26.674 35.4528 27.2603 36.0488 27.7863C36.3573 28.0827 36.7509 28.2725 37.1729 28.3285C37.595 28.3844 38.0237 28.3035 38.3973 28.0975C38.7611 27.9321 39.0676 27.6606 39.2775 27.3179C39.4875 26.9752 39.5913 26.5768 39.5755 26.174V26.172ZM26.8933 39.0221C27.847 38.8695 28.5881 38.4037 28.9398 37.6347C29.1325 37.224 29.1909 36.762 29.1066 36.3155C29.0223 35.869 28.7997 35.4612 28.4709 35.151C27.1397 33.7757 25.7946 32.4103 24.4296 31.0691C23.5196 30.1776 22.2023 30.1736 21.3599 31.0069C20.4757 31.8823 20.4678 33.1813 21.4016 34.1531C22.7109 35.5164 24.0322 36.8697 25.4032 38.1688C25.8065 38.5543 26.3906 38.745 26.8933 39.0241V39.0221ZM21.7453 44.1461C22.144 44.1651 22.5393 44.0642 22.8813 43.8562C23.2233 43.6482 23.4966 43.3424 23.6666 42.9775C24.064 42.1945 24.0262 41.3933 23.4679 40.7267C22.8797 40.0192 22.2323 39.3643 21.5327 38.7691C20.8492 38.1909 20.0346 38.1507 19.2399 38.5824C18.8816 38.7602 18.5841 39.0421 18.3855 39.392C18.1869 39.7419 18.0962 40.1437 18.1252 40.546C18.159 41.8993 20.4121 44.1461 21.7453 44.1461ZM34.8368 16.402C35.1647 17.9219 36.2614 19.4137 37.9046 20.7228C39.2298 21.7729 39.2298 21.7729 40.3882 20.6023C40.7558 20.2309 41.1154 19.8494 41.4929 19.49C42.0254 18.986 42.5737 18.4981 43.1142 18.0042L42.9771 17.7653C40.2888 17.3657 37.6642 16.5787 34.8368 16.406V16.402Z" fill="#727A89"/>
<path d="M57.1836 8.16797C57.281 7.98928 57.4121 7.56563 57.6863 7.28052C59.4321 5.47482 61.1977 3.68852 62.9833 1.92164C63.6807 1.22693 64.6185 1.21488 65.2344 1.83731C65.8504 2.45973 65.8504 3.38935 65.149 4.10815C63.3926 5.9152 61.6203 7.68409 59.848 9.46502C59.3453 9.96899 58.7433 10.1356 58.0817 9.83647C57.4876 9.56742 57.1856 9.0735 57.1836 8.16797Z" fill="#727A89"/>
<path d="M15.8047 1.37952C16.0034 1.48392 16.4425 1.62045 16.7385 1.91159C18.5307 3.67178 20.3016 5.45406 22.0514 7.25842C22.7548 7.98124 22.7468 8.89881 22.1051 9.52927C21.4633 10.1597 20.5752 10.1316 19.8559 9.41282C18.0935 7.65798 16.3511 5.88106 14.5947 4.11819C14.086 3.6082 13.9191 3.00786 14.1754 2.33926C14.4119 1.73289 14.8947 1.41365 15.8047 1.37952Z" fill="#727A89"/>
<path d="M10.8235 67.0734C10.85 66.6724 11.0282 66.297 11.3212 66.0252C11.6142 65.7535 11.9995 65.6061 12.3971 65.6137C12.6005 65.6237 12.7999 65.6744 12.9836 65.7629C13.1674 65.8515 13.332 65.9761 13.4677 66.1295C13.6034 66.2829 13.7075 66.462 13.7741 66.6564C13.8407 66.8509 13.8684 67.0568 13.8555 67.2621C13.8468 67.4613 13.7992 67.6569 13.7154 67.8374C13.6315 68.0179 13.5131 68.1799 13.367 68.3139C13.2209 68.448 13.0499 68.5514 12.864 68.6183C12.6781 68.6852 12.4809 68.7143 12.2839 68.7037C12.0804 68.6986 11.8801 68.6517 11.6951 68.566C11.5102 68.4802 11.3444 68.3574 11.2078 68.2049C11.0712 68.0525 10.9667 67.8735 10.9007 67.679C10.8346 67.4845 10.8084 67.2785 10.8235 67.0734Z" fill="#727A89"/>
<path d="M52.8459 53.9583C52.4467 53.9526 52.0656 53.7889 51.7844 53.5025C51.5033 53.2161 51.3444 52.8298 51.3418 52.4264C51.3512 52.0108 51.5218 51.6155 51.8169 51.3259C52.1121 51.0364 52.508 50.8756 52.9194 50.8783C53.318 50.8955 53.6953 51.0648 53.9752 51.3521C54.2551 51.6394 54.4167 52.0233 54.4274 52.4264C54.4243 52.6323 54.3808 52.8355 54.2994 53.0243C54.2181 53.2131 54.1004 53.3837 53.9533 53.5262C53.8062 53.6687 53.6325 53.7803 53.4424 53.8544C53.2523 53.9286 53.0496 53.9639 52.8459 53.9583Z" fill="#727A89"/>
</g>
<defs>
<clipPath id="clip0_522_627">
<rect width="76" height="77" fill="white" transform="translate(2 1)"/>
</clipPath>
</defs>
</svg>
