<svg width="78" height="78" viewBox="0 0 78 78" fill="none" xmlns="http://www.w3.org/2000/svg">
<g clip-path="url(#clip0_522_608)">
<path d="M28.0316 42.6562C30.0376 42.6651 32.0236 42.2571 33.8638 41.4582C35.7039 40.6593 37.358 39.4869 38.7213 38.0152C38.9329 37.7776 39.0433 37.4666 39.0287 37.1488C39.0141 36.8309 38.8758 36.5313 38.6433 36.314C38.4107 36.0968 38.1025 35.9791 37.7843 35.9861C37.4662 35.9932 37.1634 36.1244 36.9407 36.3517C35.8042 37.5778 34.4256 38.5546 32.892 39.2203C31.3585 39.8859 29.7034 40.2259 28.0316 40.2188C25.9856 40.2176 23.9729 39.7013 22.1789 38.7176C20.385 37.7339 18.8675 36.3144 17.7665 34.59C16.6654 32.8655 16.0162 30.8916 15.8787 28.8503C15.7412 26.8089 16.1199 24.7658 16.9797 22.9093C17.8396 21.0528 19.153 19.4426 20.7988 18.2272C22.4447 17.0118 24.37 16.2303 26.3973 15.9548C28.4247 15.6792 30.4887 15.9185 32.3993 16.6506C34.3098 17.3826 36.0053 18.5838 37.3295 20.1435C37.4335 20.2652 37.5605 20.3653 37.7032 20.4379C37.8459 20.5105 38.0015 20.5544 38.1611 20.5669C38.3207 20.5794 38.4812 20.5603 38.6335 20.5108C38.7858 20.4612 38.9268 20.3822 39.0485 20.2782C39.1702 20.1741 39.2703 20.0472 39.3429 19.9045C39.4155 19.7618 39.4594 19.6062 39.4719 19.4465C39.4844 19.2869 39.4653 19.1264 39.4158 18.9741C39.3662 18.8219 39.2872 18.6808 39.1832 18.5591C37.5933 16.6888 35.5582 15.2487 33.2654 14.3716C30.9727 13.4945 28.496 13.2087 26.0638 13.5404C23.6315 13.8721 21.3218 14.8107 19.3477 16.2697C17.3735 17.7287 15.7984 19.6612 14.7674 21.889C13.7364 24.1168 13.2828 26.5683 13.4483 29.0175C13.6139 31.4667 14.3932 33.8348 15.7146 35.9036C17.036 37.9724 18.8568 39.6754 21.0094 40.8554C23.1619 42.0355 25.5768 42.6548 28.0316 42.6562Z" fill="#727A89"/>
<path d="M68.601 60.8961C69.9625 60.2734 71.0215 59.1362 71.5456 57.7338C72.0697 56.3314 72.0162 54.7784 71.3968 53.4154C70.357 50.9656 68.6863 48.8354 66.555 47.2416C64.4237 45.6479 61.9079 44.6477 59.2642 44.343C60.769 42.1471 61.6645 39.5914 61.8594 36.9365C62.0542 34.2816 61.5414 31.6225 60.3732 29.2305C59.9472 28.2918 59.272 27.4878 58.421 26.9061C57.57 26.3243 56.5757 25.987 55.5464 25.9309C54.5171 25.8747 53.4921 26.1018 52.5828 26.5875C51.6735 27.0732 50.9148 27.7989 50.3892 28.6857L46.8 20.8199C46.7336 20.6743 46.6392 20.5431 46.5221 20.434C46.405 20.3248 46.2675 20.2398 46.1175 20.1838C45.9676 20.1277 45.8081 20.1018 45.6481 20.1074C45.4881 20.1131 45.3308 20.1502 45.1852 20.2166L37.1268 23.8875C36.9806 23.9534 36.8488 24.0474 36.739 24.1642C36.6292 24.2811 36.5436 24.4185 36.487 24.5685C36.4304 24.7185 36.4039 24.8782 36.4091 25.0385C36.4144 25.1987 36.4512 25.3563 36.5174 25.5024L45.4594 45.0938H7.3125C6.98927 45.0938 6.67927 45.2222 6.45071 45.4507C6.22215 45.6793 6.09375 45.9893 6.09375 46.3125V76.7813C6.09375 77.1045 6.22215 77.4145 6.45071 77.6431C6.67927 77.8716 6.98927 78 7.3125 78H48.75C49.0732 78 49.3832 77.8716 49.6118 77.6431C49.8403 77.4145 49.9688 77.1045 49.9688 76.7813V54.9985L58.5707 73.8648C58.6371 74.0105 58.7315 74.1416 58.8486 74.2508C58.9657 74.3599 59.1032 74.4449 59.2531 74.501C59.4031 74.557 59.5626 74.5829 59.7226 74.5773C59.8826 74.5716 60.0399 74.5345 60.1855 74.4681L68.25 70.7935C68.3957 70.7271 68.5268 70.6327 68.636 70.5156C68.7451 70.3985 68.8301 70.2611 68.8862 70.1111C68.9422 69.9611 68.9681 69.8016 68.9625 69.6416C68.9568 69.4816 68.9197 69.3243 68.8533 69.1787L65.2702 61.319C66.3976 61.5216 67.56 61.374 68.601 60.8961ZM53.9029 28.6577C54.6771 28.3057 55.5592 28.2747 56.3562 28.5717C57.1532 28.8686 57.8 29.4693 58.1551 30.2421C59.1948 32.3056 59.6408 34.6173 59.4435 36.9195C59.2462 39.2217 58.4132 41.4238 57.0375 43.2803C53.5921 35.7094 53.625 35.7898 52.3136 32.9063C51.9624 32.1319 51.9324 31.25 52.2303 30.4536C52.5282 29.6572 53.1297 29.0114 53.9029 28.6577ZM45.0608 38.3541L39.2438 25.6035L45.0938 22.9405L50.0906 33.9203L50.8974 35.6899L45.0608 38.3541ZM20.7188 75.5625H8.53125V47.5313H20.7188V75.5625ZM32.9062 75.5625H23.1562V47.5313H32.9062V75.5625ZM47.5312 75.5625H35.3438V47.5313H46.5648L47.5312 49.6519V75.5625ZM46.0687 40.5722L51.9187 37.9092C58.8181 53.0437 54.3392 43.2181 59.3068 54.1186L53.4653 56.7816C50.9437 51.2497 50.349 49.9541 46.0687 40.5722ZM66.1245 69.0812L60.283 71.7442L54.4696 58.9936L60.3111 56.3306L66.1245 69.0812ZM63.3372 57.0887C62.4024 55.04 59.503 48.6793 58.6097 46.7196C60.9121 46.8997 63.1193 47.7155 64.9854 49.0761C66.8515 50.4367 68.3032 52.2887 69.1787 54.4257C69.3601 54.8102 69.4633 55.2269 69.4823 55.6515C69.5014 56.0762 69.4359 56.5004 69.2897 56.8996C69.1435 57.2988 68.9194 57.6649 68.6306 57.9768C68.3417 58.2887 67.9938 58.5401 67.607 58.7164C67.2202 58.8927 66.8022 58.9905 66.3773 59.004C65.9524 59.0175 65.5291 58.9465 65.1319 58.795C64.7346 58.6436 64.3715 58.4148 64.0634 58.1219C63.7553 57.829 63.5085 57.4778 63.3372 57.0887Z" fill="#727A89"/>
<path d="M28.0312 10.9688C28.3545 10.9688 28.6645 10.8403 28.893 10.6118C29.1216 10.3832 29.25 10.0732 29.25 9.75V1.21875C29.25 0.895517 29.1216 0.585524 28.893 0.356964C28.6645 0.128404 28.3545 0 28.0312 0C27.708 0 27.398 0.128404 27.1695 0.356964C26.9409 0.585524 26.8125 0.895517 26.8125 1.21875V9.75C26.8125 10.0732 26.9409 10.3832 27.1695 10.6118C27.398 10.8403 27.708 10.9688 28.0312 10.9688Z" fill="#727A89"/>
<path d="M19.9096 11.6073C20.0332 11.906 20.2704 12.1433 20.569 12.2671C20.8676 12.3908 21.2032 12.3909 21.5019 12.2673C21.8005 12.1436 22.0378 11.9064 22.1616 11.6078C22.2854 11.3092 22.2854 10.9736 22.1618 10.675L20.3264 6.24482C20.2027 5.94615 19.9655 5.70883 19.6669 5.58506C19.3683 5.4613 19.0327 5.46123 18.7341 5.58486C18.4354 5.7085 18.1981 5.94572 18.0743 6.24433C17.9506 6.54294 17.9505 6.87849 18.0741 7.17716L19.9096 11.6073Z" fill="#727A89"/>
<path d="M34.5605 12.2667C34.7084 12.328 34.8669 12.3596 35.027 12.3597C35.1871 12.3597 35.3456 12.3282 35.4936 12.267C35.6415 12.2058 35.7759 12.116 35.8891 12.0028C36.0023 11.8896 36.0921 11.7552 36.1534 11.6073L37.9888 7.17716C38.0501 7.02927 38.0816 6.87078 38.0815 6.71072C38.0815 6.55067 38.0499 6.39219 37.9886 6.24433C37.9274 6.09647 37.8376 5.96213 37.7244 5.84898C37.6112 5.73583 37.4768 5.64608 37.3289 5.58486C37.181 5.52364 37.0225 5.49215 36.8625 5.49219C36.7024 5.49222 36.5439 5.52378 36.3961 5.58506C36.2482 5.64635 36.1139 5.73615 36.0007 5.84935C35.8876 5.96255 35.7978 6.09693 35.7366 6.24482L33.9012 10.675C33.7777 10.9735 33.7777 11.3088 33.9014 11.6073C34.025 11.9058 34.2621 12.1429 34.5605 12.2667Z" fill="#727A89"/>
<path d="M26.8125 23.1562H29.25C29.5732 23.1562 29.8832 23.2847 30.1118 23.5132C30.3403 23.7418 30.4688 24.0518 30.4688 24.375C30.4688 24.6982 30.5972 25.0082 30.8257 25.2368C31.0543 25.4653 31.3643 25.5938 31.6875 25.5938C32.0107 25.5938 32.3207 25.4653 32.5493 25.2368C32.7778 25.0082 32.9062 24.6982 32.9062 24.375C32.9062 23.4053 32.521 22.4753 31.8354 21.7896C31.1497 21.104 30.2197 20.7188 29.25 20.7188V19.5C29.25 19.1768 29.1216 18.8668 28.893 18.6382C28.6645 18.4097 28.3545 18.2812 28.0312 18.2812C27.708 18.2812 27.398 18.4097 27.1695 18.6382C26.9409 18.8668 26.8125 19.1768 26.8125 19.5V20.7188C25.8428 20.7188 24.9128 21.104 24.2271 21.7896C23.5415 22.4753 23.1563 23.4053 23.1563 24.375V25.0563C23.1562 25.8236 23.3976 26.5715 23.8463 27.194C24.2949 27.8165 24.928 28.2821 25.6559 28.5248L29.6351 29.8508C29.8777 29.9316 30.0887 30.0867 30.2383 30.294C30.388 30.5014 30.4686 30.7505 30.4688 31.0062V31.6875C30.4688 32.0107 30.3403 32.3207 30.1118 32.5493C29.8832 32.7778 29.5732 32.9062 29.25 32.9062H26.8125C26.4893 32.9062 26.1793 32.7778 25.9507 32.5493C25.7222 32.3207 25.5938 32.0107 25.5938 31.6875C25.5938 31.3643 25.4653 31.0543 25.2368 30.8257C25.0082 30.5972 24.6982 30.4688 24.375 30.4688C24.0518 30.4688 23.7418 30.5972 23.5132 30.8257C23.2847 31.0543 23.1563 31.3643 23.1563 31.6875C23.1563 32.6572 23.5415 33.5872 24.2271 34.2729C24.9128 34.9585 25.8428 35.3438 26.8125 35.3438V36.5625C26.8125 36.8857 26.9409 37.1957 27.1695 37.4243C27.398 37.6528 27.708 37.7812 28.0312 37.7812C28.3545 37.7812 28.6645 37.6528 28.893 37.4243C29.1216 37.1957 29.25 36.8857 29.25 36.5625V35.3438C30.2197 35.3438 31.1497 34.9585 31.8354 34.2729C32.521 33.5872 32.9062 32.6572 32.9062 31.6875V31.0062C32.905 30.2399 32.663 29.4934 32.2145 28.8721C31.7659 28.2508 31.1335 27.7862 30.4066 27.5438L26.4274 26.2177C26.1838 26.1366 25.9721 25.9807 25.8224 25.7721C25.6727 25.5635 25.5927 25.313 25.5938 25.0563V24.375C25.5938 24.0518 25.7222 23.7418 25.9507 23.5132C26.1793 23.2847 26.4893 23.1562 26.8125 23.1562Z" fill="#727A89"/>
</g>
<defs>
<clipPath id="clip0_522_608">
<rect width="78" height="78" fill="white"/>
</clipPath>
</defs>
</svg>
