<svg width="80" height="80" viewBox="0 0 80 80" fill="none" xmlns="http://www.w3.org/2000/svg">
<g clip-path="url(#clip0_522_635)">
<g clip-path="url(#clip1_522_635)">
<path d="M39.0714 79.9999C38.2932 79.6064 37.4104 79.3358 36.7491 78.7947C33.8177 76.4027 34.5251 71.754 38.0041 70.2474C38.2409 70.146 38.4839 70.0568 38.7392 69.9554V65.9584C34.5905 65.7123 30.5754 64.4013 27.0813 62.1521C24.4452 65.2513 21.1631 67.1298 17.1397 67.6433C13.6771 68.1047 10.1626 67.3318 7.21353 65.4604C4.30728 63.6575 2.0908 60.9315 0.919412 57.7194C-0.251977 54.5072 -0.310424 50.995 0.753438 47.7457C1.8173 44.4964 3.94185 41.6982 6.78651 39.7998C9.63117 37.9013 13.0312 37.0125 16.4415 37.2759L19.4159 29.6756L16.5122 27.7048C15.4356 28.1106 14.5282 28.6056 13.5623 28.7809C10.754 29.2882 8.24398 27.3297 7.79797 24.4089C7.38886 21.7186 9.33595 19.1821 12.1782 18.7578C13.4907 18.5737 14.8228 18.9182 15.8813 19.7156C16.9398 20.513 17.6381 21.698 17.8226 23.0099C17.8992 23.7033 17.8681 24.4044 17.7303 25.0883C17.6774 25.2432 17.6833 25.412 17.7468 25.5628C17.8103 25.7136 17.9271 25.8358 18.0748 25.9062C18.9976 26.5211 19.9204 27.136 20.7601 27.714L26.3923 22.3151C26.0847 21.4358 25.6694 20.3812 25.3218 19.3082C25.0511 18.4688 25.3649 17.8508 26.0847 17.6295C26.7398 17.4296 27.3427 17.7955 27.5796 18.6256C28.2375 21.0496 29.5913 23.2279 31.4738 24.8916C31.5876 24.993 31.7137 25.0822 31.9229 25.2421C31.9567 24.7778 31.9782 24.3996 32.0121 24.0122C32.0853 23.0178 32.5335 22.0882 33.2661 21.4113C33.9986 20.7345 34.9609 20.3608 35.9585 20.3658C38.5885 20.3504 41.2185 20.3658 43.8484 20.3658C46.2631 20.3658 47.9056 21.9369 48.0348 24.3627C48.0348 24.6179 48.0625 24.87 48.084 25.2421C48.3424 25.0361 48.5239 24.91 48.6992 24.7624C51.0619 22.6143 52.5372 19.662 52.8365 16.4837C53.1357 13.3053 52.2374 10.1298 50.3172 7.57873C50.1942 7.4127 50.0619 7.25282 49.9358 7.0868C49.4282 6.40117 49.4682 5.74322 50.0434 5.29433C50.6187 4.84544 51.2738 4.98687 51.8152 5.63561C53.0481 7.11894 53.9773 8.8301 54.5497 10.6717C55.7314 14.3482 55.4516 18.3382 53.7684 21.8139C53.6915 21.9769 53.6177 22.1429 53.547 22.3089C53.5285 22.3551 53.5285 22.4073 53.547 22.2659L59.2468 27.7048C60.108 27.1298 61.0923 26.475 62.0705 25.7832C62.1481 25.6835 62.2025 25.5677 62.2297 25.4443C62.2568 25.3209 62.256 25.193 62.2274 25.0699C61.5599 21.9738 63.4239 19.2282 66.5338 18.7517C67.8237 18.5871 69.1276 18.9247 70.1754 19.6944C71.2232 20.4642 71.9348 21.6073 72.1628 22.8869C72.615 25.7032 70.8001 28.3228 68.1148 28.7901C66.463 29.0791 65.0388 28.6179 63.71 27.5603L60.5848 29.6756L63.5162 37.1498C64.9927 37.3158 66.623 37.4081 68.2132 37.7125C69.2973 37.9694 70.3525 38.335 71.363 38.8039C72.2581 39.1698 72.5381 39.8401 72.2028 40.5165C71.8675 41.1929 71.2123 41.3251 70.3172 40.9315C65.4633 38.8009 60.874 39.2344 56.6937 42.5334C50.4433 47.468 50.2588 56.8916 56.2415 62.1521C56.3707 62.2659 56.5214 62.355 56.7429 62.5149C56.7767 61.9707 56.7952 61.5095 56.8413 61.0514C56.9374 60.0981 57.3794 59.213 58.0838 58.5633C58.7883 57.9135 59.7064 57.5441 60.6648 57.5249C63.344 57.5034 66.0262 57.5249 68.7085 57.5249C71.0401 57.5249 72.6857 59.0837 72.8395 61.4112C72.861 61.7186 72.8764 62.0261 72.9041 62.4381C75.2511 60.4611 76.7152 58.0937 77.312 55.2313C78.1579 51.1944 77.2197 47.5634 74.6697 44.3351C74.0545 43.5695 74.073 42.9023 74.6943 42.4288C75.2511 42.0015 75.9524 42.1552 76.5153 42.8439C78.3009 44.9956 79.4484 47.6038 79.8281 50.3735C79.863 50.5225 79.9124 50.6677 79.9758 50.807V54.2413C79.9106 54.3788 79.8611 54.5232 79.8281 54.6717C78.3301 65.9031 65.1311 71.5818 55.9093 64.91C54.8235 64.1291 53.873 63.1544 52.8118 62.229C49.2992 64.4675 45.2651 65.7557 41.1047 65.9677V69.9338C41.3231 70.0107 41.5168 70.0753 41.7199 70.1491C42.5636 70.4455 43.3134 70.9608 43.8924 71.642C44.4715 72.3232 44.8592 73.146 45.0156 74.0262C45.1721 74.9064 45.0918 75.8123 44.7829 76.6512C44.4741 77.4901 43.9478 78.232 43.2578 78.8009C42.6027 79.342 41.7198 79.6095 40.9385 80.003L39.0714 79.9999ZM28.5054 60.2059C35.9278 65.1252 45.7524 64.3012 51.4922 60.1444C51.1046 59.2221 50.6556 58.3489 50.3418 57.4204C49.3375 54.5273 49.2452 51.396 50.0773 48.4488C50.1603 48.1414 50.3849 47.8339 49.8896 47.6125C48.4532 47.0222 47.029 46.4042 45.614 45.8047C42.7134 49.7555 37.3397 49.8016 34.4052 45.8047C33.0087 46.395 31.5937 46.973 30.2034 47.6064C30.1024 47.6914 30.0233 47.7995 29.973 47.9215C29.9227 48.0436 29.9025 48.1759 29.9142 48.3074C30.0188 49.076 30.2218 49.8447 30.3541 50.5949C30.5202 51.5603 30.1388 52.2059 29.376 52.3135C28.6746 52.4089 28.1179 51.8554 28.0041 50.9392C27.8034 49.2181 27.2534 47.556 26.3876 46.0548C25.5219 44.5536 24.3587 43.2448 22.9692 42.2086C21.5798 41.1724 19.9934 40.4306 18.3071 40.0286C16.6208 39.6267 14.8702 39.5729 13.1625 39.8708C8.33011 40.6763 4.9527 43.4742 3.23015 48.0215C1.5076 52.5687 2.32581 56.9069 5.38333 60.7563C5.85396 61.3527 6.37379 61.9092 6.86903 62.4811L7.1151 62.2843C7.1151 62.0845 7.13971 61.8816 7.14894 61.6694C7.25352 59.056 8.86226 57.5188 11.4953 57.5188H18.9146C21.5107 57.5188 23.1317 59.1083 23.2209 61.7217C23.2209 61.9584 23.2455 62.1921 23.264 62.5549C25.2125 61.0079 26.6762 58.9346 27.4811 56.581C27.8318 55.5572 28.367 55.1852 29.0899 55.4373C29.8773 55.7109 30.0988 56.3166 29.7051 57.3743C29.3421 58.3182 28.9146 59.2344 28.5054 60.2059ZM41.2615 30.4934V35.5541C45.1865 36.784 46.7183 39.0069 46.586 43.1637C46.5907 43.2794 46.6222 43.3926 46.6783 43.494C46.7344 43.5954 46.8134 43.6823 46.909 43.7478C48.3024 44.3627 49.7174 44.9531 51.1785 45.571C52.1883 43.6794 53.5643 42.0072 55.2265 40.6517C56.9367 39.2976 58.9055 38.3068 61.0124 37.7401C59.7574 32.1506 56.8229 27.7847 52.1874 24.4796C49.3452 28.0307 45.734 30.0138 41.2615 30.4934ZM27.8164 24.4642C23.1717 27.8462 20.2218 32.1813 19.013 37.7401C23.467 38.9976 26.6999 41.611 28.853 45.568C30.3141 44.953 31.7291 44.3781 33.1163 43.7417C33.2978 43.6587 33.4024 43.2651 33.4239 43.0038C33.5008 42.1829 33.3932 41.3281 33.587 40.5441C34.2545 37.8447 36.0877 36.2766 38.7546 35.5756V30.4903C36.6133 30.2979 34.5353 29.6628 32.6523 28.6255C30.7694 27.5881 29.1227 26.1711 27.8164 24.4642ZM44.2606 42.1583C44.257 41.3188 44.0046 40.4993 43.5354 39.803C43.0663 39.1068 42.4012 38.565 41.6243 38.2462C40.8474 37.9273 39.9935 37.8456 39.1702 38.0114C38.3468 38.1771 37.5911 38.583 36.9983 39.1776C36.4055 39.7723 36.0022 40.5291 35.8394 41.3527C35.6765 42.1762 35.7613 43.0295 36.0831 43.8049C36.4049 44.5803 36.9493 45.243 37.6476 45.7094C38.3458 46.1759 39.1667 46.4251 40.0065 46.4258C41.1359 46.4209 42.2175 45.9692 43.0147 45.1695C43.8118 44.3698 44.2598 43.2872 44.2606 42.1583ZM64.7558 65.3497L64.802 65.5618C66.26 65.239 67.7365 64.9869 69.1668 64.5718C70.5079 64.1813 70.4833 64.1045 70.4833 62.6933C70.4833 62.3274 70.4833 61.9646 70.4833 61.6018C70.4556 60.5903 69.8681 59.9077 68.8469 59.8954C66.181 59.8626 63.5049 59.8626 60.8186 59.8954C59.8097 59.8954 59.2283 60.5995 59.2129 61.6233C59.2129 62.272 59.2406 62.9238 59.1976 63.5726C59.1733 63.7509 59.2171 63.9319 59.3202 64.0795C59.4234 64.227 59.5784 64.3304 59.7543 64.3689C61.3357 65.038 63.0387 65.3719 64.7558 65.3497ZM15.2326 65.5403C16.6445 65.2328 18.0748 65.0238 19.4621 64.6394C20.8493 64.2551 20.794 64.1936 20.794 62.764C20.794 62.3735 20.794 61.983 20.794 61.5956C20.7663 60.5872 20.1788 59.9077 19.1545 59.8954C16.4886 59.8626 13.8136 59.8626 11.1293 59.8954C10.1203 59.8954 9.53897 60.5995 9.52359 61.6233C9.52359 62.2382 9.55435 62.8716 9.50821 63.4926C9.47437 63.9446 9.68047 64.1291 10.0557 64.2889C11.707 64.9853 13.4607 65.408 15.248 65.5403H15.2326ZM45.6479 25.3743C45.6479 25.0883 45.6479 24.8024 45.6479 24.5165C45.6294 23.4096 45.0327 22.7394 43.9284 22.7301C41.3015 22.7015 38.6746 22.7015 36.0477 22.7301C34.9896 22.7301 34.3929 23.4158 34.3744 24.4765C34.3744 25.073 34.4083 25.6756 34.3744 26.269C34.3344 26.7517 34.5559 26.9423 34.965 27.1114C37.8833 28.3635 41.1642 28.4819 44.1653 27.4434C45.651 26.9423 45.6479 26.9361 45.6479 25.3743ZM15.5033 23.837C15.5099 23.3062 15.3591 22.7854 15.0699 22.3403C14.7807 21.8951 14.3661 21.5455 13.8784 21.3355C13.3906 21.1256 12.8516 21.0648 12.3293 21.1607C11.807 21.2566 11.3249 21.505 10.9436 21.8745C10.5624 22.244 10.2992 22.718 10.1872 23.2369C10.0752 23.7557 10.1194 24.2961 10.3143 24.7899C10.5092 25.2836 10.846 25.7086 11.2823 26.0112C11.7186 26.3139 12.2347 26.4806 12.7657 26.4903C13.1246 26.5077 13.4833 26.4511 13.8195 26.3242C14.1557 26.1972 14.4622 26.0026 14.72 25.7524C14.9778 25.5022 15.1815 25.2017 15.3183 24.8696C15.4552 24.5374 15.5223 24.1807 15.5156 23.8216L15.5033 23.837ZM67.1489 26.4903C67.6791 26.4957 68.1989 26.3441 68.643 26.0546C69.0871 25.7652 69.4355 25.3508 69.6444 24.8637C69.8532 24.3766 69.9131 23.8387 69.8166 23.3176C69.7201 22.7966 69.4714 22.3157 69.1019 21.9357C68.7324 21.5557 68.2586 21.2935 67.7403 21.1822C67.2219 21.0709 66.6822 21.1154 66.1892 21.3102C65.6961 21.5049 65.2718 21.8412 64.9696 22.2767C64.6675 22.7121 64.501 23.2272 64.4913 23.757C64.4783 24.1133 64.5381 24.4685 64.667 24.8009C64.7959 25.1332 64.9913 25.4359 65.2412 25.6902C65.4911 25.9446 65.7902 26.1454 66.1203 26.2803C66.4505 26.4152 66.8046 26.4815 67.1612 26.475L67.1489 26.4903ZM37.312 74.9146C37.3151 75.4434 37.4742 75.9596 37.7695 76.3984C38.0647 76.8373 38.483 77.1793 38.9718 77.3816C39.4606 77.5839 39.9983 77.6376 40.5175 77.5358C41.0367 77.4341 41.5143 77.1815 41.8905 76.8097C42.2668 76.4379 42.5249 75.9633 42.6325 75.4456C42.7402 74.9278 42.6926 74.3898 42.4957 73.8989C42.2988 73.4081 41.9614 72.9862 41.5257 72.6861C41.0901 72.3861 40.5755 72.2212 40.0465 72.2121C39.3291 72.2088 38.6396 72.4897 38.1288 72.9933C37.6181 73.4969 37.3277 74.1822 37.3212 74.8992L37.312 74.9146Z" fill="#727A89"/>
<path d="M47.6741 2.51188C47.6587 3.79397 46.819 4.16599 45.7947 3.81549C44.3336 3.31741 42.8541 2.74862 41.3407 2.54263C35.1057 1.70327 28.9353 6.07529 27.4988 12.2275C27.4003 12.6548 27.345 13.0945 27.2342 13.5219C27.0528 14.2382 26.4929 14.6472 25.89 14.5365C25.7226 14.504 25.5635 14.4378 25.4225 14.3418C25.2815 14.2458 25.1616 14.1221 25.0701 13.9782C24.9785 13.8343 24.9173 13.6733 24.8901 13.505C24.8629 13.3367 24.8703 13.1646 24.9119 12.9992C26.0039 7.05915 29.369 2.96384 35.0288 0.891588C39.0276 -0.571902 42.9956 -0.218327 46.8128 1.651C47.2281 1.86315 47.4988 2.33048 47.6741 2.51188Z" fill="#727A89"/>
<path d="M39.9787 17.0853C39.3542 17.0862 38.7359 16.9628 38.1597 16.7223C37.5835 16.4819 37.061 16.1291 36.6226 15.6846C36.1843 15.2402 35.8389 14.7129 35.6065 14.1336C35.3742 13.5543 35.2595 12.9346 35.2693 12.3105C35.2579 11.6786 35.373 11.0508 35.6079 10.4641C35.8429 9.8773 36.1929 9.34346 36.6374 8.89397C37.0819 8.44447 37.6119 8.08841 38.1961 7.84674C38.7804 7.60508 39.4071 7.48269 40.0394 7.48679C40.6717 7.4909 41.2968 7.6214 41.8778 7.87063C42.4589 8.11986 42.9842 8.48277 43.4228 8.93799C43.8615 9.39322 44.2045 9.93156 44.4318 10.5213C44.6591 11.1111 44.7661 11.7403 44.7464 12.372C44.7489 12.9961 44.627 13.6144 44.3876 14.1908C44.1482 14.7673 43.7963 15.2902 43.3524 15.729C42.9084 16.1679 42.3814 16.5139 41.8022 16.7468C41.2229 16.9796 40.603 17.0947 39.9787 17.0853ZM37.6532 12.372C37.6504 12.9966 37.8959 13.5968 38.3357 14.0405C38.7756 14.4842 39.3737 14.7351 39.9986 14.7379C40.6236 14.7408 41.224 14.4954 41.6679 14.0557C42.1118 13.6161 42.3628 13.0182 42.3656 12.3936C42.367 12.0843 42.3075 11.7777 42.1904 11.4915C42.0733 11.2052 41.9009 10.9448 41.6831 10.7251C41.4653 10.5054 41.2064 10.3307 40.921 10.2111C40.6357 10.0914 40.3296 10.0291 40.0202 10.0277C39.7108 10.0263 39.4041 10.0858 39.1177 10.2028C38.8313 10.3199 38.5707 10.4922 38.3509 10.7099C38.1312 10.9276 37.9564 11.1864 37.8367 11.4716C37.717 11.7568 37.6546 12.0628 37.6532 12.372Z" fill="#727A89"/>
<path d="M64.8112 54.2475C64.193 54.2483 63.5808 54.1271 63.0097 53.891C62.4385 53.6548 61.9195 53.3083 61.4826 52.8713C61.0457 52.4343 60.6993 51.9154 60.4635 51.3443C60.2276 50.7732 60.1068 50.1612 60.108 49.5434C60.0919 48.9112 60.2025 48.2823 60.4334 47.6936C60.6643 47.1048 61.0108 46.5682 61.4524 46.1155C61.894 45.6627 62.4218 45.3028 63.0047 45.0571C63.5876 44.8114 64.2139 44.6848 64.8465 44.6848C65.4792 44.6848 66.1054 44.8114 66.6883 45.0571C67.2713 45.3028 67.7991 45.6627 68.2407 46.1155C68.6823 46.5682 69.0288 47.1048 69.2597 47.6936C69.4905 48.2823 69.6012 48.9112 69.5851 49.5434C69.5855 50.167 69.4619 50.7845 69.2213 51.3598C68.9807 51.9352 68.628 52.457 68.1837 52.8947C67.7394 53.3325 67.2124 53.6776 66.6334 53.9098C66.0544 54.1421 65.435 54.2568 64.8112 54.2475ZM67.2012 49.5188C67.1835 48.9089 66.9297 48.3297 66.4932 47.9032C66.0568 47.4766 65.4718 47.236 64.8614 47.232C64.251 47.228 63.6629 47.461 63.2209 47.8818C62.7789 48.3026 62.5175 48.8785 62.4919 49.488C62.4786 49.8041 62.5291 50.1196 62.6404 50.4157C62.7518 50.7118 62.9216 50.9824 63.1399 51.2115C63.3582 51.4405 63.6204 51.6232 63.9109 51.7488C64.2013 51.8743 64.5141 51.9401 64.8306 51.9422C65.1471 51.9442 65.4607 51.8825 65.7528 51.7608C66.0449 51.6391 66.3094 51.4598 66.5307 51.2336C66.7519 51.0074 66.9253 50.739 67.0405 50.4444C67.1557 50.1498 67.2104 49.835 67.2012 49.5188Z" fill="#727A89"/>
<path d="M15.1954 54.2475C14.5709 54.2556 13.9511 54.1393 13.3721 53.9054C12.7932 53.6714 12.2666 53.3244 11.8233 52.8848C11.38 52.4451 11.0288 51.9215 10.7902 51.3446C10.5516 50.7678 10.4305 50.1491 10.4338 49.5249C10.4147 48.8931 10.5224 48.2638 10.7504 47.6742C10.9784 47.0846 11.3221 46.5465 11.7613 46.0917C12.2005 45.6369 12.7264 45.2745 13.3079 45.0259C13.8893 44.7774 14.5147 44.6476 15.1471 44.6444C15.7795 44.6411 16.4062 44.7643 16.9902 45.0068C17.5743 45.2493 18.1038 45.6062 18.5478 46.0565C18.9917 46.5067 19.341 47.0411 19.5751 47.6284C19.8092 48.2156 19.9234 48.8437 19.9109 49.4757C19.9199 50.0999 19.8045 50.7197 19.5714 51.2988C19.3383 51.878 18.9923 52.405 18.5534 52.8491C18.1145 53.2932 17.5915 53.6456 17.015 53.8857C16.4385 54.1258 15.8199 54.2487 15.1954 54.2475ZM15.1954 47.176C14.8842 47.1668 14.5743 47.2206 14.2844 47.3341C13.9944 47.4475 13.7304 47.6183 13.5081 47.8362C13.2858 48.0541 13.1097 48.3147 12.9906 48.6022C12.8714 48.8897 12.8116 49.1983 12.8146 49.5096C12.8001 49.8253 12.8493 50.1407 12.9593 50.437C13.0693 50.7333 13.2378 51.0044 13.4549 51.2343C13.6719 51.4641 13.933 51.6479 14.2226 51.7748C14.5123 51.9016 14.8244 51.9689 15.1406 51.9726C15.4568 51.9763 15.7705 51.9164 16.063 51.7964C16.3555 51.6764 16.6209 51.4988 16.8433 51.2741C17.0656 51.0494 17.2405 50.7823 17.3575 50.4887C17.4744 50.195 17.531 49.8809 17.5239 49.5649C17.5334 49.2543 17.4802 48.945 17.3675 48.6555C17.2547 48.3659 17.0847 48.1021 16.8677 47.8797C16.6506 47.6573 16.3909 47.4809 16.1041 47.361C15.8173 47.2412 15.5093 47.1803 15.1985 47.1821L15.1954 47.176Z" fill="#727A89"/>
</g>
</g>
<defs>
<clipPath id="clip0_522_635">
<rect width="80" height="80" fill="white"/>
</clipPath>
<clipPath id="clip1_522_635">
<rect width="80" height="80" fill="white"/>
</clipPath>
</defs>
</svg>
