<svg width="132" height="49" viewBox="0 0 132 49" fill="none" xmlns="http://www.w3.org/2000/svg">
<g clip-path="url(#clip0_2624_6895)">
<path d="M-0.0283203 22.2748V0.0217358H6.42592C7.9333 -0.00536124 9.43542 0.204382 10.8756 0.643076C12.0474 1.01424 13.0735 1.7336 13.8127 2.70219C14.5832 3.84638 14.9591 5.20415 14.8847 6.57478C14.9406 7.93359 14.5744 9.27696 13.8347 10.4258C13.1079 11.4553 12.0852 12.2478 10.8976 12.7017C9.49549 13.2427 7.99771 13.503 6.49202 13.4675H2.76925V22.2964L-0.0283203 22.2748ZM2.83533 11.1338H6.21299C8.17105 11.1338 9.63959 10.7653 10.6186 10.0284C11.1274 9.60637 11.5262 9.07071 11.7816 8.46614C12.0371 7.86157 12.1419 7.2057 12.0872 6.55317C12.0872 4.93959 11.5854 3.82452 10.5819 3.20799C9.20854 2.50107 7.6643 2.17865 6.11753 2.27593H2.87205L2.83533 11.1338Z" fill="black"/>
<path d="M26.4053 22.2748V0.0217109H33.4763C34.8705 -0.00151776 36.2593 0.19854 37.5882 0.614123C38.7119 0.962766 39.6957 1.65032 40.4005 2.57939C41.1265 3.67096 41.4814 4.96126 41.4138 6.26413C41.4669 7.57224 41.1134 8.86521 40.4005 9.97056C39.6968 10.9464 38.7196 11.6995 37.5882 12.1381C36.2788 12.6411 34.8818 12.8866 33.4763 12.8606H29.2689V22.2531L26.4053 22.2748ZM29.2689 10.5557H33.0651C34.5058 10.6469 35.9371 10.2713 37.1403 9.48645C37.6224 9.09657 38.0022 8.59837 38.2476 8.03378C38.4929 7.46919 38.5967 6.85476 38.5501 6.24243C38.6085 5.654 38.509 5.06078 38.2616 4.52199C38.0142 3.9832 37.6276 3.51768 37.1403 3.1718C35.8946 2.50205 34.4821 2.19154 33.0651 2.27591H29.2689V10.5557ZM38.8145 22.2748L32.9403 12.0874L35.1872 10.5919L42.0893 22.2748H38.8145Z" fill="black"/>
<path d="M52.9707 22.2748V0.0217285H55.8344V22.2964L52.9707 22.2748Z" fill="black"/>
<path d="M73.0895 22.2748L65.8423 0.0217285H68.9189L72.5388 12.0369C72.95 13.3735 73.3172 14.6163 73.6256 15.7578C73.934 16.8994 74.3084 18.1204 74.749 19.3703H74.8665C75.2777 18.0843 75.6375 16.8632 75.9532 15.7578C76.2689 14.6524 76.6214 13.3735 77.0399 12.0369L80.6599 0.0217285H83.597L76.4158 22.2964L73.0895 22.2748Z" fill="black"/>
<path d="M90.2861 22.2748L97.9373 0.0217285H101.183L108.841 22.2964H105.772L101.836 9.83326C101.425 8.60982 101.036 7.37676 100.669 6.13406C100.294 4.88413 99.9345 3.61974 99.56 2.32646H99.4205C99.0778 3.64142 98.7229 4.91545 98.3558 6.14852C97.9886 7.38159 97.597 8.60982 97.181 9.83326L93.2232 22.2748H90.2861ZM94.2879 15.4833V13.2074H104.744V15.4833H94.2879Z" fill="black"/>
<path d="M122.273 22.2748V2.37709H115.437V0.0217285H132.002V2.39878H125.166V22.2964L122.273 22.2748Z" fill="black"/>
<path d="M7.67664 48.9929C6.25253 49.0208 4.85374 48.6199 3.66753 47.844C2.48028 47.0271 1.54728 45.9014 0.972752 44.5928C0.2923 43.0205 -0.038191 41.3232 0.00350775 39.6148C-0.0141518 38.3134 0.171585 37.017 0.554211 35.7711C0.888263 34.6977 1.432 33.6989 2.15493 32.8305C2.82356 32.0289 3.67008 31.3887 4.62942 30.9592C5.63125 30.5186 6.71895 30.2992 7.81616 30.3162C8.79681 30.2946 9.76699 30.5183 10.6358 30.9664C11.3734 31.354 12.0368 31.865 12.5963 32.4765L11.862 33.3218C11.3657 32.7639 10.7649 32.3052 10.0924 31.9707C9.40886 31.6338 8.65409 31.4605 7.88959 31.465C6.65954 31.436 5.45081 31.7845 4.43116 32.4621C3.42313 33.1717 2.64125 34.149 2.17696 35.2798C1.61722 36.6571 1.34743 38.1319 1.38394 39.6148C1.3564 41.0957 1.62071 42.5679 2.16227 43.9498C2.6008 45.1005 3.36524 46.1034 4.36508 46.8398C5.36073 47.5286 6.55545 47.8832 7.7721 47.8513C8.64511 47.8702 9.50962 47.6793 10.2906 47.295C11.0904 46.8691 11.8085 46.3092 12.4127 45.6405L13.147 46.4352C12.4702 47.1997 11.6594 47.8384 10.7532 48.3209C9.80041 48.793 8.74299 49.024 7.67664 48.9929Z" fill="black"/>
<path d="M22.4048 48.6677V30.6414H23.6824V47.5767H32.1339V48.6677H22.4048Z" fill="black"/>
<path d="M46.423 48.9929C45.65 48.9947 44.8816 48.8752 44.1468 48.6389C43.4068 48.4045 42.7312 48.0066 42.1716 47.4757C41.5425 46.856 41.0719 46.0982 40.7985 45.2648C40.4241 44.1294 40.2503 42.9393 40.2845 41.7462V30.6414H41.5474V41.609C41.4877 42.8974 41.7184 44.1828 42.223 45.3732C42.5951 46.1868 43.2267 46.859 44.0219 47.2878C44.7601 47.66 45.5789 47.8508 46.4083 47.8441C47.2663 47.854 48.1144 47.6634 48.8828 47.2878C49.6921 46.8657 50.3373 46.1927 50.7185 45.3732C51.2388 44.1869 51.4774 42.8996 51.4161 41.609V30.6414H52.6129V41.7462C52.645 42.9398 52.4687 44.1299 52.0916 45.2648C51.8189 46.1019 51.3425 46.8609 50.7038 47.4757C50.1378 48.0056 49.4576 48.4032 48.7139 48.6389C47.9742 48.8755 47.2009 48.995 46.423 48.9929Z" fill="black"/>
<path d="M63.5254 48.6675V30.6412H68.467C69.5576 30.6207 70.6442 30.7769 71.6832 31.1036C72.5118 31.3726 73.242 31.875 73.7832 32.5486C74.3004 33.2717 74.5586 34.1434 74.5174 35.0267C74.5344 35.9025 74.2781 36.7624 73.7832 37.4905C73.2772 38.1966 72.5374 38.7075 71.6905 38.9355V39.0439C72.7719 39.1759 73.7787 39.656 74.5542 40.4094C74.926 40.8116 75.2129 41.2825 75.3982 41.7948C75.5835 42.307 75.6635 42.8504 75.6335 43.3933C75.669 44.4202 75.3734 45.4318 74.7891 46.2833C74.1953 47.0895 73.3728 47.7053 72.4248 48.0534C71.2729 48.4672 70.0527 48.6658 68.8268 48.6387L63.5254 48.6675ZM64.803 38.5525H67.9824C69.8524 38.5525 71.201 38.2468 72.0283 37.635C72.4268 37.3497 72.7483 36.9727 72.9647 36.5369C73.181 36.1011 73.2855 35.6198 73.2692 35.1351C73.3213 34.6114 73.2271 34.0836 72.9968 33.6087C72.7665 33.1338 72.4087 32.7298 71.9622 32.4402C70.7749 31.8501 69.4497 31.5809 68.1219 31.6599H64.8177L64.803 38.5525ZM64.803 47.6055H68.4744C69.9849 47.6846 71.4865 47.3334 72.7992 46.594C73.3212 46.2477 73.7413 45.7723 74.0172 45.2155C74.293 44.6587 74.4149 44.0401 74.3706 43.4222C74.4072 42.8477 74.2827 42.2744 74.0108 41.7648C73.7389 41.2552 73.33 40.8288 72.8286 40.5322C71.4898 39.8391 69.9848 39.517 68.4744 39.6002H64.803V47.6055Z" fill="black"/>
</g>
<defs>
<clipPath id="clip0_2624_6895">
<rect width="132" height="49" fill="white"/>
</clipPath>
</defs>
</svg>
