<svg width="1634" height="1635" viewBox="0 0 1634 1635" fill="none" xmlns="http://www.w3.org/2000/svg">
<g clip-path="url(#clip0_1047_197)">
<rect opacity="0.36" x="244" y="237" width="1146" height="1146" fill="url(#paint0_radial_1047_197)"/>
<g opacity="0.3">
<path d="M837.405 496.263H797.582L786.023 520.446L817.001 551.369L847.979 520.446L837.405 496.263ZM817.871 526.084C817.074 526.072 816.281 525.981 815.502 525.812C815.502 528.544 815.559 531.719 815.708 533.08C815.857 534.44 816.12 535.143 817.482 535.348C818.26 535.447 819.044 535.497 819.828 535.495C820.343 535.495 820.56 535.756 820.56 535.96C820.56 536.164 820.194 536.425 819.725 536.425C816.647 536.425 813.419 536.266 812.218 536.266C811.016 536.266 808.258 536.425 806.427 536.425C805.855 536.425 805.546 536.266 805.546 535.96C805.546 535.654 805.707 535.495 806.279 535.495C806.821 535.509 807.362 535.46 807.892 535.348C808.831 535.132 809.094 534.304 809.243 533.08C809.426 531.447 809.449 527.41 809.449 524.009C808.206 523.688 806.939 523.464 805.661 523.34C801.358 522.898 797.65 525.778 797.364 525.993C798.198 524.205 799.544 522.699 801.235 521.663C802.926 520.626 804.887 520.106 806.874 520.165C810.227 520.244 812.493 521.775 818.478 523.034C823.055 523.986 826.946 520.766 826.946 520.766C826.625 520.936 823.696 526.073 817.871 526.084ZM819.405 521.616C818.955 521.645 818.504 521.645 818.054 521.616C817.986 521.624 817.916 521.618 817.85 521.599C817.784 521.58 817.722 521.547 817.669 521.504C817.615 521.461 817.571 521.407 817.539 521.347C817.507 521.286 817.488 521.22 817.482 521.152C817.482 520.8 817.997 520.585 818.993 520.585C821.544 520.585 825.138 517.954 825.138 513.464C825.207 512.248 825 511.032 824.533 509.906C824.065 508.78 823.349 507.772 822.437 506.955C821.167 505.868 819.538 505.279 817.86 505.3C817.193 505.281 816.528 505.349 815.88 505.504C815.617 505.617 815.514 505.867 815.514 506.332V521.288C813.122 520.721 811.177 520.154 809.46 519.609V515.992C809.46 509.337 809.46 508.055 809.46 506.695C809.46 505.334 808.934 504.733 807.48 504.325C806.877 504.207 806.264 504.153 805.649 504.166C805.18 504.166 804.871 504.007 804.871 503.701C804.871 503.395 805.237 503.293 805.912 503.293C808.316 503.293 811.234 503.395 812.538 503.395C814.415 503.395 818.054 503.293 820.148 503.293C825.87 503.293 827.964 505.153 828.697 505.765C830.122 507.161 830.943 509.052 830.985 511.037C830.928 517.172 825.927 521.616 819.405 521.616Z" stroke="#36B8BC" stroke-width="0.75" stroke-miterlimit="10"/>
<path d="M641.739 1019.78L613.579 991.622L588.306 1000.55L588.345 1044.32L632.115 1044.36L641.739 1019.78ZM606.839 1027.06C606.284 1026.48 605.787 1025.86 605.357 1025.19C603.424 1027.12 601.22 1029.41 600.363 1030.47C599.506 1031.54 599.195 1032.22 600.014 1033.33C600.493 1033.95 601.013 1034.54 601.568 1035.09C601.933 1035.46 601.902 1035.8 601.758 1035.94C601.613 1036.08 601.17 1036.01 600.838 1035.68C598.661 1033.5 596.492 1031.11 595.642 1030.26C594.792 1029.41 592.73 1027.57 591.435 1026.28C591.031 1025.87 590.925 1025.54 591.141 1025.32C591.357 1025.11 591.583 1025.11 591.988 1025.51C592.361 1025.91 592.779 1026.25 593.233 1026.55C594.049 1027.06 594.82 1026.66 595.791 1025.9C597.075 1024.88 599.946 1022.04 602.351 1019.63C601.699 1018.53 600.962 1017.47 600.146 1016.48C597.416 1013.13 592.758 1012.54 592.403 1012.49C594.257 1011.82 596.274 1011.7 598.202 1012.17C600.13 1012.63 601.885 1013.65 603.248 1015.09C605.563 1017.52 606.083 1020.21 609.425 1025.33C611.988 1029.24 617.017 1029.71 617.017 1029.71C616.67 1029.61 610.966 1031.17 606.839 1027.06ZM611.083 1024.98C610.745 1024.68 610.426 1024.36 610.128 1024.03C610.074 1023.98 610.029 1023.93 609.996 1023.87C609.962 1023.81 609.942 1023.74 609.935 1023.67C609.928 1023.61 609.934 1023.54 609.954 1023.47C609.975 1023.41 610.008 1023.35 610.052 1023.29C610.3 1023.04 610.817 1023.26 611.521 1023.96C613.325 1025.77 617.726 1026.45 620.901 1023.27C621.81 1022.46 622.523 1021.45 622.989 1020.33C623.455 1019.2 623.662 1017.98 623.594 1016.76C623.465 1015.09 622.73 1013.52 621.528 1012.35C621.07 1011.87 620.551 1011.44 619.984 1011.1C619.717 1010.99 619.468 1011.09 619.139 1011.42L608.564 1022C607.274 1019.91 606.299 1018.13 605.47 1016.53L608.028 1013.97C612.734 1009.27 613.64 1008.36 614.602 1007.4C615.564 1006.44 615.617 1005.64 614.878 1004.32C614.535 1003.81 614.139 1003.34 613.695 1002.91C613.364 1002.58 613.257 1002.25 613.474 1002.04C613.69 1001.82 614.021 1002.01 614.499 1002.48C616.198 1004.18 618.189 1006.32 619.112 1007.24C620.439 1008.57 623.084 1011.07 624.565 1012.55C628.611 1016.6 628.777 1019.39 628.862 1020.34C628.883 1022.34 628.126 1024.26 626.752 1025.69C622.374 1029.99 615.695 1029.59 611.083 1024.98Z" stroke="#36B8BC" stroke-width="0.75" stroke-miterlimit="10"/>
<path d="M1021.48 990.926L993.321 1019.09L1002.25 1044.36L1046.02 1044.32L1046.06 1000.55L1021.48 990.926ZM1028.75 1025.83C1028.18 1026.38 1027.56 1026.88 1026.89 1027.31C1028.82 1029.24 1031.1 1031.44 1032.17 1032.3C1033.24 1033.16 1033.92 1033.47 1035.03 1032.65C1035.65 1032.17 1036.24 1031.65 1036.79 1031.1C1037.16 1030.73 1037.5 1030.76 1037.64 1030.91C1037.78 1031.05 1037.71 1031.49 1037.38 1031.83C1035.2 1034 1032.81 1036.17 1031.96 1037.02C1031.11 1037.87 1029.27 1039.93 1027.97 1041.23C1027.57 1041.63 1027.24 1041.74 1027.02 1041.52C1026.81 1041.31 1026.81 1041.08 1027.21 1040.68C1027.61 1040.3 1027.95 1039.89 1028.25 1039.43C1028.76 1038.62 1028.36 1037.84 1027.6 1036.87C1026.58 1035.59 1023.74 1032.72 1021.33 1030.31C1020.23 1030.97 1019.17 1031.7 1018.18 1032.52C1014.83 1035.25 1014.24 1039.91 1014.19 1040.26C1013.51 1038.41 1013.4 1036.39 1013.86 1034.46C1014.33 1032.53 1015.35 1030.78 1016.79 1029.42C1019.22 1027.1 1021.9 1026.58 1027.03 1023.24C1030.94 1020.68 1031.41 1015.65 1031.41 1015.65C1031.3 1015.99 1032.87 1021.7 1028.75 1025.83ZM1026.68 1021.58C1026.38 1021.92 1026.06 1022.24 1025.73 1022.54C1025.68 1022.59 1025.63 1022.64 1025.57 1022.67C1025.51 1022.7 1025.44 1022.72 1025.37 1022.73C1025.3 1022.74 1025.24 1022.73 1025.17 1022.71C1025.1 1022.69 1025.04 1022.66 1024.99 1022.61C1024.74 1022.36 1024.96 1021.85 1025.66 1021.14C1027.46 1019.34 1028.14 1014.94 1024.97 1011.76C1024.16 1010.85 1023.15 1010.14 1022.03 1009.68C1020.9 1009.21 1019.68 1009 1018.46 1009.07C1016.79 1009.2 1015.22 1009.93 1014.05 1011.14C1013.57 1011.59 1013.14 1012.11 1012.79 1012.68C1012.69 1012.95 1012.79 1013.2 1013.12 1013.53L1023.7 1024.1C1021.6 1025.39 1019.83 1026.37 1018.23 1027.19L1015.67 1024.64C1010.97 1019.93 1010.06 1019.02 1009.1 1018.06C1008.13 1017.1 1007.34 1017.05 1006.02 1017.79C1005.51 1018.13 1005.04 1018.53 1004.61 1018.97C1004.28 1019.3 1003.95 1019.41 1003.74 1019.19C1003.52 1018.97 1003.71 1018.64 1004.18 1018.17C1005.88 1016.47 1008.02 1014.48 1008.94 1013.55C1010.27 1012.23 1012.77 1009.58 1014.25 1008.1C1018.3 1004.05 1021.09 1003.89 1022.04 1003.8C1024.04 1003.78 1025.95 1004.54 1027.39 1005.91C1031.69 1010.29 1031.29 1016.97 1026.68 1021.58Z" stroke="#36B8BC" stroke-width="0.75" stroke-miterlimit="10"/>
<path d="M579.022 689.646L518.647 673.469L491.312 705.397L525.728 764.81L585.239 730.564L579.022 689.646ZM537.306 726.871C536.103 726.53 534.937 726.07 533.826 725.497C532.717 729.635 531.515 734.466 531.189 736.587C530.862 738.708 530.976 739.88 532.958 740.742C534.096 741.21 535.264 741.602 536.454 741.919C537.235 742.128 537.459 742.611 537.376 742.92C537.293 743.229 536.632 743.475 535.921 743.285C531.254 742.034 526.426 740.483 524.604 739.995C522.783 739.507 518.537 738.627 515.761 737.883C514.894 737.651 514.49 737.285 514.614 736.821C514.738 736.357 515.046 736.182 515.913 736.415C516.729 736.656 517.57 736.801 518.419 736.847C519.929 736.902 520.664 735.755 521.386 733.961C522.327 731.563 523.999 725.459 525.38 720.308C523.625 719.317 521.796 718.464 519.909 717.756C513.565 715.338 506.775 718.194 506.254 718.404C508.244 716.034 510.895 714.3 513.879 713.418C516.863 712.536 520.047 712.543 523.036 713.44C528.087 714.923 530.901 718.161 539.464 722.499C546.017 725.8 553.222 722.504 553.222 722.504C552.667 722.632 546.142 729.22 537.306 726.871ZM541.444 720.729C540.751 720.589 540.067 720.406 539.397 720.18C539.29 720.164 539.187 720.127 539.094 720.071C539.002 720.015 538.921 719.941 538.858 719.854C538.795 719.766 538.75 719.667 538.726 719.562C538.702 719.458 538.699 719.349 538.718 719.244C538.861 718.712 539.729 718.595 541.238 718.999C545.107 720.036 551.622 717.511 553.444 710.712C554.042 708.898 554.222 706.973 553.97 705.078C553.719 703.182 553.042 701.365 551.991 699.758C550.506 697.595 548.277 696.041 545.723 695.392C544.721 695.092 543.684 694.925 542.639 694.896C542.194 694.961 541.936 695.297 541.748 696.001L535.679 718.65C532.283 716.82 529.564 715.171 527.182 713.65L528.65 708.172C531.351 698.093 531.871 696.152 532.423 694.092C532.975 692.031 532.421 690.907 530.383 689.698C529.517 689.275 528.608 688.945 527.672 688.714C526.96 688.524 526.556 688.158 526.68 687.694C526.805 687.231 527.401 687.225 528.425 687.499C532.068 688.475 536.451 689.815 538.429 690.345C541.274 691.108 546.832 692.431 550.007 693.282C558.681 695.606 561.102 699.273 561.964 700.498C563.558 703.191 564.035 706.388 563.294 709.412C560.718 718.679 551.333 723.378 541.444 720.729Z" stroke="#36B8BC" stroke-width="0.75" stroke-miterlimit="10"/>
<path d="M883.383 810.192L1633.58 837.425" stroke="url(#paint1_linear_1047_197)" stroke-width="0.75"/>
<path d="M750.617 810.192L0.423828 838.276" stroke="url(#paint2_linear_1047_197)" stroke-width="0.75"/>
<path d="M860.828 758.278L1448.9 284.248" stroke="url(#paint3_linear_1047_197)" stroke-width="0.75"/>
<path d="M775.297 758.278L187.227 284.248" stroke="url(#paint4_linear_1047_197)" stroke-width="0.75"/>
<path d="M817 876.573V1634" stroke="url(#paint5_linear_1047_197)" stroke-width="0.75"/>
<path d="M817.375 1634.38C1268.59 1634.38 1634.38 1268.59 1634.38 817.375C1634.38 366.158 1268.59 0.375 817.375 0.375C366.158 0.375 0.375 366.158 0.375 817.375C0.375 1268.59 366.158 1634.38 817.375 1634.38Z" stroke="#36B8BC" stroke-opacity="0.1" stroke-width="0.75"/>
<path d="M816.572 1483.84C1184.62 1483.84 1482.99 1185.48 1482.99 817.425C1482.99 449.374 1184.62 151.009 816.572 151.009C448.521 151.009 150.156 449.374 150.156 817.425C150.156 1185.48 448.521 1483.84 816.572 1483.84Z" stroke="#36B8BC" stroke-opacity="0.2" stroke-width="0.75"/>
<path d="M816.577 1374.91C1124.47 1374.91 1374.06 1125.31 1374.06 817.425C1374.06 509.536 1124.47 259.942 816.577 259.942C508.687 259.942 259.094 509.536 259.094 817.425C259.094 1125.31 508.687 1374.91 816.577 1374.91Z" stroke="#36B8BC" stroke-opacity="0.3" stroke-width="0.75"/>
<path d="M816.577 1272.78C1068.06 1272.78 1271.93 1068.91 1271.93 817.425C1271.93 565.938 1068.06 362.067 816.577 362.067C565.09 362.067 361.219 565.938 361.219 817.425C361.219 1068.91 565.09 1272.78 816.577 1272.78Z" stroke="#36B8BC" stroke-opacity="0.4" stroke-width="0.75"/>
<path d="M816.572 1164.7C1008.37 1164.7 1163.85 1009.22 1163.85 817.425C1163.85 625.63 1008.37 470.149 816.572 470.149C624.777 470.149 469.296 625.63 469.296 817.425C469.296 1009.22 624.777 1164.7 816.572 1164.7Z" stroke="#36B8BC" stroke-opacity="0.6" stroke-width="0.75"/>
<path d="M816.574 1060.02C950.557 1060.02 1059.17 951.409 1059.17 817.426C1059.17 683.443 950.557 574.829 816.574 574.829C682.591 574.829 573.977 683.443 573.977 817.426C573.977 951.409 682.591 1060.02 816.574 1060.02Z" stroke="#36B8BC" stroke-width="0.75"/>
<path d="M860.721 758.278H775.384L750.617 810.192L816.998 876.573L883.38 810.192L860.721 758.278ZM818.862 822.294C817.155 822.269 815.454 822.073 813.786 821.71C813.786 827.576 813.909 834.391 814.227 837.312C814.546 840.233 815.11 841.742 818.028 842.18C819.695 842.394 821.375 842.5 823.055 842.496C824.159 842.496 824.625 843.056 824.625 843.494C824.625 843.933 823.84 844.492 822.835 844.492C816.238 844.492 809.323 844.152 806.748 844.152C804.173 844.152 798.264 844.492 794.34 844.492C793.114 844.492 792.452 844.152 792.452 843.494C792.452 842.837 792.795 842.496 794.021 842.496C795.182 842.527 796.343 842.421 797.479 842.18C799.49 841.718 800.054 839.941 800.372 837.312C800.765 833.807 800.814 825.142 800.814 817.839C798.15 817.151 795.436 816.671 792.697 816.403C783.477 815.454 775.532 821.637 774.919 822.099C776.705 818.26 779.59 815.028 783.213 812.803C786.836 810.579 791.038 809.461 795.296 809.588C802.481 809.758 807.337 813.044 820.162 815.746C829.971 817.791 838.308 810.878 838.308 810.878C837.622 811.243 831.344 822.27 818.862 822.294ZM822.148 812.704C821.185 812.764 820.218 812.764 819.254 812.704C819.108 812.72 818.959 812.708 818.817 812.667C818.675 812.625 818.543 812.556 818.428 812.463C818.314 812.37 818.22 812.255 818.151 812.125C818.082 811.995 818.041 811.852 818.028 811.706C818.028 810.951 819.132 810.489 821.265 810.489C826.734 810.489 834.434 804.842 834.434 795.203C834.582 792.593 834.138 789.983 833.137 787.565C832.135 785.148 830.601 782.983 828.646 781.232C825.925 778.896 822.435 777.632 818.838 777.678C817.41 777.636 815.984 777.784 814.595 778.116C814.031 778.359 813.811 778.895 813.811 779.893V811.998C808.685 810.781 804.517 809.564 800.838 808.395V800.631C800.838 786.343 800.838 783.593 800.838 780.672C800.838 777.751 799.71 776.461 796.596 775.584C795.304 775.331 793.989 775.216 792.673 775.244C791.667 775.244 791.005 774.903 791.005 774.246C791.005 773.589 791.79 773.37 793.237 773.37C798.386 773.37 804.639 773.589 807.435 773.589C811.456 773.589 819.254 773.37 823.742 773.37C836.003 773.37 840.491 777.361 842.06 778.676C845.114 781.673 846.873 785.732 846.964 789.994C846.842 803.162 836.126 812.704 822.148 812.704Z" stroke="#36B8BC" stroke-width="0.75" stroke-miterlimit="10"/>
<path d="M1115.55 673.069L1055.18 689.246L1047.47 730.565L1106.98 764.81L1141.4 705.397L1115.55 673.069ZM1098.04 726.165C1096.83 726.471 1095.59 726.655 1094.34 726.715C1095.45 730.854 1096.82 735.638 1097.6 737.638C1098.38 739.638 1099.06 740.596 1101.21 740.352C1102.43 740.187 1103.64 739.944 1104.82 739.622C1105.61 739.413 1106.04 739.72 1106.12 740.029C1106.21 740.338 1105.76 740.882 1105.05 741.072C1100.38 742.323 1095.42 743.393 1093.6 743.881C1091.78 744.369 1087.66 745.73 1084.89 746.474C1084.02 746.706 1083.49 746.591 1083.36 746.128C1083.24 745.664 1083.42 745.359 1084.28 745.126C1085.11 744.928 1085.91 744.633 1086.67 744.248C1088.01 743.54 1088.07 742.18 1087.8 740.265C1087.41 737.718 1085.81 731.595 1084.43 726.444C1082.41 726.463 1080.4 726.639 1078.41 726.97C1071.71 728.048 1067.26 733.915 1066.91 734.358C1067.45 731.311 1068.88 728.484 1071.02 726.228C1073.17 723.972 1075.93 722.386 1078.97 721.669C1084.08 720.427 1088.14 721.825 1097.72 721.299C1105.05 720.882 1109.64 714.425 1109.64 714.425C1109.22 714.813 1106.87 723.782 1098.04 726.165ZM1098.55 718.776C1097.88 719.002 1097.2 719.185 1096.5 719.325C1096.4 719.365 1096.3 719.384 1096.19 719.382C1096.08 719.379 1095.97 719.356 1095.87 719.312C1095.78 719.268 1095.69 719.204 1095.61 719.126C1095.54 719.047 1095.48 718.955 1095.45 718.854C1095.31 718.321 1096 717.786 1097.51 717.381C1101.38 716.345 1105.76 710.901 1103.93 704.101C1103.55 702.232 1102.74 700.475 1101.57 698.959C1100.41 697.443 1098.91 696.208 1097.2 695.342C1094.83 694.211 1092.12 693.98 1089.59 694.694C1088.57 694.936 1087.59 695.31 1086.67 695.808C1086.32 696.086 1086.26 696.506 1086.45 697.21L1092.52 719.859C1088.66 719.972 1085.48 719.904 1082.66 719.777L1081.19 714.299C1078.49 704.22 1077.97 702.279 1077.42 700.219C1076.87 698.158 1075.83 697.462 1073.46 697.434C1072.5 697.5 1071.54 697.669 1070.62 697.937C1069.91 698.128 1069.37 698.013 1069.25 697.55C1069.12 697.086 1069.64 696.783 1070.66 696.508C1074.3 695.532 1078.77 694.501 1080.75 693.971C1083.59 693.209 1089.07 691.576 1092.24 690.726C1100.92 688.401 1104.85 690.366 1106.21 690.996C1108.93 692.532 1110.95 695.062 1111.82 698.051C1114.22 707.364 1108.44 716.127 1098.55 718.776Z" stroke="#36B8BC" stroke-width="0.75" stroke-miterlimit="10"/>
</g>
</g>
<defs>
<radialGradient id="paint0_radial_1047_197" cx="0" cy="0" r="1" gradientUnits="userSpaceOnUse" gradientTransform="translate(817 810) rotate(90) scale(573)">
<stop stop-color="#36B8BC"/>
<stop offset="1" stop-color="#08080D" stop-opacity="0"/>
</radialGradient>
<linearGradient id="paint1_linear_1047_197" x1="883.383" y1="810.192" x2="1634" y2="837.425" gradientUnits="userSpaceOnUse">
<stop stop-color="#36B8BC"/>
<stop offset="1" stop-color="#36B8BC" stop-opacity="0"/>
</linearGradient>
<linearGradient id="paint2_linear_1047_197" x1="750.617" y1="823.808" x2="8.93421" y2="845.084" gradientUnits="userSpaceOnUse">
<stop stop-color="#36B8BC"/>
<stop offset="1" stop-color="#36B8BC" stop-opacity="0"/>
</linearGradient>
<linearGradient id="paint3_linear_1047_197" x1="878.274" y1="758.278" x2="1316.14" y2="424.67" gradientUnits="userSpaceOnUse">
<stop stop-color="#36B8BC"/>
<stop offset="1" stop-color="#36B8BC" stop-opacity="0"/>
</linearGradient>
<linearGradient id="paint4_linear_1047_197" x1="748.489" y1="771.044" x2="331.053" y2="447.223" gradientUnits="userSpaceOnUse">
<stop stop-color="#36B8BC"/>
<stop offset="1" stop-color="#36B8BC" stop-opacity="0"/>
</linearGradient>
<linearGradient id="paint5_linear_1047_197" x1="-nan" y1="-nan" x2="-nan" y2="-nan" gradientUnits="userSpaceOnUse">
<stop stop-color="#36B8BC"/>
<stop offset="1" stop-color="#36B8BC" stop-opacity="0"/>
</linearGradient>
<clipPath id="clip0_1047_197">
<rect width="1634" height="1635" fill="white"/>
</clipPath>
</defs>
</svg>
