<svg width="22" height="22" viewBox="0 0 22 22" fill="none" xmlns="http://www.w3.org/2000/svg">
<circle cx="11" cy="11" r="11" fill="#47A58A"/>
<path fill-rule="evenodd" clip-rule="evenodd" d="M12.377 11.4448C12.3001 11.4503 11.9026 11.4728 11.016 11.4728C10.3109 11.4728 9.81022 11.4527 9.63457 11.4448C6.90944 11.331 4.87537 10.8803 4.87537 10.3408C4.87537 9.80124 6.90944 9.35121 9.63457 9.23551V10.996C9.81279 11.0082 10.3231 11.0368 11.0282 11.0368C11.8744 11.0368 12.2982 11.0033 12.3744 10.9966V9.23673C15.0938 9.35182 17.1234 9.80246 17.1234 10.3408C17.1234 10.8791 15.0944 11.3297 12.3744 11.4442L12.377 11.4448ZM12.377 9.05465V7.47926H16.1721V5.0769H5.83952V7.47926H9.63393V9.05404C6.54981 9.18862 4.23047 9.76896 4.23047 10.4644C4.23047 11.1598 6.54981 11.7396 9.63393 11.8748V16.9231H12.3764V11.8729C15.4534 11.7383 17.7689 11.1586 17.7689 10.4638C17.7689 9.76896 15.4554 9.18923 12.3764 9.05404L12.377 9.05465Z" fill="white"/>
</svg>
