<svg width="32" height="32" viewBox="0 0 32 32" fill="none" xmlns="http://www.w3.org/2000/svg">
<g clip-path="url(#clip0_424_721)">
<path d="M24.774 2.85414L16.4207 0.0688094C16.1472 -0.0222854 15.8515 -0.0222854 15.578 0.0688094L7.22469 2.85414C5.89656 3.29532 4.74124 4.14382 3.92288 5.27909C3.10451 6.41436 2.66473 7.77866 2.66602 9.17814V16.0008C2.66602 26.0848 14.9327 31.6541 15.458 31.8861C15.6284 31.9619 15.8129 32.001 15.9994 32.001C16.1858 32.001 16.3703 31.9619 16.5407 31.8861C17.066 31.6541 29.3327 26.0848 29.3327 16.0008V9.17814C29.334 7.77866 28.8942 6.41436 28.0758 5.27909C27.2575 4.14382 26.1021 3.29532 24.774 2.85414ZM26.666 16.0008C26.666 23.2741 18.2407 28.0448 15.9994 29.1861C13.7554 28.0488 5.33269 23.2928 5.33269 16.0008V9.17814C5.33276 8.33851 5.59705 7.52019 6.08811 6.83913C6.57916 6.15807 7.27208 5.6488 8.06869 5.38348L15.9994 2.73948L23.93 5.38348C24.7266 5.6488 25.4195 6.15807 25.9106 6.83913C26.4017 7.52019 26.6659 8.33851 26.666 9.17814V16.0008Z" fill="#54657E"/>
<path d="M20.3991 11.067L14.8151 16.667L11.8231 13.547C11.703 13.4157 11.5579 13.3098 11.3962 13.2355C11.2346 13.1612 11.0597 13.1199 10.8819 13.1142C10.704 13.1085 10.5269 13.1385 10.3608 13.2023C10.1947 13.2662 10.0431 13.3626 9.9149 13.4859C9.78667 13.6092 9.68443 13.757 9.61418 13.9205C9.54394 14.0839 9.50712 14.2598 9.50589 14.4377C9.50466 14.6156 9.53906 14.792 9.60704 14.9564C9.67502 15.1208 9.77522 15.2699 9.90174 15.395L12.9764 18.595C13.2057 18.8427 13.4829 19.0413 13.7911 19.1788C14.0993 19.3163 14.4323 19.3899 14.7697 19.395H14.8137C15.1445 19.3961 15.4721 19.3315 15.7777 19.2049C16.0833 19.0784 16.3607 18.8923 16.5937 18.6577L22.2897 12.9617C22.4141 12.8375 22.5129 12.6901 22.5803 12.5278C22.6477 12.3655 22.6825 12.1915 22.6827 12.0158C22.6829 11.84 22.6485 11.6659 22.5814 11.5035C22.5143 11.3411 22.4159 11.1934 22.2917 11.069C22.1676 10.9446 22.0202 10.8459 21.8579 10.7784C21.6956 10.711 21.5216 10.6762 21.3458 10.676C21.1701 10.6758 20.996 10.7103 20.8336 10.7774C20.6711 10.8444 20.5235 10.9429 20.3991 11.067Z" fill="#54657E"/>
</g>
<defs>
<clipPath id="clip0_424_721">
<rect width="32" height="32" fill="white"/>
</clipPath>
</defs>
</svg>
