<svg width="32" height="32" viewBox="0 0 32 32" fill="none" xmlns="http://www.w3.org/2000/svg">
<g clip-path="url(#clip0_424_731)">
<path d="M2.28933 19.6L7.8 32H11.0747C11.6856 31.9997 12.2868 31.8468 12.8237 31.5552C13.3606 31.2636 13.8162 30.8426 14.1492 30.3303C14.4821 29.818 14.6819 29.2307 14.7304 28.6217C14.7788 28.0126 14.6744 27.4011 14.4267 26.8427L11.3853 20H14.6667C16.4341 20.0021 18.1286 20.7052 19.3784 21.955C20.6282 23.2047 21.3312 24.8992 21.3333 26.6667H24V0H21.3333C21.3312 1.76746 20.6282 3.46192 19.3784 4.71171C18.1286 5.96149 16.4341 6.66455 14.6667 6.66667H4C2.93913 6.66667 1.92172 7.08809 1.17157 7.83824C0.421427 8.58839 0 9.6058 0 10.6667L0 16C0.00297465 16.7549 0.219537 17.4936 0.624654 18.1307C1.02977 18.7677 1.6069 19.2771 2.28933 19.6ZM11.9893 27.924C12.0574 28.0765 12.0862 28.2436 12.0732 28.41C12.0602 28.5765 12.0057 28.7371 11.9148 28.8771C11.8239 29.0172 11.6994 29.1323 11.5527 29.212C11.406 29.2917 11.2416 29.3334 11.0747 29.3333H9.53333L5.38533 20H8.46667L11.9893 27.924ZM2.66667 10.6667C2.66667 10.313 2.80714 9.97391 3.05719 9.72386C3.30724 9.47381 3.64638 9.33333 4 9.33333H14.6667C15.9096 9.33362 17.14 9.08468 18.2851 8.60123C19.4302 8.11778 20.4667 7.40964 21.3333 6.51867V20.148C20.4667 19.257 19.4302 18.5489 18.2851 18.0654C17.14 17.582 15.9096 17.333 14.6667 17.3333H4C3.64638 17.3333 3.30724 17.1929 3.05719 16.9428C2.80714 16.6928 2.66667 16.3536 2.66667 16V10.6667ZM29.724 20.9427L26.6733 17.892L28.5587 16.0067L31.6093 19.0573L29.724 20.9427ZM28.6093 10.6093L26.724 8.724L29.724 5.724L31.6093 7.60933L28.6093 10.6093ZM28 12H32V14.6667H28V12Z" fill="#54657E"/>
</g>
<defs>
<clipPath id="clip0_424_731">
<rect width="32" height="32" fill="white"/>
</clipPath>
</defs>
</svg>
