<svg width="16" height="16" viewBox="0 0 16 16" fill="none" xmlns="http://www.w3.org/2000/svg">
<g clip-path="url(#clip0_907_6837)">
<path d="M14.9375 0.420898H4.66095C4.4906 0.420898 4.32724 0.488567 4.20678 0.609019C4.08633 0.729471 4.01866 0.892838 4.01866 1.06318V6.58682H1.06416C0.893814 6.58682 0.730447 6.65449 0.609996 6.77494C0.489544 6.89539 0.421875 7.05876 0.421875 7.2291L0.421875 12.8812C0.422555 13.5964 0.706983 14.2822 1.21273 14.7879C1.71848 15.2937 2.40423 15.5781 3.11947 15.5788H12.8822C13.5974 15.5781 14.2832 15.2937 14.7889 14.7879C15.2947 14.2822 15.5791 13.5964 15.5798 12.8812V1.06318C15.5798 0.892838 15.5121 0.729471 15.3916 0.609019C15.2712 0.488567 15.1078 0.420898 14.9375 0.420898V0.420898ZM4.01866 13.395C4.01866 13.6335 3.92393 13.8622 3.75529 14.0309C3.58666 14.1995 3.35795 14.2942 3.11947 14.2942C2.74492 14.2935 2.3859 14.1445 2.12106 13.8796C1.85621 13.6148 1.70712 13.2557 1.70644 12.8812V7.87139H4.01866V13.395ZM12.3684 11.6377H7.23008C7.05974 11.6377 6.89637 11.5701 6.77592 11.4496C6.65547 11.3292 6.5878 11.1658 6.5878 10.9955C6.5878 10.8251 6.65547 10.6617 6.77592 10.5413C6.89637 10.4208 7.05974 10.3532 7.23008 10.3532H12.3684C12.5387 10.3532 12.7021 10.4208 12.8225 10.5413C12.943 10.6617 13.0106 10.8251 13.0106 10.9955C13.0106 11.1658 12.943 11.3292 12.8225 11.4496C12.7021 11.5701 12.5387 11.6377 12.3684 11.6377ZM12.3684 8.64213H7.23008C7.05974 8.64213 6.89637 8.57446 6.77592 8.45401C6.65547 8.33356 6.5878 8.17019 6.5878 7.99985C6.5878 7.8295 6.65547 7.66613 6.77592 7.54568C6.89637 7.42523 7.05974 7.35756 7.23008 7.35756H12.3684C12.5387 7.35756 12.7021 7.42523 12.8225 7.54568C12.943 7.66613 13.0106 7.8295 13.0106 7.99985C13.0106 8.17019 12.943 8.33356 12.8225 8.45401C12.7021 8.57446 12.5387 8.64213 12.3684 8.64213ZM12.3684 5.64395H7.23008C7.05974 5.64395 6.89637 5.57628 6.77592 5.45583C6.65547 5.33538 6.5878 5.17201 6.5878 5.00167C6.5878 4.83132 6.65547 4.66795 6.77592 4.5475C6.89637 4.42705 7.05974 4.35938 7.23008 4.35938H12.3684C12.5387 4.35938 12.7021 4.42705 12.8225 4.5475C12.943 4.66795 13.0106 4.83132 13.0106 5.00167C13.0106 5.17201 12.943 5.33538 12.8225 5.45583C12.7021 5.57628 12.5387 5.64395 12.3684 5.64395Z" fill="#818994"/>
</g>
<defs>
<clipPath id="clip0_907_6837">
<rect width="15.1579" height="15.1579" fill="white" transform="translate(0.421875 0.420898)"/>
</clipPath>
</defs>
</svg>
