<svg width="32" height="32" viewBox="0 0 32 32" fill="none" xmlns="http://www.w3.org/2000/svg">
<path d="M30.75 8.81594C31.4404 8.81594 32 8.2564 32 7.56613V6.25382C32 2.80546 29.1941 0 25.7452 0C25.7452 0 6.15101 0.00293706 6.1027 0.00862372C4.45339 0.0662402 2.86908 0.773885 1.72708 1.97033C0.556525 3.19665 -0.053723 4.79166 0.00371435 6.46985C0.00133936 6.50166 8.93643e-05 24.4964 8.93643e-05 24.4964C8.93643e-05 28.6339 3.36671 32 7.50482 32H25.7453C29.1941 32 32 29.1945 32 25.7462V16.2571C32 12.8087 29.1941 10.0033 25.7453 10.0033H6.25001C4.24308 10.0033 2.59771 8.43487 2.50414 6.43267C2.45658 5.41457 2.82289 4.44272 3.53552 3.69608C4.25845 2.93869 5.27376 2.50438 6.32101 2.50438C6.35795 2.50438 25.7451 2.49963 25.7451 2.49963C27.8155 2.49963 29.4999 4.18375 29.4999 6.25382V7.56613C29.5 8.2564 30.0596 8.81594 30.75 8.81594ZM6.25001 12.5029H25.7452C27.8156 12.5029 29.4999 14.187 29.4999 16.2571V25.7462C29.4999 27.8162 27.8156 29.5004 25.7452 29.5004H7.50482C4.7452 29.5004 2.50008 27.2556 2.50008 24.4964V11.2581C3.54558 12.0412 4.84464 12.5029 6.25001 12.5029ZM27 21.0016C27 21.8644 26.3005 22.5639 25.4375 22.5639C23.3649 22.4816 23.3655 19.5214 25.4375 19.4394C26.3005 19.4394 27 20.1388 27 21.0016ZM27 6.25382C27 5.56355 26.4404 5.00401 25.75 5.00401H6.25007C4.59158 5.07 4.59283 7.43821 6.25007 7.50364H25.75C26.4403 7.50364 27 6.94409 27 6.25382Z" fill="#54657E"/>
</svg>
