<svg width="1146" height="1042" viewBox="0 0 1146 1042" fill="none" xmlns="http://www.w3.org/2000/svg">
<rect opacity="0.2" y="-104" width="1146" height="1146" fill="url(#paint0_radial_3078_6082)"/>
<g opacity="0.38">
<path d="M589.492 322.82H570.97L565.594 334.068L580.002 348.451L594.41 334.068L589.492 322.82ZM580.407 336.691C580.036 336.685 579.667 336.643 579.305 336.564C579.305 337.835 579.331 339.312 579.401 339.944C579.47 340.577 579.592 340.904 580.226 340.999C580.587 341.046 580.952 341.069 581.317 341.068C581.556 341.068 581.657 341.189 581.657 341.284C581.657 341.379 581.487 341.5 581.269 341.5C579.837 341.5 578.336 341.426 577.777 341.426C577.218 341.426 575.936 341.5 575.084 341.5C574.818 341.5 574.674 341.426 574.674 341.284C574.674 341.142 574.749 341.068 575.015 341.068C575.267 341.074 575.519 341.051 575.765 340.999C576.202 340.899 576.324 340.514 576.393 339.944C576.479 339.185 576.489 337.308 576.489 335.725C575.911 335.576 575.322 335.472 574.727 335.414C572.726 335.209 571.002 336.548 570.868 336.648C571.256 335.817 571.882 335.116 572.669 334.634C573.455 334.152 574.367 333.91 575.292 333.938C576.851 333.974 577.905 334.686 580.689 335.272C582.818 335.715 584.627 334.217 584.627 334.217C584.478 334.296 583.116 336.685 580.407 336.691ZM581.12 334.613C580.911 334.626 580.701 334.626 580.492 334.613C580.46 334.616 580.428 334.614 580.397 334.605C580.366 334.596 580.337 334.581 580.312 334.56C580.288 334.54 580.267 334.515 580.252 334.487C580.237 334.459 580.228 334.428 580.226 334.396C580.226 334.233 580.465 334.133 580.928 334.133C582.115 334.133 583.786 332.909 583.786 330.821C583.819 330.255 583.722 329.69 583.505 329.166C583.288 328.642 582.955 328.173 582.53 327.794C581.94 327.288 581.182 327.014 580.401 327.024C580.091 327.015 579.782 327.047 579.48 327.119C579.358 327.171 579.31 327.287 579.31 327.503V334.46C578.198 334.196 577.293 333.932 576.494 333.679V331.997C576.494 328.901 576.494 328.305 576.494 327.672C576.494 327.039 576.25 326.76 575.574 326.57C575.293 326.515 575.008 326.49 574.722 326.496C574.504 326.496 574.36 326.422 574.36 326.28C574.36 326.138 574.53 326.09 574.844 326.09C575.962 326.09 577.319 326.138 577.926 326.138C578.799 326.138 580.492 326.09 581.466 326.09C584.127 326.09 585.101 326.955 585.442 327.24C586.105 327.889 586.487 328.769 586.506 329.692C586.48 332.545 584.154 334.613 581.12 334.613Z" stroke="#36B8BC" stroke-width="0.75" stroke-miterlimit="10"/>
<g clip-path="url(#clip0_3078_6082)">
<path d="M498.485 566.317L485.387 553.219L473.632 557.372L473.65 577.73L494.009 577.748L498.485 566.317ZM482.252 569.7C481.994 569.434 481.763 569.143 481.563 568.831C480.664 569.73 479.639 570.793 479.24 571.289C478.842 571.786 478.697 572.104 479.078 572.619C479.301 572.907 479.542 573.181 479.801 573.439C479.97 573.608 479.956 573.765 479.889 573.833C479.822 573.9 479.616 573.865 479.461 573.711C478.449 572.698 477.44 571.585 477.044 571.189C476.649 570.794 475.69 569.939 475.088 569.337C474.9 569.149 474.85 568.995 474.951 568.895C475.052 568.794 475.157 568.794 475.345 568.983C475.518 569.165 475.713 569.327 475.924 569.465C476.303 569.703 476.662 569.517 477.114 569.163C477.711 568.686 479.046 567.366 480.165 566.247C479.862 565.733 479.519 565.243 479.139 564.782C477.869 563.221 475.703 562.949 475.538 562.926C476.4 562.612 477.338 562.559 478.235 562.774C479.132 562.99 479.948 563.463 480.582 564.136C481.659 565.265 481.901 566.514 483.455 568.896C484.647 570.715 486.986 570.936 486.986 570.936C486.825 570.886 484.172 571.612 482.252 569.7ZM484.226 568.735C484.069 568.596 483.921 568.448 483.782 568.291C483.757 568.271 483.736 568.246 483.721 568.218C483.705 568.19 483.695 568.159 483.692 568.127C483.689 568.095 483.692 568.063 483.701 568.033C483.711 568.002 483.726 567.974 483.747 567.95C483.862 567.834 484.103 567.933 484.43 568.26C485.269 569.099 487.316 569.416 488.793 567.939C489.216 567.562 489.547 567.094 489.764 566.57C489.981 566.046 490.077 565.479 490.045 564.911C489.985 564.135 489.643 563.406 489.084 562.861C488.872 562.635 488.63 562.439 488.366 562.277C488.242 562.227 488.126 562.276 487.973 562.428L483.055 567.347C482.454 566.374 482.001 565.548 481.616 564.804L482.805 563.615C484.994 561.426 485.416 561.004 485.863 560.557C486.311 560.109 486.335 559.738 485.991 559.126C485.832 558.889 485.648 558.67 485.441 558.472C485.287 558.318 485.238 558.164 485.338 558.063C485.439 557.962 485.593 558.049 485.815 558.271C486.605 559.062 487.532 560.055 487.961 560.484C488.578 561.101 489.808 562.265 490.497 562.953C492.379 564.835 492.456 566.135 492.496 566.578C492.505 567.506 492.153 568.398 491.514 569.065C489.478 571.063 486.371 570.88 484.226 568.735Z" stroke="#36B8BC" stroke-width="0.75" stroke-miterlimit="10"/>
</g>
<g clip-path="url(#clip1_3078_6082)">
<path d="M675.11 552.898L662.012 565.996L666.165 577.75L686.523 577.732L686.541 557.374L675.11 552.898ZM678.493 569.13C678.227 569.389 677.936 569.62 677.624 569.82C678.523 570.719 679.586 571.744 680.082 572.143C680.579 572.541 680.897 572.686 681.412 572.305C681.7 572.082 681.974 571.84 682.232 571.582C682.401 571.413 682.558 571.427 682.625 571.494C682.693 571.561 682.658 571.767 682.504 571.922C681.491 572.934 680.378 573.943 679.982 574.338C679.587 574.734 678.732 575.693 678.13 576.295C677.942 576.483 677.788 576.533 677.688 576.432C677.587 576.331 677.587 576.226 677.776 576.038C677.958 575.865 678.12 575.67 678.258 575.459C678.495 575.079 678.31 574.721 677.956 574.269C677.479 573.672 676.159 572.337 675.04 571.218C674.526 571.521 674.036 571.864 673.575 572.244C672.014 573.513 671.742 575.68 671.719 575.845C671.405 574.983 671.352 574.045 671.567 573.148C671.783 572.251 672.256 571.435 672.929 570.801C674.058 569.724 675.307 569.482 677.689 567.928C679.508 566.735 679.729 564.397 679.729 564.397C679.679 564.558 680.405 567.211 678.493 569.13ZM677.528 567.157C677.389 567.314 677.241 567.462 677.084 567.601C677.064 567.626 677.039 567.647 677.011 567.662C676.983 567.678 676.952 567.687 676.92 567.691C676.888 567.694 676.856 567.691 676.826 567.681C676.795 567.672 676.767 567.657 676.743 567.636C676.627 567.521 676.726 567.28 677.053 566.953C677.892 566.114 678.209 564.067 676.732 562.59C676.355 562.167 675.887 561.835 675.363 561.619C674.839 561.402 674.272 561.306 673.704 561.338C672.928 561.398 672.199 561.739 671.654 562.299C671.428 562.511 671.232 562.753 671.07 563.017C671.02 563.141 671.068 563.257 671.221 563.409L676.14 568.328C675.167 568.928 674.341 569.382 673.597 569.767L672.408 568.578C670.219 566.389 669.797 565.967 669.35 565.52C668.902 565.072 668.531 565.048 667.919 565.391C667.682 565.551 667.463 565.735 667.265 565.941C667.111 566.096 666.957 566.145 666.856 566.044C666.755 565.944 666.842 565.79 667.064 565.568C667.855 564.777 668.848 563.851 669.277 563.422C669.894 562.805 671.058 561.574 671.746 560.886C673.628 559.004 674.928 558.927 675.371 558.887C676.299 558.878 677.191 559.23 677.857 559.869C679.856 561.905 679.673 565.011 677.528 567.157Z" stroke="#36B8BC" stroke-width="0.75" stroke-miterlimit="10"/>
</g>
<g clip-path="url(#clip2_3078_6082)">
<path d="M469.317 412.767L441.236 405.242L428.522 420.093L444.529 447.727L472.209 431.799L469.317 412.767ZM449.915 430.081C449.355 429.922 448.812 429.708 448.296 429.442C447.78 431.366 447.221 433.613 447.069 434.6C446.917 435.587 446.97 436.131 447.892 436.532C448.421 436.75 448.965 436.933 449.518 437.08C449.881 437.177 449.985 437.402 449.947 437.545C449.908 437.689 449.601 437.804 449.27 437.715C447.099 437.133 444.854 436.412 444.007 436.185C443.159 435.958 441.185 435.549 439.894 435.203C439.49 435.095 439.302 434.924 439.36 434.709C439.418 434.493 439.561 434.411 439.964 434.52C440.344 434.632 440.735 434.699 441.13 434.721C441.832 434.746 442.174 434.213 442.51 433.378C442.947 432.263 443.725 429.424 444.367 427.028C443.551 426.567 442.7 426.17 441.822 425.841C438.872 424.717 435.714 426.045 435.471 426.142C436.397 425.04 437.63 424.234 439.018 423.824C440.406 423.413 441.887 423.417 443.277 423.834C445.626 424.523 446.935 426.03 450.918 428.047C453.966 429.583 457.317 428.05 457.317 428.05C457.059 428.109 454.024 431.173 449.915 430.081ZM451.839 427.224C451.517 427.159 451.199 427.074 450.887 426.969C450.837 426.961 450.789 426.944 450.746 426.918C450.703 426.892 450.666 426.857 450.636 426.817C450.607 426.776 450.586 426.73 450.575 426.681C450.563 426.633 450.562 426.582 450.571 426.533C450.637 426.286 451.041 426.231 451.743 426.419C453.543 426.901 456.573 425.727 457.42 422.565C457.698 421.721 457.782 420.826 457.665 419.944C457.548 419.063 457.234 418.217 456.744 417.47C456.054 416.464 455.017 415.741 453.829 415.439C453.363 415.3 452.881 415.222 452.395 415.209C452.188 415.239 452.068 415.395 451.98 415.723L449.157 426.257C447.578 425.406 446.313 424.639 445.206 423.931L445.888 421.384C447.144 416.695 447.386 415.793 447.643 414.835C447.9 413.876 447.642 413.353 446.694 412.791C446.292 412.594 445.869 412.441 445.433 412.333C445.102 412.245 444.914 412.075 444.972 411.859C445.03 411.643 445.307 411.641 445.784 411.768C447.478 412.222 449.517 412.845 450.436 413.092C451.76 413.447 454.345 414.062 455.822 414.458C459.856 415.539 460.982 417.244 461.383 417.814C462.125 419.067 462.346 420.554 462.002 421.96C460.804 426.27 456.438 428.456 451.839 427.224Z" stroke="#36B8BC" stroke-width="0.75" stroke-miterlimit="10"/>
</g>
<path d="M610.875 469.695L959.802 482.608" stroke="url(#paint1_linear_3078_6082)" stroke-width="0.75"/>
<path d="M549.125 469.695L200.198 483.012" stroke="url(#paint2_linear_3078_6082)" stroke-width="0.75"/>
<path d="M600.383 445.083L873.904 220.32" stroke="url(#paint3_linear_3078_6082)" stroke-width="0.75"/>
<path d="M560.602 445.083L287.081 220.32" stroke="url(#paint4_linear_3078_6082)" stroke-width="0.75"/>
<path d="M580 499.707V851.999" stroke="url(#paint5_linear_3078_6082)" stroke-width="0.75"/>
<circle cx="580" cy="472" r="379.625" stroke="#36B8BC" stroke-opacity="0.1" stroke-width="0.75"/>
<circle cx="579.799" cy="472.198" r="309.76" stroke="#36B8BC" stroke-opacity="0.2" stroke-width="0.75"/>
<circle cx="579.805" cy="472.199" r="259.094" stroke="#36B8BC" stroke-opacity="0.3" stroke-width="0.75"/>
<circle cx="579.805" cy="472.199" r="211.594" stroke="#36B8BC" stroke-opacity="0.4" stroke-width="0.75"/>
<circle cx="579.799" cy="472.198" r="161.323" stroke="#36B8BC" stroke-opacity="0.6" stroke-width="0.75"/>
<circle cx="579.799" cy="472.198" r="112.635" stroke="#36B8BC" stroke-width="0.75"/>
<path d="M600.336 444.688H560.645L549.125 468.833L580 499.708L610.875 468.833L600.336 444.688ZM580.867 474.462C580.073 474.451 579.282 474.36 578.506 474.191C578.506 476.919 578.563 480.089 578.711 481.447C578.859 482.806 579.122 483.508 580.479 483.712C581.254 483.811 582.035 483.86 582.817 483.859C583.33 483.859 583.547 484.119 583.547 484.323C583.547 484.527 583.182 484.787 582.715 484.787C579.646 484.787 576.43 484.629 575.232 484.629C574.035 484.629 571.286 484.787 569.461 484.787C568.891 484.787 568.583 484.629 568.583 484.323C568.583 484.017 568.743 483.859 569.313 483.859C569.853 483.873 570.393 483.823 570.921 483.712C571.856 483.496 572.119 482.67 572.267 481.447C572.449 479.817 572.472 475.787 572.472 472.39C571.233 472.07 569.971 471.847 568.697 471.722C564.409 471.281 560.713 474.156 560.428 474.372C561.259 472.586 562.601 471.083 564.286 470.048C565.971 469.013 567.925 468.493 569.906 468.552C573.248 468.632 575.506 470.16 581.471 471.417C586.034 472.368 589.911 469.153 589.911 469.153C589.592 469.322 586.672 474.451 580.867 474.462ZM582.395 470.002C581.947 470.03 581.497 470.03 581.049 470.002C580.981 470.009 580.912 470.004 580.846 469.984C580.78 469.965 580.718 469.933 580.665 469.89C580.612 469.846 580.568 469.793 580.536 469.732C580.504 469.672 580.485 469.606 580.479 469.538C580.479 469.187 580.992 468.971 581.985 468.971C584.528 468.971 588.109 466.345 588.109 461.862C588.178 460.648 587.972 459.434 587.506 458.309C587.04 457.185 586.327 456.178 585.418 455.363C584.152 454.277 582.529 453.689 580.855 453.71C580.192 453.691 579.528 453.76 578.882 453.914C578.62 454.027 578.517 454.277 578.517 454.741V469.673C576.134 469.107 574.195 468.541 572.484 467.998V464.386C572.484 457.741 572.484 456.462 572.484 455.103C572.484 453.745 571.959 453.144 570.511 452.737C569.91 452.619 569.298 452.566 568.686 452.578C568.218 452.578 567.91 452.42 567.91 452.114C567.91 451.809 568.275 451.707 568.948 451.707C571.343 451.707 574.252 451.809 575.552 451.809C577.422 451.809 581.049 451.707 583.137 451.707C588.839 451.707 590.927 453.563 591.657 454.175C593.077 455.569 593.895 457.457 593.938 459.439C593.881 465.564 588.896 470.002 582.395 470.002Z" stroke="#36B8BC" stroke-width="0.75" stroke-miterlimit="10"/>
<g clip-path="url(#clip3_3078_6082)">
<path d="M718.872 405.058L690.791 412.582L687.205 431.8L714.885 447.728L730.892 420.094L718.872 405.058ZM710.726 429.753C710.162 429.896 709.585 429.981 709.004 430.009C709.52 431.934 710.159 434.159 710.521 435.09C710.883 436.02 711.201 436.465 712.2 436.352C712.767 436.275 713.329 436.162 713.882 436.013C714.245 435.915 714.447 436.058 714.486 436.202C714.525 436.345 714.316 436.598 713.985 436.687C711.814 437.269 709.509 437.766 708.661 437.994C707.814 438.221 705.899 438.853 704.608 439.199C704.205 439.307 703.957 439.254 703.899 439.038C703.841 438.823 703.924 438.681 704.328 438.573C704.713 438.48 705.085 438.343 705.438 438.164C706.059 437.835 706.088 437.202 705.962 436.311C705.783 435.127 705.037 432.279 704.395 429.883C703.458 429.892 702.523 429.974 701.598 430.128C698.48 430.629 696.41 433.358 696.248 433.564C696.499 432.147 697.164 430.832 698.16 429.782C699.157 428.733 700.442 427.996 701.854 427.662C704.233 427.084 706.12 427.735 710.578 427.49C713.985 427.296 716.121 424.293 716.121 424.293C715.927 424.473 714.831 428.645 710.726 429.753ZM710.964 426.317C710.652 426.422 710.334 426.507 710.012 426.572C709.965 426.59 709.915 426.599 709.864 426.598C709.814 426.597 709.764 426.586 709.719 426.566C709.673 426.545 709.632 426.516 709.598 426.479C709.564 426.443 709.537 426.4 709.52 426.353C709.454 426.105 709.777 425.856 710.479 425.668C712.278 425.186 714.315 422.654 713.468 419.491C713.287 418.622 712.912 417.804 712.37 417.099C711.828 416.394 711.132 415.82 710.335 415.417C709.234 414.891 707.975 414.784 706.795 415.116C706.322 415.228 705.865 415.402 705.438 415.634C705.273 415.763 705.248 415.958 705.336 416.286L708.158 426.82C706.365 426.873 704.886 426.841 703.573 426.782L702.89 424.234C701.634 419.546 701.392 418.644 701.135 417.685C700.879 416.727 700.394 416.403 699.292 416.39C698.845 416.421 698.402 416.499 697.971 416.624C697.64 416.713 697.392 416.66 697.335 416.444C697.277 416.228 697.516 416.087 697.992 415.96C699.686 415.506 701.763 415.026 702.683 414.78C704.007 414.425 706.553 413.666 708.03 413.27C712.065 412.189 713.892 413.103 714.524 413.396C715.793 414.11 716.729 415.287 717.133 416.677C718.251 421.009 715.563 425.084 710.964 426.317Z" stroke="#36B8BC" stroke-width="0.75" stroke-miterlimit="10"/>
</g>
</g>
<defs>
<radialGradient id="paint0_radial_3078_6082" cx="0" cy="0" r="1" gradientUnits="userSpaceOnUse" gradientTransform="translate(573 469) rotate(90) scale(573)">
<stop stop-color="#36B8BC"/>
<stop offset="1" stop-color="#08080D" stop-opacity="0"/>
</radialGradient>
<linearGradient id="paint1_linear_3078_6082" x1="610.875" y1="469.695" x2="960.017" y2="482.121" gradientUnits="userSpaceOnUse">
<stop stop-color="#36B8BC"/>
<stop offset="1" stop-color="#36B8BC" stop-opacity="0"/>
</linearGradient>
<linearGradient id="paint2_linear_3078_6082" x1="549.125" y1="476.152" x2="204.146" y2="485.859" gradientUnits="userSpaceOnUse">
<stop stop-color="#36B8BC"/>
<stop offset="1" stop-color="#36B8BC" stop-opacity="0"/>
</linearGradient>
<linearGradient id="paint3_linear_3078_6082" x1="608.497" y1="445.083" x2="815.017" y2="290.733" gradientUnits="userSpaceOnUse">
<stop stop-color="#36B8BC"/>
<stop offset="1" stop-color="#36B8BC" stop-opacity="0"/>
</linearGradient>
<linearGradient id="paint4_linear_3078_6082" x1="548.133" y1="451.136" x2="351.183" y2="301.266" gradientUnits="userSpaceOnUse">
<stop stop-color="#36B8BC"/>
<stop offset="1" stop-color="#36B8BC" stop-opacity="0"/>
</linearGradient>
<linearGradient id="paint5_linear_3078_6082" x1="580.5" y1="499.707" x2="580.5" y2="851.999" gradientUnits="userSpaceOnUse">
<stop stop-color="#36B8BC"/>
<stop offset="1" stop-color="#36B8BC" stop-opacity="0"/>
</linearGradient>
<clipPath id="clip0_3078_6082">
<rect width="33.25" height="29.6875" fill="white" transform="translate(481.453 546.418) rotate(45)"/>
</clipPath>
<clipPath id="clip1_3078_6082">
<rect width="33.25" height="29.6875" fill="white" transform="translate(655.211 569.93) rotate(-45)"/>
</clipPath>
<clipPath id="clip2_3078_6082">
<rect width="52.1865" height="46.5447" fill="white" transform="translate(430.547 399.086) rotate(15)"/>
</clipPath>
<clipPath id="clip3_3078_6082">
<rect width="52.1865" height="46.5447" fill="white" transform="translate(678.453 412.594) rotate(-15)"/>
</clipPath>
</defs>
</svg>
