<svg width="981" height="211" viewBox="0 0 981 211" fill="none" xmlns="http://www.w3.org/2000/svg">
<path opacity="0.06" d="M0.0574836 211V0.818176H78.8757C95.0225 0.818176 108.569 3.82859 119.516 9.84943C130.532 15.8703 138.845 24.1489 144.455 34.6854C150.134 45.1534 152.973 57.0582 152.973 70.3999C152.973 83.8783 150.134 95.8516 144.455 106.32C138.776 116.788 130.395 125.032 119.311 131.053C108.227 137.005 94.5777 139.982 78.3625 139.982H26.125V108.68H73.2311C82.6729 108.68 90.4042 107.038 96.425 103.754C102.446 100.47 106.893 95.9542 109.767 90.207C112.709 84.4599 114.18 77.8575 114.18 70.3999C114.18 62.9422 112.709 56.3741 109.767 50.6953C106.893 45.0166 102.412 40.6036 96.3224 37.4563C90.3016 34.2406 82.5361 32.6328 73.0259 32.6328H38.1324V211H0.0574836ZM186.045 211V0.818176H264.863C281.01 0.818176 294.557 3.62334 305.504 9.23366C316.519 14.844 324.832 22.7121 330.442 32.8381C336.121 42.8956 338.96 54.6294 338.96 68.0394C338.96 81.5179 336.087 93.2174 330.34 103.138C324.661 112.99 316.28 120.619 305.196 126.024C294.112 131.361 280.497 134.029 264.35 134.029H208.212V102.42H259.218C268.66 102.42 276.391 101.12 282.412 98.5199C288.433 95.8516 292.88 91.9859 295.754 86.9229C298.696 81.7915 300.167 75.497 300.167 68.0394C300.167 60.5818 298.696 54.2189 295.754 48.9506C292.812 43.614 288.331 39.5773 282.31 36.8405C276.289 34.0354 268.523 32.6328 259.013 32.6328H224.12V211H186.045ZM294.625 115.761L346.657 211H304.169L253.061 115.761H294.625ZM412.083 0.818176V211H374.008V0.818176H412.083ZM481.433 0.818176L536.134 166.254H538.289L592.887 0.818176H634.759L560.662 211H513.659L439.664 0.818176H481.433ZM664.881 211H624.24L698.235 0.818176H745.238L819.336 211H778.695L722.557 43.9219H720.915L664.881 211ZM666.215 128.59H777.053V159.173H666.215V128.59ZM812.383 32.7354V0.818176H980.076V32.7354H915.113V211H877.346V32.7354H812.383Z" fill="#36B8BC"/>
</svg>
