<svg width="14" height="20" viewBox="0 0 14 20" fill="none" xmlns="http://www.w3.org/2000/svg">
<path d="M6.25 8.00001C6.25 8.41422 6.58579 8.75001 7 8.75001C7.41421 8.75001 7.75 8.41422 7.75 8.00001V5.00001C7.75 4.58579 7.41421 4.25001 7 4.25001C6.58579 4.25001 6.25 4.58579 6.25 5.00001V8.00001Z" fill="#145165"/>
<path fill-rule="evenodd" clip-rule="evenodd" d="M13.75 7.07434C13.75 3.75284 11.3336 0.92497 8.05275 0.406941C7.35524 0.296808 6.64476 0.296807 5.94725 0.406941C2.6664 0.92497 0.25 3.75284 0.25 7.07434V12.9257C0.25 16.2472 2.6664 19.075 5.94725 19.5931C6.64476 19.7032 7.35524 19.7032 8.05275 19.5931C11.3336 19.075 13.75 16.2472 13.75 12.9257L13.75 7.07434ZM7.8188 1.88859C10.3706 2.2915 12.25 4.49095 12.25 7.07434L12.25 12.9257C12.25 15.5091 10.3706 17.7085 7.8188 18.1114C7.27629 18.1971 6.7237 18.1971 6.1812 18.1114C3.62942 17.7085 1.75 15.5091 1.75 12.9257L1.75 7.07434C1.75 4.49095 3.62943 2.2915 6.1812 1.88859C6.72371 1.80293 7.2763 1.80293 7.8188 1.88859Z" fill="#145165"/>
</svg>
