<svg width="24" height="24" viewBox="0 0 24 24" fill="none" xmlns="http://www.w3.org/2000/svg">
<path d="M8.18869 20.601L3.3887 15.801C2.5087 14.921 2.52869 13.461 3.43869 12.551L12.5487 3.44095C13.0487 2.94095 13.7487 2.69095 14.4387 2.75095L18.8187 3.17095C19.8887 3.27095 20.7187 4.10095 20.8187 5.17095L21.2387 9.55096C21.3087 10.241 21.0487 10.941 20.5487 11.441L11.4387 20.551C10.5287 21.461 9.07869 21.491 8.18869 20.601Z" stroke="#36B8BC" stroke-width="1.5" stroke-linecap="round" stroke-linejoin="round"/>
<path d="M17.5159 6.48016C17.0059 5.97016 16.1659 5.97016 15.6559 6.48016C15.1459 6.99016 15.1459 7.83015 15.6559 8.34015C15.9159 8.60015 16.2459 8.72015 16.5859 8.72015C16.9259 8.72015 17.2559 8.59015 17.5159 8.34015C18.0259 7.83015 18.0259 7.00016 17.5159 6.48016Z" fill="#36B8BC"/>
</svg>
