<svg width="122" height="15" viewBox="0 0 122 15" fill="none" xmlns="http://www.w3.org/2000/svg">
<path opacity="0.06" d="M0.132102 14V0.909091H4.5554C5.58239 0.909091 6.42188 1.09446 7.07386 1.4652C7.73011 1.83168 8.21591 2.32812 8.53125 2.95455C8.84659 3.58097 9.00426 4.27983 9.00426 5.05114C9.00426 5.82244 8.84659 6.52344 8.53125 7.15412C8.22017 7.7848 7.73864 8.28764 7.08665 8.66264C6.43466 9.03338 5.59943 9.21875 4.58097 9.21875H1.41051V7.8125H4.52983C5.23295 7.8125 5.79759 7.69105 6.22372 7.44815C6.64986 7.20526 6.95881 6.87713 7.15057 6.46378C7.34659 6.04616 7.4446 5.57528 7.4446 5.05114C7.4446 4.52699 7.34659 4.05824 7.15057 3.64489C6.95881 3.23153 6.64773 2.90767 6.21733 2.6733C5.78693 2.43466 5.21591 2.31534 4.50426 2.31534H1.71733V14H0.132102ZM11.5579 14V0.909091H15.9812C17.0039 0.909091 17.8434 1.08381 18.4996 1.43324C19.1559 1.77841 19.6417 2.25355 19.957 2.85866C20.2724 3.46378 20.43 4.15199 20.43 4.9233C20.43 5.6946 20.2724 6.37855 19.957 6.97514C19.6417 7.57173 19.158 8.04048 18.506 8.38139C17.854 8.71804 17.021 8.88636 16.0067 8.88636H12.4272V7.45455H15.9556C16.6545 7.45455 17.217 7.35227 17.6431 7.14773C18.0735 6.94318 18.3846 6.65341 18.5763 6.27841C18.7724 5.89915 18.8704 5.44744 18.8704 4.9233C18.8704 4.39915 18.7724 3.94105 18.5763 3.54901C18.3803 3.15696 18.0671 2.8544 17.6367 2.64134C17.2063 2.42401 16.6374 2.31534 15.93 2.31534H13.1431V14H11.5579ZM17.7198 8.11932L20.9414 14H19.1005L15.93 8.11932H17.7198ZM24.6568 0.909091V14H23.0716V0.909091H24.6568ZM28.3722 0.909091L32.2585 11.929H32.4119L36.2983 0.909091H37.9602L33.1534 14H31.517L26.7102 0.909091H28.3722ZM39.4112 14H37.7493L42.5561 0.909091H44.1925L48.9993 14H47.3374L43.4254 2.98011H43.3232L39.4112 14ZM40.0249 8.88636H46.7237V10.2926H40.0249V8.88636ZM48.7931 2.31534V0.909091H58.6113V2.31534H54.4949V14H52.9096V2.31534H48.7931ZM73.2795 4.18182C73.2028 3.53409 72.8917 3.03125 72.3462 2.6733C71.8008 2.31534 71.1317 2.13636 70.3391 2.13636C69.7596 2.13636 69.2525 2.23011 68.8178 2.41761C68.3874 2.60511 68.0508 2.86293 67.8079 3.19105C67.5692 3.51918 67.4499 3.89204 67.4499 4.30966C67.4499 4.65909 67.533 4.95952 67.6992 5.21094C67.8697 5.4581 68.087 5.66477 68.3512 5.83097C68.6154 5.9929 68.8924 6.12713 69.1822 6.23366C69.4719 6.33594 69.7383 6.41903 69.9812 6.48295L71.3107 6.84091C71.6516 6.9304 72.0309 7.05398 72.4485 7.21165C72.8704 7.36932 73.2731 7.58452 73.6566 7.85724C74.0444 8.12571 74.364 8.47088 74.6154 8.89276C74.8668 9.31463 74.9925 9.83239 74.9925 10.446C74.9925 11.1534 74.8072 11.7926 74.4364 12.3636C74.07 12.9347 73.533 13.3885 72.8256 13.7251C72.1225 14.0618 71.2681 14.2301 70.2624 14.2301C69.3249 14.2301 68.5131 14.0788 67.8271 13.7763C67.1452 13.4737 66.6083 13.0518 66.2163 12.5107C65.8285 11.9695 65.609 11.3409 65.5579 10.625H67.1942C67.2369 11.1193 67.4031 11.5284 67.6928 11.8523C67.9869 12.1719 68.3576 12.4105 68.805 12.5682C69.2567 12.7216 69.7425 12.7983 70.2624 12.7983C70.8675 12.7983 71.4109 12.7003 71.8924 12.5043C72.3739 12.304 72.7553 12.027 73.0366 11.6733C73.3178 11.3153 73.4585 10.8977 73.4585 10.4205C73.4585 9.9858 73.337 9.6321 73.0941 9.35938C72.8512 9.08665 72.5316 8.86506 72.1353 8.6946C71.739 8.52415 71.3107 8.375 70.8505 8.24716L69.2397 7.78693C68.217 7.4929 67.4073 7.07315 66.8107 6.5277C66.2141 5.98224 65.9158 5.26847 65.9158 4.38636C65.9158 3.65341 66.114 3.0142 66.5103 2.46875C66.9109 1.91903 67.4478 1.4929 68.1211 1.19034C68.7987 0.883522 69.555 0.730113 70.3903 0.730113C71.234 0.730113 71.984 0.881392 72.6403 1.18395C73.2965 1.48224 73.8164 1.89133 74.1999 2.41122C74.5877 2.93111 74.7923 3.52131 74.8136 4.18182H73.2795ZM76.883 2.31534V0.909091H86.7012V2.31534H82.5847V14H80.9995V2.31534H76.883ZM99.6483 7.45455C99.6483 8.83523 99.399 10.0284 98.9004 11.0341C98.4018 12.0398 97.7179 12.8153 96.8485 13.3608C95.9792 13.9062 94.9863 14.179 93.8699 14.179C92.7534 14.179 91.7605 13.9062 90.8912 13.3608C90.0218 12.8153 89.3379 12.0398 88.8393 11.0341C88.3407 10.0284 88.0914 8.83523 88.0914 7.45455C88.0914 6.07386 88.3407 4.88068 88.8393 3.875C89.3379 2.86932 90.0218 2.09375 90.8912 1.5483C91.7605 1.00284 92.7534 0.730113 93.8699 0.730113C94.9863 0.730113 95.9792 1.00284 96.8485 1.5483C97.7179 2.09375 98.4018 2.86932 98.9004 3.875C99.399 4.88068 99.6483 6.07386 99.6483 7.45455ZM98.1142 7.45455C98.1142 6.32102 97.9245 5.36435 97.5453 4.58452C97.1703 3.80469 96.661 3.21449 96.0176 2.81392C95.3784 2.41335 94.6625 2.21307 93.8699 2.21307C93.0772 2.21307 92.3592 2.41335 91.7157 2.81392C91.0765 3.21449 90.5673 3.80469 90.188 4.58452C89.813 5.36435 89.6255 6.32102 89.6255 7.45455C89.6255 8.58807 89.813 9.54474 90.188 10.3246C90.5673 11.1044 91.0765 11.6946 91.7157 12.0952C92.3592 12.4957 93.0772 12.696 93.8699 12.696C94.6625 12.696 95.3784 12.4957 96.0176 12.0952C96.661 11.6946 97.1703 11.1044 97.5453 10.3246C97.9245 9.54474 98.1142 8.58807 98.1142 7.45455ZM102.314 14V0.909091H106.737C107.76 0.909091 108.599 1.08381 109.256 1.43324C109.912 1.77841 110.398 2.25355 110.713 2.85866C111.028 3.46378 111.186 4.15199 111.186 4.9233C111.186 5.6946 111.028 6.37855 110.713 6.97514C110.398 7.57173 109.914 8.04048 109.262 8.38139C108.61 8.71804 107.777 8.88636 106.763 8.88636H103.183V7.45455H106.711C107.41 7.45455 107.973 7.35227 108.399 7.14773C108.829 6.94318 109.14 6.65341 109.332 6.27841C109.528 5.89915 109.626 5.44744 109.626 4.9233C109.626 4.39915 109.528 3.94105 109.332 3.54901C109.136 3.15696 108.823 2.8544 108.393 2.64134C107.962 2.42401 107.393 2.31534 106.686 2.31534H103.899V14H102.314ZM108.476 8.11932L111.697 14H109.856L106.686 8.11932H108.476ZM113.827 14V0.909091H121.728V2.31534H115.413V6.73864H121.319V8.14489H115.413V12.5938H121.83V14H113.827Z" fill="#36B8BC"/>
</svg>
