<svg width="830" height="321" viewBox="0 0 830 321" fill="none" xmlns="http://www.w3.org/2000/svg">
<path opacity="0.06" d="M294.462 151V37.5455H337.007C345.723 37.5455 353.036 39.1705 358.945 42.4205C364.891 45.6705 369.378 50.1392 372.406 55.8267C375.472 61.4773 377.004 67.9034 377.004 75.1051C377.004 82.3807 375.472 88.8437 372.406 94.4943C369.341 100.145 364.817 104.595 358.834 107.845C352.851 111.058 345.483 112.665 336.73 112.665H308.533V95.7685H333.96C339.057 95.7685 343.23 94.8821 346.48 93.1094C349.73 91.3366 352.131 88.8991 353.682 85.7969C355.27 82.6946 356.064 79.1307 356.064 75.1051C356.064 71.0795 355.27 67.5341 353.682 64.4688C352.131 61.4034 349.712 59.0213 346.425 57.3224C343.175 55.5866 338.983 54.7188 333.85 54.7188H315.014V151H294.462ZM394.856 151V37.5455H437.402C446.118 37.5455 453.43 39.0597 459.339 42.0881C465.285 45.1165 469.773 49.3636 472.801 54.8295C475.866 60.2585 477.399 66.5923 477.399 73.831C477.399 81.1065 475.848 87.4219 472.746 92.777C469.68 98.0952 465.156 102.213 459.173 105.131C453.19 108.011 445.841 109.452 437.125 109.452H406.822V92.3892H434.355C439.452 92.3892 443.625 91.6875 446.875 90.2841C450.125 88.8437 452.525 86.7571 454.077 84.0241C455.665 81.2543 456.459 77.8565 456.459 73.831C456.459 69.8054 455.665 66.3707 454.077 63.527C452.488 60.6463 450.069 58.4673 446.819 56.9901C443.569 55.4759 439.378 54.7188 434.244 54.7188H415.409V151H394.856ZM453.467 99.5909L481.554 151H458.619L431.031 99.5909H453.467ZM516.87 37.5455V151H496.317V37.5455H516.87ZM554.305 37.5455L583.832 126.847H584.995L614.467 37.5455H637.069L597.072 151H571.7L531.758 37.5455H554.305ZM653.328 151H631.391L671.333 37.5455H696.705L736.702 151H714.764L684.462 60.8125H683.575L653.328 151ZM654.048 106.516H713.878V123.024H654.048V106.516ZM732.949 54.7741V37.5455H823.469V54.7741H788.402V151H768.015V54.7741H732.949Z" fill="#36B8BC"/>
<path opacity="0.06" d="M371.202 200.734C370.684 195.896 368.506 192.129 364.665 189.433C360.861 186.737 355.912 185.389 349.818 185.389C345.534 185.389 341.859 186.036 338.794 187.328C335.729 188.621 333.383 190.375 331.758 192.591C330.133 194.807 329.302 197.337 329.265 200.18C329.265 202.544 329.801 204.594 330.872 206.33C331.98 208.065 333.476 209.543 335.359 210.761C337.243 211.943 339.329 212.94 341.619 213.753C343.909 214.565 346.217 215.249 348.544 215.803L359.18 218.462C363.464 219.459 367.582 220.807 371.534 222.506C375.523 224.205 379.086 226.347 382.226 228.932C385.402 231.517 387.913 234.638 389.76 238.294C391.606 241.95 392.53 246.234 392.53 251.146C392.53 257.794 390.831 263.648 387.433 268.707C384.035 273.73 379.123 277.663 372.697 280.507C366.308 283.314 358.571 284.717 349.486 284.717C340.659 284.717 332.996 283.351 326.496 280.618C320.032 277.885 314.973 273.896 311.317 268.652C307.697 263.408 305.74 257.018 305.444 249.484H325.665C325.96 253.436 327.179 256.723 329.321 259.345C331.463 261.967 334.251 263.925 337.686 265.217C341.157 266.51 345.035 267.156 349.319 267.156C353.788 267.156 357.703 266.491 361.064 265.162C364.461 263.795 367.121 261.912 369.041 259.511C370.961 257.074 371.94 254.23 371.977 250.98C371.94 248.026 371.072 245.588 369.373 243.668C367.675 241.71 365.292 240.085 362.227 238.793C359.199 237.463 355.653 236.281 351.591 235.247L338.683 231.923C329.339 229.523 321.953 225.885 316.524 221.01C311.132 216.098 308.436 209.58 308.436 201.455C308.436 194.77 310.246 188.916 313.865 183.893C317.521 178.871 322.488 174.974 328.767 172.205C335.045 169.398 342.155 167.994 350.095 167.994C358.146 167.994 365.2 169.398 371.257 172.205C377.351 174.974 382.133 178.834 385.605 183.783C389.077 188.695 390.868 194.345 390.979 200.734H371.202ZM405.867 186.774V169.545H496.387V186.774H461.32V283H440.933V186.774H405.867ZM610.187 226.273C610.187 238.497 607.898 248.967 603.318 257.683C598.775 266.362 592.571 273.01 584.704 277.626C576.875 282.243 567.993 284.551 558.058 284.551C548.123 284.551 539.223 282.243 531.356 277.626C523.527 272.973 517.322 266.307 512.743 257.628C508.2 248.912 505.929 238.46 505.929 226.273C505.929 214.048 508.2 203.597 512.743 194.918C517.322 186.202 523.527 179.536 531.356 174.919C539.223 170.303 548.123 167.994 558.058 167.994C567.993 167.994 576.875 170.303 584.704 174.919C592.571 179.536 598.775 186.202 603.318 194.918C607.898 203.597 610.187 214.048 610.187 226.273ZM589.524 226.273C589.524 217.668 588.176 210.411 585.48 204.501C582.821 198.555 579.128 194.068 574.4 191.04C569.673 187.974 564.226 186.442 558.058 186.442C551.89 186.442 546.443 187.974 541.716 191.04C536.988 194.068 533.277 198.555 530.581 204.501C527.922 210.411 526.592 217.668 526.592 226.273C526.592 234.878 527.922 242.153 530.581 248.099C533.277 254.009 536.988 258.496 541.716 261.561C546.443 264.589 551.89 266.104 558.058 266.104C564.226 266.104 569.673 264.589 574.4 261.561C579.128 258.496 582.821 254.009 585.48 248.099C588.176 242.153 589.524 234.878 589.524 226.273ZM629.618 283V169.545H672.164C680.879 169.545 688.192 171.06 694.101 174.088C700.047 177.116 704.534 181.364 707.563 186.83C710.628 192.259 712.161 198.592 712.161 205.831C712.161 213.107 710.61 219.422 707.507 224.777C704.442 230.095 699.918 234.213 693.935 237.131C687.952 240.011 680.602 241.452 671.887 241.452H641.584V224.389H669.117C674.213 224.389 678.387 223.687 681.637 222.284C684.887 220.844 687.287 218.757 688.838 216.024C690.426 213.254 691.22 209.857 691.22 205.831C691.22 201.805 690.426 198.371 688.838 195.527C687.25 192.646 684.831 190.467 681.581 188.99C678.331 187.476 674.139 186.719 669.006 186.719H650.171V283H629.618ZM688.229 231.591L716.316 283H693.381L665.793 231.591H688.229ZM731.079 283V169.545H804.869V186.774H751.632V217.575H801.046V234.804H751.632V265.771H805.312V283H731.079Z" fill="#36B8BC"/>
<g clip-path="url(#clip0_4540_7395)">
<path opacity="0.06" d="M231.676 36.5L51.9662 36.5L6.0873e-07 146.492L139.575 284.5L279 146.343L231.676 36.5ZM143.918 169.913C140.333 169.89 136.763 169.442 133.285 168.579C133.285 180.883 133.285 195.113 134.184 201.339C135.082 207.565 135.981 210.53 142.121 211.419C145.609 211.714 149.116 211.714 152.604 211.419C155 211.419 155.899 212.605 155.899 213.495C155.899 214.384 154.251 215.57 152.155 215.57C138.377 215.57 123.85 215.57 118.459 215.57C113.068 215.57 100.638 215.57 92.5507 215.57C89.8551 215.57 88.5072 215.57 88.5072 213.495C88.5072 211.419 89.2561 211.419 91.8019 211.419C94.1844 211.777 96.6078 211.777 98.9903 211.419C103.333 210.53 104.382 206.824 105.13 201.043C105.879 195.261 106.029 175.842 106.029 160.278C100.427 158.842 94.7178 157.851 88.9566 157.313C75.5496 156.796 62.3913 160.998 51.8165 169.172C55.503 161.115 61.5331 154.329 69.1359 149.682C76.7387 145.034 85.5688 142.737 94.4976 143.082C109.473 143.082 119.657 150.198 146.614 155.831C153.313 156.803 160.143 156.41 166.684 154.677C173.225 152.944 179.339 149.906 184.652 145.75C180.26 152.702 174.292 158.546 167.222 162.817C160.151 167.089 152.172 169.67 143.918 170.358L143.918 169.913ZM150.807 149.901C148.763 150.045 146.711 150.045 144.667 149.901C144.055 149.944 143.449 149.752 142.976 149.366C142.502 148.98 142.196 148.429 142.121 147.826C142.121 146.195 144.517 145.306 148.86 145.306C156.722 144.448 163.96 140.662 169.105 134.715C174.25 128.769 176.917 121.108 176.565 113.287C176.919 107.761 176.013 102.227 173.913 97.0947C171.813 91.9626 168.574 87.364 164.435 83.6393C158.692 78.7529 151.34 76.1164 143.768 76.2274C140.797 76.1657 137.83 76.4644 134.932 77.1168C133.734 77.1168 133.285 78.7474 133.285 80.8227L133.285 147.974C122.502 145.454 113.816 142.786 106.029 140.414L106.029 124.849C106.029 95.2017 106.029 89.2723 106.029 83.0463C106.029 76.8204 103.633 74.3003 97.0435 72.3733C94.3549 72.0996 91.6451 72.0996 88.9566 72.3733C86.8599 72.3733 85.3623 72.3733 85.3623 70.298C85.3623 68.2226 87.0097 68.3709 90.0049 68.3709C100.787 68.3709 113.966 68.3709 119.957 68.3709L154.101 68.3709C167.909 66.9144 181.74 70.9096 192.589 79.4886C198.935 85.8067 202.581 94.2994 202.773 103.207C202.726 109.786 201.321 116.286 198.647 122.309C195.972 128.333 192.082 133.752 187.217 138.235C182.351 142.718 176.612 146.17 170.352 148.38C164.091 150.59 157.44 151.511 150.807 151.087L150.807 149.901Z" fill="#36B8BC"/>
</g>
<defs>
<clipPath id="clip0_4540_7395">
<rect width="279" height="279" fill="white" transform="translate(0 21)"/>
</clipPath>
</defs>
</svg>
