<svg width="547" height="446" viewBox="0 0 547 446" fill="none" xmlns="http://www.w3.org/2000/svg">
<path opacity="0.06" d="M11.4618 276V162.545H54.0073C62.7232 162.545 70.0357 164.17 75.9448 167.42C81.8908 170.67 86.378 175.139 89.4064 180.827C92.4718 186.477 94.0044 192.903 94.0044 200.105C94.0044 207.381 92.4718 213.844 89.4064 219.494C86.3411 225.145 81.8169 229.595 75.834 232.845C69.851 236.058 62.4831 237.665 53.7303 237.665H25.5328V220.768H50.9604C56.057 220.768 60.2303 219.882 63.4803 218.109C66.7303 216.337 69.1309 213.899 70.682 210.797C72.2701 207.695 73.0641 204.131 73.0641 200.105C73.0641 196.08 72.2701 192.534 70.682 189.469C69.1309 186.403 66.7118 184.021 63.4249 182.322C60.1749 180.587 55.9831 179.719 50.8496 179.719H32.0144V276H11.4618ZM111.856 276V162.545H154.402C163.118 162.545 170.43 164.06 176.339 167.088C182.285 170.116 186.773 174.364 189.801 179.83C192.866 185.259 194.399 191.592 194.399 198.831C194.399 206.107 192.848 212.422 189.746 217.777C186.68 223.095 182.156 227.213 176.173 230.131C170.19 233.011 162.841 234.452 154.125 234.452H123.822V217.389H151.355C156.452 217.389 160.625 216.687 163.875 215.284C167.125 213.844 169.525 211.757 171.077 209.024C172.665 206.254 173.459 202.857 173.459 198.831C173.459 194.805 172.665 191.371 171.077 188.527C169.488 185.646 167.069 183.467 163.819 181.99C160.569 180.476 156.378 179.719 151.244 179.719H132.409V276H111.856ZM170.467 224.591L198.554 276H175.619L148.031 224.591H170.467ZM233.87 162.545V276H213.317V162.545H233.87ZM271.305 162.545L300.832 251.847H301.995L331.467 162.545H354.069L314.072 276H288.7L248.758 162.545H271.305ZM370.328 276H348.391L388.333 162.545H413.705L453.702 276H431.764L401.462 185.812H400.575L370.328 276ZM371.048 231.516H430.878V248.024H371.048V231.516ZM449.949 179.774V162.545H540.469V179.774H505.402V276H485.015V179.774H449.949Z" fill="#36B8BC"/>
<path opacity="0.06" d="M88.2015 325.734C87.6845 320.896 85.5055 317.129 81.6646 314.433C77.8606 311.737 72.9118 310.389 66.818 310.389C62.5339 310.389 58.8592 311.036 55.7939 312.328C52.7285 313.621 50.3833 315.375 48.7583 317.591C47.1333 319.807 46.3024 322.337 46.2654 325.18C46.2654 327.544 46.801 329.594 47.872 331.33C48.9799 333.065 50.4757 334.543 52.3592 335.761C54.2427 336.943 56.3294 337.94 58.6191 338.753C60.9089 339.565 63.2172 340.249 65.5439 340.803L76.1802 343.462C80.4643 344.459 84.5822 345.807 88.5339 347.506C92.5225 349.205 96.0865 351.347 99.2257 353.932C102.402 356.517 104.913 359.638 106.76 363.294C108.606 366.95 109.53 371.234 109.53 376.146C109.53 382.794 107.831 388.648 104.433 393.707C101.035 398.73 96.1234 402.663 89.6973 405.507C83.3081 408.314 75.5708 409.717 66.4856 409.717C57.6589 409.717 49.9956 408.351 43.4956 405.618C37.0325 402.885 31.9728 398.896 28.3166 393.652C24.6973 388.408 22.7399 382.018 22.4444 374.484H42.6646C42.9601 378.436 44.1788 381.723 46.3208 384.345C48.4629 386.967 51.2512 388.925 54.6859 390.217C58.1575 391.51 62.0353 392.156 66.3194 392.156C70.7882 392.156 74.703 391.491 78.0637 390.162C81.4615 388.795 84.1206 386.912 86.041 384.511C87.9615 382.074 88.9402 379.23 88.9771 375.98C88.9402 373.026 88.0723 370.588 86.3734 368.668C84.6745 366.71 82.2924 365.085 79.2271 363.793C76.1987 362.463 72.6532 361.281 68.5907 360.247L55.6831 356.923C46.3393 354.523 38.9529 350.885 33.524 346.01C28.1319 341.098 25.4359 334.58 25.4359 326.455C25.4359 319.77 27.2456 313.916 30.8649 308.893C34.5211 303.871 39.4885 299.974 45.7669 297.205C52.0453 294.398 59.1547 292.994 67.095 292.994C75.1461 292.994 82.2001 294.398 88.2569 297.205C94.3507 299.974 99.1333 303.834 102.605 308.783C106.077 313.695 107.868 319.345 107.979 325.734H88.2015ZM122.867 311.774V294.545H213.387V311.774H178.32V408H157.933V311.774H122.867ZM327.187 351.273C327.187 363.497 324.898 373.967 320.318 382.683C315.775 391.362 309.571 398.01 301.704 402.626C293.875 407.243 284.993 409.551 275.058 409.551C265.123 409.551 256.223 407.243 248.356 402.626C240.527 397.973 234.322 391.307 229.743 382.628C225.2 373.912 222.929 363.46 222.929 351.273C222.929 339.048 225.2 328.597 229.743 319.918C234.322 311.202 240.527 304.536 248.356 299.919C256.223 295.303 265.123 292.994 275.058 292.994C284.993 292.994 293.875 295.303 301.704 299.919C309.571 304.536 315.775 311.202 320.318 319.918C324.898 328.597 327.187 339.048 327.187 351.273ZM306.524 351.273C306.524 342.668 305.176 335.411 302.48 329.501C299.821 323.555 296.128 319.068 291.4 316.04C286.673 312.974 281.226 311.442 275.058 311.442C268.89 311.442 263.443 312.974 258.716 316.04C253.988 319.068 250.277 323.555 247.581 329.501C244.922 335.411 243.592 342.668 243.592 351.273C243.592 359.878 244.922 367.153 247.581 373.099C250.277 379.009 253.988 383.496 258.716 386.561C263.443 389.589 268.89 391.104 275.058 391.104C281.226 391.104 286.673 389.589 291.4 386.561C296.128 383.496 299.821 379.009 302.48 373.099C305.176 367.153 306.524 359.878 306.524 351.273ZM346.618 408V294.545H389.164C397.879 294.545 405.192 296.06 411.101 299.088C417.047 302.116 421.534 306.364 424.563 311.83C427.628 317.259 429.161 323.592 429.161 330.831C429.161 338.107 427.61 344.422 424.507 349.777C421.442 355.095 416.918 359.213 410.935 362.131C404.952 365.011 397.602 366.452 388.887 366.452H358.584V349.389H386.117C391.213 349.389 395.387 348.687 398.637 347.284C401.887 345.844 404.287 343.757 405.838 341.024C407.426 338.254 408.22 334.857 408.22 330.831C408.22 326.805 407.426 323.371 405.838 320.527C404.25 317.646 401.831 315.467 398.581 313.99C395.331 312.476 391.139 311.719 386.006 311.719H367.171V408H346.618ZM405.229 356.591L433.316 408H410.381L382.793 356.591H405.229ZM448.079 408V294.545H521.869V311.774H468.632V342.575H518.046V359.804H468.632V390.771H522.312V408H448.079Z" fill="#36B8BC"/>
<g clip-path="url(#clip0_4540_7209)">
<path opacity="0.06" d="M323.879 8.55554L224.684 8.55554L196 69.2678L273.041 145.444L350 69.1859L323.879 8.55554ZM275.439 82.1957C273.46 82.1829 271.489 81.9357 269.57 81.4593C269.57 88.2506 269.57 96.1055 270.066 99.5421C270.561 102.979 271.057 104.615 274.447 105.106C276.372 105.268 278.308 105.268 280.233 105.106C281.556 105.106 282.052 105.761 282.052 106.251C282.052 106.742 281.142 107.397 279.985 107.397C272.38 107.397 264.362 107.397 261.386 107.397C258.41 107.397 251.549 107.397 247.085 107.397C245.597 107.397 244.853 107.397 244.853 106.251C244.853 105.106 245.267 105.106 246.672 105.106C247.987 105.303 249.325 105.303 250.64 105.106C253.037 104.615 253.616 102.569 254.029 99.3784C254.442 96.1873 254.525 85.4686 254.525 76.8772C251.433 76.0851 248.282 75.5378 245.101 75.2408C237.701 74.9557 230.438 77.2749 224.601 81.7866C226.636 77.3394 229.965 73.5938 234.161 71.0286C238.358 68.4634 243.232 67.1951 248.16 67.3858C256.426 67.3858 262.047 71.3133 276.926 74.4226C280.625 74.9593 284.394 74.7426 288.005 73.7858C291.615 72.829 294.99 71.1524 297.923 68.8586C295.499 72.696 292.204 75.9214 288.302 78.279C284.399 80.6367 279.995 82.0617 275.439 82.4412L275.439 82.1957ZM279.241 71.1497C278.113 71.2294 276.98 71.2294 275.852 71.1497C275.514 71.1731 275.18 71.0675 274.918 70.8543C274.657 70.6412 274.488 70.3369 274.447 70.0042C274.447 69.1041 275.769 68.6132 278.166 68.6132C282.506 68.1396 286.501 66.0497 289.341 62.7676C292.181 59.4854 293.653 55.2567 293.459 50.9396C293.654 47.8894 293.154 44.8348 291.995 42.0021C290.836 39.1693 289.048 36.631 286.763 34.5751C283.593 31.8779 279.536 30.4227 275.356 30.484C273.716 30.4499 272.078 30.6147 270.479 30.9749C269.818 30.9749 269.57 31.8749 269.57 33.0204L269.57 70.086C263.618 68.695 258.823 67.2222 254.525 65.913L254.525 57.3217C254.525 40.9572 254.525 37.6843 254.525 34.2478C254.525 30.8112 253.202 29.4202 249.565 28.3565C248.081 28.2055 246.585 28.2055 245.101 28.3565C243.944 28.3565 243.118 28.3566 243.118 27.211C243.118 26.0655 244.027 26.1473 245.68 26.1473C251.632 26.1473 258.906 26.1473 262.213 26.1473L281.06 26.1473C288.681 25.3434 296.315 27.5487 302.304 32.284C305.806 35.7714 307.819 40.4592 307.925 45.3756C307.899 49.0072 307.124 52.5953 305.647 55.9199C304.171 59.2446 302.024 62.2357 299.338 64.7102C296.653 67.1846 293.485 69.0901 290.029 70.3099C286.573 71.5298 282.902 72.0383 279.241 71.8043L279.241 71.1497Z" fill="#36B8BC"/>
</g>
<defs>
<clipPath id="clip0_4540_7209">
<rect width="154" height="154" fill="white" transform="translate(196)"/>
</clipPath>
</defs>
</svg>
