<svg width="20" height="20" viewBox="0 0 20 20" fill="none" xmlns="http://www.w3.org/2000/svg">
<path d="M3.77717 12.2266C2.88954 12.2266 2.068 12.5382 1.41644 13.0575C0.54769 13.7469 0 14.8139 0 16.0037C0 16.712 0.198302 17.3824 0.54769 17.949C1.19925 19.0444 2.3985 19.7809 3.77717 19.7809C4.73092 19.7809 5.59967 19.4315 6.26066 18.8366C6.55339 18.5911 6.80835 18.2889 7.00666 17.949C7.35604 17.3824 7.55435 16.712 7.55435 16.0037C7.55435 13.9168 5.86406 12.2266 3.77717 12.2266ZM5.73187 15.5977L3.72052 17.4579C3.58831 17.5807 3.4089 17.6468 3.23893 17.6468C3.05951 17.6468 2.8801 17.5807 2.73845 17.4391L1.8036 16.5042C1.52975 16.2304 1.52975 15.7771 1.8036 15.5033C2.07744 15.2294 2.53071 15.2294 2.80455 15.5033L3.25781 15.9565L4.76869 14.559C5.05198 14.2946 5.50523 14.3135 5.76963 14.5967C6.03404 14.88 6.01516 15.3333 5.73187 15.5977Z" fill="#56C6AD"/>
<path d="M13.0761 1.79416V5.38247H11.6597V1.79416C11.6597 1.5392 11.4331 1.41644 11.282 1.41644C11.2347 1.41644 11.1875 1.42588 11.1403 1.44477L3.65204 4.2682C3.15156 4.45706 2.8305 4.92921 2.8305 5.46746V6.10013C1.9712 6.74225 1.41406 7.77148 1.41406 8.93297V5.46746C1.41406 4.34375 2.1034 3.3428 3.15156 2.94619L10.6493 0.113315C10.857 0.0377716 11.0742 0 11.282 0C12.2263 0 13.0761 0.764877 13.0761 1.79416Z" fill="#54657E"/>
<path d="M19.3528 11.7573V12.7016C19.3528 12.9566 19.1545 13.1643 18.8901 13.1737H17.5114C17.011 13.1737 16.5577 12.8055 16.5199 12.3144C16.4916 12.0217 16.6049 11.7479 16.7938 11.559C16.9638 11.3796 17.1998 11.2852 17.4548 11.2852H18.8807C19.1545 11.2946 19.3528 11.5023 19.3528 11.7573Z" fill="#54657E"/>
<path d="M17.4482 10.2931H18.4114C18.9307 10.2931 19.3557 9.86821 19.3557 9.34884V8.93336C19.3557 6.97867 17.7598 5.38281 15.8051 5.38281H4.96461C4.16196 5.38281 3.42541 5.64721 2.8305 6.10048C1.9712 6.7426 1.41406 7.77187 1.41406 8.93336V10.6142C1.41406 10.973 1.79178 11.1997 2.13173 11.0863C2.66053 10.9069 3.21766 10.8125 3.7748 10.8125C6.636 10.8125 8.96844 13.1449 8.96844 16.0061C8.96844 16.686 8.78903 17.432 8.50574 18.093C8.35463 18.4329 8.59073 18.839 8.959 18.839H15.8051C17.7598 18.839 19.3557 17.2431 19.3557 15.2884V15.109C19.3557 14.5897 18.9307 14.1647 18.4114 14.1647H17.5898C16.6833 14.1647 15.8146 13.6076 15.5785 12.7294C15.3896 12.0118 15.6163 11.313 16.0884 10.8597C16.4378 10.5009 16.9194 10.2931 17.4482 10.2931ZM12.2735 10.1043H7.55197C7.16481 10.1043 6.84375 9.78322 6.84375 9.39606C6.84375 9.0089 7.16481 8.68784 7.55197 8.68784H12.2735C12.6606 8.68784 12.9817 9.0089 12.9817 9.39606C12.9817 9.78322 12.6606 10.1043 12.2735 10.1043Z" fill="#54657E"/>
</svg>
