<svg width="64" height="64" viewBox="0 0 64 64" fill="none" xmlns="http://www.w3.org/2000/svg">
<g clip-path="url(#clip0_2582_6303)">
<path d="M56.4971 42.7388C54.7769 47.4009 52.1753 51.4546 48.7637 54.7861C44.8804 58.5781 39.7954 61.5913 33.6499 63.7407C33.4483 63.8111 33.2378 63.8687 33.0264 63.9112C32.7471 63.9663 32.4629 63.9961 32.1812 64H32.126C31.8257 64 31.5239 63.9697 31.2246 63.9112C31.0132 63.8687 30.8057 63.8111 30.605 63.7422C24.4521 61.5962 19.3608 58.5845 15.4736 54.7925C12.0605 51.4609 9.45946 47.4097 7.74168 42.7476C4.61815 34.271 4.79588 24.9331 4.93895 17.4292L4.94139 17.3139C4.9702 16.6943 4.98875 16.0434 4.99901 15.3247C5.05125 11.7959 7.85692 8.87644 11.3862 8.67966C18.7446 8.26902 24.437 5.86911 29.3008 1.12838L29.3433 1.08932C30.1509 0.348599 31.1685 -0.0146827 32.1812 0.000454114C33.1577 0.0131495 34.1304 0.375943 34.9092 1.08932L34.9507 1.12838C39.8154 5.86911 45.5078 8.26902 52.8662 8.67966C56.3955 8.87644 59.2012 11.7959 59.2535 15.3247C59.2637 16.0483 59.2823 16.6982 59.3111 17.3139L59.3125 17.3628C59.4551 24.8808 59.6319 34.2373 56.4971 42.7388Z" fill="#6C90B8"/>
<path d="M56.4956 42.7383C54.7754 47.4004 52.1738 51.4542 48.7622 54.7857C44.8789 58.5777 39.794 61.5909 33.6484 63.7403C33.4468 63.8106 33.2363 63.8682 33.0249 63.9107C32.7456 63.9659 32.4614 63.9957 32.1797 63.9996V0C33.1563 0.0126954 34.1289 0.375489 34.9077 1.08887L34.9492 1.12793C39.814 5.86866 45.5064 8.26856 52.8648 8.67921C56.3941 8.87599 59.1997 11.7954 59.252 15.3242C59.2622 16.0479 59.2808 16.6978 59.3096 17.3135L59.3111 17.3623C59.4536 24.8804 59.6304 34.2369 56.4956 42.7383Z" fill="#587AA1"/>
<path d="M48.0728 31.9971C48.0728 40.773 40.9473 47.9165 32.1787 47.9478H32.1226C23.3281 47.9478 16.1719 40.792 16.1719 31.9971C16.1719 23.2026 23.3281 16.0469 32.1226 16.0469H32.1787C40.9473 16.0781 48.0728 23.2217 48.0728 31.9971Z" fill="#97BEDB"/>
<path d="M48.0737 31.9971C48.0737 40.773 40.9483 47.9165 32.1797 47.9478V16.0469C40.9483 16.0781 48.0737 23.2217 48.0737 31.9971Z" fill="#81A6C7"/>
<path d="M39.366 29.7057L32.1824 36.8903L30.6301 38.4425C30.2634 38.8092 29.7825 38.9923 29.302 38.9923C28.821 38.9923 28.3406 38.8092 27.9734 38.4425L24.636 35.1036C23.9026 34.3702 23.9026 33.1823 24.636 32.4484C25.3684 31.715 26.5579 31.715 27.2913 32.4484L29.302 34.4591L36.7107 27.0504C37.4441 26.3165 38.6336 26.3165 39.366 27.0504C40.0994 27.7838 40.0994 28.9733 39.366 29.7057Z" fill="black"/>
<path d="M39.3633 29.7057L32.1797 36.8903V31.5783L36.708 27.0504C37.4414 26.3165 38.6309 26.3165 39.3633 27.0504C40.0967 27.7838 40.0967 28.9733 39.3633 29.7057Z" fill="black"/>
</g>
<defs>
<clipPath id="clip0_2582_6303">
<rect width="64" height="64" fill="white"/>
</clipPath>
</defs>
</svg>
