<svg width="186" height="164" viewBox="0 0 186 164" fill="none" xmlns="http://www.w3.org/2000/svg">
<path d="M176.344 42.6493V121.351C176.344 130.999 168.522 138.821 158.874 138.821H56.9855C47.337 138.821 39.5156 130.999 39.5156 121.351V42.6493C39.5156 33.0008 47.337 25.1794 56.9855 25.1794H158.874C168.522 25.1794 176.344 33.0008 176.344 42.6493Z" fill="#9BE0D1"/>
<path d="M159.312 42.6493V121.351C159.312 130.999 151.491 138.821 141.842 138.821H39.9542C30.3058 138.821 22.4844 130.999 22.4844 121.351V42.6493C22.4844 33.0008 30.3058 25.1794 39.9542 25.1794H141.842C151.491 25.1794 159.312 33.0008 159.312 42.6493Z" fill="#56C6AD"/>
<path d="M185.515 82C185.515 89.7128 179.263 95.9653 171.55 95.9653H155.145C147.432 95.9653 141.18 89.7128 141.18 82C141.18 74.2872 147.432 68.0347 155.145 68.0347H171.55C179.263 68.0347 185.515 74.2872 185.515 82Z" fill="#B6EDE1"/>
<path d="M76.3513 103.847H61.786V98.5877H76.3513C80.2005 98.5877 83.3309 95.4573 83.3309 91.6081C83.3309 87.7615 80.2005 84.6311 76.3513 84.6311H71.3925C64.6467 84.6311 59.1562 79.1409 59.1562 72.3923C59.1562 65.6465 64.6464 60.156 71.3925 60.156H85.9603V65.4152H71.3925C67.5459 65.4152 64.4155 68.5456 64.4155 72.3923C64.4155 76.2415 67.5459 79.3719 71.3925 79.3719H76.3513C83.0996 79.3719 88.5901 84.862 88.5901 91.6081C88.5898 98.3568 83.0996 103.847 76.3513 103.847Z" fill="white"/>
<path d="M71.2344 101.225H76.4936V114.45H71.2344V101.225Z" fill="white"/>
<path d="M71.2344 49.5486H76.4936V62.7938H71.2344V49.5486Z" fill="white"/>
<path d="M153.891 79.3721H159.309V84.6313H153.891V79.3721Z" fill="white"/>
<path d="M22.0031 61.2667C20.6086 61.2661 19.2379 60.9052 18.0241 60.2188L6.29073 53.5806C5.0517 52.8787 4.02073 51.8611 3.30273 50.6313C2.58473 49.4016 2.20532 48.0035 2.20312 46.5795V33.4213C2.2051 31.9972 2.58441 30.5991 3.30243 29.3693C4.02045 28.1395 5.05155 27.1219 6.29073 26.4202L18.0241 19.7813C19.238 19.0944 20.6091 18.7334 22.0039 18.7334C23.3987 18.7334 24.7697 19.0944 25.9837 19.7813L37.717 26.4202C38.9559 27.1221 39.9867 28.1398 40.7045 29.3695C41.4222 30.5993 41.8013 31.9974 41.8031 33.4213V46.5795C41.8004 48.0033 41.4209 49.4011 40.703 50.6307C39.9852 51.8604 38.9547 52.8782 37.7163 53.5806L25.9829 60.2188C24.7688 60.9053 23.3979 61.2663 22.0031 61.2667Z" fill="#F1E9D8"/>
<path d="M38.1339 33.4214V46.5788C38.1339 47.3547 37.9277 48.1167 37.5365 48.7867C37.1453 49.4567 36.5831 50.0108 35.9075 50.3922L24.1741 57.031C23.511 57.406 22.7623 57.603 22.0005 57.603C21.2388 57.603 20.49 57.406 19.8269 57.031L8.09359 50.3922C7.41791 50.0108 6.85571 49.4567 6.46451 48.7867C6.07331 48.1167 5.86717 47.3547 5.86719 46.5788V33.4214C5.86759 32.6461 6.07394 31.8848 6.46513 31.2154C6.85632 30.546 7.4183 29.9926 8.09359 29.6117L19.8269 22.9721C20.49 22.5972 21.2388 22.4001 22.0005 22.4001C22.7623 22.4001 23.511 22.5972 24.1741 22.9721L35.9075 29.6117C36.5827 29.9926 37.1447 30.546 37.5359 31.2154C37.9271 31.8848 38.1334 32.6461 38.1339 33.4214Z" fill="#EEBC55"/>
<path fill-rule="evenodd" clip-rule="evenodd" d="M21 32C20.8143 32.0001 20.6324 32.0519 20.4745 32.1496C20.3166 32.2472 20.189 32.3869 20.106 32.553L19.382 34H16C15.7348 34 15.4804 34.1054 15.2929 34.2929C15.1054 34.4804 15 34.7348 15 35C15 35.2652 15.1054 35.5196 15.2929 35.7071C15.4804 35.8946 15.7348 36 16 36V46C16 46.5304 16.2107 47.0391 16.5858 47.4142C16.9609 47.7893 17.4696 48 18 48H26C26.5304 48 27.0391 47.7893 27.4142 47.4142C27.7893 47.0391 28 46.5304 28 46V36C28.2652 36 28.5196 35.8946 28.7071 35.7071C28.8946 35.5196 29 35.2652 29 35C29 34.7348 28.8946 34.4804 28.7071 34.2929C28.5196 34.1054 28.2652 34 28 34H24.618L23.894 32.553C23.811 32.3869 23.6834 32.2472 23.5255 32.1496C23.3676 32.0519 23.1857 32.0001 23 32H21ZM19 38C19 37.7348 19.1054 37.4804 19.2929 37.2929C19.4804 37.1054 19.7348 37 20 37C20.2652 37 20.5196 37.1054 20.7071 37.2929C20.8946 37.4804 21 37.7348 21 38V44C21 44.2652 20.8946 44.5196 20.7071 44.7071C20.5196 44.8946 20.2652 45 20 45C19.7348 45 19.4804 44.8946 19.2929 44.7071C19.1054 44.5196 19 44.2652 19 44V38ZM24 37C23.7348 37 23.4804 37.1054 23.2929 37.2929C23.1054 37.4804 23 37.7348 23 38V44C23 44.2652 23.1054 44.5196 23.2929 44.7071C23.4804 44.8946 23.7348 45 24 45C24.2652 45 24.5196 44.8946 24.7071 44.7071C24.8946 44.5196 25 44.2652 25 44V38C25 37.7348 24.8946 37.4804 24.7071 37.2929C24.5196 37.1054 24.2652 37 24 37Z" fill="white"/>
</svg>
