<svg width="123" height="118" viewBox="0 0 123 118" fill="none" xmlns="http://www.w3.org/2000/svg">
<g clip-path="url(#clip0_4002_6132)">
<path d="M106.306 101.305C128.566 79.045 128.566 42.9546 106.306 20.6947C84.046 -1.56521 47.9556 -1.56522 25.6957 20.6947C3.43583 42.9546 3.43583 79.045 25.6957 101.305C47.9556 123.565 84.046 123.565 106.306 101.305Z" fill="#56C6AD"/>
<g style="mix-blend-mode:multiply">
<path d="M123.002 60.9998C123.001 73.1137 119.141 84.9124 111.984 94.6859C104.827 104.459 94.7437 111.7 83.1955 115.358L55.9435 88.1065L56.2453 88.0171L36.9062 68.678L61.1219 71.9155L72.0525 57.3525L97.2964 34.1763L123.002 59.8822C123.002 60.2547 123.002 60.6273 123.002 60.9998Z" fill="#D9D9D9"/>
</g>
<path d="M61.3337 90.5391C60.046 90.5381 58.7821 90.192 57.6735 89.5368C56.5649 88.8816 55.6521 87.9412 55.0302 86.8136C48.6969 75.3428 37.0249 68.7413 36.9057 68.6742C35.226 67.7608 33.978 66.2174 33.4361 64.3838C32.8943 62.5502 33.1031 60.5764 34.0166 58.8967C34.93 57.217 36.4734 55.9689 38.307 55.4271C40.1406 54.8853 42.1144 55.0941 43.7941 56.0076C49.6153 59.4024 54.8957 63.6493 59.4598 68.6072L59.5716 68.7301L59.6461 68.5774C64.5786 58.4366 73.3596 44.0338 87.1551 33.0138C88.65 31.8536 90.5415 31.3285 92.4205 31.5518C94.2996 31.7752 96.0152 32.7293 97.1964 34.2076C98.3776 35.686 98.9295 37.5698 98.7327 39.4518C98.5359 41.3339 97.6062 43.0628 96.1447 44.2648C76.3214 60.0981 68.293 85.1968 68.2035 85.4501C67.7866 86.7998 66.9812 87.9966 65.8879 88.8911C64.7946 89.7857 63.462 90.3381 62.0565 90.4795C61.8168 90.5122 61.5755 90.5321 61.3337 90.5391Z" fill="white"/>
</g>
<path d="M22.0031 43.2667C20.6086 43.2661 19.2379 42.9052 18.0241 42.2188L6.29073 35.5806C5.0517 34.8787 4.02073 33.8611 3.30273 32.6313C2.58473 31.4016 2.20532 30.0035 2.20312 28.5795V15.4213C2.2051 13.9972 2.58441 12.5991 3.30243 11.3693C4.02045 10.1395 5.05155 9.1219 6.29073 8.42017L18.0241 1.7813C19.238 1.09441 20.6091 0.733398 22.0039 0.733398C23.3987 0.733398 24.7697 1.09441 25.9837 1.7813L37.717 8.42017C38.9559 9.12209 39.9867 10.1398 40.7045 11.3695C41.4222 12.5993 41.8013 13.9974 41.8031 15.4213V28.5795C41.8004 30.0033 41.4209 31.4011 40.703 32.6307C39.9852 33.8604 38.9547 34.8782 37.7163 35.5806L25.9829 42.2188C24.7688 42.9053 23.3979 43.2663 22.0031 43.2667Z" fill="#F1E9D8"/>
<path d="M38.1339 15.4211V28.5786C38.1339 29.3545 37.9277 30.1164 37.5365 30.7865C37.1453 31.4565 36.5831 32.0105 35.9075 32.3919L24.1741 39.0308C23.511 39.4057 22.7623 39.6027 22.0005 39.6027C21.2388 39.6027 20.49 39.4057 19.8269 39.0308L8.09359 32.3919C7.41791 32.0105 6.85571 31.4565 6.46451 30.7865C6.07331 30.1164 5.86717 29.3545 5.86719 28.5786V15.4211C5.86759 14.6458 6.07394 13.8845 6.46513 13.2152C6.85632 12.5458 7.4183 11.9924 8.09359 11.6115L19.8269 4.97186C20.49 4.59694 21.2388 4.3999 22.0005 4.3999C22.7623 4.3999 23.511 4.59694 24.1741 4.97186L35.9075 11.6115C36.5827 11.9924 37.1447 12.5458 37.5359 13.2152C37.9271 13.8845 38.1334 14.6458 38.1339 15.4211Z" fill="#EEBC55"/>
<path d="M29.5 19C30.103 19 30.7056 19.1313 31.291 19.3901C31.4482 19.46 31.6323 19.4443 31.7754 19.3457C31.918 19.248 32.0005 19.0835 31.9926 18.9106C31.9448 17.8393 31.0693 17 30 17H12C10.897 17 10 17.897 10 19V24C10 25.103 10.897 26 12 26H23.5C23.7764 26 24 25.7764 24 25.5V25C24 24.3603 24.316 23.7529 24.8442 23.375C24.9604 23.2919 25.0356 23.1635 25.0508 23.0219C25.2974 20.729 27.2104 19 29.5 19ZM14.6162 21.5669C14.8555 21.7051 14.9375 22.0108 14.7993 22.25C14.7065 22.4102 14.5385 22.5 14.3657 22.5C14.2807 22.5 14.1948 22.4785 14.1162 22.4331L14 22.366V22.5C14 22.7764 13.7763 23 13.5 23C13.2236 23 13 22.7764 13 22.5V22.366L12.8838 22.4331C12.8052 22.4785 12.7193 22.5 12.6343 22.5C12.4614 22.5 12.2935 22.4101 12.2007 22.25C12.0625 22.0108 12.1445 21.7051 12.3838 21.5669L12.4997 21.5L12.3838 21.4331C12.1445 21.2949 12.0625 20.9893 12.2007 20.75C12.3389 20.5108 12.645 20.4287 12.8838 20.5669L13 20.6339V20.5C13 20.2236 13.2236 20 13.5 20C13.7764 20 14 20.2236 14 20.5V20.6339L14.1162 20.5669C14.3536 20.4287 14.6607 20.5107 14.7993 20.75C14.9375 20.9892 14.8555 21.2949 14.6163 21.4331L14.5003 21.5L14.6162 21.5669ZM18.6162 21.5669C18.8555 21.7051 18.9375 22.0108 18.7993 22.25C18.7066 22.4102 18.5386 22.5 18.3657 22.5C18.2807 22.5 18.1948 22.4785 18.1162 22.4331L18 22.366V22.5C18 22.7764 17.7764 23 17.5 23C17.2236 23 17 22.7764 17 22.5V22.366L16.8838 22.4331C16.8052 22.4785 16.7193 22.5 16.6343 22.5C16.4614 22.5 16.2934 22.4101 16.2007 22.25C16.0625 22.0108 16.1445 21.7051 16.3838 21.5669L16.4997 21.5L16.3838 21.4331C16.1445 21.2949 16.0625 20.9893 16.2007 20.75C16.3384 20.5108 16.644 20.4287 16.8838 20.5669L17 20.634V20.5C17 20.2236 17.2236 20 17.5 20C17.7764 20 18 20.2236 18 20.5V20.634L18.1162 20.5669C18.354 20.4287 18.6602 20.5108 18.7993 20.75C18.9375 20.9893 18.8555 21.2949 18.6162 21.4331L18.5003 21.5L18.6162 21.5669ZM22.6162 21.5669C22.8555 21.7051 22.9375 22.0108 22.7993 22.25C22.7065 22.4102 22.5385 22.5 22.3657 22.5C22.2807 22.5 22.1948 22.4785 22.1162 22.4331L22 22.366V22.5C22 22.7764 21.7764 23 21.5 23C21.2236 23 21 22.7764 21 22.5V22.366L20.8838 22.4331C20.8052 22.4785 20.7192 22.5 20.6342 22.5C20.4614 22.5 20.2934 22.4101 20.2007 22.25C20.0625 22.0108 20.1445 21.7051 20.3837 21.5669L20.4997 21.5L20.3837 21.4331C20.1445 21.2949 20.0625 20.9893 20.2007 20.75C20.3384 20.5108 20.6445 20.4287 20.8838 20.5669L21 20.634V20.5C21 20.2236 21.2236 20 21.5 20C21.7764 20 22 20.2236 22 20.5V20.634L22.1162 20.5669C22.3545 20.4287 22.6607 20.5108 22.7993 20.75C22.9375 20.9893 22.8555 21.2949 22.6162 21.4331L22.5003 21.5L22.6162 21.5669Z" fill="white"/>
<path d="M33 24V23.5C33 21.5703 31.4297 20 29.5 20C27.5703 20 26 21.5703 26 23.5V24C25.4487 24 25 24.4488 25 25V30C25 30.5513 25.4487 31 26 31H33C33.5512 31 34 30.5513 34 30V25C34 24.4488 33.5513 24 33 24ZM30 27.8463V28.5C30 28.7764 29.7764 29 29.5 29C29.2236 29 29 28.7764 29 28.5V27.8463C28.7066 27.6717 28.5 27.3652 28.5 27C28.5 26.4488 28.9487 26 29.5 26C30.0512 26 30.4999 26.4488 30.4999 27C30.5 27.3653 30.2933 27.6717 30 27.8463ZM31 24H28V23.5C28 22.6729 28.6728 22 29.5 22C30.3272 22 31 22.6729 31 23.5V24Z" fill="white"/>
<defs>
<clipPath id="clip0_4002_6132">
<rect width="114" height="114" fill="white" transform="translate(9 4)"/>
</clipPath>
</defs>
</svg>
