<svg width="22" height="22" viewBox="0 0 22 22" fill="none" xmlns="http://www.w3.org/2000/svg">
<path d="M7.12268 1.1875H4.99371C2.91403 1.1875 1.21875 2.88279 1.21875 4.96248V7.00274C1.21875 7.40685 1.55387 7.74196 1.95797 7.74196C2.36208 7.74196 2.6972 7.40685 2.6972 7.00274V4.96248C2.6972 3.69101 3.7321 2.66595 4.99371 2.66595H7.12268C7.52679 2.66595 7.86191 2.33083 7.86191 1.92672C7.86191 1.52262 7.53665 1.1875 7.12268 1.1875Z" fill="#56C6AD"/>
<path d="M17.0088 1.1875H14.8798C14.4757 1.1875 14.1406 1.52262 14.1406 1.92672C14.1406 2.33083 14.4757 2.66595 14.8798 2.66595H17.0088C18.2803 2.66595 19.3054 3.70087 19.3054 4.96248V7.00274C19.3054 7.40685 19.6405 7.74196 20.0446 7.74196C20.4487 7.74196 20.7838 7.40685 20.7838 7.00274V4.96248C20.7937 2.88279 19.0984 1.1875 17.0088 1.1875Z" fill="#56C6AD"/>
<path d="M7.12268 19.3416H4.99371C3.72224 19.3416 2.6972 18.3067 2.6972 17.0451V15.0048C2.6972 14.6007 2.36208 14.2656 1.95797 14.2656C1.55387 14.2656 1.21875 14.6007 1.21875 15.0048V17.0451C1.21875 19.1248 2.91403 20.8201 4.99371 20.8201H7.12268C7.52679 20.8201 7.86191 20.4948 7.86191 20.0809C7.86191 19.6768 7.53665 19.3416 7.12268 19.3416Z" fill="#56C6AD"/>
<path d="M20.0524 14.2656C19.6483 14.2656 19.3131 14.6007 19.3131 15.0048V17.0451C19.3131 18.3166 18.2782 19.3416 17.0166 19.3416H14.8877C14.4836 19.3416 14.1484 19.6768 14.1484 20.0809C14.1484 20.485 14.4836 20.8201 14.8877 20.8201H17.0166C19.0963 20.8201 20.7916 19.1248 20.7916 17.0451V15.0048C20.7916 14.5909 20.4565 14.2656 20.0524 14.2656Z" fill="#56C6AD"/>
<path d="M10.8691 10.4998C12.6136 10.4998 14.0428 9.0805 14.0428 7.32608C14.0428 5.57165 12.6235 4.15234 10.8691 4.15234C9.11463 4.15234 7.69531 5.57165 7.69531 7.32608C7.69531 9.0805 9.12448 10.4998 10.8691 10.4998Z" fill="#54657E"/>
<path d="M13.2574 11.457H8.89108C6.87053 11.457 5.23438 13.103 5.23438 15.1137V15.5178C5.23438 16.4641 6.01303 17.2427 6.95923 17.2427H15.1991C16.1453 17.2427 16.924 16.4641 16.924 15.5178V15.1137C16.9141 13.0932 15.278 11.457 13.2574 11.457Z" fill="#54657E"/>
</svg>
