<svg width="20" height="20" viewBox="0 0 20 20" fill="none" xmlns="http://www.w3.org/2000/svg">
<path d="M10.0004 20.0008C15.5235 20.0008 20.0008 15.5235 20.0008 10.0004C20.0008 4.47733 15.5235 0 10.0004 0C4.47733 0 0 4.47733 0 10.0004C0 15.5235 4.47733 20.0008 10.0004 20.0008Z" fill="#54657E"/>
<path d="M10.0004 16.3641C6.48535 16.3641 3.63673 13.5155 3.63673 10.0004C3.63673 6.48535 6.48535 3.63673 10.0004 3.63673C11.7571 3.63673 13.3478 4.34909 14.5002 5.50062L17.0716 2.92921C15.2617 1.1193 12.7612 0 10.0004 0C4.47721 0 0 4.47722 0 10.0004C0 15.5236 4.47721 20.0008 10.0004 20.0008C12.762 20.0008 15.2617 18.8815 17.0724 17.0724L14.501 14.501C13.3478 15.6517 11.7571 16.3641 10.0004 16.3641Z" fill="#56C6AD"/>
<path d="M16.3662 10.0026H13.184C13.184 8.24583 11.7593 6.82031 10.0017 6.82031C8.24422 6.82031 6.82031 8.24503 6.82031 10.0026C6.82031 10.8583 7.15876 11.6344 7.70915 12.2073L7.70673 12.2097L11.6465 16.1495L11.6473 16.1503C14.3645 15.425 16.3662 12.9479 16.3662 10.0026Z" fill="#3A4556"/>
<path d="M20.0033 10H16.3666C16.3666 12.9453 14.3641 15.4225 11.6484 16.1477L14.4568 18.956C17.7446 17.3178 20.0033 13.9228 20.0033 10Z" fill="#316D60"/>
<path d="M10.0004 19.8846C4.49656 19.8846 0.0322334 15.438 0.000805837 9.94141C0.000805837 9.96075 0 9.97928 0 9.99862C0 15.5218 4.47722 19.999 10.0004 19.999C15.5236 19.999 20.0008 15.5218 20.0008 9.99862C20.0008 9.97928 20 9.96075 20 9.94141C19.9686 15.438 15.5034 19.8846 10.0004 19.8846Z" fill="#212121" fill-opacity="0.1"/>
<path d="M11.6484 16.1477L11.7371 16.2364C14.4076 15.4821 16.3666 13.0275 16.3666 10.1136V10C16.3666 12.9453 14.3641 15.4225 11.6484 16.1477Z" fill="white" fill-opacity="0.05"/>
<path d="M18.1852 9.09375H10.0027C9.5007 9.09375 9.09375 9.5007 9.09375 10.0027C9.09375 10.5048 9.5007 10.9117 10.0027 10.9117H18.1844C18.6864 10.9117 19.0933 10.5048 19.0933 10.0027C19.0942 9.5007 18.6872 9.09375 18.1852 9.09375Z" fill="#FFFEFE"/>
<path opacity="0.5" d="M18.1852 9.09375H10.0027C9.5007 9.09375 9.09375 9.5007 9.09375 10.0027C9.09375 10.5048 9.5007 10.9117 10.0027 10.9117H18.1844C18.6864 10.9117 19.0933 10.5048 19.0933 10.0027C19.0942 9.5007 18.6872 9.09375 18.1852 9.09375Z" fill="#FFFEFE"/>
<path d="M1.81455 10.6838C2.19106 10.6838 2.49628 10.3786 2.49628 10.002C2.49628 9.62554 2.19106 9.32031 1.81455 9.32031C1.43804 9.32031 1.13281 9.62554 1.13281 10.002C1.13281 10.3786 1.43804 10.6838 1.81455 10.6838Z" fill="white"/>
<path d="M9.99424 2.50019C10.3707 2.50019 10.676 2.19497 10.676 1.81845C10.676 1.44194 10.3707 1.13672 9.99424 1.13672C9.61772 1.13672 9.3125 1.44194 9.3125 1.81845C9.3125 2.19497 9.61772 2.50019 9.99424 2.50019Z" fill="white"/>
<path d="M9.99424 18.8635C10.3707 18.8635 10.676 18.5582 10.676 18.1817C10.676 17.8052 10.3707 17.5 9.99424 17.5C9.61772 17.5 9.3125 17.8052 9.3125 18.1817C9.3125 18.5582 9.61772 18.8635 9.99424 18.8635Z" fill="white"/>
<path d="M4.20517 4.89472C4.58169 4.89472 4.88691 4.5895 4.88691 4.21299C4.88691 3.83647 4.58169 3.53125 4.20517 3.53125C3.82866 3.53125 3.52344 3.83647 3.52344 4.21299C3.52344 4.5895 3.82866 4.89472 4.20517 4.89472Z" fill="white"/>
<path d="M4.20517 16.4807C4.58169 16.4807 4.88691 16.1754 4.88691 15.7989C4.88691 15.4224 4.58169 15.1172 4.20517 15.1172C3.82866 15.1172 3.52344 15.4224 3.52344 15.7989C3.52344 16.1754 3.82866 16.4807 4.20517 16.4807Z" fill="white"/>
<path d="M15.7989 16.4768C16.1754 16.4768 16.4807 16.1715 16.4807 15.795C16.4807 15.4185 16.1754 15.1133 15.7989 15.1133C15.4224 15.1133 15.1172 15.4185 15.1172 15.795C15.1172 16.1715 15.4224 16.4768 15.7989 16.4768Z" fill="#C9C9C9"/>
<path d="M10.0027 9.20737H18.1844C18.6671 9.20737 19.0619 9.5845 19.0901 10.0599C19.0909 10.0406 19.0933 10.0221 19.0933 10.0027C19.0933 9.5007 18.6864 9.09375 18.1844 9.09375H10.0027C9.5007 9.09375 9.09375 9.5007 9.09375 10.0027C9.09375 10.0221 9.09456 10.0406 9.09697 10.0599C9.12518 9.5845 9.51923 9.20737 10.0027 9.20737Z" fill="white" fill-opacity="0.2"/>
<path d="M19.0901 10.0547C19.0603 10.5293 18.6663 10.9073 18.1844 10.9073H10.0027C9.52004 10.9073 9.12518 10.5301 9.09697 10.0547C9.09456 10.074 9.09375 10.0926 9.09375 10.1111C9.09375 10.6131 9.5007 11.0201 10.0027 11.0201H18.1844C18.6864 11.0201 19.0933 10.6131 19.0933 10.1111C19.0933 10.0926 19.0925 10.074 19.0901 10.0547Z" fill="#212121" fill-opacity="0.2"/>
<path d="M10.0043 3.75164C11.761 3.75164 13.3517 4.464 14.5041 5.61553L17.1311 2.9869C17.1118 2.96756 17.0932 2.94822 17.0747 2.92969L14.5041 5.5011C13.3517 4.34957 11.761 3.63721 10.0043 3.63721C6.48925 3.63721 3.64062 6.48583 3.64062 10.0009C3.64062 10.0202 3.64143 10.0388 3.64143 10.0581C3.67205 6.56964 6.50859 3.75164 10.0043 3.75164Z" fill="#212121" fill-opacity="0.1"/>
</svg>
