<svg width="64" height="64" viewBox="0 0 64 64" fill="none" xmlns="http://www.w3.org/2000/svg">
<path d="M58.237 31.9924C58.237 31.3823 58.2153 30.7654 58.172 30.1489L63.9977 25.1612L63.7132 24.0344C63.3233 22.4903 62.8181 20.9639 62.211 19.4957C61.603 18.0302 60.8809 16.5938 60.0649 15.2262L59.4692 14.2282L51.8355 14.8197C51.0214 13.8805 50.1403 12.9979 49.2021 12.1823L49.7948 4.5344L48.7968 3.93889C47.4291 3.1226 45.9927 2.40052 44.5254 1.79176C43.0591 1.18538 41.5327 0.680212 39.9887 0.290369L38.862 0.00585938L33.8831 5.82101C33.2521 5.77578 32.6247 5.75329 31.9977 5.75329L26.375 11.3756L31.9977 16.9984C40.2654 16.9984 46.9917 23.7246 46.9917 31.9923C46.9917 40.26 40.2654 46.9862 31.9977 46.9862L26.375 52.609L31.9977 58.2314C32.6114 58.2314 33.2247 58.21 33.8412 58.1667L38.829 63.9924L39.9558 63.7079C41.4999 63.318 43.0263 62.8128 44.4944 62.2057C45.96 61.5977 47.3965 60.8756 48.7638 60.0595L49.7618 59.4639L49.1703 51.8302C50.1095 51.0162 50.9922 50.135 51.8077 49.1968L59.4556 49.7895L60.0511 48.7915C60.8674 47.4238 61.5895 45.9874 62.1983 44.5201C62.8046 43.0538 63.3098 41.5274 63.6997 39.9834L63.9842 38.8567L58.169 33.8778C58.2141 33.2468 58.237 32.6159 58.237 31.9924Z" fill="#587AA1"/>
<path d="M5.76067 31.9924C5.76067 31.3823 5.78241 30.7654 5.82564 30.1489L0 25.1612L0.28451 24.0344C0.674352 22.4903 1.17952 20.9639 1.78665 19.4957C2.39466 18.0302 3.11674 16.5938 3.93279 15.2262L4.52842 14.2282L12.1622 14.8197C12.9763 13.8805 13.8574 12.9979 14.7955 12.1823L14.2029 4.5344L15.2009 3.93889C16.5686 3.1226 18.005 2.40052 19.4723 1.79176C20.9385 1.18538 22.4649 0.680212 24.0089 0.290369L25.1357 0.00585938L30.1146 5.82101C30.7456 5.77578 31.3729 5.75329 31.9999 5.75329V16.9984C23.7323 16.9984 17.006 23.7246 17.006 31.9923C17.006 40.26 23.7323 46.9862 31.9999 46.9862V58.2314C31.3863 58.2314 30.7729 58.21 30.1564 58.1667L25.1687 63.9924L24.0419 63.7079C22.4978 63.318 20.9714 62.8128 19.5032 62.2057C18.0377 61.5977 16.6012 60.8756 15.2338 60.0595L14.2359 59.4639L14.8274 51.8302C13.8881 51.0162 13.0055 50.135 12.1899 49.1968L4.54204 49.7895L3.94653 48.7915C3.13023 47.4238 2.40815 45.9874 1.7994 44.5201C1.19302 43.0538 0.687847 41.5274 0.298005 39.9834L0.0134945 38.8567L5.82864 33.8778C5.78341 33.2468 5.76067 32.6159 5.76067 31.9924Z" fill="#6C90B8"/>
<path d="M31.9985 13.25L28.25 16.9985L31.9985 20.747C38.1992 20.747 43.2439 25.7917 43.2439 31.9924C43.2439 38.1932 38.1992 43.2379 31.9985 43.2379L28.25 46.9864L31.9985 50.7348C42.3332 50.7348 50.7409 42.3271 50.7409 31.9924C50.7409 21.6577 42.3331 13.25 31.9985 13.25Z" fill="#81A6C7"/>
<path d="M20.7548 31.9922C20.7548 25.7914 25.7995 20.7467 32.0002 20.7467V13.2498C21.6655 13.2498 13.2578 21.6575 13.2578 31.9922C13.2578 42.3269 21.6655 50.7346 32.0002 50.7346V43.2376C25.7995 43.2376 20.7548 38.1929 20.7548 31.9922Z" fill="#97BEDB"/>
</svg>
