<svg width="22" height="22" viewBox="0 0 22 22" fill="none" xmlns="http://www.w3.org/2000/svg">
<path d="M18.5625 14.0508H3.4375C1.54206 14.0508 0 15.5928 0 17.4883C0 19.3837 1.54206 20.9258 3.4375 20.9258H18.5625C20.4579 20.9258 22 19.3837 22 17.4883C22 15.5928 20.4579 14.0508 18.5625 14.0508ZM4.55469 18.5625C3.96142 18.5625 3.48047 18.0816 3.48047 17.4883C3.48047 16.895 3.96142 16.4141 4.55469 16.4141C5.14796 16.4141 5.62891 16.895 5.62891 17.4883C5.62891 18.0816 5.14796 18.5625 4.55469 18.5625ZM8.85156 18.5625C8.25829 18.5625 7.77734 18.0816 7.77734 17.4883C7.77734 16.895 8.25829 16.4141 8.85156 16.4141C9.44483 16.4141 9.92578 16.895 9.92578 17.4883C9.92578 18.0816 9.44483 18.5625 8.85156 18.5625ZM13.1484 18.5625C12.5552 18.5625 12.0742 18.0816 12.0742 17.4883C12.0742 16.895 12.5552 16.4141 13.1484 16.4141C13.7417 16.4141 14.2227 16.895 14.2227 17.4883C14.2227 18.0816 13.7417 18.5625 13.1484 18.5625ZM17.4453 18.5625C16.852 18.5625 16.3711 18.0816 16.3711 17.4883C16.3711 16.895 16.852 16.4141 17.4453 16.4141C18.0386 16.4141 18.5195 16.895 18.5195 17.4883C18.5195 18.0816 18.0386 18.5625 17.4453 18.5625Z" fill="#54657E"/>
<path d="M15.082 5.45703H14.2227V4.29688C14.2227 2.5199 12.777 1.07422 11 1.07422C9.22303 1.07422 7.77734 2.5199 7.77734 4.29688V5.45703H6.91797C6.56202 5.45703 6.27344 5.74561 6.27344 6.10156V11.2148C6.27344 11.5708 6.56202 11.8594 6.91797 11.8594H15.082C15.438 11.8594 15.7266 11.5708 15.7266 11.2148V6.10156C15.7266 5.74561 15.438 5.45703 15.082 5.45703ZM11.6445 8.85706V9.10938C11.6445 9.46533 11.356 9.75391 11 9.75391C10.644 9.75391 10.3555 9.46533 10.3555 9.10938V8.85706C10.1053 8.7685 9.92578 8.5305 9.92578 8.25C9.92578 7.89405 10.2144 7.60547 10.5703 7.60547H11.4297C11.7856 7.60547 12.0742 7.89405 12.0742 8.25C12.0742 8.5305 11.8947 8.7685 11.6445 8.85706ZM12.9336 5.45703H9.06641V4.29688C9.06641 3.23069 9.93382 2.36328 11 2.36328C12.0662 2.36328 12.9336 3.23069 12.9336 4.29688V5.45703Z" fill="#56C6AD"/>
</svg>
