<svg width="114" height="114" viewBox="0 0 114 114" fill="none" xmlns="http://www.w3.org/2000/svg">
<path d="M56.9905 114C88.4655 114 113.981 88.4802 113.981 57C113.981 25.5198 88.4655 0 56.9905 0C25.5155 0 0 25.5198 0 57C0 88.4802 25.5155 114 56.9905 114Z" fill="#54657E"/>
<path d="M56.9905 93.2715C36.9589 93.2715 20.7251 77.035 20.7251 57C20.7251 36.965 36.9589 20.7285 56.9905 20.7285C67.0017 20.7285 76.0669 24.7888 82.6339 31.3523L97.2879 16.6958C86.9736 6.37977 72.7237 0 56.9905 0C25.5148 0 0 25.5191 0 57C0 88.4809 25.5148 114 56.9905 114C72.7283 114 86.9736 107.62 97.2925 97.3088L82.6385 82.6523C76.0669 89.2112 67.0017 93.2715 56.9905 93.2715Z" fill="#56C6AD"/>
<path d="M93.2676 57.0027H75.1326C75.1326 46.9898 67.0134 38.8646 56.9976 38.8646C46.9818 38.8646 38.8672 46.9852 38.8672 57.0027C38.8672 61.8805 40.796 66.3036 43.9325 69.5693L43.9187 69.5831L66.3705 92.0386L66.3751 92.0432C81.8603 87.9094 93.2676 73.7903 93.2676 57.0027Z" fill="#3A4556"/>
<path d="M114.004 57H93.2786C93.2786 73.7877 81.8667 87.9068 66.3906 92.0405L82.3948 108.047C101.131 98.7097 114.004 79.3591 114.004 57Z" fill="#316D60"/>
<path d="M56.9905 113.347C25.6251 113.347 0.183692 88.0028 0.00459232 56.6735C0.00459232 56.7837 0 56.8893 0 56.9996C0 88.4805 25.5148 114 56.9905 114C88.4661 114 113.981 88.4805 113.981 56.9996C113.981 56.8893 113.976 56.7837 113.976 56.6735C113.797 88.0028 88.3513 113.347 56.9905 113.347Z" fill="#212121" fill-opacity="0.1"/>
<path d="M66.3906 92.0405L66.8958 92.5458C82.1147 88.2467 93.2786 74.2562 93.2786 57.6476V57C93.2786 73.7877 81.8667 87.9068 66.3906 92.0405Z" fill="white" fill-opacity="0.05"/>
<path d="M103.631 51.8196H57.0004C54.1394 51.8196 51.8203 54.1391 51.8203 57.0006C51.8203 59.862 54.1394 62.1815 57.0004 62.1815H103.626C106.487 62.1815 108.806 59.862 108.806 57.0006C108.811 54.1391 106.492 51.8196 103.631 51.8196Z" fill="#FFFEFE"/>
<path opacity="0.5" d="M103.631 51.8196H57.0004C54.1394 51.8196 51.8203 54.1391 51.8203 57.0006C51.8203 59.862 54.1394 62.1815 57.0004 62.1815H103.626C106.487 62.1815 108.806 59.862 108.806 57.0006C108.811 54.1391 106.492 51.8196 103.631 51.8196Z" fill="#FFFEFE"/>
<path d="M10.3379 60.8899C12.4834 60.8899 14.2226 59.1502 14.2226 57.0041C14.2226 54.8581 12.4834 53.1184 10.3379 53.1184C8.19239 53.1184 6.45312 54.8581 6.45312 57.0041C6.45312 59.1502 8.19239 60.8899 10.3379 60.8899Z" fill="white"/>
<path d="M56.9551 14.2545C59.1006 14.2545 60.8398 12.5148 60.8398 10.3688C60.8398 8.22274 59.1006 6.48303 56.9551 6.48303C54.8096 6.48303 53.0703 8.22274 53.0703 10.3688C53.0703 12.5148 54.8096 14.2545 56.9551 14.2545Z" fill="white"/>
<path d="M56.9551 107.521C59.1006 107.521 60.8398 105.782 60.8398 103.636C60.8398 101.49 59.1006 99.75 56.9551 99.75C54.8096 99.75 53.0703 101.49 53.0703 103.636C53.0703 105.782 54.8096 107.521 56.9551 107.521Z" fill="white"/>
<path d="M23.9551 27.9144C26.1006 27.9144 27.8398 26.1747 27.8398 24.0287C27.8398 21.8826 26.1006 20.1429 23.9551 20.1429C21.8096 20.1429 20.0703 21.8826 20.0703 24.0287C20.0703 26.1747 21.8096 27.9144 23.9551 27.9144Z" fill="white"/>
<path d="M23.9551 93.9283C26.1006 93.9283 27.8398 92.1886 27.8398 90.0426C27.8398 87.8966 26.1006 86.1569 23.9551 86.1569C21.8096 86.1569 20.0703 87.8966 20.0703 90.0426C20.0703 92.1886 21.8096 93.9283 23.9551 93.9283Z" fill="white"/>
<path d="M90.0332 93.9134C92.1787 93.9134 93.9179 92.1737 93.9179 90.0277C93.9179 87.8817 92.1787 86.142 90.0332 86.142C87.8877 86.142 86.1484 87.8817 86.1484 90.0277C86.1484 92.1737 87.8877 93.9134 90.0332 93.9134Z" fill="#C9C9C9"/>
<path d="M56.9926 52.4709H103.618C106.369 52.4709 108.619 54.6204 108.78 57.3303C108.785 57.2201 108.798 57.1145 108.798 57.0042C108.798 54.1427 106.479 51.8232 103.618 51.8232H56.9926C54.1316 51.8232 51.8125 54.1427 51.8125 57.0042C51.8125 57.1145 51.8171 57.2201 51.8309 57.3303C51.9916 54.6204 54.2372 52.4709 56.9926 52.4709Z" fill="white" fill-opacity="0.2"/>
<path d="M108.78 57.3192C108.61 60.0245 106.364 62.1787 103.618 62.1787H56.9926C54.2418 62.1787 51.9916 60.0291 51.8309 57.3192C51.8171 57.4294 51.8125 57.5351 51.8125 57.6407C51.8125 60.5022 54.1316 62.8217 56.9926 62.8217H103.618C106.479 62.8217 108.798 60.5022 108.798 57.6407C108.798 57.5351 108.794 57.4294 108.78 57.3192Z" fill="#212121" fill-opacity="0.2"/>
<path d="M57.0154 21.373C67.0266 21.373 76.0919 25.4333 82.6588 31.9968L97.6297 17.0142C97.5195 16.904 97.4139 16.7938 97.3083 16.6881L82.6588 31.3446C76.0919 24.7811 67.0266 20.7208 57.0154 20.7208C36.9838 20.7208 20.75 36.9573 20.75 56.9923C20.75 57.1025 20.7546 57.2082 20.7546 57.3184C20.9291 37.435 37.094 21.373 57.0154 21.373Z" fill="#212121" fill-opacity="0.1"/>
</svg>
