<svg width="16" height="16" viewBox="0 0 16 16" fill="none" xmlns="http://www.w3.org/2000/svg">
<path d="M7.99754 16C5.87588 16.0019 3.84056 15.1597 2.34032 13.6591C0.840075 12.1585 -0.00190559 10.1227 3.23852e-06 8.00046V7.84047C0.0654135 4.63444 2.03761 1.77695 5.01155 0.579348C7.98548 -0.618258 11.387 0.0752435 13.655 2.3416C15.9443 4.62953 16.6294 8.07193 15.3907 11.0624C14.152 14.0528 11.2337 16.0019 7.99754 16ZM7.99754 9.1284L10.0689 11.2003L11.1966 10.0723L9.12519 8.00046L11.1966 5.92859L10.0689 4.80065L7.99754 6.87253L5.92618 4.80065L4.79853 5.92859L6.86989 8.00046L4.79853 10.0723L5.92618 11.2003L7.99754 9.1292V9.1284Z" fill="#C7CACC"/>
</svg>
