<svg width="78" height="78" viewBox="0 0 78 78" fill="none" xmlns="http://www.w3.org/2000/svg">
<rect width="78" height="78" fill="white"/>
<rect width="74.1" height="74.1" transform="translate(2.34375 2.34003)" fill="white"/>
<rect width="74.1" height="74.1" transform="translate(2.34375 2.34003)" fill="white"/>
<path d="M6.04812 25.805H3.57812V28.275H6.04812V25.805Z" fill="black"/>
<path d="M6.04812 33.215H3.57812V35.685H6.04812V33.215Z" fill="black"/>
<path d="M6.04812 35.685H3.57812V38.155H6.04812V35.685Z" fill="black"/>
<path d="M6.04812 38.155H3.57812V40.625H6.04812V38.155Z" fill="black"/>
<path d="M6.04812 40.625H3.57812V43.095H6.04812V40.625Z" fill="black"/>
<path d="M6.04812 45.5651H3.57812V48.0351H6.04812V45.5651Z" fill="black"/>
<path d="M6.04812 50.505H3.57812V52.975H6.04812V50.505Z" fill="black"/>
<path d="M6.04812 52.975H3.57812V55.445H6.04812V52.975Z" fill="black"/>
<path d="M8.51687 25.805H6.04688V28.275H8.51687V25.805Z" fill="black"/>
<path d="M8.51687 28.275H6.04688V30.745H8.51687V28.275Z" fill="black"/>
<path d="M8.51687 33.215H6.04688V35.685H8.51687V33.215Z" fill="black"/>
<path d="M8.51687 35.685H6.04688V38.155H8.51687V35.685Z" fill="black"/>
<path d="M8.51687 38.155H6.04688V40.625H8.51687V38.155Z" fill="black"/>
<path d="M8.51687 40.625H6.04688V43.095H8.51687V40.625Z" fill="black"/>
<path d="M8.51687 43.095H6.04688V45.565H8.51687V43.095Z" fill="black"/>
<path d="M8.51687 50.505H6.04688V52.975H8.51687V50.505Z" fill="black"/>
<path d="M10.9856 23.335H8.51562V25.805H10.9856V23.335Z" fill="black"/>
<path d="M10.9856 28.275H8.51562V30.745H10.9856V28.275Z" fill="black"/>
<path d="M10.9856 30.745H8.51562V33.215H10.9856V30.745Z" fill="black"/>
<path d="M10.9856 38.155H8.51562V40.625H10.9856V38.155Z" fill="black"/>
<path d="M10.9856 40.625H8.51562V43.095H10.9856V40.625Z" fill="black"/>
<path d="M10.9856 45.5649H8.51562V48.0349H10.9856V45.5649Z" fill="black"/>
<path d="M10.9856 48.035H8.51562V50.505H10.9856V48.035Z" fill="black"/>
<path d="M13.4544 28.275H10.9844V30.745H13.4544V28.275Z" fill="black"/>
<path d="M13.4544 33.215H10.9844V35.685H13.4544V33.215Z" fill="black"/>
<path d="M13.4544 38.155H10.9844V40.625H13.4544V38.155Z" fill="black"/>
<path d="M13.4544 48.035H10.9844V50.505H13.4544V48.035Z" fill="black"/>
<path d="M15.9309 23.335H13.4609V25.805H15.9309V23.335Z" fill="black"/>
<path d="M15.9309 28.275H13.4609V30.745H15.9309V28.275Z" fill="black"/>
<path d="M15.9309 33.215H13.4609V35.685H15.9309V33.215Z" fill="black"/>
<path d="M15.9309 38.155H13.4609V40.625H15.9309V38.155Z" fill="black"/>
<path d="M15.9309 43.095H13.4609V45.565H15.9309V43.095Z" fill="black"/>
<path d="M15.9309 45.5649H13.4609V48.0349H15.9309V45.5649Z" fill="black"/>
<path d="M15.9309 52.9751H13.4609V55.4451H15.9309V52.9751Z" fill="black"/>
<path d="M18.3997 23.335H15.9297V25.805H18.3997V23.335Z" fill="black"/>
<path d="M18.3997 25.805H15.9297V28.275H18.3997V25.805Z" fill="black"/>
<path d="M18.3997 30.745H15.9297V33.215H18.3997V30.745Z" fill="black"/>
<path d="M18.3997 35.685H15.9297V38.155H18.3997V35.685Z" fill="black"/>
<path d="M18.3997 38.155H15.9297V40.625H18.3997V38.155Z" fill="black"/>
<path d="M18.3997 45.5649H15.9297V48.0349H18.3997V45.5649Z" fill="black"/>
<path d="M18.3997 50.505H15.9297V52.975H18.3997V50.505Z" fill="black"/>
<path d="M20.8684 23.335H18.3984V25.805H20.8684V23.335Z" fill="black"/>
<path d="M20.8684 28.275H18.3984V30.745H20.8684V28.275Z" fill="black"/>
<path d="M20.8684 33.215H18.3984V35.685H20.8684V33.215Z" fill="black"/>
<path d="M20.8684 38.155H18.3984V40.625H20.8684V38.155Z" fill="black"/>
<path d="M20.8684 43.095H18.3984V45.565H20.8684V43.095Z" fill="black"/>
<path d="M20.8684 48.035H18.3984V50.505H20.8684V48.035Z" fill="black"/>
<path d="M20.8684 52.9751H18.3984V55.4451H20.8684V52.9751Z" fill="black"/>
<path d="M23.3372 28.275H20.8672V30.745H23.3372V28.275Z" fill="black"/>
<path d="M23.3372 30.745H20.8672V33.215H23.3372V30.745Z" fill="black"/>
<path d="M23.3372 35.685H20.8672V38.155H23.3372V35.685Z" fill="black"/>
<path d="M23.3372 52.9751H20.8672V55.4451H23.3372V52.9751Z" fill="black"/>
<path d="M25.8059 6.04498H23.3359V8.51498H25.8059V6.04498Z" fill="black"/>
<path d="M25.8059 13.455H23.3359V15.925H25.8059V13.455Z" fill="black"/>
<path d="M25.8059 18.395H23.3359V20.865H25.8059V18.395Z" fill="black"/>
<path d="M25.8059 23.335H23.3359V25.805H25.8059V23.335Z" fill="black"/>
<path d="M25.8059 33.215H23.3359V35.685H25.8059V33.215Z" fill="black"/>
<path d="M25.8059 43.095H23.3359V45.565H25.8059V43.095Z" fill="black"/>
<path d="M25.8059 50.505H23.3359V52.975H25.8059V50.505Z" fill="black"/>
<path d="M25.8059 52.9751H23.3359V55.4451H25.8059V52.9751Z" fill="black"/>
<path d="M25.8059 55.4451H23.3359V57.9151H25.8059V55.4451Z" fill="black"/>
<path d="M25.8059 60.385H23.3359V62.855H25.8059V60.385Z" fill="black"/>
<path d="M25.8059 62.855H23.3359V65.325H25.8059V62.855Z" fill="black"/>
<path d="M25.8059 67.7949H23.3359V70.2649H25.8059V67.7949Z" fill="black"/>
<path d="M28.2747 6.04498H25.8047V8.51498H28.2747V6.04498Z" fill="black"/>
<path d="M28.2747 8.51501H25.8047V10.985H28.2747V8.51501Z" fill="black"/>
<path d="M28.2747 13.455H25.8047V15.925H28.2747V13.455Z" fill="black"/>
<path d="M28.2747 15.925H25.8047V18.395H28.2747V15.925Z" fill="black"/>
<path d="M28.2747 23.335H25.8047V25.805H28.2747V23.335Z" fill="black"/>
<path d="M28.2747 30.745H25.8047V33.215H28.2747V30.745Z" fill="black"/>
<path d="M28.2747 35.685H25.8047V38.155H28.2747V35.685Z" fill="black"/>
<path d="M28.2747 40.625H25.8047V43.095H28.2747V40.625Z" fill="black"/>
<path d="M28.2747 48.035H25.8047V50.505H28.2747V48.035Z" fill="black"/>
<path d="M28.2747 50.505H25.8047V52.975H28.2747V50.505Z" fill="black"/>
<path d="M28.2747 55.4451H25.8047V57.9151H28.2747V55.4451Z" fill="black"/>
<path d="M28.2747 60.385H25.8047V62.855H28.2747V60.385Z" fill="black"/>
<path d="M28.2747 62.855H25.8047V65.325H28.2747V62.855Z" fill="black"/>
<path d="M28.2747 70.265H25.8047V72.735H28.2747V70.265Z" fill="black"/>
<path d="M28.2747 72.735H25.8047V75.205H28.2747V72.735Z" fill="black"/>
<path d="M30.7512 6.04498H28.2812V8.51498H30.7512V6.04498Z" fill="black"/>
<path d="M30.7512 8.51501H28.2812V10.985H30.7512V8.51501Z" fill="black"/>
<path d="M30.7512 18.395H28.2812V20.865H30.7512V18.395Z" fill="black"/>
<path d="M30.7512 30.745H28.2812V33.215H30.7512V30.745Z" fill="black"/>
<path d="M30.7512 33.215H28.2812V35.685H30.7512V33.215Z" fill="black"/>
<path d="M30.7512 35.685H28.2812V38.155H30.7512V35.685Z" fill="black"/>
<path d="M30.7512 40.625H28.2812V43.095H30.7512V40.625Z" fill="black"/>
<path d="M30.7512 45.5649H28.2812V48.0349H30.7512V45.5649Z" fill="black"/>
<path d="M30.7512 50.505H28.2812V52.975H30.7512V50.505Z" fill="black"/>
<path d="M30.7512 55.4451H28.2812V57.9151H30.7512V55.4451Z" fill="black"/>
<path d="M30.7512 62.855H28.2812V65.325H30.7512V62.855Z" fill="black"/>
<path d="M30.7512 65.325H28.2812V67.795H30.7512V65.325Z" fill="black"/>
<path d="M30.7512 67.7949H28.2812V70.2649H30.7512V67.7949Z" fill="black"/>
<path d="M30.7512 72.735H28.2812V75.205H30.7512V72.735Z" fill="black"/>
<path d="M33.22 3.57501H30.75V6.04501H33.22V3.57501Z" fill="black"/>
<path d="M33.22 8.51501H30.75V10.985H33.22V8.51501Z" fill="black"/>
<path d="M33.22 13.455H30.75V15.925H33.22V13.455Z" fill="black"/>
<path d="M33.22 15.925H30.75V18.395H33.22V15.925Z" fill="black"/>
<path d="M33.22 20.865H30.75V23.335H33.22V20.865Z" fill="black"/>
<path d="M33.22 23.335H30.75V25.805H33.22V23.335Z" fill="black"/>
<path d="M33.22 25.805H30.75V28.275H33.22V25.805Z" fill="black"/>
<path d="M33.22 28.275H30.75V30.745H33.22V28.275Z" fill="black"/>
<path d="M33.22 30.745H30.75V33.215H33.22V30.745Z" fill="black"/>
<path d="M33.22 40.625H30.75V43.095H33.22V40.625Z" fill="black"/>
<path d="M33.22 45.5649H30.75V48.0349H33.22V45.5649Z" fill="black"/>
<path d="M33.22 48.035H30.75V50.505H33.22V48.035Z" fill="black"/>
<path d="M33.22 50.505H30.75V52.975H33.22V50.505Z" fill="black"/>
<path d="M33.22 52.9751H30.75V55.4451H33.22V52.9751Z" fill="black"/>
<path d="M33.22 55.4451H30.75V57.9151H33.22V55.4451Z" fill="black"/>
<path d="M33.22 65.325H30.75V67.795H33.22V65.325Z" fill="black"/>
<path d="M33.22 70.265H30.75V72.735H33.22V70.265Z" fill="black"/>
<path d="M33.22 72.735H30.75V75.205H33.22V72.735Z" fill="black"/>
<path d="M35.6887 3.57501H33.2188V6.04501H35.6887V3.57501Z" fill="black"/>
<path d="M35.6887 6.04498H33.2188V8.51498H35.6887V6.04498Z" fill="black"/>
<path d="M35.6887 10.985H33.2188V13.455H35.6887V10.985Z" fill="black"/>
<path d="M35.6887 15.925H33.2188V18.395H35.6887V15.925Z" fill="black"/>
<path d="M35.6887 18.395H33.2188V20.865H35.6887V18.395Z" fill="black"/>
<path d="M35.6887 20.865H33.2188V23.335H35.6887V20.865Z" fill="black"/>
<path d="M35.6887 23.335H33.2188V25.805H35.6887V23.335Z" fill="black"/>
<path d="M35.6887 33.215H33.2188V35.685H35.6887V33.215Z" fill="black"/>
<path d="M35.6887 35.685H33.2188V38.155H35.6887V35.685Z" fill="black"/>
<path d="M35.6887 40.625H33.2188V43.095H35.6887V40.625Z" fill="black"/>
<path d="M35.6887 45.5649H33.2188V48.0349H35.6887V45.5649Z" fill="black"/>
<path d="M35.6887 52.9751H33.2188V55.4451H35.6887V52.9751Z" fill="black"/>
<path d="M35.6887 60.385H33.2188V62.855H35.6887V60.385Z" fill="black"/>
<path d="M35.6887 67.7949H33.2188V70.2649H35.6887V67.7949Z" fill="black"/>
<path d="M35.6887 72.735H33.2188V75.205H35.6887V72.735Z" fill="black"/>
<path d="M38.1575 8.51501H35.6875V10.985H38.1575V8.51501Z" fill="black"/>
<path d="M38.1575 15.925H35.6875V18.395H38.1575V15.925Z" fill="black"/>
<path d="M38.1575 20.865H35.6875V23.335H38.1575V20.865Z" fill="black"/>
<path d="M38.1575 25.805H35.6875V28.275H38.1575V25.805Z" fill="black"/>
<path d="M38.1575 30.745H35.6875V33.215H38.1575V30.745Z" fill="black"/>
<path d="M38.1575 38.155H35.6875V40.625H38.1575V38.155Z" fill="black"/>
<path d="M38.1575 43.095H35.6875V45.565H38.1575V43.095Z" fill="black"/>
<path d="M38.1575 57.915H35.6875V60.385H38.1575V57.915Z" fill="black"/>
<path d="M38.1575 62.855H35.6875V65.325H38.1575V62.855Z" fill="black"/>
<path d="M38.1575 67.7949H35.6875V70.2649H38.1575V67.7949Z" fill="black"/>
<path d="M38.1575 72.735H35.6875V75.205H38.1575V72.735Z" fill="black"/>
<path d="M40.6262 10.985H38.1562V13.455H40.6262V10.985Z" fill="black"/>
<path d="M40.6262 13.455H38.1562V15.925H40.6262V13.455Z" fill="black"/>
<path d="M40.6262 15.925H38.1562V18.395H40.6262V15.925Z" fill="black"/>
<path d="M40.6262 18.395H38.1562V20.865H40.6262V18.395Z" fill="black"/>
<path d="M40.6262 20.865H38.1562V23.335H40.6262V20.865Z" fill="black"/>
<path d="M40.6262 25.805H38.1562V28.275H40.6262V25.805Z" fill="black"/>
<path d="M40.6262 28.275H38.1562V30.745H40.6262V28.275Z" fill="black"/>
<path d="M40.6262 30.745H38.1562V33.215H40.6262V30.745Z" fill="black"/>
<path d="M40.6262 33.215H38.1562V35.685H40.6262V33.215Z" fill="black"/>
<path d="M40.6262 35.685H38.1562V38.155H40.6262V35.685Z" fill="black"/>
<path d="M40.6262 38.155H38.1562V40.625H40.6262V38.155Z" fill="black"/>
<path d="M40.6262 40.625H38.1562V43.095H40.6262V40.625Z" fill="black"/>
<path d="M40.6262 43.095H38.1562V45.565H40.6262V43.095Z" fill="black"/>
<path d="M40.6262 45.5649H38.1562V48.0349H40.6262V45.5649Z" fill="black"/>
<path d="M40.6262 52.9751H38.1562V55.4451H40.6262V52.9751Z" fill="black"/>
<path d="M40.6262 55.4451H38.1562V57.9151H40.6262V55.4451Z" fill="black"/>
<path d="M40.6262 57.915H38.1562V60.385H40.6262V57.915Z" fill="black"/>
<path d="M40.6262 62.855H38.1562V65.325H40.6262V62.855Z" fill="black"/>
<path d="M40.6262 70.265H38.1562V72.735H40.6262V70.265Z" fill="black"/>
<path d="M40.6262 72.735H38.1562V75.205H40.6262V72.735Z" fill="black"/>
<path d="M43.095 8.51501H40.625V10.985H43.095V8.51501Z" fill="black"/>
<path d="M43.095 10.985H40.625V13.455H43.095V10.985Z" fill="black"/>
<path d="M43.095 28.275H40.625V30.745H43.095V28.275Z" fill="black"/>
<path d="M43.095 30.745H40.625V33.215H43.095V30.745Z" fill="black"/>
<path d="M43.095 40.625H40.625V43.095H43.095V40.625Z" fill="black"/>
<path d="M43.095 43.095H40.625V45.565H43.095V43.095Z" fill="black"/>
<path d="M43.095 45.5649H40.625V48.0349H43.095V45.5649Z" fill="black"/>
<path d="M43.095 48.035H40.625V50.505H43.095V48.035Z" fill="black"/>
<path d="M43.095 52.9751H40.625V55.4451H43.095V52.9751Z" fill="black"/>
<path d="M43.095 57.915H40.625V60.385H43.095V57.915Z" fill="black"/>
<path d="M43.095 60.385H40.625V62.855H43.095V60.385Z" fill="black"/>
<path d="M43.095 65.325H40.625V67.795H43.095V65.325Z" fill="black"/>
<path d="M43.095 72.735H40.625V75.205H43.095V72.735Z" fill="black"/>
<path d="M45.5716 3.57501H43.1016V6.04501H45.5716V3.57501Z" fill="black"/>
<path d="M45.5716 6.04498H43.1016V8.51498H45.5716V6.04498Z" fill="black"/>
<path d="M45.5716 8.51501H43.1016V10.985H45.5716V8.51501Z" fill="black"/>
<path d="M45.5716 10.985H43.1016V13.455H45.5716V10.985Z" fill="black"/>
<path d="M45.5716 13.455H43.1016V15.925H45.5716V13.455Z" fill="black"/>
<path d="M45.5716 15.925H43.1016V18.395H45.5716V15.925Z" fill="black"/>
<path d="M45.5716 18.395H43.1016V20.865H45.5716V18.395Z" fill="black"/>
<path d="M45.5716 28.275H43.1016V30.745H45.5716V28.275Z" fill="black"/>
<path d="M45.5716 33.215H43.1016V35.685H45.5716V33.215Z" fill="black"/>
<path d="M45.5716 35.685H43.1016V38.155H45.5716V35.685Z" fill="black"/>
<path d="M45.5716 38.155H43.1016V40.625H45.5716V38.155Z" fill="black"/>
<path d="M45.5716 40.625H43.1016V43.095H45.5716V40.625Z" fill="black"/>
<path d="M45.5716 48.035H43.1016V50.505H45.5716V48.035Z" fill="black"/>
<path d="M45.5716 52.9751H43.1016V55.4451H45.5716V52.9751Z" fill="black"/>
<path d="M45.5716 55.4451H43.1016V57.9151H45.5716V55.4451Z" fill="black"/>
<path d="M45.5716 60.385H43.1016V62.855H45.5716V60.385Z" fill="black"/>
<path d="M45.5716 70.265H43.1016V72.735H45.5716V70.265Z" fill="black"/>
<path d="M45.5716 72.735H43.1016V75.205H45.5716V72.735Z" fill="black"/>
<path d="M48.0403 3.57501H45.5703V6.04501H48.0403V3.57501Z" fill="black"/>
<path d="M48.0403 6.04498H45.5703V8.51498H48.0403V6.04498Z" fill="black"/>
<path d="M48.0403 13.455H45.5703V15.925H48.0403V13.455Z" fill="black"/>
<path d="M48.0403 25.805H45.5703V28.275H48.0403V25.805Z" fill="black"/>
<path d="M48.0403 28.275H45.5703V30.745H48.0403V28.275Z" fill="black"/>
<path d="M48.0403 33.215H45.5703V35.685H48.0403V33.215Z" fill="black"/>
<path d="M48.0403 38.155H45.5703V40.625H48.0403V38.155Z" fill="black"/>
<path d="M48.0403 43.095H45.5703V45.565H48.0403V43.095Z" fill="black"/>
<path d="M48.0403 50.505H45.5703V52.975H48.0403V50.505Z" fill="black"/>
<path d="M48.0403 52.9751H45.5703V55.4451H48.0403V52.9751Z" fill="black"/>
<path d="M48.0403 57.915H45.5703V60.385H48.0403V57.915Z" fill="black"/>
<path d="M48.0403 62.855H45.5703V65.325H48.0403V62.855Z" fill="black"/>
<path d="M48.0403 65.325H45.5703V67.795H48.0403V65.325Z" fill="black"/>
<path d="M48.0403 67.7949H45.5703V70.2649H48.0403V67.7949Z" fill="black"/>
<path d="M48.0403 72.735H45.5703V75.205H48.0403V72.735Z" fill="black"/>
<path d="M50.5091 8.51501H48.0391V10.985H50.5091V8.51501Z" fill="black"/>
<path d="M50.5091 13.455H48.0391V15.925H50.5091V13.455Z" fill="black"/>
<path d="M50.5091 18.395H48.0391V20.865H50.5091V18.395Z" fill="black"/>
<path d="M50.5091 23.335H48.0391V25.805H50.5091V23.335Z" fill="black"/>
<path d="M50.5091 25.805H48.0391V28.275H50.5091V25.805Z" fill="black"/>
<path d="M50.5091 28.275H48.0391V30.745H50.5091V28.275Z" fill="black"/>
<path d="M50.5091 35.685H48.0391V38.155H50.5091V35.685Z" fill="black"/>
<path d="M50.5091 43.095H48.0391V45.565H50.5091V43.095Z" fill="black"/>
<path d="M50.5091 52.9751H48.0391V55.4451H50.5091V52.9751Z" fill="black"/>
<path d="M50.5091 62.855H48.0391V65.325H50.5091V62.855Z" fill="black"/>
<path d="M50.5091 67.7949H48.0391V70.2649H50.5091V67.7949Z" fill="black"/>
<path d="M50.5091 72.735H48.0391V75.205H50.5091V72.735Z" fill="black"/>
<path d="M52.9778 15.925H50.5078V18.395H52.9778V15.925Z" fill="black"/>
<path d="M52.9778 25.805H50.5078V28.275H52.9778V25.805Z" fill="black"/>
<path d="M52.9778 28.275H50.5078V30.745H52.9778V28.275Z" fill="black"/>
<path d="M52.9778 30.745H50.5078V33.215H52.9778V30.745Z" fill="black"/>
<path d="M52.9778 38.155H50.5078V40.625H52.9778V38.155Z" fill="black"/>
<path d="M52.9778 45.5649H50.5078V48.0349H52.9778V45.5649Z" fill="black"/>
<path d="M52.9778 50.505H50.5078V52.975H52.9778V50.505Z" fill="black"/>
<path d="M52.9778 52.9751H50.5078V55.4451H52.9778V52.9751Z" fill="black"/>
<path d="M52.9778 65.325H50.5078V67.795H52.9778V65.325Z" fill="black"/>
<path d="M52.9778 72.735H50.5078V75.205H52.9778V72.735Z" fill="black"/>
<path d="M55.4466 3.57501H52.9766V6.04501H55.4466V3.57501Z" fill="black"/>
<path d="M55.4466 6.04498H52.9766V8.51498H55.4466V6.04498Z" fill="black"/>
<path d="M55.4466 8.51501H52.9766V10.985H55.4466V8.51501Z" fill="black"/>
<path d="M55.4466 13.455H52.9766V15.925H55.4466V13.455Z" fill="black"/>
<path d="M55.4466 15.925H52.9766V18.395H55.4466V15.925Z" fill="black"/>
<path d="M55.4466 18.395H52.9766V20.865H55.4466V18.395Z" fill="black"/>
<path d="M55.4466 28.275H52.9766V30.745H55.4466V28.275Z" fill="black"/>
<path d="M55.4466 33.215H52.9766V35.685H55.4466V33.215Z" fill="black"/>
<path d="M55.4466 35.685H52.9766V38.155H55.4466V35.685Z" fill="black"/>
<path d="M55.4466 40.625H52.9766V43.095H55.4466V40.625Z" fill="black"/>
<path d="M55.4466 45.5649H52.9766V48.0349H55.4466V45.5649Z" fill="black"/>
<path d="M55.4466 48.035H52.9766V50.505H55.4466V48.035Z" fill="black"/>
<path d="M55.4466 50.505H52.9766V52.975H55.4466V50.505Z" fill="black"/>
<path d="M55.4466 52.9751H52.9766V55.4451H55.4466V52.9751Z" fill="black"/>
<path d="M55.4466 55.4451H52.9766V57.9151H55.4466V55.4451Z" fill="black"/>
<path d="M55.4466 57.915H52.9766V60.385H55.4466V57.915Z" fill="black"/>
<path d="M55.4466 60.385H52.9766V62.855H55.4466V60.385Z" fill="black"/>
<path d="M55.4466 62.855H52.9766V65.325H55.4466V62.855Z" fill="black"/>
<path d="M55.4466 67.7949H52.9766V70.2649H55.4466V67.7949Z" fill="black"/>
<path d="M55.4466 72.735H52.9766V75.205H55.4466V72.735Z" fill="black"/>
<path d="M57.9153 23.335H55.4453V25.805H57.9153V23.335Z" fill="black"/>
<path d="M57.9153 25.805H55.4453V28.275H57.9153V25.805Z" fill="black"/>
<path d="M57.9153 35.685H55.4453V38.155H57.9153V35.685Z" fill="black"/>
<path d="M57.9153 40.625H55.4453V43.095H57.9153V40.625Z" fill="black"/>
<path d="M57.9153 43.095H55.4453V45.565H57.9153V43.095Z" fill="black"/>
<path d="M57.9153 45.5649H55.4453V48.0349H57.9153V45.5649Z" fill="black"/>
<path d="M57.9153 48.035H55.4453V50.505H57.9153V48.035Z" fill="black"/>
<path d="M57.9153 50.505H55.4453V52.975H57.9153V50.505Z" fill="black"/>
<path d="M57.9153 52.9751H55.4453V55.4451H57.9153V52.9751Z" fill="black"/>
<path d="M57.9153 62.855H55.4453V65.325H57.9153V62.855Z" fill="black"/>
<path d="M57.9153 67.7949H55.4453V70.2649H57.9153V67.7949Z" fill="black"/>
<path d="M57.9153 72.735H55.4453V75.205H57.9153V72.735Z" fill="black"/>
<path d="M60.3919 25.805H57.9219V28.275H60.3919V25.805Z" fill="black"/>
<path d="M60.3919 28.275H57.9219V30.745H60.3919V28.275Z" fill="black"/>
<path d="M60.3919 30.745H57.9219V33.215H60.3919V30.745Z" fill="black"/>
<path d="M60.3919 38.155H57.9219V40.625H60.3919V38.155Z" fill="black"/>
<path d="M60.3919 40.625H57.9219V43.095H60.3919V40.625Z" fill="black"/>
<path d="M60.3919 48.035H57.9219V50.505H60.3919V48.035Z" fill="black"/>
<path d="M60.3919 50.505H57.9219V52.975H60.3919V50.505Z" fill="black"/>
<path d="M60.3919 52.9751H57.9219V55.4451H60.3919V52.9751Z" fill="black"/>
<path d="M60.3919 57.915H57.9219V60.385H60.3919V57.915Z" fill="black"/>
<path d="M60.3919 62.855H57.9219V65.325H60.3919V62.855Z" fill="black"/>
<path d="M60.3919 72.735H57.9219V75.205H60.3919V72.735Z" fill="black"/>
<path d="M62.8606 25.805H60.3906V28.275H62.8606V25.805Z" fill="black"/>
<path d="M62.8606 30.745H60.3906V33.215H62.8606V30.745Z" fill="black"/>
<path d="M62.8606 33.215H60.3906V35.685H62.8606V33.215Z" fill="black"/>
<path d="M62.8606 35.685H60.3906V38.155H62.8606V35.685Z" fill="black"/>
<path d="M62.8606 38.155H60.3906V40.625H62.8606V38.155Z" fill="black"/>
<path d="M62.8606 43.095H60.3906V45.565H62.8606V43.095Z" fill="black"/>
<path d="M62.8606 50.505H60.3906V52.975H62.8606V50.505Z" fill="black"/>
<path d="M62.8606 52.9751H60.3906V55.4451H62.8606V52.9751Z" fill="black"/>
<path d="M62.8606 62.855H60.3906V65.325H62.8606V62.855Z" fill="black"/>
<path d="M62.8606 65.325H60.3906V67.795H62.8606V65.325Z" fill="black"/>
<path d="M65.3294 23.335H62.8594V25.805H65.3294V23.335Z" fill="black"/>
<path d="M65.3294 33.215H62.8594V35.685H65.3294V33.215Z" fill="black"/>
<path d="M65.3294 43.095H62.8594V45.565H65.3294V43.095Z" fill="black"/>
<path d="M65.3294 50.505H62.8594V52.975H65.3294V50.505Z" fill="black"/>
<path d="M65.3294 52.9751H62.8594V55.4451H65.3294V52.9751Z" fill="black"/>
<path d="M65.3294 55.4451H62.8594V57.9151H65.3294V55.4451Z" fill="black"/>
<path d="M65.3294 57.915H62.8594V60.385H65.3294V57.915Z" fill="black"/>
<path d="M65.3294 60.385H62.8594V62.855H65.3294V60.385Z" fill="black"/>
<path d="M65.3294 62.855H62.8594V65.325H65.3294V62.855Z" fill="black"/>
<path d="M65.3294 70.265H62.8594V72.735H65.3294V70.265Z" fill="black"/>
<path d="M65.3294 72.735H62.8594V75.205H65.3294V72.735Z" fill="black"/>
<path d="M67.7981 28.275H65.3281V30.745H67.7981V28.275Z" fill="black"/>
<path d="M67.7981 35.685H65.3281V38.155H67.7981V35.685Z" fill="black"/>
<path d="M67.7981 45.5651H65.3281V48.0351H67.7981V45.5651Z" fill="black"/>
<path d="M67.7981 48.035H65.3281V50.505H67.7981V48.035Z" fill="black"/>
<path d="M67.7981 60.385H65.3281V62.855H67.7981V60.385Z" fill="black"/>
<path d="M67.7981 65.325H65.3281V67.795H67.7981V65.325Z" fill="black"/>
<path d="M67.7981 70.265H65.3281V72.735H67.7981V70.265Z" fill="black"/>
<path d="M70.2669 25.805H67.7969V28.275H70.2669V25.805Z" fill="black"/>
<path d="M70.2669 28.275H67.7969V30.745H70.2669V28.275Z" fill="black"/>
<path d="M70.2669 33.215H67.7969V35.685H70.2669V33.215Z" fill="black"/>
<path d="M70.2669 40.625H67.7969V43.095H70.2669V40.625Z" fill="black"/>
<path d="M70.2669 48.035H67.7969V50.505H70.2669V48.035Z" fill="black"/>
<path d="M70.2669 50.505H67.7969V52.975H70.2669V50.505Z" fill="black"/>
<path d="M70.2669 52.9751H67.7969V55.4451H70.2669V52.9751Z" fill="black"/>
<path d="M70.2669 55.4451H67.7969V57.9151H70.2669V55.4451Z" fill="black"/>
<path d="M70.2669 70.265H67.7969V72.735H70.2669V70.265Z" fill="black"/>
<path d="M70.2669 72.735H67.7969V75.205H70.2669V72.735Z" fill="black"/>
<path d="M72.7356 23.335H70.2656V25.805H72.7356V23.335Z" fill="black"/>
<path d="M72.7356 28.275H70.2656V30.745H72.7356V28.275Z" fill="black"/>
<path d="M72.7356 33.215H70.2656V35.685H72.7356V33.215Z" fill="black"/>
<path d="M72.7356 38.155H70.2656V40.625H72.7356V38.155Z" fill="black"/>
<path d="M72.7356 40.625H70.2656V43.095H72.7356V40.625Z" fill="black"/>
<path d="M72.7356 43.095H70.2656V45.565H72.7356V43.095Z" fill="black"/>
<path d="M72.7356 45.5649H70.2656V48.0349H72.7356V45.5649Z" fill="black"/>
<path d="M72.7356 55.4451H70.2656V57.9151H72.7356V55.4451Z" fill="black"/>
<path d="M72.7356 57.915H70.2656V60.385H72.7356V57.915Z" fill="black"/>
<path d="M72.7356 60.385H70.2656V62.855H72.7356V60.385Z" fill="black"/>
<path d="M72.7356 65.325H70.2656V67.795H72.7356V65.325Z" fill="black"/>
<path d="M72.7356 70.265H70.2656V72.735H72.7356V70.265Z" fill="black"/>
<path d="M72.7356 72.735H70.2656V75.205H72.7356V72.735Z" fill="black"/>
<path d="M75.2044 25.805H72.7344V28.275H75.2044V25.805Z" fill="black"/>
<path d="M75.2044 28.275H72.7344V30.745H75.2044V28.275Z" fill="black"/>
<path d="M75.2044 33.215H72.7344V35.685H75.2044V33.215Z" fill="black"/>
<path d="M75.2044 35.685H72.7344V38.155H75.2044V35.685Z" fill="black"/>
<path d="M75.2044 45.5649H72.7344V48.0349H75.2044V45.5649Z" fill="black"/>
<path d="M75.2044 52.9751H72.7344V55.4451H75.2044V52.9751Z" fill="black"/>
<path d="M75.2044 57.915H72.7344V60.385H75.2044V57.915Z" fill="black"/>
<path d="M75.2044 62.855H72.7344V65.325H75.2044V62.855Z" fill="black"/>
<path d="M75.2044 70.265H72.7344V72.735H75.2044V70.265Z" fill="black"/>
<path d="M6.04812 3.57501H3.57812V6.04501H6.04812V3.57501Z" fill="black"/>
<path d="M6.04812 6.04498H3.57812V8.51498H6.04812V6.04498Z" fill="black"/>
<path d="M6.04812 8.51501H3.57812V10.985H6.04812V8.51501Z" fill="black"/>
<path d="M6.04812 10.985H3.57812V13.455H6.04812V10.985Z" fill="black"/>
<path d="M6.04812 13.455H3.57812V15.925H6.04812V13.455Z" fill="black"/>
<path d="M6.04812 15.925H3.57812V18.395H6.04812V15.925Z" fill="black"/>
<path d="M6.04812 18.395H3.57812V20.865H6.04812V18.395Z" fill="black"/>
<path d="M8.51687 3.57501H6.04688V6.04501H8.51687V3.57501Z" fill="black"/>
<path d="M8.51687 18.395H6.04688V20.865H8.51687V18.395Z" fill="black"/>
<path d="M10.9856 3.57501H8.51562V6.04501H10.9856V3.57501Z" fill="black"/>
<path d="M10.9856 18.395H8.51562V20.865H10.9856V18.395Z" fill="black"/>
<path d="M13.4544 3.57501H10.9844V6.04501H13.4544V3.57501Z" fill="black"/>
<path d="M13.4544 18.395H10.9844V20.865H13.4544V18.395Z" fill="black"/>
<path d="M15.9309 3.57501H13.4609V6.04501H15.9309V3.57501Z" fill="black"/>
<path d="M15.9309 18.395H13.4609V20.865H15.9309V18.395Z" fill="black"/>
<path d="M18.3997 3.57501H15.9297V6.04501H18.3997V3.57501Z" fill="black"/>
<path d="M18.3997 18.395H15.9297V20.865H18.3997V18.395Z" fill="black"/>
<path d="M20.8684 3.57501H18.3984V6.04501H20.8684V3.57501Z" fill="black"/>
<path d="M20.8684 6.04498H18.3984V8.51498H20.8684V6.04498Z" fill="black"/>
<path d="M20.8684 8.51501H18.3984V10.985H20.8684V8.51501Z" fill="black"/>
<path d="M20.8684 10.985H18.3984V13.455H20.8684V10.985Z" fill="black"/>
<path d="M20.8684 13.455H18.3984V15.925H20.8684V13.455Z" fill="black"/>
<path d="M20.8684 15.925H18.3984V18.395H20.8684V15.925Z" fill="black"/>
<path d="M20.8684 18.395H18.3984V20.865H20.8684V18.395Z" fill="black"/>
<path d="M10.9856 8.51501H8.51562V10.985H10.9856V8.51501Z" fill="black"/>
<path d="M10.9856 10.985H8.51562V13.455H10.9856V10.985Z" fill="black"/>
<path d="M10.9856 13.455H8.51562V15.925H10.9856V13.455Z" fill="black"/>
<path d="M13.4544 8.51501H10.9844V10.985H13.4544V8.51501Z" fill="black"/>
<path d="M13.4544 10.985H10.9844V13.455H13.4544V10.985Z" fill="black"/>
<path d="M13.4544 13.455H10.9844V15.925H13.4544V13.455Z" fill="black"/>
<path d="M15.9231 8.51501H13.4531V10.985H15.9231V8.51501Z" fill="black"/>
<path d="M15.9231 10.985H13.4531V13.455H15.9231V10.985Z" fill="black"/>
<path d="M15.9231 13.455H13.4531V15.925H15.9231V13.455Z" fill="black"/>
<path d="M60.3919 3.57501H57.9219V6.04501H60.3919V3.57501Z" fill="black"/>
<path d="M60.3919 6.04498H57.9219V8.51498H60.3919V6.04498Z" fill="black"/>
<path d="M60.3919 8.51501H57.9219V10.985H60.3919V8.51501Z" fill="black"/>
<path d="M60.3919 10.985H57.9219V13.455H60.3919V10.985Z" fill="black"/>
<path d="M60.3919 13.455H57.9219V15.925H60.3919V13.455Z" fill="black"/>
<path d="M60.3919 15.925H57.9219V18.395H60.3919V15.925Z" fill="black"/>
<path d="M60.3919 18.395H57.9219V20.865H60.3919V18.395Z" fill="black"/>
<path d="M62.8606 3.57501H60.3906V6.04501H62.8606V3.57501Z" fill="black"/>
<path d="M62.8606 18.395H60.3906V20.865H62.8606V18.395Z" fill="black"/>
<path d="M65.3294 3.57501H62.8594V6.04501H65.3294V3.57501Z" fill="black"/>
<path d="M65.3294 18.395H62.8594V20.865H65.3294V18.395Z" fill="black"/>
<path d="M67.7981 3.57501H65.3281V6.04501H67.7981V3.57501Z" fill="black"/>
<path d="M67.7981 18.395H65.3281V20.865H67.7981V18.395Z" fill="black"/>
<path d="M70.2747 3.57501H67.8047V6.04501H70.2747V3.57501Z" fill="black"/>
<path d="M70.2747 18.395H67.8047V20.865H70.2747V18.395Z" fill="black"/>
<path d="M72.7434 3.57501H70.2734V6.04501H72.7434V3.57501Z" fill="black"/>
<path d="M72.7434 18.395H70.2734V20.865H72.7434V18.395Z" fill="black"/>
<path d="M75.2122 3.57501H72.7422V6.04501H75.2122V3.57501Z" fill="black"/>
<path d="M75.2122 6.04498H72.7422V8.51498H75.2122V6.04498Z" fill="black"/>
<path d="M75.2122 8.51501H72.7422V10.985H75.2122V8.51501Z" fill="black"/>
<path d="M75.2122 10.985H72.7422V13.455H75.2122V10.985Z" fill="black"/>
<path d="M75.2122 13.455H72.7422V15.925H75.2122V13.455Z" fill="black"/>
<path d="M75.2122 15.925H72.7422V18.395H75.2122V15.925Z" fill="black"/>
<path d="M75.2122 18.395H72.7422V20.865H75.2122V18.395Z" fill="black"/>
<path d="M65.3294 8.51501H62.8594V10.985H65.3294V8.51501Z" fill="black"/>
<path d="M65.3294 10.985H62.8594V13.455H65.3294V10.985Z" fill="black"/>
<path d="M65.3294 13.455H62.8594V15.925H65.3294V13.455Z" fill="black"/>
<path d="M67.7981 8.51501H65.3281V10.985H67.7981V8.51501Z" fill="black"/>
<path d="M67.7981 10.985H65.3281V13.455H67.7981V10.985Z" fill="black"/>
<path d="M67.7981 13.455H65.3281V15.925H67.7981V13.455Z" fill="black"/>
<path d="M70.2669 8.51501H67.7969V10.985H70.2669V8.51501Z" fill="black"/>
<path d="M70.2669 10.985H67.7969V13.455H70.2669V10.985Z" fill="black"/>
<path d="M70.2669 13.455H67.7969V15.925H70.2669V13.455Z" fill="black"/>
<path d="M6.04812 57.915H3.57812V60.385H6.04812V57.915Z" fill="black"/>
<path d="M6.04812 60.385H3.57812V62.855H6.04812V60.385Z" fill="black"/>
<path d="M6.04812 62.855H3.57812V65.325H6.04812V62.855Z" fill="black"/>
<path d="M6.04812 65.3251H3.57812V67.7951H6.04812V65.3251Z" fill="black"/>
<path d="M6.04812 67.795H3.57812V70.265H6.04812V67.795Z" fill="black"/>
<path d="M6.04812 70.265H3.57812V72.735H6.04812V70.265Z" fill="black"/>
<path d="M6.04812 72.735H3.57812V75.205H6.04812V72.735Z" fill="black"/>
<path d="M8.51687 57.915H6.04688V60.385H8.51687V57.915Z" fill="black"/>
<path d="M8.51687 72.7351H6.04688V75.2051H8.51687V72.7351Z" fill="black"/>
<path d="M10.9856 57.915H8.51562V60.385H10.9856V57.915Z" fill="black"/>
<path d="M10.9856 72.7351H8.51562V75.2051H10.9856V72.7351Z" fill="black"/>
<path d="M13.4544 57.915H10.9844V60.385H13.4544V57.915Z" fill="black"/>
<path d="M13.4544 72.7351H10.9844V75.2051H13.4544V72.7351Z" fill="black"/>
<path d="M15.9309 57.915H13.4609V60.385H15.9309V57.915Z" fill="black"/>
<path d="M15.9309 72.7351H13.4609V75.2051H15.9309V72.7351Z" fill="black"/>
<path d="M18.3997 57.915H15.9297V60.385H18.3997V57.915Z" fill="black"/>
<path d="M18.3997 72.7351H15.9297V75.2051H18.3997V72.7351Z" fill="black"/>
<path d="M20.8684 57.915H18.3984V60.385H20.8684V57.915Z" fill="black"/>
<path d="M20.8684 60.385H18.3984V62.855H20.8684V60.385Z" fill="black"/>
<path d="M20.8684 62.855H18.3984V65.325H20.8684V62.855Z" fill="black"/>
<path d="M20.8684 65.325H18.3984V67.795H20.8684V65.325Z" fill="black"/>
<path d="M20.8684 67.795H18.3984V70.265H20.8684V67.795Z" fill="black"/>
<path d="M20.8684 70.265H18.3984V72.735H20.8684V70.265Z" fill="black"/>
<path d="M20.8684 72.7351H18.3984V75.2051H20.8684V72.7351Z" fill="black"/>
<path d="M10.9856 62.855H8.51562V65.325H10.9856V62.855Z" fill="black"/>
<path d="M10.9856 65.325H8.51562V67.795H10.9856V65.325Z" fill="black"/>
<path d="M10.9856 67.7949H8.51562V70.2649H10.9856V67.7949Z" fill="black"/>
<path d="M13.4544 62.855H10.9844V65.325H13.4544V62.855Z" fill="black"/>
<path d="M13.4544 65.325H10.9844V67.795H13.4544V65.325Z" fill="black"/>
<path d="M13.4544 67.7949H10.9844V70.2649H13.4544V67.7949Z" fill="black"/>
<path d="M15.9231 62.855H13.4531V65.325H15.9231V62.855Z" fill="black"/>
<path d="M15.9231 65.325H13.4531V67.795H15.9231V65.325Z" fill="black"/>
<path d="M15.9231 67.7949H13.4531V70.2649H15.9231V67.7949Z" fill="black"/>
</svg>
