<svg width="22" height="22" viewBox="0 0 22 22" fill="none" xmlns="http://www.w3.org/2000/svg">
<rect x="1.21875" y="1.22266" width="19.5556" height="19.5556" rx="9.77778" fill="#54657E"/>
<path d="M14.9115 11.3649V14.0614H13.333V11.5293C13.333 10.9045 13.1028 10.477 12.5437 10.477C12.1162 10.477 11.8532 10.773 11.7545 11.036C11.7216 11.1347 11.6887 11.2662 11.6887 11.4307V14.0614H10.1103C10.1103 14.0614 10.1431 9.78641 10.1103 9.3589H11.6887V10.0166C11.886 9.68775 12.2807 9.22736 13.1028 9.22736C14.1222 9.22736 14.9115 9.91795 14.9115 11.3649ZM8.46602 7.08984C7.93986 7.08984 7.57812 7.45158 7.57812 7.91197C7.57812 8.37235 7.90697 8.73409 8.43313 8.73409C8.99218 8.73409 9.32103 8.37235 9.32103 7.91197C9.35391 7.41869 9.02506 7.08984 8.46602 7.08984ZM7.67678 14.0614H9.25525V9.3589H7.67678V14.0614Z" fill="white"/>
</svg>
