<svg width="22" height="22" viewBox="0 0 22 22" fill="none" xmlns="http://www.w3.org/2000/svg">
<rect x="1.21875" y="1.22266" width="19.5556" height="19.5556" rx="9.77778" fill="#54657E"/>
<path d="M16.1838 8.50701C15.8416 8.65368 15.4505 8.75146 15.0593 8.80035C15.4505 8.5559 15.7927 8.16479 15.9393 7.72479C15.5482 7.96924 15.1571 8.1159 14.6682 8.21368C14.326 7.82257 13.7882 7.57812 13.2504 7.57812C12.1749 7.57812 11.2949 8.45812 11.2949 9.53368C11.2949 9.68035 11.2949 9.82701 11.3438 9.97368C9.73045 9.8759 8.26378 9.09368 7.286 7.92035C7.13934 8.21368 7.04156 8.5559 7.04156 8.89812C7.04156 9.58257 7.38378 10.1692 7.92156 10.5115C7.57934 10.5115 7.286 10.4137 7.04156 10.267C7.04156 11.1959 7.726 12.027 8.606 12.1737C8.45934 12.2226 8.26378 12.2226 8.06823 12.2226C7.92156 12.2226 7.82378 12.2226 7.67712 12.1737C7.92156 12.9559 8.6549 13.5426 9.5349 13.5426C8.85045 14.0803 8.01934 14.3737 7.09045 14.3737C6.94378 14.3737 6.79712 14.3737 6.60156 14.3248C7.48156 14.8626 8.50823 15.2048 9.63267 15.2048C13.2504 15.2048 15.206 12.2226 15.206 9.63146V9.38701C15.5971 9.24035 15.9393 8.89812 16.1838 8.50701Z" fill="white"/>
</svg>
