<svg width="22" height="22" viewBox="0 0 22 22" fill="none" xmlns="http://www.w3.org/2000/svg">
<rect x="1.21875" y="1.22266" width="19.5556" height="19.5556" rx="9.77778" fill="#54657E"/>
<path d="M10.9983 6.99291C12.2941 6.99291 12.4708 6.99291 13.0009 6.99291C13.4722 6.99291 13.7078 7.11071 13.8845 7.16962C14.1201 7.28742 14.2968 7.34632 14.4735 7.52303C14.6502 7.69974 14.768 7.87644 14.8269 8.11205C14.8858 8.28876 14.9447 8.52437 15.0036 8.99559C15.0036 9.52571 15.0036 9.64351 15.0036 10.9983C15.0036 12.353 15.0036 12.4708 15.0036 13.0009C15.0036 13.4722 14.8858 13.7078 14.8269 13.8845C14.7091 14.1201 14.6502 14.2968 14.4735 14.4735C14.2968 14.6502 14.1201 14.768 13.8845 14.8269C13.7078 14.8858 13.4722 14.9447 13.0009 15.0036C12.4708 15.0036 12.353 15.0036 10.9983 15.0036C9.64351 15.0036 9.52571 15.0036 8.99559 15.0036C8.52437 15.0036 8.28876 14.8858 8.11205 14.8269C7.87644 14.7091 7.69974 14.6502 7.52303 14.4735C7.34632 14.2968 7.22852 14.1201 7.16962 13.8845C7.11071 13.7078 7.05181 13.4722 6.99291 13.0009C6.99291 12.4708 6.99291 12.353 6.99291 10.9983C6.99291 9.64351 6.99291 9.52571 6.99291 8.99559C6.99291 8.52437 7.11071 8.28876 7.16962 8.11205C7.28742 7.87644 7.34632 7.69974 7.52303 7.52303C7.69974 7.34632 7.87644 7.22852 8.11205 7.16962C8.28876 7.11071 8.52437 7.05181 8.99559 6.99291C9.52571 6.99291 9.70241 6.99291 10.9983 6.99291ZM10.9983 6.10938C9.64351 6.10938 9.52571 6.10938 8.99559 6.10938C8.46547 6.10938 8.11205 6.22718 7.81754 6.34498C7.52303 6.46279 7.22852 6.6395 6.93401 6.93401C6.6395 7.22852 6.52169 7.46413 6.34498 7.81754C6.22718 8.11205 6.16828 8.46547 6.10938 8.99559C6.10938 9.52571 6.10938 9.70241 6.10938 10.9983C6.10938 12.353 6.10938 12.4708 6.10938 13.0009C6.10938 13.5311 6.22718 13.8845 6.34498 14.179C6.46279 14.4735 6.6395 14.768 6.93401 15.0625C7.22852 15.357 7.46413 15.4748 7.81754 15.6515C8.11205 15.7694 8.46547 15.8282 8.99559 15.8872C9.52571 15.8872 9.70241 15.8872 10.9983 15.8872C12.2941 15.8872 12.4708 15.8872 13.0009 15.8872C13.5311 15.8872 13.8845 15.7694 14.179 15.6515C14.4735 15.5337 14.768 15.357 15.0625 15.0625C15.357 14.768 15.4748 14.5324 15.6515 14.179C15.7694 13.8845 15.8282 13.5311 15.8872 13.0009C15.8872 12.4708 15.8872 12.2941 15.8872 10.9983C15.8872 9.70241 15.8872 9.52571 15.8872 8.99559C15.8872 8.46547 15.7694 8.11205 15.6515 7.81754C15.5337 7.52303 15.357 7.22852 15.0625 6.93401C14.768 6.6395 14.5324 6.52169 14.179 6.34498C13.8845 6.22718 13.5311 6.16828 13.0009 6.10938C12.4708 6.10938 12.353 6.10938 10.9983 6.10938Z" fill="white"/>
<path d="M10.9983 8.46547C9.58461 8.46547 8.46547 9.58461 8.46547 10.9983C8.46547 12.4119 9.58461 13.5311 10.9983 13.5311C12.4119 13.5311 13.5311 12.4119 13.5311 10.9983C13.5311 9.58461 12.4119 8.46547 10.9983 8.46547ZM10.9983 12.6475C10.1147 12.6475 9.349 11.9407 9.349 10.9983C9.349 10.1147 10.0558 9.349 10.9983 9.349C11.8818 9.349 12.6475 10.0558 12.6475 10.9983C12.6475 11.8818 11.8818 12.6475 10.9983 12.6475Z" fill="white"/>
<path d="M13.59 8.99559C13.9153 8.99559 14.179 8.73187 14.179 8.40656C14.179 8.08126 13.9153 7.81754 13.59 7.81754C13.2647 7.81754 13.0009 8.08126 13.0009 8.40656C13.0009 8.73187 13.2647 8.99559 13.59 8.99559Z" fill="white"/>
</svg>
