<svg width="22" height="22" viewBox="0 0 22 22" fill="none" xmlns="http://www.w3.org/2000/svg">
<rect x="1.21875" y="1.22266" width="19.5556" height="19.5556" rx="9.77778" fill="#54657E"/>
<path d="M15.8788 8.18951C15.1977 8.18949 14.5444 7.91888 14.0627 7.43721C13.5811 6.95554 13.3105 6.30226 13.3105 5.62109H11.4755V12.8065C11.4752 13.1341 11.3718 13.4533 11.1799 13.7188C10.988 13.9843 10.7174 14.1827 10.4065 14.2859C10.0956 14.389 9.76004 14.3917 9.4475 14.2935C9.13496 14.1953 8.86125 14.0013 8.66516 13.7389C8.46907 13.4764 8.36055 13.1589 8.35498 12.8314C8.34941 12.5038 8.44708 12.1828 8.63413 11.9139C8.82119 11.6449 9.08814 11.4417 9.39717 11.3329C9.70619 11.2242 10.0416 11.2155 10.3559 11.308V9.52424C9.688 9.43419 9.00856 9.55002 8.40827 9.85628C7.80797 10.1625 7.3154 10.6446 6.99631 11.2382C6.67723 11.8318 6.54683 12.5086 6.62252 13.1782C6.69821 13.8479 6.97639 14.4785 7.41992 14.9859C7.86345 15.4932 8.45121 15.8532 9.10472 16.0178C9.75823 16.1823 10.4464 16.1436 11.0773 15.9067C11.7082 15.6699 12.2518 15.2462 12.6356 14.6922C13.0194 14.1382 13.225 13.4804 13.225 12.8065L13.2786 9.1745C14.0325 9.72796 14.9437 10.0258 15.879 10.0244L15.8788 8.18951Z" fill="white"/>
</svg>
